<?xml version="1.0" encoding="UTF-8" standalone="no"?>
<svg width="160px" height="36px" viewBox="0 0 160 36" version="1.1" xmlns="http://www.w3.org/2000/svg"
     xmlns:xlink="http://www.w3.org/1999/xlink" xmlns:sketch="http://www.bohemiancoding.com/sketch/ns">
    <!-- Generator: Sketch 3.4 (15575) - http://www.bohemiancoding.com/sketch -->
    <title>InQuset Logo No Digits</title>
    <desc>Created with Sketch.</desc>
    <defs>
        <linearGradient x1="50.3176437%" y1="0.0245643154%" x2="50.3176437%" y2="99.706184%" id="linearGradient-1">
            <stop stop-color="#E63934" offset="14.89%"></stop>
            <stop stop-color="#C63838" offset="100%"></stop>
        </linearGradient>
        <linearGradient x1="50.0522619%" y1="0.0245643154%" x2="50.0522619%" y2="99.706184%" id="linearGradient-2">
            <stop stop-color="#E63934" offset="14.89%"></stop>
            <stop stop-color="#C63838" offset="100%"></stop>
        </linearGradient>
        <linearGradient x1="50.2003447%" y1="100.047889%" x2="50.2003447%" y2="0.0240650407%" id="linearGradient-3">
            <stop stop-color="#383C3E" offset="0%"></stop>
            <stop stop-color="#515457" offset="100%"></stop>
        </linearGradient>
        <linearGradient x1="50.1565664%" y1="99.706184%" x2="50.1565664%" y2="0.0245643154%" id="linearGradient-4">
            <stop stop-color="#383C3E" offset="0%"></stop>
            <stop stop-color="#515457" offset="100%"></stop>
        </linearGradient>
        <linearGradient x1="51.4236797%" y1="99.2350506%" x2="51.4236797%" y2="-0.324037578%" id="linearGradient-5">
            <stop stop-color="#383C3E" offset="0%"></stop>
            <stop stop-color="#515457" offset="100%"></stop>
        </linearGradient>
        <linearGradient x1="49.8263158%" y1="100.08036%" x2="49.8263158%" y2="-0.0140284471%" id="linearGradient-6">
            <stop stop-color="#383C3E" offset="0%"></stop>
            <stop stop-color="#515457" offset="100%"></stop>
        </linearGradient>
    </defs>
    <g id="Page-1" stroke="none" stroke-width="1" fill="none" fill-rule="evenodd" sketch:type="MSPage">
        <g id="logo" sketch:type="MSLayerGroup">
            <g id="layer1" transform="translate(0.000000, 0.101900)" sketch:type="MSShapeGroup">
                <g id="g4657" transform="translate(0.302665, 0.200700)">
                    <g id="g4389" transform="translate(0.000000, 0.000000)">
                        <g id="g4391" transform="translate(60.767766, 24.904822)" fill="#E63934">
                            <path d="M8.46763957,5.37944161 L7.67068525,4.58248729 L3.08819796,0.099619289 L0.697335023,2.49048222 L5.97715734,7.77030454 C6.57487307,8.36802028 7.2722081,8.46763956 7.96954312,7.77030454 L8.36802028,7.37182739 C9.26459388,6.77411165 9.0653553,5.97715734 8.46763957,5.37944161 L8.46763957,5.37944161 Z"
                                  id="path4393"></path>
                        </g>
                        <g id="g4395" transform="translate(61.763959, 24.904822)" fill="#E25F5D">
                            <path d="M7.2722081,7.67068525 L7.47144668,7.47144667 C8.1687817,6.77411165 8.06916241,5.97715734 7.47144668,5.47906089 L6.67449236,4.68210658 L2.09200507,0.199238578 L0.896573601,1.39467005 L7.2722081,7.67068525 L7.2722081,7.67068525 Z"
                                  id="path4397"></path>
                        </g>
                        <path d="M4.58248729,2.59010151 L0.896573601,2.59010151 C0.796954312,2.59010151 0.697335023,2.6897208 0.697335023,2.78934009 L0.697335023,26.3991116 C0.697335023,26.4987309 0.796954312,26.5983502 0.896573601,26.5983502 L4.58248729,26.5983502 C4.68210658,26.5983502 4.78172587,26.4987309 4.78172587,26.3991116 L4.78172587,2.78934009 C4.78172587,2.6897208 4.68210658,2.59010151 4.58248729,2.59010151 L4.58248729,2.59010151 Z"
                              id="path4404" fill="url(#linearGradient-1)"></path>
                        <path d="M31.8781725,2.59010151 L28.1922588,2.59010151 C28.0926395,2.59010151 27.9930202,2.6897208 27.9930202,2.78934009 L27.9930202,20.5215735 L16.0387055,2.6897208 C16.0387055,2.6897208 15.9390862,2.59010151 15.9390862,2.59010151 L11.3565989,2.59010151 C11.2569797,2.59010151 11.1573604,2.6897208 11.1573604,2.78934009 L11.1573604,26.3991116 C11.1573604,26.4987309 11.2569797,26.5983502 11.3565989,26.5983502 L15.0425126,26.5983502 C15.1421319,26.5983502 15.2417512,26.4987309 15.2417512,26.3991116 L15.2417512,8.56725885 L27.2956852,26.3991116 L27.3953045,26.4987309 L31.8781725,26.4987309 C31.9777918,26.4987309 32.0774111,26.3991116 32.0774111,26.2994923 L32.0774111,2.78934009 C32.0774111,2.6897208 31.9777918,2.59010151 31.8781725,2.59010151 L31.8781725,2.59010151 Z"
                              id="path4411" fill="url(#linearGradient-2)"></path>
                        <path d="M90.1554565,2.59010151 L86.4695429,2.59010151 C86.3699236,2.59010151 86.2703043,2.6897208 86.2703043,2.78934009 L86.2703043,17.1345177 C86.2703043,17.8318527 86.170685,18.5291878 85.9714464,19.2265228 C85.7722078,19.9238578 85.47335,20.6211928 85.0748728,21.2189086 C84.6763956,21.8166243 84.0786799,22.3147207 83.4809642,22.6135786 C82.7836292,23.0120558 81.9866748,23.111675 80.990482,23.111675 C79.9942891,23.111675 79.0977155,22.9124365 78.4999997,22.6135786 C77.8026647,22.2151014 77.3045683,21.717005 76.9060911,21.2189086 C76.507614,20.6211928 76.2087561,19.9238578 76.0095175,19.2265228 C75.8102789,18.5291878 75.7106596,17.8318527 75.7106596,17.1345177 L75.7106596,2.78934009 C75.7106596,2.6897208 75.6110404,2.59010151 75.5114211,2.59010151 L71.7258881,2.59010151 C71.6262688,2.59010151 71.5266495,2.6897208 71.5266495,2.78934009 L71.5266495,17.6326142 C71.5266495,19.0272842 71.7258881,20.322335 72.2239845,21.4181471 C72.722081,22.6135786 73.419416,23.6097715 74.2163703,24.4067258 C75.1129439,25.3032994 76.1091368,25.9010151 77.204949,26.3991116 C78.3007612,26.7975887 79.5958119,27.0964466 80.8908627,27.0964466 C82.1859134,27.0964466 83.3813449,26.897208 84.5767764,26.3991116 C85.6725885,26.0006344 86.7684007,25.3032994 87.565355,24.4067258 C88.4619286,23.5101522 89.0596444,22.5139593 89.5577408,21.4181471 C90.0558373,20.322335 90.2550758,19.0272842 90.2550758,17.6326142 L90.2550758,2.78934009 C90.3546951,2.6897208 90.2550758,2.59010151 90.1554565,2.59010151 L90.1554565,2.59010151 Z"
                              id="path4418" fill="url(#linearGradient-3)"></path>
                        <path d="M113.267132,22.6135786 L101.113578,22.6135786 L101.113578,16.2379441 L111.872462,16.2379441 C111.972081,16.2379441 112.0717,16.1383248 112.0717,16.0387055 L112.0717,12.5520304 C112.0717,12.4524111 111.972081,12.3527918 111.872462,12.3527918 L101.113578,12.3527918 L101.113578,6.47525378 L112.669416,6.47525378 C112.769035,6.47525378 112.868654,6.3756345 112.868654,6.27601521 L112.868654,2.78934009 C112.868654,2.6897208 112.769035,2.59010151 112.669416,2.59010151 L97.2284261,2.59010151 C97.1288068,2.59010151 97.0291875,2.6897208 97.0291875,2.78934009 L97.0291875,26.3991116 C97.0291875,26.4987309 97.1288068,26.5983502 97.2284261,26.5983502 L113.267132,26.5983502 C113.366751,26.5983502 113.46637,26.4987309 113.46637,26.3991116 L113.46637,22.9124365 C113.46637,22.7131979 113.366751,22.6135786 113.267132,22.6135786 L113.267132,22.6135786 Z"
                              id="path4425" fill="url(#linearGradient-4)"></path>
                        <path d="M131.6967,13.9467005 C130.800126,13.448604 129.903553,13.0501269 128.90736,12.8508883 C127.911167,12.6516497 127.014593,12.3527918 126.217639,11.9543147 C125.420685,11.6554568 124.822969,11.2569797 124.225253,10.7588832 C123.727157,10.3604061 123.527918,9.66307103 123.527918,8.86611672 C123.527918,8.56725885 123.627538,8.26840099 123.727157,7.86992383 C123.826776,7.57106596 124.026015,7.17258881 124.324873,6.87373094 C124.623731,6.57487307 125.022208,6.27601521 125.520304,6.07677663 C126.018401,5.87753805 126.715736,5.77791876 127.51269,5.77791876 C128.309644,5.77791876 129.106599,5.97715734 129.704314,6.27601521 C130.401649,6.57487307 130.800126,7.07296952 131.198604,7.57106596 L131.397842,7.86992383 L131.497461,7.96954312 L131.597081,7.96954312 L134.585659,5.27982232 C134.685279,5.18020303 134.685279,5.08058374 134.585659,5.08058374 L134.386421,4.88134516 C133.489847,3.78553298 132.394035,2.98857867 131.098984,2.59010151 C129.903553,2.29124365 128.608502,2.09200507 127.313451,2.09200507 C125.918781,2.09200507 124.623731,2.29124365 123.527918,2.78934009 C122.531725,3.18781725 121.635152,3.78553298 120.937817,4.482868 C120.240482,5.18020303 119.742385,5.87753805 119.443528,6.77411165 C119.14467,7.57106596 118.945431,8.36802028 118.945431,9.0653553 C118.945431,10.6592639 119.244289,11.9543147 119.842005,12.8508883 C120.43972,13.7474619 121.236675,14.5444162 122.133248,15.1421319 C123.029822,15.6402284 123.926396,16.1383248 124.922588,16.4371827 C125.918781,16.7360406 126.815355,17.0348984 127.612309,17.3337563 C128.409264,17.6326142 129.006979,18.0310913 129.604695,18.4295685 C130.003172,18.8280456 130.30203,19.3261421 130.30203,20.1230964 C130.30203,20.6211928 130.202411,21.1192893 130.003172,21.5177664 C129.803934,21.9162436 129.405456,22.3147207 129.006979,22.6135786 C128.608502,22.9124365 128.110406,23.111675 127.711928,23.3109136 C126.416878,23.7093908 125.121827,23.6097715 123.727157,23.0120558 C122.930203,22.6135786 122.332487,22.1154822 121.734771,21.3185278 L121.535533,21.01967 L121.435913,20.9200507 L121.336294,20.9200507 L118.248096,23.5101522 C118.148477,23.6097715 118.148477,23.7093908 118.248096,23.7093908 L118.447335,23.9086294 C119.244289,25.1040608 120.43972,25.9010151 121.83439,26.4987309 C123.22906,26.9968273 124.623731,27.2956852 126.217639,27.2956852 C127.413071,27.2956852 128.508883,27.0964466 129.505076,26.7975887 C130.501269,26.4987309 131.497461,25.9010151 132.194797,25.3032994 C132.991751,24.6059644 133.589467,23.8090101 134.087563,22.9124365 C134.48604,21.9162436 134.784898,20.9200507 134.784898,19.7246192 C134.784898,18.2303299 134.48604,17.0348984 133.888324,16.1383248 C133.290609,15.1421319 132.593274,14.4447969 131.6967,13.9467005 L131.6967,13.9467005 Z"
                              id="path4432" fill="url(#linearGradient-5)"></path>
                        <path d="M157.498096,2.59010151 L138.968908,2.59010151 C138.869289,2.59010151 138.76967,2.6897208 138.76967,2.78934009 L138.76967,6.27601521 C138.76967,6.3756345 138.869289,6.47525378 138.968908,6.47525378 L146.141497,6.47525378 L146.141497,26.2994923 C146.141497,26.3991116 146.241116,26.4987309 146.340736,26.4987309 L150.026649,26.4987309 C150.126269,26.4987309 150.225888,26.3991116 150.225888,26.2994923 L150.225888,6.47525378 L157.498096,6.47525378 C157.597715,6.47525378 157.697334,6.3756345 157.697334,6.27601521 L157.697334,2.78934009 C157.597715,2.6897208 157.597715,2.59010151 157.498096,2.59010151 L157.498096,2.59010151 Z"
                              id="path4439" fill="url(#linearGradient-6)"></path>
                        <g id="g4441" transform="translate(58.775381, 22.912436)" fill="#76797A">
                            <path d="M1.99238578,3.78553298 L4.38324872,1.29505076 L3.68591369,0.597715734 C3.08819796,-1.20736754e-15 2.39086294,-0.099619289 1.59390862,0.597715734 L1.19543147,0.99619289 C0.498096445,1.69352791 0.597715734,2.49048222 1.19543147,2.98857867 L1.99238578,3.78553298 L1.99238578,3.78553298 Z"
                                  id="path4443"></path>
                        </g>
                        <path d="M51.3039338,0.697335023 C43.8324872,0.697335023 37.7557105,6.77411165 37.7557105,14.2455583 C37.7557105,21.717005 43.8324872,27.7937816 51.3039338,27.7937816 C58.7753805,27.7937816 64.8521571,21.717005 64.8521571,14.2455583 C64.8521571,6.67449236 58.7753805,0.697335023 51.3039338,0.697335023 L51.3039338,0.697335023 Z M51.3039338,23.9086294 C45.9244922,23.9086294 41.6408628,19.5253806 41.6408628,14.2455583 C41.6408628,8.96573601 46.0241115,4.58248729 51.3039338,4.58248729 C56.5837562,4.58248729 60.9670049,8.96573601 60.9670049,14.2455583 C60.9670049,19.5253806 56.6833754,23.9086294 51.3039338,23.9086294 L51.3039338,23.9086294 Z"
                              id="path4445" fill="#989C9D"></path>
                        <path d="M59.970812,3.68591369 C59.7715734,5.18020303 59.4727155,6.77411165 58.9746191,8.1687817 C60.2696698,9.76269032 61.0666242,11.8546954 61.0666242,14.145939 C61.0666242,19.5253806 56.6833754,23.8090101 51.4035531,23.8090101 C49.1123095,23.8090101 47.0203044,23.0120558 45.4263958,21.717005 C44.0317257,22.2151014 42.5374364,22.5139593 40.9435278,22.7131979 C43.43401,25.7017766 47.219543,27.5945431 51.4035531,27.5945431 C58.8749998,27.5945431 64.9517764,21.5177664 64.9517764,14.0463197 C64.8521571,9.9619289 62.9593906,6.17639592 59.970812,3.68591369 L59.970812,3.68591369 Z"
                              id="path4447" fill="#76797A"></path>
                    </g>
                </g>
            </g>
        </g>
    </g>
</svg>
