<?xml version="1.0" ?><svg height="120px" version="1.1" viewBox="0 0 180 120" width="180px" xmlns="http://www.w3.org/2000/svg" xmlns:sketch="http://www.bohemiancoding.com/sketch/ns" xmlns:xlink="http://www.w3.org/1999/xlink"><title/><defs/><g fill="none" fill-rule="evenodd" id="Asia-Pacific" stroke="none" stroke-width="1"><g id="Bhutan" transform="translate(-600.000000, -201.000000)"><g transform="translate(600.000000, 201.000000)"><rect d="M0,0 L0,120 L180,120 L180,0 L0,0 Z M0,0" fill="#CA4638" height="120" id="Oval-15-copy" width="180" x="0" y="0"/><path d="M0,0 L0,120 L180,0 L0,0 Z M0,0" fill="#E5B731" id="Oval-15-copy-2"/><g id="dragon" transform="translate(14.000000, 6.000000)"><g fill="#FFFFFF" id="Group" stroke="#000000" stroke-width="0.5" transform="translate(0.000000, 20.448718)"><path d="M82.778773,6.24969466 C81.6116513,5.83347393 80.8579446,6.43890406 80.8959711,7.95238654 C80.9330218,9.46586667 81.7247551,10.3361124 82.8918791,9.76858291 L82.778773,6.24969466 L82.778773,6.24969466 L82.778773,6.24969466 L82.778773,6.24969466 Z M82.778773,6.24969466" id="Shape"/><path d="M83.8045156,3.41556581 C82.8324009,2.64462564 81.9256147,2.97515449 81.4770959,4.42057094 C81.0285772,5.86588868 81.4995211,6.94532479 82.7865749,6.7845156 L83.8045156,3.41556581 L83.8045156,3.41556581 L83.8045156,3.41556581 L83.8045156,3.41556581 Z M83.8045156,3.41556581" id="Shape"/><path d="M85.4221076,0.671928419 C84.5845484,-0.245814744 83.6368081,-0.0657132479 82.9630554,1.28881923 C82.2902785,2.64345043 82.5827902,3.78458291 83.8795928,3.83325791 L85.4221076,0.671928419 L85.4221076,0.671928419 L85.4221076,0.671928419 L85.4221076,0.671928419 Z M85.4221076,0.671928419" id="Shape"/><path d="M84.3612637,14.0062107 C82.9299056,14.5359406 82.778773,16.5035421 83.68361,17.7143083 C84.5874735,18.9250722 86.2450413,19.1520859 87.1489025,17.7143083 L84.3612637,14.0062107 L84.3612637,14.0062107 L84.3612637,14.0062107 L84.3612637,14.0062107 Z M84.3612637,14.0062107" id="Shape"/><path d="M82.7036958,9.84418675 C81.347415,9.3901641 80.1256895,11.2197767 79.9160569,12.8711494 C79.6527964,14.9521613 76.714025,15.6331976 78.3345421,18.7736671 C78.6728799,16.7683577 79.99211,15.6710983 81.0461279,15.5953957 C82.1011217,15.5196932 83.68361,15.2926795 84.3612637,14.0062107 L82.7036958,9.84418675 L82.7036958,9.84418675 L82.7036958,9.84418675 L82.7036958,9.84418675 Z M82.7036958,9.84418675" id="Shape"/><path d="M86.9987457,17.9413197 C85.4162574,18.3196421 85.1900476,20.4385547 86.3201186,21.9520348 C87.2873588,23.2478066 90.312908,22.9357874 90.2378307,21.6493186 L86.9987457,17.9413197 L86.9987457,17.9413197 L86.9987457,17.9413197 L86.9987457,17.9413197 Z M86.9987457,17.9413197" id="Shape"/><path d="M91.4810055,30.6923034 C91.556085,29.3302308 89.3719938,28.8005032 88.317,29.0653165 C87.2620086,29.3302308 85.2466006,29.0275145 84.7756544,27.8923545 C84.3992902,28.8005032 84.9453136,29.7842558 86.4712512,30.2760827 C87.6256966,30.6485267 87.6013222,31.4868466 87.2620086,31.8652677 C88.128819,32.0165765 90.690248,32.0165765 91.4810055,30.6923034 C91.4810055,30.6923034 90.690248,32.0165765 91.4810055,30.6923034 L91.4810055,30.6923034 L91.4810055,30.6923034 Z M91.4810055,30.6923034" id="Shape"/><path d="M90.2378307,21.9898391 C88.6933666,21.3088004 87.7778027,22.3461239 87.186929,23.3519118 C86.3201186,24.82759 83.6455835,22.9357874 82.7417223,24.9032925 C83.9663729,24.373565 85.2124727,25.5032415 85.7926217,25.8870474 C87.4501895,26.9843045 90.6522215,26.6437863 91.1046412,24.0708487 L90.2378307,21.9898391 L90.2378307,21.9898391 L90.2378307,21.9898391 L90.2378307,21.9898391 Z M90.2378307,21.9898391" id="Shape"/><path d="M91.1416919,23.8060355 C89.5972278,24.9788987 88.9946537,26.3788744 89.0326802,27.324825 C89.0707067,28.2707733 90.388961,30.3517853 91.820319,30.4652921 C92.649103,28.7626026 93.0634961,25.1681081 91.1416919,23.8060355 C91.1416919,23.8060355 93.0634961,25.1681081 91.1416919,23.8060355 L91.1416919,23.8060355 L91.1416919,23.8060355 Z M91.1416919,23.8060355" id="Shape"/><path d="M84.7386037,31.1085265 C84.7386037,30.5409947 85.5673877,30.3139833 86.1319353,30.503094 C86.6974587,30.6923034 87.5632956,31.2598353 87.2620086,31.8652677 L84.7386037,31.1085265 L84.7386037,31.1085265 L84.7386037,31.1085265 L84.7386037,31.1085265 Z M84.7386037,31.1085265" id="Shape"/><path d="M76.2245546,28.0058613 C76.0743978,27.324825 77.1664423,26.1518607 78.6358292,26.7950951 C80.1042379,27.4383295 80.293397,28.6869964 79.6898471,29.1788233 L76.2245546,28.0058613 L76.2245546,28.0058613 L76.2245546,28.0058613 L76.2245546,28.0058613 Z M76.2245546,28.0058613" id="Shape"/><path d="M79.8029509,29.2545259 C79.6898471,28.8761071 80.747766,28.1203459 82.553539,28.5733908 C84.3612637,29.0275145 84.804908,30.1967558 84.7386037,31.1085265 L79.8029509,29.2545259 L79.8029509,29.2545259 L79.8029509,29.2545259 L79.8029509,29.2545259 Z M79.8029509,29.2545259" id="Shape"/><path d="M76.0363713,28.0058613 C76.9782613,27.2870207 76.621397,25.9245556 75.7721349,25.5086263 C74.2276732,24.7518874 74.7931966,22.7843823 73.81328,22.4060598 C72.8343417,22.027641 71.8924516,21.3466047 71.8544251,20.665566 C71.3649548,21.6114179 71.6662418,22.4817624 72.3448713,23.0870962 C73.0225226,23.6925286 71.8173744,26.1518607 72.683209,26.7950951 L76.0363713,28.0058613 L76.0363713,28.0058613 L76.0363713,28.0058613 L76.0363713,28.0058613 Z M76.0363713,28.0058613" id="Shape"/><path d="M55.8448526,27.4761338 C55.0538027,26.2275656 53.1702215,26.4545769 52.3791716,27.324825 C51.5881217,28.1950707 51.7011271,29.4815395 52.4545413,30.049069 L55.8448526,27.4761338 L55.8448526,27.4761338 L55.8448526,27.4761338 L55.8448526,27.4761338 Z M55.8448526,27.4761338" id="Shape"/><path d="M60.3653331,25.6221331 C60.0639501,23.9573442 58.0673588,23.7681348 56.9749236,24.1843556 C55.8824906,24.6005786 55.1290764,26.2653675 55.8448526,27.4761338 L60.3653331,25.6221331 L60.3653331,25.6221331 L60.3653331,25.6221331 L60.3653331,25.6221331 Z M60.3653331,25.6221331" id="Shape"/><path d="M63.3789875,25.3951218 C64.0946677,23.9951462 62.7009454,21.9141342 61.1187473,21.6114179 C59.7978604,21.3590408 58.2369197,21.3655045 57.7283378,20.0601359 C57.4081357,21.1952936 58.2558346,21.9141342 59.2352621,22.5573686 C60.2145936,23.200603 59.0467863,24.8654906 60.6289844,25.8113425 L63.3789875,25.3951218 L63.3789875,25.3951218 L63.3789875,25.3951218 L63.3789875,25.3951218 Z M63.3789875,25.3951218" id="Shape"/><path d="M63.2282457,25.4433056 C62.898585,24.4404558 63.5672668,23.1061934 64.9207207,23.1997216 C66.2742707,23.2932498 67.0455281,24.2812143 66.4488042,25.5162652 L63.2282457,25.4433056 L63.2282457,25.4433056 L63.2282457,25.4433056 L63.2282457,25.4433056 Z M63.2282457,25.4433056" id="Shape"/><path d="M66.2419002,25.5189094 C66.0556685,24.4795316 66.9041466,23.2529987 68.2311763,23.5363239 C69.5582059,23.8196468 70.1832075,24.9066231 69.4207254,26.0453088 L66.2419002,25.5189094 L66.2419002,25.5189094 L66.2419002,25.5189094 L66.2419002,25.5189094 Z M66.2419002,25.5189094" id="Shape"/><path d="M69.2335179,25.9966361 C69.0989626,24.9489308 70.0077005,23.7666658 71.3191287,24.1159981 C72.6305569,24.4655254 73.2009548,25.5827635 72.381922,26.6815906 L69.2335179,25.9966361 L69.2335179,25.9966361 L69.2335179,25.9966361 L69.2335179,25.9966361 Z M69.2335179,25.9966361" id="Shape"/><path d="M46.5026045,43.3297827 C43.978617,43.3297827 43.3620983,43.9333536 42.9991895,46.5459524 C42.5471607,49.7999263 46.9546334,50.1782487 46.5026045,43.3297827 C46.5026045,43.3297827 46.9546334,50.1782487 46.5026045,43.3297827 L46.5026045,43.3297827 L46.5026045,43.3297827 Z M46.5026045,43.3297827" id="Shape"/><path d="M47.6326755,39.9244976 C43.7526014,38.4488194 41.643103,44.6162515 37.8007629,43.5189921 C39.1756661,45.7135085 42.5086451,43.5229079 43.7526014,43.7460034 C45.8621981,44.1244222 50.4203167,43.3297827 47.6326755,39.9244976 C47.6326755,39.9244976 50.4203167,43.3297827 47.6326755,39.9244976 L47.6326755,39.9244976 L47.6326755,39.9244976 Z M47.6326755,39.9244976" id="Shape"/><path d="M45.1087863,48.3620524 C43.1875671,47.491903 41.1157044,50.4431607 41.4923612,51.7295331 C41.9706178,53.3635714 46.3518627,52.032247 45.1087863,48.3620524 C45.1087863,48.3620524 46.3518627,52.032247 45.1087863,48.3620524 L45.1087863,48.3620524 L45.1087863,48.3620524 Z M45.1087863,48.3620524" id="Shape"/><path d="M36.143195,61.0758194 C37.1979922,61.3774592 38.478709,61.9836744 38.2526934,64.0265882 C38.0266802,66.0695045 34.1843401,70.2317235 30.7186568,70.4589323 C27.2529758,70.686141 26.0097988,74.8855744 23.0338783,73.7123186 C25.8214212,73.1834724 25.8214212,70.0045147 28.0063877,69.0212534 C26.4241919,68.4532327 25.5955039,72.0484111 23.5612793,72.0484111 C21.5270523,72.0484111 20.5476248,75.3017974 18.0613713,75.0745887 C15.5751154,74.84836 15.3134158,79.0360412 10.3389548,79.0859878 C6.53415445,79.1232045 1.8253947,83.588041 0.130188768,81.6587303 C3.82198362,81.1289041 5.31155148,79.0742357 7.5135819,76.814885 C11.0546349,73.1834724 15.0477168,74.8101656 16.4038994,71.5939936 C14.7839672,72.6908605 12.9004844,73.2206868 11.0546349,73.1834724 C8.73754914,73.1354838 6.19513339,76.8912739 3.59587207,75.2263863 C5.10269813,75.0373744 6.08222387,74.3939425 7.66432371,72.7290549 C9.28454836,71.024015 11.6618892,72.1257778 13.5408885,70.3835235 C16.4791732,67.6589833 19.0031607,69.929106 21.8284376,66.523922 C21.0372894,66.1458934 19.3421817,66.4103165 17.759986,67.2427603 C16.1777878,68.0752041 14.1436591,66.6747395 12.3354477,67.6589833 C12.561461,65.4270528 16.7805585,66.7041199 19.4174555,65.1616519 C22.3934719,63.4213532 24.8609087,63.9315934 27.2152418,64.1401938 C23.937936,64.1215855 22.6571232,60.9994306 18.136741,61.9072855 C16.1652098,62.3039201 14.595688,59.1837254 12.6368331,60.7722241 C12.6932878,59.5999462 14.7464298,58.6537017 16.8559282,59.7889605 C18.9654267,60.9240218 19.815564,58.7957075 24.0133058,61.4538481 C25.7461474,62.550715 28.7220679,60.7722241 30.605649,61.9454799 C30.3608167,61.2266393 29.2871022,60.7722241 28.0252067,60.867219 C28.8163549,59.2405259 33.9206888,59.4481485 36.143195,61.0758194 C36.143195,61.0758194 33.9206888,59.4481485 36.143195,61.0758194 L36.143195,61.0758194 L36.143195,61.0758194 Z M36.143195,61.0758194" id="Shape"/><path d="M39.4958705,58.6158998 C37.8383986,57.329431 35.5405226,58.8811056 33.9583245,58.2753816 C33.9583245,59.3345429 34.4857231,60.9240218 36.2185647,61.5292568 C36.7459633,61.1512306 39.1191154,59.0701199 39.4958705,58.6158998 C39.4958705,58.6158998 39.1191154,59.0701199 39.4958705,58.6158998 L39.4958705,58.6158998 L39.4958705,58.6158998 Z M39.4958705,58.6158998" id="Shape"/><path d="M42.0951318,54.9457028 C39.4958705,53.6214321 39.0438417,56.9132103 37.0096147,56.2321716 C37.0849867,57.1781222 37.8383986,58.3510842 39.4958705,58.6158998 L42.0951318,54.9457028 L42.0951318,54.9457028 L42.0951318,54.9457028 L42.0951318,54.9457028 Z M42.0951318,54.9457028" id="Shape"/><path d="M43.6395959,51.9566432 C39.7972559,50.4431607 39.307493,54.1511596 37.0472527,53.4322226 C37.5746513,54.7186915 40.814319,55.3997278 42.4717886,54.9457028 L43.6395959,51.9566432 L43.6395959,51.9566432 L43.6395959,51.9566432 L43.6395959,51.9566432 Z M43.6395959,51.9566432" id="Shape"/><path d="M48.9134883,35.7245754 C47.8963268,34.2867979 45.7491903,35.4597598 45.4101693,37.162353 C45.0711482,38.8650425 45.8998362,41.2487707 47.3313885,40.7190408 L48.9134883,35.7245754 L48.9134883,35.7245754 L48.9134883,35.7245754 L48.9134883,35.7245754 Z M48.9134883,35.7245754" id="Shape"/><path d="M51.5127496,31.1841327 C49.7422722,30.7680083 47.7080476,30.957119 47.9340608,32.6976128 C47.2559204,33.0003291 47.0676412,35.2327462 48.9134883,35.7245754 L51.5127496,31.1841327 L51.5127496,31.1841327 L51.5127496,31.1841327 L51.5127496,31.1841327 Z M51.5127496,31.1841327" id="Shape"/><path d="M52.6805569,30.0112671 C50.9477153,27.9680571 49.0151864,28.0155568 47.9340608,28.8761071 C45.9374719,30.4652921 43.9974337,29.5572421 43.9409789,31.1463284 C45.1465203,30.2193786 46.2012192,31.3355378 47.1806466,30.9950197 C48.1600764,30.6545015 48.8758526,32.5463041 51.5881217,31.7517609 L52.6805569,30.0112671 L52.6805569,30.0112671 L52.6805569,30.0112671 L52.6805569,30.0112671 Z M52.6805569,30.0112671" id="Shape"/><path d="M48.4990975,60.5459955 C48.7628448,61.037625 50.3825827,61.2648338 51.1737285,60.43239 C52.2221888,59.3286669 51.0607231,56.2699759 49.4031529,56.0429622 C47.7456833,55.8159509 47.5950398,59.4863429 48.4990975,60.5459955 C48.4990975,60.5459955 47.5950398,59.4863429 48.4990975,60.5459955 L48.4990975,60.5459955 L48.4990975,60.5459955 Z M48.4990975,60.5459955" id="Shape"/><path d="M46.6156123,60.6214043 C48.9887621,61.4910624 50.0059236,59.5235573 48.7251108,58.2753816 C48.3860897,58.6916024 47.1429126,60.2051812 46.6156123,60.6214043 C46.6156123,60.6214043 47.1429126,60.2051812 46.6156123,60.6214043 L46.6156123,60.6214043 L46.6156123,60.6214043 Z M46.6156123,60.6214043" id="Shape"/><path d="M37.7253931,63.8747906 C37.273266,65.2370607 34.937752,65.4642694 32.3008549,69.7018972 C29.6638596,73.9395274 27.139968,72.1610342 26.4995616,75.0745887 C29.6638596,72.5018485 32.1489431,74.2108066 34.0335983,71.6694024 C36.8966092,67.8098009 39.2541576,68.3641115 40.3622902,65.766887 C41.94439,62.0590831 48.8758526,62.1344942 49.2525094,56.3078765 C46.9168994,55.8537528 39.5335062,62.1344942 37.7253931,63.8747906 C37.7253931,63.8747906 39.5335062,62.1344942 37.7253931,63.8747906 L37.7253931,63.8747906 L37.7253931,63.8747906 Z M37.7253931,63.8747906" id="Shape"/><path d="M97.1693892,6.66591774 C100.183238,7.6496703 100.258315,11.5846806 103.723608,12.8711494 C107.189876,14.1576182 107.52919,17.2601846 110.353881,16.5035421 C107.717373,15.7846051 107.905554,12.7198406 105.155941,11.9630994 C101.930509,11.0756179 100.710735,6.13618782 98.14833,5.37944893" id="Shape"/><path d="M110.994482,27.2113182 C111.521979,28.4220821 111.446899,30.5787989 109.563124,31.1463284 C110.580089,31.7895628 112.086527,31.1841327 112.91531,29.7842558 C111.672133,32.5463041 112.500917,35.0435368 114.459775,35.5354624 C113.517885,33.6057592 115.627872,32.6976128 114.950218,31.4490447 C116.193395,31.9787722 117.28544,33.6814641 117.247413,34.7408205 C118.867931,32.9246241 116.042263,30.503094 116.56976,28.8005032 L110.994482,27.2113182 L110.994482,27.2113182 L110.994482,27.2113182 L110.994482,27.2113182 Z M110.994482,27.2113182" id="Shape"/><path d="M91.4810055,46.6594592 C89.6352543,45.0324722 88.847422,47.0847902 87.9396599,46.3756451 C87.0923518,45.7135085 85.9622785,45.6189038 85.5293612,46.2810404 C87.1118518,46.3378432 86.3386451,47.5675092 89.4090468,47.8702254 C86.3386451,48.0783346 86.9041685,51.5215203 84.850734,51.3512107 C87.0357988,53.4322226 88.1658697,49.4972124 89.9365413,50.1404468 C89.4090468,50.2917556 90.7653253,51.5404201 89.8234376,53.2052113 C91.3493752,53.1674071 91.9704758,51.0484944 92.1596326,49.9512374 L91.4810055,46.6594592 L91.4810055,46.6594592 L91.4810055,46.6594592 L91.4810055,46.6594592 Z M91.4810055,46.6594592" id="Shape"/><path d="M50.8347075,64.3292081 C50.1565671,63.7621652 48.1977122,63.4967643 47.444298,63.9511795 C46.6909821,64.4046169 46.9546334,64.5182201 47.8586911,64.594609 C48.7628448,64.6700201 49.9302613,66.1390372 47.9716966,66.2213021 C47.0676412,66.2585188 47.3690265,68.4532327 45.4854431,68.6050303 C46.2576739,69.5510797 48.4614594,68.9262562 49.2525094,67.8861897 C49.1018658,68.7372419 50.2319368,69.5128853 49.7799103,70.534341 C51.1737285,70.686141 50.3637637,67.6971778 52.5675491,67.8479953 C51.6633931,67.9616009 52.0401505,70.0045147 53.6222504,69.4746908 C52.6805569,69.929106 53.1702215,71.0259729 54.2250187,70.7615498 C53.5469766,70.9887585 53.3208651,71.8584167 54.2626568,72.3510286 C55.1668105,71.1023618 54.149649,66.6375252 50.8347075,64.3292081 C50.8347075,64.3292081 54.149649,66.6375252 50.8347075,64.3292081 L50.8347075,64.3292081 L50.8347075,64.3292081 Z M50.8347075,64.3292081" id="Shape"/><path d="M132.881204,22.5800902 C135.764399,22.5800902 138.101569,20.2321073 138.101569,17.3358895 C138.101569,14.440062 135.764399,12.0919827 132.881204,12.0919827 C129.997037,12.0919827 127.659866,14.440062 127.659866,17.3358895 C127.659866,20.2321073 129.997037,22.5800902 132.881204,22.5800902 C132.881204,22.5800902 129.997037,22.5800902 132.881204,22.5800902 L132.881204,22.5800902 L132.881204,22.5800902 Z M132.881204,22.5800902" id="Shape"/><path d="M105.607385,28.9140077 C107.189876,27.4005276 109.601151,26.6437863 111.257743,27.7788476 C112.91531,28.9140077 118.415511,30.2760827 121.128073,28.3842801 C123.839658,26.4923812 125.120862,25.5086263 126.32601,25.73564 C127.230847,27.0978113 128.322894,27.7410457 129.679172,27.8545526 C130.093566,28.3085776 131.56295,28.6869964 132.391734,28.5733908 C133.596885,28.8761071 135.066269,28.497787 136.233393,27.2113182 C138.042091,27.4761338 139.736712,26.1140588 140.377313,24.0708487 C142.298141,23.8438374 142.411245,21.6871229 141.206097,20.2493453 C140.076026,20.0223316 140.942836,16.2008282 136.835967,16.9575671 C138.569588,18.0169259 137.250358,20.1358385 138.682692,21.119591 C137.702778,21.119591 136.441076,21.5358141 136.139789,23.0113936 C136.516154,21.9898391 136.083236,21.3088004 135.819,21.0817891 C135.857027,20.211541 133.936198,18.0737286 132.1275,18.8493697 C133.427228,19.1331838 132.693021,21.2330979 133.634911,22.027641 C132.956284,22.0655417 132.240604,22.4060598 131.826211,23.0113936 C131.336743,22.1411479 129.604095,21.2330979 128.549101,21.1573929 C128.549101,20.8546791 128.492551,20.2493453 128.36092,19.9466291 C127.889974,19.0385791 127.494108,17.9603205 127.682291,16.5791483 C126.77843,17.5629009 126.024723,18.9250722 125.573279,19.9088271 C124.141921,18.9250722 120.600576,20.3628498 118.943008,20.7411722 C117.28544,21.119591 111.71016,20.211541 110.428959,18.8493697 C109.148731,17.487297 106.662379,16.6548509 104.327158,15.9738145 C101.115377,15.0375594 101.087099,11.5090767 97.5457535,9.08744786 C97.4706763,13.4765818 104.100948,27.4005276 105.607385,28.9140077 C105.607385,28.9140077 104.100948,27.4005276 105.607385,28.9140077 L105.607385,28.9140077 L105.607385,28.9140077 Z M105.607385,28.9140077" id="Shape"/><path d="M68.6904197,62.3617006 C71.4780608,62.3617006 73.7382028,60.091578 73.7382028,57.2916291 C73.7382028,54.4916801 71.4780608,52.2217526 68.6904197,52.2217526 C65.9025866,52.2217526 63.6426388,54.4916801 63.6426388,57.2916291 C63.6426388,60.091578 65.9025866,62.3617006 68.6904197,62.3617006 C68.6904197,62.3617006 65.9025866,62.3617006 68.6904197,62.3617006 L68.6904197,62.3617006 L68.6904197,62.3617006 Z M68.6904197,62.3617006" id="Shape"/><path d="M56.6360008,58.464591 C57.653064,59.7889605 59.3859056,59.7135517 60.1015858,59.5999462 C60.7043541,61.1884449 62.6254774,61.1512306 63.4542613,62.0208887 C64.2830452,62.8915269 67.1079314,62.8161182 67.9367153,62.3235062 C67.1839844,62.2480974 66.2042644,61.79466 65.2624727,60.9994306 C64.1256739,60.0406513 64.659702,58.1239741 63.7556443,57.4429378 C64.4336888,56.6861966 64.5466942,55.4376284 64.3960507,54.9457028 C65.1118292,54.5294821 65.6391295,53.8484457 65.7145016,53.5079252 C66.9577746,53.4322226 68.049819,52.7889882 68.5022387,52.2971613 C69.1428393,52.9024951 70.7623807,52.1079519 71.6291911,53.1295064 C71.8173744,50.6322737 69.4441264,49.308003 67.8616357,50.1404468 C67.2210351,49.7999263 65.526124,50.02694 65.2248346,50.480965 C64.697436,50.2539513 63.2282457,51.0106925 62.5502036,51.5025194 C63.3036178,51.0863951 63.4166232,49.8377306 63.1152402,49.3837056 C63.7556443,49.11889 64.4714228,48.2486442 64.5466942,47.6054098 C65.4508502,47.7567186 66.8066443,47.1512861 67.4092184,47.3026936 C66.4302777,46.0162248 64.8104438,45.5621998 63.152876,45.6757066 C61.4387551,45.77041 60.7043541,46.9811739 60.4783409,48.2864462 C59.4611794,48.8917799 59.1221583,50.93499 59.4989134,51.6539269 C58.9148635,51.6351235 58.3687441,52.2026553 58.1427309,52.5241726 C57.351681,52.1836545 56.2215117,51.9378397 55.4115445,51.9378397" id="Shape"/><path d="M55.7694828,49.8755325 C55.4304618,48.8917799 55.8794672,48.0061577 56.1085039,47.226991 C56.6923573,45.2406801 56.3345195,44.729756 54.5640398,44.9946703 C54.4133963,45.9405222 55.317454,49.0431874 55.7694828,49.8755325 C55.7694828,49.8755325 55.317454,49.0431874 55.7694828,49.8755325 L55.7694828,49.8755325 L55.7694828,49.8755325 Z M55.7694828,49.8755325" id="Shape"/><path d="M54.4697551,45.1081748 C54.9217839,45.5621998 56.522897,45.77041 56.6923573,44.3326325 C56.8869758,42.6820425 56.2215117,42.0433139 54.7900554,42.6865483 C54.6770476,43.0649671 54.5450265,44.6162515 54.4697551,45.1081748 C54.4697551,45.1081748 54.5450265,44.6162515 54.4697551,45.1081748 L54.4697551,45.1081748 L54.4697551,45.1081748 Z M54.4697551,45.1081748" id="Shape"/><path d="M54.8087761,42.6299406 C55.4115445,42.8757577 56.7112746,43.3676833 57.4269524,41.9677077 C58.027383,40.7935705 57.2386732,39.8866957 55.9955944,39.9623019 C55.6941131,40.3028201 55.0914407,41.5136827 54.8087761,42.6299406 C54.8087761,42.6299406 55.0914407,41.5136827 54.8087761,42.6299406 L54.8087761,42.6299406 L54.8087761,42.6299406 Z M54.8087761,42.6299406" id="Shape"/><path d="M55.9202246,39.8487951 C56.0708682,40.3028201 57.6154282,41.8163002 58.7454992,40.7190408 C59.8756685,39.6217838 59.8756685,37.9947968 58.1804649,37.389463 C57.7283378,37.4650669 56.3722535,39.0542519 55.9202246,39.8487951 C55.9202246,39.8487951 56.3722535,39.0542519 55.9202246,39.8487951 L55.9202246,39.8487951 L55.9202246,39.8487951 Z M55.9202246,39.8487951" id="Shape"/><path d="M58.1804649,37.389463 C58.519486,38.335315 59.5741872,39.9623019 61.5330421,39.2055607 C63.4919953,38.4488194 62.6632114,35.9894874 61.7591537,35.4975618 C61.2317551,35.5354624 59.0845203,36.519215 58.1804649,37.389463 C58.1804649,37.389463 59.0845203,36.519215 58.1804649,37.389463 L58.1804649,37.389463 L58.1804649,37.389463 Z M58.1804649,37.389463" id="Shape"/><path d="M61.7591537,35.4975618 C61.6084119,36.3300056 61.7591537,38.6002269 64.4336888,38.5623263 C67.1079314,38.5245244 66.3552005,35.3840549 65.6768635,34.9300323 C64.5844306,34.9300323 62.7385811,34.9678342 61.7591537,35.4975618 C61.7591537,35.4975618 62.7385811,34.9678342 61.7591537,35.4975618 L61.7591537,35.4975618 L61.7591537,35.4975618 Z M61.7591537,35.4975618" id="Shape"/><path d="M65.7898713,35.0435368 C65.488486,35.6867712 64.809468,39.9205818 70.0467005,38.7515357 C70.7243541,38.6002269 72.4950257,34.7030186 65.7898713,35.0435368 C65.7898713,35.0435368 72.4950257,34.7030186 65.7898713,35.0435368 L65.7898713,35.0435368 L65.7898713,35.0435368 Z M65.7898713,35.0435368" id="Shape"/><path d="M68.6523931,35.4219556 C68.1258721,35.9515868 69.4811771,40.2272139 73.0225226,39.5082769 C76.5638682,38.78934 73.588046,34.7408205 68.6523931,35.4219556 C68.6523931,35.4219556 73.588046,34.7408205 68.6523931,35.4219556 L68.6523931,35.4219556 L68.6523931,35.4219556 Z M68.6523931,35.4219556" id="Shape"/><path d="M71.6662418,36.0650936 C71.1016942,37.2380556 71.9499782,40.7190408 76.3191342,40.7190408 C80.2787715,40.7190408 76.1114509,36.1407962 71.6662418,36.0650936 C71.6662418,36.0650936 76.1114509,36.1407962 71.6662418,36.0650936 L71.6662418,36.0650936 L71.6662418,36.0650936 Z M71.6662418,36.0650936" id="Shape"/><path d="M75.0944836,37.0867468 C74.8107473,37.7369338 74.4636318,41.4274032 79.6147699,41.7406964 C83.3442964,41.9677077 82.4404353,36.6705237 75.0944836,37.0867468 C75.0944836,37.0867468 82.4404353,36.6705237 75.0944836,37.0867468 L75.0944836,37.0867468 L75.0944836,37.0867468 Z M75.0944836,37.0867468" id="Shape"/><path d="M80.6317348,38.6380312 C79.99211,39.7731889 79.3134805,42.6109421 84.9638378,42.8379534 C88.5841615,42.9834848 86.3581451,38.7137338 80.6317348,38.6380312 C80.6317348,38.6380312 86.3581451,38.7137338 80.6317348,38.6380312 L80.6317348,38.6380312 L80.6317348,38.6380312 Z M80.6317348,38.6380312" id="Shape"/><path d="M85.3411778,39.5082769 C84.5123939,40.643437 85.1227699,42.869978 87.2239821,43.2919784 C89.8614641,43.8217083 90.2378307,41.3244733 88.4301061,40.1137094 C86.6214056,38.9029432 85.3411778,39.5082769 85.3411778,39.5082769 L85.3411778,39.5082769 L85.3411778,39.5082769 L85.3411778,39.5082769 Z M85.3411778,39.5082769" id="Shape"/><path d="M87.9026092,40.0380045 C87.3000351,41.097462 87.6734743,43.6703009 91.6691888,43.6703009 C92.4979727,43.6703009 95.6629516,40.4163269 87.9026092,40.0380045 C87.9026092,40.0380045 95.6629516,40.4163269 87.9026092,40.0380045 L87.9026092,40.0380045 L87.9026092,40.0380045 Z M87.9026092,40.0380045" id="Shape"/><path d="M56.9764844,89.3808714 C60.2128385,89.3808714 62.8365725,86.7454524 62.8365725,83.4950041 C62.8365725,80.2435756 60.2128385,77.6081566 56.9764844,77.6081566 C53.7398401,77.6081566 51.1161037,80.2435756 51.1161037,83.4950041 C51.1161037,86.7454524 53.7398401,89.3808714 56.9764844,89.3808714 C56.9764844,89.3808714 53.7398401,89.3808714 56.9764844,89.3808714 L56.9764844,89.3808714 L56.9764844,89.3808714 Z M56.9764844,89.3808714" id="Shape"/><path d="M99.9570281,3.79036261 C99.5046108,4.24438761 98.5636966,5.60646026 98.3745398,6.13618782 C96.4156825,12.0387056 101.644823,16.4478182 104.703524,22.7843823 C107.114796,27.7788476 106.813509,35.6489692 103.045956,40.643437 C101.756953,42.3518075 102.142093,42.8379534 100.484525,44.5784472 C99.8487988,45.246166 99.1282441,46.0919297 99.354454,48.5134598 C100.409448,48.1350387 101.915883,49.11889 102.217172,49.9512374 C102.970877,49.572915 104.025871,49.7242237 104.402237,50.1782487 C105.682463,49.572915 106.737456,49.8755325 107.867527,51.0863951 C108.847444,50.93499 109.902438,51.0863951 110.881376,52.1457538 C111.408873,51.0863951 112.463867,50.7079763 113.216598,50.93499 C113.14152,49.572915 114.497801,48.5891624 115.702949,49.11889 C115.326585,47.3026936 116.984153,45.9405222 118.566644,46.4702498 C119.921949,45.4107947 122.63451,45.3351885 123.990791,46.9242748 C121.579516,46.2432385 121.655569,48.8161737 119.620661,48.5891624 C120.148158,50.1026425 118.791878,50.9728906 117.43657,51.4647175 C118.302407,51.0484944 119.244295,50.5566675 119.545582,51.0863951 C120.299289,50.4243573 121.805726,50.6701744 122.183066,51.0106925 C123.180531,50.6891729 124.141921,50.93499 124.593365,52.1457538 C125.949646,52.9781976 126.853507,55.0970115 125.874566,56.6861966 C125.573279,55.0214077 124.443208,55.0970115 123.990791,54.4159752 C122.935797,54.794394 121.880803,54.794394 121.579516,54.113259 C120.976942,54.7186915 118.943008,55.248419 118.039147,54.3402726 C117.699831,55.702444 116.531733,56.8376041 115.175452,56.8376041 C115.552795,57.8969628 114.497801,59.7135517 113.669017,60.6214043 C114.950218,61.3020504 114.572878,62.8161182 114.271591,63.7239707 C116.230446,64.0265882 114.572878,65.766887 117.963094,66.9019483 C116.306499,67.4317746 113.066441,66.9019483 112.614023,64.8590321 C110.956456,64.7836233 109.826385,63.1187357 109.902438,61.3774592 C108.621234,60.1669868 108.433051,58.4266904 110.203725,57.2159241 C108.696311,57.6699491 107.867527,55.248419 105.682463,56.2321716 C104.596268,56.7216504 101.727702,55.8916534 101.765729,54.8700002 C101.313309,55.6267415 98.5636966,55.3241239 98.1863565,54.0376551 C97.282493,54.5294821 95.1725078,53.697137 95.2105343,52.4484701 C94.0424368,52.9781976 92.460922,52.032247 92.5359992,50.8214831 C91.4439548,50.6701744 91.3308487,49.6864218 91.4059282,48.853978 C90.4260117,48.399953 90.690248,47.4540024 91.0666147,46.318941 C90.388961,45.5621998 90.690248,44.5027447 91.2177449,43.5189921 C90.4640382,42.7622509 90.6151708,41.8542009 90.8404048,40.7947457 C87.2239821,40.4920295 82.6939446,39.6160041 72.3068448,36.4057105 C56.6360008,31.5625515 52.4168073,42.9135596 55.8824906,50.02694 C59.881032,58.2344442 55.4304618,60.0161692 56.7866443,66.1458934 C58.2181006,66.4485109 58.9715148,67.6589833 58.896241,68.9458423 C59.7435515,68.983059 60.3463198,69.7773083 60.0449345,71.2913761 C60.7607129,71.1591645 61.6837839,71.3667848 62.286454,71.9720222 C62.8138549,70.9887585 64.5466942,70.7615498 65.4508502,71.8966111 C67.4092184,71.7448135 68.3891326,73.3342923 68.3140554,75.3017974 C69.3680733,77.1938938 68.9917067,79.5022109 67.8616357,80.9771064 C67.9747418,80.1828571 67.8616357,79.0477934 67.824585,78.3671496 C67.7543822,77.1145669 66.0158846,76.8530795 66.2042644,75.8316237 C65.3002067,75.9070325 64.4336888,75.4154006 64.1324017,74.7347568 C63.6050008,75.1881919 62.8515889,75.3399919 62.2111825,75.1127831 C63.2282457,75.5672006 64.0193939,77.3829058 63.7180086,78.5933782 C64.2454072,79.5022109 64.1324017,81.1670985 63.4919953,81.8859391 C63.19061,83.3608323 62.060539,83.8906585 60.5913487,83.2472291 C61.4201326,82.7183829 61.7214197,81.7723335 61.6837839,80.9771064 C61.156383,80.523669 60.892734,79.6530308 60.855,79.1232045 C59.3859056,79.3504132 57.351681,78.1017464 56.9764844,77.6081566 C53.7398401,77.6081566 51.1161037,80.2435756 51.1161037,83.4950041 C50.9654602,82.2835538 49.4408869,81.0907096 49.6291685,80.0692515 C48.7251108,77.2693026 50.0059236,74.6583656 53.6976201,74.1295194 C53.2455913,73.0698669 54.8276911,71.9720222 54.2250187,70.7615498 C53.4550296,69.2151637 52.0401505,67.2045658 49.9306498,64.8590321 C51.2114626,62.6643205 50.8347075,59.7135517 50.0812933,57.8969628 C48.9993908,55.2889639 47.9716966,55.9294577 44.1293565,60.1669868 C37.8673573,67.0733344 29.5132161,65.1616519 22.1297246,69.7018972 C20.1678463,70.9084515 18.2121108,71.3667848 20.3216115,69.2484598 C22.4312059,67.1291571 28.0063877,65.0108321 31.6227145,63.1941444 C38.3950507,59.7928786 44.1293565,54.113259 46.3895967,43.0649671 C51.7008346,17.1010419 71.251851,25.6600338 83.6075569,30.503094 C95.2076092,35.0501979 93.1005468,24.7518874 87.2239821,18.5466534 C80.160791,11.0882515 81.5736248,5.22814017 84.8887605,0.536289957 C90.8404048,-0.296055128 102.255199,1.78495684 99.9570281,3.79036261 C99.9570281,3.79036261 102.255199,1.78495684 99.9570281,3.79036261 L99.9570281,3.79036261 L99.9570281,3.79036261 Z M99.9570281,3.79036261" id="Shape"/><path d="M120.940865,67.5708423 C124.501711,67.5708423 127.388803,64.671978 127.388803,61.0954079 C127.388803,57.5186404 124.501711,54.6190921 120.940865,54.6190921 C117.38002,54.6190921 114.492924,57.5186404 114.492924,61.0954079 C114.492924,64.671978 117.38002,67.5708423 120.940865,67.5708423 C120.940865,67.5708423 117.38002,67.5708423 120.940865,67.5708423 L120.940865,67.5708423 L120.940865,67.5708423 Z M120.940865,67.5708423" id="Shape"/></g><path d="M96.3406053,24.5416981 C94.9092473,30.8983372 96.1143955,33.7738923 98.224383,36.5738412 C102.583785,42.3607955 106.059805,55.5679596 101.087099,64.1947214" id="Shape" stroke="#000000" stroke-width="0.5"/><g id="Group" stroke="#000000" stroke-width="0.5" transform="translate(49.609984, 31.025641)"><path d="M54.2647559,25.7151818 C54.86733,25.4881705 55.9974009,24.7693299 56.2616373,23.5206654" id="Shape"/><path d="M54.7171732,22.9531335 C54.9053565,21.8558741 56.599975,21.3830457 56.6380016,20.2100838" id="Shape"/><path d="M54.7542262,18.6776028 C54.6411201,17.5424451 56.4498206,16.5208882 56.1855842,15.3858269" id="Shape"/><path d="M53.7752855,14.591185 C53.6241529,13.9479506 55.2817207,12.7371868 54.8302793,11.7156299" id="Shape"/><path d="M52.5321084,10.6183705 C52.1927949,9.89943355 53.3228658,9.06698974 52.8333955,8.3102485" id="Shape"/><path d="M50.7234103,7.44000278 C50.6103042,6.94817585 51.3074579,5.86991496 50.9310936,5.22677927" id="Shape"/><path d="M48.9156856,3.69420192 C49.0658424,3.50499252 49.6693924,3.05096752 49.4236802,2.48343568" id="Shape"/><path d="M47.6725086,0.951152137 C47.9172449,0.818646795 48.6514493,0.591536752 48.5578456,0.0431021368" id="Shape"/><g id="Shape" transform="translate(6.084243, 3.760684)"><path d="M3.87995944,68.5315936 C2.37313105,68.0017697 0.489645866,68.7588024 0.11298908,70.0456637"/><path d="M1.24306006,71.2179393 C1.4314376,69.9320581 3.39029251,69.3640374 3.9929649,69.9692748 C2.74988612,69.2886286 2.14711778,71.7095712 3.23955304,71.78596"/><path d="M13.3725585,41.2891346 C12.468695,41.743256 12.2054345,43.4080472 13.3725585,44.6571043"/><path d="M14.7288393,41.6675534 C14.0892122,42.197281 14.1262652,43.7863673 15.0681529,44.1647861 C14.2773955,43.5972566 15.0681529,42.6135041 15.6336763,42.5756034 C16.1982239,42.5377991 16.5745905,43.2188378 15.8969368,43.8998741"/><path d="M67.6559602,45.4131592 C65.5469485,44.8461186 63.8513541,47.3052556 65.7721825,49.4999694 C65.7351318,47.3806643 67.2415694,45.9811799 69.0873206,46.3592062"/><path d="M68.2400101,47.8252876 C67.7212886,47.8252876 67.4297527,48.2326942 67.4297527,48.6293312 C67.4297527,49.0455519 67.7875905,49.4431667 68.3716404,49.4431667 C68.7489805,49.4431667 69.0502676,49.0083376 69.0502676,48.6675256"/><path d="M75.6795655,1.37129573 C76.0188791,2.65776453 77.7895507,3.18749209 79.1828846,2.88477585"/><path d="M79.1828846,2.05233205 C78.0908401,2.09023269 77.1869766,1.06857949 77.2620562,0.198333761 C77.2620562,0.841565812 78.7314407,1.14428205 79.1828846,0.728061325"/></g><path d="M10.4916014,49.0230231 C10.1903144,48.265988 11.3957551,47.5092491 11.4333931,46.7903098 C11.4711271,46.0714716 12.7894774,45.5039397 14.1456599,46.8660147" id="Shape"/><path d="M13.5052559,38.8067825 C13.2416045,38.9202893 13.015493,39.0715981 12.7894774,39.1473006" id="Shape"/><path d="M16.1045172,42.9310021 C15.7842168,42.9500994 15.1250897,42.9121987 14.7671513,42.6660902" id="Shape"/><path d="M14.7860663,44.3687797 C14.5224173,44.5013838 13.9382691,44.7283974 13.599248,44.8041" id="Shape"/><path d="M1.86512949,67.2222058 C1.82739548,67.9038297 2.50553588,68.8870934 2.88219267,69.1897109" id="Shape"/><path d="M4.80341186,65.5955126 C4.42665679,66.1625532 4.20073947,67.146797 4.42665679,67.8274408" id="Shape"/><path d="M10.4163276,67.8656353 C9.73818721,67.4112201 10.1903144,66.237962 10.1149423,65.4819071 C10.0395725,64.7248744 10.9060905,63.5144019 12.6011981,64.53586" id="Shape"/><path d="M4.08763573,63.5525964 C4.76577613,63.4389932 5.48145632,63.4762075 5.93348284,63.6652218" id="Shape"/><path d="M12.6764696,61.3950991 C12.3751825,61.8113199 12.2998128,62.2657374 12.2621771,62.5683549" id="Shape"/><path d="M15.8408658,61.319688 C15.3134672,61.319688 14.8614384,61.6977167 14.6354228,62.0767231" id="Shape"/><path d="M8.53274649,41.9472496 C9.13551482,42.1554598 10.6986997,43.1202139 10.7553487,44.122965" id="Shape"/><path d="M14.9367098,37.0284868 C13.090961,36.9905861 12.3751825,35.0987835 13.7690031,35.0987835" id="Shape"/><path d="M18.2516513,39.5635237 C17.5359735,39.8662376 17.8752871,41.1148058 18.8922543,41.7202382" id="Shape"/><path d="M13.8442769,51.4439656 C13.4863385,50.9905282 13.9572824,49.6664526 15.1250897,50.0630895" id="Shape"/><path d="M16.59428,65.2547006 C16.669163,64.101031 18.1200211,63.4194071 18.704071,64.7248744" id="Shape"/><path d="M11.2450156,68.5462814 C11.1507285,67.2790085 11.7911349,66.8627855 12.3561693,66.7873767 C12.9212059,66.7119656 13.7313674,67.1840113 14.1080242,68.0164551" id="Shape"/><path d="M0.0191840874,69.4923284 C0.0945538222,68.7352957 0.734960218,67.9410464 1.41300234,68.0546496" id="Shape"/><path d="M68.9566591,35.8933267 C68.4662129,36.2529421 68.1463994,37.8608318 70.0106771,38.0122393" id="Shape"/><path d="M66.0929649,38.5419669 C66.0929649,38.7310799 66.3377012,38.9959919 66.4888315,39.1094987" id="Shape"/><path d="M74.9833807,41.5688308 C74.4939103,41.1905107 73.2312332,42.7229893 74.3808066,43.8390521" id="Shape"/><path d="M63.004039,54.282109 C62.7212761,53.2038504 63.7197192,52.9198412 64.6616069,53.1470476" id="Shape"/><path d="M60.5937402,46.6390011 C61.1582878,46.260681 61.7238112,45.8444579 62.4394914,45.6552485" id="Shape"/><path d="M60.2924532,50.8005361 C60.2924532,49.8926835 60.743897,49.1366286 61.1582878,48.9094199" id="Shape"/><path d="M63.6066131,40.3580669 C63.5315359,41.4553239 63.9839532,42.5147814 64.3232668,43.0823132" id="Shape"/><path d="M72.5730819,40.4337694 C72.026085,40.6041754 71.5366147,40.8120919 71.3299048,41.2662132" id="Shape"/><path d="M71.969532,43.5363359 C72.2337683,43.3093246 72.5350554,43.044509 72.6666856,42.8552996" id="Shape"/><path d="M86.2090156,10.504866 C86.2090156,11.5642248 84.8907613,12.1317543 84.0249267,11.4507179" id="Shape"/><path d="M89.0727075,10.5426679 C89.6557816,10.9966929 91.6711895,10.5617652 91.2002457,9.38880321" id="Shape"/><path d="M86.6234087,16.6343951 C86.2090156,16.5586902 85.4933378,16.1046675 85.1920484,15.7263451" id="Shape"/><path d="M90.7673284,13.4939256 C90.0896747,13.6452344 89.6372574,13.4939256 89.2979438,13.3426169" id="Shape"/><path d="M80.069188,17.2776295 C80.4455546,17.2776295 81.3494158,17.126222 81.9714922,16.8048011" id="Shape"/><path d="M78.939117,10.5804699 C78.4496466,10.5238645 78.0908331,10.6183705 77.809046,10.8074835" id="Shape"/><path d="M86.529805,12.4344705 C86.3981747,12.9075927 86.0588588,13.6452344 85.644468,13.9670479" id="Shape"/><path d="M77.6579158,14.0993581 C78.5998034,13.6831374 79.7679009,16.8992107 82.0280452,15.764147" id="Shape"/><path d="M82.2162262,12.4344705 C81.9149392,12.8506912 81.7267582,13.4939256 81.6887293,14.0614575" id="Shape"/></g><path d="M86.7725382,38.5413464 C87.0738253,38.5035444 87.6013222,38.3900376 87.7144259,38.0116188" id="Shape" stroke="#000000" stroke-width="0.5"/><path d="M48.0093346,73.7674338 C49.1395039,74.4106682 49.9306498,75.5079276 49.4408869,77.1349145" id="Shape" stroke="#000000" stroke-width="0.5"/><path d="M99.8058978,35.0603611 C100.145211,35.2873724 101.426415,35.2873724 102.142093,35.0225592" id="Shape" stroke="#000000" stroke-width="0.5"/><path d="M103.045956,35.8171024 C103.00793,36.3468299 103.15906,38.352137 102.142093,38.76836" id="Shape" stroke="#000000" stroke-width="0.5"/><path d="M102.518459,38.5035444 C103.460347,38.8062607 105.344125,38.6926575 105.946699,36.95226" id="Shape" stroke="#000000" stroke-width="0.5"/><path d="M104.628445,38.4278419 C105.117915,39.1845808 105.268072,40.660259 103.799661,41.4548021" id="Shape" stroke="#000000" stroke-width="0.5"/><path d="M105.004811,39.6765064 C106.096856,40.0548288 108.621234,40.0926308 108.356998,37.936015" id="Shape" stroke="#000000" stroke-width="0.5"/><path d="M107.491163,39.6765064 C108.24487,40.7358652 111.560005,41.9845321 111.032509,39.7900132" id="Shape" stroke="#000000" stroke-width="0.5"/><path d="M104.440264,42.7412709 C105.720489,43.0439872 107.52919,42.1736427 106.775483,39.9035201" id="Shape" stroke="#000000" stroke-width="0.5"/><path d="M110.391908,41.0385814 C110.580089,41.9088271 114.799088,42.8168771 114.234541,40.849372" id="Shape" stroke="#000000" stroke-width="0.5"/><path d="M113.442807,41.9845321 C114.234541,43.8006297 118.415511,43.6493209 117.097257,41.2277908" id="Shape" stroke="#000000" stroke-width="0.5"/><path d="M116.418629,43.1195934 C117.247413,44.1412466 120.939889,43.5358141 119.470505,41.0763833" id="Shape" stroke="#000000" stroke-width="0.5"/><path d="M119.432478,43.0817891 C121.730647,44.8222829 124.405182,42.3250502 121.504437,40.5088538" id="Shape" stroke="#000000" stroke-width="0.5"/><path d="M122.822691,42.5142596 C124.857601,44.1412466 127.343953,41.1898902 125.573279,40.3575451" id="Shape" stroke="#000000" stroke-width="0.5"/><path d="M106.737456,41.8331246 C107.378059,42.022334 108.734338,41.9466314 109.035627,40.7737658" id="Shape" stroke="#000000" stroke-width="0.5"/><path d="M108.526654,41.568309 C108.451577,43.2899994 111.333796,43.9520372 112.068,41.9657286" id="Shape" stroke="#000000" stroke-width="0.5"/><path d="M111.107586,43.0439872 C111.635083,44.1790485 114.158488,44.6330735 114.572878,43.0060865" id="Shape" stroke="#000000" stroke-width="0.5"/><path d="M114.158488,43.7628278 C114.572878,44.8979878 116.757943,44.784481 117.360517,43.611519" id="Shape" stroke="#000000" stroke-width="0.5"/><path d="M116.56976,44.3682579 C117.247413,45.8438397 120.035052,45.8438397 120.675653,43.6871229" id="Shape" stroke="#000000" stroke-width="0.5"/><path d="M120.186185,44.6330735 C121.278229,45.3142085 123.614424,45.0492966 123.425268,42.9304803" id="Shape" stroke="#000000" stroke-width="0.5"/><path d="M122.973824,44.4438641 C124.593365,45.7682335 126.891534,44.4817647 125.761463,42.2493453" id="Shape" stroke="#000000" stroke-width="0.5"/><path d="M125.648359,46.1843579 C126.515169,46.0330491 126.966613,44.2925553 126.06275,43.8385303" id="Shape" stroke="#000000" stroke-width="0.5"/><path d="M105.570335,46.4870741 C107.378059,45.5033216 107.717373,43.8385303 106.474196,42.2115434" id="Shape" stroke="#000000" stroke-width="0.5"/><path d="M107.114796,44.8222829 C108.24487,45.5033216 110.391908,44.784481 110.768272,43.1195934" id="Shape" stroke="#000000" stroke-width="0.5"/><path d="M108.659261,45.0114923 C109.298888,45.8438397 109.411991,46.8654929 108.583207,47.8113449" id="Shape" stroke="#000000" stroke-width="0.5"/><path d="M109.186757,46.0708511 C111.182665,44.8222829 113.669017,47.1303085 111.823266,48.5302818" id="Shape" stroke="#000000" stroke-width="0.5"/><path d="M111.483952,45.9573442 C111.93637,45.8438397 112.727127,45.0114923 112.802207,44.065544" id="Shape" stroke="#000000" stroke-width="0.5"/><path d="M112.387814,46.8275923 C113.216598,45.9573442 118.867931,47.7357387 115.288559,49.5518387" id="Shape" stroke="#000000" stroke-width="0.5"/><path d="M115.025298,44.4438641 C116.117342,44.8600872 116.682866,46.4114679 115.025298,46.9410991" id="Shape" stroke="#000000" stroke-width="0.5"/><path d="M116.456656,48.2275656 C117.661804,46.9789998 121.42936,47.7735429 120.073079,49.3627256" id="Shape" stroke="#000000" stroke-width="0.5"/><path d="M119.169218,47.7357387 C119.846869,45.4276167 123.877685,46.8654929 122.559431,47.8113449" id="Shape" stroke="#000000" stroke-width="0.5"/><path d="M118.340434,45.4276167 C118.453537,45.8817404 118.490588,47.0168017 117.737857,47.6222318" id="Shape" stroke="#000000" stroke-width="0.5"/><path d="M121.730647,44.9735917 C121.880803,45.3520105 121.843753,46.0708511 121.504437,46.5249748" id="Shape" stroke="#000000" stroke-width="0.5"/><path d="M124.292078,45.0114923 C124.518285,45.4276167 124.894652,46.2222585 124.065868,46.8654929" id="Shape" stroke="#000000" stroke-width="0.5"/><path d="M92.0465289,27.6065613 C92.0835796,29.7631771 92.8372863,31.2010534 95.7380312,29.8388821" id="Shape" stroke="#000000" stroke-width="0.5"/><path d="M92.95039,30.1794002 C91.519032,32.1091034 93.1385733,34.1901154 95.9642387,32.1091034" id="Shape" stroke="#000000" stroke-width="0.5"/><path d="M88.5432098,31.1253509 C90.5020647,33.2441647 94.0053838,31.6928803 91.7452418,28.4767083" id="Shape" stroke="#000000" stroke-width="0.5"/><path d="M94.1184899,32.9415472 C93.7411474,35.0225592 95.4367441,35.4387799 96.8300757,34.4928293" id="Shape" stroke="#000000" stroke-width="0.5"/><path d="M86.8095889,31.465869 C87.1664532,33.5580455 89.2959407,35.2116699 91.3679017,33.9252998" id="Shape" stroke="#000000" stroke-width="0.5"/><path d="M89.3719938,34.3414241 C89.3719938,37.3305825 93.4778869,37.6711006 94.4197769,34.5685342" id="Shape" stroke="#000000" stroke-width="0.5"/><path d="M92.95039,36.4603368 C94.2686443,39.1845808 97.1313627,38.0873237 98.0732504,36.4225325" id="Shape" stroke="#000000" stroke-width="0.5"/><path d="M90.0496474,32.1091034 C90.5771443,33.4333741 91.6321381,34.9090524 94.0804633,33.8117929" id="Shape" stroke="#000000" stroke-width="0.5"/><path d="M82.5155125,31.465869 C82.8548261,32.5631261 84.8136833,33.8873991 87.0738253,32.3739167" id="Shape" stroke="#000000" stroke-width="0.5"/><path d="M83.9098198,32.8658423 C82.7036958,34.644138 85.1149704,36.3090256 88.0157129,33.6603855" id="Shape" stroke="#000000" stroke-width="0.5"/><path d="M85.3411778,35.0603611 C85.8306482,37.5575938 86.8095889,39.5630019 90.3509345,36.3468299" id="Shape" stroke="#000000" stroke-width="0.5"/><path d="M88.5802629,37.6332987 C89.8614641,39.222385 91.820319,40.2061376 93.6660702,37.5197919" id="Shape" stroke="#000000" stroke-width="0.5"/><path d="M95.022351,38.0873237 C94.9092473,39.9791239 95.2856115,40.9250746 96.7549961,40.849372 C97.9133448,40.7898263 99.0151404,39.8656194 99.655741,38.8818669" id="Shape" stroke="#000000" stroke-width="0.5"/><path d="M96.4917356,40.849372 C96.453709,43.0060865 98.14833,44.7087784 101.313309,42.5142596" id="Shape" stroke="#000000" stroke-width="0.5"/><path d="M97.8099899,43.3845053 C97.2074158,45.0114923 99.0151404,47.6600361 102.556486,46.2978647" id="Shape" stroke="#000000" stroke-width="0.5"/><path d="M90.312908,39.0710763 C90.0876739,41.1520882 92.0085023,42.5520615 95.0974282,39.8656194" id="Shape" stroke="#000000" stroke-width="0.5"/><path d="M91.820319,41.3790996 C91.9334251,43.0817891 93.8542535,45.1249991 96.6799189,42.1736427" id="Shape" stroke="#000000" stroke-width="0.5"/><path d="M93.1765998,43.5358141 C92.95039,46.4492699 95.6249251,47.2816173 97.8850694,45.0492966" id="Shape" stroke="#000000" stroke-width="0.5"/><path d="M89.1457839,41.3790996 C89.7483604,41.4170002 90.2378307,40.8872726 90.5391178,40.5088538" id="Shape" stroke="#000000" stroke-width="0.5"/><path d="M90.4260117,43.4980122 C90.9535086,43.611519 91.8583456,43.1195934 92.1596326,42.5142596" id="Shape" stroke="#000000" stroke-width="0.5"/><path d="M91.7452418,46.9410991 C92.3478159,47.5843312 94.3817504,47.1303085 94.6450109,46.2600605" id="Shape" stroke="#000000" stroke-width="0.5"/><path d="M94.0053838,46.9032949 C95.1354548,49.5518387 98.14833,49.4383318 99.3915047,46.4492699" id="Shape" stroke="#000000" stroke-width="0.5"/><path d="M98.8269571,47.5087274 C99.3915047,49.0600094 100.823839,50.0437643 103.15906,49.5140344" id="Shape" stroke="#000000" stroke-width="0.5"/><path d="M99.9570281,49.0978137 C98.6387738,51.2545282 100.371421,53.7895652 103.309217,51.2923301" id="Shape" stroke="#000000" stroke-width="0.5"/><path d="M100.672708,52.3139857 C100.522551,53.6760583 101.765729,55.2274415 103.460347,55.4165521" id="Shape" stroke="#000000" stroke-width="0.5"/><path d="M95.0974282,48.3410724 C94.6450109,51.405837 96.8300757,52.8815152 99.5806638,51.2545282" id="Shape" stroke="#000000" stroke-width="0.5"/><path d="M91.8953986,49.8167506 C92.6110764,50.3842825 93.89228,50.459985 95.0974282,50.00596" id="Shape" stroke="#000000" stroke-width="0.5"/><path d="M96.5668151,51.7842558 C95.8881856,54.3571934 98.52567,56.211194 100.785812,53.3355402" id="Shape" stroke="#000000" stroke-width="0.5"/><path d="M92.9123635,50.2329737 C92.95039,51.5572444 94.2315936,52.995022 96.453709,52.5787989" id="Shape" stroke="#000000" stroke-width="0.5"/><path d="M102.66959,55.2274415 C101.162179,56.2489959 100.860892,58.0651923 102.970877,59.2380579" id="Shape" stroke="#000000" stroke-width="0.5"/><path d="M98.9771139,54.6977115 C99.0531669,56.2489959 99.7688448,57.1192417 101.463466,57.2705504" id="Shape" stroke="#000000" stroke-width="0.5"/><path d="M96.7549961,53.903072 C94.4948541,55.9841803 96.7169696,58.4057105 99.3915047,56.3625028" id="Shape" stroke="#000000" stroke-width="0.5"/><path d="M98.3374867,57.0057372 C97.5837824,59.389463 100.409448,60.8272406 101.915883,58.4057105" id="Shape" stroke="#000000" stroke-width="0.5"/><path d="M93.6660702,51.9355645 C92.8372863,54.2814908 93.89228,55.8327729 95.8131084,55.6814641" id="Shape" stroke="#000000" stroke-width="0.5"/><path d="M90.690248,51.4815419 C90.8033541,52.8815152 92.0085023,53.3733421 93.3647832,53.0707246" id="Shape" stroke="#000000" stroke-width="0.5"/><path d="M91.556085,52.9572177 C90.5391178,54.9247252 92.0835796,55.9841803 94.1184899,55.2274415" id="Shape" stroke="#000000" stroke-width="0.5"/><path d="M100.296342,59.6164767 C99.9570281,60.8650449 100.145211,61.7731912 101.990963,62.1894143" id="Shape" stroke="#000000" stroke-width="0.5"/><path d="M100.409448,61.3947724 C98.1863565,62.4164256 97.9981732,64.5731402 99.7308183,65.9730171" id="Shape" stroke="#000000" stroke-width="0.5"/><path d="M98.6192738,58.9923395 C97.4521498,60.0517947 97.6773861,61.8866981 98.9585874,62.6055363" id="Shape" stroke="#000000" stroke-width="0.5"/><path d="M88.7313931,52.086972 C87.4501895,53.3546374 88.6748401,56.8544284 91.499532,54.9438224" id="Shape" stroke="#000000" stroke-width="0.5"/><path d="M96.0773448,56.5138115 C94.3437239,57.9516855 95.1354548,60.5624274 97.9981732,59.843488" id="Shape" stroke="#000000" stroke-width="0.5"/><path d="M93.2136529,55.4165521 C92.3097894,57.9894897 93.1765998,58.8975374 95.2105343,58.935438" id="Shape" stroke="#000000" stroke-width="0.5"/><path d="M86.8476154,51.9734652 C85.3031513,53.1463308 85.7175445,54.8112184 86.3961716,55.5679596 C87.0738253,56.3246985 88.354053,55.9841803 88.7684438,55.0004278" id="Shape" stroke="#000000" stroke-width="0.5"/><path d="M83.6075569,50.951812 C81.8749119,53.1842314 83.6075569,55.8327729 86.056858,55.0382297" id="Shape" stroke="#000000" stroke-width="0.5"/><path d="M92.8753128,57.5732667 C91.1046412,58.2165011 89.7542106,59.8313457 90.8404048,61.2434637 C91.4810055,62.0759075 94.2686443,62.1894143 95.0594017,58.9732423" id="Shape" stroke="#000000" stroke-width="0.5"/><path d="M89.6732808,55.4922547 C88.6563159,56.9679329 88.9946537,58.3679085 90.8784314,59.0867491" id="Shape" stroke="#000000" stroke-width="0.5"/><path d="M89.5601771,58.2543053 C88.4671568,58.8597355 87.7514766,59.5786724 88.0157129,60.9029455" id="Shape" stroke="#000000" stroke-width="0.5"/><path d="M87.1118518,55.9462797 C86.6974587,57.7246741 87.186929,58.8219335 88.2789735,59.3516611" id="Shape" stroke="#000000" stroke-width="0.5"/><path d="M87.0738253,58.0651923 C85.3782309,57.9516855 84.5123939,58.6705261 85.0769438,60.3354137" id="Shape" stroke="#000000" stroke-width="0.5"/><path d="M85.2280741,58.4814154 C83.5705062,57.8759829 83.3062699,56.4382053 84.0219501,54.9247252" id="Shape" stroke="#000000" stroke-width="0.5"/><path d="M83.7967161,57.1570459 C81.9880156,57.2327485 81.1972582,58.1407985 81.1972582,59.389463" id="Shape" stroke="#000000" stroke-width="0.5"/><path d="M81.347415,50.0815662 C80.0291607,50.6490957 79.6147699,52.4274902 80.1042379,53.4112427 C80.5946841,54.3949953 82.1391482,54.4707002 83.0810359,53.8274658" id="Shape" stroke="#000000" stroke-width="0.5"/><path d="M77.6559126,48.6815906 C76.4507644,50.0437643 77.8440959,52.6923058 79.99211,52.0490714" id="Shape" stroke="#000000" stroke-width="0.5"/><path d="M74.5669867,47.6222318 C73.4369158,49.2113205 74.6800905,51.8599607 77.5808354,51.1032194" id="Shape" stroke="#000000" stroke-width="0.5"/><path d="M77.7309922,58.4814154 C77.4297051,56.5895141 79.3885601,55.3409459 81.7998346,57.8002803" id="Shape" stroke="#000000" stroke-width="0.5"/><path d="M80.6317348,53.9787746 C79.9160569,54.622009 79.5777168,55.6435635 79.6898471,56.4760073" id="Shape" stroke="#000000" stroke-width="0.5"/><path d="M71.4780608,46.7140855 C70.2348838,48.8329981 71.7422949,50.7627013 74.41683,50.00596" id="Shape" stroke="#000000" stroke-width="0.5"/><path d="M78.4476459,51.9734652 C76.6769743,53.7517632 77.2795484,55.530059 78.5978027,56.5517122" id="Shape" stroke="#000000" stroke-width="0.5"/><path d="M77.3165991,54.0544771 C74.642064,54.0922814 74.4919095,57.1949466 76.6769743,58.1786991" id="Shape" stroke="#000000" stroke-width="0.5"/><path d="M75.2826669,50.951812 C74.1906201,51.7085532 73.8513066,53.7895652 75.7350842,54.622009" id="Shape" stroke="#000000" stroke-width="0.5"/><path d="M75.2075874,55.6057615 C74.0775164,55.076034 72.7212356,55.7192684 72.8343417,57.0435391" id="Shape" stroke="#000000" stroke-width="0.5"/><path d="M73.511993,55.6435635 C72.4950257,53.2220333 69.5192036,53.6382564 69.7834399,56.1354891" id="Shape" stroke="#000000" stroke-width="0.5"/><path d="M74.3407769,52.6545038 C73.7011521,52.7680083 72.4199485,53.1463308 71.9304782,54.1301821" id="Shape" stroke="#000000" stroke-width="0.5"/><path d="M72.1186615,49.9302575 C70.9135109,51.2923301 71.8544251,52.9193171 72.8343417,53.2598376" id="Shape" stroke="#000000" stroke-width="0.5"/><path d="M68.5402652,46.1087517 C68.3140554,47.7357387 68.954656,48.5302818 70.9885905,48.3789731" id="Shape" stroke="#000000" stroke-width="0.5"/><path d="M69.2559431,48.1897637 C68.4642122,50.1572688 69.5192036,51.0275169 71.5531381,50.91401" id="Shape" stroke="#000000" stroke-width="0.5"/><path d="M69.7073869,50.6112938 C68.5022387,52.0490714 69.3310226,53.6004521 70.4981443,54.2436865" id="Shape" stroke="#000000" stroke-width="0.5"/><path d="M69.1428393,52.4274902 C66.9958011,52.1625782 66.6564875,54.6598109 67.3721654,55.8327729" id="Shape" stroke="#000000" stroke-width="0.5"/><path d="M67.4092184,45.9195423 C66.0912566,46.4870741 65.3378424,48.151863 66.0535226,49.1735162 C66.7695913,50.1950731 68.2009493,49.8545526 68.9917067,49.324825" id="Shape" stroke="#000000" stroke-width="0.5"/><path d="M66.5053549,49.6275412 C65.4131162,51.2923301 66.3922512,52.540997 67.5603487,53.0328239" id="Shape" stroke="#000000" stroke-width="0.5"/><path d="M62.286454,45.7303329 C61.4201326,46.6383829 61.9474329,48.4924799 64.0570296,48.5302818 C65.7554532,48.5608374 66.618461,46.9410991 66.0912566,45.8060355" id="Shape" stroke="#000000" stroke-width="0.5"/><path d="M63.7556443,48.5302818 C63.0776022,50.0437643 63.4919953,51.6707513 66.0535226,51.405837" id="Shape" stroke="#000000" stroke-width="0.5"/><path d="M67.1459579,53.7895652 C65.563858,53.0707246 63.4542613,53.7895652 64.358415,55.6814641" id="Shape" stroke="#000000" stroke-width="0.5"/><path d="M64.1324017,51.1032194 C63.4919953,52.0112694 63.7180086,53.2977382 64.4336888,54.0922814" id="Shape" stroke="#000000" stroke-width="0.5"/><path d="M64.0193939,53.5247496 C62.9645944,53.713959 61.9474329,54.2814908 62.5878393,55.9462797" id="Shape" stroke="#000000" stroke-width="0.5"/><path d="M62.4371958,54.5842071 C61.0811115,54.167984 59.3481716,55.1517365 60.4029711,56.5517122" id="Shape" stroke="#000000" stroke-width="0.5"/><path d="M60.1769555,55.2274415 C59.0091505,55.0382297 57.6154282,56.2867979 58.7454992,57.5354647" id="Shape" stroke="#000000" stroke-width="0.5"/><path d="M58.2934704,56.5138115 C57.2386732,56.7787235 55.9955944,57.9894897 57.0879314,58.935438" id="Shape" stroke="#000000" stroke-width="0.5"/><path d="M63.6050008,50.5734919 C62.0981747,51.2545282 61.9474329,52.9572177 62.6632114,54.2057859" id="Shape" stroke="#000000" stroke-width="0.5"/><path d="M62.022805,47.4330224 C59.7625647,48.3032705 59.8002988,51.3302308 62.286454,52.276085" id="Shape" stroke="#000000" stroke-width="0.5"/><path d="M61.2317551,51.5950464 C59.8756685,52.3895895 59.6119212,53.903072 60.5160749,54.8868246" id="Shape" stroke="#000000" stroke-width="0.5"/><path d="M58.858507,46.2978647 C57.9543534,46.6005786 58.0297231,49.4005299 60.4407051,49.324825" id="Shape" stroke="#000000" stroke-width="0.5"/><path d="M56.3722535,47.243813 C54.5640398,48.4545793 56.7489103,51.5193438 59.6871927,49.324825" id="Shape" stroke="#000000" stroke-width="0.5"/><path d="M58.0673588,50.0815662 C57.8037098,51.3302308 58.1427309,52.6923058 60.1393198,52.8437132" id="Shape" stroke="#000000" stroke-width="0.5"/><path d="M58.1804649,51.7464538 C56.7489103,52.276085 56.485259,55.2274415 59.0845203,55.4544528" id="Shape" stroke="#000000" stroke-width="0.5"/><path d="M53.6222504,49.0600094 C51.7764009,50.7627013 55.1290764,52.2382808 56.3722535,49.7789487" id="Shape" stroke="#000000" stroke-width="0.5"/><path d="M51.0607231,51.8977626 C50.1565671,52.995022 53.3208651,55.8706735 54.7146833,51.0653188" id="Shape" stroke="#000000" stroke-width="0.5"/><path d="M55.0538027,50.9897126 C55.1290764,52.1247739 55.8072168,52.8058126 57.2009392,52.8815152" id="Shape" stroke="#000000" stroke-width="0.5"/><path d="M57.1633034,53.9787746 C54.9407972,54.3192927 54.2250187,57.1192417 56.7112746,57.7246741" id="Shape" stroke="#000000" stroke-width="0.5"/><path d="M53.0572137,53.6004521 C52.981844,54.6598109 54.0742793,55.530059 55.317454,55.3409459" id="Shape" stroke="#000000" stroke-width="0.5"/><path d="M56.447525,57.6489716 C54.4133963,58.1029942 54.149649,60.751538 55.9578604,60.6002293" id="Shape" stroke="#000000" stroke-width="0.5"/><path d="M55.0161669,63.05966 C53.3208651,62.548931 53.283227,60.5245267 54.7900554,59.7677855" id="Shape" stroke="#000000" stroke-width="0.5"/><path d="M53.6222504,61.2812656 C52.19089,62.1515137 52.7559267,64.2325233 53.5092426,64.5352395 C54.2626568,64.8379558 54.8654251,64.4596357 54.9407972,63.8164013" id="Shape" stroke="#000000" stroke-width="0.5"/><path d="M54.8276911,66.7297583 C54.9784329,67.7135109 51.3430928,67.3351908 53.2079555,64.2704263" id="Shape" stroke="#000000" stroke-width="0.5"/><path d="M53.1889423,66.9001643 C51.9647785,68.8298675 53.9613674,70.3999553 55.2231669,68.7542613" id="Shape" stroke="#000000" stroke-width="0.5"/><path d="M53.3585991,69.226991 C52.8688362,70.7783741 54.7334041,71.8946321 55.9388471,70.6838658" id="Shape" stroke="#000000" stroke-width="0.5"/><path d="M49.2902434,54.6977115 C48.612103,56.0976872 52.0024165,56.627316 52.2284298,53.7517632" id="Shape" stroke="#000000" stroke-width="0.5"/><path d="M48.348454,56.7787235 C47.6704095,59.5029699 52.7935624,58.935438 51.4751139,55.4165521" id="Shape" stroke="#000000" stroke-width="0.5"/><path d="M51.5881217,57.2327485 C52.3037995,57.6489716 54.4511303,57.6867735 54.9784329,55.3787502" id="Shape" stroke="#000000" stroke-width="0.5"/><path d="M53.4339688,57.3084511 C53.5846123,58.0272917 54.2250187,58.8975374 54.8276911,59.1624517" id="Shape" stroke="#000000" stroke-width="0.5"/><path d="M50.985351,58.0272917 C50.7593378,59.5029699 52.2284298,60.7137361 53.9236334,60.6002293" id="Shape" stroke="#000000" stroke-width="0.5"/><path d="M51.2490023,59.4650692 C50.4203167,60.6002293 50.1565671,62.7947481 52.7559267,62.9461532" id="Shape" stroke="#000000" stroke-width="0.5"/><path d="M47.2936544,59.843488 C46.8792637,61.01645 49.3278814,62.2272162 50.7593378,60.297513" id="Shape" stroke="#000000" stroke-width="0.5"/><path d="M46.5402402,62.83255 C46.3328495,63.7218929 48.5367332,64.9136583 49.7799103,61.1299568" id="Shape" stroke="#000000" stroke-width="0.5"/><path d="M48.8004828,63.05966 C49.3278814,64.005512 51.0983588,64.7622532 52.19089,62.9082526" id="Shape" stroke="#000000" stroke-width="0.5"/><path d="M50.4203167,64.0434126 C49.9682878,65.3676833 51.2114626,66.6162515 52.7181927,66.2379314" id="Shape" stroke="#000000" stroke-width="0.5"/><path d="M47.5950398,63.7406964 C47.2936544,65.6324989 49.478525,66.7297583 50.8347075,65.7460058" id="Shape" stroke="#000000" stroke-width="0.5"/><path d="M46.1634852,64.5731402 C45.5231771,66.9946703 48.612103,67.9027203 49.7799103,66.0865239" id="Shape" stroke="#000000" stroke-width="0.5"/><path d="M48.9887621,66.8054609 C49.1018658,68.1676346 51.2114626,69.3404979 52.8688362,68.2054365" id="Shape" stroke="#000000" stroke-width="0.5"/><path d="M45.2217917,67.9406209 C45.0711482,68.5459547 47.5950398,69.1513872 47.9716966,67.0324746" id="Shape" stroke="#000000" stroke-width="0.5"/><path d="M46.6909821,68.4702521 C47.2936544,70.0216329 49.3278814,70.3999553 50.4956864,68.5081528" id="Shape" stroke="#000000" stroke-width="0.5"/><path d="M49.817546,69.2648917 C50.0812933,70.7026692 51.9271427,71.4972124 53.5469766,70.5134598" id="Shape" stroke="#000000" stroke-width="0.5"/><path d="M54.2250187,71.0809917 C53.8107239,73.0106949 55.8072168,74.5619769 57.0502956,73.5026205" id="Shape" stroke="#000000" stroke-width="0.5"/><path d="M51.0229867,70.7404735 C50.4203167,72.8593861 53.0572137,74.07015 54.5264041,72.897188" id="Shape" stroke="#000000" stroke-width="0.5"/><path d="M47.8586911,69.6811147 C47.7080476,71.6486199 49.2525094,72.8214855 51.0229867,71.9512374" id="Shape" stroke="#000000" stroke-width="0.5"/><path d="M44.5061139,69.8702254 C43.978617,71.1566942 46.7663541,72.2161517 48.0847044,71.1188923" id="Shape" stroke="#000000" stroke-width="0.5"/><path d="M42.7731739,73.3891137 C43.4889501,74.2214588 45.9752059,73.3891137 46.2012192,71.535113" id="Shape" stroke="#000000" stroke-width="0.5"/><path d="M45.5231771,72.897188 C46.4272348,73.9566432 48.5744672,74.524175 49.4408869,72.2539536" id="Shape" stroke="#000000" stroke-width="0.5"/><path d="M48.687475,73.4269156 C48.649741,75.0539026 51.5504836,76.2268645 52.4921771,73.2377062" id="Shape" stroke="#000000" stroke-width="0.5"/><path d="M55.9012114,73.8243353 C55.6374618,74.6189748 56.2592457,75.8863464 57.558681,76.0376551" id="Shape" stroke="#000000" stroke-width="0.5"/><path d="M53.5092426,73.3325083 C53.3208651,74.240556 54.6394119,75.5079276 56.0332301,74.9972972" id="Shape" stroke="#000000" stroke-width="0.5"/><path d="M56.2968814,75.375716 C55.9202246,76.3594686 56.2402324,77.7781489 57.558681,77.7593455" id="Shape" stroke="#000000" stroke-width="0.5"/><path d="M56.42861,77.2106194 C55.4491825,78.0429645 55.8634774,79.5188378 57.2764072,79.5756406" id="Shape" stroke="#000000" stroke-width="0.5"/><path d="M55.9202246,78.6105927 C54.5264041,79.5560545 55.0161669,81.6371628 56.8619181,81.5245374" id="Shape" stroke="#000000" stroke-width="0.5"/><path d="M51.7011271,74.5998776 C51.7011271,76.6430876 54.2250187,76.9457051 54.7146833,75.0539026" id="Shape" stroke="#000000" stroke-width="0.5"/><path d="M53.7353541,76.2646688 C53.3585991,77.4754327 54.3380265,78.648397 55.8824906,78.3078765" id="Shape" stroke="#000000" stroke-width="0.5"/><path d="M54.0366412,90.8694558 C54.3757605,91.3620654 55.7694828,90.5296216 55.3928237,89.6971778 C55.0161669,88.864734 53.5396638,89.3171936 53.6976201,90.1888096" id="Shape" stroke="#000000" stroke-width="0.5"/><path d="M55.0538027,89.3563658 C55.2420842,87.6914782 53.283227,87.4270551 52.7935624,88.864734" id="Shape" stroke="#000000" stroke-width="0.5"/><path d="M53.5092426,88.0322902 C53.9990055,87.1998464 52.3415335,86.064785 51.6633931,87.2752575" id="Shape" stroke="#000000" stroke-width="0.5"/><path d="M52.2661638,86.7836256 C52.7181927,85.5721754 50.8347075,85.0433269 50.6839657,86.1401962" id="Shape" stroke="#000000" stroke-width="0.5"/><path d="M50.2695749,84.5507173 C50.4956864,83.9454823 52.6051849,84.3235085 51.7011271,85.5721754" id="Shape" stroke="#000000" stroke-width="0.5"/><path d="M53.3208651,87.0862432 C54.149649,86.3292081 52.7559267,84.7779261 51.8894087,85.3459444" id="Shape" stroke="#000000" stroke-width="0.5"/><path d="M58.896241,89.3945603 C58.2368214,89.4699714 57.558681,89.9048004 58.0484438,91.305265 C58.3880499,92.2767765 59.8379345,92.3267231 60.0449345,91.740094" id="Shape" stroke="#000000" stroke-width="0.5"/><path d="M57.935436,90.0938147 C57.2950296,89.6775917 55.9012114,90.3778239 56.5416178,91.740094 C57.023773,92.7654679 58.2368214,92.3453291 58.4251006,91.8155028" id="Shape" stroke="#000000" stroke-width="0.5"/><path d="M54.3380265,92.0427115 C54.6580343,92.6097521 56.2589532,92.3649175 56.5416178,91.740094" id="Shape" stroke="#000000" stroke-width="0.5"/><path d="M55.4304618,90.1702036 C55.7694828,89.9429949 56.390876,90.2260263 56.522897,90.5100355" id="Shape" stroke="#000000" stroke-width="0.5"/><path d="M55.317454,80.8429135 C54.2250187,81.5617541 54.9030632,83.7564679 56.5982668,83.1884472" id="Shape" stroke="#000000" stroke-width="0.5"/><path d="M54.9784329,82.6214066 C54.1120133,83.3020504 54.9030632,85.4213556 56.522897,84.6271062" id="Shape" stroke="#000000" stroke-width="0.5"/><path d="M55.2420842,84.6271062 C54.6394119,85.2323412 55.2231669,86.9158372 56.7866443,86.5946113" id="Shape" stroke="#000000" stroke-width="0.5"/><path d="M55.0161669,85.45955 C54.6770476,85.30775 53.7917106,85.4213556 53.4149555,85.9883962" id="Shape" stroke="#000000" stroke-width="0.5"/><path d="M54.0366412,77.7972462 C53.2079555,78.5917893 53.6033331,80.2190701 55.1477972,80.3512816" id="Shape" stroke="#000000" stroke-width="0.5"/><path d="M53.7353541,79.4620374 C52.5485359,80.0486641 52.5485359,82.4128062 54.9217839,82.5078011" id="Shape" stroke="#000000" stroke-width="0.5"/><path d="M53.6409711,82.1297748 C52.981844,82.6596011 53.3019501,84.702515 54.9971537,84.4371118" id="Shape" stroke="#000000" stroke-width="0.5"/><path d="M54.187383,84.361703 C53.9423541,84.6075201 53.9046201,85.2323412 54.1120133,85.4967643" id="Shape" stroke="#000000" stroke-width="0.5"/><path d="M53.4339688,83.586062 C52.8312964,83.6046679 52.0401505,84.0404771 51.8327598,84.6643205" id="Shape" stroke="#000000" stroke-width="0.5"/><path d="M50.7403245,82.4696066 C50.9663378,81.8643716 52.8312964,81.902566 52.9629267,83.6810568" id="Shape" stroke="#000000" stroke-width="0.5"/><path d="M53.1513042,81.5617541 C52.8875569,81.6185568 52.3791716,81.8643716 52.2472488,82.3755895" id="Shape" stroke="#000000" stroke-width="0.5"/><path d="M52.3415335,76.0188517 C51.5314704,76.7565944 51.1360928,79.083715 53.6033331,79.5374462" id="Shape" stroke="#000000" stroke-width="0.5"/><path d="M50.7026864,80.8243051 C50.7026864,80.199484 52.3791716,79.6696577 52.9629267,80.5970987" id="Shape" stroke="#000000" stroke-width="0.5"/><path d="M49.6291685,77.4376308 C49.8739025,77.910753 51.0417075,78.5539874 51.757486,78.0242598" id="Shape" stroke="#000000" stroke-width="0.5"/><path d="M43.5642239,73.7296318 C43.5266841,74.8268912 44.4307418,75.8106438 45.6738206,75.659335 C46.9168994,75.5079276 47.1806466,74.4106682 46.8038916,73.6917312" id="Shape" stroke="#000000" stroke-width="0.5"/><path d="M45.8621981,75.697137 C45.0334142,76.7186938 46.0505757,78.1565677 46.9922691,77.740347" id="Shape" stroke="#000000" stroke-width="0.5"/><path d="M46.8038916,74.9782 C47.2936544,74.7889906 48.9134883,74.5619769 49.4031529,75.3187182" id="Shape" stroke="#000000" stroke-width="0.5"/><path d="M41.5677332,75.2809162 C41.1909758,75.8484457 43.5266841,76.4160763 44.3176381,75.3187182" id="Shape" stroke="#000000" stroke-width="0.5"/><path d="M43.5266841,75.8863464 C43.4512161,76.6430876 43.8279735,77.9294577 45.7491903,77.3998288" id="Shape" stroke="#000000" stroke-width="0.5"/><path d="M46.0505757,78.5726921 C46.3518627,77.9294577 44.9204064,76.8700989 43.8279735,78.0429645 C42.7355382,79.2159265 43.978617,80.5402959 44.6567574,80.0858784" id="Shape" stroke="#000000" stroke-width="0.5"/><path d="M41.0403323,76.0376551 C40.475298,77.0214077 42.6601661,78.818803 43.9033432,77.1540118" id="Shape" stroke="#000000" stroke-width="0.5"/><path d="M39.5898627,77.740347 C38.7988128,78.5539874 39.7782402,80.0486641 40.9649626,79.5942489 C42.1514883,79.1403203 42.0384805,77.8916558 41.7561108,77.5702348" id="Shape" stroke="#000000" stroke-width="0.5"/><path d="M38.0644142,79.2538271 C37.4240078,79.8400637 38.0454009,81.2209421 38.9308339,81.2209421 C39.8158783,81.2209421 40.3622902,80.5216876 40.1926334,79.6324434" id="Shape" stroke="#000000" stroke-width="0.5"/><path d="M41.6618237,79.1403203 C41.54872,80.0104697 42.8295328,80.6157047 43.6583167,79.8028494" id="Shape" stroke="#000000" stroke-width="0.5"/><path d="M43.6959524,78.2134692 C43.8089602,78.0242598 43.7149657,77.7024464 43.5266841,77.5511376" id="Shape" stroke="#000000" stroke-width="0.5"/><path d="M36.6892161,80.4266927 C35.9548175,81.0133194 37.5370133,82.6400126 38.5350655,81.145531" id="Shape" stroke="#000000" stroke-width="0.5"/><path d="M42.3587832,80.1054669 C41.887741,80.5589043 42.6411529,81.7507684 43.3945671,81.3913481" id="Shape" stroke="#000000" stroke-width="0.5"/><path d="M39.7782402,80.9379107 C39.891248,81.7507684 41.4734462,82.3560034 42.4717886,81.1083167" id="Shape" stroke="#000000" stroke-width="0.5"/><path d="M40.6446622,81.7507684 C40.3999259,82.2619863 40.8896888,83.0758218 41.4923612,82.9622186" id="Shape" stroke="#000000" stroke-width="0.5"/><path d="M55.6374618,86.4242053 C55.0538027,87.577875 56.9182746,88.9215368 58.2744571,87.5210722" id="Shape" stroke="#000000" stroke-width="0.5"/><path d="M56.9936443,88.1458957 C56.7112746,88.7697391 57.0502956,89.6403774 57.558681,89.9616032" id="Shape" stroke="#000000" stroke-width="0.5"/><path d="M55.2231669,89.451363 C55.355188,88.8833423 56.1648604,88.353516 56.8996521,88.6189192" id="Shape" stroke="#000000" stroke-width="0.5"/><path d="M54.2437395,87.9559013 C54.3567473,87.4456635 55.0347894,86.9344455 55.5434672,87.0676348" id="Shape" stroke="#000000" stroke-width="0.5"/><path d="M98.6007473,64.3460301 C95.9262122,64.3839308 97.0562855,68.6973622 99.354454,67.8270177" id="Shape" stroke="#000000" stroke-width="0.5"/><path d="M97.7349126,67.5244002 C97.2074158,68.3946459 98.224383,69.7758182 99.354454,68.9621778" id="Shape" stroke="#000000" stroke-width="0.5"/><path d="M99.0531669,69.1325838 C98.2614337,70.4568545 101.087099,72.480965 102.217172,70.3999553" id="Shape" stroke="#000000" stroke-width="0.5"/><path d="M101.313309,71.1944985 C101.350362,72.443163 104.966785,73.2377062 104.440264,70.7404735" id="Shape" stroke="#000000" stroke-width="0.5"/><path d="M104.100948,72.1026449 C104.966785,73.5782244 108.206843,73.7296318 107.867527,71.535113" id="Shape" stroke="#000000" stroke-width="0.5"/><path d="M107.151849,73.0485955 C107.830477,74.0323481 110.994482,74.6376818 110.881376,72.5944718" id="Shape" stroke="#000000" stroke-width="0.5"/><path d="M94.3066708,60.6002293 C94.7581147,61.7731912 96.3025788,62.1894143 97.9981732,61.5082793" id="Shape" stroke="#000000" stroke-width="0.5"/><path d="M93.3267566,61.4326731 C94.3817504,62.1137094 92.8372863,65.2162782 91.2177449,63.96771" id="Shape" stroke="#000000" stroke-width="0.5"/><path d="M93.3267566,63.3622776 C94.4948541,63.9299058 95.9262122,63.513685 96.3406053,61.8487974" id="Shape" stroke="#000000" stroke-width="0.5"/><path d="M95.6249251,63.1352662 C95.7380312,64.005512 96.9812059,64.686647 98.6007473,64.3460301" id="Shape" stroke="#000000" stroke-width="0.5"/><path d="M92.7241825,64.0434126 C94.2315936,65.3298814 92.0465289,67.9784229 91.0666147,66.767659" id="Shape" stroke="#000000" stroke-width="0.5"/><path d="M93.2897059,65.0271652 C94.0053838,65.5568927 95.8511349,65.2541788 96.0393183,63.8542032" id="Shape" stroke="#000000" stroke-width="0.5"/><path d="M95.2105343,65.0271652 C95.3616646,65.9352152 96.0773448,66.2757333 97.094312,66.313634" id="Shape" stroke="#000000" stroke-width="0.5"/><path d="M92.8753128,66.2757333 C93.6280437,67.3351908 95.5118214,67.6379047 96.3406053,66.2379314" id="Shape" stroke="#000000" stroke-width="0.5"/><path d="M95.5118214,67.0324746 C95.4367441,68.0541278 96.5668151,68.8864729 97.7349126,68.6594615" id="Shape" stroke="#000000" stroke-width="0.5"/><path d="M91.4059282,69.3026959 C92.384869,69.7945229 93.4398604,67.9406209 92.6110764,66.6541521" id="Shape" stroke="#000000" stroke-width="0.5"/><path d="M92.5359992,71.2702011 C93.7040967,71.3459036 93.8542535,69.5676079 92.762209,68.5837566" id="Shape" stroke="#000000" stroke-width="0.5"/><path d="M95.2105343,72.897188 C96.1904485,72.6701767 95.8881856,70.5134598 93.5149399,70.3242504" id="Shape" stroke="#000000" stroke-width="0.5"/><path d="M98.1863565,74.4863731 C99.1282441,74.2214588 98.3745398,71.8377329 95.7760577,71.989138" id="Shape" stroke="#000000" stroke-width="0.5"/><path d="M101.765729,75.3187182 C102.405353,74.3349656 100.296342,72.6701767 98.5636966,73.5404224" id="Shape" stroke="#000000" stroke-width="0.5"/><path d="M103.535424,76.6808895 C104.703524,77.0214077 105.494282,73.9188412 101.802779,74.4106682" id="Shape" stroke="#000000" stroke-width="0.5"/><path d="M105.682463,76.6808895 C106.700406,76.4160763 107.416086,74.5619769 104.440264,75.1674094" id="Shape" stroke="#000000" stroke-width="0.5"/><path d="M107.94358,76.8321983 C108.847444,77.286322 109.261835,74.6376818 106.511246,75.3566188" id="Shape" stroke="#000000" stroke-width="0.5"/><path d="M92.762209,68.5837566 C93.89228,69.226991 95.6629516,68.4702521 95.5118214,67.0324746" id="Shape" stroke="#000000" stroke-width="0.5"/><path d="M95.0594017,68.2811391 C95.4367441,68.9621778 95.2856115,70.2864485 94.5699337,70.6269667" id="Shape" stroke="#000000" stroke-width="0.5"/><path d="M95.1725078,69.8702254 C95.9262122,70.1729417 96.9431794,69.9081261 97.5457535,68.6973622" id="Shape" stroke="#000000" stroke-width="0.5"/><path d="M96.4917356,69.8702254 C96.7169696,70.3999553 96.7930226,71.4594105 96.3025788,71.989138" id="Shape" stroke="#000000" stroke-width="0.5"/><path d="M96.6799189,70.7783741 C97.5087028,71.2323991 98.4876435,70.6269667 98.9020343,69.7567209" id="Shape" stroke="#000000" stroke-width="0.5"/><path d="M98.3745398,70.5134598 C98.9771139,70.8918786 99.5046108,72.6701767 98.4876435,73.3891137" id="Shape" stroke="#000000" stroke-width="0.5"/><path d="M99.0531669,72.5566699 C99.7688448,72.5944718 100.823839,72.5944718 101.501492,71.6864218" id="Shape" stroke="#000000" stroke-width="0.5"/><path d="M101.012022,72.1782511 C101.652622,72.3674605 102.405353,73.4269156 102.142093,74.3728662" id="Shape" stroke="#000000" stroke-width="0.5"/><path d="M102.179146,74.0323481 C102.8958,73.9566432 104.138001,73.4647199 104.477314,72.5944718" id="Shape" stroke="#000000" stroke-width="0.5"/><path d="M104.138001,73.1621 C104.741551,73.5026205 105.155941,74.2214588 105.079888,75.0539026" id="Shape" stroke="#000000" stroke-width="0.5"/><path d="M105.079888,74.4484724 C105.795569,74.4106682 106.436169,74.0323481 106.624353,73.2377062" id="Shape" stroke="#000000" stroke-width="0.5"/><path d="M106.436169,73.7674338 C106.963666,73.9566432 107.604267,74.5619769 107.642293,75.2809162" id="Shape" stroke="#000000" stroke-width="0.5"/><path d="M107.56624,74.8268912 C108.093737,74.7511863 108.470104,74.4106682 108.809417,73.8809406" id="Shape" stroke="#000000" stroke-width="0.5"/><path d="M110.240775,73.805238 C110.919402,74.4863731 110.015541,76.7565944 108.621234,76.3403714" id="Shape" stroke="#000000" stroke-width="0.5"/><path d="M95.7760577,27.9470795 C94.3817504,28.7794246 90.4260117,28.514609 92.384869,25.2228331" id="Shape" stroke="#000000" stroke-width="0.5"/><path d="M96.152422,25.71466 C93.4028097,26.8119194 90.0116209,24.6931056 93.5529665,22.3850799" id="Shape" stroke="#000000" stroke-width="0.5"/><path d="M92.6110764,21.6282423 C90.312908,21.6282423 88.7684438,25.33634 91.8583456,26.62271" id="Shape" stroke="#000000" stroke-width="0.5"/><path d="M83.68361,23.1796231 C83.0810359,24.3524887 85.2280741,25.6389575 86.6974587,24.4660919 C87.8353315,23.5573579 87.7514766,21.0986111 87.0738253,20.1526628" id="Shape" stroke="#000000" stroke-width="0.5"/><path d="M82.5155125,25.9795744 C81.7618058,28.4767083 87.3000351,28.6281158 86.4332246,24.6552049" id="Shape" stroke="#000000" stroke-width="0.5"/><path d="M82.2142254,29.6875733 C82.4024087,31.5793735 87.5262426,30.9740397 85.8677012,27.1524376" id="Shape" stroke="#000000" stroke-width="0.5"/><path d="M86.4712512,26.0930788 C86.885642,26.6606107 88.0157129,27.6443632 89.9365413,27.4551538" id="Shape" stroke="#000000" stroke-width="0.5"/><path d="M87.3751123,23.4066368 C87.5447691,24.0876731 88.6933666,24.6174006 90.1627512,24.1067703" id="Shape" stroke="#000000" stroke-width="0.5"/><path d="M35.9735382,80.975125 C34.6740047,81.902566 36.6705936,83.3588532 37.4049945,81.7507684" id="Shape" stroke="#000000" stroke-width="0.5"/><path d="M34.9563768,81.6949457 C33.6569392,82.6214066 35.6534321,84.0776938 36.387929,82.4696066" id="Shape" stroke="#000000" stroke-width="0.5"/><path d="M33.8829548,82.3941979 C32.5831287,83.3216389 34.5797176,84.7779261 35.3144111,83.1698389" id="Shape" stroke="#000000" stroke-width="0.5"/><path d="M32.7528838,83.0376274 C31.5097067,83.6996652 32.9598838,85.3263583 34.2219758,83.8886795" id="Shape" stroke="#000000" stroke-width="0.5"/><path d="M31.5284275,83.6624509 C30.2852527,84.3235085 31.7357223,85.9511818 32.9976178,84.5135006" id="Shape" stroke="#000000" stroke-width="0.5"/><path d="M37.8383986,81.7135517 C37.8193853,82.6782071 39.64661,83.0758218 40.3056412,81.6371628" id="Shape" stroke="#000000" stroke-width="0.5"/><path d="M38.9871903,82.6027983 C38.422156,83.3216389 39.4582324,84.2108831 40.0232691,83.8886795" id="Shape" stroke="#000000" stroke-width="0.5"/><path d="M36.5575858,82.4696066 C36.5009368,83.2834444 38.0830367,83.7564679 38.8554641,82.8672214" id="Shape" stroke="#000000" stroke-width="0.5"/><path d="M37.4240078,83.3216389 C36.91533,83.9836767 37.9136724,84.8729209 38.5540788,84.6075201" id="Shape" stroke="#000000" stroke-width="0.5"/><path d="M35.5027886,83.2080333 C35.5591451,83.8514628 36.4632028,84.5889118 37.4427285,84.1726887" id="Shape" stroke="#000000" stroke-width="0.5"/><path d="M36.086546,84.0776938 C35.7097886,84.4185058 35.8982644,85.2137329 36.4255671,85.45955" id="Shape" stroke="#000000" stroke-width="0.5"/><path d="M34.1276888,84.020891 C33.9770452,84.6075201 34.97539,85.6485643 35.9924532,84.966938" id="Shape" stroke="#000000" stroke-width="0.5"/><path d="M34.3349836,84.702515 C33.7323112,85.1755385 33.807585,85.8943791 34.5797176,85.9883962" id="Shape" stroke="#000000" stroke-width="0.5"/><path d="M32.884514,84.6271062 C32.8092402,85.0237408 33.3179181,85.6671703 33.9583245,85.5917615" id="Shape" stroke="#000000" stroke-width="0.5"/><path d="M29.6638596,84.5889118 C29.0611872,84.9101376 30.605649,86.5564169 31.5660655,85.0237408" id="Shape" stroke="#000000" stroke-width="0.5"/><path d="M28.175752,85.2695556 C27.4223401,85.629956 29.2871022,87.4456635 30.1159844,85.5917615" id="Shape" stroke="#000000" stroke-width="0.5"/><path d="M33.0541708,85.1941468 C32.4701209,85.3263583 32.0934641,86.1783906 32.5831287,86.5182224" id="Shape" stroke="#000000" stroke-width="0.5"/><path d="M31.1516724,85.4967643 C31.0763027,85.8375763 31.7920788,86.4046192 32.3762246,86.1969966" id="Shape" stroke="#000000" stroke-width="0.5"/><path d="M30.6620078,85.6485643 C30.0969711,86.0079823 30.3982582,87.0098543 31.0576778,86.8590344" id="Shape" stroke="#000000" stroke-width="0.5"/><path d="M28.6467941,86.3106021 C28.1193955,86.7072368 28.4771373,87.5024639 29.2118307,87.3134519" id="Shape" stroke="#000000" stroke-width="0.5"/><path d="M29.6072083,86.2537994 C29.6262215,86.4614197 30.0969711,86.7836256 30.4926435,86.6514141" id="Shape" stroke="#000000" stroke-width="0.5"/><path d="M26.8195694,85.9129874 C26.1605406,86.1969966 26.1981763,87.8618842 28.4207808,86.9540316" id="Shape" stroke="#000000" stroke-width="0.5"/><path d="M25.3317566,86.5750252 C24.4086856,87.0294404 24.710071,88.2781073 26.7255749,87.0862432" id="Shape" stroke="#000000" stroke-width="0.5"/><path d="M26.8949392,87.1812404 C26.6502051,87.3702524 26.3865538,88.2026962 27.3093323,87.8804925" id="Shape" stroke="#000000" stroke-width="0.5"/><path d="M25.1997356,87.577875 C24.8230788,87.918687 25.0681053,88.6189192 25.8968892,88.353516" id="Shape" stroke="#000000" stroke-width="0.5"/><path d="M23.2598939,87.6914782 C22.5818518,88.0890929 24.0696646,88.6189192 25.0681053,87.5592667" id="Shape" stroke="#000000" stroke-width="0.5"/><path d="M23.7120187,88.18311 C23.4105374,88.4857276 23.4105374,89.3749741 24.2016856,89.0537483" id="Shape" stroke="#000000" stroke-width="0.5"/><path d="M21.7907036,88.5425303 C21.3386747,88.8833423 22.1108097,89.3377598 23.5235452,88.7129363" id="Shape" stroke="#000000" stroke-width="0.5"/><path d="M22.3558362,89.03514 C21.8284376,89.4699714 21.8847941,90.0184036 22.6571232,89.8479976" id="Shape" stroke="#000000" stroke-width="0.5"/><path d="M20.7923588,89.2809571 C20.2086037,89.8107833 21.0560101,90.1702036 22.0731716,89.7343944" id="Shape" stroke="#000000" stroke-width="0.5"/><path d="M20.8113721,89.8675838 C19.8129314,90.3210212 20.2462395,91.153465 20.8677309,90.8322415" id="Shape" stroke="#000000" stroke-width="0.5"/><path d="M54.149649,92.7615521 C53.9181739,93.2619981 54.6770476,93.6694047 55.3928237,93.5558015 C56.0803245,93.4470942 56.7379891,92.8780934 56.2215117,92.080906" id="Shape" stroke="#000000" stroke-width="0.5"/><path d="M56.2592457,93.0641697 C56.9372878,93.5939959 58.1427309,92.9887609 58.1427309,92.1935314" id="Shape" stroke="#000000" stroke-width="0.5"/><g fill="#FFFFFF" id="Group" stroke="#000000" stroke-width="0.5" transform="translate(71.372855, 0.000000)"><path d="M26.4371349,12.8879737 C23.4232863,11.3744912 17.1703549,8.57454231 15.3996833,10.8447637 C17.0192246,10.1637274 21.7657184,10.8826643 25.6834306,14.5149607 L26.4371349,12.8879737 L26.4371349,12.8879737 L26.4371349,12.8879737 L26.4371349,12.8879737 Z M26.4371349,12.8879737" id="Shape"/><path d="M28.2643596,12.7274583 C24.7795671,8.65024722 22.7271084,9.56289936 20.2212566,8.15841795 C17.8675086,6.83884808 14.1184797,6.56923526 13.3920749,8.66777671 C16.8310413,6.98545598 19.9882207,9.57239744 21.9275757,9.88539679 C24.5913838,10.3150361 26.0948963,12.3833158 26.8739532,13.3346536 L28.2643596,12.7274583 L28.2643596,12.7274583 L28.2643596,12.7274583 L28.2643596,12.7274583 Z M28.2643596,12.7274583" id="Shape"/><path d="M41.3922988,12.206935 C39.5836006,8.04491346 35.7165913,9.13188739 34.0083206,7.36377842 C31.5229446,4.79093835 25.2319867,2.40721085 22.6325289,4.18550682 C28.3579633,3.88279105 30.7965398,8.14960385 33.8581661,9.63399979 C36.0432309,10.6934549 38.3784501,12.9636763 41.3922988,12.206935 C41.3922988,12.206935 38.3784501,12.9636763 41.3922988,12.206935 L41.3922988,12.206935 L41.3922988,12.206935 Z M41.3922988,12.206935" id="Shape"/><path d="M34.6118705,11.7529124 C31.5229446,7.89350598 26.775475,4.48822259 24.5913838,5.77469115 C27.4541022,5.92600015 28.3579633,7.93140662 30.3928736,9.21777671 C32.4268058,10.5042455 31.5229446,12.3582462 34.6118705,11.7529124 C34.6118705,11.7529124 31.5229446,12.3582462 34.6118705,11.7529124 L34.6118705,11.7529124 L34.6118705,11.7529124 Z M34.6118705,11.7529124" id="Shape"/><path d="M19.9199672,18.5634778 C16.6799111,17.3527115 10.3519002,16.7473778 7.41312871,20.4553767 C12.3107551,21.2877241 19.6937598,20.8336991 19.9199672,18.5634778 C19.9199672,18.5634778 19.6937598,20.8336991 19.9199672,18.5634778 L19.9199672,18.5634778 L19.9199672,18.5634778 Z M19.9199672,18.5634778" id="Shape"/><path d="M19.3173931,20.0013541 C16.0773346,18.4878716 13.5471061,20.6018882 10.5020569,20.3039716 C4.7015429,19.7364397 0.557623245,20.0769579 0.0301263651,22.8769092 C3.34526209,19.8878472 8.92054212,22.3471793 11.1806841,21.7418455 C13.4408284,21.1364154 21.8037449,21.6661429 24.4402535,22.8012043 C23.0839727,21.1364154 20.974961,20.6823904 19.3173931,20.0013541 C19.3173931,20.0013541 20.974961,20.6823904 19.3173931,20.0013541 L19.3173931,20.0013541 L19.3173931,20.0013541 Z M19.3173931,20.0013541" id="Shape"/><path d="M29.4880367,11.3366893 C28.7353058,8.83945662 28.7723565,6.1908141 32.5018853,6.38002585 C31.5599953,5.20706248 28.0947028,4.60172872 27.5291794,8.99076538 C23.4232863,5.96380278 18.940053,5.43417276 18.1122449,8.04491346 C20.2212566,6.22871474 23.4983658,7.55298782 27.4160757,12.0177256 C27.7553892,11.8285162 28.6592527,11.4501962 29.4880367,11.3366893 C29.4880367,11.3366893 28.6592527,11.4501962 29.4880367,11.3366893 L29.4880367,11.3366893 L29.4880367,11.3366893 Z M29.4880367,11.3366893" id="Shape"/><path d="M23.8376794,14.7797763 C21.5024579,13.2663925 18.3374789,10.8069618 23.8757059,9.82320919 C21.5024579,8.53674038 18.0361919,9.10426987 18.413532,13.4934038 C12.0845476,10.9204686 7.53988456,11.7888528 6.58434477,14.3257513 C5.52935335,17.1257002 9.448039,18.6769846 10.1256903,16.8986889 C9.41001248,17.2014028 6.96168721,16.368959 8.24191498,14.7797763 C9.52311622,13.19069 16.0870858,14.3836306 22.3312418,17.6554278 C24.0638892,18.5634778 30.0155335,18.412169 23.8376794,14.7797763 C23.8376794,14.7797763 30.0155335,18.412169 23.8376794,14.7797763 L23.8376794,14.7797763 L23.8376794,14.7797763 Z M23.8376794,14.7797763" id="Shape"/><path d="M22.1801115,18.9418966 C20.3782371,15.2465312 14.5328729,18.6013784 13.3550242,15.0219667 C11.7452317,20.2661673 21.6672402,17.3643673 22.1801115,18.9418966 C22.1801115,18.9418966 21.6672402,17.3643673 22.1801115,18.9418966 L22.1801115,18.9418966 L22.1801115,18.9418966 Z M22.1801115,18.9418966" id="Shape"/><path d="M59.3613112,22.9526118 C60.5869376,23.5643105 61.6468058,22.6026919 59.7718034,21.8483998 C60.9984033,22.4598047 62.0680226,21.5211028 60.1930203,20.7665169 C61.4196201,21.3779218 62.4892395,20.4393162 60.6142371,19.6847303 C60.1140421,20.1904647 59.3983643,22.044463 59.3613112,22.9526118 C59.3613112,22.9526118 59.3983643,22.044463 59.3613112,22.9526118 L59.3613112,22.9526118 L59.3613112,22.9526118 Z M59.3613112,22.9526118" id="Shape"/><path d="M60.0009384,15.8392314 C62.7135,12.9636763 59.7757044,11.9799237 63.0898643,9.02866603 C65.8024259,6.61398974 63.60761,5.00463169 66.179766,3.12605051 C67.0085499,2.52071699 68.8162746,1.30995192 68.9674072,0.0990888462 C70.0594516,2.82333474 65.5762161,3.20175402 65.8775031,7.59078974 C66.0695874,10.3853538 64.1887348,10.1412996 63.4672044,14.8554788 C63.3160741,15.8392314 62.6384204,18.0337502 60.0009384,15.8392314 C60.0009384,15.8392314 62.6384204,18.0337502 60.0009384,15.8392314 L60.0009384,15.8392314 L60.0009384,15.8392314 Z M60.0009384,15.8392314" id="Shape"/><path d="M61.2070624,17.1257002 C62.7135,13.8717263 64.44322,13.9344051 65.274929,12.66096 C66.8574197,10.2394299 70.2096061,13.0771831 73.0352738,10.9204686 C72.5458034,13.9852331 68.7411973,12.8879737 67.0836295,14.8554788 C65.4260616,16.822984 64.0697808,17.7311327 61.2070624,17.1257002 C61.2070624,17.1257002 64.0697808,17.7311327 61.2070624,17.1257002 L61.2070624,17.1257002 L61.2070624,17.1257002 Z M61.2070624,17.1257002" id="Shape"/><path d="M61.583429,18.1851553 C64.2209111,16.0662451 66.1641669,17.4798321 67.9874906,16.368959 C72.5828541,13.56901 74.4295811,16.9364908 78.5354743,15.6122201 C77.442454,18.2607615 71.3777059,15.9906389 68.7411973,17.958144 C66.1037129,19.9256491 56.8369329,21.8174517 61.583429,18.1851553 C61.583429,18.1851553 56.8369329,21.8174517 61.583429,18.1851553 L61.583429,18.1851553 L61.583429,18.1851553 Z M61.583429,18.1851553" id="Shape"/><path d="M53.8991373,33.2820654 C53.8611108,32.0712991 52.7310398,30.5199184 51.1485491,30.3308053 C49.5670343,30.1415959 48.8884072,28.4767083 47.6832566,28.4011045 C46.4781084,28.3253996 45.6863752,25.9038694 44.0288073,25.9416737 C42.3712395,25.9795744 41.6935858,28.1361902 45.5732715,30.1036953 C49.4539306,32.0712991 53.748007,34.3414241 53.8991373,33.2820654 C53.8991373,33.2820654 53.748007,34.3414241 53.8991373,33.2820654 L53.8991373,33.2820654 L53.8991373,33.2820654 Z M53.8991373,33.2820654" id="Shape"/><path d="M49.0015109,34.3036199 C47.3439431,34.3793248 47.1177332,36.8008549 45.5362184,36.8765575 C47.7203097,38.0495194 49.302798,36.3468299 50.4328713,34.8333474 L49.0015109,34.3036199 L49.0015109,34.3036199 L49.0015109,34.3036199 L49.0015109,34.3036199 Z M49.0015109,34.3036199" id="Shape"/><path d="M50.3577917,34.6063361 C48.9264337,35.8171024 48.5120406,38.352137 50.5840016,39.0710763 C49.3408245,37.3494846 52.7690663,36.5738412 51.7140725,34.9846585 L50.3577917,34.6063361 L50.3577917,34.6063361 L50.3577917,34.6063361 L50.3577917,34.6063361 Z M50.3577917,34.6063361" id="Shape"/><path d="M51.7891521,34.6820387 C50.6590788,36.8765575 53.5598237,37.1413731 52.806117,38.8062607 C54.4636849,38.4278419 54.7279212,35.2873724 53.2205101,34.4549286 L51.7891521,34.6820387 L51.7891521,34.6820387 L51.7891521,34.6820387 L51.7891521,34.6820387 Z M51.7891521,34.6820387" id="Shape"/><path d="M40.7136716,29.9901908 C43.4262332,29.8388821 45.9067348,31.3126987 47.5701529,33.6982861 C48.6251466,35.2116699 52.1655164,35.8171024 53.3716404,34.6063361 C54.576791,33.3955722 53.8991373,30.8226346 50.8852886,31.6550784 C50.1315819,30.3686096 47.9465195,30.8226346 46.8924992,29.7631771 C45.8375078,28.7038184 41.7686654,25.6768581 40.7136716,29.9901908 C40.7136716,29.9901908 41.7686654,25.6768581 40.7136716,29.9901908 L40.7136716,29.9901908 L40.7136716,29.9901908 Z M40.7136716,29.9901908" id="Shape"/><path d="M50.8852886,31.6550784 C50.1696084,31.8063872 49.9434009,33.0550517 50.3948448,33.6982861" id="Shape"/><path d="M52.4297527,32.4118173 C52.6559626,32.7901397 52.50483,33.3198673 52.3917262,33.5847816" id="Shape"/><path d="M45.0087239,30.1036953 C46.4020554,30.1794002 46.6662917,31.2010534 48.172727,31.5793735" id="Shape"/><path d="M44.0882855,26.6606107 C48.9020569,27.8713746 52.7212886,28.9308321 55.0896622,30.2929047 C57.4580335,31.6550784 61.1251591,32.0333985 64.3340148,31.1253509 C67.5428729,30.2173009 73.7304758,29.3848571 73.4252878,33.3955722 C75.1072324,31.3901641 72.9670203,29.2334496 68.6885452,28.8551271 C68.7655718,26.887622 66.6692363,25.1092299 65.1618253,26.2821919 C66.5561326,26.0930788 67.7593315,28.7038184 65.0097192,29.7631771 C65.5440398,27.795672 63.5959095,26.0173763 61.5717285,26.887622 C62.8704805,27.2659444 64.1838604,29.4535083 61.278241,30.2929047 C59.4441903,30.8226346 56.770631,30.1415959 54.7844743,28.9308321 C52.7983175,27.7199694 41.6438588,23.3309318 44.0882855,26.6606107 C44.0882855,26.6606107 41.6438588,23.3309318 44.0882855,26.6606107 L44.0882855,26.6606107 L44.0882855,26.6606107 Z M44.0882855,26.6606107" id="Shape"/><path d="M56.2343588,24.6931056 C54.7279212,25.3741419 55.7068619,26.9633269 53.3716404,27.8713746 C51.0354454,28.7794246 49.4159041,30.8604365 49.9434009,32.638831 C51.5258892,29.1578434 54.3135304,29.3091521 55.2924688,27.9470795 C56.2723853,26.5849058 57.7037434,24.5795987 56.2343588,24.6931056 C56.2343588,24.6931056 57.7037434,24.5795987 56.2343588,24.6931056 L56.2343588,24.6931056 L56.2343588,24.6931056 Z M56.2343588,24.6931056" id="Shape"/><path d="M56.6487496,24.9201169 C56.5736724,27.6821652 54.4090835,26.6759872 55.2544423,30.557819 C55.5186786,31.7685829 56.008149,33.7360904 55.1793651,35.7035955 C57.6091638,33.9252998 56.0461755,30.1893895 57.13822,28.7794246 C57.6657168,28.0983882 58.3433705,27.0389308 58.6076069,26.1308831 C58.0420835,27.7199694 58.08011,30.6713259 59.6245718,31.4280647 C58.381397,28.4767083 62.9777363,26.0551782 59.8127551,22.6498955 C59.3613112,23.4823393 57.9289774,24.9579188 56.6487496,24.9201169 C56.6487496,24.9201169 57.9289774,24.9579188 56.6487496,24.9201169 L56.6487496,24.9201169 L56.6487496,24.9201169 Z M56.6487496,24.9201169" id="Shape"/><path d="M48.9634844,22.1579699 C49.3408245,22.7255017 49.7171911,24.1633756 49.3778775,24.9579188 C50.1315819,24.5038962 51.2246022,23.3309318 51.5629423,22.5363887 C53.1074041,22.7634024 53.7099805,24.6931056 52.2415694,25.5254506 C53.1454306,25.5254506 54.6898947,25.5254506 55.5557317,24.5038962 C54.5017114,23.3309318 51.2246022,21.5147355 48.9634844,22.1579699 C48.9634844,22.1579699 51.2246022,21.5147355 48.9634844,22.1579699 L48.9634844,22.1579699 L48.9634844,22.1579699 Z M48.9634844,22.1579699" id="Shape"/><path d="M25.532298,16.7294558 C25.2885374,16.5063626 24.8770718,16.2942365 24.1389665,16.1419476 C21.8583487,15.672156 23.036195,13.6072045 24.9775016,13.6256154 C29.1204454,9.08527137 31.4468916,12.5852575 36.4946724,11.1474799 C38.2614454,10.6443897 39.4743955,10.7930543 40.4367613,11.211334 C42.6969033,9.6978515 45.3480374,10.1207333 47.2698417,11.8991278 C47.4833752,11.5579233 47.7700367,11.2976135 48.172727,11.1852818 C49.9424251,10.6915934 51.3737832,12.2072288 51.8632535,14.1747363 C53.2429353,13.9180485 54.8185998,14.6039831 55.8550671,15.549835 C57.2903261,14.8094504 58.2790179,14.7765444 58.6427083,15.5377891 C59.9239095,14.9323566 61.583429,14.5527626 62.4122129,16.5959726 C63.2409969,18.6391803 60.4533557,18.0337502 60.0009384,22.3471793 C59.7220764,25.0081592 56.7618557,26.0551782 54.4256583,24.4660919 C50.6893058,21.9237098 47.042656,21.5147355 45.2339579,25.3741419 C43.4262332,29.2334496 42.0095008,31.4758583 37.6247457,30.2173009 C36.0432309,29.7631771 34.0083206,30.3686096 32.7280928,32.1091034 C31.4468916,33.8495949 29.4880367,32.2226079 27.1528151,32.4118173 C30.0906108,31.9577947 28.9654142,31.2155485 31.5229446,31.0496459 C33.8581661,30.8983372 33.2555897,28.7038184 34.7620273,28.4011045 C28.8854602,29.9145846 29.11167,27.7199694 24.2900967,29.2334496 C26.3991084,26.5092032 29.7142441,28.0226833 31.371812,26.433597 C27.0016849,26.3578944 25.0477044,23.4904671 23.0839727,24.6931056 C19.9950468,26.5849058 21.3503518,31.9711122 13.2896958,31.5036709 C9.37198596,31.2766596 6.88563417,31.8063872 4.55041264,34.1523111 C8.61925507,25.6768581 14.1535811,30.3331558 16.8310413,27.6443632 C18.413532,26.0551782 19.6186802,24.8444143 20.4474641,23.3309318 C20.7390023,22.7981675 21.1338931,22.4936908 21.6272621,22.375972 C14.9219134,20.2570594 18.9771037,16.9564694 25.532298,16.7294558 C25.532298,16.7294558 18.9771037,16.9564694 25.532298,16.7294558 L25.532298,16.7294558 L25.532298,16.7294558 Z M25.532298,16.7294558" id="Shape"/><path d="M58.6407566,15.5386705 C58.7431357,15.7514829 58.7957878,16.0275594 58.7957878,16.368959 C58.7957878,18.0337502 56.309436,18.1094528 56.1592793,20.5688835 C56.0803011,21.8553524 55.9330718,22.5741929 55.0662613,22.4228842 C54.2004243,22.2714767 53.44672,20.9094017 54.2755039,19.320219" id="Shape"/><path d="M26.775475,14.2501451 C26.1514493,13.8097338 25.5274236,13.6308075 24.9677504,13.6256154" id="Shape"/><path d="M40.4231092,11.199288 C42.4180413,12.0667908 43.3911318,14.1480966 46.2889493,14.2501451 C49.0785398,14.3484705 50.8102114,18.412169 55.4806521,15.7635288 C55.607408,15.6918408 55.7312387,15.62495 55.8511685,15.5628611" id="Shape"/><path d="M47.2698417,11.8991278 C46.8534992,12.5641036 46.7589197,13.4923274 46.8729992,14.3068491" id="Shape"/><path d="M38.1522402,20.4553767 C34.6118705,20.4553767 33.7070335,22.2714767 33.7070335,24.0119705 C33.7070335,25.752462 35.3646014,28.0226833 38.3033729,28.0226833 C41.2411685,28.0226833 42.8236591,26.2065857 42.8236591,24.2390806 C42.8236591,22.2714767 41.0149587,20.4553767 38.1522402,20.4553767 L38.1522402,20.4553767 L38.1522402,20.4553767 L38.1522402,20.4553767 Z M38.1522402,20.4553767" id="Shape"/><path d="M38.7928432,27.9470795 C38.7177637,26.9633269 36.947092,27.1146357 37.0221693,26.3578944 C37.0972488,25.6011532 38.0020858,25.2984393 38.0020858,24.2390806 C38.0020858,23.1796231 39.5836006,23.1039205 40.1110975,23.9363643 C40.6385944,24.7687094 42.2210827,26.3956964 42.5603963,25.5633513" id="Shape"/><path d="M40.1110975,23.9363643 C39.2823136,24.7687094 38.905947,26.4714013 39.9979914,27.795672" id="Shape"/><path d="M41.2411685,25.2228331 C40.977908,25.7903626 40.9028284,26.6606107 41.2041178,27.1903382" id="Shape"/></g><path d="M126.68385,22.4419814 C129.452965,22.6689927 129.923909,19.6041295 127.851948,19.4150188" id="Shape" stroke="#000000" stroke-width="0.5"/><path d="M123.275111,14.1744425 C122.314697,12.9448729 120.111105,12.5286521 120.073079,15.1393917" id="Shape" stroke="#000000" stroke-width="0.5"/><path d="M119.809818,18.1094528 C118.867931,15.7635288 116.456656,15.4230107 115.175452,16.5959726 C114.109734,17.572185 114.083408,20.1148585 116.381579,20.6444897 C117.172336,19.6986378 118.716798,18.4499709 119.809818,18.1094528 C119.809818,18.1094528 118.716798,18.4499709 119.809818,18.1094528 L119.809818,18.1094528 L119.809818,18.1094528 Z M119.809818,18.1094528" fill="#FFFFFF" id="Shape" stroke="#000000" stroke-width="0.5"/><path d="M118.773351,16.6338733 C117.41707,15.4230107 115.420189,17.7123293 117.228887,19.8121423" fill="#FFFFFF" id="Shape" stroke="#000000" stroke-width="0.5"/><path d="M123.275111,14.1744425 C122.446327,13.2852947 120.638602,13.9852331 121.146599,15.7826261 C121.542463,14.9502786 122.389774,14.2501451 123.275111,14.1744425 C123.275111,14.1744425 122.389774,14.2501451 123.275111,14.1744425 L123.275111,14.1744425 L123.275111,14.1744425 Z M123.275111,14.1744425" fill="#000000" id="Shape"/><path d="M118.1542,19.0218111 C118.7246,18.6058842 119.313524,18.2641885 119.809818,18.1094528 C119.538758,17.4362504 119.147766,16.9280692 118.696322,16.5735449 C118.265354,16.2745517 117.027054,17.9471746 118.1542,19.0218111 C118.1542,19.0218111 117.027054,17.9471746 118.1542,19.0218111 L118.1542,19.0218111 L118.1542,19.0218111 Z M118.1542,19.0218111" fill="#000000" id="Shape"/><g id="Group" stroke="#000000" stroke-width="0.5" transform="translate(99.921997, 12.222222)"><path d="M16.0071622,3.73051603 C14.6508814,2.82246603 13.4077067,2.89816859 12.9933136,3.65490983 C12.0143729,3.61700919 11.2041154,4.33594615 11.1660889,5.77372372" id="Shape"/><path d="M13.2575499,6.3791562 C11.6380086,5.26309338 9.41491732,5.67931645 9.56604758,8.17654915" id="Shape"/><path d="M8.58613339,9.59522949 C9.3768908,8.95199509 10.5069618,8.49797009 11.3737722,9.63313013" id="Shape"/><path d="M20.6785788,7.13589744 C20.3772917,7.55201944 20.1510819,8.19525385 20.6405523,9.17910513 C20.0379782,8.3844656 18.5315406,8.3844656 16.9110234,10.5032795" id="Shape"/><path d="M24.256975,7.0223906 C22.2981201,7.24940192 22.3361466,8.53577436 23.9176615,9.10340256" id="Shape"/><path d="M10.3187785,2.21703355 C8.66121061,1.87651538 7.4560624,2.86026795 9.75423089,3.69271175" id="Shape"/><path d="M13.4837598,1.08197222 C11.1475624,0.514442735 10.2056747,1.1197765 11.2606685,1.64950406" id="Shape"/><path d="M6.74038222,10.5032795 C6.66530499,11.3357233 7.11674649,12.4329827 8.4730273,11.1844145" id="Shape"/><path d="M7.19279953,13.0006109 C7.19279953,13.2276222 7.15477301,13.4924378 7.00364275,13.6816472" id="Shape"/><path d="M1.76767863,1.91441603 C0.336318253,1.4981953 0.0730577223,0.173924573 1.73062559,0.28742906" id="Shape"/><path d="M1.27820827,4.97918056 C-0.304282371,4.44945299 -0.304282371,2.89816859 1.01397192,3.04947735" id="Shape"/><path d="M4.2160039,4.18463739 C2.37025273,3.73051603 2.29517551,2.44404722 3.68948284,2.63325662" id="Shape"/><path d="M4.44221373,0.249528419 C3.46327301,0.173924573 1.95585959,1.27118162 4.48024025,1.91441603" id="Shape"/><path d="M7.19279953,2.44404722 C4.89463105,2.10352906 4.93265757,3.04947735 6.28796256,3.65490983" id="Shape"/><path d="M8.92544696,0.249528419 C7.15477301,-0.0909897436 6.55219891,0.968467735 7.75734945,1.42249038" id="Shape"/><path d="M3.35016693,6.79537692 C2.91627613,6.43605534 2.55940952,4.71426859 4.6303947,5.22529145" id="Shape"/><path d="M7.64424337,6.26564936 C6.25091186,5.88723056 4.93265757,7.24940192 6.21288534,8.04394509" id="Shape"/><path d="M9.48999454,4.63866239 C8.02158346,4.37375043 6.77840874,4.78997115 7.56916615,5.31969872" id="Shape"/></g><path d="M92.9747668,22.3668641 C93.8825289,22.1504297 95.2095585,22.5966184 97.2444665,23.5579455 C98.52567,24.1633756 102.368303,25.4498444 104.778601,24.1633756 C102.29225,25.0714256 100.409448,21.2877241 98.52567,21.7418455 C96.6418924,22.1958705 93.1951264,22.895809 91.7452418,21.5147355 C95.2856115,21.7418455 97.1898651,18.9242684 101.237256,21.3634267 C102.368303,22.044463 103.799661,22.4985868 105.079888,22.4228842 C101.765729,18.412169 97.3955991,20.9850079 96.9431794,17.7311327 C98.9400608,19.8878472 103.818187,17.2392071 106.304539,21.2877241" fill="#FFFFFF" id="Shape" stroke="#000000" stroke-width="0.5"/><path d="M123.197108,14.1750301 C122.369298,14.3290795 121.627294,14.8176769 121.146599,15.7826261" fill="#FFFFFF" id="Shape" stroke="#000000" stroke-width="0.5"/><path d="M97.6598354,18.3347036 C97.193766,17.7519927 97.4043744,17.171141 96.9041794,16.7116325" fill="#FFFFFF" id="Shape" stroke="#000000" stroke-width="0.5"/></g></g></g></g></svg>