<?xml version="1.0" ?><svg height="120px" version="1.1" viewBox="0 0 180 120" width="180px" xmlns="http://www.w3.org/2000/svg" xmlns:sketch="http://www.bohemiancoding.com/sketch/ns" xmlns:xlink="http://www.w3.org/1999/xlink"><title/><defs/><g fill="none" fill-rule="evenodd" id="Europe" stroke="none" stroke-width="1"><g id="Greece"><rect d="M0,0 L0,120 L180,120 L180,0 L0,0 Z M0,0" fill="#4086CD" height="120" id="Rectangle-9" width="180" x="0" y="0"/><rect d="M0,14 L0,27 L180,27 L180,14 L0,14 Z M0,14" fill="#FFFFFF" height="13" id="Rectangle-9" width="180" x="0" y="14"/><rect d="M0,40 L0,53 L180,53 L180,40 L0,40 Z M0,40" fill="#FFFFFF" height="13" id="Rectangle-9" width="180" x="0" y="40"/><rect d="M0,67 L0,80 L180,80 L180,67 L0,67 Z M0,67" fill="#FFFFFF" height="13" id="Rectangle-9" width="180" x="0" y="67"/><rect d="M0,94 L0,107 L180,107 L180,94 L0,94 Z M0,94" fill="#FFFFFF" height="13" id="Rectangle-9" width="180" x="0" y="94"/><rect d="M0,0 L0,67 L70,67 L70,0 L0,0 Z M0,0" fill="#4086CD" height="67" id="Oval-38-copy-3" width="70" x="0" y="0"/><path d="M29,40 L0,40 L0,27 L29,27 L29,0 L42,0 L42,27 L70,27 L70,40 L42,40 L42,67 L29,67 L29,40 Z M29,40" fill="#FFFFFF" id="Oval-38-copy-4"/></g></g></svg>