<?xml version="1.0" ?><svg height="120px" version="1.1" viewBox="0 0 180 120" width="180px" xmlns="http://www.w3.org/2000/svg" xmlns:sketch="http://www.bohemiancoding.com/sketch/ns" xmlns:xlink="http://www.w3.org/1999/xlink"><title/><defs/><g fill="none" fill-rule="evenodd" id="Africa,-Middle-East-and-India" stroke="none" stroke-width="1"><g id="Africa,-Middle-Eest-and-India" transform="translate(-200.000000, -1001.000000)"><g id="Tunisia" transform="translate(200.000000, 1001.000000)"><rect d="M0.00552383048,0 L0.00552383048,120 L180.005524,120 L180.005524,0 L0.00552383048,0 Z M0.00552383048,0" fill="#CA4638" height="120" id="Rectangle-3-copy-3" width="180" x="0.00552383048" y="0"/><path d="M109.756154,74.2819419 C105.311536,80.1861007 98.2693423,84 90.3421053,84 C76.8983311,84 66,73.030977 66,59.5 C66,45.969023 76.8983311,35 90.3421053,35 C98.2693423,35 105.311536,38.8138993 109.756154,44.7180581 C106.088748,41.1606986 101.100845,38.972973 95.6052632,38.972973 C84.3415605,38.972973 75.2105263,48.1632355 75.2105263,59.5 C75.2105263,70.8367645 84.3415605,80.027027 95.6052632,80.027027 C101.100845,80.027027 106.088748,77.8393014 109.756154,74.2819419 L109.756154,74.2819419 Z M90,89 C106.568543,89 120,76.0162585 120,60 C120,43.9837415 106.568543,31 90,31 C73.4314567,31 60,43.9837415 60,60 C60,76.0162585 73.4314567,89 90,89 Z M102.634579,66.730496 L97.5804893,74.8733082 L94.1859385,65.766782 L84.8731304,63.3062871 L92.3541114,57.3725774 L91.6525699,47.7090971 L99.6706219,53.1483906 L108.549858,49.6365303 L106.0243,58.9319032 L112.213507,66.4249319 L102.634579,66.730496 Z M102.634579,66.730496" fill="#FFFFFF" id="Oval-66"/></g></g></g></svg>