<?xml version="1.0" ?><svg height="120px" version="1.1" viewBox="0 0 180 120" width="180px" xmlns="http://www.w3.org/2000/svg" xmlns:sketch="http://www.bohemiancoding.com/sketch/ns" xmlns:xlink="http://www.w3.org/1999/xlink"><title/><defs/><g fill="none" fill-rule="evenodd" id="Europe" stroke="none" stroke-width="1"><g id="Malta"><rect d="M0,0 L0,120 L180,120 L180,0 L0,0 Z M0,0" fill="#CA4638" height="120" id="Oval-1-copy-5" width="180" x="0" y="0"/><rect d="M0,0 L0,120 L90,120 L90,0 L0,0 Z M0,0" fill="#FFFFFF" height="120" id="Oval-1-copy-5" width="90" x="0" y="0"/><g id="malta" transform="translate(9.000000, 9.000000)"><path d="M18.8066371,16.6436134 C18.8066371,16.8807248 18.5382841,17.0729332 18.2072541,17.0729332 C17.8762232,17.0729332 17.6078728,16.8807248 17.6078728,16.6436134 C17.6078728,16.4065018 17.8762249,16.2142937 18.2072541,16.2142937 C18.5382848,16.2142937 18.8066371,16.4065018 18.8066371,16.6436134 C18.8066371,16.6436134 18.8066371,16.4065018 18.8066371,16.6436134 L18.8066371,16.6436134 L18.8066371,16.6436134 Z M18.8066371,16.6436134" fill="#F1EEEE" id="path2289"/><path d="M0.0532270659,14.5695174 L0.0532270659,25.4573725 L10.9405993,25.4573725 C10.9405993,27.271521 12.755264,29.0862731 14.5699284,29.0862731 L14.5699284,39.9735257 L25.456685,39.9735257 L25.456685,29.0862731 C27.2713485,29.0862731 29.0860144,27.271521 29.0860144,25.4573725 L39.9733868,25.4573725 L39.9733868,14.5695174 L29.0860144,14.5695174 C29.0860144,12.7553679 27.2713485,10.940616 25.456685,10.940616 L25.456685,0.0533643114 L14.5699284,0.0533643114 L14.5699284,10.940616 C12.755264,10.940616 10.9405993,12.7553679 10.9405993,14.5695174 L0.0532270659,14.5695174 L0.0532270659,14.5695174 L0.0532270659,14.5695174 L0.0532270659,14.5695174 Z M0.0532270659,14.5695174" fill="#E60D2E" id="path2291"/><path d="M0.77928503,15.2949801 L0.77928503,24.7313054 L11.6660434,24.7313054 C11.6660434,26.5454012 13.4807075,28.3601533 15.2953717,28.3601533 L15.2953717,39.2474587 L24.7306419,39.2474587 L24.7306419,28.3601533 C26.5453078,28.3601533 28.3599713,26.5454012 28.3599713,24.7313054 L39.2467305,24.7313054 L39.2467305,15.2949801 L28.3599713,15.2949801 C28.3599713,13.4808304 26.5453078,11.6660786 24.7306419,11.6660786 L24.7306419,0.778826826 L15.2953717,0.778826826 L15.2953717,11.6660786 C13.4807075,11.6660786 11.6660434,13.4808304 11.6660434,15.2949801 L0.77928503,15.2949801 L0.77928503,15.2949801 L0.77928503,15.2949801 L0.77928503,15.2949801 Z M0.77928503,15.2949801" fill="#96877D" id="path2295"/><path d="M1.14246371,15.6581495 L1.14246371,24.3680814 L12.0292216,24.3680814 C12.0292216,26.1822323 13.8438869,27.9975856 15.6585511,27.9975856 L15.6585511,38.8848383 L24.368079,38.8848383 L24.368079,27.9975856 C26.1827425,27.9975856 27.9974084,26.1822323 27.9974084,24.3680814 L38.8841653,24.3680814 L38.8841653,15.6581495 L27.9974084,15.6581495 C27.9974084,13.8440546 26.1827425,12.0293028 24.368079,12.0293028 L24.368079,1.14205102 L15.6585511,1.14205102 L15.6585511,12.0293028 C13.8438869,12.0293028 12.0292216,13.8440546 12.0292216,15.6581495 L1.14246371,15.6581495 L1.14246371,15.6581495 L1.14246371,15.6581495 L1.14246371,15.6581495 Z M1.14246371,15.6581495" fill="#CCCCCC" id="path2297"/><path d="M14.9786089,11.8995212 C15.616366,12.5373128 15.4440266,13.7436793 14.5936834,14.5940498 C13.7433372,15.4444206 12.5369923,15.6167507 11.8992345,14.9790139 C11.2614778,14.3412769 11.433817,13.1348558 12.2841602,12.2844853 C13.1345061,11.4341693 14.3408517,11.2617844 14.9786089,11.8995212 C14.9786089,11.8995212 14.3408517,11.2617844 14.9786089,11.8995212 L14.9786089,11.8995212 L14.9786089,11.8995212 Z M14.9786089,11.8995212" fill="#96877D" id="path2301"/><path d="M11.7708774,13.8240673 L12.0274616,13.5672422 L13.0539617,14.0803449 L12.5406781,13.0539202 L12.7973116,12.7970951 L13.8237713,14.8500537 L11.7708774,13.8235744 L11.7708774,13.8235744 L11.7708774,13.8240673 L11.7708774,13.8240673 Z M11.7708774,13.8240673" fill="#D0D0D0" id="path2303"/><rect fill="#D0D0D0" height="2.17746416" id="rect2305" transform="translate(14.208696, 12.925830) rotate(-45.000810) translate(-14.208696, -12.925830) " width="0.362910661" x="14.0272406" y="11.8370978"/><path d="M28.1272958,14.9789044 C27.4895401,15.616696 26.2831952,15.4443657 25.4328479,14.5939404 C24.5825054,13.7435698 24.4101653,12.5372034 25.0479234,11.8994117 C25.685679,11.2616201 26.892024,11.4339504 27.7423713,12.2843756 C28.5927138,13.1347463 28.7650539,14.3411128 28.1272958,14.9789044 C28.1272958,14.9789044 28.7650539,14.3411128 28.1272958,14.9789044 L28.1272958,14.9789044 L28.1272958,14.9789044 Z M28.1272958,14.9789044" fill="#96877D" id="path2309"/><path d="M26.2026874,11.7711634 L26.4592647,12.0279885 L25.9460359,13.0545226 L26.9724862,12.5414199 L27.2291186,12.798245 L25.1762251,13.8247243 L26.202685,11.7717657 L26.202685,11.7717657 L26.2026874,11.7711634 L26.2026874,11.7711634 Z M26.2026874,11.7711634" fill="#D0D0D0" id="path2311"/><rect fill="#D0D0D0" height="2.17746416" id="rect2313" transform="translate(27.100907, 14.209108) rotate(45.000810) translate(-27.100907, -14.209108) " width="0.362910661" x="26.9194514" y="13.1203762"/><path d="M25.0478323,28.1279689 C24.4100766,27.4901772 24.5824144,26.2838108 25.4327593,25.4334419 C26.2831018,24.5830707 27.4894467,24.4107401 28.1272072,25.0484766 C28.7649629,25.6862132 28.5926251,26.8926347 27.7422802,27.7429509 C26.8919353,28.5933222 25.6855904,28.7657078 25.0478323,28.1279162 C25.0478323,28.1279162 25.6855904,28.7657078 25.0478323,28.1279162 L25.0478323,28.1279689 L25.0478323,28.1279689 Z M25.0478323,28.1279689" fill="#96877D" id="path2317"/><path d="M28.255588,26.2034251 L27.9990036,26.4602491 L26.972503,25.9471473 L27.4857868,26.9736263 L27.2291545,27.2304503 L26.202697,25.1774922 L28.2555904,26.2039713 L28.2555904,26.2039713 L28.255588,26.2034251 L28.255588,26.2034251 Z M28.255588,26.2034251" fill="#D0D0D0" id="path2319"/><rect fill="#D0D0D0" height="2.17746416" id="rect2321" transform="translate(25.817784, 27.101566) rotate(134.999190) translate(-25.817784, -27.101566) " width="0.362910661" x="25.6363285" y="26.0128338"/><path d="M11.8991595,25.0485868 C12.5369166,24.4108503 13.7432623,24.5831257 14.5936077,25.4335497 C15.4439531,26.283921 15.6162905,27.4902874 14.9785334,28.128024 C14.3407763,28.7658156 13.1344307,28.593485 12.284085,27.7430611 C11.4337396,26.8926898 11.2614024,25.6863234 11.8991595,25.0485317 C11.8991595,25.0485317 11.2614024,25.6863234 11.8991595,25.0485317 L11.8991595,25.0485868 L11.8991595,25.0485868 Z M11.8991595,25.0485868" fill="#96877D" id="path2325"/><path d="M13.8237739,28.2563281 L13.5671897,27.9995018 L14.0804184,26.9729677 L13.0539703,27.4860719 L12.7973368,27.2292455 L14.8502309,26.2027665 L13.8237713,28.2557246 L13.8237713,28.2557246 L13.8237739,28.2563281 L13.8237739,28.2563281 Z M13.8237739,28.2563281" fill="#D0D0D0" id="path2327"/><rect fill="#D0D0D0" height="2.17746416" id="rect2329" transform="translate(12.925690, 25.818404) rotate(225.000810) translate(-12.925690, -25.818404) " width="0.362910661" x="12.7442349" y="24.729672"/><path d="M27.6342994,20.0136096 C27.6352575,24.2233509 24.2229317,27.6365533 20.0132719,27.6365533 C15.8036108,27.6365533 12.3912776,24.2233509 12.3922424,20.0136096 C12.3912843,15.8038663 15.8036108,12.3906651 20.0132695,12.3906651 C24.2229317,12.3906651 27.6352647,15.8038663 27.6342994,20.0136096 L27.6342994,20.0136096 L27.6342994,20.0136096 L27.6342994,20.0136096 L27.6342994,20.0136096 Z M27.6342994,20.0136096" id="path2331" stroke="#96877D" stroke-width="0.51440263"/><path d="M25.8196695,20.0136647 C25.820388,23.2211305 23.2205461,25.821691 20.0132,25.821691 C16.8058527,25.821691 14.2059916,23.2211305 14.2067267,20.0136647 C14.2059842,16.806251 16.8058527,14.2056908 20.0132,14.2056908 C23.2205461,14.2056908 25.8204048,16.806251 25.8196695,20.0136647 L25.8196695,20.0136647 L25.8196695,20.0136647 L25.8196695,20.0136647 L25.8196695,20.0136647 Z M25.8196695,20.0136647" id="path2333" stroke="#96877D" stroke-width="0.51440263"/><path d="M17.4728513,26.1831617 C17.4730462,26.3129437 17.403919,26.4328695 17.2915566,26.4980335 C17.1791943,26.5631976 17.0407004,26.5631976 16.928338,26.4980335 C16.8159756,26.4328695 16.7468465,26.3129437 16.7470436,26.1831617 C16.7468496,26.053382 16.8159756,25.9334563 16.928338,25.8682922 C17.0407004,25.8031281 17.1791943,25.8031281 17.2915566,25.8682922 C17.403919,25.9334563 17.4730429,26.053382 17.4728513,26.1831617 L17.4728513,26.1831617 L17.4728513,26.1831617 L17.4728513,26.1831617 L17.4728513,26.1831617 Z M17.4728513,26.1831617" fill="#000000" id="path2335"/><path d="M23.2793341,26.1831617 C23.2795281,26.3129437 23.2104,26.4328695 23.0980383,26.4980335 C22.9856766,26.5631976 22.8471832,26.5631976 22.7348192,26.4980335 C22.6224575,26.4328695 22.5533341,26.3129437 22.5535257,26.1831617 C22.5533341,26.053382 22.6224575,25.9334563 22.7348192,25.8682922 C22.8471832,25.8031281 22.9856766,25.8031281 23.0980383,25.8682922 C23.2104,25.9334563 23.2795257,26.053382 23.2793341,26.1831617 L23.2793341,26.1831617 L23.2793341,26.1831617 L23.2793341,26.1831617 L23.2793341,26.1831617 Z M23.2793341,26.1831617" fill="#000000" id="path2337"/><path d="M19.7713269,26.1832168 L19.7713269,26.5616096 L19.2874275,26.5616096 C18.8035281,26.5616096 18.8035281,26.9400024 19.2874275,26.9400024 L19.7713269,26.9400024 L19.7713269,27.3183952 C19.7730036,27.710479 20.1936431,27.7581198 20.2244335,27.3512527 L20.2551545,26.942194 L20.7390539,26.942194 C21.2228814,26.942194 21.2228814,26.5638012 20.7390539,26.5638012 L20.2551545,26.5638012 L20.2551545,26.1854084 C20.2551545,25.8070156 19.7713222,25.8070156 19.7713222,26.1854084 C19.7713222,26.1854084 19.7713222,25.8070156 19.7713222,26.1854084 L19.7713269,26.1832168 L19.7713269,26.1832168 Z M19.7713269,26.1832168" fill="#000000" id="path2339"/><path d="M24.1557509,21.1224862 C24.2830874,21.0902683 24.4932719,21.1163545 24.4932719,21.1163545 C24.4932719,21.1163545 24.511691,21.2038036 24.4564503,21.2329533 C24.517818,21.2682395 24.7387425,21.2574994 24.7387425,21.2574994 C24.7387425,21.2574994 24.6528263,21.3234707 24.6098707,21.3495497 C24.6896479,21.3572144 24.7878347,21.460012 24.7878347,21.460012 C24.7878347,21.460012 24.6037341,21.4906946 24.5239545,21.4477485 C24.5730491,21.5459353 24.5669126,21.6318515 24.5669126,21.6318515 C24.5669126,21.6318515 24.269279,21.5582108 24.1618874,21.3618347" fill="#96877D" id="path4942" stroke="#000000" stroke-width="0.20290741"/><path d="M23.6586731,20.9567928 C23.5865677,21.1347593 23.0572719,20.8033749 23.0572719,20.8033749 C23.0572719,20.8033749 23.2904695,21.1731138 23.6402635,21.2145365" fill="#96877D" id="path4944" stroke="#000000" stroke-width="0.20290741"/><path d="M17.0493938,24.3504168 L23.2475114,24.3504168 L23.7261772,23.9699377 L22.9284,23.5403665 L21.7010515,23.1230659 L21.2101102,22.8530491 L20.3018707,22.9021437 L19.540915,23.3071689 L18.4976668,23.4299042 L18.2521969,23.712194 L17.478966,23.7735617 L16.2638898,23.7490156 L18.2890172,24.0681269 L16.6198216,23.9822108 L17.0493938,24.3504168 L17.0493938,24.3504168 L17.0493938,24.3504168 L17.0493938,24.3504168 Z M17.0493938,24.3504168" fill="#96877D" id="path4946" stroke="#000000" stroke-width="0.20290741"/><path d="M20.3877868,22.5707593 C19.6114874,22.1534587 19.3844263,23.1813653 19.0499737,23.4299042 C19.5010251,23.5066132 19.8416144,23.0831784 20.2282299,22.8775976 C20.5214132,23.6759138 20.9830515,23.1476144 20.9830515,23.1476144 C20.9830515,23.1476144 21.4647856,23.9116383 22.1060766,23.5649126 C22.2809725,23.6968527 22.4742802,23.577176 22.4742802,23.577176 C22.4742802,23.577176 22.7074778,23.6201341 22.7565725,23.5158084 C22.8793054,23.5587665 23.0143138,23.4053485 23.0143138,23.4053485 C23.0143138,23.4053485 23.2812623,23.4084144 23.3334251,23.2703401 C23.7292455,23.3409126 24.2539377,22.4602874 24.2539377,22.4602874 L24.4134946,22.1534515 L24.6466898,22.1043569 C24.6466898,22.1043569 24.6620431,21.9509389 24.5362275,21.9570754 C24.5331617,21.8650228 24.453382,21.8159281 24.3398539,21.8343401 C24.3613389,21.779109 24.2784862,21.7361509 24.2784862,21.7361509 C24.0575617,21.791382 24.0452886,22.3498275 24.0452886,22.3498275 C24.0452886,22.3498275 23.6586731,22.6443904 23.5175281,22.7180311 C23.5113964,22.3989198 22.9774946,21.9662802 23.0879569,21.7606994 C23.1984168,21.5551186 23.5451425,22.0767425 23.8489126,21.9816216 C24.1526802,21.886503 24.3019353,21.4913701 24.3153054,21.1838443 C24.2293916,20.9751952 24.0207425,20.6315377 24.0207425,20.6315377 L23.8243665,20.6192743 L23.6525365,20.201976 C23.6525365,20.201976 23.2904671,20.4382419 23.296606,20.6438228 C23.3027377,20.8494036 23.6770826,21.0243018 23.6770826,21.0243018 C23.6770826,21.0243018 23.461224,21.159212 23.2597844,21.0979425 C23.2413653,21.3065916 23.5052551,21.2667018 23.6034419,21.2697701 C23.6525365,21.4201198 23.799818,21.5029677 23.799818,21.5029677 C23.799818,21.5029677 23.8918707,21.7330946 23.6525365,21.7116168 C23.4132024,21.6901317 23.1308407,21.138697 22.7933916,21.3925054 C22.4343928,21.6625222 22.9529461,22.1534635 22.9529461,22.1534635 C22.9529461,22.1534635 22.6369054,22.3191545 22.4497341,22.7425916 C21.6857078,22.0982323 21.2377269,22.3989317 20.3877868,22.5707617 C20.3877868,22.5707617 21.2377269,22.3989317 20.3877868,22.5707617 L20.3877868,22.5707593 L20.3877868,22.5707593 Z M20.3877868,22.5707593" fill="#96877D" id="path4948" stroke="#000000" stroke-width="0.20290741"/><path d="M19.2708982,21.4784168 C19.5900072,21.7791186 19.3674635,22.2789461 19.4918204,22.3743832 C19.6237605,22.4756383 19.8109317,22.3252886 19.8109317,22.3252886 C20.1453844,22.4142731 20.7437174,22.2271018 20.7437174,22.2271018 C21.0070371,22.3743425 20.903097,22.1570635 21.0628287,22.1657341 C21.2039737,22.5278012 21.676503,22.460297 21.676503,22.460297 C21.676503,22.460297 21.2438635,22.0184527 20.976915,21.8957174 C20.7713341,22.0184527 20.1729988,22.0368623 20.0686754,22.0184527 C19.9524287,21.9979257 20.0257174,21.8558275 19.9704862,21.772982 C20.1904838,21.5588359 20.0165126,21.0273677 19.8968455,20.8279234 C19.4091737,20.5030563 18.8265701,21.0597246 19.2708982,21.4784168 C19.2708982,21.4784168 18.8265701,21.0597246 19.2708982,21.4784168 L19.2708982,21.4784168 L19.2708982,21.4784168 Z M19.2708982,21.4784168" fill="#96877D" id="path4950" stroke="#000000" stroke-width="0.20290741"/><path d="M17.1493521,20.5786228 C16.7479634,20.6871042 16.0514996,20.0600719 15.7260491,20.3009054 C15.4005993,20.5417389 15.5524757,21.1340575 15.7694426,21.4291329 C15.9814184,21.717418 15.4591801,21.8218419 15.3181519,21.9932455 C15.1855691,22.1543856 15.3615449,22.3403928 15.3615449,22.3403928 L15.5090826,22.4358587 L15.4830462,22.652824 L15.5611547,22.9131856 C15.5611547,22.9131856 15.6327535,22.9761054 15.6566199,22.8958204 C15.7238798,22.9630802 15.6637241,23.1575737 15.8301935,23.182218 C15.770584,23.0576599 15.8735871,22.7135689 15.8735871,22.7135689 C15.8735871,22.7135689 16.1643224,22.7352695 16.2380913,22.6094251 C16.3118601,22.4835832 16.168662,22.210206 16.168662,22.210206 L16.2554484,22.210206 C16.1578134,22.1429461 16.1252685,21.9411665 16.1252685,21.9411665 C16.1252685,21.9411665 16.5288268,21.8131569 16.5244877,21.5072335 C16.5201475,21.2013102 15.8692474,20.8758587 16.1079111,20.7174731 C16.3726103,20.5417293 16.8325804,21.1731042 17.2274601,20.8823689 C17.6182369,20.5946539 17.3663188,20.8736982 17.3663188,20.8736982 C17.3663188,20.8736982 17.5449277,20.4717126 17.1493521,20.5786251 C17.1493521,20.5786251 17.5449277,20.4717126 17.1493521,20.5786251 L17.1493521,20.5786228 L17.1493521,20.5786228 Z M17.1493521,20.5786228" fill="#96877D" id="path4952" stroke="#000000" stroke-width="0.20290741"/><path d="M19.2218036,16.2805909 C18.6848383,16.0565995 17.5878937,16.0427916 16.9757528,15.7405569 C16.7072702,15.7574335 16.5876034,15.9691507 16.576864,16.053531 C16.2961078,16.0397226 16.1058685,16.4815693 16.1472917,16.5690184 C15.6364074,16.3619025 15.3986081,17.1704194 15.5643006,17.3361119 C15.1285911,17.3545214 15.1822879,17.9114319 15.1408647,18.0663851 C15.0012537,18.4054407 15.171955,18.5195267 15.447702,18.3977696 C15.4891253,18.5450517 15.4311487,18.6275516 15.3065566,18.6555131 C16.0628508,19.5209653 16.4902879,18.1229023 17.1537183,18.1277526 C17.9820443,17.8852604 18.3074275,17.4772572 18.3074275,17.4772572 L18.6326752,17.5202141 L19.2218036,16.2805909 L19.2218036,16.2805909 L19.2218036,16.2805909 L19.2218036,16.2805909 Z M19.2218036,16.2805909" fill="#96877D" id="path4954" stroke="#000000" stroke-width="0.20290741"/><path d="M20.7068958,15.660778 C20.7068958,16.0979892 20.3524671,16.4524187 19.9152551,16.4524187 C19.4780455,16.4524187 19.1236144,16.0979892 19.1236144,15.660778 C19.1236144,15.2235669 19.4780455,14.8691372 19.9152551,14.8691372 C20.3524671,14.8691372 20.7068958,15.2235669 20.7068958,15.660778 L20.7068958,15.660778 L20.7068958,15.660778 L20.7068958,15.660778 L20.7068958,15.660778 Z M20.7068958,15.660778" fill="#96877D" id="path4956" stroke="#000000" stroke-width="0.20290741"/><path d="M18.5222139,21.8957174 C18.0312738,21.8067329 17.2181545,21.2973844 17.1353085,20.6315473 C17.592496,18.8365461 19.9508575,19.7738898 20.1543329,18.4238055 C20.102503,17.5330939 20.262,16.6513662 20.7559904,15.9062493 C20.9861198,15.6147538 21.2837509,15.5380441 21.2837509,15.5380441 C21.2837509,15.5380441 21.3370611,15.7281569 21.2592048,15.857155 C21.6488886,15.8141978 22.1827856,16.0320525 22.547921,16.053531 C22.655315,16.2713859 22.6461102,16.3511634 22.6215617,16.4831037 C22.5970156,16.6150436 22.4497341,16.5812915 22.4497341,16.5812915 C22.3544838,16.6716453 22.2399976,16.7635792 21.9833413,16.7162999 C21.7900335,16.863582 21.3819401,16.9004029 21.3819401,16.9004029 C21.3819401,16.9004029 22.2349485,17.7994362 22.0938012,18.0786582 C22.2717677,18.1615042 22.5356479,18.5573248 22.5356479,18.5573248 C22.5356479,18.5573248 23.1186395,18.2504874 23.308879,17.9681969 C23.6464,17.9681969 24.1987066,18.3210599 24.4748623,18.3609487 C24.8123832,18.634034 25.1499042,18.9132575 25.1499042,18.9132575 C25.1499042,18.9132575 24.7479473,19.1771377 24.5730491,18.8273413 C24.3613317,18.8457605 23.9041437,18.3394702 23.2720575,18.4959574 C23.2536383,19.0574707 22.6338371,19.453291 22.6338371,19.453291 C22.6338371,19.453291 23.2123521,19.3723281 23.5298012,19.5637509 C23.8581174,19.8399066 24.3398539,20.2142467 24.3398539,20.2142467 L24.7694251,20.9506563 C24.7694251,20.9506563 24.3766731,21.0181605 24.2293916,20.508812 C24.0821078,20.9199737 24.0759737,20.2541365 23.492982,19.9442299 C23.3150156,19.965715 23.2260335,19.9779832 23.0756814,19.8583162 C22.655315,19.9718467 22.1582395,20.217315 21.5660407,20.152879 C21.1456743,20.2848192 20.8388359,20.6346156 20.4123329,20.8279234 C19.9858275,21.0212311 19.8600263,20.9261102 19.8600263,20.9261102 L19.5163665,20.9383737 C19.466788,21.1452623 19.4948814,21.4599976 19.3077174,21.5152287 C19.4273844,21.6441006 19.2218036,22.1933389 19.0131545,22.2884599 C19.1113413,22.6413222 19.3989844,22.7493365 19.7004695,22.9266802 C19.7004695,22.9266802 19.967418,22.8039473 20.1423162,22.9635018 C20.317212,23.1230563 20.4982467,23.577176 20.4982467,23.577176 C20.4982467,23.577176 20.1342395,23.6017701 20.0195808,23.5526299 C19.9049198,23.5034898 19.8937772,23.3838683 19.7618371,23.4176216 C18.9303066,22.6781437 18.4917923,22.9722754 18.4117521,22.8039473 C18.3297114,22.6314084 18.6081281,22.1810659 18.5222139,21.8957078 C18.5222139,21.8957078 18.6081281,22.1810659 18.5222139,21.8957078 L18.5222139,21.8957174 L18.5222139,21.8957174 Z M18.5222139,21.8957174" fill="#96877D" id="path4958" stroke="#000000" stroke-width="0.20290741"/><path d="M16.5244877,18.5998843 C16.5678807,18.5456426 16.8716343,18.660635 16.8716343,18.660635 L17.4270695,19.007782 L18.5552972,19.7367904 L18.9545174,20.3182611 L18.2341866,20.0839377 L17.2361387,19.2247497 L16.6980608,18.8776024 C16.6980608,18.8776024 16.4810941,18.654126 16.5244877,18.5998843 C16.5244877,18.5998843 16.4810941,18.654126 16.5244877,18.5998843 L16.5244877,18.5998843 L16.5244877,18.5998843 Z M16.5244877,18.5998843" fill="#96877D" id="path4960" stroke="#000000" stroke-width="0.20290741"/><path d="M23.1984168,20.4474443 C22.8087329,20.3492551 21.8483329,21.5152383 21.8483329,21.5152383 L22.5724695,22.3007425 C22.5724695,22.3007425 22.5939545,20.9629317 23.1984168,20.4474443 C23.1984168,20.4474443 22.5939545,20.9629317 23.1984168,20.4474443 L23.1984168,20.4474443 L23.1984168,20.4474443 Z M23.1984168,20.4474443" fill="#96877D" id="path4962" stroke="#000000" stroke-width="0.20290741"/><path d="M18.4485729,17.1949665 C18.2360635,17.4672556 18.2170484,18.0162069 18.4934987,18.2376165 C18.5195602,18.5708096 18.8028479,19.2429054 19.0254275,19.3060096 C19.268606,19.3749533 20.240503,19.6005725 20.620982,19.5392048 C20.5482132,20.1558587 21.032103,20.6508287 21.4801269,20.9752048 C21.4768695,21.0305413 21.476103,21.0980934 21.5278587,21.1664958 C21.5780048,21.2327569 21.8134299,21.2449006 21.8237844,21.2084 C21.928194,21.3551305 22.4339186,21.4195545 22.4705581,21.354194 C22.5062084,21.2905964 21.7267042,20.7480311 21.5537677,20.5824527 C21.4068695,20.308388 21.1286395,19.6977078 21.0628287,19.2078204 C20.6802443,18.7526491 20.0234299,18.7617629 20.0234299,18.7617629 L20.0441246,17.8700091 L20.0809461,16.863582 L19.7250156,16.6794798 C19.7250156,16.6794798 19.7967665,16.6467801 19.8354754,16.6058386 C19.9219162,16.643005 20.0843593,16.4693411 20.1054922,16.4202472 C20.1873772,16.4492611 20.2615114,16.4488743 20.2758323,16.4051238 C20.288479,16.3664853 20.3031353,16.1944855 20.3329892,16.1056038 C20.6015066,15.8691849 20.2937916,15.3678855 19.8832096,15.3596434 C19.4769653,15.3514014 19.3858443,15.844239 19.3936311,15.881703 C19.4317916,16.0363286 19.4235689,16.1142824 19.3936311,16.15172 C19.3630275,16.1899851 19.2218012,16.2744549 19.2218012,16.2744549 C19.2218012,16.2744549 18.9947425,16.1670616 18.7185868,16.2744549 C18.4424338,16.3818479 18.1325277,16.5260616 18.1171861,16.7040275 C17.9913825,16.7224371 17.7858014,16.8850613 17.7489808,17.0231384 C17.6385193,17.0016606 17.4943059,17.0937109 17.258041,17.477258 C16.834605,17.6644285 16.8100584,18.569599 16.8100584,18.569599 C16.8100584,18.569599 16.6957614,18.7360575 16.6903916,18.8242731 C16.6850216,18.9124886 16.7302805,18.9930347 16.7855111,18.9776934 C16.7916477,19.0359904 16.8683571,19.0881533 16.9021095,19.0697437 C16.9143825,19.1280431 16.9986307,19.1606467 17.0493914,19.1525892 C17.053995,19.192479 17.2173851,19.1825078 17.2304256,19.1464575 C17.244816,19.1066707 17.214258,18.9076743 17.2334915,18.891782 C17.2511346,18.8771952 17.3869104,18.9807665 17.4237305,18.9531497 C17.4605514,18.9255353 17.4166982,18.8371042 17.3961152,18.8028 C17.3777056,18.772115 17.2611068,18.7383641 17.2334915,18.5941511 C17.2058762,18.4499377 17.3071325,18.2504929 17.3071325,18.2504929 C17.3071325,18.2504929 17.7673887,17.8884249 17.8195511,17.578519 C18.1662774,17.6122711 18.3496129,17.309269 18.4485681,17.194972 C18.4485681,17.194972 18.3496129,17.309269 18.4485681,17.194972 L18.4485729,17.1949665 L18.4485729,17.1949665 Z M18.4485729,17.1949665" fill="#96877D" id="path4964" stroke="#000000" stroke-width="0.20290741"/><path d="M17.6477267,15.8970438 C17.7528187,15.6400678 18.1325301,15.6638477 18.1325301,15.6638477 C18.1325301,15.6638477 18.2683061,15.3063816 18.7799569,15.5196338 C18.9724982,15.3708177 19.4795473,15.5840697 19.4795473,15.5840697 C19.4795473,15.5840697 19.6694156,15.3310872 19.9183257,15.3600786 C20.3793485,15.4137749 20.4560575,15.8364438 20.4276743,15.9093176 C20.1753006,15.9729861 19.738091,15.7042177 19.4059066,15.7804457 C19.2118323,15.8901401 18.8973222,16.0059715 18.7799569,16.1639928 C18.4723526,16.1962105 18.1440369,15.8809353 17.6477267,15.8970438 C17.6477267,15.8970438 18.1440369,15.8809353 17.6477267,15.8970438 L17.6477267,15.8970438 L17.6477267,15.8970438 Z M17.6477267,15.8970438" fill="#96877D" id="path4966" stroke="#000000" stroke-width="0.20290741"/><path d="M18.6081281,16.323548 C18.7231928,16.2529756 19.0054539,16.1289095 19.1972575,16.2805909 C19.3982347,16.4969111 19.706606,16.6978901 19.706606,16.6978901 L20.0564024,16.8451717 L20.2159569,16.94336 L20.1116311,18.5450517 C19.7878587,18.2137629 19.484424,18.1557689 19.2524886,17.7656841 C19.128218,17.5984577 19.2233389,17.1965008 19.007018,16.9310862 C18.790697,16.6656719 18.5605686,16.4861717 18.6081281,16.323548 C18.6081281,16.323548 18.5605686,16.4861717 18.6081281,16.323548 L18.6081281,16.323548 L18.6081281,16.323548 Z M18.6081281,16.323548" fill="#96877D" id="path4968" stroke="#000000" stroke-width="0.20290741"/><path d="M19.4492,16.7860412 C19.4492,16.7860412 19.6325389,16.7513265 19.6835257,16.794719 C19.7475305,16.8164149 19.8093653,16.8348577 19.8267234,16.8901847 C19.8961533,16.9107954 19.943885,16.9465957 19.943885,16.9986678 C20.0089749,17.0160259 20.0350108,17.1331875 20.0350108,17.1331875 L19.9742611,17.2243135 C19.9742611,17.2243135 19.9048311,17.1592232 19.8961533,17.089794 C19.8522251,17.0681629 19.7551234,17.0453157 19.7312575,16.9813107 C19.6553198,16.9737178 19.606503,16.9346628 19.5924,16.8684879 C19.521885,16.884761 19.4492,16.7860402 19.4492,16.7860402 L19.4492,16.7860402 L19.4492,16.7860412 L19.4492,16.7860412 Z M19.4492,16.7860412" fill="#96877D" id="path4970" stroke="#000000" stroke-width="0.20290741"/><path d="M21.0014611,15.7405569 C20.8971353,15.6239588 20.7130347,15.7098733 20.7130347,15.7098733 L20.2220934,16.5567447 L20.0073078,16.7347104 L19.9888886,17.3974793 L20.1668527,18.0172908 L20.105485,18.4959574 C20.105485,18.4959574 20.3527234,18.2640125 20.3816407,18.1338889 C20.4092551,18.0096196 20.289588,17.6061289 20.289588,17.6061289 C20.289588,17.6061289 20.1423066,17.3545222 20.3202731,16.8881293 C20.4982371,16.4217363 20.9032623,16.035121 21.0014515,15.7405569 C21.0014515,15.7405569 20.9032623,16.035121 21.0014515,15.7405569 L21.0014611,15.7405569 L21.0014611,15.7405569 Z M21.0014611,15.7405569" fill="#96877D" id="path4972" stroke="#000000" stroke-width="0.20290741"/><path d="M22.2129102,16.4953772 C22.2129102,16.4953772 21.446376,17.5907871 20.1914108,17.9804704 C19.8446826,18.0633164 19.9704862,17.1704199 19.9704862,17.1704199 L19.8845725,17.1949665 C19.8845725,17.1949665 19.6912647,18.0694532 20.1545892,18.0786582 C21.415691,17.8301198 22.361921,16.5024628 22.361921,16.5024628 L22.2129102,16.4953772 L22.2129102,16.4953772 L22.2129102,16.4953772 L22.2129102,16.4953772 Z M22.2129102,16.4953772" fill="#96877D" id="path4974" stroke="#000000" stroke-width="0.20290741"/><path d="M22.732024,22.7916814 C22.732024,22.7916814 22.6154251,22.8775976 22.4620072,22.7916814 C22.3822299,22.6075808 22.1674443,22.5953054 22.1674443,22.5953054 C22.1674443,22.5953054 22.0291018,22.1978731 21.8115114,22.3130156 C21.7777605,22.1074347 21.5414946,22.2148287 21.5414946,22.2148287 C21.5414946,22.2148287 21.5353629,21.9171952 21.2592048,21.957085 C21.3512551,21.6164934 20.8787257,21.6379737 20.8787257,21.6379737 C20.8787257,21.6379737 20.8633964,21.2544263 20.1668623,21.3311353 C21.6672982,20.6591617 22.8547593,22.3866563 22.8547593,22.3866563" fill="#96877D" id="path4976" stroke="#000000" stroke-width="0.20290741"/><path d="M23.4438874,22.9389653 C23.4438874,22.9389653 23.7906132,23.3286491 23.9716479,23.3317174 C24.1526826,23.3347832 24.168024,22.9512383 24.168024,22.9512383 C24.168024,22.9512383 24.2263234,23.1169293 24.3153054,23.0739737 C24.3061078,23.1905701 24.4257677,23.2212551 24.4257677,23.2212551 C24.4257677,23.2212551 24.1127928,23.9484599 23.2229653,23.2580743" fill="#96877D" id="path4978" stroke="#000000" stroke-width="0.20290741"/><path d="M20.7314443,23.0862467 L20.608709,23.5894587 C20.608709,23.5894587 20.4522228,23.7306036 20.4982467,23.7612886 C20.5442731,23.7919713 20.792812,23.712194 20.792812,23.712194 C20.792812,23.712194 21.1794275,23.6661701 21.296024,23.5526395 C21.3758036,23.7336743 21.5537677,23.7490156 21.5537677,23.7490156 C21.5537677,23.7490156 21.5660311,23.6723066 21.5415042,23.6262802 C21.627418,23.6416335 21.7010611,23.6140168 21.7010611,23.6140168 C21.7010611,23.6140168 21.7501533,23.4728695 21.6396934,23.4176407 C21.6519569,23.313315 21.7041269,23.2212647 21.5169581,23.2335377 C21.3788814,23.3808192 21.0382898,23.5495808 20.952376,23.4912814 C20.8664623,23.432982 21.289897,23.2458108 21.1733006,23.0003425" fill="#96877D" id="path4980" stroke="#000000" stroke-width="0.20290741"/><path d="M12.9230582,21.8925653 L13.4221298,21.7735976 L13.3669964,21.542321 C13.3543641,21.4892575 13.3333931,21.4531904 13.3040965,21.434115 C13.2748098,21.4150491 13.2245557,21.409703 13.153331,21.418091 L13.1450532,21.3834515 L13.5748359,21.2810036 L13.5831138,21.3156431 C13.5339447,21.3280024 13.4992707,21.3430563 13.4790728,21.3607281 C13.4588788,21.3784048 13.4455739,21.3993892 13.4391598,21.4236814 C13.4327454,21.4479713 13.4345993,21.4813389 13.4447143,21.5237868 L13.4998479,21.7550635 L13.8987308,21.6599784 C13.9630273,21.6446491 14.0045071,21.6304766 14.0231739,21.6174539 C14.0372889,21.6074898 14.0475851,21.5911832 14.0540606,21.5685293 C14.0624941,21.5374922 14.0631384,21.506994 14.0560007,21.4770275 L14.0450498,21.4311545 L14.0796889,21.4228671 L14.2095931,21.9678204 L14.174954,21.9761078 L14.1642594,21.9311569 C14.1517372,21.8787281 14.1273911,21.8442874 14.091148,21.8278587 C14.0676031,21.8176311 14.0177499,21.8216072 13.9415938,21.8397629 L13.1213559,22.0352886 C13.0570601,22.050618 13.0155806,22.0647904 12.9969128,22.0778108 C12.9827978,22.0877749 12.9724278,22.1037701 12.9658002,22.1257988 C12.9572206,22.1562108 12.9565715,22.1867114 12.9638601,22.2172982 L12.9745547,22.2622515 L12.9399154,22.2705389 L12.7147042,21.3257677 L12.9908345,21.2470826 L12.9986453,21.2798563 C12.9432127,21.3102228 12.9041746,21.3394874 12.8815281,21.3676407 C12.8588862,21.3957988 12.8450781,21.4271305 12.8401059,21.4616263 C12.8351358,21.4961246 12.840537,21.5464599 12.8563119,21.6126275 L12.9230491,21.892594 L12.9230491,21.892594 L12.9230582,21.8925653 L12.9230582,21.8925653 Z M12.6015794,19.6405988 C12.6111099,19.4714539 12.6835993,19.3285102 12.8190448,19.2117725 C12.954492,19.0950347 13.1183205,19.0420814 13.3105308,19.0529078 C13.5085085,19.0640695 13.6693293,19.1357916 13.7929933,19.268091 C13.9166577,19.4003928 13.9734903,19.5552814 13.9634913,19.7327569 C13.9533835,19.9121533 13.8811411,20.0592886 13.7467638,20.1741581 C13.6123871,20.2890275 13.4439674,20.3407593 13.2415047,20.3293533 C13.0345578,20.3176886 12.8697032,20.237703 12.7469404,20.0893844 C12.6404321,19.9606204 12.5919787,19.8110251 12.6015756,19.6405988 L12.6015756,19.6405988 L12.6015756,19.6405988 L12.6015794,19.6405988 L12.6015794,19.6405988 Z M12.6707073,19.6628024 C12.6641396,19.7794108 12.7021157,19.8753916 12.7846381,19.9507401 C12.8873315,20.044582 13.0424719,20.0973509 13.2500594,20.1090467 C13.4627734,20.1210228 13.6290366,20.0847665 13.7488484,20.0002467 C13.8399198,19.9353222 13.888685,19.8455138 13.8951471,19.7308263 C13.9020405,19.6084527 13.8600057,19.5046922 13.7690347,19.4195449 C13.6780644,19.3344 13.5297463,19.2860335 13.3240798,19.2744431 C13.1011154,19.2618922 12.9323799,19.2964072 12.8178731,19.3780048 C12.7267679,19.443576 12.6777131,19.5385054 12.6707083,19.6628024 L12.6707083,19.6628024 L12.6707083,19.6628024 L12.6707073,19.6628024 L12.6707073,19.6628024 Z M14.5614802,17.2793085 L14.4375049,17.6049622 L13.7099653,17.8007475 C13.6995246,17.8317933 13.6906455,17.8569097 13.6833375,17.8760996 C13.6803674,17.8838984 13.6770237,17.8922386 13.6732992,17.9011164 C13.6695746,17.9100002 13.6655842,17.9191236 13.6613303,17.9284896 L14.0157715,18.0634244 C14.0925368,18.0926493 14.1434117,18.1024041 14.1683962,18.0926889 C14.2034649,18.0799535 14.229668,18.0507835 14.2470204,18.0052038 L14.2651689,17.9575265 L14.2984527,17.9701971 L14.0994759,18.4928625 L14.0661919,18.4801919 L14.0836601,18.4343126 C14.103296,18.3827382 14.1005416,18.3394601 14.0754086,18.3044834 C14.0616098,18.2848115 14.0199262,18.2617339 13.9503595,18.2352481 L13.1623133,17.9352412 C13.0855487,17.906017 13.0346738,17.8962625 13.0096884,17.9059763 C12.9743931,17.919308 12.9479612,17.9490843 12.9303792,17.9952606 L12.9129109,18.0411399 L12.8796268,18.0284692 L13.0488093,17.5840685 C13.0981265,17.4545279 13.1439313,17.3626165 13.1862242,17.3083351 C13.228519,17.2540551 13.2831669,17.2151219 13.3501681,17.1915322 C13.4171691,17.1679418 13.485755,17.1695083 13.5559234,17.1962196 C13.6308903,17.2247607 13.686657,17.2739717 13.723224,17.3438534 C13.7597921,17.413738 13.7699485,17.5042949 13.7536968,17.6155231 L14.1995327,17.4968594 C14.3018144,17.4698795 14.3740316,17.4407368 14.4161686,17.4093844 C14.4583104,17.3780513 14.4956513,17.3304673 14.5281911,17.2666359 L14.561475,17.2793066 L14.561475,17.2793066 L14.5614802,17.2793085 L14.5614802,17.2793085 Z M13.6046596,17.9069152 C13.6089974,17.8955188 13.6129159,17.8856817 13.6164105,17.8774012 C13.6199099,17.8691186 13.6226812,17.8622802 13.6247387,17.8568814 C13.6690326,17.7405344 13.6772352,17.6432345 13.6493466,17.564982 C13.6214663,17.4867281 13.5685315,17.4327641 13.4905667,17.4030819 C13.4144014,17.3740874 13.3434038,17.3743531 13.2775732,17.4038723 C13.2117442,17.433401 13.1638752,17.4874489 13.1339648,17.5660108 C13.1207217,17.6007966 13.108498,17.6500438 13.0972889,17.7137547 L13.6046608,17.9069099 L13.6046608,17.9069099 L13.6046596,17.9069152 L13.6046596,17.9069152 Z M16.3821904,13.5829166 L16.6344299,13.9103943 L16.6061523,13.928708 C16.5217892,13.8610196 16.4428577,13.8200122 16.3693571,13.8056862 C16.2633691,13.7848814 16.1592065,13.8076263 16.0568683,13.8738956 C15.9173672,13.9642505 15.847016,14.0881808 15.8458165,14.2456908 C15.8453135,14.3782934 15.8867346,14.5089581 15.9701123,14.6376857 C16.0377873,14.7421789 16.1197339,14.8244316 16.2159463,14.8844465 C16.3121583,14.9444618 16.4059801,14.9733399 16.4974115,14.9710817 C16.5888426,14.9688302 16.6690297,14.9453689 16.7379734,14.9007162 C16.7783674,14.8745531 16.8141051,14.844144 16.8451808,14.8094903 C16.8762546,14.7748381 16.9028436,14.7362093 16.9249473,14.6936046 L16.7198237,14.3768975 C16.68424,14.32196 16.6567799,14.2887107 16.6374441,14.2771502 C16.6181028,14.2655933 16.5968065,14.26104 16.5735468,14.2634879 C16.5502869,14.2659382 16.516577,14.2814831 16.4724048,14.3100709 L16.4525198,14.279372 L16.8766807,14.0046527 L16.8965657,14.0353514 L16.8763693,14.048434 C16.8343562,14.0756438 16.8146113,14.1083147 16.8171317,14.1464366 C16.8192635,14.1733425 16.8393449,14.2161516 16.8773713,14.2748596 L17.0945308,14.6101485 C17.0542172,14.6836613 17.0089569,14.7477631 16.9587495,14.8024534 C16.9085401,14.8571449 16.8465406,14.9083871 16.7727507,14.9561787 C16.5610738,15.0932769 16.3563418,15.1295437 16.1585535,15.0649768 C16.0102125,15.0165526 15.8929588,14.9258211 15.8067926,14.792782 C15.7443509,14.6963696 15.7076817,14.5889964 15.6967947,14.4706604 C15.6837097,14.3300479 15.7067875,14.2004165 15.7660319,14.0817655 C15.8159358,13.9829284 15.8955574,13.8981013 16.004897,13.8272829 C16.0447538,13.8014711 16.0830702,13.7812431 16.1198426,13.7666 C16.156612,13.7519413 16.2120505,13.7363317 16.2861356,13.7196769 C16.3236144,13.711435 16.3474793,13.7040122 16.3577224,13.6974086 C16.3679475,13.6907595 16.3736577,13.6804026 16.3748194,13.666264 C16.3759931,13.6521322 16.3684793,13.6308036 16.3522949,13.6022905 L16.3821873,13.5829301 L16.3821873,13.5829301 L16.3821904,13.5829166 L16.3821904,13.5829166 Z M18.5075722,13.7300831 L18.019189,13.8599502 L17.9865423,14.0817823 C17.9784848,14.1363856 17.9776728,14.1757758 17.9841016,14.1999629 C17.9891938,14.219194 18.0028537,14.2336558 18.0250254,14.2433643 C18.0471978,14.2530721 18.0892453,14.2520158 18.1511772,14.2401978 L18.1603198,14.2746206 L17.7631011,14.3802448 L17.7539586,14.345822 C17.8041993,14.3225023 17.835092,14.3013375 17.8466393,14.2823332 C17.8703519,14.2441543 17.8893128,14.1743708 17.9035219,14.0729816 L18.0711911,12.9168249 L18.1037444,12.9081543 L18.8218539,13.8407231 C18.8796311,13.9156668 18.9262778,13.9618623 18.9617964,13.9793099 C18.9973102,13.996759 19.0412192,14.0001914 19.0935186,13.9896022 L19.1026683,14.0240249 L18.6049811,14.1563641 L18.5958386,14.1219413 C18.6454146,14.1061114 18.6771392,14.0887004 18.6910204,14.0697351 C18.7049126,14.0507698 18.7091281,14.0310553 18.703691,14.0105911 C18.6964335,13.9833063 18.6725703,13.9435006 18.6320992,13.8911799 L18.5075816,13.7300644 L18.5075816,13.7300644 L18.5075722,13.7300831 L18.5075722,13.7300831 Z M18.463222,13.6681703 L18.1137068,13.215286 L18.0297236,13.7834434 L18.4632218,13.6681698 L18.4632218,13.6681698 L18.463222,13.6681703 L18.463222,13.6681703 Z M20.7676263,13.6613966 L20.7991066,13.6693655 L20.6737605,14.0189866 L19.6638156,13.9796968 L19.6652527,13.9441078 L19.714309,13.946024 C19.7694539,13.9481796 19.809588,13.9317485 19.8347114,13.8967617 C19.8489868,13.8767641 19.8575617,13.8295775 19.8604479,13.7551931 L19.8931904,12.9135715 C19.8963521,12.8321353 19.8893581,12.7808093 19.8722084,12.7595899 C19.8483042,12.7304014 19.8116551,12.7148491 19.7622802,12.7129281 L19.713224,12.711012 L19.7146611,12.675423 L20.3052407,12.6983978 L20.3038036,12.7339868 C20.2345749,12.7306527 20.1857509,12.7351844 20.1573341,12.7475533 C20.128915,12.7599341 20.1091784,12.7761868 20.0981222,12.7963056 C20.0870563,12.8164302 20.0800144,12.8652826 20.0769964,12.9428707 L20.0451162,13.7623696 C20.0429605,13.8155923 20.0467928,13.8523416 20.0562539,13.8726189 C20.0634156,13.886389 20.0748886,13.8967832 20.0906826,13.9038192 C20.1064671,13.9108563 20.1563545,13.916006 20.2403569,13.9192754 L20.3355808,13.9229808 C20.4356144,13.9268754 20.506115,13.9222383 20.5470874,13.9090527 C20.5880671,13.8958958 20.6259473,13.8711825 20.6607497,13.8349636 C20.6955521,13.7987502 20.7311976,13.7408915 20.7676862,13.6613931 L20.7676862,13.6613931 L20.7676862,13.6613931 L20.7676263,13.6613966 L20.7676263,13.6613966 Z M22.505909,14.1265449 L22.5339497,14.1429162 L22.3167234,14.444178 L21.3571186,14.126856 L21.3683042,14.0930414 L21.414915,14.108457 C21.4673102,14.125784 21.5104216,14.1211133 21.5442491,14.0944522 C21.5634826,14.0791851 21.5847976,14.0362146 21.6081677,13.9655401 L21.8726036,13.1658695 C21.8981892,13.0884932 21.9056766,13.0372354 21.8950707,13.0120958 C21.8801725,12.9774309 21.8492671,12.9523428 21.8023545,12.9368278 L21.7557437,12.9214122 L21.7669293,12.8875976 L22.3280695,13.0731552 L22.3168838,13.1069698 C22.2512838,13.084601 22.2031162,13.0754335 22.1723832,13.0794632 C22.1416503,13.0834968 22.1181916,13.0936692 22.101988,13.1099183 C22.0857964,13.1261914 22.0655066,13.1711914 22.0411281,13.2449109 L21.7836431,14.0235617 C21.7669246,14.0741293 21.7603138,14.1104714 21.7638108,14.1325825 C21.7668766,14.1477969 21.7750443,14.1609693 21.7882563,14.172097 C21.8014778,14.1832275 21.8479904,14.2019871 21.9278036,14.2283813 L22.0182802,14.2583004 C22.1133269,14.2897303 22.1823593,14.3047849 22.2253772,14.3034649 C22.2683928,14.3021475 22.3116383,14.2888996 22.355109,14.2637437 C22.3985772,14.238578 22.4488455,14.1928484 22.5059138,14.1265574 L22.5059138,14.1265574 L22.5059138,14.1265574 L22.505909,14.1265449 L22.505909,14.1265449 Z M23.906788,14.8684031 L23.4943018,14.5764472 L23.3030108,14.6934228 C23.2559114,14.7221959 23.2251353,14.7468005 23.2106778,14.7672271 C23.1991808,14.7834642 23.1968096,14.803206 23.2035401,14.8264517 C23.2102946,14.8496949 23.2380192,14.8813195 23.2867545,14.921319 L23.2661796,14.9503916 L22.9306898,14.7129341 L22.9512647,14.6838632 C23.0013485,14.7075159 23.0373868,14.7176958 23.0593796,14.7143931 C23.1038874,14.7081559 23.1696263,14.6780292 23.2566036,14.6240244 L24.2519904,14.0124582 L24.2794898,14.0319217 L24.0230467,15.1806608 C24.0024958,15.273028 23.9968719,15.3384388 24.0062084,15.3768922 C24.0155497,15.4153418 24.0410323,15.4512651 24.0826515,15.4846572 L24.0620766,15.5137296 L23.6417317,15.2162127 L23.6623066,15.1871404 C23.7062132,15.2150766 23.739897,15.2283011 23.7633533,15.2268204 C23.7868024,15.2253353 23.8046491,15.2159485 23.8168886,15.1986716 C23.8332,15.1756225 23.8484886,15.1318062 23.8627593,15.0672168 L23.9067737,14.8684067 L23.9067737,14.8684067 L23.906788,14.8684031 L23.906788,14.8684031 Z M23.9259497,14.7946913 L24.0499856,14.236229 L23.559818,14.5355456 L23.9259497,14.7946913 L23.9259497,14.7946913 L23.9259497,14.7946913 L23.9259497,14.7946913 Z M25.4739066,15.0799669 L25.6848431,15.3645447 L25.3735665,16.588559 L25.9782946,16.1403198 C26.0427353,16.0925547 26.0775976,16.0555313 26.0828814,16.0292481 C26.0904024,15.9941269 26.0788575,15.9559392 26.048297,15.9146965 L26.0213605,15.8783511 L26.0499737,15.857144 L26.3205222,16.2221461 L26.291909,16.2433533 L26.2643952,16.2062343 C26.2315305,16.1618968 26.1948168,16.1403847 26.1542515,16.1416963 C26.1293461,16.1425825 26.0875018,16.1647861 26.0287401,16.2083727 L25.1448455,16.8635358 L25.1241988,16.835698 L25.4562156,15.518429 L24.8105006,15.9970477 C24.7460575,16.0448129 24.711006,16.0815784 24.7053413,16.1073459 C24.6982036,16.1429842 24.7097246,16.1811698 24.7399257,16.2218977 L24.7674395,16.2590168 L24.7388263,16.280224 L24.4682778,15.9152216 L24.496891,15.8940144 L24.5238299,15.9303598 C24.5570731,15.975212 24.5939784,15.9969825 24.6345437,15.9956709 C24.6594467,15.9947847 24.7012934,15.9725811 24.7600575,15.9289993 L25.4892886,15.388475 C25.5023186,15.331692 25.5086659,15.2912345 25.5083545,15.2671032 C25.508115,15.242972 25.5015042,15.2120692 25.4887617,15.1743909 C25.4823186,15.1560029 25.4678275,15.1315966 25.445279,15.1011816 L25.4738922,15.0799744 L25.4738922,15.0799744 L25.4739066,15.0799669 L25.4739066,15.0799669 Z M27.1196599,18.1128817 L26.8359042,18.2285921 L26.8237365,18.1941006 C26.8721988,18.1694654 26.9052862,18.1475483 26.9229988,18.1283495 C26.9514515,18.0971796 26.9684838,18.0630733 26.9740982,18.0260331 C26.979703,17.9889914 26.9736192,17.9450606 26.9555593,17.8942434 L26.894218,17.7209243 L25.9540934,18.0535514 C25.8784671,18.0802915 25.8341749,18.1051677 25.8212,18.1281375 C25.8039305,18.1601164 25.8037389,18.2000014 25.820721,18.2477945 L25.8357868,18.2904496 L25.8022108,18.3023226 L25.6175976,17.7805358 L25.651176,17.7686628 L25.6666012,17.8122182 C25.6850204,17.8642419 25.713794,17.895584 25.7529581,17.9062321 C25.7770251,17.912692 25.8235449,17.9037243 25.8925102,17.8793183 L26.8326347,17.5466915 L26.7803234,17.3987691 C26.759988,17.3413001 26.741303,17.30196 26.7242731,17.2807576 C26.7016623,17.2533669 26.6700383,17.234258 26.6294539,17.2234321 C26.5888647,17.2126057 26.5399928,17.2149195 26.4828383,17.2303782 L26.4706707,17.1958867 L26.7643784,17.1083085 L27.1198012,18.112862 L27.1198012,18.112862 L27.1196599,18.1128817 L27.1196599,18.1128817 Z M26.0864719,20.4280719 L26.068388,20.0800862 L26.654903,19.6071737 C26.651909,19.5745557 26.649897,19.5479952 26.6488192,19.5274898 C26.6483401,19.5191545 26.6481006,19.5101964 26.6478611,19.5005509 C26.6477006,19.4909222 26.6476431,19.4809581 26.6477533,19.4706731 L26.2690084,19.4903617 C26.1869796,19.4946251 26.1364982,19.5062419 26.1175641,19.525224 C26.0906299,19.5510419 26.0784335,19.5883042 26.0809653,19.6370108 L26.083624,19.6879593 L26.0480575,19.6898754 L26.0190228,19.1313701 L26.0545892,19.1294539 L26.0571281,19.1784814 C26.0600024,19.2335952 26.0799784,19.2720743 26.117109,19.2939186 C26.1376838,19.3063497 26.1851257,19.3106132 26.2594659,19.3067569 L27.1015497,19.262982 C27.1835784,19.2587186 27.2340599,19.2471018 27.2529964,19.2281222 C27.2798898,19.2016623 27.2920599,19.1637605 27.2894946,19.1144144 L27.2869557,19.0653916 L27.3225222,19.0634754 L27.3472096,19.5383497 C27.3543952,19.6767737 27.3496048,19.7793533 27.3328383,19.846091 C27.3160719,19.9128287 27.281794,19.970515 27.2300263,20.0191521 C27.1782539,20.0677868 27.114879,20.0940551 27.0398994,20.0979521 C26.959794,20.1021198 26.888903,20.0796287 26.8272287,20.0304527 C26.7655545,19.9812886 26.7196934,19.9025461 26.6896431,19.7942251 L26.3296982,20.082824 C26.2470204,20.1488096 26.1927329,20.2046467 26.1668359,20.2503305 C26.1409389,20.2960144 26.1259904,20.3546251 26.1219976,20.4261605 L26.0864311,20.4280766 L26.0864311,20.4280766 L26.0864719,20.4280719 L26.0864719,20.4280719 Z M26.7083617,19.4675234 C26.7090802,19.479691 26.7093198,19.4902778 26.7095593,19.4992695 C26.7097126,19.5082515 26.7100383,19.5156287 26.7102778,19.5214012 C26.7167449,19.6457269 26.7485293,19.7380527 26.8056216,19.7983856 C26.8627353,19.8587114 26.9329461,19.886709 27.0162587,19.8823784 C27.0976455,19.8781389 27.162491,19.8492335 27.2107904,19.7956359 C27.2590874,19.7420359 27.2810563,19.6732647 27.2766922,19.5893126 C27.274776,19.5521413 27.2660575,19.5021509 27.2505796,19.4393413 L26.7084168,19.4675257 L26.7084168,19.4675257 L26.7083617,19.4675234 L26.7083617,19.4675234 Z M27.0662371,22.1525725 L26.9506946,22.5929677 L26.9162467,22.5839377 L26.922594,22.5597317 C26.9268335,22.543588 26.9258754,22.5181317 26.9197437,22.4833509 C26.913612,22.4485701 26.9005102,22.4149557 26.8805198,22.382503 C26.8604958,22.3500479 26.825279,22.307303 26.7748431,22.2542659 L26.3752216,21.8240024 L26.0586587,21.7409461 C25.9810683,21.7205868 25.9303737,21.7165772 25.9065725,21.7288982 C25.8743138,21.7456407 25.8515066,21.7794683 25.8381533,21.8303665 L25.8273988,21.8713341 L25.7929509,21.8623042 L25.9336551,21.3260072 L25.968103,21.3350371 L25.9563665,21.3797317 C25.9423545,21.433109 25.9485581,21.4752096 25.9749772,21.506024 C25.9912647,21.5248982 26.0347784,21.5436072 26.1055377,21.5621725 L26.404412,21.6405844 L27.0241317,21.4329772 C27.0969485,21.4082946 27.1430323,21.3906994 27.162376,21.3801796 C27.1817054,21.3696407 27.2082802,21.3442922 27.2420575,21.3040551 C27.2515186,21.2932766 27.2593509,21.2760862 27.2655305,21.2524982 L27.2999808,21.2615521 L27.1582994,21.8015713 L27.1238515,21.7925413 L27.1311808,21.7646084 C27.1388216,21.7354323 27.1390371,21.7067976 27.1318994,21.678697 C27.1246659,21.6505988 27.1074084,21.6329605 27.0800958,21.6257964 C27.0577485,21.6199281 27.0124359,21.6282874 26.9441557,21.6508359 L26.4681413,21.8075569 L26.7923497,22.1573317 C26.8409222,22.2098802 26.8794874,22.2399018 26.9080407,22.247394 C26.9254299,22.2519449 26.9421174,22.2515138 26.9581365,22.2461964 C26.9741605,22.2407832 26.9882395,22.2306994 27.0003952,22.2159832 C27.0125629,22.2012527 27.0230299,22.1771377 27.0318204,22.1436192 L27.0662683,22.1526491 L27.0662683,22.1526491 L27.0662371,22.1525725 L27.0662371,22.1525725 Z M27.0662371,22.1525725" fill="#000000" id="text1930"/></g></g></g></svg>