<?xml version="1.0" encoding="UTF-8" standalone="no"?>
<svg width="24px" height="16px" viewBox="0 0 24 16" version="1.1" xmlns="http://www.w3.org/2000/svg" xmlns:xlink="http://www.w3.org/1999/xlink">
    <!-- Generator: Sketch 39.1 (31720) - http://www.bohemiancoding.com/sketch -->
    <title>icon-flag-xx</title>
    <desc>Created with Sketch.</desc>
    <defs></defs>
    <g id="Page-1" stroke="none" stroke-width="1" fill="none" fill-rule="evenodd">
        <rect id="Rectangle-1" fill="#BBBBBB" x="0" y="0" width="24" height="5.33279995"></rect>
        <rect id="Rectangle-1-Copy" fill="#D4D4D4" x="0" y="5.33279995" width="24" height="5.33279995"></rect>
        <rect id="Rectangle-1-Copy-2" fill="#E3E3E3" x="0" y="10.6655999" width="24" height="5.33279995"></rect>
        <path d="M11.268,8.648 L12.336,8.288 C12.168,8.168 12.072,7.94 12.072,7.748 C12.072,6.68 14.208,6.536 14.208,4.76 C14.208,3.68 13.284,2.876 11.772,2.876 C10.692,2.876 9.768,3.308 9.156,4.064 L9.972,4.964 C10.368,4.448 10.896,4.124 11.64,4.124 C12.408,4.124 12.78,4.52 12.78,4.988 C12.78,6.008 10.848,6.152 10.848,7.616 C10.848,8.012 10.98,8.372 11.268,8.648 L11.268,8.648 Z M11.7,11.132 C12.156,11.132 12.54,10.736 12.54,10.28 C12.54,9.836 12.156,9.452 11.7,9.452 C11.244,9.452 10.86,9.836 10.86,10.28 C10.86,10.736 11.244,11.132 11.7,11.132 L11.7,11.132 Z" id="?" fill-opacity="0.801958869" fill="#000000"></path>
    </g>
</svg>