<?xml version="1.0" ?><svg height="120px" version="1.1" viewBox="0 0 180 120" width="180px" xmlns="http://www.w3.org/2000/svg" xmlns:sketch="http://www.bohemiancoding.com/sketch/ns" xmlns:xlink="http://www.w3.org/1999/xlink"><title/><description/><defs/><g fill="none" fill-rule="evenodd" id="Page-1" stroke="none" stroke-width="1"><g id="tonga"><rect d="M0,0 L0,120 L180,120 L180,0 L0,0 Z M0,0" fill="#CA4638" height="120" id="Rectangle-326" width="180" x="0" y="0"/><rect d="M0,0 L0,60 L90,60 L90,0 L0,0 Z M0,0" fill="#FFFFFF" height="60" id="path-1" width="90" x="0" y="0"/><path d="M38.6666667,23.3333333 L38.6666667,10 L52,10 L52,23.3333333 L65.3333333,23.3333333 L65.3333333,36.6666667 L52,36.6666667 L52,50 L38.6666667,50 L38.6666667,36.6666667 L25.3333333,36.6666667 L25.3333333,23.3333333 L38.6666667,23.3333333 L38.6666667,23.3333333 L38.6666667,23.3333333 L38.6666667,23.3333333 Z M38.6666667,23.3333333" fill="#CA4638" id="Rectangle-321"/></g></g></svg>