<?xml version="1.0" ?><svg height="120px" version="1.1" viewBox="0 0 180 120" width="180px" xmlns="http://www.w3.org/2000/svg" xmlns:sketch="http://www.bohemiancoding.com/sketch/ns" xmlns:xlink="http://www.w3.org/1999/xlink"><title/><defs/><g fill="none" fill-rule="evenodd" id="Africa,-Middle-East-and-India" stroke="none" stroke-width="1"><g id="Africa,-Middle-Eest-and-India" transform="translate(0.000000, -1401.000000)"><g id="Namibia" transform="translate(0.000000, 1401.000000)"><rect d="M0,2.27373675e-13 L0,120 L180,120 L180,2.27373675e-13 L0,2.27373675e-13 Z M0,2.27373675e-13" fill="#FFFFFF" height="120" id="Rectangle-3-copy-4" width="180" x="0" y="2.27373675e-13"/><path d="M25,120 L180,120 L180,20 L25,120 Z M25,120" fill="#479951" id="Rectangle-3-copy-2"/><path d="M0,103 L0,120 L20,120 L180,17 L180,2.27373675e-13 L160,2.27373675e-13 L0,103 Z M0,103" fill="#CA4638" id="Rectangle-3-copy-3"/><path d="M0,2.27373675e-13 L0,100 L155,2.27373675e-13 L0,2.27373675e-13 Z M0,2.27373675e-13" fill="#346DA6" id="Rectangle-3"/><path d="M35.7500371,17.9646988 L32,7.07842712 L28.2499629,17.9646988 C29.4485488,17.6613425 30.7051132,17.5 32,17.5 C33.2948868,17.5 34.5514512,17.6613425 35.7500371,17.9646988 L35.7500371,17.9646988 Z M42.464057,21.6818532 L44.6426712,10.4660207 L35.9532373,18.0176346 C38.4403005,18.6840555 40.670094,19.96399 42.464057,21.6818532 L42.464057,21.6818532 Z M46.4526729,28.2879419 L53.8977489,19.7210983 L42.6860709,21.8989056 C44.4459421,23.6555078 45.7612555,25.8439696 46.4526729,28.2879419 L46.4526729,28.2879419 Z M46.4885428,36.0829858 L57.2853424,32.3637695 L46.5544337,28.6672509 C46.8454905,29.8142391 47,31.0143765 47,32.25 C47,33.575789 46.8221181,34.8607238 46.4885428,36.0829858 L46.4885428,36.0829858 Z M42.4923315,42.7910007 L53.8977489,45.0064407 L46.4032528,36.3827308 C45.6734296,38.8463658 44.3076427,41.0435664 42.4923315,42.7910007 L42.4923315,42.7910007 Z M36.270009,46.3937713 L35.861116,46.6298457 L44.6426712,54.2615184 L42.4267704,42.853729 C40.7159987,44.480685 38.6126431,45.7109492 36.270009,46.3937713 L36.270009,46.3937713 Z M28.7328462,46.6491119 L28.2107864,46.6491119 L32,57.6491119 L35.7892136,46.6491119 L35.2671538,46.6491119 C34.2154066,46.8788448 33.1220917,47 32,47 C30.8779083,47 29.7845934,46.8788448 28.7328462,46.6491119 L28.7328462,46.6491119 Z M21.5732296,42.853729 L19.3573288,54.2615184 L28.138884,46.6298457 L27.729991,46.3937713 C25.3873569,45.7109492 23.2840013,44.480685 21.5732296,42.853729 L21.5732296,42.853729 Z M17.5967473,36.3827308 L10.1022511,45.0064407 L21.5076685,42.7910007 C19.6923573,41.0435665 18.3265705,38.8463659 17.5967472,36.3827308 L17.5967473,36.3827308 Z M17.4455663,28.6672509 L6.71465759,32.3637695 L17.5114572,36.0829858 C17.1778819,34.8607238 17,33.575789 17,32.25 C17,31.0143765 17.1545095,29.8142391 17.4455663,28.6672509 L17.4455663,28.6672509 Z M21.3139291,21.8989056 L10.1022511,19.7210983 L17.5473271,28.2879418 C18.2387445,25.8439696 19.5540579,23.6555078 21.3139291,21.8989056 L21.3139291,21.8989056 Z M28.0467627,18.0176347 L19.3573288,10.4660207 L21.535943,21.6818532 C23.329906,19.96399 25.5596995,18.6840555 28.0467627,18.0176347 L28.0467627,18.0176347 Z M32,45 C39.1797021,45 45,39.2916309 45,32.25 C45,25.2083691 39.1797021,19.5 32,19.5 C24.8202979,19.5 19,25.2083691 19,32.25 C19,39.2916309 24.8202979,45 32,45 Z M32,45" fill="#E5B731" id="Triangle-5"/></g></g></g></svg>