<?xml version="1.0" ?><svg height="120px" version="1.1" viewBox="0 0 180 120" width="180px" xmlns="http://www.w3.org/2000/svg" xmlns:sketch="http://www.bohemiancoding.com/sketch/ns" xmlns:xlink="http://www.w3.org/1999/xlink"><title/><defs/><g fill="none" fill-rule="evenodd" id="Europe" stroke="none" stroke-width="1"><g id="Turkey"><rect d="M0,0 L0,120 L180,120 L180,0 L0,0 Z M0,0" fill="#CA4638" height="120" id="Oval-1-copy-4" width="180" x="0" y="0"/><path d="M109.42902,76.9781233 C103.455121,87.7267736 91.9846653,95 78.8154555,95 C59.4854883,95 43.8154555,79.3299672 43.8154555,60 C43.8154555,40.6700328 59.4854883,25 78.8154555,25 C91.9846653,25 103.455121,32.2732264 109.42902,43.0218767 C104.440862,36.7779572 96.7619716,32.7777778 88.1487888,32.7777778 C73.1143699,32.7777778 60.9265666,44.9655811 60.9265666,60 C60.9265666,75.0344189 73.1143699,87.2222222 88.1487888,87.2222222 C96.7619716,87.2222222 104.440862,83.2220428 109.42902,76.9781233 L109.42902,76.9781233 Z M124.517876,66.607371 L119.110079,72.1552008 L117.996011,64.4882887 L111.04861,61.0595415 L117.996012,57.6307928 L119.110079,49.9638818 L124.517877,55.511712 L132.153812,54.2020515 L128.54861,61.059543 L132.153808,67.9170366 L124.517876,66.607371 Z M124.517876,66.607371" fill="#FFFFFF" id="Oval-57"/></g></g></svg>