<?xml version="1.0" ?><svg height="120px" version="1.1" viewBox="0 0 180 120" width="180px" xmlns="http://www.w3.org/2000/svg" xmlns:sketch="http://www.bohemiancoding.com/sketch/ns" xmlns:xlink="http://www.w3.org/1999/xlink"><title/><defs/><g fill="none" fill-rule="evenodd" id="Page-1" stroke="none" stroke-width="1"><g id="rectangle_equatorial_guinea"><rect fill="#FFFFFF" height="40" id="Rectangle-3-copy-3" width="180" x="0" y="40"/><g id="Equatorial_Guinea" transform="translate(75.000000, 41.000000)"><path d="M4,6 L24,6 L24,27.4843316 C24,34.7136057 14.8093995,29.1443872 14.0261096,33 C12.6684073,29.0372868 4.05221932,34.7671559 4.05221932,27.0559302 C4.05221932,19.5589052 4,6 4,6 L4,6 L4,6 Z" fill="#FFFFFF" id="Shape" stroke="#000000" stroke-width="0.5"/><path d="M29.2212133,28.5984612 C29.398128,29.2982997 29.6598955,30.1369424 30,30.6963906 C29.1882657,35.169653 21.8962474,35.6570569 20.6024095,35.7084103 L20.6024096,35.7084103 L20.6024096,36.6783285 C20.6024096,38.4405572 9.75903614,38.4405572 9.75903614,36.6783285 L9.75903614,35.7071403 C8.38663887,35.6492874 1.21235827,35.1350918 0.361445782,30.6963906 C0.623174478,30.2648885 0.822906563,29.6672927 0.969590934,29.0954014 L0.969590934,29.0954014 C-1.05705756,27.7647892 0.69068363,26.2998897 0.891040727,22.3809524 C1.25423532,24.8495238 3.90036735,25.8918095 3.5890577,27.4826667 C2.49947392,27.5375238 1.9806245,25.7820952 1.46177508,27.7020952 L1.44308228,27.8127715 C1.76148622,28.6960416 2.7340168,30.5920282 5.4349704,31.710646 C8.10249361,32.7782833 11.8684088,32.0843191 11.8684088,32.0843191 C11.8684088,32.0843191 12.1299307,32.9384289 11.5545826,32.9918107 C10.1423644,33.2053382 9.77623373,33.4188656 9.9854512,34.059448 L9.9854512,34.4399736 C11.4065961,35.1885929 19.0788799,35.3495063 20.4065851,34.4711666 L20.4065851,34.059448 C20.5638542,33.4188656 20.196893,33.2053382 18.7814711,32.9918107 C18.2048177,32.9384289 18.519356,32.0843191 18.519356,32.0843191 C18.519356,32.0843191 22.2938143,32.7782833 24.9673889,31.710646 C27.2986565,30.7331549 28.2846972,29.1620701 28.6879564,28.1918389 L28.4755906,27.3211429 C27.959511,25.4011429 27.4434312,27.1565714 26.4112718,27.1017143 C26.101624,25.5108571 28.6820225,24.4685714 29.0432783,22 C29.2372304,25.814017 30.9801101,27.2552145 29.2212133,28.5984612 L29.2212133,28.5984612 Z" fill="#FFFFFF" id="Shape" stroke="#000000" stroke-width="0.1"/><path d="M13.9521857,14.7073518 C14.0690607,13.7234204 14.2109665,13 14.2109665,13 L15.1603059,13 C15.0911246,13.6748296 15.1107852,14.3260391 15.1355969,14.9528488 C15.8939959,14.0580723 16.4642857,13.7619048 16.4642857,13.7619048 L17,14.2918314 C14.9910714,15.5106628 15.1696429,17.2594207 15.3482143,20.2800027 C15.3928571,21.3928487 15.3928571,22.8236507 15.6160714,24.20146 C15.9285714,25.950218 16.5535714,27.4340126 16.5982143,28.5468586 C16.6428571,29.2357633 15.9285714,28.8648146 15.9285714,28.8648146 C15.9285714,28.8648146 15.7053571,29.129778 15.3035714,28.9178073 C15.2786132,28.9046401 15.2550331,28.8405569 15.2327561,28.7319342 L15.2327561,28.7319342 C14.4109201,29.4546458 14.0000022,28.4871241 14.0000022,28.4871241 C14.0000022,28.4871241 13.9966197,28.3706085 13.9907267,28.1596381 C13.9648915,28.4294267 13.9389228,28.5729665 13.9156655,28.6002802 C13.1176855,29.5895053 12.80736,28.4440868 12.7630278,28.3399578 L12.80736,28.5482158 C12.0537122,28.9647316 11.9650478,28.1316999 12.00938,28.027571 C13.6496722,24.1227354 14.3589876,15.5320969 12.8516922,14.5949364 L12.9403567,13.7619048 C13.3690859,13.9168299 13.7732816,14.4463184 13.9521857,14.7073518 L13.9521857,14.7073518 Z" fill="#73452B" id="Shape"/><path d="M18.0779878,9.67411578 C18.3884016,9.30839951 18.3884016,9.30839951 18.9574936,9.30839951 C19.0609648,8.52472188 20.3543557,8.52472188 20.4578269,9.51738026 C21.4925396,9.30839951 21.6994822,9.93534168 21.2855971,10.5622838 C22.2685742,10.3010579 23.14808,10.5622838 22.8894017,11.7116777 C24.6484133,12.1818843 23.9758501,13.4357685 23.1998155,13.6969944 C23.0963443,14.4806721 22.3720454,14.741898 21.3890684,14.4284269 C20.1474131,15.3165949 19.4231142,15.0031239 18.8540222,14.1149559 C17.4571601,14.3239365 17.3536889,14.0104655 16.7328613,13.2267878 C15.6464129,13.6969944 15.4394704,13.6969944 14.5082289,13.1222975 C14.4564934,13.85373 14.1978151,13.6447492 13.7321945,13.5925041 C13.7839301,14.5329172 13.4217807,14.9508786 12.5940105,14.6374076 C13.2148381,15.943537 11.6110334,16.518234 10.834999,15.4210853 C10.1107001,15.4733304 10.0589644,15.2643498 9.69681496,15.0031239 C9.38640116,16.0480274 8.24821724,15.8912919 8.04127469,15.3165949 C6.59267692,15.1076142 6.74788382,14.3239365 7.93780337,14.2716914 C8.04127469,13.4357685 8.76557358,13.5925041 9.23119427,13.6969944 C9.28292993,13.1745426 9.59334372,13.279033 9.85202185,13.3835234 C9.69681496,13.0178071 9.80028627,12.8088264 10.265907,12.7043361 C9.59334372,11.8161681 10.0072288,11.5026969 10.6797921,11.1892259 C10.3176426,10.3533031 10.9384702,10.4055483 11.4040909,10.3533031 C11.3523553,9.46513503 11.6110334,9.30839951 12.5422749,9.20390921 C12.4388036,8.89043808 12.5940105,8.62921226 13.1113669,8.62921226 C12.800953,7.74104418 13.2148381,7.53728801 14.1460796,7.68879903 C14.3012865,6.39834316 17.0432751,7.00961171 16.8363325,8.78594778 C17.6123671,8.89043808 17.8710452,9.04717361 18.0779878,9.67411578 L18.0779878,9.67411578 L18.0779878,9.67411578 Z" fill="#009A3B" id="Shape"/><path d="M14,2.92746114 L12.7246377,2.97927461 L12.0869566,4 L11.3913043,3.02590674 L10.115942,3.07253886 L10.6956522,2.04663213 L10,1.07253886 L11.3333334,1.02072539 L11.9130434,0 L12.6086957,0.974093264 L13.884058,0.927461136 L13.3043478,1.95336787 L14,2.92746114 L14,2.92746114 Z M9,3.576 L7.8108108,3.864 L7.48648648,5 L6.6216216,4.14666666 L5.48648649,4.424 L5.81081081,3.288 L5,2.424 L6.13513514,2.14133334 L6.45945946,1 L7.32432432,1.85333334 L8.51351352,1.576 L8.13513512,2.71733334 L9,3.576 L9,3.576 Z M4,4.14182345 L2.96103896,4.71490594 L2.90909091,6 L1.92207792,5.29377714 L0.88311688,5.86107091 L0.987012984,4.57597685 L0,3.86396526 L1.03896104,3.28509406 L1.14285714,2 L2.07792208,2.70622286 L3.11688312,2.13892909 L3.06493506,3.42402315 L4,4.14182345 L4,4.14182345 Z M16,2.92746114 L17.2941177,2.97927461 L17.882353,4 L18.5882353,3.02590674 L19.882353,3.07253886 L19.2941177,2.04663213 L20,1.07253886 L18.7058823,1.02072539 L18.0588235,0 L17.3529412,0.974093264 L16.0588235,0.927461136 L16.6470588,1.95336787 L16,2.92746114 L16,2.92746114 Z M20,3.576 L21.1351351,3.864 L21.4594594,5 L22.3243243,4.14666666 L23.4594594,4.424 L23.1351351,3.288 L24,2.424 L22.8108108,2.14133334 L22.4864865,1 L21.6216216,1.85333334 L20.4864865,1.576 L20.8108108,2.71733334 L20,3.576 L20,3.576 Z M25,4.14182345 L26.038961,4.71490594 L26.0909091,6 L27.0779221,5.29377714 L28.1168831,5.86107091 L28.064935,4.57597685 L29,3.86396526 L27.961039,3.28509406 L27.9090909,2 L26.9220779,2.70622286 L25.8831169,2.13892909 L25.987013,3.42402315 L25,4.14182345 L25,4.14182345 Z" fill="#FFD700" id="Shape"/></g><rect fill="#CA4638" height="40" id="Rectangle-3-copy-2" width="180" x="0" y="80"/><rect fill="#57BB63" height="40" id="Rectangle-3" width="180" x="0" y="0"/><path d="M0,120 L60,60 L0,0 L0,120 Z" fill="#4086CD" id="Path"/></g></g></svg>