<?xml version="1.0" ?><svg height="120px" version="1.1" viewBox="0 0 180 120" width="180px" xmlns="http://www.w3.org/2000/svg" xmlns:sketch="http://www.bohemiancoding.com/sketch/ns" xmlns:xlink="http://www.w3.org/1999/xlink"><title/><defs/><g fill="none" fill-rule="evenodd" id="Europe" stroke="none" stroke-width="1"><g id="Slovenia"><rect d="M0,0 L0,120 L180,120 L180,0 L0,0 Z M0,0" fill="#CA4638" height="120" id="Oval-1-copy-4" width="180" x="0" y="0"/><rect d="M0,0 L0,80 L180,80 L180,0 L0,0 Z M0,0" fill="#346DA6" height="80" id="Oval-1-copy-5" width="180" x="0" y="0"/><rect d="M0,0 L0,40 L180,40 L180,0 L0,0 Z M0,0" fill="#FFFFFF" height="40" id="Oval-1-copy-5" width="180" x="0" y="0"/><g id="Group" transform="translate(31.000000, 9.000000)"><path d="M49,5.50027629 C33.4931732,-1.83342543 15.5068268,-1.83342543 0,5.50027629 L1.98909375,34.7909757 C2.88282152,47.9516881 11.8474312,59.1854825 24.5,63 C37.1525688,59.1854825 46.1171785,47.9516881 47.0109062,34.7909757 L49,5.50027629 Z M49,5.50027629" fill="#346DA6" id="Shape"/><path d="M6,37.927632 C8.14485778,47.2808689 15.1507879,54.8822531 24.5,58 C33.8492121,54.8822531 40.8551422,47.2808689 43,37.927632 L33.75,25.9758773 L30.05,30.7565792 L24.5,20 L18.95,30.7565792 L15.25,25.9758773 L6,37.927632" fill="#FFFFFF" id="Shape"/><path d="M7,43.9989081 C9.04204711,45.3307855 11.5579529,45.3307855 13.6,43.9989081 C15.6420471,42.6670306 18.1579529,42.6670306 20.2,43.9989081 C22.2420471,45.3307855 24.7579529,45.3307855 26.8,43.9989081 C28.8420471,42.6670306 31.3579529,42.6670306 33.4,43.9989081 C35.4420471,45.3307855 37.9579529,45.3307855 40,43.9989081 L40,46.0010919 C37.9579529,47.3329694 35.4420471,47.3329694 33.4,46.0010919 C31.3579529,44.6692145 28.8420471,44.6692145 26.8,46.0010919 C24.7579529,47.3329694 22.2420471,47.3329694 20.2,46.0010919 C18.1579529,44.6692145 15.6420471,44.6692145 13.6,46.0010919 C11.5579529,47.3329694 9.04204711,47.3329694 7,46.0010919 C7,46.0010919 9.04204711,47.3329694 7,46.0010919 L7,43.9989081 L7,43.9989081 Z M7,43.9989081" fill="#005DA4" id="Shape"/><path d="M7,47.9989081 C8.91828668,49.3307855 11.2817133,49.3307855 13.2,47.9989081 C15.1182867,46.6670306 17.4817133,46.6670306 19.4,47.9989081 C21.3182867,49.3307855 23.6817133,49.3307855 25.6,47.9989081 C27.5182867,46.6670306 29.8817133,46.6670306 31.8,47.9989081 C33.7182867,49.3307855 36.0817133,49.3307855 38,47.9989081 L38,50.0010919 C36.0817133,51.3329694 33.7182867,51.3329694 31.8,50.0010919 C29.8817133,48.6692145 27.5182867,48.6692145 25.6,50.0010919 C23.6817133,51.3329694 21.3182867,51.3329694 19.4,50.0010919 C17.4817133,48.6692145 15.1182867,48.6692145 13.2,50.0010919 C11.2817133,51.3329694 8.91828668,51.3329694 7,50.0010919 C7,50.0010919 8.91828668,51.3329694 7,50.0010919 L7,47.9989081 L7,47.9989081 Z M7,47.9989081" fill="#005DA4" id="Shape"/><path d="M24,12 L24.4618802,13.3071796 L26,13 L24.9237604,14 L26,15 L24.4618802,14.6928204 L24,16 L23.5381198,14.6928204 L22,15 L23.0762396,14 L22,13 L23.5381198,13.3071796 L23.5381198,13.3071796 L24,12 L24,12 Z M24,12" fill="#FFDD00" id="Shape"/><path d="M18,4 L18.4618802,5.3071796 L20,5 L18.9237604,6 L20,7 L18.4618802,6.6928204 L18,8 L17.5381198,6.6928204 L16,7 L17.0762396,6 L16,5 L17.5381198,5.3071796 L17.5381198,5.3071796 L18,4 L18,4 Z M18,4" fill="#FFDD00" id="Shape"/><path d="M31,4 L31.4618802,5.3071796 L33,5 L31.9237604,6 L33,7 L31.4618802,6.6928204 L31,8 L30.5381198,6.6928204 L29,7 L30.0762396,6 L29,5 L30.5381198,5.3071796 L30.5381198,5.3071796 L31,4 L31,4 Z M31,4" fill="#FFDD00" id="Shape"/><path d="M1.71930792,4 L3.75317542,34.3209123 C4.58393384,46.7058666 12.804148,57.3275549 24.5,61.1287667 C36.195852,57.3275549 44.4160662,46.7058666 45.2468246,34.3209123 L47.2806921,4 C47.8494638,4.27232221 48.4226444,4.53514289 49,4.78835469 L47.0109062,34.4417111 C46.1171785,47.7653704 37.1525688,59.1382538 24.5,63 C11.8474312,59.1382538 2.88282152,47.7653704 1.98909375,34.4417111 L0,4.78835469 C0.577355572,4.53514289 1.15053624,4.27232221 1.71930792,4" fill="#CA4638" id="Shape"/></g></g></g></svg>