<?xml version="1.0" encoding="UTF-8" standalone="no"?>
<svg width="180px" height="120px" viewBox="0 0 180 120" version="1.1" xmlns="http://www.w3.org/2000/svg" xmlns:xlink="http://www.w3.org/1999/xlink">
    <!-- Generator: Sketch 40.2 (33826) - http://www.bohemiancoding.com/sketch -->
    <title>icon-flag-mp</title>
    <desc>Created with Sketch.</desc>
    <defs></defs>
    <g id="Page-1" stroke="none" stroke-width="1" fill="none" fill-rule="evenodd">
        <rect id="Rectangle-path" fill="#0071BC" x="0" y="0" width="180" height="120"></rect>
        <path d="M100.407114,89.1978624 C100.407114,89.1978624 103.580836,85.8410154 106.632488,86.481882 C107.548009,82.9419426 110.996386,82.6672896 110.996386,82.6672896 C110.996386,82.6672896 110.660715,78.7611708 115.085594,77.9067036 C115.207666,75.2517414 117.893138,73.054557 117.893138,73.054557 C117.893138,73.054557 117.343834,68.9348394 120.151377,67.988808 C118.442443,64.7235216 120.731191,62.3431782 120.700681,62.28216 C120.670171,62.2211418 117.80161,57.1248144 120.364976,55.660059 C117.648995,53.3713086 118.534005,50.7773916 118.534005,50.7773916 C118.534005,50.7773916 115.573882,50.0144454 116.641948,46.4745276 C114.200618,46.0473102 113.712367,42.1106562 113.712367,42.1106562 C113.712367,42.1106562 109.958794,42.873552 109.501052,39.60828 C107.029213,40.0050234 106.75456,37.5636798 106.724052,37.5636798 C106.693542,37.5636798 101.810849,38.8758888 100.834313,35.1833724 C98.9423226,36.1599318 98.1183312,34.4204505 98.1183312,34.4204505 C98.1183312,34.4204505 95.402349,35.7631898 93.7849788,33.169277 C90.5502348,35.1833724 88.7497398,33.0777112 88.7497398,33.0777112 C88.7497398,33.0777112 84.5079156,35.8852338 83.1041442,33.7185644 C80.6017608,36.2514708 78.37407,35.15287 78.37407,35.15287 C78.37407,35.15287 76.4820324,38.5096806 73.4303664,37.655217 C72.7284798,40.7679156 69.2190684,40.8289518 69.2190684,40.8289518 C69.2190684,40.8289518 69.5852658,43.5754656 65.3739678,44.3078586 C64.824669,47.542599 62.6274702,48.0919122 62.6274702,48.0919122 C62.6274702,48.0919122 62.8410834,51.2351136 60.8575014,52.242174 C61.5593862,54.0121788 59.7283848,56.1788208 59.7283848,56.1788208 C59.7283848,56.1788208 61.6814514,58.6201482 59.0265018,61.3666746 C61.5899034,62.038017 59.7283848,66.4629642 59.7283848,66.4629642 C59.7283848,66.4629642 63.2683206,68.049828 61.0406046,70.9794072 C63.5734854,71.8033662 62.7800508,73.8174942 62.8105716,75.0076344 C64.4279526,75.7399932 65.8622376,75.373812 65.1603546,78.6390984 C70.1345646,79.1884044 67.7847834,81.9348966 67.7847834,81.9348966 C67.7847834,81.9348966 70.1040528,82.0264572 69.188553,83.857464 C73.43037,83.765934 74.0406996,87.0311862 74.0406996,87.0311862 C74.0406996,87.0311862 77.9773572,85.9935942 78.4961316,87.519438 C79.0149168,89.0452836 76.7872026,99.3293928 76.7872026,99.3293928 C76.7872026,99.3293928 73.4608872,99.3293928 70.9890354,96.6744648 C65.19087,96.5218842 66.4725672,92.7072576 66.3810192,92.7072576 C66.2894712,92.7072576 64.458468,93.4091442 63.5124528,90.2354202 C59.6368368,91.0288692 59.7589002,87.763617 59.7283848,87.7330728 C59.6978694,87.7025628 57.9889404,86.9396256 58.6297854,85.3222518 C54.6321042,85.6883988 54.937269,81.7823142 54.937269,81.7823142 C54.0624582,81.4262706 53.736948,80.6125158 53.8691868,79.7987286 C53.3504052,79.6156038 49.8104712,79.5545856 51.6414708,74.885562 C48.2541192,72.8409222 50.35977,70.4911572 50.35977,70.4911572 C50.35977,70.4911572 45.690723,68.080338 49.291686,65.3033034 C46.6062228,61.3361286 49.5053028,59.3525772 49.5053028,59.3525772 C49.5053028,59.3525772 45.782271,55.5684966 49.566339,52.883028 C48.9560058,47.1459114 52.3738728,45.7726698 52.3738728,45.7726698 C52.3738728,45.7726698 50.5733904,41.103594 55.456056,39.1505346 C55.7612208,34.4204505 59.1790878,34.2983822 59.1790878,34.2983822 C59.1790878,34.2983822 59.2706358,30.5448304 64.6415694,30.9110384 C65.6791326,27.5542279 69.3411336,28.2255872 69.3411336,28.2255872 C69.3411336,28.2255872 70.4702538,24.166863 75.4444692,26.1199226 C77.9773356,21.1762332 81.7309152,23.7091135 81.7309152,23.7091135 C81.7309152,23.7091135 84.1111902,22.1527377 85.3013628,22.6410161 C86.812614,20.0438867 90.0299412,22.5403355 92.11014,23.0429363 C92.8640592,22.7497486 95.5549638,20.7184583 97.6300794,23.2818694 C100.376604,21.4813809 102.726369,24.716147 102.726369,24.716147 C102.726369,24.716147 106.510417,22.7936421 108.280404,27.1880199 C116.306276,26.4556004 115.146648,31.7044658 115.146648,31.7044658 C115.146648,31.7044658 121.463586,30.2701882 120.090359,36.5566176 C125.827483,36.9533304 125.247668,40.7374128 125.247668,40.7374128 C125.247668,40.7374128 128.879134,43.4838726 127.292274,45.955746 C130.52705,46.1083464 129.336878,49.2210468 129.336878,49.2210468 C129.336878,49.2210468 131.808751,50.167071 129.76411,54.0121446 C134.494187,57.796191 130.679631,61.5497994 130.649121,61.5192534 C130.618577,61.4887452 133.182013,64.5709068 130.86272,68.1108462 C131.564608,73.7259336 128.726554,75.160179 128.726554,75.160179 C128.726554,75.160179 129.45895,78.7916808 126.285224,79.8292386 C126.224206,84.1015728 122.195981,84.620367 122.195981,84.620367 C122.195981,84.620367 123.264081,86.4761688 119.266402,88.429248 C119.108734,91.2879864 114.933015,91.517121 114.933015,91.517121 C114.933015,91.517121 114.536324,96.765957 109.226398,95.3622216 C107.937664,99.573606 101.719323,98.322345 101.597251,98.2613268 C101.47518,98.2002744 100.407114,89.2284084 100.407114,89.1978624 L100.407114,89.1978624 Z" id="Shape" fill="#FFFFFF"></path>
        <path d="M49.7538,50.4558 C49.7538,50.4558 50.93712,52.094232 51.149502,53.03484 C51.361902,53.975412 51.756336,55.82628 52.272126,56.5848 C52.787934,57.34332 55.731006,61.56072 55.882746,63.32058 C55.913085,64.473516 54.669096,66.44574 52.818246,66.47598 C51.665274,66.4456806 48.691926,65.687166 48.570426,63.13842 C48.4490592,60.5898 49.480668,60.52896 49.602024,58.98168 C49.723389,57.434274 49.7537316,50.48622 49.7537316,50.4558 L49.7538,50.4558 Z" id="Shape"></path>
        <path d="M70.083,28.14498 C70.083,28.14498 68.857902,28.2323448 67.91472,28.74366 C67.183938,29.19429 65.94606,29.842632 65.08098,31.04208 C62.88084,32.757282 59.57082,33.55758 58.52682,34.98246 C57.901932,35.95185 57.940326,38.2833 59.506056,39.2706 C60.506964,39.843702 63.441756,40.740264 64.869516,38.62557 C66.297258,36.51093 65.447316,35.92305 66.147498,34.53777 C67.302792,31.36239 70.067178,28.17081 70.083018,28.14471 L70.083,28.14498 Z" id="Shape"></path>
        <path d="M99.7992,25.04988 C99.7992,25.04988 98.884242,24.230556 97.86078,23.908662 C97.028712,23.697126 95.64282,23.7891402 94.20894,23.648418 C91.4463,23.26095 88.59816,21.262878 86.84838,21.504258 C85.717278,21.729672 84.069,23.379138 84.4488,25.190838 C84.733344,26.308548 85.98339,28.569078 88.49574,28.123758 C91.00818,27.67842 90.9864,27.130374 92.4687,26.669772 C96.084,24.642612 99.7695,25.056684 99.79902,25.049934 L99.7992,25.04988 Z" id="Shape"></path>
        <path d="M129.2724,53.694 C129.478644,53.222562 129.098783,52.336458 128.828934,51.29802 C128.566998,50.480388 128.175984,49.21146 127.219428,48.08358 C126.082818,45.53586 126.277614,42.04206 125.145108,40.68666 C124.35417,39.847266 122.081688,39.324636 120.747168,40.6073988 C119.950452,41.4413928 118.375308,44.0749188 120.085236,45.9686988 C121.795146,47.8624788 122.540436,47.1491388 123.716916,48.1614588 C126.521856,50.0455188 127.895616,53.3483388 129.272256,53.6939388 L129.2724,53.694 Z" id="Shape"></path>
        <path d="M128.2662,75.9492 C128.64924,75.418848 129.335094,74.396718 129.253536,73.54548 C129.188965,72.871254 129.562524,70.8273 129.603348,69.93558 C129.85686,67.15746 131.595768,64.90242 131.122962,62.48862 C130.843188,61.36974 129.204522,59.77368 127.413162,60.2406 C126.310482,60.57882 123.855462,61.929756 124.421562,64.41768 C124.987824,66.90564 125.791686,66.86442 126.323442,68.3226 C127.849806,71.33724 126.873162,74.91816 128.266182,75.9492 L128.2662,75.9492 Z" id="Shape"></path>
        <path d="M88.524,22.8528 C88.5241476,22.460796 88.08318,22.14297 87.539184,22.14297 C86.995188,22.14297 86.554224,22.460796 86.554368,22.8528 C86.5542204,23.244804 86.995188,23.56263 87.539184,23.56263 C88.08318,23.56263 88.524144,23.244804 88.524,22.8528 L88.524,22.8528 Z" id="Shape" fill="#6B18B5"></path>
        <path d="M88.9452,24.50394 C88.9452,24.12801 88.491312,23.823252 87.931422,23.823252 C87.371532,23.823252 86.917644,24.12801 86.917644,24.50394 C86.917644,24.87987 87.371532,25.184628 87.931422,25.184628 C88.491312,25.184628 88.9452,24.87987 88.9452,24.50394 L88.9452,24.50394 Z" id="Shape" fill="#6B18B5"></path>
        <path d="M90.2052,22.54878 C90.2052,22.54878 89.046576,23.417748 89.52453,23.765328 C90.00243,24.112908 91.320354,23.012244 91.320354,23.012244 L90.2052,22.54878 L90.2052,22.54878 Z" id="Shape" fill="#6B18B5"></path>
        <path d="M124.2558,42.444 C124.25616,42.196968 124.140348,41.968566 123.95214,41.844942 C123.76395,41.7213234 123.531984,41.7213234 123.343776,41.844942 C123.155568,41.9685624 123.039792,42.196986 123.040116,42.444 C123.039756,42.691014 123.155568,42.919434 123.343776,43.043058 C123.531984,43.1666766 123.763932,43.1666766 123.95214,43.043058 C124.140348,42.9194394 124.256124,42.691014 124.2558,42.444 L124.2558,42.444 Z" id="Shape" fill="#6B18B5"></path>
        <path d="M123.8148,40.7862 C123.8148,40.374216 123.530292,40.040226 123.179346,40.040226 C122.828382,40.040226 122.543892,40.374198 122.543892,40.7862 C122.543892,41.198184 122.8284,41.532174 123.179346,41.532174 C123.530292,41.532174 123.8148,41.198184 123.8148,40.7862 L123.8148,40.7862 Z" id="Shape" fill="#6B18B5"></path>
        <path id="Shape" fill="#6B18B5"></path>
        <path id="Shape" fill="#6B18B5"></path>
        <path id="Shape" fill="#6B18B5"></path>
        <path d="M122.7924,43.8264 C122.792503,43.505874 122.557446,43.245972 122.267466,43.245972 C121.977468,43.245972 121.742424,43.505874 121.742532,43.8264 C121.742428,44.146926 121.977486,44.406828 122.267466,44.406828 C122.557464,44.406828 122.792508,44.146926 122.7924,43.8264 L122.7924,43.8264 Z" id="Shape" fill="#6B18B5"></path>
        <path d="M121.41,42.7752 C121.41,42.500538 121.21209,42.277896 120.967938,42.277896 C120.723804,42.277896 120.525876,42.500556 120.525876,42.7752 C120.525876,43.049862 120.723786,43.272504 120.967938,43.272504 C121.21209,43.272504 121.41,43.049844 121.41,42.7752 L121.41,42.7752 Z" id="Shape" fill="#6B18B5"></path>
        <path d="M121.1904,41.3676 C121.19058,41.2194042 121.116901,41.082372 120.997152,41.00823 C120.877398,40.9340754 120.729798,40.9340754 120.610044,41.00823 C120.490292,41.0823864 120.416616,41.219406 120.416796,41.3676 C120.416616,41.5157958 120.490292,41.652828 120.610044,41.72697 C120.7298,41.8011264 120.877398,41.8011264 120.997152,41.72697 C121.116904,41.6528154 121.19058,41.515794 121.1904,41.3676 L121.1904,41.3676 Z" id="Shape" fill="#6B18B5"></path>
        <path d="M127.4886,48.5316 C126.91791,47.778426 126.004284,47.461068 125.44794,47.822742 C124.891614,48.184434 124.903242,49.088196 125.473928,49.841442 C126.044618,50.594616 126.958244,50.911974 127.514588,50.5503 C128.070914,50.188608 128.059286,49.284846 127.488596,48.5316 L127.4886,48.5316 Z" id="Shape" fill="#6B18B5"></path>
        <path d="M129.1104,62.4258 C129.220988,61.50159 128.770218,60.68772 128.103588,60.60798 C127.436958,60.528213 126.806886,61.212762 126.696294,62.136972 C126.585707,63.061182 127.036476,63.875052 127.703106,63.954792 C128.369754,64.0345608 128.999808,63.35001 129.1104,62.4258 L129.1104,62.4258 Z" id="Shape" fill="#6B18B5"></path>
        <path d="M129.4524,70.515 C129.642372,69.603804 129.26358,68.754042 128.60631,68.61708 C127.949058,68.4800442 127.262232,69.107634 127.072242,70.01883 C126.88227,70.930026 127.261062,71.779806 127.918314,71.91675 C128.575566,72.0537876 129.26241,71.426196 129.452382,70.515 L129.4524,70.515 Z" id="Shape" fill="#6B18B5"></path>
        <path d="M131.0112,62.9442 C131.0112,62.57799 130.763808,62.281116 130.458618,62.281116 C130.153446,62.281116 129.906036,62.57799 129.906036,62.9442 C129.906036,63.31041 130.153428,63.607302 130.458618,63.607302 C130.76379,63.607302 131.0112,63.310428 131.0112,62.9442 L131.0112,62.9442 Z" id="Shape" fill="#6B18B5"></path>
        <path d="M129.6576,64.4634 L128.524824,65.748132 C128.524824,65.748132 127.46115,65.7757494 127.516392,66.12111 C127.571661,66.466458 128.980728,67.502556 128.966904,67.91697 C128.95308,68.33142 129.906288,67.8202884 129.906288,67.8202884 C129.906288,67.8202884 130.66605,65.5132284 130.66605,65.4995484 C130.66605,65.4857244 130.624605,63.8970444 130.210182,63.9247104 C129.795732,63.9523278 129.683448,64.4341644 129.6576,64.4635044 L129.6576,64.4634 Z" id="Shape" fill="#6B18B5"></path>
        <path d="M55.1484,63.9558 C55.1484,63.658062 54.90702,63.416682 54.609282,63.416682 C54.311526,63.416682 54.070146,63.658044 54.070146,63.9558 C54.070146,64.253538 54.311526,64.494918 54.609282,64.494918 C54.907038,64.494918 55.1484,64.253556 55.1484,63.9558 L55.1484,63.9558 Z" id="Shape" fill="#6B18B5"></path>
        <path d="M55.6578,62.3088 C55.6578,61.994502 55.41642,61.739712 55.118682,61.739712 C54.820926,61.739712 54.579564,61.994502 54.579564,62.3088 C54.579564,62.623098 54.820944,62.877888 55.118682,62.877888 C55.416438,62.877888 55.6578,62.623098 55.6578,62.3088 L55.6578,62.3088 Z" id="Shape" fill="#6B18B5"></path>
        <path d="M51.2298,54.4734 C51.027606,54.020214 50.606514,53.767566 50.289282,53.9091 C49.97205,54.0506376 49.878792,54.532764 50.080986,54.98595 C50.28318,55.439136 50.704272,55.691784 51.021504,55.55025 C51.338736,55.4087124 51.431994,54.926586 51.2298,54.4734 L51.2298,54.4734 Z" id="Shape" fill="#6B18B5"></path>
        <path d="M52.5672,59.355 C52.289442,58.767624 51.710994,58.440186 51.275214,58.623624 C50.839434,58.807062 50.711328,59.431932 50.989086,60.019308 C51.266844,60.606684 51.845292,60.934122 52.281072,60.750684 C52.716852,60.567246 52.844958,59.942376 52.5672,59.355 L52.5672,59.355 Z" id="Shape" fill="#6B18B5"></path>
        <path d="M53.9982,62.9334 C54.088191,62.199756 53.784198,61.525818 53.319204,61.428114 C52.85421,61.3304136 52.4043,61.845948 52.314318,62.579592 C52.224327,63.313236 52.52832,63.987174 52.993314,64.084878 C53.458308,64.1825784 53.908218,63.667044 53.9982,62.9334 L53.9982,62.9334 Z" id="Shape" fill="#6B18B5"></path>
        <path d="M51.7014,63.4572 C51.989004,62.776296 51.8813226,62.044848 51.460902,61.823466 C51.0404814,61.602084 50.466528,61.9745868 50.178924,62.65548 C49.89132,63.336384 49.9990014,64.067832 50.419422,64.289214 C50.8398426,64.510596 51.413796,64.1380914 51.7014,63.4572 L51.7014,63.4572 Z" id="Shape" fill="#6B18B5"></path>
        <path d="M50.6556,61.9182 C50.6556,61.570818 50.3874,61.289208 50.056578,61.289208 C49.725738,61.289208 49.457556,61.570818 49.457556,61.9182 C49.457556,62.265582 49.725756,62.54721 50.056578,62.54721 C50.387418,62.54721 50.6556,62.2656 50.6556,61.9182 L50.6556,61.9182 Z" id="Shape" fill="#6B18B5"></path>
        <path d="M50.1768,60.3612 C50.1768,60.046902 49.93542,59.792112 49.637664,59.792112 C49.339908,59.792112 49.098546,60.046902 49.098546,60.3612 C49.098546,60.675498 49.339926,60.930288 49.637664,60.930288 C49.93542,60.930288 50.1768,60.675498 50.1768,60.3612 L50.1768,60.3612 Z" id="Shape" fill="#6B18B5"></path>
        <path d="M50.6844,57.366 C50.6844,56.836656 50.449734,56.407536 50.16024,56.407536 C49.870764,56.407536 49.636098,56.836656 49.636098,57.366 C49.636098,57.895344 49.870764,58.324464 50.16024,58.324464 C50.449716,58.324464 50.6844,57.895344 50.6844,57.366 L50.6844,57.366 Z" id="Shape" fill="#6B18B5"></path>
        <path d="M52.2972,57.1356 C52.3670418,56.610882 52.1910378,56.154564 51.90408,56.116368 C51.617124,56.0781756 51.3279,56.472588 51.25806,56.997306 C51.1882218,57.522024 51.364224,57.978342 51.65118,58.016538 C51.938136,58.0547304 52.22736,57.660318 52.2972,57.1356 L52.2972,57.1356 Z" id="Shape" fill="#6B18B5"></path>
        <path d="M63.7902,34.20756 C64.003824,33.464466 63.783504,32.71761 63.298098,32.539446 C62.812692,32.3612748 62.245998,32.819238 62.032374,33.56235 C61.81875,34.305444 62.03907,35.0523 62.524476,35.230464 C63.009882,35.4086352 63.576576,34.950672 63.7902,34.20756 L63.7902,34.20756 Z" id="Shape" fill="#6B18B5"></path>
        <path d="M61.6086,37.5156 C62.24877,36.970758 62.522262,36.217368 62.219448,35.832852 C61.916634,35.448354 61.152174,35.578332 60.512004,36.123174 C59.871834,36.668016 59.598342,37.421406 59.901156,37.805922 C60.20397,38.190438 60.96843,38.060442 61.6086,37.5156 L61.6086,37.5156 Z" id="Shape" fill="#6B18B5"></path>
        <path d="M60.3342,35.67906 C60.96726,35.21133 61.23771,34.564572 60.938262,34.23447 C60.638814,33.904386 59.88285,34.015968 59.249772,34.483698 C58.616712,34.951428 58.346262,35.598186 58.64571,35.928288 C58.945158,36.258372 59.701122,36.14679 60.3342,35.67906 L60.3342,35.67906 Z" id="Shape" fill="#6B18B5"></path>
        <path d="M65.2428,32.45058 C65.669724,32.124222 65.8521,31.672944 65.650158,31.442634 C65.448216,31.212324 64.93842,31.2901758 64.511514,31.6165356 C64.08459,31.9428936 63.902214,32.3941716 64.104156,32.6244816 C64.306098,32.8547916 64.815876,32.7769398 65.2428,32.45058 L65.2428,32.45058 Z" id="Shape" fill="#6B18B5"></path>
        <path d="M62.685,35.57862 C62.976942,35.127468 62.996544,34.641126 62.7288012,34.492356 C62.4610512,34.343577 62.0073252,34.5886974 61.7153832,35.039844 C61.4234412,35.4909906 61.4038392,35.977338 61.671582,36.126108 C61.939332,36.274887 62.393058,36.0297666 62.685,35.57862 L62.685,35.57862 Z" id="Shape" fill="#6B18B5"></path>
        <path d="M66.3768,33.6456 C66.835908,33.25869 67.014792,32.746158 66.776346,32.500836 C66.5379,32.255514 65.972412,32.3703036 65.513286,32.757228 C65.054178,33.144138 64.875294,33.65667 65.11374,33.901992 C65.352186,34.147314 65.917674,34.0325244 66.3768,33.6456 L66.3768,33.6456 Z" id="Shape" fill="#6B18B5"></path>
        <path d="M59.7042,38.1546 C60.133374,38.1331818 60.457356,37.919394 60.4278,37.677096 C60.3982584,37.434798 60.0264,37.255734 59.597208,37.277154 C59.168034,37.2985704 58.84407,37.51236 58.873608,37.754658 C58.9031478,37.996956 59.275008,38.17602 59.704182,38.154618 L59.7042,38.1546 Z" id="Shape" fill="#6B18B5"></path>
        <path d="M67.7826,31.24908 C68.074542,30.797928 68.094144,30.311586 67.8264012,30.162816 C67.5586512,30.014037 67.1049252,30.2591574 66.8129832,30.710304 C66.5210412,31.1614506 66.5014392,31.647798 66.769182,31.796568 C67.036932,31.945347 67.490658,31.7002266 67.7826,31.24908 L67.7826,31.24908 Z" id="Shape" fill="#6B18B5"></path>
        <path d="M99.5832,33.9075 C99.5832,33.9075 101.84652,32.863428 102.49362,30.91896 C103.140576,28.9746 100.53486,28.95588 100.19052,29.573874 C99.846288,30.19194 100.484154,31.730814 100.319872,32.137614 C100.155553,32.544414 99.2347776,33.52653 99.5832216,33.907482 L99.5832,33.9075 Z" id="Shape" fill="#FFD200"></path>
        <path d="M79.524,34.61688 C79.524,34.61688 80.993322,32.6034 80.612388,30.58992 C80.231436,28.57644 77.945868,29.828034 77.945868,30.5355024 C77.945868,31.2429708 79.251912,32.2769304 79.306344,32.7122424 C79.3607454,33.1475904 79.034238,34.4536344 79.524018,34.6168224 L79.524,34.61688 Z" id="Shape" fill="#FFD200"></path>
        <path d="M75.5514,35.81406 C75.5514,35.81406 77.020722,33.80058 76.63977,31.7871 C76.258818,29.77362 73.97325,31.025214 73.97325,31.7326824 C73.97325,32.4401508 75.279294,33.4741104 75.333726,33.9094224 C75.3881274,34.3447704 75.06162,35.6508144 75.5514,35.8140024 L75.5514,35.81406 Z" id="Shape" fill="#FFD200"></path>
        <path d="M71.1432,37.1754 C71.1432,37.1754 72.612522,35.16192 72.231588,33.14844 C71.850636,31.13496 69.565068,32.386554 69.565068,33.0940224 C69.565068,33.8014908 70.871112,34.8354504 70.925544,35.2707624 C70.9799454,35.7061104 70.653438,37.0121544 71.143218,37.1753424 L71.1432,37.1754 Z" id="Shape" fill="#FFD200"></path>
        <path d="M68.0418,40.2768 C68.0418,40.2768 69.511122,38.26332 69.13017,36.24984 C68.749218,34.23636 66.46365,35.487954 66.46365,36.1954224 C66.46365,36.9028908 67.769694,37.9368504 67.824126,38.3721624 C67.8785274,38.8075104 67.55202,40.1135544 68.0418,40.2767424 L68.0418,40.2768 Z" id="Shape" fill="#FFD200"></path>
        <path d="M64.7766,43.2702 C64.7766,43.2702 66.245922,41.25672 65.86497,39.24324 C65.484018,37.22976 63.19845,38.481354 63.19845,39.1888224 C63.19845,39.8962908 64.504494,40.9302504 64.558926,41.3655624 C64.6133274,41.8009104 64.28682,43.1069544 64.7766,43.2701424 L64.7766,43.2702 Z" id="Shape" fill="#FFD200"></path>
        <path d="M72.2826,25.83342 C72.2826,25.83342 70.326,27.377622 70.1514,29.41938 C69.976836,31.46112 72.5148,30.870288 72.70506,30.188898 C72.89532,29.50749 71.915436,28.160478 71.980092,27.726498 C72.0447696,27.292554 72.710478,26.122428 72.282654,25.833438 L72.2826,25.83342 Z" id="Shape" fill="#FFD200"></path>
        <path d="M78.813,23.81994 C78.813,23.81994 76.8564,25.364142 76.6818,27.4059 C76.5072342,29.44764 79.0452,28.856808 79.23546,28.175418 C79.42572,27.49401 78.445836,26.146998 78.510492,25.713018 C78.5751714,25.279074 79.240878,24.108948 78.813054,23.819958 L78.813,23.81994 Z" id="Shape" fill="#FFD200"></path>
        <path d="M54.4788,41.4486 C54.4788,41.4486 54.892134,43.90668 56.59848,45.0414 C58.30488,46.176066 59.00688,43.666596 58.5009,43.1721 C57.994884,42.677676 56.34252,42.889248 55.99314,42.623946 C55.643724,42.358608 54.937764,41.212332 54.478692,41.448546 L54.4788,41.4486 Z" id="Shape" fill="#FFD200"></path>
        <path d="M51.2172,49.7952 C51.2172,49.7952 51.2374284,52.28766 52.743384,53.67744 C54.249336,55.067166 55.338624,52.699932 54.917064,52.13187 C54.495414,51.56379 52.830504,51.51195 52.527204,51.194826 C52.224048,50.877666 51.707826,49.634334 51.217236,49.795164 L51.2172,49.7952 Z" id="Shape" fill="#FFD200"></path>
        <path d="M58.7412,59.1192 C58.7412,59.1192 57.851568,56.79072 55.95498,56.01456 C54.0585,55.238418 53.86464,57.83706 54.45819,58.22208 C55.051722,58.607064 56.62989,58.0740264 57.02481,58.2652998 C57.419658,58.4565678 58.337658,59.4412218 58.741182,59.1192198 L58.7412,59.1192 Z" id="Shape" fill="#FFD200"></path>
        <path d="M57.1788,55.089 C57.1788,55.089 58.687074,53.1045 58.34538,51.084 C58.003686,49.0635 55.69416,50.270346 55.68048,50.9776866 C55.666728,51.6850146 56.952396,52.7441886 56.998332,53.1805266 C57.0442482,53.6168466 56.692404,54.9162666 57.178872,55.0890666 L57.1788,55.089 Z" id="Shape" fill="#FFD200"></path>
        <path d="M104.2092,35.92098 C104.2092,35.92098 106.47252,34.876908 107.11962,32.93244 C107.766576,30.98808 105.16086,30.96936 104.81652,31.587354 C104.472288,32.20542 105.110154,33.744294 104.945872,34.151094 C104.781553,34.557894 103.860778,35.54001 104.209222,35.920962 L104.2092,35.92098 Z" id="Shape" fill="#FFD200"></path>
        <path d="M111.0546,39.3354 C111.0546,39.3354 112.38597,37.22814 111.871206,35.24472 C111.356442,33.2613 109.159686,34.662852 109.207026,35.368749 C109.254357,36.074619 110.626614,37.018917 110.710062,37.449729 C110.79344,37.880469 110.555008,39.205431 111.054618,39.335589 L111.0546,39.3354 Z" id="Shape" fill="#FFD200"></path>
        <path d="M129.7332,58.7286 C129.7332,58.7286 128.840382,56.40138 126.94284,55.62792 C125.04528,54.854352 124.85502,57.4533 125.449038,57.83742 C126.043128,58.221576 127.620558,57.6864072 128.015658,57.8770884 C128.410776,58.0678344 129.33009,59.0512824 129.7332,58.7286324 L129.7332,58.7286 Z" id="Shape" fill="#FFD200"></path>
        <path d="M120.6,60.174 C120.6,60.174 120.65179,57.6819 122.175198,56.31138 C123.698646,54.94077 124.757838,57.321558 124.329078,57.88431 C123.900246,58.44699 122.234778,58.477734 121.927518,58.791024 C121.620366,59.104332 121.08852,60.34104 120.599946,60.174 L120.6,60.174 Z" id="Shape" fill="#FFD200"></path>
        <path d="M119.1294,33.74712 C119.1294,33.74712 116.7993,32.862024 114.9579,33.7614066 C113.1165,34.6608306 114.92753,36.5344866 115.609914,36.3474666 C116.292222,36.1605186 116.944344,34.6278186 117.349884,34.4601666 C117.755424,34.292673 119.101302,34.2625806 119.129346,33.7470066 L119.1294,33.74712 Z" id="Shape" fill="#FFD200"></path>
        <path d="M113.7978,29.28474 C113.7978,29.28474 111.4677,28.399644 109.6263,29.2990266 C107.7849,30.1984506 109.59593,32.0721066 110.278314,31.8850866 C110.960622,31.6981566 111.612744,30.1654206 112.018284,29.9977866 C112.423824,29.830293 113.769702,29.8002006 113.797746,29.2846266 L113.7978,29.28474 Z" id="Shape" fill="#FFD200"></path>
        <path d="M105.8436,25.02954 C105.8436,25.02954 103.8681,26.549604 103.66848,28.58904 C103.468914,30.62862 106.01388,30.068856 106.21242,29.389806 C106.411014,28.710792 105.44778,27.351846 105.51771,26.918586 C105.587714,26.485434 106.26777,25.323606 105.843456,25.029486 L105.8436,25.02954 Z" id="Shape" fill="#FFD200"></path>
        <path d="M100.6686,23.78358 C100.6686,23.78358 99.767736,26.10774 100.654704,27.95508 C101.541672,29.80242 103.427424,28.0042074 103.245084,27.32058 C103.062798,26.637012 101.534472,25.974558 101.369664,25.567884 C101.204892,25.161228 101.183886,23.815188 100.66851,23.78367 L100.6686,23.78358 Z" id="Shape" fill="#FFD200"></path>
        <path d="M85.9788,32.73966 C85.9788,32.73966 87.590106,30.83796 87.355962,28.80216 C87.121854,26.76636 84.751722,27.84906 84.700422,28.554714 C84.6491562,29.260314 85.87683,30.386034 85.899618,30.824334 C85.922361,31.262508 85.502052,32.541426 85.978782,32.739714 L85.9788,32.73966 Z" id="Shape" fill="#FFD200"></path>
        <path d="M126.2916,59.9598 C126.201175,59.230944 125.849934,58.59054 125.37054,58.28013 C124.891164,57.96972 124.35651,58.036554 123.968286,58.4554068 C123.580062,58.8742596 123.397326,59.5814148 123.489018,60.3101268 C123.579441,61.0389828 123.930684,61.6793868 124.410078,61.9897968 C124.889454,62.3002068 125.424108,62.2333728 125.812314,61.8145182 C126.200538,61.3956582 126.383274,60.6885102 126.291582,59.9597982 L126.2916,59.9598 Z" id="Shape" fill="#DE2010"></path>
        <path d="M125.991,56.2788 C125.900575,55.549944 125.549334,54.90954 125.06994,54.59913 C124.590564,54.28872 124.05591,54.355554 123.667686,54.7744086 C123.279462,55.1932632 123.096726,55.9004166 123.188418,56.6291286 C123.278841,57.3579846 123.630084,57.9983886 124.109478,58.3087986 C124.588854,58.6192086 125.123508,58.5523746 125.511714,58.13352 C125.899938,57.71466 126.082674,57.007512 125.990982,56.2788 L125.991,56.2788 Z" id="Shape" fill="#DE2010"></path>
        <path d="M125.244,52.3476 C125.089877,51.629508 124.683714,51.02244 124.178904,50.755356 C123.674094,50.488272 123.147396,50.6018268 122.797494,51.053184 C122.447574,51.504552 122.327694,52.22502 122.48307,52.942824 C122.637193,53.660916 123.043356,54.267984 123.548166,54.535068 C124.052976,54.802152 124.579674,54.6885972 124.929594,54.23724 C125.279514,53.785872 125.399394,53.065404 125.244018,52.3476 L125.244,52.3476 Z" id="Shape" fill="#DE2010"></path>
        <path d="M123.8814,48.24 C123.549318,47.584926 123.001812,47.101464 122.445594,46.971882 C121.889376,46.842309 121.409028,47.0863782 121.185738,47.612016 C120.962448,48.13767 121.030191,48.864888 121.36342,49.519476 C121.695502,50.17455 122.243008,50.658012 122.799226,50.787594 C123.355426,50.917167 123.835792,50.673096 124.059082,50.14746 C124.282372,49.621806 124.214629,48.894588 123.8814,48.24 L123.8814,48.24 Z" id="Shape" fill="#DE2010"></path>
        <path d="M122.4252,44.9442 C122.093118,44.289126 121.545612,43.805664 120.989394,43.676082 C120.433176,43.546509 119.952828,43.7905782 119.729538,44.316216 C119.506248,44.84187 119.573991,45.569088 119.90722,46.223676 C120.239302,46.87875 120.786808,47.362212 121.343026,47.491794 C121.899226,47.621367 122.379592,47.377296 122.602882,46.85166 C122.826172,46.326006 122.758429,45.598788 122.4252,44.9442 L122.4252,44.9442 Z" id="Shape" fill="#DE2010"></path>
        <path d="M120.3552,41.6304 C119.96883,41.0058 119.382354,40.570434 118.817172,40.488426 C118.25199,40.406418 117.794034,40.690296 117.61605,41.23296 C117.438073,41.775624 117.567158,42.494508 117.954612,43.11846 C118.340982,43.74306 118.927458,44.178426 119.49264,44.260434 C120.057822,44.3424402 120.515778,44.058564 120.693762,43.5159 C120.871741,42.973236 120.742654,42.254352 120.3552,41.6304 L120.3552,41.6304 Z" id="Shape" fill="#DE2010"></path>
        <path d="M118.053,38.4372 C117.608058,37.852884 116.982252,37.476252 116.411778,37.44927 C115.841322,37.4222862 115.41294,37.749096 115.288254,38.30643 C115.163572,38.863764 115.361552,39.56679 115.807518,40.15035 C116.25246,40.734666 116.878266,41.111298 117.44874,41.13828 C118.019214,41.1652638 118.447578,40.838454 118.572264,40.28112 C118.696946,39.723786 118.498966,39.02076 118.053,38.4372 L118.053,38.4372 Z" id="Shape" fill="#DE2010"></path>
        <path d="M115.3062,35.45928 C114.781248,34.945632 114.107454,34.663698 113.539104,34.719696 C112.970754,34.7756922 112.594284,35.161146 112.551696,35.730666 C112.509122,36.300186 112.806918,36.967104 113.33277,37.479834 C113.857722,37.993482 114.531516,38.275416 115.099866,38.219418 C115.668216,38.1634218 116.044686,37.777968 116.087256,37.208448 C116.12983,36.638928 115.832034,35.97201 115.306182,35.45928 L115.3062,35.45928 Z" id="Shape" fill="#DE2010"></path>
        <path d="M112.2138,32.71968 C111.64383,32.256486 110.94696,32.037732 110.38608,32.145768 C109.82529,32.2538058 109.485864,32.672268 109.495854,33.243282 C109.505844,33.814296 109.863738,34.450992 110.4345,34.913178 C111.00447,35.376372 111.70134,35.595126 112.26222,35.48709 C112.82301,35.3790522 113.162436,34.96059 113.152446,34.389576 C113.142456,33.818562 112.784562,33.181866 112.2138,32.71968 L112.2138,32.71968 Z" id="Shape" fill="#DE2010"></path>
        <path d="M108.9378,30.53304 C108.298854,30.170898 107.575326,30.070872 107.04024,30.27051 C106.505172,30.470148 106.239924,30.939138 106.344576,31.500576 C106.449228,32.062014 106.90785,32.630454 107.547426,32.99148 C108.186372,33.353622 108.9099,33.453648 109.444986,33.25401 C109.980054,33.054372 110.245302,32.585382 110.14065,32.023944 C110.035998,31.462506 109.577376,30.894066 108.9378,30.53304 L108.9378,30.53304 Z" id="Shape" fill="#DE2010"></path>
        <path d="M105.2712,28.59192 C104.601942,28.28943 103.872312,28.255662 103.35762,28.5031764 C102.842928,28.7506764 102.621474,29.2418784 102.776796,29.7914544 C102.932111,30.3410304 103.440564,30.8653884 104.110344,31.1666904 C104.779602,31.4691804 105.509232,31.5029484 106.023924,31.255434 C106.538616,31.007934 106.76007,30.516732 106.604748,29.967156 C106.449435,29.41758 105.94098,28.893222 105.2712,28.59192 L105.2712,28.59192 Z" id="Shape" fill="#DE2010"></path>
        <path d="M101.6748,27.14382 C100.986768,26.886888 100.256508,26.902116 99.7596,27.1835658 C99.262674,27.4650138 99.074646,27.9699498 99.266454,28.5078798 C99.458262,29.0458098 100.000728,29.5348878 100.68921,29.7906138 C101.377242,30.0475458 102.107502,30.0323178 102.60441,29.750868 C103.101336,29.46942 103.289364,28.964484 103.097556,28.426554 C102.905748,27.888624 102.363282,27.399546 101.6748,27.14382 L101.6748,27.14382 Z" id="Shape" fill="#DE2010"></path>
        <path d="M98.0208,25.9974 C97.315164,25.79373 96.588216,25.8646338 96.11424,26.183196 C95.640228,26.50176 95.491296,27.019566 95.723604,27.541278 C95.955912,28.063008 96.534108,28.509264 97.240104,28.711692 C97.94574,28.915362 98.672688,28.8444582 99.146664,28.525896 C99.620676,28.207332 99.769608,27.689526 99.5373,27.167814 C99.304992,26.646084 98.726796,26.199828 98.0208,25.9974 L98.0208,25.9974 Z" id="Shape" fill="#DE2010"></path>
        <path d="M93.9978,25.3116 C93.269214,25.2190314 92.56185,25.4010528 92.14254,25.788816 C91.723248,26.176572 91.655838,26.711154 91.9657152,27.190872 C92.2756032,27.67059 92.9156292,28.022472 93.6443772,28.113768 C94.3729632,28.2063366 95.0803272,28.0243152 95.4996372,27.636552 C95.9189292,27.248796 95.9863392,26.714214 95.676462,26.234496 C95.366574,25.754778 94.726548,25.402896 93.9978,25.3116 L93.9978,25.3116 Z" id="Shape" fill="#DE2010"></path>
        <path d="M90.027,25.0875 C89.293176,25.0573554 88.603902,25.299 88.21926,25.721082 C87.834546,26.143164 87.812928,26.681526 88.1625564,27.13311 C88.5121884,27.584676 89.1798804,27.88074 89.9137584,27.909612 C90.6475824,27.9397566 91.3368564,27.698112 91.7214984,27.27603 C92.1062124,26.853948 92.1278304,26.315586 91.7782002,25.864002 C91.4285682,25.412436 90.7608762,25.116372 90.0269982,25.0875 L90.027,25.0875 Z" id="Shape" fill="#DE2010"></path>
        <path d="M86.3892,25.21602 C85.655376,25.1858754 84.966102,25.42752 84.58146,25.849602 C84.196746,26.271684 84.175128,26.810046 84.5247564,27.26163 C84.8743884,27.713196 85.5420804,28.00926 86.2759584,28.038132 C87.0097824,28.0682766 87.6990564,27.826632 88.0836984,27.40455 C88.4684124,26.982468 88.4900304,26.444106 88.1404002,25.992522 C87.7907682,25.540956 87.1230762,25.244892 86.3891982,25.21602 L86.3892,25.21602 Z" id="Shape" fill="#DE2010"></path>
        <path d="M82.125,25.7211 C81.40887,25.8841044 80.806878,26.297748 80.546076,26.805834 C80.285256,27.313902 80.4053322,27.83916 80.860986,28.183464 C81.3166398,28.527768 82.038546,28.638702 82.754406,28.474452 C83.470536,28.3114476 84.07251,27.897804 84.33333,27.389718 C84.59415,26.88165 84.4740756,26.356392 84.01842,26.012088 C83.5627644,25.667784 82.84086,25.55685 82.125,25.7211 L82.125,25.7211 Z" id="Shape" fill="#DE2010"></path>
        <path d="M78.246,26.69328 C77.545764,26.914788 76.979934,27.376686 76.761918,27.904536 C76.543902,28.432386 76.7068812,28.945944 77.189382,29.251494 C77.6718828,29.557044 78.400476,29.608056 79.100262,29.3853276 C79.800498,29.1638196 80.366328,28.7019216 80.584344,28.1740716 C80.80236,27.6462216 80.6393808,27.1326636 80.15688,26.8271136 C79.6743792,26.5215636 78.945786,26.4705516 78.246,26.69328 L78.246,26.69328 Z" id="Shape" fill="#DE2010"></path>
        <path d="M74.7072,28.2087 C74.038338,28.512036 73.531548,29.03805 73.377954,29.588112 C73.2243618,30.138174 73.447353,30.628674 73.96281,30.874572 C74.478276,31.12047 75.207762,31.084344 75.87603,30.779838 C76.544892,30.476502 77.051682,29.950488 77.205276,29.400426 C77.35887,28.850364 77.135877,28.359864 76.62042,28.113966 C76.104954,27.868068 75.375468,27.904194 74.7072,28.2087 L74.7072,28.2087 Z" id="Shape" fill="#DE2010"></path>
        <path d="M71.1774,30.01788 C70.536852,30.377178 70.07679,30.944502 69.97068,31.505652 C69.8645736,32.06682 70.1285958,32.536494 70.663158,32.737518 C71.1977202,32.938542 71.921466,32.8403214 72.561438,32.479902 C73.201986,32.120604 73.662048,31.55328 73.768158,30.99213 C73.8742644,30.430962 73.6102422,29.961288 73.07568,29.760264 C72.5411178,29.55924 71.817372,29.6574606 71.1774,30.01788 L71.1774,30.01788 Z" id="Shape" fill="#DE2010"></path>
        <path d="M67.8384,32.28282 C67.240692,32.7096 66.844998,33.323544 66.800502,33.89292 C66.7560042,34.462296 67.069494,34.900506 67.622742,35.042238 C68.17599,35.1839826 68.884776,35.0076942 69.481782,34.579872 C70.07949,34.153092 70.475184,33.539148 70.51968,32.969772 C70.5641778,32.400396 70.250688,31.962186 69.69744,31.820454 C69.144192,31.6787094 68.435424,31.8549978 67.8384,32.28282 L67.8384,32.28282 Z" id="Shape" fill="#DE2010"></path>
        <path d="M64.7478,34.62444 C64.188342,35.10027 63.846018,35.745498 63.849852,36.316584 C63.853686,36.88767 64.203138,37.297782 64.766394,37.39221 C65.32965,37.4866362 66.020976,37.251009 66.579534,36.774216 C67.138992,36.298386 67.481316,35.653158 67.477464,35.082072 C67.47363,34.510986 67.124178,34.100874 66.56094,34.006446 C65.997684,33.9120198 65.306358,34.1476488 64.7478,34.62444 L64.7478,34.62444 Z" id="Shape" fill="#DE2010"></path>
        <path d="M62.0208,37.4742 C61.496892,37.98891 61.201728,38.657034 61.246512,39.226374 C61.2912906,39.795714 61.66926,40.179726 62.237808,40.23351 C62.806374,40.2873048 63.479034,40.002714 64.002024,39.487086 C64.525932,38.972376 64.821096,38.304252 64.776312,37.734912 C64.7315352,37.165572 64.353582,36.78156 63.785016,36.727776 C63.21645,36.673983 62.54379,36.958572 62.0208,37.4742 L62.0208,37.4742 Z" id="Shape" fill="#DE2010"></path>
        <path d="M59.6718,40.6422 C59.19282,41.198958 58.954608,41.889438 59.046876,42.453 C59.1391512,43.016598 59.547924,43.367616 60.118992,43.373628 C60.69006,43.37964 61.336548,43.039746 61.814556,42.48216 C62.293536,41.925402 62.531748,41.234922 62.43948,40.67136 C62.3472048,40.107762 61.938432,39.756744 61.367364,39.750732 C60.796296,39.74472 60.149808,40.084614 59.6718,40.6422 L59.6718,40.6422 Z" id="Shape" fill="#DE2010"></path>
        <path d="M57.5244,43.8858 C57.10752,44.490474 56.944314,45.20241 57.096162,45.75294 C57.2480154,46.303488 57.69189,46.608912 58.260348,46.553994 C58.828806,46.4990742 59.435352,46.092168 59.85117,45.486774 C60.26805,44.8821 60.431256,44.170164 60.279408,43.619634 C60.1275546,43.069086 59.68368,42.763662 59.115222,42.81858 C58.546764,42.8734998 57.940218,43.280406 57.5244,43.8858 L57.5244,43.8858 Z" id="Shape" fill="#DE2010"></path>
        <path d="M55.7352,47.5632 C55.42839,48.230496 55.389906,48.959892 55.6340688,49.47624 C55.8782388,49.992516 56.3679828,50.217156 56.9185488,50.065398 C57.4691328,49.9136436 57.9967488,49.408596 58.3023888,48.740778 C58.6091988,48.073482 58.6476828,47.344086 58.40352,46.827738 C58.15935,46.311462 57.669606,46.086822 57.11904,46.23858 C56.568456,46.3903344 56.04084,46.895382 55.7352,47.5632 L55.7352,47.5632 Z" id="Shape" fill="#DE2010"></path>
        <path d="M54.3186,51.4062 C54.073548,52.098552 54.10134,52.828434 54.3913074,53.3205 C54.6812694,53.812512 55.1893734,53.991828 55.7239194,53.790786 C56.2584654,53.589744 56.7381474,53.038944 56.9819754,52.34616 C57.2270274,51.653808 57.1992354,50.923926 56.909268,50.43186 C56.619306,49.939848 56.111202,49.760532 55.576656,49.961574 C55.04211,50.162616 54.562428,50.713416 54.3186,51.4062 L54.3186,51.4062 Z" id="Shape" fill="#DE2010"></path>
        <path d="M53.0892,58.6818 C53.0206938,59.267988 53.2259262,59.82993 53.627292,60.155622 C54.0286578,60.481314 54.565164,60.521202 55.034406,60.2602578 C55.503666,59.9992938 55.834254,59.4772038 55.901484,58.8909258 C55.969992,58.3047378 55.7647578,57.7427958 55.363392,57.4171038 C54.9620262,57.0914118 54.42552,57.0515238 53.956278,57.3124698 C53.487018,57.5734338 53.15643,58.0955238 53.0892,58.6818018 L53.0892,58.6818 Z" id="Shape" fill="#DE2010"></path>
        <path d="M53.4168,55.2852 C53.2529172,56.001132 53.3643768,56.722986 53.708958,57.17844 C54.053532,57.633876 54.578862,57.75363 55.086768,57.492504 C55.594692,57.231378 56.0079,56.629116 56.17053,55.912914 C56.3344128,55.196982 56.2229514,54.475146 55.878372,54.019674 C55.533798,53.564238 55.008468,53.444484 54.500562,53.70561 C53.992638,53.966736 53.57943,54.568998 53.4168,55.2852 L53.4168,55.2852 Z" id="Shape" fill="#DE2010"></path>
        <path d="M123.3594,53.5446 C123.806772,53.065674 124.222986,52.93026 124.749702,53.104914 C124.56396,51.841458 124.16418,51.412806 123.677136,51.564942 C123.19011,51.7170762 122.969682,52.36659 123.3594,53.544582 L123.3594,53.5446 Z" id="Shape" fill="#FFE300"></path>
        <path d="M124.0434,57.3588 C124.525584,56.914956 124.95087,56.811312 125.462916,57.025152 C125.37292,55.751292 125.006526,55.293714 124.509438,55.408716 C124.012332,55.523718 123.74361,56.154762 124.0434,57.358836 L124.0434,57.3588 Z" id="Shape" fill="#FFE300"></path>
        <path d="M122.4252,50.0652 C122.736276,49.488354 123.104484,49.251672 123.658236,49.286844 C123.157728,48.111984 122.662188,47.79891 122.229738,48.069756 C121.797306,48.340584 121.749084,49.024782 122.4252,50.065236 L122.4252,50.0652 Z" id="Shape" fill="#FFE300"></path>
        <path d="M120.7278,46.5948 C121.038876,46.017954 121.407084,45.781272 121.960836,45.816444 C121.460328,44.641584 120.964788,44.32851 120.532338,44.599356 C120.099906,44.870184 120.051684,45.554382 120.7278,46.594836 L120.7278,46.5948 Z" id="Shape" fill="#FFE300"></path>
        <path d="M116.658,40.2372 C116.872326,39.617856 117.19773,39.325068 117.749916,39.27078 C117.067086,38.191644 116.527662,37.962288 116.144388,38.299104 C115.761114,38.63592 115.823448,39.318966 116.658,40.237164 L116.658,40.2372 Z" id="Shape" fill="#FFE300"></path>
        <path d="M113.9976,37.467 C114.188382,36.840006 114.502464,36.535122 115.05222,36.45999 C114.329088,35.407422 113.781384,35.198622 113.411124,35.549694 C113.040828,35.900748 113.128956,36.580968 113.9976,37.467054 L113.9976,37.467 Z" id="Shape" fill="#FFE300"></path>
        <path d="M108.4068,32.7483 C108.395208,32.093028 108.60012,31.706226 109.100016,31.46544 C108.08784,30.68676 107.502462,30.65679 107.258436,31.10481 C107.014266,31.552848 107.30758,32.172858 108.40689,32.7483 L108.4068,32.7483 Z" id="Shape" fill="#FFE300"></path>
        <path d="M111.3156,34.93026 C111.417644,34.282872 111.686436,33.937398 112.22046,33.78681 C111.35844,32.844618 110.787084,32.71374 110.469078,33.112728 C110.151,33.511716 110.332552,34.173144 111.3156,34.930188 L111.3156,34.93026 Z" id="Shape" fill="#FFE300"></path>
        <path d="M105.0858,30.91608 C105.006672,30.265488 105.170573,29.859624 105.642936,29.568546 C104.555844,28.89846 103.970466,28.929042 103.773816,29.3998752 C103.577184,29.8707192 103.932911,30.4571412 105.08571,30.9160872 L105.0858,30.91608 Z" id="Shape" fill="#FFE300"></path>
        <path d="M101.6928,29.43504 C101.521379,28.802466 101.625512,28.377324 102.05136,28.021644 C100.879578,27.514008 100.304604,27.628056 100.17738,28.1221668 C100.050118,28.6163028 100.486134,29.1457908 101.692746,29.4350508 L101.6928,29.43504 Z" id="Shape" fill="#FFE300"></path>
        <path d="M98.037,28.3023 C97.812648,27.68652 97.8804144,27.25407 98.2746,26.863614 C97.064064,26.456994 96.500808,26.619318 96.41592,27.122418 C96.3309384,27.625554 96.81021,28.116234 98.036982,28.3023 L98.037,28.3023 Z" id="Shape" fill="#FFE300"></path>
        <path d="M94.446,27.60714 C94.177692,27.009198 94.214016,26.572986 94.578939,26.155044 C93.342141,25.837038 92.792133,26.0396622 92.743839,26.547588 C92.695464,27.055566 93.208959,27.510282 94.445973,27.60714 L94.446,27.60714 Z" id="Shape" fill="#FFE300"></path>
        <path d="M90.6426,27.31554 C90.313722,26.748648 90.304632,26.311014 90.6242472,25.857486 C89.3611512,25.66944 88.8351012,25.9279992 88.8397632,26.438184 C88.8443172,26.94843 89.4021912,27.347454 90.6426432,27.31554 L90.6426,27.31554 Z" id="Shape" fill="#FFE300"></path>
        <path d="M83.1978,27.87642 C82.741968,27.40554 82.627668,26.983008 82.828476,26.465796 C81.557298,26.5878162 81.109134,26.965566 81.236628,27.459576 C81.3640626,27.953676 82.0017,28.206432 83.197728,27.876402 L83.1978,27.87642 Z" id="Shape" fill="#FFE300"></path>
        <path d="M86.8626,27.39402 C86.474682,26.865756 86.418612,26.43165 86.6875878,25.946388 C85.4116038,25.8952284 84.9164238,26.208846 84.9758958,26.715582 C85.035276,27.222372 85.6328238,27.559116 86.8626558,27.39402 L86.8626,27.39402 Z" id="Shape" fill="#FFE300"></path>
        <path d="M79.6014,28.6533 C79.082766,28.252638 78.909066,27.85086 79.033662,27.310212 C77.793102,27.613224 77.403726,28.051326 77.600754,28.521954 C77.79771,28.992672 78.464988,29.151396 79.601454,28.6533 L79.6014,28.6533 Z" id="Shape" fill="#FFE300"></path>
        <path d="M72.7164,31.81896 C72.131022,31.524264 71.884062,31.16286 71.903538,30.608388 C70.743276,31.141854 70.44435,31.646034 70.727292,32.070582 C71.010198,32.495238 71.695476,32.524128 72.716472,31.818942 L72.7164,31.81896 Z" id="Shape" fill="#FFE300"></path>
        <path d="M76.0356,30.123 C75.490344,29.7594 75.289104,29.370672 75.375774,28.82268 C74.159316,29.211282 73.801368,29.67543 74.030652,30.131208 C74.259882,30.587076 74.936592,30.698982 76.035672,30.123009 L76.0356,30.123 Z" id="Shape" fill="#FFE300"></path>
        <path d="M66.5406,36.1188 C65.906658,35.9525664 65.589804,35.650566 65.493306,35.104212 C64.4697,35.867772 64.28241,36.423162 64.647612,36.779436 C65.012796,37.1358 65.689074,37.021248 66.540672,36.118782 L66.5406,36.1188 Z" id="Shape" fill="#FFE300"></path>
        <path d="M69.4872,33.70734 C68.868216,33.491988 68.575986,33.166116 68.522544,32.613894 C67.44231,33.294978 67.212108,33.834006 67.548312,34.217784 C67.88448,34.601652 68.567634,34.54038 69.487272,33.70734 L69.4872,33.70734 Z" id="Shape" fill="#FFE300"></path>
        <path d="M63.9234,38.6982 C63.276984,38.5902828 62.933976,38.318346 62.788212,37.783026 C61.838244,38.63646 61.702218,39.206592 62.098308,39.528198 C62.49438,39.849894 63.157428,39.67434 63.923328,38.6982 L63.9234,38.6982 Z" id="Shape" fill="#FFE300"></path>
        <path d="M61.5762,41.742 C60.922656,41.6932002 60.556392,41.453514 60.362622,40.933638 C59.49405,41.869782 59.410332,42.449904 59.83398,42.734178 C60.25761,43.018596 60.901992,42.7835772 61.5762,41.741946 L61.5762,41.742 Z" id="Shape" fill="#FFE300"></path>
        <path d="M59.6142,44.856 C58.96089,44.907858 58.562244,44.7270876 58.291146,44.243028 C57.576168,45.30114 57.582288,45.887238 58.044474,46.103328 C58.506678,46.319526 59.107464,45.9885942 59.6142,44.856 L59.6142,44.856 Z" id="Shape" fill="#FFE300"></path>
        <path d="M57.8898,48.1806 C57.24873,48.3167988 56.829996,48.189294 56.4984,47.744478 C55.926774,48.886416 56.00889,49.466772 56.495214,49.620978 C56.981556,49.7753712 57.534318,49.369284 57.889818,48.18051 L57.8898,48.1806 Z" id="Shape" fill="#FFE300"></path>
        <path d="M56.511,51.5916 C55.899612,51.827652 55.465956,51.7680846 55.068066,51.38145 C54.684594,52.599528 54.85761,53.159544 55.362222,53.23491 C55.866888,53.3102994 56.348334,52.821756 56.510982,51.591672 L56.511,51.5916 Z" id="Shape" fill="#FFE300"></path>
        <path d="M55.5876,55.395 C54.993384,55.671462 54.556722,55.641024 54.133848,55.281915 C53.832762,56.522943 54.0428922,57.070107 54.55143,57.111435 C55.060002,57.1528458 55.507662,56.633175 55.587618,55.394973 L55.5876,55.395 Z" id="Shape" fill="#FFE300"></path>
        <path d="M55.2114,58.5594 C54.651996,58.85568 54.216072,58.89069 53.758854,58.6667052 C53.5924512,59.6781072 53.8588368,60.0778692 54.367128,60.0417432 C54.875466,60.0056622 55.263816,59.5388232 55.2114,58.5594072 L55.2114,58.5594 Z" id="Shape" fill="#FFE300"></path>
        <path d="M119.214,43.5024 C119.437704,42.886386 119.767482,42.598584 120.320442,42.552684 C119.654082,41.463288 119.118222,41.22576 118.729854,41.556726 C118.341522,41.887674 118.393488,42.571602 119.214,43.502346 L119.214,43.5024 Z" id="Shape" fill="#FFE300"></path>
        <path d="M124.461,61.2216 C124.943184,60.777756 125.36847,60.674112 125.880516,60.887952 C125.790521,59.614092 125.424126,59.156514 124.927038,59.271516 C124.429932,59.386518 124.16121,60.017562 124.461,61.221636 L124.461,61.2216 Z" id="Shape" fill="#FFE300"></path>
        <path d="M116.442,44.9388 C116.442,44.9388 117.77337,42.83154 117.258606,40.84812 C116.743842,38.8647 114.547086,40.266252 114.594426,40.9721508 C114.641757,41.6780208 116.014014,42.6223188 116.097462,43.0531308 C116.180838,43.4838708 115.942406,44.8088328 116.442018,44.9389908 L116.442,44.9388 Z" id="Shape" fill="#FFD200"></path>
        <path d="M119.4606,40.4856 C119.445066,40.4856 118.016712,41.913972 118.26513,43.65288 C118.51353,45.39177 119.61585,47.5344 119.414034,49.3353 C119.212164,51.13638 118.886148,52.33176 118.886148,52.33176 C118.886148,52.33176 120.562938,50.42214 120.578472,48.5901 C120.594006,46.75806 119.429532,44.35146 119.429532,43.00074 C119.429532,41.650002 119.491666,40.45446 119.460598,40.4856 L119.4606,40.4856 Z" id="Shape" fill="#217900"></path>
        <path d="M122.1156,46.323 C122.1156,46.323 120.997728,47.14587 121.10643,49.0401 C121.215094,50.93424 123.17139,54.41202 123.17139,54.41202 C123.17139,54.41202 124.59978,57.34638 124.553178,58.10724 C124.506614,58.867992 124.81713,57.377556 124.677409,55.70082 C124.53768,54.02403 122.379529,50.3289 122.379529,50.3289 C122.379529,50.3289 121.913743,49.568166 121.960345,48.31056 C122.006909,47.052954 122.131139,46.33884 122.115607,46.32318 L122.1156,46.323 Z" id="Shape" fill="#217900"></path>
        <path d="M91.017,27.41274 C91.017,27.41274 95.81454,27.599094 95.8455,30.70422 C95.829966,31.18554 95.8454658,31.759938 95.6747052,33.14178 C96.6217752,32.629464 97.2583632,31.20102 97.1341272,30.285 C97.1496612,27.1332 92.8490472,24.97518 91.0170072,27.41274 L91.017,27.41274 Z" id="Shape" fill="#217900"></path>
        <path d="M87.975,27.27306 C87.975,27.27306 91.84086,26.465706 91.872,29.57094 C91.9030662,32.67612 90.645462,33.17292 90.645462,33.17292 C90.645462,33.17292 93.610962,32.53635 93.626442,29.38464 C93.641976,26.23284 89.807202,24.83568 87.974982,27.27306 L87.975,27.27306 Z" id="Shape" fill="#217900"></path>
        <path d="M125.5284,62.8542 C125.617313,64.247274 126.980748,65.58102 126.447264,68.01156 C125.76555,70.76808 123.364764,77.31846 123.779664,78.47442 C123.068304,77.496282 123.186852,76.5774 123.127578,75.21408 C123.068302,73.85067 125.113338,68.78232 125.291358,67.06314 C125.291324,65.521908 125.439518,63.41742 125.528436,62.85438 L125.5284,62.8542 Z" id="Shape" fill="#217900"></path>
        <path d="M125.5284,62.8848 C125.5284,62.8848 127.7514,65.70054 127.63278,67.92354 C127.514228,70.14654 126.269334,72.75474 126.684306,73.9107 C125.972946,72.932562 125.795124,72.310122 125.735832,70.94664 C125.676556,69.58323 126.8325,68.0715 126.595386,66.58956 C126.358236,65.107566 125.498682,62.88462 125.528328,62.88462 L125.5284,62.8848 Z" id="Shape" fill="#217900"></path>
        <path d="M52.7076,63.5058 C52.6186854,64.898874 51.581268,66.1437 52.114752,68.57424 C52.796466,71.33076 55.226952,74.82816 54.841572,78.82956 C55.552932,77.851386 55.760436,76.7547 55.81971,75.3912 C55.8789858,74.02779 53.12259,69.43356 52.94457,67.71456 C52.9446042,66.173328 52.796412,64.06884 52.707492,63.5058 L52.7076,63.5058 Z" id="Shape" fill="#217900"></path>
        <path d="M52.7076,63.5364 C52.7076,63.5364 50.54382,66.26322 50.66244,68.48622 C50.692077,69.968178 53.41896,76.16286 53.00406,77.31882 C53.71542,76.340718 53.922888,76.45923 53.893224,74.9772 C53.092944,71.18334 51.670224,68.7528 51.907464,67.27086 C52.144614,65.788866 52.737408,63.53622 52.70778,63.53622 L52.7076,63.5364 Z" id="Shape" fill="#217900"></path>
        <path d="M94.7484,36.8208 C94.7484,36.8208 98.61066,37.063872 98.79984,39.2787 C98.988876,41.49342 97.881534,42.84396 97.881534,42.84396 C97.881534,42.84396 98.367696,47.62458 94.586454,49.02894 C90.535014,49.51512 84.188034,49.1369832 84.188034,49.1369832 C84.188034,49.1369832 82.324314,49.5961632 81.568134,45.7339032 C80.811882,41.8716432 80.59581,39.1437432 80.59581,39.1437432 C80.59581,39.1437432 80.973936,36.9830232 83.70189,36.8480232 C86.42979,36.712989 94.72149,36.8750466 94.74867,36.8210268 L94.7484,36.8208 Z" id="Shape" fill="#8C8A8C"></path>
        <path d="M97.8534,42.8166 C97.8534,42.8166 95.77368,45.4095 95.98986,46.46286" id="Shape"></path>
        <path d="M95.0724,48.8934 C95.58558,49.325544 96.071724,49.811688 96.17976,51.4053 C96.287796,52.99884 96.395832,54.59238 96.395832,54.59238 L99.096732,78.90138 L101.473452,96.48432 L101.635506,99.21222 C101.635506,99.21222 101.068326,101.21094 99.474786,101.37294 C98.313426,103.80366 92.020266,104.50602 91.399086,104.47902 C90.831906,104.452027 88.833186,103.614732 87.617826,103.722768 C86.402394,103.83077 84.295746,104.641038 83.350386,104.50602 C82.405098,104.370993 80.271306,103.641732 79.893306,102.1023 C77.246406,101.265012 76.814226,99.2394 76.814226,99.2394 L79.677126,78.9012 L82.459026,53.1882 C82.459026,53.1882 82.783134,49.75812 84.160584,49.24494 C85.59207,49.109904 92.992464,49.379976 95.072184,48.893832 L95.0724,48.8934 Z" id="Shape" fill="#8C8A8C"></path>
        <path d="M80.487,84.087 L79.91982,102.07512" id="Shape"></path>
        <path d="M97.9614,86.463 L99.55494,101.29104" id="Shape"></path>
        <polygon id="Shape" fill="#FFFFFF" points="89.6742 38.601 95.06034 55.17774 112.48794 55.17846 98.38908 65.42406 103.77396 82.00116 89.67438 71.75646 75.5748 82.00098 80.95968 65.42388 66.86082 55.17828 84.28842 55.17756"></polygon>
    </g>
</svg>