<?xml version="1.0" ?><svg height="120px" version="1.1" viewBox="0 0 180 120" width="180px" xmlns="http://www.w3.org/2000/svg" xmlns:sketch="http://www.bohemiancoding.com/sketch/ns" xmlns:xlink="http://www.w3.org/1999/xlink"><title/><defs/><g fill="none" fill-rule="evenodd" id="Africa,-Middle-East-and-India" stroke="none" stroke-width="1"><g id="Africa,-Middle-Eest-and-India" transform="translate(-1000.000000, -401.000000)"><g id="Guinea-Bissau" transform="translate(1000.000000, 401.000000)"><rect d="M0,-1.42108547e-14 L0,120 L180,120 L180,-1.42108547e-14 L0,-1.42108547e-14 Z M0,-1.42108547e-14" fill="#CA4638" height="120" id="Rectangle-3" width="180" x="0" y="-1.42112908e-14"/><rect d="M60,60 L60,120 L180,120 L180,60 L60,60 Z M60,60" fill="#479951" height="60" id="Rectangle-3-copy-2" width="120" x="60" y="60"/><rect d="M60,0 L60,60 L180,60 L180,0 L60,0 Z M60,0" fill="#E5B731" height="60" id="Rectangle-3-copy-3" width="120" x="60" y="0"/><path d="M7,54.8734983 L24.4461175,54.8734983 L29.8352353,38.2814123 L35.2243442,54.8734983 L52.6704617,54.8734983 L38.5582896,65.1265034 L43.9474074,81.7185877 L29.8352353,71.4655737 L15.7230632,81.7185877 L21.1121721,65.1265034 L7,54.8734983 L7,54.8734983 L7,54.8734983 L7,54.8734983 Z M7,54.8734983" fill="#262626" id="Shape"/></g></g></g></svg>