<?xml version="1.0" ?><svg height="120px" version="1.1" viewBox="0 0 180 120" width="180px" xmlns="http://www.w3.org/2000/svg" xmlns:sketch="http://www.bohemiancoding.com/sketch/ns" xmlns:xlink="http://www.w3.org/1999/xlink"><title/><defs/><g fill="none" fill-rule="evenodd" id="Africa,-Middle-East-and-India" stroke="none" stroke-width="1"><g id="Africa,-Middle-Eest-and-India" transform="translate(-400.000000, -201.000000)"><g id="Azerbaijan" transform="translate(400.000000, 201.000000)"><rect d="M-2.84217094e-14,0 L-2.84217094e-14,120 L180,120 L180,0 L-2.84217094e-14,0 Z M-2.84217094e-14,0" fill="#4086CD" height="120" id="Rectangle-3-copy-2" width="180" x="-2.84225816e-14" y="0"/><rect d="M0.00549331208,0 L0.00549331208,80 L180.005493,80 L180.005493,0 L0.00549331208,0 Z M0.00549331208,0" fill="#CA4638" height="80" id="Rectangle-3-copy-3" width="180" x="0.00549331208" y="0"/><rect d="M0.00274665604,-3.55271368e-15 L0.00274665604,40 L180.002747,40 L180.002747,-3.55271368e-15 L0.00274665604,-3.55271368e-15 Z M0.00274665604,-3.55271368e-15" fill="#57BB63" height="40" id="Rectangle-3" width="180" x="0.00274665604" y="-4.73709694e-15"/><path d="M92.3175264,78.3287708 C90.7763284,78.766223 89.1523613,79 87.4750395,79 C77.4910919,79 69.3975041,70.7172684 69.3975041,60.5 C69.3975041,50.2827316 77.4910919,42 87.4750395,42 C89.1523612,42 90.7763283,42.233777 92.3175263,42.6712292 C92.1284478,42.6642382 91.9385587,42.6607143 91.7479114,42.6607143 C82.6715955,42.6607143 75.3137884,50.6476341 75.3137884,60.5 C75.3137884,70.3523659 82.6715955,78.3392857 91.7479114,78.3392857 C91.9385587,78.3392857 92.1284478,78.3357618 92.3175263,78.3287708 L92.3175264,78.3287708 Z M106.155958,69.5151984 L100.064771,66.6089531 L97.8102353,72.9982116 L95.5467857,66.6121394 L89.4596606,69.5269727 L92.349847,63.4019464 L85.9958859,61.1348852 L92.3466783,58.8588609 L89.4479466,52.7379185 L95.5391354,55.6441615 L97.7936714,49.2549006 L100.057121,55.6409727 L106.144246,52.7261394 L103.25406,58.8511681 L109.608021,61.1182269 L103.257231,63.3942512 L106.155958,69.5151984 Z M106.155958,69.5151984" fill="#FFFFFF" id="Oval-8"/></g></g></g></svg>