<?xml version="1.0" encoding="UTF-8" standalone="no"?>
<svg width="180px" height="120px" viewBox="0 0 180 120" version="1.1" xmlns="http://www.w3.org/2000/svg" xmlns:xlink="http://www.w3.org/1999/xlink">
    <!-- Generator: Sketch 40.2 (33826) - http://www.bohemiancoding.com/sketch -->
    <title>icon-flag-im</title>
    <desc>Created with Sketch.</desc>
    <defs></defs>
    <g id="Page-1" stroke="none" stroke-width="1" fill="none" fill-rule="evenodd">
        <polygon id="rect2489" fill="#CF142B" points="0 0 180 0 180 120 0 120"></polygon>
        <path d="M92.9536946,81.4966815 C92.9842009,81.4044071 93.0457161,80.4529237 93.014958,80.4529237 C92.9842009,80.4529237 91.5723539,78.7955174 91.603112,78.7955174 C91.6338702,78.7955174 93.4140572,79.1946156 93.4140572,79.1330993 C93.4140572,79.0718359 94.1199802,77.3836714 94.1199802,77.3529133 C94.1199802,77.322407 94.979442,79.4094178 94.979442,79.4094178 L96.7288699,80.1768571 L95.501068,81.1896049 C95.501068,81.1896049 95.7773865,83.1540879 95.7773865,83.184846 C95.7773865,83.2153523 94.5495847,82.0183086 94.5495847,82.0183086 L93.1990031,82.1718464 C93.1990031,82.1718464 93.014958,81.557946 92.9536946,81.4966815 L92.9536946,81.4966815 Z" id="path4410" stroke="#000000" stroke-width="0.840384652" fill-opacity="0.98823499" fill="#F9DD16"></path>
        <path d="M83.4436494,55.7032599 C82.2773639,56.3037982 77.8013069,61.4202279 77.1874055,62.2181735 C76.6730907,63.3766441 75.6671504,64.8421904 74.6309557,65.7856059 C73.5249261,66.6223775 72.910268,67.7654691 73.0625454,68.8477999 C73.0501918,70.1946004 73.8052775,71.1115436 74.4068253,72.0592459 C74.7628117,72.4921277 75.2418317,72.7719764 75.7511041,72.8060119 C76.7958704,72.9439188 76.8886496,73.2656179 77.4115369,73.4647892 C79.4713198,76.269321 82.5441013,78.3374236 84.7571712,79.9756688 C86.1677568,80.7191574 87.1487369,81.4626461 87.4848077,81.8685518 C88.1327435,83.1056818 88.013493,84.3120538 87.9247488,84.9047771 C87.3771542,86.9711157 86.8293077,89.0374531 86.281713,91.1037906 C86.0053945,92.7919551 87.472454,92.4122699 87.5513653,92.074687 C88.2134209,91.2152262 89.2014615,91.8187899 90.6133074,86.8465698 C91.2604877,85.9752591 91.9079199,85.1039484 92.5551001,84.2326377 C92.5551001,84.2326377 93.3021179,83.9338808 93.3021179,83.8592553 C94.4378972,82.4955624 93.5731422,81.7150129 92.9284826,81.4694525 C92.4555145,81.2952414 91.9825464,81.1207774 91.5095772,80.9465662 C91.5095772,80.9465662 89.8665415,79.3035294 89.791915,79.3035294 C89.0111136,77.0322216 85.1787078,72.183287 84.2884878,71.5081211 C83.6723186,70.8659832 83.3791077,70.5924383 82.7942003,70.2351905 C81.8949051,69.8050823 81.6047197,69.6651585 81.0538478,69.4453138 C80.5952503,69.2612687 80.9217389,68.7577943 81.2134364,68.527613 C84.2489062,66.8752491 86.6550955,65.038841 89.5677845,63.1716738 C89.7170366,63.0720882 89.8665415,62.9725025 90.0157935,62.8729169 C89.6673702,60.8814578 89.318695,58.8897458 88.9702717,56.8982867 C87.352195,56.3257319 85.7338655,55.7529263 84.1157888,55.1803726 C83.8611521,55.3545837 83.6677799,55.5290477 83.4436494,55.7032599 L83.4436494,55.7032599 Z" id="path4412" stroke="#000000" stroke-width="1.30000001" fill="#FFFFFF"></path>
        <path d="M87.505481,87.1596974 C87.5208601,87.098434 90.5439752,86.545797 90.5439752,86.545797 C90.5439752,86.545797 90.1910142,87.6661972 90.1756351,87.6661972 L87.167898,88.5715434 L87.505481,87.1596974 L87.505481,87.1596974 Z" id="path4414" fill="#F9DD16"></path>
        <path d="M79.6273783,75.776687 C80.2105216,74.2266823 81.8293549,72.9993842 82.9167282,72.6607927" id="path4416" stroke="#000000" stroke-width="0.840384652"></path>
        <path d="M87.396819,87.1869264 C87.5919564,87.1319647 88.4584765,86.8790931 88.7108444,86.8397634 C88.9801036,86.7767338 89.2481024,86.7061423 89.5070249,86.6226913 C89.8057818,86.5616798 89.9928514,86.5054577 90.3032053,86.4489839 C90.546244,86.3562057 90.7865101,86.2926725 91.0464411,86.2319128 M86.8494762,89.0561095 C86.8746883,89.0223259 87.080666,88.8402988 87.2286577,88.7523101 C87.4028699,88.6973495 87.9986187,88.4444779 88.2240095,88.4051472 C88.4645274,88.3421187 88.7037851,88.2715261 88.9349748,88.1880761 C89.2019652,88.1270646 89.3688651,88.0708426 89.6461921,88.0143687 C89.8632642,87.9215905 90.0778146,87.8580573 90.3097599,87.7972976" id="path4418" stroke="#000000" stroke-width="0.92929733"></path>
        <path d="M88.0770263,76.2153678 L88.0336626,76.2153678 C88.1695525,76.2153678 88.0861026,76.2040227 87.9033188,76.4324399 C87.8382734,76.6079114 87.2810977,76.996674 86.861578,76.996674 C86.6591294,77.0183558 86.3480188,77.0400376 86.1453183,77.0400376 C86.0875841,77.0400376 86.0079152,76.996674 85.9499291,76.996674" id="path4420" stroke="#000000" stroke-width="0.840384652"></path>
        <path id="path4422" stroke="#000000" stroke-width="0.840384652"></path>
        <path d="M86.5577786,90.4528293 C86.5809737,90.4190457 86.7695554,90.2370186 86.9049416,90.1490299 C87.0645314,90.0940683 87.610109,89.8411967 87.8165916,89.801867 C88.0366881,89.7388385 88.2557761,89.6682459 88.4675529,89.5847959 C88.7121048,89.5237833 88.864887,89.4675624 89.1187671,89.4110885 C89.3176865,89.3183093 89.5140842,89.254776 89.7263647,89.1940164" id="path4424" stroke="#000000" stroke-width="0.840384652"></path>
        <path d="M90.6226356,82.9080238 C90.4998549,83.264515 90.6589399,83.3540158 90.7247419,83.5078065 C90.839203,83.6568067 91.1314043,83.8839625 91.5930272,84.0286769 C91.7710215,84.0765782 91.9079199,84.123472 92.1138976,84.2023843 C92.2502923,84.2149898 92.3173547,84.2490253 92.417697,84.2891116" id="path4426" stroke="#000000" stroke-width="0.840384652"></path>
        <path d="M73.4487863,69.8345801 L73.492151,69.8345801 C73.3560081,69.8345801 73.437694,69.8434056 73.6658584,69.6608716 C73.8067907,69.5032999 73.924529,69.4319517 74.056385,69.270345" id="path4428" stroke="#000000" stroke-width="0.840384652"></path>
        <path d="M76.259369,72.9267746 C76.2883621,72.9267746 78.7845569,71.6687193 79.0510425,71.3999639 C79.2398771,71.2630655 79.3828264,71.118603 79.612504,70.9630482 C79.759739,70.8861528 79.8653756,70.7875757 80.0032825,70.7026125 C80.1179953,70.5364692 80.2677521,70.4361269 80.3504455,70.2841013 C80.5037314,70.1512368 80.4379293,70.0072791 80.5622222,69.8471856 C80.620966,69.6833101 80.7308883,69.4072445 80.7666878,69.2572358" id="path4430" stroke="#000000" stroke-width="0.840384652"></path>
        <path d="M83.9458635,71.1241501 C83.9594775,71.2139028 83.906029,71.4904732 83.9098111,71.7009897 C83.9012374,71.9450378 83.5873554,72.6988631 83.207922,72.924002" id="path4432" stroke="#000000" stroke-width="0.840384652"></path>
        <path d="M79.461235,71.0961645 C79.4758574,71.0961645 79.8557955,71.2197019 80.4908741,71.4150911 C81.2552879,71.6898964 82.8451281,72.6918038 83.0029517,72.8297107 C83.1640536,72.9565242 83.452221,73.0697239 83.5626481,73.2202373 C83.735347,73.3694893 83.8619088,73.5416845 83.9967902,73.6977441 C84.1553715,73.8911163 84.2905048,74.054739 84.3873179,74.2186145 C84.8701189,74.6101496 86.1687653,77.3211467 86.2103638,77.4741807 C86.2832252,77.6173819 86.3734827,77.816805 86.4274348,77.9516865 C86.5237432,78.0626173 86.5890415,78.2194334 86.6878706,78.3858296 C86.7786318,78.6016404 86.8802344,78.6999657 86.9919218,78.8633364 C87.1356277,78.9631739 87.3292518,79.1527641 87.5127922,79.253863 C87.7084333,79.4212677 87.8919737,79.4893386 88.0336626,79.6012779 C88.23838,79.6882581 90.5260754,81.1343913 90.6322157,81.206749 C90.8412199,81.3746574 91.4793239,82.0359565 91.0313149,82.5169924 C90.8412199,82.6796065 90.6700332,82.8949135 90.5076709,82.9869361 C90.3422832,83.1525757 90.1121019,83.2266974 89.9220069,83.3124162 C88.8913594,83.6169722 88.366455,83.5078065 88.1637535,83.5078065 L87.9466825,83.5078065" id="path4434" stroke="#000000" stroke-width="0.840384652"></path>
        <path d="M74.4085904,65.9820047 C74.7015483,66.0967165 74.5833063,66.0120062 74.8470183,66.1320133 C75.0242559,66.2096643 75.1409857,66.2116812 75.3151969,66.2752145 C75.4999976,66.3344619 76.0163304,66.4274919 76.2644114,66.6765825 C76.4464386,66.8409618 76.5853539,66.9798771 76.7852818,67.0998843 C77.0217659,67.2630021 77.1924479,67.3356117 77.4856587,67.4578876 C77.7329842,67.5504139 78.0095546,67.653025 78.2596526,67.6618495 C78.5195835,67.6769756 78.5818564,67.6641162 78.8311978,67.6641162 L79.4390484,67.6641162 L78.8311978,67.6641162 L79.4390484,67.6641162" id="path4436" stroke="#000000" stroke-width="0.840384652"></path>
        <path d="M74.3387544,68.8795665 C74.9897157,68.8362029 76.0748212,69.0315922 76.096503,69.0315922 C76.0967129,69.0315922 77.5290223,69.0099103 77.5290223,69.0099103 C78.2815873,68.9373008 78.4477306,68.6481249 78.5707632,68.4454234 C78.8528807,68.0115331 79.0482699,67.8595075 79.265341,67.5340264 C79.612504,67.2735917 80.0902626,67.8811893 80.1119444,67.8811893 C81.3271408,69.0315922 80.3504455,70.4421778 80.2854,70.4855414 C79.6778023,71.0427161 79.5474585,71.0787695 79.1786137,70.7242953 C78.809516,70.2901522 78.701107,70.0950148 78.3973076,69.9429892 C77.8113917,69.6608716 76.5959435,69.8779437 76.5740088,69.8779437 C76.5523269,69.8779437 75.9447293,70.1166966 75.9447293,70.1166966 C75.6479893,70.2251067 75.4599113,70.4857933 74.9463521,70.5722697 C74.4254817,70.608574 74.2517742,70.5578991 73.9913396,70.1383784 C73.6441766,69.5958262 73.8176311,68.944612 74.3387544,68.8795665 L74.3387544,68.8795665 Z" id="path4438" stroke="#000000" stroke-width="0.840384652" fill="#FFE606"></path>
        <path d="M108.323745,42.5526197 C108.228361,42.5712509 107.368829,42.9839379 107.383904,43.0107481 C107.398978,43.0375595 106.646185,45.0805014 106.631111,45.0536912 C106.616037,45.0268799 106.091476,43.2795435 106.037854,43.3096919 C105.984452,43.3397165 104.166959,43.5517273 104.140149,43.566801 C104.113557,43.5817519 105.511541,41.809766 105.511541,41.809766 L105.323127,39.9087228 L106.807642,40.4826324 C106.807642,40.4826324 108.384611,39.2790078 108.411422,39.2639331 C108.438013,39.2489822 107.99631,40.9058806 107.99631,40.9058806 L108.792047,42.0079015 C108.792047,42.0079015 108.347123,42.4691929 108.323745,42.5526197 L108.323745,42.5526197 Z" id="path4440" stroke="#000000" stroke-width="0.840384855" fill-opacity="0.98823499" fill="#F9DD16"></path>
        <path d="M90.501026,63.4832787 C91.5960799,64.205584 98.2495919,65.599759 99.2460046,65.7438185 C100.507872,65.6243844 102.278348,65.7829929 103.608524,66.2238628 C104.879966,66.7778714 106.177603,66.7534391 107.046414,66.0902668 C108.22644,65.4409877 108.655659,64.3334176 109.186937,63.3446089 C109.389805,62.8221539 109.39898,62.2674558 109.179056,61.806855 C108.78724,60.8285729 109.022188,60.5900393 108.93954,60.0366415 C110.374708,56.8667195 110.671491,53.1747045 111.014914,50.4427476 C110.971685,48.8488031 111.139,47.6293335 111.328114,47.1374614 C112.088944,45.9663716 113.198951,45.4790928 113.759105,45.2659643 C115.828646,44.7306047 117.898311,44.1954655 119.967852,43.660107 C121.574802,43.0736213 120.524855,41.9809013 120.191919,42.0775602 C119.118284,41.9216738 119.160172,40.7646261 114.13409,41.9707703 C113.057417,41.8336568 111.980621,41.6963239 110.903947,41.5592104 C110.903947,41.5592104 110.277426,41.0544705 110.212376,41.0910444 C108.467051,40.7693401 108.210471,41.9056619 108.312361,42.5879407 C108.3923,43.085594 108.47202,43.5833712 108.551959,44.0810245 C108.551959,44.0810245 107.924996,46.3184458 107.961569,46.3834955 C106.36439,48.1772356 103.986837,53.9371947 103.834597,55.044066 C103.762534,56.0841656 103.369722,55.8963342 103.475048,56.9072728 C103.478994,57.6972575 103.387079,57.2040243 103.650821,58.8316201 C103.715147,59.3215655 103.116274,59.2837187 102.772674,59.1422616 C99.8447096,57.3061212 97.0647203,56.1087049 94.0096916,54.4848607 C93.8497388,54.4035663 93.6896621,54.3220525 93.5297093,54.240759 C91.9645637,55.5204573 90.3993206,56.8004987 88.834175,58.0801969 C89.1280911,59.7712336 89.4219106,61.4626135 89.7158266,63.1536513 C89.9924767,63.2902328 90.2393216,63.3732881 90.5010208,63.4832787 L90.501026,63.4832787 Z" id="path4442" stroke="#000000" stroke-width="1.30000001" fill="#FFFFFF"></path>
        <path d="M115.930143,44.5263249 C115.869203,44.5429433 113.905897,42.1786097 113.905897,42.1786097 C113.905897,42.1786097 115.055503,41.9371851 115.06304,41.9505902 L117.326257,44.1286602 L115.930143,44.5263249 L115.930143,44.5263249 Z" id="path4444" fill="#F9DD16"></path>
        <path d="M109.868815,56.9721188 C108.231924,57.2234436 106.368753,56.4138297 105.540705,55.6319327" id="path4446" stroke="#000000" stroke-width="0.840384855"></path>
        <path d="M116.00713,44.6076981 C115.863588,44.4645368 115.218497,43.8331418 115.060532,43.6324352 C114.873631,43.4286181 114.680755,43.2296063 114.481119,43.0448088 C114.281521,42.8142906 114.140833,42.6787806 113.939506,42.4359298 C113.739524,42.2695483 113.566392,42.0912507 113.386041,41.8944532 M117.904695,44.1687413 C117.86289,44.1633264 117.603274,44.072985 117.454049,43.9871067 C117.320762,43.8621862 116.808372,43.4668166 116.663628,43.289623 C116.490813,43.1108595 116.312023,42.9369013 116.125979,42.7762769 C115.941947,42.5734494 115.811145,42.4555201 115.626004,42.2414577 C115.438748,42.0977119 115.27822,41.9418308 115.111584,41.7694267" id="path4448" stroke="#000000" stroke-width="0.929297529"></path>
        <path d="M106.110147,49.3917846 C106.117315,49.4045307 106.124356,49.4170574 106.131399,49.4295842 C106.064802,49.3111323 106.095809,49.3894339 106.384494,49.4368146 C106.569327,49.4075173 107.181264,49.7026653 107.386865,50.0683504 C107.504983,50.2341935 107.676353,50.4947541 107.775693,50.671444 C107.803988,50.7217694 107.805234,50.8124665 107.833652,50.8630113" id="path4450" stroke="#000000" stroke-width="0.840384855"></path>
        <path d="M113.925934,45.0472216 C113.918893,45.0346948 113.911849,45.022168 113.904683,45.0094219 C113.933101,45.0599677 113.84797,44.9085507 113.819674,44.8582253 C113.709336,44.6619777 113.633571,44.445424 113.538323,44.2693271 C113.431939,44.0801115 113.379177,43.8607475 113.272793,43.6715319 C113.192453,43.46536 113.054296,43.2402117 112.971348,43.0268293 C112.854273,42.8011079 112.798046,42.5987318 112.668434,42.368201 C112.570936,42.1783274 112.54558,42.0606941 112.429806,41.8547772 L112.668434,42.368201 C112.570936,42.1783274 112.54558,42.0606941 112.429806,41.8547772" id="path4452" stroke="#000000" stroke-width="0.840384855"></path>
        <path d="M119.265135,43.7384946 C119.22432,43.7348322 118.97323,43.6596599 118.830182,43.584769 C118.704061,43.4725946 118.21626,43.120958 118.080782,42.9602475 C117.917975,42.7992841 117.74907,42.6429066 117.572539,42.4992038 C117.399506,42.3159352 117.275622,42.2103123 117.101972,42.0166893 C116.923612,41.8887654 116.771981,41.7487072 116.614982,41.5934442" id="path4454" stroke="#000000" stroke-width="0.840384855"></path>
        <path d="M110.696394,43.8928656 C111.067312,43.8251788 111.067362,43.6426459 111.169168,43.5099168 C111.242952,43.3371213 111.297754,42.971091 111.197663,42.4977829 C111.152186,42.3191548 111.125969,42.1768415 111.093808,41.9586224 C111.037951,41.8335529 111.034753,41.7584153 111.020519,41.6513044" id="path4456" stroke="#000000" stroke-width="0.840384855"></path>
        <path id="path4458" stroke="#000000" stroke-width="0.840384855"></path>
        <path d="M109.035233,61.3046294 C109.021024,61.2793565 106.70106,59.7200425 106.336192,59.6194672 C106.124316,59.5219563 105.928334,59.46815 105.680179,59.3441824 C105.540994,59.2535261 105.403296,59.2097564 105.26165,59.1311851 C105.060607,59.112619 104.899748,59.0312553 104.726704,59.0336794 C104.535766,58.9651783 104.44253,59.0930885 104.242067,59.0632055 C104.070432,59.092313 103.77592,59.1317927 103.627617,59.1741038" id="path4460" stroke="#000000" stroke-width="0.840384855"></path>
        <path id="path4462" stroke="#000000" stroke-width="0.840384855"></path>
        <path d="M105.870348,59.4108009 C105.863181,59.3980548 105.784664,59.0063287 105.643736,58.3569898 C105.508649,57.5559904 105.602827,55.6791477 105.645688,55.4739895 C105.677274,55.2714118 105.634721,54.9647455 105.711801,54.7947257 C105.757262,54.5710413 105.845334,54.3763299 105.915263,54.1822745 C106.006103,53.9492745 106.082502,53.7512932 106.1779,53.5865918 C106.282578,52.9738604 108.009236,50.5132415 108.122244,50.4019812 C108.211361,50.2682888 108.340959,50.0918791 108.43209,49.9787456 C108.481587,49.8404316 108.586278,49.7066594 108.682886,49.538964 C108.826522,49.3540835 108.862435,49.2173321 108.950105,49.0399108 C108.966703,48.8657175 109.037072,48.6040235 109.035246,48.3944903 C109.085287,48.1419115 109.054672,47.9485634 109.082807,47.7701976 C109.058296,47.5491221 109.197686,44.8462673 109.20874,44.7182857 C109.252672,44.4538129 109.516384,43.5735004 110.155253,43.7282692 C110.390162,43.8142755 110.661736,43.8579749 110.82152,43.954404 C111.046958,44.0173905 111.224378,44.1817078 111.39226,44.3053983 C112.162839,45.0545296 112.324929,45.5655755 112.424271,45.7422653 C112.459732,45.8053369 112.495193,45.8684084 112.530654,45.9314809" id="path4464" stroke="#000000" stroke-width="0.840384855"></path>
        <path d="M103.877111,66.233956 C103.870069,66.2214292 103.8629,66.2086831 103.855858,66.1961563 C103.913313,66.2983455 103.881489,66.247402 103.808525,66.0234878 C103.789351,65.8309393 103.729965,65.5704689 103.699966,65.3874763 C103.661042,65.1973541 103.571954,64.980771 103.596111,64.8483158 C103.528031,64.6552069 103.570857,64.4957683 103.589111,64.3044497 C103.643187,64.0652215 103.667627,63.8921143 103.674253,63.6590282 C103.700541,63.3729492 103.679405,63.1702225 103.695733,62.8998667 C103.620353,62.6773114 103.604981,62.4910122 103.490104,62.2686836 C103.387886,62.0560117 103.309699,61.8593306 103.1875,61.6419856 C103.088158,61.4652969 102.988941,61.2888274 102.889601,61.1121375 L103.1875,61.6419856 C103.088158,61.4652969 102.988941,61.2888274 102.889601,61.1121375" id="path4466" stroke="#000000" stroke-width="0.840384855"></path>
        <path d="M106.448653,64.9622605 C106.091827,64.4160857 105.730348,63.3744698 105.719722,63.3555699 C105.719617,63.3553601 104.998765,62.1175059 104.998765,62.1175059 C104.566651,61.4970992 104.233159,61.4939971 103.996174,61.486093 C103.479701,61.4528225 103.251426,61.3570127 102.86133,61.3273102 C102.464175,61.152333 102.75966,60.4381071 102.749034,60.4192083 C103.15626,58.7961564 104.864495,58.9562079 104.934173,58.9916548 C105.717623,59.2482193 105.812928,59.3441677 105.684708,59.8394032 C105.487167,60.3739022 105.3702,60.564035 105.386571,60.9033537 C105.427806,61.5523442 106.212696,62.5054352 106.223446,62.5245554 C106.234071,62.5434542 106.739961,62.956073 106.739961,62.956073 C106.979887,63.1616037 107.299297,63.1977873 107.626363,63.6030633 C107.91328,64.0393 107.954239,64.2155512 107.716191,64.6481675 C107.413401,65.2166779 106.760747,65.3846314 106.448653,64.9622605 L106.448653,64.9622605 Z" id="path4468" stroke="#000000" stroke-width="0.840384855" fill="#F9DD16"></path>
        <path d="M65.4628272,52.7451663 C65.4933331,52.652892 65.5548493,51.7014084 65.5240912,51.7014084 C65.4933331,51.7014084 64.081487,50.0440017 64.1122451,50.0440017 C64.1430032,50.0440017 65.9231898,50.4431004 65.9231898,50.3815842 C65.9231898,50.3203202 66.6291129,48.6321553 66.6291129,48.6013972 C66.6291129,48.5708912 67.4885742,50.6579027 67.4885742,50.6579027 L69.2380027,51.425342 L68.0102009,52.4380897 C68.0102009,52.4380897 68.2865193,54.4025731 68.2865193,54.4333311 C68.2865193,54.4638371 67.0587175,53.2667931 67.0587175,53.2667931 L65.7081354,53.4203314 C65.7081354,53.4203314 65.5240912,52.8064303 65.4628272,52.7451663 L65.4628272,52.7451663 Z" id="path4472" stroke="#000000" stroke-width="0.840384658" fill-opacity="0.98823499" fill="#F9DD16" transform="translate(66.674876, 51.517485) rotate(117.437622) translate(-66.674876, -51.517485) "></path>
        <path d="M77.3754187,26.9278364 C76.2091329,27.5283753 71.7330766,32.6448057 71.1191757,33.442751 C70.6048603,34.6012213 69.59892,36.0667683 68.5627258,37.0101842 C67.4566956,37.8469553 66.8420384,38.9900466 66.9943161,40.0723781 C66.9819624,41.4191787 67.7370479,42.3361225 68.3385952,43.2838243 C68.6945821,43.7167065 69.1736013,43.9965546 69.6828744,44.0305902 C70.7276405,44.1684973 70.820419,44.4901966 71.3433062,44.6893678 C73.4030888,47.4938998 76.475871,49.5620026 78.6889398,51.2002486 C80.0995253,51.9437369 81.0805062,52.6872253 81.416576,53.0931311 C82.0645125,54.3302615 81.9452619,55.5366338 81.8565173,56.1293572 C81.3089227,58.1956952 80.761076,60.2620332 80.2134814,62.3283712 C79.937163,64.016536 81.4042223,63.6368502 81.4831344,63.2992676 C82.1451894,62.4398062 83.1332296,63.0433705 84.5450756,58.0711501 C85.1922558,57.1998393 85.8396881,56.3285284 86.4868682,55.4572175 C86.4868682,55.4572175 87.2338861,55.1584607 87.2338861,55.0838345 C88.3696659,53.7201422 87.5049101,52.9395929 86.8602511,52.6940324 C86.3872827,52.5198207 85.9143142,52.3453568 85.4413458,52.1711451 C85.4413458,52.1711451 83.7983099,50.5281089 83.7236838,50.5281089 C82.9428824,48.256801 79.087282,43.3614759 78.1970627,42.6863108 C77.3257519,42.1137567 77.681991,41.863406 76.7491641,41.4597693 C76.0586201,41.0760496 76.5336054,41.2376556 74.985617,40.6698916 C74.5270192,40.4858474 74.8535086,39.9823729 75.1452061,39.7521915 C78.1806752,38.099827 80.5868643,36.2634183 83.4995532,34.3962515 C83.6488055,34.2966659 83.7983099,34.1970803 83.9475622,34.0974947 C83.5991388,32.106035 83.2504632,30.1143232 82.9020398,28.1228635 C81.2839633,27.5503093 79.6656347,26.9775031 78.0475582,26.404949 C77.7929217,26.5791607 77.5995492,26.7536246 77.3754187,26.9278364 L77.3754187,26.9278364 Z" id="path4474" stroke="#000000" stroke-width="1.29999997" fill="#FFFFFF" transform="translate(77.378932, 44.997765) rotate(117.437622) translate(-77.378932, -44.997765) "></path>
        <path d="M61.3014096,43.0470368 C61.3167886,42.9857728 64.3399041,42.4331358 64.3399041,42.4331358 C64.3399041,42.4331358 63.9869425,43.5535367 63.9715635,43.5535367 L60.9638271,44.4588832 L61.3014096,43.0470368 L61.3014096,43.0470368 Z" id="path4476" fill="#F9DD16" transform="translate(62.651866, 43.446009) rotate(117.437622) translate(-62.651866, -43.446009) "></path>
        <path d="M76.341075,44.419971 C76.9242178,42.8699654 78.5430506,41.6426675 79.6304242,41.3040765" id="path4478" stroke="#000000" stroke-width="0.840384658" transform="translate(77.985750, 42.862024) rotate(117.437622) translate(-77.985750, -42.862024) "></path>
        <path d="M60.9825822,43.0312713 C61.1777195,42.9763102 62.0442401,42.7234384 62.2966076,42.6841084 C62.5658668,42.6210795 62.8338654,42.5504872 63.0927879,42.467037 C63.3915446,42.4060251 63.5786142,42.3498034 63.8889683,42.2933295 C64.1320075,42.200551 64.3722734,42.1370179 64.6322044,42.0762581 M60.4352398,44.9004551 C60.4604513,44.8666716 60.6664296,44.6846443 60.8144213,44.596656 C60.988633,44.5416948 61.5843816,44.2888231 61.8097728,44.2494931 C62.0502908,44.1864642 62.2895483,44.1158719 62.5207381,44.0324217 C62.7877283,43.9714097 62.9546287,43.915188 63.2319556,43.8587141 C63.4490269,43.7659357 63.6635771,43.7024026 63.8955233,43.6416428" id="path4480" stroke="#000000" stroke-width="0.929297321" transform="translate(62.533722, 43.488357) rotate(117.437622) translate(-62.533722, -43.488357) "></path>
        <path d="M74.2483524,46.44594 L74.2049886,46.44594 C74.3408787,46.44594 74.2574286,46.4345948 74.0746449,46.6630114 C74.0095991,46.8384837 73.4524242,47.2272457 73.0329042,47.2272457 C72.8304555,47.2489276 72.5193452,47.2706096 72.3166444,47.2706096 C72.25891,47.2706096 72.1792415,47.2272457 72.121255,47.2272457" id="path4482" stroke="#000000" stroke-width="0.840384658" transform="translate(73.196751, 46.858228) rotate(117.437622) translate(-73.196751, -46.858228) "></path>
        <path id="path4484" stroke="#000000" stroke-width="0.840384658" transform="translate(64.236291, 45.322942) rotate(117.437622) translate(-64.236291, -45.322942) "></path>
        <path d="M59.3865114,42.3982926 C59.409706,42.3645092 59.5982883,42.1824818 59.7336743,42.0944935 C59.8932633,42.0395324 60.438841,41.7866606 60.6453235,41.7473306 C60.8654202,41.6843017 61.0845084,41.6137094 61.2962854,41.5302592 C61.5408373,41.4692473 61.6936192,41.4130255 61.9474994,41.3565517 C62.1464184,41.2637732 62.3428163,41.2002401 62.5550974,41.1394803" id="path4486" stroke="#000000" stroke-width="0.840384658" transform="translate(60.970804, 41.768886) rotate(117.437622) translate(-60.970804, -41.768886) "></path>
        <path d="M64.0743682,46.9246879 C63.951588,47.2811791 64.1106728,47.3706801 64.1764749,47.5244705 C64.2909353,47.6734707 64.583137,47.9006267 65.0447603,48.045341 C65.2227537,48.0932429 65.3596524,48.1401364 65.5656306,48.2190485 C65.702025,48.2316543 65.7690877,48.2656898 65.8694297,48.3057762" id="path4488" stroke="#000000" stroke-width="0.840384658" transform="translate(64.949294, 47.615232) rotate(117.437622) translate(-64.949294, -47.615232) "></path>
        <path d="M85.304808,38.6104808 L85.3481718,38.6104808 C85.2120295,38.6104808 85.2937149,38.6193048 85.5218793,38.4367733 C85.6628118,38.2792011 85.7805497,38.2078525 85.912406,38.0462465" id="path4490" stroke="#000000" stroke-width="0.840384658" transform="translate(85.597199, 38.328398) rotate(117.437622) translate(-85.597199, -38.328398) "></path>
        <path d="M79.7784193,43.6888689 C79.8074126,43.6888689 82.3036069,42.4308129 82.5700929,42.1620579 C82.7589273,42.0251592 82.9018767,41.8806971 83.1315538,41.7251419 C83.2787892,41.6482467 83.3844255,41.5496695 83.5223326,41.4647066 C83.6370451,41.2985626 83.7868016,41.1982206 83.8694955,41.046195 C84.0227816,40.9133302 83.9569795,40.7693723 84.0812724,40.609279 C84.1400153,40.445404 84.2499376,40.1693376 84.285738,40.0193289" id="path4492" stroke="#000000" stroke-width="0.840384658" transform="translate(82.032079, 41.854099) rotate(117.437622) translate(-82.032079, -41.854099) "></path>
        <path d="M79.2388587,45.0199232 C79.2524729,45.1096763 79.1990245,45.3862469 79.2028062,45.5967633 C79.1942343,45.840811 78.8803506,46.5946361 78.500917,46.8197752" id="path4494" stroke="#000000" stroke-width="0.840384658" transform="translate(78.871001, 45.919849) rotate(117.437622) translate(-78.871001, -45.919849) "></path>
        <path d="M67.5106245,38.8180096 C67.5252472,38.8180096 67.9051851,38.9415462 68.5402637,39.1369357 C69.3046775,39.4117415 70.894517,40.4136482 71.0523413,40.5515553 C71.213443,40.6783693 71.5016109,40.7915692 71.6120374,40.9420821 C71.7847364,41.0913344 71.9112983,41.2635292 72.0461801,41.4195887 C72.2047606,41.6129612 72.3398945,41.7765841 72.4367068,41.9404591 C72.9195077,42.3319944 74.218154,45.0429915 74.259753,45.1960256 C74.3326144,45.3392271 74.4228717,45.5386504 74.4768244,45.6735322 C74.5731325,45.784463 74.6384303,45.9412788 74.7372596,46.1076749 C74.8280211,46.3234857 74.9296236,46.4218108 75.0413107,46.5851816 C75.1850165,46.6850193 75.3786411,46.8746101 75.5621811,46.9757083 C75.7578226,47.143113 75.9413626,47.2111841 76.0830514,47.3231234 C76.2877691,47.4101032 78.575464,48.8562373 78.6816046,48.9285944 C78.8906082,49.0965033 79.5287122,49.757802 79.0807032,50.2388382 C78.8906082,50.4014527 78.7194219,50.6167593 78.5570596,50.7087814 C78.3916719,50.8744212 78.1614906,50.9485432 77.9713956,51.0342624 C76.9407479,51.3388178 76.4158437,51.2296519 76.213143,51.2296519 L75.9960716,51.2296519" id="path4496" stroke="#000000" stroke-width="0.840384658" transform="translate(73.373682, 45.033347) rotate(117.437622) translate(-73.373682, -45.033347) "></path>
        <path d="M84.0564082,41.6082063 L84.099772,41.6082063 C83.9825384,41.6082063 84.0425418,41.605433 84.2734795,41.6515702 C84.4507166,41.7292217 84.7068659,41.8051085 84.8810776,41.8686415 C85.0658781,41.9278887 85.2983285,41.9563777 85.4019479,42.0423491 C85.6036402,42.0776452 85.7216302,42.1931141 85.8794545,42.3027843 C86.0614818,42.4671635 86.2003973,42.5733041 86.4003248,42.6933111 C86.636809,42.8564298 86.8238786,42.9373588 87.0515388,43.08409 C87.2824765,43.1274538 87.4524023,43.2053575 87.7025007,43.2141815 C87.9379765,43.2293085 88.1477365,43.2575454 88.3970786,43.2575454 L89.0049287,43.2575454 L88.3970786,43.2575454 L89.0049287,43.2575454" id="path4498" stroke="#000000" stroke-width="0.840384658" transform="translate(86.523156, 42.432860) rotate(117.437622) translate(-86.523156, -42.432860) "></path>
        <path d="M89.9221559,46.6496993 L89.8351761,46.6496993 C89.9957736,46.6496993 89.9506449,46.6439006 89.7050846,46.6930631 C89.4486832,46.8254237 89.107319,46.9255136 88.8801631,47.0402261 C88.6209885,47.1259453 88.342401,47.2209928 88.0988575,47.3442773 C87.8230433,47.5058833 87.568911,47.6372354 87.317552,47.8215318 C87.0677057,47.9554051 86.8221453,48.1202885 86.5796103,48.2556745 C86.3378317,48.3870267 86.1381563,48.5138407 85.9286484,48.6898173 C85.7536803,48.7868817 85.5159355,48.9242846 85.3207982,49.0803441 C85.1375104,49.1461462 85.0051498,49.276742 84.8869077,49.3843953 C84.6572306,49.5878524 84.5165502,49.6934888 84.2790575,49.9052657 C84.1542604,50.0232557 83.9883685,50.1619192 83.801551,50.3391564 C83.6054052,50.4700043 83.3931241,50.7216155 83.2373168,50.8600268 C83.1374791,50.9903705 82.9912522,51.1454215 82.8467901,51.2508057 C82.7356072,51.3907298 82.6067762,51.574774 82.4560112,51.6849485 C82.3665103,51.8180654 82.2099466,51.9915208 82.0652324,52.1624551 C81.9479988,52.3059088 81.7866449,52.4503709 81.6747057,52.5963457 C81.5239407,52.7632461 81.4084719,52.9314071 81.240563,53.0738523 C81.2105613,53.1741943 81.1475325,53.2261301 81.1104715,53.2909237" id="path4500" stroke="#000000" stroke-width="0.840384658" transform="translate(85.519996, 49.970206) rotate(117.437622) translate(-85.519996, -49.970206) "></path>
        <path d="M81.3504595,41.2799278 C82.0014214,41.2365639 83.086526,41.4319534 83.1082079,41.4319534 C83.10846,41.4319534 84.5407274,41.4102714 84.5407274,41.4102714 C85.2932918,41.3376622 85.4594358,41.0484858 85.5824681,40.845785 C85.8645852,40.4118944 86.0599747,40.2598688 86.277046,39.9343878 C86.6242089,39.6739525 87.1019675,40.2815507 87.1236494,40.2815507 C88.3388455,41.4319534 87.3621506,42.8425391 87.2971048,42.885903 C86.6895067,43.4430781 86.5591631,43.4791306 86.1903183,43.1246563 C85.8212214,42.6905135 85.7128118,42.4953762 85.4090128,42.3433506 C84.8230966,42.0612334 83.6076484,42.2783048 83.5857144,42.2783048 C83.5640325,42.2783048 82.9564344,42.5170581 82.9564344,42.5170581 C82.6596946,42.6254678 82.4716166,42.8861551 81.9580575,42.9726307 C81.4371872,43.0089353 81.2634797,42.9582601 81.0030445,42.5387401 C80.6558816,41.9961877 80.829337,41.3449735 81.3504595,41.2799278 L81.3504595,41.2799278 Z" id="path4502" stroke="#000000" stroke-width="0.840384658" fill="#F9DD16" transform="translate(84.276079, 41.612234) rotate(117.437622) translate(-84.276079, -41.612234) "></path>
        <path d="M83.8447593,54.5986354 C83.6059141,54.3817228 88.3373791,56.313053 88.9883267,56.3349856 C89.8783295,56.0094593 93.5462196,52.9059407 93.5462196,52.9059407 C93.5824242,53.2097442 93.7124458,53.9982692 94.0668308,54.1648103 C92.6490809,55.3151711 91.3612477,56.4218765 89.9433928,57.5720275 C90.0447656,59.3951637 89.7119984,61.3268086 90.6378909,63.3669623 C90.6378909,63.3669623 89.5311854,63.3884752 89.5311854,63.3669623 C88.5545016,62.3902785 88.2070426,57.6807461 88.2070426,57.6807461 C86.6517153,56.9861431 85.0961781,56.3134727 83.5408508,55.6188697 C83.7652142,55.4740514 83.9460272,55.0257444 83.8447593,54.5986354 L83.8447593,54.5986354 Z" id="path4504" stroke="#000000" stroke-width="0.840383253" fill-opacity="0.98742095" fill="#F9DD16"></path>
        <path d="M88.346404,59.426436 C88.4220663,59.371552 87.4929206,59.8580574 87.2542853,59.9802085 C82.955806,62.2731646 80.7437593,65.6086023 80.6058671,65.7346362 C80.531569,65.876726 80.3948312,66.0662491 80.2696369,66.2518893 C80.1688937,66.4075165 80.0242853,66.5686006 79.9289991,66.7260117 C79.7972984,66.9083988 79.5204646,67.2685556 79.369245,67.4284853 C79.3503556,67.5315372 79.4409195,67.3932252 79.4113262,67.4617515" id="path4506" stroke="#000000" stroke-width="0.840383253"></path>
        <path d="M91.2834865,56.7013338 C91.2000586,56.6591477 92.0577396,57.262872 92.2754917,57.4191288 C96.2806615,60.1928185 100.258547,60.6343044 100.433693,60.6992627 C100.594042,60.7003121 100.825122,60.7352574 101.047387,60.7617025 C101.231977,60.7800671 101.441229,60.8349512 101.624876,60.8477539 C101.847245,60.881335 102.294188,60.962769 102.505644,61.0241594 C102.605757,60.9937266 102.441525,60.9766212 102.515928,60.9714791" id="path4508" stroke="#000000" stroke-width="0.840383253"></path>
    </g>
</svg>