<?xml version="1.0" ?><svg height="120px" version="1.1" viewBox="0 0 180 120" width="180px" xmlns="http://www.w3.org/2000/svg" xmlns:sketch="http://www.bohemiancoding.com/sketch/ns" xmlns:xlink="http://www.w3.org/1999/xlink"><title/><defs/><g fill="none" fill-rule="evenodd" id="Africa,-Middle-East-and-India" stroke="none" stroke-width="1"><g id="Africa,-Middle-Eest-and-India" transform="translate(-200.000000, -601.000000)"><g id="Mali" transform="translate(200.000000, 601.000000)"><rect d="M-2.84217094e-14,0 L-2.84217094e-14,120 L180,120 L180,0 L-2.84217094e-14,0 Z M-2.84217094e-14,0" fill="#CA4638" height="120" id="Rectangle-3-copy-2" width="180" x="-2.84225816e-14" y="0"/><rect d="M0,0 L0,120 L120,120 L120,0 L0,0 Z M0,0" fill="#E5B731" height="120" id="Rectangle-3-copy-3" width="120" x="0" y="0"/><rect d="M0.00276191524,-1.42108547e-14 L0.00276191524,120 L60.0027619,120 L60.0027619,-1.42108547e-14 L0.00276191524,-1.42108547e-14 Z M0.00276191524,-1.42108547e-14" fill="#479951" height="120" id="Rectangle-3" width="60" x="0.00276191524" y="-1.42112908e-14"/></g></g></g></svg>