<?xml version="1.0" ?><svg height="120px" version="1.1" viewBox="0 0 180 120" width="180px" xmlns="http://www.w3.org/2000/svg" xmlns:sketch="http://www.bohemiancoding.com/sketch/ns" xmlns:xlink="http://www.w3.org/1999/xlink"><title/><defs/><g fill="none" fill-rule="evenodd" id="Asia-Pacific" stroke="none" stroke-width="1"><g id="VN" transform="translate(-800.000000, -801.000000)"><g transform="translate(800.000000, 801.000000)"><rect d="M0,0 L0,120 L180,120 L180,0 L0,0 Z M0,0" fill="#CA4638" height="120" id="Rectangle-126" width="180" x="0" y="0"/><polygon d="M89.9999969,78.0442378 L71.4710532,87.4078928 L75.0097657,67.575355 L60.0195332,53.5298742 L80.7355276,50.6363432 L89.9999979,32.5921068 L99.2644739,50.6363477 L119.980467,53.5298886 L104.990228,67.5753588 L108.528941,87.4078932 L89.9999969,78.0442378 Z M89.9999969,78.0442378" fill="#F0EB4E" id="Star-1" points="89.9999969 78.0442378 71.4710532 87.4078928 75.0097657 67.575355 60.0195332 53.5298742 80.7355276 50.6363432 89.9999979 32.5921068 99.2644739 50.6363477 119.980467 53.5298886 104.990228 67.5753588 108.528941 87.4078932 "/></g></g></g></svg>