<?xml version="1.0" ?><svg height="120px" version="1.1" viewBox="0 0 180 120" width="180px" xmlns="http://www.w3.org/2000/svg" xmlns:sketch="http://www.bohemiancoding.com/sketch/ns" xmlns:xlink="http://www.w3.org/1999/xlink"><title/><defs/><g fill="none" fill-rule="evenodd" id="Page-1" stroke="none" stroke-width="1"><g id="rectangle_bosnia_and_herzegovina" transform="translate(0.000000, -5.000000)"><rect fill="#346DA6" height="120" id="Rectangle-57" width="180" x="0" y="5"/><path d="M35,5 L148,5 L148,125 L35,5 L35,5 L35,5 L35,5 Z" fill="#E5B731" id="Path-1902"/><path d="M15.7745713,5 L11,5.72949021 L14.7499998,9.5729489 L13.8647453,14.9999999 L18.4999992,12.4376938 L23.1352533,15 L22.2499987,9.57294997 L26,5.72949417 L21.2254198,5 L15.7745713,5 Z M125.482778,125 L126.499999,124.437694 L127.517221,125 L130.809016,125 L130.249999,121.57295 L134,117.729494 L128.817628,116.937694 L126.499999,112 L124.182373,116.937693 L119,117.72949 L122.75,121.572949 L122.190983,125 L125.482778,125 Z M32.4999992,25.4376938 L27.8647453,27.9999999 L28.7499998,22.5729489 L25,18.7294902 L30.1823729,17.9376934 L32.4999995,13 L34.8176275,17.9376946 L40,18.7294942 L36.2499987,22.57295 L37.1352533,28 L32.4999992,25.4376938 Z M45.4999992,41.4376936 L40.8647453,43.9999994 L41.7499998,38.5729488 L38,34.7294901 L43.1823729,33.9376933 L45.4999995,29 L47.8176275,33.9376945 L53,34.7294941 L49.2499987,38.5729498 L50.1352533,44 L45.4999992,41.4376936 Z M59.4999992,54.4376936 L54.8647453,56.9999994 L55.7499998,51.5729486 L52,47.7294899 L57.1823729,46.9376933 L59.4999995,42 L61.8176275,46.9376945 L67,47.729494 L63.2499987,51.5729498 L64.1352533,57 L59.4999992,54.4376936 Z M72.4999993,69.4376936 L67.8647453,71.9999994 L68.7499998,66.5729486 L65,62.7294899 L70.1823729,61.9376933 L72.4999996,57 L74.8176276,61.9376945 L80,62.729494 L76.2499988,66.5729498 L77.1352534,72 L72.4999993,69.4376936 Z M85.4999994,83.4376936 L80.8647454,85.9999994 L81.75,80.5729486 L78,76.7294899 L83.182373,75.9376933 L85.4999994,71 L87.8176276,75.9376945 L93,76.729494 L89.2499988,80.5729498 L90.1352534,86 L85.4999994,83.4376936 Z M99.4999992,97.4376936 L94.8647453,99.9999994 L95.7499998,94.5729486 L92,90.7294899 L97.1823729,89.9376933 L99.4999995,85 L101.817627,89.9376945 L107,90.729494 L103.249999,94.5729498 L104.135253,100 L99.4999992,97.4376936 Z M112.499999,110.437694 L107.864745,112.999999 L108.75,107.572949 L105,103.72949 L110.182373,102.937693 L112.5,98 L114.817628,102.937694 L120,103.729494 L116.249999,107.57295 L117.135253,113 L112.499999,110.437694 Z" fill="#FFFFFF" id="Star-1"/></g></g></svg>