<?xml version="1.0" encoding="UTF-8" standalone="no"?>
<svg width="180px" height="120px" viewBox="0 0 180 120" version="1.1" xmlns="http://www.w3.org/2000/svg" xmlns:xlink="http://www.w3.org/1999/xlink">
    <!-- Generator: Sketch 40.3 (33839) - http://www.bohemiancoding.com/sketch -->
    <title>icon-flag-vg</title>
    <desc>Created with Sketch.</desc>
    <defs>
        <linearGradient x1="30.719992%" y1="71.3141981%" x2="-84.7856135%" y2="34.9071193%" id="linearGradient-1">
            <stop stop-color="#FF0000" offset="0%"></stop>
            <stop stop-color="#FFFF00" offset="100%"></stop>
        </linearGradient>
    </defs>
    <g id="Page-1" stroke="none" stroke-width="1" fill="none" fill-rule="evenodd">
        <rect id="Rectangle-path" fill="#00247D" x="0" y="0" width="180" height="120"></rect>
        <path d="M116.439,21.6102 L153.99915,21.470829 L153.92946,54.919629 C153.92946,54.919629 155.253465,60.006639 138.18066,67.741659 C144.31293,67.1145 151.00269,60.564114 151.00269,60.564114 C151.00269,60.564114 153.720405,57.079899 155.044425,59.031054 C156.36843,60.982209 157.62276,61.957809 158.598345,62.724354 C159.573945,63.4908855 160.340445,65.581434 158.877075,67.114494 C157.413705,68.647554 155.114085,68.856624 154.486935,66.9751215 C153.511335,67.462929 147.518415,74.7101565 135.253935,75.0585765 C122.78034,74.849517 115.951185,66.9054465 115.951185,66.9054465 C115.951185,66.9054465 114.278745,69.5535015 111.909465,67.462941 C109.60986,64.745211 111.351985,63.003081 111.351985,63.003081 C111.351985,63.003081 113.303155,61.888137 113.860645,61.121586 C114.766552,60.076308 115.045291,58.682616 116.57836,58.682616 C118.390165,58.82199 119.08702,60.285366 119.08702,60.285366 C119.08702,60.285366 125.35867,66.905466 132.118105,67.741656 C116.857705,60.424206 116.300155,55.894656 116.369905,54.779706 L116.439592,21.609756 L116.439,21.6102 Z" id="Shape" fill="#FFFFFF"></path>
        <path d="M117.34485,22.51605 L153.1629,22.3069935 L153.1629,54.5014935 C153.232575,58.6825935 146.19441,62.9333685 135.1842,68.3687835 C123.82554,62.5152435 117.2751,58.9613385 117.2055,54.4318185 L117.344868,22.5161685 L117.34485,22.51605 Z" id="Shape" stroke="#000000" stroke-width="0.2" fill="#006129"></path>
        <polyline id="Shape" stroke="#F7C600" stroke-width="0.2" points="122.2191 27.27435 124.33335 24.169155 126.45789 27.280845"></polyline>
        <path d="M124.75785,26.1135 C124.75793,26.3454465 124.569918,26.533518 124.337966,26.533518 C124.106013,26.533518 123.918,26.3454465 123.91808,26.1135 C123.918,25.8815535 124.106013,25.6934805 124.337966,25.6934805 C124.569918,25.6934805 124.75793,25.8815535 124.75785,26.1135 L124.75785,26.1135 Z" id="Shape" stroke="#000000" stroke-width="0.2" fill="#F7C600"></path>
        <path d="M122.6166,29.56785 L125.89434,29.57718 C125.89434,29.57718 125.945733,29.1517905 125.551968,28.893246 C127.268778,28.657167 126.822774,27.142836 128.260593,27.057006 C128.539575,27.0999225 127.50949,27.700809 127.50949,27.700809 C127.50949,27.700809 126.6426,28.312566 127.037368,28.6235865 C127.350782,28.8705135 127.48803,28.473387 127.530953,28.1729445 C127.573872,27.8725005 128.925852,27.679362 128.732715,26.820972 C128.410813,26.1127815 126.52233,27.2930625 126.52233,27.2930625 L125.175006,27.2855925 C125.090998,27.1343745 124.719685,26.5279845 124.336223,26.5251765 C123.881289,26.541777 123.560838,27.293067 123.560838,27.293067 L121.607973,27.293067 L120.51351,27.293067 C120.51351,27.293067 120.409032,28.0749525 121.95416,28.2251745 C122.302036,28.679508 122.571703,28.806447 122.87412,28.924056 C122.672508,29.0920785 122.615751,29.295342 122.616599,29.5678605 L122.6166,29.56785 Z" id="Shape" stroke="#000000" stroke-width="0.2" fill="#F7C600"></path>
        <path id="Shape" stroke="#000000" stroke-width="0.2" fill="#F7C600"></path>
        <path d="M121.60215,27.29295 C121.60215,27.29295 121.82056,28.5698445 122.828615,28.872255" id="Shape" stroke="#000000" stroke-width="0.2" fill="#F7C600"></path>
        <path d="M121.43415,27.27615 C121.534955,26.788932 121.719767,26.7049095 121.921377,26.083278 C121.95498,25.478451 121.43415,25.5456465 121.585359,25.159233 C121.854173,24.7392105 121.719767,24.3359925 121.21574,24.0167745 C121.316546,24.5712105 120.560505,25.0920375 120.560505,25.5456495 C120.560505,25.999281 120.946926,25.8984765 120.896523,26.587326 C120.930126,26.9905215 120.795719,26.8897395 120.762117,27.276153 L121.43415,27.276153 L121.43415,27.27615 Z" id="Shape" stroke="#000000" stroke-width="0.2" fill="url(#linearGradient-1)"></path>
        <path d="M124.72425,24.24855 C124.724323,24.461931 124.551357,24.63495 124.337967,24.63495 C124.124578,24.63495 123.951612,24.461931 123.951685,24.24855 C123.951612,24.035169 124.124578,23.86215 124.337967,23.86215 C124.551357,23.86215 124.724323,24.035169 124.72425,24.24855 L124.72425,24.24855 Z" id="Shape" stroke="#000000" stroke-width="0.2" fill="#F7C600"></path>
        <polyline id="Shape" stroke="#F7C600" stroke-width="0.2" points="122.10327 33.4699522 124.21752 30.3647572 126.34206 33.4764472"></polyline>
        <path d="M124.64202,32.3091022 C124.642099,32.5410487 124.454088,32.7291202 124.222135,32.7291202 C123.990183,32.7291202 123.80217,32.5410487 123.802249,32.3091022 C123.80217,32.0771557 123.990183,31.8890828 124.222135,31.8890828 C124.454088,31.8890828 124.642099,32.0771557 124.64202,32.3091022 L124.64202,32.3091022 Z" id="Shape" stroke="#000000" stroke-width="0.2" fill="#F7C600"></path>
        <path d="M122.50077,35.7634523 L125.77851,35.7727822 C125.77851,35.7727822 125.829903,35.3473927 125.436138,35.0888482 C127.152948,34.8527693 126.706944,33.3384382 128.144763,33.2526082 C128.423745,33.2955247 127.39366,33.8964112 127.39366,33.8964112 C127.39366,33.8964112 126.52677,34.5081682 126.921538,34.8191887 C127.234951,35.0661157 127.3722,34.6689892 127.415122,34.3685468 C127.458042,34.0681027 128.810022,33.8749642 128.616885,33.0165742 C128.294983,32.3083837 126.4065,33.4886647 126.4065,33.4886647 L125.059176,33.4811947 C124.975168,33.3299768 124.603855,32.7235867 124.220392,32.7207787 C123.765459,32.7373792 123.445008,33.4886692 123.445008,33.4886692 L121.492143,33.4886692 L120.39768,33.4886692 C120.39768,33.4886692 120.293202,34.2705547 121.838329,34.4207767 C122.186206,34.8751102 122.455873,35.0020492 122.75829,35.1196583 C122.556678,35.2876807 122.499921,35.4909442 122.500768,35.7634628 L122.50077,35.7634523 Z" id="Shape" stroke="#000000" stroke-width="0.2" fill="#F7C600"></path>
        <path id="Shape" stroke="#000000" stroke-width="0.2" fill="#F7C600"></path>
        <path d="M121.48632,33.4885522 C121.48632,33.4885522 121.70473,34.7654467 122.712784,35.0678572" id="Shape" stroke="#000000" stroke-width="0.2" fill="#F7C600"></path>
        <path d="M121.31832,33.4717523 C121.419124,32.9845343 121.603936,32.9005117 121.805547,32.2788803 C121.83915,31.6740532 121.31832,31.7412487 121.469529,31.3548352 C121.738342,30.9348127 121.603936,30.5315947 121.099909,30.2123767 C121.200715,30.7668127 120.444675,31.2876397 120.444675,31.7412517 C120.444675,32.1948832 120.831096,32.0940788 120.780693,32.7829282 C120.814296,33.1861238 120.679888,33.0853417 120.646287,33.4717553 L121.31832,33.4717553 L121.31832,33.4717523 Z" id="Shape" stroke="#000000" stroke-width="0.2" fill="url(#linearGradient-1)"></path>
        <path d="M124.60842,30.4441522 C124.608493,30.6575332 124.435527,30.8305522 124.222137,30.8305522 C124.008748,30.8305522 123.835782,30.6575332 123.835855,30.4441522 C123.835782,30.2307713 124.008748,30.0577523 124.222137,30.0577523 C124.435527,30.0577523 124.608493,30.2307713 124.60842,30.4441522 L124.60842,30.4441522 Z" id="Shape" stroke="#000000" stroke-width="0.2" fill="#F7C600"></path>
        <polyline id="Shape" stroke="#F7C600" stroke-width="0.2" points="122.05572 39.5763022 124.16997 36.4711072 126.29451 39.5827972"></polyline>
        <path d="M124.59447,38.4154523 C124.594549,38.6473988 124.406538,38.8354703 124.174585,38.8354703 C123.942633,38.8354703 123.75462,38.6473988 123.754699,38.4154523 C123.75462,38.1835058 123.942633,37.9954328 124.174585,37.9954328 C124.406538,37.9954328 124.594549,38.1835058 124.59447,38.4154523 L124.59447,38.4154523 Z" id="Shape" stroke="#000000" stroke-width="0.2" fill="#F7C600"></path>
        <path d="M122.45322,41.8698022 L125.73096,41.8791322 C125.73096,41.8791322 125.782353,41.4537427 125.388588,41.1951982 C127.105398,40.9591192 126.659394,39.4447882 128.097213,39.3589582 C128.376195,39.4018747 127.34611,40.0027612 127.34611,40.0027612 C127.34611,40.0027612 126.47922,40.6145182 126.873988,40.9255387 C127.187401,41.1724657 127.32465,40.7753392 127.367572,40.4748967 C127.410492,40.1744527 128.762472,39.9813142 128.569335,39.1229242 C128.247433,38.4147337 126.35895,39.5950147 126.35895,39.5950147 L125.011626,39.5875447 C124.927618,39.4363267 124.556305,38.8299367 124.172842,38.8271287 C123.717909,38.8437292 123.397458,39.5950192 123.397458,39.5950192 L121.444593,39.5950192 L120.35013,39.5950192 C120.35013,39.5950192 120.245652,40.3769047 121.790779,40.5271267 C122.138656,40.9814602 122.408323,41.1083992 122.71074,41.2260082 C122.509128,41.3940307 122.452371,41.5972942 122.453218,41.8698127 L122.45322,41.8698022 Z" id="Shape" stroke="#000000" stroke-width="0.2" fill="#F7C600"></path>
        <path id="Shape" stroke="#000000" stroke-width="0.2" fill="#F7C600"></path>
        <path d="M121.43877,39.5949022 C121.43877,39.5949022 121.65718,40.8717967 122.665234,41.1742072" id="Shape" stroke="#000000" stroke-width="0.2" fill="#F7C600"></path>
        <path d="M121.27077,39.5781023 C121.371574,39.0908843 121.556386,39.0068617 121.757997,38.3852302 C121.7916,37.7804032 121.27077,37.8475987 121.421979,37.4611852 C121.690792,37.0411627 121.556386,36.6379447 121.052359,36.3187267 C121.153165,36.8731627 120.397125,37.3939897 120.397125,37.8476017 C120.397125,38.3012332 120.783546,38.2004288 120.733143,38.8892782 C120.766746,39.2924737 120.632338,39.1916917 120.598737,39.5781053 L121.27077,39.5781053 L121.27077,39.5781023 Z" id="Shape" stroke="#000000" stroke-width="0.2" fill="url(#linearGradient-1)"></path>
        <path d="M124.56087,36.5505022 C124.560943,36.7638832 124.387977,36.9369022 124.174587,36.9369022 C123.961198,36.9369022 123.788232,36.7638832 123.788305,36.5505022 C123.788232,36.3371212 123.961198,36.1641022 124.174587,36.1641022 C124.387977,36.1641022 124.560943,36.3371212 124.56087,36.5505022 L124.56087,36.5505022 Z" id="Shape" stroke="#000000" stroke-width="0.2" fill="#F7C600"></path>
        <polyline id="Shape" stroke="#F7C600" stroke-width="0.2" points="126.06312 46.1892015 128.17737 43.0840065 130.30191 46.1956965"></polyline>
        <path d="M128.60187,45.0283515 C128.601949,45.260298 128.413938,45.4483695 128.181985,45.4483695 C127.950033,45.4483695 127.76202,45.260298 127.762099,45.0283515 C127.76202,44.796405 127.950033,44.608332 128.181985,44.608332 C128.413938,44.608332 128.601949,44.796405 128.60187,45.0283515 L128.60187,45.0283515 Z" id="Shape" stroke="#000000" stroke-width="0.2" fill="#F7C600"></path>
        <path d="M126.46062,48.4827015 L129.73836,48.4920315 C129.73836,48.4920315 129.789753,48.066642 129.395988,47.8080975 C131.112798,47.5720185 130.666794,46.0576875 132.104613,45.9718575 C132.383595,46.014774 131.35351,46.6156605 131.35351,46.6156605 C131.35351,46.6156605 130.48662,47.2274175 130.881388,47.538438 C131.194801,47.785365 131.33205,47.3882385 131.374972,47.087796 C131.417892,46.787352 132.769872,46.5942135 132.576735,45.7358235 C132.254833,45.027633 130.36635,46.207914 130.36635,46.207914 L129.019026,46.200444 C128.935018,46.049226 128.563705,45.442836 128.180242,45.440028 C127.725309,45.4566285 127.404858,46.2079185 127.404858,46.2079185 L125.451993,46.2079185 L124.35753,46.2079185 C124.35753,46.2079185 124.253052,46.989804 125.798179,47.140026 C126.146056,47.5943595 126.415723,47.7212985 126.71814,47.8389075 C126.516528,48.00693 126.459771,48.2101935 126.460618,48.482712 L126.46062,48.4827015 Z" id="Shape" stroke="#000000" stroke-width="0.2" fill="#F7C600"></path>
        <path id="Shape" stroke="#000000" stroke-width="0.2" fill="#F7C600"></path>
        <path d="M125.44617,46.2078015 C125.44617,46.2078015 125.66458,47.484696 126.672634,47.7871065" id="Shape" stroke="#000000" stroke-width="0.2" fill="#F7C600"></path>
        <path d="M125.27817,46.1910015 C125.378974,45.7037835 125.563786,45.619761 125.765397,44.9981295 C125.799,44.3933025 125.27817,44.460498 125.429379,44.0740845 C125.698192,43.654062 125.563786,43.250844 125.059759,42.931626 C125.160565,43.486062 124.404525,44.006889 124.404525,44.460501 C124.404525,44.9141325 124.790946,44.813328 124.740543,45.5021775 C124.774146,45.905373 124.639738,45.804591 124.606137,46.1910045 L125.27817,46.1910045 L125.27817,46.1910015 Z" id="Shape" stroke="#000000" stroke-width="0.2" fill="url(#linearGradient-1)"></path>
        <path d="M128.56827,43.1634015 C128.568343,43.3767825 128.395377,43.5498015 128.181987,43.5498015 C127.968598,43.5498015 127.795632,43.3767825 127.795705,43.1634015 C127.795632,42.9500205 127.968598,42.7770015 128.181987,42.7770015 C128.395377,42.7770015 128.568343,42.9500205 128.56827,43.1634015 L128.56827,43.1634015 Z" id="Shape" stroke="#000000" stroke-width="0.2" fill="#F7C600"></path>
        <polyline id="Shape" stroke="#F7C600" stroke-width="0.2" points="121.53297 51.5988015 123.64722 48.4936065 125.77176 51.6052965"></polyline>
        <path d="M124.07172,50.4379515 C124.071799,50.669898 123.883788,50.8579695 123.651835,50.8579695 C123.419883,50.8579695 123.23187,50.669898 123.231949,50.4379515 C123.23187,50.206005 123.419883,50.017932 123.651835,50.017932 C123.883788,50.017932 124.071799,50.206005 124.07172,50.4379515 L124.07172,50.4379515 Z" id="Shape" stroke="#000000" stroke-width="0.2" fill="#F7C600"></path>
        <path d="M121.93047,53.8923015 L125.20821,53.9016315 C125.20821,53.9016315 125.259603,53.476242 124.865838,53.2176975 C126.582648,52.9816185 126.136644,51.4672875 127.574463,51.3814575 C127.853445,51.424374 126.82336,52.0252605 126.82336,52.0252605 C126.82336,52.0252605 125.95647,52.6370175 126.351238,52.948038 C126.664651,53.194965 126.8019,52.7978385 126.844822,52.497396 C126.887742,52.196952 128.239722,52.0038135 128.046585,51.1454235 C127.724683,50.437233 125.8362,51.617514 125.8362,51.617514 L124.488876,51.610044 C124.404868,51.458826 124.033555,50.852436 123.650092,50.849628 C123.195159,50.8662285 122.874708,51.6175185 122.874708,51.6175185 L120.921843,51.6175185 L119.82738,51.6175185 C119.82738,51.6175185 119.722902,52.399404 121.268029,52.549626 C121.615906,53.0039595 121.885573,53.1308985 122.18799,53.2485075 C121.986378,53.41653 121.929621,53.6197935 121.930468,53.892312 L121.93047,53.8923015 Z" id="Shape" stroke="#000000" stroke-width="0.2" fill="#F7C600"></path>
        <path id="Shape" stroke="#000000" stroke-width="0.2" fill="#F7C600"></path>
        <path d="M120.91602,51.6174015 C120.91602,51.6174015 121.13443,52.894296 122.142484,53.1967065" id="Shape" stroke="#000000" stroke-width="0.2" fill="#F7C600"></path>
        <path d="M120.74802,51.6006015 C120.848824,51.1133835 121.033636,51.029361 121.235247,50.4077295 C121.26885,49.8029025 120.74802,49.870098 120.899229,49.4836845 C121.168042,49.063662 121.033636,48.660444 120.529609,48.341226 C120.630415,48.895662 119.874375,49.416489 119.874375,49.870101 C119.874375,50.3237325 120.260796,50.222928 120.210393,50.9117775 C120.243996,51.314973 120.109588,51.214191 120.075987,51.6006045 L120.74802,51.6006045 L120.74802,51.6006015 Z" id="Shape" stroke="#000000" stroke-width="0.2" fill="url(#linearGradient-1)"></path>
        <path d="M124.03812,48.5730015 C124.038193,48.7863825 123.865227,48.9594015 123.651837,48.9594015 C123.438448,48.9594015 123.265482,48.7863825 123.265555,48.5730015 C123.265482,48.3596205 123.438448,48.1866015 123.651837,48.1866015 C123.865227,48.1866015 124.038193,48.3596205 124.03812,48.5730015 L124.03812,48.5730015 Z" id="Shape" stroke="#000000" stroke-width="0.2" fill="#F7C600"></path>
        <polyline id="Shape" stroke="#F7C600" stroke-width="0.2" points="121.65177 57.9903015 123.76602 54.8851065 125.89056 57.9967965"></polyline>
        <path d="M124.19052,56.8294515 C124.190599,57.061398 124.002588,57.2494695 123.770635,57.2494695 C123.538683,57.2494695 123.35067,57.061398 123.350749,56.8294515 C123.35067,56.597505 123.538683,56.409432 123.770635,56.409432 C124.002588,56.409432 124.190599,56.597505 124.19052,56.8294515 L124.19052,56.8294515 Z" id="Shape" stroke="#000000" stroke-width="0.2" fill="#F7C600"></path>
        <path d="M122.04927,60.2838015 L125.32701,60.2931315 C125.32701,60.2931315 125.378403,59.867742 124.984638,59.6091975 C126.701448,59.3731185 126.255444,57.8587875 127.693263,57.7729575 C127.972245,57.815874 126.94216,58.4167605 126.94216,58.4167605 C126.94216,58.4167605 126.07527,59.0285175 126.470038,59.339538 C126.783451,59.586465 126.9207,59.1893385 126.963622,58.888896 C127.006542,58.588452 128.358522,58.3953135 128.165385,57.5369235 C127.843483,56.828733 125.955,58.009014 125.955,58.009014 L124.607676,58.001544 C124.523668,57.850326 124.152355,57.243936 123.768892,57.241128 C123.313959,57.2577285 122.993508,58.0090185 122.993508,58.0090185 L121.040643,58.0090185 L119.94618,58.0090185 C119.94618,58.0090185 119.841702,58.790904 121.386829,58.941126 C121.734706,59.3954595 122.004373,59.5223985 122.30679,59.6400075 C122.105178,59.80803 122.048421,60.0112935 122.049268,60.283812 L122.04927,60.2838015 Z" id="Shape" stroke="#000000" stroke-width="0.2" fill="#F7C600"></path>
        <path id="Shape" stroke="#000000" stroke-width="0.2" fill="#F7C600"></path>
        <path d="M121.03482,58.0089015 C121.03482,58.0089015 121.25323,59.285796 122.261284,59.5882065" id="Shape" stroke="#000000" stroke-width="0.2" fill="#F7C600"></path>
        <path d="M120.86682,57.9921015 C120.967624,57.5048835 121.152436,57.420861 121.354047,56.7992295 C121.38765,56.1944025 120.86682,56.261598 121.018029,55.8751845 C121.286842,55.455162 121.152436,55.051944 120.648409,54.732726 C120.749215,55.287162 119.993175,55.807989 119.993175,56.261601 C119.993175,56.7152325 120.379596,56.614428 120.329193,57.3032775 C120.362796,57.706473 120.228388,57.605691 120.194787,57.9921045 L120.86682,57.9921045 L120.86682,57.9921015 Z" id="Shape" stroke="#000000" stroke-width="0.2" fill="url(#linearGradient-1)"></path>
        <path d="M124.15692,54.9645015 C124.156993,55.1778825 123.984027,55.3509015 123.770637,55.3509015 C123.557248,55.3509015 123.384282,55.1778825 123.384355,54.9645015 C123.384282,54.7511205 123.557248,54.5781015 123.770637,54.5781015 C123.984027,54.5781015 124.156993,54.7511205 124.15692,54.9645015 L124.15692,54.9645015 Z" id="Shape" stroke="#000000" stroke-width="0.2" fill="#F7C600"></path>
        <polyline id="Shape" stroke="#F7C600" stroke-width="0.2" points="144.16107 27.3751522 146.27532 24.2699572 148.39986 27.3816472"></polyline>
        <path d="M146.69982,26.2143022 C146.6999,26.4462487 146.511888,26.6343202 146.279936,26.6343202 C146.047983,26.6343202 145.85997,26.4462487 145.86005,26.2143022 C145.85997,25.9823557 146.047983,25.7942827 146.279936,25.7942827 C146.511888,25.7942827 146.6999,25.9823557 146.69982,26.2143022 L146.69982,26.2143022 Z" id="Shape" stroke="#000000" stroke-width="0.2" fill="#F7C600"></path>
        <path d="M144.55857,29.6686522 L147.83631,29.6779822 C147.83631,29.6779822 147.887703,29.2525927 147.493938,28.9940482 C149.210748,28.7579692 148.764744,27.2436382 150.202563,27.1578082 C150.481545,27.2007247 149.45146,27.8016112 149.45146,27.8016112 C149.45146,27.8016112 148.58457,28.4133682 148.979339,28.7243887 C149.292752,28.9713157 149.43,28.5741892 149.472923,28.2737467 C149.515842,27.9733027 150.867822,27.7801642 150.674685,26.9217742 C150.352783,26.2135837 148.4643,27.3938647 148.4643,27.3938647 L147.116976,27.3863947 C147.032968,27.2351767 146.661655,26.6287867 146.278192,26.6259787 C145.823259,26.6425792 145.502808,27.3938692 145.502808,27.3938692 L143.549943,27.3938692 L142.45548,27.3938692 C142.45548,27.3938692 142.351002,28.1757547 143.89613,28.3259767 C144.244007,28.7803102 144.513674,28.9072492 144.81609,29.0248582 C144.614478,29.1928807 144.557721,29.3961442 144.558569,29.6686627 L144.55857,29.6686522 Z" id="Shape" stroke="#000000" stroke-width="0.2" fill="#F7C600"></path>
        <path id="Shape" stroke="#000000" stroke-width="0.2" fill="#F7C600"></path>
        <path d="M143.54412,27.3937522 C143.54412,27.3937522 143.76253,28.6706467 144.770585,28.9730572" id="Shape" stroke="#000000" stroke-width="0.2" fill="#F7C600"></path>
        <path d="M143.37612,27.3769522 C143.476925,26.8897342 143.661737,26.8057117 143.863347,26.1840802 C143.89695,25.5792532 143.37612,25.6464487 143.527329,25.2600352 C143.796143,24.8400127 143.661737,24.4367947 143.15771,24.1175767 C143.258516,24.6720127 142.502475,25.1928397 142.502475,25.6464517 C142.502475,26.1000832 142.888896,25.9992787 142.838493,26.6881282 C142.872096,27.0913237 142.737689,26.9905417 142.704087,27.3769552 L143.37612,27.3769552 L143.37612,27.3769522 Z" id="Shape" stroke="#000000" stroke-width="0.2" fill="url(#linearGradient-1)"></path>
        <path d="M146.66622,24.3493522 C146.666293,24.5627332 146.493327,24.7357522 146.279937,24.7357522 C146.066549,24.7357522 145.893582,24.5627332 145.893656,24.3493522 C145.893582,24.1359712 146.066549,23.9629522 146.279937,23.9629522 C146.493327,23.9629522 146.666293,24.1359712 146.66622,24.3493522 L146.66622,24.3493522 Z" id="Shape" stroke="#000000" stroke-width="0.2" fill="#F7C600"></path>
        <polyline id="Shape" stroke="#F7C600" stroke-width="0.2" points="143.95947 33.4570522 146.07372 30.3518572 148.19826 33.4635472"></polyline>
        <path d="M146.49822,32.2962022 C146.4983,32.5281487 146.310288,32.7162202 146.078336,32.7162202 C145.846383,32.7162202 145.65837,32.5281487 145.658449,32.2962022 C145.65837,32.0642557 145.846383,31.8761827 146.078336,31.8761827 C146.310288,31.8761827 146.4983,32.0642557 146.49822,32.2962022 L146.49822,32.2962022 Z" id="Shape" stroke="#000000" stroke-width="0.2" fill="#F7C600"></path>
        <path d="M144.35697,35.7505522 L147.63471,35.7598822 C147.63471,35.7598822 147.686103,35.3344927 147.292338,35.0759482 C149.009148,34.8398692 148.563144,33.3255382 150.000963,33.2397082 C150.279945,33.2826247 149.249861,33.8835112 149.249861,33.8835112 C149.249861,33.8835112 148.38297,34.4952682 148.777738,34.8062887 C149.091152,35.0532157 149.2284,34.6560892 149.271323,34.3556467 C149.314242,34.0552027 150.666222,33.8620642 150.473085,33.0036742 C150.151184,32.2954837 148.2627,33.4757647 148.2627,33.4757647 L146.915376,33.4682947 C146.831368,33.3170767 146.460056,32.7106867 146.076593,32.7078787 C145.621659,32.7244792 145.301208,33.4757692 145.301208,33.4757692 L143.348343,33.4757692 L142.25388,33.4757692 C142.25388,33.4757692 142.149402,34.2576547 143.694529,34.4078767 C144.042406,34.8622102 144.312073,34.9891492 144.61449,35.1067582 C144.412878,35.2747807 144.356121,35.4780442 144.356968,35.7505628 L144.35697,35.7505522 Z" id="Shape" stroke="#000000" stroke-width="0.2" fill="#F7C600"></path>
        <path id="Shape" stroke="#000000" stroke-width="0.2" fill="#F7C600"></path>
        <path d="M143.34252,33.4756522 C143.34252,33.4756522 143.56093,34.7525467 144.568984,35.0549572" id="Shape" stroke="#000000" stroke-width="0.2" fill="#F7C600"></path>
        <path d="M143.17452,33.4588522 C143.275325,32.9716343 143.460137,32.8876117 143.661747,32.2659802 C143.69535,31.6611532 143.17452,31.7283487 143.325729,31.3419352 C143.594543,30.9219127 143.460137,30.5186947 142.95611,30.1994767 C143.056916,30.7539127 142.300875,31.2747397 142.300875,31.7283517 C142.300875,32.1819832 142.687296,32.0811787 142.636893,32.7700282 C142.670496,33.1732237 142.536089,33.0724417 142.502487,33.4588552 L143.17452,33.4588552 L143.17452,33.4588522 Z" id="Shape" stroke="#000000" stroke-width="0.2" fill="url(#linearGradient-1)"></path>
        <path d="M146.46462,30.4312522 C146.464694,30.6446332 146.291727,30.8176522 146.078337,30.8176522 C145.864949,30.8176522 145.691982,30.6446332 145.692056,30.4312522 C145.691982,30.2178712 145.864949,30.0448522 146.078337,30.0448522 C146.291727,30.0448522 146.464694,30.2178712 146.46462,30.4312522 L146.46462,30.4312522 Z" id="Shape" stroke="#000000" stroke-width="0.2" fill="#F7C600"></path>
        <polyline id="Shape" stroke="#F7C600" stroke-width="0.2" points="143.69067 39.6735022 145.80492 36.5683073 147.92946 39.6799972"></polyline>
        <path d="M146.22942,38.5126523 C146.2295,38.7445988 146.041488,38.9326703 145.809536,38.9326703 C145.577583,38.9326703 145.38957,38.7445988 145.38965,38.5126523 C145.38957,38.2807058 145.577583,38.0926327 145.809536,38.0926327 C146.041488,38.0926327 146.2295,38.2807058 146.22942,38.5126523 L146.22942,38.5126523 Z" id="Shape" stroke="#000000" stroke-width="0.2" fill="#F7C600"></path>
        <path d="M144.08817,41.9670022 L147.36591,41.9763322 C147.36591,41.9763322 147.417303,41.5509427 147.023538,41.2923982 C148.740348,41.0563192 148.294344,39.5419882 149.732163,39.4561582 C150.011145,39.4990747 148.981061,40.0999612 148.981061,40.0999612 C148.981061,40.0999612 148.11417,40.7117182 148.508939,41.0227387 C148.822352,41.2696657 148.9596,40.8725392 149.002523,40.5720967 C149.045442,40.2716527 150.397422,40.0785142 150.204285,39.2201242 C149.882384,38.5119337 147.9939,39.6922147 147.9939,39.6922147 L146.646576,39.6847447 C146.562568,39.5335267 146.191256,38.9271367 145.807793,38.9243287 C145.352859,38.9409292 145.032408,39.6922192 145.032408,39.6922192 L143.079543,39.6922192 L141.98508,39.6922192 C141.98508,39.6922192 141.880602,40.4741047 143.42573,40.6243267 C143.773607,41.0786602 144.043274,41.2055992 144.34569,41.3232082 C144.144078,41.4912307 144.087321,41.6944942 144.088169,41.9670127 L144.08817,41.9670022 Z" id="Shape" stroke="#000000" stroke-width="0.2" fill="#F7C600"></path>
        <path id="Shape" stroke="#000000" stroke-width="0.2" fill="#F7C600"></path>
        <path d="M143.07372,39.6921022 C143.07372,39.6921022 143.29213,40.9689967 144.300184,41.2714072" id="Shape" stroke="#000000" stroke-width="0.2" fill="#F7C600"></path>
        <path d="M142.90572,39.6753023 C143.006525,39.1880843 143.191337,39.1040617 143.392947,38.4824303 C143.42655,37.8776032 142.90572,37.9447987 143.056929,37.5583853 C143.325743,37.1383627 143.191337,36.7351448 142.68731,36.4159268 C142.788116,36.9703627 142.032075,37.4911898 142.032075,37.9448018 C142.032075,38.3984333 142.418496,38.2976288 142.368093,38.9864782 C142.401696,39.3896738 142.267289,39.2888917 142.233687,39.6753053 L142.90572,39.6753053 L142.90572,39.6753023 Z" id="Shape" stroke="#000000" stroke-width="0.2" fill="url(#linearGradient-1)"></path>
        <path d="M146.19582,36.6477023 C146.195894,36.8610833 146.022927,37.0341023 145.809537,37.0341023 C145.596148,37.0341023 145.423182,36.8610833 145.423256,36.6477023 C145.423182,36.4343213 145.596148,36.2613023 145.809537,36.2613023 C146.022927,36.2613023 146.195894,36.4343213 146.19582,36.6477023 L146.19582,36.6477023 Z" id="Shape" stroke="#000000" stroke-width="0.2" fill="#F7C600"></path>
        <polyline id="Shape" stroke="#F7C600" stroke-width="0.2" points="143.99307 45.7890015 146.10732 42.6838065 148.23186 45.7954965"></polyline>
        <path d="M146.53182,44.6281515 C146.5319,44.860098 146.343888,45.0481695 146.111936,45.0481695 C145.879983,45.0481695 145.69197,44.860098 145.692049,44.6281515 C145.69197,44.396205 145.879983,44.208132 146.111936,44.208132 C146.343888,44.208132 146.5319,44.396205 146.53182,44.6281515 L146.53182,44.6281515 Z" id="Shape" stroke="#000000" stroke-width="0.2" fill="#F7C600"></path>
        <path d="M144.39057,48.0825015 L147.66831,48.0918315 C147.66831,48.0918315 147.719703,47.666442 147.325938,47.4078975 C149.042748,47.1718185 148.596744,45.6574875 150.034563,45.5716575 C150.313545,45.614574 149.283461,46.2154605 149.283461,46.2154605 C149.283461,46.2154605 148.41657,46.8272175 148.811339,47.138238 C149.124752,47.385165 149.262,46.9880385 149.304923,46.687596 C149.347842,46.387152 150.699822,46.1940135 150.506685,45.3356235 C150.184784,44.627433 148.2963,45.807714 148.2963,45.807714 L146.948976,45.800244 C146.864969,45.649026 146.493656,45.042636 146.110193,45.039828 C145.655259,45.0564285 145.334808,45.8077185 145.334808,45.8077185 L143.381943,45.8077185 L142.28748,45.8077185 C142.28748,45.8077185 142.183002,46.589604 143.72813,46.739826 C144.076007,47.1941595 144.345674,47.3210985 144.64809,47.4387075 C144.446478,47.60673 144.389721,47.8099935 144.390569,48.082512 L144.39057,48.0825015 Z" id="Shape" stroke="#000000" stroke-width="0.2" fill="#F7C600"></path>
        <path id="Shape" stroke="#000000" stroke-width="0.2" fill="#F7C600"></path>
        <path d="M143.37612,45.8076015 C143.37612,45.8076015 143.594531,47.084496 144.602585,47.3869065" id="Shape" stroke="#000000" stroke-width="0.2" fill="#F7C600"></path>
        <path d="M143.20812,45.7908015 C143.308925,45.3035835 143.493737,45.219561 143.695347,44.5979295 C143.72895,43.9931025 143.20812,44.060298 143.359329,43.6738845 C143.628143,43.253862 143.493737,42.850644 142.98971,42.531426 C143.090516,43.085862 142.334475,43.606689 142.334475,44.060301 C142.334475,44.5139325 142.720896,44.413128 142.670493,45.1019775 C142.704096,45.505173 142.569689,45.404391 142.536087,45.7908045 L143.20812,45.7908045 L143.20812,45.7908015 Z" id="Shape" stroke="#000000" stroke-width="0.2" fill="url(#linearGradient-1)"></path>
        <path d="M146.49822,42.7632015 C146.498293,42.9765825 146.325327,43.1496015 146.111937,43.1496015 C145.898549,43.1496015 145.725582,42.9765825 145.725656,42.7632015 C145.725582,42.5498205 145.898549,42.3768015 146.111937,42.3768015 C146.325327,42.3768015 146.498293,42.5498205 146.49822,42.7632015 L146.49822,42.7632015 Z" id="Shape" stroke="#000000" stroke-width="0.2" fill="#F7C600"></path>
        <polyline id="Shape" stroke="#F7C600" stroke-width="0.2" points="143.92587 51.9045015 146.04012 48.7993065 148.16466 51.9109965"></polyline>
        <path d="M146.46462,50.7436515 C146.4647,50.975598 146.276688,51.1636695 146.044736,51.1636695 C145.812783,51.1636695 145.62477,50.975598 145.62485,50.7436515 C145.62477,50.511705 145.812783,50.323632 146.044736,50.323632 C146.276688,50.323632 146.4647,50.511705 146.46462,50.7436515 L146.46462,50.7436515 Z" id="Shape" stroke="#000000" stroke-width="0.2" fill="#F7C600"></path>
        <path d="M144.32337,54.1980015 L147.60111,54.2073315 C147.60111,54.2073315 147.652503,53.781942 147.258738,53.5233975 C148.975548,53.2873185 148.529544,51.7729875 149.967363,51.6871575 C150.246345,51.730074 149.216261,52.3309605 149.216261,52.3309605 C149.216261,52.3309605 148.34937,52.9427175 148.744139,53.253738 C149.057552,53.500665 149.1948,53.1035385 149.237723,52.803096 C149.280642,52.502652 150.632622,52.3095135 150.439485,51.4511235 C150.117583,50.742933 148.2291,51.923214 148.2291,51.923214 L146.881776,51.915744 C146.797768,51.764526 146.426456,51.158136 146.042992,51.155328 C145.588059,51.1719285 145.267608,51.9232185 145.267608,51.9232185 L143.314743,51.9232185 L142.22028,51.9232185 C142.22028,51.9232185 142.115802,52.705104 143.66093,52.855326 C144.008807,53.3096595 144.278474,53.4365985 144.58089,53.5542075 C144.379278,53.72223 144.322521,53.9254935 144.323369,54.198012 L144.32337,54.1980015 Z" id="Shape" stroke="#000000" stroke-width="0.2" fill="#F7C600"></path>
        <path id="Shape" stroke="#000000" stroke-width="0.2" fill="#F7C600"></path>
        <path d="M143.30892,51.9231015 C143.30892,51.9231015 143.527331,53.199996 144.535384,53.5024065" id="Shape" stroke="#000000" stroke-width="0.2" fill="#F7C600"></path>
        <path d="M143.14092,51.9063015 C143.241725,51.4190835 143.426536,51.335061 143.628147,50.7134295 C143.66175,50.1086025 143.14092,50.175798 143.292129,49.7893845 C143.560943,49.369362 143.426536,48.966144 142.92251,48.646926 C143.023316,49.201362 142.267275,49.722189 142.267275,50.175801 C142.267275,50.6294325 142.653696,50.528628 142.603293,51.2174775 C142.636896,51.620673 142.502489,51.519891 142.468887,51.9063045 L143.14092,51.9063045 L143.14092,51.9063015 Z" id="Shape" stroke="#000000" stroke-width="0.2" fill="url(#linearGradient-1)"></path>
        <path d="M146.43102,48.8787015 C146.431094,49.0920825 146.258127,49.2651015 146.044737,49.2651015 C145.831348,49.2651015 145.658382,49.0920825 145.658456,48.8787015 C145.658382,48.6653205 145.831348,48.4923015 146.044737,48.4923015 C146.258127,48.4923015 146.431094,48.6653205 146.43102,48.8787015 L146.43102,48.8787015 Z" id="Shape" stroke="#000000" stroke-width="0.2" fill="#F7C600"></path>
        <polyline id="Shape" stroke="#F7C600" stroke-width="0.2" points="143.95947 58.0536015 146.07372 54.9484065 148.19826 58.0600965"></polyline>
        <path d="M146.49822,56.8927515 C146.4983,57.124698 146.310288,57.3127695 146.078336,57.3127695 C145.846383,57.3127695 145.65837,57.124698 145.658449,56.8927515 C145.65837,56.660805 145.846383,56.472732 146.078336,56.472732 C146.310288,56.472732 146.4983,56.660805 146.49822,56.8927515 L146.49822,56.8927515 Z" id="Shape" stroke="#000000" stroke-width="0.2" fill="#F7C600"></path>
        <path d="M144.35697,60.3471015 L147.63471,60.3564315 C147.63471,60.3564315 147.686103,59.931042 147.292338,59.6724975 C149.009148,59.4364185 148.563144,57.9220875 150.000963,57.8362575 C150.279945,57.879174 149.249861,58.4800605 149.249861,58.4800605 C149.249861,58.4800605 148.38297,59.0918175 148.777738,59.402838 C149.091152,59.649765 149.2284,59.2526385 149.271323,58.952196 C149.314242,58.651752 150.666222,58.4586135 150.473085,57.6002235 C150.151184,56.892033 148.2627,58.072314 148.2627,58.072314 L146.915376,58.064844 C146.831368,57.913626 146.460056,57.307236 146.076593,57.304428 C145.621659,57.3210285 145.301208,58.0723185 145.301208,58.0723185 L143.348343,58.0723185 L142.25388,58.0723185 C142.25388,58.0723185 142.149402,58.854204 143.694529,59.004426 C144.042406,59.4587595 144.312073,59.5856985 144.61449,59.7033075 C144.412878,59.87133 144.356121,60.0745935 144.356968,60.347112 L144.35697,60.3471015 Z" id="Shape" stroke="#000000" stroke-width="0.2" fill="#F7C600"></path>
        <path id="Shape" stroke="#000000" stroke-width="0.2" fill="#F7C600"></path>
        <path d="M143.34252,58.0722015 C143.34252,58.0722015 143.56093,59.349096 144.568984,59.6515065" id="Shape" stroke="#000000" stroke-width="0.2" fill="#F7C600"></path>
        <path d="M143.17452,58.0554015 C143.275325,57.5681835 143.460137,57.484161 143.661747,56.8625295 C143.69535,56.2577025 143.17452,56.324898 143.325729,55.9384845 C143.594543,55.518462 143.460137,55.115244 142.95611,54.796026 C143.056916,55.350462 142.300875,55.871289 142.300875,56.324901 C142.300875,56.7785325 142.687296,56.677728 142.636893,57.3665775 C142.670496,57.769773 142.536089,57.668991 142.502487,58.0554045 L143.17452,58.0554045 L143.17452,58.0554015 Z" id="Shape" stroke="#000000" stroke-width="0.2" fill="url(#linearGradient-1)"></path>
        <path d="M146.46462,55.0278015 C146.464694,55.2411825 146.291727,55.4142015 146.078337,55.4142015 C145.864949,55.4142015 145.691982,55.2411825 145.692056,55.0278015 C145.691982,54.8144205 145.864949,54.6414015 146.078337,54.6414015 C146.291727,54.6414015 146.464694,54.8144205 146.46462,55.0278015 L146.46462,55.0278015 Z" id="Shape" stroke="#000000" stroke-width="0.2" fill="#F7C600"></path>
        <path d="M137.37645,60.94725 C137.37645,60.94725 138.231804,62.91933 139.20597,61.707576 C140.180134,60.4958145 139.823751,59.973081 139.823751,59.973081 L137.637801,58.785078 L136.996286,60.1394055 L137.376449,60.9472455 L137.37645,60.94725 Z" id="Shape" stroke="#000000" stroke-width="0.2" fill="#F7C600"></path>
        <path d="M139.25355,60.6858 C139.25355,60.6858 139.396093,60.709581 139.514902,60.495741 C139.633711,60.2819025 139.25355,60.186828 139.087225,59.9492325 L138.897144,60.329418 L139.25355,60.6858 L139.25355,60.6858 Z" id="Shape" stroke="#000000" stroke-width="0.2" fill="#FFC6B5"></path>
        <path d="M134.31135,60.16305 L132.386775,61.2084855 C132.386775,61.2084855 131.436367,61.3985445 131.365095,61.2084855 C131.293802,61.0184055 131.388854,60.852081 131.887803,60.828324 C132.386775,60.8045655 133.741098,59.569026 133.741098,59.569026 L134.311343,60.16305 L134.31135,60.16305 Z" id="Shape" stroke="#000000" stroke-width="0.2" fill="#FFC6B5"></path>
        <path d="M134.3352,25.97235 C134.3352,25.97235 134.382715,26.4237915 134.406473,26.661393 C134.430229,26.898993 134.026309,27.3979515 134.002552,27.374193 C133.978795,27.3504345 133.788714,27.3979515 133.812471,27.540519 C133.836228,27.683085 134.121361,27.730602 134.121361,27.730602 C134.121361,27.730602 134.002552,28.2295605 134.121361,28.2533175 C134.240148,28.2770775 133.812471,28.8948615 134.121361,29.0611695 C134.430229,29.2274775 134.952958,29.441319 135.190555,29.393802 C135.428151,29.346285 135.190555,30.320445 135.190555,30.320445 L134.525282,31.746045 L138.184321,31.365897 L137.423995,30.1541205 C137.423995,30.1541205 137.067613,29.9165205 137.162643,29.2274775 C137.257695,28.538436 137.115127,25.4258775 137.115127,25.4258775 L134.501527,25.0694685 L134.335203,25.972353 L134.3352,25.97235 Z" id="Shape" stroke="#000000" stroke-width="0.2" fill="#FFC6B5"></path>
        <path d="M133.6698,31.3896 C133.6698,31.3896 132.481797,31.9360935 132.529311,33.409215 C132.220443,34.8348165 132.054119,36.260415 132.054119,36.260415 C132.054119,36.260415 130.652277,37.85232 130.224599,38.422575 C129.796921,38.9928225 129.155382,40.157055 128.917787,40.465935 C128.680189,40.7748285 127.753549,41.7965205 127.777306,42.17667 C127.801066,42.5568105 127.563466,44.243805 128.490106,44.43387 C128.727705,44.5288995 129.488031,42.485535 129.488031,42.485535 C129.488031,42.485535 129.535545,41.606433 129.274191,41.4401055 C129.012838,41.2737825 129.844436,40.7035305 129.844436,40.7035305 C129.844436,40.7035305 131.436355,39.5392875 131.79277,39.254172 C132.149175,38.969055 133.123339,37.876089 133.123339,37.876089 L133.669804,31.389594 L133.6698,31.3896 Z" id="Shape" stroke="#000000" stroke-width="0.2" fill="#FFC6B5"></path>
        <path d="M135.02415,30.273 C135.02415,30.273 135.333041,31.104609 136.022072,30.962043 C136.711125,30.8194755 137.518965,30.177969 137.518965,30.177969 C137.518965,30.177969 138.160482,30.154209 138.255534,30.249243 C138.350564,30.344277 139.989999,31.936188 139.942494,32.435163 C139.894979,32.9341395 139.182168,32.7915555 138.920814,33.124206 C138.659462,33.4568565 138.231761,34.288449 138.350571,34.906221 C138.46938,35.5239885 138.825762,36.3318405 138.778248,36.640716 C138.730733,36.9495915 138.46938,37.0446255 138.46938,37.2109485 C138.46938,37.377276 138.683219,37.6624095 138.683219,37.9712835 C138.683219,38.280159 138.398085,38.731584 138.445623,39.0404745 C138.493137,39.349368 138.516894,40.2522345 138.516894,40.2522345 L138.445623,44.4340095 C138.445623,44.4340095 138.683219,44.576553 138.706976,44.8141725 C138.730733,45.051768 140.322656,51.9659475 140.322656,51.9659475 C140.322656,51.9659475 140.251385,52.179786 140.08506,52.156029 C139.918736,52.1322705 140.726576,53.2252215 140.750334,53.534112 C140.774091,53.843004 141.581954,56.266542 141.558174,56.599167 C141.534417,56.931792 141.415629,57.668361 141.344335,57.692118 C141.273063,57.715875 141.867065,59.212773 141.772013,59.450358 C141.676983,59.6879535 140.702819,59.6641965 140.702819,59.6641965 L140.441466,59.6166825 C140.441466,59.6166825 140.465223,59.925573 140.275142,59.94933 C140.08506,59.973087 138.683222,59.878035 138.683222,59.878035 C138.683222,59.878035 138.279302,60.4957935 138.041706,60.4720365 C137.804087,60.4482795 137.495218,60.0206025 137.423924,60.091896 C137.352653,60.1631685 137.637785,60.567066 137.566491,60.685875 C137.495218,60.804684 136.283458,61.0660605 136.045836,60.495816 C135.808241,59.925573 136.188404,60.0681165 136.117131,59.94933 C136.045836,59.830521 135.499372,59.521653 135.333048,59.6166825 C135.166725,59.7117105 135.760727,59.854278 135.736968,60.091896 C135.713211,60.329493 135.214239,60.685875 135.024158,60.685875 C134.834076,60.685875 134.382642,59.8067625 133.717368,59.9018145 C133.052072,59.996844 132.624394,60.1631685 132.624394,60.1631685 C132.624394,60.1631685 131.840312,60.4957935 131.507664,60.4245225 C131.175039,60.35325 131.032471,60.0918735 131.032471,59.94933 C131.032471,59.8067625 131.270067,59.189004 131.24631,58.9989225 C131.222553,58.808841 131.032471,58.6187595 131.032471,58.3336275 C131.032471,58.0485165 131.578959,57.074352 131.578959,57.074352 L131.5552,52.702497 C131.5552,52.702497 131.056228,52.7024745 131.032471,52.3936065 C131.008714,52.0847385 131.792797,45.4794315 131.911584,45.0517515 C132.030393,44.6240745 132.339283,43.1034315 132.339283,43.1034315 C132.339283,43.1034315 131.982879,43.2697545 131.95912,43.1034315 C131.935363,42.937107 133.028314,39.1592715 133.028314,39.1592715 C133.028314,39.1592715 133.218396,37.2822165 133.218396,36.7832565 C133.218396,36.284298 133.123367,35.595255 133.123367,35.595255 C133.123367,35.595255 132.147889,35.1823095 132.125422,34.549821 C132.036213,33.5435085 133.052071,32.981631 133.170882,32.649006 C133.289669,32.3163735 133.646073,31.3184565 133.646073,31.3184565 C133.646073,31.3184565 134.168803,30.415572 135.024158,30.2730045 L135.02415,30.273 Z" id="Shape" stroke="#000000" stroke-width="0.2" fill="#FFFFFF"></path>
        <path d="M134.66775,60.4482 C134.66775,60.4482 132.36303,61.6599825 132.03039,61.755012 C131.697742,61.8500415 131.483904,61.351092 131.816551,61.25604 C132.149199,61.1610105 132.671905,61.1134725 132.671905,61.1134725 C132.671905,61.1134725 131.887824,60.495714 131.911581,60.471957 C131.93536,60.4482 132.980797,60.0680595 133.004554,60.0680595 C133.028311,60.0680595 133.337202,60.6857955 133.55104,60.6382815 C133.76488,60.590766 134.382639,60.115575 134.382639,60.115575 C134.382639,60.115575 134.715286,60.4957365 134.66775,60.4482 L134.66775,60.4482 Z" id="Shape" stroke="#000000" stroke-width="0.2" fill="#F7C600"></path>
        <path d="M137.9148,61.11345 C138.132715,61.3944855 138.217915,61.88193 138.716887,61.596819 C139.215837,61.311708 138.461286,60.7825005 138.461286,60.7825005 L137.9148,61.11345 L137.9148,61.11345 Z" id="Shape" stroke="#000000" stroke-width="0.2" fill="#FFC6B5"></path>
        <path d="M138.82575,61.0659 C138.82575,61.0659 139.063347,61.2559815 139.277186,61.042143 C139.491024,60.8283045 138.849486,60.376869 138.849486,60.376869 L138.540616,60.733275 L138.82575,61.0659 L138.82575,61.0659 Z" id="Shape" stroke="#000000" stroke-width="0.2" fill="#FFC6B5"></path>
        <path d="M139.84755,32.544 C139.871307,32.544 140.631633,34.896255 140.726661,35.490255 C140.821713,36.0842475 141.130581,38.460255 141.011795,38.792895 C140.892986,39.1255455 139.681226,40.717455 139.538658,41.121375 C139.396092,41.5252995 138.540736,43.069725 138.540736,43.069725 C138.540736,43.069725 138.326898,44.59038 138.231846,44.661645 C138.136817,44.7329385 138.477142,45.1061715 138.445708,45.231888 C138.398556,45.373323 137.756655,46.039728 137.471544,45.968457 C137.18641,45.897162 136.734975,45.5645145 136.711218,45.2556465 C136.687461,44.9467785 136.734975,43.925076 136.948813,43.6637265 C137.162654,43.4023725 138.279384,40.7649915 138.350657,40.5986715 C138.421928,40.4323455 139.372335,38.3652315 139.396092,38.0088315 C139.419871,37.652424 139.100449,36.8282775 138.764427,36.5258655 C138.016604,34.3249305 138.310434,32.9976405 139.84755,32.5440105 L139.84755,32.544 Z" id="Shape" stroke="#000000" stroke-width="0.2" fill="#FFC6B5"></path>
        <path d="M134.2638,25.82985 C134.2638,25.82985 134.786531,25.901109 135.071642,25.734801 C135.356775,25.5684915 135.689423,25.4972175 135.927018,25.82985 C136.164615,26.162484 136.330938,26.1387255 136.330938,26.1387255 C136.330938,26.1387255 135.974534,27.017835 136.330938,27.112884 C136.687344,27.2079345 136.853645,27.207918 136.877426,27.3267255 C136.901183,27.4455345 136.568535,27.7068765 136.663565,27.825684 C136.758617,27.944493 136.924939,28.0870605 136.948697,28.1820945 C136.972455,28.2771285 136.734858,28.681035 136.806131,28.776087 C136.877426,28.871136 137.091264,29.2513035 137.233808,29.2513035 C137.376375,29.2513035 137.281346,29.845311 137.709023,29.702745 C138.1367,29.560179 138.112943,29.1800115 138.112943,29.1800115 C138.112943,29.1800115 138.564378,29.1087375 138.683187,28.70481 C138.801974,28.3008855 139.087107,28.2058515 139.087107,28.2058515 C139.087107,28.2058515 139.657352,27.896976 138.897026,27.4217775 C138.897026,24.0953625 136.711106,24.4517625 136.711106,24.4517625 C136.711106,24.4517625 136.449729,23.857737 136.022052,23.929029 C135.594375,24.000321 135.570618,24.4992975 135.261726,24.4517625 C134.952858,24.4042305 134.881587,24.1904055 134.857806,24.214164 C134.834049,24.2379225 134.572697,24.7131045 134.572697,24.831915 C134.572697,24.950721 133.741098,24.6655875 133.812371,25.2833565 C133.883643,25.901124 134.287563,25.877364 134.263805,25.829847 L134.2638,25.82985 Z" id="Shape" stroke="#000000" stroke-width="0.2" fill="#9C5100"></path>
        <path d="M138.11295,31.19955 C138.11295,31.19955 135.998295,32.5538775 136.045815,33.02907" id="Shape" stroke="#000000" stroke-width="0.2"></path>
        <path id="Shape" stroke="#000000" stroke-width="0.2"></path>
        <path d="M139.2297,32.00745 C139.2297,32.00745 138.184242,32.862816 138.350567,33.4092915" id="Shape" stroke="#000000" stroke-width="0.2"></path>
        <path d="M134.28765,31.08075 C134.28765,31.08075 133.978782,31.7222595 134.050053,31.936101 C134.121348,32.1499425 134.644054,32.957793 134.715349,33.456756 C134.786622,33.9557145 134.715349,34.312125 134.715349,34.312125" id="Shape" stroke="#000000" stroke-width="0.2"></path>
        <path d="M133.7412,32.26875 C133.7412,32.26875 133.836229,33.0290835 133.978797,33.171633 C134.121363,33.314184 134.501526,33.9557085 134.54904,34.217067" id="Shape" stroke="#000000" stroke-width="0.2"></path>
        <path d="M133.55115,35.4288 C133.55115,35.4288 134.16891,35.7377085 134.739153,34.5496905" id="Shape" stroke="#000000" stroke-width="0.2"></path>
        <path d="M135.6657,33.7182 C135.641941,33.7182 135.214264,34.882443 135.974591,35.31012 C136.734915,35.7378015 137.30516,35.6902695 137.63779,35.571477 C137.970439,35.452686 138.326844,35.238843 138.326844,35.238843" id="Shape" stroke="#000000" stroke-width="0.2"></path>
        <path d="M135.33315,35.1438 C135.33315,35.1438 135.380665,36.71199 137.685405,38.256375" id="Shape" stroke="#000000" stroke-width="0.2"></path>
        <path d="M135.4281,36.6168 C135.4281,36.6168 135.404343,37.994868 136.307235,38.61264" id="Shape" stroke="#000000" stroke-width="0.2"></path>
        <path d="M134.9529,35.00115 C134.9529,35.00115 134.263847,37.044495 133.717383,37.25835" id="Shape" stroke="#000000" stroke-width="0.2"></path>
        <path id="Shape" stroke="#000000" stroke-width="0.2"></path>
        <path d="M134.3352,38.8503 C134.3352,38.8503 134.810392,39.4443105 135.333122,39.3967935 C135.855828,39.3492765 136.069668,38.731494 136.426073,38.826543 C136.782478,38.9215935 137.115126,39.206727 137.946728,39.1354365" id="Shape" stroke="#000000" stroke-width="0.2"></path>
        <path id="Shape" stroke="#000000" stroke-width="0.2"></path>
        <path d="M133.86,39.183 C133.86,39.183 133.836243,40.3235025 133.693677,40.727415 C133.551132,41.1313245 133.265998,41.8203825 133.313536,42.414375" id="Shape" stroke="#000000" stroke-width="0.2"></path>
        <path id="Shape" stroke="#000000" stroke-width="0.2"></path>
        <path d="M133.1472,42.93705 C133.1472,42.93705 132.125499,47.30892 132.410633,49.92252" id="Shape" stroke="#000000" stroke-width="0.2"></path>
        <path id="Shape" stroke="#000000" stroke-width="0.2"></path>
        <path id="Shape" stroke="#000000" stroke-width="0.2"></path>
        <path id="Shape" stroke="#000000" stroke-width="0.2"></path>
        <path id="Shape" stroke="#000000" stroke-width="0.2"></path>
        <path d="M138.08925,45.81195 C138.08925,45.81195 138.707009,50.730285 139.063414,51.181725" id="Shape" stroke="#000000" stroke-width="0.2"></path>
        <path d="M136.90125,46.4298 C136.90125,46.4298 137.281413,50.777895 137.495252,51.158055" id="Shape" stroke="#000000" stroke-width="0.2"></path>
        <path d="M131.5077,52.67865 C131.5077,52.67865 132.244245,52.4410305 132.909519,51.7282425 C133.669867,52.749921 134.834094,51.7757805 134.834094,51.7757805 C134.834094,51.7757805 136.639854,53.0112975 137.447724,51.633213 C138.683241,52.441053 139.301004,51.514404 139.301004,51.514404 C139.301004,51.514404 139.752462,52.203435 140.085087,52.1321625" id="Shape" stroke="#000000" stroke-width="0.2"></path>
        <path d="M138.11295,52.6074 C138.11295,52.6074 139.039601,56.95551 140.417685,58.19103" id="Shape" stroke="#000000" stroke-width="0.2"></path>
        <path id="Shape" stroke="#000000" stroke-width="0.2"></path>
        <path id="Shape" stroke="#000000" stroke-width="0.2"></path>
        <path d="M131.769,59.0463 C131.769,59.0463 132.030354,60.068001 133.33716,59.117595 C134.643949,58.167165 134.667708,59.4739995 134.715244,59.6165445 C134.76276,59.759088 134.976598,60.780789 135.475548,59.925435" id="Shape" stroke="#000000" stroke-width="0.2"></path>
        <path d="M136.52115,58.5237 C136.52115,58.5237 136.307311,60.63831 138.18435,59.0939205 C140.061405,57.5495355 140.37027,59.070186 140.41779,59.5453785" id="Shape" stroke="#000000" stroke-width="0.2"></path>
        <path d="M136.54485,25.02195 C136.54485,25.02195 136.378527,26.067381 137.495258,25.97235 C137.352692,26.5426005 137.780369,26.732685 137.780369,26.732685" id="Shape" stroke="#000000" stroke-width="0.2"></path>
        <path id="Shape" stroke="#000000" stroke-width="0.2"></path>
        <path d="M136.99635,28.20585 C136.99635,28.20585 137.233923,28.4909835 137.495299,28.4197095 C137.756653,28.3484325 138.18433,28.681068 138.18433,28.681068 C138.18433,28.681068 138.540735,28.799859 138.58825,28.728585" id="Shape" stroke="#000000" stroke-width="0.2"></path>
        <path d="M135.5469,29.1087 C135.5469,29.1087 136.354741,29.4175905 136.87747,28.13454" id="Shape" stroke="#000000" stroke-width="0.2"></path>
        <path id="Shape" stroke="#000000" stroke-width="0.2"></path>
        <path id="Shape" stroke="#000000" stroke-width="0.2"></path>
        <path d="M127.80195,42.66135 C127.80195,42.66135 128.469538,43.7778315 128.413755,44.372835" id="Shape" stroke="#000000" stroke-width="0.2"></path>
        <polyline id="Shape" stroke="#000000" stroke-width="0.2" points="134.1213 28.22955 134.6213 28.22955 134.176851 28.72955"></polyline>
        <path d="M136.74975,44.9943 C136.74975,44.9943 137.248903,44.941848 137.233185,45.775212 C137.551927,44.7399675 138.200056,44.715372 138.200056,44.715372" id="Shape" stroke="#000000" stroke-width="0.2"></path>
        <path id="Shape" stroke="#000000" stroke-width="0.2"></path>
        <path d="M135.04485,68.78685 C145.07949,68.508102 151.56015,61.26087 151.49055,61.19118 C151.420875,61.121493 152.81457,59.17032 153.929535,59.44905 C155.0445,59.727798 156.64725,63.002985 158.59842,63.699825 C159.57399,65.232885 158.319675,66.626595 157.901565,66.90534 C157.483455,67.1840865 155.60196,67.950618 155.323215,66.835653 C155.0445,65.7206895 154.48701,65.9297505 154.48701,65.9297505 C154.48701,65.9297505 145.567335,74.6403555 135.25401,74.2919505 C124.59222,74.3616375 115.81191,65.9297505 115.81191,65.9297505 L115.045374,66.765966 C115.045374,66.765966 114.209155,67.6718715 113.791045,67.6021845 C113.372938,67.5324975 111.56113,66.3478695 111.421765,65.1632145 C111.282394,63.978564 112.536724,63.2120295 112.536724,63.2120295 C112.536724,63.2120295 115.602859,60.8427195 115.951279,59.5884045 C116.648128,58.891563 117.972139,60.076188 117.972139,60.076188 C117.972139,60.076188 126.055594,69.344283 135.044989,68.786823 L135.04485,68.78685 Z" id="Shape" stroke="#000000" stroke-width="0.2" fill="#F7C600"></path>
        <path d="M112.32825,63.3969 C112.32825,63.3969 113.157433,63.17577 113.461467,63.5212815 C113.765502,63.866772 115.852272,65.9121015 115.852272,65.9121015" id="Shape" stroke="#000000" stroke-width="0.2"></path>
        <path d="M114.22155,64.36425 L113.392367,64.9861305 C113.392367,64.9861305 115.479152,65.400672 115.009277,66.7688655" id="Shape" stroke="#000000" stroke-width="0.2"></path>
        <path d="M157.851,63.32775 C157.851,63.32775 157.436385,63.1066185 156.786885,63.590325 C156.13734,64.074009 154.492785,65.91204 154.492785,65.91204" id="Shape" stroke="#000000" stroke-width="0.2"></path>
        <path d="M155.985,64.30905 L156.883275,65.0000295 C156.883275,65.0000295 155.003805,65.1244095 155.41839,66.9071595" id="Shape" stroke="#000000" stroke-width="0.2"></path>
        <path d="M122.9496,65.6094 C122.89525,65.767194 122.751414,65.60511 122.632095,65.6368215 C122.3179,65.6486265 122.056938,65.853561 121.78792,65.9934525 C120.867532,66.530007 119.94715,67.0665615 119.02675,67.6031175 C118.933876,67.572558 118.955914,67.497489 118.978563,67.4221845 C119.223877,66.2727015 119.478678,65.1251745 119.717296,63.9743145 C119.756905,63.772971 119.820672,63.522873 119.626297,63.3763215 C119.543676,63.3198945 119.671555,63.2054145 119.724583,63.3094785 C120.195067,63.645006 120.66555,63.980532 121.136034,64.3160595 C121.09077,64.44873 121.010589,64.3557045 120.930249,64.3018695 C120.73488,64.1138415 120.499303,64.2875445 120.505099,64.525044 C120.337201,65.2828365 120.173468,66.041559 120.007314,66.799734 C120.632143,66.4283295 121.264114,66.0686745 121.883304,65.687973 C122.104278,65.5896525 122.267369,65.293344 122.037526,65.109714 C121.950268,65.0583375 121.806031,64.9178235 121.949856,64.8964335 C122.283103,65.1340905 122.616352,65.371749 122.9496,65.609406 L122.9496,65.6094 Z" id="Shape" fill="#000000"></path>
        <path d="M123.94125,70.4073 C123.916084,70.493115 123.871321,70.512021 123.802927,70.45026 C123.249216,70.1474445 122.695504,69.844629 122.141797,69.5418135 C122.166963,69.4559985 122.211727,69.4370895 122.280121,69.498852 C122.430018,69.600954 122.675292,69.6396015 122.784643,69.460719 C123.004465,69.108066 123.189771,68.7348555 123.393477,68.372628 C123.670407,67.8596895 123.958938,67.352787 124.227391,66.835443 C124.355808,66.652215 124.212481,66.426267 124.032813,66.347787 C123.972067,66.3152505 123.882555,66.291141 123.95937,66.21831 C123.9963,66.1726605 124.075098,66.2699415 124.128844,66.281697 C124.659639,66.57198 125.190435,66.8622615 125.721229,67.1525445 C125.696064,67.2383595 125.651301,67.2572685 125.582907,67.1955075 C125.432757,67.093605 125.186586,67.0545375 125.075913,67.232292 C124.856097,67.584948 124.670789,67.9581555 124.467083,68.320383 C124.190151,68.83332 123.90162,69.3402225 123.633165,69.857568 C123.504843,70.04217 123.647655,70.2695685 123.830213,70.346571 C123.867227,70.3668135 123.904241,70.3870575 123.941255,70.4073 L123.94125,70.4073 Z" id="Shape" fill="#000000"></path>
        <path d="M130.3326,68.9082 C130.182237,69.330345 130.031874,69.7524915 129.881511,70.1746365 C129.696726,70.1551305 129.819633,69.9184965 129.762138,69.7937925 C129.696152,69.223779 129.275733,68.6915955 128.703011,68.569665 C128.265149,68.450361 127.803008,68.675832 127.545939,69.0319665 C127.157327,69.5624265 126.921098,70.2098895 126.887885,70.8671865 C126.865718,71.240709 127.037141,71.6241225 127.363208,71.8207485 C127.621856,71.9911425 127.935825,72.0596985 128.242829,72.0510795 C128.351156,71.7317235 128.480642,71.418843 128.570924,71.093928 C128.607972,70.882596 128.38943,70.7549205 128.214663,70.7064915 C128.187377,70.645191 128.255139,70.569717 128.326302,70.635789 C128.878172,70.8323595 129.430043,71.0289285 129.981912,71.225499 C129.962138,71.429214 129.731891,71.2092105 129.604404,71.290509 C129.40046,71.368779 129.382953,71.6140245 129.305643,71.791386 C129.238397,71.980185 129.171149,72.168984 129.103901,72.357783 C128.362023,72.4102815 127.597391,72.253284 126.951761,71.879883 C126.324036,71.484303 125.899507,70.7206065 126.022998,69.971553 C126.118595,69.33045 126.518165,68.729955 127.109274,68.446743 C127.652223,68.1582555 128.314838,68.159367 128.878599,68.388063 C129.186938,68.4919485 129.453078,68.68254 129.691625,68.899554 C129.836187,69.09459 130.115966,69.0949725 130.234575,68.873286 C130.267253,68.884926 130.299929,68.896563 130.332606,68.9082015" id="Shape" fill="#000000"></path>
        <path d="M133.0254,73.23015 C133.022055,73.2974655 133.01454,73.359111 132.933904,73.321539 C132.302019,73.225821 131.670132,73.1301015 131.03825,73.0343835 C131.041595,72.967068 131.04911,72.9054195 131.129747,72.942993 C131.294074,72.9765645 131.514371,72.9737805 131.59365,72.796455 C131.673936,72.5432685 131.689903,72.275058 131.736097,72.014238 C131.844621,71.285793 131.960421,70.5583515 132.064033,69.829233 C132.104277,69.672066 132.050473,69.4943145 131.887766,69.4332915 C131.79565,69.389592 131.692945,69.383064 131.593862,69.366546 C131.597206,69.2992305 131.604722,69.237582 131.685357,69.275154 C132.317242,69.3708735 132.949129,69.466593 133.581012,69.5623125 C133.577667,69.629628 133.570152,69.6912735 133.489515,69.653703 C133.324275,69.619698 133.105007,69.624165 133.02283,69.7998195 C132.942542,70.053006 132.926577,70.3212165 132.880381,70.582035 C132.771858,71.3104815 132.656063,72.0379245 132.552447,72.767055 C132.512618,72.9237825 132.566562,73.1051805 132.730244,73.164339 C132.823233,73.2066075 132.925963,73.213695 133.0254,73.230162 L133.0254,73.23015 Z" id="Shape" fill="#000000"></path>
        <path d="M138.1431,71.9871 C138.118089,72.4352055 138.093079,72.8833125 138.068068,73.331418 C136.940786,73.3889355 135.813509,73.446453 134.686214,73.5039705 C134.665534,73.421658 134.687564,73.37787 134.777119,73.395135 C134.947108,73.399455 135.166038,73.32741 135.187721,73.132347 C135.202776,72.7982955 135.165197,72.464166 135.154011,72.1301565 C135.117546,71.4639735 135.091205,70.7971035 135.047673,70.1314065 C135.066255,69.9331845 134.887665,69.786252 134.699602,69.792306 C134.639863,69.7620615 134.478343,69.854601 134.494464,69.745668 C134.467242,69.6574455 134.589725,69.704403 134.641537,69.687549 C135.268588,69.655554 135.895638,69.6235605 136.522688,69.591567 C136.543365,69.673878 136.521338,69.7176705 136.431781,69.700407 C136.257986,69.699507 136.032023,69.741768 135.983938,69.937905 C135.956497,70.226907 135.996838,70.5175785 136.004574,70.8072015 C136.04271,71.500992 136.069671,72.1955565 136.115533,72.8888115 C136.101463,73.0702875 136.247117,73.230855 136.435072,73.195869 C136.709607,73.182144 136.990006,73.193829 137.258046,73.124868 C137.634163,73.024797 137.839161,72.652341 137.942179,72.3044085 C138.009639,72.210342 137.953804,71.975661 138.10276,71.989161 C138.1162,71.988411 138.129654,71.987811 138.1431,71.987106" id="Shape" fill="#000000"></path>
        <path d="M140.77965,68.73285 C140.690016,68.73444 140.729505,68.8487775 140.706764,68.908779 C140.557065,70.030239 140.415201,71.152824 140.260344,72.273549 C140.222694,72.521859 140.160735,72.8117265 139.915733,72.937416 C139.825368,72.9695025 139.904933,73.1116665 139.987764,73.0326 C140.364227,72.919662 140.740688,72.8067225 141.11715,72.6937845 C141.102945,72.5035035 140.886093,72.676386 140.764635,72.642933 C140.50554,72.642633 140.467034,72.327999 140.503095,72.1312845 C140.518721,71.9984715 140.534345,71.86566 140.54997,71.732847 C140.98122,71.60316 141.41247,71.4734715 141.84372,71.3437845 C142.008824,71.551644 142.190807,71.7473835 142.340151,71.966691 C142.452338,72.178245 142.179771,72.2749245 142.021466,72.315786 C141.947532,72.323616 142.012061,72.478452 142.079498,72.406506 C142.646217,72.2366415 143.212938,72.0667755 143.779658,71.8969095 C143.774513,71.7045375 143.528159,71.8848195 143.424359,71.756475 C143.106116,71.5173495 142.877775,71.1846405 142.614387,70.89021 C142.002809,70.1710965 141.39123,69.451941 140.779647,68.73285 L140.77965,68.73285 Z M140.770275,70.0781625 C141.076526,70.4437875 141.382775,70.8094125 141.689025,71.1750375 C141.321837,71.284413 140.954651,71.393787 140.587463,71.5031625 C140.6484,71.028162 140.709338,70.553163 140.770275,70.0781625 L140.770275,70.0781625 Z" id="Shape" fill="#000000"></path>
        <path d="M146.565,66.20685 C146.727929,66.5098905 146.890856,66.8129295 147.053784,67.11597 C146.90172,67.246581 146.822633,66.9435555 146.684774,66.8972565 C146.458832,66.707106 146.117993,66.6711435 145.866308,66.8324685 C145.763292,66.8860545 145.661547,66.942048 145.559112,66.996732 C146.050632,67.906905 146.535407,68.820822 147.031296,69.728562 C147.108071,69.961377 147.394035,70.0050315 147.57854,69.873783 C147.649877,69.8220705 147.714498,69.792687 147.737412,69.9020115 C147.487968,70.0466295 147.215249,70.18425 146.956854,70.326177 C146.631404,70.5011535 146.305953,70.6761315 145.980503,70.851108 C145.903827,70.771644 145.95515,70.7306685 146.041425,70.700202 C146.272859,70.6143435 146.361699,70.333434 146.206859,70.1358675 C145.725945,69.2320065 145.237784,68.3319525 144.754032,67.4295675 C144.484634,67.5787605 144.140562,67.7133465 144.072564,68.049267 C143.996039,68.2606665 144.108539,68.519526 144.108684,68.6993745 C144.025703,68.7854565 144.003894,68.668086 143.965494,68.605893 C143.826266,68.346933 143.687037,68.087973 143.547809,67.829013 C144.553539,67.2882885 145.559264,66.7475625 146.564999,66.206838 L146.565,66.20685 Z" id="Shape" fill="#000000"></path>
        <path d="M148.85265,64.85055 C149.16429,65.2636935 149.47593,65.6768355 149.78757,66.089979 C150.004343,65.9522145 150.185393,65.7060045 150.120367,65.4370395 C150.145342,65.2269465 149.844894,64.9888605 149.948104,64.84155 C150.016087,64.7993325 150.056138,64.9566225 150.112403,64.9980765 C150.468293,65.469891 150.824197,65.941704 151.180087,66.4135185 C151.040828,66.5720925 150.939998,66.2488125 150.792547,66.213882 C150.584573,66.066024 150.292657,65.99232 150.069607,66.1543305 C149.903071,66.207522 149.91084,66.3009675 150.024157,66.4036155 C150.274672,66.7270335 150.507232,67.065171 150.774608,67.374861 C150.938257,67.533678 151.141807,67.367721 151.280362,67.2573645 C151.638577,67.0134195 151.953098,66.6325815 151.934663,66.175707 C151.958168,65.976345 151.832857,65.7537645 151.834148,65.5854825 C151.914488,65.4786375 151.936882,65.644539 151.982992,65.6988255 C152.151292,66.002793 152.319592,66.3067605 152.487892,66.610728 C151.610707,67.272396 150.733537,67.9340655 149.856352,68.595738 C149.742081,68.5148595 149.854507,68.4671865 149.926482,68.4113355 C150.17218,68.2594875 150.094105,67.949565 149.913297,67.779342 C149.351098,67.038879 148.798792,66.2906565 148.229352,65.555847 C148.083609,65.358216 147.814707,65.4622545 147.667585,65.600052 C147.60666,65.6866215 147.511071,65.513292 147.626772,65.5004895 C148.453918,64.876563 149.281062,64.252638 150.108207,63.6287145 C150.334602,63.928842 150.560982,64.2289695 150.787377,64.529097 C150.629997,64.6886535 150.490647,64.3330995 150.311157,64.3144545 C149.985142,64.144791 149.597491,64.281576 149.328078,64.4959245 C149.167026,64.610613 149.011002,64.732152 148.852684,64.850553" id="Shape" fill="#000000"></path>
        <polygon id="path28" fill="#FFFFFF" points="0.005634 15.1720132 19.0044453 15.1720132 0.005634 5.60904884 0.005634 0.17128479 10.8799537 0.17128479 37.4407918 13.4219282 37.4407918 0.17128479 52.3773575 0.17128479 52.3773575 13.4219282 78.9381957 0.17128479 89.8750115 0.17128479 89.8750115 5.60904884 70.813704 15.1095102 89.8750115 15.1095102 89.8750115 30.1102386 70.813704 30.1102386 89.8750115 39.6106999 89.8750115 45.110967 78.9381957 45.110967 52.3773575 31.8603235 52.3773575 45.110967 37.4407918 45.110967 37.4407918 31.8603235 10.8799537 45.110967 0.005634 45.110967 0.005634 39.6106999 19.0044453 30.1102386 0.005634 30.1102386"></polygon>
        <polygon id="path32" fill="#CF142B" points="82.8129533 0.17128479 52.81483 15.1720132 60.0018804 15.1720132 89.8750115 0.17128479"></polygon>
        <polygon id="path36" fill="#CF142B" points="89.8750115 45.17347 59.9393843 30.1727416 67.1264346 30.1727416 89.8125153 41.6107969 89.8125153 45.17347"></polygon>
        <polygon id="path40" fill="#CF142B" points="30.0662533 15.1720132 0.005634 0.17128479 0.005634 3.73395778 22.8167068 15.1720132"></polygon>
        <polygon id="path44" fill="#CF142B" points="30.0037572 30.1727416 0.005634 45.17347 7.19268435 45.17347 37.1908075 30.1727416"></polygon>
        <polygon id="path48" fill="#CF142B" points="0.005634 18.2346619 40.6280925 18.2346619 40.6280925 0.108781755 49.3775451 0.108781755 49.3775451 18.2346619 89.8750115 18.2346619 89.8750115 27.0475899 49.3775451 27.0475899 49.3775451 45.17347 40.6280925 45.17347 40.6280925 27.0475899 0.005634 27.0475899"></polygon>
    </g>
</svg>