<?xml version="1.0" encoding="UTF-8" standalone="no"?>
<svg width="180px" height="120px" viewBox="0 0 180 120" version="1.1" xmlns="http://www.w3.org/2000/svg" xmlns:xlink="http://www.w3.org/1999/xlink">
    <!-- Generator: Sketch 40.2 (33826) - http://www.bohemiancoding.com/sketch -->
    <title>icon-flag-me</title>
    <desc>Created with Sketch.</desc>
    <defs></defs>
    <g id="Page-1" stroke="none" stroke-width="1" fill="none" fill-rule="evenodd">
        <path d="M0,0 L0,120 L180,120 L180,0 L0,0 L0,0 Z M6,6 L6,114 L174,114 L174,6 L6,6 L6,6 Z" id="rect962-copy_1_" fill="#E5B731"></path>
        <polygon id="rect962-copy_1_-path" fill="#C40308" points="6 6 6 114 174 114 174 6"></polygon>
        <path d="M117.5,59.7 C120,59.1 125.6,56.8 125,53.4 C125.1,54.1 119.5,56.3 118.9,56.4 C120.9,56.1 126.4,51.5 124.6,49.1 C124.3,49.2 124.1,49.3 124,49.5 C124.1,48.5 121.5,51.4 121.2,51.7 C122.4,50.4 125.5,45.8 123.9,43.9 C123.3,44.1 123,44.5 123,45.2 L123,44 C122.1,46.1 121.1,48 119.6,49.8 C120.8,47.5 124.8,41 121.8,38.5 C121.7,38.4 120.8,41.4 121,40.8 C121,40.2 120.8,39.6 120.6,39 C120.6,39 119.6,42.3 119.7,42 C120.2,39.2 120.6,35.3 118.6,33 C118.6,33.6 118.6,34.3 118.5,34.9 C118.4,34.5 118.2,34.2 118,34 C118,36.9 117.4,39.8 116.4,42.5 C115.9,41.7 117.4,36.5 117.2,35.1 C117,33.5 116.5,31.9 115.5,30.7 C114.7,29.7 116.8,32.3 114.3,30.1 C113.8,36.6 113.6,41.9 109.8,47.3 C109.7,47.1 109.5,46.3 109.2,46.2 C108.7,46.6 108.4,47.1 108.3,47.7 C107.9,46.5 106.3,49.9 105.7,50.6 C104.1,52.8 102.6,53.6 104,56 C104.8,57.4 107.4,57.4 105.7,59.1 C106.3,58.4 101.1,61 101.7,60.9 C101.4,57.5 103,57.1 101.5,54.5 C100.3,52.4 97.5,51.7 97.5,49.6 C99.4,49.8 98,47.9 98.4,46.5 C100.3,48 99,45.7 100.1,45.1 C100.9,44.7 102.3,44.8 103.5,44.5 C104,44.4 104.4,43.4 104.8,43.4 C105.8,43.2 106.5,44.2 107.8,43.9 C108.7,43.7 112,40.6 109.4,40.2 C109,40.5 108.9,40.9 109,41.5 C109,41.6 107.4,41.8 106.3,42 C105.5,42.1 104.2,41.4 103.4,42 C104.9,40.5 105.5,40.9 106.9,41.7 C107.4,42 107.1,39.5 107,39.3 C106.4,38.6 105.8,38.9 105.1,38.5 C105.1,38.5 102.6,37.4 102.5,37.4 C100.4,36.9 100.3,37.9 98.4,38 C98,38 94.4,38.1 97,37.2 C94.2,36.7 98.6,34.2 99.4,33 C102.2,28.3 94.5,26.8 91.7,25.7 C92.5,24.6 92,23.5 91,23 C91.1,23 91.1,22.9 91,22.8 C92.2,22.5 91.4,22.6 92,21.7 C91.8,21.6 91.3,21.8 91,21.8 C91,21.6 91.1,21.3 91.1,21.1 L89.6,21.1 C89.6,21.3 89.7,21.6 89.7,21.8 L89,21.8 C89.1,22 89,22.7 89.1,23 C89.4,23 89.6,22.9 89.9,22.9 C89,23.5 88.3,24.6 89,25.8 C86,27 82.9,26.9 81.6,29.9 C80.1,33.2 82.4,33 84.2,35.2 C83.9,34.9 84.5,37.9 84.8,37.5 C84.1,38.6 82.4,38.2 81.7,38.1 C79.8,37.9 79.2,37.5 77.4,37.9 C77.8,37.8 74,39.3 74.6,38.8 C73.8,39.4 72.8,40.7 73.4,41.5 C73.7,41.9 76,40.7 77.3,42.1 C76.3,41.2 74.4,42.5 73.5,42.2 C73.1,42.1 70.8,40.3 71.4,40.2 C69.5,40.5 71.3,43.4 72.3,43.8 C73.6,44.4 75.4,42.7 76.2,43.7 C76.9,44 80.5,45 80.7,47 C81.2,46.8 81.5,47.2 82,46.8 C82.2,48 81.3,50 83.1,49.6 C83.2,51.7 80,52.6 79,54.9 C78.1,57.1 79.5,58.1 79.4,61 C78.9,60.9 78.3,59.9 78,59.8 C78.4,59.8 75.1,58.9 75.7,59.2 C72.2,57.1 76,57.7 76.8,55.2 C77.1,54.1 72.2,45.8 71.6,46.1 C71.4,46.2 71.1,47 71,47.2 C70.1,46.2 66.7,39.7 66.9,39.4 C67.9,37.4 66.1,32.3 65.9,30 C64.7,31.1 63.9,33.1 63.6,35 C63.5,35.8 63.3,42.2 64.4,42.5 C62.5,42 62.2,34.5 62.2,33 C59.3,36.2 60.7,43.2 62.6,46.6 C61.8,46.2 59.1,39.6 59.6,39 C59.5,39.2 59.4,39.4 59.4,39.6 C59.4,39.1 59.3,38.8 59,38.5 C56,40.9 59.7,47.7 61.3,49.7 C59.5,49.4 57.8,45.5 57.2,43.9 C57.5,43.8 56.5,44.3 56.9,43.8 C54.9,46.3 59.5,51.8 61.2,53.1 C60.3,52.7 56.5,48.8 56.2,49.1 C54,50.6 60.4,56 61.9,56.3 C61.3,56.2 55.7,54 55.8,53.3 C55.4,55.7 61.8,61.1 63.7,59.8 C61.8,61.1 58.5,57 56.8,57.3 C55.7,57.5 58.9,61.1 59.1,61.2 C60.3,62 62.2,62.4 63.6,62.4 C62.7,63.8 58,61 57.4,60.8 C57,60.6 56.8,59.5 55.9,60.1 C56.2,59.9 55.6,62.2 55.3,61.5 C55.6,62.1 56.1,62 56.4,62 C54.8,62.3 55.4,64.4 56.9,63.5 C57.2,62.8 56,66.2 56.3,64.3 C56.5,63.3 56.4,66 56.2,65.2 C56.3,65.7 57.8,66.2 58.1,66.9 C58.7,68.1 58.7,69.4 58.9,70.6 C59.4,73.5 60.4,74.6 61.6,77 C61.7,77.2 64.1,84.2 64.1,84.3 C63.8,84.4 63.6,84.5 63.4,84.7 C63.2,82.8 62.5,85.7 62.6,86.7 C62.7,87.5 63.8,89.1 64.3,89.7 C64.8,90.3 65.9,90.5 66.4,91 C66.5,91.1 67.3,91.3 67.5,91.5 C68,91.9 67.1,93.1 67.5,93.6 C67.3,93.3 70.1,93.9 70,94 C69,94.1 71.8,90.9 71.7,91.8 C71.8,90.9 69.6,91 70,89.1 C70.4,87.2 73.7,85 75.3,84.2 C75.3,86.5 78.8,83.3 79.9,82.9 C80,82.9 80.4,83.9 80.7,83.8 C81.4,83.4 81.6,82.6 82.2,82.1 C82.8,81.5 85.4,77.2 86.5,77.8 C85.9,79.5 84.5,80.5 83.9,82.2 C83.3,83.6 83.7,85.3 82.9,86.8 C82.2,88.2 75.7,92.7 80.7,92.6 C79,94.3 81.7,95.2 83.2,94.6 C83.3,97.1 83.8,96.8 86.1,95.6 C85.3,97.7 87,100 88.4,97.3 C89.5,102.2 91.1,100.8 92.9,97.6 C94.5,99.2 95.8,97.9 94.9,95.6 C96.2,96.3 98.7,97.5 97.8,94.8 C98.2,95.9 102,94.8 99.7,92.6 C105.3,91.2 99.6,90.5 98.2,87.5 C97.8,86.7 98,85.4 97.8,84.4 C97.3,82 95.5,80.1 94.6,77.8 C96,77.2 99.4,83.1 100.7,83.6 C100.2,83.4 102.2,83.2 102.4,83.3 C103.2,83.5 105.6,86.4 105.7,84.5 C109.3,85.5 111.3,87.9 115.1,87 C117.2,86.5 121.9,85.5 122.4,83.2 C123,80.4 119.2,77.6 119,75.2 C122.5,74.4 118,71 118.1,73 C116.9,72.8 116.1,74.7 117.6,74.7 C118.2,75.4 114.2,76.3 113.9,76.5 C112.7,77.3 112.5,78.1 111.9,78.7 L112.1,78.1 C111.6,78.1 110.8,78.9 111.6,79.1 C109.7,81.6 111,81.3 111.7,84.5 C111.3,84.5 108.4,82.1 108.4,82 C108.6,81.8 109.2,82 109.3,81.6 C109.5,80.2 106.7,81.7 108.6,79.8 C107.3,81.2 106,77.7 106.4,78 C104.7,77.1 102,76.5 101.3,73.9 C102.3,75.5 105.6,76.6 104.1,73.9 C105.2,74.8 110.9,75.9 108.8,73.7 C110,73.7 113.8,74 114.2,72.1 C113.7,72.1 113.2,72 112.7,71.8 C113.9,71.1 117.2,72.1 117.2,69.5 C116.8,69.4 116.3,69.3 115.9,69.2 C117.8,69 120.2,68 120.1,65.8 C118.7,66.1 117.3,66.3 115.8,66.1 C118.5,66 122.1,65.4 122.4,62.1 C120.8,62.5 119.1,62.9 117.3,63 C118.8,62.7 120.6,62.5 121.8,61.6 C122,61.5 125.2,57.9 124.1,57.7 C123.2,57.5 120.3,59.5 119.5,59.8 C119,59.6 116.5,60 117.5,59.7 C118.3,59.5 116.7,59.9 117.5,59.7 L117.5,59.7 Z M97,29.5 C97.2,30.3 98,30.8 97.7,31.9 C97.2,33.7 96.7,32.1 96.1,32.5 C97.3,31.6 96.9,30 96,29 C96.4,29.1 96.7,29.3 97,29.5 C97.1,29.6 96.6,29.2 97,29.5 L97,29.5 Z M58.1,63.2 C57.7,63.6 58.6,62.8 58.1,63.2 L58.1,63.2 L58.1,63.2 Z M59,63.6 C59,63.6 58.4,63.9 58.4,64 C58.4,64 58.8,63.1 58.6,63 L58.8,63 C59.1,63.3 59.2,63.5 59,63.6 L59,63.6 Z M78.5,74.9 C77.8,76.3 75,77.3 74.2,77.7 C74.6,77.5 73.1,80.5 72,79.4 C73.8,81.3 71,79.8 71.3,81.2 C71.6,81.5 72,81.7 72.5,81.7 C71.7,82.2 72.1,82 72.5,82 C71,83.1 66.7,83.7 65.5,82.6 C64.6,81.7 63.8,78.3 63.3,77 C62.7,75.5 62.4,73.7 61.7,72.1 C60.7,69.8 57.7,66.7 59.1,64 C60.3,65.6 62.9,65.8 64.8,65.9 C63.4,66.1 62,66 60.6,65.6 C60.6,67.7 62.5,68.8 64.5,69 C64.1,69.1 63.8,69.2 63.4,69.2 C63.4,71.4 66.2,70.9 67.4,71.5 C67,71.6 66.7,71.7 66.3,71.7 C66.7,73.9 71.5,72.7 71.7,73.1 C71.8,73.4 70.2,74 71.3,74.3 C72.9,74.8 74.7,74.9 75.9,73.6 C75.9,73.7 75.9,73.8 76,73.8 C75.6,74.1 75.5,74.4 75.6,74.9 C76.7,75.9 78.4,74.3 78.9,73.5 C78.8,74 78.6,74.5 78.5,74.9 C78.1,75.7 78.7,74.5 78.5,74.9 L78.5,74.9 Z M91.7,31.9 C92.1,30.6 91.8,29.5 91.7,28.1 C94.6,29.1 94.5,34.6 91,32.6 C91.3,32.4 91.5,32.2 91.7,31.9 L91.7,31.9 Z M88.1,28.8 C88.5,28.5 88.9,28.2 89.4,28 C89.2,29.7 88.7,31.2 90.1,32.5 C87.1,34.2 86,30.5 88.1,28.8 L88.1,28.8 Z M83.7,32.9 C83.5,32.8 83.2,32.8 83,32.7 C82.9,31.2 83.1,29.9 84.7,29.2 C84.8,29 83.7,33.7 84.8,33 C85.1,32.9 84.8,32.9 83.7,32.9 C83.4,32.8 84.1,33 83.7,32.9 L83.7,32.9 Z M95.9,41.4 C95.7,41.5 94.6,41.8 94.7,42.1 C94.9,42.4 95.1,42.6 95.5,42.7 C94.5,44 91.6,44.3 93.6,45.9 C93.1,46.6 91.4,47.5 91.1,48.1 C90.8,48.7 91.4,49.3 91.3,49.6 C91.2,49.8 91.5,51.2 90.6,52 C90.2,51.4 89.8,50.7 89.4,50.1 C89.4,50 90.2,49.5 90.1,49.2 C89.6,47.9 88.5,47.3 87.5,45.9 C89.5,44.3 86.7,44 85.6,42.7 C85.9,42.6 86.2,42.4 86.4,42.1 C86.4,41.9 84.3,40.6 84.1,40.3 C84.9,39.9 85.8,39 85.7,38 C87.8,38.7 90,38.9 92.1,38.7 C92.8,38.6 94.6,37.9 95.1,38.1 C95.4,38.2 96.4,40 97,40.3 C96.8,40.8 96.4,41.1 95.9,41.4 L95.9,41.4 Z M114.6,36.3 C114.6,36.1 114.6,35.9 114.7,35.9 C114.7,36.1 114.6,36.2 114.6,36.3 L114.6,36.3 Z" id="Shape" fill="#D4AF3A"></path>
        <path d="M100.9,57 L98.4,54.1 C96.3,55.3 93.8,55 91,54 C88.2,55 85.7,55.3 83.6,54.2 L81.1,57 C81.1,57 82.3,59.2 81.9,61.9 C81.5,64.6 80.9,67.7 81,69.6 L81,70 L83.3,70 C83.3,70 83.4,69.8 83.7,69.7 C84,69.6 84,69.5 84,69.5 C84,69.5 84,69 84.3,68.9 C84.6,68.8 84.7,68.8 84.8,68.8 C84.9,68.8 85,68.8 85.1,68.6 C85.2,68.5 85.6,68.1 85.7,67.7 C85.9,67.2 86,67 86,66.7 C86,66.4 86.1,65.9 86.1,65.9 C86.1,65.9 86,65.8 85.8,65.8 C85.6,65.9 85.5,65.7 85.5,65.4 C85.5,65.2 85.5,64.7 85.6,64.5 C85.7,64.3 85.8,64.2 85.8,64.2 L85.7,63.8 C85.7,63.8 84.3,64.1 84,62.9 C83.7,61.7 83.7,61.2 83.7,61.1 C83.7,61 83.6,60.9 83.4,60.9 C83.2,60.9 82.8,60.8 82.5,60.2 C82.2,59.6 82.2,59.4 82.3,59.1 C82.4,58.9 82.5,59 82.6,59 C82.6,59.1 83,59.6 83.2,59.5 C83.4,59.3 83.3,59.3 83.1,58.9 C82.9,58.5 83,58.3 83,58.1 C83,57.9 82.9,57.6 82.9,57.5 C82.9,57.4 83,57.3 83.2,57.3 C83.3,57.4 83.5,57.5 83.5,57.5 C83.6,57.6 83.6,57.7 83.7,57.6 C83.8,57.5 83.7,57.1 83.7,57 C83.7,56.9 83.9,56.8 84,56.9 C84.2,57 84.3,57.2 84.3,57.4 C84.3,57.5 84.3,57.7 84.4,57.7 C84.5,57.7 84.6,57.5 84.6,57.3 C84.6,57.2 84.7,56.9 84.8,57.1 C84.9,57.3 85,57.6 84.9,57.8 L84.9,58.4 C84.8,58.9 84.8,59.1 84.8,59.5 C84.8,59.9 84.8,60.1 85,60.5 C85.2,61 85.3,61.5 85.7,61.5 L86.1,61.5 C86.1,61.5 86.5,60.8 86.8,60.6 C87.1,60.4 87.5,60.4 87.8,60.4 C88.1,60.4 88.2,60.3 88.2,60.2 C88.2,60.1 88.1,60.1 87.8,60.1 C87.5,60.1 87.2,60 87.2,59.7 C87.2,59.4 87.3,59.2 87,59.2 C86.8,59.2 86.2,59 86,58.6 C85.8,58.2 85.8,58.1 85.9,57.9 C85.9,57.7 86.2,57.3 86.4,57.7 C86.6,58.1 86.7,58.1 86.8,58.2 C86.9,58.3 87.1,58.3 87,58 C86.9,57.7 86.8,57.6 86.9,57.4 C86.9,57.2 87.1,57.1 87.2,57.1 C87.4,57.1 87.8,56.9 88.1,56.9 C88.3,56.9 88.4,56.8 88.4,56.8 C88.4,56.8 88.4,56.6 88.7,56.5 C89,56.4 89.2,56.4 89.4,56.4 C89.6,56.4 89.8,56.4 90.1,56.3 C90.4,56.2 90.6,56.1 90.8,56.1 C91,56.1 91.1,56.2 91.3,56.3 C91.4,56.4 91.4,56.5 91.4,56.7 C91.4,56.8 91.4,56.9 91.6,56.9 C91.8,56.9 92,56.9 92.2,57 C92.4,57.1 92.7,57.2 92.5,57.4 C92.3,57.6 92.3,57.8 92.2,57.8 C92.1,57.8 92.1,57.9 92.1,58 C92.1,58.1 92,58.1 92.1,58.2 C92.2,58.3 92.2,58.3 92.4,58.5 C92.6,58.7 92.8,58.8 92.6,59.1 C92.3,59.4 91.9,59.6 91.9,59.6 C91.9,59.6 91.6,59.7 91.9,59.9 C92.2,60.1 92.3,60.4 92.4,60.5 C92.5,60.6 92.6,60.7 92.7,60.7 C92.8,60.7 92.8,61 92.8,61 L92.4,61.2 C92.2,61.3 92,61.4 91.8,61.4 C91.6,61.4 91.5,61.4 91.6,61.6 C91.7,61.8 91.8,62 91.9,62.1 C91.9,62.2 92,62.4 92,62.4 C92,62.4 92.3,62.5 92.6,62.5 C92.9,62.5 93,62.5 93.7,62.4 C94.4,62.3 94.5,62.3 95.2,62.4 C95.8,62.5 95.9,62.5 96.1,62.5 C96.3,62.6 96.4,62.6 96.4,62.6 C96.4,62.6 97.3,62.6 97.8,62.5 C98.3,62.4 98.4,62.1 98.3,61.9 C98.2,61.7 98.2,61.5 97.4,61.3 C96.5,61.2 96.2,61.2 95.5,61.1 C94.8,61 93.8,60.6 93.6,59.7 C93.4,58.8 94.1,58.4 94.4,58.3 C94.7,58.1 95.5,57.9 95.8,57.7 C96.1,57.6 96.8,57.4 97.4,57.5 C98.1,57.6 98.5,57.8 98.7,57.6 C99,57.4 99.2,57.6 99.1,57.8 C99.1,58 98.8,58.6 98,58.8 C97.2,59 96.3,59.1 95.8,58.9 C95.3,58.8 94.9,58.6 94.6,58.7 C94.3,58.8 94,59.2 94.3,59.7 C94.6,60.2 96.3,60.3 96.7,60.3 C97.1,60.4 98.8,60.2 99.2,61.1 C99.7,61.9 99.3,62.9 98.7,63.1 C98.2,63.3 97.7,63.4 97.3,63.5 L97,63.7 C97,63.7 97.2,64.1 97.2,64.3 C97.2,64.5 97.2,64.8 97.4,65 C97.6,65.1 97.9,65.2 98.2,65.2 C98.5,65.2 99,65.4 99,65.7 C99,66 99.1,66.5 99.2,67.1 L99.2,68.3 C99.2,68.3 99.2,68.5 99.1,68.8 C99,69.1 98.5,70 98.5,70 L100.9,70 L100.9,69.6 C101,67.8 100.4,64.7 100,61.9 C99.7,59.2 100.9,57 100.9,57 L100.9,57 Z" id="Shape_3_" fill="#1D5E91"></path>
        <path d="M81,71 C81.5,72.5 82.5,73.9 84,74.9 C86.1,76.2 87.1,76.1 89.1,77.4 C91.1,78.8 91,79 91,79 C91,79 90.9,78.8 92.9,77.4 C94.9,76 95.8,76.2 98,74.9 C99.5,73.9 100.5,72.5 101,71 L81,71 L81,71 L81,71 Z" id="Shape_4_" fill="#6D8C3E"></path>
    </g>
</svg>