<?xml version="1.0" ?><svg height="120px" version="1.1" viewBox="0 0 180 120" width="180px" xmlns="http://www.w3.org/2000/svg" xmlns:sketch="http://www.bohemiancoding.com/sketch/ns" xmlns:xlink="http://www.w3.org/1999/xlink"><title/><defs/><g fill="none" fill-rule="evenodd" id="Africa,-Middle-East-and-India" stroke="none" stroke-width="1"><g id="Africa,-Middle-Eest-and-India" transform="translate(-601.000000, -401.000000)"><g id="Gambia" transform="translate(600.000000, 401.000000)"><rect d="M0,0 L0,120 L180,120 L180,0 L0,0 Z M0,0" fill="#FFFFFF" height="120" id="Rectangle-3-copy-4" width="180" x="0" y="0"/><rect d="M0.00549314351,80 L0.00549314351,120 L180.005493,120 L180.005493,80 L0.00549314351,80 Z M0.00549314351,80" fill="#479951" height="40" id="Rectangle-3-copy-2" width="180" x="0.00549314351" y="80"/><rect d="M0.00549331208,45 L0.00549331208,75 L180.005493,75 L180.005493,45 L0.00549331208,45 Z M0.00549331208,45" fill="#346DA6" height="30" id="Rectangle-3-copy-3" width="180" x="0.00549331208" y="45"/><rect d="M0.00274665604,-3.55271368e-15 L0.00274665604,40 L180.002747,40 L180.002747,-3.55271368e-15 L0.00274665604,-3.55271368e-15 Z M0.00274665604,-3.55271368e-15" fill="#CA4638" height="40" id="Rectangle-3" width="180" x="0.00274665604" y="-4.73709694e-15"/></g></g></g></svg>