<?xml version="1.0" ?><svg height="120px" version="1.1" viewBox="0 0 180 120" width="180px" xmlns="http://www.w3.org/2000/svg" xmlns:sketch="http://www.bohemiancoding.com/sketch/ns" xmlns:xlink="http://www.w3.org/1999/xlink"><title/><defs/><g fill="none" fill-rule="evenodd" id="Asia-Pacific" stroke="none" stroke-width="1"><g id="TH" transform="translate(-200.000000, -1001.000000)"><g transform="translate(200.000000, 1001.000000)"><rect d="M0,0 L0,120 L180,120 L180,0 L0,0 Z M0,0" fill="#CA4638" height="120" id="TH-copy-2" width="180" x="0" y="0"/><rect d="M0,20 L0,100 L180,100 L180,20 L0,20 Z M0,20" fill="#FFFFFF" height="80" id="TH-copy-3" transform="translate(90.000000, 60.000000) scale(1, -1) translate(-90.000000, -60.000000) " width="180" x="0" y="20"/><rect d="M0,40 L0,80 L180,80 L180,40 L0,40 Z M0,40" fill="#346DA6" height="40" width="180" x="0" y="40"/></g></g></g></svg>