<?xml version="1.0" ?><svg height="120px" version="1.1" viewBox="0 0 180 120" width="180px" xmlns="http://www.w3.org/2000/svg" xmlns:sketch="http://www.bohemiancoding.com/sketch/ns" xmlns:xlink="http://www.w3.org/1999/xlink"><title/><defs/><g fill="none" fill-rule="evenodd" id="Asia-Pacific" stroke="none" stroke-width="1"><g id="BN" transform="translate(-600.000000, -1.000000)"><g transform="translate(600.000000, 1.000000)"><rect d="M0,0 L0,120 L180,120 L180,0 L0,0 Z M0,0" fill="#E5B731" height="120" id="Rectangle-123" width="180" x="0" y="0"/><path d="M0,55.5652174 L180,114 L180,88.4347826 L0,30 L0,55.5652174 Z M0,55.5652174" fill="#262626" id="Oval-26-copy"/><path d="M0,30.5840695 L180,88.6110496 L180,63.2242458 L0,5.19726562 L0,30.5840695 Z M0,30.5840695" fill="#FFFFFF" id="Oval-26-copy-2"/><g id="Flag_of_Brunei" transform="translate(56.000000, 26.000000)"><path d="M30.3854704,63.8149249 C27.4993444,63.4194938 24.8546917,62.469697 23.0169483,61.1685905 C22.6609694,60.9165604 22.326534,60.7103561 22.2737592,60.7103561 C22.2206894,60.7103561 22.1776396,60.9902727 22.1774354,61.3366542 C22.1768692,62.3196326 21.7948434,62.8130642 20.8350297,63.0705342 C19.9170498,63.3167807 18.5165732,62.820096 17.3812266,61.8456226 C16.2055751,60.8365653 14.84781,60.0665703 13.6990086,59.7574264 C12.7523621,59.5026841 11.4969859,59.5434291 10.5892138,59.8583534 C10.1677877,60.0045514 9.68702247,60.2109653 9.52084642,60.3170547 C9.35467037,60.4231442 9.16934549,60.5099414 9.10902147,60.5099414 C8.94799996,60.5099414 8.97128702,59.4537917 9.1397341,59.1169384 C9.36110199,58.6742392 9.9088225,58.2383868 10.5453653,57.9983675 C10.8675424,57.8768908 11.1311435,57.7205004 11.1311435,57.6508395 C11.1311435,57.581177 11.0226539,57.3279295 10.8900561,57.0880674 C10.4575847,56.3057472 10.6348134,55.5472237 11.3892667,54.9514935 C12.1616559,54.3416059 13.4678994,54.2361036 14.6234126,54.6902681 C14.9144182,54.8046483 15.1852183,54.8982508 15.225188,54.8982801 C15.3767051,54.8983864 15.2842036,54.6792343 14.8662764,54.0479571 C14.3825681,53.3173155 14.2871741,52.9567349 14.347896,52.0885775 C14.4249429,50.987069 15.2925233,50.0877041 16.3546975,50.0082514 C17.2220291,49.9433754 17.7621556,50.2444412 19.0412704,51.5057474 C22.8643389,55.275584 27.0203391,57.3522424 31.8678504,57.9149035 C33.0912696,58.0569083 35.5525227,57.9804961 36.9966393,57.7556776 C41.3584484,57.0766407 45.7530743,54.8086673 49.185371,51.4653245 C50.135886,50.5394399 50.5929976,50.2940563 51.3729434,50.2909943 C52.0507046,50.2883376 52.5256521,50.5141901 53.0113036,51.0700999 C53.4548277,51.5777769 53.6042899,52.0604352 53.5568052,52.8316476 C53.5262804,53.3273908 53.4479371,53.5699851 53.1635867,54.0492731 C52.7433735,54.7575528 52.8147904,54.8225644 53.6459956,54.4884311 C54.7699452,54.0366212 56.1539628,54.2451433 56.9010606,54.9788592 C57.558153,55.6241753 57.6205409,56.2699582 57.1104355,57.1459811 C56.9239006,57.4663283 56.7712837,57.7671953 56.7712837,57.8145775 C56.7712837,57.9026184 56.912836,57.9443696 57.5949396,58.0575063 C58.4875729,58.2055658 59,58.8922324 59,59.9403364 C59,60.2536196 58.9623878,60.5099414 58.9164247,60.5099414 C58.8704615,60.5099414 58.5324944,60.3818599 58.1653958,60.2253123 C57.1240856,59.78126 56.5323302,59.6667827 55.3177775,59.674437 C54.3916255,59.6802714 54.0724973,59.7256117 53.4282175,59.9428869 C52.4388967,60.2765163 51.3826832,60.9205163 50.5212006,61.7153697 C49.5726005,62.5905989 48.9754731,62.866703 48.050239,62.8578975 C47.1922882,62.8497362 46.6054355,62.5909579 46.2955836,62.084164 C46.1299426,61.8132424 46.1064439,61.6479941 46.146561,61.0360307 C46.172754,60.6364527 46.1678691,60.3095283 46.1357006,60.3095283 C46.1035351,60.3095283 45.7689566,60.5290272 45.3921927,60.7972997 C44.4034665,61.5013292 43.7719471,61.8489851 42.6400801,62.312362 C39.1853993,63.726679 34.2015216,64.3377579 30.3854704,63.8149249 C30.3854704,63.8149249 34.2015216,64.3377579 30.3854704,63.8149249 L30.3854704,63.8149249 L30.3854704,63.8149249 Z M30.3854704,63.8149249" fill="#CF1126" id="path3152"/><path d="M46.7936419,58.8092832 C47.441912,58.512184 48.2912174,57.7353106 48.6391612,57.1211477 C48.9164622,56.6316821 48.9553721,56.4630395 48.9886451,55.6064731 C49.0193205,54.8168561 48.9931773,54.5844998 48.8440356,54.3212946 C48.6770403,54.02657 48.624295,54 48.2062127,54 C47.801972,54 47.7239824,54.0352676 47.5164475,54.3119194 C47.2171521,54.7108925 47.186901,55.5719227 47.4614754,55.8765322 C47.6327373,56.0665327 47.6569366,56.0689637 48.0202228,55.9326029 C48.5256357,55.7428974 48.6110725,55.752171 48.6098955,55.9966187 C48.6068814,56.6201074 47.612506,57.8204881 46.5692387,58.4600309 C46.2884349,58.632166 46.0365842,58.8247584 46.009561,58.8880119 C45.9337667,59.0654538 46.3191024,59.0267599 46.7936419,58.8092832 C46.7936419,58.8092832 46.3191024,59.0267599 46.7936419,58.8092832 L46.7936419,58.8092832 L46.7936419,58.8092832 Z M46.7936419,58.8092832" fill="#FFCC00" id="path3138"/><path d="M32.7477532,62.8604049 C33.2947484,62.6948192 33.6059548,62.3918403 33.8295925,61.8071452 C33.9411551,61.5154614 34.0164537,61.212559 33.9969131,61.1340279 C33.9504492,60.9472861 33.7149483,60.9567342 33.454056,61.1558063 C33.2754791,61.2920714 33.2541038,61.3615547 33.3053264,61.6391943 C33.4351416,62.3428079 33.1624531,62.5171655 31.7092208,62.6597507 C31.5659474,62.6738112 31.1488442,62.6512173 30.7823223,62.6095489 C30.0917262,62.5310353 29.8451416,62.5935799 30.0954052,62.7837759 C30.1712917,62.8414497 30.3634391,62.919208 30.5224,62.9565751 C30.9094148,63.0475507 32.3327258,62.9860438 32.7477532,62.8604049 C32.7477532,62.8604049 32.3327258,62.9860438 32.7477532,62.8604049 L32.7477532,62.8604049 L32.7477532,62.8604049 Z M32.7477532,62.8604049" fill="#FFD42A" id="path3150"/><path d="M36.3710279,62.8714863 C36.4562728,62.7989841 36.748618,62.6722316 37.0206923,62.5898145 C37.3833923,62.4799356 37.5709662,62.3622264 37.7237762,62.1485998 C38.1655574,61.5309898 38.0832709,60.9996435 37.4346433,60.2815979 C37.0831474,59.8924823 36.926823,59.9031383 36.6464365,60.3353271 C36.403968,60.7090577 36.4094027,60.7323663 36.758784,60.8174451 C36.941577,60.8619591 37.1170519,60.9883438 37.2134882,61.1449331 C37.5938269,61.7625284 37.4817828,62.1452597 36.9193759,62.1495967 C36.4081419,62.1535392 36.2680904,62.2214125 36.1299153,62.5321947 C36.0584642,62.6929092 36,62.8646555 36,62.9138517 C36,63.0449653 36.192959,63.0229309 36.3710279,62.8714863 C36.3710279,62.8714863 36.192959,63.0229309 36.3710279,62.8714863 L36.3710279,62.8714863 L36.3710279,62.8714863 Z M36.3710279,62.8714863" fill="#FFD42A" id="path3148"/><path d="M35.8094626,62.5329234 C35.9610044,62.2331798 36.0132013,61.6950527 35.9972469,60.5969214 C35.9850991,59.7604452 35.9395793,59.0501388 35.8960991,59.0184678 C35.7624774,58.9211361 35.1009432,59.2305954 35.0134689,59.4313493 C34.9680787,59.5355118 35.0411936,59.7760301 35.1759457,59.965838 C35.3818378,60.255848 35.4088744,60.527707 35.3453385,61.6688197 C35.2650484,63.1107955 35.3949909,63.3527262 35.8094626,62.5329234 C35.8094626,62.5329234 35.3949909,63.3527262 35.8094626,62.5329234 L35.8094626,62.5329234 L35.8094626,62.5329234 Z M35.8094626,62.5329234" fill="#FFD42A" id="path3146"/><path d="M32.5895359,61.9782672 C32.6469965,61.7027363 32.7221003,61.1406483 32.7564308,60.7291757 C32.7907565,60.3177032 32.8720115,59.7967354 32.9369925,59.571463 C33.10298,58.9960459 32.9360948,58.8435558 32.4943646,59.1670007 L32.1639079,59.4089732 L32.2331182,60.2367857 C32.2955001,60.9829593 32.1812676,62.3755909 32.0134004,62.915375 C31.9692047,63.0574904 32.0336461,63.0213625 32.2168912,62.8012924 C32.3643863,62.6241555 32.5320737,62.2537948 32.5895359,61.9782672 C32.5895359,61.9782672 32.5320737,62.2537948 32.5895359,61.9782672 L32.5895359,61.9782672 L32.5895359,61.9782672 Z M32.5895359,61.9782672" fill="#FFD42A" id="path3144"/><path d="M30.2166202,61.728464 C30.5779307,61.4061171 30.652064,61.2048599 30.7889305,60.1747454 C30.8592682,59.6453536 30.9454574,59.0714441 30.9804624,58.8993902 C31.0588571,58.5140139 30.9029721,58.4876482 30.4831504,58.8152795 C30.2082946,59.0297832 30.1976926,59.0633147 30.3009821,59.3915751 C30.4378531,59.8265434 30.315416,60.9028528 30.0910781,61.2368017 C29.9205361,61.4906749 29.5711326,61.5479448 29.241763,61.3760093 C29.0972358,61.3005668 29.0672753,61.2118436 29.1122555,60.9924803 C29.1963594,60.5823043 28.9550896,60.5341319 28.2889384,60.8281 C27.6656823,61.1031389 27.4255051,61.0791238 27.5101357,60.7502283 C27.5440662,60.6183774 27.5080217,60.4868314 27.4180006,60.413957 C27.2813406,60.3033383 27.1473182,60.3057718 26.2355477,60.435435 C26.0831365,60.4571085 26.0381806,60.4086903 26.0381806,60.2228704 C26.0381806,60.0905191 26.0075205,59.936413 25.970054,59.8804043 C25.93117,59.8222788 25.4910701,59.7718817 24.9446774,59.762984 C23.8920948,59.745846 23.1463697,59.5761102 22.6286991,59.2358437 C22.1008621,58.8888984 22.0539106,58.6154537 22.4073903,57.9469845 C22.5713004,57.6370152 22.7568864,57.2281196 22.8198076,57.0383327 C22.8827244,56.8485428 23.0664057,56.5697263 23.2279802,56.4187435 C23.3895501,56.2677562 23.5217484,56.1033477 23.5217484,56.0533872 C23.5217484,55.9257252 22.8574821,56.044901 22.5797565,56.2223888 C22.3910048,56.3430196 22.3591185,56.427832 22.4031107,56.6922356 C22.4627448,57.0506792 22.2296306,57.5836901 21.7907296,58.092455 C21.30836,58.6516007 20.5985489,58.4219958 19.6553505,57.4016996 C19.299734,57.0170174 19.1664066,56.9281552 19.0755554,57.0152649 C18.9057768,57.1780569 19.0393925,57.7450582 19.3045372,57.9869446 C19.6024955,58.2587656 20.748878,58.7785492 21.0546595,58.780472 C21.3625353,58.7824052 21.4604328,58.8518188 21.6467624,59.2002872 C21.8826447,59.6414251 23.386477,60.0882085 24.853465,60.1529816 C25.317678,60.1734768 25.3493185,60.1915548 25.3968908,60.463506 C25.447008,60.7499471 25.4531361,60.7524886 26.162199,60.7805418 C26.8747326,60.8087342 26.9770918,60.8567527 26.7652013,61.0634245 C26.7037232,61.1233973 26.6808606,61.2422208 26.7144026,61.3274802 C26.7649418,61.455934 26.8811415,61.4728589 27.392517,61.4262674 C27.7319362,61.3953396 28.098956,61.3494734 28.2081125,61.3243451 C28.3581987,61.2897952 28.4426745,61.3552847 28.5546113,61.5929776 C28.6683069,61.8344022 28.7827356,61.9213032 29.0480245,61.9676801 C29.5353203,62.0528684 29.9475995,61.9684735 30.2166202,61.728464 C30.2166202,61.728464 29.9475995,61.9684735 30.2166202,61.728464 L30.2166202,61.728464 L30.2166202,61.728464 Z M30.2166202,61.728464" fill="#FFD42A" id="path3142"/><path d="M43.9346875,61.6478754 C44.8344409,61.1920111 45.3651444,60.6792776 45.7062644,59.9362806 C45.867818,59.5844051 46,59.2505234 46,59.1943112 C46,59.0665988 45.5569619,58.8531638 45.2918532,58.8531638 C45.0263661,58.8531638 44.9719785,58.6660554 45.0858615,58.1444619 C45.1967599,57.6365336 45.0639686,57 44.847109,57 C44.768433,57 44.62896,57.117942 44.5371837,57.2620918 C44.3949752,57.485438 44.3883335,57.5805558 44.4922548,57.9055522 C44.6462866,58.3872506 44.5254218,58.74674 44.1061336,59.0539739 C43.9075144,59.1995185 43.7990577,59.3674252 43.7990577,59.5293645 C43.7990577,59.6670705 43.8158996,59.7797386 43.8364802,59.7797386 C43.8570577,59.7797386 44.0757466,59.6636411 44.3224487,59.5217506 L44.7709992,59.2637547 L45.0353509,59.4777454 C45.1807441,59.5954357 45.2996965,59.7871356 45.2996965,59.9037462 C45.2996965,60.466411 43.738896,61.4143536 42.666621,61.5029276 C42.0963903,61.5500329 41.9984015,61.5300569 41.8004669,61.3263637 C41.6394733,61.1606847 41.5927275,61.0207749 41.6327162,60.824284 C41.6632094,60.6744661 41.7185493,60.4013183 41.7556872,60.2172925 C41.8546976,59.7267104 41.6487628,59.7933642 41.2957872,60.3661398 C41.0046055,60.8386394 40.9180401,61.344025 41.0825691,61.6108809 C41.2158004,61.8269742 42.1051028,62.0339748 42.7341751,61.9953146 C43.129495,61.9710195 43.5198809,61.8580378 43.9346875,61.6478754 C43.9346875,61.6478754 43.5198809,61.8580378 43.9346875,61.6478754 L43.9346875,61.6478754 L43.9346875,61.6478754 Z M43.9346875,61.6478754" fill="#FFCC00" id="path3140"/><path d="M48.1774711,55.7946645 C47.8173384,55.4342552 48.033351,55 48.5727632,55 C48.89269,55 48.9541266,55.0515572 48.9927007,55.3524465 C49.024911,55.6037337 48.9522807,55.7556902 48.7396573,55.8818672 C48.4513379,56.0529636 48.432677,56.0500697 48.1774711,55.7946645 C48.1774711,55.7946645 48.432677,56.0500697 48.1774711,55.7946645 L48.1774711,55.7946645 L48.1774711,55.7946645 Z M48.1774711,55.7946645" fill="#CF1126" id="path3136"/><path d="M49.7514939,57.5816931 C50.2676572,57.0372683 50.4870551,56.3746238 50.4900426,55.3510481 L50.4922896,54.5814855 L50.9188389,54.3678567 C51.4740563,54.0897854 52,53.5343392 52,53.2260452 C52,52.909798 51.8664937,52.9258601 51.6244,53.2712331 C51.4488128,53.5217305 51.2136946,53.6732215 50.3552239,54.0889954 C50.1382682,54.1940712 50.1241808,54.2503278 50.0749909,55.2083123 C50.018283,56.3127705 49.8755289,56.7265376 49.2912782,57.4798439 C48.9338941,57.9406397 48.9200217,58 49.1697388,58 C49.2715769,58 49.5333649,57.811759 49.7514939,57.5816931 C49.7514939,57.5816931 49.5333649,57.811759 49.7514939,57.5816931 L49.7514939,57.5816931 L49.7514939,57.5816931 Z M49.7514939,57.5816931" fill="#FFCC00" id="path3134"/><path d="M21.6426393,57.5441832 C21.8407867,57.2934824 22.1369504,56.7829293 22.3007844,56.4096116 C22.464613,56.0362994 22.7085709,55.6123434 22.8429098,55.467497 C23.157741,55.1280301 22.9813418,54.9186138 22.4745209,55.030166 C22.2064271,55.0891687 22.0986957,55.1886934 22.0524207,55.4201263 C21.9005716,56.1795639 21.6265435,56.955347 21.3824266,57.3169343 C20.9395212,57.9729656 20.9287758,58 21.1110808,58 C21.2052898,58 21.4444903,57.794884 21.6426393,57.5441832 C21.6426393,57.5441832 21.4444903,57.794884 21.6426393,57.5441832 L21.6426393,57.5441832 L21.6426393,57.5441832 Z M21.6426393,57.5441832" fill="#FFD42A" id="path3132"/><path d="M43.4378812,57.2027571 C43.4912659,57.0408113 43.1853423,56.9252124 43.0541329,57.0577455 C42.9979809,57.1144598 42.9830604,57.2115639 43.0209795,57.2735347 C43.1072473,57.4145213 43.3835356,57.3676132 43.4378812,57.2027571 C43.4378812,57.2027571 43.3835356,57.3676132 43.4378812,57.2027571 L43.4378812,57.2027571 L43.4378812,57.2027571 Z M43.4378812,57.2027571" fill="#FFCC00" id="path3130"/><path d="M20.0034572,56.7397839 C20.5131262,56.4724964 21,55.848333 21,55.4622295 C21,55.2096385 20.5902959,54.9310335 20.2188468,54.9310335 C20.0540976,54.9310335 19.7444276,55.0704911 19.4965704,55.2563099 C18.7213309,55.8374959 17.8923766,55.7188629 17.4388926,54.961836 C17.065665,54.3387798 16.6759062,54 16.3323115,54 C15.9026512,54 15.8853053,54.2789884 16.3055363,54.4305923 C16.5088527,54.5039427 16.6776433,54.6814063 16.8169793,54.9683156 C17.2257258,55.8099897 17.4644334,55.9599614 18.5510123,56.0577286 L19.2507209,56.120689 L19.2814605,56.5603429 C19.2983699,56.8021557 19.3560907,57 19.4097364,57 C19.4633728,57 19.7305527,56.8829005 20.0034572,56.7397839 C20.0034572,56.7397839 19.7305527,56.8829005 20.0034572,56.7397839 L20.0034572,56.7397839 L20.0034572,56.7397839 Z M20.0034572,56.7397839" fill="#FFD42A" id="path3128"/><path d="M19.028261,55.756171 C18.9410623,55.3650949 19.0639594,55 19.2828014,55 C19.4830007,55 19.5306677,55.2544775 19.4218713,55.7424284 C19.3467808,56.079201 19.1021909,56.0877468 19.028261,55.756171 C19.028261,55.756171 19.1021909,56.0877468 19.028261,55.756171 L19.028261,55.756171 L19.028261,55.756171 Z M19.028261,55.756171" fill="#CF1126" id="path3126"/><path d="M51.4378839,55.2027556 C51.4912686,55.0408114 51.185345,54.9252125 51.0541311,55.0577456 C50.9979806,55.1144599 50.9830601,55.211564 51.0209808,55.2735333 C51.107247,55.4145168 51.3835383,55.3676133 51.4378839,55.2027556 C51.4378839,55.2027556 51.3835383,55.3676133 51.4378839,55.2027556 L51.4378839,55.2027556 L51.4378839,55.2027556 Z M51.4378839,55.2027556" fill="#FFCC00" id="path3124"/><path d="M32.8708278,56.9596065 C32.7900452,56.943707 32.327389,56.879009 31.8426967,56.8158412 C29.3470054,56.490586 26.3775765,55.4637888 24.2011335,54.1734564 C19.2899326,51.2618024 15.6980729,46.2094074 14.5681831,40.6235487 C13.2767569,34.2390636 14.1966002,28.7466699 17.2275613,24.7443496 C17.7795169,24.0155032 18.3616477,23.4131363 18.2540556,23.6821716 C18.2219034,23.7625712 17.9917483,24.3207361 17.7426064,24.922544 C16.3421575,28.3053555 16.1680278,31.881588 17.2098679,35.8638081 C17.6223744,37.4405125 18.0100138,38.4538531 18.7391681,39.8615695 C21.2925095,44.7910729 26.0764448,48.4274414 31.3531134,49.4496676 C31.7839457,49.5331335 32.5991061,49.6898833 33.1645811,49.7980055 C34.6503932,50.082095 35.4592533,50.0535137 37.4683203,49.6459451 C39.3459761,49.2650394 40.8588885,48.8126692 42.2201395,48.2251197 C46.3518858,46.4417655 49.7858576,43.0384116 51.5460899,38.9823172 C52.7511741,36.2054319 53.3174471,32.1299386 52.9340119,28.9933644 C52.7023615,27.0984036 52.102682,25.0237363 51.363618,23.560356 C51.2079677,23.2521602 51.123255,23 51.1753608,23 C51.3378866,23 52.4576106,24.3626661 53.1124437,25.3573586 C54.5556623,27.5495988 55.5316876,30.2712233 55.8805146,33.0760335 C56.1673201,35.3821493 55.9193707,39.0757987 55.3339498,41.2181899 C54.1314917,45.6186387 51.5003672,49.7974585 48.3174362,52.36196 C44.944852,55.0792668 41.3633748,56.4866175 36.7385593,56.9119155 C35.7684006,57.0011274 33.240146,57.0323044 32.8708278,56.9596065 C32.8708278,56.9596065 33.240146,57.0323044 32.8708278,56.9596065 L32.8708278,56.9596065 L32.8708278,56.9596065 Z M32.8708278,56.9596065" fill="#CF1126" id="path3122"/><path d="M41.2188551,54.7859258 C41.3078424,54.7070061 41.4078312,54.494434 41.44104,54.3135505 C41.4742517,54.1326671 41.5487131,53.9715161 41.6064974,53.9554374 C41.6642861,53.9393632 41.8892893,53.8769232 42.106499,53.8166782 C42.3718977,53.7430739 42.5819652,53.5992637 42.7469884,53.3782026 C43.1218102,52.8761103 43.0862101,52.2277336 42.5998084,50.6975635 C42.3837994,50.0180182 42.1762195,49.3545502 42.1385287,49.2231912 C42.0489749,48.9110941 41.9696749,48.9219087 41.6968133,49.2834244 L41.4710839,49.5824928 L41.7056695,49.8673425 C42.0166374,50.2449413 42.5183559,51.7957651 42.532748,52.4238701 C42.5404294,52.7590009 42.4891747,53.009347 42.3771044,53.1841054 C42.1963648,53.4659462 42.2893092,53.4602693 40.940134,53.2718872 C40.6406363,53.230073 40.449847,53.2658533 40.1658617,53.4170903 C39.6665575,53.6829993 39.4410697,53.6723096 39.3091476,53.376472 C39.1454487,53.009394 39,53.1491478 39,53.6735099 L39,54.1432216 L39.5116185,54.1432216 L40.0232356,54.1432216 L40.0828734,54.5114294 C40.1156739,54.7139421 40.1974025,54.914298 40.2645017,54.9566676 C40.434549,55.0640496 41.0242007,54.9585554 41.2188551,54.7859258 C41.2188551,54.7859258 41.0242007,54.9585554 41.2188551,54.7859258 L41.2188551,54.7859258 L41.2188551,54.7859258 Z M41.2188551,54.7859258" fill="#FFCC00" id="path3120"/><path d="M40.1555738,54.6864814 C39.8669861,54.2909202 39.9893345,54 40.444281,54 C40.6946485,54 40.8377013,54.0913675 40.9304816,54.310517 C41.2100158,54.9708367 40.5844654,55.2743385 40.1555738,54.6864814 C40.1555738,54.6864814 40.5844654,55.2743385 40.1555738,54.6864814 L40.1555738,54.6864814 L40.1555738,54.6864814 Z M40.1555738,54.6864814" fill="#D40000" id="path3118"/><path d="M27.6873013,53.761136 C28.0035301,53.6357284 28.3795601,53.3720194 28.6952843,53.0542496 L29.1988662,52.5473978 L29.7799068,52.6123241 C30.4995404,52.6927401 30.5114427,52.6993101 30.5114427,53.0162051 C30.5114427,53.2680344 30.5292914,53.2764023 31.1886794,53.3338098 C31.5611622,53.3662416 32.0522925,53.3930693 32.2800861,53.393432 C32.5724286,53.3938957 32.7347475,53.4461058 32.8319065,53.5709159 C32.9615412,53.7374433 33.036721,53.7421656 34.1227275,53.6519152 C35.1381876,53.5675264 35.33802,53.5755515 35.796102,53.7190931 C36.1213447,53.8210085 36.479023,53.8651893 36.7504787,53.8369862 C37.5280852,53.7561889 38.6035102,53.1665101 38.7593672,52.7354786 C38.7781356,52.6835728 39.0598472,52.5920124 39.3853876,52.5320104 C40.1709095,52.3872385 40.2067304,52.2318755 39.4740403,52.1474867 C39.1563998,52.1108958 38.6787208,52.0018229 38.4125204,51.9050978 C38.1463246,51.8083727 37.7822261,51.7292325 37.603407,51.7292325 C37.2090406,51.7292325 36.8323147,51.954466 36.8323147,52.1902536 C36.8323147,52.3436182 36.8922549,52.3577026 37.3590546,52.3140283 C37.7992185,52.272853 37.9312942,52.2979667 38.1626566,52.4668594 C38.314934,52.578019 38.4133212,52.7080436 38.3813036,52.7558087 C38.2778217,52.9101676 37.3619584,53.2952859 36.956074,53.3551157 C36.6852046,53.3950464 36.4640842,53.3667864 36.250441,53.2649421 C35.8946003,53.0953026 35.3710173,53.0691335 35.2725144,53.2160603 C35.2298691,53.2796695 35.1190011,53.2402992 34.9648798,53.1068239 L34.7239204,52.8981384 L34.1763709,53.107353 C33.6222839,53.3190667 33.421049,53.3076364 33.421049,53.0644453 C33.421049,52.9529416 33.2583752,52.940389 32.4428201,52.9889649 C31.542579,53.0425875 31.4500458,53.0322695 31.2821584,52.8595491 C31.126951,52.6998819 31.1190897,52.6432923 31.2294824,52.4803351 C31.3322037,52.328703 31.333509,52.2650868 31.2357452,52.1749629 C31.1385693,52.0853782 31.0158886,52.0848832 30.6599121,52.1726544 C29.7660126,52.3930546 29.5081332,52.2708802 29.5081332,51.6269814 C29.5081332,51.0634218 29.0089503,50.8221723 28.5097766,51.1444893 C27.6897839,51.6739614 27.476997,52.3005682 28.0340155,52.545489 C28.4437187,52.7256371 28.3394113,52.9384659 27.6959156,53.2353323 C26.7750408,53.660165 25.9640728,53.6060475 24.4201494,53.0167413 C24.0401694,52.8717034 23.9425336,52.9299871 24.0296203,53.2498747 C24.1150359,53.5635949 24.425025,53.7353936 25.2001521,53.8985798 C26.0324436,54.0738064 27.0391675,54.0181684 27.6873013,53.761136 C27.6873013,53.761136 27.0391675,54.0181684 27.6873013,53.761136 L27.6873013,53.761136 L27.6873013,53.761136 Z M27.6873013,53.761136" fill="#FFCC00" id="path3116"/><path d="M29.0235573,52.7075044 C28.9546156,52.5228947 29.0396741,52.3100334 29.2436105,52.156782 C29.5256832,51.9448239 29.6146574,51.9466783 29.8310442,52.1690563 C29.9713043,52.3131962 30.0375543,52.5610205 29.9782674,52.7197787 C29.836411,53.0996881 29.1667801,53.0910747 29.0235573,52.7075044 C29.0235573,52.7075044 29.1667801,53.0910747 29.0235573,52.7075044 L29.0235573,52.7075044 L29.0235573,52.7075044 Z M29.0235573,52.7075044" fill="#CF1126" id="path3114"/><path d="M27.3961257,52.6863913 C27.9104599,52.3273574 27.8984059,52.3551456 27.9721761,51.3583721 C28.0241851,50.6556156 28.0151428,50.6033909 27.8415041,50.6033909 C27.5904869,50.6033909 27.4590859,50.9068068 27.4590859,51.4864299 C27.4590859,51.8574122 27.4062694,52.0247438 27.2268648,52.222221 C26.7994503,52.692685 25.7363744,52.4777905 25.6032624,51.8940244 C25.5573161,51.6925212 25.6153979,51.5121843 25.8384094,51.1639281 C26.302562,50.4391165 26.1972346,50.2621971 25.6286901,50.8116618 C25.2380632,51.1891764 25.1674138,51.2007533 25.2416714,50.875087 C25.3099682,50.5755563 25.1682547,50.4561318 24.849127,50.5442913 C24.6856057,50.589468 24.5980982,50.7026148 24.5586146,50.9199242 C24.5198861,51.1330571 24.4312684,51.2504749 24.2769728,51.2930989 C24.019199,51.3643071 23.5801743,51.0956682 23.5801743,50.8667339 C23.5801743,50.6968031 24.2374645,49.8137834 25.0824858,48.8484943 C25.4009661,48.4846848 25.6615407,48.1449434 25.6615407,48.0935115 C25.6615407,48.0420795 25.4912468,48 25.2831104,48 C24.9783776,48 24.9046816,48.0374145 24.9046816,48.1920883 C24.9046816,48.2977339 24.4789461,48.9118938 23.9586045,49.5568846 C22.8735754,50.9018359 22.783529,51.1817137 23.3200027,51.5417502 C23.7526884,51.8321303 24.3060741,51.8099439 24.7408054,51.4847868 L25.0938967,51.2206928 L25.0938967,51.6999007 C25.0938967,52.3115911 25.2046495,52.5312883 25.640811,52.7847952 C26.1890303,53.1034295 26.8519263,53.0662681 27.3961257,52.6863913 C27.3961257,52.6863913 26.8519263,53.0662681 27.3961257,52.6863913 L27.3961257,52.6863913 L27.3961257,52.6863913 Z M27.3961257,52.6863913" fill="#FFCC00" id="path3112"/><path d="M43.1093009,52.2794192 C43.110481,51.6571519 43.1267304,51.6045415 43.30784,51.6365123 C44.4445541,51.8372055 44.9701466,51.6871136 45.461274,51.0215745 C45.7297279,50.6577927 45.7528975,50.5654011 45.7174569,50.0001845 L45.6784883,49.3787567 L46.229751,49.4439071 C47.2293482,49.5620463 47.2405033,49.5682936 47.1710678,49.9712763 C46.9814961,51.0714539 46.6333112,51.6773545 45.7742687,52.4019218 C45.1736411,52.9085262 45.1752807,53.1564206 45.7773876,52.8743353 C46.2870788,52.6355489 46.8788443,52.0350803 47.1972998,51.4335446 C47.4311253,50.99186 47.4721961,50.7950583 47.4763485,50.0962974 C47.4807146,49.3612294 47.5048414,49.2580628 47.710919,49.0933133 C47.8836688,48.9552082 48.0758769,48.9153593 48.4860917,48.9325836 C48.9788587,48.953276 49.0555136,48.9280077 49.279471,48.6710686 C49.4745904,48.4472202 49.5146384,48.3195841 49.4675298,48.0716807 C49.3808236,47.615358 49.478526,47.4558958 50.006755,47.1916242 C50.7220261,46.8337823 51,46.4528395 51,45.8304636 C51,45.2578542 50.8207666,44.9202962 50.5676415,45.0161906 C50.3754166,45.0890157 50.3469496,45.5841066 50.5193162,45.8566001 C50.5825338,45.9565383 50.606369,46.110047 50.5722855,46.1977376 C50.479827,46.4356106 49.9439741,46.7227451 49.4583242,46.7946432 C48.8453477,46.8853995 48.4212666,47.2087159 48.1014952,47.8290977 C47.5929567,48.8157029 47.6662591,48.7702532 47.2222967,48.3742564 C46.5408771,47.7664658 45.9385167,47.9271277 45.6822193,48.7850193 L45.5727359,49.1515065 L45.3891455,48.7839748 C45.2025783,48.4104941 44.9809795,48.3216414 44.7658262,48.5340577 C44.5733157,48.7241147 44.6303199,49.0243618 44.9463221,49.484778 C45.1091229,49.7219817 45.2423239,50.0218686 45.2423239,50.1511913 C45.2423239,50.7544256 44.6645514,51.2426075 44.1125147,51.1058182 C43.8168533,51.0325605 43.5547303,50.6230682 43.5547303,50.2344537 C43.5547303,49.882924 43.2879526,49.915974 43.2075346,50.2774633 C43.0724085,50.884859 42.7961504,50.6377831 42.6749319,49.8011311 C42.5928529,49.2346228 42.3849678,49.2037809 42.1294597,49.7201972 C41.9660497,50.0504618 41.9617538,50.111802 42.0916681,50.2592337 C42.3624928,50.5665873 42.7866426,51.7921447 42.837351,52.4138513 C42.9066521,53.26353 43.1076201,53.1641857 43.1093009,52.2794192 C43.1093009,52.2794192 43.1076201,53.1641857 43.1093009,52.2794192 L43.1093009,52.2794192 L43.1093009,52.2794192 Z M43.1093009,52.2794192" fill="#FFCC00" id="path3110"/><path d="M47.1741667,48.7812068 C46.8533982,48.4810301 47.0004835,48 47.4130371,48 C47.7882829,48 48.0851354,48.3967194 47.9777855,48.7547431 C47.8830554,49.0706774 47.4970795,49.0833855 47.1741667,48.7812068 C47.1741667,48.7812068 47.4970795,49.0833855 47.1741667,48.7812068 L47.1741667,48.7812068 L47.1741667,48.7812068 Z M47.1741667,48.7812068" fill="#CF1126" id="path3108"/><path d="M49.0318462,48.7121406 C48.8952428,48.3580994 49.2150264,48 49.6678053,48 C50.0034702,48 50.0982825,48.3325759 49.8899427,48.7791861 C49.7380333,49.1048089 49.166116,49.0601288 49.0318462,48.7121406 C49.0318462,48.7121406 49.166116,49.0601288 49.0318462,48.7121406 L49.0318462,48.7121406 L49.0318462,48.7121406 Z M49.0318462,48.7121406" fill="#CF1126" id="path3106"/><path d="M23.3510647,52.1644072 C23.3693305,52.0692868 23.3203243,52 23.2347787,52 C23.0533964,52 22.9439198,52.1607644 23.0297671,52.3010609 C23.1180829,52.445393 23.3130299,52.3624811 23.3510647,52.1644072 C23.3510647,52.1644072 23.3130299,52.3624811 23.3510647,52.1644072 L23.3510647,52.1644072 L23.3510647,52.1644072 Z M23.3510647,52.1644072" fill="#FFCC00" id="path3104"/><path d="M30.3760533,51.1765397 C30.3760533,51.0354106 30.3234734,50.9823012 30.2063106,51.0050925 C29.9517927,51.0545985 29.9234082,51.3810076 30.1736183,51.3810076 C30.3133442,51.3810076 30.3760533,51.3176733 30.3760533,51.1765397 C30.3760533,51.1765397 30.3760533,51.3176733 30.3760533,51.1765397 L30.3760533,51.1765397 L30.3760533,51.1765397 Z M30.3760533,51.1765397" fill="#FFCC00" id="path3102"/><path d="M20.3191337,49.6546071 L20.6038849,49.3092187 L21.6717924,49.3754017 C22.9722792,49.455998 23.1276313,49.388759 24.0919517,48.3279529 C24.4463884,47.9380563 24.7956991,47.6190441 24.868193,47.6190441 C24.9406837,47.6190441 25,47.5119031 25,47.3809504 C25,47.0355707 24.5521079,47.0510927 24.3128954,47.4047607 C23.9684796,47.9139722 23.0078478,48.8746103 22.7536372,48.9640294 C22.6119376,49.0138747 22.2887508,49.0258992 22.0354442,48.9907528 C21.6514498,48.9374833 21.6061089,48.9106896 21.7627307,48.8295997 C22.0344215,48.6889308 22.6323529,48.1190798 22.6323529,48.0008151 C22.6323529,47.8469616 22.137445,47.7067189 21.827412,47.77271 C21.6756456,47.805018 21.3139995,47.9524637 21.0237613,48.1003649 C20.4744272,48.3803041 20.0588235,48.3872728 20.0588235,48.1165504 C20.0588235,48.0357271 20.3020206,47.7266186 20.5992639,47.4296401 C20.8965041,47.1326571 21.2710206,46.7537847 21.4315192,46.5876944 C21.5920195,46.4216041 21.7657322,46.2857156 21.8175495,46.2857156 C21.8693651,46.2857156 21.9117631,46.2214293 21.9117631,46.1428571 C21.9117631,46.0412567 21.8002243,46 21.5255572,46 C21.1724313,46 21.1181428,46.0369859 20.8917232,46.431852 C20.7555295,46.669373 20.4820576,46.995329 20.2840178,47.1562038 C19.9919449,47.3934582 19.8604782,47.4391689 19.5879293,47.3982504 C19.0539827,47.3180891 18.7205851,47.0681247 18.7205851,46.7479643 C18.7205851,46.5952005 18.6547243,46.4468248 18.5742169,46.4182472 C18.3568984,46.3410942 18,46.5519314 18,46.7574667 C18,47.1070205 18.1357235,47.2506626 18.7268794,47.5267455 C19.2522267,47.7720949 19.3288445,47.8438713 19.3573098,48.1173076 C19.3859857,48.3928413 19.4227463,48.4264395 19.6775964,48.4100314 C20.0846008,48.3838222 20.2440736,48.7193435 20.0173738,49.1249232 C19.8411821,49.4401465 19.7940238,50 19.9436626,50 C19.9935596,50 20.1625246,49.8445736 20.3191337,49.6546071 C20.3191337,49.6546071 20.1625246,49.8445736 20.3191337,49.6546071 L20.3191337,49.6546071 L20.3191337,49.6546071 Z M20.3191337,49.6546071" fill="#FFCC00" id="path3100"/><path d="M21,49.1435783 C21,48.9829474 21.0893128,48.9607718 21.3419313,49.0586842 C21.4716572,49.1089667 21.4782113,49.1385826 21.3743249,49.2051002 C21.1719499,49.3346729 21,49.3064082 21,49.1435783 C21,49.1435783 21,49.3064082 21,49.1435783 L21,49.1435783 L21,49.1435783 Z M21,49.1435783" fill="#FF00FF" id="path3098"/><path d="M21,49.3116845 C21,49.2256986 21.6198377,49 21.8559952,49 C22.1313938,49 21.9794651,49.2749862 21.6723861,49.3323177 C21.2269122,49.4154859 21,49.4085247 21,49.3116845 C21,49.3116845 21,49.4085247 21,49.3116845 L21,49.3116845 L21,49.3116845 Z M21,49.3116845" fill="#CF1126" id="path3096"/><path d="M27.4295341,50.1461132 C27.4295341,49.9322365 27.0486161,49.9616992 27.0072255,50.178776 C26.9805242,50.3188162 27.0240665,50.352031 27.201168,50.3266979 C27.3267693,50.3087324 27.4295341,50.2274706 27.4295341,50.1461132 C27.4295341,50.1461132 27.4295341,50.2274706 27.4295341,50.1461132 L27.4295341,50.1461132 L27.4295341,50.1461132 Z M27.4295341,50.1461132" fill="#FFCC00" id="path3094"/><path d="M44.4546993,48.2544421 C44.4935583,48.0506445 44.2117009,47.9133175 44.0629419,48.0635704 C43.9141768,48.2138248 44.05014,48.4985156 44.2519144,48.4592663 C44.3454374,48.4410748 44.4366917,48.3489073 44.4546993,48.2544421 C44.4546993,48.2544421 44.4366917,48.3489073 44.4546993,48.2544421 L44.4546993,48.2544421 L44.4546993,48.2544421 Z M44.4546993,48.2544421" fill="#FFCC00" id="path3092"/><path d="M17.6929814,46.7514817 C17.9487661,46.5080928 17.9518093,46.4917054 17.8403543,45.9575591 C17.683916,45.2078401 17.6939297,45.1268329 17.9519186,45.0552031 C18.2784624,44.9645382 19.1065955,45.4559442 19.2905956,45.8495528 C19.432609,46.1533554 19.4287603,46.1746369 19.1869385,46.4225557 C18.9269525,46.6891068 18.9278178,47 19.1885497,47 C19.4038264,47 20,46.3763281 20,46.1511283 C20,45.8408361 19.3381966,45.1060123 18.8159112,44.8363897 C18.4926931,44.6695344 18.1683257,44.5915569 17.7945407,44.5908623 C17.1245182,44.5896054 17.0338001,44.7494925 17.2150776,45.6121539 C17.4273431,46.6222873 17.1391732,46.7588302 16.4029018,45.9969733 C15.8566309,45.4317233 15.6419165,44.8430613 15.6439487,43.9162298 C15.6461324,42.921562 15.9898324,42.4302333 16.7638003,42.3153926 C17.2782921,42.239054 17.2661063,42.1056359 16.7366202,42.0178024 C15.9649656,41.8897924 15.312076,42.4598818 15.0642248,43.4780986 C14.789224,44.6078379 15.4192511,45.9848306 16.5350894,46.692831 C17.1196935,47.063764 17.3524017,47.0755522 17.6929814,46.7514817 C17.6929814,46.7514817 17.3524017,47.0755522 17.6929814,46.7514817 L17.6929814,46.7514817 L17.6929814,46.7514817 Z M17.6929814,46.7514817" fill="#FFCC00" id="path3090"/><path d="M49.5834185,44.8901263 C49.627765,44.8291489 49.6640487,44.6917007 49.6640487,44.5846994 C49.6640487,44.4776895 49.7396375,44.2492534 49.8320254,44.0770532 C49.9244112,43.9048586 50,43.729163 50,43.6866231 C50,43.5116081 49.7907313,43.5176 49.6245328,43.6973707 C49.455247,43.8804861 49.3280963,43.8846408 49.3280963,43.7070611 C49.3280963,43.6620176 49.4090117,43.570923 49.5079103,43.5046301 C49.7543535,43.3394349 49.7751793,43.1766836 49.5665998,43.0460003 C49.3000417,42.8789905 49.0326063,43.1837184 49.00537,43.6854849 C48.9871481,44.0212094 49.0071462,44.0787128 49.1949423,44.230617 C49.3671079,44.3698754 49.3985662,44.4441963 49.3697593,44.6436136 C49.3199871,44.9881647 49.4244665,45.1087085 49.5834185,44.8901263 C49.5834185,44.8901263 49.4244665,45.1087085 49.5834185,44.8901263 L49.5834185,44.8901263 L49.5834185,44.8901263 Z M49.5834185,44.8901263" fill="#FFCC00" id="path3088"/><path d="M52.6143894,44.6655832 C52.8199757,44.4813987 52.9881788,44.2733098 52.9881788,44.2031588 C52.9881788,44.1330079 53.1667732,43.9483776 53.3850499,43.7928681 C54.0042216,43.3517491 54.1399944,42.9054537 53.8634844,42.2201572 C53.7551559,41.951675 53.4159308,41.5793869 52.6805008,40.9218654 C52.1133932,40.4148392 51.593444,40 51.5250564,40 C51.3240137,40 51.3599207,40.7336963 51.5641313,40.7984173 C51.9322929,40.9150968 52.1540032,41.0636739 52.7322963,41.5812482 C53.4055137,42.1837837 53.7153041,42.7467073 53.5461546,43.0601287 C53.3831228,43.3622046 53.1676995,43.2686022 52.5747357,42.6380482 C52.2628587,42.306393 51.9551606,42.0355355 51.8909591,42.0361378 C51.8228946,42.0367744 51.7742369,42.1570183 51.7742369,42.3245769 C51.7742369,42.5347407 51.8871062,42.7364241 52.1944467,43.0754004 C52.6950853,43.6275823 52.7442428,43.9599311 52.3686152,44.2529328 C52.233289,44.3584932 52.0944933,44.4448571 52.0601789,44.4448571 C52.0258631,44.4448571 51.9159736,44.2804401 51.8159772,44.0794857 C51.6057222,43.6569551 50.323802,42.3150328 50.1304235,42.3150328 C50.0438096,42.3150328 50,42.4230981 50,42.636758 C50,42.8944614 50.0513618,42.9848212 50.2580711,43.0908288 C50.513362,43.2217418 51.1413137,43.850154 51.7742369,44.6081264 C51.9539916,44.8233997 52.1324611,44.9997433 52.1708337,44.9999997 C52.2092021,45.0002546 52.4088016,44.8497677 52.6143894,44.6655832 C52.6143894,44.6655832 52.4088016,44.8497677 52.6143894,44.6655832 L52.6143894,44.6655832 L52.6143894,44.6655832 Z M52.6143894,44.6655832" fill="#FFCC00" id="path3086"/><path d="M53.9688799,40.7647424 C53.890179,40.5329192 52.2666856,39 52.0998639,39 C52.0125049,39 51.9865781,39.0936206 52.0061784,39.3382614 C52.029859,39.6337612 52.0653007,39.6843206 52.2865475,39.7382199 C52.4258441,39.7721491 52.8533654,40.0798088 53.2365918,40.4219013 C53.6198209,40.7639938 53.9557253,41.0233883 53.9830403,40.9983263 C54.0103579,40.9732679 54.003988,40.8681565 53.9688799,40.7647424 C53.9688799,40.7647424 54.003988,40.8681565 53.9688799,40.7647424 L53.9688799,40.7647424 L53.9688799,40.7647424 Z M53.9688799,40.7647424" fill="#FFCC00" id="path3084"/><g fill="#CF1126" id="use3950" transform="translate(63.500000, 34.000000) scale(-1, 1) translate(-63.500000, -34.000000) translate(58.000000, 21.000000)"><g id="g3939"><path d="M4.56165982,24.0034823 C4.23753785,23.9626891 3.91149215,24.2855113 4.02194844,24.6979487 C4.04932413,24.7725752 4.15830155,24.9169707 4.34022129,25.064565 C4.52526037,25.214689 4.78443393,25.3743265 5.10339246,25.5184725 C5.74131052,25.8067765 6.61932081,26.0294605 7.6427328,25.9968188 L7.49740231,25.9968188 C8.53599822,26.0131654 9.0932841,25.8982722 9.81954438,25.6115439 C10.4334075,25.3716542 10.9629169,25.189415 11,24.540837 C11,24.4292614 10.9717972,24.3636613 10.9247095,24.3103934 C10.8776244,24.2571295 10.8047705,24.2156593 10.7125272,24.1916798 C10.5280553,24.1437248 10.3150207,24.2711205 10.1297266,24.3438665 C9.73488825,24.4988759 8.89870949,24.9214562 7.49759675,24.9321375 C6.75895953,24.9546482 6.21433844,24.7444903 5.65062343,24.520096 C4.97585509,24.2514959 4.88147661,24.0584803 4.56165982,24.0034823 C4.56165982,24.0034823 4.88147661,24.0584803 4.56165982,24.0034823 L4.56165982,24.0034823 L4.56165982,24.0034823 Z M4.56165982,24.0034823" id="path3169"/><path d="M0.202940911,0.000524242149 C0.192392821,0.00151742225 0.183728928,0.00438669611 0.174680162,0.00742136965 C0.138485112,0.0195710123 0.0999538325,0.0486813557 0.0616371706,0.128120123 L0.0616371706,0.131563408 C0.0484593837,0.156381572 0.0149015719,0.28796816 0.00511567627,0.46952031 C-0.00467022901,0.65107246 0.000189715063,0.887976805 0.0145359257,1.16612589 C0.0432283378,1.72242483 0.116840313,2.43762907 0.224921489,3.2007656 C0.440989566,4.72637391 0.790931158,6.44804615 1.16066624,7.47695728 C1.52288672,8.42927271 2.31626736,9.28323634 3.08867725,10.0530182 C3.860918,10.8226323 4.6138114,11.4939317 4.88480483,12.1876656 C4.93539398,12.3116994 4.95933452,12.4851012 4.98528742,12.7325352 C5.01132042,12.9807364 5.03086635,13.2958959 5.04808912,13.6636415 C5.08253466,14.3991301 5.10325517,15.342896 5.11089082,16.356954 C5.12302185,17.968158 5.10804819,19.7388926 5.08263007,21.1435308 C5.1187547,21.1608606 5.15664956,21.1790858 5.19567307,21.198707 C5.38233251,21.2925547 5.6016466,21.4141684 5.84567029,21.536662 C6.33371695,21.7816451 6.92335456,22.0192185 7.53503501,21.9987683 L7.53817493,21.9987683 C8.77193223,21.9889695 9.3216872,21.592542 9.73937306,21.4159632 L9.74251334,21.4159632 C9.82261614,21.3821325 9.91041476,21.3564702 10,21.3400944 C9.98426655,20.0516739 9.87596317,11.1203888 9.87753687,9.57022238 L9.87753687,9.56677948 C9.89103973,9.14235061 9.52474375,8.60147802 9.04855503,8.1183917 C8.57236631,7.63530577 8.00828426,7.20648032 7.67947868,6.93554196 L7.67633875,6.93209906 L7.67005855,6.92865578 C7.47469426,6.73785806 7.07590635,6.2761951 6.6997726,5.81822529 C6.51170573,5.58924097 6.33007181,5.36046428 6.1879392,5.17334797 C6.04580695,4.98623167 5.947843,4.85634483 5.89905151,4.74917756 C5.88516164,4.71862946 5.80784984,4.60721459 5.70122627,4.49398541 C5.59460304,4.38075623 5.45693626,4.25766563 5.30871606,4.15257975 C5.16049551,4.04749347 5.00080439,3.96103597 4.85968401,3.92497572 C4.71856398,3.88891585 4.60262317,3.89888284 4.50799461,3.96290972 C4.42331918,4.02015326 4.390651,4.11146405 4.39495162,4.28017563 C4.39925259,4.44888721 4.45484126,4.67647326 4.54253557,4.91470745 C4.71792382,5.39117466 5.01660976,5.9210902 5.23335395,6.24584446 C5.36571181,6.44414733 5.48789509,6.77517661 5.60702389,7.15970818 C5.72615269,7.54423976 5.83603725,7.97583829 5.91475184,8.34600668 C5.99346608,8.71617351 6.04506923,8.9999063 6.03407504,9.18055364 C6.03132712,9.22571479 6.04601666,9.27859733 5.96813342,9.34608391 C5.92919215,9.37982428 5.86079455,9.38566957 5.82368975,9.37022367 C5.78658459,9.3547762 5.76758589,9.33360621 5.75146756,9.31504704 C5.68699495,9.2408123 5.64390261,9.1442486 5.57248293,8.97019262 L5.57248293,8.96674972 L5.56934301,8.96330644 C5.46124115,8.66022775 5.04007072,8.32233576 4.50485469,7.98047222 C3.96963865,7.63860868 3.33221064,7.28049335 2.81863011,6.84590198 C2.69502377,6.73579037 2.66370595,6.57299251 2.62708504,6.38034881 C2.59046413,6.18770588 2.55475853,5.94735864 2.47950112,5.65270635 C2.32898614,5.06340176 2.01865289,4.25214918 1.22032781,3.22148435 L1.17950675,3.16975609 L1.19206706,3.1007856 C1.36693613,2.11874436 1.13085575,1.17404239 0.80897695,0.590246826 C0.648037585,0.298349238 0.460544723,0.099678808 0.325404147,0.0315830173 C0.274726453,0.00604616712 0.234585181,-0.00235285203 0.202940911,0.000546139033 C0.202940911,0.000546139033 0.234585181,-0.00235285203 0.202940911,0.000546139033 L0.202940911,0.000524242149 L0.202940911,0.000524242149 Z M0.202940911,0.000524242149" id="path3165"/><path d="M1.29551967,6.66792048e-05 C1.24201027,0.00151703759 1.19503358,0.0256264995 1.15068285,0.0657476202 C1.06336737,0.144736856 0.995105809,0.304191379 1.00027537,0.515661824 C1.23206313,1.10528259 1.37028781,1.89793156 1.24538385,2.73239181 C1.94727422,3.71862583 2.23191683,4.51702075 2.37065454,5.10018808 C2.44120442,5.39673703 2.47377997,5.63689478 2.50435007,5.80954179 C2.53458818,5.98031432 2.57020189,6.07177255 2.59348042,6.09525383 C3.02354098,6.4855529 3.57634658,6.82204089 4.05856068,7.15271627 C4.45266459,7.42297073 4.80577555,7.67961267 5,8 C4.98905318,7.93645122 4.97730671,7.87119477 4.96379072,7.80295718 C4.92481995,7.60620256 4.87503847,7.38869572 4.82173911,7.17242067 C4.7432771,6.93982302 4.51742429,6.64219608 4.25631849,6.40066989 C3.995213,6.15914519 3.6974441,5.96978535 3.49871042,5.91463152 L3.41236564,5.89164325 L3.40679496,5.78983777 C3.39184043,5.52471375 3.20842131,4.91349996 2.95278715,4.34157393 C2.69715256,3.76964791 2.36044992,3.21755214 2.09490751,3.01481997 L2.03920103,2.9721273 L2.04198637,2.8933101 C2.08481449,1.07636851 1.74263763,0.278508306 1.47656568,0.0723157515 C1.41004771,0.0207671473 1.34902908,-0.00138367918 1.29551967,6.66792048e-05 C1.29551967,6.66792048e-05 1.34902908,-0.00138367918 1.29551967,6.66792048e-05 L1.29551967,6.66792048e-05 L1.29551967,6.66792048e-05 Z M1.29551967,6.66792048e-05" id="path3163"/><path d="M2.23535912,1.00031222 C2.18709881,1.00364915 2.15172382,1.02122502 2.10939229,1.08024326 C2.06955864,1.13577913 2.02746015,1.23621427 2,1.38474279 C2.16735156,1.95099698 2.26351589,2.76033419 2.24198896,3.88544711 C2.62821056,4.20959104 2.99425793,4.83738387 3.29281786,5.48787708 C3.58138381,6.11659606 3.79896246,6.74999072 3.85303886,7.18165712 C4.14032424,7.2842441 4.46754262,7.50481404 4.76795582,7.77543152 C4.84790111,7.84744835 4.92617605,7.92210038 5,8 C4.91467835,7.75437241 4.82926311,7.55312492 4.76464107,7.45190042 C4.52339723,7.07398706 4.20165032,6.47683731 4.00221015,5.91037036 C3.93446505,5.71795461 3.87928925,5.53088477 3.84972374,5.35085218 C3.52333377,4.9594314 3.21271629,4.25000885 3.28950273,3.55049742 C3.35774284,2.65320489 3.03319014,1.77207267 2.68287297,1.32003683 C2.50753282,1.09378477 2.33188041,0.993637485 2.23535912,1.00031222 C2.23535912,1.00031222 2.33188041,0.993637485 2.23535912,1.00031222 L2.23535912,1.00031222 L2.23535912,1.00031222 Z M2.23535912,1.00031222" id="path3161"/><path d="M4.28020556,1.0009027 C4.25167576,1.00325117 4.2199426,1.01821795 4.1799486,1.05468396 C4.12795668,1.1020906 4.06512928,1.18999659 4,1.32359135 C4.19993073,1.76603291 4.33192844,2.35252561 4.28791783,2.9655079 L4.28791783,2.96866634 L4.28791783,2.97182477 C4.25195384,3.31713076 4.36455236,3.71069066 4.50899744,4 C4.53685537,3.87876097 4.59249225,3.77181076 4.68380456,3.70262007 C4.78123329,3.62876472 4.89076574,3.60692184 5,3.61403863 C4.94963221,2.69439768 4.7943362,1.8439327 4.596401,1.37736293 C4.49289199,1.13337255 4.38226766,1.01304679 4.30848322,1.00089265 C4.29926021,0.999373878 4.28971568,1.00008269 4.28020556,1.00089265 C4.28020556,1.00089265 4.28971568,1.00008269 4.28020556,1.00089265 L4.28020556,1.0009027 L4.28020556,1.0009027 Z M4.28020556,1.0009027" id="path3159"/><path d="M6.00609352,9 C5.99276829,9.01977617 6.00533929,9.02251455 6.00609352,9.0100985 C6.00625041,9.00745788 6.00605707,9.00330888 6.00609352,9 C6.00609352,9 6.00605707,9.00330888 6.00609352,9 L6.00609352,9 L6.00609352,9 Z M6.00609352,9" id="path3157"/><path d="M9.99484562,21 C9.94641175,21.0274411 9.89973945,21.063382 9.85824753,21.1079126 C9.67890708,21.30062 9.41325253,21.7019822 9,22 L10,21.9712211 C9.99999766,21.9707643 9.99520828,21.0747206 9.99484562,21 C9.99484562,21 9.99520828,21.0747206 9.99484562,21 L9.99484562,21 L9.99484562,21 Z M9.99484562,21" id="path697-1"/><path d="M4.40118546,21.0034823 C4.16966993,20.9626891 3.93678027,21.2855113 4.01567738,21.6979487 C4.0352314,21.7725752 4.11307223,21.9169707 4.24301532,22.064565 C4.37518586,22.214689 4.56030977,22.3743265 4.78813724,22.5184725 C5.24379282,22.8067765 5.87094272,23.0294605 6.60195156,22.9968188 L6.49814433,22.9968188 C7.23999843,23.0131654 7.63806002,22.8982722 8.15681727,22.6115439 C8.59529052,22.3716542 8.97351151,22.189415 9,21.540837 C9,21.4292614 8.97985465,21.3636613 8.94622076,21.3103934 C8.91258847,21.2571295 8.86055003,21.2156593 8.79466213,21.1916798 C8.66289655,21.1437248 8.51072904,21.2711205 8.37837596,21.3438665 C8.09634865,21.4988759 7.49907788,21.9214562 6.49828282,21.9321375 C5.97068534,21.9546482 5.58167013,21.7444903 5.17901642,21.520096 C4.69703893,21.2514959 4.62962596,21.0584803 4.40118546,21.0034823 C4.40118546,21.0034823 4.62962596,21.0584803 4.40118546,21.0034823 L4.40118546,21.0034823 L4.40118546,21.0034823 Z M4.40118546,21.0034823" id="path3151"/><path d="M4.56165982,22.0034823 C4.23753789,21.9626891 3.91149214,22.2855113 4.02194844,22.6979487 C4.04932394,22.7725752 4.15830133,22.9169707 4.34022147,23.064565 C4.52526031,23.214689 4.78443371,23.3743265 5.10339225,23.5184725 C5.74131047,23.8067765 6.61932049,24.0294605 7.64273257,23.9968188 L7.49740218,23.9968188 C8.53599788,24.0131654 9.09328413,23.8982722 9.81954413,23.6115439 C10.4334072,23.3716542 10.9629165,23.189415 11,22.540837 C11,22.4292614 10.9717968,22.3636613 10.9247091,22.3103934 C10.877624,22.2571295 10.8047701,22.2156593 10.7125273,22.1916798 C10.5280554,22.1437248 10.3150208,22.2711205 10.1297265,22.3438665 C9.73488798,22.4988759 8.89870964,22.9214562 7.49759662,22.9321375 C6.75895945,22.9546482 6.2143386,22.7444903 5.65062319,22.520096 C4.97585481,22.2514959 4.88147657,22.0584803 4.56165982,22.0034823 C4.56165982,22.0034823 4.88147657,22.0584803 4.56165982,22.0034823 L4.56165982,22.0034823 L4.56165982,22.0034823 Z M4.56165982,22.0034823" id="path3167"/></g></g><g fill="#CF1126" id="use3950-copy" transform="translate(0.000000, 21.000000)"><g id="g3939"><path d="M4.56165982,24.0034823 C4.23753785,23.9626891 3.91149215,24.2855113 4.02194844,24.6979487 C4.04932413,24.7725752 4.15830155,24.9169707 4.34022129,25.064565 C4.52526037,25.214689 4.78443393,25.3743265 5.10339246,25.5184725 C5.74131052,25.8067765 6.61932081,26.0294605 7.6427328,25.9968188 L7.49740231,25.9968188 C8.53599822,26.0131654 9.0932841,25.8982722 9.81954438,25.6115439 C10.4334075,25.3716542 10.9629169,25.189415 11,24.540837 C11,24.4292614 10.9717972,24.3636613 10.9247095,24.3103934 C10.8776244,24.2571295 10.8047705,24.2156593 10.7125272,24.1916798 C10.5280553,24.1437248 10.3150207,24.2711205 10.1297266,24.3438665 C9.73488825,24.4988759 8.89870949,24.9214562 7.49759675,24.9321375 C6.75895953,24.9546482 6.21433844,24.7444903 5.65062343,24.520096 C4.97585509,24.2514959 4.88147661,24.0584803 4.56165982,24.0034823 C4.56165982,24.0034823 4.88147661,24.0584803 4.56165982,24.0034823 L4.56165982,24.0034823 L4.56165982,24.0034823 Z M4.56165982,24.0034823" id="path3169"/><path d="M0.202940911,0.000524242149 C0.192392821,0.00151742225 0.183728928,0.00438669611 0.174680162,0.00742136965 C0.138485112,0.0195710123 0.0999538325,0.0486813557 0.0616371706,0.128120123 L0.0616371706,0.131563408 C0.0484593837,0.156381572 0.0149015719,0.28796816 0.00511567627,0.46952031 C-0.00467022901,0.65107246 0.000189715063,0.887976805 0.0145359257,1.16612589 C0.0432283378,1.72242483 0.116840313,2.43762907 0.224921489,3.2007656 C0.440989566,4.72637391 0.790931158,6.44804615 1.16066624,7.47695728 C1.52288672,8.42927271 2.31626736,9.28323634 3.08867725,10.0530182 C3.860918,10.8226323 4.6138114,11.4939317 4.88480483,12.1876656 C4.93539398,12.3116994 4.95933452,12.4851012 4.98528742,12.7325352 C5.01132042,12.9807364 5.03086635,13.2958959 5.04808912,13.6636415 C5.08253466,14.3991301 5.10325517,15.342896 5.11089082,16.356954 C5.12302185,17.968158 5.10804819,19.7388926 5.08263007,21.1435308 C5.1187547,21.1608606 5.15664956,21.1790858 5.19567307,21.198707 C5.38233251,21.2925547 5.6016466,21.4141684 5.84567029,21.536662 C6.33371695,21.7816451 6.92335456,22.0192185 7.53503501,21.9987683 L7.53817493,21.9987683 C8.77193223,21.9889695 9.3216872,21.592542 9.73937306,21.4159632 L9.74251334,21.4159632 C9.82261614,21.3821325 9.91041476,21.3564702 10,21.3400944 C9.98426655,20.0516739 9.87596317,11.1203888 9.87753687,9.57022238 L9.87753687,9.56677948 C9.89103973,9.14235061 9.52474375,8.60147802 9.04855503,8.1183917 C8.57236631,7.63530577 8.00828426,7.20648032 7.67947868,6.93554196 L7.67633875,6.93209906 L7.67005855,6.92865578 C7.47469426,6.73785806 7.07590635,6.2761951 6.6997726,5.81822529 C6.51170573,5.58924097 6.33007181,5.36046428 6.1879392,5.17334797 C6.04580695,4.98623167 5.947843,4.85634483 5.89905151,4.74917756 C5.88516164,4.71862946 5.80784984,4.60721459 5.70122627,4.49398541 C5.59460304,4.38075623 5.45693626,4.25766563 5.30871606,4.15257975 C5.16049551,4.04749347 5.00080439,3.96103597 4.85968401,3.92497572 C4.71856398,3.88891585 4.60262317,3.89888284 4.50799461,3.96290972 C4.42331918,4.02015326 4.390651,4.11146405 4.39495162,4.28017563 C4.39925259,4.44888721 4.45484126,4.67647326 4.54253557,4.91470745 C4.71792382,5.39117466 5.01660976,5.9210902 5.23335395,6.24584446 C5.36571181,6.44414733 5.48789509,6.77517661 5.60702389,7.15970818 C5.72615269,7.54423976 5.83603725,7.97583829 5.91475184,8.34600668 C5.99346608,8.71617351 6.04506923,8.9999063 6.03407504,9.18055364 C6.03132712,9.22571479 6.04601666,9.27859733 5.96813342,9.34608391 C5.92919215,9.37982428 5.86079455,9.38566957 5.82368975,9.37022367 C5.78658459,9.3547762 5.76758589,9.33360621 5.75146756,9.31504704 C5.68699495,9.2408123 5.64390261,9.1442486 5.57248293,8.97019262 L5.57248293,8.96674972 L5.56934301,8.96330644 C5.46124115,8.66022775 5.04007072,8.32233576 4.50485469,7.98047222 C3.96963865,7.63860868 3.33221064,7.28049335 2.81863011,6.84590198 C2.69502377,6.73579037 2.66370595,6.57299251 2.62708504,6.38034881 C2.59046413,6.18770588 2.55475853,5.94735864 2.47950112,5.65270635 C2.32898614,5.06340176 2.01865289,4.25214918 1.22032781,3.22148435 L1.17950675,3.16975609 L1.19206706,3.1007856 C1.36693613,2.11874436 1.13085575,1.17404239 0.80897695,0.590246826 C0.648037585,0.298349238 0.460544723,0.099678808 0.325404147,0.0315830173 C0.274726453,0.00604616712 0.234585181,-0.00235285203 0.202940911,0.000546139033 C0.202940911,0.000546139033 0.234585181,-0.00235285203 0.202940911,0.000546139033 L0.202940911,0.000524242149 L0.202940911,0.000524242149 Z M0.202940911,0.000524242149" id="path3165"/><path d="M1.29551967,6.66792048e-05 C1.24201027,0.00151703759 1.19503358,0.0256264995 1.15068285,0.0657476202 C1.06336737,0.144736856 0.995105809,0.304191379 1.00027537,0.515661824 C1.23206313,1.10528259 1.37028781,1.89793156 1.24538385,2.73239181 C1.94727422,3.71862583 2.23191683,4.51702075 2.37065454,5.10018808 C2.44120442,5.39673703 2.47377997,5.63689478 2.50435007,5.80954179 C2.53458818,5.98031432 2.57020189,6.07177255 2.59348042,6.09525383 C3.02354098,6.4855529 3.57634658,6.82204089 4.05856068,7.15271627 C4.45266459,7.42297073 4.80577555,7.67961267 5,8 C4.98905318,7.93645122 4.97730671,7.87119477 4.96379072,7.80295718 C4.92481995,7.60620256 4.87503847,7.38869572 4.82173911,7.17242067 C4.7432771,6.93982302 4.51742429,6.64219608 4.25631849,6.40066989 C3.995213,6.15914519 3.6974441,5.96978535 3.49871042,5.91463152 L3.41236564,5.89164325 L3.40679496,5.78983777 C3.39184043,5.52471375 3.20842131,4.91349996 2.95278715,4.34157393 C2.69715256,3.76964791 2.36044992,3.21755214 2.09490751,3.01481997 L2.03920103,2.9721273 L2.04198637,2.8933101 C2.08481449,1.07636851 1.74263763,0.278508306 1.47656568,0.0723157515 C1.41004771,0.0207671473 1.34902908,-0.00138367918 1.29551967,6.66792048e-05 C1.29551967,6.66792048e-05 1.34902908,-0.00138367918 1.29551967,6.66792048e-05 L1.29551967,6.66792048e-05 L1.29551967,6.66792048e-05 Z M1.29551967,6.66792048e-05" id="path3163"/><path d="M2.23535912,1.00031222 C2.18709881,1.00364915 2.15172382,1.02122502 2.10939229,1.08024326 C2.06955864,1.13577913 2.02746015,1.23621427 2,1.38474279 C2.16735156,1.95099698 2.26351589,2.76033419 2.24198896,3.88544711 C2.62821056,4.20959104 2.99425793,4.83738387 3.29281786,5.48787708 C3.58138381,6.11659606 3.79896246,6.74999072 3.85303886,7.18165712 C4.14032424,7.2842441 4.46754262,7.50481404 4.76795582,7.77543152 C4.84790111,7.84744835 4.92617605,7.92210038 5,8 C4.91467835,7.75437241 4.82926311,7.55312492 4.76464107,7.45190042 C4.52339723,7.07398706 4.20165032,6.47683731 4.00221015,5.91037036 C3.93446505,5.71795461 3.87928925,5.53088477 3.84972374,5.35085218 C3.52333377,4.9594314 3.21271629,4.25000885 3.28950273,3.55049742 C3.35774284,2.65320489 3.03319014,1.77207267 2.68287297,1.32003683 C2.50753282,1.09378477 2.33188041,0.993637485 2.23535912,1.00031222 C2.23535912,1.00031222 2.33188041,0.993637485 2.23535912,1.00031222 L2.23535912,1.00031222 L2.23535912,1.00031222 Z M2.23535912,1.00031222" id="path3161"/><path d="M4.28020556,1.0009027 C4.25167576,1.00325117 4.2199426,1.01821795 4.1799486,1.05468396 C4.12795668,1.1020906 4.06512928,1.18999659 4,1.32359135 C4.19993073,1.76603291 4.33192844,2.35252561 4.28791783,2.9655079 L4.28791783,2.96866634 L4.28791783,2.97182477 C4.25195384,3.31713076 4.36455236,3.71069066 4.50899744,4 C4.53685537,3.87876097 4.59249225,3.77181076 4.68380456,3.70262007 C4.78123329,3.62876472 4.89076574,3.60692184 5,3.61403863 C4.94963221,2.69439768 4.7943362,1.8439327 4.596401,1.37736293 C4.49289199,1.13337255 4.38226766,1.01304679 4.30848322,1.00089265 C4.29926021,0.999373878 4.28971568,1.00008269 4.28020556,1.00089265 C4.28020556,1.00089265 4.28971568,1.00008269 4.28020556,1.00089265 L4.28020556,1.0009027 L4.28020556,1.0009027 Z M4.28020556,1.0009027" id="path3159"/><path d="M6.00609352,9 C5.99276829,9.01977617 6.00533929,9.02251455 6.00609352,9.0100985 C6.00625041,9.00745788 6.00605707,9.00330888 6.00609352,9 C6.00609352,9 6.00605707,9.00330888 6.00609352,9 L6.00609352,9 L6.00609352,9 Z M6.00609352,9" id="path3157"/><path d="M9.99484562,21 C9.94641175,21.0274411 9.89973945,21.063382 9.85824753,21.1079126 C9.67890708,21.30062 9.41325253,21.7019822 9,22 L10,21.9712211 C9.99999766,21.9707643 9.99520828,21.0747206 9.99484562,21 C9.99484562,21 9.99520828,21.0747206 9.99484562,21 L9.99484562,21 L9.99484562,21 Z M9.99484562,21" id="path697-1"/><path d="M4.40118546,21.0034823 C4.16966993,20.9626891 3.93678027,21.2855113 4.01567738,21.6979487 C4.0352314,21.7725752 4.11307223,21.9169707 4.24301532,22.064565 C4.37518586,22.214689 4.56030977,22.3743265 4.78813724,22.5184725 C5.24379282,22.8067765 5.87094272,23.0294605 6.60195156,22.9968188 L6.49814433,22.9968188 C7.23999843,23.0131654 7.63806002,22.8982722 8.15681727,22.6115439 C8.59529052,22.3716542 8.97351151,22.189415 9,21.540837 C9,21.4292614 8.97985465,21.3636613 8.94622076,21.3103934 C8.91258847,21.2571295 8.86055003,21.2156593 8.79466213,21.1916798 C8.66289655,21.1437248 8.51072904,21.2711205 8.37837596,21.3438665 C8.09634865,21.4988759 7.49907788,21.9214562 6.49828282,21.9321375 C5.97068534,21.9546482 5.58167013,21.7444903 5.17901642,21.520096 C4.69703893,21.2514959 4.62962596,21.0584803 4.40118546,21.0034823 C4.40118546,21.0034823 4.62962596,21.0584803 4.40118546,21.0034823 L4.40118546,21.0034823 L4.40118546,21.0034823 Z M4.40118546,21.0034823" id="path3151"/><path d="M4.56165982,22.0034823 C4.23753789,21.9626891 3.91149214,22.2855113 4.02194844,22.6979487 C4.04932394,22.7725752 4.15830133,22.9169707 4.34022147,23.064565 C4.52526031,23.214689 4.78443371,23.3743265 5.10339225,23.5184725 C5.74131047,23.8067765 6.61932049,24.0294605 7.64273257,23.9968188 L7.49740218,23.9968188 C8.53599788,24.0131654 9.09328413,23.8982722 9.81954413,23.6115439 C10.4334072,23.3716542 10.9629165,23.189415 11,22.540837 C11,22.4292614 10.9717968,22.3636613 10.9247091,22.3103934 C10.877624,22.2571295 10.8047701,22.2156593 10.7125273,22.1916798 C10.5280554,22.1437248 10.3150208,22.2711205 10.1297265,22.3438665 C9.73488798,22.4988759 8.89870964,22.9214562 7.49759662,22.9321375 C6.75895945,22.9546482 6.2143386,22.7444903 5.65062319,22.520096 C4.97585481,22.2514959 4.88147657,22.0584803 4.56165982,22.0034823 C4.56165982,22.0034823 4.88147657,22.0584803 4.56165982,22.0034823 L4.56165982,22.0034823 L4.56165982,22.0034823 Z M4.56165982,22.0034823" id="path3167"/></g></g><path d="M33.3064045,49.9747785 C31.5085983,49.7695045 29.9428723,48.5369507 29.1849311,46.7303188 C28.9313242,46.1258207 28.9380009,45.9691858 29.2083937,46.1799167 C29.6657179,46.5363281 30.3174768,46.850994 30.5983765,46.850994 C30.8292339,46.850994 31.0208108,46.979339 31.4730673,47.4369927 C32.3493153,48.3236907 33.3313753,48.5532733 32.9045447,47.77164 C32.6051117,47.2233042 32.6886655,46.8533221 33.329821,45.8884655 C33.6518062,45.4039118 33.9574029,45.0041189 34.0089189,45.0000379 C34.0604348,44.9959584 34.320946,45.3219948 34.5878327,45.7245708 C35.1613533,46.5896856 35.3389157,47.240741 35.127283,47.7025069 C34.9417634,48.1072986 34.9552319,48.3708946 35.1614383,48.3708946 C35.3871762,48.3708946 36.1673699,47.8351089 36.6316459,47.3612541 C36.8836553,47.1040423 37.159653,46.9392375 37.4746648,46.8578534 C37.7322518,46.791307 38.1685622,46.5999622 38.4442358,46.4326424 C38.7199123,46.265318 38.964872,46.149411 38.9885968,46.1750753 C39.1012871,46.2969831 38.3532694,47.6717268 37.8687403,48.2331987 C36.9285378,49.3227055 36.0236689,49.8099815 34.6590659,49.9616347 C34.2499662,50.007098 33.641269,50.0130147 33.3064045,49.9747785 C33.3064045,49.9747785 33.641269,50.0130147 33.3064045,49.9747785 L33.3064045,49.9747785 L33.3064045,49.9747785 Z M33.3064045,49.9747785" fill="#CF1126" id="path3082"/><path d="M35.56962,46.9137876 C35.5406932,46.8346673 35.5405903,46.729911 35.5694,46.6809883 C35.6799883,46.4931982 35.3305875,45.6028763 34.8976305,44.9692366 C34.6489045,44.6052207 34.378856,44.2099774 34.297523,44.0909153 C34.2161928,43.9718577 34.0981455,43.8744458 34.0351957,43.8744458 C33.9012915,43.8744458 33.0330402,45.1122393 32.6685578,45.8227533 C32.5299041,46.0930385 32.4164625,46.4579421 32.4164625,46.6336576 C32.4164625,46.8093686 32.3724584,46.9531362 32.3186777,46.9531362 C32.066385,46.9531362 31.5690896,46.3999542 31.2941182,45.8134425 C31.0157677,45.2197254 30.9959,45.111427 31.0005325,44.2128611 C31.0063872,43.0754119 31.1658474,42.3556389 31.7575612,40.7957687 C32.1374395,39.7943417 32.1776908,39.6117744 32.1818285,38.8715866 C32.1868106,37.9800574 32.0264171,37.5131523 31.5573351,37.053676 C31.2778666,36.7799272 31.3192288,36.658773 31.692157,36.658773 C32.0395433,36.658773 32.5840697,36.9500011 32.8572141,37.2818813 C33.1176227,37.5982839 33.2848944,37.4952779 33.3650573,36.9691539 C33.3951809,36.7714568 33.5415502,36.4583935 33.6903259,36.2734546 C33.9144615,35.9948425 33.9895324,35.9547409 34.1282734,36.0395086 C34.3787531,36.19255 34.7082313,36.9385361 34.7082313,37.3526214 C34.7082313,37.8275116 34.8503275,37.8208078 35.3084064,37.3243058 C35.7131852,36.8855757 35.9875602,36.7144972 36.4270585,36.6268133 C36.8238905,36.5476428 36.8171759,36.7196697 36.4071542,37.1367481 C35.930726,37.6213841 35.6925436,38.2272128 35.687281,38.9677986 C35.6822199,39.6806503 35.7742727,40.0279414 36.2762387,41.1896374 C36.749478,42.2848544 37,43.3466602 37,44.257209 C37,45.2379534 36.8121473,45.8600335 36.3493683,46.4118084 C35.8883036,46.9615341 35.6444709,47.1185066 35.56962,46.9137876 C35.56962,46.9137876 35.6444709,47.1185066 35.56962,46.9137876 L35.56962,46.9137876 L35.56962,46.9137876 Z M35.56962,46.9137876" fill="#CF1126" id="path3080"/><path d="M36.0285211,36.6143486 C35.7615584,36.1349437 35.2036762,35.5436898 35.0182907,35.5436898 C34.8509544,35.5436898 34.0135101,36.3948188 34.0135101,36.5648881 C34.0135101,36.6309289 33.9477998,36.7349246 33.8674823,36.7959906 C33.7542445,36.8820875 33.6240104,36.8485729 33.2875141,36.6467374 C32.7403147,36.3185148 32.4935083,35.7082557 32.5005944,34.7009442 C32.5067743,33.8223713 32.6606426,33.2223098 33.1906012,32.0100274 C33.5755849,31.1293776 33.607415,30.9875733 33.5719767,30.3109987 C33.5251305,29.4166473 33.2606987,28.8675721 32.5185604,28.1236518 C32.233353,27.8377558 32,27.5772029 32,27.5446393 C32,27.5120788 32.2208889,27.4854367 32.4908682,27.4854367 C33.0372821,27.4854367 33.4864572,27.6947854 33.9394898,28.1605974 C34.097672,28.3232403 34.2682678,28.4563102 34.3185952,28.4563102 C34.3689241,28.4563102 34.4429395,28.2269413 34.4830729,27.9466024 C34.5633774,27.3857395 34.7821623,27 35.019984,27 C35.2447386,27 35.4971495,27.5126238 35.4971495,27.9690997 C35.4971495,28.5241083 35.7139625,28.5594012 36.1855674,28.0811624 C36.3974847,27.8662656 36.7347975,27.6408786 36.9351552,27.5802994 C37.3115356,27.4665003 37.8842515,27.5265032 37.9954815,27.6913902 C38.0303363,27.7430513 37.8597014,27.9832509 37.616298,28.225169 C36.5492246,29.2857273 36.3344406,30.4801051 36.9612584,31.867687 C37.4726024,32.9996357 37.6440048,33.8027765 37.5903724,34.8155346 C37.5324,35.9103257 37.3172314,36.4132789 36.763122,36.7492221 C36.5356181,36.887149 36.3255864,37 36.2963785,37 C36.2671707,37 36.1466334,36.8264563 36.0285211,36.6143486 C36.0285211,36.6143486 36.1466334,36.8264563 36.0285211,36.6143486 L36.0285211,36.6143486 L36.0285211,36.6143486 Z M36.0285211,36.6143486" fill="#CF1126" id="path3078"/><path d="M33.653317,26.6632733 C33.1433053,26.2897539 32.9744931,25.9331359 32.9744931,25.2292551 C32.9744931,24.8681269 33.0416077,24.6737082 33.2792972,24.346257 C33.6307835,23.8620379 33.5660493,23.708915 33.0698797,23.8509223 C32.2722065,24.0792226 31.8907812,23.8708219 31.8636509,23.1918704 C31.8503992,22.8601681 31.9211953,22.7185926 32.3686452,22.1820317 C32.7271894,21.7520815 32.857291,21.526281 32.7869214,21.4560576 C32.7165549,21.3858357 32.2923049,21.7526012 31.4229171,22.6352493 C30.7288861,23.3398619 29.9486318,24.0596806 29.6890146,24.2348452 C28.1961581,25.2420811 26.7691213,25.3975264 26.1168585,24.6239509 C25.7833224,24.2283792 25.8017736,24.0048223 26.1876667,23.7659897 C26.3641257,23.6567777 26.6639838,23.4054267 26.8540117,23.2074295 C27.3014769,22.7412086 28.6351476,21.7805121 29.2972676,21.4474539 C29.8343688,21.1772834 29.9628551,20.9930485 29.6141651,20.9930485 C29.1610283,20.9930485 27.7092157,21.9364301 26.609638,22.9453764 C26.2852031,23.2430714 25.819481,23.5750494 25.5746974,23.683107 C25.0255575,23.9255195 23.9466824,24.014126 23.4671591,23.8561945 C23.1273471,23.7442767 22.5104459,23.1633868 22.5104459,22.9553285 C22.5104459,22.9005111 22.6510513,22.7801426 22.8229043,22.6878426 C22.9947573,22.5955426 23.3021149,22.3740341 23.5059274,22.1956031 C24.3862943,21.42485 26.0543907,20.6319628 27.3792897,20.3544991 C27.7996791,20.2664608 27.6442112,20.0540165 27.1745906,20.0747826 C26.2664968,20.1149393 24.4615826,20.958055 23.382542,21.8461389 C22.119256,22.885861 20.2142338,22.7875889 19.6009092,21.6510596 C19.495638,21.4559803 19.4333662,21.2725559 19.4625323,21.2434497 C19.4916985,21.2143449 19.8673443,21.1017924 20.2973024,20.9933348 C20.7613788,20.8762691 21.6807539,20.4967351 22.5598046,20.0593342 C23.9438117,19.370673 24.3524493,19.2236647 25.3055525,19.0715479 C25.7335553,19.0032379 25.7552948,18.7942281 25.3395068,18.7451557 C24.8032816,18.681871 23.9822672,18.9500325 22.5316859,19.6622565 C20.6676667,20.5774742 20.144722,20.7348617 19.1624435,20.6762842 C18.2663975,20.6228485 17.7619921,20.3929741 17.0348235,19.7066627 C16.5594265,19.257975 15.884498,18.1151403 16.0168844,17.983023 C16.0482336,17.9517397 16.2671636,17.9827836 16.5033941,18.0520101 C16.7646008,18.1285541 17.5131597,18.1793461 18.4136736,18.1816292 C19.675783,18.1848274 20.0110422,18.1517003 20.6841717,17.9572861 C21.8079969,17.6327013 23.3047853,16.8743819 24.326664,16.1118916 C26.2835984,14.6516942 27.8793578,14.0647533 29.9142509,14.0567072 C31.7922611,14.0492806 32.9864726,14.4818154 34.045064,15.5528526 C34.4027367,15.9147307 34.7084396,16.1496031 34.7577406,16.1004018 C34.8052244,16.0530156 34.8565415,15.4197566 34.8717804,14.6931568 C34.8717804,14.6931568 35.4254337,14.6401483 35.541148,14.7946862 C35.541148,15.9742476 35.5547094,16.0673187 35.7266034,16.0673187 C35.8394485,16.0673187 35.9599191,15.9520179 36.0342935,15.7728386 C36.1944964,15.3868674 36.7900589,14.8572725 37.4249727,14.5361994 C38.8001034,13.8407996 41.1776746,13.8195501 43.0865681,14.4855953 C43.8912763,14.7663723 44.7841814,15.2703092 45.6347035,15.9237101 C46.486639,16.5781989 48.231138,17.4547415 49.2628875,17.7467386 C50.3055918,18.0418339 52.1433551,18.1166129 53.0873161,17.9023551 C53.4757248,17.8141956 53.8402685,17.7420648 53.8974182,17.7420648 C54.2453158,17.7420648 53.6524434,18.898836 52.957547,19.5758771 C51.686889,20.8138873 50.0339905,20.808097 47.707161,19.5574819 C46.2578275,18.7785039 44.5244534,18.3531457 44.5244534,18.7764678 C44.5244534,18.8648 44.6153813,18.9242396 44.7505064,18.9242396 C45.2538748,18.9242396 46.2278598,19.2611868 47.5846925,19.9047206 C49.0534609,20.6013446 49.877507,20.8945324 50.3666977,20.8945324 C50.7213919,20.8945324 50.7323224,21.1145138 50.4017542,21.5999904 C50.0502921,22.1161503 49.4548662,22.3727433 48.6147387,22.3700875 C47.8105542,22.3675468 47.3643886,22.1921504 46.6468783,21.5964862 C45.4464472,20.5999159 42.4542685,19.4878009 42.5686909,20.0807336 C42.5917041,20.1999673 42.7365163,20.2725541 43.044841,20.3193965 C44.0861957,20.4776067 45.3084559,21.0605434 46.5589198,21.9953788 C46.9448979,22.2839338 47.3445194,22.569071 47.4469699,22.6290166 C47.6183888,22.7293249 47.621466,22.7599522 47.4855804,23.0133394 C47.2618243,23.4305666 46.6956313,23.7555862 46.0825679,23.81873 C45.2881146,23.9005553 44.5970758,23.6647588 43.8827854,23.0681174 C42.3731431,21.8071155 40.9511434,20.8945324 40.4958797,20.8945324 C40.1232641,20.8945324 40.2903639,21.0990835 40.9466027,21.4462646 C41.8087096,21.9023622 42.6950655,22.5195637 43.347339,23.1179898 C43.656778,23.4018816 44.0038011,23.684275 44.1184876,23.7455311 C44.3923236,23.8917819 44.3818121,24.1044792 44.0813164,24.4976451 C43.7751354,24.8982391 43.2672292,25.0729235 42.6099307,25.0036939 C41.2983502,24.8655529 40.2749504,24.2337271 38.667087,22.5694709 C38.0388286,21.9191696 37.4782846,21.3871052 37.4214325,21.3871052 C37.20699,21.3871052 37.332472,21.6774282 37.7468177,22.1399389 C38.2604457,22.7132659 38.3598038,23.0363614 38.1653368,23.5008325 C37.993036,23.9123542 37.7078658,24.0077721 37.1213224,23.8501572 C36.521963,23.6890988 36.4286334,23.8362465 36.8210635,24.3235668 C37.4079925,25.0524209 37.3206397,25.943791 36.6021381,26.5575352 C36.3791092,26.7480468 36.1454352,26.9039209 36.0828628,26.9039209 C36.0202888,26.9039209 35.8617011,26.7412808 35.7304412,26.5424988 C35.2684173,25.8428069 34.8624394,25.8468111 34.413567,26.5554915 C34.2578638,26.8013098 34.1258069,27.0013371 34.1201078,26.9999933 C34.1144088,26.9986495 33.9043477,26.8471265 33.653317,26.6632733 C33.653317,26.6632733 33.9043477,26.8471265 33.653317,26.6632733 L33.653317,26.6632733 L33.653317,26.6632733 Z M33.653317,26.6632733" fill="#CF1126" id="path3059"/><path d="M35,13 L34.4733016,13.5709511 L34,13.0829871 L34,16.9834023 L35,17 L35,17 L35,13 L35,13 Z M35,13" fill="#CF1126" id="path689-7"/><path d="M34.2684252,7 C33.5811434,7.01302237 32.8557026,7.02330691 32.204732,7.16303054 C31.7523412,7.26013258 31.3422106,7.41949752 31,7.68393216 C31.056609,9.1204544 37.3189405,9.71954751 39,7.71176677 C38.6460376,7.42975512 38.21564,7.26366179 37.7406734,7.16303054 C37.1134838,7.03014981 36.4195732,7.01574505 35.7606915,7.00397709 C35.7619353,7.39896043 35.7643257,7.7939404 35.7643257,8.1889271 L34.2684313,8.18495169 C34.2684221,7.78058127 34.2684437,7.35086487 34.2684252,7 C34.2684252,7 34.2684437,7.35086487 34.2684252,7 L34.2684252,7 L34.2684252,7 Z M34.2684252,7" fill="#CF1126" id="path3139"/><path d="M35.3352892,1 L35,4.32779479 L38.3755484,6 L36.6670046,3.68298094 L39,2.9169489 L39,2.9169489 L35.3352892,1 L35.3352892,1 Z M35.3352892,1" fill="#CF1126" id="path625-4"/><path d="M35.0018412,0 C34.4257064,0 34,0.228236166 34,0.499005885 C34,0.769969134 34.4257064,1 35.0018412,1 C35.5775735,1 36,0.769969134 36,0.499005885 C36,0.228236166 35.5775735,0 35.0018412,0 L35.0018412,0 L35.0018412,0 L35.0018412,0 Z M35.0018412,0" fill="#CF1126" id="path690-0"/><path d="M34.9807418,1 L34.0000388,1.00763992 L34,8.99618085 L35,9 L35,9 L34.9807418,1 L34.9807418,1 Z M34.9807418,1" fill="#CF1126" id="path4149"/><path d="M30.3642736,8.07346121 C30.2090139,10.0706564 29.7035748,11.4635951 29,13 L30.6866679,11.4328229 L31.8600008,12.8285905 L33.1311113,11.4083374 L34.4266661,12.6082069 L35.6733337,11.3593617 L36.9688901,12.8775646 L38.0933328,11.628721 L40,13 C39.3079095,11.4632023 38.3714056,10.1607666 38.4890617,8 C36.6421216,9.37365719 32.2532341,9.62180441 30.3642736,8.07346121 C30.3642736,8.07346121 32.2532341,9.62180441 30.3642736,8.07346121 L30.3642736,8.07346121 L30.3642736,8.07346121 Z M30.3642736,8.07346121" fill="#CF1126" id="path3969"/><g fill="#FFCC00" id="g3072" transform="translate(43.000000, 61.000000)"><path d="M1.00680764,1.00344988 C1.00681185,1.00468099 1.00616401,1.0058204 1.00510914,1.00643718 C1.00405427,1.00705396 1.00275339,1.00705396 1.00169852,1.00643718 C1.00064364,1.0058204 0.999995804,1.00468099 1.00000002,1.00344988 C0.999995804,1.00221878 1.00064364,1.00107937 1.00169852,1.00046259 C1.00275339,0.999845804 1.00405427,0.999845804 1.00510914,1.00046259 C1.00616401,1.00107937 1.00681185,1.00221878 1.00680764,1.00344988 C1.00680764,1.00344988 1.00681185,1.00221878 1.00680764,1.00344988 L1.00680764,1.00344988 L1.00680764,1.00344988 Z M1.00680764,1.00344988" id="path3068"/><path d="M1.00680764,1.00344988 C1.00681185,1.00468099 1.00616401,1.0058204 1.00510914,1.00643718 C1.00405427,1.00705396 1.00275339,1.00705396 1.00169852,1.00643718 C1.00064364,1.0058204 0.999995804,1.00468099 1.00000002,1.00344988 C0.999995804,1.00221878 1.00064364,1.00107937 1.00169852,1.00046259 C1.00275339,0.999845804 1.00405427,0.999845804 1.00510914,1.00046259 C1.00616401,1.00107937 1.00681185,1.00221878 1.00680764,1.00344988 C1.00680764,1.00344988 1.00681185,1.00221878 1.00680764,1.00344988 L1.00680764,1.00344988 L1.00680764,1.00344988 Z M1.00680764,1.00344988" id="path3070"/></g></g></g></g></g></svg>