<?xml version="1.0" ?><svg height="120px" version="1.1" viewBox="0 0 180 120" width="180px" xmlns="http://www.w3.org/2000/svg" xmlns:sketch="http://www.bohemiancoding.com/sketch/ns" xmlns:xlink="http://www.w3.org/1999/xlink"><title/><defs/><g fill="none" fill-rule="evenodd" id="Asia-Pacific" stroke="none" stroke-width="1"><g id="Hongkong" transform="translate(-400.000000, -801.000000)"><g transform="translate(400.000000, 801.000000)"><rect d="M0,0 L0,120 L180,120 L180,0 L0,0 Z M0,0" fill="#CA4638" height="120" id="Rectangle-126" width="180" x="0" y="0"/><path d="M88.1571758,59.7457355 C88.0712336,59.8321127 87.985104,59.9176105 87.8987917,60.002233 L87.8987917,60.002233 C87.8948539,59.9944022 87.8909071,59.9865766 87.8869512,59.9787562 C87.8869512,59.9787562 89.5374619,63.2416776 87.8869512,59.9787562 L87.3289352,60.2607881 C87.3616505,60.3254694 87.3937064,60.3906092 87.4251027,60.456195 C69.5200298,77.2253778 44.2365097,57.1992028 52.9044511,35.6543006 C53.7819357,41.0717987 58.015212,43.191111 63.0006534,41.8799651 C68.5824275,40.4113505 74.9582596,46.067375 75.4592861,50.6671956 C76.2160208,57.5948603 82.5655542,61.4427589 88.1134916,59.0081018 C85.7160447,60.7189139 82.4635311,61.6219731 79.0879697,61.4665287 C74.4535337,61.2497171 70.0960188,59.0923986 67.1412278,55.5478086 L66.6600202,55.9478573 C69.7307131,59.6270782 74.2490663,61.864445 79.0587338,62.0897067 C82.4790403,62.2479623 85.6842056,61.407832 88.1571757,59.7457356 Z M89.8485842,58.3656058 C89.9557369,58.4215439 90.0636657,58.4770377 90.1723728,58.5320816 L90.1723728,58.5320816 C87.8274354,56.6937633 86.0379734,53.9050845 85.1315507,50.6032759 C83.8595183,45.9594007 84.5911326,40.970807 87.1413833,36.9134628 L87.6705536,37.2474966 C85.2125288,41.1530084 84.5073431,45.9638993 85.7332625,50.4385084 C86.6285319,53.696893 88.4924743,56.5111566 90.8604051,58.2625941 C86.8305017,53.7385425 88.527957,46.5107113 94.8827137,43.6502478 C99.1025774,41.7523205 102.511536,33.9407362 99.3899374,29.0859804 C96.6023774,24.7497102 97.3098088,20.0687217 102.190998,17.5600853 C79.0220451,15.9741245 67.789058,46.2085885 89.2704631,58.0553824 C89.3231368,58.0052558 89.3751825,57.9546396 89.4265884,57.903538 L89.867253,58.3470901 C87.2740663,60.9251172 89.867253,58.3470901 89.867253,58.3470901 C89.8610378,58.353269 89.8548149,58.3594409 89.8485842,58.3656058 Z M88.688699,62.0373414 C88.744291,62.1457693 88.7989888,62.2541038 88.8527976,62.3623415 L88.8527976,62.3623415 C88.8441333,62.3636667 88.8354711,62.3650022 88.826811,62.3663478 C88.826811,62.3663478 92.4400694,61.8049169 88.826811,62.3663478 L88.9226028,62.9842052 C88.9942278,62.9730787 89.0660851,62.9627211 89.1381627,62.9531286 C99.5536137,85.1638393 72.6945642,103.02145 54.8826919,88.1200123 C60.3061965,88.9595738 63.6299365,85.5883923 63.9235488,80.4417894 C64.2516764,74.6793799 71.6011158,70.3634109 76.1306309,71.3083292 C82.9530754,72.7293978 88.5747582,67.8796987 87.9736686,61.8509463 C88.8598957,64.6597238 88.7136741,68.0321087 87.5227318,71.1944234 C85.8844123,75.5350356 82.4861344,79.0126304 78.2019483,80.727465 L78.4337159,81.3087425 C82.8817592,79.5252819 86.4058694,75.9194569 88.1063749,71.414801 C89.3138178,68.2107999 89.505257,64.902892 88.6886991,62.0373416 L88.688699,62.0373414 Z M91.0323958,62.239978 C91.1526957,62.220613 91.2726303,62.2020695 91.3921983,62.1843416 L91.3921983,62.1843416 C91.3907812,62.1929914 91.3893745,62.2016423 91.3879781,62.2102943 C91.3879781,62.2102943 91.9705839,58.6003897 91.3879781,62.2102943 L92.0051967,62.3101194 C92.0167482,62.2385615 92.0291027,62.1670203 92.0422529,62.095506 C116.384439,59.05329 125.068147,90.1160862 105.391859,102.45139 C107.866284,97.5527694 105.687192,93.3499524 100.883213,91.4803228 C95.5042333,89.3875725 93.6706046,81.0641324 95.9689724,77.0483034 C99.4287403,70.9989074 96.5535979,64.15373 90.6341667,62.8624132 C93.5793321,62.8875211 96.7414758,64.0687103 99.3809944,66.1785727 C103.002893,69.0780301 105.260157,73.3846204 105.567175,77.9890365 L106.191623,77.9482371 C105.869972,73.1667769 103.529639,68.7008877 99.7709416,65.6915956 C97.0968758,63.5531583 94.0100264,62.3488891 91.0323958,62.239978 L91.0323958,62.239978 Z M91.9493565,60.0736082 C95.8643597,34.9448783 128.90127,36.0091063 134.63,58.8429569 C130.735775,54.9758813 126.065282,55.7495791 122.802647,59.7406873 C119.150127,64.209706 110.667443,63.3815061 107.558397,59.954669 C102.874207,54.7948681 95.4755881,55.4140148 92.418268,60.6446896 C93.3522532,57.8514296 95.452787,55.2090598 98.2750415,53.3507118 C102.151818,50.8020629 106.945161,49.9860872 111.419095,51.1169382 L111.573258,50.5104453 C106.926423,49.338801 101.955907,50.1845546 97.9323991,52.8293657 C95.0722926,54.71174 92.9730756,57.2753685 91.9493565,60.0736082 L91.9493565,60.0736082 Z M90.929248,35.6357094 L89.5104451,37.8631718 L88.9964581,35.2713067 L86.4372076,34.6099835 L88.7439608,33.3182692 L88.5831311,30.6819809 L90.5209829,32.4769952 L92.9790101,31.5080693 L91.8739934,33.9070508 L93.5520428,35.9455627 L90.929248,35.6357094 Z M113.958988,53.7180712 L111.402111,53.0570331 L113.70829,51.7672721 L113.546394,49.1289201 L115.487713,50.9236111 L117.945274,49.955995 L116.836943,52.3536916 L118.518018,54.3919998 L115.894982,54.0823925 L114.474788,56.3082472 L113.958988,53.7180712 Z M103.878221,81.2084123 L103.716787,78.5724059 L105.656071,80.3671548 L108.115264,79.3978869 L107.008312,81.7987812 L108.687998,83.8370499 L106.06516,83.5238935 L104.646094,85.7525632 L104.129986,83.1622339 L101.574208,82.4993758 L103.878221,81.2084123 Z M74.6182244,80.1160157 L77.0753296,79.1479122 L75.9676938,81.5468891 L77.6494548,83.5862005 L75.0240017,83.2753438 L73.6045443,85.5026792 L73.0918722,82.9114414 L70.533766,82.2505268 L72.8378292,80.9592225 L72.678466,78.3236991 L74.6182244,80.1160157 Z M66.6153191,51.9505364 L68.2953275,53.9882219 L65.6714866,53.6761223 L64.251679,55.905754 L63.7360116,53.3127396 L61.1790533,52.6510399 L63.4850425,51.3627232 L63.3231114,48.7255858 L65.2632095,50.5178452 L67.7204952,49.5518602 L66.6153191,51.9505364 Z M66.6153191,51.9505364" fill="#FFFFFF" id="Shape"/></g></g></g></svg>