<?xml version="1.0" ?><svg height="120px" version="1.1" viewBox="0 0 180 120" width="180px" xmlns="http://www.w3.org/2000/svg" xmlns:sketch="http://www.bohemiancoding.com/sketch/ns" xmlns:xlink="http://www.w3.org/1999/xlink"><title/><defs/><g fill="none" fill-rule="evenodd" id="Africa,-Middle-East-and-India" stroke="none" stroke-width="1"><g id="Africa,-Middle-Eest-and-India" transform="translate(-1000.000000, -1201.000000)"><g id="Mozambique" transform="translate(1000.000000, 1201.000000)"><rect d="M0,0 L0,120 L180,120 L180,0 L0,0 Z M0,0" fill="#FFFFFF" height="120" id="Rectangle-3-copy-4" width="180" x="0" y="0"/><rect d="M0.00552383048,40 L0.00552383048,80 L180.005524,80 L180.005524,40 L0.00552383048,40 Z M0.00552383048,40" fill="#262626" height="40" id="Rectangle-3-copy-3" width="180" x="0.00552383048" y="40"/><rect d="M0.00552366097,85 L0.00552366097,120 L180,120 L180,85 L0.00552366097,85 Z M0.00552366097,85" fill="#E5B731" height="35" id="Rectangle-3-copy-2" width="179.994476" x="0.00552366097" y="85"/><rect d="M0.00276191524,0 L0.00276191524,35 L179.997238,35 L179.997238,0 L0.00276191524,0 Z M0.00276191524,0" fill="#479951" height="35" id="Rectangle-3" width="179.994476" x="0.00276191524" y="0"/><polygon d="M0,0 L75,60 L0,120 L0,0 Z M0,0" fill="#CA4638" id="Triangle-18-copy-2" points="0 0 75 60 0 120 "/><g id="Group" transform="translate(2.000000, 34.000000)"><path d="M40.4229444,46.3789737 L25.3538784,35.8116893 L10.757313,47 L16.1422716,29.3908223 L1,18.9542501 L19.3971541,18.638466 L24.6352819,1 L30.6203883,18.4140116 L49,17.9494103 L34.3018477,29.0276483 L34.3018477,29.0276483 L40.4229444,46.3789737 L40.4229444,46.3789737 Z M40.4229444,46.3789737" fill="#E5B731" id="Shape" transform="translate(25.000000, 24.000000) rotate(1.192263) translate(-25.000000, -24.000000) "/><path d="M12,34.109962 L22.5255708,34.109962 C23.3724714,35.0907837 25.2620209,35.4908011 27.0617476,34.0982732 C30.3607853,32.2332573 36.7432357,34.109962 36.7432357,34.109962 L38,32.7314607 L34.9364641,22.3515305 L33.836701,21.1351141 C33.836701,21.1351141 31.4804252,19.6755704 27.0028722,20.1620849 C22.5255708,20.6485995 20.9545525,20 20.9545525,20 C20.9545525,20 17.027183,20.4865146 15.9274702,21.0540716 C15.8065742,21.155115 14.6706807,22.3515305 14.6706807,22.3515305 L14.6706807,22.3515305 L12,34.109962 L12,34.109962 Z M12,34.109962" fill="#FFFFFF" id="Shape" stroke="#000000"/><path d="M14,31.3356413 C14,31.3356413 24.2987819,30.0123673 27.2760102,34.0648441 C25.5946185,35.2474457 24.1142515,35.3449362 22.5287332,34.147764 C22.7813027,33.7151501 26.2299083,30.0123673 35,31.2529863" id="Shape" stroke="#000000"/><path d="M25.0794958,21 L25,32 M34,21 L36,30 M16,21 L15,26" fill="#000000" id="Shape" stroke="#000000" stroke-width="1.57464875"/><path d="M5,34.972163 L7.47942834,37.8741139 C7.77058765,38.0474511 8.02921112,38.0363817 8.28783458,37.8741139 L11.9624199,33.4725071 L13.5057432,31.5650436 C13.744709,31.2825216 13.8209956,30.9672945 13.7996999,30.6847725 L16.750205,28.0676077 C16.9915651,28.0842118 17.1353176,28.1113822 17.3766776,28.1277348 C17.0915164,28.0540225 16.882289,27.9154031 17.1068141,27.6034465 L17.7681915,27.089976 L18.2825654,27.7501164 C18.2825654,27.7501164 17.5477744,28.7038482 17.4742852,28.7038482 L16.6658789,28.7038482 L15.1225556,30.0978413 L15.7972146,30.6930746 L16.8128573,33.4725071 L18.0622995,32.5919845 L17.2537924,29.7310407 L19.0177093,27.8235771 L18.3561554,26.7963846 L18.7971913,26.2094534 C18.7971913,26.2094534 24.9016325,30.0460162 27.2534881,29.0190753 C27.3169972,29.0419689 27.3956276,26.2829141 27.3956276,26.2829141 C27.3956276,26.2829141 21.0754569,25.6227737 20.9282769,24.3754505 C20.7813489,23.1283789 22.3247226,22.981709 22.3247226,22.981709 L21.6631688,22.0279772 L21.8103487,21.5142552 L22.9126865,22.9082483 L25.41147,20.780654 L40.1095591,37.5073134 C40.9119925,37.1825263 41.0833665,36.9865471 41.1385589,36.186781 C41.1178933,36.1666548 26.7343258,19.6802523 26.7343258,19.6802523 L27.8366636,18.5066415 C28.0539053,18.2621077 28.1302675,18.1582061 28.1305195,17.7727887 L29.8208212,16.3056368 C30.3291466,16.4799551 30.653245,16.7840876 30.9231589,17.1858575 L35.5701654,13.254475 C35.6926474,13.3767418 36.0646297,13.4990087 36.3171543,13.3614962 L44,6 L35.626618,11.903879 L35.3327621,11.6837987 C35.3327621,11.4392398 35.6364468,11.3787605 35.3327621,10.9501724 C35.0074036,10.5604531 34.5242802,11.3169981 34.4509423,11.3169981 C34.3773523,11.3169981 33.2389756,10.9153792 32.9894752,10.4065881 L32.9075686,11.7571588 L30.776231,13.7379573 L29.1595193,13.6645972 L26.8076638,15.9388111 L26.5138078,16.819057 L26.8812537,17.5529097 C26.8812537,17.5529097 25.631736,18.6533114 25.631736,18.5798506 C25.631736,18.5066415 25.3792114,18.2555667 25.3683745,18.2231132 L26.4402178,17.2593183 L26.5871458,16.5991024 L26.2295287,16.0416561 C26.1211598,16.1202742 24.7499162,17.5529097 24.6763262,17.4059882 C24.5538442,17.2691298 20.708011,12.9309709 20.708011,12.9309709 L20.9282769,12.1239845 L18.4297454,9.40955971 C17.5188172,9.09561565 16.0779403,9.04275914 15.7839835,11.0235325 C15.5550733,11.4887755 13.6527215,11.0968926 13.6527215,11.0968926 L12.6238477,11.3169981 L6.81800047,19.5335824 L10.0516254,23.4217188 L16.6658789,15.0584645 L16.8622281,12.6892046 L18.2500548,14.2382451 C18.7127645,14.2975924 19.1535484,14.3028 19.5729105,14.0915249 L23.4915777,18.4578354 L22.8390965,19.0933211 C23.0596145,19.3378548 23.2113308,19.4940847 23.4318488,19.7386184 C23.6523668,19.5919485 23.8628039,19.415844 24.0833219,19.2689225 C24.1569119,19.3670379 24.2793938,19.5529539 24.3529838,19.6508177 C24.0246011,19.8291864 23.7942543,20.066676 23.4658716,20.2450447 C22.9404088,19.9031503 22.4330915,19.4774805 22.4716506,18.7999813 L20.266975,20.6339841 L20.193385,21.0007847 L13.6527215,26.429584 L13.0647828,26.5030448 L12.9178045,28.1903777 L17.1803032,24.6690419 L17.1803032,24.1553199 L17.6212636,24.5221205 L20.9282769,21.8813073 C20.9282769,21.8813073 21.1487949,22.1746471 21.0754569,22.1746471 C21.0018669,22.1746471 18.1356374,24.8157119 18.1356374,24.8157119 L18.0622995,25.1090517 L17.5477744,25.549313 L17.2537924,25.3291823 L13.2852504,28.8505181 L12.6973369,28.8505181 L10.4925857,31.0515731 C9.92392663,31.1008823 9.4311761,31.1610095 8.94926245,31.4915828 C8.94926245,31.4915828 9.4311761,31.1610095 8.94926245,31.4915828 L5,34.972163 L5,34.972163 Z M5,34.972163" fill="#000000" id="Shape"/></g></g></g></g></svg>