<?xml version="1.0" ?><svg height="120px" version="1.1" viewBox="0 0 180 120" width="180px" xmlns="http://www.w3.org/2000/svg" xmlns:sketch="http://www.bohemiancoding.com/sketch/ns" xmlns:xlink="http://www.w3.org/1999/xlink"><title/><defs/><g fill="none" fill-rule="evenodd" id="Page-1" stroke="none" stroke-width="1"><g id="iran"><rect d="M0,0 L0,120 L180,120 L180,0 L0,0 Z M0,0" fill="#FFFFFF" height="120" id="Rectangle-326" width="180" x="0" y="0"/><rect d="M0,0 L0,40 L180,40 L180,0 L0,0 Z M0,0" fill="#57BB63" height="40" id="Rectangle-1" width="180" x="0" y="0"/><rect d="M0,80 L0,120 L180,120 L180,80 L0,80 Z M0,80" fill="#BF3126" height="40" id="Rectangle-1-copy" width="180" x="0" y="80"/><g fill="#FFFFFF" id="Group" transform="translate(1.000000, 34.666667)"><g id="Rectangle-4"><rect d="M0,0.6 L0,1.26666667 L14,1.26666667 L14,0.6 L0,0.6 Z M0,0.6" height="0.666666667" id="Rectangle" width="14" x="0" y="0.6"/><rect d="M0,2 L0,2.66666667 L5,2.66666667 L5,2 L0,2 Z M0,2" height="0.666666667" id="Rectangle" width="5" x="0" y="2"/><rect d="M0,4.66666667 L0,5.33333333 L9,5.33333333 L9,4.66666667 L0,4.66666667 Z M0,4.66666667" height="0.666666667" id="Rectangle" width="9" x="0" y="4.66666667"/><rect d="M10,4.66666667 L10,5.33333333 L20,5.33333333 L20,4.66666667 L10,4.66666667 Z M10,4.66666667" height="0.666666667" id="Rectangle" width="10" x="10" y="4.66666667"/><rect d="M4,3.33333333 L4,4 L9,4 L9,3.33333333 L4,3.33333333 Z M4,3.33333333" height="0.666666667" id="Rectangle" width="5" x="4" y="3.33333333"/><rect d="M6,2 L6,2.66666667 L9,2.66666667 L9,2 L6,2 Z M6,2" height="0.666666667" id="Rectangle" width="3" x="6" y="2"/><rect d="M0,2 L0,4 L1,4 L1,2 L0,2 Z M0,2" height="2" id="Rectangle" width="1" x="0" y="2"/><rect d="M2,3.33333333 L2,4 L3,4 L3,3.33333333 L2,3.33333333 Z M2,3.33333333" height="0.666666667" id="Rectangle" width="1" x="2" y="3.33333333"/><rect d="M8,2 L8,4 L9,4 L9,2 L8,2 Z M8,2" height="2" id="Rectangle" width="1" x="8" y="2"/><rect d="M10,2 L10,2.66666667 L15,2.66666667 L15,2 L10,2 Z M10,2" height="0.666666667" id="Rectangle" width="5" x="10" y="2"/><rect d="M15,3.33333333 L15,4 L20,4 L20,3.33333333 L15,3.33333333 Z M15,3.33333333" height="0.666666667" id="Rectangle" width="5" x="15" y="3.33333333"/><rect d="M10,3.33333333 L10,4 L13,4 L13,3.33333333 L10,3.33333333 Z M10,3.33333333" height="0.666666667" id="Rectangle" width="3" x="10" y="3.33333333"/><rect d="M10,2.01187066 L10,4 L11,4 L11,2.01187066 L10,2.01187066 Z M10,2.01187066" height="1.98812934" id="Rectangle" width="1" x="10" y="2.01187066"/><rect d="M4,2 L4,4 L5,4 L5,2 L4,2 Z M4,2" height="2" id="Rectangle" width="1" x="4" y="2"/><rect d="M15,0.503320313 L15,3.83665365 L16,3.83665365 L16,0.503320313 L15,0.503320313 Z M15,0.503320313" height="3.33333333" id="Rectangle" width="1" x="15" y="0.503320313"/><rect d="M17,0.503320313 L17,3.83665365 L18,3.83665365 L18,0.503320313 L17,0.503320313 Z M17,0.503320313" height="3.33333333" id="Rectangle" width="1" x="17" y="0.503320313"/><rect d="M19,0.503320313 L19,3.83665365 L20,3.83665365 L20,0.503320313 L19,0.503320313 Z M19,0.503320313" height="3.33333333" id="Rectangle" width="1" x="19" y="0.503320313"/></g><g id="Rectangle-4" transform="translate(21.000000, 0.000000)"><rect d="M0,0.6 L0,1.26666667 L14,1.26666667 L14,0.6 L0,0.6 Z M0,0.6" height="0.666666667" id="Rectangle" width="14" x="0" y="0.6"/><rect d="M0,2 L0,2.66666667 L5,2.66666667 L5,2 L0,2 Z M0,2" height="0.666666667" id="Rectangle" width="5" x="0" y="2"/><rect d="M0,4.66666667 L0,5.33333333 L9,5.33333333 L9,4.66666667 L0,4.66666667 Z M0,4.66666667" height="0.666666667" id="Rectangle" width="9" x="0" y="4.66666667"/><rect d="M10,4.66666667 L10,5.33333333 L20,5.33333333 L20,4.66666667 L10,4.66666667 Z M10,4.66666667" height="0.666666667" id="Rectangle" width="10" x="10" y="4.66666667"/><rect d="M4,3.33333333 L4,4 L9,4 L9,3.33333333 L4,3.33333333 Z M4,3.33333333" height="0.666666667" id="Rectangle" width="5" x="4" y="3.33333333"/><rect d="M6,2 L6,2.66666667 L9,2.66666667 L9,2 L6,2 Z M6,2" height="0.666666667" id="Rectangle" width="3" x="6" y="2"/><rect d="M0,2 L0,4 L1,4 L1,2 L0,2 Z M0,2" height="2" id="Rectangle" width="1" x="0" y="2"/><rect d="M2,3.33333333 L2,4 L3,4 L3,3.33333333 L2,3.33333333 Z M2,3.33333333" height="0.666666667" id="Rectangle" width="1" x="2" y="3.33333333"/><rect d="M8,2 L8,4 L9,4 L9,2 L8,2 Z M8,2" height="2" id="Rectangle" width="1" x="8" y="2"/><rect d="M10,2 L10,2.66666667 L15,2.66666667 L15,2 L10,2 Z M10,2" height="0.666666667" id="Rectangle" width="5" x="10" y="2"/><rect d="M15,3.33333333 L15,4 L20,4 L20,3.33333333 L15,3.33333333 Z M15,3.33333333" height="0.666666667" id="Rectangle" width="5" x="15" y="3.33333333"/><rect d="M10,3.33333333 L10,4 L13,4 L13,3.33333333 L10,3.33333333 Z M10,3.33333333" height="0.666666667" id="Rectangle" width="3" x="10" y="3.33333333"/><rect d="M10,2.01187066 L10,4 L11,4 L11,2.01187066 L10,2.01187066 Z M10,2.01187066" height="1.98812934" id="Rectangle" width="1" x="10" y="2.01187066"/><rect d="M4,2 L4,4 L5,4 L5,2 L4,2 Z M4,2" height="2" id="Rectangle" width="1" x="4" y="2"/><rect d="M15,0.503320313 L15,3.83665365 L16,3.83665365 L16,0.503320313 L15,0.503320313 Z M15,0.503320313" height="3.33333333" id="Rectangle" width="1" x="15" y="0.503320313"/><rect d="M17,0.503320313 L17,3.83665365 L18,3.83665365 L18,0.503320313 L17,0.503320313 Z M17,0.503320313" height="3.33333333" id="Rectangle" width="1" x="17" y="0.503320313"/><rect d="M19,0.503320313 L19,3.83665365 L20,3.83665365 L20,0.503320313 L19,0.503320313 Z M19,0.503320313" height="3.33333333" id="Rectangle" width="1" x="19" y="0.503320313"/></g><g id="Rectangle-4" transform="translate(42.000000, 0.000000)"><rect d="M0,0.6 L0,1.26666667 L14,1.26666667 L14,0.6 L0,0.6 Z M0,0.6" height="0.666666667" id="Rectangle" width="14" x="0" y="0.6"/><rect d="M0,2 L0,2.66666667 L5,2.66666667 L5,2 L0,2 Z M0,2" height="0.666666667" id="Rectangle" width="5" x="0" y="2"/><rect d="M0,4.66666667 L0,5.33333333 L9,5.33333333 L9,4.66666667 L0,4.66666667 Z M0,4.66666667" height="0.666666667" id="Rectangle" width="9" x="0" y="4.66666667"/><rect d="M10,4.66666667 L10,5.33333333 L20,5.33333333 L20,4.66666667 L10,4.66666667 Z M10,4.66666667" height="0.666666667" id="Rectangle" width="10" x="10" y="4.66666667"/><rect d="M4,3.33333333 L4,4 L9,4 L9,3.33333333 L4,3.33333333 Z M4,3.33333333" height="0.666666667" id="Rectangle" width="5" x="4" y="3.33333333"/><rect d="M6,2 L6,2.66666667 L9,2.66666667 L9,2 L6,2 Z M6,2" height="0.666666667" id="Rectangle" width="3" x="6" y="2"/><rect d="M0,2 L0,4 L1,4 L1,2 L0,2 Z M0,2" height="2" id="Rectangle" width="1" x="0" y="2"/><rect d="M2,3.33333333 L2,4 L3,4 L3,3.33333333 L2,3.33333333 Z M2,3.33333333" height="0.666666667" id="Rectangle" width="1" x="2" y="3.33333333"/><rect d="M8,2 L8,4 L9,4 L9,2 L8,2 Z M8,2" height="2" id="Rectangle" width="1" x="8" y="2"/><rect d="M10,2 L10,2.66666667 L15,2.66666667 L15,2 L10,2 Z M10,2" height="0.666666667" id="Rectangle" width="5" x="10" y="2"/><rect d="M15,3.33333333 L15,4 L20,4 L20,3.33333333 L15,3.33333333 Z M15,3.33333333" height="0.666666667" id="Rectangle" width="5" x="15" y="3.33333333"/><rect d="M10,3.33333333 L10,4 L13,4 L13,3.33333333 L10,3.33333333 Z M10,3.33333333" height="0.666666667" id="Rectangle" width="3" x="10" y="3.33333333"/><rect d="M10,2.01187066 L10,4 L11,4 L11,2.01187066 L10,2.01187066 Z M10,2.01187066" height="1.98812934" id="Rectangle" width="1" x="10" y="2.01187066"/><rect d="M4,2 L4,4 L5,4 L5,2 L4,2 Z M4,2" height="2" id="Rectangle" width="1" x="4" y="2"/><rect d="M15,0.503320313 L15,3.83665365 L16,3.83665365 L16,0.503320313 L15,0.503320313 Z M15,0.503320313" height="3.33333333" id="Rectangle" width="1" x="15" y="0.503320313"/><rect d="M17,0.503320313 L17,3.83665365 L18,3.83665365 L18,0.503320313 L17,0.503320313 Z M17,0.503320313" height="3.33333333" id="Rectangle" width="1" x="17" y="0.503320313"/><rect d="M19,0.503320313 L19,3.83665365 L20,3.83665365 L20,0.503320313 L19,0.503320313 Z M19,0.503320313" height="3.33333333" id="Rectangle" width="1" x="19" y="0.503320313"/></g><g id="Rectangle-4" transform="translate(63.000000, 0.000000)"><rect d="M0,0.6 L0,1.26666667 L14,1.26666667 L14,0.6 L0,0.6 Z M0,0.6" height="0.666666667" id="Rectangle" width="14" x="0" y="0.6"/><rect d="M0,2 L0,2.66666667 L5,2.66666667 L5,2 L0,2 Z M0,2" height="0.666666667" id="Rectangle" width="5" x="0" y="2"/><rect d="M0,4.66666667 L0,5.33333333 L9,5.33333333 L9,4.66666667 L0,4.66666667 Z M0,4.66666667" height="0.666666667" id="Rectangle" width="9" x="0" y="4.66666667"/><rect d="M10,4.66666667 L10,5.33333333 L20,5.33333333 L20,4.66666667 L10,4.66666667 Z M10,4.66666667" height="0.666666667" id="Rectangle" width="10" x="10" y="4.66666667"/><rect d="M4,3.33333333 L4,4 L9,4 L9,3.33333333 L4,3.33333333 Z M4,3.33333333" height="0.666666667" id="Rectangle" width="5" x="4" y="3.33333333"/><rect d="M6,2 L6,2.66666667 L9,2.66666667 L9,2 L6,2 Z M6,2" height="0.666666667" id="Rectangle" width="3" x="6" y="2"/><rect d="M0,2 L0,4 L1,4 L1,2 L0,2 Z M0,2" height="2" id="Rectangle" width="1" x="0" y="2"/><rect d="M2,3.33333333 L2,4 L3,4 L3,3.33333333 L2,3.33333333 Z M2,3.33333333" height="0.666666667" id="Rectangle" width="1" x="2" y="3.33333333"/><rect d="M8,2 L8,4 L9,4 L9,2 L8,2 Z M8,2" height="2" id="Rectangle" width="1" x="8" y="2"/><rect d="M10,2 L10,2.66666667 L15,2.66666667 L15,2 L10,2 Z M10,2" height="0.666666667" id="Rectangle" width="5" x="10" y="2"/><rect d="M15,3.33333333 L15,4 L20,4 L20,3.33333333 L15,3.33333333 Z M15,3.33333333" height="0.666666667" id="Rectangle" width="5" x="15" y="3.33333333"/><rect d="M10,3.33333333 L10,4 L13,4 L13,3.33333333 L10,3.33333333 Z M10,3.33333333" height="0.666666667" id="Rectangle" width="3" x="10" y="3.33333333"/><rect d="M10,2.01187066 L10,4 L11,4 L11,2.01187066 L10,2.01187066 Z M10,2.01187066" height="1.98812934" id="Rectangle" width="1" x="10" y="2.01187066"/><rect d="M4,2 L4,4 L5,4 L5,2 L4,2 Z M4,2" height="2" id="Rectangle" width="1" x="4" y="2"/><rect d="M15,0.503320313 L15,3.83665365 L16,3.83665365 L16,0.503320313 L15,0.503320313 Z M15,0.503320313" height="3.33333333" id="Rectangle" width="1" x="15" y="0.503320313"/><rect d="M17,0.503320313 L17,3.83665365 L18,3.83665365 L18,0.503320313 L17,0.503320313 Z M17,0.503320313" height="3.33333333" id="Rectangle" width="1" x="17" y="0.503320313"/><rect d="M19,0.503320313 L19,3.83665365 L20,3.83665365 L20,0.503320313 L19,0.503320313 Z M19,0.503320313" height="3.33333333" id="Rectangle" width="1" x="19" y="0.503320313"/></g><g id="Rectangle-4" transform="translate(84.000000, 0.000000)"><rect d="M0,0.6 L0,1.26666667 L14,1.26666667 L14,0.6 L0,0.6 Z M0,0.6" height="0.666666667" id="Rectangle" width="14" x="0" y="0.6"/><rect d="M0,2 L0,2.66666667 L5,2.66666667 L5,2 L0,2 Z M0,2" height="0.666666667" id="Rectangle" width="5" x="0" y="2"/><rect d="M0,4.66666667 L0,5.33333333 L9,5.33333333 L9,4.66666667 L0,4.66666667 Z M0,4.66666667" height="0.666666667" id="Rectangle" width="9" x="0" y="4.66666667"/><rect d="M10,4.66666667 L10,5.33333333 L20,5.33333333 L20,4.66666667 L10,4.66666667 Z M10,4.66666667" height="0.666666667" id="Rectangle" width="10" x="10" y="4.66666667"/><rect d="M4,3.33333333 L4,4 L9,4 L9,3.33333333 L4,3.33333333 Z M4,3.33333333" height="0.666666667" id="Rectangle" width="5" x="4" y="3.33333333"/><rect d="M6,2 L6,2.66666667 L9,2.66666667 L9,2 L6,2 Z M6,2" height="0.666666667" id="Rectangle" width="3" x="6" y="2"/><rect d="M0,2 L0,4 L1,4 L1,2 L0,2 Z M0,2" height="2" id="Rectangle" width="1" x="0" y="2"/><rect d="M2,3.33333333 L2,4 L3,4 L3,3.33333333 L2,3.33333333 Z M2,3.33333333" height="0.666666667" id="Rectangle" width="1" x="2" y="3.33333333"/><rect d="M8,2 L8,4 L9,4 L9,2 L8,2 Z M8,2" height="2" id="Rectangle" width="1" x="8" y="2"/><rect d="M10,2 L10,2.66666667 L15,2.66666667 L15,2 L10,2 Z M10,2" height="0.666666667" id="Rectangle" width="5" x="10" y="2"/><rect d="M15,3.33333333 L15,4 L20,4 L20,3.33333333 L15,3.33333333 Z M15,3.33333333" height="0.666666667" id="Rectangle" width="5" x="15" y="3.33333333"/><rect d="M10,3.33333333 L10,4 L13,4 L13,3.33333333 L10,3.33333333 Z M10,3.33333333" height="0.666666667" id="Rectangle" width="3" x="10" y="3.33333333"/><rect d="M10,2.01187066 L10,4 L11,4 L11,2.01187066 L10,2.01187066 Z M10,2.01187066" height="1.98812934" id="Rectangle" width="1" x="10" y="2.01187066"/><rect d="M4,2 L4,4 L5,4 L5,2 L4,2 Z M4,2" height="2" id="Rectangle" width="1" x="4" y="2"/><rect d="M15,0.503320313 L15,3.83665365 L16,3.83665365 L16,0.503320313 L15,0.503320313 Z M15,0.503320313" height="3.33333333" id="Rectangle" width="1" x="15" y="0.503320313"/><rect d="M17,0.503320313 L17,3.83665365 L18,3.83665365 L18,0.503320313 L17,0.503320313 Z M17,0.503320313" height="3.33333333" id="Rectangle" width="1" x="17" y="0.503320313"/><rect d="M19,0.503320313 L19,3.83665365 L20,3.83665365 L20,0.503320313 L19,0.503320313 Z M19,0.503320313" height="3.33333333" id="Rectangle" width="1" x="19" y="0.503320313"/></g><g id="Rectangle-4" transform="translate(105.000000, 0.000000)"><rect d="M0,0.6 L0,1.26666667 L14,1.26666667 L14,0.6 L0,0.6 Z M0,0.6" height="0.666666667" id="Rectangle" width="14" x="0" y="0.6"/><rect d="M0,2 L0,2.66666667 L5,2.66666667 L5,2 L0,2 Z M0,2" height="0.666666667" id="Rectangle" width="5" x="0" y="2"/><rect d="M0,4.66666667 L0,5.33333333 L9,5.33333333 L9,4.66666667 L0,4.66666667 Z M0,4.66666667" height="0.666666667" id="Rectangle" width="9" x="0" y="4.66666667"/><rect d="M10,4.66666667 L10,5.33333333 L20,5.33333333 L20,4.66666667 L10,4.66666667 Z M10,4.66666667" height="0.666666667" id="Rectangle" width="10" x="10" y="4.66666667"/><rect d="M4,3.33333333 L4,4 L9,4 L9,3.33333333 L4,3.33333333 Z M4,3.33333333" height="0.666666667" id="Rectangle" width="5" x="4" y="3.33333333"/><rect d="M6,2 L6,2.66666667 L9,2.66666667 L9,2 L6,2 Z M6,2" height="0.666666667" id="Rectangle" width="3" x="6" y="2"/><rect d="M0,2 L0,4 L1,4 L1,2 L0,2 Z M0,2" height="2" id="Rectangle" width="1" x="0" y="2"/><rect d="M2,3.33333333 L2,4 L3,4 L3,3.33333333 L2,3.33333333 Z M2,3.33333333" height="0.666666667" id="Rectangle" width="1" x="2" y="3.33333333"/><rect d="M8,2 L8,4 L9,4 L9,2 L8,2 Z M8,2" height="2" id="Rectangle" width="1" x="8" y="2"/><rect d="M10,2 L10,2.66666667 L15,2.66666667 L15,2 L10,2 Z M10,2" height="0.666666667" id="Rectangle" width="5" x="10" y="2"/><rect d="M15,3.33333333 L15,4 L20,4 L20,3.33333333 L15,3.33333333 Z M15,3.33333333" height="0.666666667" id="Rectangle" width="5" x="15" y="3.33333333"/><rect d="M10,3.33333333 L10,4 L13,4 L13,3.33333333 L10,3.33333333 Z M10,3.33333333" height="0.666666667" id="Rectangle" width="3" x="10" y="3.33333333"/><rect d="M10,2.01187066 L10,4 L11,4 L11,2.01187066 L10,2.01187066 Z M10,2.01187066" height="1.98812934" id="Rectangle" width="1" x="10" y="2.01187066"/><rect d="M4,2 L4,4 L5,4 L5,2 L4,2 Z M4,2" height="2" id="Rectangle" width="1" x="4" y="2"/><rect d="M15,0.503320313 L15,3.83665365 L16,3.83665365 L16,0.503320313 L15,0.503320313 Z M15,0.503320313" height="3.33333333" id="Rectangle" width="1" x="15" y="0.503320313"/><rect d="M17,0.503320313 L17,3.83665365 L18,3.83665365 L18,0.503320313 L17,0.503320313 Z M17,0.503320313" height="3.33333333" id="Rectangle" width="1" x="17" y="0.503320313"/><rect d="M19,0.503320313 L19,3.83665365 L20,3.83665365 L20,0.503320313 L19,0.503320313 Z M19,0.503320313" height="3.33333333" id="Rectangle" width="1" x="19" y="0.503320313"/></g><g id="Rectangle-4" transform="translate(126.000000, 0.000000)"><rect d="M0,0.6 L0,1.26666667 L14,1.26666667 L14,0.6 L0,0.6 Z M0,0.6" height="0.666666667" id="Rectangle" width="14" x="0" y="0.6"/><rect d="M0,2 L0,2.66666667 L5,2.66666667 L5,2 L0,2 Z M0,2" height="0.666666667" id="Rectangle" width="5" x="0" y="2"/><rect d="M0,4.66666667 L0,5.33333333 L9,5.33333333 L9,4.66666667 L0,4.66666667 Z M0,4.66666667" height="0.666666667" id="Rectangle" width="9" x="0" y="4.66666667"/><rect d="M10,4.66666667 L10,5.33333333 L20,5.33333333 L20,4.66666667 L10,4.66666667 Z M10,4.66666667" height="0.666666667" id="Rectangle" width="10" x="10" y="4.66666667"/><rect d="M4,3.33333333 L4,4 L9,4 L9,3.33333333 L4,3.33333333 Z M4,3.33333333" height="0.666666667" id="Rectangle" width="5" x="4" y="3.33333333"/><rect d="M6,2 L6,2.66666667 L9,2.66666667 L9,2 L6,2 Z M6,2" height="0.666666667" id="Rectangle" width="3" x="6" y="2"/><rect d="M0,2 L0,4 L1,4 L1,2 L0,2 Z M0,2" height="2" id="Rectangle" width="1" x="0" y="2"/><rect d="M2,3.33333333 L2,4 L3,4 L3,3.33333333 L2,3.33333333 Z M2,3.33333333" height="0.666666667" id="Rectangle" width="1" x="2" y="3.33333333"/><rect d="M8,2 L8,4 L9,4 L9,2 L8,2 Z M8,2" height="2" id="Rectangle" width="1" x="8" y="2"/><rect d="M10,2 L10,2.66666667 L15,2.66666667 L15,2 L10,2 Z M10,2" height="0.666666667" id="Rectangle" width="5" x="10" y="2"/><rect d="M15,3.33333333 L15,4 L20,4 L20,3.33333333 L15,3.33333333 Z M15,3.33333333" height="0.666666667" id="Rectangle" width="5" x="15" y="3.33333333"/><rect d="M10,3.33333333 L10,4 L13,4 L13,3.33333333 L10,3.33333333 Z M10,3.33333333" height="0.666666667" id="Rectangle" width="3" x="10" y="3.33333333"/><rect d="M10,2.01187066 L10,4 L11,4 L11,2.01187066 L10,2.01187066 Z M10,2.01187066" height="1.98812934" id="Rectangle" width="1" x="10" y="2.01187066"/><rect d="M4,2 L4,4 L5,4 L5,2 L4,2 Z M4,2" height="2" id="Rectangle" width="1" x="4" y="2"/><rect d="M15,0.503320313 L15,3.83665365 L16,3.83665365 L16,0.503320313 L15,0.503320313 Z M15,0.503320313" height="3.33333333" id="Rectangle" width="1" x="15" y="0.503320313"/><rect d="M17,0.503320313 L17,3.83665365 L18,3.83665365 L18,0.503320313 L17,0.503320313 Z M17,0.503320313" height="3.33333333" id="Rectangle" width="1" x="17" y="0.503320313"/><rect d="M19,0.503320313 L19,3.83665365 L20,3.83665365 L20,0.503320313 L19,0.503320313 Z M19,0.503320313" height="3.33333333" id="Rectangle" width="1" x="19" y="0.503320313"/></g><g id="Rectangle-4" transform="translate(147.000000, 0.000000)"><rect d="M0,0.6 L0,1.26666667 L14,1.26666667 L14,0.6 L0,0.6 Z M0,0.6" height="0.666666667" id="Rectangle" width="14" x="0" y="0.6"/><rect d="M0,2 L0,2.66666667 L5,2.66666667 L5,2 L0,2 Z M0,2" height="0.666666667" id="Rectangle" width="5" x="0" y="2"/><rect d="M0,4.66666667 L0,5.33333333 L9,5.33333333 L9,4.66666667 L0,4.66666667 Z M0,4.66666667" height="0.666666667" id="Rectangle" width="9" x="0" y="4.66666667"/><rect d="M10,4.66666667 L10,5.33333333 L20,5.33333333 L20,4.66666667 L10,4.66666667 Z M10,4.66666667" height="0.666666667" id="Rectangle" width="10" x="10" y="4.66666667"/><rect d="M4,3.33333333 L4,4 L9,4 L9,3.33333333 L4,3.33333333 Z M4,3.33333333" height="0.666666667" id="Rectangle" width="5" x="4" y="3.33333333"/><rect d="M6,2 L6,2.66666667 L9,2.66666667 L9,2 L6,2 Z M6,2" height="0.666666667" id="Rectangle" width="3" x="6" y="2"/><rect d="M0,2 L0,4 L1,4 L1,2 L0,2 Z M0,2" height="2" id="Rectangle" width="1" x="0" y="2"/><rect d="M2,3.33333333 L2,4 L3,4 L3,3.33333333 L2,3.33333333 Z M2,3.33333333" height="0.666666667" id="Rectangle" width="1" x="2" y="3.33333333"/><rect d="M8,2 L8,4 L9,4 L9,2 L8,2 Z M8,2" height="2" id="Rectangle" width="1" x="8" y="2"/><rect d="M10,2 L10,2.66666667 L15,2.66666667 L15,2 L10,2 Z M10,2" height="0.666666667" id="Rectangle" width="5" x="10" y="2"/><rect d="M15,3.33333333 L15,4 L20,4 L20,3.33333333 L15,3.33333333 Z M15,3.33333333" height="0.666666667" id="Rectangle" width="5" x="15" y="3.33333333"/><rect d="M10,3.33333333 L10,4 L13,4 L13,3.33333333 L10,3.33333333 Z M10,3.33333333" height="0.666666667" id="Rectangle" width="3" x="10" y="3.33333333"/><rect d="M10,2.01187066 L10,4 L11,4 L11,2.01187066 L10,2.01187066 Z M10,2.01187066" height="1.98812934" id="Rectangle" width="1" x="10" y="2.01187066"/><rect d="M4,2 L4,4 L5,4 L5,2 L4,2 Z M4,2" height="2" id="Rectangle" width="1" x="4" y="2"/><rect d="M15,0.503320313 L15,3.83665365 L16,3.83665365 L16,0.503320313 L15,0.503320313 Z M15,0.503320313" height="3.33333333" id="Rectangle" width="1" x="15" y="0.503320313"/><rect d="M17,0.503320313 L17,3.83665365 L18,3.83665365 L18,0.503320313 L17,0.503320313 Z M17,0.503320313" height="3.33333333" id="Rectangle" width="1" x="17" y="0.503320313"/><rect d="M19,0.503320313 L19,3.83665365 L20,3.83665365 L20,0.503320313 L19,0.503320313 Z M19,0.503320313" height="3.33333333" id="Rectangle" width="1" x="19" y="0.503320313"/></g><g id="Rectangle-4" transform="translate(168.000000, 0.000000)"><rect d="M0,0.6 L0,1.26666667 L10,1.26666667 L10,0.6 L0,0.6 Z M0,0.6" height="0.666666667" id="Rectangle" width="10" x="0" y="0.6"/><rect d="M0,2 L0,2.66666667 L5,2.66666667 L5,2 L0,2 Z M0,2" height="0.666666667" id="Rectangle" width="5" x="0" y="2"/><rect d="M0,4.66666667 L0,5.33333333 L9,5.33333333 L9,4.66666667 L0,4.66666667 Z M0,4.66666667" height="0.666666667" id="Rectangle" width="9" x="0" y="4.66666667"/><rect d="M4,3.33333333 L4,4 L9,4 L9,3.33333333 L4,3.33333333 Z M4,3.33333333" height="0.666666667" id="Rectangle" width="5" x="4" y="3.33333333"/><rect d="M6,2 L6,2.66666667 L9,2.66666667 L9,2 L6,2 Z M6,2" height="0.666666667" id="Rectangle" width="3" x="6" y="2"/><rect d="M0,2 L0,4 L1,4 L1,2 L0,2 Z M0,2" height="2" id="Rectangle" width="1" x="0" y="2"/><rect d="M2,3.33333333 L2,4 L3,4 L3,3.33333333 L2,3.33333333 Z M2,3.33333333" height="0.666666667" id="Rectangle" width="1" x="2" y="3.33333333"/><rect d="M8,2 L8,4 L9,4 L9,2 L8,2 Z M8,2" height="2" id="Rectangle" width="1" x="8" y="2"/><rect d="M4,2 L4,4 L5,4 L5,2 L4,2 Z M4,2" height="2" id="Rectangle" width="1" x="4" y="2"/></g></g><g fill="#FFFFFF" id="Group" transform="translate(90.000000, 82.666667) scale(1, -1) translate(-90.000000, -82.666667) translate(1.000000, 80.000000)"><g id="Rectangle-4"><rect d="M0,0.6 L0,1.26666667 L14,1.26666667 L14,0.6 L0,0.6 Z M0,0.6" height="0.666666667" id="Rectangle" width="14" x="0" y="0.6"/><rect d="M0,2 L0,2.66666667 L5,2.66666667 L5,2 L0,2 Z M0,2" height="0.666666667" id="Rectangle" width="5" x="0" y="2"/><rect d="M0,4.66666667 L0,5.33333333 L9,5.33333333 L9,4.66666667 L0,4.66666667 Z M0,4.66666667" height="0.666666667" id="Rectangle" width="9" x="0" y="4.66666667"/><rect d="M10,4.66666667 L10,5.33333333 L20,5.33333333 L20,4.66666667 L10,4.66666667 Z M10,4.66666667" height="0.666666667" id="Rectangle" width="10" x="10" y="4.66666667"/><rect d="M4,3.33333333 L4,4 L9,4 L9,3.33333333 L4,3.33333333 Z M4,3.33333333" height="0.666666667" id="Rectangle" width="5" x="4" y="3.33333333"/><rect d="M6,2 L6,2.66666667 L9,2.66666667 L9,2 L6,2 Z M6,2" height="0.666666667" id="Rectangle" width="3" x="6" y="2"/><rect d="M0,2 L0,4 L1,4 L1,2 L0,2 Z M0,2" height="2" id="Rectangle" width="1" x="0" y="2"/><rect d="M2,3.33333333 L2,4 L3,4 L3,3.33333333 L2,3.33333333 Z M2,3.33333333" height="0.666666667" id="Rectangle" width="1" x="2" y="3.33333333"/><rect d="M8,2 L8,4 L9,4 L9,2 L8,2 Z M8,2" height="2" id="Rectangle" width="1" x="8" y="2"/><rect d="M10,2 L10,2.66666667 L15,2.66666667 L15,2 L10,2 Z M10,2" height="0.666666667" id="Rectangle" width="5" x="10" y="2"/><rect d="M15,3.33333333 L15,4 L20,4 L20,3.33333333 L15,3.33333333 Z M15,3.33333333" height="0.666666667" id="Rectangle" width="5" x="15" y="3.33333333"/><rect d="M10,3.33333333 L10,4 L13,4 L13,3.33333333 L10,3.33333333 Z M10,3.33333333" height="0.666666667" id="Rectangle" width="3" x="10" y="3.33333333"/><rect d="M10,2.01187066 L10,4 L11,4 L11,2.01187066 L10,2.01187066 Z M10,2.01187066" height="1.98812934" id="Rectangle" width="1" x="10" y="2.01187066"/><rect d="M4,2 L4,4 L5,4 L5,2 L4,2 Z M4,2" height="2" id="Rectangle" width="1" x="4" y="2"/><rect d="M15,0.503320313 L15,3.83665365 L16,3.83665365 L16,0.503320313 L15,0.503320313 Z M15,0.503320313" height="3.33333333" id="Rectangle" width="1" x="15" y="0.503320313"/><rect d="M17,0.503320313 L17,3.83665365 L18,3.83665365 L18,0.503320313 L17,0.503320313 Z M17,0.503320313" height="3.33333333" id="Rectangle" width="1" x="17" y="0.503320313"/><rect d="M19,0.503320313 L19,3.83665365 L20,3.83665365 L20,0.503320313 L19,0.503320313 Z M19,0.503320313" height="3.33333333" id="Rectangle" width="1" x="19" y="0.503320313"/></g><g id="Rectangle-4" transform="translate(21.000000, 0.000000)"><rect d="M0,0.6 L0,1.26666667 L14,1.26666667 L14,0.6 L0,0.6 Z M0,0.6" height="0.666666667" id="Rectangle" width="14" x="0" y="0.6"/><rect d="M0,2 L0,2.66666667 L5,2.66666667 L5,2 L0,2 Z M0,2" height="0.666666667" id="Rectangle" width="5" x="0" y="2"/><rect d="M0,4.66666667 L0,5.33333333 L9,5.33333333 L9,4.66666667 L0,4.66666667 Z M0,4.66666667" height="0.666666667" id="Rectangle" width="9" x="0" y="4.66666667"/><rect d="M10,4.66666667 L10,5.33333333 L20,5.33333333 L20,4.66666667 L10,4.66666667 Z M10,4.66666667" height="0.666666667" id="Rectangle" width="10" x="10" y="4.66666667"/><rect d="M4,3.33333333 L4,4 L9,4 L9,3.33333333 L4,3.33333333 Z M4,3.33333333" height="0.666666667" id="Rectangle" width="5" x="4" y="3.33333333"/><rect d="M6,2 L6,2.66666667 L9,2.66666667 L9,2 L6,2 Z M6,2" height="0.666666667" id="Rectangle" width="3" x="6" y="2"/><rect d="M0,2 L0,4 L1,4 L1,2 L0,2 Z M0,2" height="2" id="Rectangle" width="1" x="0" y="2"/><rect d="M2,3.33333333 L2,4 L3,4 L3,3.33333333 L2,3.33333333 Z M2,3.33333333" height="0.666666667" id="Rectangle" width="1" x="2" y="3.33333333"/><rect d="M8,2 L8,4 L9,4 L9,2 L8,2 Z M8,2" height="2" id="Rectangle" width="1" x="8" y="2"/><rect d="M10,2 L10,2.66666667 L15,2.66666667 L15,2 L10,2 Z M10,2" height="0.666666667" id="Rectangle" width="5" x="10" y="2"/><rect d="M15,3.33333333 L15,4 L20,4 L20,3.33333333 L15,3.33333333 Z M15,3.33333333" height="0.666666667" id="Rectangle" width="5" x="15" y="3.33333333"/><rect d="M10,3.33333333 L10,4 L13,4 L13,3.33333333 L10,3.33333333 Z M10,3.33333333" height="0.666666667" id="Rectangle" width="3" x="10" y="3.33333333"/><rect d="M10,2.01187066 L10,4 L11,4 L11,2.01187066 L10,2.01187066 Z M10,2.01187066" height="1.98812934" id="Rectangle" width="1" x="10" y="2.01187066"/><rect d="M4,2 L4,4 L5,4 L5,2 L4,2 Z M4,2" height="2" id="Rectangle" width="1" x="4" y="2"/><rect d="M15,0.503320313 L15,3.83665365 L16,3.83665365 L16,0.503320313 L15,0.503320313 Z M15,0.503320313" height="3.33333333" id="Rectangle" width="1" x="15" y="0.503320313"/><rect d="M17,0.503320313 L17,3.83665365 L18,3.83665365 L18,0.503320313 L17,0.503320313 Z M17,0.503320313" height="3.33333333" id="Rectangle" width="1" x="17" y="0.503320313"/><rect d="M19,0.503320313 L19,3.83665365 L20,3.83665365 L20,0.503320313 L19,0.503320313 Z M19,0.503320313" height="3.33333333" id="Rectangle" width="1" x="19" y="0.503320313"/></g><g id="Rectangle-4" transform="translate(42.000000, 0.000000)"><rect d="M0,0.6 L0,1.26666667 L14,1.26666667 L14,0.6 L0,0.6 Z M0,0.6" height="0.666666667" id="Rectangle" width="14" x="0" y="0.6"/><rect d="M0,2 L0,2.66666667 L5,2.66666667 L5,2 L0,2 Z M0,2" height="0.666666667" id="Rectangle" width="5" x="0" y="2"/><rect d="M0,4.66666667 L0,5.33333333 L9,5.33333333 L9,4.66666667 L0,4.66666667 Z M0,4.66666667" height="0.666666667" id="Rectangle" width="9" x="0" y="4.66666667"/><rect d="M10,4.66666667 L10,5.33333333 L20,5.33333333 L20,4.66666667 L10,4.66666667 Z M10,4.66666667" height="0.666666667" id="Rectangle" width="10" x="10" y="4.66666667"/><rect d="M4,3.33333333 L4,4 L9,4 L9,3.33333333 L4,3.33333333 Z M4,3.33333333" height="0.666666667" id="Rectangle" width="5" x="4" y="3.33333333"/><rect d="M6,2 L6,2.66666667 L9,2.66666667 L9,2 L6,2 Z M6,2" height="0.666666667" id="Rectangle" width="3" x="6" y="2"/><rect d="M0,2 L0,4 L1,4 L1,2 L0,2 Z M0,2" height="2" id="Rectangle" width="1" x="0" y="2"/><rect d="M2,3.33333333 L2,4 L3,4 L3,3.33333333 L2,3.33333333 Z M2,3.33333333" height="0.666666667" id="Rectangle" width="1" x="2" y="3.33333333"/><rect d="M8,2 L8,4 L9,4 L9,2 L8,2 Z M8,2" height="2" id="Rectangle" width="1" x="8" y="2"/><rect d="M10,2 L10,2.66666667 L15,2.66666667 L15,2 L10,2 Z M10,2" height="0.666666667" id="Rectangle" width="5" x="10" y="2"/><rect d="M15,3.33333333 L15,4 L20,4 L20,3.33333333 L15,3.33333333 Z M15,3.33333333" height="0.666666667" id="Rectangle" width="5" x="15" y="3.33333333"/><rect d="M10,3.33333333 L10,4 L13,4 L13,3.33333333 L10,3.33333333 Z M10,3.33333333" height="0.666666667" id="Rectangle" width="3" x="10" y="3.33333333"/><rect d="M10,2.01187066 L10,4 L11,4 L11,2.01187066 L10,2.01187066 Z M10,2.01187066" height="1.98812934" id="Rectangle" width="1" x="10" y="2.01187066"/><rect d="M4,2 L4,4 L5,4 L5,2 L4,2 Z M4,2" height="2" id="Rectangle" width="1" x="4" y="2"/><rect d="M15,0.503320313 L15,3.83665365 L16,3.83665365 L16,0.503320313 L15,0.503320313 Z M15,0.503320313" height="3.33333333" id="Rectangle" width="1" x="15" y="0.503320313"/><rect d="M17,0.503320313 L17,3.83665365 L18,3.83665365 L18,0.503320313 L17,0.503320313 Z M17,0.503320313" height="3.33333333" id="Rectangle" width="1" x="17" y="0.503320313"/><rect d="M19,0.503320313 L19,3.83665365 L20,3.83665365 L20,0.503320313 L19,0.503320313 Z M19,0.503320313" height="3.33333333" id="Rectangle" width="1" x="19" y="0.503320313"/></g><g id="Rectangle-4" transform="translate(63.000000, 0.000000)"><rect d="M0,0.6 L0,1.26666667 L14,1.26666667 L14,0.6 L0,0.6 Z M0,0.6" height="0.666666667" id="Rectangle" width="14" x="0" y="0.6"/><rect d="M0,2 L0,2.66666667 L5,2.66666667 L5,2 L0,2 Z M0,2" height="0.666666667" id="Rectangle" width="5" x="0" y="2"/><rect d="M0,4.66666667 L0,5.33333333 L9,5.33333333 L9,4.66666667 L0,4.66666667 Z M0,4.66666667" height="0.666666667" id="Rectangle" width="9" x="0" y="4.66666667"/><rect d="M10,4.66666667 L10,5.33333333 L20,5.33333333 L20,4.66666667 L10,4.66666667 Z M10,4.66666667" height="0.666666667" id="Rectangle" width="10" x="10" y="4.66666667"/><rect d="M4,3.33333333 L4,4 L9,4 L9,3.33333333 L4,3.33333333 Z M4,3.33333333" height="0.666666667" id="Rectangle" width="5" x="4" y="3.33333333"/><rect d="M6,2 L6,2.66666667 L9,2.66666667 L9,2 L6,2 Z M6,2" height="0.666666667" id="Rectangle" width="3" x="6" y="2"/><rect d="M0,2 L0,4 L1,4 L1,2 L0,2 Z M0,2" height="2" id="Rectangle" width="1" x="0" y="2"/><rect d="M2,3.33333333 L2,4 L3,4 L3,3.33333333 L2,3.33333333 Z M2,3.33333333" height="0.666666667" id="Rectangle" width="1" x="2" y="3.33333333"/><rect d="M8,2 L8,4 L9,4 L9,2 L8,2 Z M8,2" height="2" id="Rectangle" width="1" x="8" y="2"/><rect d="M10,2 L10,2.66666667 L15,2.66666667 L15,2 L10,2 Z M10,2" height="0.666666667" id="Rectangle" width="5" x="10" y="2"/><rect d="M15,3.33333333 L15,4 L20,4 L20,3.33333333 L15,3.33333333 Z M15,3.33333333" height="0.666666667" id="Rectangle" width="5" x="15" y="3.33333333"/><rect d="M10,3.33333333 L10,4 L13,4 L13,3.33333333 L10,3.33333333 Z M10,3.33333333" height="0.666666667" id="Rectangle" width="3" x="10" y="3.33333333"/><rect d="M10,2.01187066 L10,4 L11,4 L11,2.01187066 L10,2.01187066 Z M10,2.01187066" height="1.98812934" id="Rectangle" width="1" x="10" y="2.01187066"/><rect d="M4,2 L4,4 L5,4 L5,2 L4,2 Z M4,2" height="2" id="Rectangle" width="1" x="4" y="2"/><rect d="M15,0.503320313 L15,3.83665365 L16,3.83665365 L16,0.503320313 L15,0.503320313 Z M15,0.503320313" height="3.33333333" id="Rectangle" width="1" x="15" y="0.503320313"/><rect d="M17,0.503320313 L17,3.83665365 L18,3.83665365 L18,0.503320313 L17,0.503320313 Z M17,0.503320313" height="3.33333333" id="Rectangle" width="1" x="17" y="0.503320313"/><rect d="M19,0.503320313 L19,3.83665365 L20,3.83665365 L20,0.503320313 L19,0.503320313 Z M19,0.503320313" height="3.33333333" id="Rectangle" width="1" x="19" y="0.503320313"/></g><g id="Rectangle-4" transform="translate(84.000000, 0.000000)"><rect d="M0,0.6 L0,1.26666667 L14,1.26666667 L14,0.6 L0,0.6 Z M0,0.6" height="0.666666667" id="Rectangle" width="14" x="0" y="0.6"/><rect d="M0,2 L0,2.66666667 L5,2.66666667 L5,2 L0,2 Z M0,2" height="0.666666667" id="Rectangle" width="5" x="0" y="2"/><rect d="M0,4.66666667 L0,5.33333333 L9,5.33333333 L9,4.66666667 L0,4.66666667 Z M0,4.66666667" height="0.666666667" id="Rectangle" width="9" x="0" y="4.66666667"/><rect d="M10,4.66666667 L10,5.33333333 L20,5.33333333 L20,4.66666667 L10,4.66666667 Z M10,4.66666667" height="0.666666667" id="Rectangle" width="10" x="10" y="4.66666667"/><rect d="M4,3.33333333 L4,4 L9,4 L9,3.33333333 L4,3.33333333 Z M4,3.33333333" height="0.666666667" id="Rectangle" width="5" x="4" y="3.33333333"/><rect d="M6,2 L6,2.66666667 L9,2.66666667 L9,2 L6,2 Z M6,2" height="0.666666667" id="Rectangle" width="3" x="6" y="2"/><rect d="M0,2 L0,4 L1,4 L1,2 L0,2 Z M0,2" height="2" id="Rectangle" width="1" x="0" y="2"/><rect d="M2,3.33333333 L2,4 L3,4 L3,3.33333333 L2,3.33333333 Z M2,3.33333333" height="0.666666667" id="Rectangle" width="1" x="2" y="3.33333333"/><rect d="M8,2 L8,4 L9,4 L9,2 L8,2 Z M8,2" height="2" id="Rectangle" width="1" x="8" y="2"/><rect d="M10,2 L10,2.66666667 L15,2.66666667 L15,2 L10,2 Z M10,2" height="0.666666667" id="Rectangle" width="5" x="10" y="2"/><rect d="M15,3.33333333 L15,4 L20,4 L20,3.33333333 L15,3.33333333 Z M15,3.33333333" height="0.666666667" id="Rectangle" width="5" x="15" y="3.33333333"/><rect d="M10,3.33333333 L10,4 L13,4 L13,3.33333333 L10,3.33333333 Z M10,3.33333333" height="0.666666667" id="Rectangle" width="3" x="10" y="3.33333333"/><rect d="M10,2.01187066 L10,4 L11,4 L11,2.01187066 L10,2.01187066 Z M10,2.01187066" height="1.98812934" id="Rectangle" width="1" x="10" y="2.01187066"/><rect d="M4,2 L4,4 L5,4 L5,2 L4,2 Z M4,2" height="2" id="Rectangle" width="1" x="4" y="2"/><rect d="M15,0.503320313 L15,3.83665365 L16,3.83665365 L16,0.503320313 L15,0.503320313 Z M15,0.503320313" height="3.33333333" id="Rectangle" width="1" x="15" y="0.503320313"/><rect d="M17,0.503320313 L17,3.83665365 L18,3.83665365 L18,0.503320313 L17,0.503320313 Z M17,0.503320313" height="3.33333333" id="Rectangle" width="1" x="17" y="0.503320313"/><rect d="M19,0.503320313 L19,3.83665365 L20,3.83665365 L20,0.503320313 L19,0.503320313 Z M19,0.503320313" height="3.33333333" id="Rectangle" width="1" x="19" y="0.503320313"/></g><g id="Rectangle-4" transform="translate(105.000000, 0.000000)"><rect d="M0,0.6 L0,1.26666667 L14,1.26666667 L14,0.6 L0,0.6 Z M0,0.6" height="0.666666667" id="Rectangle" width="14" x="0" y="0.6"/><rect d="M0,2 L0,2.66666667 L5,2.66666667 L5,2 L0,2 Z M0,2" height="0.666666667" id="Rectangle" width="5" x="0" y="2"/><rect d="M0,4.66666667 L0,5.33333333 L9,5.33333333 L9,4.66666667 L0,4.66666667 Z M0,4.66666667" height="0.666666667" id="Rectangle" width="9" x="0" y="4.66666667"/><rect d="M10,4.66666667 L10,5.33333333 L20,5.33333333 L20,4.66666667 L10,4.66666667 Z M10,4.66666667" height="0.666666667" id="Rectangle" width="10" x="10" y="4.66666667"/><rect d="M4,3.33333333 L4,4 L9,4 L9,3.33333333 L4,3.33333333 Z M4,3.33333333" height="0.666666667" id="Rectangle" width="5" x="4" y="3.33333333"/><rect d="M6,2 L6,2.66666667 L9,2.66666667 L9,2 L6,2 Z M6,2" height="0.666666667" id="Rectangle" width="3" x="6" y="2"/><rect d="M0,2 L0,4 L1,4 L1,2 L0,2 Z M0,2" height="2" id="Rectangle" width="1" x="0" y="2"/><rect d="M2,3.33333333 L2,4 L3,4 L3,3.33333333 L2,3.33333333 Z M2,3.33333333" height="0.666666667" id="Rectangle" width="1" x="2" y="3.33333333"/><rect d="M8,2 L8,4 L9,4 L9,2 L8,2 Z M8,2" height="2" id="Rectangle" width="1" x="8" y="2"/><rect d="M10,2 L10,2.66666667 L15,2.66666667 L15,2 L10,2 Z M10,2" height="0.666666667" id="Rectangle" width="5" x="10" y="2"/><rect d="M15,3.33333333 L15,4 L20,4 L20,3.33333333 L15,3.33333333 Z M15,3.33333333" height="0.666666667" id="Rectangle" width="5" x="15" y="3.33333333"/><rect d="M10,3.33333333 L10,4 L13,4 L13,3.33333333 L10,3.33333333 Z M10,3.33333333" height="0.666666667" id="Rectangle" width="3" x="10" y="3.33333333"/><rect d="M10,2.01187066 L10,4 L11,4 L11,2.01187066 L10,2.01187066 Z M10,2.01187066" height="1.98812934" id="Rectangle" width="1" x="10" y="2.01187066"/><rect d="M4,2 L4,4 L5,4 L5,2 L4,2 Z M4,2" height="2" id="Rectangle" width="1" x="4" y="2"/><rect d="M15,0.503320313 L15,3.83665365 L16,3.83665365 L16,0.503320313 L15,0.503320313 Z M15,0.503320313" height="3.33333333" id="Rectangle" width="1" x="15" y="0.503320313"/><rect d="M17,0.503320313 L17,3.83665365 L18,3.83665365 L18,0.503320313 L17,0.503320313 Z M17,0.503320313" height="3.33333333" id="Rectangle" width="1" x="17" y="0.503320313"/><rect d="M19,0.503320313 L19,3.83665365 L20,3.83665365 L20,0.503320313 L19,0.503320313 Z M19,0.503320313" height="3.33333333" id="Rectangle" width="1" x="19" y="0.503320313"/></g><g id="Rectangle-4" transform="translate(126.000000, 0.000000)"><rect d="M0,0.6 L0,1.26666667 L14,1.26666667 L14,0.6 L0,0.6 Z M0,0.6" height="0.666666667" id="Rectangle" width="14" x="0" y="0.6"/><rect d="M0,2 L0,2.66666667 L5,2.66666667 L5,2 L0,2 Z M0,2" height="0.666666667" id="Rectangle" width="5" x="0" y="2"/><rect d="M0,4.66666667 L0,5.33333333 L9,5.33333333 L9,4.66666667 L0,4.66666667 Z M0,4.66666667" height="0.666666667" id="Rectangle" width="9" x="0" y="4.66666667"/><rect d="M10,4.66666667 L10,5.33333333 L20,5.33333333 L20,4.66666667 L10,4.66666667 Z M10,4.66666667" height="0.666666667" id="Rectangle" width="10" x="10" y="4.66666667"/><rect d="M4,3.33333333 L4,4 L9,4 L9,3.33333333 L4,3.33333333 Z M4,3.33333333" height="0.666666667" id="Rectangle" width="5" x="4" y="3.33333333"/><rect d="M6,2 L6,2.66666667 L9,2.66666667 L9,2 L6,2 Z M6,2" height="0.666666667" id="Rectangle" width="3" x="6" y="2"/><rect d="M0,2 L0,4 L1,4 L1,2 L0,2 Z M0,2" height="2" id="Rectangle" width="1" x="0" y="2"/><rect d="M2,3.33333333 L2,4 L3,4 L3,3.33333333 L2,3.33333333 Z M2,3.33333333" height="0.666666667" id="Rectangle" width="1" x="2" y="3.33333333"/><rect d="M8,2 L8,4 L9,4 L9,2 L8,2 Z M8,2" height="2" id="Rectangle" width="1" x="8" y="2"/><rect d="M10,2 L10,2.66666667 L15,2.66666667 L15,2 L10,2 Z M10,2" height="0.666666667" id="Rectangle" width="5" x="10" y="2"/><rect d="M15,3.33333333 L15,4 L20,4 L20,3.33333333 L15,3.33333333 Z M15,3.33333333" height="0.666666667" id="Rectangle" width="5" x="15" y="3.33333333"/><rect d="M10,3.33333333 L10,4 L13,4 L13,3.33333333 L10,3.33333333 Z M10,3.33333333" height="0.666666667" id="Rectangle" width="3" x="10" y="3.33333333"/><rect d="M10,2.01187066 L10,4 L11,4 L11,2.01187066 L10,2.01187066 Z M10,2.01187066" height="1.98812934" id="Rectangle" width="1" x="10" y="2.01187066"/><rect d="M4,2 L4,4 L5,4 L5,2 L4,2 Z M4,2" height="2" id="Rectangle" width="1" x="4" y="2"/><rect d="M15,0.503320313 L15,3.83665365 L16,3.83665365 L16,0.503320313 L15,0.503320313 Z M15,0.503320313" height="3.33333333" id="Rectangle" width="1" x="15" y="0.503320313"/><rect d="M17,0.503320313 L17,3.83665365 L18,3.83665365 L18,0.503320313 L17,0.503320313 Z M17,0.503320313" height="3.33333333" id="Rectangle" width="1" x="17" y="0.503320313"/><rect d="M19,0.503320313 L19,3.83665365 L20,3.83665365 L20,0.503320313 L19,0.503320313 Z M19,0.503320313" height="3.33333333" id="Rectangle" width="1" x="19" y="0.503320313"/></g><g id="Rectangle-4" transform="translate(147.000000, 0.000000)"><rect d="M0,0.6 L0,1.26666667 L14,1.26666667 L14,0.6 L0,0.6 Z M0,0.6" height="0.666666667" id="Rectangle" width="14" x="0" y="0.6"/><rect d="M0,2 L0,2.66666667 L5,2.66666667 L5,2 L0,2 Z M0,2" height="0.666666667" id="Rectangle" width="5" x="0" y="2"/><rect d="M0,4.66666667 L0,5.33333333 L9,5.33333333 L9,4.66666667 L0,4.66666667 Z M0,4.66666667" height="0.666666667" id="Rectangle" width="9" x="0" y="4.66666667"/><rect d="M10,4.66666667 L10,5.33333333 L20,5.33333333 L20,4.66666667 L10,4.66666667 Z M10,4.66666667" height="0.666666667" id="Rectangle" width="10" x="10" y="4.66666667"/><rect d="M4,3.33333333 L4,4 L9,4 L9,3.33333333 L4,3.33333333 Z M4,3.33333333" height="0.666666667" id="Rectangle" width="5" x="4" y="3.33333333"/><rect d="M6,2 L6,2.66666667 L9,2.66666667 L9,2 L6,2 Z M6,2" height="0.666666667" id="Rectangle" width="3" x="6" y="2"/><rect d="M0,2 L0,4 L1,4 L1,2 L0,2 Z M0,2" height="2" id="Rectangle" width="1" x="0" y="2"/><rect d="M2,3.33333333 L2,4 L3,4 L3,3.33333333 L2,3.33333333 Z M2,3.33333333" height="0.666666667" id="Rectangle" width="1" x="2" y="3.33333333"/><rect d="M8,2 L8,4 L9,4 L9,2 L8,2 Z M8,2" height="2" id="Rectangle" width="1" x="8" y="2"/><rect d="M10,2 L10,2.66666667 L15,2.66666667 L15,2 L10,2 Z M10,2" height="0.666666667" id="Rectangle" width="5" x="10" y="2"/><rect d="M15,3.33333333 L15,4 L20,4 L20,3.33333333 L15,3.33333333 Z M15,3.33333333" height="0.666666667" id="Rectangle" width="5" x="15" y="3.33333333"/><rect d="M10,3.33333333 L10,4 L13,4 L13,3.33333333 L10,3.33333333 Z M10,3.33333333" height="0.666666667" id="Rectangle" width="3" x="10" y="3.33333333"/><rect d="M10,2.01187066 L10,4 L11,4 L11,2.01187066 L10,2.01187066 Z M10,2.01187066" height="1.98812934" id="Rectangle" width="1" x="10" y="2.01187066"/><rect d="M4,2 L4,4 L5,4 L5,2 L4,2 Z M4,2" height="2" id="Rectangle" width="1" x="4" y="2"/><rect d="M15,0.503320313 L15,3.83665365 L16,3.83665365 L16,0.503320313 L15,0.503320313 Z M15,0.503320313" height="3.33333333" id="Rectangle" width="1" x="15" y="0.503320313"/><rect d="M17,0.503320313 L17,3.83665365 L18,3.83665365 L18,0.503320313 L17,0.503320313 Z M17,0.503320313" height="3.33333333" id="Rectangle" width="1" x="17" y="0.503320313"/><rect d="M19,0.503320313 L19,3.83665365 L20,3.83665365 L20,0.503320313 L19,0.503320313 Z M19,0.503320313" height="3.33333333" id="Rectangle" width="1" x="19" y="0.503320313"/></g><g id="Rectangle-4" transform="translate(168.000000, 0.000000)"><rect d="M0,0.6 L0,1.26666667 L10,1.26666667 L10,0.6 L0,0.6 Z M0,0.6" height="0.666666667" id="Rectangle" width="10" x="0" y="0.6"/><rect d="M0,2 L0,2.66666667 L5,2.66666667 L5,2 L0,2 Z M0,2" height="0.666666667" id="Rectangle" width="5" x="0" y="2"/><rect d="M0,4.66666667 L0,5.33333333 L9,5.33333333 L9,4.66666667 L0,4.66666667 Z M0,4.66666667" height="0.666666667" id="Rectangle" width="9" x="0" y="4.66666667"/><rect d="M4,3.33333333 L4,4 L9,4 L9,3.33333333 L4,3.33333333 Z M4,3.33333333" height="0.666666667" id="Rectangle" width="5" x="4" y="3.33333333"/><rect d="M6,2 L6,2.66666667 L9,2.66666667 L9,2 L6,2 Z M6,2" height="0.666666667" id="Rectangle" width="3" x="6" y="2"/><rect d="M0,2 L0,4 L1,4 L1,2 L0,2 Z M0,2" height="2" id="Rectangle" width="1" x="0" y="2"/><rect d="M2,3.33333333 L2,4 L3,4 L3,3.33333333 L2,3.33333333 Z M2,3.33333333" height="0.666666667" id="Rectangle" width="1" x="2" y="3.33333333"/><rect d="M8,2 L8,4 L9,4 L9,2 L8,2 Z M8,2" height="2" id="Rectangle" width="1" x="8" y="2"/><rect d="M4,2 L4,4 L5,4 L5,2 L4,2 Z M4,2" height="2" id="Rectangle" width="1" x="4" y="2"/></g></g></g><path d="M77.1113098,72.4663299 C66.4639338,66.1036005 69.8221411,49.049465 82.5656448,47.9595363 C72.0106602,54.1677989 71.9951413,64.4091584 77.1113098,72.4663299 C77.1113098,72.4663299 71.9951413,64.4091584 77.1113098,72.4663299 L77.1113098,72.4663299 L77.1113098,72.4663299 Z M103.861857,72.4663299 C114.509233,66.1036005 111.151025,49.049465 98.4075217,47.9595363 C108.962506,54.1677989 108.978026,64.4091584 103.861857,72.4663299 C103.861857,72.4663299 108.978026,64.4091584 103.861857,72.4663299 L103.861857,72.4663299 L103.861857,72.4663299 Z M90.522564,45.4741351 C88.2554067,47.757902 84.360322,45.4877154 85.6993087,43 C88.0425127,46.7519027 90.522564,43.7204876 90.522564,43.7204876 C90.522564,43.7204876 93.0026154,46.7518619 95.3458193,43 C96.6848061,45.4876746 92.7897214,47.757902 90.522564,45.4741351 C90.522564,45.4741351 92.7897214,47.757902 90.522564,45.4741351 C90.522564,45.4741351 92.7897214,47.757902 90.522564,45.4741351 L90.522564,45.4741351 L90.522564,45.4741351 Z M88.8945454,75.0976224 C88.8945454,75.0976224 85.156023,76.1613974 80.3678587,74.6016149 C84.2016816,74.8916977 87.1513351,73.7013267 87.3121729,73.6294861 C87.3121729,73.6294861 77.9391745,69.116355 78.1217595,59.9268852 C78.6695143,50.6286916 84.2079548,47.8008988 84.2079548,47.8008988 C84.2079548,47.8008988 74.3483676,60.6332217 88.8333794,71.3587695 L88.1943321,58.0908998 L88.1943321,48.3441091 C89.0159643,48.1673618 90.5222901,46.6176629 90.5222901,46.6176629 C90.5222901,46.6176629 92.028616,48.1673618 92.8502482,48.3441091 L92.8502482,58.0908998 L92.2112009,71.3587695 C106.695665,60.6332217 96.8360777,47.8000832 96.8360777,47.8000832 C96.8360777,47.8000832 102.374518,50.6276313 102.922273,59.9260696 C103.104858,69.1157843 93.7318597,73.6286709 93.7318597,73.6286709 C94.5838923,74.009244 96.8966958,74.6618303 101.035258,74.6618303 C95.9836798,76.2386897 92.1494872,75.0968064 92.1494872,75.0968064 L90.5214685,77 L88.8945454,75.0976224 L88.8945454,75.0976224 L88.8945454,75.0976224 L88.8945454,75.0976224 Z M88.8945454,75.0976224" fill="#CA4638" id="Shape"/></g></svg>