<?xml version="1.0" ?><svg height="120px" version="1.1" viewBox="0 0 180 120" width="180px" xmlns="http://www.w3.org/2000/svg" xmlns:sketch="http://www.bohemiancoding.com/sketch/ns" xmlns:xlink="http://www.w3.org/1999/xlink"><title/><defs/><g fill="none" fill-rule="evenodd" id="Europe" stroke="none" stroke-width="1"><g id="UK"><rect d="M0,0 L0,120 L180,120 L180,0 L0,0 Z M0,0" fill="#346DA6" height="120" id="rect962-copy" width="180" x="0" y="0"/><path d="M41.8426025,41.3114754 L0,13.4164079 L0,0 L20.1246119,0 L72,34.5835921 L72,34.5835921 L72,0 L108,0 L108,34.5835921 L159.875388,0 L180,0 L180,13.4164079 L138.157398,41.3114754 L180,41.3114754 L180,76.7213115 L135.206579,76.7213115 L180,106.583592 L180,120 L159.875393,120 L108,85.4164058 L108,120 L72,120 L72,85.4164058 L20.1246071,120 L0,120 L0,106.583592 L44.7934209,76.7213115 L0,76.7213115 L0,41.3114754 L41.8426025,41.3114754 Z M41.8426025,41.3114754" fill="#FFFFFF" id="White_Diagonal"/><path d="M118,78.0000001 L130,78.0000001 L180,112 L180,120 L118,78.0000001 Z M12,120 L72,78.0000001 L60,78.0000001 L0,120 L12,120 Z M168,4.02655473e-07 L108,42.0000003 L120,42.0000003 L180,4.02655473e-07 L168,4.02655473e-07 Z M62,42.0000003 L50,42.0000003 L0,8.00000038 L0,4.02655473e-07 L62,42.0000003 Z M102,3.08979687e-15 L102,47.9999998 L180,48.0000002 L180,72.0000002 L102,71.9999998 L102,120 L78,120 L78,72.0000002 L0,72.0000002 L0,48.0000002 L78,47.9999998 L78,4.02655472e-07 L102,3.08979687e-15 Z M102,3.08979687e-15" fill="#CA4638" id="Red_Diagonals-copy"/></g></g></svg>