<?xml version="1.0" ?><svg height="120px" version="1.1" viewBox="0 0 180 120" width="180px" xmlns="http://www.w3.org/2000/svg" xmlns:sketch="http://www.bohemiancoding.com/sketch/ns" xmlns:xlink="http://www.w3.org/1999/xlink"><title/><defs/><g fill="none" fill-rule="evenodd" id="Ameria" stroke="none" stroke-width="1"><g id="Group" transform="translate(-400.000000, -600.000000)"><g id="Antigua-and-Barbuda" transform="translate(400.000000, 600.000000)"><rect d="M-1.42108547e-14,0 L-1.42108547e-14,120 L180,120 L180,0 L-1.42108547e-14,0 Z M-1.42108547e-14,0" fill="#262626" height="120" id="Oval-15-copy" width="180" x="-1.59877022e-14" y="0"/><path d="M85.8289111,25.433029 L90,10 L94.1710889,25.433029 L94.1710889,25.433029 L104.685433,13.3903994 L101.734835,28.7472904 L116.03439,22.4177669 L106.665625,35.3716316 L106.665625,35.3716316 L122.641397,35.9641397 L108.542207,43.5 L122.641397,51.0358603 L106.665625,51.6283684 L106.665625,51.6283684 L116.03439,64.5822331 L101.734835,58.2527096 L104.685433,73.6096006 L94.1710889,61.566971 L94.1710889,61.566971 L90,77 L85.8289111,61.566971 L75.3145666,73.6096006 L78.2651649,58.2527096 L78.2651649,58.2527096 L63.9656103,64.5822331 L73.3343751,51.6283684 L57.3586028,51.0358603 L71.4577934,43.5 L71.4577934,43.5 L57.3586028,35.9641397 L73.3343751,35.3716316 L63.9656103,22.4177669 L78.2651649,28.7472904 L75.3145666,13.3903994 L85.8289111,25.433029 L85.8289111,25.433029 Z M85.8289111,25.433029" fill="#E5B731" id="Triangle-1"/><rect d="M-1.42108547e-14,50 L-1.42108547e-14,120 L180,120 L180,50 L-1.42108547e-14,50 Z M-1.42108547e-14,50" fill="#4086CD" height="70" id="Oval-15-copy" width="180" x="-1.59877022e-14" y="50"/><rect d="M-1.42108547e-14,70 L-1.42108547e-14,120 L180,120 L180,70 L-1.42108547e-14,70 Z M-1.42108547e-14,70" fill="#FFFFFF" height="50" id="Oval-15-copy" width="180" x="-1.59877022e-14" y="70"/><path d="M90,120 L0,0 L0,120 L180,120 L180,0 L90,120 Z M90,120" fill="#CA4638" id="Oval-15-copy"/></g></g></g></svg>