<?xml version="1.0" encoding="UTF-8" standalone="no"?>
<svg width="180px" height="120px" viewBox="0 0 180 120" version="1.1" xmlns="http://www.w3.org/2000/svg" xmlns:xlink="http://www.w3.org/1999/xlink">
    <!-- Generator: Sketch 40.2 (33826) - http://www.bohemiancoding.com/sketch -->
    <title>icon-flag-rs</title>
    <desc>Created with Sketch.</desc>
    <defs></defs>
    <g id="Page-1" stroke="none" stroke-width="1" fill="none" fill-rule="evenodd">
        <rect id="Rectangle-326" fill="#FFFFFF" x="0" y="0" width="180" height="120"></rect>
        <rect id="Rectangle-1" fill="#CA4638" x="0" y="0" width="180" height="40"></rect>
        <rect id="Rectangle-1-copy" fill="#346DA6" x="0" y="40" width="180" height="40"></rect>
        <path d="M16.7,40 L16.7,75.2 L16.7,75.2 C16.7,81.5 19.1,87.2 23.1,91.3 C27,95.4 32.4,98 38.3,98 L38.3,98 C44.3,98 49.7,95.4 53.6,91.3 C57.5,87.2 60,81.4 60,75.2 L60,40 L16.7,40 L16.7,40 L16.7,40 L16.7,40 L16.7,40 L16.7,40 L16.7,40 Z" id="Shape_253_" fill="#CA4638"></path>
        <path d="M58.7,24.7 L58.7,24.7 L58.7,24.7 L58.7,24.7 C58.7,24.3 58.4,24.1 58,24 C57.5,24 57.3,23.8 57.3,23.3 L57.3,23.3 L57.3,23.3 L57.3,23.3 C56.8,22.9 56,22.8 56,22.6 L56,22.6 L56,22.6 C55.3,22.2 54.7,22.2 54.7,21.9 L54.7,21.9 L54.7,21.9 L54.7,21.9 L54.7,21.9 C54.6,21.5 54.3,21.2 54,21.2 L54,21.2 L54,21.2 L54,21.2 C53.7,21.2 52,20.8 52,21.2 L52,21.2 L52,21.2 L52,21.2 C51.9,21.1 51,19.9 50.7,19.9 L50.7,19.9 L50.7,19.9 L50.7,19.9 C50,19.8 49.5,20 49.4,20.6 L49.4,20.6 L49.4,20.6 C49.3,20.6 49.1,19.9 48.1,20.5 C48.1,20.5 47.9,20.4 47.8,20.4 C48.3,20 48.1,19.2 47.4,19.2 C47.5,19.5 48.5,19.9 47.7,20.4 C47.7,19.9 47.5,19.2 46.8,19.2 L46.8,19.2 L46.8,19.2 C45.8,19.5 43.6,19.8 41.5,19.9 C41.7,20.2 40.1,16.7 39.6,16 C39.2,16 40.2,16.1 40.1,15.9 C40.3,15.9 40.3,16.6 40.1,16.5 C40.3,16.4 40.6,16.5 40.8,16.5 C40.9,16 40.8,14.5 40.8,14.5 C40.7,14.5 40.2,14.7 40.1,14.5 C40.2,14.6 40.2,15.1 40.1,15.1 C40.1,15.1 40.8,15 39.7,15.1 C39.9,15.3 39.8,13.5 39.4,13.2 C39.4,13.3 38.3,14.4 38.1,14.5 C38.3,14.4 38.9,13.7 38.7,14.9 C37.9,15 38.5,14.3 38.5,15.1 C37,15.7 38,14.8 38,14.7 C38,14.4 36.5,16.1 36.7,16 C36.6,16 38,16.5 38,16.7 C37.7,16.7 37.9,16.1 37.9,16.1 C37.9,16.1 38.7,16.2 38.5,16.2 L38,16.7 C38,16.8 38.7,16.4 38.6,16.4 C38.6,16.4 37,19.8 36.8,20 L36.8,19.9 L36.8,19.4 C36.7,19.5 37.2,20 37.2,20 C35.8,20.1 33.4,20.5 32,20.2 C32.2,19.5 33.4,20.5 33.4,19.3 C33.4,18.5 31.5,18.3 31.4,19.3 L31.4,19.3 L31.4,19.3 L31.4,19.3 C31.2,19.4 29,19.5 30.4,20.5 C29.6,20.2 28.8,20.2 28.8,20.6 L28.8,20.6 L28.8,20.6 C28.6,20 28.1,19.8 27.5,19.9 L27.5,19.9 L27.5,19.9 L27.5,19.9 C27.1,20.3 26.4,21 26.2,21.2 L26.2,21.2 L26.2,21.2 L26.2,21.2 C26.2,20.8 24.3,21.2 24.2,21.2 L24.2,21.2 L24.2,21.2 C23.9,21.2 23.5,21.4 23.5,21.9 L23.5,21.9 L23.5,21.9 L23.5,21.9 L23.5,21.9 C23.5,22.5 23.4,22.4 22.8,21.9 C22.4,21.9 22.2,22.2 22.1,22.6 L22.1,22.6 L22.1,22.6 C22,22.6 21.3,22.9 20.8,23.3 L20.8,23.3 L20.8,23.3 L20.8,23.3 C20.8,24.3 19.5,23.6 19.5,24.6 L19.5,24.6 L19.5,24.6 L19.5,24.6 C20.1,25.3 20.4,25.8 20.8,26.6 L20.8,26.6 L20.8,26.6 L20.8,26.6 C20.8,27.4 22,28.7 21.5,29.2 C22.1,29.3 22.5,29.1 22.8,29 C22.9,29.1 22.9,29.8 23.2,29.9 C23.3,30.2 24.9,32.4 25.7,33.8 C26.3,34.9 26.2,34.4 25.8,34.6 C24.3,40.5 48.4,41.5 52.1,37.3 C52.9,36.4 52.7,35.5 52.6,34.6 C52.3,34.4 52.4,34.9 53.5,33.5 C53.5,33.5 53,34.4 52.9,34.5 C53.2,34.1 53.8,33 54.2,32.6 L54.1,32.6 C54.3,32.6 54,32.8 54.1,32.6 C54,32.6 51.3,33.4 52.8,33.2 C52.7,33.3 54.3,32 54.2,32.2 C54.1,31.7 53.8,33 53.5,31.6 C53.6,31.5 53.5,31.8 53.5,31.8 C53.5,31.8 54.5,31.5 53.5,31.9 C54.1,31.3 55.1,29.9 55.1,29.9 C55.4,29.8 55.4,29.1 55.5,29 C55.8,29.1 56.2,29.3 56.8,29.2 C56.3,28.7 57.5,27.3 57.5,26.6 L57.5,26.6 L57.5,26.6 L57.5,26.6 C57.9,26.3 58.2,25.3 58.2,25.3 C58.4,25.3 58.7,25 58.7,24.7 L58.7,24.7 Z M23.1,29.9 C24.9,28.7 23.1,28.2 23.2,26.7 C23.2,27.2 22.6,23.5 22.7,24 L22.1,24.4 C22.6,23.8 23.2,23.9 23.9,23.5 C23.9,23.6 22.6,24.2 22.6,24.5 C23.2,24.1 24.5,23.5 25.3,23.2 C25.3,23.7 25.5,24.9 25.9,25.3 C25.9,25.1 25.5,24 25.3,24.1 C25.6,24.6 27,28.5 26.4,26.7 C26.8,27.8 27.1,28.2 27.5,29.1 C27.2,28.9 26.7,28.7 26.6,28.7 C26.5,29.4 26.6,29.6 26.6,30.7 C26.6,30.4 25.9,31.1 25.9,31 C25.8,31.2 26.3,31.1 25.9,31.2 C25.9,31.1 25.7,30.5 25.7,30.5 C25.5,30.7 26.1,30.3 25.7,30.2 C25.8,30.3 26.5,30.6 26.6,30.6 C26.6,29.8 26,28.4 26,28 C26,28.1 26.9,28.8 26.5,29.1 C26.5,29 25.5,27.9 25.7,28 L25.5,28 C24.6,28.3 25.7,30.7 25.8,31.3 L25.7,31.4 C24.6,29.2 24,30.3 23.6,30 C23.3,29.8 23.3,30 23.1,29.9 L23.1,29.9 Z M46,20 C46,20.3 46,20.3 46,20 C46,20.1 46,20 46,20 L46,20 Z M54.6,27.5 C54.8,28.1 54.6,27.7 54.6,27.5 C54.6,27.6 54.6,27.5 54.6,27.5 L54.6,27.5 Z M52,31 C51.8,31.9 51.8,31.9 52,31 L52,31 L52,31 Z M25.8,33.1 C25,31.6 25.6,32.9 25.8,33.1 L25.8,33.1 L25.8,33.1 Z M26.7,28.7 C26.7,28.7 26.7,28.8 26.7,28.7 L26.7,28.7 L26.7,28.7 Z M23.4,27.5 C23.4,27.6 23.4,28.3 23.4,27.5 L23.4,27.5 L23.4,27.5 Z M45.9,20.3 L45.9,20.3 L45.9,20.3 L45.9,20.3 Z M49.4,29.8 C49.5,30.6 49.7,30.6 49.4,31.3 C49.4,31.2 50.2,31.3 50.2,31.3 C50,31.4 49.9,31.8 50,32 C50,32 49.1,32.4 49.1,32.5 C49.1,31.9 49.1,29.9 49.4,29.8 L49.4,29.8 Z M52.3,32.6 C52.3,32.6 52.7,32 52.3,32.6 L52.3,32.6 L52.3,32.6 Z M52.7,32 C52.7,31.9 52.8,31.7 52.7,32 L52.7,32 L52.7,32 Z M52.1,32 C52.5,31.9 51.2,32.9 51.1,32.1 C51.1,31.6 51.4,32.1 52.1,32 L52.1,32 Z M25.5,32.5 C25.6,32.2 25.5,32.6 25.5,32.5 L25.5,32.5 L25.5,32.5 Z M26,32.5 C25.7,31.4 26,32.4 26,32.5 L26,32.5 L26,32.5 Z M41.6,26.2 C41.1,26.5 41.4,25.7 41.4,25.3 C41,24.1 40.2,21.6 41.6,26.2 C41.5,26.3 41.3,25.5 41.6,26.2 L41.6,26.2 Z M39.5,29.2 C39.3,29.3 39.4,29.3 39.5,29.2 L39.5,29.2 L39.5,29.2 Z M44.5,30.2 C44.2,30.6 44.3,30.4 44.5,30.2 L44.5,30.2 L44.5,30.2 Z M44.1,30.6 C45.1,31.5 45.2,32.7 46.6,31.2 C45,33.6 45.3,32.1 44.1,31.3 C44.1,31.3 44.1,31.3 44,31.3 C44,31.3 44.1,31.4 44,31.3 L44,31.3 C44.1,31.5 45,32.6 45.2,32.5 C44.5,32.3 43,30.9 44.1,30.6 L44.1,30.6 Z M45.3,28.8 C45.4,27.2 45.3,29.2 45.3,28.8 L45.3,28.8 L45.3,28.8 Z M48.5,22.1 C48.5,22 49,22.2 48.5,22.1 L48.5,22.1 L48.5,22.1 Z M48.7,31.5 C48.1,34 48.8,30.6 48.7,31.5 L48.7,31.5 L48.7,31.5 Z M50,31.3 C49.9,31.2 49.8,31.1 50,31.3 C50,31.3 50,31.2 50,31.3 L50,31.3 Z M26.9,33 C26.9,33 27,32 26.9,33 L26.9,33 L26.9,33 Z M28.7,29.8 C28.6,30.8 29.8,30.9 29,32.5 C28.9,32.4 28,31.4 27.8,31.3 C27.8,31.3 28.5,31.3 28.6,31.2 C28.6,31 28.6,29.8 28.7,29.8 L28.7,29.8 Z M36.2,20.7 C36.4,20.5 36.2,20.5 36.2,20.7 L36.2,20.7 L36.2,20.7 Z M41.1,23.3 C40.6,23.5 41.2,23.2 41.1,23.3 C41.1,23.3 41.2,23.2 41.1,23.3 L41.1,23.3 Z M39.5,28.7 C38.9,28.8 39.5,28.8 39.5,28.7 L39.5,28.7 L39.5,28.7 Z M42.5,31.3 C41.8,31.2 41.2,32.5 40.2,30.6 C40.7,30.4 41.5,31.2 42.2,31.4 C42.3,31.3 42.4,31.3 42.5,31.3 L42.5,31.3 Z M43.2,30.3 C43.3,30.3 43.1,30.4 43.2,30.3 L43.2,30.3 L43.2,30.3 Z M51.1,30.3 C50.5,30.9 50.4,31.2 51.1,30.3 C51.1,30.3 51,30.4 51.1,30.3 L51.1,30.3 Z M50.9,30.9 C50.8,31 50.8,31 50.9,30.9 L50.9,30.9 L50.9,30.9 Z M50.9,31.3 C51.1,31.1 50.9,31.3 50.9,31.3 L50.9,31.3 L50.9,31.3 Z M50.3,31.4 C50.3,31.3 50.4,31.5 50.3,31.4 L50.3,31.4 L50.3,31.4 Z M49.6,33.2 C51.6,31.8 50.2,33.2 49.6,33.2 C49.9,33 49.9,33.2 49.6,33.2 L49.6,33.2 Z M29.2,30.8 C29,30.6 29.2,30.6 29.3,30.7 C30,30.6 30.2,30.6 29.2,30.8 L29.2,30.8 Z M47,32.3 C47.1,32 46.2,33.6 47,32.3 C47,32.3 46.9,32.5 47,32.3 L47,32.3 Z M34.9,29.5 C34.7,29.7 34.8,29.6 34.9,29.5 L34.9,29.5 L34.9,29.5 Z M34.7,30.5 C36,31.2 36.2,32.8 37.9,31 C37.9,31 37.9,30.9 37.9,31 C37.5,34 35.7,31.6 34.8,31.3 L34.8,31.3 C34.8,31.3 34.8,31.3 34.8,31.4 C35,31.6 36.5,32.3 36.6,32.5 C35.8,32.6 33.6,31.2 34.7,30.5 L34.7,30.5 Z M30.2,32.1 C30.2,32.2 30.2,32.3 30.2,32.1 C30.2,32.2 30.2,32.2 30.2,32.1 L30.2,32.1 Z M38.7,31.6 C38.7,31.8 38.6,32.5 38.7,31.6 C38.7,31.7 38.7,31.8 38.7,31.6 L38.7,31.6 Z M37.9,30.3 C37.9,31.1 37.4,30.5 37.9,30.3 C37.9,30.3 37.8,30.3 37.9,30.3 L37.9,30.3 Z M34.1,31.9 C34.2,32.1 34.1,33.1 34.1,31.9 C34.2,32 34.1,32.1 34.1,31.9 L34.1,31.9 Z M30.2,32.4 C30.5,32.2 30.1,32.6 30.2,32.4 L30.2,32.4 L30.2,32.4 Z M35.5,28.9 L35.5,28.9 L35.5,28.9 L35.5,28.9 Z M36,30.6 C36.1,29.9 35.9,31.9 36,30.6 L36,30.6 L36,30.6 Z M35.7,31.2 C35.7,31.2 35.7,31.1 35.7,31.2 L35.7,31.2 L35.7,31.2 Z M35.4,31.3 C35.5,31.2 35.6,31.3 35.8,31.3 L35.8,31.3 C36.9,31.2 37.1,30.2 37.7,30.9 C36.7,32.5 36.3,31.2 35.4,31.3 L35.4,31.3 Z M34.8,31.4 C34.7,31.4 34.8,31.4 34.8,31.4 L34.8,31.4 L34.8,31.4 Z M32.8,32.5 C31.8,31.4 33.6,35.8 30.7,31.2 C30.8,31.2 31.1,30.9 31.1,30.9 C32.9,31.6 33.8,31.8 32.8,32.5 L32.8,32.5 Z M30.7,30 L30.7,30 L30.7,30 L30.7,30 Z M32.7,28.4 C31.9,28.7 32.9,28.3 32.7,28.4 L32.7,28.4 L32.7,28.4 Z M30.7,29.2 C30.7,29.3 30.8,29.9 30.8,30 L30.8,30 C30.8,30.1 31,31.5 30.4,30.6 C31.4,30 30.3,29.3 30.7,29.2 C30.7,29.3 30.7,29.2 30.7,29.2 L30.7,29.2 Z M30.5,26 C30,25.3 29,24.3 28.8,23.2 C30.6,24.3 31.2,25.2 30.5,26 L30.5,26 Z M43.2,32.2 C42.8,32.5 43.1,31.8 43.2,32.2 C43.1,32.3 43.2,32.2 43.2,32.2 L43.2,32.2 Z M40.5,32.5 C40,32.1 41.1,32.7 40.5,32.5 C40.4,32.4 40.6,32.5 40.5,32.5 L40.5,32.5 Z M39.6,31.4 C39.5,31.4 39.7,31.3 39.6,31.4 L39.6,31.4 L39.6,31.4 Z M39.5,30.6 C39.7,30.7 39.5,31 39.5,30.6 C39.5,30.6 39.5,30.7 39.5,30.6 L39.5,30.6 Z M39.1,28.9 C39.1,28.9 39.2,29 39.1,28.9 L39.1,28.9 L39.1,28.9 Z M36.4,24 C36.3,25.8 36.4,28.7 39,28.7 C39,28.8 35.3,28 35.4,28 L35.3,28 L35.3,28.7 L35.3,28.7 C35.7,28.2 35.4,28.6 35.8,28.7 C35.8,28.7 36,28.5 35.8,28.4 L35.8,28.4 L35.8,28.4 L35.7,28.3 L35.8,28.3 C35.8,28.3 35.2,29.4 35.4,30.2 C35.6,31.2 35.4,30.9 35.4,30.9 L35.4,31.5 C35.3,30.4 35.1,30.5 34.9,30.2 C35.2,30 35.3,29.8 35.3,29.5 C34.5,29.2 33.9,28.8 33.7,27.5 C33.7,27.5 33.4,27.6 33.4,27.5 C33.7,28.4 33.3,29.3 33.5,30.2 C33.7,30.1 34.4,29.8 34.8,30.1 C34.7,30.1 34.5,29.6 34.8,29.7 C34.7,29.7 34.8,30.3 34.8,30.3 L34.8,30.3 L34.8,30.3 C34,30 33.9,30.5 33.3,30 L33.3,30 C31.5,31.8 34,30.4 31.2,30.7 L31.2,30.7 C32.4,31.3 32.1,31.5 33.3,30.9 C33.4,30.3 33,31.2 33.1,31.1 C33.1,31.2 32.9,31.2 32.9,31.2 C32.9,31 32.8,30.8 32.8,30.7 C33,30.1 33.3,27.8 33.4,28.7 C33.2,28.7 33.4,27.9 33.4,28 C32.2,28.5 32.3,27.7 31,29.1 C31.1,28.9 30.3,28.6 30.2,28.7 L30.3,28.6 C30.5,28.5 30.8,28.5 30.5,28.7 C31.2,27.8 30.6,27.7 31.4,26.8 C31.1,26.3 28.4,26.9 29.2,22.4 L29.4,22.3 C29.9,23.8 30.5,24.8 31.3,26 C27.7,21.8 31.5,20.6 36,21.4 C33.8,21.6 31.7,21.7 29.5,22.1 C30.7,21.4 36.2,21.2 36.2,20.9 L36.3,20.9 C36.4,21.8 36.4,22.9 36.4,24 C36.4,24.4 36.5,23 36.4,24 L36.4,24 Z M35.4,28.1 C35.4,27.9 35.4,28.1 35.4,28.1 L35.4,28.1 L35.4,28.1 Z M29.5,22 C29.4,22.1 29,22.3 29.5,22 C29.5,22 29.4,22.1 29.5,22 L29.5,22 Z M26.9,30.5 C27.3,30.7 27.5,30.8 26.9,30.5 L26.9,30.5 L26.9,30.5 Z M27.3,32 C27.6,30 27.7,31.8 27.7,32 L27.3,32 L27.3,32 Z M27.4,32.1 C28,32.2 30.5,32.9 27.4,32.1 L27.4,32.1 L27.4,32.1 Z M47,30.6 C47.3,30.2 47,30.6 47,30.6 L47,30.6 L47,30.6 Z M47.3,30 C47.2,30 47.3,30 47.3,30 L47.3,30 L47.3,30 Z M47.2,30 L47.2,30 L47.2,30 L47.2,30 Z M42.3,31.2 C42.3,31.1 42.3,31.2 42.3,31.2 L42.3,31.2 L42.3,31.2 Z M42.1,30.6 C41.4,31.8 42.5,29.8 42.1,30.6 L42.1,30.6 L42.1,30.6 Z M40,30.6 C40.8,31.6 40.9,32.5 42.4,31.6 C40.1,32.3 41.5,32.4 39.5,31.4 C40.1,31.9 39.1,30.9 40,30.6 L40,30.6 Z M41,26.7 C39.7,26.9 41.2,26.4 41,26.7 L41,26.7 L41,26.7 Z M41.1,22.7 C41.1,22.8 40.8,22.7 41.1,22.7 C41.1,22.8 41.1,22.7 41.1,22.7 L41.1,22.7 Z M49.4,32.6 C49.4,32.6 50,32.1 49.4,32.6 C49.4,32.6 49.5,32.5 49.4,32.6 L49.4,32.6 Z M49.1,32.6 C49.2,32.6 48.2,32.9 49.1,32.6 L49.1,32.6 L49.1,32.6 Z M49.2,23.2 C48.3,24.8 51.5,21.5 47.6,26.1 C46.8,25.2 48.5,25.6 49.2,23.2 L49.2,23.2 Z M48.8,31 C48.8,31 48.9,31.1 48.8,31 L48.8,31 L48.8,31 Z M47.4,29 C47.7,29.9 47.3,30.6 48.9,30.7 L48.7,30.7 C47.1,30.9 47.6,30.5 47.3,29.5 C47.2,29.2 47.5,29.1 47.4,29 L47.4,29 Z M43.2,29.5 C43.1,29.7 43.2,29.6 43.2,29.5 L43.2,29.5 L43.2,29.5 Z M42.9,30.9 C42.8,31.4 41.7,30.3 42.9,30.9 C42.9,31 42.7,30.8 42.9,30.9 L42.9,30.9 Z M42.5,28.9 C42.4,28.9 42.5,28.9 42.5,28.9 L42.5,28.9 L42.5,28.9 Z M41.2,23 C41.1,23 41.2,23 41.2,23 L41.2,23 L41.2,23 Z M41.2,22.3 C41,22.2 41.2,20.6 41.2,22.3 C41.1,22.3 41.2,22.1 41.2,22.3 L41.2,22.3 Z M41,20.4 C41.3,21.1 41,20.5 41,20.4 L41,20.4 L41,20.4 Z M37.3,20.2 C37.6,20.3 37.3,20.2 37.3,20.2 L37.3,20.2 L37.3,20.2 Z M27.5,28.4 C28,28.8 28.3,29.4 28.6,29.1 C28.6,29.1 28.5,29.1 28.5,29 L28.4,28.9 C28.6,29 28.6,29.3 28.7,29.3 L28.7,29.3 C28.7,29.3 28.7,29.3 28.7,29.4 C28.7,29.4 28.7,29.4 28.7,29.5 C27.8,29.6 28.2,29 27.5,28.4 L27.5,28.4 Z M51.6,31.2 C51.7,31.1 51.7,31.2 51.6,31.2 L51.6,31.2 L51.6,31.2 Z M51.3,31 C51.2,31.4 51.4,30.9 51.3,31 L51.3,31 L51.3,31 Z M49.2,30.7 L49.2,30.7 L49.2,30.7 L49.2,30.7 Z M41.7,20.5 C41.8,20.7 41.7,20.7 41.7,20.5 L41.7,20.5 L41.7,20.5 Z M41.8,20.8 C43.1,21.1 46.9,21.1 48.5,22 C46.3,21.7 44.2,21.5 42,21.3 C46.4,20.5 50.3,21.7 46.7,25.9 C47.5,24.6 48.1,23.6 48.6,22.2 L48.8,22.3 C49.6,26.7 46.9,26.2 46.6,26.7 C47.4,27.6 46.8,27.7 47.5,28.6 C47.2,28.4 47.6,28.4 47.8,28.7 C47.7,28.6 46.9,28.9 47,29.1 C45.7,27.7 45.9,28.5 44.6,28 C44.6,27.9 44.8,28.7 44.6,28.7 C44.7,27.9 45.1,30.6 45.1,30.7 L45.2,30.7 C45.2,30.9 45.1,31 45.1,31.2 C45,31.2 44.9,31.2 44.9,31.1 C44.8,31 45,30.7 45,30.7 C45.5,31.2 45.4,31.4 46.8,30.6 L46.8,30.6 C43.9,30.7 45.3,30.6 43.3,30.2 C43.8,29.8 43.4,29 44.6,29.9 C44.5,29 44.7,28.3 44.7,27.2 C44.6,27.3 44.4,27.2 44.4,27.2 C43.6,28.7 42.9,29.9 42.9,29.9 C42.9,30 42.6,30.1 42.8,29.9 C43,29.2 42.4,28.1 42.4,28 L42.5,28 L42.4,28.1 L42.4,28.1 L42.4,28.1 C42.1,28.2 42.4,28.4 42.4,28.4 C42.7,28.1 42.7,28.2 42.9,28.4 L42.9,28.4 C42.9,28.4 43,28 42.9,28 L42.9,27.8 C41.7,27.7 41.1,28.5 40.2,29.1 L40.2,29.1 C39.8,28.3 40.5,27.7 41.5,27.2 C41.3,27.2 41,27.1 40.8,27.1 C41.3,27.2 42.3,25 41.8,20.8 L41.8,20.8 Z M42.6,28.1 C42.6,28.1 42.6,28 42.6,28.1 L42.6,28.1 L42.6,28.1 Z M40.9,20.3 C41,20.4 40.9,20.2 40.9,20.3 L40.9,20.3 L40.9,20.3 Z M25.1,23 C24.1,23.4 21.2,24.2 25.1,23 C25.1,23 24.4,23.2 25.1,23 L25.1,23 Z M26.7,31 C26.9,31.2 26.7,31 26.7,31 L26.7,31 L26.7,31 Z M26.5,31 C26.4,31 26.5,31 26.5,31 L26.5,31 L26.5,31 Z M26.3,31.7 C25.7,31.7 26,31.5 26.3,31.7 C26.3,31.7 26.2,31.6 26.3,31.7 L26.3,31.7 Z M25.4,31.3 C25.4,31.4 25.1,30.9 25.4,31.3 L25.4,31.3 L25.4,31.3 Z M51.6,32.5 C52.8,33.1 51.6,32.7 51.6,32.5 C51.6,32.5 51.6,32.7 51.6,32.5 L51.6,32.5 Z M52.8,31.1 C52.6,31.5 52.6,31.5 52.8,31.1 L52.8,31.1 L52.8,31.1 Z M52.3,31 C52.1,31.1 52.2,31.1 52.3,31 L52.3,31 L52.3,31 Z M51.5,31 C51.5,30.9 51.5,31 51.5,31 L51.5,31 L51.5,31 Z M51.1,29.2 C51.1,29.2 51.1,29.3 51.1,29.2 L51.1,29.2 L51.1,29.2 Z M50.4,28.3 C49.9,29 50.1,29.5 49.3,29.7 L49.3,29.6 C49.3,29.6 49.5,29.6 49.3,29.5 L49.3,29.4 C49.2,29.4 49.4,29.1 49.5,29 C49.1,29.3 50,28.9 50.4,28.3 L50.4,28.3 Z M53.9,23.4 C51.8,21.9 55.8,24.8 53.9,23.4 L53.9,23.4 L53.9,23.4 Z M51.2,21.5 C51.1,21.5 51.2,21.6 51.2,21.5 L51.2,21.5 L51.2,21.5 Z M26.8,21.5 C26.8,21.6 26.9,21.5 26.8,21.5 L26.8,21.5 L26.8,21.5 Z M21.8,28 C21.6,27.7 21,26.8 21.8,28 C21.8,28 21.7,27.8 21.8,28 L21.8,28 Z M24.7,32 L24.7,32 L24.7,32 L24.7,32 Z M54.7,30 C54.4,30.1 53.9,29.7 53.5,29.7 C53,29.7 52.8,30.8 52.7,31 C52.7,30.9 52.7,30.5 52.5,30.8 L52.4,30.7 C52.4,30.5 53.4,28.3 52.6,28 L52.4,28 C52.5,27.9 51.6,29.1 51.6,29.1 C51.3,28.6 52,28.3 52,28 C51.9,28.6 51.4,29.6 51.3,30.6 C51.4,30.1 51.9,30.6 52.2,30.2 C51.7,30.2 52.4,30.7 52.2,30.5 C52.2,30.5 51.3,30.9 51.3,30.6 C51.1,29.5 51.3,29.4 51.3,28.7 C51.3,28.6 51,28.6 50.6,28.8 C50.6,28.8 50.6,28.8 50.6,28.7 C50.9,27.6 51.6,27.1 51.4,27.2 C51.6,26.1 52.2,24.9 52.6,23.9 C52.4,23.9 52.1,24.9 52,25.1 C52.4,24.7 52.6,23.5 52.6,23 C53.4,23.3 54.6,24 55.3,24.3 C55.3,24.1 54.1,23.5 54,23.3 C54.6,23.7 55.3,23.6 55.8,24.2 L55.2,23.8 C54.5,25.8 53.9,27.3 54.1,29 C54.3,29.8 54.8,29.9 54.7,30 L54.7,30 Z M56.4,28 C56.2,28.4 56.9,26.6 56.4,28 L56.4,28 L56.4,28 Z M51.4,21.1 C52.6,22.4 50.8,21.3 50.7,21.3 C50.9,21.2 51.2,21.1 51.4,21.1 L51.4,21.1 Z M45.4,19.3 C45.4,17.4 45.4,21.2 45.4,19.3 C45.4,19.1 45.4,19.3 45.4,19.3 L45.4,19.3 Z M41.1,20 C40.5,20 41.2,19.9 41.1,20 C41.1,20 41.2,19.9 41.1,20 L41.1,20 Z M39.7,14.3 C39.6,15.4 39.3,14.9 39.7,14.3 L39.7,14.3 L39.7,14.3 Z M38.3,15 C38.3,14.7 38.3,15.2 38.3,15 L38.3,15 L38.3,15 Z M38.6,16.2 C38.6,16.1 38.6,16.1 38.6,16.2 L38.6,16.2 L38.6,16.2 Z M32.1,20.3 C33.2,20.2 31.5,20.3 32.1,20.3 L32.1,20.3 L32.1,20.3 Z M31.4,19.3 C31.4,17.4 31.4,21.2 31.4,19.3 C31.4,19.2 31.4,19.3 31.4,19.3 L31.4,19.3 Z M30.4,20.5 C29.1,19.8 31.2,21 30.4,20.5 C30.2,20.4 30.4,20.5 30.4,20.5 L30.4,20.5 Z M26,21.6 C26.4,21.1 26.8,21 27.3,21.3 L27.3,21.3 C27.8,21.3 25.3,21.7 26,21.6 L26,21.6 Z M21.2,27.3 L21.2,27.3 L21.2,27.3 L21.2,27.3 Z M21.1,28.5 C19.6,27.8 22,29 21.1,28.5 C20.9,28.4 21.2,28.5 21.1,28.5 L21.1,28.5 Z M24.4,31.6 C24.2,31.1 24.3,31.4 24.4,31.6 L24.4,31.6 L24.4,31.6 Z M25.7,34 C25.7,33.8 25.6,34 25.7,34 L25.7,34 L25.7,34 Z M25.8,37.1 C25.8,36.8 25.9,37.3 25.8,37.1 L25.8,37.1 L25.8,37.1 Z M26.5,37.1 C26.6,37.5 26.8,38 26.5,37.1 L26.5,37.1 L26.5,37.1 Z M52.2,37.1 C52,37.3 52.3,36.8 52.2,37.1 L52.2,37.1 L52.2,37.1 Z M54,32.7 C54,32.8 54,32.7 54,32.7 L54,32.7 L54,32.7 Z M53.4,32 C53.2,32 53.4,32 53.4,32 L53.4,32 L53.4,32 Z M53.7,31.3 C53.4,31.8 53.6,31.5 53.7,31.3 L53.7,31.3 L53.7,31.3 Z M57.2,27.7 C58,29.3 56.7,26.7 57.2,27.7 C57.2,27.8 57.1,27.6 57.2,27.7 L57.2,27.7 Z M56.7,27.4 C56.5,27.3 56.7,27.3 56.7,27.4 L56.7,27.4 L56.7,27.4 Z" id="Shape" fill="#EDB92E"></path>
        <path d="M29.7,87.8 C29.5,88.3 29.4,88.8 29.3,89.3 L29.3,89.3 C29.3,88.9 29.4,88.6 29.4,88.5 C29.5,88 29.7,87.4 30.2,86.9 C30.7,86.4 30.8,85.5 30.2,84.8 C29.8,84.4 29.2,83.9 29.1,83.4 L29.1,83.4 C29.1,83.3 29,83.3 29,83.3 C29,83.3 28.9,83.3 28.9,83.4 L28.9,83.4 L28.9,83.4 C28.8,83.8 28.2,84.4 27.8,84.8 C27.2,85.3 27.3,86.1 27.6,86.7 C26.5,86.5 25.3,87.4 26.6,89 C26.7,89.1 26.8,89.1 26.8,88.9 C26.7,88.4 27,88.1 27.6,88.2 C28.2,88.3 28.5,88.7 28.7,89.2 L28.7,89.3 L28.7,89.3 L28.7,89.3 L28.5,89.3 C28.3,89.3 28.1,89.5 28,89.8 L28,89.8 L28,89.8 L28,89.8 L28,89.8 L28,89.8 L28,89.8 L28,89.8 L28,89.8 L28,89.8 L28,89.8 L28,89.8 L28,89.8 L28,89.8 L28,89.8 L28,89.8 L28,89.8 L28,89.8 L28,89.8 L28,89.8 C28,89.9 28.1,90 28.1,90.1 C27.9,90.1 27.7,90.1 27.4,90 C27.1,90 27.4,90.5 27.7,90.7 L27.7,90.7 L27.7,90.7 C27.8,90.8 28,90.9 28.1,90.9 C28,91 28,91 27.9,91.1 C27.7,91.2 28,91.5 28.5,91.8 C28.6,91.8 28.7,91.9 28.8,92.2 C28.8,92.3 29.1,92.3 29.1,92.2 C29.2,92 29.3,91.9 29.4,91.8 C29.6,91.6 29.8,91.5 29.9,91.4 C30.2,91.6 30.5,91.6 30.9,91.3 L30.9,91.3 L30.9,91.3 C31.2,91.1 31.5,90.5 31.2,90.5 C30.7,90.7 30.3,90.5 30.1,90.2 L30.2,90.2 C30.4,90.2 30.6,90 30.7,89.7 L30.7,89.7 L30.7,89.7 L30.7,89.7 L30.7,89.7 L30.7,89.7 L30.7,89.7 L30.7,89.7 L30.7,89.7 L30.7,89.7 L30.8,89.7 L30.8,89.7 L30.7,89.7 L30.7,89.7 L30.7,89.7 L30.7,89.7 L30.7,89.7 L30.7,89.7 L30.7,89.7 L30.7,89.7 L30.7,89.7 L30.7,89.7 C30.6,89.4 30.4,89.2 30.2,89.2 L30.1,89.2 C30.3,88.8 30.6,88.4 31.1,88.3 C31.6,88.2 32,88.5 31.9,89.1 C31.9,89.2 32,89.3 32.1,89.2 C34.1,86.6 30.5,85.8 29.7,87.8 L29.7,87.8 Z" id="Shape" fill="#EDB92E"></path>
        <path d="M60.7,58.5 L60.7,58.2 L60.7,57.9 L60.7,57.6 L60.7,57.3 L60.7,57.2 C60.7,56.2 60.6,55.2 60.6,54.1 C60.7,54.1 60.7,54.1 60.8,54.2 C60.6,53 60.4,51.6 60.2,49.9 C59.4,45.3 57.1,41.5 54.3,41.2 C51.3,41 53.4,43 54,44.8 C54.4,46.4 53.2,48.5 50.8,51.1 C50,52 49,53.7 48,54.3 C47.8,54.4 46.6,54 46.4,53.8 C46.4,53.8 46.6,54 46.4,53.8 L46.4,53.8 C46.6,53.8 46.8,53.7 47,53.6 C46,53 45.2,52.2 44.2,50.8 C43.7,50 43.8,49 44.1,47.9 L44.1,47.9 L44.2,47.9 L44.4,47.9 L44.4,47.8 L44.3,47.8 L44.2,47.8 L44.2,47.8 C44.3,47.5 44.4,47.3 44.5,47.1 C45.2,47 46,47.3 46.7,47.3 L46.7,47.3 L46.7,47.3 L46.9,47.3 L47,47.3 L47.1,47.3 L47.2,47.3 L47.3,47.3 L47.4,47.3 L47.4,47.3 L47.4,47.3 L47.4,47.3 L47.4,47.2 L47.4,47.2 L47.4,47.2 L47.4,47.1 L47.4,47.1 L47.3,47.1 C47.4,47 47.4,46.9 47.5,46.7 L47.3,46.7 L47.3,46.7 L47.3,46.7 L47.3,46.7 L47.2,46.7 L47.2,46.7 L47.2,46.7 L47.2,46.7 L47.2,46.7 C47,46.7 46.8,46.7 46.6,46.6 L47.2,46.6 L48,46.6 L48,46.6 L48,46.6 L48.2,46.6 L48.3,46.6 L48.4,46.6 L48.5,46.6 L48.6,46.6 L48.7,46.6 L48.8,46.6 L48.9,46.6 L49,46.6 L49.1,46.6 L49.2,46.6 L49.3,46.6 L49.4,46.6 L49.5,46.6 L49.6,46.6 L49.7,46.6 L49.8,46.6 L49.9,46.6 L50,46.5 L50,46.5 C50.3,46.4 50.5,46.2 50.6,46 L50.6,46 L50.6,46.1 L50.6,46.2 L50.5,46.3 L50.4,46.4 L50.3,46.5 L50.2,46.6 L50,46.4 L49.9,46.5 L49.8,46.6 L49.7,46.7 L49.6,46.8 L49.5,46.9 L49.4,47 L49.3,47.1 L49.2,47.1 L49.1,47.1 L49,47 L48.9,47 L48.8,47 L48.7,47 L48.6,47 L48.5,47 L48.3,47 L48.1,47 L47.9,47 L47.7,47 L47.5,47 L47.3,47 L47.3,47.1 L47.5,47.1 L47.7,47.1 L47.9,47.1 L48.1,47.1 L48.3,47.1 L48.5,47.1 L48.7,47.1 L48.8,47.1 L48.9,47.1 L49,47.1 L49.1,47.1 L49.2,47.1 L49.3,47.1 L49.4,47.1 L49.5,47 L49.6,46.9 L49.7,46.8 L49.8,46.7 L49.9,46.6 L50,46.5 L50.1,46.4 L50.2,46.3 L50.3,46.2 L50.4,46.1 L50.5,46 L50.6,45.9 L50.7,45.8 L50.7,45.7 L50.7,45.6 L50.7,45.5 L50.7,45.4 L50.7,45.3 L50.7,45.3 L50.7,45.3 L50.7,45.3 L50.7,45.3 L50.7,45.3 L50.7,45.3 L50.7,45.3 L50.7,45.3 L50.7,45.3 L50.7,45.3 L50.7,45.3 L50.7,45.3 L50.7,45.3 L50.7,45.3 L50.7,45.4 L50.6,45.5 C49.9,46 49,46.3 48.1,46.1 C46.8,45.9 46.1,45.7 45.7,45.7 L45.7,45.7 L45.8,45.6 L45.9,45.5 L46,45.4 L46.1,45.3 L46.2,45.2 L46.1,45.1 L46,45.2 L45.9,45.3 L45.8,45.4 L45.7,45.5 L45.6,45.6 L45.5,45.7 L45.4,45.8 C45.3,45.9 45.2,46 45,46.1 L45,46.1 L45,46.1 L45,46.1 L45.2,45.9 L45.4,45.7 L45.5,45.6 C45.7,45.4 45.9,45.3 46.2,45.1 C47.1,45.2 47.1,45 47.3,44.7 C47.7,44.2 48.5,44.6 48.6,45.2 C48.7,45.6 48.8,45.6 49.2,45.2 C49.9,44.5 50.4,43.9 50.6,43.4 L50.6,43.5 L50.6,43.6 L50.6,43.7 L50.5,43.8 L50.4,43.9 L50.3,44 L50.2,44.1 L50.1,44.2 L50,44.5 L49.9,44.7 L49.8,44.9 L49.7,45.1 L49.6,45.3 L49.5,45.5 L49.5,45.5 L49.6,45.6 L49.7,45.4 L49.8,45.2 L49.9,45 L50,44.8 L50.1,44.6 L50.2,44.5 L50.3,44.4 L50.4,44.3 L50.5,44.2 L50.6,44.1 L50.7,44 L50.7,43.9 L50.7,43.8 L50.7,43.7 L50.7,43.6 L50.7,43.5 L50.7,43.4 L50.7,43.3 L50.7,43.3 C50.8,42.7 50.3,42.3 49.3,42.2 L49.3,42.1 L49.3,42 L49.3,41.9 L49.2,41.8 L49.1,41.8 L49,41.8 L48.9,41.8 L48.8,41.8 L48.8,41.8 L48.8,41.8 L48.7,41.8 L48.6,41.8 L48.6,41.8 C48.4,41.7 48.2,41.8 48,41.9 C48,41.8 48,41.8 48.1,41.7 C48.2,40.8 45.6,41.1 43.8,41.9 C41.6,42.9 41.3,42.6 40.5,42.8 C40.2,44.1 40.8,44.2 41.4,44.2 C40.2,46.1 39.7,48 39.4,50.8 C39.2,48 38.6,46.1 37.4,44.2 C38,44.3 38.6,44.2 38.3,42.8 C37.5,42.6 37.2,42.9 35,41.9 C33.2,41.1 30.5,40.7 30.7,41.7 C30.7,41.8 30.7,41.8 30.8,41.9 C30.6,41.8 30.4,41.8 30.2,41.8 L30.2,41.8 L30.1,41.8 L30,41.8 L30,41.8 L30,41.8 L30,41.8 L29.9,41.8 L29.8,41.8 L29.7,41.8 L29.6,41.8 L29.5,41.9 L29.5,42 L29.5,42.1 L29.5,42.2 C28.5,42.3 28.1,42.7 28.1,43.3 L28.1,43.3 L28.1,43.4 L28.1,43.5 L28.1,43.6 L28.1,43.7 L28.1,43.8 L28.1,43.9 L28.1,44 L28.2,44.1 L28.3,44.2 L28.4,44.3 L28.5,44.4 L28.6,44.5 L28.7,44.6 L28.8,44.8 L28.9,45 L29,45 L29.1,45.2 L29.2,45.4 L29.3,45.3 L29.2,45.1 L29,44.9 L28.9,44.7 L28.8,44.5 L28.7,44.3 L28.6,44.2 L28.5,44.1 L28.4,44 L28.3,43.9 L28.2,43.8 L28.1,43.7 L28.1,43.6 L28.1,43.5 L28.1,43.4 C28.3,43.9 28.8,44.5 29.5,45.2 C29.9,45.6 30,45.5 30.1,45.2 C30.2,44.6 31,44.2 31.4,44.7 C31.7,45 31.6,45.2 32.5,45.1 C32.7,45.3 33,45.5 33.2,45.6 L33.3,45.7 L33.5,45.9 L33.7,46.1 L33.7,46.1 L33.7,46.1 L33.7,46.1 C33.6,46 33.4,45.9 33.3,45.8 L33.2,45.7 L33.1,45.6 L33,45.5 L33,45.5 L32.9,45.4 L32.8,45.3 L32.7,45.2 L32.6,45.3 L32.7,45.4 L32.8,45.5 L32.9,45.6 L33,45.7 L33.1,45.8 L33.1,45.8 C32.7,45.8 32,46 30.7,46.2 C29.8,46.4 28.9,46.1 28.2,45.6 L28.1,45.5 L28.1,45.4 L28.1,45.4 L28.1,45.4 L28.1,45.4 L28.1,45.4 L28.1,45.4 L28.1,45.4 L28.1,45.4 L28.1,45.4 L28.1,45.4 L28.1,45.4 L28.1,45.4 L28.1,45.4 L28.1,45.4 L28.1,45.4 L28.1,45.4 L28.1,45.5 L28.1,45.6 L28.1,45.7 L28.1,45.8 L28.1,45.9 L28.2,46 L28.3,46.1 L28.4,46.2 L28.5,46.3 L28.6,46.4 L28.7,46.5 L28.8,46.6 L28.9,46.7 L29,46.8 L29.1,46.9 L29.2,47 L29.3,47.1 L29.4,47.2 L29.5,47.2 L29.6,47.2 L29.7,47.2 L29.8,47.2 L29.9,47.2 L30,47.2 L30.1,47.2 L30.3,47.2 L30.5,47.2 L30.7,47.2 L30.9,47.2 L31.1,47.2 L31.3,47.2 L31.5,47.2 L31.5,47.1 L31.3,47.1 L31.1,47.1 L30.9,47.1 L30.7,47.1 L30.5,47.1 L30.3,47.1 L30.2,47.1 L30.1,47.1 L30,47.1 L29.9,47.1 L29.8,47.1 L29.7,47.1 L29.6,47.1 L29.5,47.1 L29.4,47 L29.3,46.9 L29,46.7 L28.9,46.6 L28.8,46.5 L28.7,46.4 L28.6,46.3 L28.5,46.2 L28.4,46.1 L28.3,46 L28.2,45.9 L28.3,46 L28.3,45.9 L28.3,45.8 L28.3,45.8 C28.5,46 28.7,46.2 28.9,46.3 L28.9,46.3 L29,46.4 L29.1,46.4 L29.2,46.4 L29.3,46.4 L29.4,46.4 L29.5,46.4 L29.6,46.4 L29.7,46.4 L29.8,46.4 L29.9,46.4 L30,46.4 L30.1,46.4 L30.2,46.4 L30.3,46.4 L30.4,46.4 L30.5,46.4 L30.6,46.4 L30.7,46.4 L30.9,46.4 L30.9,46.4 L30.9,46.4 L31.7,46.4 L32.3,46.4 C32.1,46.4 31.9,46.5 31.7,46.5 L31.7,46.5 L31.7,46.5 L31.7,46.5 L31.7,46.5 L31.6,46.5 L31.6,46.5 L31.6,46.5 L31.6,46.5 L31.4,46.5 C31.5,46.7 31.6,46.8 31.6,46.9 L31.5,46.9 L31.5,46.9 L31.5,47 L31.5,47 L31.5,47 L31.5,47.1 L31.5,47.1 L31.5,47.1 L31.5,47.1 L31.6,47.1 L31.7,47.1 L31.8,47.1 L31.9,47.1 L32,47.1 L32.2,47.1 L32.2,47.1 L32.2,47.1 C32.9,47.1 33.7,46.8 34.4,46.9 C34.5,47.1 34.6,47.4 34.7,47.6 L34.7,47.6 L34.6,47.6 L34.5,47.6 L34.5,47.7 L34.7,47.7 L34.8,47.7 L34.8,47.7 C35.1,48.7 35.2,49.8 34.7,50.6 C33.7,52.1 32.9,52.8 31.9,53.4 C32.1,53.5 32.3,53.5 32.5,53.6 C32.3,53.8 31.1,54.2 30.9,54.1 C29.9,53.4 28.9,51.8 28.1,50.9 C25.7,48.3 24.5,46.2 24.9,44.6 C25.5,42.8 27.6,40.8 24.8,41.2 C22,41.5 19.6,45.3 18.9,49.9 C18.6,51.6 18.5,53 18.3,54.2 C18.6,54.1 18.9,54 19.2,53.9 C19.1,55.1 19,56.2 19,57.2 L19,57.3 L19,57.6 L19,57.9 L19,58.2 L19,58.5 L19,58.6 L19,60.1 L19,60.1 L19,60.4 L19,60.7 L19,61 L19,61.3 L19,61.6 L19,61.9 L19,62.2 L19,62.4 L19,62.4 L19,62.6 L19,62.6 L19,62.8 L19,63 L19,63 C19.1,63.4 19.2,63.8 19.4,64.1 L19.4,64.3 L19.4,64.6 L19.4,64.9 L19.4,65 L19.4,65.2 L19.4,65.5 L19.4,65.6 C19.5,67.7 19.9,70.1 20.4,73.1 C21,76.8 20.7,79.7 20.2,81.6 C20.4,81.6 20.6,81.5 20.7,81.5 L20.7,81.5 L20.7,81.5 L20.7,81.5 L20.7,81.6 L20.7,81.6 L20.7,81.6 L20.7,81.6 L20.9,81.6 L21.2,81.5 L21.4,81.4 L21.6,81.3 L21.8,81.2 L22,81.1 L22.2,80.9 L22.3,80.8 C22.4,81.3 22.6,81.8 22.8,82.3 C23.1,82.1 23.4,81.8 23.6,81.4 L23.8,81.3 L24,81.1 L24.2,80.9 L24.4,80.6 L24.5,80.3 L24.6,80 L24.7,79.7 L24.8,79.4 L24.9,79 L24.9,78.8 C25.3,78.3 25.6,77.5 25.7,76.5 C25.8,77 26,77.4 26.1,77.7 C26.2,77.7 26.3,77.6 26.3,77.5 L26.4,77.6 L26.5,77.6 L26.4,77.5 L26.4,77.5 L26.5,77.5 L26.4,77.4 L26.4,77.4 C27.1,76.7 27.5,75.2 27.6,73.3 L27.6,73.3 L27.6,73.4 L27.6,73.5 L27.6,73.6 L27.6,73.7 L27.6,73.8 L27.6,73.9 L27.7,74 L27.8,74.1 L27.9,74.2 L28,74.3 L28.1,74.4 L28.2,74.5 L28.2,74.7 L28.2,75 L28.1,75.3 L28,75.6 L28,75.8 L27.9,75.9 L28,75.2 L28,75.2 L28,75.2 L28,75.2 L28,75.2 L28,75.3 L28.1,75.3 L28.1,75.3 L28.1,75.3 L28.1,75.3 L28.1,75.3 L28,75.4 L28,75.4 L28,75.6 L27.9,75.8 L27.8,76 L27.7,76.2 L27.6,76.4 L27.5,76.6 L27.4,76.7 L27.3,76.8 L27.1,77 L27,77.1 L26.9,77.2 L26.7,77.3 L26.8,77.4 L27,77.3 L27.2,77.2 L27.4,77.1 L27.5,77 L27.6,76.9 L27.7,76.7 L27.8,76.5 L27.9,76.3 L28,76.1 L28.1,75.9 L28.2,75.7 L28.3,75.5 L28.3,75.4 L28.4,75.4 L28.5,75.4 L28.6,75.4 L28.7,75.4 L28.8,75.4 L28.9,75.4 L29,75.4 L29.1,75.4 L29.1,75.4 C28.9,75.7 28.7,75.9 28.5,76.2 L28.7,76.2 C28,77.4 27.3,78.2 26.5,78.8 C26.7,78.8 26.9,78.9 27,78.9 L27,78.9 L26.9,79 L27,78.9 L26.9,79 L26.8,79 L26.7,79.1 L26.6,79.1 L26.6,79.2 L26.6,79.2 L26.6,79.2 L26.6,79.2 L26.6,79.2 L26.6,79.3 L26.6,79.2 L26.6,79.2 L26.6,79.3 L26.7,79.2 L26.8,79.2 L26.9,79.2 L27,79.2 L27.1,79.2 L27.2,79.2 L27.3,79.2 L27.4,79.2 L27.5,79.2 C27.3,79.7 27,80.1 26.7,80.6 L26.7,80.6 L26.7,80.6 L26.7,80.6 L26.6,80.5 L26.6,80.5 L26.6,80.5 L26.6,80.5 L26.6,80.5 L26.6,80.5 L26.6,80.5 L26.6,80.5 L26.6,80.5 L26.6,80.5 L26.6,80.5 L26.6,80.5 L26.6,80.5 L26.6,80.5 L26.6,80.5 L26.6,80.5 L26.6,80.5 L26.6,80.5 C26.4,80.8 26.2,81 26.1,81.3 C25.8,81.5 25.6,81.6 25.3,81.7 C25.1,81.8 23.2,81.7 23.2,81.6 C22.6,81.1 21.8,81.5 22,82 C21.8,82.2 22.3,83 22.7,82.7 C23.1,82.4 24.4,82.7 24.8,82.5 C24.6,82.9 23.5,83.1 22.7,83.2 C22.3,83.2 22.1,83.4 22.1,83.7 C22,84 22,84.4 22.3,85.1 C22.4,85.3 22.5,85.3 22.5,85.1 C22.5,85 22.5,84.8 22.6,84.7 C23,85.1 23.6,85 23.6,84.6 C23.6,84.1 25.4,83.5 25.6,83.1 C25.3,83.9 24.6,84.6 24.2,85.3 C23.8,85.7 23.6,85.8 24.1,86.6 L24.2,86.6 C24.3,86.8 24.5,87.1 24.8,87.3 C25,87.5 25.1,87.3 25,87.1 C24.9,87 24.9,86.8 25,86.7 L25,86.7 C25.8,86.6 25.9,86.4 25.8,85.8 C25.7,85.2 26.2,84 26.4,83.7 C26.6,83.4 26.6,83.1 26.8,82.9 C27.1,82.6 28.4,81.9 28.7,82.1 C29.3,82.4 29.8,82.2 29.9,81.6 C29.8,81.5 29.8,81.4 29.8,81.3 C29.9,81.4 30,81.4 30,81.4 L30,81.4 C30.5,80.9 31,80.8 31.3,81.1 C31.4,81.2 31.6,81.1 31.5,80.9 C31,79.9 30.3,79.9 29.9,80.4 C29.8,80.5 29.8,80.6 29.7,80.6 C29.7,80.5 29.6,80.5 29.5,80.5 C29.1,80.5 28.9,80.6 28.6,80.8 C28.4,81 28.3,81.1 28.1,81.2 L28.2,81.1 L28.2,81.1 L28.2,81.1 L28.2,81.1 L28.2,81.1 L28.2,81.1 L28.2,81.1 C28.3,81 28.5,80.8 28.7,80.7 L28.7,80.7 L28.7,80.7 L28.7,80.7 L28.7,80.7 L28.7,80.7 L28.8,80.7 L29,80.5 L29,80.5 L29,80.5 L28.9,80.5 L28.8,80.5 L28.8,80.5 L28.8,80.5 L28.8,80.5 C29,80.3 29.3,80 29.6,79.6 C29.6,79.5 29.7,79.5 29.7,79.4 L29.7,79.5 L29.7,79.5 L29.7,79.5 L29.8,79.5 L29.9,79.5 L29.9,79.5 L29.9,79.5 L30,79.5 L30.1,79.5 L30.2,79.5 L30.2,79.5 L30.2,79.5 L30.2,79.5 L30.2,79.5 L30.3,79.3 L30.3,79.3 L30.3,79.3 L30.4,79.3 L30.5,79.3 L30.6,79.3 L30.7,79.3 L30.8,79.3 L30.9,79.3 L31,79.3 L31.1,79.3 L31.2,79.3 L31.3,79.3 L31.3,79.3 C31.3,79.8 31.4,80.2 31.6,80.6 L31.7,80.5 L31.7,80.5 L31.7,80.6 L31.8,80.6 L31.7,80.5 L31.8,80.5 L31.8,80.4 L31.8,80.4 C32.2,80.1 32.6,79.5 32.8,78.7 C32.9,78.8 32.9,78.9 33,79 L33,79.1 L33,79.2 L33,79.3 L33,79.4 L33,79.5 L33,79.6 L33,79.7 L33,79.8 L33,79.9 L33,80 L33,80.1 L33,80.2 L33,80.3 L33,80.4 L33,80.5 L33,80.5 L33,80.5 L33,80.5 L33,80.5 L33,80.5 L33,80.5 L33,80.5 L33,80.5 L33,80.5 L33,80.5 L33,80.5 L33,80.5 L33.1,80.6 L33.1,80.6 L33.1,80.6 L33.1,80.6 L33.1,80.6 L33.1,80.6 L33.1,80.6 L33.1,80.6 L33.1,80.6 L33.1,80.6 L33.1,80.6 L33.1,80.6 L33.1,80.5 L33.1,80.4 L33.1,80.3 L33.1,80.2 L33.1,80.1 L33.1,80 L33.1,79.9 L33.1,79.8 L33.1,79.7 L33.1,79.6 L33.1,79.5 L33.1,79.4 L33.1,79.3 L33.1,79.2 L33.1,79.1 C33.3,79.4 33.5,79.6 33.8,79.9 C33.8,79.7 33.8,79.6 33.9,79.4 L33.9,79.4 L34,79.5 L34.1,79.6 L34.2,79.7 L34.3,79.8 L34.4,79.9 L34.5,79.8 L34.4,79.7 L34.3,79.6 L34.2,79.5 L34.1,79.4 L34,79.3 L33.9,79.2 L33.9,79.2 C34,78.3 34.3,77.3 35,76 L35,75.9 C35,76 35.1,76.1 35.2,76.1 C35.3,76.2 35.3,76.2 35.3,76.3 L35.2,76.4 L35.1,76.5 L35,76.6 L34.9,76.7 L34.3,77 L34.2,77.1 L34.1,77.2 L34,77.3 L34,77.5 L33.9,77.6 L33.8,77.7 L33.7,77.8 L33.6,77.9 L33.6,78 L33.6,78.1 L33.6,78.2 L33.6,78.3 L33.6,78.4 L33.6,78.5 L33.6,78.6 L33.6,78.7 L33.6,78.8 L33.6,78.9 L33.6,79 L33.6,79.1 L33.6,79.2 L33.6,79.3 L33.6,79.4 L33.8,79.4 L33.7,79.5 L33.9,79.5 L33.9,79.4 L33.9,79.3 L33.9,79.2 L33.9,79.1 L33.9,79 L33.9,78.9 L33.9,78.8 L33.9,78.7 L33.9,78.6 L33.9,78.5 L33.9,78.4 L33.9,78.3 L33.9,78.2 L33.9,78.1 L33.9,78 L34,77.9 L34.1,77.8 L34.2,77.7 L34.3,77.6 L34.4,77.5 L34.5,77.4 L34.6,77.3 L34.7,77.2 L34.8,77.1 L34.9,77 L35,76.9 L35.1,76.8 L35.1,76.8 L35.1,76.8 C35.5,77.4 35.9,77.9 36.1,78.4 C35.8,79.4 35.6,80.4 35.3,81.3 C35.1,81.7 34.9,82.1 34.7,82.4 C34.4,82.9 34.2,84 34.3,84.3 C34.3,84.4 34.4,84.4 34.4,84.5 C33.9,85.5 33.4,86.4 32.8,87.1 C32.4,87.6 32.1,88.7 32.3,89 C32.4,89.2 32.7,89.3 32.9,89.3 L33,89.3 C32.5,90.7 32,91.9 31.4,92.9 C31.1,93.4 30.8,94.5 31,94.8 C31.2,95.1 31.5,95.1 31.7,95.2 L32.1,95.3 L32.1,95.3 L32.1,95.3 C32.3,95.3 32.6,95.5 32.9,95.4 C33.3,95.2 33.3,94.1 33.6,93.5 C34.1,92.4 34.5,90.9 34.9,89.3 L35.1,89.3 L35.3,89.3 C34.9,90.7 34.5,91.9 34.1,92.8 C34,93.3 33.5,94.5 33.9,94.9 C34.1,95.1 34.5,95.2 34.6,95.2 L35,95.3 L35,95.3 C35.2,95.3 35.5,95.4 35.7,95.3 C35.7,95.5 35.8,95.6 35.9,95.7 C36.1,95.9 36.4,95.9 36.6,96 L37,96 L37,96 L37,96 C37.2,96 37.5,96.1 37.7,95.9 C38,95.7 38.1,94.6 38.1,93.9 C38.2,92.1 38.3,89.5 38.5,86.4 L38.5,87.9 C38.5,88.5 38.4,89.5 38.6,89.8 C38.6,91.4 38.5,92.8 38.5,93.9 C38.5,94.6 38.4,95.6 38.6,95.9 C38.8,96.1 39.1,96.1 39.2,96.1 L39.5,96.1 C39.7,96.1 39.9,96.1 40.1,95.9 C40.4,95.6 40.3,94.6 40.2,93.9 C40.2,92.8 40.1,91.4 40.1,89.8 C40.3,89.5 40.2,88.5 40.2,87.9 L40.2,86.4 C40.4,89.6 40.5,92.1 40.6,93.9 C40.6,94.6 40.7,95.6 41,95.9 C41.2,96.1 41.5,96 41.7,96 L41.7,96 L41.7,96 L42.1,96 C42.3,96 42.6,96 42.8,95.7 C43.2,95.3 42.9,94.1 42.8,93.7 C42.5,92.6 42.3,91.3 42.1,89.8 C42.1,89.8 42.2,89.8 42.2,89.7 L42.2,89.6 C42.4,91.1 42.7,92.3 42.9,93.3 C43.1,93.9 43.1,95 43.4,95.2 C43.7,95.3 44,95.2 44.2,95.2 L44.2,95.2 L44.6,95.1 C44.8,95 45.1,95 45.3,94.8 C45.4,95 45.5,95.1 45.6,95.2 C45.9,95.3 46.2,95.1 46.4,95.1 L46.4,95.1 L46.4,95.1 L46.8,95 C47,94.9 47.3,94.9 47.5,94.6 C47.7,94.3 47.5,93.2 47.1,92.7 C46.4,91.7 45.9,90.5 45.5,89.1 L45.6,89.1 C45.8,89 46.1,89 46.2,88.8 C46.4,88.5 46.1,87.4 45.7,86.9 C45.2,86.2 44.7,85.5 44.2,84.6 L44.4,84.5 C44.5,84.4 44.7,84.4 44.9,84.2 C45,83.9 44.8,82.8 44.5,82.3 C44,81.6 43.6,80.6 43.3,79.6 C43.6,78.7 44,77.8 44.8,76.7 L44.8,76.7 L44.8,76.7 L44.9,76.8 L45,76.9 L45.1,77 L45.2,77.1 L45.3,77.2 L45.4,77.3 L45.5,77.4 L45.6,77.5 L45.7,77.6 L45.8,77.7 L45.9,77.8 L46,77.9 L46,78 L46,78.1 L46,78.2 L46,78.3 L46,78.4 L46,78.5 L46,78.6 L46,78.7 L46,78.8 L46,78.9 L46,79 L46,79.1 L46,79.2 L46,79.3 L46,79.4 L46.2,79.4 L46.1,79.3 L46.3,79.3 L46.3,79.2 L46.3,79.1 L46.3,79 L46.3,78.9 L46.3,78.8 L46.3,78.7 L46.3,78.6 L46.3,78.5 L46.3,78.4 L46.3,78.3 L46.3,78.2 L46.3,78.1 L46.3,78 L46.3,77.9 L46.3,77.8 L46.2,77.7 L46.1,77.6 L46,77.5 L45.9,77.4 L45.8,77.3 L45.7,77.2 L45.6,77.1 L45.1,77 L45,76.9 L44.9,76.8 L44.8,76.7 L44.7,76.6 L44.6,76.5 C44.7,76.4 44.7,76.4 44.7,76.3 C44.8,76.2 44.8,76.1 44.9,76.1 L44.9,76.2 C45.6,77.5 45.9,78.4 46,79.4 L46,79.4 L46,79.4 L45.9,79.5 L45.8,79.6 L45.7,79.7 L45.6,79.8 L45.5,79.9 L45.6,80 L45.7,79.9 L45.8,79.8 L45.9,79.7 L46,79.6 L46.1,79.5 L46.1,79.5 C46.1,79.7 46.1,79.8 46.2,80 C46.5,79.8 46.7,79.5 46.9,79.2 L46.9,79.3 L46.9,79.4 L46.9,79.5 L46.9,79.6 L46.9,79.7 L46.9,79.8 L46.9,79.9 L46.9,80 L46.9,80.1 L46.9,80.2 L46.9,80.3 L46.9,80.4 L46.9,80.5 L46.9,80.6 L46.9,80.7 L46.9,80.7 L46.9,80.7 L46.9,80.7 L46.9,80.7 L46.9,80.7 L46.9,80.7 L46.9,80.7 L46.9,80.7 L46.9,80.7 L46.9,80.7 L46.9,80.7 L47,80.6 L47,80.6 L47,80.6 L47,80.6 L47,80.6 L47,80.6 L47,80.6 L47,80.6 L47,80.6 L47,80.6 L47,80.6 L47,80.6 L47,80.6 L47,80.5 L47,80.4 L47,80.3 L47,80.2 L47,80.1 L47,80 L47,79.9 L47,79.8 L47,79.7 L47,79.6 L47,79.5 L47,79.4 L47,79.3 L47,79.2 L47,79.1 C47.1,79 47.1,78.9 47.2,78.8 C47.4,79.6 47.8,80.2 48.2,80.5 L48.2,80.5 L48.2,80.6 L48.3,80.6 L48,80.7 L48.1,80.7 L48.1,80.6 L48.1,80.6 L48.2,80.7 C48.4,80.3 48.5,79.9 48.5,79.4 L48.5,79.4 L48.6,79.4 L48.7,79.4 L48.8,79.4 L48.9,79.4 L49,79.4 L49.1,79.4 L49.2,79.4 L49.3,79.4 L49.4,79.4 L49.5,79.4 L49.5,79.4 L49.5,79.4 L49.6,79.6 L49.6,79.6 L49.6,79.6 L49.6,79.6 L49.6,79.6 L49.7,79.6 L49.8,79.6 L49.9,79.6 L49.9,79.6 L49.9,79.6 L50,79.6 L50.1,79.6 L50.1,79.6 L50.1,79.6 L50.1,79.5 C50.1,79.6 50.2,79.6 50.2,79.7 C50.5,80 50.7,80.3 51,80.6 L51,80.6 L51,80.6 L51,80.6 L50.9,80.6 L50.8,80.6 L50.8,80.6 L50.8,80.6 L51,80.8 L51.1,80.8 L51.1,80.8 L51.1,80.8 L51.1,80.8 L51.1,80.8 L51.1,80.8 C51.3,81 51.4,81.1 51.6,81.2 L51.6,81.2 L51.6,81.2 L51.6,81.2 L51.6,81.2 L51.6,81.2 L51.6,81.2 L51.7,81.3 C51.6,81.2 51.4,81.1 51.2,80.9 C50.9,80.6 50.7,80.5 50.3,80.6 C50.2,80.6 50.2,80.7 50.1,80.7 C50,80.6 50,80.5 49.9,80.5 C49.4,79.9 48.8,80 48.3,81 C48.2,81.2 48.3,81.3 48.5,81.2 C48.8,80.9 49.2,81 49.8,81.5 L49.8,81.5 C49.8,81.5 49.9,81.5 50,81.4 C50,81.6 49.9,81.7 49.9,81.7 C50,82.3 50.5,82.5 51.1,82.2 C51.4,82 52.8,82.7 53,83 C53.2,83.2 53.2,83.5 53.4,83.8 C53.6,84.1 54.1,85.3 54,85.9 C53.9,86.5 54,86.7 54.8,86.8 L54.8,86.8 L54.8,87.2 C54.7,87.4 54.8,87.6 55,87.4 C55.3,87.2 55.5,86.9 55.6,86.7 L55.7,86.7 C56.2,85.9 56,85.8 55.6,85.4 C55.2,84.7 54.5,84 54.2,83.2 C54.5,83.6 56.2,84.2 56.2,84.7 C56.2,85.1 56.8,85.2 57.2,84.8 C57.3,84.9 57.3,85 57.3,85.2 C57.3,85.4 57.4,85.5 57.5,85.2 C57.8,84.5 57.8,84.1 57.7,83.8 C57.7,83.5 57.5,83.3 57.1,83.3 C56.3,83.2 55.1,83 55,82.6 C55.4,82.8 56.7,82.5 57.1,82.8 C57.5,83.1 58,82.3 57.8,82.1 C58.1,81.6 57.2,81.2 56.6,81.7 C56.6,81.8 54.7,81.8 54.5,81.8 C54.3,81.7 54,81.6 53.7,81.4 C53.5,81.2 53.3,80.9 53.2,80.6 L53.2,80.6 L53.2,80.6 L53.2,80.6 L53.2,80.6 L53.2,80.6 L53.2,80.6 L53.2,80.6 L53.2,80.6 L53.2,80.6 L53.2,80.6 L53.2,80.6 L53.2,80.6 L53.2,80.6 L53.2,80.6 L53.2,80.6 L53.2,80.6 L53.2,80.6 L53.1,80.7 L53.1,80.7 L53.1,80.7 L53.1,80.7 C52.8,80.3 52.6,79.8 52.3,79.3 L52.4,79.3 L52.5,79.3 L52.6,79.3 L52.7,79.3 L52.8,79.3 L52.9,79.3 L53,79.3 L53.1,79.3 L53.2,79.4 L53.2,79.3 L53.2,79.3 L53.2,79.4 L53.2,79.3 L53.2,79.3 L53.2,79.3 L53.2,79.3 L53.2,79.3 L53.2,79.2 L53.1,79.2 L52.5,79 L52.4,78.9 L52.3,78.8 L52.2,78.7 L52.1,78.6 L52.1,78.6 C52.3,78.6 52.5,78.6 52.6,78.5 C51.8,77.8 51.1,77.1 50.4,75.9 L50.6,75.9 C50.4,75.6 50.2,75.4 50,75.1 L50,75.1 L50.1,75.1 L50.2,75.1 L50.3,75.1 L50.4,75.1 L50.5,75.1 L50.6,75.1 L50.7,75.1 L50.8,75.1 L50.8,75.2 L50.9,75.4 L51,75.6 L51.1,75.8 L51.2,76 L51.3,76.2 L51.4,76.4 L51.5,76.6 L51.6,76.7 L51.7,76.8 L51.8,76.9 L52,77 L52.2,77.1 L52.3,77 L52.1,76.9 L52,76.8 L52.2,77 L52.1,76.9 L52,76.7 L51.9,76.6 L51.8,76.4 L51.7,76.2 L51.5,76 L51.4,75.8 L51.3,75.6 L51.2,75.4 L51.2,75.4 L51.1,75.3 L51.1,75.3 L51.1,75.3 L51.1,75.3 L51.1,75.3 L51.2,75.3 L51.2,75.2 L51.2,75.2 L51.2,75.2 L51.2,75.2 L51.2,75.2 L51.1,75.1 L51,75 L51,74.8 L50.9,74.5 L51,74.4 L51,74.1 L51,73.9 L51.1,73.8 L51.2,73.7 L51.3,73.6 L51.4,73.5 L51.5,73.4 L51.6,73.3 L51.6,73.2 L51.6,73.1 L51.6,73 L51.6,72.9 L51.6,72.8 L51.6,72.7 L51.6,72.7 C51.7,74.6 52.1,76.1 52.8,76.8 L52.8,76.8 L52.7,76.9 L52.8,76.9 L52.8,76.9 L52.7,77 L52.8,77 L52.9,76.9 C53,77 53.1,77 53.1,77.1 C53.2,76.9 53.4,76.5 53.5,75.9 C53.6,76.8 53.9,77.7 54.3,78.2 L54.3,78.4 L54.4,78.8 L54.5,79.1 L54.6,79.4 L54.7,79.7 L54.8,80 L55,80.3 L55.2,80.5 L55.4,80.7 L55.6,80.8 C55.8,81.2 56.1,81.5 56.4,81.7 C56.6,81.2 56.8,80.7 56.9,80.2 L57,80.3 L57.2,80.5 L57.4,80.6 L57.6,80.7 L57.8,80.8 L58,80.9 L58.3,81 L58.5,81 L58.5,81 L58.5,81 L58.5,81 L58.5,80.9 L58.5,80.9 L58.5,80.9 L58.5,80.9 C58.7,81 58.8,81 59,81 C58.5,79.1 58.2,76.2 58.8,72.5 C59.3,69.6 59.7,67.1 59.8,65 L59.8,64.9 L59.8,64.6 L59.8,64.4 L59.8,64.3 L59.8,64 L59.8,63.7 L59.8,63.5 C60,63.2 60.1,62.8 60.2,62.4 L60.2,62.4 L60.2,62.2 L60.2,62 L60.2,62 L60.2,61.8 L60.2,61.8 L60.2,61.6 L60.2,61.3 L60.2,61 L60.2,60.7 L60.2,60.4 L60.2,60.1 L60.2,59.8 L60.2,59.5 L60.2,59.5 C60.7,59.5 60.7,59 60.7,58.5 L60.7,58.5 L60.7,58.5 Z M48.9,41.5 L48.9,41.5 L48.9,41.5 L48.9,41.5 L49,41.6 L49,41.6 L49,41.7 L49,41.7 L48.9,41.7 L48.9,41.7 C49,41.6 48.9,41.6 48.9,41.5 L48.9,41.5 L48.9,41.5 Z M29.6,41.7 L29.6,41.7 L29.6,41.7 L29.6,41.7 L29.6,41.7 L29.6,41.6 L29.6,41.6 L29.6,41.6 L29.6,41.6 L29.6,41.6 L29.6,41.6 L29.6,41.6 L29.6,41.6 C29.7,41.6 29.7,41.6 29.6,41.7 L29.6,41.7 Z M22.3,80.5 L22.1,80.7 L21.9,80.8 L21.7,80.9 L21.4,81 L21.2,81.1 L21,81.2 L20.9,81.2 L20.9,81.2 C21.5,81 22,80.6 22.4,80 C22.4,80.1 22.5,80.3 22.5,80.4 L22.3,80.5 L22.3,80.5 Z M24.8,79 L24.7,79.3 L24.6,79.6 L24.5,79.9 L24.4,80.2 L24.2,80.5 L24,80.7 L23.9,80.8 C24.2,80.2 24.4,79.4 24.5,78.6 L24.5,78.6 L24.6,78.7 L24.7,78.7 L24.6,78.6 L24.7,78.6 L24.6,78.5 L24.5,78.4 L24.5,78.4 L24.5,78.2 C24.6,78.4 24.6,78.5 24.7,78.6 L24.6,78.7 L24.7,78.8 L24.8,78.7 C24.8,78.7 24.8,78.7 24.8,78.8 L24.8,78.8 L24.8,79 L24.8,79 Z M27.8,82 C27.6,82.1 27.5,82.2 27.4,82.1 C27.2,82.1 27.3,81.9 27.5,81.8 L27.5,81.8 L27.5,81.8 L27.5,81.8 L27.8,82 L27.8,82 L27.8,82 L27.8,82 Z M27.8,79.2 L27.8,79.2 L27.7,79.2 L27.6,79.2 L27.5,79.2 L27.4,79.2 L27.3,79.2 L27.2,79.2 L27.1,79.2 L27.2,79.1 L27.3,79 L27.4,78.9 L27.5,78.8 L27.6,78.7 L27.6,78.7 L28.3,78.7 C28,78.8 27.9,79 27.8,79.2 L27.8,79.2 Z M51.6,81.8 L51.6,81.8 L51.6,81.8 L51.6,81.8 C51.9,81.9 52,82 51.8,82.1 C51.7,82.1 51.6,82.1 51.4,82 L51.6,81.8 L51.6,81.8 L51.6,81.8 L51.6,81.8 Z M51.9,78.7 L51.9,78.7 L52,78.8 L52.1,78.9 L52.2,79 L52.3,79.1 L52.4,79.2 L52.3,79.2 L52.2,79.2 L52.1,79.2 L52,79.2 L51.9,79.2 L51.8,79.2 L51.7,79.2 L51.7,79.2 C51.6,79 51.5,78.8 51.4,78.7 C51.5,78.7 51.7,78.7 51.9,78.7 L51.9,78.7 Z M50.7,57.3 L50.7,57 L50.7,57 L50.7,56.9 L50.7,56.8 L50.7,56.7 L50.7,56.6 L50.7,56.5 L50.7,56.4 L50.7,56.3 L50.7,56.2 L50.7,56.1 L50.7,56 L50.7,56 L50.7,55.4 L50.7,55.4 L50.7,56.4 L50.7,56.4 L50.7,56.5 L50.7,59.1 L50.7,59.1 L50.7,59.2 L50.7,59.2 L50.7,59.8 L50.7,59.8 L50.7,59.8 C50.6,59.8 50.6,59.9 50.5,59.9 L50.5,59.8 L50.5,59.6 L50.5,59.3 L50.5,59 L50.5,58.7 L50.5,58.7 C50.6,58.3 50.7,57.8 50.7,57.2 L50.7,57.3 L50.7,57.3 L50.7,57.3 L50.7,57.3 Z M47.6,57.7 L47.6,57.7 C47.6,57.9 47.7,58 47.9,58 L48,58 L48,58.1 L48,58.1 L47.9,58.1 L47.8,58.2 L47.7,58.3 L47.6,58.4 L47.5,58.5 L47.5,58.6 L47.5,58.6 L47.5,58.6 L47.5,58.4 L47.5,58.2 L47.5,58 L47.6,57.7 L47.6,57.7 L47.6,57.7 L47.6,57.7 Z M47.5,56.7 L47.5,56.7 L47.5,56.7 L47.5,56.7 C47.4,56.7 47.5,56.7 47.5,56.7 L47.5,56.7 Z M31.6,56.7 L31.6,56.7 L31.6,56.8 L31.6,56.9 L31.6,57 L31.6,57.1 L31.6,57.2 L31.6,57.3 L31.6,57.4 L31.6,57.5 L31.6,57.6 L31.6,57.7 L31.6,57.8 L31.6,57.9 L31.6,58 L31.6,58 L31.6,58.1 L31.6,58.3 L31.6,58.5 L31.6,58.7 L31.6,58.7 L31.6,58.7 L31.6,58.6 L31.5,58.5 L31.4,58.4 L31.3,58.3 L31.2,58.2 L31.1,58.2 L31.1,58.2 L31.1,57.9 L31.1,57.5 L31.1,57.5 L31.1,57.5 L31.1,57.3 L31.1,57.3 L31.1,56.9 C31.4,56.7 31.5,56.7 31.6,56.7 L31.6,56.7 Z M28.6,59.5 L28.6,59.5 L28.6,59.4 L28.6,59.4 L28.6,56.8 L28.6,56.7 L28.6,56.7 L28.6,56.4 L28.6,56.4 L28.6,56.4 L28.6,56.5 L28.6,56.6 L28.6,56.7 L28.6,56.8 L28.6,56.9 L28.6,57 L28.6,57.1 L28.6,57.2 L28.6,57.2 L28.6,57.5 L28.6,57.5 L28.6,57.5 L28.6,57.7 C28.6,58.3 28.7,58.8 28.8,59.2 L28.8,59.2 L28.8,59.5 L28.8,59.8 L28.8,60.1 L28.8,60.3 L28.8,60.4 C28.7,60.3 28.7,60.3 28.6,60.3 L28.6,60.3 L28.6,60.3 L28.6,59.5 L28.6,59.5 Z M28.4,73.6 L28.4,73.6 L28.3,73.5 L28.3,73.4 L28.3,73.3 L28.3,73.3 C28.4,73.2 28.5,73.1 28.6,72.9 L28.6,72.9 L28.6,73.2 L28.4,73.6 L28.4,73.6 L28.4,73.6 L28.4,73.6 Z M28.4,74.7 L28.5,74.4 L28.5,74.1 L28.5,74 L28.5,74 L28.7,73.9 L28.6,73.8 L28.5,73.7 L28.5,73.7 L28.5,73.5 L28.5,73.2 L28.5,72.9 L28.5,72.6 C28.7,72.2 28.9,71.7 29,71.1 C29,70.2 29.2,65.3 29.2,62.7 L29.2,62.7 L29.2,62.6 L29.2,62.6 L29.2,61.5 L29.2,61.5 L29.2,61.5 L29.2,61.3 L29.2,61.3 C29.1,61.1 29.1,60.8 29,60.7 L29,60.6 L29,60.5 L29,60.3 L29,60.1 L29,59.9 C29,59.9 29,59.9 29,60 L29.1,59.9 L29.1,61.4 L29.1,61.4 L29.1,61.5 L29.1,61.5 L29.1,62.2 C29.1,62.7 29.2,63.2 29.3,63.6 C29.2,64.9 29.2,66.2 29.1,67.1 L29.1,67.1 L29.1,67.4 L29.1,67.7 L29.1,67.9 L29.1,68.1 L29.1,68.3 L29.1,68.4 L29.1,68.5 L29.1,68.6 L29.1,68.7 C29.1,68.9 29.1,69.1 29.2,69.2 L29.1,69.2 L29.1,69.2 L29.1,69.3 L29.1,69.4 L29.1,69.5 L29.1,69.6 L29.1,69.7 L29.1,69.8 L29.1,69.9 L29.1,69.9 L29.1,70 L29.1,70.3 L29.1,70.6 L29.1,70.8 L29.1,71 L29.1,71.2 L29.1,71.3 L29.3,71.3 L29.3,71.2 L29.3,71 L29.3,70.8 L29.3,70.6 L29.3,70.6 L29.3,70.7 L29.3,70.8 L29.3,70.9 L29.3,71 L29.3,71.1 L29.3,71.2 L29.3,71.3 L29.3,71.3 L29.2,71.3 L29.2,71.4 L29.2,71.5 L29.2,71.6 L29.2,71.7 L29.2,71.8 L29.2,71.9 L29.2,72 L29.2,72.1 L29.2,72.2 L29.2,72.3 L29.2,72.4 L29.2,72.5 L29.2,72.6 L29.2,72.7 L29.2,72.8 L29.2,72.9 L29.2,73 L29.2,73.1 L29.2,73.2 L29.2,73.3 L29.2,73.4 L29.2,73.5 L29.2,73.5 L29.2,73.5 L29.2,73.5 L29,73 L28.9,73 L28.8,73 L28.7,73 L28.6,73 L28.5,73 L28.4,73 L28.5,73 L28.4,73.1 L28.4,73.1 L28.5,73.1 L28.6,73.1 L28.7,73.1 L28.8,73.1 L28.9,73.1 L29,73.1 L29.1,73.1 L29.2,73.1 L29.3,73.1 L29.4,73.1 L29.4,73 L29.4,72.9 L29.4,72.8 L29.4,72.7 L29.4,72.6 L29.4,72.5 L29.4,72.4 L29.4,72.3 L29.4,72.2 L29.4,72.1 L29.4,72 L29.4,71.9 L29.4,71.8 L29.4,71.7 L29.4,71.7 L29.4,71.8 L29.4,71.9 L29.4,72 L29.4,72.1 L29.4,72.2 L29.4,72.3 L29.4,72.4 L29.4,72.5 L29.3,72.6 L29.2,72.7 L29.1,72.8 L29,72.9 L28.9,73 L28.8,73.1 L28.7,73.2 L28.6,73.3 L29,74 L28.9,74.1 L28.8,74.2 L28.7,74.3 L28.6,74.4 L28.5,74.5 L28.4,74.6 L28.3,74.7 L28.2,74.8 L28.4,74.7 L28.4,74.9 L28.4,74.9 L28.4,74.7 L28.4,74.7 Z M30.3,72.5 C30,73.6 29.7,74.4 29.3,75.1 L29.3,75.1 L29.2,75.1 L29.1,75.1 L29,75.1 L28.9,75.1 L28.8,75.1 L28.7,75.1 L28.6,75.1 L28.5,75.1 L28.5,75.1 L28.5,75.1 L28.5,75.1 L28.6,75 L28.7,74.9 L28.8,74.8 L28.9,74.7 L29,74.6 L29.1,74.5 L29.2,74.4 L29.3,74.3 L29.4,74.2 L29.5,74.1 L29.6,74 L29.7,73.9 L29.8,73.8 L29.9,73.7 L30,73.6 L30.1,73.5 L30.2,73.4 L30.3,73.3 L30.4,73.2 L30.5,73.1 L30.6,73 L30.7,72.9 L30.7,72.8 L30.7,72.7 L30.7,72.6 L30.7,72.5 L30.7,72.4 L30.7,72.3 L30.7,72.2 L30.7,72.1 L30.6,72.1 L30.6,72 L30.6,71.9 L30.6,71.8 L30.6,71.7 L30.6,71.6 L30.6,71.5 L30.6,71.4 L30.6,71.4 L30.6,71.4 L30.7,71.5 L30.7,71.5 L30.7,71.5 L30.7,71.5 L30.7,71.5 L30.7,71.5 L30.7,71.5 L30.7,71.5 L30.7,71.5 L30.7,71.5 L30.7,71.5 L30.8,71.5 L30.8,71.5 L30.8,71.5 L30.8,71.5 L30.8,71.5 L30.8,71.5 L30.8,71.5 L30.8,71.5 L30.8,71.5 L30.9,71.6 L31,71.7 L31.1,71.8 L31.2,71.9 C30.4,72.2 30.3,72.3 30.3,72.5 L30.3,72.5 Z M34.3,73.7 C34.3,73.6 34.2,73.6 34.2,73.5 L34.2,73.5 L34.3,73.5 L34.3,73.7 L34.3,73.7 L34.3,73.7 L34.3,73.7 Z M45,73.5 L45,73.5 C44.9,73.5 44.9,73.5 45,73.5 L45,73.5 L45,73.5 L45,73.5 Z M45.1,73.7 C45,73.7 45,73.7 45.1,73.7 L45.1,73.7 L45.1,73.6 L45.2,73.6 L45.2,73.6 C45.2,73.6 45.1,73.6 45.1,73.7 L45.1,73.7 Z M48.8,71.8 L48.8,71.8 C48.7,71.7 48.7,71.6 48.6,71.5 C48.5,71.4 48.4,71.3 48.3,71.2 C47.9,70.8 47.5,70.2 47.2,70 L47.4,69.4 L47.4,69.4 L47.4,69.4 L47.4,69.4 L47.4,69.4 L47.3,69.4 L47.2,69.4 L46.7,71.3 L46.8,71.3 L46.8,71.3 L46.8,71.3 L46.8,71.3 L46.8,71.3 L46.7,71.3 L46.7,71.4 L46.7,71.4 L46.7,71.4 L46.7,71.4 L46.7,71.4 L46.6,71.9 C46.7,72 46.8,72.2 47,72.5 L46.8,72.6 L46.8,72.5 L46.7,72.5 L46.7,72.6 L45.3,73 L45.3,73.1 L45.3,73.1 L45.3,73.1 L45.3,73.1 L45.3,73.1 L45.3,73.1 L45.3,73.1 L45.3,73.1 L45.3,73.1 L45.3,73.1 L45.2,73.1 L45.2,73.1 L45.2,73.1 L44.7,73.1 L44.7,73.1 L44.7,73.1 L44.6,73.1 L44.6,73.1 L44.6,73.1 L43.4,73.8 L43.4,73.8 C43.4,74 43.3,74.3 43,74.8 C42.9,74.6 42.8,74.5 42.7,74.4 L42.3,74.6 C42.1,74.2 41.8,73.9 41.6,73.7 L41.4,73.9 C40.9,71.9 40.4,69.6 39.8,67 L39.8,66.9 C39.8,66.7 39.9,66.5 39.9,66.3 C39.9,66.2 39.9,66.1 40,66 L40,66 L40,65.9 C39.9,65.8 39.7,65.8 39.6,65.8 L39.6,65.7 C39.6,65.7 39.6,65.7 39.5,65.7 L39.5,65.7 L39.5,65.7 L39.5,65.7 L39.2,65.7 C39.2,65.7 39.2,65.7 39.1,65.7 C39.1,65.7 39.1,65.7 39,65.7 L39,65.7 C39,65.7 39,65.7 38.9,65.7 L38.9,65.7 L38.9,65.7 L38.6,65.7 L38.4,65.7 L38.2,65.7 L38.2,68 C38.1,68.7 38.1,69.3 38,69.9 C37.6,71.5 37.3,73 37,74.3 L36.7,74.4 L36.5,74.3 C36.4,74.4 36.3,74.5 36.2,74.7 C36,74.2 35.8,73.9 35.8,73.7 L35.8,73.7 L34.6,73 L34.6,73 L34.6,73 L34.5,73 L34.5,73 L34.5,73 L34,73 L34,73 L34,73 L33.9,73 L33.9,73 L33.9,73 L33.9,73 L33.9,73 L33.9,73 L33.9,73 L33.9,73 L33.9,73 L33.9,73 L33.9,72.9 L32.5,72.5 L32.5,72.4 L32.4,72.4 L32.4,72.5 L32.2,72.4 C32.4,72.1 32.5,71.9 32.6,71.8 L32.6,71.8 L32.5,71.3 L32.5,71.3 L32.5,71.3 L32.5,71.3 L32.5,71.3 L32.5,71.2 L32.4,71.2 L32.4,71.2 L32.4,71.2 L32.4,71.2 L32.4,71.2 L32.5,71.2 L32,69.3 L31.9,69.3 L31.8,69.3 L31.8,69.3 L31.8,69.3 L31.8,69.3 L31.8,69.3 L32,69.9 C31.7,70 31.3,70.7 30.9,71.1 C30.8,71.2 30.7,71.3 30.6,71.4 C30.5,71.5 30.5,71.6 30.4,71.7 L30.4,71.7 L30.3,71.6 L30.2,71.5 L30.1,71.4 L30,71.3 L30,71.3 L30,71.3 L30,71.3 L30,71.3 L30,71.3 L30,71.3 L30,71.3 L30,71.3 L30,71.3 L30,71.3 L30,71.3 L30,71.3 L30,71.3 L30,71.3 C30.1,71.2 30.1,71.1 30.2,71.1 L30.2,71.1 L30.2,71 L30.2,70.9 L30.2,70.8 C30.3,70.7 30.3,70.6 30.4,70.5 L30.4,70.5 L30.4,70.5 L30.4,70.5 L30.4,70.4 L30.4,70.3 L30.4,70.2 L30.4,70.1 L30.4,70 L30.4,69.9 L30.4,69.8 L30.4,69.7 L30.4,69.7 L30.4,69.7 L30.4,69.7 L30.4,69.7 L30.4,69.7 L30.4,69.7 L30.4,69.7 L30.4,69.7 L30.4,69.7 L30.4,69.7 L30.4,69.7 L30.4,69.7 L30.4,69.7 L30.4,69.7 L30.4,69.7 L30.4,69.7 L30.4,69.7 L30.4,69.7 L30.4,69.6 L30.4,69.6 L30.4,69.6 L30.4,69.6 L30.4,69.6 L30.4,69.6 L30.4,69.6 L30.4,69.6 L30.4,69.6 L30.4,69.6 L30.4,69.6 L30.4,69.6 L30.4,69.6 L30.4,69.6 L30.4,69.6 L30.4,69.6 L30.4,69.6 L30.4,69.6 L30.4,69.7 L30.4,69.7 C30.5,69.5 30.5,69.3 30.6,69 C30.7,68.3 30.9,64.4 31.1,61.7 L31.1,61.7 L31.1,61.6 L31.1,61.5 L31.1,61.4 L31.1,61.3 L31.1,61.2 L31.1,61.1 L31,61.1 C31,60.4 31.1,59.8 31.1,59.4 L31.1,59.4 L31.1,59.4 L31.1,59.4 L31.1,59.3 L31.1,59.3 L31.1,59.2 L31.1,59.1 L31.1,59 L31.1,58.9 L31.1,58.8 L31.1,58.7 L31.1,58.6 L31.1,58.5 L31.1,58.4 L31.1,58.3 L31.1,58.2 L31.1,58.1 L31.1,58 L31.1,57.9 L31.1,57.8 L31.1,57.7 L31.1,57.6 L31.1,57.5 L31.1,57.4 L31.1,57.3 L31.1,57.2 L30.9,57.2 L30.9,57.3 L30.9,57.4 L30.9,57.5 L30.9,57.6 L30.9,57.7 L30.9,57.8 L30.9,57.9 L30.9,58 L30.9,58.1 L30.9,58.2 L30.9,58.3 L30.9,58.4 L30.9,58.5 L30.9,58.6 L30.9,58.7 L30.9,58.8 L30.9,58.9 L30.9,59 L30.9,59.1 L30.9,59.1 C30.9,59 30.9,59 30.8,58.9 C30.8,59 30.8,59 30.9,59.1 L30.9,59.1 C30.9,59 30.8,58.9 30.8,58.8 L30.8,58.7 L30.8,58.8 L30.8,58.7 L30.8,58.6 L30.8,58.4 L30.8,58.2 L30.8,58 L30.8,57.8 L30.8,57.7 L30.8,57.7 L30.8,57.6 L30.8,57.5 L30.8,57.4 L30.8,57.3 L30.8,57.2 L30.8,57.1 L30.8,57 L30.8,57 L30.8,56.9 L30.8,56.7 L30.8,56.5 L30.8,56.3 L30.7,56.3 L30.8,56.3 L30.8,56.3 L30.8,56.3 C33.2,56.3 35.7,56.3 38.1,56.2 C40.7,56.3 43.4,56.3 46.1,56.3 L46.1,56.3 L46.1,56.3 L46.1,56.3 L46.2,56.3 L46.1,56.3 L46.1,56.5 L46.1,56.7 L46.1,56.9 L46.1,57 L46.1,57 L46.1,57.1 L46.1,57.2 L46.1,57.3 L46.1,57.4 L46.1,57.5 L46.1,57.6 L46.1,57.7 L46.1,57.7 L46.1,57.8 L46.1,58 L46.1,58.2 L46.1,58.4 L46.1,58.6 L46.1,58.7 L46.1,58.8 L46.1,58.7 L46.1,58.8 C46.1,58.9 46,59 46,59.1 L46,59.1 C46,59 46,58.9 46.1,58.9 C46.1,59 46.1,59.1 46,59.1 L46,59.1 L46,59 L46,58.9 L46,58.8 L46,58.7 L46,58.6 L46,58.5 L46,58.4 L46,58.3 L46,58.2 L46,58.1 L46,58 L46,57.9 L46,57.8 L46,57.7 L46,57.6 L46,57.5 L46,57.4 L46,57.3 L46,57.2 L45.8,57.2 L45.8,57.3 L45.8,57.4 L45.8,57.5 L45.8,57.6 L45.8,57.7 L45.8,57.8 L45.8,57.9 L45.8,58 L45.8,58.1 L45.8,58.2 L45.8,58.3 L45.8,58.4 L45.8,58.5 L45.8,58.6 L45.8,58.7 L45.8,58.8 L45.8,58.9 L45.8,59 L45.8,59.1 L45.8,59.2 L45.8,59.3 L45.8,59.3 L45.8,59.4 L45.8,59.4 L45.8,59.4 L45.8,59.4 C45.8,59.8 45.8,60.3 45.9,61.1 L45.8,61.1 L45.8,61.2 L45.8,61.3 L45.8,61.4 L45.8,61.5 L45.8,61.6 L45.8,61.7 L45.8,61.7 C46,64.4 46.2,68.2 46.3,69 C46.3,69.3 46.4,69.5 46.5,69.7 L46.5,69.7 L46.5,69.6 L46.5,69.6 L46.5,69.6 L46.5,69.6 L46.5,69.6 L46.5,69.6 L46.5,69.6 L46.5,69.6 L46.5,69.6 L46.5,69.6 L46.5,69.6 L46.5,69.6 L46.5,69.6 L46.5,69.6 L46.5,69.6 L46.5,69.6 L46.5,69.6 L46.5,69.6 L46.5,69.7 L46.5,69.7 L46.5,69.7 L46.5,69.7 L46.5,69.7 L46.5,69.7 L46.5,69.7 L46.5,69.7 L46.5,69.7 L46.5,69.7 L46.5,69.7 L46.5,69.7 L46.5,69.7 L46.5,69.7 L46.5,69.7 L46.5,69.7 L46.5,69.7 L46.5,69.7 L46.5,69.7 L46.5,69.8 L46.5,69.9 L46.5,70 L46.5,70.1 L46.5,70.2 L46.5,70.3 L46.5,70.4 L46.5,70.5 L46.5,70.5 L46.5,70.5 L46.5,70.5 C46.6,70.6 46.6,70.7 46.7,70.8 L46.7,70.9 L46.7,71 L46.7,71.1 L46.7,71.1 C46.8,71.2 46.8,71.3 46.9,71.3 L46.9,71.3 L46.9,71.3 L46.9,71.3 L46.9,71.3 L46.9,71.3 L46.9,71.3 L46.9,71.3 L46.9,71.3 L46.9,71.3 L46.9,71.3 L46.9,71.3 L46.9,71.3 L46.9,71.3 L46.9,71.3 L49,71.6 L48.9,71.7 L48.8,71.8 L48.8,71.8 L48.8,71.8 Z M49.9,79.9 L49.9,79.9 L49.9,79.9 L49.9,79.9 L49.9,79.9 L49.9,79.9 Z M51.1,75.1 L51.1,75.1 L51.1,75.1 L51.1,75.1 L51,75.2 L50.9,75.2 L50.8,75.2 L50.7,75.2 L50.6,75.2 L50.5,75.2 L50.4,75.2 L50.3,75.2 L50.3,75.2 C49.9,74.5 49.6,73.8 49.3,72.6 C49.3,72.4 49.2,72.2 49.1,72 L49.2,71.9 L49.3,71.8 L49.4,71.7 L49.5,71.6 L49.5,71.6 L49.5,71.6 L49.5,71.6 L49.5,71.6 L49.5,71.6 L49.5,71.6 L49.5,71.6 L49.5,71.6 L49.5,71.6 L49.6,71.6 L49.6,71.6 L49.6,71.6 L49.6,71.6 L49.6,71.6 L49.6,71.6 L49.6,71.6 L49.6,71.6 L49.6,71.6 L49.6,71.6 L49.6,71.6 L49.7,71.5 L49.7,71.5 L49.7,71.5 L49.7,71.6 L49.7,71.7 L49.7,71.8 L49.7,71.9 L49.7,72 L49.7,72.1 L49.7,72.2 L49.6,72.2 L49.6,72.3 L49.6,72.4 L49.6,72.5 L49.6,72.6 L49.6,72.7 L49.6,72.8 L49.6,72.9 L49.6,73 L49.7,73.1 L49.8,73.2 L49.9,73.3 L50,73.4 L50.1,73.5 L50.2,73.6 L50.3,73.7 L50.4,73.8 L50.5,73.9 L50.6,74 L50.7,74.1 L50.8,74.2 L50.9,74.3 L51,74.4 L51.1,74.5 L51.2,74.6 L51.3,74.7 L51.4,74.8 L51.5,74.9 L51.6,75 L51.1,75.1 L51.1,75.1 L51.1,75.1 Z M51,74.9 L51,74.9 L51,74.9 L50.8,74.7 L50.7,74.6 L50.6,74.5 L50.5,74.4 L50.4,74.3 L50.3,74.2 L50.2,74.1 L50.1,74 L50.3,74 L50.2,73.9 L50.1,73.8 L50,73.7 L49.9,73.6 L50,73.5 L50,73.4 L49.9,73.3 L49.8,73.2 L49.7,73.1 L49.7,73 L49.7,72.9 L49.7,72.8 L49.7,72.7 L49.7,72.6 L49.7,72.5 L49.7,72.4 L49.7,72.3 L49.7,72.3 L49.7,72.4 L49.7,72.5 L49.7,72.6 L49.7,72.7 L49.7,72.8 L49.7,72.9 L49.7,73 L49.7,73.1 L49.7,73.2 L49.7,73.3 L49.7,73.4 L49.7,73.5 L49.7,73.6 L49.7,73.7 L49.8,73.7 L49.9,73.7 L50,73.7 L50.1,73.7 L50.2,73.7 L50.3,73.7 L50.4,73.7 L50.5,73.7 L50.6,73.7 L50.7,73.7 L50.7,73.7 L50.6,73.6 L50.7,73.6 L50.6,73.6 L50.5,73.6 L50.4,73.6 L50.3,73.6 L50.2,73.6 L50.1,73.6 L50,73.6 L50,73.6 L50,73.6 L50,73.6 L50,73.5 L50,73.4 L50,73.3 L50,73.2 L50,73.1 L50,73 L50,72.9 L50,72.8 L50,72.7 L50,72.6 L50,72.5 L50,72.4 L50,72.3 L50,72.2 L50,72.1 L50,72 L50,71.9 L50,71.8 L50,71.7 L50,71.6 L50,71.5 L50,71.4 L49.9,71.4 L49.9,71.4 L49.9,71.3 L49.9,71.2 L49.9,71.1 L49.9,71 L49.9,70.9 L49.9,70.8 L49.9,70.7 L49.9,70.7 L49.9,70.9 L49.9,71.1 L49.9,71.3 L49.9,71.4 L50.1,71.4 L50.1,71.3 L50.1,71.1 L50.1,70.9 L50.1,70.7 L50.1,70.4 L50.1,70.1 L50.1,70 L50.1,70 L50.1,69.9 L50.1,69.8 L50.1,69.7 L50.1,69.6 L50.1,69.5 L50.1,69.4 L50.1,69.3 L50,69.3 C50,69.1 50,69 50.1,68.8 L50.1,68.6 L50.1,68.5 L50.1,68.4 L50.1,68.3 L50.1,68.1 L50.1,67.9 L50.1,67.7 L50.1,67.4 L50.1,67.1 L50.1,67 C50.1,66 50,64.7 49.9,63.5 C50,63.1 50.1,62.6 50.1,62.1 L50.1,61.4 L50.1,61.4 L50.1,61.3 L50.1,61.3 L50.1,59.8 L50.2,59.9 C50.2,59.9 50.2,59.9 50.2,59.8 L50.2,60 L50.2,60.2 L50.2,60.4 L50.2,60.5 L50.2,60.6 C50.1,60.8 50.1,61 50,61.2 L50,61.2 L50,61.4 L50,61.4 L50,61.4 L50,62.5 L50,62.5 L50,62.6 L50,62.6 C50,65.1 50.2,70.1 50.2,71 C50.2,71.6 50.4,72.1 50.7,72.5 L50.7,72.8 L50.7,73.1 L50.7,73.4 L50.7,73.6 L50.7,73.6 L50.6,73.7 L50.5,73.8 L50.7,73.9 L50.7,73.9 L50.7,74 L50.7,74.3 L50.8,74.6 L51,74.9 L51,74.9 Z M51.2,73.3 L51.2,73.3 L51.1,73.4 L51,73.5 L51,73.6 L51,73.6 L51,73.5 L51,73.2 L51,72.9 L51,72.9 C51,73.1 51.1,73.2 51.2,73.3 L51.2,73.3 L51.2,73.3 Z M51.9,54 L52,53.9 L52,53.9 C52,53.9 51.9,53.9 51.9,54 L51.9,54 Z M55.4,80.7 L55.2,80.5 L55,80.2 L54.9,79.9 L54.8,79.6 L54.7,79.3 L54.5,79 L54.4,78.7 L54.4,78.7 C54.4,78.7 54.4,78.7 54.4,78.6 L54.5,78.7 L54.6,78.6 L54.5,78.5 C54.6,78.4 54.6,78.2 54.7,78.1 L54.7,78.3 L54.7,78.3 L54.6,78.4 L54.5,78.5 L54.6,78.5 L54.5,78.6 L54.6,78.6 L54.7,78.5 L54.7,78.5 C54.9,79.4 55.1,80.1 55.4,80.7 L55.4,80.7 L55.4,80.7 Z M58.4,81.2 L58.2,81.1 L57.9,81 L57.7,80.9 L57.5,80.8 L57.3,80.7 L57.1,80.5 L56.9,80.4 C56.9,80.3 57,80.1 57,80 C57.4,80.5 57.9,80.9 58.4,81.2 L58.5,81.2 L58.4,81.2 L58.4,81.2 Z" id="Shape" fill="#FFFFFF"></path>
        <path d="M51.8,86.7 C52.1,86.2 52.2,85.4 51.6,84.8 C51.2,84.4 50.6,83.9 50.5,83.4 L50.5,83.4 L50.5,83.4 C50.5,83.3 50.4,83.3 50.4,83.3 C50.4,83.3 50.3,83.3 50.3,83.4 L50.3,83.4 C50.2,83.8 49.6,84.4 49.2,84.8 C48.5,85.4 48.7,86.4 49.2,86.9 C49.7,87.4 49.9,88.1 50,88.5 C50,88.7 50.1,88.9 50.1,89.3 L50.1,89.3 C50,88.8 49.9,88.3 49.7,87.8 C49,85.7 45.4,86.5 47.4,89.3 C47.5,89.4 47.6,89.4 47.6,89.2 C47.5,88.6 47.8,88.3 48.4,88.4 C48.9,88.5 49.2,88.9 49.4,89.3 L49.3,89.3 C49.1,89.3 48.9,89.5 48.8,89.8 L48.8,89.8 L48.8,89.8 L48.8,89.8 L48.8,89.8 L48.8,89.8 L48.8,89.8 L48.8,89.8 L48.8,89.8 L48.8,89.8 L48.7,89.8 L48.7,89.8 L48.8,89.8 L48.8,89.8 L48.8,89.8 L48.8,89.8 L48.8,89.8 L48.8,89.8 L48.8,89.8 L48.8,89.8 L48.8,89.8 L48.8,89.8 C48.9,90.1 49.1,90.3 49.3,90.3 L49.4,90.3 C49.2,90.6 48.9,90.8 48.3,90.6 C48,90.6 48.3,91.2 48.6,91.4 L48.6,91.4 L48.6,91.4 C48.9,91.7 49.3,91.7 49.6,91.5 C49.7,91.6 49.9,91.7 50.1,91.9 C50.2,91.9 50.3,92 50.4,92.3 C50.4,92.4 50.7,92.4 50.7,92.3 C50.8,92.1 50.9,92 51,91.9 C51.5,91.5 51.8,91.3 51.6,91.2 C51.5,91.1 51.5,91.1 51.4,91 C51.5,91 51.7,90.9 51.8,90.8 L51.8,90.8 L51.8,90.8 C52.1,90.6 52.4,90.1 52.1,90.1 C51.8,90.2 51.6,90.2 51.4,90.2 C51.5,90.1 51.5,90 51.5,89.9 L51.5,89.9 L51.5,89.9 L51.5,89.9 L51.5,89.9 L51.5,89.9 L51.5,89.9 L51.5,89.9 L51.5,89.9 L51.5,89.9 L51.5,89.9 L51.5,89.9 L51.5,89.9 L51.5,89.9 L51.5,89.9 L51.5,89.9 L51.5,89.9 L51.5,89.9 L51.5,89.9 L51.5,89.9 C51.4,89.6 51.2,89.4 51,89.4 L50.8,89.4 L50.8,89.4 L50.8,89.3 C50.9,88.8 51.3,88.4 51.9,88.3 C52.4,88.2 52.8,88.5 52.7,89 C52.7,89.1 52.8,89.2 52.9,89.1 C54.1,87.4 52.9,86.5 51.8,86.7 L51.8,86.7 Z" id="Shape" fill="#EDB92E"></path>
        <path d="M48,56 L48,70.1 L48,70.1 C48,72.6 47,74.9 45.5,76.6 C43.9,78.3 41.8,79.3 39.4,79.3 L39.4,79.3 C37,79.3 34.8,78.3 33.3,76.6 C31.7,74.9 30.8,72.6 30.8,70.1 L30.8,56 L48,56 L48,56 L48,56 L48,56 L48,56 L48,56 Z" id="Shape_416_" fill="#CA4638"></path>
        <path d="M46.6714393,62.8 L46.6714393,57.8 C45.5714393,57.5 42.7714393,56.4 42.6714393,58.8 C42.5714393,59.9 44.0714393,60.6 44.4714393,59.6 C44.6714393,59.2 44.4714393,58.8 44.1714393,58.7 C43.8714393,58.6 43.5714393,58.8 43.6714393,59.2 C42.4714393,58.6 44.6714393,57.4 45.6714393,59 C45.9714393,59.5 45.1714393,60 45.1714393,60.3 C45.1714393,60.7 45.9714393,61.2 45.6714393,61.6 C44.6714393,63.2 42.4714393,62 43.6714393,61.4 C43.5714393,61.7 43.8714393,62 44.1714393,61.9 C44.4714393,61.8 44.6714393,61.5 44.4714393,61 C44.0714393,60.1 42.6714393,60.8 42.6714393,61.8 C42.7714393,64.2 45.5714393,63.1 46.6714393,62.8 C46.6714393,62.8 45.5714393,63.1 46.6714393,62.8 L46.6714393,62.8 L46.6714393,62.8 L46.6714393,62.8 L46.6714393,62.8 L46.6714393,62.8 Z" id="Shape_417_" fill="#FFFFFF" transform="translate(44.669053, 60.300000) scale(-1, 1) translate(-44.669053, -60.300000) "></path>
        <path d="M48,64.7 L48,68.3 L41.1,68.3 L41.1,79.1 C40.5,79.2 39.9,79.3 39.3,79.3 L39.3,79.3 C38.7,79.3 38.1,79.2 37.5,79.1 L37.5,68.3 L30.6,68.3 L30.6,64.7 L37.5,64.7 L37.5,56 L41.1,56 L41.1,64.7 L48,64.7 L48,64.7 L48,64.7 L48,64.7 L48,64.7 Z" id="Shape_418_" fill="#FFFFFF"></path>
        <path d="M36.633333,62.8 L36.633333,57.8 C35.533333,57.5 32.733333,56.4 32.633333,58.8 C32.533333,59.9 34.033333,60.6 34.433333,59.6 C34.633333,59.2 34.433333,58.8 34.133333,58.7 C33.833333,58.6 33.533333,58.8 33.633333,59.2 C32.433333,58.6 34.633333,57.4 35.633333,59 C35.933333,59.5 35.133333,60 35.133333,60.3 C35.133333,60.7 35.933333,61.2 35.633333,61.6 C34.633333,63.2 32.433333,62 33.633333,61.4 C33.533333,61.7 33.833333,62 34.133333,61.9 C34.433333,61.8 34.633333,61.5 34.433333,61 C34.033333,60.1 32.633333,60.8 32.633333,61.8 C32.833333,64.2 35.533333,63.1 36.633333,62.8 C36.633333,62.8 35.533333,63.1 36.633333,62.8 L36.633333,62.8 L36.633333,62.8 L36.633333,62.8 L36.633333,62.8 L36.633333,62.8 Z" id="Shape_419_" fill="#FFFFFF"></path>
        <path d="M36.7,74.8 L36.7,69.8 C35.6,69.5 32.8,68.4 32.7,70.8 C32.6,71.9 34.1,72.6 34.5,71.6 C34.7,71.2 34.5,70.8 34.2,70.7 C33.9,70.6 33.6,70.8 33.7,71.2 C32.5,70.6 34.7,69.4 35.7,71 C36,71.5 35.2,72 35.2,72.3 C35.2,72.7 36,73.2 35.7,73.6 C34.7,75.2 32.5,74 33.7,73.4 C33.6,73.7 33.9,74 34.2,73.9 C34.5,73.8 34.7,73.5 34.5,73 C34.1,72.1 32.7,72.8 32.7,73.8 C32.8,76.2 35.5,75.1 36.7,74.8 C36.7,74.8 35.5,75.1 36.7,74.8 L36.7,74.8 L36.7,74.8 L36.7,74.8 L36.7,74.8 L36.7,74.8 Z" id="path1563_2_" fill="#FFFFFF"></path>
        <path d="M46.6714393,74.8 L46.6714393,69.8 C45.5714393,69.5 42.7714393,68.4 42.6714393,70.8 C42.5714393,71.9 44.0714393,72.6 44.4714393,71.6 C44.6714393,71.2 44.4714393,70.8 44.1714393,70.7 C43.8714393,70.6 43.5714393,70.8 43.6714393,71.2 C42.4714393,70.6 44.6714393,69.4 45.6714393,71 C45.9714393,71.5 45.1714393,72 45.1714393,72.3 C45.1714393,72.7 45.9714393,73.2 45.6714393,73.6 C44.6714393,75.2 42.4714393,74 43.6714393,73.4 C43.5714393,73.7 43.8714393,74 44.1714393,73.9 C44.4714393,73.8 44.6714393,73.5 44.4714393,73 C44.0714393,72.1 42.6714393,72.8 42.6714393,73.8 C42.7714393,76.2 45.5714393,75.1 46.6714393,74.8 C46.6714393,74.8 45.5714393,75.1 46.6714393,74.8 L46.6714393,74.8 L46.6714393,74.8 L46.6714393,74.8 L46.6714393,74.8 L46.6714393,74.8 Z" id="Shape_420_" fill="#FFFFFF" transform="translate(44.669053, 72.300000) scale(-1, 1) translate(-44.669053, -72.300000) "></path>
    </g>
</svg>