<?xml version="1.0" ?><svg height="120px" version="1.1" viewBox="0 0 180 120" width="180px" xmlns="http://www.w3.org/2000/svg" xmlns:sketch="http://www.bohemiancoding.com/sketch/ns" xmlns:xlink="http://www.w3.org/1999/xlink"><title/><defs/><g fill="none" fill-rule="evenodd" id="Asia-Pacific" stroke="none" stroke-width="1"><g id="Srilanka" transform="translate(0.000000, -1.000000)"><g transform="translate(0.000000, 1.000000)"><rect d="M0,0 L0,120 L180,120 L180,0 L0,0 Z M0,0" fill="#E5B731" height="120" id="Rectangle-120" width="180" x="0" y="0"/><rect d="M60,10 L60,110 L170,110 L170,10 L60,10 Z M60,10" fill="#A03529" height="100" id="Oval-142-copy" width="110" x="60" y="10"/><rect d="M30,10 L30,110 L50,110 L50,10 L30,10 Z M30,10" fill="#CE6F2D" height="100" id="Oval-142-copy-2" width="20" x="30" y="10"/><rect d="M10,10 L10,110 L30,110 L30,10 L10,10 Z M10,10" fill="#57BB63" height="100" id="Oval-142-copy-3" width="20" x="10" y="10"/><path d="M152,28 C152,28 153.081233,25.8672105 154.275759,24.9981909 C156.045584,23.7106442 159.674644,23.8036557 161.214782,22.3015246 C163.06032,20.5301886 161.071567,18.1898968 161.088194,17.9868125 L161.189388,16.7508782 C161.189388,16.7508782 159.944922,16.7363471 159.420996,16.6571995 C158.633103,16.5381768 158.325796,15.9170585 156.858899,16.0093057 C153.170699,16.2412473 153.319361,19.4605209 153.110813,22.2116381 C152.925579,23.2592148 152.496976,24.6250709 152.25342,25.6723594 C152.044581,26.5703704 152,28 152,28 Z M152,92 C152,92 153.081233,94.1327895 154.275759,95.0018091 C156.045584,96.2893558 159.674644,96.1963443 161.214782,97.6984754 C163.06032,99.4698114 161.071567,101.810103 161.088194,102.013188 L161.189388,103.249122 C161.189388,103.249122 159.944922,103.263653 159.420996,103.3428 C158.633103,103.461823 158.325796,104.082942 156.858899,103.990694 C153.170699,103.758753 153.319361,100.539479 153.110813,97.7883619 C152.925579,96.7407852 152.496976,95.3749291 152.25342,94.3276406 C152.044581,93.4296296 152,92 152,92 Z M73.7242413,24.9981909 C71.9544163,23.7106442 68.3253561,23.8036557 66.7852181,22.3015246 C64.9396801,20.5301886 66.9284326,18.1898968 66.9118057,17.9868125 L66.8106117,16.7508782 C66.8106117,16.7508782 68.0550784,16.7363471 68.5790037,16.6571995 C69.3668971,16.5381768 69.6742042,15.9170585 71.1411007,16.0093057 C74.8293011,16.2412473 74.6806393,19.4605209 74.8891874,22.2116381 C75.0744206,23.2592148 75.5030238,24.6250709 75.7465798,25.6723594 C75.9554189,26.5703704 76,28 76,28 C76,28 74.918767,25.8672105 73.7242413,24.9981909 Z M76,92 C76,92 74.918767,94.1327895 73.7242413,95.0018091 C71.9544163,96.2893558 68.3253561,96.1963443 66.7852181,97.6984754 C64.9396801,99.4698114 66.9284326,101.810103 66.9118057,102.013188 L66.8106117,103.249122 C66.8106117,103.249122 68.0550784,103.263653 68.5790037,103.3428 C69.3668971,103.461823 69.6742042,104.082942 71.1411007,103.990694 C74.8293011,103.758753 74.6806393,100.539479 74.8891874,97.7883619 C75.0744206,96.7407852 75.5030238,95.3749291 75.7465798,94.3276406 C75.9554189,93.4296296 76,92 76,92 Z M76,92" fill="#FFB700" id="path2389" stroke="#000000"/><path d="M97.9126754,89.5984615 L98.6098863,89.1948623 L98.9081554,89.5991895 C99.3055234,90.1378873 100.405073,90.1317924 101.134675,89.5867944 L101.692569,89.1701186 L102.15971,89.5867944 C102.773895,90.1346771 103.920912,90.1354035 104.653309,89.5887507 C105.166055,89.2057998 105.237546,89.1981078 105.576573,89.4894231 C105.778684,89.663102 106.371475,89.8608319 106.893892,89.9288126 C107.83476,90.0512675 107.849007,90.0445424 108.399487,89.2165353 C108.860518,88.5230944 108.932631,88.2424375 108.822618,87.5698823 C108.749699,87.1240018 108.671143,86.4063544 108.648052,85.9751252 C108.606279,85.194314 108.610773,85.189457 109.745177,84.793428 C110.371663,84.5747162 111.096853,84.281374 111.356706,84.1415579 C111.809765,83.897793 113.058823,82.4259221 113.058823,82.1358271 C113.058823,82.0589582 112.570847,81.9412032 111.974451,81.8741269 C109.602193,81.6073548 109.200435,80.3301448 110.742606,77.9578413 C113.257641,74.0889264 114.77531,70.3211511 114.785457,67.920961 C114.790015,66.8481258 114.850942,66.4879062 114.98844,66.7212099 C115.550371,67.6746385 114.543686,71.6722796 113.018748,74.5430457 L112.404729,75.6990034 L112.990646,75.5637686 C113.312894,75.4893948 115.207512,74.6879545 117.200876,73.7828043 C122.657057,71.3051954 124.531111,70.8196731 128.062192,70.9687895 C131.020488,71.0937202 132.280315,71.6731631 134.369008,73.8696037 C135.475518,75.0331909 136.541435,75.8657392 138.491326,77.0894611 C142.645578,79.6966044 142.818819,79.9224342 143.016395,82.9884528 C143.21656,86.0949231 143.116944,86.26345 140.77339,86.7825609 C138.770438,87.2262382 137.51465,88.1624402 137.177861,89.4630727 C136.998014,90.1576729 137.376492,90.1776735 138.386345,89.5269644 L139.126447,89.0500721 L139.455534,89.5269644 C139.888171,90.1539368 140.807789,90.156435 141.571418,89.5326729 L142.148262,89.0615436 L142.737924,89.5326729 C143.654128,90.2646765 144.872533,90.087162 145.216385,89.1715682 C145.282494,88.9955882 145.458904,89.0519675 145.816135,89.36324 C146.485491,89.9464992 148.201337,90.1966766 148.386673,89.7380739 C148.457398,89.5630946 148.323051,89.130961 148.088134,88.7777808 C147.089837,87.2769635 146.777547,86.561221 146.764541,85.7442668 C146.746523,84.6079745 147.084638,84.0597198 148.373709,83.135613 C149.939605,82.0130274 150.423504,80.5647136 149.23266,80.5647136 C148.497411,80.5647136 147.756189,79.9131387 147.2835,78.8512586 C146.322625,76.6927313 146.510943,74.272879 147.953082,70.2472952 C149.417897,66.1583698 149.580391,65.4044221 149.586245,62.6697343 C149.591043,60.4586072 149.535465,60.0762336 149.033701,58.8640233 C148.726921,58.1228412 148.104454,57.0192235 147.650443,56.4115461 L146.824953,55.3066776 L147.884801,54.4263481 C151.120949,51.7383656 150.458946,47.3391473 146.563258,45.6441374 C145.371485,45.1255925 145.073712,45.0798027 142.985164,45.0938783 C141.732194,45.1023288 139.82167,45.267639 138.73956,45.4612527 C137.636241,45.6586539 135.768693,45.817308 134.487617,45.8224649 C132.452499,45.8306748 132.107032,45.7803745 131.322733,45.3618242 C130.504947,44.9253996 130.364739,44.7181961 130.204626,43.7094867 C130.171719,43.5021358 130.027121,43.2952884 129.883328,43.2498225 C129.605167,43.1618847 128.320595,44.2796421 128.130804,44.774755 C128.037173,45.0190555 127.960751,45.0021642 127.686052,44.6764296 C127.503616,44.4601199 127.2489,43.9630748 127.119997,43.5718915 C126.795862,42.5880862 127.193894,41.850605 128.347309,41.2979166 L129.242179,40.8691247 L128.714504,40.5408213 C127.625617,39.8633769 125.774121,40.3268014 125.104516,41.4444032 C124.9151,41.760536 124.708495,42.0197556 124.645412,42.0204387 C124.582327,42.0209197 124.222301,41.7195376 123.845331,41.3502486 C122.439435,39.9729445 122.923042,37.9352734 124.803474,37.313158 C125.806202,36.9814135 126.693572,37.2344772 126.878206,37.9048485 C127.160072,38.9283069 128.036284,37.5830056 127.879135,36.3680469 C127.774649,35.560292 127.790349,35.5322948 128.347826,35.5322948 C129.123075,35.5322948 130.773166,36.5524244 131.28353,37.3472245 C131.876321,38.2704093 131.83318,39.7241702 131.180847,40.8076206 L130.668621,41.658367 L131.338659,41.5238393 C132.321196,41.3265728 133.275753,40.7148177 133.758657,39.9729156 C134.269162,39.1885848 134.324066,37.6613786 133.871362,36.837191 C133.432675,36.0384928 133.482982,35.9117003 134.131523,36.1816008 C135.234574,36.6406573 135.824301,37.1469338 136.266649,38.0145684 C136.665011,38.7959391 136.687254,38.9901109 136.471597,39.8033593 C136.338535,40.3051091 136.042481,40.9652516 135.813675,41.2703363 C135.457435,41.7453861 135.445279,41.8250322 135.729115,41.8250322 C136.257724,41.8250322 137.361479,41.3234348 137.7535,40.9050544 C137.951554,40.6936803 138.240296,40.173216 138.395167,39.7484601 L138.676766,38.9761812 L139.000321,39.5648555 C139.457872,40.3972738 140.34738,41.1463388 141.431894,41.6124763 C142.598298,42.113814 143.084055,42.1420614 142.474097,41.673076 C142.06277,41.3568117 141.304835,39.1270471 141.534534,38.908943 C141.669691,38.7806128 143.253382,40.0023031 145.061534,41.62973 C146.771996,43.1692448 147.846818,43.6735105 149.417801,43.6735217 C151.424617,43.6735345 152.593102,41.922054 151.691149,40.265913 C151.165282,39.3003492 149.993791,39.1662127 149.308757,39.9931358 C148.99375,40.3733832 148.907273,40.6758653 148.999539,41.0747005 C149.112549,41.5632808 149.068455,41.6283863 148.624469,41.6283863 C148.041142,41.6283863 146.891265,40.8801199 144.84909,39.1716005 C141.734966,36.5662931 137.951037,34.3579529 135.218812,33.551282 C133.465377,33.0335966 129.71978,32.8315741 127.93735,33.158553 C126.008209,33.5124483 123.726414,34.6193243 122.483341,35.804227 C120.280678,37.9038431 120.245742,40.6978638 122.390353,43.2421209 L123.004684,43.97094 L122.588776,44.6186585 C121.983726,45.5609523 122.035542,46.8290144 122.717266,47.7630693 C123.017522,48.174468 123.32041,48.5108948 123.390349,48.5106767 C123.460286,48.5105163 123.536976,48.2459731 123.560752,47.9229196 C123.620958,47.1056801 123.970795,46.5581261 124.571267,46.3413497 C125.112097,46.1461069 125.461726,46.2383213 127.938053,47.2293136 C130.543157,48.2718329 134.827511,48.3434936 139.383172,47.4207417 C141.616527,46.9683718 144.250004,46.9949804 145.408596,47.481614 C147.532437,48.3736651 148.024574,50.6944528 146.463454,52.45609 C145.787637,53.2187029 145.135864,53.5292667 142.947552,54.131404 C141.282343,54.589601 140.887917,54.6200195 137.103033,54.5821351 C133.869456,54.5497699 132.70736,54.6120277 131.387412,54.888347 C129.954427,55.1883212 129.073059,55.2185698 124.863676,55.1122189 L119.996763,54.989254 L120.536471,55.4373152 C120.833312,55.6837468 121.252695,55.9869505 121.468433,56.1111004 C121.835522,56.3223462 121.823284,56.3507283 121.277672,56.5535573 C120.957014,56.672762 120.245328,56.7702904 119.696132,56.7702904 L118.697627,56.7702904 L118.563258,57.6210641 C118.489344,58.0889928 118.494958,58.6353056 118.575669,58.8350928 C118.694755,59.1297643 118.650371,59.1720808 118.340627,59.0592196 C118.130626,58.9827019 117.54575,58.8322033 117.040914,58.724778 C116.536081,58.6173511 115.856536,58.3986009 115.530805,58.2386656 C114.98306,57.9697112 114.922192,57.9769398 114.720432,58.3349016 C114.540273,58.6545621 112.848886,59.9166591 112.600654,59.9166591 C112.560597,59.9166591 112.508887,59.6733062 112.485752,59.3758784 C112.462619,59.0784473 112.218609,58.3041464 111.943515,57.6552076 C111.668401,57.0062687 111.381148,56.2983321 111.30516,56.0820224 C111.190532,55.755717 111.138631,55.7389684 111.00039,55.983697 C110.908747,56.1459317 110.774937,56.5883887 110.703051,56.9669395 C110.631165,57.3454856 110.376306,57.9604429 110.136688,58.3335114 L109.701028,59.011812 L109.423157,58.4318319 C109.124866,57.8092275 108.629645,57.1635887 108.450355,57.1635887 C108.38984,57.1635887 108.286765,57.3626944 108.221321,57.6060457 C108.084652,58.1142319 106.910339,59.5233656 106.623523,59.5233656 C106.517901,59.5233656 106.431496,59.1251526 106.431496,58.6384485 C106.431496,58.1517444 106.338302,57.7535313 106.224394,57.7535313 C106.110489,57.7535313 106.017291,57.8794787 106.017291,58.0334152 C106.017291,58.4075965 105.014398,59.5233656 104.678063,59.5233656 C104.531289,59.5233656 104.295171,59.6561022 104.153369,59.8183353 C103.783629,60.2413418 103.481176,60.1819832 103.636626,59.7169264 C103.709505,59.4989154 103.662118,58.9900877 103.531315,58.5861982 C103.400508,58.1823088 103.261419,57.7524425 103.222235,57.6309417 C103.172861,57.4779207 102.813476,57.5185103 102.052851,57.7630096 C100.823714,58.1581023 100.411725,58.0882038 101.043864,57.5918274 C101.274951,57.4103714 101.626424,56.7818308 101.824952,56.1950664 C102.023461,55.6083035 102.316368,55.0876756 102.475856,55.0381144 C102.699174,54.9687115 102.687289,55.0544766 102.424081,55.4112791 C102.236114,55.6660858 102.081761,56.0097299 102.081057,56.1749391 C102.081057,56.3401484 101.9389,56.7318367 101.766694,57.0453574 C101.594509,57.3588813 101.486257,57.6463931 101.526164,57.6842791 C101.566054,57.7221635 102.033715,57.5440493 102.565386,57.2884697 L103.532059,56.8237834 L103.535993,57.2394955 C103.538264,57.4681361 103.654684,58.0713173 103.794872,58.5798981 L104.049754,59.5045838 L104.707781,59.201364 C105.380285,58.8914705 106.017231,57.7867255 106.017231,56.9301856 C106.017231,56.5067638 106.259145,56.5717603 106.358204,57.0217907 C106.387282,57.1538554 106.53913,57.6495215 106.695656,58.1232693 L106.980258,58.9846261 L107.430789,58.4407779 C107.678585,58.1416599 107.98924,57.5549419 108.121122,57.1369593 C108.350075,56.411352 108.709566,56.0993964 108.709566,56.6263196 C108.709566,57.006033 109.743091,58.3678488 109.942468,58.2508442 C110.038834,58.1943014 110.230712,57.6831855 110.368872,57.1150313 C110.656227,55.9334768 111.119805,55.1298911 111.414367,55.3027506 C111.525125,55.3677487 111.568264,55.4938933 111.510214,55.5830723 C111.452163,55.6722481 111.690207,56.4404348 112.039196,57.2901534 C112.388184,58.1398736 112.738624,58.9953953 112.817967,59.1913164 C112.945435,59.5061151 113.060648,59.4603863 113.808723,58.7980198 C114.27429,58.3857857 114.696864,57.9243175 114.747749,57.7725361 C114.824668,57.5430808 114.928528,57.5514752 115.363878,57.8223346 C115.972697,58.2011131 118.019596,58.8114235 118.17768,58.6613113 C118.23689,58.6050939 118.297592,58.066122 118.312586,57.4635918 L118.339842,56.3680894 L118.928468,56.4904738 C119.25221,56.5577858 119.932936,56.5536487 120.441189,56.4812537 L121.365278,56.3496748 L120.541737,55.7832075 C120.088761,55.4716527 119.630773,55.0684688 119.52397,54.887247 C119.410189,54.6941897 119.007063,54.5302569 118.550402,54.4913494 C117.316546,54.3862268 115.129749,53.1565238 115.129749,52.5678111 C115.129749,52.4572894 115.432637,52.6452139 115.802832,52.9854185 C116.624077,53.7401358 117.765007,54.2138499 118.761481,54.2138499 L119.507113,54.2138499 L119.045854,53.5987819 C118.780885,53.2454655 118.543258,52.5752321 118.487463,52.0238554 C118.398533,51.144969 118.306001,51.0052235 117.390668,50.367227 C116.840874,49.9840035 116.159858,49.4096053 115.877328,49.0907834 L115.363628,48.5111096 L115.101543,49.1993504 C114.957379,49.5778836 114.781194,49.8875927 114.710035,49.8875927 C114.638873,49.8875927 114.361751,49.6663618 114.094234,49.3959723 C113.826701,49.1255811 113.554173,48.9053668 113.488607,48.9066063 C113.423017,48.9077288 113.186029,49.2720565 112.961963,49.7159583 L112.554551,50.5230541 L112.239734,50.0578369 C112.066574,49.8019655 111.657567,49.3492686 111.330844,49.0518375 C111.004118,48.754408 110.832263,48.5110551 110.948964,48.5110551 C111.065646,48.5110551 111.468918,48.8208973 111.845121,49.1995925 L112.529078,49.8881299 L112.807445,49.383675 C112.972629,49.0843181 113.034532,48.6244791 112.959705,48.2526774 C112.850624,47.7107437 112.865951,47.6792461 113.073199,48.0194347 C113.204999,48.235746 113.605121,48.6504591 113.962395,48.9410144 L114.611994,49.4692974 L115.060267,48.6460414 C115.506407,47.8267398 115.509533,47.8251475 115.712517,48.314406 C115.983966,48.9687165 117.948438,50.5832208 119.620917,51.5265104 C119.878697,51.6719003 119.770009,51.1719416 119.293942,50.022276 C119.167858,49.7178071 119.0647,49.168903 119.0647,48.8024923 C119.0647,48.2589006 118.908295,48.016962 118.214873,47.4879206 C117.213804,46.7241387 116.890058,46.1809928 116.70141,44.9487787 C116.624989,44.4496394 116.449801,43.8944928 116.312077,43.7151215 C116.107793,43.4490116 116.074033,43.5979357 116.12869,44.5243259 C116.165532,45.1487567 116.084535,45.9251325 115.948675,46.249602 L115.701683,46.8395446 L115.510755,46.3479241 C115.405753,46.077533 114.941305,45.6073097 114.478618,45.3029835 C114.015949,44.9986573 113.691214,44.698558 113.757011,44.6360966 C113.822786,44.5736353 114.29877,44.8509921 114.814726,45.2524426 C115.600762,45.8640213 115.7739,45.9302381 115.882774,45.66087 C116.010682,45.3443556 115.882614,43.9672776 115.635495,43.0049063 C115.512164,42.5243676 115.522955,42.5269541 116.114212,43.1196515 C116.550288,43.5567881 116.791417,44.0781648 116.978224,44.987808 C117.215542,46.1434242 117.335268,46.3358032 118.401041,47.2740241 C119.04107,47.8374576 119.598052,48.2668091 119.638789,48.228139 C119.679505,48.1894688 119.760277,46.7319606 119.818264,44.9892287 C119.929477,41.64729 119.803774,40.8521436 119.001037,39.8196461 L118.58859,39.2891326 L119.236966,38.587942 C120.082797,37.6732269 120.471156,36.9400094 120.639614,35.9397072 L120.776651,35.1259648 L120.044937,35.8207415 C119.44579,36.3896429 119.159657,36.5155197 118.465696,36.5155197 C117.778529,36.5155197 117.510105,36.4000657 117.047043,35.9053457 C116.491449,35.3117775 115.506944,34.7406472 114.560217,34.4626939 C114.210481,34.3600198 114.094234,34.4047432 114.094234,34.6419466 C114.094234,34.8157763 113.90105,35.3175501 113.664933,35.7569973 L113.23565,36.5559906 L112.336203,35.6646482 C111.78448,35.1179217 111.129726,34.6923624 110.642682,34.5639457 C109.398265,34.2358443 109.330872,34.2684227 109.330872,35.1979767 C109.330872,36.6079715 108.730422,36.8706674 107.649778,35.9334728 C106.825987,35.2190436 106.142631,35.0637216 104.580537,35.2358723 L103.374062,35.3688286 L103.591147,35.9148929 C103.772464,36.3710182 103.731602,36.5631102 103.343121,37.0811516 C102.71301,37.9213774 101.89373,38.2853508 100.632558,38.2853508 C100.051697,38.2853508 99.3248083,38.4058639 99.0172198,38.5531587 C98.7096313,38.7004504 97.9453997,38.8701462 97.3189153,38.9302552 C96.6924293,38.9903722 96.0246896,39.0976596 95.8350659,39.1686853 C95.5383306,39.2798179 95.5057519,39.1882304 95.6013306,38.5115622 C95.7476263,37.4760053 95.0261213,36.7121673 93.901721,36.7121673 C92.4428471,36.7121673 91.7699512,38.0204998 92.3412628,39.7462521 C92.4512165,40.0783991 92.5950892,40.6022163 92.660968,40.9102915 C92.7293338,41.2299055 93.3864697,42.078051 94.1913552,42.8855012 C94.9671821,43.6637932 95.7004071,44.4736358 95.8207742,44.6851463 C95.9411444,44.8966583 96.3390706,45.2360901 96.7050625,45.439437 L97.3705263,45.8091654 L97.282754,45.0953054 C97.1862844,44.3107485 97.3567959,44.187665 97.773153,44.7412946 C97.9219772,44.9392106 98.3000651,45.25911 98.6133073,45.4521785 C99.1067482,45.7563219 99.1828389,45.7625002 99.1828389,45.4984268 C99.1828389,45.3307947 99.28343,44.9445246 99.4063656,44.6400557 L99.629913,44.086471 L100.017773,44.8396745 C100.231091,45.2539371 100.924822,46.1954403 101.559384,46.9319097 C102.790653,48.3609221 103.54086,49.9578231 103.153662,50.3254845 C102.996616,50.4745913 102.572097,50.4630509 101.692241,50.2857593 C101.010189,50.1483244 100.166556,50.0756791 99.8174864,50.1243247 C99.1046371,50.2236667 99.0484919,50.1313962 99.4869072,49.5810441 C99.949615,49.0001581 99.876013,48.9043518 98.966997,48.9043518 C97.9153095,48.9043518 95.3043234,48.3988947 94.3020926,48.0012798 C93.3275513,47.6146408 93.1026972,47.7109121 92.815841,48.6376439 C92.6867335,49.0547238 92.4503449,49.8104737 92.2905442,50.3170886 L92,51.2382016 L93.0544,51.1363951 C93.6343305,51.0804006 94.3802096,50.9530999 94.7119275,50.8534997 C95.0436438,50.7539028 95.3451228,50.7009711 95.3818838,50.735873 C95.4186449,50.7707797 95.270793,51.1307042 95.0533359,51.5357065 L94.6579575,52.2720701 L95.3153413,52.1377123 C95.6769207,52.0638147 96.2208962,51.882997 96.5242001,51.7358914 C97.0519583,51.4799237 97.094333,51.4985116 97.5106101,52.1684114 C98.0225043,52.9922334 98.4320098,52.958385 98.5228657,52.0847389 C98.6168083,51.1815594 98.9131293,51.3151539 99.4705666,52.5119994 C100.006589,53.6628692 100.564275,54.0692024 100.671433,53.3869492 C100.70699,53.1604299 100.995754,52.7916974 101.313097,52.5675465 C101.955014,52.1141456 102.438744,52.2501742 102.716096,52.9620538 C103.00318,53.6989449 102.362902,54.4584904 100.500447,55.5903859 C96.769721,57.8577335 94.6010654,60.9586926 93.9819524,64.9111934 C93.4235411,68.476207 95.1676142,72.160135 98.6664505,74.8060752 C100.340813,76.0722916 103.000696,77.4086742 102.83168,76.8987625 C102.113863,74.7331766 102.13749,70.601189 102.871711,69.904052 C102.981892,69.7994328 102.943992,70.2305851 102.787485,70.8621804 C102.20453,73.214857 102.457776,75.0894644 103.952126,79.4831329 C105.303678,83.4568994 105.116602,85.1552895 103.203719,86.277835 C102.589348,86.6383705 102.193802,86.6977788 100.541931,86.677682 C98.7495591,86.6558535 98.5542625,86.6920334 97.9788069,87.1517425 C97.420933,87.5974818 96.697608,89.0609006 96.697608,89.7438594 C96.697608,90.1138138 97.1073597,90.0648476 97.9125747,89.5987325 C97.9125747,89.5987325 97.1073597,90.0648476 97.9125747,89.5987325 L97.9126754,89.5984615 L97.9126754,89.5984615 Z M113.511291,54.7515089 C113.511291,54.4716839 112.694593,53.7133259 111.867028,53.2246975 C111.217122,52.8409522 111.109759,52.8292923 111.1083,53.1422742 C111.106089,53.6174479 110.68615,54.8111894 110.521242,54.8111894 C110.428249,54.8111894 110.290742,54.5779091 110.215646,54.2927931 C110.140545,54.0076755 109.8255,53.4457658 109.515518,53.0441037 L108.951921,52.3138121 L108.513079,52.9904436 C108.103979,53.6212132 107.395307,54.2389915 107.080803,54.2389915 C107.005683,54.2389915 106.990993,53.9067989 107.048136,53.5007852 C107.110225,53.0596533 107.062357,52.7097228 106.929004,52.6312281 C106.806348,52.5589856 106.705992,52.5841888 106.705992,52.6872335 C106.705992,52.9249215 105.721843,54.0482573 105.513601,54.0482573 C105.427795,54.0482573 105.307683,53.7263948 105.246655,53.3330068 C105.185648,52.9396204 105.081947,52.3173535 105.016214,51.9501921 C104.950482,51.5830307 105.09063,51.8320177 105.327676,52.5034934 L105.758672,53.724359 L106.231302,52.980325 C106.491244,52.5711059 106.704389,52.123938 106.70495,51.9866182 C106.70495,51.8492968 106.793438,51.7884544 106.900342,51.8514088 C107.007226,51.9143617 107.156,52.4062608 107.23092,52.9445164 L107.367166,53.9231666 L107.88723,53.3494336 C108.173272,53.0338809 108.508456,52.6114186 108.63207,52.4106295 C108.852644,52.0523503 108.865133,52.0526536 109.303873,52.4270439 C109.549745,52.6368504 109.927759,53.1386924 110.143886,53.5422457 C110.360036,53.9457943 110.565795,54.2462002 110.601164,54.2098099 C110.636511,54.173418 110.715713,53.7574086 110.777181,53.2853439 C110.838629,52.8132792 110.893492,52.4095393 110.899075,52.3881418 C110.929658,52.2711696 112.465656,53.2757681 113.033958,53.7844299 C113.399223,54.1113766 113.746133,54.3331058 113.80484,54.2771564 C113.863566,54.2211992 113.911603,53.7388432 113.911603,53.2052441 C113.911603,52.3783514 113.824495,52.1567248 113.32184,51.704636 C112.743893,51.1848322 112.72772,51.1819767 112.514174,51.5622056 C112.237018,52.0556895 111.910043,52.0628157 111.910043,51.5753632 C111.910043,51.219591 110.817872,49.8521253 110.53373,49.8521253 C110.460072,49.8521253 110.230056,50.1525297 110.022553,50.5196926 C109.815052,50.8868525 109.591918,51.1869132 109.526687,51.1864963 C109.246527,51.18477 107.70683,49.4574371 107.70751,49.1457228 C107.70751,48.8977342 107.811271,48.9611475 108.081202,49.3752922 C108.286301,49.6900019 108.696041,50.1598177 108.99169,50.4193277 C109.590355,50.944802 109.807987,50.8170331 110.039006,49.8044421 C110.104817,49.5159574 110.219207,49.2799274 110.293184,49.2799274 C110.549123,49.2799274 111.889467,50.7122947 112.077972,51.1872584 L112.267221,51.6640916 L112.410571,51.1395753 C112.585849,50.4981801 112.779259,50.4743237 113.059116,51.0595953 C113.176011,51.3040906 113.753419,51.8124072 114.342217,52.189188 L115.412773,52.8742444 L115.627621,52.1852127 C115.745791,51.8062483 115.902332,51.5884772 115.97549,51.7012766 C116.084594,51.8694842 115.806318,53.0112392 115.596354,53.2569026 C115.56489,53.2937221 115.217982,53.0904167 114.825433,52.8051156 L114.111759,52.2863818 L114.108946,53.2150019 C114.106952,53.7257432 114.051902,54.3367421 113.985513,54.5727736 C113.855711,55.034278 113.511203,55.1641061 113.511203,54.7515058 C113.511203,54.7515058 113.511203,55.1641061 113.511203,54.7515058 L113.511291,54.7515089 L113.511291,54.7515089 Z M106.463864,47.7771006 C105.170273,46.6251024 104.973892,46.3614953 105.002545,45.8154952 L105.033031,45.2343659 L105.117422,45.7956534 C105.16671,46.1234006 105.511217,46.6145538 105.945407,46.9760992 L106.689019,47.5952609 L107.14596,47.0315228 C107.397301,46.7214667 107.606216,46.3521485 107.610246,46.2108221 C107.620822,45.8422951 107.682813,45.8732487 108.558623,46.6837913 C109.336766,47.4039555 109.348895,47.4073968 109.464626,46.9407572 C109.529136,46.6806232 109.506242,46.1908764 109.413752,45.8524314 C109.159499,44.9221274 109.209315,44.781728 109.594582,45.3428043 C109.786525,45.6223526 110.095173,46.0175387 110.280461,46.2209953 C110.602989,46.5751669 110.622669,46.5707869 110.742673,46.1182076 C110.811619,45.8582245 110.869271,45.3823604 110.870797,45.0607416 L110.873657,44.4759749 L111.575267,45.32428 C112.230623,46.1166722 112.291002,46.1459445 112.491023,45.7683825 C112.60881,45.5460714 112.706569,45.0112 112.70828,44.5797817 C112.710512,44.022467 112.765545,43.8818463 112.898431,44.0940546 C113.120349,44.4484207 112.966277,45.4132722 112.556489,46.2355217 L112.262428,46.8255401 L111.876286,46.1841312 C111.382551,45.3639837 111.218184,45.3771473 110.901376,46.2622143 C110.601964,47.0986264 110.407276,47.1622921 110.115537,46.5191751 C109.926748,46.1029755 109.890812,46.1539738 109.756806,47.0283245 L109.607862,48 L108.715471,47.2613149 L107.82306,46.5226299 L107.421877,47.0091281 C107.201223,47.2767046 107.017642,47.6112641 107.01392,47.7525904 C107.005795,48.0589018 106.791147,48.0684715 106.463958,47.7771006 C106.463958,47.7771006 106.791147,48.0684715 106.463958,47.7771006 L106.463864,47.7771006 L106.463864,47.7771006 Z M118.85565,43.1291799 C118.304833,42.6347478 117.925397,42.1630143 118.01243,42.0808819 C118.099463,41.9987513 118.197471,41.9752266 118.230204,42.028601 C118.262938,42.0819755 118.713173,42.5537108 119.230733,43.0768972 C120.422417,44.2815232 120.177435,44.3156701 118.85565,43.1291799 C118.85565,43.1291799 120.177435,44.3156701 118.85565,43.1291799 L118.85565,43.1291799 L118.85565,43.1291799 Z M103.283414,42.4990581 C102.874833,41.8234198 102.903057,41.3757913 103.400387,40.6434645 C103.759781,40.1142703 103.923947,40.0424581 104.551493,40.1399524 C104.954055,40.2024913 105.820292,40.6374895 106.476489,41.1066144 C107.234349,41.6484187 108.018237,42.0113756 108.625402,42.1015968 C109.151116,42.1797159 109.581261,42.2091675 109.581261,42.1670471 C109.581261,42.1249286 109.362879,41.6897801 109.095965,41.2000423 C108.462109,40.0370624 108.483813,39.912245 109.19873,40.6090095 C109.932597,41.3242455 110.810402,41.5334247 112.772011,41.4605088 L113.730373,41.4248841 L113.1744,40.7527072 C112.396838,39.8126661 112.636146,39.7283868 113.49483,40.6398545 C114.30017,41.4947016 114.249738,41.5548974 112.554676,41.7618123 C111.834396,41.8497381 111.059805,41.785958 110.415991,41.5857185 C109.452736,41.2861128 109.415347,41.2906742 109.59782,41.6855853 C109.702992,41.9131882 109.873315,42.0994059 109.976313,42.0994059 C110.079332,42.0994059 110.163617,42.214741 110.163617,42.3557033 C110.163617,42.7891889 108.083094,42.407999 107.088896,41.7923584 C104.817629,40.3859186 104.531809,40.26413 103.991207,40.4724768 C103.690381,40.5884114 103.389286,40.9277614 103.285529,41.2678192 C102.939376,42.4021871 104.254803,43.2839135 104.797365,42.2811978 C104.954618,41.9905537 104.917891,41.7917607 104.641505,41.4380479 C104.263013,40.9536031 104.298519,40.8845795 104.809477,41.1116801 C105.172246,41.2729178 105.221047,42.3380825 104.88359,42.7289601 C104.497468,43.1761797 103.616325,43.049582 103.283414,42.4990581 C103.283414,42.4990581 103.616325,43.049582 103.283414,42.4990581 L103.283414,42.4990581 L103.283414,42.4990581 Z M112.113223,39.9283222 C111.819616,39.6297663 112.04979,39.5566393 113.366109,39.530287 C114.994581,39.4976869 115.98356,39.2063255 117.150459,38.4153981 C118.085439,37.7816628 118.33893,37.9063697 117.45147,38.5634756 C116.641871,39.1629169 115.379152,39.6237431 114.160116,39.7646343 C113.569794,39.8328628 112.897035,39.9273771 112.665074,39.9746642 C112.433136,40.021953 112.1848,40.0010981 112.113223,39.9283222 C112.113223,39.9283222 112.1848,40.0010981 112.113223,39.9283222 L112.113223,39.9283222 L112.113223,39.9283222 Z M127.386008,89.4922761 L128.10499,89.006718 L128.592916,89.4922761 C129.232145,90.1284284 129.980994,90.1142005 130.595586,89.454237 C130.863781,89.1662446 131.104624,88.9666909 131.130766,89.0107792 C131.156908,89.0548691 131.276507,89.2683197 131.396523,89.4851195 C131.548445,89.7595526 131.860801,89.8975357 132.424616,89.9393386 C133.103931,89.9896964 133.286351,89.9206156 133.556268,89.5106455 L133.878032,89.021915 L134.585788,89.4998842 C136.523463,90.8084955 137.555834,89.4355718 136.689899,86.7016863 C136.249587,85.3115969 136.491696,84.5301233 137.91083,82.7608468 C138.509263,82.014775 138.999405,81.2184419 139,80.9912552 C139,80.62902 138.889293,80.5804944 138.092852,80.5970703 C137.330697,80.6130451 137.107716,80.5270237 136.706536,80.0629705 C136.054016,79.3081881 136.092794,78.4437804 136.822194,77.4845698 L137.404905,76.7182755 L136.371086,75.9810317 C135.802478,75.5755342 134.777098,74.6161886 134.092456,73.8491245 C132.554851,72.1264241 131.042914,71.3094957 129.04929,71.1242277 L127.712525,71 L127.714498,72.0632351 C127.717067,73.4320011 128.328359,74.7487332 129.997048,76.9790865 C131.894323,79.5149756 132.026795,79.907563 132.103615,83.2221196 L132.168574,86.0253445 L131.619574,86.5726886 C131.123489,87.0672499 130.899798,87.1303617 129.299077,87.2273711 C127.775097,87.3197279 127.454938,87.4023503 127.007752,87.8186461 C126.413795,88.3715685 126.236186,88.6723134 126.052799,89.4358482 C125.945913,89.8808232 125.989224,89.9778518 126.294828,89.9778518 C126.499548,89.9778518 126.990602,89.7593356 127.38604,89.4922761 C127.38604,89.4922761 126.990602,89.7593356 127.38604,89.4922761 L127.386008,89.4922761 L127.386008,89.4922761 Z M85.4441099,81.5917755 C85.6316995,81.3671632 85.7852158,81.0044593 85.7852158,80.7857624 C85.7852158,80.4553444 85.9519664,80.36718 86.7719845,80.2640609 L87.7587516,80.1399756 L87.1006649,79.6756044 C86.3188203,79.1239349 86.2464888,78.6929509 86.9356013,78.6919949 C87.6219335,78.6919949 88.7842826,78.0609292 88.9610018,77.5940408 C89.0431326,77.3770325 88.9914827,77.0870947 88.8441682,76.9382392 C88.459413,76.549481 87.7360309,76.6080984 87.6016648,77.0389326 C87.4572422,77.5020722 87.2154391,77.5032858 86.6672651,77.0435175 C85.8426494,76.3519958 85.8241321,74.9206106 86.6290307,74.0870508 C87.0083727,73.6942141 87.0049968,73.6684534 86.5213754,73.2629005 C86.0011187,72.8266259 85.6295758,71.963134 85.8739595,71.7581992 C85.9517262,71.6929861 86.3627556,71.744954 86.7873646,71.873741 C87.3907183,72.0566984 87.6289019,72.0594748 87.8774736,71.8864168 C88.6304144,71.3624018 87.8146707,70.6885949 86.6072069,70.8372092 C86.1212587,70.8970223 85.9205007,70.8372092 85.8507126,70.6140098 C85.7979256,70.4447231 85.3728749,70.2236888 84.8939865,70.1165107 C84.0382756,69.9249709 84.0322397,69.9273022 84.0322397,70.4493349 C84.0322397,71.0213832 83.6634534,71.1292985 82.9626887,70.7623154 C82.3932747,70.4641069 81.8410276,70.695613 81.8410276,71.2325286 C81.8410276,71.7334828 82.4099797,71.9805326 83.4296593,71.9223586 C84.2117594,71.877725 84.2408578,72.3926991 83.4980683,73.1329508 L82.9638969,73.665289 L83.3870642,74.2036009 C84.0137918,75.0008519 83.9610352,76.3249661 83.276341,76.9825851 L82.7395688,77.4981481 L82.3874367,77.0847154 C81.8980738,76.5101664 81.2287106,76.5486794 81.0451584,77.1619435 C80.9249676,77.5635259 81.0243194,77.7470377 81.5922444,78.1725618 C81.9739114,78.458532 82.5311402,78.6925164 82.8305326,78.6925164 C83.5714286,78.6925164 83.5424605,79.2084299 82.7722935,79.729616 L82.1697114,80.1373925 L83.1009772,80.2652985 C83.6131725,80.3356568 84.0322397,80.4680113 84.0322397,80.5593881 C84.0322397,80.9098536 84.6776487,82 84.8851128,82 C85.0049483,82 85.2564999,81.816232 85.4441099,81.5916197 C85.4441099,81.5916197 85.2564999,81.816232 85.4441099,81.5916197 L85.4441099,81.5917755 L85.4441099,81.5917755 Z M95.5473153,77.717647 C96.3224516,77.3975289 98,75.9091557 98,75.5415482 C98,75.4258991 97.5369608,74.8923463 96.9710391,74.3558438 C95.7800797,73.226853 94.48461,71.3254959 94.1489428,70.2138147 C93.9739331,69.6341659 93.1282137,68.6418987 90.7460485,66.2212317 L87.5760411,63 L86.6624098,63.2424551 C86.1599058,63.3758116 85.5468083,63.4881553 85.2999722,63.4921006 C84.8745732,63.4988737 84.8822826,63.5244685 85.4478401,63.9830464 L86.0445158,64.4668423 L86.881022,63.9804168 C87.6918513,63.5089115 87.7207186,63.5060025 87.82071,63.8854621 C87.8792677,64.1075996 87.7529577,64.4925767 87.5287863,64.775386 C87.3114593,65.0495121 87.1876606,65.3604906 87.2536441,65.4664413 C87.3196291,65.5723677 87.1108549,65.7938879 86.7897027,65.95868 C86.1944548,66.2641181 85.7812981,67.2695563 86.2510422,67.2695563 C86.6736522,67.2695563 87.6055518,66.0648679 87.4981734,65.6574031 C87.4431689,65.4487517 87.4697681,65.2341426 87.5572706,65.180481 C87.9202192,64.957905 87.8975343,65.9037222 87.5287863,66.3689124 C87.3114593,66.6430385 87.1876606,66.9540137 87.2536441,67.0599645 C87.3196291,67.1658941 87.1108549,67.3874143 86.7897027,67.5522048 C86.1983087,67.8556549 85.7809974,68.8630795 86.2466673,68.8630795 C86.7030621,68.8630795 87.6196653,67.7118967 87.5061619,67.2812671 C87.4467825,67.0559218 87.4697681,66.8276674 87.5572706,66.7740058 C87.8017193,66.624095 87.9335901,67.370761 87.7272436,67.7365949 C87.6167136,67.9325789 87.6177166,68.2000943 87.729848,68.4122524 C87.9328615,68.7965896 87.7270266,69.5347105 87.3528867,69.7641603 C87.1925129,69.8625015 87.3011175,70.0554757 87.6901197,70.3632658 C88.2530107,70.808676 88.2639322,70.8554476 88.2639322,72.8207819 C88.2639322,74.4631865 88.3272244,74.887087 88.6152337,75.1729856 C88.9384353,75.4938426 88.9665399,75.4949975 88.9665399,75.1873438 C88.9665399,74.8512904 89.5295689,74.4404992 89.9901385,74.4404992 C90.1260027,74.4404992 90.974835,75.1941786 91.8764038,76.115335 C92.7834481,77.0420902 93.7325942,77.8307054 94.0013292,77.880922 C94.2684643,77.9308397 94.5576766,77.9838841 94.6440366,77.9988011 C94.7303779,78.0137441 95.1368871,77.8872354 95.5473897,77.7177022 C95.5473897,77.7177022 95.1368871,77.8872354 95.5473897,77.7177022 L95.5473153,77.717647 L95.5473153,77.717647 Z M87,69.486536 C87,68.8826688 85.7411663,68.2380938 84.2355202,68.0709814 C83.0198931,67.9360574 83,67.9436914 83,68.5445576 C83,69.0419453 83.1911581,69.2376133 84.0303007,69.5991249 C85.3786665,70.1799993 87,70.1185457 87,69.486536 C87,69.486536 87,70.1185457 87,69.486536 L87,69.486536 L87,69.486536 Z M88.1854254,69.3496938 C88.9011401,68.7332144 89.2402486,68 88.8096458,68 C88.3144173,68 87,69.1196873 87,69.5415475 C87,70.1999954 87.2441381,70.1604692 88.1854254,69.3496938 C88.1854254,69.3496938 87.2441381,70.1604692 88.1854254,69.3496938 L88.1854254,69.3496938 L88.1854254,69.3496938 Z M86.9934247,67.4978428 C87.0389458,67.1729376 86.8525925,66.9560957 86.2939764,66.6840518 C85.0889817,66.0971793 83.6483219,65.8253739 83.3013851,66.1194487 C82.6623339,66.6611093 83.0881382,67.3883698 84.1209266,67.5192025 C84.5367299,67.5718676 85.1005455,67.7086165 85.3738275,67.8230942 C86.1676091,68.1555585 86.922486,68.0039722 86.9934247,67.4978428 C86.9934247,67.4978428 86.922486,68.0039722 86.9934247,67.4978428 L86.9934247,67.4978428 L86.9934247,67.4978428 Z M85.9927241,65.5738615 C86.0501958,65.1709898 85.8067168,65.0268181 83.8187832,64.2865693 C82.3347147,63.7339536 81.6777813,63.9945377 82.1520673,64.9477295 C82.3172851,65.2797768 82.5945972,65.4314618 83.2165,65.5299855 C83.679056,65.6032759 84.3112289,65.74656 84.6213334,65.8484188 C85.449798,66.1205102 85.9284091,66.0246982 85.9927241,65.5738615 C85.9927241,65.5738615 85.9284091,66.0246982 85.9927241,65.5738615 L85.9927241,65.5738615 L85.9927241,65.5738615 Z M88.2142327,64.2672251 C88.6464254,63.8510717 89,63.3599238 89,63.1758321 C89,62.5786304 87.2931717,63.6351616 87.0755999,64.3670209 C86.8146451,65.244866 87.2376818,65.2078108 88.2143143,64.2672251 C88.2143143,64.2672251 87.2376818,65.2078108 88.2143143,64.2672251 L88.2142327,64.2672251 L88.2142327,64.2672251 Z M86.9953469,64.5205823 C87.0698808,63.9851713 86.2475796,63.501656 84.6305103,63.1300079 C83.4440949,62.8573392 82.9208044,63.0119852 83.0096524,63.6089783 C83.0581521,63.9348594 83.4532687,64.1729508 84.5741868,64.5517594 C86.368024,65.1579338 86.9075974,65.1509918 86.9953469,64.5205823 C86.9953469,64.5205823 86.9075974,65.1509918 86.9953469,64.5205823 L86.9953469,64.5205823 L86.9953469,64.5205823 Z M88.3426141,61.5274591 C90.4067837,60.7103268 90.5853483,58.6498016 88.6388775,58.1088015 C87.8306956,57.8841723 87.3147855,58.0052063 87.005418,58.4920038 C86.7685487,58.8647507 86.9269687,59.5424605 87.2509745,59.5424605 C87.3604361,59.5424605 87.4500052,59.6679073 87.4500052,59.8212307 C87.4500052,60.5367053 84.2983788,60.8608877 83.0058923,60.2783387 C82.5518303,60.0736808 82.3541379,59.5424605 82.732043,59.5424605 C83.0144311,59.5424605 83.2096778,59.0011585 83.0653853,58.6182889 C82.8688037,58.0966695 82.2776069,57.9159517 81.420081,58.1153555 C79.4852342,58.5652734 79.5395505,60.58703 81.5095347,61.4449608 C83.1248898,62.1484499 86.6659415,62.1912094 88.3426141,61.5274591 C88.3426141,61.5274591 86.6659415,62.1912094 88.3426141,61.5274591 L88.3426141,61.5274591 L88.3426141,61.5274591 Z M87.173756,60.6224856 C87.2896899,60.512141 87.23931,60.3425809 87.0449497,60.1890664 C86.6193242,59.8528891 86.6420302,59.3528831 87.1088877,58.7805011 C87.4594804,58.350664 87.5032795,57.7074224 87.6239513,51.2189405 C87.8318712,40.0371851 88.6593181,31.626414 89.7499497,29.6087012 C90.1841413,28.8054009 90.1232468,28.8022043 89.0012584,29.5693479 C87.5559772,30.5575888 86.4555151,31.8444496 85.4805073,33.6865304 C83.6396611,37.1643666 83,41.8433519 83,51.8308701 C83,57.5020382 83.0384443,58.2440236 83.3598845,58.7770668 C83.6652363,59.2834258 83.6814637,59.4704385 83.4669774,60.0112483 C83.3279427,60.3618118 83.2648535,60.6968615 83.326779,60.755799 C83.7377515,61.146935 86.7317815,61.0431763 87.1737991,60.6224856 C87.1737991,60.6224856 86.7317815,61.0431763 87.1737991,60.6224856 L87.173756,60.6224856 L87.173756,60.6224856 Z M103.984393,49.8514767 C104.049254,49.7508573 103.90594,49.2428667 103.665932,48.7226034 C103.29175,47.9114142 103.141029,47.7766759 102.607947,47.7766759 C100.938021,47.7766759 98.2534617,47.0211337 95.4858876,45.7722536 C93.8877168,45.0510661 93.335734,44.8853304 93.1440391,45.0691113 C92.6550576,45.5379688 93.4677471,46.6508336 94.7263071,47.2358218 C95.8428146,47.7547696 98.9640626,48.3924239 100.387817,48.3924239 C101.213799,48.3924239 101.233322,48.4301612 100.763282,49.1180164 L100.417549,49.6239216 L101.351955,49.6482028 C101.865855,49.6615752 102.575322,49.7429945 102.928526,49.8291704 C103.845873,50.0529865 103.854458,50.0531673 103.984458,49.8514767 C103.984458,49.8514767 103.854458,50.0531673 103.984458,49.8514767 L103.984393,49.8514767 L103.984393,49.8514767 Z M103.984393,49.8514767" fill="#000000" id="path3768" stroke="#000000" stroke-width="2"/><path d="M97.9126754,89.5984615 L98.6098863,89.1948623 L98.9081554,89.5991895 C99.3055234,90.1378873 100.405073,90.1317924 101.134675,89.5867944 L101.692569,89.1701186 L102.15971,89.5867944 C102.773895,90.1346771 103.920912,90.1354035 104.653309,89.5887507 C105.166055,89.2057998 105.237546,89.1981078 105.576573,89.4894231 C105.778684,89.663102 106.371475,89.8608319 106.893892,89.9288126 C107.83476,90.0512675 107.849007,90.0445424 108.399487,89.2165353 C108.860518,88.5230944 108.932631,88.2424375 108.822618,87.5698823 C108.749699,87.1240018 108.671143,86.4063544 108.648052,85.9751252 C108.606279,85.194314 108.610773,85.189457 109.745177,84.793428 C110.371663,84.5747162 111.096853,84.281374 111.356706,84.1415579 C111.809765,83.897793 113.058823,82.4259221 113.058823,82.1358271 C113.058823,82.0589582 112.570847,81.9412032 111.974451,81.8741269 C109.602193,81.6073548 109.200435,80.3301448 110.742606,77.9578413 C113.257641,74.0889264 114.77531,70.3211511 114.785457,67.920961 C114.790015,66.8481258 114.850942,66.4879062 114.98844,66.7212099 C115.550371,67.6746385 114.543686,71.6722796 113.018748,74.5430457 L112.404729,75.6990034 L112.990646,75.5637686 C113.312894,75.4893948 115.207512,74.6879545 117.200876,73.7828043 C122.657057,71.3051954 124.531111,70.8196731 128.062192,70.9687895 C131.020488,71.0937202 132.280315,71.6731631 134.369008,73.8696037 C135.475518,75.0331909 136.541435,75.8657392 138.491326,77.0894611 C142.645578,79.6966044 142.818819,79.9224342 143.016395,82.9884528 C143.21656,86.0949231 143.116944,86.26345 140.77339,86.7825609 C138.770438,87.2262382 137.51465,88.1624402 137.177861,89.4630727 C136.998014,90.1576729 137.376492,90.1776735 138.386345,89.5269644 L139.126447,89.0500721 L139.455534,89.5269644 C139.888171,90.1539368 140.807789,90.156435 141.571418,89.5326729 L142.148262,89.0615436 L142.737924,89.5326729 C143.654128,90.2646765 144.872533,90.087162 145.216385,89.1715682 C145.282494,88.9955882 145.458904,89.0519675 145.816135,89.36324 C146.485491,89.9464992 148.201337,90.1966766 148.386673,89.7380739 C148.457398,89.5630946 148.323051,89.130961 148.088134,88.7777808 C147.089837,87.2769635 146.777547,86.561221 146.764541,85.7442668 C146.746523,84.6079745 147.084638,84.0597198 148.373709,83.135613 C149.939605,82.0130274 150.423504,80.5647136 149.23266,80.5647136 C148.497411,80.5647136 147.756189,79.9131387 147.2835,78.8512586 C146.322625,76.6927313 146.510943,74.272879 147.953082,70.2472952 C149.417897,66.1583698 149.580391,65.4044221 149.586245,62.6697343 C149.591043,60.4586072 149.535465,60.0762336 149.033701,58.8640233 C148.726921,58.1228412 148.104454,57.0192235 147.650443,56.4115461 L146.824953,55.3066776 L147.884801,54.4263481 C151.120949,51.7383656 150.458946,47.3391473 146.563258,45.6441374 C145.371485,45.1255925 145.073712,45.0798027 142.985164,45.0938783 C141.732194,45.1023288 139.82167,45.267639 138.73956,45.4612527 C137.636241,45.6586539 135.768693,45.817308 134.487617,45.8224649 C132.452499,45.8306748 132.107032,45.7803745 131.322733,45.3618242 C130.504947,44.9253996 130.364739,44.7181961 130.204626,43.7094867 C130.171719,43.5021358 130.027121,43.2952884 129.883328,43.2498225 C129.605167,43.1618847 128.320595,44.2796421 128.130804,44.774755 C128.037173,45.0190555 127.960751,45.0021642 127.686052,44.6764296 C127.503616,44.4601199 127.2489,43.9630748 127.119997,43.5718915 C126.795862,42.5880862 127.193894,41.850605 128.347309,41.2979166 L129.242179,40.8691247 L128.714504,40.5408213 C127.625617,39.8633769 125.774121,40.3268014 125.104516,41.4444032 C124.9151,41.760536 124.708495,42.0197556 124.645412,42.0204387 C124.582327,42.0209197 124.222301,41.7195376 123.845331,41.3502486 C122.439435,39.9729445 122.923042,37.9352734 124.803474,37.313158 C125.806202,36.9814135 126.693572,37.2344772 126.878206,37.9048485 C127.160072,38.9283069 128.036284,37.5830056 127.879135,36.3680469 C127.774649,35.560292 127.790349,35.5322948 128.347826,35.5322948 C129.123075,35.5322948 130.773166,36.5524244 131.28353,37.3472245 C131.876321,38.2704093 131.83318,39.7241702 131.180847,40.8076206 L130.668621,41.658367 L131.338659,41.5238393 C132.321196,41.3265728 133.275753,40.7148177 133.758657,39.9729156 C134.269162,39.1885848 134.324066,37.6613786 133.871362,36.837191 C133.432675,36.0384928 133.482982,35.9117003 134.131523,36.1816008 C135.234574,36.6406573 135.824301,37.1469338 136.266649,38.0145684 C136.665011,38.7959391 136.687254,38.9901109 136.471597,39.8033593 C136.338535,40.3051091 136.042481,40.9652516 135.813675,41.2703363 C135.457435,41.7453861 135.445279,41.8250322 135.729115,41.8250322 C136.257724,41.8250322 137.361479,41.3234348 137.7535,40.9050544 C137.951554,40.6936803 138.240296,40.173216 138.395167,39.7484601 L138.676766,38.9761812 L139.000321,39.5648555 C139.457872,40.3972738 140.34738,41.1463388 141.431894,41.6124763 C142.598298,42.113814 143.084055,42.1420614 142.474097,41.673076 C142.06277,41.3568117 141.304835,39.1270471 141.534534,38.908943 C141.669691,38.7806128 143.253382,40.0023031 145.061534,41.62973 C146.771996,43.1692448 147.846818,43.6735105 149.417801,43.6735217 C151.424617,43.6735345 152.593102,41.922054 151.691149,40.265913 C151.165282,39.3003492 149.993791,39.1662127 149.308757,39.9931358 C148.99375,40.3733832 148.907273,40.6758653 148.999539,41.0747005 C149.112549,41.5632808 149.068455,41.6283863 148.624469,41.6283863 C148.041142,41.6283863 146.891265,40.8801199 144.84909,39.1716005 C141.734966,36.5662931 137.951037,34.3579529 135.218812,33.551282 C133.465377,33.0335966 129.71978,32.8315741 127.93735,33.158553 C126.008209,33.5124483 123.726414,34.6193243 122.483341,35.804227 C120.280678,37.9038431 120.245742,40.6978638 122.390353,43.2421209 L123.004684,43.97094 L122.588776,44.6186585 C121.983726,45.5609523 122.035542,46.8290144 122.717266,47.7630693 C123.017522,48.174468 123.32041,48.5108948 123.390349,48.5106767 C123.460286,48.5105163 123.536976,48.2459731 123.560752,47.9229196 C123.620958,47.1056801 123.970795,46.5581261 124.571267,46.3413497 C125.112097,46.1461069 125.461726,46.2383213 127.938053,47.2293136 C130.543157,48.2718329 134.827511,48.3434936 139.383172,47.4207417 C141.616527,46.9683718 144.250004,46.9949804 145.408596,47.481614 C147.532437,48.3736651 148.024574,50.6944528 146.463454,52.45609 C145.787637,53.2187029 145.135864,53.5292667 142.947552,54.131404 C141.282343,54.589601 140.887917,54.6200195 137.103033,54.5821351 C133.869456,54.5497699 132.70736,54.6120277 131.387412,54.888347 C129.954427,55.1883212 129.073059,55.2185698 124.863676,55.1122189 L119.996763,54.989254 L120.536471,55.4373152 C120.833312,55.6837468 121.252695,55.9869505 121.468433,56.1111004 C121.835522,56.3223462 121.823284,56.3507283 121.277672,56.5535573 C120.957014,56.672762 120.245328,56.7702904 119.696132,56.7702904 L118.697627,56.7702904 L118.563258,57.6210641 C118.489344,58.0889928 118.494958,58.6353056 118.575669,58.8350928 C118.694755,59.1297643 118.650371,59.1720808 118.340627,59.0592196 C118.130626,58.9827019 117.54575,58.8322033 117.040914,58.724778 C116.536081,58.6173511 115.856536,58.3986009 115.530805,58.2386656 C114.98306,57.9697112 114.922192,57.9769398 114.720432,58.3349016 C114.540273,58.6545621 112.848886,59.9166591 112.600654,59.9166591 C112.560597,59.9166591 112.508887,59.6733062 112.485752,59.3758784 C112.462619,59.0784473 112.218609,58.3041464 111.943515,57.6552076 C111.668401,57.0062687 111.381148,56.2983321 111.30516,56.0820224 C111.190532,55.755717 111.138631,55.7389684 111.00039,55.983697 C110.908747,56.1459317 110.774937,56.5883887 110.703051,56.9669395 C110.631165,57.3454856 110.376306,57.9604429 110.136688,58.3335114 L109.701028,59.011812 L109.423157,58.4318319 C109.124866,57.8092275 108.629645,57.1635887 108.450355,57.1635887 C108.38984,57.1635887 108.286765,57.3626944 108.221321,57.6060457 C108.084652,58.1142319 106.910339,59.5233656 106.623523,59.5233656 C106.517901,59.5233656 106.431496,59.1251526 106.431496,58.6384485 C106.431496,58.1517444 106.338302,57.7535313 106.224394,57.7535313 C106.110489,57.7535313 106.017291,57.8794787 106.017291,58.0334152 C106.017291,58.4075965 105.014398,59.5233656 104.678063,59.5233656 C104.531289,59.5233656 104.295171,59.6561022 104.153369,59.8183353 C103.783629,60.2413418 103.481176,60.1819832 103.636626,59.7169264 C103.709505,59.4989154 103.662118,58.9900877 103.531315,58.5861982 C103.400508,58.1823088 103.261419,57.7524425 103.222235,57.6309417 C103.172861,57.4779207 102.813476,57.5185103 102.052851,57.7630096 C100.823714,58.1581023 100.411725,58.0882038 101.043864,57.5918274 C101.274951,57.4103714 101.626424,56.7818308 101.824952,56.1950664 C102.023461,55.6083035 102.316368,55.0876756 102.475856,55.0381144 C102.699174,54.9687115 102.687289,55.0544766 102.424081,55.4112791 C102.236114,55.6660858 102.081761,56.0097299 102.081057,56.1749391 C102.081057,56.3401484 101.9389,56.7318367 101.766694,57.0453574 C101.594509,57.3588813 101.486257,57.6463931 101.526164,57.6842791 C101.566054,57.7221635 102.033715,57.5440493 102.565386,57.2884697 L103.532059,56.8237834 L103.535993,57.2394955 C103.538264,57.4681361 103.654684,58.0713173 103.794872,58.5798981 L104.049754,59.5045838 L104.707781,59.201364 C105.380285,58.8914705 106.017231,57.7867255 106.017231,56.9301856 C106.017231,56.5067638 106.259145,56.5717603 106.358204,57.0217907 C106.387282,57.1538554 106.53913,57.6495215 106.695656,58.1232693 L106.980258,58.9846261 L107.430789,58.4407779 C107.678585,58.1416599 107.98924,57.5549419 108.121122,57.1369593 C108.350075,56.411352 108.709566,56.0993964 108.709566,56.6263196 C108.709566,57.006033 109.743091,58.3678488 109.942468,58.2508442 C110.038834,58.1943014 110.230712,57.6831855 110.368872,57.1150313 C110.656227,55.9334768 111.119805,55.1298911 111.414367,55.3027506 C111.525125,55.3677487 111.568264,55.4938933 111.510214,55.5830723 C111.452163,55.6722481 111.690207,56.4404348 112.039196,57.2901534 C112.388184,58.1398736 112.738624,58.9953953 112.817967,59.1913164 C112.945435,59.5061151 113.060648,59.4603863 113.808723,58.7980198 C114.27429,58.3857857 114.696864,57.9243175 114.747749,57.7725361 C114.824668,57.5430808 114.928528,57.5514752 115.363878,57.8223346 C115.972697,58.2011131 118.019596,58.8114235 118.17768,58.6613113 C118.23689,58.6050939 118.297592,58.066122 118.312586,57.4635918 L118.339842,56.3680894 L118.928468,56.4904738 C119.25221,56.5577858 119.932936,56.5536487 120.441189,56.4812537 L121.365278,56.3496748 L120.541737,55.7832075 C120.088761,55.4716527 119.630773,55.0684688 119.52397,54.887247 C119.410189,54.6941897 119.007063,54.5302569 118.550402,54.4913494 C117.316546,54.3862268 115.129749,53.1565238 115.129749,52.5678111 C115.129749,52.4572894 115.432637,52.6452139 115.802832,52.9854185 C116.624077,53.7401358 117.765007,54.2138499 118.761481,54.2138499 L119.507113,54.2138499 L119.045854,53.5987819 C118.780885,53.2454655 118.543258,52.5752321 118.487463,52.0238554 C118.398533,51.144969 118.306001,51.0052235 117.390668,50.367227 C116.840874,49.9840035 116.159858,49.4096053 115.877328,49.0907834 L115.363628,48.5111096 L115.101543,49.1993504 C114.957379,49.5778836 114.781194,49.8875927 114.710035,49.8875927 C114.638873,49.8875927 114.361751,49.6663618 114.094234,49.3959723 C113.826701,49.1255811 113.554173,48.9053668 113.488607,48.9066063 C113.423017,48.9077288 113.186029,49.2720565 112.961963,49.7159583 L112.554551,50.5230541 L112.239734,50.0578369 C112.066574,49.8019655 111.657567,49.3492686 111.330844,49.0518375 C111.004118,48.754408 110.832263,48.5110551 110.948964,48.5110551 C111.065646,48.5110551 111.468918,48.8208973 111.845121,49.1995925 L112.529078,49.8881299 L112.807445,49.383675 C112.972629,49.0843181 113.034532,48.6244791 112.959705,48.2526774 C112.850624,47.7107437 112.865951,47.6792461 113.073199,48.0194347 C113.204999,48.235746 113.605121,48.6504591 113.962395,48.9410144 L114.611994,49.4692974 L115.060267,48.6460414 C115.506407,47.8267398 115.509533,47.8251475 115.712517,48.314406 C115.983966,48.9687165 117.948438,50.5832208 119.620917,51.5265104 C119.878697,51.6719003 119.770009,51.1719416 119.293942,50.022276 C119.167858,49.7178071 119.0647,49.168903 119.0647,48.8024923 C119.0647,48.2589006 118.908295,48.016962 118.214873,47.4879206 C117.213804,46.7241387 116.890058,46.1809928 116.70141,44.9487787 C116.624989,44.4496394 116.449801,43.8944928 116.312077,43.7151215 C116.107793,43.4490116 116.074033,43.5979357 116.12869,44.5243259 C116.165532,45.1487567 116.084535,45.9251325 115.948675,46.249602 L115.701683,46.8395446 L115.510755,46.3479241 C115.405753,46.077533 114.941305,45.6073097 114.478618,45.3029835 C114.015949,44.9986573 113.691214,44.698558 113.757011,44.6360966 C113.822786,44.5736353 114.29877,44.8509921 114.814726,45.2524426 C115.600762,45.8640213 115.7739,45.9302381 115.882774,45.66087 C116.010682,45.3443556 115.882614,43.9672776 115.635495,43.0049063 C115.512164,42.5243676 115.522955,42.5269541 116.114212,43.1196515 C116.550288,43.5567881 116.791417,44.0781648 116.978224,44.987808 C117.215542,46.1434242 117.335268,46.3358032 118.401041,47.2740241 C119.04107,47.8374576 119.598052,48.2668091 119.638789,48.228139 C119.679505,48.1894688 119.760277,46.7319606 119.818264,44.9892287 C119.929477,41.64729 119.803774,40.8521436 119.001037,39.8196461 L118.58859,39.2891326 L119.236966,38.587942 C120.082797,37.6732269 120.471156,36.9400094 120.639614,35.9397072 L120.776651,35.1259648 L120.044937,35.8207415 C119.44579,36.3896429 119.159657,36.5155197 118.465696,36.5155197 C117.778529,36.5155197 117.510105,36.4000657 117.047043,35.9053457 C116.491449,35.3117775 115.506944,34.7406472 114.560217,34.4626939 C114.210481,34.3600198 114.094234,34.4047432 114.094234,34.6419466 C114.094234,34.8157763 113.90105,35.3175501 113.664933,35.7569973 L113.23565,36.5559906 L112.336203,35.6646482 C111.78448,35.1179217 111.129726,34.6923624 110.642682,34.5639457 C109.398265,34.2358443 109.330872,34.2684227 109.330872,35.1979767 C109.330872,36.6079715 108.730422,36.8706674 107.649778,35.9334728 C106.825987,35.2190436 106.142631,35.0637216 104.580537,35.2358723 L103.374062,35.3688286 L103.591147,35.9148929 C103.772464,36.3710182 103.731602,36.5631102 103.343121,37.0811516 C102.71301,37.9213774 101.89373,38.2853508 100.632558,38.2853508 C100.051697,38.2853508 99.3248083,38.4058639 99.0172198,38.5531587 C98.7096313,38.7004504 97.9453997,38.8701462 97.3189153,38.9302552 C96.6924293,38.9903722 96.0246896,39.0976596 95.8350659,39.1686853 C95.5383306,39.2798179 95.5057519,39.1882304 95.6013306,38.5115622 C95.7476263,37.4760053 95.0261213,36.7121673 93.901721,36.7121673 C92.4428471,36.7121673 91.7699512,38.0204998 92.3412628,39.7462521 C92.4512165,40.0783991 92.5950892,40.6022163 92.660968,40.9102915 C92.7293338,41.2299055 93.3864697,42.078051 94.1913552,42.8855012 C94.9671821,43.6637932 95.7004071,44.4736358 95.8207742,44.6851463 C95.9411444,44.8966583 96.3390706,45.2360901 96.7050625,45.439437 L97.3705263,45.8091654 L97.282754,45.0953054 C97.1862844,44.3107485 97.3567959,44.187665 97.773153,44.7412946 C97.9219772,44.9392106 98.3000651,45.25911 98.6133073,45.4521785 C99.1067482,45.7563219 99.1828389,45.7625002 99.1828389,45.4984268 C99.1828389,45.3307947 99.28343,44.9445246 99.4063656,44.6400557 L99.629913,44.086471 L100.017773,44.8396745 C100.231091,45.2539371 100.924822,46.1954403 101.559384,46.9319097 C102.790653,48.3609221 103.54086,49.9578231 103.153662,50.3254845 C102.996616,50.4745913 102.572097,50.4630509 101.692241,50.2857593 C101.010189,50.1483244 100.166556,50.0756791 99.8174864,50.1243247 C99.1046371,50.2236667 99.0484919,50.1313962 99.4869072,49.5810441 C99.949615,49.0001581 99.876013,48.9043518 98.966997,48.9043518 C97.9153095,48.9043518 95.3043234,48.3988947 94.3020926,48.0012798 C93.3275513,47.6146408 93.1026972,47.7109121 92.815841,48.6376439 C92.6867335,49.0547238 92.4503449,49.8104737 92.2905442,50.3170886 L92,51.2382016 L93.0544,51.1363951 C93.6343305,51.0804006 94.3802096,50.9530999 94.7119275,50.8534997 C95.0436438,50.7539028 95.3451228,50.7009711 95.3818838,50.735873 C95.4186449,50.7707797 95.270793,51.1307042 95.0533359,51.5357065 L94.6579575,52.2720701 L95.3153413,52.1377123 C95.6769207,52.0638147 96.2208962,51.882997 96.5242001,51.7358914 C97.0519583,51.4799237 97.094333,51.4985116 97.5106101,52.1684114 C98.0225043,52.9922334 98.4320098,52.958385 98.5228657,52.0847389 C98.6168083,51.1815594 98.9131293,51.3151539 99.4705666,52.5119994 C100.006589,53.6628692 100.564275,54.0692024 100.671433,53.3869492 C100.70699,53.1604299 100.995754,52.7916974 101.313097,52.5675465 C101.955014,52.1141456 102.438744,52.2501742 102.716096,52.9620538 C103.00318,53.6989449 102.362902,54.4584904 100.500447,55.5903859 C96.769721,57.8577335 94.6010654,60.9586926 93.9819524,64.9111934 C93.4235411,68.476207 95.1676142,72.160135 98.6664505,74.8060752 C100.340813,76.0722916 103.000696,77.4086742 102.83168,76.8987625 C102.113863,74.7331766 102.13749,70.601189 102.871711,69.904052 C102.981892,69.7994328 102.943992,70.2305851 102.787485,70.8621804 C102.20453,73.214857 102.457776,75.0894644 103.952126,79.4831329 C105.303678,83.4568994 105.116602,85.1552895 103.203719,86.277835 C102.589348,86.6383705 102.193802,86.6977788 100.541931,86.677682 C98.7495591,86.6558535 98.5542625,86.6920334 97.9788069,87.1517425 C97.420933,87.5974818 96.697608,89.0609006 96.697608,89.7438594 C96.697608,90.1138138 97.1073597,90.0648476 97.9125747,89.5987325 C97.9125747,89.5987325 97.1073597,90.0648476 97.9125747,89.5987325 L97.9126754,89.5984615 L97.9126754,89.5984615 Z M113.511291,54.7515089 C113.511291,54.4716839 112.694593,53.7133259 111.867028,53.2246975 C111.217122,52.8409522 111.109759,52.8292923 111.1083,53.1422742 C111.106089,53.6174479 110.68615,54.8111894 110.521242,54.8111894 C110.428249,54.8111894 110.290742,54.5779091 110.215646,54.2927931 C110.140545,54.0076755 109.8255,53.4457658 109.515518,53.0441037 L108.951921,52.3138121 L108.513079,52.9904436 C108.103979,53.6212132 107.395307,54.2389915 107.080803,54.2389915 C107.005683,54.2389915 106.990993,53.9067989 107.048136,53.5007852 C107.110225,53.0596533 107.062357,52.7097228 106.929004,52.6312281 C106.806348,52.5589856 106.705992,52.5841888 106.705992,52.6872335 C106.705992,52.9249215 105.721843,54.0482573 105.513601,54.0482573 C105.427795,54.0482573 105.307683,53.7263948 105.246655,53.3330068 C105.185648,52.9396204 105.081947,52.3173535 105.016214,51.9501921 C104.950482,51.5830307 105.09063,51.8320177 105.327676,52.5034934 L105.758672,53.724359 L106.231302,52.980325 C106.491244,52.5711059 106.704389,52.123938 106.70495,51.9866182 C106.70495,51.8492968 106.793438,51.7884544 106.900342,51.8514088 C107.007226,51.9143617 107.156,52.4062608 107.23092,52.9445164 L107.367166,53.9231666 L107.88723,53.3494336 C108.173272,53.0338809 108.508456,52.6114186 108.63207,52.4106295 C108.852644,52.0523503 108.865133,52.0526536 109.303873,52.4270439 C109.549745,52.6368504 109.927759,53.1386924 110.143886,53.5422457 C110.360036,53.9457943 110.565795,54.2462002 110.601164,54.2098099 C110.636511,54.173418 110.715713,53.7574086 110.777181,53.2853439 C110.838629,52.8132792 110.893492,52.4095393 110.899075,52.3881418 C110.929658,52.2711696 112.465656,53.2757681 113.033958,53.7844299 C113.399223,54.1113766 113.746133,54.3331058 113.80484,54.2771564 C113.863566,54.2211992 113.911603,53.7388432 113.911603,53.2052441 C113.911603,52.3783514 113.824495,52.1567248 113.32184,51.704636 C112.743893,51.1848322 112.72772,51.1819767 112.514174,51.5622056 C112.237018,52.0556895 111.910043,52.0628157 111.910043,51.5753632 C111.910043,51.219591 110.817872,49.8521253 110.53373,49.8521253 C110.460072,49.8521253 110.230056,50.1525297 110.022553,50.5196926 C109.815052,50.8868525 109.591918,51.1869132 109.526687,51.1864963 C109.246527,51.18477 107.70683,49.4574371 107.70751,49.1457228 C107.70751,48.8977342 107.811271,48.9611475 108.081202,49.3752922 C108.286301,49.6900019 108.696041,50.1598177 108.99169,50.4193277 C109.590355,50.944802 109.807987,50.8170331 110.039006,49.8044421 C110.104817,49.5159574 110.219207,49.2799274 110.293184,49.2799274 C110.549123,49.2799274 111.889467,50.7122947 112.077972,51.1872584 L112.267221,51.6640916 L112.410571,51.1395753 C112.585849,50.4981801 112.779259,50.4743237 113.059116,51.0595953 C113.176011,51.3040906 113.753419,51.8124072 114.342217,52.189188 L115.412773,52.8742444 L115.627621,52.1852127 C115.745791,51.8062483 115.902332,51.5884772 115.97549,51.7012766 C116.084594,51.8694842 115.806318,53.0112392 115.596354,53.2569026 C115.56489,53.2937221 115.217982,53.0904167 114.825433,52.8051156 L114.111759,52.2863818 L114.108946,53.2150019 C114.106952,53.7257432 114.051902,54.3367421 113.985513,54.5727736 C113.855711,55.034278 113.511203,55.1641061 113.511203,54.7515058 C113.511203,54.7515058 113.511203,55.1641061 113.511203,54.7515058 L113.511291,54.7515089 L113.511291,54.7515089 Z M106.463864,47.7771006 C105.170273,46.6251024 104.973892,46.3614953 105.002545,45.8154952 L105.033031,45.2343659 L105.117422,45.7956534 C105.16671,46.1234006 105.511217,46.6145538 105.945407,46.9760992 L106.689019,47.5952609 L107.14596,47.0315228 C107.397301,46.7214667 107.606216,46.3521485 107.610246,46.2108221 C107.620822,45.8422951 107.682813,45.8732487 108.558623,46.6837913 C109.336766,47.4039555 109.348895,47.4073968 109.464626,46.9407572 C109.529136,46.6806232 109.506242,46.1908764 109.413752,45.8524314 C109.159499,44.9221274 109.209315,44.781728 109.594582,45.3428043 C109.786525,45.6223526 110.095173,46.0175387 110.280461,46.2209953 C110.602989,46.5751669 110.622669,46.5707869 110.742673,46.1182076 C110.811619,45.8582245 110.869271,45.3823604 110.870797,45.0607416 L110.873657,44.4759749 L111.575267,45.32428 C112.230623,46.1166722 112.291002,46.1459445 112.491023,45.7683825 C112.60881,45.5460714 112.706569,45.0112 112.70828,44.5797817 C112.710512,44.022467 112.765545,43.8818463 112.898431,44.0940546 C113.120349,44.4484207 112.966277,45.4132722 112.556489,46.2355217 L112.262428,46.8255401 L111.876286,46.1841312 C111.382551,45.3639837 111.218184,45.3771473 110.901376,46.2622143 C110.601964,47.0986264 110.407276,47.1622921 110.115537,46.5191751 C109.926748,46.1029755 109.890812,46.1539738 109.756806,47.0283245 L109.607862,48 L108.715471,47.2613149 L107.82306,46.5226299 L107.421877,47.0091281 C107.201223,47.2767046 107.017642,47.6112641 107.01392,47.7525904 C107.005795,48.0589018 106.791147,48.0684715 106.463958,47.7771006 C106.463958,47.7771006 106.791147,48.0684715 106.463958,47.7771006 L106.463864,47.7771006 L106.463864,47.7771006 Z M118.85565,43.1291799 C118.304833,42.6347478 117.925397,42.1630143 118.01243,42.0808819 C118.099463,41.9987513 118.197471,41.9752266 118.230204,42.028601 C118.262938,42.0819755 118.713173,42.5537108 119.230733,43.0768972 C120.422417,44.2815232 120.177435,44.3156701 118.85565,43.1291799 C118.85565,43.1291799 120.177435,44.3156701 118.85565,43.1291799 L118.85565,43.1291799 L118.85565,43.1291799 Z M103.283414,42.4990581 C102.874833,41.8234198 102.903057,41.3757913 103.400387,40.6434645 C103.759781,40.1142703 103.923947,40.0424581 104.551493,40.1399524 C104.954055,40.2024913 105.820292,40.6374895 106.476489,41.1066144 C107.234349,41.6484187 108.018237,42.0113756 108.625402,42.1015968 C109.151116,42.1797159 109.581261,42.2091675 109.581261,42.1670471 C109.581261,42.1249286 109.362879,41.6897801 109.095965,41.2000423 C108.462109,40.0370624 108.483813,39.912245 109.19873,40.6090095 C109.932597,41.3242455 110.810402,41.5334247 112.772011,41.4605088 L113.730373,41.4248841 L113.1744,40.7527072 C112.396838,39.8126661 112.636146,39.7283868 113.49483,40.6398545 C114.30017,41.4947016 114.249738,41.5548974 112.554676,41.7618123 C111.834396,41.8497381 111.059805,41.785958 110.415991,41.5857185 C109.452736,41.2861128 109.415347,41.2906742 109.59782,41.6855853 C109.702992,41.9131882 109.873315,42.0994059 109.976313,42.0994059 C110.079332,42.0994059 110.163617,42.214741 110.163617,42.3557033 C110.163617,42.7891889 108.083094,42.407999 107.088896,41.7923584 C104.817629,40.3859186 104.531809,40.26413 103.991207,40.4724768 C103.690381,40.5884114 103.389286,40.9277614 103.285529,41.2678192 C102.939376,42.4021871 104.254803,43.2839135 104.797365,42.2811978 C104.954618,41.9905537 104.917891,41.7917607 104.641505,41.4380479 C104.263013,40.9536031 104.298519,40.8845795 104.809477,41.1116801 C105.172246,41.2729178 105.221047,42.3380825 104.88359,42.7289601 C104.497468,43.1761797 103.616325,43.049582 103.283414,42.4990581 C103.283414,42.4990581 103.616325,43.049582 103.283414,42.4990581 L103.283414,42.4990581 L103.283414,42.4990581 Z M112.113223,39.9283222 C111.819616,39.6297663 112.04979,39.5566393 113.366109,39.530287 C114.994581,39.4976869 115.98356,39.2063255 117.150459,38.4153981 C118.085439,37.7816628 118.33893,37.9063697 117.45147,38.5634756 C116.641871,39.1629169 115.379152,39.6237431 114.160116,39.7646343 C113.569794,39.8328628 112.897035,39.9273771 112.665074,39.9746642 C112.433136,40.021953 112.1848,40.0010981 112.113223,39.9283222 C112.113223,39.9283222 112.1848,40.0010981 112.113223,39.9283222 L112.113223,39.9283222 L112.113223,39.9283222 Z M127.386008,89.4922761 L128.10499,89.006718 L128.592916,89.4922761 C129.232145,90.1284284 129.980994,90.1142005 130.595586,89.454237 C130.863781,89.1662446 131.104624,88.9666909 131.130766,89.0107792 C131.156908,89.0548691 131.276507,89.2683197 131.396523,89.4851195 C131.548445,89.7595526 131.860801,89.8975357 132.424616,89.9393386 C133.103931,89.9896964 133.286351,89.9206156 133.556268,89.5106455 L133.878032,89.021915 L134.585788,89.4998842 C136.523463,90.8084955 137.555834,89.4355718 136.689899,86.7016863 C136.249587,85.3115969 136.491696,84.5301233 137.91083,82.7608468 C138.509263,82.014775 138.999405,81.2184419 139,80.9912552 C139,80.62902 138.889293,80.5804944 138.092852,80.5970703 C137.330697,80.6130451 137.107716,80.5270237 136.706536,80.0629705 C136.054016,79.3081881 136.092794,78.4437804 136.822194,77.4845698 L137.404905,76.7182755 L136.371086,75.9810317 C135.802478,75.5755342 134.777098,74.6161886 134.092456,73.8491245 C132.554851,72.1264241 131.042914,71.3094957 129.04929,71.1242277 L127.712525,71 L127.714498,72.0632351 C127.717067,73.4320011 128.328359,74.7487332 129.997048,76.9790865 C131.894323,79.5149756 132.026795,79.907563 132.103615,83.2221196 L132.168574,86.0253445 L131.619574,86.5726886 C131.123489,87.0672499 130.899798,87.1303617 129.299077,87.2273711 C127.775097,87.3197279 127.454938,87.4023503 127.007752,87.8186461 C126.413795,88.3715685 126.236186,88.6723134 126.052799,89.4358482 C125.945913,89.8808232 125.989224,89.9778518 126.294828,89.9778518 C126.499548,89.9778518 126.990602,89.7593356 127.38604,89.4922761 C127.38604,89.4922761 126.990602,89.7593356 127.38604,89.4922761 L127.386008,89.4922761 L127.386008,89.4922761 Z M85.4441099,81.5917755 C85.6316995,81.3671632 85.7852158,81.0044593 85.7852158,80.7857624 C85.7852158,80.4553444 85.9519664,80.36718 86.7719845,80.2640609 L87.7587516,80.1399756 L87.1006649,79.6756044 C86.3188203,79.1239349 86.2464888,78.6929509 86.9356013,78.6919949 C87.6219335,78.6919949 88.7842826,78.0609292 88.9610018,77.5940408 C89.0431326,77.3770325 88.9914827,77.0870947 88.8441682,76.9382392 C88.459413,76.549481 87.7360309,76.6080984 87.6016648,77.0389326 C87.4572422,77.5020722 87.2154391,77.5032858 86.6672651,77.0435175 C85.8426494,76.3519958 85.8241321,74.9206106 86.6290307,74.0870508 C87.0083727,73.6942141 87.0049968,73.6684534 86.5213754,73.2629005 C86.0011187,72.8266259 85.6295758,71.963134 85.8739595,71.7581992 C85.9517262,71.6929861 86.3627556,71.744954 86.7873646,71.873741 C87.3907183,72.0566984 87.6289019,72.0594748 87.8774736,71.8864168 C88.6304144,71.3624018 87.8146707,70.6885949 86.6072069,70.8372092 C86.1212587,70.8970223 85.9205007,70.8372092 85.8507126,70.6140098 C85.7979256,70.4447231 85.3728749,70.2236888 84.8939865,70.1165107 C84.0382756,69.9249709 84.0322397,69.9273022 84.0322397,70.4493349 C84.0322397,71.0213832 83.6634534,71.1292985 82.9626887,70.7623154 C82.3932747,70.4641069 81.8410276,70.695613 81.8410276,71.2325286 C81.8410276,71.7334828 82.4099797,71.9805326 83.4296593,71.9223586 C84.2117594,71.877725 84.2408578,72.3926991 83.4980683,73.1329508 L82.9638969,73.665289 L83.3870642,74.2036009 C84.0137918,75.0008519 83.9610352,76.3249661 83.276341,76.9825851 L82.7395688,77.4981481 L82.3874367,77.0847154 C81.8980738,76.5101664 81.2287106,76.5486794 81.0451584,77.1619435 C80.9249676,77.5635259 81.0243194,77.7470377 81.5922444,78.1725618 C81.9739114,78.458532 82.5311402,78.6925164 82.8305326,78.6925164 C83.5714286,78.6925164 83.5424605,79.2084299 82.7722935,79.729616 L82.1697114,80.1373925 L83.1009772,80.2652985 C83.6131725,80.3356568 84.0322397,80.4680113 84.0322397,80.5593881 C84.0322397,80.9098536 84.6776487,82 84.8851128,82 C85.0049483,82 85.2564999,81.816232 85.4441099,81.5916197 C85.4441099,81.5916197 85.2564999,81.816232 85.4441099,81.5916197 L85.4441099,81.5917755 L85.4441099,81.5917755 Z M95.5473153,77.717647 C96.3224516,77.3975289 98,75.9091557 98,75.5415482 C98,75.4258991 97.5369608,74.8923463 96.9710391,74.3558438 C95.7800797,73.226853 94.48461,71.3254959 94.1489428,70.2138147 C93.9739331,69.6341659 93.1282137,68.6418987 90.7460485,66.2212317 L87.5760411,63 L86.6624098,63.2424551 C86.1599058,63.3758116 85.5468083,63.4881553 85.2999722,63.4921006 C84.8745732,63.4988737 84.8822826,63.5244685 85.4478401,63.9830464 L86.0445158,64.4668423 L86.881022,63.9804168 C87.6918513,63.5089115 87.7207186,63.5060025 87.82071,63.8854621 C87.8792677,64.1075996 87.7529577,64.4925767 87.5287863,64.775386 C87.3114593,65.0495121 87.1876606,65.3604906 87.2536441,65.4664413 C87.3196291,65.5723677 87.1108549,65.7938879 86.7897027,65.95868 C86.1944548,66.2641181 85.7812981,67.2695563 86.2510422,67.2695563 C86.6736522,67.2695563 87.6055518,66.0648679 87.4981734,65.6574031 C87.4431689,65.4487517 87.4697681,65.2341426 87.5572706,65.180481 C87.9202192,64.957905 87.8975343,65.9037222 87.5287863,66.3689124 C87.3114593,66.6430385 87.1876606,66.9540137 87.2536441,67.0599645 C87.3196291,67.1658941 87.1108549,67.3874143 86.7897027,67.5522048 C86.1983087,67.8556549 85.7809974,68.8630795 86.2466673,68.8630795 C86.7030621,68.8630795 87.6196653,67.7118967 87.5061619,67.2812671 C87.4467825,67.0559218 87.4697681,66.8276674 87.5572706,66.7740058 C87.8017193,66.624095 87.9335901,67.370761 87.7272436,67.7365949 C87.6167136,67.9325789 87.6177166,68.2000943 87.729848,68.4122524 C87.9328615,68.7965896 87.7270266,69.5347105 87.3528867,69.7641603 C87.1925129,69.8625015 87.3011175,70.0554757 87.6901197,70.3632658 C88.2530107,70.808676 88.2639322,70.8554476 88.2639322,72.8207819 C88.2639322,74.4631865 88.3272244,74.887087 88.6152337,75.1729856 C88.9384353,75.4938426 88.9665399,75.4949975 88.9665399,75.1873438 C88.9665399,74.8512904 89.5295689,74.4404992 89.9901385,74.4404992 C90.1260027,74.4404992 90.974835,75.1941786 91.8764038,76.115335 C92.7834481,77.0420902 93.7325942,77.8307054 94.0013292,77.880922 C94.2684643,77.9308397 94.5576766,77.9838841 94.6440366,77.9988011 C94.7303779,78.0137441 95.1368871,77.8872354 95.5473897,77.7177022 C95.5473897,77.7177022 95.1368871,77.8872354 95.5473897,77.7177022 L95.5473153,77.717647 L95.5473153,77.717647 Z M87,69.486536 C87,68.8826688 85.7411663,68.2380938 84.2355202,68.0709814 C83.0198931,67.9360574 83,67.9436914 83,68.5445576 C83,69.0419453 83.1911581,69.2376133 84.0303007,69.5991249 C85.3786665,70.1799993 87,70.1185457 87,69.486536 C87,69.486536 87,70.1185457 87,69.486536 L87,69.486536 L87,69.486536 Z M88.1854254,69.3496938 C88.9011401,68.7332144 89.2402486,68 88.8096458,68 C88.3144173,68 87,69.1196873 87,69.5415475 C87,70.1999954 87.2441381,70.1604692 88.1854254,69.3496938 C88.1854254,69.3496938 87.2441381,70.1604692 88.1854254,69.3496938 L88.1854254,69.3496938 L88.1854254,69.3496938 Z M86.9934247,67.4978428 C87.0389458,67.1729376 86.8525925,66.9560957 86.2939764,66.6840518 C85.0889817,66.0971793 83.6483219,65.8253739 83.3013851,66.1194487 C82.6623339,66.6611093 83.0881382,67.3883698 84.1209266,67.5192025 C84.5367299,67.5718676 85.1005455,67.7086165 85.3738275,67.8230942 C86.1676091,68.1555585 86.922486,68.0039722 86.9934247,67.4978428 C86.9934247,67.4978428 86.922486,68.0039722 86.9934247,67.4978428 L86.9934247,67.4978428 L86.9934247,67.4978428 Z M85.9927241,65.5738615 C86.0501958,65.1709898 85.8067168,65.0268181 83.8187832,64.2865693 C82.3347147,63.7339536 81.6777813,63.9945377 82.1520673,64.9477295 C82.3172851,65.2797768 82.5945972,65.4314618 83.2165,65.5299855 C83.679056,65.6032759 84.3112289,65.74656 84.6213334,65.8484188 C85.449798,66.1205102 85.9284091,66.0246982 85.9927241,65.5738615 C85.9927241,65.5738615 85.9284091,66.0246982 85.9927241,65.5738615 L85.9927241,65.5738615 L85.9927241,65.5738615 Z M88.2142327,64.2672251 C88.6464254,63.8510717 89,63.3599238 89,63.1758321 C89,62.5786304 87.2931717,63.6351616 87.0755999,64.3670209 C86.8146451,65.244866 87.2376818,65.2078108 88.2143143,64.2672251 C88.2143143,64.2672251 87.2376818,65.2078108 88.2143143,64.2672251 L88.2142327,64.2672251 L88.2142327,64.2672251 Z M86.9953469,64.5205823 C87.0698808,63.9851713 86.2475796,63.501656 84.6305103,63.1300079 C83.4440949,62.8573392 82.9208044,63.0119852 83.0096524,63.6089783 C83.0581521,63.9348594 83.4532687,64.1729508 84.5741868,64.5517594 C86.368024,65.1579338 86.9075974,65.1509918 86.9953469,64.5205823 C86.9953469,64.5205823 86.9075974,65.1509918 86.9953469,64.5205823 L86.9953469,64.5205823 L86.9953469,64.5205823 Z M88.3426141,61.5274591 C90.4067837,60.7103268 90.5853483,58.6498016 88.6388775,58.1088015 C87.8306956,57.8841723 87.3147855,58.0052063 87.005418,58.4920038 C86.7685487,58.8647507 86.9269687,59.5424605 87.2509745,59.5424605 C87.3604361,59.5424605 87.4500052,59.6679073 87.4500052,59.8212307 C87.4500052,60.5367053 84.2983788,60.8608877 83.0058923,60.2783387 C82.5518303,60.0736808 82.3541379,59.5424605 82.732043,59.5424605 C83.0144311,59.5424605 83.2096778,59.0011585 83.0653853,58.6182889 C82.8688037,58.0966695 82.2776069,57.9159517 81.420081,58.1153555 C79.4852342,58.5652734 79.5395505,60.58703 81.5095347,61.4449608 C83.1248898,62.1484499 86.6659415,62.1912094 88.3426141,61.5274591 C88.3426141,61.5274591 86.6659415,62.1912094 88.3426141,61.5274591 L88.3426141,61.5274591 L88.3426141,61.5274591 Z M87.173756,60.6224856 C87.2896899,60.512141 87.23931,60.3425809 87.0449497,60.1890664 C86.6193242,59.8528891 86.6420302,59.3528831 87.1088877,58.7805011 C87.4594804,58.350664 87.5032795,57.7074224 87.6239513,51.2189405 C87.8318712,40.0371851 88.6593181,31.626414 89.7499497,29.6087012 C90.1841413,28.8054009 90.1232468,28.8022043 89.0012584,29.5693479 C87.5559772,30.5575888 86.4555151,31.8444496 85.4805073,33.6865304 C83.6396611,37.1643666 83,41.8433519 83,51.8308701 C83,57.5020382 83.0384443,58.2440236 83.3598845,58.7770668 C83.6652363,59.2834258 83.6814637,59.4704385 83.4669774,60.0112483 C83.3279427,60.3618118 83.2648535,60.6968615 83.326779,60.755799 C83.7377515,61.146935 86.7317815,61.0431763 87.1737991,60.6224856 C87.1737991,60.6224856 86.7317815,61.0431763 87.1737991,60.6224856 L87.173756,60.6224856 L87.173756,60.6224856 Z M103.665932,48.7226034 C103.29175,47.9114142 103.141029,47.7766759 102.607947,47.7766759 C100.938021,47.7766759 98.2534617,47.0211337 95.4858876,45.7722536 C93.8877168,45.0510661 93.335734,44.8853304 93.1440391,45.0691113 C92.6550576,45.5379688 93.4677471,46.6508336 94.7263071,47.2358218 C95.8428146,47.7547696 98.9640626,48.3924239 100.387817,48.3924239 C101.213799,48.3924239 101.233322,48.4301612 100.763282,49.1180164 L100.417549,49.6239216 L101.351955,49.6482028 C101.865855,49.6615752 102.575322,49.7429945 102.928526,49.8291704 C103.845873,50.0529865 103.854458,50.0531673 103.984458,49.8514767 C104.049254,49.7508573 103.90594,49.2428667 103.665932,48.7226034 Z M103.665932,48.7226034" fill="#FFB700" id="path3018"/></g></g></g></svg>