<?xml version="1.0" ?><svg height="120px" version="1.1" viewBox="0 0 180 120" width="180px" xmlns="http://www.w3.org/2000/svg" xmlns:sketch="http://www.bohemiancoding.com/sketch/ns" xmlns:xlink="http://www.w3.org/1999/xlink"><title/><defs/><g fill="none" fill-rule="evenodd" id="Asia-Pacific" stroke="none" stroke-width="1"><g id="CN" transform="translate(-800.000000, -201.000000)"><g transform="translate(800.000000, 201.000000)"><rect d="M0,0 L0,120 L180,120 L180,0 L0,0 Z M0,0" fill="#CA4638" height="120" id="Rectangle-128" width="180" x="0" y="0"/><path d="M28.2996997,42.1702905 L17.4423971,47.6570595 L19.5159569,36.0358972 L10.7322134,27.8057445 L22.8710499,26.1102382 L28.2997003,15.5369569 L33.728354,26.1102408 L45.8671897,27.805753 L37.0834425,36.0358994 L39.1570027,47.6570598 L28.2996997,42.1702905 Z M59.1229963,12.7790866 L56.0132635,14.350599 L56.6071695,11.0220826 L54.0913424,8.66481424 L57.5681303,8.17918979 L59.1229965,5.15080595 L60.6778635,8.17919054 L64.1546512,8.66481666 L61.6388231,11.0220832 L62.2327292,14.350599 L59.1229963,12.7790866 Z M72.4018259,23.4516866 L69.2920931,25.023199 L69.8859991,21.6946826 L67.370172,19.3374143 L70.8469599,18.8517898 L72.4018261,15.823406 L73.9566932,18.8517906 L77.4334808,19.3374167 L74.9176527,21.6946832 L75.5115588,25.0231991 L72.4018259,23.4516866 Z M73.9452108,39.4847366 L70.8354781,41.056249 L71.429384,37.7277326 L68.913557,35.3704643 L72.3903449,34.8848398 L73.945211,31.856456 L75.5000781,34.8848406 L78.9768657,35.3704667 L76.4610377,37.7277332 L77.0549437,41.0562491 L73.9452108,39.4847366 Z M61.5601742,53.4284875 L58.4504414,54.9999999 L59.0443474,51.6714835 L56.5285204,49.3142152 L60.0053083,48.8285907 L61.5601744,45.8002069 L63.1150415,48.8285915 L66.5918291,49.3142176 L64.076001,51.6714842 L64.6699071,55 L61.5601742,53.4284875 Z M61.5601742,53.4284875" fill="#F0EB4E" id="Star-1"/></g></g></g></svg>