<?xml version="1.0" ?><svg height="120px" version="1.1" viewBox="0 0 180 120" width="180px" xmlns="http://www.w3.org/2000/svg" xmlns:sketch="http://www.bohemiancoding.com/sketch/ns" xmlns:xlink="http://www.w3.org/1999/xlink"><title/><defs/><g fill="none" fill-rule="evenodd" id="Asia-Pacific" stroke="none" stroke-width="1"><g id="PH" transform="translate(-600.000000, -1001.000000)"><g transform="translate(600.000000, 1001.000000)"><rect d="M0,0 L0,120 L180,120 L180,0 L0,0 Z M0,0" fill="#FFFFFF" height="120" id="Rectangle-128" width="180" x="0" y="0"/><path d="M0,0 L90,60 L180,60 L180,0 L0,0 Z M0,0" fill="#346DA6" id="Rectangle-40"/><path d="M0,120 L90,60 L180,60 L180,120 L0,120 Z M0,120" fill="#CA4638" id="Rectangle-40"/><path d="M33.9862707,52.5546813 L43.4355645,45.1082457 L43.8332036,41.1594425 L39.8844004,41.5570815 L32.4138977,51.1093021 C32.1322964,50.8982085 31.8398758,50.700762 31.5376171,50.5179441 L38.3840385,41.5924013 L36.2886746,41.3421888 L30.7269855,50.0746311 C29.3139101,49.3800554 27.7241383,48.9899735 26.0432579,48.9899735 C20.1716547,48.9899735 15.4117804,53.7498478 15.4117804,59.621451 C15.4117804,61.70436 16.0107747,63.6473663 17.0459038,65.2876105 L16.5365895,64.7782962 L7.72086409,70.3930282 L7.97107654,72.4883922 L17.1492618,65.448179 C17.2646198,65.623906 17.3850455,65.7960085 17.5103311,65.9642787 L7.91822785,73.5232541 L7.52058877,77.4720573 L11.469392,77.0744182 L18.9355161,67.5277963 C20.0990815,68.574517 21.4949359,69.368074 23.0363516,69.8217398 L20.8128827,79.8454006 L22.4714558,81.1501197 L23.9355065,70.0440074 C24.1418872,70.0855162 24.3504304,70.1210485 24.560948,70.1504162 L23.1658439,81.9192472 L25.6768962,84.9926461 L28.1879484,81.9192472 L26.7583734,70.2292579 C26.9476994,70.2166835 27.1356698,70.199153 27.3221561,70.1767949 L28.770821,81.1661928 L30.429394,79.8614737 L28.247266,70.0241817 C29.3637424,69.7888098 30.4156487,69.3782415 31.3728813,68.8225803 L36.7541745,77.271782 L38.8495385,77.0215695 L32.168762,68.3119748 C32.3423122,68.1894242 32.5120286,68.0618061 32.677696,67.9293358 L39.8844004,77.0744182 L43.8332036,77.4720573 L43.4355645,73.5232541 L34.2704877,66.3555248 C34.472928,66.1084892 34.6644608,65.8521709 34.8443507,65.5873057 L43.9234746,72.551533 L44.1736871,70.456169 L35.3579616,64.8414369 L35.2389242,64.9604744 C35.7672848,64.0524144 36.1649958,63.0589581 36.4063085,62.0058544 L46.2065469,64.1797633 L47.511266,62.5211903 L36.5755648,61.0796039 C36.6042177,60.8707072 36.6268021,60.6598763 36.6431345,60.447295 L48.2803936,61.8268021 L51.3537924,59.3157499 L48.2803936,56.8046976 L36.5851403,58.2349164 C36.5377549,57.8710994 36.4719762,57.5130612 36.3887678,57.1617652 L47.6232376,55.680794 L46.3185184,54.022221 L36.1390935,56.2802417 C35.8444679,55.3895212 35.4352571,54.5509705 34.9289216,53.78205 L43.6329283,48.2384715 L43.3827158,46.1431076 L34.3925351,53.0391101 C34.2618603,52.8735843 34.1263683,52.7120375 33.9862707,52.5546813 L33.9862707,52.5546813 Z M25.6768962,33.6388537 L28.1879484,36.7122525 L26.7344248,48.9739001 L24.6653274,48.9739001 L23.1658439,36.7122525 L25.6768962,33.6388537 Z M28.8823366,37.48138 L30.5409096,38.7860992 L28.2774655,48.9899735 L27.3652293,48.9899735 L28.8823366,37.48138 Z M22.5829713,37.4653069 L20.9243983,38.7700261 L23.1878425,48.9739004 L24.1000787,48.9739004 L22.5829713,37.4653069 Z M-2.6491595e-14,59.3157499 L3.07339883,56.8046976 L15.3350464,58.2582212 L15.3350464,60.3273187 L3.07339883,61.8268021 L-2.6491595e-14,59.3157499 Z M7.52058877,41.1594425 L11.469392,41.5570815 L19.1118897,51.2551721 L17.6488169,52.7182449 L7.91822785,45.1082457 L7.52058877,41.1594425 Z M3.84252634,56.1103094 L5.14724551,54.4517364 L15.3511198,56.7151806 L15.3511198,57.6274168 L3.84252634,56.1103094 Z M12.5042539,41.6099302 L14.5996179,41.3597178 L20.2143499,50.1754432 L19.5693015,50.8204916 L12.5042539,41.6099302 Z M7.96396419,46.6416636 L7.71375174,48.7370276 L16.5294772,54.3517596 L17.1745256,53.7067112 L7.96396419,46.6416636 Z M3.73055481,63.1198731 L5.03527398,64.7784461 L15.2391483,62.515002 L15.2391483,61.6027658 L3.73055481,63.1198731 Z M12.3394347,77.1768396 L14.4347987,77.4270521 L20.0495307,68.6113266 L19.4044823,67.9662782 L12.3394347,77.1768396 Z M9.88650541,18.7850261 L7.5502153,20.7967075 L7.32884067,17.9211196 L4.6388556,16.5633876 L7.5311666,15.3601979 L8.2049546,12.5093925 L10.2138758,14.6413688 L13.3202856,14.2372076 L11.6695549,16.7580292 L12.9156328,19.3590483 L9.88650541,18.7850261 Z M72.2202872,62.1863395 L69.4429428,63.5247981 L69.9733682,60.6898975 L67.7264491,58.6822097 L70.8316154,58.2686029 L72.2202873,55.6893255 L73.6089602,58.2686036 L76.7141262,58.6822118 L74.4672062,60.689898 L74.9976317,63.5247982 L72.2202872,62.1863395 Z M10.6237146,105.083653 L9.02341439,107.718829 L7.92426905,105.052391 L4.94637898,104.592362 L7.32532415,102.554288 L7.08518728,99.6347985 L9.65460184,101.041638 L12.4840804,99.6973241 L11.693119,102.604872 L13.6819686,104.693529 L10.6237146,105.083653 Z M10.6237146,105.083653" fill="#E5B731" id="Polygon-1"/></g></g></g></svg>