<?xml version="1.0" encoding="UTF-8" standalone="no"?>
<svg width="180px" height="120px" viewBox="0 0 180 120" version="1.1" xmlns="http://www.w3.org/2000/svg" xmlns:xlink="http://www.w3.org/1999/xlink">
    <!-- Generator: Sketch 40.2 (33826) - http://www.bohemiancoding.com/sketch -->
    <title>icon-flag-nf</title>
    <desc>Created with Sketch.</desc>
    <defs></defs>
    <g id="Page-1" stroke="none" stroke-width="1" fill="none" fill-rule="evenodd">
        <rect id="Rectangle-path" fill="#007934" x="0" y="0" width="180" height="120"></rect>
        <rect id="Rectangle-path" fill="#FFFFFF" x="54.7826087" y="0" width="70.4347826" height="120"></rect>
        <path d="M90.6495652,15.9820652 C90.4922296,17.6849826 90.3345652,19.3887609 90.1772413,21.0917174 C89.600537,21.1786143 89.0239891,21.2651278 88.4472848,21.352013 C88.4472809,21.352013 89.6487848,22.0266804 89.858563,22.7043804 C89.892137,22.8129204 89.8787152,22.9027522 89.8301152,22.9703304 C89.81415,22.991457 89.7896974,23.0149293 89.7675183,23.0325733 C89.4194726,23.3000493 88.3903617,23.1740357 88.3903617,23.1740357 C88.3903617,23.1740317 89.7536661,24.324353 89.8585552,24.7414248 C89.860903,24.7511878 89.8640335,24.7602857 89.8642291,24.7697396 C89.8640961,24.77755 89.8657943,24.7904396 89.8642291,24.7980152 C89.8626639,24.8040296 89.8552683,24.814767 89.8528422,24.8206639 C89.8435291,24.8411291 89.8267422,24.8641965 89.8073178,24.8829067 C89.4868004,25.1789676 87.9749178,25.262022 87.9749178,25.262022 C87.9749178,25.262022 89.651207,26.4572807 89.7560961,27.1349611 C89.8511517,27.7491328 89.7714352,28.1088589 89.7560961,28.1704502 C89.6389552,28.0703917 86.93577,25.7987546 85.1921178,26.4616046 C85.1052717,26.506722 85.0538778,26.5497126 85.0327787,26.5917485 C85.0235048,26.6127185 85.0215483,26.6388537 85.0271048,26.6596496 C85.1492583,27.0375126 87.6149961,27.4245909 89.3349743,28.9118017 C89.2923104,29.2839713 84.4329091,27.7279691 84.2533004,28.7024343 C84.4052909,28.9772083 89.4828874,29.7090648 89.8585396,30.37168 C87.9885352,30.4412148 84.1253439,29.9601257 84.2533004,30.575393 C83.8625048,31.2857278 87.9020178,30.8845235 89.596757,31.4637713 C90.0935374,32.0250974 90.045583,32.4966387 89.1813287,32.555843 C87.5478678,31.7792409 83.8920678,31.2021648 83.8832635,32.1937104 C83.8833496,32.1948843 83.8830835,32.198367 83.8832635,32.1993648 C83.8836548,32.2005387 83.8885461,32.2040604 83.8889374,32.2050191 C83.8905026,32.2081496 83.8920678,32.2134909 83.8946504,32.2163474 C83.9004809,32.2219235 83.9134722,32.2281452 83.9230983,32.23333 C84.3359243,32.4392539 87.7402722,32.338808 89.0219896,33.1839452 C87.2047917,33.5949713 81.0429026,32.3501148 81.0037722,32.9576148 C81.1793152,33.2413496 82.1543439,34.486617 83.83212,34.4344561 C85.5098178,34.3823089 89.3913809,35.112743 89.6537504,35.6340387 C89.6619287,35.650317 89.6618504,35.6670374 89.6594243,35.6793087 C89.5458209,36.0428696 84.5478157,34.5702935 82.6257287,35.4755957 C80.6335983,36.4140804 88.3383809,35.845163 89.5968157,36.9920565 C90.855133,38.13895 87.0815113,36.8845476 87.0815113,36.8845476 C87.0815152,36.8845476 81.8413591,36.1575628 81.055033,36.522415 C80.2685309,36.8874433 79.3762787,37.7219976 79.3762787,37.7219976 C79.3762787,37.7219976 79.8991004,38.762202 80.42337,38.5537933 C80.5032391,38.5220037 80.55783,38.5155198 80.5884026,38.5255176 C80.5891852,38.5259089 80.5933722,38.5251263 80.5941157,38.5255176 C80.5948983,38.5259089 80.5991243,38.5307807 80.5998287,38.531172 C80.6010026,38.5319546 80.6044852,38.5358676 80.6055417,38.5368263 C80.6063243,38.5380002 80.6103157,38.5414046 80.6112157,38.5424807 C80.611607,38.542872 80.6165765,38.5475089 80.6169287,38.548135 C80.6192765,38.5533589 80.6217417,38.5643741 80.6226026,38.5707876 C80.6349678,38.7271743 80.2640896,39.1819072 80.2640896,39.1819072 C80.2640896,39.1819072 87.607307,40.950818 89.2325896,42.5146463 C90.857833,44.0787289 79.8999809,40.0644941 79.8999809,40.0644941 C79.8999809,40.0644902 75.4958504,41.6803463 80.1617439,41.7846485 C79.6416809,42.5411963 80.377157,43.0068485 80.423507,43.0351593 C80.423507,43.0351593 88.1846374,44.652792 88.9709635,45.9040072 C89.7574657,47.1552028 83.6760287,44.7029767 82.31292,44.0254137 C80.9978048,43.3714854 77.3370939,44.3712485 77.1287243,44.6761333 C77.1271591,44.6784811 77.1240678,44.6851137 77.1230504,44.6874615 C77.1226591,44.6886354 77.1234417,44.6920007 77.1230504,44.6931159 C77.1226591,44.6954637 77.1228783,44.7023702 77.1230504,44.7044441 C77.1232304,44.705618 77.1228665,44.7091007 77.1230504,44.7100985 C77.1234417,44.7112724 77.1226591,44.714755 77.1230504,44.7157528 C77.1234417,44.7169267 77.1282548,44.7203702 77.1287243,44.7214072 C77.1291157,44.7225811 77.128333,44.7260246 77.1287243,44.7270615 C77.1310722,44.7312485 77.1368243,44.7398376 77.1401113,44.7440441 C77.1408939,44.745218 77.1448461,44.7486615 77.1457852,44.7496985 C77.3802939,45.0066485 79.0143417,45.360505 79.0635483,45.8021702 C79.0637283,45.8041267 79.0634152,45.8060833 79.0635483,45.8078246 C79.0643309,45.8314124 79.0570135,45.8593202 79.0464483,45.8813859 C78.8406222,46.2782272 76.8911439,46.4470359 76.8099483,46.8206924 C76.8087743,46.8270902 76.8042743,46.8368141 76.8042743,46.843345 C76.8042704,47.2605341 86.6113396,49.2936928 89.2326874,51.4832363 C91.8540352,53.6727798 81.5275135,48.8746059 81.5275135,48.8746059 C81.5275135,48.8746059 82.1042374,49.6562363 81.5275135,49.8648407 C80.9507896,50.0732493 78.902057,46.9457102 75.5466222,48.8746059 C74.935483,49.6682298 78.4763178,50.298132 79.3765135,50.3853928 C79.0691243,51.1712493 78.8010809,51.4312124 80.0593983,52.2130776 C80.1970043,52.2986128 80.2742635,52.3502885 80.3041004,52.377175 C80.304883,52.3779576 80.3089917,52.3820272 80.3098135,52.3828489 L80.3154874,52.3885228 C80.3158787,52.3889141 80.3153074,52.393688 80.3154874,52.3941967 C80.3153739,52.394588 80.3156674,52.3995967 80.3154874,52.3998707 C80.3150961,52.3999489 80.3104787,52.3998472 80.3098135,52.3998707 C80.3090309,52.3998315 80.3050004,52.3999646 80.3041004,52.3998707 C80.1091996,52.3695446 77.8486657,51.2143946 77.6123178,51.1663228 C77.60997,51.1659315 77.6026917,51.1664637 77.6009309,51.1663228 C77.6001483,51.1663659 77.5958048,51.1662172 77.595257,51.1663228 C77.595257,51.2706133 77.85702,52.5243446 77.85702,52.5243446 C76.6953939,51.5860359 75.2912374,51.3031228 73.9760635,52.2640685 C73.974107,52.3196572 73.9644809,53.2193402 75.2849178,53.774875 C74.5406765,55.2869924 76.1259483,54.8175054 78.6425048,56.2250272 C74.9024178,55.2530467 74.6028743,57.0585446 77.2767548,57.475538 C79.9506352,57.8925315 87.2921896,58.153825 89.0223417,60.3952554 C89.3872917,60.8681076 89.4863309,61.1058641 89.4149961,61.1817772 C89.1264287,61.4418185 86.4716048,59.5325272 86.0859743,59.4616228 C86.0851917,59.4620141 86.081083,59.4608402 86.0802613,59.4616228 C86.0794787,59.4624054 86.07537,59.4663967 86.0745483,59.4672967 C86.069657,59.4734011 86.0623396,59.4854924 86.0574483,59.495588 C85.96323,59.7029793 85.875347,60.6046424 85.875347,60.6046424 C84.7568817,59.9609272 83.7306078,59.3834989 82.3927383,59.1108185 C82.2878491,59.3192272 82.3098365,59.6153663 82.2049474,59.823775 C80.990867,58.9532011 79.93323,58.3411228 78.1702083,58.2563859 C78.1002822,58.5345054 78.0295774,58.8157163 77.9596474,59.0938359 C77.9596513,59.093832 76.4898691,57.2692033 73.6061909,59.0938359 C71.9960517,60.2416293 79.6888213,59.5094402 80.9470604,60.8649185 C82.2053778,62.2202207 81.208843,62.4266533 81.208843,62.4266533 C80.1603039,62.0444076 79.1161474,61.6658989 78.0676474,61.2836533 C78.0676474,61.2836533 74.3416474,60.602412 73.2931474,61.4364302 C72.2446083,62.2706128 88.6015604,64.3042998 89.0732778,66.5460824 C89.3914083,67.7617867 85.2302778,65.2730715 81.6298865,64.2035389 C81.4906213,64.6014759 81.3480496,64.9995302 81.2087843,65.3974672 C81.1233978,65.3134737 79.7306713,63.9664867 78.1699148,63.7338954 C78.1695235,63.734678 78.1646322,63.7382389 78.1642017,63.7395693 C78.1640178,63.7415259 78.1642487,63.7483346 78.1642017,63.7509172 C78.1665496,63.9220072 78.48288,65.1428846 78.48288,65.1428846 C78.4828761,65.1428885 74.4499017,63.2640563 72.4053365,64.2545063 C70.3605757,65.2449563 79.5335322,65.766115 80.372293,66.7046585 C80.4640304,66.8072859 80.5022139,66.8820993 80.497487,66.9310085 C80.4959217,66.9394607 80.4901696,66.9523346 80.4861,66.9592607 C80.2834826,67.2543237 77.5479913,66.1645607 77.2766217,66.7046389 C76.9619543,67.3302367 72.5066217,65.559428 72.5590565,66.393415 C72.6114991,67.2275976 73.1907196,67.6948541 73.1907196,67.6948541 C73.1907157,67.6948541 82.4705022,68.580552 82.7851109,69.6752454 C83.0996022,70.7699976 77.6465022,69.0528172 77.6465022,69.0528172 C77.6465022,69.0528172 77.1190043,69.830965 77.5383809,70.1958172 C77.5547765,70.2100607 77.5678461,70.2237172 77.5725026,70.2297433 C77.5726396,70.2301346 77.5724713,70.2351041 77.5725026,70.2354172 C77.5721113,70.235292 77.567533,70.2355972 77.5667896,70.2354172 C77.3772457,70.1732467 74.4226591,68.2489607 74.7100722,69.7261541 C73.5539048,69.2684063 70.5688983,67.8505541 70.9883765,68.9452867 C71.4015939,70.0239367 79.1871809,71.5597867 79.4162896,71.6047867 C79.2104048,71.6209085 75.917833,71.8948215 76.0702461,72.7534607 C71.6573113,70.080265 71.6676809,71.6833215 71.7680504,71.8084998 C71.7682304,71.808672 71.7678665,71.8140172 71.7680504,71.8141737 C71.5201396,71.7751998 66.091007,70.4303259 70.4079743,72.7534802 C72.7231265,73.9992759 73.2873874,74.4849433 73.2989309,74.6716933 C73.2990052,74.675802 73.2993222,74.6848411 73.2989309,74.6886759 C73.2981483,74.6936454 73.2949787,74.7011976 73.293257,74.7056585 C73.2928657,74.7068324 73.2881309,74.7102759 73.2875439,74.7113324 C73.2855874,74.7144628 73.2840222,74.7198237 73.28187,74.7226411 C73.2810874,74.7234237 73.2769787,74.727415 73.276157,74.728315 C73.2753743,74.7290976 73.271383,74.7331672 73.2704439,74.7339889 C73.2696613,74.7347715 73.2657483,74.7388802 73.26477,74.7396628 C73.2635961,74.7404454 73.2601526,74.7445933 73.259057,74.7453367 C73.1693074,74.802428 72.9524309,74.7785193 72.889157,74.7792628 C72.8864178,74.7793607 72.8797265,74.7790828 72.87777,74.7792628 C72.8765961,74.7796541 72.8722917,74.7843498 72.8720961,74.7849367 L72.87777,74.7906107 C72.9393613,74.8816593 73.2780743,75.8010759 73.2590374,75.961902 C73.2586461,75.9646411 73.2540287,75.9711367 73.2533243,75.9732107 C73.252933,75.9739933 73.2537157,75.9780628 73.2533243,75.9788846 C73.2531443,75.9792759 73.2479243,75.9784933 73.2476113,75.9788846 C73.24722,75.9790646 73.2480026,75.9843628 73.2476113,75.9845585 C73.24722,75.9846602 73.2423287,75.984488 73.2418983,75.9845585 C73.241507,75.9845115 73.2368113,75.9846524 73.2361852,75.9845585 C73.0469974,75.9371676 70.1877287,74.417815 69.20712,74.3153324 C68.2108396,74.2110302 63.4911417,75.6170846 68.5242352,77.8065498 C73.5573287,79.996015 76.6488874,77.2842954 79.4275396,77.5971824 C82.2061917,77.9098933 83.5194091,78.3800846 83.2574309,79.266428 C82.9951983,80.1525954 80.4149961,76.3609933 77.703257,79.6398889 C74.6186048,79.0329367 72.5259091,78.681702 74.1181265,80.9356737 C69.08067,79.0637715 66.0044309,81.5067628 72.3483352,82.4974085 C78.5822048,82.6801046 82.4150309,80.986602 82.4150309,80.986602 C82.4150309,80.9866059 83.4666613,82.9192541 84.98727,81.5637563 C86.4363678,80.2719824 86.5503548,81.916028 86.6034157,82.0730193 C86.6041983,82.0753672 86.608307,82.0773628 86.6091287,82.0786933 C86.60952,82.0790846 86.6087374,82.0841324 86.6091287,82.0843672 C86.60952,82.0843672 86.6142157,82.0844454 86.6148026,82.0843672 C86.7267587,82.0563889 88.0773026,81.4562846 88.0773026,81.4562846 C88.1996752,81.4562885 88.3248222,81.4562846 88.4472026,81.4562846 L88.4472026,93.9670672 C90.1423917,93.9844411 91.8337461,94.000602 93.5288765,94.0179954 C93.5288765,94.0179954 91.9035743,83.1252563 92.7947896,81.6656911 C93.65832,80.2516933 94.4747178,80.4043215 94.5247461,80.4151802 C94.5247461,80.4151802 97.828333,81.4034193 98.1951809,81.2469759 C98.1994461,81.2450193 98.2081722,81.2434541 98.2122809,81.241302 C98.21502,81.2397367 98.2210852,81.2371933 98.2236678,81.235628 C98.2300461,81.2315976 98.2406113,81.2233411 98.2464417,81.2186454 C98.2476157,81.2178628 98.2509809,81.2139498 98.2521548,81.2129715 C98.5206287,80.9692672 98.247107,80.007578 99.9252157,80.1548454 C100.443361,79.9674341 100.245655,79.1460824 100.579633,78.9439346 C100.585542,78.9404128 100.596185,78.9356389 100.602407,78.9326259 C100.615007,78.9267172 100.633907,78.9199085 100.647931,78.9156433 C100.667497,78.9100476 100.69369,78.9066041 100.716218,78.9043346 C101.240487,78.8521893 111.358131,81.7170302 113.56,79.0061872 C112.983277,77.4944415 110.988544,78.9031137 110.464196,78.9552589 C109.992361,78.9552628 107.998587,78.0169502 106.845022,78.9552589 C105.796483,78.1733937 101.029066,77.6538198 101.029066,77.6538198 C100.399907,77.028222 112.406044,77.964535 113.0875,77.4953846 C114.502985,76.0877454 110.467327,76.2453628 109.838109,76.7145172 C108.719644,76.036778 107.314196,76.0869237 106.457827,76.5560859 C106.047192,75.5793902 102.148783,76.0024098 99.9819352,75.7242902 C99.2883091,75.3197793 99.4038026,75.0875989 99.8738139,74.835912 C104.400031,75.0271189 108.903357,75.6147837 113.451683,75.4130663 C114.681044,73.8194793 111.904055,73.2184359 110.202292,74.5756163 C109.203273,72.9419989 107.160879,74.5225163 105.79777,74.3662489 C104.43474,74.2098015 105.063664,72.5439641 106.79364,72.8045141 C108.523792,73.0652598 111.617444,72.6981772 112.194031,71.9161359 C112.77056,71.1342707 111.849762,70.3421337 108.995901,71.0843402 C108.030025,70.1456793 105.906162,71.082775 104.909901,71.3955641 C103.584573,70.6604207 100.501075,71.2932615 99.4525748,71.5539993 C98.4260661,70.9195385 104.852966,69.8847733 104.852966,69.8847733 C107.33364,69.841135 108.732944,69.4143472 109.51927,69.2057624 C113.269531,67.2071754 109.467055,66.9948928 107.499162,68.447532 C106.277627,67.4992646 105.117488,68.529518 104.016553,68.894558 C102.98437,69.2366167 101.07551,69.4857602 100.841118,69.3868385 C100.838379,69.3856646 100.831962,69.3825733 100.829731,69.3811646 C100.82934,69.3807733 100.824605,69.3759993 100.824018,69.3754907 L100.818344,69.3698167 C100.818164,69.3694254 100.81847,69.3647298 100.818344,69.3641428 C100.818344,69.3637515 100.818254,69.3591341 100.818344,69.3584689 C100.819127,69.3561211 100.822414,69.3498602 100.824018,69.3471602 C100.978638,69.1087972 103.805953,67.383595 103.805953,67.383595 C103.805953,67.3835911 107.476388,67.1200907 108.210475,67.015808 C108.657775,66.9522485 110.225497,66.2143189 110.22491,65.9406993 C110.211762,65.7708615 109.558597,65.7864589 107.578714,66.2858689 C105.796127,66.4423085 104.749192,66.3412267 104.06754,66.393372 C102.97134,66.2806841 102.509503,66.1657893 102.417253,66.065185 C102.413731,66.0609198 102.408057,66.0524285 102.405866,66.0482024 C102.398197,66.0300459 102.403127,66.0090485 102.417253,65.9916159 C102.420775,65.9875854 102.429657,65.9786246 102.434353,65.9746333 C102.703062,65.7612354 104.43744,65.6068267 104.43744,65.6068267 C104.43744,65.6068307 109.732375,65.1239963 110.082592,64.8485963 C110.083766,64.8474224 110.08717,64.844018 110.088266,64.8429224 C110.090223,64.8405746 110.092727,64.8337659 110.09394,64.8316137 C110.094331,64.8304398 110.09934,64.8269963 110.099653,64.8259398 C110.208604,62.6733746 105.607675,63.6673463 105.48461,63.6829398 C105.497757,62.1693159 101.332088,63.6607137 101.137023,63.6829398 C101.136631,63.682885 101.131583,63.6830415 101.13131,63.6829398 C100.952084,63.577945 100.873968,63.467155 100.85816,63.3660615 C100.853033,63.327518 100.85798,63.2841459 100.869547,63.2472341 C100.973892,62.9351298 101.603633,62.6927167 101.603633,62.6927167 C102.757062,62.4147733 104.481677,62.3280015 104.932655,61.9627776 C104.932655,61.9627776 108.188112,61.9342907 108.57472,61.0743993 C107.775853,58.8828993 101.68522,61.4623385 100.869547,61.8552667 C100.706118,61.8552667 100.606042,61.814442 100.556562,61.7477559 C100.288753,61.358682 101.610403,60.0774537 101.654855,60.0332559 C101.655247,60.0328646 101.659512,60.0280124 101.660529,60.027582 C101.861953,59.9707685 106.72479,59.7233624 109.046986,56.592908 C109.21088,54.6572624 106.269899,57.6849798 106.269899,57.6849798 C106.050279,55.1745667 103.071964,57.8441898 101.341812,58.0527863 C99.6118357,58.261195 99.5611813,57.2699428 100.767044,57.1134798 C101.972731,56.9572163 103.334783,57.0595189 104.016436,55.2348863 C104.697873,53.4102537 106.745197,55.3411333 107.11224,54.6633863 C107.46772,54.0068167 106.442386,53.4471537 106.378153,53.4128754 C106.378157,53.4128754 107.89751,51.8442733 105.433505,51.8964146 C102.99431,51.9480393 99.8407878,51.5924493 99.7770052,51.5852102 C99.9299778,51.5271524 102.414397,50.5953863 104.750679,50.6459037 C107.162483,50.6980489 105.851125,48.9257298 103.544249,48.9257298 C101.23751,48.9257298 100.033075,48.1448624 100.033075,48.1448624 C101.343847,47.6583341 102.654618,47.1715124 103.965292,46.6849841 C103.877879,46.320132 103.790923,45.9577646 103.70351,45.5929124 C103.70351,45.5929124 106.009466,43.7669689 102.758862,44.1839624 C99.5082965,44.6011515 99.1396878,44.6536059 99.1396878,44.6536059 C99.1396839,44.6536059 92.7408835,45.6285993 92.5896443,45.6438407 C92.589253,45.6438407 92.5845574,45.6439072 92.5839313,45.6438407 C92.5219957,45.634195 91.8882117,45.4383863 91.7701748,45.1968146 C91.766653,45.1888907 91.761253,45.176545 91.7587878,45.1685389 C91.7560487,45.1588933 91.7540139,45.1443641 91.7530748,45.1346011 C91.7522922,45.1231946 91.7511183,45.1065602 91.7530748,45.0949933 C91.7794878,44.9676922 91.9768617,44.8300411 92.4814878,44.7045693 C94.1591857,44.2875563 100.086488,43.0902433 100.977683,43.4031302 C101.092586,43.4434385 101.176466,43.4343328 101.228079,43.391802 C101.562253,43.0911237 100.450479,41.1734976 97.7225791,40.902128 C94.5768835,40.5894172 92.6409052,41.6829954 92.6409052,41.6829954 C92.6409052,41.6829954 90.5939922,40.9505715 92.4815661,40.3249737 C94.3688661,39.699552 97.3583922,40.5343411 97.3583922,40.5343411 C97.3583883,40.5343411 100.71187,39.5423846 97.93314,39.1253911 C95.1544878,38.708202 94.2783574,39.5004759 93.005053,39.5441259 C92.4968074,38.9132846 97.3675096,38.7643541 97.6713574,38.2426867 C97.157653,37.3040259 94.14414,38.2426867 92.3789661,38.2426867 C91.6281704,37.9260041 91.5784943,37.410715 92.4301839,37.0940324 C94.2302622,37.0245015 95.9223796,37.1296098 97.7225752,37.0600946 C97.6701326,36.104412 97.7237491,34.9715076 97.6713613,34.0159424 C95.3881004,33.6011011 92.7106004,34.3197315 91.4286874,34.2592554 C91.7715874,33.2164685 96.7013178,32.9473098 97.2503178,32.663575 C98.3829874,31.2557989 92.5219917,32.6418224 92.3791657,32.663575 C91.3388243,32.5107491 91.4018243,31.8569011 92.0604874,31.4639924 C93.5808417,31.2901672 96.9903352,31.6855293 96.7324657,30.660488 C96.5348961,29.6999728 94.3685961,30.2142446 93.4774004,30.4228293 C92.5862048,30.631238 91.2751396,30.4737537 91.2751396,30.4737537 C90.7044222,29.709732 96.4149222,30.0220124 96.362683,29.4326102 C96.28821,28.755908 92.7429222,29.2220298 91.5369222,29.2741711 C90.6094526,28.6378711 95.8972265,28.2148124 96.1462917,28.1311711 C96.1474657,28.1303885 96.1513004,28.1260959 96.1520048,28.1255089 C96.3495939,26.3925198 92.48157,28.1255089 91.747483,28.1255089 C91.6213187,28.1255089 91.5258287,28.0941889 91.4572526,28.0406311 C91.4419526,28.0282502 91.4245787,28.0097767 91.4117243,27.995365 C91.1597243,27.7030411 91.3832765,27.0334215 91.3832765,27.0334215 C91.3832765,27.0334215 92.7617048,26.417528 92.8457765,26.2695367 C92.8461678,26.2683628 92.8510591,26.2650054 92.8514896,26.2638746 C92.8516578,26.2634833 92.8513683,26.2587563 92.8514896,26.2582124 C92.8514739,26.2578211 92.8515522,26.2530198 92.8514896,26.2525502 C92.8510983,26.2517676 92.8463635,26.247745 92.8457765,26.246888 C92.8426461,26.2425133 92.8349765,26.2350159 92.8286765,26.2299015 C92.6668683,26.1060048 91.7187417,25.7932646 91.5938178,25.7828754 C91.5930352,25.7828324 91.5889265,25.7828754 91.5881048,25.7828754 C91.5873222,25.782582 91.5831743,25.7776437 91.5824309,25.7772133 C91.5808657,25.7760393 91.5780874,25.7732298 91.5767178,25.7715511 C91.5759352,25.7707685 91.57167,25.7669807 91.5710048,25.7658889 C91.4995917,25.6201554 91.5881048,24.5832693 91.5881048,24.5832693 C91.5881048,24.5832693 92.680333,23.769415 92.749007,23.4459237 C92.7493983,23.4431846 92.7486157,23.4372133 92.749007,23.4345993 C92.7493983,23.4318602 92.7488739,23.4257715 92.749007,23.423275 C92.7490657,23.4209272 92.7491048,23.4143728 92.749007,23.4119507 C92.7488348,23.4096028 92.7493983,23.4029311 92.749007,23.4006263 C92.748827,23.3994524 92.749187,23.3960559 92.749007,23.3949641 C92.7482243,23.3918337 92.7445461,23.3866841 92.7432939,23.3836398 C92.7429026,23.3824659 92.7436852,23.3789911 92.7432939,23.3779776 C92.7429026,23.377195 92.7381287,23.3732898 92.7375809,23.3723154 C92.736407,23.3703589 92.7331591,23.3684024 92.7318678,23.3666533 C92.7299113,23.3639141 92.7283461,23.3577511 92.7261939,23.3553289 C92.7254113,23.3545463 92.7213809,23.3504454 92.7204809,23.3496667 C92.7160983,23.346145 92.7086635,23.3415433 92.7033809,23.3383424 C92.701033,23.3371685 92.6943026,23.3338502 92.6919939,23.3326802 C92.4161439,23.2009809 91.2750222,23.5929759 91.2750222,23.5929759 C91.2750183,23.2454389 91.2750222,22.8993693 91.2750222,22.5518128 C91.2750183,22.5518128 92.27412,22.4438226 92.3790091,21.9746585 C92.3851526,21.9471654 92.3821396,21.92014 92.3790091,21.8954389 C92.3774439,21.8856367 92.37627,21.8708728 92.3732961,21.8615011 C92.3668004,21.8413489 92.3569787,21.817493 92.3448091,21.7992583 C92.3428526,21.7965191 92.3354961,21.7906652 92.3334222,21.7879339 C92.1048222,21.4945143 91.17252,21.4540926 91.17252,21.4540926 C90.9977087,19.6295187 90.8238091,17.8069404 90.6489743,15.9824839 L90.6495652,15.9820652 Z M89.7163043,33.8513696 L89.7163043,34.57 C89.7163083,34.57 88.5405717,34.5101187 88.322087,34.326687 C88.320913,34.3259043 88.317313,34.321913 88.3163739,34.3210326 C88.3155913,34.32025 88.3115609,34.3162978 88.3106609,34.3153783 C88.3098783,34.3145957 88.3057696,34.3106435 88.3049478,34.3097239 C88.3041652,34.3089413 88.2999783,34.3049891 88.2992348,34.3040696 C88.2972783,34.3013304 88.2950087,34.295637 88.2935217,34.2927413 C88.2931304,34.2919587 88.293913,34.2880457 88.2935217,34.287087 C88.2931304,34.2863043 88.2881217,34.2823913 88.2878478,34.2814326 C88.2876678,34.28065 88.28802,34.276737 88.2878478,34.2757783 C88.2876678,34.2738217 88.2878674,34.2664848 88.2878478,34.26445 C88.2878909,34.2632761 88.28775,34.2597935 88.2878478,34.2587957 C88.2880043,34.2576217 88.2876678,34.2541783 88.2878478,34.2531413 C88.2890217,34.2489543 88.2913696,34.2404435 88.2935217,34.2361587 C88.293913,34.2349848 88.2986087,34.2315804 88.2992348,34.2305043 C88.3019739,34.2261217 88.3069043,34.217963 88.3106217,34.2135217 C88.3117957,34.2123478 88.3152391,34.2089826 88.3163348,34.2078674 C88.3186826,34.2055196 88.3252174,34.1988478 88.3277217,34.1965391 C88.335587,34.1896326 88.3458783,34.1810826 88.3561696,34.1738865 C88.7506239,33.8992887 89.5382022,33.9057648 89.6934717,33.8626822 C89.6946457,33.8622909 89.6979717,33.8630735 89.6991848,33.8626822 C89.7003587,33.8622909 89.7038804,33.8574583 89.7048587,33.8570278 C89.7056413,33.8566365 89.7098283,33.8574191 89.7105717,33.8570278 C89.7113543,33.8566365 89.7156978,33.851843 89.7162848,33.8513735 L89.7163043,33.8513696 Z M91.3836717,34.8076391 C91.424297,34.8076391 93.7256283,34.8273217 93.9273457,35.1245174 C93.9289109,35.1268652 93.9317674,35.133263 93.9330587,35.1358457 C93.9346239,35.1397587 93.9377935,35.1488565 93.9387717,35.1528283 C93.939163,35.1555674 93.9386309,35.1614174 93.9387717,35.1641565 C93.9387443,35.1682652 93.9395543,35.1769717 93.9387717,35.1811391 C93.9375978,35.1853652 93.9348587,35.1937978 93.9330587,35.1981217 C93.7573317,35.569313 91.4291022,35.7922587 91.4291022,35.7922587 L91.3835778,34.8076978 L91.3836717,34.8076391 Z M91.2527843,36.2278978 C91.253567,36.2282891 91.2576365,36.2275065 91.2584583,36.2278978 C91.2592409,36.2282891 91.2629974,36.2275065 91.2641713,36.2278978 C91.4007991,36.2637883 92.3539735,36.2945135 92.4706017,36.4542283 C92.4717757,36.4557935 92.4754148,36.4583761 92.4763148,36.4598826 C92.4767061,36.4606652 92.4759235,36.4647739 92.4763148,36.465537 C92.4770974,36.4671022 92.48148,36.4696065 92.4820278,36.4711913 C92.4822078,36.4719739 92.4818596,36.4760826 92.4820278,36.4768457 C92.4821139,36.4776283 92.481977,36.4816978 92.4820278,36.4825 C92.4820317,36.4832826 92.4820591,36.4873326 92.4820278,36.4881543 C92.4819496,36.488937 92.4821413,36.4929674 92.4820278,36.4938087 C92.4818713,36.4945913 92.4822078,36.4986217 92.4820278,36.499463 C92.4816365,36.5002457 92.4766278,36.504237 92.4763148,36.5051174 C92.4759235,36.5059 92.4767061,36.5098913 92.4763148,36.5107717 C92.4747496,36.5135109 92.4724017,36.5193609 92.4706017,36.5221 C92.4698191,36.5228826 92.465593,36.5268348 92.4648887,36.5277543 C92.4641061,36.528537 92.4656713,36.5324891 92.4648887,36.5334087 C92.2672996,36.773513 91.3877061,36.8389783 91.3438213,36.8389783 C91.34343,36.8389 91.3384604,36.839123 91.3381083,36.8389783 C91.337717,36.8387983 91.3384996,36.8335978 91.3381083,36.8333239 C91.3373257,36.83215 91.3331387,36.8289022 91.3324343,36.8276696 C91.2922239,36.7464935 91.2527609,36.2278783 91.2527609,36.2278783 L91.2527843,36.2278978 Z M84.2361104,38.1178196 C84.9875126,38.0790022 86.4786757,38.254958 89.278067,39.0231804 C89.278067,39.08242 89.3347513,39.8041848 89.3121887,39.9228674 C89.3120087,39.92365 89.3067496,39.9276804 89.3064757,39.9285217 C89.3062957,39.9293043 89.3066596,39.9336283 89.3064757,39.9341761 C89.3060843,39.9345674 89.3014278,39.9397522 89.3007626,39.9398304 C89.2568778,39.9179213 84.2077409,38.4751978 83.7465887,38.4969348 C83.7339887,38.4973261 83.7187278,38.4981087 83.7067539,38.4969348 C83.69658,38.4957609 83.68218,38.493413 83.6726322,38.4912804 C83.6600713,38.48815 83.6438322,38.4793261 83.6328013,38.4742978 C83.6287317,38.4723413 83.6195361,38.4707761 83.6157013,38.4686435 C83.6145274,38.4678609 83.6112404,38.4637522 83.6099883,38.4629891 C83.5946491,38.4526391 83.5794274,38.43694 83.5701574,38.4233813 C83.5693748,38.4222074 83.5651096,38.418803 83.5644443,38.417727 C83.5632704,38.4153791 83.5597878,38.4086291 83.5587704,38.4063987 C83.5583791,38.4052248 83.5591617,38.4018987 83.5587704,38.4007443 C83.5579878,38.3983965 83.5536052,38.3917639 83.5530574,38.3894161 C83.5528774,38.3882422 83.5532374,38.3849552 83.5530574,38.3837617 C83.5528774,38.3814139 83.5531161,38.3748987 83.5530574,38.3724335 C83.5531043,38.3700857 83.5528774,38.3636096 83.5530574,38.3611052 C83.55384,38.3548248 83.5565791,38.3449052 83.5587704,38.3384526 C83.5649922,38.3229961 83.5777487,38.3030709 83.5928922,38.2875283 C83.6701004,38.2124409 83.8634596,38.1370091 84.2359422,38.1177726 L84.2361104,38.1178196 Z M86.8537409,40.2510152 C87.6585757,40.2223091 89.5868061,40.6836022 89.6934365,40.6584217 C89.6934326,40.8113102 89.7787604,41.5339652 89.6820496,41.6826022 C89.681267,41.6837761 89.6773148,41.6871022 89.6763365,41.6882565 C89.6755539,41.6894304 89.6716409,41.6929522 89.6706235,41.6939109 C89.6694496,41.6946935 89.665967,41.6988217 89.6649104,41.6995652 C89.6629539,41.7007391 89.655793,41.7043391 89.6535235,41.7052196 C89.6523496,41.7056109 89.6490626,41.7050396 89.6478104,41.7052196 C89.6454626,41.7053996 89.6390061,41.7053996 89.6364235,41.7052196 C89.6352496,41.7050396 89.6321191,41.7056109 89.6307104,41.7052196 C89.4668165,41.6644809 86.6211887,40.7657761 86.5122104,40.3981261 C86.5106452,40.3920804 86.5120813,40.3812609 86.5122104,40.3754735 C86.5133843,40.3626583 86.5196452,40.3470022 86.5293104,40.3358657 C86.5304843,40.3346917 86.533693,40.3313657 86.5350235,40.3302113 C86.5361974,40.3290374 86.5393278,40.3257113 86.5407365,40.324557 C86.5953665,40.2815017 86.7080896,40.2561902 86.8537213,40.2509976 L86.8537409,40.2510152 Z M94.7751104,42.2314065 C95.5436909,42.2164587 96.0863126,42.2818907 95.8847909,42.5143196 C95.3359474,43.1473326 91.5428778,43.6686478 91.5428778,43.6686478 L91.4745913,42.5143196 C91.556053,42.5024043 93.4833522,42.2565087 94.7752435,42.2314065 L94.7751104,42.2314065 Z M83.917393,45.8302326 C84.5623996,45.7960991 86.06448,46.1483043 89.4089583,47.5560609 L89.4317322,48.3878565 C89.4317361,48.3878565 83.767993,46.679813 83.5703843,46.3961174 C83.4731374,46.2564628 83.2923626,45.8633761 83.9175104,45.8302717 L83.917393,45.8302326 Z M95.0141974,47.0694348 C95.1865122,47.0607283 95.307793,47.078063 95.3499365,47.1203591 C95.3511104,47.121533 95.3547104,47.12482 95.3556104,47.1260135 C95.3579583,47.1299265 95.3599539,47.1388678 95.3613235,47.1429961 C95.3621061,47.1472613 95.3671148,47.1553417 95.3670365,47.1599787 C95.3646887,47.1838404 95.3466887,47.2159802 95.3158187,47.2505148 C94.78881,47.8400735 91.9582317,48.4274604 91.9582317,48.4274604 C91.9582317,48.4274604 91.9582278,47.6854887 91.9582317,47.6635757 C91.958623,47.6636148 91.9633187,47.6635678 91.9639448,47.6635757 C92.0929735,47.659193 94.1707057,47.1120713 95.0141622,47.0694387 L95.0141974,47.0694348 Z M82.5971322,47.1712854 C83.4426822,47.1267061 85.3519148,47.5726463 89.6308278,49.5873941 C89.6308239,49.6082898 89.6689409,50.3031485 89.6535626,50.3682615 C89.6531713,50.3681793 89.6484365,50.368422 89.6478496,50.3682615 C89.394167,50.2869563 81.9483496,47.6862615 81.9483496,47.6862615 C81.9404061,47.6577511 81.8283991,47.2118833 82.597093,47.1713441 L82.5971322,47.1712854 Z M96.7725235,50.4249811 C96.9888952,50.415942 97.1308604,50.434568 97.1651778,50.4815637 C97.1683083,50.4870028 97.1704604,50.4979202 97.1708909,50.5042202 C97.1701083,50.5268376 97.1512083,50.555665 97.1139796,50.5890941 C96.4387839,51.1954202 92.1340448,51.9299963 91.9810448,51.9414615 C91.9802622,51.9414615 91.975997,51.9415476 91.9753317,51.9414615 C91.9749404,51.9412815 91.9702448,51.9418528 91.9696578,51.9414615 C91.9692665,51.9410702 91.9644926,51.9363354 91.9639448,51.9357876 C91.9623796,51.9338311 91.9594448,51.927218 91.9582317,51.9244789 C91.9578404,51.923305 91.958623,51.9198615 91.9582317,51.918805 C91.9574491,51.9164572 91.9531057,51.9100398 91.9525187,51.9074963 C91.9251665,51.7669593 92.0142743,51.2747963 92.0208052,51.2058485 C92.0208678,51.2046746 92.0208052,51.2008789 92.0208052,51.2001746 C92.0209852,51.2003546 92.0260878,51.1999946 92.0265183,51.2001746 C92.0273009,51.2003076 92.031253,51.2057702 92.0321922,51.2058485 C92.0333661,51.2059033 92.0366139,51.2058328 92.0379052,51.2058485 C92.3134422,51.2012702 95.6124704,50.4732093 96.7724922,50.4249811 L96.7725235,50.4249811 Z M84.116567,52.3205572 C85.3981083,52.254728 89.2811974,54.0252159 89.471567,54.0803311 C89.4719583,54.0804289 89.4768887,54.0803193 89.47728,54.0803311 C89.4573235,54.1594254 89.4540365,54.7986485 89.4374491,54.9007985 C89.4370578,54.9035376 89.4378404,54.9106202 89.4374491,54.9121072 C89.4372926,54.9124985 89.4318926,54.9119311 89.4317361,54.9121072 C89.3270543,54.856358 84.0051274,52.6601507 83.7695622,52.835455 C83.6227526,52.4895224 83.7749622,52.3380876 84.1166883,52.3205376 L84.116567,52.3205572 Z M95.5661322,52.7845463 C95.8327865,52.7728854 96.0279691,52.7846715 96.0896778,52.8184724 C96.0971517,52.823168 96.1039996,52.829742 96.1067778,52.835455 C96.1071691,52.8362376 96.1065978,52.8401115 96.1067778,52.8411289 C96.1068248,52.8423028 96.1068717,52.8457463 96.1067778,52.8468028 C96.1063865,52.8491507 96.1079517,52.855842 96.1067778,52.8581115 C96.1059952,52.8592854 96.1019257,52.8625724 96.1010648,52.8637854 C96.0971517,52.868755 96.0901865,52.8752898 96.0839648,52.880768 C95.6888061,53.2300463 92.0208561,53.9502028 92.0208561,53.9502028 C92.0208561,53.9502028 92.0037561,53.2744985 92.0037561,53.208955 C92.107937,53.1868072 94.4758213,52.8324028 95.5661909,52.7845659 L95.5661322,52.7845463 Z M95.2702083,55.1214159 C95.528293,55.1128854 95.711267,55.1275202 95.7539191,55.1723402 L95.759593,55.1780141 C95.760767,55.1799707 95.7592017,55.1872489 95.759593,55.1893228 C95.7597691,55.1904967 95.7652278,55.1939011 95.7653061,55.1949967 C95.7652513,55.1961707 95.7597887,55.1995359 95.759593,55.2006707 C95.7592017,55.2030185 95.760767,55.2095141 95.759593,55.2119793 C95.7588104,55.2131533 95.7546626,55.216362 95.7539191,55.2176533 C95.7507887,55.2227793 95.7471104,55.2293141 95.7425322,55.2346359 C95.7390104,55.2386663 95.7300104,55.2475098 95.7254322,55.2516185 C95.32953,55.591388 92.2199322,56.2418337 92.2199322,56.2418337 C92.2199322,56.2418337 92.134573,55.499862 92.134573,55.4779489 C92.2208322,55.4799054 94.2998557,55.1534989 95.2700948,55.1214707 L95.2702083,55.1214159 Z M82.1476213,55.3081424 C82.8978887,55.2609746 84.7570343,55.5683793 89.3462517,57.2263554 L89.4999013,58.120388 C89.4999013,58.120392 81.8587057,55.6676924 81.6411404,55.5909967 C81.6415317,55.5909967 81.6409761,55.5859489 81.6411404,55.5853228 C81.6413204,55.580588 81.6399665,55.5691228 81.6411404,55.5569924 C81.6438796,55.5345315 81.6553057,55.4991772 81.6809713,55.4664524 C81.7348226,55.400815 81.8578487,55.3262402 82.1476017,55.3080211 L82.1476213,55.3081424 Z M92.214317,57.2489924 C92.3063987,57.2685576 93.5876583,57.3108459 93.8247691,57.509288 C93.825943,57.5100707 93.8294257,57.5140228 93.8304822,57.514962 C93.8312648,57.5157446 93.835217,57.5196576 93.8361952,57.5206359 C93.8369778,57.5214185 93.8410865,57.5253315 93.8419083,57.5263098 C93.8442561,57.5294402 93.8458213,57.5346446 93.8476213,57.5376185 C93.8480126,57.5387924 93.8527865,57.542275 93.8532952,57.5432924 C93.8552517,57.5474011 93.8579517,57.5560489 93.8590083,57.560275 C93.8591883,57.5614489 93.8588478,57.5648533 93.8590083,57.5659489 C93.8591139,57.5671228 93.8589613,57.5705272 93.8590083,57.5716228 C93.8590004,57.5739707 93.8591883,57.5807402 93.8590083,57.5829315 C93.8588322,57.5841054 93.8591883,57.5874707 93.8590083,57.5886054 C93.858617,57.5909533 93.854117,57.5976054 93.8532952,57.5999141 C93.8529039,57.601088 93.8536865,57.6044141 93.8532952,57.605588 C93.8521213,57.6079359 93.84903,57.6145489 93.8476213,57.6168967 C93.6500322,57.9225446 92.3111452,58.0356315 92.3111452,58.0356315 C92.3111452,58.0356315 92.245363,57.4367011 92.214403,57.2491098 L92.214317,57.2489924 Z M95.3157952,58.9917837 C95.6141452,58.984662 95.8282865,59.0186272 95.8734822,59.1049489 C95.898917,59.1634567 95.8499648,59.2498841 95.7084574,59.3652446 C94.6107509,60.260275 92.2199791,60.4346793 92.2199791,60.4346793 L92.2199791,59.4501185 C92.2203704,59.4501654 92.2245574,59.4501928 92.2256922,59.4501185 C92.3614983,59.434075 94.3252357,59.0153989 95.3158226,58.9917837 L95.3157952,58.9917837 Z M98.3603387,59.9084533 C98.7392778,59.8941707 98.9025496,59.9573389 98.952167,60.0442554 C98.9561583,60.0519641 98.9612452,60.0644467 98.9635539,60.0725859 C98.9670757,60.0872989 98.97048,60.1078033 98.969267,60.123518 C98.9570583,60.235662 98.8349204,60.3700398 98.7416452,60.4573593 C98.3683409,60.8066376 92.4193409,62.681142 92.4193409,62.681142 C92.4193409,62.681142 92.3745483,61.4377724 92.396567,61.3287746 C95.8746757,60.2806659 97.5758713,59.9380593 98.3604365,59.9085159 L98.3603387,59.9084533 Z M94.5134257,63.4280402 C94.8916409,63.4140315 95.1873887,63.4362576 95.27598,63.5242267 C95.2814191,63.5300572 95.2894409,63.5404267 95.29308,63.5468833 C95.2950365,63.5508354 95.2974626,63.5596789 95.2987539,63.5638659 C95.2999278,63.568092 95.2983626,63.5763876 95.2987539,63.5808485 C95.2989378,63.5884007 95.3007104,63.6009224 95.2987539,63.6091789 C95.2944496,63.6258485 95.2829843,63.6463528 95.270267,63.6657654 C94.7612974,64.162448 92.2883322,64.2372654 92.2883322,64.2372654 L92.2883322,63.6204915 C92.7527126,63.6049176 93.7864213,63.4550559 94.5132887,63.4281067 L94.5134257,63.4280402 Z M96.988817,64.4408924 C97.1063883,64.4381533 97.178087,64.4571315 97.1879909,64.4918207 C97.1883822,64.4945598 97.1883822,64.5002337 97.1879909,64.5031293 C97.182043,64.5320076 97.1475026,64.5757633 97.0741761,64.6276111 C96.0862696,65.3259915 92.3736326,66.0422154 92.3736326,66.0422154 C92.3736326,66.0422154 92.4196343,65.5541415 92.4419191,65.4367698 C92.5451843,65.4352046 96.1004191,64.4625198 96.98868,64.4408807 L96.988817,64.4408924 Z M99.0715343,65.2161054 C99.5090126,65.2119967 99.8429126,65.2761863 100.033263,65.4141446 C100.033654,65.4141446 100.038623,65.4140507 100.038976,65.4141446 C100.039117,65.4145359 100.03887,65.4191924 100.038976,65.4198185 C100.039042,65.4206011 100.038944,65.4247098 100.038976,65.4254924 C100.038886,65.4274489 100.039156,65.4345707 100.038976,65.4368011 C100.02035,65.5721102 99.74223,66.2086489 98.7642626,66.4836185 C97.5445083,66.3752859 92.3678061,67.8970293 92.26548,67.9208598 C92.2650887,67.9204685 92.2600409,67.9212511 92.2598061,67.9208598 C92.2594148,67.9189033 92.2599861,67.9123685 92.2598061,67.9095511 C92.257067,67.8120733 92.3280965,67.2871228 92.3280926,67.2871228 C94.1125383,66.2260228 97.3553752,65.232188 99.0714404,65.2161446 L99.0715343,65.2161054 Z M85.8180561,68.2037141 C85.8294822,68.2035341 85.8400474,68.203675 85.8521778,68.2037141 C88.091417,68.4438185 88.92783,69.2773163 89.1641778,69.6126641 C88.71768,70.3917511 85.178743,68.6444989 85.5506778,68.271625 C85.5932478,68.233825 85.6808648,68.2065628 85.8181343,68.203722 L85.8180561,68.2037141 Z M98.6504909,68.3508367 C98.7394265,68.347315 98.8206496,68.3655498 98.8781126,68.4017611 C98.9015909,68.4173741 98.9247561,68.4397959 98.9407135,68.464002 C98.9622743,68.4987498 98.9766352,68.5457807 98.9805483,68.5998041 C98.7466265,68.9592172 97.5368113,68.8023237 97.461133,68.7921889 C97.5220787,68.7705889 98.2206157,68.367115 98.650483,68.3508367 L98.6504909,68.3508367 Z M93.8532952,70.7726193 C94.0193296,70.7658107 94.15728,70.7824802 94.2345626,70.829198 C94.2439148,70.8352241 94.2556148,70.8447328 94.2630104,70.8518546 C94.2653583,70.8542024 94.2722843,70.8605807 94.2743974,70.8631633 C94.2775278,70.8670763 94.28328,70.8759198 94.2857843,70.8801459 C94.2881322,70.8844502 94.2896974,70.8925111 94.2914974,70.8971285 C94.3055843,70.9394167 94.3001061,70.9978072 94.2630496,71.0668802 C93.9117757,71.7218063 92.3737539,71.4799411 92.3737539,71.4799411 L92.3737539,71.0216063 C92.3741452,71.0217354 92.3790757,71.0215007 92.3794278,71.0216063 C92.4660587,71.0289237 93.3137061,70.7946889 93.8533148,70.7726389 L93.8532952,70.7726193 Z M84.793817,72.4984476 C85.2670017,72.4746954 85.6805909,72.7833563 86.1140583,73.030328 C87.0799343,72.8338737 89.0617539,73.1831089 89.0617539,73.1831089 L89.0617539,74.0545046 C89.0617539,74.0552872 89.057293,74.0595524 89.0560409,74.0601785 C89.0552583,74.0605698 89.0515409,74.0597872 89.050367,74.0601785 C88.8699678,74.0914046 86.5473887,73.9905067 86.0287148,73.6641002 C85.6056365,73.6641002 84.4079322,73.0355676 84.3158191,72.713485 C84.3150365,72.7107459 84.310693,72.7048372 84.3101061,72.7021763 C84.3093235,72.698185 84.3104974,72.6891067 84.3101061,72.6851937 C84.309977,72.6824546 84.3100552,72.6763893 84.3101061,72.6738459 C84.3102391,72.671498 84.3097148,72.6649241 84.3101061,72.6625372 C84.3102861,72.6613633 84.3099222,72.6580763 84.3101061,72.6568633 C84.3104974,72.6545154 84.3150365,72.6478241 84.3158191,72.6455546 C84.3162104,72.6443807 84.3154278,72.6410154 84.3158191,72.6398807 C84.481337,72.5521776 84.642617,72.5060076 84.7938365,72.4984202 L84.793817,72.4984476 Z M94.9516865,72.9284911 C95.314993,72.9090433 95.46903,73.0207059 95.1850017,73.4207715 C94.3946843,74.5339933 92.35098,74.0771454 92.35098,74.0771454 L92.2656209,73.3868063 C92.9864622,73.4147846 94.3039252,72.9631802 94.9515339,72.9284715 L94.9516865,72.9284911 Z M87.3147952,75.1861215 C88.1411517,75.1478128 89.0390583,75.4747085 89.0390583,75.4747085 C89.0602278,75.5166407 89.4831887,76.3456933 89.1073487,76.6233628 C89.0933791,76.6333802 89.07804,76.643202 89.0618243,76.6516541 C88.6007309,76.8917585 86.3970417,76.4640198 86.2677157,75.5822193 C86.527033,75.3100476 86.9112157,75.2048259 87.3147874,75.1861215 L87.3147952,75.1861215 Z M78.7959039,75.616165 C79.5516496,75.5710711 80.39583,76.0339998 80.4917191,76.0801541 C80.492893,76.0805454 80.4966887,76.0799741 80.497393,76.0801541 C80.497393,76.1062541 80.4689452,76.9176041 80.4689452,76.9176041 C80.4689452,76.9176041 78.9728909,76.5029193 78.4999017,75.6670933 C78.5947304,75.6413846 78.6960039,75.6221207 78.7958257,75.616165 L78.7959039,75.616165 Z M93.1876865,75.7293341 C94.0305757,75.7240124 95.0489061,75.9209089 95.1964474,76.2046515 C95.2243474,76.262682 95.2160517,76.3266563 95.1623257,76.391382 C94.7451365,76.893308 92.3738909,76.436648 92.3738909,76.436648 L92.3738909,75.825548 C92.5848626,75.7641837 92.8754648,75.731322 93.1876474,75.7293498 L93.1876865,75.7293341 Z" id="Shape" fill="#007934"></path>
    </g>
</svg>