<?xml version="1.0" ?><svg height="120px" version="1.1" viewBox="0 0 180 120" width="180px" xmlns="http://www.w3.org/2000/svg" xmlns:sketch="http://www.bohemiancoding.com/sketch/ns" xmlns:xlink="http://www.w3.org/1999/xlink"><title/><defs/><g fill="none" fill-rule="evenodd" id="Page-1" stroke="none" stroke-width="1"><g id="rectangle_mongolia"><rect fill="#CA4638" height="120" id="Rectangle-1" width="60" x="120" y="0"/><rect fill="#346DA6" height="120" id="Rectangle-1" width="60" x="60" y="0"/><rect fill="#CA4638" height="120" id="Rectangle-1" width="60" x="0" y="0"/><path d="M37.1209418,75.604403 C37.1216138,75.6435953 37.1219512,75.6828692 37.1219512,75.7222222 C37.1219512,79.4348032 34.1189833,82.4444444 30.4146341,82.4444444 C26.710285,82.4444444 23.7073171,79.4348032 23.7073171,75.7222222 C23.7073171,75.6828692 23.7076545,75.6435953 23.7083265,75.604403 C24.8384357,78.1920449 27.4158677,80 30.4146341,80 C33.4134006,80 35.9908326,78.1920449 37.1209418,75.604403 C37.1209418,75.604403 35.9908326,78.1920449 37.1209418,75.604403 Z M30.4146341,78.7777778 C33.1087062,78.7777778 35.2926829,76.5889478 35.2926829,73.8888889 C35.2926829,71.18883 33.1087062,69 30.4146341,69 C27.7205621,69 25.5365854,71.18883 25.5365854,73.8888889 C25.5365854,76.5889478 27.7205621,78.7777778 30.4146341,78.7777778 Z M27.3658537,64.7222222 C27.3658537,66.409759 28.7308392,67.7777778 30.4146341,67.7777778 C32.0984291,67.7777778 33.4634146,66.409759 33.4634146,64.7222222 C33.4634146,63.5 32.7012195,63.3472222 32.7012195,62.8888889 C32.7012195,62.4305556 33.1585366,61.8194444 32.2439024,61.0555556 C32.7012195,61.8194444 31.9390244,61.9722222 31.9390244,62.7361111 C31.9390244,63.5 32.2439024,63.5 32.2439024,64.1111111 C32.2439024,64.4486185 31.9709054,64.7222222 31.6341463,64.7222222 C31.2973874,64.7222222 31.0243902,64.4486185 31.0243902,64.1111111 C31.0243902,63.5 31.6341463,62.8888889 31.6341463,61.9722222 C31.6341463,61.0555556 31.4817073,60.75 31.0243902,59.9861111 C30.5670732,59.2222222 29.8048781,58.6111111 30.4146341,58 C29.5,58.3055556 29.9573171,59.5277778 29.9573171,60.2916667 C29.9573171,61.0555556 29.347561,61.5138889 29.347561,62.4305556 C29.347561,63.3472222 29.8048781,63.5 29.8048781,64.1111111 C29.8048781,64.4486185 29.5318809,64.7222222 29.195122,64.7222222 C28.8583629,64.7222222 28.5853659,64.4486185 28.5853659,64.1111111 C28.5853659,63.5 28.8902439,63.5 28.8902439,62.7361111 C28.8902439,61.9722222 28.1280488,61.8194444 28.5853659,61.0555556 C27.6707317,61.8194444 28.1280488,62.4305556 28.1280488,62.8888889 C28.1280488,63.3472222 27.3658537,63.5 27.3658537,64.7222222 C27.3658537,64.7222222 27.3658537,63.5 27.3658537,64.7222222 Z M17,83.6666667 L17,113 L23.097561,113 L23.097561,83.6666667 L17,83.6666667 Z M37.7317073,83.6666667 L37.7317073,113 L43.8292683,113 L43.8292683,83.6666667 L37.7317073,83.6666667 Z M24.3170732,88.5555556 L24.3170732,91 L36.5121951,91 L36.5121951,88.5555556 L24.3170732,88.5555556 Z M24.3170732,105.666667 L24.3170732,108.111111 L36.5121951,108.111111 L36.5121951,105.666667 L24.3170732,105.666667 Z M24.3170732,83.6666667 L36.5121951,83.6666667 L30.4146341,87.3333333 L24.3170732,83.6666667 Z M24.3170732,109.333333 L36.5121951,109.333333 L30.4146341,113 L24.3170732,109.333333 Z M30.4146341,98.2964068 L30.4146341,98.3488052 C28.9583339,98.4974723 27.8231707,99.6992332 27.8231707,101.159722 C27.8231707,102.620211 28.9583339,103.821972 30.4146341,103.970639 L30.4146341,103.986111 C30.4740636,103.986111 30.533284,103.985214 30.5922826,103.983433 C30.6344648,103.985212 30.6768809,103.986111 30.7195122,103.986111 C30.9805535,103.986111 31.233529,103.952411 31.4741194,103.889227 C34.167371,103.390332 36.207317,101.024201 36.207317,98.1805556 C36.207317,95.4874087 34.377583,93.222569 31.8960402,92.5665797 C32.9902344,92.9920987 33.7682927,94.0796717 33.7682927,95.3541667 C33.7682927,96.9995151 32.4715565,98.3333333 30.8719512,98.3333333 C30.716341,98.3333333 30.563597,98.3207108 30.4146341,98.2964068 Z M29.3494057,103.783493 C26.8888065,103.113461 25.0792683,100.858798 25.0792683,98.1805556 C25.0792683,95.3255721 27.1355144,92.9519182 29.8447132,92.4660057 C30.0756258,92.4065937 30.3176681,92.375 30.5670732,92.375 C30.6093724,92.375 30.6514597,92.3759088 30.693317,92.3777079 C30.7526417,92.375907 30.8121908,92.375 30.8719512,92.375 L30.8719512,92.3908901 C32.3282515,92.5435751 33.4634146,93.777816 33.4634146,95.2777778 C33.4634146,96.7777395 32.3282515,98.0119805 30.8719512,98.1646655 L30.8719512,98.2165352 C30.7229884,98.1928545 30.5702444,98.1805556 30.4146341,98.1805556 C28.8150288,98.1805556 27.5182927,99.4801733 27.5182927,101.083333 C27.5182927,102.309529 28.2769003,103.358148 29.3494057,103.783493 Z M31.6341463,95.3541667 C31.6341463,94.7213404 31.1222768,94.2083333 30.4908537,94.2083333 C29.8594305,94.2083333 29.347561,94.7213404 29.347561,95.3541667 C29.347561,95.986993 29.8594305,96.5 30.4908537,96.5 C31.1222768,96.5 31.6341463,95.986993 31.6341463,95.3541667 Z M31.6341463,101.159722 C31.6341463,100.526896 31.1222768,100.013889 30.4908537,100.013889 C29.8594305,100.013889 29.347561,100.526896 29.347561,101.159722 C29.347561,101.792549 29.8594305,102.305556 30.4908537,102.305556 C31.1222768,102.305556 31.6341463,101.792549 31.6341463,101.159722 Z" fill="#E5B731" id="Oval"/></g></g></svg>