<?xml version="1.0" ?><svg height="120px" version="1.1" viewBox="0 0 180 120" width="180px" xmlns="http://www.w3.org/2000/svg" xmlns:sketch="http://www.bohemiancoding.com/sketch/ns" xmlns:xlink="http://www.w3.org/1999/xlink"><title/><defs/><g fill="none" fill-rule="evenodd" id="Page-1" stroke="none" stroke-width="1"><g id="samoa"><rect d="M0,0 L0,120 L180,120 L180,0 L0,0 Z M0,0" fill="#CA4638" height="120" id="Rectangle-326" width="180" x="0" y="0"/><rect d="M0,0 L0,60 L90,60 L90,0 L0,0 Z M0,0" fill="#346DA6" height="60" id="Rectangle-310" width="90" x="0" y="0"/><path d="M45.3333332,16.3333333 L42.5903357,17.7754128 L43.1142015,14.7210397 L40.8950695,12.5579208 L43.9618349,12.1122933 L45.3333334,9.33333333 L46.7048327,12.1122941 L49.7715978,12.557923 L47.552465,14.7210403 L48.0763309,17.7754129 L45.3333332,16.3333333 L45.3333332,16.3333333 L45.3333332,16.3333333 L45.3333332,16.3333333 Z M33.3333332,27 L30.5903357,28.4420795 L31.1142015,25.3877064 L28.8950695,23.2245875 L31.9618349,22.77896 L33.3333334,20 L34.7048327,22.7789607 L37.7715978,23.2245897 L35.552465,25.387707 L36.0763309,28.4420795 L33.3333332,27 L33.3333332,27 L33.3333332,27 L33.3333332,27 Z M56.6666665,24.3333333 L53.9236691,25.7754128 L54.4475348,22.7210397 L52.2284029,20.5579208 L55.2951682,20.1122933 L56.6666667,17.3333333 L58.0381661,20.1122941 L61.1049311,20.557923 L58.8857983,22.7210403 L59.4096642,25.7754129 L56.6666665,24.3333333 L56.6666665,24.3333333 L56.6666665,24.3333333 L56.6666665,24.3333333 Z M45.3333332,49.6666667 L42.1984789,51.5207689 L42.7971827,47.5937177 L40.2610319,44.8125648 L43.7659065,44.2396153 L45.3333334,40.6666667 L46.9007613,44.2396161 L50.4056356,44.8125677 L47.8694838,47.5937185 L48.4681877,51.5207689 L45.3333332,49.6666667 L45.3333332,49.6666667 L45.3333332,49.6666667 L45.3333332,49.6666667 Z M50.6666666,34.5 L49.0992395,35.4270511 L49.3985913,33.4635255 L48.1305159,32.0729491 L49.8829533,31.7864743 L50.6666667,30 L51.4503806,31.7864747 L53.2028178,32.0729505 L51.9347419,33.4635259 L52.2340938,35.4270511 L50.6666666,34.5 L50.6666666,34.5 L50.6666666,34.5 L50.6666666,34.5 Z M50.6666666,34.5" fill="#FFFFFF" id="Star-2"/></g></g></svg>