<?xml version="1.0" ?><svg height="120px" version="1.1" viewBox="0 0 180 120" width="180px" xmlns="http://www.w3.org/2000/svg" xmlns:sketch="http://www.bohemiancoding.com/sketch/ns" xmlns:xlink="http://www.w3.org/1999/xlink"><title/><defs/><g fill="none" fill-rule="evenodd" id="Page-1" stroke="none" stroke-width="1"><g id="cayman_islands"><rect d="M0,0 L0,120 L180,120 L180,0 L0,0 Z M0,0" fill="#346DA6" height="120" id="Rectangle-57" width="180" x="0" y="0"/><g id="g5176" transform="translate(99.000000, 26.000000)"><path d="M11.5366846,75.6140753 C15.0450563,73.5857883 17.3151808,70.7034833 19.4821204,65.5793896 C20.10123,64.2983655 20.4107849,62.6970875 18.9661678,61.7363201 C17.8311055,60.882305 15.9737487,59.9215347 15.1482413,59.0675196 C14.7355015,58.6405135 14.3227339,58.3202568 14.013179,58 C14.2195489,58.2135045 14.4259188,58.427009 14.6322887,58.7472629 C16.6960433,61.3093111 14.5291037,65.0456313 12.2589793,67.2874228 C10.6079923,68.8887008 7.61554534,72.8385225 3.28169411,69.1022053 C2.35300176,68.2481901 0.186062217,71.7710029 1.32112446,74.5465556 C1.94023413,76.2545859 6.37729815,78.4963774 11.5366846,75.6140753 Z M11.5366846,75.6140753" fill="#FCEA83" id="21170896" stroke="#000000" stroke-width="0.1"/><path d="M66.717707,74.5465556 C65.9944887,76.2545859 61.5519217,78.4963774 56.4894772,75.6140753 C52.9767544,73.5857883 50.7038145,70.7034833 48.4308745,65.5793896 C47.9142821,64.2983655 47.6043433,62.6970875 49.050752,61.7363201 C50.187222,60.882305 52.0469103,59.9215347 52.8734136,59.0675196 C53.2866932,58.6405135 53.5966319,58.3202568 54.0098836,58 C53.8032577,58.2135045 53.5966319,58.427009 53.3900061,58.7472629 C51.323692,61.3093111 53.493319,65.0456313 55.662946,67.2874228 C57.3159806,68.8887008 60.4154517,72.8385225 64.7547058,69.1022053 C65.6845499,68.2481901 67.7508361,71.7710029 66.717707,74.5465556 C66.717707,74.5465556 67.7508361,71.7710029 66.717707,74.5465556 L66.717707,74.5465556 L66.717707,74.5465556 Z M66.717707,74.5465556" fill="#FCEA83" id="21170720" stroke="#000000" stroke-width="0.1"/><path d="M62.5229456,66.3913038 C63.687148,64.1086948 62.5229456,62.9130452 61.1470751,62.1521736 C59.6653707,61.5000009 57.8661358,59.9782606 56.9136299,59 C58.6070023,60.7391322 58.2895003,61.9347817 57.1252979,63.8913058 C51.7276216,73.1304348 44.319071,77.8043487 34.052917,77.8043487 C23.786763,77.8043487 16.3782124,73.1304348 10.9805647,63.8913058 C9.81636225,61.9347817 9.49883171,60.7391322 11.0863987,59 C10.2396982,59.9782606 8.33462927,61.5000009 6.85292487,62.1521736 C5.47705445,62.9130452 4.312852,64.1086948 5.47705445,66.3913038 C12.4622691,80.0869577 25.5859979,84 34.052917,84 C42.5198361,84 55.5377309,80.0869577 62.5229456,66.3913038 Z M62.5229456,66.3913038" fill="#FCEA83" id="21170632" stroke="#000000" stroke-width="0.1"/><g fill="#DB161C" id="Group" stroke="#000000" stroke-width="0.1" transform="translate(0.000000, 58.000000)"><path d="M14.2263921,8.32851944 C14.0269316,7.20938517 12.7304384,7.65703888 12.3315174,9 C11.8328662,8.21660601 11.334215,7.43321202 10.935294,6.53790461 C9.73853109,4.52346293 9.5390706,3.1805018 11.2344847,1.27797355 C12.0323267,0.382666131 13.6280106,-0.624554711 14.7250433,0.494579558 C17.0188389,2.62093467 15.822076,6.0902509 14.2263921,8.32851944 C14.2263921,8.32851944 15.822076,6.0902509 14.2263921,8.32851944 L14.2263921,8.32851944 L14.2263921,8.32851944 Z M14.2263921,8.32851944" id="21170456"/><path d="M53.7176231,8.32851944 C53.9155946,7.20938517 55.3013955,7.65703888 55.6973387,9 C56.1922676,8.21660601 56.6871965,7.43321202 57.0831396,6.53790461 C58.270969,4.52346293 58.4689405,3.1805018 56.6871965,1.27797355 C55.994296,0.382666131 54.4105235,-0.624554711 53.2226942,0.494579558 C51.045007,2.62093467 52.1338506,6.0902509 53.7176231,8.32851944 C53.7176231,8.32851944 52.1338506,6.0902509 53.7176231,8.32851944 L53.7176231,8.32851944 L53.7176231,8.32851944 Z M53.7176231,8.32851944" id="21170368"/><path d="M2.31611568,17 C1.2635773,15.4246825 0.421546598,11.3288569 0.211038922,10.2786452 C-0.104722591,9.33345474 -0.209976429,8.49328539 0.947815787,8.07320072 C2.105608,7.65311605 3.15814638,9.1234124 3.68441557,10.3836664 C4.21068476,11.6439204 5.05271546,13.5343015 6,15.8447672 C3.68441557,14.479492 1.78984649,15.4246825 2.31611568,17 C2.31611568,17 1.78984649,15.4246825 2.31611568,17 L2.31611568,17 L2.31611568,17 Z M2.31611568,17" id="21170280"/><path d="M67.7122852,17 C68.6668729,15.4246825 69.5153952,11.3288569 69.8335911,10.2786452 C70.0457217,9.33345474 70.2578522,8.49328539 69.091134,8.07320072 C67.9244158,7.65311605 66.8637629,9.1234124 66.3334364,10.3836664 C65.80311,11.6439204 64.9545876,13.5343015 64,15.8447672 C66.3334364,14.479492 68.1365464,15.4246825 67.7122852,17 C67.7122852,17 68.1365464,15.4246825 67.7122852,17 L67.7122852,17 L67.7122852,17 Z M67.7122852,17" id="21170192"/></g><path d="M54,27 L54,47.4166657 C54,65.1111099 45.466674,71.1837618 34.053332,76 C22.6400189,71.1837618 14,65.1111099 14,47.4166657 L14,27 L54,27 L54,27 L54,27 L54,27 Z M54,27" fill="#FFFFFF" id="21170104" stroke="#000000" stroke-width="0.1"/><path d="M34.053332,44 C35.0133373,44 36.5066629,43.1757581 37.7866604,41.9393938 C39.1733219,40.4969711 41.5199887,39.9818182 43.9733484,41.9393938 C46.4266793,43.8969722 47.9200048,43.0727275 49.2000023,41.9393938 C50.4799998,40.8060629 51.5466691,40.3939405 54,40.3939405 L54,27 L14,27 L14,40.3939405 C16.4533309,40.3939405 17.5200002,40.8060629 18.7999977,41.9393938 C20.0799952,43.0727275 21.5733495,43.8969722 24.0266804,41.9393938 C26.5866753,39.9818182 28.8266781,40.4969711 30.3200037,41.9393938 C31.4933371,43.1757581 32.9866627,44 34.053332,44 C34.053332,44 32.9866627,44 34.053332,44 L34.053332,44 L34.053332,44 Z M34.053332,44" fill="#CF142B" id="21170016" stroke="#000000" stroke-width="0.1"/><g fill="#0B50A0" id="g2502" stroke="#000000" stroke-width="0.1" transform="translate(14.000000, 47.000000)"><path d="M20.0533333,9 C21.3333333,9 23.8933333,7.58943452 24.5333333,7.26391941 C26.88,5.85335394 28.5866667,7.15541438 29.9733333,7.8064446 C31.4666667,8.45747482 34.24,9.21701007 35.9466667,7.8064446 C37.6533333,6.39587912 38.6133333,6.50438416 39.7866667,6.50438416 C40,4.87680861 40,3.24923306 40,1.40464744 L40,0.102586998 C38.5066667,-0.222928112 37.76,0.211092034 36.16,1.62165751 C34.56,3.03222299 32.7466667,2.70670788 30.4,1.83866758 C28.16,0.862122254 25.92,-0.873958332 23.68,1.83866758 C23.04,2.59820284 21.5466667,3.68325321 20.0533333,3.68325321 C18.4533333,3.68325321 17.0666667,2.59820284 16.4266667,1.83866758 C14.08,-0.873958332 11.9466667,0.862122254 9.70666667,1.83866758 C7.36,2.70670788 5.44,3.03222299 3.84,1.62165751 C2.34666667,0.211092034 1.6,-0.222928112 0,0.102586998 L0,1.40464744 C0,3.24923306 0.106666667,4.87680861 0.32,6.50438416 C1.49333333,6.50438416 2.34666667,6.39587912 4.05333333,7.8064446 C5.76,9.21701007 8.64,8.45747482 10.0266667,7.8064446 C11.52,7.15541438 13.2266667,5.85335394 15.5733333,7.26391941 C16.2133333,7.58943452 18.6666667,9 20.0533333,9 C20.0533333,9 18.6666667,9 20.0533333,9 L20.0533333,9 L20.0533333,9 Z M20.0533333,9" id="21169840"/><path d="M19.5,14.4401569 C21.0677966,14.4401569 22.9491525,13.7503307 24.6214689,12.7155915 C26.7118644,11.4509103 28.1751412,12.0257654 30.2655367,13.1754756 C32.460452,14.3251859 34.2372881,13.9802728 35.4915254,13.1754756 C36.1186441,12.7155915 36.6412429,11.7958234 38,12.1407364 C37.3728814,15.015012 36.4322034,17.5443745 35.2824859,19.6138529 C33.1920904,20.188708 32.0423729,20.188708 29.8474576,19.1539688 C27.6525424,18.0042586 24.9350282,17.3144324 23.4717514,18.3491717 C22.1129944,19.2689398 20.6497175,19.7288239 19.5,19.7288239 C18.3502825,19.7288239 16.8870056,19.2689398 15.5282486,18.3491717 C14.0649718,17.3144324 11.3474576,18.0042586 9.15254237,19.1539688 C6.95762712,20.188708 5.8079096,20.188708 3.71751412,19.6138529 C2.56779661,17.5443745 1.62711864,15.015012 1,12.1407364 C2.35875706,11.7958234 2.88135593,12.7155915 3.50847458,13.1754756 C4.65819209,13.9802728 6.53954802,14.3251859 8.6299435,13.1754756 C10.8248588,12.0257654 12.2881356,11.4509103 14.3785311,12.7155915 C16.0508475,13.7503307 17.9322034,14.4401569 19.5,14.4401569 C19.5,14.4401569 17.9322034,14.4401569 19.5,14.4401569 L19.5,14.4401569 L19.5,14.4401569 Z M19.5,14.4401569" id="21169752"/><path d="M20.5,31 C24.7990654,29.1145492 28.7757009,27.0072807 32,24.1236502 C31.1401869,23.7909236 30.6028037,24.0127413 29.8504673,23.458197 C29.0981308,22.9036526 26.8411215,22.6818349 24.9065421,23.7909236 C22.864486,24.7891034 22.0046729,25.0109211 20.5,25.0109211 C18.9953271,25.0109211 18.135514,24.7891034 16.0934579,23.7909236 C14.1588785,22.6818349 11.9018692,22.9036526 11.1495327,23.458197 C10.3971963,24.0127413 9.85981308,23.7909236 9,24.1236502 C12.2242991,27.0072807 16.0934579,29.1145492 20.5,31 C20.5,31 16.0934579,29.1145492 20.5,31 L20.5,31 L20.5,31 Z M20.5,31" id="21169664"/></g><g fill="#FFFFFF" id="g2509" stroke="#000000" stroke-width="0.1" transform="translate(22.000000, 21.000000)"><path d="M4.52138211,4.81782746 C3.01783225,5.0903984 1.97691311,5.18125538 0.589020936,4.1818286 C-0.336240517,3.45497277 -0.104925154,2.18297506 0.820336299,1.72869016 C1.86125543,1.18354828 2.78651689,0.820120367 4.05875138,1.0926913 C5.33098588,1.36526224 8.68505865,3.81840069 7.87545487,3.90925767 C7.0658511,3.90925767 5.79361661,4.54525652 4.52138211,4.81782746 C4.52138211,4.81782746 5.79361661,4.54525652 4.52138211,4.81782746 L4.52138211,4.81782746 L4.52138211,4.81782746 Z M4.52138211,4.81782746" id="21169400"/><path d="M8,0.611468519 C8.39344262,0.326512316 8.8852459,0.136541514 10.1639344,0.0415561129 C11.3442623,-0.0534292881 12.2295082,-0.0534292881 12.5245902,0.801439321 C12.9180328,1.84627873 13.2131148,3.08108895 14,3.65100135 C13.5081967,3.93595755 11.0491803,4.22091376 10.1639344,3.74598675 C8.98360656,3.17607435 8.68852459,0.991410123 8,0.611468519 C8,0.611468519 8.68852459,0.991410123 8,0.611468519 L8,0.611468519 L8,0.611468519 Z M8,0.611468519" id="21169312"/><path d="M17,0.232236854 C17.4081633,-0.0359271663 17.9183673,-0.0359271663 19.244898,0.0534608404 C20.5714286,0.142848847 21.0816327,0.232236854 21.3877551,1.03672891 C21.6938776,1.93060898 21.3877551,3.09265307 22,3.89714513 C21.3877551,4.07592114 19.3469388,4.07592114 18.6326531,3.4502051 C17.5102041,2.73510104 17.6122449,0.679176887 17,0.232236854 C17,0.232236854 17.6122449,0.679176887 17,0.232236854 L17,0.232236854 L17,0.232236854 Z M17,0.232236854" id="21169224"/></g><g fill="#073163" id="g2514" stroke="#000000" stroke-width="0.1" transform="translate(25.000000, 21.000000)"><path d="M20.2308953,1.21768523 C19.1741554,0.987743038 18.4696622,0.872771943 18,1.21768523 C18.5870777,1.9075118 18.1174155,4.66681808 19.291571,5.58658684 C20.1134797,6.16144231 22.2269595,6.27641341 22.6966216,5.01173136 C23.2836993,3.86202041 23.2836993,2.13745399 20.2308953,1.21768523 C20.2308953,1.21768523 23.2836993,2.13745399 20.2308953,1.21768523 L20.2308953,1.21768523 L20.2308953,1.21768523 Z M20.2308953,1.21768523" id="21169048"/><path d="M9,0.456748708 C9.32142857,0.114187177 9.96428571,0 11.25,0 C12.6428571,0 13.5,0.228374354 13.9285714,1.14187177 C14.3571429,2.28374354 14.25,3.76817684 15,4.68167426 C14.6785714,5.13842297 11.7857143,5.13842297 10.9285714,4.45329991 C9.75,3.65398967 9.64285714,1.02768459 9,0.456748708 C9,0.456748708 9.64285714,1.02768459 9,0.456748708 L9,0.456748708 L9,0.456748708 Z M9,0.456748708" id="21168960"/><path d="M0,0.95280876 C0,0.341832993 0.646153846,0.219637839 2.30769231,0.0974426859 C3.96923077,-0.146947621 4.06153846,-0.0247524676 4.61538462,1.56378453 C4.89230769,2.4191506 5.26153846,3.88549244 6,4.37427306 C3.96923077,4.98524882 3.32307692,5.35183428 2.21538462,4.49646821 C1.38461538,3.88549244 0.461538462,2.4191506 0.276923077,1.80817483 C0.184615385,1.44158937 0.184615385,1.07500391 0,0.95280876 C0,0.95280876 0.184615385,1.07500391 0,0.95280876 L0,0.95280876 L0,0.95280876 Z M0,0.95280876" id="21168872"/></g><g fill="#F9D050" id="Group" stroke="#000000" stroke-width="0.1" transform="translate(23.000000, 0.000000)"><path d="M8,11.2075472 C5.56521739,9.69811321 2.66666667,8.28301887 0,8 C1.73913043,8.8490566 6.60869565,11.9622642 7.88405797,13" id="21168608"/><path d="M9,9.93103448 C6.25609756,8.17241379 3.07317073,6.20689655 0,6 C2.30487805,7.13793103 5.70731707,9.82758621 7.57317073,12" id="21168520"/><path d="M12,7.44444444 C13.4285714,4 14.9591837,2.11111111 17,0 C15.9795918,2.33333333 14.8571429,7.11111111 14.3469388,9" id="21168432"/><path d="M14,6.80821918 C14.9803922,4.39726027 16.4509804,2.31506849 19,1 C17.7254902,2.42465753 15.7647059,6.69863014 15.2745098,9" id="21168344"/><path d="M16,7.6741573 C17.2151899,5.95505618 19.6455696,2.71910112 24,1 C21.4683544,3.52808989 17.721519,8.17977528 16.8101266,10" id="21168256"/><path d="M17.5294118,11.2417806 C19.4352941,10.2202178 23.2470588,8.58571744 26,9.09649882 C24.3058824,9.70943647 19.2235294,11.9568745 17,14" id="21168168"/><path d="M17.1097561,10.0722892 C18.9756098,8.12048193 22.3780488,5.19277108 26,4 C23.3658537,6.4939759 17.7682927,12.1325301 17,13" id="21168080"/><path d="M12,8.95098039 C10.5263158,4.96078431 8.31578947,1.18627451 5,0 C6.84210526,2.37254902 9.1754386,5.82352941 10.4035088,11" id="21167992"/><path d="M9,9.88888889 C6.94871795,7.22222222 4.17948718,4.55555556 1,4 C3.15384615,5.33333333 6.74358974,9.22222222 8.07692308,13" id="21167904"/><path d="M9,9.88888889 C6.72727273,4.88888889 5,4 4,3 C4.81818182,4.88888889 6.81818182,9.88888889 8,12" id="21167816"/></g><g id="g2533" stroke="#000000" stroke-width="0.1" transform="translate(27.000000, 4.000000)"><path d="M0,4 C1.33333333,4.8 3.33333333,6.74285714 4,8" id="21167640"/><path d="M0,6 C0.666666667,6.75 1.88888889,7.65 3,9" id="21167552"/><path d="M13,8 C14.1627907,7.04 16.7209302,5.48 18,5" id="21167464"/><path d="M12,8 C13.0810811,6.59459459 15.2432432,4.64864865 16,4" id="21167376"/><path d="M14,1 C13.0526316,2.06382979 10.8421053,4.72340426 10,6" id="21167288"/><path d="M12,0 C11.16,1.02272727 9.48,3.97727273 9,5" id="21167200"/><path d="M4,0 C4.85714286,1.48148148 6.42857143,3.98148148 7,5" id="21167112"/><path d="M3,3 C3.26666667,3.6 3.8,5 4,6" id="21167024"/></g><g fill="#F9D050" id="Group" stroke="#000000" stroke-width="0.1" transform="translate(31.000000, 4.000000)"><path d="M3,2.23529412 C3,1.17647059 3.75,0 4.5,0 C5.375,0 6,1.41176471 6,2.23529412 C6,3.17647059 5.25,4 4.5,4 C3.75,4 3,3.29411765 3,2.23529412 C3,2.23529412 3,3.29411765 3,2.23529412 L3,2.23529412 L3,2.23529412 Z M3,2.23529412" id="21166760"/><path d="M1.01730102,3.05877852 C1.15172041,1.85372741 2.0926561,0.889686521 2.8991724,1.01019163 C3.70568871,1.13069674 4.10894686,2.57675808 3.97452747,3.42029386 C3.84010809,4.38433474 2.8991724,5.10736541 2.22707548,4.9868603 C1.55497856,4.9868603 0.88288164,4.14332452 1.01730102,3.05877852 C1.01730102,3.05877852 0.88288164,4.14332452 1.01730102,3.05877852 L1.01730102,3.05877852 L1.01730102,3.05877852 Z M1.01730102,3.05877852" id="21166672"/><path d="M5.07103548,3.4183244 C4.7979582,2.33384453 5.34411277,1.1288669 6.16334463,1.00836914 C6.98257649,0.887871374 7.80180835,2.09284901 7.93834699,3.05683111 C8.21142428,4.02081322 7.52873106,4.98479533 6.84603785,4.98479533 C6.16334463,5.10529309 5.20757413,4.50280427 5.07103548,3.4183244 C5.07103548,3.4183244 5.20757413,4.50280427 5.07103548,3.4183244 L5.07103548,3.4183244 L5.07103548,3.4183244 Z M5.07103548,3.4183244" id="21166584"/><path d="M3,5.23529412 C3,4.05882353 3.75,3 4.5,3 C5.375,3 6,4.29411765 6,5.23529412 C6,6.17647059 5.25,7 4.5,7 C3.75,7 3,6.29411765 3,5.23529412 C3,5.23529412 3,6.29411765 3,5.23529412 L3,5.23529412 L3,5.23529412 Z M3,5.23529412" id="21166496"/><path d="M1,5.23529412 C1,4.17647059 1.84,3 2.56,3 C3.28,3 4,4.41176471 4,5.23529412 C4,6.17647059 3.16,7 2.56,7 C1.84,7 1,6.29411765 1,5.23529412 C1,5.23529412 1,6.29411765 1,5.23529412 L1,5.23529412 L1,5.23529412 Z M1,5.23529412" id="21166408"/><path d="M5,5.23529412 C5,4.17647059 5.75,3 6.5,3 C7.375,3 8,4.41176471 8,5.23529412 C8,6.17647059 7.25,7 6.5,7 C5.75,7 5,6.29411765 5,5.23529412 C5,5.23529412 5,6.29411765 5,5.23529412 L5,5.23529412 L5,5.23529412 Z M5,5.23529412" id="21166320"/><path d="M5,5.23529412 C5,4.05882353 5.84,3 6.56,3 C7.28,3 8,4.29411765 8,5.23529412 C8,6.17647059 7.28,7 6.56,7 C5.84,7 5,6.29411765 5,5.23529412 C5,5.23529412 5,6.29411765 5,5.23529412 L5,5.23529412 L5,5.23529412 Z M5,5.23529412" id="21166232"/><path d="M3,6.23529412 C3,5.05882353 3.75,4 4.5,4 C5.375,4 6,5.41176471 6,6.23529412 C6,7.17647059 5.25,8 4.5,8 C3.75,8 3,7.29411765 3,6.23529412 C3,6.23529412 3,7.29411765 3,6.23529412 L3,6.23529412 L3,6.23529412 Z M3,6.23529412" id="21166144"/><path d="M0,6.23529412 C0,5.05882353 0.789473684,4 1.57894737,4 C2.36842105,4 3,5.41176471 3,6.23529412 C3,7.17647059 2.21052632,8 1.57894737,8 C0.789473684,8 0,7.29411765 0,6.23529412 C0,6.23529412 0,7.29411765 0,6.23529412 L0,6.23529412 L0,6.23529412 Z M0,6.23529412" id="21166056"/><path d="M6,6.18181818 C6,5.09090909 6.75,4 7.5,4 C8.25,4 9,5.33333333 9,6.18181818 C9,7.27272727 8.1,8 7.5,8 C6.75,8 6,7.27272727 6,6.18181818 C6,6.18181818 6,7.27272727 6,6.18181818 L6,6.18181818 L6,6.18181818 Z M6,6.18181818" id="21165968"/><path d="M6.04674578,8.05771576 C6.16590256,6.85328671 6.52337289,5.88974347 6.76168645,6.01018637 C7,6.13062928 7.05957839,7.57594414 6.94042161,8.41904448 C6.88084322,9.50303063 6.52337289,10.1052452 6.28505934,9.98480225 C6.04674578,9.86435934 5.927589,9.02125901 6.04674578,8.05771576 C6.04674578,8.05771576 5.927589,9.02125901 6.04674578,8.05771576 L6.04674578,8.05771576 L6.04674578,8.05771576 Z M6.04674578,8.05771576" id="21165880"/><path d="M5.01900403,7.05831875 C5.16665483,5.97348952 6.05255966,4.88866028 6.79081368,5.00919686 C7.67671851,5.00919686 8.11967092,6.45563584 7.97202012,7.29939191 C7.82436931,8.38422114 7.08611529,9.10744063 6.34786127,8.98690405 C5.60960725,8.98690405 4.87135323,8.14314798 5.01900403,7.05831875 C5.01900403,7.05831875 4.87135323,8.14314798 5.01900403,7.05831875 L5.01900403,7.05831875 L5.01900403,7.05831875 Z M5.01900403,7.05831875" id="21165792"/><path d="M0.963304883,7.99802712 C0.793309904,6.75663157 0.453319945,5.88765469 0.226659972,6.01179424 C0,6.1359338 -0.0566649931,7.62560846 0.0566649931,8.49458534 C0.169994979,9.48770179 0.509984938,10.1083996 0.73664491,9.98426001 C0.90663989,9.86012045 1.07663487,8.99114356 0.963304883,7.99802712 C0.963304883,7.99802712 1.07663487,8.99114356 0.963304883,7.99802712 L0.963304883,7.99802712 L0.963304883,7.99802712 Z M0.963304883,7.99802712" id="21165704"/><path d="M1,7.18181818 C1,6.09090909 1.75,5 2.5,5 C3.4,5 4,6.33333333 4,7.18181818 C4,8.27272727 3.25,9 2.5,9 C1.9,9 1,8.27272727 1,7.18181818 C1,7.18181818 1,8.27272727 1,7.18181818 L1,7.18181818 L1,7.18181818 Z M1,7.18181818" id="21165616"/><path d="M3,8.23529412 C3,7.05882353 3.75,6 4.5,6 C5.375,6 6,7.29411765 6,8.23529412 C6,9.17647059 5.25,10 4.5,10 C3.75,10 3,9.29411765 3,8.23529412 C3,8.23529412 3,9.29411765 3,8.23529412 L3,8.23529412 L3,8.23529412 Z M3,8.23529412" id="21165528"/></g><g id="Group" stroke="#000000" stroke-width="0.1" transform="translate(31.000000, 0.000000)"><path d="M3.15492958,0.114285714 C2.92957746,1.02857143 2.14084507,1.82857143 2.70422535,3.08571429 C1.69014085,2.74285714 0.788732394,2.62857143 0,3.54285714 C1.01408451,3.42857143 1.91549296,3.77142857 2.36619718,4.45714286 C1.46478873,4.34285714 1.01408451,4.8 0.788732394,5.37142857 C1.57746479,5.14285714 2.36619718,4.91428571 2.70422535,5.02857143 C2.36619718,5.37142857 1.8028169,5.94285714 1.69014085,6.4 C2.36619718,5.82857143 3.15492958,5.94285714 3.6056338,5.6 C3.26760563,6.4 3.94366197,7.2 4.50704225,8 C4.3943662,6.85714286 5.07042254,6.05714286 4.73239437,5.48571429 C5.74647887,5.71428571 5.85915493,6.62857143 7.32394366,6.62857143 C6.76056338,6.28571429 6.42253521,5.14285714 5.74647887,5.14285714 C6.08450704,5.02857143 7.43661972,4.91428571 7.66197183,5.14285714 C7.43661972,4.68571429 6.64788732,4.22857143 6.1971831,4.22857143 C6.64788732,3.77142857 7.43661972,2.85714286 8,2.62857143 C7.21126761,2.74285714 5.97183099,2.85714286 5.52112676,3.54285714 C6.64788732,2.62857143 6.42253521,0.914285714 7.66197183,0.685714286 C6.98591549,0.571428571 5.97183099,1.02857143 5.18309859,1.82857143 C5.52112676,1.14285714 5.52112676,0.228571429 5.97183099,0 C5.07042254,0.228571429 4.05633803,1.37142857 3.71830986,1.94285714 C3.71830986,1.37142857 3.38028169,0.457142857 3.15492958,0.114285714 C3.15492958,0.114285714 3.38028169,0.457142857 3.15492958,0.114285714 L3.15492958,0.114285714 L3.15492958,0.114285714 Z M3.15492958,0.114285714" fill="#F9D050" id="21165440"/><path d="M4.10606497,1 C4.10606497,1.27272727 4.10606497,1.81818182 4,2" id="21165352"/><path d="M5,1 C4.66666667,1.13333333 4,1.6 4,2" id="21165264"/><path d="M6,3 C5.57142857,3.22222222 5.14285714,3.55555556 5,4" id="21165176"/></g><g id="Group" stroke="#000000" stroke-width="0.1" transform="translate(18.000000, 12.000000)"><path d="M7.51114579,1.86205676 C6.76424315,1.86205676 6.1240409,1.53928101 5.69723939,1.00132142 C4.95033676,0.032994154 2.92302961,-0.397373518 2.0694266,0.463361826 C1.74932548,0.678545662 1.32252397,0.678545662 1.00242284,0.78613758 C0.468920962,0.78613758 -0.171281295,1.32409717 0.0421194577,2.40001635 C0.468920962,2.0772406 0.575621338,2.40001635 0.895722467,2.40001635 C1.10912322,2.29242443 1.00242284,2.50760827 1.00242284,2.7227921 C1.00242284,3.26075169 2.17612698,4.33667088 3.24313074,4.22907896 C4.41683488,4.22907896 4.95033676,4.65944663 5.16373751,4.87463047 C5.48383864,5.19740622 5.27043789,5.0898143 5.48383864,5.62777389 C5.80393977,5.95054965 5.91064014,6.05814156 5.37713826,6.48850924 C4.63023563,7.13406074 4.09673375,8.6403476 5.37713826,9.82385869 C6.76424315,10.8997779 10.2853556,12.5136566 14.2332695,9.39349102 C18.074483,6.38091732 24.0497041,8.10238801 24.4765056,9.17830719 C25.0100075,10.2542264 25.2234082,10.8997779 25.3301086,11.4377375 C25.436809,11.8681051 25.9703109,12.2984728 26.7172135,12.1908809 C27.4641161,12.1908809 28.3177191,12.5136566 28.7445206,12.8364324 C29.2780225,13.1592082 30.0249251,13.0516162 29.8115244,12.083289 C29.3847229,9.07071527 27.5708165,8.6403476 27.3574157,7.24165266 C28.4244195,7.34924458 29.1713221,7.34924458 29.5981236,6.91887691 C29.9182248,6.48850924 30.3450263,5.73536581 30.7718278,5.52018197 C31.0919289,5.30499814 31.0919289,5.0898143 30.6651274,5.19740622 C30.1316255,5.30499814 29.8115244,5.52018197 28.851221,5.41259006 C23.9430037,4.87463047 10.1786552,1.10891333 7.51114579,1.86205676 C7.51114579,1.86205676 10.1786552,1.10891333 7.51114579,1.86205676 L7.51114579,1.86205676 L7.51114579,1.86205676 Z M7.51114579,1.86205676" fill="#059334" id="21165000"/><path d="M29.9199345,6.86043557 C29.3710373,7.19562456 28.82214,7.75427286 27.834125,9.0950288 C26.7363306,10.5475144 23.4429471,12 19.3811076,12 C15.4290475,12 13.0138996,11.329622 11.2574285,9.87713643 C10.2694135,9.0950288 9.50095734,8.64811016 8.84228065,8.31292117 C7.63470673,7.75427286 7.41514784,6.52524659 7.74448618,5.51967964 C7.41514784,6.07832794 7.19558894,6.63697625 6.53691226,6.52524659 C6.09779447,6.52524659 5.21955889,6.52524659 5.43911779,6.97216523 C5.32933834,6.74870591 5.32933834,6.41351693 5.21955889,6.30178727 L5,6.07832794 C5.32933834,6.30178727 6.09779447,5.6314093 6.64669171,5.6314093 C7.0858095,5.74313896 7.63470673,5.18449065 7.52492729,4.51411268 C7.41514784,3.95546437 7.30536839,3.50854573 7.19558894,3.06162708 C8.07382452,2.61470844 19.6006665,4.737572 21.9060349,4.96103133 C24.2114033,5.07276099 30.7981701,6.07832794 29.9199345,6.86043557 C29.9199345,6.86043557 30.7981701,6.07832794 29.9199345,6.86043557 L29.9199345,6.86043557 L29.9199345,6.86043557 Z M29.9199345,6.86043557" fill="#000000" id="21164912"/><path d="M9.78775102,1.67243665 C10.8393693,0.656880146 12.1013112,0.149101893 13.3632531,0.453768844 L13.6787385,0.453768844 C14.3097095,-0.0540094085 15.781975,-0.155565059 16.6232696,0.250657543 L17.0439169,0.250657543 C18.3058588,-0.155565059 20.7245808,0.250657543 21.5658754,1.06310275 L21.8813609,1.26621405 C24.7207302,1.06310275 26.4033194,2.28177056 28.401394,4.21132792 C28.6117177,4.41443922 28.9272032,4.82066182 29.4530123,4.92221747 C30.0839832,5.02377312 30.1891451,5.32844007 29.6633359,5.63310702 C29.032365,5.93777398 28.5065559,6.44555223 27.4549376,7.56266439 C26.5084812,8.78133219 23.4587883,10 19.6729626,10 C15.9922987,10 13.7839004,9.3906661 12.1013112,8.17199829 C11.1548547,7.46110874 10.418722,7.05488613 9.89291285,6.75021918 C9.2619419,6.54710788 8.4206473,5.73466268 8.73613277,4.92221747 C8.94645642,4.10977227 8.4206473,3.09421576 8,2.07865925 C8.31548547,1.87554795 9.15678007,1.570881 9.57742737,1.7739923 L9.78775102,1.67243665 L9.78775102,1.67243665 L9.78775102,1.67243665 L9.78775102,1.67243665 Z M9.78775102,1.67243665" fill="#059334" id="21353288"/><path d="M4,3.90184049 C3.83333333,3.90184049 3.75,3 3.41666667,3 C3.33333333,3 3.08333333,3.15030675 3,3 C3,3.3006135 3.08333333,3.60122699 3.16666667,3.75153374 C3.25,4.20245399 3.66666667,3.90184049 4,3.90184049 C4,3.90184049 3.66666667,3.90184049 4,3.90184049 L4,3.90184049 L4,3.90184049 Z M4,3.90184049" fill="#000000" id="21352408"/><path d="M4,4 C5.8,4 6.1,3.0625 7,3" id="21352320"/><path d="M4,3.96933396 C5.17391304,4.21114357 6.08695652,2.94164311 7,3.00209551" id="21352232"/><path d="M3,1.27467811 C3.17647059,1.27467811 3.29411765,0.549356223 3.58823529,1.45600858 C3.70588235,1.81866953 3.88235294,2 4,2" id="21352144"/><path d="M4,4 C3.73333333,4.70420393 3.26666667,5.17367322 3,4.93893857" id="21352056"/><path d="M2,1 C1.57142857,1.22222222 1.28571429,1.66666667 1,2" id="21351968"/><path d="M1,3 L1,4" id="21351880"/><g fill="#00493D" transform="translate(9.000000, 0.000000)"><path d="M17,4.38026356 C15.1904762,2.18204982 13.6666667,0.793704306 11.0952381,1.02509523 C11.0952381,1.14079069 11.0952381,1.48787707 11,1.71926799 C12.5238095,2.41344074 14.7142857,4.49595902 15.6666667,6 C16.047619,5.53721816 16.7142857,4.95874086 17,4.38026356 C17,4.38026356 16.7142857,4.95874086 17,4.38026356 L17,4.38026356 L17,4.38026356 Z M17,4.38026356" id="21353112"/><path d="M13,1.175247 C12.1111111,0.192724224 9.55555556,-0.298537167 8.22222222,0.192724224 C8.22222222,0.683985614 8.22222222,1.4208777 8,1.91213909 C8.77777778,2.28058513 9.44444444,3.14029257 10.1111111,4 C10.5555556,3.87718465 11.6666667,3.50873861 12.2222222,3.38592326 C12.4444444,2.89466187 12.8888889,1.78932374 13,1.175247 C13,1.175247 12.8888889,1.78932374 13,1.175247 L13,1.175247 L13,1.175247 Z M13,1.175247" id="21353024"/><path d="M6.97385478,0.290736825 C6.20640839,-0.180439379 4.86337719,-0.0626453279 4.2877924,0.526324927 C4.0959308,0.997501132 4,1.93985354 4,2.41102974 C4.3837232,2.41102974 4.95930799,2.7644119 5.15116959,3 C5.72675439,2.7644119 6.49420078,2.29323569 6.78199318,1.93985354 C6.87792398,1.46867734 7.06978558,0.76191303 6.97385478,0.290736825 C6.97385478,0.290736825 7.06978558,0.76191303 6.97385478,0.290736825 L6.97385478,0.290736825 L6.97385478,0.290736825 Z M6.97385478,0.290736825" id="21352936"/><path d="M0,1.76512991 C1.17647059,0.393052038 2.58823529,-0.292986899 4,0.118636463 C3.76470588,0.530259826 3.64705882,1.35350655 3.64705882,2.17675328 C2.35294118,2.03954549 0.705882353,2.45116885 0,3 L0,1.76512991 C0,1.76512991 0,2.17675328 0,1.76512991 L0,1.76512991 L0,1.76512991 Z M0,1.76512991" id="21352848"/><path d="M16,6.64583333 C15.0816327,5.29166667 12.8367347,3.72916667 11.3061224,3 C11.3061224,3.10416667 11.1020408,3.52083333 11,3.83333333 C11.6122449,4.77083333 12.8367347,6.85416667 13.3469388,8 C13.8571429,7.79166667 15.2857143,7.16666667 16,6.64583333 C16,6.64583333 15.2857143,7.16666667 16,6.64583333 L16,6.64583333 L16,6.64583333 Z M16,6.64583333" id="21352760"/><path d="M9,8.98590238 C9.22727273,7.46845383 9.34090909,5.30067019 9.34090909,4.54194591 C9.90909091,4.43355673 11.0454545,4.10838918 11.5,4 C12.0681818,4.86711346 13.4318182,7.14328629 14,8.22717811 C12.6363636,8.55234565 10.3636364,9.09429157 9,8.98590238 C9,8.98590238 10.3636364,9.09429157 9,8.98590238 L9,8.98590238 L9,8.98590238 Z M9,8.98590238" id="21352672"/><path d="M5,4.03448276 C5.625,3.82758621 6.5,3.4137931 7.125,3 C7.625,3.31034483 8.625,4.03448276 9,4.44827586 C9,5.37931034 8.625,8.06896552 8.5,9 C7.5,9 5.875,8.79310345 5,8.37931034 C5.125,6.82758621 5.25,5.06896552 5,4.03448276 C5,4.03448276 5.25,5.06896552 5,4.03448276 L5,4.03448276 L5,4.03448276 Z M5,4.03448276" id="21352584"/><path d="M0,5.01338909 C0.11009769,4.79215865 0.22019538,4.01785212 0.22019538,3.68600647 C1.1009769,3.13293037 3.3029307,2.57985428 4.95439604,3.46477603 C5.06449373,4.57092822 4.95439604,7.33630869 4.84429835,8 C3.41302839,6.89384781 1.1009769,5.34523475 0,5.01338909 C0,5.01338909 1.1009769,5.34523475 0,5.01338909 L0,5.01338909 L0,5.01338909 Z M0,5.01338909" id="21352496"/></g></g><g id="g2588" stroke="#000000" stroke-width="0.1" transform="translate(17.000000, 28.000000)"><path d="M15.04755,4.29011979 C15.1554011,4.49441121 14.9396989,5.00513976 15.04755,5.20943118 C15.2632522,5.61801401 15.2632522,5.82230543 15.5868054,6.02659685 L16.341763,6.02659685 C18.7144868,6.02659685 21.5186149,5.10728547 23.8913387,5.10728547 C26.1562114,5.10728547 27.5582754,5.82230543 28.8524884,5.82230543 C29.6074459,5.82230543 30.2545524,5.31157688 30.2545524,4.80084834 C30.2545524,4.29011979 29.3917438,3.98368266 27.5582754,3.98368266 C24.9698495,3.98368266 23.5677854,4.59655692 21.4107638,4.59655692 C18.1752314,4.59655692 17.635976,3.47295412 17.635976,2.96222557 C17.635976,2.45149702 18.1752314,1.73647706 19.9008487,1.73647706 C20.4401041,1.73647706 20.8715084,1.63433135 21.0872105,1.43003993 C21.1950616,1.22574851 21.5186149,0.817165675 22.1657214,0.510728547 C22.9206789,0.102145709 24.4305941,0.510728547 25.1855516,0 C25.1855516,0.408582837 24.5384451,1.02145709 23.9991897,1.22574851 C25.0777005,0.919311384 26.2640624,0.919311384 26.4797646,1.73647706 C25.9405092,1.43003993 25.0777005,1.63433135 24.7541473,1.73647706 C24.322743,1.83862277 24.1070408,1.94076848 23.6756365,2.04291419 C24.1070408,1.94076848 24.322743,2.75793415 24.9698495,2.75793415 C24.322743,3.2686627 23.2442322,3.2686627 22.1657214,2.86007986 C21.8421681,2.75793415 20.9793595,2.45149702 20.4401041,2.45149702 C19.3615933,2.45149702 18.7144868,2.65578844 18.7144868,3.06437128 C18.7144868,3.57509983 19.3615933,3.88153695 21.3029127,3.88153695 C23.2442322,3.88153695 24.322743,3.37080841 27.2347222,3.37080841 C27.01902,3.06437128 27.3425732,2.75793415 26.9111689,2.45149702 C27.9896797,2.45149702 29.1760416,2.75793415 29.6074459,3.47295412 C29.4995949,2.75793415 30.1467014,2.1450599 29.9309992,1.53218564 C30.5781057,1.63433135 31.1173611,2.24720561 31.2252122,2.75793415 C31.2252122,2.45149702 31.6566165,2.45149702 31.6566165,2.1450599 C32.303723,2.45149702 32.6272762,3.16651699 32.5194251,3.77939125 C32.8429784,3.2686627 33.1665316,3.47295412 33.3822338,2.86007986 C33.5979359,3.2686627 33.4900849,4.49441121 32.7351273,4.90299405 C33.3822338,4.49441121 34.3528935,4.49441121 35,5.20943118 C34.3528935,5.10728547 34.0293403,5.41372259 33.705787,5.5158683 C32.4115741,6.23088827 30.2545524,6.63947111 28.6367862,6.5373254 C26.9111689,6.43517969 26.6954668,6.12874256 25.616956,6.12874256 C26.2640624,6.23088827 27.5582754,7.45663678 28.7446373,7.45663678 C29.4995949,7.45663678 30.0388503,7.45663678 30.3624035,7.35449107 C30.6859568,7.25234536 31.2252122,7.35449107 31.6566165,7.55878249 C31.9801697,7.86521962 32.6272762,8.17165675 33.0586805,8.06951104 C32.9508295,8.47809387 32.7351273,8.68238529 32.4115741,8.784531 C32.9508295,9.09096813 32.6272762,9.29525955 33.1665316,9.70384239 C32.9508295,9.70384239 32.7351273,9.9081338 32.4115741,9.8059881 C32.7351273,10.1124252 32.7351273,10.5210081 33.0586805,10.7252995 C32.9508295,10.7252995 32.6272762,10.8274452 32.4115741,10.7252995 C32.7351273,11.1338823 32.4115741,11.6446109 32.7351273,11.8489023 C33.0586805,12.2574851 32.4115741,12.7682137 31.8723187,12.3596308 C31.9801697,12.666068 31.6566165,12.9725051 31.3330632,12.8703594 C31.00951,12.7682137 30.7938078,12.4617765 30.9016589,12.3596308 C30.9016589,12.2574851 30.9016589,12.2574851 31.00951,12.1553394 C30.7938078,12.4617765 30.3624035,12.4617765 30.1467014,12.3596308 C30.0388503,12.2574851 29.9309992,12.1553394 29.9309992,12.0531937 C29.1760416,12.2574851 28.8524884,11.6446109 28.9603395,11.3381737 C29.0681905,11.0317366 29.715297,10.9295909 29.9309992,11.0317366 C30.1467014,11.1338823 30.3624035,11.236028 30.5781057,11.0317366 C30.7938078,10.9295909 30.9016589,10.7252995 30.9016589,10.5210081 C30.9016589,10.2145709 30.5781057,9.29525955 29.1760416,9.39740526 C27.5582754,9.49955097 24.9698495,9.09096813 23.6756365,8.68238529 C23.5677854,8.58023958 23.4599343,8.58023958 23.3520833,8.47809387 C23.3520833,8.88667671 22.9206789,9.09096813 22.9206789,9.49955097 C22.9206789,10.0102795 23.1363811,10.4188624 23.7834876,10.6231538 C23.4599343,11.1338823 22.9206789,11.0317366 22.7049768,10.7252995 C22.7049768,11.0317366 22.2735724,11.236028 22.2735724,11.6446109 C22.1657214,11.4403194 22.0578703,11.3381737 21.9500192,11.1338823 C21.626466,11.8489023 20.7636573,12.2574851 20.332253,12.0531937 C19.7929976,12.4617765 19.1458911,12.3596308 18.9301889,11.951048 C18.6066357,12.1553394 18.1752314,12.1553394 17.9595292,11.951048 C17.9595292,12.2574851 17.743827,12.1553394 17.635976,12.5639222 C17.635976,12.7682137 17.2045716,12.8703594 16.9888695,12.7682137 C16.7731673,12.666068 16.6653162,12.2574851 16.8810184,12.0531937 C16.5574651,12.2574851 16.2339119,12.2574851 16.0182097,12.0531937 C16.0182097,11.8489023 16.0182097,11.5424652 16.2339119,11.4403194 L16.4496141,11.4403194 C16.2339119,11.3381737 15.9103587,11.4403194 15.6946565,11.3381737 C15.4789543,11.1338823 15.4789543,10.9295909 15.5868054,10.7252995 C15.6946565,10.6231538 16.0182097,10.4188624 16.2339119,10.6231538 L16.341763,10.7252995 C16.341763,10.5210081 16.4496141,10.3167166 16.5574651,10.3167166 C16.7731673,10.2145709 17.0967206,10.2145709 17.4202738,10.5210081 C17.635976,10.8274452 17.8516781,10.8274452 18.4987846,10.7252995 C19.03804,10.7252995 19.9008487,10.2145709 20.5479551,9.70384239 C18.7144868,9.39740526 19.7929976,8.27380246 20.332253,7.86521962 C19.9008487,7.76307391 19.2537422,7.76307391 18.8223378,7.96736533 C16.5574651,9.09096813 14.1847414,10.4188624 12.6748262,10.0102795 C12.6748262,10.2145709 12.7826773,10.4188624 12.8905284,10.6231538 C12.5669752,10.6231538 11.9198687,10.6231538 11.7041665,10.3167166 C11.5963154,10.5210081 11.3806133,11.0317366 11.5963154,11.4403194 C11.3806133,11.236028 10.7335068,11.0317366 10.4099535,10.9295909 C10.6256557,11.1338823 10.4099535,11.5424652 10.5178046,11.8489023 C10.1942514,11.5424652 9.65499596,11.3381737 9.4392938,11.5424652 C9.22359164,11.7467566 8.79218731,11.8489023 8.46863407,11.7467566 C8.25293191,12.0531937 7.92937867,12.2574851 7.60582542,12.3596308 C7.60582542,12.1553394 7.60582542,11.8489023 7.49797434,11.7467566 C7.39012326,12.0531937 7.06657002,12.4617765 6.63516569,12.666068 C6.63516569,12.4617765 6.63516569,12.1553394 6.52731461,11.951048 C6.52731461,12.3596308 5.66450597,12.5639222 5.55665488,12.8703594 C5.66450597,12.5639222 5.66450597,12.2574851 5.66450597,12.0531937 C5.4488038,12.3596308 5.12525056,12.666068 4.58599516,12.7682137 C4.69384624,12.5639222 4.80169732,12.3596308 4.69384624,12.1553394 C4.58599516,12.5639222 3.93888867,12.7682137 3.39963326,12.666068 C3.39963326,12.8703594 2.96822894,13.1767965 2.42897354,12.8703594 C2.10542029,12.7682137 1.88971813,12.4617765 2.10542029,12.2574851 C1.67401597,12.2574851 1.24261164,11.8489023 1.45831381,11.5424652 C1.45831381,11.4403194 1.56616489,11.3381737 1.56616489,11.236028 C1.24261164,11.0317366 1.13476056,10.6231538 1.45831381,10.3167166 C1.56616489,10.2145709 1.88971813,10.2145709 2.10542029,10.2145709 C2.10542029,9.39740526 2.86037786,9.39740526 3.1839311,10.0102795 C3.39963326,10.3167166 4.04673975,10.8274452 4.58599516,10.7252995 C4.80169732,10.7252995 4.9095484,10.6231538 5.12525056,10.6231538 C5.77235705,10.4188624 7.06657002,9.9081338 7.82152759,9.29525955 C7.92937867,8.98882242 7.92937867,8.784531 7.92937867,8.58023958 C7.49797434,8.784531 7.06657002,8.98882242 6.85086786,9.29525955 L6.85086786,8.98882242 C6.52731461,8.98882242 5.98805921,8.88667671 5.77235705,8.88667671 C5.88020813,8.784531 5.98805921,8.27380246 6.20376137,8.17165675 C5.66450597,8.27380246 5.12525056,8.17165675 4.69384624,8.06951104 C4.9095484,7.86521962 4.9095484,7.55878249 5.01739948,7.25234536 C4.80169732,7.35449107 4.26244191,7.15019965 3.83103759,7.25234536 C3.93888867,6.94590823 4.04673975,6.5373254 4.37029299,6.43517969 C3.93888867,6.5373254 3.39963326,6.43517969 2.86037786,6.23088827 C3.29178218,6.23088827 3.50748435,5.72015972 3.83103759,5.72015972 C2.96822894,5.72015972 2.75252678,5.31157688 2.32112245,5.10728547 C2.6446757,5.20943118 2.86037786,4.90299405 3.1839311,4.90299405 C2.86037786,4.80084834 2.32112245,4.29011979 2.53682462,3.98368266 C2.42897354,4.08582837 2.32112245,4.29011979 2.10542029,4.3922655 C1.88971813,4.49441121 1.45831381,4.3922655 1.13476056,4.08582837 C0.919058401,3.67724554 1.02690948,3.16651699 1.45831381,3.06437128 C0.919058401,2.96222557 0.919058401,2.45149702 1.13476056,2.24720561 C1.24261164,2.04291419 1.67401597,1.73647706 1.88971813,2.04291419 C1.99756921,2.1450599 2.10542029,2.34935131 2.21327137,2.45149702 C2.10542029,2.24720561 2.10542029,1.83862277 2.10542029,1.53218564 C2.21327137,1.22574851 2.42897354,1.22574851 2.75252678,1.1236028 C3.07608002,1.1236028 3.29178218,1.43003993 3.29178218,1.73647706 C3.29178218,2.04291419 3.39963326,2.24720561 3.50748435,2.65578844 C3.50748435,2.55364273 3.61533543,2.34935131 3.61533543,2.24720561 C3.61533543,1.83862277 4.15459083,1.94076848 4.47814407,2.04291419 C4.80169732,2.1450599 4.9095484,2.75793415 4.47814407,3.06437128 C4.26244191,3.2686627 4.37029299,3.57509983 4.58599516,3.77939125 C5.34095272,4.90299405 6.63516569,5.82230543 7.7136765,5.92445114 C7.7136765,5.5158683 7.92937867,5.10728547 8.25293191,4.80084834 C8.25293191,4.59655692 8.36078299,4.29011979 8.46863407,4.08582837 C8.57648515,3.47295412 8.9000384,3.16651699 9.33144272,3.37080841 C9.22359164,3.2686627 9.11574056,3.16651699 9.11574056,3.06437128 C8.79218731,2.75793415 8.46863407,2.24720561 8.68433623,1.83862277 C8.9000384,1.43003993 9.54714488,1.53218564 9.76284704,1.73647706 C9.65499596,1.1236028 10.4099535,0.612874256 10.4099535,0.306437128 C10.5178046,0.612874256 10.7335068,1.02145709 10.6256557,1.32789422 C10.7335068,0.919311384 11.4884643,0.408582837 12.0277197,0.204291419 C11.8120176,0.510728547 12.4591241,1.02145709 12.351273,1.32789422 C12.5669752,0.817165675 13.4297838,0.510728547 14.0768903,0.510728547 C13.8611881,0.715019965 13.8611881,1.1236028 13.8611881,1.32789422 C14.1847414,1.32789422 14.7239968,1.22574851 14.9396989,0.919311384 C14.9396989,1.32789422 14.7239968,1.73647706 14.5082946,1.94076848 C14.6161457,1.83862277 15.04755,1.83862277 15.3711033,1.83862277 C15.04755,2.1450599 15.1554011,2.45149702 14.8318479,2.65578844 C15.2632522,2.45149702 15.8025076,2.45149702 15.9103587,2.86007986 C16.1260608,3.16651699 15.8025076,3.67724554 15.5868054,3.98368266 C15.3711033,4.08582837 15.1554011,4.29011979 15.04755,4.29011979 L15.04755,4.29011979 L15.04755,4.29011979 L15.04755,4.29011979 Z M15.04755,4.29011979" fill="#F9D050" id="21351704"/><g id="g2591" transform="translate(1.000000, 1.000000)"><path d="M6,4 C5.3,4.21428571 5.1,4.71428571 5,5" id="21351528"/><path d="M6,5 C5.2,5.54545455 4.88,6 5.04,7" id="21351440"/><path d="M8,7 C8.4,6.84615385 8.66666667,6.69230769 9,6" id="21351352"/><path d="M8.3,6 C8.1,6.28571429 8.3,6.78571429 8,7 C8.5,6.78571429 8.9,6.5 9,6" id="21351264"/><path d="M9,8 C9.5,7.80952381 10.25,7.23809524 10.625,6.57142857 C10.5,6.85714286 10.625,7.33333333 10.375,7.61904762 C11,7.14285714 11.25,6.85714286 11.375,6.38095238 C11.375,6.47619048 11.5,6.66666667 11.5,6.76190476 C11.75,6.57142857 12,6.38095238 12,6" id="21351176"/><path d="M12,5.58333333 L12,6 C12.8,5.75 13,5.41666667 13,5" id="21351088"/><path d="M12,6 C12.8571429,5.57894737 13,4.94736842 13,4" id="21351000"/><path d="M13,5 C13.8,4.78571429 14,4.64285714 14,4" id="21350912"/><path d="M12,0.656796122 C11.7142857,0.656796122 11.4285714,0.738895637 11.4285714,0.985194183 C11.4285714,1.14939321 11,1.39569176 11,1.6419903 C10.8571429,1.97038837 10.5714286,2.05248788 10.1428571,1.97038837 C9.71428571,1.80618933 9.71428571,1.80618933 9.71428571,1.55989079 C9.71428571,1.23149273 10.4285714,1.14939321 10.4285714,0.820995152 C10.5714286,0.656796122 10.7142857,0.410497576 10.8571429,0.410497576 C10.1428571,0.656796122 9.14285714,0.492597091 9,0" id="21350824"/><path d="M13,1.11765097 C12.8333333,1.21511622 12.6666667,0.922720463 12.4166667,1.02018571 C12.3333333,1.02018571 12.0833333,1.11765097 12,1.02018571" id="21350736"/><path d="M12,1.76377127 C12.0909091,1.89106648 12.5454545,2.1456569 13,1.89106648 C12.6363636,2.01836169 12.3636364,1.38188563 12.7272727,1" id="21350648"/><path d="M9.75591345,1 C9.26774034,1 8.90161052,1.35740338 9.02365379,1.71480676 C9.14569707,2.07221015 9.63387017,2.07221015 10,1.83394123" id="21350560"/><path d="M9,4 C9.10344828,3.92307692 9.20689655,3.76923077 9.20689655,3.69230769 C9.4137931,3.69230769 9.62068966,3.61538462 9.72413793,3.53846154 C10.137931,3.53846154 10.4482759,3.30769231 10.5517241,3.07692308 C10.7586207,3.07692308 10.862069,2.69230769 10.9655172,2.53846154 C11.0689655,2.61538462 11.2758621,2.53846154 11.3793103,2.23076923 C11.5862069,2.30769231 11.8965517,2.23076923 12,2" id="21350472"/><path d="M9,2 C9,2.08333333 8.71428571,2.25 8.42857143,2.33333333 C8.57142857,2.5 8.42857143,2.91666667 8.14285714,3 C8.28571429,3.16666667 8.14285714,3.41666667 8,3.58333333 C8,3.66666667 8.14285714,3.91666667 8.14285714,4" id="21350384"/><path d="M9.10606497,0 C8.89393503,0.416666667 9,0.916666667 9.42425989,1" id="21350296"/><path d="M9.35750027,2 C9.23738665,2.37354886 9.23738665,2.89651727 9.11727302,3.12064659 C8.9971594,3.27006614 8.75693215,3.79303455 9.71784114,3.94245409 C10.7988638,4.09187364 11.3994319,4.01716387 12,2.89651727" id="21350208"/><path d="M13.3181949,7 C13.3181949,7.09746525 13.2121299,7.29239575 13,7.29239575" id="21350120"/><path d="M13.3181949,6 C13.3181949,6.33333333 13.106065,6.83333333 13,7" id="21350032"/><path d="M14.2121299,6 C14.2121299,6.33333333 14.2121299,6.83333333 14,7" id="21349944"/><path d="M8.17475053,0 C8.2808155,0 8.38688047,0.2 8.49294545,0.4 C8.17475053,0.2 7.85655561,0.7 8.06868556,1" id="21349856"/><path d="M6.42425989,2 C6.31819492,2.09746525 6.10606497,2.1949305 6,2.29239575" id="21349768"/><path d="M6.31819492,2 C6.21212995,2 6.10606497,2.09746525 6,2.09746525" id="21349680"/><path d="M3,1.1949305 C3,1.09746525 3,1.09746525 3.10606497,1" id="21349592"/><path d="M1.21212995,1.09746525 C1.10606497,1.09746525 1.10606497,1.09746525 1,1" id="21349504"/><path d="M1,2 L1.21212995,2" id="21349416"/><path d="M1,1.29239575 C0.666666667,1.09746525 0.166666667,1 0,1" id="21349328"/><path d="M6,5 C5.36363636,5.33333333 5.09090909,5.61111111 5,6" id="21349240"/><path d="M7,6 C6.75,6.44444444 6.375,6.77777778 6,7" id="21349152"/><path d="M4,9.83333333 C2.95652174,10.1666667 2.17391304,10 1.39130435,9.33333333 C1.26086957,9.16666667 1.13043478,9.16666667 1,9" id="21349064"/><path d="M6.25,6.94736842 C6.1875,7.36842105 6.125,7.89473684 6,8 C6.5,7.57894737 6.9375,6.94736842 7,6" id="21348976"/><path d="M0,9.09746525 C0.375,9 0.75,9.1949305 1,9" id="21348888"/><path d="M18,6.5 C18.1428571,6.66666667 18.3571429,6.83333333 18.4285714,7 C18.5,6.66666667 18.7857143,6.16666667 19,6" id="21348800"/><path d="M12.0338902,8 C11.8958745,7.63636364 12.1719059,7.18181818 13,7" id="21348712"/><path d="M6,10 C6.10606497,9.71428571 6.10606497,9.28571429 6.21212995,9" id="21348624"/><path d="M3.31819492,10 C3.21212995,10.3333333 3,10.6666667 3,11" id="21348536"/><path d="M1,11 C1,11 1,10.8333333 1.14285714,10.8333333 C1.42857143,10.6666667 1.85714286,10.3333333 2,10" id="21348448"/><path d="M14.4242599,9.09746525 C14.2121299,9.1949305 14.106065,9.09746525 14,9" id="21348360"/><path d="M14.2121299,10 C14.2121299,10 14.106065,10.0974653 14,10.0974653" id="21348272"/><path d="M16.3181949,10 C16.2121299,10.0974653 16.106065,10.1949305 16,10.1949305" id="21348184"/><path d="M18,11 C18.2121299,10.8571429 18.3181949,10.5714286 18.4242599,10" id="21348096"/><path d="M17,11 C17.375,10.8333333 17.625,10.5 18,10" id="21348008"/><path d="M21,10 C21,9.66666667 21,9.33333333 21.106065,9" id="21347920"/><path d="M28.1885177,10 C27.9180236,9.8 27.9180236,9.5 28.3237648,9.3 C28.5942589,9.2 28.7295059,9.1 29,9" id="21347832"/><path d="M21,6 C19.2857143,5.53570347 19.3928571,4.93875079 18,5.00507886" id="21347744"/><path d="M30,10 C30.106065,10.0974653 30,10.389861 30,10.4873263" id="21347656"/><path d="M30.106065,10 C30,10.4285714 30,10.5714286 30,11" id="21347568"/><path d="M22,0 L21,0" id="21347480"/><path d="M13,4 C13,4.33333333 13.2727273,5 14,5 C13.9090909,5 13.8181818,4.83333333 13.8181818,4.83333333" id="21347392"/><path d="M13.784447,2.41982404 C13.6766705,2.51447898 13.568894,2.41982404 13.568894,2.41982404 C13.353341,2.23051417 13.6766705,1.85189443 14,1.66258455 C13.6766705,1.75723949 13.4611175,1.75723949 13.2455645,1.75723949 C13.0300115,2.32516911 12.3833526,2.60913392 11.9522466,2.23051417 C11.8444701,2.60913392 11.3055876,3.0824086 10.8744817,2.98775366 C10.4433757,2.79844379 10.3355992,2.51447898 10.4433757,2.23051417 C9.9044932,2.79844379 9.25783423,2.41982404 9.04228124,2.23051417 C8.93450475,2.0412043 9.04228124,1.56792962 9.25783423,1" id="21347304"/></g><path d="M21.7286036,8 C21.502319,8.11111111 21.2760344,8 21.0497498,8.16666667 C20.8988934,8.27777778 21.125178,8.33333333 21.2760344,8.33333333 C21.2006062,8.5 21.2006062,8.55555556 21.5777472,8.55555556 C21.4268908,8.72222222 21.87946,8.77777778 21.8040318,9 C22.0303164,8.83333333 22.0303164,8.61111111 21.9548882,8.44444444 C21.87946,8.27777778 21.502319,8.16666667 21.7286036,8 C21.7286036,8 21.502319,8.16666667 21.7286036,8 L21.7286036,8 L21.7286036,8 Z M21.7286036,8" fill="#000000" id="21347216"/><g fill="#073163" id="g2643"><path d="M12,4.84305061 C11.5862069,4.63228796 11.4827586,4.31614398 11.5862069,4 C11.4827586,4.21076265 11.2758621,4.31614398 11.0689655,4.31614398 C10.6551724,5.26457592 10.137931,6.10762654 9.51724138,6.10762654 C8.79310345,6.21300786 8.89655172,6.95067715 9.4137931,6.95067715 C10.5517241,7.1614398 11.0689655,6.7399145 12,4.84305061 C12,4.84305061 11.0689655,6.7399145 12,4.84305061 L12,4.84305061 L12,4.84305061 Z M12,4.84305061" id="21347040"/><path d="M0.894711572,1.82768958 C1.10118347,1.48978672 0.963535539,1.15188387 0.825887605,1.03924958 C0.619415704,0.926615297 0.206471901,1.03924958 0,1.60242101 C0.206471901,1.48978672 0.412943803,1.48978672 0.48176777,1.71505529 C0.550591737,1.94032386 0.688239671,2.16559243 0.894711572,1.82768958 C0.894711572,1.82768958 0.688239671,2.16559243 0.894711572,1.82768958 L0.894711572,1.82768958 L0.894711572,1.82768958 Z M0.894711572,1.82768958" id="21346952"/><path d="M1,0 C1.68186337,0 1.87668147,0.111111111 1.97409052,0.444444444 C2.07149958,0.666666667 1.87668147,1 1.68186337,1 C1.38963621,1 1.09740905,0.777777778 1.1948181,0.666666667 C1.29222716,0.444444444 1.29222716,0.111111111 1,0 C1,0 1.29222716,0.111111111 1,0 L1,0 L1,0 Z M1,0" id="21346864"/><path d="M4.48032862,0.981460128 C4.96065725,1.0771178 5.1527887,0.79014478 4.86459152,0.407514086 C4.7685258,0.120541065 4.48032862,-0.0707742823 4,0.0248833913 C4.48032862,0.311856412 4,0.79014478 4.48032862,0.981460128 C4.48032862,0.981460128 4,0.79014478 4.48032862,0.981460128 L4.48032862,0.981460128 L4.48032862,0.981460128 Z M4.48032862,0.981460128" id="21346776"/><path d="M0,3.50631586 C0.224299065,4.05211962 0.598130841,4.05211962 0.747663551,3.94295887 C0.971962617,3.83379812 1.04672897,3.50631586 0.971962617,3.28799436 C0.822429907,2.96051211 0.598130841,2.85135136 0.523364486,3.28799436 C0.373831776,3.72463737 0.14953271,3.61547662 0,3.50631586 C0,3.50631586 0.14953271,3.61547662 0,3.50631586 L0,3.50631586 L0,3.50631586 Z M0,3.50631586" id="21346688"/><path d="M0.979465691,9.42857143 C0.828778662,8.85714286 0.376717574,8.85714286 0,9.42857143 C0.150687029,9.28571429 0.452061088,9.42857143 0.527404603,9.71428571 C0.602748118,10 0.753435147,10 0.828778662,10 C0.904122176,9.85714286 1.05480921,9.71428571 0.979465691,9.42857143 C0.979465691,9.42857143 1.05480921,9.71428571 0.979465691,9.42857143 L0.979465691,9.42857143 L0.979465691,9.42857143 Z M0.979465691,9.42857143" id="21346600"/><path d="M1.96556405,8.62338741 C1.96556405,7.99569976 1.3511142,7.87016223 1,8.12123729 C1.1755571,8.12123729 1.43889275,8.37231235 1.43889275,8.62338741 C1.5266713,8.87446247 1.7022284,9 1.79000695,9 C1.96556405,8.87446247 2.0533426,8.74892494 1.96556405,8.62338741 C1.96556405,8.62338741 2.0533426,8.74892494 1.96556405,8.62338741 L1.96556405,8.62338741 L1.96556405,8.62338741 Z M1.96556405,8.62338741" id="21346512"/><path d="M0.79000695,10.0086827 C0.26333565,9.918563 0,10.5494012 0,11 C0.08777855,10.7296407 0.3511142,10.5494012 0.61444985,10.639521 C0.8777855,10.639521 0.96556405,10.5494012 0.96556405,10.3691617 C1.0533426,10.1889222 0.96556405,10.0988025 0.79000695,10.0086827 C0.79000695,10.0086827 0.96556405,10.0988025 0.79000695,10.0086827 L0.79000695,10.0086827 L0.79000695,10.0086827 Z M0.79000695,10.0086827" id="21346424"/><path d="M1,12.6615212 C1.17553288,12.7784628 1.35106575,12.5445797 1.43883219,12.1937551 C1.43883219,11.959872 1.78989795,11.959872 1.87766439,12.0768135 C2.05319726,12.1937551 2.05319726,12.6615212 1.78989795,12.8954043 C1.61436507,13.0123458 1.17553288,13.1292874 1,12.6615212 C1,12.6615212 1.17553288,13.1292874 1,12.6615212 L1,12.6615212 L1,12.6615212 Z M1,12.6615212" id="21346336"/><path d="M15.9637107,9.23738531 C15.7884906,9.08756425 15.3504403,8.78792211 15,9.23738531 C15.2628302,9.08756425 15.4380503,9.38720638 15.5256604,9.68684851 C15.5256604,9.98649064 15.7884906,10.1363117 15.8761007,9.83666958 C15.9637107,9.68684851 16.0513208,9.38720638 15.9637107,9.23738531 C15.9637107,9.23738531 16.0513208,9.38720638 15.9637107,9.23738531 L15.9637107,9.23738531 L15.9637107,9.23738531 Z M15.9637107,9.23738531" id="21346248"/><path d="M14.8578644,10.0610745 C14.5147186,9.79281001 14.0857864,10.4634711 14,11 C14.0857864,10.8658678 14.4289322,10.5976033 14.6005051,10.5976033 C14.7720779,10.7317356 14.9436508,10.5976033 14.9436508,10.3293389 C15.0294373,10.1952067 15.0294373,10.0610745 14.8578644,10.0610745 L14.8578644,10.0610745 L14.8578644,10.0610745 L14.8578644,10.0610745 Z M14.8578644,10.0610745" id="21346160"/><path d="M15.7,10 C15.4,10 15,10.5 15,11 C15.1,10.75 15.3,10.625 15.5,10.75 C15.7,10.75 16,10.625 16,10.375 C16,10.125 15.9,10 15.7,10 L15.7,10 L15.7,10 L15.7,10 Z M15.7,10" id="21346072"/><path d="M15.8386095,12.0361446 C15.559073,11.939759 15.1397683,12.0361446 15.1397683,12.3253012 C15.1397683,12.6144578 15.1397683,12.9036145 15,13 C15.2795365,12.8072289 15.559073,12.7108434 15.8386095,12.6144578 C15.9783778,12.5180723 16.118146,12.2289157 15.8386095,12.0361446 C15.8386095,12.0361446 16.118146,12.2289157 15.8386095,12.0361446 L15.8386095,12.0361446 L15.8386095,12.0361446 Z M15.8386095,12.0361446" id="21345984"/><path d="M27.8730335,10.0832816 C27.6289888,9.93049517 27.2629217,10.0068884 27.1408993,10.1596748 C27.0188769,10.3124612 26.8968546,10.6944272 27.1408993,11 C27.1408993,10.8472136 27.384944,10.618034 27.6289888,10.618034 C27.9950559,10.5416408 28.1170782,10.236068 27.8730335,10.0832816 C27.8730335,10.0832816 28.1170782,10.236068 27.8730335,10.0832816 L27.8730335,10.0832816 L27.8730335,10.0832816 Z M27.8730335,10.0832816" id="21345896"/><path d="M28.3686453,10.0188679 C27.8987999,10.1698113 27.8987999,10.6981132 28.2511839,11 C28.2511839,10.8490566 28.3686453,10.6226415 28.6035679,10.5471698 C28.955952,10.5471698 29.0734133,10.245283 28.955952,10.0943396 C28.7210293,9.94339623 28.4861066,10.0188679 28.3686453,10.0188679 L28.3686453,10.0188679 L28.3686453,10.0188679 L28.3686453,10.0188679 Z M28.3686453,10.0188679" id="21345808"/><path d="M29.5322193,12.0216849 C29.2823587,11.9401586 29.0324981,12.1032111 29.0324981,12.2662637 C28.9075678,12.5108424 29.1574284,12.8369475 29.5322193,13 C29.5322193,12.8369475 29.6571496,12.673895 29.7820799,12.5923687 C30.1568708,12.4293162 30.0319405,12.1032111 29.5322193,12.0216849 C29.5322193,12.0216849 30.0319405,12.1032111 29.5322193,12.0216849 L29.5322193,12.0216849 L29.5322193,12.0216849 Z M29.5322193,12.0216849" id="21345720"/><path d="M31.3613021,12 C31.1058229,12 30.8503438,12.3574703 31.1058229,12.7149407 C31.2335625,12.9532542 31.4890417,13.072411 32,12.9532542 C31.8722604,12.9532542 31.6167813,12.5957839 31.7445208,12.4766271 C31.8722604,12.2383136 31.7445208,12 31.3613021,12 L31.3613021,12 L31.3613021,12 L31.3613021,12 Z M31.3613021,12" id="21345632"/></g></g><g fill="#F9D050" id="g2662" stroke="#000000" stroke-width="0.1" transform="translate(16.000000, 44.000000)"><path d="M8.5,0 L6.50617284,5.74675325 L0,5.74675325 L5.24691358,9.25324675 L3.25308642,15 L8.5,11.4935065 L13.7469136,15 L11.7530864,9.25324675 L17,5.74675325 L10.4938272,5.74675325 L8.5,0 L8.5,0 L8.5,0 L8.5,0 Z M8.5,0" id="21345456"/><path d="M28.5521472,0 L30.4294479,5.74675325 L37,5.74675325 L31.6809816,9.25324675 L33.6625767,15 L28.5521472,11.4935065 L23.3374233,15 L25.3190184,9.25324675 L20,5.74675325 L26.4662577,5.74675325 L28.5521472,0 L28.5521472,0 L28.5521472,0 L28.5521472,0 Z M28.5521472,0" id="21345368"/><path d="M18.5,12 L16.5061728,17.7467532 L10,17.7467532 L15.2469136,21.2532468 L13.2530864,27 L18.5,23.4935065 L23.7469136,27 L21.7530864,21.2532468 L27,17.7467532 L20.4938272,17.7467532 L18.5,12 L18.5,12 L18.5,12 L18.5,12 Z M18.5,12" id="21345280"/></g><g fill="#024919" id="g2667" stroke="#000000" stroke-width="0.1" transform="translate(18.000000, 45.000000)"><path d="M6.5,0 L4.9765625,4.90163934 L0,4.90163934 L4.0625,7.99180328 L2.4375,13 L6.5,9.90983607 L10.4609375,13 L8.9375,7.99180328 L13,4.90163934 L8.0234375,4.90163934 L6.5,0 L6.5,0 L6.5,0 L6.5,0 Z M6.5,0" id="21441472"/><path d="M26.5503876,0 L27.9612403,4.90163934 L33,4.90163934 L28.9689922,7.99180328 L30.4806202,13 L26.5503876,9.90983607 L22.5193798,13 L24.0310078,7.99180328 L20,4.90163934 L24.9379845,4.90163934 L26.5503876,0 L26.5503876,0 L26.5503876,0 L26.5503876,0 Z M26.5503876,0" id="21441384"/><path d="M16.5,12 L14.9765625,16.9016393 L10,16.9016393 L14.0625,19.9918033 L12.4375,25 L16.5,21.9098361 L20.4609375,25 L18.9375,19.9918033 L23,17.0081967 L18.0234375,17.0081967 L16.5,12 L16.5,12 L16.5,12 L16.5,12 Z M16.5,12" id="21441296"/></g><g fill="#00493D" id="g2672" transform="translate(6.000000, 63.000000)"><path d="M0.848484848,2.06060606 C0.606060606,2.18181818 0.606060606,2.42424242 0.606060606,2.54545455 L0.484848485,2.54545455 L0,1.45454545 L0.121212121,1.45454545 C0.121212121,1.57575758 0.242424242,1.6969697 0.484848485,1.57575758 L2.54545455,0.484848485 C2.78787879,0.363636364 2.78787879,0.242424242 2.66666667,0.121212121 L2.78787879,0 L3.39393939,1.21212121 L3.27272727,1.21212121 C3.15151515,1.09090909 3.03030303,0.96969697 2.78787879,1.09090909 L1.93939394,1.57575758 L2.3030303,2.3030303 L3.27272727,1.93939394 C3.51515152,1.81818182 3.39393939,1.57575758 3.39393939,1.45454545 L3.51515152,1.45454545 L4,2.54545455 C3.87878788,2.42424242 3.75757576,2.3030303 3.51515152,2.42424242 L1.45454545,3.51515152 C1.21212121,3.63636364 1.21212121,3.75757576 1.33333333,3.87878788 L1.21212121,4 L0.606060606,2.90909091 L0.727272727,2.78787879 C0.848484848,2.90909091 0.96969697,3.03030303 1.21212121,2.90909091 L2.18181818,2.42424242 L1.81818182,1.57575758 L0.848484848,2.06060606 Z M0.848484848,2.06060606" id="21441032"/><path d="M3.5,3.4 C3.75,3.3 3.75,3.2 3.625,3 L3.75,3 L5,4.5 L4.125,5 L4.125,4.9 C4.625,4.6 4.625,4.2 4.5,4.1 C4.375,4 4.25,3.9 4.25,3.8 C4.125,3.8 4.125,3.7 3.875,3.9 C3.75,4 3,4.4 3,4.4 C3.125,4.5 3.25,4.8 3.875,4.5 L4,4.5 L2.625,5.3 L2.625,5.2 C3.25,4.8 3,4.5 2.875,4.4 L2,4.9 C1.75,5 1.75,5.1 1.75,5.2 C1.875,5.2 1.875,5.3 2,5.4 C2.125,5.6 2.5,5.8 3.125,5.6 L3.25,5.7 L2.25,6 L1,4.4 L1.125,4.4 C1.25,4.5 1.375,4.6 1.625,4.5 L3.5,3.4 L3.5,3.4 L3.5,3.4 L3.5,3.4 Z M3.5,3.4" id="21440944" stroke="#000000" stroke-width="0.1"/><path d="M5.71428571,6.71428571 L4.91428571,7.4 C4.8,7.51428571 4.8,7.74285714 4.91428571,7.85714286 L4.8,7.85714286 L4,7.05714286 L4.11428571,6.94285714 C4.22857143,7.05714286 4.34285714,7.17142857 4.57142857,6.94285714 L6.05714286,5.45714286 C6.28571429,5.34285714 6.28571429,5.22857143 6.17142857,5 L6.17142857,5 L6.97142857,5.91428571 C6.85714286,5.8 6.62857143,5.8 6.51428571,5.91428571 L5.82857143,6.6 L6.4,7.17142857 L7.08571429,6.6 C7.31428571,6.37142857 7.2,6.25714286 7.08571429,6.14285714 L7.2,6.02857143 L8,6.94285714 L7.88571429,6.94285714 C7.77142857,6.94285714 7.65714286,6.82857143 7.42857143,7.05714286 L5.94285714,8.42857143 C5.71428571,8.65714286 5.71428571,8.77142857 5.82857143,8.88571429 L5.82857143,9 L5.02857143,8.08571429 C5.14285714,8.08571429 5.37142857,8.2 5.48571429,8.08571429 L6.28571429,7.28571429 L5.71428571,6.71428571 L5.71428571,6.71428571 L5.71428571,6.71428571 L5.71428571,6.71428571 Z M5.71428571,6.71428571" id="21440856" stroke="#000000" stroke-width="0.1"/><path d="M6.38461538,9.22222222 L6.73076923,9.55555556 L7.19230769,8.55555556 C7.19230769,8.55555556 6.84615385,8.66666667 6.26923077,9 L6.38461538,9.22222222 L6.26923077,9.33333333 L6.03846154,9.11111111 C5.92307692,9.22222222 5.80769231,9.22222222 5.69230769,9.33333333 C5.34615385,9.55555556 5.46153846,9.66666667 5.57692308,9.77777778 L5.57692308,9.88888889 L5,9.33333333 L5.11538462,9.33333333 C5.11538462,9.33333333 5.34615385,9.33333333 5.57692308,9.22222222 L7.88461538,8 L8,8.11111111 C8,8.11111111 7.88461538,8.22222222 6.84615385,10.4444444 C6.84615385,10.6666667 6.73076923,10.7777778 6.84615385,11 L6.84615385,11 L5.92307692,10.2222222 L6.03846154,10.1111111 C6.15384615,10.3333333 6.38461538,10.3333333 6.5,10.1111111 C6.5,10 6.61538462,9.77777778 6.61538462,9.66666667 L6.26923077,9.33333333 L6.38461538,9.22222222 L6.38461538,9.22222222 L6.38461538,9.22222222 L6.38461538,9.22222222 Z M6.38461538,9.22222222" id="21440768" stroke="#000000" stroke-width="0.1"/><path d="M8,11.3793103 L8.10714286,11.2758621 C8.21428571,11.3793103 8.32142857,11.3793103 8.53571429,11.2758621 L9.92857143,9.51724138 L9.82142857,9.4137931 C9.60714286,9.31034483 9.28571429,9.31034483 8.96428571,9.62068966 L8.96428571,9.51724138 L9.39285714,9 L11,10.137931 L10.4642857,10.7586207 L10.3571429,10.7586207 C10.6785714,10.4482759 10.5714286,10.0344828 10.3571429,9.93103448 L10.3571429,9.82758621 L8.96428571,11.5862069 C8.75,11.6896552 8.85714286,11.8965517 8.96428571,12 L8.85714286,12 L8,11.3793103 L8,11.3793103 L8,11.3793103 L8,11.3793103 Z M8,11.3793103" id="21440680" stroke="#000000" stroke-width="0.1"/><path d="M10.5757576,11.8285714 L9.96969697,12.6285714 C9.84848485,12.8571429 9.96969697,12.9714286 10.0909091,13.0857143 L9.96969697,13.2 L9,12.5142857 L9,12.4 C9.24242424,12.5142857 9.36363636,12.5142857 9.48484848,12.2857143 L10.8181818,10.5714286 C10.9393939,10.3428571 10.8181818,10.2285714 10.6969697,10.1142857 L10.8181818,10 L11.7878788,10.6857143 L11.7878788,10.8 C11.5454545,10.6857143 11.4242424,10.6857143 11.3030303,10.9142857 L10.6969697,11.7142857 L11.4242424,12.1714286 L12.030303,11.3714286 C12.1515152,11.1428571 12.030303,11.0285714 11.9090909,10.9142857 L12.030303,10.8 L13,11.4857143 L13,11.6 C12.8787879,11.4857143 12.6363636,11.4857143 12.5151515,11.7142857 L11.3030303,13.5428571 C11.0606061,13.6571429 11.1818182,13.7714286 11.3030303,13.8857143 L11.3030303,14 L10.2121212,13.3142857 L10.3333333,13.3142857 C10.4545455,13.3142857 10.5757576,13.3142857 10.6969697,13.2 L11.3030303,12.2857143 L10.5757576,11.8285714 L10.5757576,11.8285714 L10.5757576,11.8285714 L10.5757576,11.8285714 Z M10.5757576,11.8285714" id="21440592" stroke="#000000" stroke-width="0.1"/><path d="M13,13.4642857 L13.1034483,13.3571429 C13.2068966,13.4642857 13.4137931,13.4642857 13.5172414,13.25 L14.3448276,11.4285714 C14.4482759,11.2142857 14.3448276,11.1071429 14.2413793,11 L14.2413793,11 L16,11.8571429 L15.5862069,12.7142857 L15.4827586,12.6071429 C15.7931034,12.1785714 15.4827586,11.75 15.3793103,11.6428571 C15.2758621,11.6428571 15.1724138,11.5357143 15.0689655,11.5357143 C14.9655172,11.5357143 14.9655172,11.5357143 14.862069,11.75 C14.7586207,11.8571429 14.4482759,12.5 14.4482759,12.5 C14.5517241,12.6071429 14.7586207,12.8214286 15.1724138,12.2857143 L15.2758621,12.2857143 L14.6551724,13.5714286 L14.5517241,13.4642857 C14.862069,12.8214286 14.4482759,12.7142857 14.3448276,12.7142857 L13.9310345,13.5714286 C13.8275862,13.7857143 13.9310345,13.8928571 14.0344828,13.8928571 L14.0344828,14 L13,13.4642857 L13,13.4642857 L13,13.4642857 L13,13.4642857 Z M13,13.4642857" id="21440504" stroke="#000000" stroke-width="0.1"/><path d="M14.8939753,15.8837876 C14.4899588,15.6531563 14.4899588,14.9612625 14.8939753,14.2693687 C15.1633196,13.5774749 15.7020082,13.0008968 16.2406969,13.231528 C16.6447133,13.3468437 16.5100412,14.0387375 16.2406969,14.7306313 C15.8366804,15.5378407 15.2979918,15.9991032 14.8939753,15.8837876 L14.7593031,15.8837876 C15.7020082,16.2297345 16.375369,15.768472 16.7793855,14.9612625 C17.1834019,14.2693687 17.0487298,13.4621593 16.2406969,13.1162124 C15.4326639,12.7702655 14.624631,13.231528 14.2206145,14.0387375 C13.8165981,14.8459469 13.9512702,15.6531563 14.7593031,15.8837876 L14.8939753,15.8837876 L14.8939753,15.8837876 L14.8939753,15.8837876 L14.8939753,15.8837876 Z M14.8939753,15.8837876" id="21440416" stroke="#000000" stroke-width="0.1"/><path d="M18.9846255,16.235321 L19.4923128,15.016055 C19.6192346,14.812844 19.4923128,14.7112385 19.3653909,14.609633 L19.3653909,14.609633 L20,14.7112385 L20,14.812844 C19.8730782,14.812844 19.7461564,14.812844 19.6192346,15.016055 L19.1115473,16.235321 C18.8577037,16.7433485 18.4769383,17.1497705 17.7154074,16.9465595 C17.2077202,16.844954 16.8269547,16.3369265 17.0807984,15.828899 L17.7154074,14.5080275 C17.8423292,14.3048165 17.7154074,14.203211 17.5884856,14.1016055 L17.5884856,14 L18.7307819,14.406422 L18.7307819,14.5080275 C18.6038601,14.406422 18.3500165,14.406422 18.3500165,14.609633 L17.7154074,15.9305045 C17.5884856,16.3369265 17.5884856,16.7433485 17.969251,16.844954 C18.3500165,16.9465595 18.7307819,16.7433485 18.9846255,16.235321 C18.9846255,16.235321 18.7307819,16.7433485 18.9846255,16.235321 L18.9846255,16.235321 L18.9846255,16.235321 Z M18.9846255,16.235321" id="21440328" stroke="#000000" stroke-width="0.1"/><path d="M20.7777778,14.1 C20.7777778,14 20.7777778,14 20.6666667,14 L20.6666667,14 L21.4444444,14.1 L22.1111111,16 L22.4444444,14.8 C22.5555556,14.6 22.4444444,14.5 22.3333333,14.4 L22.3333333,14.4 L23,14.5 L22.8888889,14.6 C22.7777778,14.6 22.6666667,14.6 22.5555556,14.8 L22,17 L21.8888889,17 L21,14.6 L20.4444444,16.2 C20.4444444,16.5 20.5555556,16.5 20.6666667,16.6 L20.6666667,16.7 L20,16.5 L20,16.4 C20.1111111,16.5 20.3333333,16.4 20.3333333,16.2 L20.8888889,14.4 L20.7777778,14.1 L20.7777778,14.1 L20.7777778,14.1 L20.7777778,14.1 Z M20.7777778,14.1" id="21440240" stroke="#000000" stroke-width="0.1"/><path d="M23.5304137,16.6961707 C23.2640544,17.6502668 22.7313357,17.8622881 22.4649764,17.8622881 L22.198617,17.8622881 C22.198617,17.8622881 22.0654374,17.7562774 22.198617,17.6502668 L22.598156,15.5300534 C22.7313357,15.4240427 22.7313357,15.318032 22.8645154,15.4240427 L23.1308747,15.4240427 C23.3972341,15.4240427 23.6635934,15.8480854 23.5304137,16.6961707 L23.9299527,16.8021814 C24.1963121,15.7420747 23.6635934,15.318032 22.9976951,15.2120213 C22.4649764,15.1060107 21.6658984,15 21.6658984,15 L21.6658984,15.1060107 C21.799078,15.2120213 22.0654374,15.2120213 21.9322577,15.5300534 L21.5327187,17.4382454 C21.399539,17.6502668 21.2663593,17.7562774 21.1331797,17.7562774 L21,17.7562774 L22.3317967,17.9682988 C22.9976951,18.0743094 23.6635934,17.9682988 23.9299527,16.8021814 L23.5304137,16.6961707 L23.5304137,16.6961707 L23.5304137,16.6961707 L23.5304137,16.6961707 Z M23.5304137,16.6961707" id="21440152" stroke="#000000" stroke-width="0.1"/><path d="M23.8571429,15.4285714 C23.8571429,15.2142857 23.5714286,15.1071429 23.4285714,15.1071429 L23.4285714,15 L26,15.2142857 L25.8571429,16.0714286 C25.8571429,15.5357143 25.4285714,15.3214286 25.1428571,15.3214286 C25,15.2142857 24.8571429,15.2142857 24.7142857,15.2142857 C24.5714286,15.2142857 24.5714286,15.2142857 24.5714286,15.5357143 C24.5714286,15.6428571 24.4285714,16.3928571 24.4285714,16.3928571 C24.5714286,16.3928571 25,16.5 25.2857143,15.8571429 L25.2857143,15.8571429 L25.1428571,17.25 L25,17.25 C25,16.6071429 24.5714286,16.6071429 24.4285714,16.6071429 L24.2857143,17.5714286 C24.2857143,17.7857143 24.2857143,17.7857143 24.4285714,17.7857143 C24.4285714,17.7857143 24.7142857,17.7857143 24.7142857,17.8928571 C25.1428571,17.8928571 25.5714286,17.7857143 25.8571429,17.1428571 L26,17.1428571 L25.7142857,18 L23,17.7857143 C23.2857143,17.7857143 23.4285714,17.6785714 23.5714286,17.4642857 L23.8571429,15.4285714 L23.8571429,15.4285714 L23.8571429,15.4285714 L23.8571429,15.4285714 Z M23.8571429,15.4285714" id="21440064" stroke="#000000" stroke-width="0.1"/><path d="M30.7857143,17.5555556 C30.7857143,17.7777778 30.8571429,17.7777778 31,17.7777778 L31,17.8888889 L30.2142857,18 C30.2857143,17.8888889 30.4285714,17.7777778 30.4285714,17.5555556 L30.2857143,15.4444444 C30.2142857,15.2222222 30.1428571,15.2222222 30,15.2222222 L30,15.1111111 L30.7857143,15 C30.7142857,15.1111111 30.5714286,15.2222222 30.6428571,15.4444444 L30.7857143,17.5555556 L30.7857143,17.5555556 L30.7857143,17.5555556 L30.7857143,17.5555556 Z M30.7857143,17.5555556" id="21439976" stroke="#000000" stroke-width="0.1"/><path d="M32.2631579,18 L32.2631579,17.8928571 C32.4210526,17.8928571 32.5789474,17.7857143 32.5789474,17.5714286 L31.9473684,15.3214286 L31.7894737,15.3214286 C31.4736842,15.4285714 31.1578947,15.6428571 31.3157895,16.0714286 L31.1578947,16.0714286 L31,15.3214286 L33.8421053,15 L34,15.75 L33.8421053,15.75 C33.8421053,15.3214286 33.3684211,15.2142857 32.8947368,15.2142857 L32.7368421,15.2142857 L33.3684211,17.4642857 C33.3684211,17.6785714 33.5263158,17.7857143 33.8421053,17.7857143 L33.8421053,17.8928571 L32.2631579,18 L32.2631579,18 L32.2631579,18 L32.2631579,18 Z M32.2631579,18" id="21439888" stroke="#000000" stroke-width="0.1"/><path d="M36.809018,15.7438549 L36.2982875,14.5128985 C36.2982875,14.3077391 36.0429222,14.3077391 35.9152396,14.3077391 L35.9152396,14.2051594 L36.5536528,14 L36.5536528,14.1025797 C36.4259701,14.2051594 36.4259701,14.2051594 36.4259701,14.4103188 L36.9367007,15.7438549 C37.0643833,16.1541736 37.0643833,16.7696518 36.2982875,16.9748112 C35.7875569,17.0773909 35.1491437,16.8722315 35.0214611,16.2567533 L34.5107306,14.9232173 C34.3830479,14.7180579 34.2553653,14.7180579 34.1276826,14.7180579 L34,14.6154782 L35.2768264,14.3077391 L35.2768264,14.4103188 C35.1491437,14.5128985 35.0214611,14.6154782 35.1491437,14.8206376 L35.5321917,16.1541736 C35.6598743,16.5644924 36.0429222,16.7696518 36.4259701,16.7696518 C36.809018,16.6670721 36.9367007,16.2567533 36.809018,15.7438549 C36.809018,15.7438549 36.9367007,16.2567533 36.809018,15.7438549 L36.809018,15.7438549 L36.809018,15.7438549 Z M36.809018,15.7438549" id="21439800" stroke="#000000" stroke-width="0.1"/><path d="M37.7773535,15.4673379 C38.5179175,15.262983 38.3698047,14.9564506 38.2216919,14.6499182 C38.0735791,14.3433858 37.7773535,14.1390308 37.4811279,14.2412083 C37.3330151,14.2412083 37.1849023,14.3433858 37.3330151,14.4455632 L37.7773535,15.4673379 L37.9254663,15.5695154 L38.2216919,16.3869352 C38.3698047,16.5912901 38.6660302,16.5912901 38.814143,16.4891126 L38.814143,16.5912901 L37.4811279,17 L37.3330151,16.8978225 C37.6292407,16.7956451 37.6292407,16.6934676 37.6292407,16.4891126 L36.5924512,14.7520956 C36.4443384,14.4455632 36.2962256,14.5477407 36,14.5477407 L36,14.4455632 L37.4811279,14.0368533 C38.0735791,13.9346759 38.6660302,14.0368533 38.9622558,14.4455632 C39.1103686,14.9564506 38.814143,15.262983 38.2216919,15.4673379 C38.0735791,15.4673379 37.9254663,15.5695154 37.9254663,15.5695154 L37.7773535,15.4673379 L37.7773535,15.4673379 L37.7773535,15.4673379 L37.7773535,15.4673379 Z M37.7773535,15.4673379" id="21439712" stroke="#000000" stroke-width="0.1"/><path d="M40.2068966,12.2121212 L40.1034483,12.2121212 L40,12.2121212 L40.6206897,11.7272727 L42.4827586,12.9393939 L41.862069,11.6060606 C41.7586207,11.3636364 41.5517241,11.3636364 41.4482759,11.3636364 L41.4482759,11.2424242 L41.9655172,11 C41.862069,11.1212121 41.7586207,11.2424242 41.9655172,11.4848485 L43,13.9090909 L42.8965517,14.030303 L40.6206897,12.5757576 L41.4482759,14.3939394 C41.5517241,14.6363636 41.7586207,14.6363636 41.862069,14.5151515 L41.862069,14.6363636 L41.3448276,15 L41.3448276,14.8787879 C41.4482759,14.7575758 41.4482759,14.6363636 41.3448276,14.3939394 L40.5172414,12.4545455 L40.2068966,12.2121212 L40.2068966,12.2121212 L40.2068966,12.2121212 L40.2068966,12.2121212 Z M40.2068966,12.2121212" id="21439624" stroke="#000000" stroke-width="0.1"/><path d="M45.0769231,13 L45.0769231,12.9 C45.0769231,12.8 45.1923077,12.7 45.0769231,12.5 L43.6923077,10.8 L43.5769231,10.8 C43.3461538,10.9 43.2307692,11.3 43.5769231,11.6 L43.4615385,11.7 L43,11 L44.7307692,10 L45.1923077,10.6 C44.8461538,10.3 44.5,10.3 44.2692308,10.4 L44.1538462,10.5 L45.5384615,12.2 C45.6538462,12.4 45.8846154,12.4 46,12.3 L46,12.4 L45.0769231,13 L45.0769231,13 L45.0769231,13 L45.0769231,13 Z M45.0769231,13" id="21439536" stroke="#000000" stroke-width="0.1"/><path d="M45.6470588,11.3333333 L46.3529412,12.1111111 C46.4705882,12.2222222 46.7058824,12.2222222 46.8235294,12.1111111 L46.8235294,12.2222222 L45.8823529,13 L45.8823529,12.8888889 C46,12.7777778 46,12.6666667 45.8823529,12.4444444 L44.4705882,10.7777778 C44.3529412,10.5555556 44.2352941,10.6666667 44,10.6666667 L44,10.6666667 L44.9411765,9.88888889 L44.9411765,10 C44.9411765,10.1111111 44.8235294,10.2222222 44.9411765,10.4444444 L45.5294118,11.1111111 L46.2352941,10.6666667 L45.6470588,9.88888889 C45.5294118,9.66666667 45.2941176,9.77777778 45.1764706,9.77777778 L45.1764706,9.77777778 L46.1176471,9 L46.1176471,9.11111111 C46,9.22222222 46,9.33333333 46.1176471,9.55555556 L47.5294118,11.2222222 C47.6470588,11.3333333 47.7647059,11.3333333 47.8823529,11.2222222 L48,11.3333333 L47.0588235,12.1111111 L46.9411765,12 C47.0588235,11.8888889 47.1764706,11.7777778 47.0588235,11.5555556 L46.3529412,10.7777778 L45.6470588,11.3333333 L45.6470588,11.3333333 L45.6470588,11.3333333 L45.6470588,11.3333333 Z M45.6470588,11.3333333" id="21439448" stroke="#000000" stroke-width="0.1"/><path d="M47.516129,9.625 C47.3870968,9.5 47.1290323,9.5 47,9.625 L47,9.5 L48.6774194,8 L49.4516129,8.75 L49.3225806,8.75 C48.9354839,8.25 48.4193548,8.5 48.1612903,8.625 C48.1612903,8.75 48.0322581,8.75 47.9032258,8.875 C47.9032258,8.875 47.9032258,9 48.0322581,9.25 L48.8064516,10 C48.9354839,9.875 49.3225806,9.625 48.8064516,9 L48.9354839,9 L49.9677419,10.125 L49.9677419,10.25 C49.3225806,9.625 49.0645161,10 48.9354839,10.125 L49.7096774,10.875 C49.8387097,11.125 49.9677419,11.125 49.9677419,11.125 L50.3548387,10.75 C50.483871,10.625 50.6129032,10.25 50.3548387,9.5 L50.483871,9.5 L51,10.375 L49.3225806,12 L49.1935484,11.875 C49.3225806,11.75 49.4516129,11.625 49.1935484,11.375 L47.516129,9.625 L47.516129,9.625 L47.516129,9.625 L47.516129,9.625 Z M47.516129,9.625" id="21439360" stroke="#000000" stroke-width="0.1"/><path d="M49.2945685,5.66666667 C49.167254,5.77777778 49.167254,6 49.4218829,6.11111111 C49.6765117,6.33333333 49.9311406,6.33333333 50.4403983,6.11111111 C50.6950271,6 51.2042848,5.88888889 51.5862281,6.22222222 C52.2228002,6.77777778 51.9681714,7.22222222 51.840857,7.44444444 C51.7135425,7.55555556 51.4589137,7.66666667 51.3315993,7.77777778 C51.2042848,7.77777778 51.2042848,7.77777778 51.2042848,7.88888889 L51.2042848,8 L50.3130839,7.33333333 L50.4403983,7.33333333 C50.949656,7.55555556 51.4589137,7.66666667 51.7135425,7.33333333 C51.9681714,7.11111111 51.7135425,6.88888889 51.5862281,6.77777778 C51.3315993,6.55555556 51.0769704,6.55555556 50.6950271,6.77777778 C50.3130839,6.88888889 49.8038262,6.88888889 49.4218829,6.66666667 C48.9126252,6.22222222 48.9126252,5.88888889 49.167254,5.55555556 C49.2945685,5.44444444 49.5491973,5.33333333 49.6765117,5.22222222 C49.8038262,5.22222222 49.8038262,5.22222222 49.6765117,5 L49.6765117,5 L50.5677127,5.55555556 L50.4403983,5.55555556 C49.8038262,5.33333333 49.4218829,5.44444444 49.2945685,5.66666667 C49.2945685,5.66666667 49.4218829,5.44444444 49.2945685,5.66666667 L49.2945685,5.66666667 L49.2945685,5.66666667 Z M49.2945685,5.66666667" id="21439272" stroke="#000000" stroke-width="0.1"/><path d="M51.625,5.4516129 C51.375,5.35483871 51.25,5.4516129 51.125,5.5483871 L51,5.5483871 L52.375,4 L53.25,4.48387097 L53.125,4.58064516 C52.625,4.29032258 52.125,4.48387097 52,4.58064516 C52,4.67741935 51.875,4.77419355 51.875,4.87096774 C51.75,4.87096774 51.75,4.96774194 52,5.06451613 C52.125,5.16129032 52.875,5.5483871 52.875,5.5483871 C53,5.4516129 53.25,5.25806452 52.75,4.87096774 L52.75,4.77419355 L54,5.5483871 C53.25,5.25806452 53.125,5.5483871 53,5.64516129 L53.875,6.12903226 C54.125,6.22580645 54.25,6.22580645 54.25,6.22580645 C54.25,6.12903226 54.375,6.03225806 54.5,5.93548387 C54.625,5.74193548 54.75,5.4516129 54.25,5.06451613 L54.375,4.96774194 L55,5.5483871 L53.75,7 L53.625,7 C53.75,6.80645161 53.75,6.70967742 53.5,6.51612903 L51.625,5.4516129 L51.625,5.4516129 L51.625,5.4516129 L51.625,5.4516129 Z M51.625,5.4516129" id="21439184" stroke="#000000" stroke-width="0.1"/><path d="M53.6071429,4.04347826 L53.2857143,4.69565217 C52.8571429,4.17391304 52.6428571,3.7826087 52.6428571,3.7826087 C52.6428571,3.7826087 52.6428571,3.7826087 53.6071429,4.04347826 L53.8214286,4.04347826 C53.9285714,4.04347826 54.1428571,4.17391304 54.25,4.17391304 C54.5714286,4.30434783 54.4642857,4.43478261 54.3571429,4.69565217 L54.4642857,4.69565217 L55,3.52173913 C54.7857143,3.7826087 54.6785714,3.65217391 54.4642857,3.65217391 C52.2142857,3.13043478 52,3 52,3 L52,3.13043478 C52,3.13043478 52,3.13043478 53.7142857,5.47826087 C53.8214286,5.60869565 53.8214286,5.86956522 53.8214286,6 L53.9285714,6 L54.25,5.34782609 L54.1428571,5.2173913 C54.0357143,5.47826087 53.9285714,5.60869565 53.7142857,5.2173913 L53.5,4.95652174 L53.8214286,4.04347826 L53.6071429,4.04347826 L53.6071429,4.04347826 L53.6071429,4.04347826 L53.6071429,4.04347826 Z M53.6071429,4.04347826" id="21441120" stroke="#000000" stroke-width="0.1"/><path d="M53.2096208,0.913043478 C53.0921605,1.04347826 53.0921605,1.30434783 53.4445415,1.43478261 C53.7969225,1.56521739 53.9143828,1.43478261 54.2667638,1.17391304 C54.6191448,0.913043478 54.9715257,0.652173913 55.441367,0.913043478 C56.146129,1.30434783 56.0286687,1.95652174 55.9112083,2.2173913 C55.793748,2.34782609 55.6762877,2.60869565 55.5588274,2.73913043 C55.5588274,2.73913043 55.5588274,2.73913043 55.5588274,2.86956522 L55.5588274,3 L54.6191448,2.47826087 C55.2064464,2.60869565 55.6762877,2.47826087 55.793748,2.08695652 C55.9112083,1.82608696 55.6762877,1.56521739 55.5588274,1.43478261 C55.3239067,1.30434783 55.0889861,1.43478261 54.7366051,1.69565217 C54.3842241,2.08695652 54.0318431,2.2173913 53.5620018,1.95652174 C53.0921605,1.69565217 52.8572399,1.30434783 53.0921605,0.913043478 C53.0921605,0.652173913 53.3270812,0.52173913 53.4445415,0.391304348 C53.4445415,0.260869565 53.4445415,0.260869565 53.3270812,0.130434783 L53.3270812,0 L54.2667638,0.52173913 L54.1493034,0.52173913 C53.5620018,0.391304348 53.2096208,0.652173913 53.2096208,0.913043478 C53.2096208,0.913043478 53.2096208,0.652173913 53.2096208,0.913043478 L53.2096208,0.913043478 L53.2096208,0.913043478 Z M53.2096208,0.913043478" id="21439008" stroke="#000000" stroke-width="0.1"/><path d="M28.4,16.5555556 C28.4,17.5555556 27.95,17.8888889 27.5,17.8888889 C27.35,17.7777778 27.35,17.7777778 27.2,17.7777778 C27.2,17.7777778 27.05,17.7777778 27.05,17.6666667 L27.2,15.3333333 C27.2,15.2222222 27.2,15.2222222 27.35,15.2222222 L27.65,15.2222222 C27.95,15.2222222 28.4,15.5555556 28.4,16.5555556 L29,16.5555556 C29,15.4444444 28.25,15.1111111 27.5,15.1111111 C26.9,15 26,15 26,15 L26,15.1111111 C26.15,15.1111111 26.45,15.2222222 26.45,15.4444444 L26.3,17.5555556 C26.3,17.7777778 26.15,17.8888889 26,17.8888889 L26,18 L27.35,18 C28.1,18 28.85,17.7777778 29,16.5555556 L28.4,16.5555556 L28.4,16.5555556 L28.4,16.5555556 L28.4,16.5555556 Z M28.4,16.5555556" id="21438920" stroke="#000000" stroke-width="0.1"/><path d="M41.1591498,15.8815682 C40.7636599,15.9990861 40.2363401,15.5290147 39.8408502,14.7063897 C39.4453603,14.0012826 39.4453603,13.2961755 39.8408502,13.1786576 C40.2363401,13.0611397 40.7636599,13.5312112 41.1591498,14.2363183 C41.5546397,14.9414254 41.5546397,15.6465325 41.1591498,15.8815682 L41.1591498,15.8815682 C41.9501296,15.6465325 42.2137895,14.8239076 41.8182996,14.0012826 C41.4228097,13.2961755 40.63183,12.826104 39.8408502,13.0611397 C39.0498704,13.4136933 38.7862105,14.2363183 39.1817004,14.9414254 C39.5771903,15.7640504 40.36817,16.2341218 41.1591498,15.8815682 L41.1591498,15.8815682 L41.1591498,15.8815682 L41.1591498,15.8815682 L41.1591498,15.8815682 Z M41.1591498,15.8815682" id="21438832" stroke="#000000" stroke-width="0.1"/></g><path d="M54,47.4166657 C54,65.1111099 45.466674,71.1837618 34.053332,76 C22.6400189,71.1837618 14,65.1111099 14,47.4166657 L14,27 L54,27 L54,47.4166657 Z M54,47.4166657" id="path3959" stroke="#000000" stroke-width="0.1"/></g><g id="UK"><rect d="M0,0 L0,60 L89.5027624,60 L89.5027624,0 L0,0 Z M0,0" fill="#346DA6" height="60" id="rect962-copy" width="89.5027624" x="0" y="0"/><path d="M45,23.291796 L10.062306,0 L0,0 L0,6.708204 L34.9376946,29.9999997 L0,53.291796 L0,60 L10.0623036,60 L45,36.7082031 L79.9376964,60 L90,60 L90,53.291796 L55.0623054,29.9999997 L90,6.708204 L90,0 L79.937694,0 L45,23.291796 L45,23.291796 L45,23.291796 L45,23.291796 Z M45,23.291796" fill="#FFFFFF" id="White_Diagonal"/><path d="M57.7419355,32.6666667 L90,54.7936508 L90,60 L50,32.6666667 L57.7419355,32.6666667 Z M47.7348066,33.0000001 L39.7790055,33.0000001 L0,60 L7.9558011,60 L47.7348066,33.0000001 Z M43.7569061,26.0416668 L50.9668508,26.0416668 L89.5027624,2.01327737e-07 L82.2928177,2.01327737e-07 L43.7569061,26.0416668 Z M29.3579908,25.0000002 L0,5.24353318 L0,2.01327737e-07 L37.1798356,25.0000002 L29.3579908,25.0000002 Z M29.3579908,25.0000002" fill="#CA4638" id="Path"/><path d="M36,22 L36,0 L53,0 L53,22 L90,22 L90,39 L53,39 L53,60 L36,60 L36,39 L0,39 L0,22 L36,22 Z M36,22" fill="#FFFFFF" id="Rectangle-3"/><path d="M38,24 L38,0 L51,0 L51,24 L90,24 L90,37 L51,37 L51,60 L38,60 L38,37 L0,37 L0,24 L38,24 Z M38,24" fill="#CA4638" id="Rectangle-3"/></g></g></g></svg>