<?xml version="1.0" encoding="UTF-8" standalone="no"?>
<svg width="180px" height="120px" viewBox="0 0 180 120" version="1.1" xmlns="http://www.w3.org/2000/svg" xmlns:xlink="http://www.w3.org/1999/xlink">
    <!-- Generator: Sketch 40.2 (33826) - http://www.bohemiancoding.com/sketch -->
    <title>icon-flag-cc</title>
    <desc>Created with Sketch.</desc>
    <defs></defs>
    <g id="Page-1" stroke="none" stroke-width="1" fill="none" fill-rule="evenodd">
        <rect id="Rectangle-path" fill="#008000" x="0" y="0" width="180" height="120"></rect>
        <path d="M102.623071,73.8645362 C99.291488,76.8995555 94.8618412,78.75 90,78.75 C79.6446609,78.75 71.25,70.3553391 71.25,60 C71.25,49.6446609 79.6446609,41.25 90,41.25 C94.8618412,41.25 99.291488,43.1004445 102.623071,46.1354638 C100.577512,45.1337644 98.2776405,44.5714286 95.8464286,44.5714286 C87.3254639,44.5714286 80.4178571,51.4790353 80.4178571,60 C80.4178571,68.5209647 87.3254639,75.4285714 95.8464286,75.4285714 C98.2776405,75.4285714 100.577512,74.8662356 102.623071,73.8645361 L102.623071,73.8645362 Z" id="Combined-Shape" fill="#FFE000"></path>
        <ellipse id="Oval" fill="#FFE000" cx="30.8928571" cy="33.75" rx="19.6428571" ry="19.6428571"></ellipse>
        <path d="M29.5375,48.5607143 L34.4423214,48.5607143 C34.4423214,48.5607143 34.6637143,48.1111071 34.3929321,47.8863036 C34.12215,47.6615 33.0674143,47.6120179 33.3523786,46.8168036 C33.9382179,45.1818929 34.0199679,45.6859821 34.387825,41.8030536 C34.7556821,37.920125 34.9327893,31.8300179 34.9327893,31.8300179 L34.224325,31.8300179 C34.224325,31.8300179 34.3605679,33.7237679 33.9518429,36.1898393 C33.5431179,38.6559107 33.4205036,38.8737679 32.9708964,40.7675179 C32.5212893,42.6612679 32.4531821,42.8248393 32.04445,43.9284107 C31.6357179,45.0319821 31.5948429,45.0864821 30.9545036,46.1082321 C30.3141643,47.1300536 30.5457714,46.7485714 30.1915393,47.3616607 C30.0144214,47.6681964 29.7964321,47.5864643 29.6772179,47.8095536 C29.5580054,48.0326607 29.5375679,48.5605893 29.5375679,48.5605893 L29.5375,48.5607143 Z" id="Shape" fill="#802000"></path>
        <path d="M33.2803571,19.4392857 C33.3211018,20.2010893 33.2445196,21.2096071 32.9287857,22.0303571 C32.6086429,22.9449286 32.2605179,23.8566071 32.27775,24.80375 C31.7687857,24.9768661 31.2442321,23.7023571 30.7543214,24.4521786 C31.1226071,25.4881786 31.972875,26.3084286 32.5553929,27.2418214 C32.6536446,27.5311964 33.4917857,28.2867857 33.0068393,28.4625 C31.7827857,28.0435714 31.4860893,26.4926786 30.7268393,25.5508929 C29.8450536,23.9659464 28.201125,22.8457143 26.3696964,22.7683929 C25.6817679,22.7864179 23.4450536,22.5978929 24.0270179,23.775875 C24.8841071,24.3585893 25.9402321,24.7385536 26.7864821,25.3926071 C27.4170179,25.4515929 28.559875,26.5041786 28.49325,26.9018929 C27.3842857,26.4527321 26.8652321,25.9144107 25.6703929,25.4419286 C24.0515,24.8166786 21.8121786,25.19275 20.9159286,26.7994464 C20.7488357,27.2178929 20.5021429,28.4375 21.0276196,28.5536964 C21.6416196,27.5950357 22.5199232,26.5233393 23.8213696,26.8108393 C24.8435839,26.8906464 22.6807089,28.715125 23.5080839,28.3480536 C23.7702446,28.2317196 24.3756375,27.8343214 24.7956196,27.7928214 C25.2155839,27.7513214 25.4501375,28.0657143 25.7687804,28.1092143 C26.4060661,28.1962107 26.5815482,28.463375 26.5224768,28.6188036 C26.4527857,28.8021786 26.2503161,28.6456125 25.6024768,28.8510179 C25.2785482,28.9537196 25.1093518,29.238375 24.7315125,29.3686786 C24.3536911,29.4989929 23.5677089,29.5082286 23.2739946,29.3926714 C22.2463696,28.9463143 20.5616732,29.0240107 20.2413161,30.3117429 C20.2410304,30.8780107 19.7371018,30.249175 19.5042089,30.4938143 C19.329575,31.111725 19.2844054,31.7461714 18.3679054,31.6900643 C17.8115661,32.2737071 17.2418339,32.8780464 16.5354054,33.2932964 C16.9499589,34.2447964 18.5925482,32.3376536 18.5157625,33.1418 C17.7977268,34.1209429 18.8852089,34.3269786 19.3612625,33.5733357 C20.1664054,32.7226214 21.1635839,31.6870857 22.3650125,32.5444429 C22.9372268,33.083175 23.2697268,32.2596036 23.6838875,32.3037107 C23.9448161,32.9729071 24.2731375,32.3366464 24.5692982,32.1474607 C25.0541196,32.0870607 24.9177089,32.7529964 25.4937804,32.3427821 C26.6418696,31.5829429 28.0543161,32.221425 29.1759232,31.4821214 C30.3697089,30.9382286 29.3435268,31.9201929 29.0140321,32.30405 C28.4895143,33.3213714 28.9443946,34.6569071 27.8066571,35.2886929 C27.3496393,36.5011036 28.3466036,38.0994071 27.3297464,38.9963714 C27.181825,39.5588 28.6374964,39.4943893 29.04605,39.7255143 C29.7619429,39.7538643 29.0152839,38.0869786 29.7255857,37.86355 C30.6781571,38.453175 30.63355,36.8091036 30.4368536,36.3019964 C30.5291964,35.1492821 30.59425,33.8889607 31.1670679,32.8448536 C31.7760321,31.565175 32.339675,33.3660321 31.6579786,33.872675 C31.2707464,35.0493893 30.7070857,36.5219607 31.5875804,37.6162464 C31.8413482,37.6730375 32.0497054,38.2881214 32.3782768,38.477175 C32.7068482,38.6662286 33.1556161,38.4292411 33.2375268,37.8696393 C33.6589732,36.1844786 33.4466696,34.3723179 34.0485089,32.7333893 C34.4732946,32.2257107 35.0592768,32.6515321 35.3227054,33.1183714 C36.1660982,34.0975321 36.7589554,35.3215857 37.7800268,36.1283714 C38.7097232,36.5634071 39.5319196,37.221425 39.9603839,38.17855 C39.9546536,38.9169964 42.0577054,39.0301929 41.4292768,38.2093929 C40.8262768,37.4103393 41.2241339,36.6111071 41.8349018,36.07975 C42.1620089,36.1604304 42.0653304,35.5745893 41.8088607,35.8063214 C41.3982357,35.7094571 41.3719679,34.9578929 41.9427304,35.315125 C42.9040875,35.6254643 41.8677839,34.619375 41.5203196,34.5885179 C40.7074625,34.0846786 39.7735518,33.5050179 39.3738911,32.6292321 C40.4320339,32.6400232 41.5304982,33.2107321 42.6117482,32.8567321 C43.4784982,32.4114286 44.3576232,32.8938768 44.6603196,33.657875 C45.3303196,33.5509589 45.0446768,32.8790536 44.6603196,32.6552679 C45.1503732,32.4530357 45.4892839,32.03375 44.8950875,31.6639286 C44.5812661,31.2543929 45.3159089,30.5558571 44.4129268,30.5849643 C44.4424179,29.8951964 44.1708554,29.2640179 43.4189982,29.0257143 C42.6658196,28.3879107 40.4556054,29.9653571 40.5197125,28.5276786 C40.2970161,27.7452143 41.4175339,28.4231446 41.7306411,28.0328929 C42.0541768,27.208 40.1889089,27.2885 40.8043911,26.6489643 C41.2063732,26.3901429 43.0927839,26.0183571 41.6134268,25.7414643 C40.8750875,25.9443929 40.2414268,25.7941232 39.6603911,25.4287321 C39.1308018,26.3145 37.6186054,24.9476964 37.8880339,26.5225 C37.6811589,27.1158929 36.3294982,28.6576786 35.9637482,27.4764821 C36.2748554,26.5506786 37.8762482,26.2479643 37.3796589,24.9996964 C37.3034411,24.2204821 36.6574089,25.1352089 36.3530518,25.0771071 C36.1989304,24.5920714 36.8191768,24.0203571 37.2514804,23.9052321 C38.1093018,24.5650179 38.1352839,23.0728393 38.9510875,23.1942321 C39.5467125,23.0618946 38.7587482,22.8064107 38.5926232,22.6943036 C38.75585,22.2583036 39.6702304,22.0355179 38.7736232,21.6569107 C37.9825161,21.0699107 37.3961589,22.2411964 36.7436232,22.3036607 C36.1173375,21.5966071 37.3122304,21.2567321 37.6420518,20.8843929 C37.6597821,20.6068393 36.9453196,20.8006536 37.1602839,20.558875 C37.3469982,20.225125 38.6120875,20.2002857 38.0196589,19.6995 C37.1274268,19.3931964 35.9760875,19.4695714 35.1200161,19.8663946 C34.5806768,20.0409911 34.4219982,21.2604839 33.9571232,21.2099125 C33.7385518,20.6670911 34.0282893,19.5961268 33.2800339,19.4390732 L33.2803571,19.4392857 Z M37.4991071,31.3533929 C38.1789643,31.2382679 37.5135375,32.3858571 37.1866071,32.3690179 C37.2154964,31.9566607 36.2033036,31.9963571 36.8313036,31.6370893 C37.0349643,31.5055804 37.261875,31.4052679 37.4991071,31.3533929 L37.4991071,31.3533929 Z" id="Shape" fill="#008000"></path>
        <polygon id="Star7" fill="#FFE000" points="135 83.5714286 136.239668 87.4258032 140.02606 85.9918513 137.785508 89.3642259 141.267394 91.4304917 137.233804 91.7813994 137.789253 95.7919427 135 92.8571429 132.210747 95.7919427 132.766196 91.7813994 128.732606 91.4304917 132.214492 89.3642259 129.97394 85.9918513 133.760332 87.4258032"></polygon>
        <polygon id="Star7" fill="#FFE000" points="112.5 47.9464286 113.739668 51.8008032 117.52606 50.3668513 115.285508 53.7392259 118.767394 55.8054917 114.733804 56.1563994 115.289253 60.1669427 112.5 57.2321429 109.710747 60.1669427 110.266196 56.1563994 106.232606 55.8054917 109.714492 53.7392259 107.47394 50.3668513 111.260332 51.8008032"></polygon>
        <polygon id="Star7" fill="#FFE000" points="135 23.5714286 136.239668 27.4258032 140.02606 25.9918513 137.785508 29.3642259 141.267394 31.4304917 137.233804 31.7813994 137.789253 35.7919427 135 32.8571429 132.210747 35.7919427 132.766196 31.7813994 128.732606 31.4304917 132.214492 29.3642259 129.97394 25.9918513 133.760332 27.4258032"></polygon>
        <polygon id="Star7" fill="#FFE000" points="155 41.9464286 156.239668 45.8008032 160.02606 44.3668513 157.785508 47.7392259 161.267394 49.8054917 157.233804 50.1563994 157.789253 54.1669427 155 51.2321429 152.210747 54.1669427 152.766196 50.1563994 148.732606 49.8054917 152.214492 47.7392259 149.97394 44.3668513 153.760332 45.8008032"></polygon>
        <polygon id="Star5" fill="#FFE000" points="144 60 144.979642 62.4016383 147.566462 62.5911863 145.585094 64.2650283 146.204195 66.7838137 144 65.4166667 141.795805 66.7838137 142.414906 64.2650283 140.433538 62.5911863 143.020358 62.4016383"></polygon>
    </g>
</svg>