<?xml version="1.0" ?><svg height="120px" version="1.1" viewBox="0 0 180 120" width="180px" xmlns="http://www.w3.org/2000/svg" xmlns:sketch="http://www.bohemiancoding.com/sketch/ns" xmlns:xlink="http://www.w3.org/1999/xlink"><title/><defs/><g fill="none" fill-rule="evenodd" id="Asia-Pacific" stroke="none" stroke-width="1"><g id="Micronesia" transform="translate(0.000000, -401.000000)"><g transform="translate(0.000000, 401.000000)"><rect d="M0,0 L0,120 L180,120 L180,0 L0,0 Z M0,0" fill="#4086CD" height="120" id="Rectangle-132" stroke="#979797" width="180" x="0" y="0"/><path d="M89.9999997,28.1640625 L82.6526849,31.9060656 L84.0558969,23.9803766 L78.1117935,18.3673726 L86.3263434,17.2110291 L90.0000001,10 L93.6736592,17.2110309 L101.888208,18.3673784 L95.9441026,23.9803781 L97.3473148,31.9060657 L89.9999997,28.1640625 Z M89.9999997,103.945312 L82.6526849,107.687316 L84.0558969,99.7616266 L78.1117935,94.1486226 L86.3263434,92.9922791 L90.0000001,85.78125 L93.6736592,92.9922809 L101.888208,94.1486284 L95.9441026,99.7616281 L97.3473148,107.687316 L89.9999997,103.945312 Z M54.4647511,66.9302251 L48.633382,72.7595266 L47.5187432,64.7881321 L40.1310514,61.2866771 L47.5862228,57.6484935 L48.8517475,49.655175 L54.5739359,55.3780498 L62.7437676,53.9393663 L58.8250993,61.1144759 L62.6088056,68.2186364 L54.4647511,66.9302251 Z M125.535248,66.9302249 L117.391194,68.2186362 L121.174901,61.1144743 L117.256236,53.9393614 L125.426067,55.3780489 L131.148253,49.655175 L132.413779,57.648496 L139.868949,61.2866832 L132.481256,64.7881334 L131.366618,72.7595267 L125.535248,66.9302249 Z M125.535248,66.9302249" fill="#FFFFFF" id="Star-17"/></g></g></g></svg>