<?xml version="1.0" ?><svg height="120px" version="1.1" viewBox="0 0 180 120" width="180px" xmlns="http://www.w3.org/2000/svg" xmlns:sketch="http://www.bohemiancoding.com/sketch/ns" xmlns:xlink="http://www.w3.org/1999/xlink"><title/><defs/><g fill="none" fill-rule="evenodd" id="Ameria" stroke="none" stroke-width="1"><g id="Group" transform="translate(-800.000000, 0.000000)"><g id="Grenada" transform="translate(800.000000, 0.000000)"><rect d="M0,0 L0,120 L180,120 L180,0 L0,0 Z M0,0" fill="#CA4638" height="120" id="Oval-15-copy" width="180" x="0" y="0"/><rect d="M8,20 L8,98 L171,98 L171,20 L8,20 Z M8,20" fill="#E5B731" height="78" id="Oval-15-copy" width="163" x="8" y="20"/><path d="M90,59.4698795 L8,98 L8,20 L90,58.5301205 L172,20 L172,98 L90,59.4698795 Z M90,59.4698795" fill="#57BB63" id="Path-copy"/><path d="M22.1739078,60.3323023 C24.7631612,65.1555341 29.799673,70.4041761 34.1980695,72.2495365 C34.2687796,67.3515705 32.5309214,61.0738957 30.1543731,56.0724515 L22.1739078,60.3323023 L22.1739078,60.3323023 L22.1739078,60.3323023 L22.1739078,60.3323023 Z M22.1739078,60.3323023" fill="#CA4638" id="Shape"/><path d="M17.6535344,44 C21.4069171,51.8240983 7.91911433,70.4904079 30.3905456,74.8652344 C27.6184808,71.0825329 25.8311831,64.8393508 26.5072404,59.8264091 C31.2218201,61.6200304 36.182448,66.8686724 38.1870498,70.8813254 C44.0680583,49.5245838 23.1022342,50.8238095 17.6535344,44 C17.6535344,44 23.1022342,50.8238095 17.6535344,44 L17.6535344,44 L17.6535344,44 Z M17.6535344,44" fill="#E5B731" id="Shape"/><ellipse cx="90.5" cy="60" d="M90.5,73 C97.9558445,73 104,67.1797021 104,60 C104,52.8202979 97.9558445,47 90.5,47 C83.0441555,47 77,52.8202979 77,60 C77,67.1797021 83.0441555,73 90.5,73 Z M90.5,73" fill="#CA4638" id="Oval-65" rx="13.5" ry="13"/><polygon d="M90.4999997,65.75 L82.5648997,69.6127129 L84.0803686,61.4313565 L77.6607369,55.6372878 L86.5324508,54.4436429 L90.5000002,47 L94.4675519,54.4436448 L103.339265,55.6372938 L96.9196309,61.431358 L98.4351,69.612713 L90.4999997,65.75 Z M90.4999997,65.75" fill="#E5B731" id="Star-29" points="90.4999997 65.75 82.5648997 69.6127129 84.0803686 61.4313565 77.6607369 55.6372878 86.5324508 54.4436429 90.5000002 47 94.4675519 54.4436448 103.339265 55.6372938 96.9196309 61.431358 98.4351 69.612713 "/><polygon d="M49.4999998,14.25 L45.091611,16.5676277 L45.9335381,11.6588139 L42.3670761,8.18237271 L47.295806,7.46618576 L49.5000001,3 L51.7041955,7.46618686 L56.6329251,8.18237628 L53.0664616,11.6588148 L53.9083889,16.5676278 L49.4999998,14.25 Z M49.4999998,14.25" fill="#E5B731" id="Star-29-copy" points="49.4999998 14.25 45.091611 16.5676277 45.9335381 11.6588139 42.3670761 8.18237271 47.295806 7.46618576 49.5000001 3 51.7041955 7.46618686 56.6329251 8.18237628 53.0664616 11.6588148 53.9083889 16.5676278 "/><polygon d="M90.4999998,13.25 L86.091611,15.5676277 L86.9335381,10.6588139 L83.3670761,7.18237271 L88.295806,6.46618576 L90.5000001,2 L92.7041955,6.46618686 L97.6329251,7.18237628 L94.0664616,10.6588148 L94.9083889,15.5676278 L90.4999998,13.25 Z M90.4999998,13.25" fill="#E5B731" id="Star-29-copy-2" points="90.4999998 13.25 86.091611 15.5676277 86.9335381 10.6588139 83.3670761 7.18237271 88.295806 6.46618576 90.5000001 2 92.7041955 6.46618686 97.6329251 7.18237628 94.0664616 10.6588148 94.9083889 15.5676278 "/><polygon d="M131.5,13.25 L127.091611,15.5676277 L127.933538,10.6588139 L124.367076,7.18237271 L129.295806,6.46618576 L131.5,2 L133.704196,6.46618686 L138.632925,7.18237628 L135.066462,10.6588148 L135.908389,15.5676278 L131.5,13.25 Z M131.5,13.25" fill="#E5B731" id="Star-29-copy-3" points="131.5 13.25 127.091611 15.5676277 127.933538 10.6588139 124.367076 7.18237271 129.295806 6.46618576 131.5 2 133.704196 6.46618686 138.632925 7.18237628 135.066462 10.6588148 135.908389 15.5676278 "/><polygon d="M49.4999998,112.25 L45.091611,114.567628 L45.9335381,109.658814 L42.3670761,106.182373 L47.295806,105.466186 L49.5000001,101 L51.7041955,105.466187 L56.6329251,106.182376 L53.0664616,109.658815 L53.9083889,114.567628 L49.4999998,112.25 Z M49.4999998,112.25" fill="#E5B731" id="Star-29-copy-2" points="49.4999998 112.25 45.091611 114.567628 45.9335381 109.658814 42.3670761 106.182373 47.295806 105.466186 49.5000001 101 51.7041955 105.466187 56.6329251 106.182376 53.0664616 109.658815 53.9083889 114.567628 "/><polygon d="M90.4999998,112.25 L86.091611,114.567628 L86.9335381,109.658814 L83.3670761,106.182373 L88.295806,105.466186 L90.5000001,101 L92.7041955,105.466187 L97.6329251,106.182376 L94.0664616,109.658815 L94.9083889,114.567628 L90.4999998,112.25 Z M90.4999998,112.25" fill="#E5B731" id="Star-29-copy-3" points="90.4999998 112.25 86.091611 114.567628 86.9335381 109.658814 83.3670761 106.182373 88.295806 105.466186 90.5000001 101 92.7041955 105.466187 97.6329251 106.182376 94.0664616 109.658815 94.9083889 114.567628 "/><polygon d="M131.5,112.25 L127.091611,114.567628 L127.933538,109.658814 L124.367076,106.182373 L129.295806,105.466186 L131.5,101 L133.704196,105.466187 L138.632925,106.182376 L135.066462,109.658815 L135.908389,114.567628 L131.5,112.25 Z M131.5,112.25" fill="#E5B731" id="Star-29-copy-4" points="131.5 112.25 127.091611 114.567628 127.933538 109.658814 124.367076 106.182373 129.295806 105.466186 131.5 101 133.704196 105.466187 138.632925 106.182376 135.066462 109.658815 135.908389 114.567628 "/></g></g></g></svg>