<?xml version="1.0" ?><svg height="120px" version="1.1" viewBox="0 0 180 120" width="180px" xmlns="http://www.w3.org/2000/svg" xmlns:sketch="http://www.bohemiancoding.com/sketch/ns" xmlns:xlink="http://www.w3.org/1999/xlink"><title/><defs/><g fill="none" fill-rule="evenodd" id="Ameria" stroke="none" stroke-width="1"><g id="Group" transform="translate(-800.000000, -400.000000)"><g id="Barbados" transform="translate(800.000000, 400.000000)"><rect d="M-1.42108547e-14,0 L-1.42108547e-14,120 L180,120 L180,0 L-1.42108547e-14,0 Z M-1.42108547e-14,0" fill="#346DA6" height="120" id="Oval-15-copy" width="180" x="-1.59877022e-14" y="0"/><rect d="M-1.42108547e-14,0 L-1.42108547e-14,120 L120,120 L120,0 L-1.42108547e-14,0 Z M-1.42108547e-14,0" fill="#E5B731" height="120" id="Oval-15-copy" width="120" x="-1.06584681e-14" y="0"/><rect d="M-7.10542736e-15,0 L-7.10542736e-15,120 L60,120 L60,0 L-7.10542736e-15,0 Z M-7.10542736e-15,0" fill="#346DA6" height="120" id="Oval-15-copy" width="60" x="-5.32923406e-15" y="0"/><path d="M90.4290824,29.0464912 C90.4702499,28.9341967 90.5113839,28.8219798 90.5525024,28.7098528 L90.594485,29.497446 C92.6056231,34.9761602 94.7534788,40.6000455 99.1211527,44.9523131 C97.7003411,44.4840911 95.2139207,44.0643058 93.6155076,44.1046698 L93.6155076,68.1777397 L100.4128,69.1868389 C100.654983,69.1626205 100.735711,68.7831992 100.735711,68.2665404 C101.389608,60.7911338 103.157549,54.5105005 105.191893,48.0119018 C105.337204,47.1238945 107.912425,43.7333213 105.926518,44.330708 C105.684334,44.3629992 103.028385,45.4447535 103.44817,44.9280947 C107.064781,41.1823186 112.352461,38.4860056 117.486758,37.686799 C117.938834,37.5737799 118.205236,37.7998182 117.801597,38.3245497 C110.988159,48.8111083 105.288767,61.1867006 105.337204,75.8711118 C102.689327,75.8711118 96.2714566,74.3049899 93.6155076,74.3049899 L93.6155076,91.2901472 L90.4290824,91.2901472 L87.2426572,91.2901472 L87.2426572,74.3049899 C84.5867081,74.3049899 78.1688374,75.8711118 75.5209611,75.8711118 C75.5693979,61.1867006 69.8700058,48.8111083 63.0565681,38.3245497 C62.6529285,37.7998182 62.9193306,37.5737799 63.3714071,37.686799 C68.5057037,38.4860056 73.7933834,41.1823186 77.4099948,44.9280947 C77.82978,45.4447535 75.173831,44.3629992 74.9316472,44.330708 C72.94574,43.7333213 75.5209611,47.1238945 75.6662714,48.0119018 C77.7006154,54.5105005 79.4685571,60.7911338 80.1224534,68.2665404 C80.1224534,68.7831992 80.2031813,69.1626205 80.4453651,69.1868389 L87.2426572,68.1777397 L87.2426572,44.1046698 C85.6442441,44.0643058 83.1578237,44.4840911 81.7370121,44.9523131 C86.1046859,40.6000455 88.2525417,34.9761602 90.2636797,29.497446 L90.3056623,28.7098528 C90.3467808,28.8219798 90.3879149,28.9341967 90.4290824,29.0464912 Z M90.4290824,29.0464912" fill="#000000" id="h"/></g></g></g></svg>