<?xml version="1.0" ?><svg height="120px" version="1.1" viewBox="0 0 180 120" width="180px" xmlns="http://www.w3.org/2000/svg" xmlns:sketch="http://www.bohemiancoding.com/sketch/ns" xmlns:xlink="http://www.w3.org/1999/xlink"><title/><defs/><g fill="none" fill-rule="evenodd" id="Page-1" stroke="none" stroke-width="1"><g id="aruba"><rect d="M0,0 L0,120 L180,120 L180,0 L0,0 Z M0,0" fill="#4086CD" height="120" id="Rectangle-57" width="180" x="0" y="0"/><rect d="M0,93 L0,99 L180,99 L180,93 L0,93 Z M0,93" fill="#E5B731" height="6" id="Rectangle-32" width="180" x="0" y="93"/><rect d="M0,81 L0,87 L180,87 L180,81 L0,81 Z M0,81" fill="#E5B731" height="6" id="Rectangle-32" width="180" x="0" y="81"/><path d="M42,21 L37.4699918,34.4699918 L24,39 L37.5592291,43.5600191 L42,57 L46.4703867,43.4703867 L60,39 L46.5600191,34.5592291 L42,21 Z M42,21" fill="#CA4638" id="Triangle-1-copy" stroke="#FFFFFF" stroke-width="0.5"/></g></g></svg>