<?xml version="1.0" encoding="UTF-8" standalone="no"?>
<svg width="180px" height="120px" viewBox="0 0 180 120" version="1.1" xmlns="http://www.w3.org/2000/svg" xmlns:xlink="http://www.w3.org/1999/xlink">
    <!-- Generator: Sketch 40.2 (33826) - http://www.bohemiancoding.com/sketch -->
    <title>icon-flag-ms</title>
    <desc>Created with Sketch.</desc>
    <defs></defs>
    <g id="Page-1" stroke="none" stroke-width="1" fill="none" fill-rule="evenodd">
        <rect id="Rectangle-path" fill="#00247D" x="0" y="0" width="180" height="120"></rect>
        <path d="M116.2728,22.9554 L153.09675,22.9554 L153.05304,49.22865 C153.35928,59.790165 146.793945,66.34395 134.71389,69.29895 C126.13569,67.1634 116.24409,62.74515 116.22954,49.5282 L116.273323,22.9554 L116.2728,22.9554 Z" id="Shape" stroke="#000000" stroke-width="1.8125" fill="#00A2BD"></path>
        <path d="M152.811,52.3407 C151.471395,62.422185 143.707185,66.827055 134.71275,69.165 C126.7518,67.0293 118.18665,63.6198 116.5263,52.3914 L152.81145,52.3407225 L152.811,52.3407 Z" id="Shape" fill="#A53D08"></path>
        <polygon id="Shape" fill="#000000" points="133.25475 27.8496 133.203418 24.538305 135.821729 24.5639715 135.847395 27.8496015 143.008905 27.8496015 143.034569 30.4164915 135.847394 30.442158 135.789972 60.714408 133.236042 60.7305 133.203417 30.41655 126.066057 30.4422375 126.067572 27.8240175"></polygon>
        <path d="M127.4571,53.59005 L134.01255,60.39072 C136.279365,57.89922 134.707037,48.586395 131.7255,46.87116 C131.36814,47.973903 130.760438,49.296105 130.114455,49.722405 C128.693289,50.6909475 125.210625,51.823275 126.374715,52.54842 C126.640199,52.1808405 127.334554,51.833706 127.66131,52.6506465 C128.049336,53.937177 126.211328,54.0189585 126.211328,54.0189585 C126.211328,54.0189585 125.04727,53.875842 124.843037,52.6913205 C124.638821,51.507015 126.576902,50.4255855 126.742322,50.3429355 C126.905688,50.281599 129.438031,49.607775 129.866941,47.3611905 C130.397868,45.1554855 130.949238,45.4823955 131.051463,45.4415055 C134.359683,45.7681965 136.524498,51.6908055 136.647168,55.8568605 C136.769619,60.0229155 134.952168,62.7799905 134.625258,62.9637705 C134.298568,63.147561 126.742308,53.9985105 126.742308,53.9985105 L127.457089,53.590041 L127.4571,53.59005 Z" id="Shape" stroke="#000000" stroke-width="0.9676" fill="#FF9A08"></path>
        <path d="M135.86685,34.2066 C136.320657,33.8173515 136.556105,33.5794365 136.837122,33.622728 C137.118141,33.665925 137.500743,33.6442785 137.781762,33.55779 C138.063729,33.4712055 139.458372,33.298227 140.031807,33.492852 C140.226432,33.5144985 140.485614,33.622728 140.885305,33.9579555 C141.285946,34.2930885 141.869818,34.877151 141.675194,36.4991805 C141.48057,38.1212055 141.544179,38.8150155 141.458734,39.7216755 C141.307782,41.3221455 140.952711,42.6399855 140.312826,42.5332755 C141.177716,44.0472555 141.26411,45.3448755 141.826146,46.3830405 C142.389132,47.4211935 142.734708,49.5406905 142.518249,51.8332755 C142.302738,54.1258455 141.69703,59.2731405 143.513205,62.7336555 C143.210351,62.9499255 142.475526,62.7336555 141.82614,62.0415525 C141.177709,61.349451 140.892894,61.37214 140.355541,61.781991 C138.712156,63.036414 137.173202,64.548306 134.906071,63.036414 C134.386758,62.6903625 134.222514,62.2752915 134.603219,61.219674 C135.554502,58.581144 136.016853,54.960939 135.86685,53.260689 L135.86685,34.206639 L135.86685,34.2066 Z" id="Shape" stroke="#000000" stroke-width="0.3987" fill="#008021"></path>
        <path d="M137.42565,32.5845 C137.544324,32.9521965 137.608882,33.4279335 137.41425,33.8604735 C137.219626,34.2930135 137.176903,34.812138 137.500644,35.4392985 C138.019959,34.7039985 138.755733,34.855425 139.187709,34.422885 C139.620629,33.9902505 139.707023,33.579357 140.031713,33.4927725 C139.707023,33.211659 139.209545,32.9089005 139.317774,32.0870175 C139.426005,31.265133 140.571914,30.5947725 139.534235,29.3402475 C138.863969,28.530516 137.889905,28.7563755 137.468375,29.069958 C137.269953,29.217303 137.100962,29.4267375 137.036403,29.5673415 C136.970897,29.7079455 137.052543,30.027888 136.894946,30.216246 C136.787664,30.3459315 136.65665,30.474954 136.505697,30.583848 C136.40886,30.654198 136.348099,30.756636 136.451582,30.87588 C136.493355,30.923538 136.569306,30.9336975 136.652851,30.9626535 C136.604433,31.059966 136.54937,31.156992 136.495254,31.227342 C136.443987,31.293324 136.465823,31.3562685 136.527533,31.4100045 C136.445886,31.6694715 136.603484,31.697667 136.495254,31.8923865 C136.401264,32.0607135 136.274047,32.259894 136.625319,32.454708 C136.722158,32.5087275 137.18261,32.6155335 137.425652,32.5844895 L137.42565,32.5845 Z" id="Shape" stroke="#000000" stroke-width="0.3987" fill="#FFE1CF"></path>
        <path d="M133.2189,36.88845 C132.613191,37.039878 131.640075,36.780411 130.904295,36.866805 C130.579605,36.90516 130.320423,36.737118 130.364096,36.412713 C130.406817,36.0882135 130.45049,35.59083 130.384982,35.1366435 C130.284347,34.428876 130.623278,33.4496835 131.09892,32.3682285 C131.574563,31.2868785 131.812857,30.6813585 131.812857,30.1730535 C131.812857,29.8378245 131.845137,29.4593055 132.147992,29.2646805 C132.372047,29.1208485 132.414768,28.981194 132.494517,28.8646095 C132.677748,28.594224 132.850536,28.529382 132.872372,28.691631 C132.885662,28.7880885 132.850536,28.875432 132.764142,29.0052135 C132.958767,28.842963 133.289153,28.6536555 133.364154,28.599636 C133.440105,28.5456165 133.824606,28.275231 133.845492,28.529382 C133.997394,28.453716 134.099928,28.459032 134.137904,28.540107 C134.178728,28.62783 134.154044,28.664571 134.078093,28.7294145 C134.186322,28.707768 134.310692,28.8970755 134.094231,29.064642 C134.208158,29.026761 134.321135,29.21607 134.121764,29.389047 C133.914798,29.5676265 133.678401,29.6919015 133.60245,29.832411 C133.526499,29.973015 133.012881,30.3677685 132.807815,30.4542585 C132.601797,30.540747 132.591354,30.659421 132.591354,30.9624645 C132.591354,34.2930945 132.191663,34.0225245 132.191663,34.8230445 C132.191663,35.039316 132.147992,35.2339395 132.364451,35.1690015 C132.580911,35.104158 132.894209,35.006847 133.218899,35.006847 L133.218899,36.888432 L133.2189,36.88845 Z" id="Shape" stroke="#000000" stroke-width="0.3987" fill="#FFE1CF"></path>
        <path d="M133.34805,44.0688 C134.325918,43.5800565 135.44619,43.3983435 136.030065,43.2470115 C136.613937,43.095585 137.54433,42.641493 137.99814,42.403578 C138.452896,42.165567 138.820308,41.8411605 139.079491,41.754672 C139.339623,41.6681835 139.630134,41.4892245 139.793428,41.1708 C140.636484,39.52704 141.091239,38.207955 141.091239,37.061475 C141.091239,36.30453 140.896615,35.461005 140.160842,36.0666135 C139.469688,36.6358665 138.716826,37.7331735 138.517456,38.5321635 C138.214602,39.743295 137.95542,40.0028565 137.889912,40.2406785 C137.825353,40.4786895 137.580412,40.478406 137.284204,40.543533 C136.008229,40.824741 135.705379,41.01927 134.754094,41.733018 C133.802809,42.4467675 132.764179,43.0740255 132.072079,43.463268 C131.379976,43.852611 131.250861,43.895808 131.098959,44.2093905 C130.948006,44.522973 130.807497,44.760888 130.677432,44.901588 C130.547365,45.0420975 130.510339,45.206436 130.536922,45.377325 C130.558758,45.517929 130.49325,46.166739 130.482807,46.383009 C130.471407,46.599279 130.52553,46.6533945 130.612873,46.6641225 C130.699267,46.6750425 130.81794,46.631748 130.861612,46.3721865 C130.81794,46.631748 131.17491,46.545165 131.196745,46.3506345 C131.185345,46.631748 131.564157,46.4695935 131.585994,46.2100305 C131.585994,46.3938315 131.872709,46.2667095 131.899292,46.1775615 C131.963849,45.9612915 132.017964,45.7233765 132.104358,45.550398 C132.230626,45.299286 132.365439,44.974026 132.613229,44.793357 C132.894248,44.587911 132.764181,44.360817 133.348053,44.0687865 L133.34805,44.0688 Z" id="Shape" stroke="#000000" stroke-width="0.3987" fill="#FFE1CF"></path>
        <path d="M140.35545,61.782 C140.420958,62.019915 140.539631,62.2903005 140.582354,62.452551 C140.626026,62.6147055 140.550075,62.665308 140.507352,62.7553095 C140.280449,63.2311425 140.036457,63.989607 139.998481,64.3989795 C139.977596,64.636896 139.81525,64.8639885 139.739299,65.0045925 C139.655753,65.159628 139.688032,65.27925 139.879807,65.42631 C139.971899,65.4965655 140.269056,65.404665 140.301336,65.2533315 C140.409566,65.361372 140.604189,65.318175 140.690583,65.1559245 C140.788371,65.2533315 140.950716,65.1883935 141.058945,65.026239 C141.155783,65.0910825 141.296292,64.961301 141.350406,64.8747165 C141.502308,64.9504785 141.664653,64.858578 141.6694,64.56123 C141.6703,64.5015135 141.707376,64.3989795 141.751047,64.3287255 C141.79377,64.2583755 141.80991,64.123278 141.805162,64.004226 C141.799463,63.885267 141.875417,63.6474465 141.977951,63.479784 C142.080485,63.312123 142.25897,63.014775 142.183019,62.733663 C142.112763,62.471727 141.999786,62.4957465 141.902,62.1173205 C141.664653,61.868487 141.339963,61.5224355 141.00483,61.5007905 C140.669697,61.4792385 140.475074,61.7063325 140.35545,61.7819985 L140.35545,61.782 Z" id="Shape" stroke="#000000" stroke-width="0.3987" fill="#FFE1CF"></path>
        <path d="M137.26335,29.2539 C137.382024,28.486131 137.926021,28.5042645 138.26875,28.5834435 C138.409258,28.6159125 138.755785,28.648287 139.079526,28.561797 C139.72131,28.3908135 140.204547,28.6159125 140.13999,29.2323495 C140.312778,29.362035 140.496009,29.6647935 140.46373,29.924451 C140.43145,30.183918 140.485566,30.292053 140.723862,30.3244275 C140.961208,30.356991 141.470079,30.648927 141.133996,31.059822 C141.458686,31.25454 141.707425,31.7519235 141.534637,32.0871525 C141.361849,32.42238 140.842534,32.4764955 140.626075,32.173641 C140.388729,32.281776 139.998531,32.3034225 139.761184,32.054778 C139.598839,32.249307 139.187755,32.2277565 139.111804,32.054778 C139.036803,31.881705 138.908635,31.78914 138.755785,31.741101 C138.582048,31.68708 138.571603,31.2112485 138.830787,31.157133 C138.798507,31.016529 138.809899,30.8543745 138.874458,30.7787085 C138.939016,30.7030425 138.884898,30.5624385 138.733948,30.443385 C138.582048,30.3244275 138.452931,29.870241 138.603883,29.6215965 C138.344701,29.7080865 137.771272,29.4593475 137.652598,29.286369 C137.532976,29.113296 137.371581,29.102568 137.26335,29.2539 L137.26335,29.2539 Z" id="Shape" stroke="#000000" stroke-width="0.3987" fill="#870F00"></path>
        <polygon id="White_Diagonal" fill="#FFFFFF" points="14.5542241 15.9543369 0 5.18136642 0 0 6.99999747 0 25.0439522 13.3560536 25.0439522 13.3560536 25.0439522 0 37.5659283 0 37.5659283 13.3560536 55.609883 0 62.6098805 0 62.6098805 5.18136642 48.0556565 15.9543369 62.6098805 15.9543369 62.6098805 29.6294828 47.0292653 29.6294828 62.6098805 41.1621835 62.6098805 46.34355 55.6098847 46.34355 37.5659283 32.9874956 37.5659283 46.34355 25.0439522 46.34355 25.0439522 32.9874956 6.9999958 46.34355 0 46.34355 0 41.1621835 15.5806152 29.6294828 0 29.6294828 0 15.9543369"></polygon>
        <path d="M41.044255,30.1233075 L45.218247,30.1233075 L62.6098805,43.25398 L62.6098805,46.34355 L41.044255,30.1233075 L41.044255,30.1233075 Z M4.17399203,46.34355 L25.0439522,30.1233075 L20.8699602,30.1233075 L0,46.34355 L4.17399203,46.34355 L4.17399203,46.34355 Z M58.4358884,1.55504034e-07 L37.5659283,16.2202426 L41.7399203,16.2202426 L62.6098805,1.55504034e-07 L58.4358884,1.55504034e-07 L58.4358884,1.55504034e-07 Z M21.5656255,16.2202426 L17.3916335,16.2202426 L0,3.08957015 L0,1.55504034e-07 L21.5656255,16.2202426 L21.5656255,16.2202426 Z M35.4789323,1.19326796e-15 L35.4789323,18.5374199 L62.6098805,18.5374201 L62.6098805,27.8061301 L35.4789323,27.8061299 L35.4789323,46.34355 L27.1309482,46.34355 L27.1309482,27.8061301 L0,27.8061301 L0,18.5374201 L27.1309482,18.5374199 L27.1309482,1.55504033e-07 L35.4789323,1.19326796e-15 L35.4789323,1.19326796e-15 Z" id="Red_Diagonals-copy" fill="#CA4638"></path>
    </g>
</svg>