<?xml version="1.0" ?><svg height="120px" version="1.1" viewBox="0 0 180 120" width="180px" xmlns="http://www.w3.org/2000/svg" xmlns:sketch="http://www.bohemiancoding.com/sketch/ns" xmlns:xlink="http://www.w3.org/1999/xlink"><title/><defs/><g fill="none" fill-rule="evenodd" id="Page-1" stroke="none" stroke-width="1"><g id="iraq"><rect d="M0,0 L0,120 L180,120 L180,0 L0,0 Z M0,0" fill="#FFFFFF" height="120" id="Rectangle-326" width="180" x="0" y="0"/><rect d="M0,0 L0,40 L180,40 L180,0 L0,0 Z M0,0" fill="#CA4638" height="40" id="Rectangle-1" width="180" x="0" y="0"/><rect d="M0,80 L0,120 L180,120 L180,80 L0,80 Z M0,80" fill="#1C1C1C" height="40" id="Rectangle-1-copy" width="180" x="0" y="80"/><g fill="#479951" id="path4318-+-path4320" transform="translate(40.000000, 42.000000)"><path d="M11.2443507,34.7443506 L10,33.4887014 L11.2556492,32.2443507 L12.5112985,31 L13.7556493,32.2556493 L15,33.5112985 L13.7443507,34.7556492 L12.4887014,36 L11.2458572,34.742091 L11.2443507,34.7443506 L11.2443507,34.7443506 L11.2443507,34.7443506 L11.2443507,34.7443506 Z M2.51585752,33.7621155 C2.06414941,33.5953689 1.33107429,33.0459501 0.850469035,32.5149734 C-0.0552285316,31.513725 -0.26131085,31.0465269 0.347050237,31.3754097 C1.25426871,31.8664287 3.05121527,32.1853221 3.69075486,31.9701651 C6.04967497,31.1740842 6.58579319,27.992066 4.70215517,25.9734324 C4.33257581,25.5776973 4.02991617,25.117415 4.02991617,24.9506683 C4.02991617,24.7839217 4.42306952,24.471944 4.90291433,24.2575555 C5.57515333,23.957104 5.90366831,23.629758 6.33408378,22.8313719 C6.77058286,22.0206911 6.95004939,21.843955 7.15993396,22.0199227 C7.45955179,22.2711954 8.47171252,24.7116903 8.47171252,25.1834989 C8.47171252,25.4324662 8.83748964,25.487024 10.4929923,25.487024 L12.514272,25.487024 L12.1986846,24.7216798 C12.0253017,24.3013553 11.7393721,23.7350313 11.5637078,23.4637798 C11.279299,23.0242448 11.277778,22.9466346 11.5507801,22.7499196 C11.7188399,22.6285097 12.278532,22.2304692 12.7948785,21.8654707 C13.3104646,21.5004722 13.7925907,21.0417268 13.8648336,20.8457803 C14.0435397,20.3601402 15.1614032,18.9593145 15.3690063,18.9593145 C15.461021,18.9593145 15.5370661,20.427761 15.5370661,22.222785 L15.5370661,25.4862555 L40.7696026,25.4862555 L40.7696026,16.1361474 L40.067706,15.6973808 L39.3658094,15.2586143 L38.6547874,15.8064962 L37.9437654,16.3543781 L37.9437654,23.0373079 L27.3461153,23.0373079 C21.5164952,23.0373079 16.7477047,23.0004239 16.7477047,22.9558556 C16.7477047,22.8843928 22.0214349,15.6873914 22.6662976,14.8782475 C22.800137,14.7099639 23.1316938,14.2512185 23.4024145,13.858557 C23.6731352,13.4658955 23.949179,13.0985917 24.0145778,13.0424972 C24.0814976,12.9864027 24.3544996,12.619099 24.6236994,12.2264375 C24.8921388,11.833776 25.2054447,11.4049989 25.3202728,11.2743679 C25.435101,11.1429684 27.3453548,8.55570557 29.5658728,5.52429726 C31.7863907,2.49288895 33.6692683,0.00705728211 33.7513971,0.000141521759 C33.8327654,-0.00677423859 33.948354,0.240656301 34.0084296,0.548791849 C34.3415073,2.25621626 34.597019,3.21212803 34.8608956,3.73772583 C35.198536,4.41009142 35.0008187,4.66136404 34.1088092,4.68902709 C33.6867587,4.7020902 32.7141414,5.90850618 28.1537146,12.0773644 C25.1560153,16.1323054 22.6731417,19.5225648 22.6358795,19.6117012 C22.5986174,19.7008377 25.3012615,19.7738374 28.6411639,19.7738374 L34.7141285,19.7738374 L34.7171703,17.5807729 C34.7186912,16.3751254 34.7871318,15.2931931 34.8685001,15.177162 C35.2494863,14.634659 39.2646694,11.7999656 39.5445155,11.8752706 C39.7186589,11.9221441 40.7924162,12.6767304 41.9308119,13.5519583 L44,15.14412 L44,28.7497261 L8.93558786,28.7497261 L8.58349894,30.0652574 C8.16068795,31.6420507 7.46943766,32.7793091 6.54092656,33.4217064 C5.65880298,34.0210723 3.67402493,34.1901242 2.51053435,33.7598103 C2.51053435,33.7598103 3.67402493,34.1901242 2.51053435,33.7598103 L2.51585752,33.7621155 L2.51585752,33.7621155 L2.51585752,33.7621155 L2.51585752,33.7621155 Z M46,18.0761098 C46,10.4431682 46.067299,7.10865705 46.2227828,7.00965138 C46.3450039,6.93203093 46.8764339,7.33122185 47.4032225,7.89674225 C47.930011,8.46226264 48.8691026,9.37073875 49.491038,9.91487395 C50.4719014,10.7750353 50.5740101,10.9334444 50.2715515,11.1219511 C49.2605196,11.7508352 49.2860468,11.5528239 49.2860468,18.8087518 L49.2860468,25.6266786 L51.2516413,25.6266786 C52.9967735,25.6266786 53.3193445,25.5656911 54.1261587,25.0809593 C55.1279079,24.4797969 55.1944334,24.5590014 54.6985868,25.7589502 C54.5129345,26.2064559 54.3056227,27.0935467 54.236003,27.7295591 L54.1106877,28.8859455 L50.054957,28.9429728 L46,29 L46,18.0697734 L46,18.0761098 L46,18.0761098 L46,18.0761098 L46,18.0761098 Z M46,18.0761098" id="path4318"/><path d="M68.0955845,25.4740751 C68.2036028,22.58741 68.5152239,21.6078331 69.6218284,20.6780905 C70.473541,19.9625605 71.6920494,19.6233904 73.102504,19.7104143 L74.1585964,19.7758682 L74.2223195,18.594723 C74.3023618,17.0982092 74.1609278,16.564165 73.6410412,16.4057369 C73.0170219,16.2160694 73.1444679,15.595745 73.9005959,15.144262 C74.2705003,14.9233551 75.1766105,14.157991 75.9133108,13.4432048 C76.650011,12.7284186 77.3260966,12.1437964 77.4146872,12.1437964 C77.5032777,12.1437964 77.5763261,14.9977346 77.5763261,18.4861291 L77.5763261,24.8292056 L80.4749463,24.8292056 L80.4749463,18.3024119 C80.4749463,12.6332129 80.4322053,11.7347096 80.1493369,11.4639685 C79.9706018,11.2928959 79.7374689,11.1523188 79.6317823,11.1523188 C79.1670698,11.1523188 79.4957873,10.3586905 80.1120356,9.99051238 C80.4827175,9.7696055 81.3833875,9.00870412 82.1154252,8.29912449 C82.8466854,7.58954486 83.5227712,7.05475686 83.6168018,7.11054143 C83.7108324,7.16632599 83.7877657,11.1753764 83.7877657,16.0204515 L83.7877657,24.8292056 L86.6863864,24.8292056 L86.6863864,6.78996615 L86.168831,6.35930934 C85.8844084,6.1227828 85.6512755,5.82080237 85.6512755,5.68915081 C85.6512755,5.55749925 86.2954998,4.95205081 87.0827119,4.34288341 C87.8699248,3.733716 88.7146429,2.96612045 88.9602101,2.63587584 C90.0170798,1.21448523 89.9999832,1.0025039 89.9999832,15.017817 L89.9999832,28 L68,28 L68.1321087,25.4710999 L68.0955845,25.4740751 L68.0955845,25.4740751 L68.0955845,25.4740751 L68.0955845,25.4740751 Z M74,23.5 L74,22 L73.1595174,22 C72.0310992,22 71,23.0548499 71,24.2101616 L71,25 L74,25 L74,23.5017321 L74,23.5 L74,23.5 L74,23.5 L74,23.5 Z M92.0007717,17.5723534 C92.0007717,10.2867076 92.0678778,7.10328544 92.2236872,7.00914592 C92.3463286,6.93534053 92.8785488,7.31641732 93.4053697,7.85640165 C93.9329615,8.39638588 94.8724456,9.26322267 95.4941407,9.78287279 C96.476048,10.6037694 96.5786348,10.7551458 96.2755011,10.9351406 C95.2635116,11.5353741 95.2889654,11.3470951 95.2889654,18.2727514 L95.2889654,24.7811815 L97.2967466,24.7811815 C99.1178645,24.7811815 99.3770324,24.732982 100.087431,24.2615313 C100.518606,23.9761003 100.921242,23.7915868 100.982948,23.8518361 C101.044655,23.9120854 100.933583,24.3488927 100.735351,24.8226028 C100.537118,25.2963129 100.317288,26.1804713 100.247097,26.787483 L100.119055,27.8915512 L96.0595281,27.9457757 L92,28 L92,17.569341 L92.0007717,17.5723534 L92.0007717,17.5723534 L92.0007717,17.5723534 L92.0007717,17.5723534 Z M76.0526611,6.7418101 C75.680723,6.60487393 75.25339,6.36205108 75.1038235,6.20282299 C74.8743298,5.959204 74.9882853,5.93531978 75.822376,6.05553699 C77.3212071,6.27049493 78.2399732,6.01493383 79.0756467,5.14793684 L79.8108176,4.38682654 L80.8324605,4.75145888 C81.3943239,4.95208629 81.9815111,5.06673052 82.1382002,5.00622383 C82.5433753,4.84938416 83.2777553,3.67826151 83.2041585,3.30566777 C83.1147351,2.85107155 83.5294065,2.92033577 83.7858062,3.40200077 C84.2891102,4.34781566 83.8688993,5.54759936 82.9073993,5.91302785 C82.4365419,6.09215946 81.9815111,6.0969363 81.218643,5.93293136 C80.2816759,5.73071168 80.1281519,5.75220747 79.7174373,6.13913175 C78.7994629,7.00692488 77.3987602,7.23780562 76.0534525,6.74419852 C76.0534525,6.74419852 77.3987602,7.23780562 76.0534525,6.74419852 L76.0526611,6.7418101 L76.0526611,6.7418101 L76.0526611,6.7418101 L76.0526611,6.7418101 Z M78.6235527,2.88016751 C78.1169279,2.58493024 77.0476497,1.07167065 77.0074038,0.590393433 C76.9718927,0.177870111 77.0579084,0.0518213172 77.4011822,0.00935568057 C78.0025032,-0.0641166113 78.2802788,0.277630654 78.742712,1.66012304 C79.121497,2.79254001 79.0820404,3.14979061 78.6243417,2.88016751 C78.6243417,2.88016751 79.0820404,3.14979061 78.6243417,2.88016751 L78.6235527,2.88016751 L78.6235527,2.88016751 L78.6235527,2.88016751 L78.6235527,2.88016751 Z M78.6235527,2.88016751" id="path4320"/></g></g></g></svg>