<?xml version="1.0" ?><svg height="120px" version="1.1" viewBox="0 0 180 120" width="180px" xmlns="http://www.w3.org/2000/svg" xmlns:sketch="http://www.bohemiancoding.com/sketch/ns" xmlns:xlink="http://www.w3.org/1999/xlink"><title/><defs/><g fill="none" fill-rule="evenodd" id="Africa,-Middle-East-and-India" stroke="none" stroke-width="1"><g id="Africa,-Middle-Eest-and-India" transform="translate(-400.000000, -1401.000000)"><g id="Saudi-Arabia" transform="translate(400.000000, 1401.000000)"><rect d="M0,0 L0,120 L180,120 L180,0 L0,0 Z M0,0" fill="#479951" height="120" id="Rectangle-195" width="180" x="0" y="0"/><path d="M72.2190903,29.0001162 C72.0803707,28.9970417 71.8728386,29.054908 71.5819388,29.1839141 C70.9279033,29.511569 69.6318514,30.5207868 69.5921815,31.6819086 C69.5525223,32.3369779 69.3870782,32.3344114 69.9610512,32.7512785 C70.3756719,33.1980612 70.7897918,33.1541369 71.6266166,32.8264686 C72.1072347,32.5618557 72.2695631,32.393053 72.4314623,31.9492645 C72.6308422,31.2050098 71.3835532,32.301408 71.2241938,31.4730741 C70.9454847,30.7040367 71.7417274,30.3877171 72.4985327,29.6434357 C72.5158816,29.292923 72.524252,29.0068933 72.2190724,29.0001563 C72.2190724,29.0001563 72.524252,29.0068933 72.2190724,29.0001563 L72.2190903,29.0001162 L72.2190903,29.0001162 Z M84.4033802,29.0502429 C84.1696352,29.073769 83.8837003,29.2975748 83.4867505,29.8355614 C83.2022787,30.3990123 81.9752503,31.2517279 82.8607594,33.0102531 C83.5850847,34.1252851 83.8826272,35.9373858 83.5538209,37.9560888 C83.051955,38.529779 82.937488,38.7274787 82.279482,39.3011422 C81.3550542,40.0440601 80.3538262,39.8541133 79.5855027,39.5768257 C78.8676519,39.2152183 78.3035445,39.0296024 77.9758114,37.8808586 C78.0349443,36.0498568 78.1776881,33.052921 77.7298863,32.4169133 C77.069734,31.4320236 75.9816543,31.7852365 75.5165608,32.0827352 C73.2818801,33.6097954 72.1780969,36.1883134 71.5034216,38.2398995 C70.8836547,39.7351459 70.223252,39.3027195 69.7595894,38.6994077 C68.6307308,37.9087959 68.5514266,31.7263142 67.1885547,32.7427503 C65.0057775,37.4052029 68.4411807,42.5127807 70.821449,42.0163257 C72.5387392,42.5476956 73.6283929,40.1046934 74.3314703,37.4297984 C74.8124461,36.679074 75.1799922,36.5927759 75.4269547,36.978658 C75.3634935,40.5359168 75.7682307,41.3293892 76.9919323,42.4089181 C79.7216468,43.9828702 81.9794713,42.6083289 82.1565373,42.4757537 C82.3335712,42.343446 84.2804356,40.8884079 84.2804356,40.8884079 C84.7534702,40.5165345 85.3785312,40.4939173 86.0466246,40.8215722 C86.6959741,41.2626873 86.6125921,42.0225281 88.0028645,42.5509572 C89.1728597,42.9007213 91.6711721,42.6360229 92.250661,41.882601 C93.0305385,40.8837026 93.2196236,40.5404616 93.5809099,40.1615839 C94.1375769,39.6078374 95.0900133,39.8530172 95.0900133,40.0279127 C95.0013158,40.3367199 94.4417012,40.6413567 94.8217314,41.1975359 C95.483708,41.5685806 95.6374514,41.3301191 96.0289999,41.2476627 C97.413871,40.7529187 98.4546974,38.5074024 98.4546974,38.5074024 C98.5159872,37.6698986 97.8784279,37.7334192 97.4709971,37.9058818 C96.9395486,38.1486689 96.9069613,38.2311842 96.3755128,38.4739846 C95.6984051,38.5491666 94.3867571,38.8829918 93.7374076,38.1314654 C93.0743579,37.2279548 93.070602,35.9683441 92.5636923,35.0570271 C92.5636923,34.9907395 91.6778255,33.6240982 92.4966218,33.5365168 C92.9098117,33.5939125 93.798397,33.7655197 93.938619,33.2106798 C94.3720195,32.6698727 93.0034957,31.1357012 92.0718064,30.3618785 C91.2630975,29.6984682 90.1464725,29.6175971 89.0648315,30.2950429 C88.3073108,30.8159062 88.419703,31.3976167 88.2711464,31.9492244 C88.0782518,32.5827458 88.1151208,33.3674227 88.9754042,34.2049264 C89.7314584,35.3191563 91.1050258,36.7487167 90.652166,38.7663236 C90.652166,38.7663236 89.8540095,39.7265375 88.4500368,39.6017688 C87.8648603,39.5063783 86.911315,39.3171025 86.4043696,36.5190428 C86.0207622,34.4010489 86.5004932,31.4336544 85.2976889,30.0442756 C85.0261483,29.5199903 84.792997,29.0108901 84.403416,29.0500825 C84.403416,29.0500825 84.792997,29.0108901 84.403416,29.0500825 L84.4033802,29.0502429 L84.4033802,29.0502429 Z M80.5472753,29.2748105 C80.1834493,29.2985506 79.7804184,29.6152712 79.451791,30.2272181 C79.169841,30.6925811 78.8254422,33.1262798 78.8816741,33.1262798 C78.6566893,33.8505907 79.8942772,34.1575266 80.4578123,33.2265332 C81.3025782,31.5197387 81.3066561,30.7925939 81.3632457,30.068684 C81.2316445,29.5172367 80.9110655,29.2512577 80.5472395,29.2749977 C80.5472395,29.2749977 80.9110655,29.2512577 80.5472395,29.2749977 L80.5472753,29.2748105 L80.5472753,29.2748105 Z M94.7883929,29.4669629 C94.4146942,29.4922803 94.1170444,29.6558003 94.0059041,30.0684835 C93.8569934,31.0388297 93.9330924,31.5664568 94.1512235,32.3743123 C94.3185205,32.9129806 95.3675778,33.8148604 95.8838952,34.3376219 C98.3506576,36.8157261 100.724058,39.3056469 103.015901,41.8817589 C103.376185,43.7945942 103.640175,45.6657241 103.809586,47.5293685 C104.180959,51.6154307 104.293817,56.7018884 103.954905,61.0050328 C104.979241,61.0352157 106.620482,59.7688679 107.196645,57.9140192 C107.571238,55.3481731 107.063223,50.112966 107.028968,48.5987383 C107.004823,47.9701093 106.953048,47.2200532 106.894827,46.4349219 C109.560727,49.6908858 112.147071,53.1404056 114.686091,56.9281136 C115.611628,56.5993626 115.406481,52.7046374 114.864946,52.1576547 C112.832907,48.8888584 110.025498,45.6623022 109.13051,44.4212984 C108.807459,43.9731523 107.707078,42.7224173 106.402977,41.2800245 C106.162876,39.2218885 105.90197,37.4786819 105.732273,36.9522846 C105.312966,34.7766249 106.928702,37.1976382 106.704812,35.9330415 C106.180554,33.7603493 104.575978,32.2838168 102.680584,30.2937195 C102.069438,29.6464567 102.081529,29.514443 101.137963,30.4524541 C100.573999,31.4086846 100.581618,32.2042423 100.746701,32.9504486 C100.498519,32.6808872 100.191751,32.3612526 99.7518402,31.9646233 C98.1149631,30.9150635 98.0139818,30.8576918 96.6554381,30.0013137 C96.2270456,29.7741207 95.4114687,29.4244154 94.7886255,29.4666288 C94.7886255,29.4666288 95.4114687,29.4244154 94.7886255,29.4666288 L94.7883929,29.4669629 L94.7883929,29.4669629 Z M136.998075,29.7927999 C136.816087,29.7716532 136.617795,29.8385128 136.394441,30.0852191 C135.967551,30.3649128 135.508467,30.8714199 135.522525,31.5221849 C135.626357,32.6687632 135.899372,33.8427175 136.003215,34.9893493 C136.039805,35.1427825 136.078405,35.295403 136.114999,35.4488575 C135.950163,35.2916522 135.806246,35.1689767 135.723737,35.1063384 C132.733359,32.7584834 137.097697,34.7226217 135.15362,32.9091041 C133.509517,31.5599069 133.028469,31.1305816 131.621242,30.319224 C130.915624,29.9783623 130.489307,29.3270626 130.257475,30.4361863 C130.165179,31.4105694 130.069256,32.538915 130.15687,33.3603782 C130.151826,33.8168387 130.784363,34.6761309 131.330585,35.1816487 C133.325457,37.0133991 135.36304,38.9624059 137.411641,40.9963474 C137.842752,45.1444331 137.95772,48.9468449 138.395341,53.1018815 C138.333332,54.8789871 137.601942,57.2392735 136.90863,57.4627718 C136.90863,57.4627718 135.849847,57.917361 135.142441,57.4126451 C134.627948,57.2582415 132.571407,54.847815 132.571407,54.847815 C131.518597,54.1264715 130.816664,54.3325926 130.067442,54.847815 C128.001493,56.3387572 127.067121,59.1314433 125.663327,61.0552397 C125.301325,61.4844847 124.281747,61.8498884 123.148202,61.0218219 C120.269216,58.0821241 121.952774,53.8976799 121.594385,54.9731986 C119.030147,57.1329514 120.165766,60.7117046 120.744826,61.4813836 C121.590307,62.7454322 122.274319,63.5547046 123.919495,64.1799384 C125.417938,65.0042354 126.584714,64.4897883 127.228305,63.912596 C128.73612,62.7447371 128.756224,59.758094 129.463987,59.1672672 C129.960452,58.0818568 131.204671,58.268542 131.811453,58.7495446 C132.399527,59.3814352 133.093841,59.7925545 133.957708,60.1363836 C135.364185,61.0636075 137.042807,61.23206 138.697355,60.3870172 C139.828038,59.913019 140.561699,59.2970085 141.223676,58.0811884 C141.933943,56.6614395 141.582745,49.2209244 141.424887,45.0816611 C142.487141,46.1999813 143.535586,47.3425228 144.5772,48.4985651 C145.034423,52.1320165 145.241895,55.7103954 145.091406,59.1420033 C144.983597,59.824288 148.277236,57.1049607 148.254915,55.8167977 C148.24007,54.6897354 148.257777,53.6682733 148.254915,52.7172292 C149.852444,54.6235414 151.398821,56.5616139 152.86042,58.5236402 C153.76614,58.1649736 153.455684,54.332245 152.882777,53.8034416 C151.352462,51.884297 149.392716,49.8104146 147.874849,48.2058251 C147.57486,46.1807327 147.166406,43.7914663 146.980576,43.0594826 C146.691046,41.9180373 146.401051,40.2034631 145.963323,38.8488388 C145.84325,38.319875 145.480844,36.6302974 145.594453,36.4678334 C145.772925,36.0897844 146.447303,36.4799172 146.779365,36.0417429 C147.276545,35.6367458 145.055958,31.3370502 143.928852,30.1099483 C143.523603,29.5599714 142.790693,29.7502925 141.883184,30.6446332 C141.041638,31.2331342 141.349554,32.5757548 141.670795,33.8527428 C142.505223,37.10737 143.250045,40.4218819 143.839406,43.7278388 C142.748358,42.5156279 141.416821,41.0488 140.105638,39.634291 C140.070404,39.4978768 139.937962,38.9979357 139.937962,38.9910115 C139.937955,38.9325357 139.757287,36.3285479 139.60261,35.7077787 C139.575567,35.4558272 139.495197,35.3833052 139.848535,35.4153595 C140.223163,35.6508722 140.274066,35.6635763 140.508079,35.7411965 C140.886285,35.7929326 141.216987,35.3150526 140.988768,34.8723335 C139.818773,33.2595901 138.648707,31.6396284 137.478747,30.0267513 C137.337953,29.9231401 137.180064,29.8139788 136.998058,29.7928267 C136.998058,29.7928267 137.180064,29.8139788 136.998058,29.7928267 L136.998075,29.7927999 L136.998075,29.7927999 Z M28.0649007,29.8763445 C27.4166244,29.8624961 26.7013849,30.1628286 26.9806127,30.7452075 C26.8180053,31.0626232 28.249586,32.1356289 28.5008767,32.7251992 C28.7262192,33.1450338 28.2773693,34.4969045 28.7468017,34.6216732 C29.1783779,34.7615254 29.7727117,33.6858409 29.9987839,32.6917814 C30.1238926,32.1472048 30.0292249,30.283507 28.3332184,29.9012608 C28.2463273,29.8865837 28.1575474,29.8781891 28.0649365,29.8762108 C28.0649365,29.8762108 28.1575474,29.8781891 28.0649365,29.8762108 L28.0649007,29.8763445 L28.0649007,29.8763445 Z M152.15779,29.8870382 C152.010013,29.8979992 151.830043,30.0764824 151.554156,30.5136354 C150.890749,31.3257951 150.662459,32.7800044 150.928165,34.0642107 C152.525408,42.1387552 153.712359,49.9574529 153.957532,57.1142107 C153.820165,57.7935279 153.780066,58.154868 153.353898,59.0106847 C152.411048,59.913928 151.371224,61.0462837 150.391637,61.592197 C149.412372,62.1378697 147.328287,62.6581182 146.64678,63.0625806 C144.484928,63.9965415 144.474054,65.0706166 146.222,65.109408 C149.234376,64.8480299 152.798841,64.6633203 155.254157,61.8930108 C155.91109,61.1167017 156.684636,59.0121284 156.718546,57.7240724 C156.94821,50.1724497 156.58926,42.7887182 155.075302,37.3309218 C154.978316,36.7992578 154.664223,35.5772621 154.784663,35.4177656 C154.979719,35.0440208 155.965282,35.4551722 156.316088,35.025093 C156.830974,34.6322065 153.767267,31.7004221 152.694282,30.4468533 C152.479915,30.1320308 152.347716,29.8730027 152.157719,29.8870916 C152.157719,29.8870916 152.347716,29.8730027 152.157719,29.8870916 L152.15779,29.8870382 L152.15779,29.8870382 Z M120.567778,30.0123549 C120.443388,30.0283955 120.25974,30.1698865 119.91943,30.505281 C119.077919,32.5615723 118.782165,34.2408572 119.103424,35.5179522 C121.264917,43.9483295 123.479638,51.6288112 123.127652,59.6538973 C124.152703,59.6590036 125.337794,57.9013873 125.844024,56.16187 C126.121284,53.7655191 125.659031,52.307059 125.575742,50.8984316 C125.492821,49.4899378 123.4424,38.0622504 123.027064,36.9966234 C122.525913,34.9815563 125.020756,36.7315587 124.748539,35.5596576 C123.886103,34.0821895 121.733516,31.930751 121.059842,30.6472398 C120.806556,30.3034909 120.77531,29.9855672 120.567992,30.0123015 C120.567992,30.0123015 120.77531,29.9855672 120.567992,30.0123015 L120.567778,30.0123549 L120.567778,30.0123549 Z M43.649574,30.1710895 C43.3839392,30.2054805 43.1276048,30.3690727 43.0347435,30.6389388 C42.9763332,30.8157084 43.137127,31.1097557 42.9229594,31.1987005 C42.8000147,31.2913962 42.3333831,31.229092 42.3528425,30.7391923 C42.3528425,30.5831739 42.1995784,30.4203596 42.1069174,30.3214697 C42.0138952,30.2759306 41.9511208,30.2629885 41.7827435,30.2629885 C41.5775901,30.2691908 41.5822404,30.3096264 41.469748,30.438432 C41.4196687,30.5694298 41.355281,30.6977542 41.355281,30.847466 C41.3296691,31.0218107 41.2362605,31.0808559 41.0646423,31.106454 C40.872828,31.106454 40.9182248,31.1220668 40.7628252,31.0479728 C40.6705255,30.9725234 40.5616138,30.9428538 40.5616138,30.8140482 C40.5616138,30.6806657 40.5147289,30.4677327 40.4610081,30.3796167 C40.3795291,30.2993177 40.2507645,30.2575294 40.1032989,30.2292365 C39.2996337,30.2313753 39.2411125,30.9216 39.2872928,31.181644 C39.2270832,31.2306854 39.1972824,32.4539803 40.2933498,32.7940399 C41.7647507,33.3184054 44.5239762,33.0967251 44.4070053,31.3236564 C44.4070089,31.1668279 44.3608465,30.6401954 44.3399349,30.4965522 C44.189765,30.2351715 43.9125082,30.136335 43.6468733,30.1707153 C43.6468733,30.1707153 43.9125082,30.136335 43.6468733,30.1707153 L43.649574,30.1710895 L43.649574,30.1710895 Z M63.3908279,30.1877984 C62.8823086,30.2071808 62.4333835,30.3160988 62.0494185,30.463482 C61.0741245,31.1614062 60.8454768,32.2802612 61.6134426,32.9781587 C62.3608759,33.2419642 63.1065922,33.8042202 62.6083033,34.1143642 C60.4947071,35.8015892 54.9937481,38.6209561 54.7165235,39.135323 C54.7143773,39.1395203 54.7065435,39.1481822 54.705363,39.1520319 C54.7046476,39.1557212 54.7054167,39.165399 54.705363,39.1687408 C54.7055311,39.1703449 54.7050053,39.1755848 54.705363,39.1770819 C54.7071516,39.1813326 54.713018,39.1903421 54.7165235,39.1937908 C54.7179544,39.1948602 54.7261101,39.2011695 54.7276841,39.2021319 C54.7294726,39.2029339 54.7368772,39.2013299 54.7388446,39.2021319 C54.7409908,39.2029339 54.7476085,39.2098848 54.7500051,39.210473 C54.7525091,39.2110077 54.7583397,39.2099383 54.7611656,39.210473 C54.7618811,39.2110077 54.7713961,39.2182259 54.7723262,39.2188141 C55.0518652,39.3589443 58.4939324,39.3556292 58.8748927,39.2271551 C58.8777544,39.2260858 58.8837639,39.2199102 58.8860532,39.2188141 C58.8871263,39.2182794 58.8962837,39.2193487 58.8972137,39.2188141 C58.8979292,39.2182794 58.8964983,39.2110344 58.8972137,39.210473 C60.080158,38.8846894 65.693688,34.0892607 65.693688,34.0892607 C65.4027202,33.9030647 65.1347317,33.7658298 64.8441288,33.5796525 C64.5326141,33.378095 64.5639817,33.1799488 64.8441288,32.9781319 C66.2344012,32.3734568 65.7938466,31.0430537 65.067697,30.4383785 C64.465744,30.236682 63.8994546,30.1683626 63.3909352,30.187745 C63.3909352,30.187745 63.8994546,30.1683626 63.3909352,30.187745 L63.3908279,30.1877984 L63.3908279,30.1877984 Z M114.990376,30.2045073 C114.842599,30.2154684 114.662629,30.3855971 114.386742,30.8227368 C113.723335,31.6348965 113.272514,33.0492183 113.324775,34.3733121 C114.761907,41.8091754 115.202498,48.316291 116.141735,55.7524217 C116.218174,56.4716264 116.077107,57.5163473 115.437477,57.9329203 C113.071553,59.7792943 109.660116,62.0564105 105.947095,63.1043929 C105.547605,63.4396137 106.940382,64.8685324 108.741698,64.8671957 C111.754074,64.605815 114.40173,63.3422208 116.857404,60.0133259 C117.513979,59.2369901 118.667948,57.5752695 118.701824,56.2871066 C118.931491,48.735484 118.192481,42.8641088 116.678549,37.406045 C116.58156,36.8744078 116.647536,36.2455648 116.767976,36.0860416 C116.963031,35.9119695 117.624439,36.090025 117.975245,35.6599512 C118.490095,35.2670647 116.600175,32.0093898 115.527155,30.755821 C115.312787,30.4409985 115.180588,30.1903382 114.990591,30.2044271 C114.990591,30.2044271 115.180588,30.1903382 114.990591,30.2044271 L114.990376,30.2045073 L114.990376,30.2045073 Z M35.0531072,30.4317484 C34.6373418,30.4680803 34.2462226,30.7210665 34.0582464,31.0583457 C33.9886577,32.2509872 33.9793,33.4430138 34.1588521,34.5420854 C34.884644,36.4698384 35.1144722,38.1653778 35.4667084,40.1397019 C35.5644131,42.7839595 33.4235809,41.2835534 33.5216648,39.9726129 C34.0159831,38.2698552 33.8825575,35.5892658 33.4434159,34.9096813 C33.0951252,34.2303641 32.6918331,34.0626601 31.8448851,34.1744895 C31.1724634,34.1437718 29.4353204,35.5583878 28.9496586,37.9007088 C28.9496622,37.9007061 28.5450538,39.1028142 28.3683812,40.1731197 C28.13078,41.3827374 27.0585933,42.2393562 26.3115535,40.0060307 C25.6658169,38.3827807 25.2689385,34.3832839 24.1876552,35.3192499 C23.8779435,38.4420773 23.5101898,43.9370343 27.0604892,44.5008595 C31.3547878,44.8093995 28.9826394,39.0754116 30.5369931,38.03438 C30.8308404,37.5199596 31.3753918,37.5108165 31.4201055,38.1596968 L31.4201055,43.0304092 C31.3808076,44.6137716 32.7750005,45.0842944 33.8569992,45.4114146 C34.9829962,45.3464718 35.7296068,45.3694766 36.1709483,46.1883653 C36.3468983,48.9959959 36.531555,51.8105773 36.7075121,54.6179406 C36.7075121,54.6179406 39.3106691,55.1770071 39.4350445,49.8808994 C39.5597992,46.7711719 38.6064828,44.1616421 39.1667627,43.5566461 C39.1865798,42.9622101 40.2060867,42.9328024 40.9105949,43.222468 C42.032979,43.8142038 42.5309459,44.5424447 44.2752789,44.2500789 C46.9296241,43.7036042 48.528441,42.7406901 48.567789,41.217346 C48.4127507,39.7697935 48.1886888,38.3206904 47.34936,36.873031 C47.466542,36.6097655 46.8413057,35.9249009 46.9580977,35.6616488 C47.4351029,36.2199668 48.1567454,36.1736363 48.3218639,35.6616488 C47.8700773,34.5490229 47.1667495,33.4829681 46.0303074,33.0216419 C45.0910705,32.4032253 43.7166803,32.5340093 43.2133477,33.8236693 C42.9800712,35.3097726 43.9339886,37.0710783 45.3819596,38.5104501 C45.6895072,39.0728317 46.119699,40.008156 45.9296838,40.8496967 C45.1591783,41.1781803 44.3952546,41.0415149 43.7498757,40.5322275 C43.7498793,40.5322248 41.6371738,39.3501728 41.6371738,39.0869206 C42.1978113,36.404139 41.7579328,36.0969625 41.4471408,35.3524137 C41.2300936,34.3246691 40.5784083,33.9991797 40.0498572,33.2972185 C39.5213061,32.87848 38.8043138,32.87848 38.4625227,33.2972185 C37.5286872,34.5071036 37.9668094,37.1047099 38.6413773,38.2681843 C39.1288276,39.3382226 39.8763682,40.0059104 39.5244897,40.0059104 C39.2346094,40.6105856 38.6301452,40.46991 38.1942408,39.7719857 C37.5719342,38.3295394 37.4452694,36.179705 37.4452694,35.2105886 C37.2585023,34.0090446 37.0502869,31.4423965 35.9920759,30.7911503 C35.7097217,30.5037304 35.3764584,30.4036641 35.0530893,30.4318955 C35.0530893,30.4318955 35.3764584,30.4036641 35.0530893,30.4318955 L35.0531072,30.4317484 L35.0531072,30.4317484 Z M50.1326951,30.4484573 C49.9195934,30.4685882 49.6840205,30.5592574 49.4061162,30.6071919 C48.4932066,30.8243809 47.6385321,31.4142186 47.9082091,32.5621337 C48.9873461,37.4630558 49.6907454,41.2034442 50.7698825,46.1046336 C50.935745,46.6785912 50.291983,47.4351436 49.4620262,47.3578014 C48.0508277,46.6442644 47.7005947,45.199118 45.292568,45.2608206 C43.5493081,45.2764601 41.5613036,46.6941772 41.3130535,48.0596289 C41.0224541,49.1447719 40.9189653,50.3213729 41.3130535,51.2677385 C42.5382074,52.3687617 44.0057808,52.2513716 45.292568,52.0029302 C46.3507791,51.6774141 47.2214432,50.8980038 47.5953208,51.0839405 C47.596394,51.0847425 47.6055513,51.0828711 47.6064814,51.0839405 C47.6075545,51.0850099 47.6054082,51.0911588 47.6064814,51.0922816 C47.837236,51.393737 47.5847327,53.9429543 42.6207309,55.9127336 C39.5701513,56.9364414 37.1420572,57.181033 35.8353456,55.3195541 C35.0259213,54.1562669 35.8942317,49.7256804 33.9014983,50.749602 C28.0082396,62.1028345 47.7083569,63.6876406 49.9089838,51.2174513 C50.0515094,50.8656554 50.4856467,50.5126831 50.7920962,50.5992219 C50.9265591,50.6420181 51.0496396,50.7784804 51.0939133,51.0336534 C50.6370829,62.3248624 35.8533562,63.0988189 33.3425956,59.5469069 C32.7202889,58.7096705 32.5330639,56.8459459 32.4706794,55.7289891 C32.3568671,55.053281 32.130008,54.6635225 31.8670452,54.5092391 C31.2680612,54.1728688 30.463144,55.0500729 30.290907,56.5728021 C30.0417733,57.7980594 30.1120525,58.1344297 30.1120525,59.3130624 C30.9005866,68.2313397 49.9248482,64.3995202 53.0165286,57.0323104 C54.5470588,53.2237496 52.9853721,50.3506201 53.4972182,49.9979954 C53.5016538,49.9952151 53.5148532,49.9920604 53.519575,49.9896543 C53.5244398,49.9875156 53.536745,49.9831846 53.5419318,49.9813133 C53.5472617,49.9797092 53.5586368,49.9743089 53.5642886,49.9729722 C53.5817091,49.9694967 53.6109554,49.9648182 53.6313591,49.9646311 C55.5199205,51.4849542 58.1699731,50.157794 58.7508928,49.630453 C59.0000301,49.3666475 59.6232382,49.1974117 60.0587491,49.538554 C61.5319385,50.3299679 64.114098,49.9569183 64.6531657,48.5610965 C64.9646767,47.1962598 65.2279686,45.7911612 65.2903173,44.3338774 C64.3306909,44.5565523 63.5563221,44.7232885 63.2446501,44.9688158 C63.170429,45.0293929 63.1155278,45.0965895 63.0993307,45.1693226 C63.0160453,45.5727157 62.9366911,45.9773385 62.8534057,46.3807048 C62.8444987,46.4140505 62.8301546,46.4448563 62.808692,46.4726038 C62.7677915,46.5221183 62.7001774,46.5677804 62.6298374,46.5979206 C62.2905789,46.7363585 61.6990066,46.6571931 61.668494,46.2888192 C61.2120571,44.7377784 59.3335116,44.5360418 58.1919901,46.9404665 C57.4240243,47.4055622 56.0237002,47.4963517 55.878041,46.7984408 C56.0648117,45.18543 55.19521,44.9689094 53.4523435,45.7290709 C52.8920279,42.5340611 52.3362194,39.4836836 51.7755818,36.2886738 C52.5020891,36.2730343 53.1682867,36.666696 53.8324095,36.0463947 C53.1137003,34.3758518 51.5928997,30.9767795 50.7360074,30.65784 C50.7292825,30.6554339 50.720304,30.6514237 50.7136506,30.6494989 C50.6747461,30.6146107 50.6287125,30.5824734 50.590688,30.5575999 C50.5748773,30.5475746 50.5505173,30.5326568 50.534796,30.5241821 C50.5190925,30.5160281 50.4945501,30.5058157 50.4789039,30.4991321 C50.4444923,30.4850164 50.4014813,30.4735207 50.3671198,30.4657143 C50.2889961,30.4491658 50.2130938,30.4413861 50.1323732,30.4490054 C50.1323732,30.4490054 50.2130938,30.4413861 50.1323732,30.4490054 L50.1326951,30.4484573 L50.1326951,30.4484573 Z M108.918621,30.4735073 C108.164713,30.4567984 107.330499,30.8118827 107.655478,31.5178005 C107.466193,31.9028538 109.275293,33.2090089 109.567004,33.9238827 C110.091978,35.0222324 109.166084,36.0699208 109.712324,36.2213703 C110.214941,36.3908628 110.914227,35.0874373 111.176714,33.8821238 C111.479933,32.9077407 110.549828,30.9108796 109.23167,30.4986375 C109.130628,30.4808592 109.026377,30.4759669 108.918674,30.4735875 C108.918674,30.4735875 109.026377,30.4759669 108.918674,30.4735875 L108.918621,30.4735073 L108.918621,30.4735073 Z M63.1211152,31.6765484 C63.4644409,31.6504023 63.8792798,31.8861636 64.0824586,32.2195744 C64.2991874,32.5752201 64.1904832,32.9150391 63.8365336,32.9798429 C63.4825875,33.0446361 63.0248557,32.8091662 62.8081197,32.4534991 C62.591398,32.0978534 62.7000951,31.7496933 63.0540447,31.6848895 C63.0761512,31.6808259 63.0982254,31.6782861 63.1211152,31.6765484 C63.1211152,31.6765484 63.0982254,31.6782861 63.1211152,31.6765484 L63.1211152,31.6765484 L63.1211152,31.6765484 Z M148.077044,33.3223621 C147.389706,33.30437 146.640627,33.6943959 146.936846,34.4585676 C146.764502,34.8754347 148.403776,36.2912537 148.669518,37.0651566 C148.90856,37.6159356 148.305727,39.3909559 148.803659,39.5547833 C149.26192,39.7382872 149.906047,38.3284032 150.145068,37.023371 C150.27775,36.3090319 149.569407,33.8021616 148.367683,33.3556997 C148.275562,33.3364778 148.175235,33.3248537 148.077044,33.3222819 C148.077044,33.3222819 148.175235,33.3248537 148.077044,33.3222819 L148.077044,33.3223621 L148.077044,33.3223621 Z M101.106252,34.1912251 C101.16912,34.400704 101.231951,34.6115944 101.273929,34.8261635 C101.414802,35.2891204 101.53624,35.7489762 101.665191,36.2046347 C101.122582,35.6462365 100.673442,35.1950693 100.480279,35.0350114 C99.252514,33.9445215 100.50793,34.3189079 101.10627,34.1912251 C101.10627,34.1912251 100.50793,34.3189079 101.10627,34.1912251 L101.106252,34.1912251 L101.106252,34.1912251 Z M111.926955,38.1679443 C111.66132,38.2023352 111.404986,38.3742792 111.312124,38.6441347 C111.253714,38.8209015 111.425683,39.1066104 111.211519,39.1955285 C111.088574,39.2882242 110.610782,39.2342718 110.630241,38.7443881 C110.630238,38.5883671 110.476977,38.4172144 110.384316,38.3182977 C110.291301,38.2727559 110.22852,38.2598165 110.060142,38.2598165 C109.854985,38.2660189 109.859636,38.3064571 109.747147,38.43526 C109.699557,38.5664904 109.635363,38.6958842 109.635363,38.8446148 C109.609751,39.0189595 109.527524,39.0780021 109.355902,39.1036028 C109.164092,39.1036028 109.198303,39.1192156 109.042907,39.0451217 C108.950604,38.9696749 108.841695,38.9399999 108.841695,38.811197 C108.841699,38.6778118 108.79481,38.4648816 108.74109,38.3767655 C108.659604,38.2964638 108.530843,38.2630353 108.38338,38.2347398 C107.579715,38.2368785 107.53239,38.9187622 107.578535,39.1787795 C107.518318,39.2278208 107.477346,40.4594836 108.573396,40.7995432 C110.044797,41.3239087 112.815111,41.0938873 112.69814,39.3208186 C112.698144,39.1639901 112.640803,38.6373576 112.619891,38.4937145 C112.469721,38.2323337 112.192465,38.1334972 111.92683,38.1678775 C111.92683,38.1678775 112.192465,38.1334972 111.92683,38.1678775 L111.926955,38.1679443 L111.926955,38.1679443 Z M62.5201638,38.5355402 C62.3387337,38.5217186 62.1008929,38.5715004 61.8271023,38.6942748 C60.5258994,39.2202711 60.022066,40.7805886 60.8322415,41.6935899 C61.5890468,42.4976758 62.785584,42.2031981 62.9449434,42.2031981 C64.2198189,42.3222992 64.9794144,40.4153454 64.9794144,40.4153454 C64.9794108,40.4153454 65.0178037,39.8791633 63.503864,40.8915358 C62.866784,40.9807292 62.7801468,40.8087665 62.6207516,40.5406488 C62.4880665,40.0445681 62.5165795,39.5415632 62.821963,39.0451885 C62.9630292,38.7476096 62.8226784,38.5585985 62.5201459,38.5355803 C62.5201459,38.5355803 62.8226784,38.5585985 62.5201459,38.5355803 L62.5201638,38.5355402 L62.5201638,38.5355402 Z M132.36288,38.7778193 C131.640522,38.7515663 130.871662,39.10117 130.674922,39.8388481 C130.677784,40.2740281 130.937795,40.5131927 130.887312,40.9082179 C130.81196,41.1340287 130.500664,41.2825241 129.75831,41.0168258 C129.874405,40.9370642 129.27762,40.3067107 129.27762,40.3067107 C128.698561,40.0431752 127.925337,40.3210136 127.422004,40.5656988 C127.145101,40.9418763 126.940277,41.5866529 127.254328,42.2449303 C128.085394,43.392578 130.936228,45.350915 132.295881,45.369629 C132.321135,44.33488 132.455634,42.9588683 132.530628,42.1029714 C132.562714,41.779888 132.664107,41.4238146 133.078352,41.3427029 C133.492257,41.2618639 134.210609,41.653943 134.21855,41.3176529 C134.143195,40.6593488 133.967156,39.6879332 133.469579,39.2290399 C133.214714,38.9468065 132.796334,38.793646 132.362898,38.7778995 C132.362898,38.7778995 132.796334,38.793646 132.362898,38.7778995 L132.36288,38.7778193 L132.36288,38.7778193 Z M74.5499233,42.378655 C74.5307143,42.3839216 74.5116914,42.3961926 74.4940312,42.4037049 C74.4853747,42.4076349 74.469242,42.4157086 74.4605139,42.4204138 C74.3166468,42.5011326 74.1468781,42.6874195 73.7674524,42.8882632 C73.1274749,43.4323051 73.0127576,43.8111561 73.052034,44.9016727 C73.0884452,45.017023 74.2669932,47.4659949 75.2653595,49.1874398 C75.9384967,50.9766827 76.5612683,53.0254082 76.1037583,54.960433 C74.527799,57.5184726 71.3594615,59.8126987 68.3014058,61.0590493 C66.743332,61.4319921 65.3977374,61.3049883 65.0373096,61.0507082 C65.0344479,61.0485695 65.0287246,61.0443989 65.0261491,61.0423671 C64.1313753,60.5927506 64.1108428,59.7923807 64.1654292,59.6555281 C64.1654114,59.6547261 64.1654901,59.6481227 64.1654292,59.647187 C64.1675755,59.645583 64.1745508,59.6402896 64.1765898,59.6388459 C66.7570322,58.295557 69.7046273,57.2083286 72.0125669,53.581935 C72.6940029,52.1960852 72.9020466,51.363955 72.2249568,49.2210447 C71.9609996,48.4225463 71.6349512,47.765472 70.9059042,47.1992674 C70.9076927,47.1976633 70.9151689,47.1923967 70.9170647,47.1909263 C71.3563316,47.0338599 72.4960288,47.6613688 72.6720575,47.2661163 C72.4023698,46.24297 71.4751268,44.8693911 70.4252146,44.1665478 C69.5058305,43.5424635 68.5056756,43.4702276 67.664129,44.041231 C66.7162355,44.4354542 66.5146306,45.8513266 66.9710675,47.0905392 C67.4780129,48.0234307 68.846644,48.1870978 69.8215804,50.0647241 C69.8215625,50.0665955 69.8214945,50.0724503 69.8215804,50.0730652 C69.8418982,50.1907921 70.1561672,51.4745813 69.6650826,51.9945892 C69.2665588,52.9233903 64.1477763,55.9402966 63.7850592,56.1218221 C63.7810529,56.1248164 63.7554051,56.1356972 63.7515419,56.138531 C63.7493956,56.1401351 63.7422772,56.1454819 63.7403813,56.1468721 C63.7393082,56.1474068 63.7315817,56.153422 63.7292208,56.1552132 C63.7281477,56.1560152 63.7190619,56.1626988 63.7180603,56.1635543 C63.7169871,56.1635543 63.708116,56.1635997 63.7068997,56.1635543 C63.7061843,56.1635356 63.698279,56.1635249 63.6957392,56.1635543 C63.693593,56.1622176 63.6865461,56.1567638 63.6845787,56.1552132 C63.6846645,56.1544112 63.6845537,56.1476207 63.6845787,56.1468721 C63.6824324,56.1439848 63.6754213,56.1331842 63.6734182,56.1301632 C63.6580009,56.0548395 63.6850795,55.8630667 63.6734182,55.5537194 C63.6397935,54.9884505 63.9528391,53.7096178 63.9305216,53.4901564 C63.9305324,53.4893543 63.9304894,53.4826441 63.9305216,53.4818153 C63.9283754,53.4802112 63.9214358,53.4749446 63.9193611,53.4734742 C63.9193754,53.4726722 63.9193039,53.4660421 63.9193611,53.4651331 C63.9168571,53.4651705 63.9085583,53.4651572 63.9082006,53.4651331 C62.2161646,54.2816237 61.6573514,56.7844572 61.3483622,57.5255305 C57.0647948,59.7375488 52.2003078,61.3832823 49.3987295,63.6241468 C47.939598,65.3271718 59.4517882,61.6686169 60.7896205,61.2264057 C60.8011029,61.2328487 60.8125496,61.2432483 60.8231378,61.2514557 C61.0774297,61.4606164 61.0991498,62.1899079 61.8627122,62.8471694 C63.0593567,64.0586852 65.6029193,64.8047579 68.0779091,64.3426297 C72.2284087,63.2213954 74.6196945,61.1072512 77.0542631,58.7618557 C77.4021925,58.3835394 77.9475345,58.0854525 78.4515467,58.3775509 C80.124481,61.1766265 84.947903,63.1683279 91.183847,63.3736469 C92.6267743,62.0621717 91.9366818,61.417315 91.3515232,61.1429948 C91.17127,61.0534699 88.2502562,60.2023771 87.7967883,59.3551421 C87.5112326,58.5666957 88.2055068,57.8674348 89.5964947,57.3417325 C93.6003335,56.979831 97.5362075,56.5778549 101.345095,55.662501 C101.38367,54.7061636 102.137385,53.2760151 102.641791,52.6548983 C102.99202,52.2239423 103.217202,52.1812744 103.301335,52.1202134 C103.304196,52.1180746 103.310134,52.1140645 103.312495,52.1118723 C103.313568,52.1108029 103.322654,52.1046808 103.323656,52.1035312 C103.325802,52.1021945 103.332813,52.0966605 103.334816,52.0951901 C103.334823,52.0923296 103.334967,52.0814487 103.334816,52.0784812 C103.336963,52.0595534 103.334641,52.026959 103.323656,51.9949367 L102.675308,51.7108853 L89.8982939,51.6691131 C89.7404583,51.6236996 89.6231047,51.5781177 89.5517632,51.5354418 C89.546326,51.5320466 89.5342712,51.5221014 89.5294063,51.5187329 C89.5272601,51.5171289 89.5203563,51.5120494 89.5182458,51.5103918 C89.5160995,51.5087878 89.5089096,51.5036816 89.5070853,51.5020508 C89.5052967,51.4991367 89.4976775,51.4882559 89.4959248,51.4853419 C89.4948516,51.4845398 89.4860162,51.477883 89.4847642,51.4770008 C89.4847857,51.4761987 89.4846605,51.4695419 89.4847642,51.4686597 C89.4836911,51.4678577 89.4748915,51.4612008 89.4736037,51.4603186 C89.4736109,51.4595166 89.4735393,51.4528597 89.4736037,51.4519775 C89.4736073,51.4511755 89.4735572,51.4445187 89.4736037,51.4436364 C89.4736037,51.4428344 89.4735751,51.4361776 89.4736037,51.4352953 C89.4734857,51.4339586 89.4736466,51.4282108 89.4736037,51.4269543 C89.4736502,51.4264196 89.4736359,51.4203776 89.4736037,51.4186132 C89.4735858,51.4178112 89.4736395,51.4111543 89.4736037,51.4102721 C89.4735822,51.4094701 89.4736538,51.4028132 89.4736037,51.401931 C89.4735787,51.401129 89.4736717,51.3944722 89.4736037,51.3935899 C89.47575,51.3919859 89.4826895,51.386746 89.4847642,51.3852488 C89.4876259,51.3808377 89.4920615,51.3728976 89.4959248,51.3685399 C89.5583057,51.3057118 89.7094843,51.2464928 89.8983476,51.1930964 C92.9493207,50.8824178 98.3696162,50.2183658 98.7294717,46.3223841 C98.6732255,44.2930409 97.5675607,42.9642954 94.235929,42.5961648 C91.7878032,42.7376371 90.041789,44.5074228 90.3233061,46.4560553 C90.2061313,46.9806882 90.5608464,48.0102775 89.8426165,48.1269457 C85.1466104,48.4475963 80.0209957,50.6466752 79.8489376,52.2204935 C79.8478645,52.2203545 79.8387429,52.220531 79.8377771,52.2204935 C79.8359885,52.2220976 79.8285482,52.2273375 79.8266165,52.2288346 C79.8230037,52.2301713 79.8101619,52.2350102 79.8042597,52.2371757 C79.8003607,52.2371356 79.7858377,52.2372826 79.7819029,52.2371757 C79.7743552,52.2390471 79.7560763,52.2440464 79.7483855,52.2455168 C79.7462393,52.2456612 79.7400867,52.2454874 79.737225,52.2455168 C79.7308578,52.2454419 79.7190892,52.2455168 79.7148682,52.2455168 C79.7127219,52.245466 79.7065693,52.2454633 79.7037077,52.2455168 C79.6989859,52.245605 79.6852499,52.2456585 79.6813508,52.2455168 C79.6692245,52.2436454 79.6471538,52.239154 79.6366372,52.2371757 C79.3312108,52.1737781 78.937745,51.7970765 78.9994856,51.2680593 C78.8206525,48.547315 77.6358267,45.4685992 75.780103,43.0975388 C75.117876,42.6027414 74.8293478,42.4022346 74.6399051,42.379056 C74.6337882,42.3785213 74.6234862,42.3792698 74.6175482,42.379056 C74.6097502,42.3790319 74.5940825,42.3791228 74.5840309,42.379056 C74.5822423,42.3790934 74.5745874,42.378949 74.5728704,42.379056 C74.5717972,42.3790319 74.5627472,42.3791228 74.5617098,42.379056 C74.560279,42.3793233 74.5519086,42.3787886 74.5505493,42.379056 C74.5505493,42.379056 74.5519086,42.3787886 74.5505493,42.379056 L74.5499233,42.378655 L74.5499233,42.378655 Z M86.7792845,43.8156207 C86.5136497,43.8500116 86.2573153,44.0136012 86.164454,44.28347 C86.1060508,44.4602395 86.2780124,44.7542868 86.0638483,44.8432317 C85.9409001,44.9359273 85.4631115,44.8819776 85.4825709,44.3920913 C85.4825709,44.2360729 85.3293068,44.0649176 85.2366458,43.9660008 C85.1436272,43.9204617 85.0920276,43.9075197 84.9236503,43.9075197 C84.718497,43.913722 84.7119652,43.9541576 84.5994764,44.0829632 C84.5518796,44.2141882 84.4876923,44.3435873 84.4876923,44.492318 C84.4620803,44.6666627 84.3798537,44.7257079 84.208232,44.751306 C84.0164176,44.751306 84.0618109,44.7669188 83.9064149,44.6928248 C83.8141152,44.6173754 83.694025,44.5877057 83.694025,44.4589001 C83.6940215,44.325515 83.6583257,44.1125847 83.6045977,44.0244686 C83.5231152,43.9441697 83.3831722,43.9107358 83.235728,43.882443 C82.4320628,43.8845817 82.3847379,44.5664654 82.4308824,44.8264827 C82.3706692,44.8755266 82.3296936,46.1071867 83.4257432,46.4472464 C84.8971441,46.9716119 88.403624,46.6628982 87.5504876,44.9685217 C87.5504841,44.8116933 87.4931504,44.2850607 87.4722388,44.1414176 C87.3220724,43.8800369 87.0448121,43.7812004 86.7791772,43.8155806 C86.7791772,43.8155806 87.0448121,43.7812004 86.7791772,43.8155806 L86.7792845,43.8156207 L86.7792845,43.8156207 Z M136.132419,45.3277632 C136.095432,45.3227906 136.052879,45.3247155 136.009457,45.3361042 C136.009457,45.3361042 129.191878,48.9610007 129.023039,49.0871864 C128.347004,49.5363752 128.685211,51.1159414 129.023039,50.9335069 C129.511598,51.0738965 136.375393,47.5976076 136.244472,47.1907124 C136.543613,47.2038389 136.687494,45.4024052 136.132688,45.3276562 C136.132688,45.3276562 136.687494,45.4024052 136.132688,45.3276562 L136.132419,45.3277632 L136.132419,45.3277632 Z M93.2216268,45.8651215 C93.499878,45.8430658 93.8648594,45.9136255 94.2164875,46.0656284 C94.7254361,46.2856325 95.0391471,46.6178777 94.9989763,46.8593147 C94.9975455,46.8658646 95.0007649,46.8779752 94.9989763,46.8843647 C94.9968301,46.8907274 94.9791592,46.9032123 94.9766195,46.9094147 C94.9737578,46.9155635 94.9687141,46.9284762 94.965459,46.9344646 C94.9633127,46.9384213 94.9568382,46.9472971 94.9542985,46.9511735 C94.9517945,46.9550233 94.9460354,46.9641129 94.9431379,46.9678824 C94.9264687,46.9882807 94.8989322,47.0096895 94.8760675,47.0263636 C94.6314123,47.197134 94.0667147,47.1728245 93.5346581,46.9428191 C93.0303597,46.7248174 92.7187234,46.3899549 92.7521692,46.1491328 C92.7532424,46.1425562 92.7617201,46.1305257 92.7633298,46.1240828 C92.7717717,46.0941993 92.7876182,46.066941 92.8080434,46.0405383 C92.8153407,46.0311011 92.8217795,46.0157824 92.8304002,46.0071205 C92.8321888,46.0055164 92.8397365,46.0004369 92.8415608,45.9987794 C92.8565846,45.9856796 92.8792884,45.9681446 92.8974528,45.9570071 C92.9785491,45.9093426 93.0934846,45.8752672 93.2216268,45.8651081 C93.2216268,45.8651081 93.0934846,45.8752672 93.2216268,45.8651081 L93.2216268,45.8651215 L93.2216268,45.8651215 Z M33.5163886,46.7841112 C29.9837243,46.8323478 24.8104627,50.2448595 24.6741755,52.1392482 C28.4018628,50.8013595 32.0633739,49.5136243 35.8525872,48.1291112 C35.2410833,47.4468265 35.8155178,46.832019 33.516317,46.7840578 C33.516317,46.7840578 35.8155178,46.832019 33.516317,46.7840578 L33.5163886,46.7841112 L33.5163886,46.7841112 Z M44.9630821,47.9704434 C45.3093768,47.9733575 45.6746014,48.1011552 45.8685156,48.4633695 C46.0430204,48.7956227 45.8767787,49.143061 45.6673042,49.3155236 C45.666231,49.3168603 45.6683773,49.3225547 45.6673042,49.3238647 C45.6640848,49.3277144 45.6596134,49.3369644 45.6561436,49.3405736 C45.5078732,49.4833451 44.9873348,49.4241181 44.6165692,49.4241181 C44.1680377,49.4093073 43.9469019,49.3542829 43.6775827,49.0815989 C43.5488717,48.7784593 43.9408351,48.4805863 44.1135586,48.2544948 C44.1153471,48.2523561 44.1229664,48.248239 44.1247191,48.2461537 C44.1434631,48.2250871 44.1740866,48.199834 44.202968,48.1793181 C44.3371089,48.087494 44.5690833,48.001661 44.8177985,47.9788112 C44.8661572,47.9743734 44.9136467,47.9700424 44.9631179,47.9704702 C44.9631179,47.9704702 44.9136467,47.9700424 44.9631179,47.9704702 L44.9630821,47.9704434 L44.9630821,47.9704434 Z M134.805318,49.0210993 C134.177181,49.0789897 133.580093,49.5229011 133.855171,50.2324815 C133.682827,50.6493486 134.707306,52.1069532 134.973012,52.8808294 C135.212059,53.4316084 134.665128,54.9894129 135.163045,55.1532404 C135.621307,55.3367469 136.826464,54.2284226 136.783897,52.8390705 C136.916579,52.1247315 136.442986,49.4927449 135.241276,49.0460156 C135.103097,49.0171667 134.950269,49.0075932 134.8053,49.0209656 C134.8053,49.0209656 134.950269,49.0075932 134.8053,49.0209656 L134.805318,49.0210993 L134.805318,49.0210993 Z M58.5023743,51.5942705 C57.9472097,51.6232719 57.4518183,51.8450458 57.6751719,52.4297158 C57.6416545,52.8538546 59.2437624,53.3695849 59.3407373,54.3512397 C59.5696855,54.7559695 58.9982308,56.0520725 59.4748783,56.1725103 C59.9125712,56.3072402 60.5199256,55.2765655 60.7492172,54.3178219 C60.8761288,53.7926276 60.1995255,51.9556374 59.0500986,51.627822 C58.8737015,51.5994597 58.6874173,51.5847371 58.5023743,51.5944042 C58.5023743,51.5944042 58.6874173,51.5847371 58.5023743,51.5944042 L58.5023743,51.5942705 L58.5023743,51.5942705 Z M81.3399588,53.925176 C81.3820863,53.9230373 81.4192308,53.9253685 81.4629214,53.925176 C81.4702544,53.9251413 81.4779094,53.925152 81.4852782,53.925176 C82.9087103,54.2143069 85.0070681,54.244276 86.8287378,54.3846843 C88.3124082,54.455014 89.0454974,55.3231365 87.6559403,55.6879788 C86.2851272,56.038839 84.9680778,56.3128651 84.961961,57.7933007 C85.1421605,58.5266478 85.1039894,58.9114873 84.9508004,59.0882541 C84.9388172,59.1015143 84.9193936,59.1191375 84.9060868,59.1300264 C84.9042983,59.1316304 84.8968579,59.1369238 84.8949263,59.1383675 C84.89278,59.1397042 84.8857689,59.1453451 84.8837657,59.1467086 C84.8816195,59.1480453 84.8746442,59.1537931 84.8726052,59.1550496 L84.8614447,59.1633907 C84.8575099,59.1647274 84.8430584,59.1703149 84.8390879,59.1717318 C84.8191635,59.1809819 84.7937268,59.1908468 84.7720174,59.1967818 C84.7528442,59.2016474 84.7253364,59.2025831 84.7049469,59.2051229 C84.3790918,59.2408398 83.9058246,59.0085968 83.5535526,58.8709448 C82.7084289,58.417425 80.3366383,57.3188614 79.9988177,54.9610613 C79.9507488,54.4289963 80.4836567,53.9701831 81.3402271,53.9251092 C81.3402271,53.9251092 80.4836567,53.9701831 81.3402271,53.9251092 L81.3399588,53.925176 L81.3399588,53.925176 Z M25.5587903,55.7380788 C25.4698709,55.7402175 25.2919213,55.9387487 25.0557796,56.1641692 C22.9541309,58.6664145 22.7672279,62.4015362 23.9267779,63.516087 C24.5429678,64.042618 25.5589334,64.2741633 26.3077617,64.1092664 C27.6281021,63.6813581 28.2084137,61.6825989 27.8950962,60.9514172 C27.4545058,60.4359275 27.1053459,60.3542544 26.6654709,60.7926826 C25.7363571,62.2025131 25.3496735,61.2380752 25.2681873,60.4501635 C25.125769,58.9559864 25.3194184,57.5799748 25.5364692,56.4902869 C25.6520236,55.9318085 25.6477454,55.7363009 25.558826,55.7383862 C25.558826,55.7383862 25.6477454,55.7363009 25.558826,55.7383862 L25.5587903,55.7380788 L25.5587903,55.7380788 Z M97.1578585,59.0237177 C97.001579,59.0174618 96.8349258,59.0357213 96.6660084,59.0989077 C96.6328488,59.0989077 95.1615552,59.8425208 94.6874474,60.3604434 C94.3982861,60.5248189 94.4310737,60.6677 94.5197712,60.9536228 C94.7451137,61.3408416 95.142221,61.2193238 95.5928988,61.0371673 C96.19106,60.9762667 96.4803037,61.2690067 96.4312975,61.8057769 C96.1551174,62.4751223 96.5542565,62.7244993 96.5542601,62.7665523 C96.5542601,62.8085892 97.1302076,63.1780458 97.8062422,62.8835146 C99.2332871,62.476352 100.122588,62.0803644 102.12093,61.7556502 C102.645546,61.7478438 102.615213,60.698685 101.785578,60.6612036 C100.703221,60.7018931 99.7044617,60.7432136 98.6220695,61.3796865 C97.9561223,61.494748 97.8420846,61.1918116 97.6942434,60.9201783 C97.5251471,60.2462614 98.0750248,59.7712473 97.9625253,59.2659968 C97.9925371,59.2882129 97.6265219,59.0424878 97.1576797,59.0237177 C97.1576797,59.0237177 97.6265219,59.0424878 97.1576797,59.0237177 L97.1578585,59.0237177 L97.1578585,59.0237177 Z M143.001866,60.3019355 C142.736367,60.3081378 142.456789,60.335626 142.051719,60.3604166 C141.613668,60.4299417 141.460712,60.5733709 141.381014,60.9702782 C141.412386,61.5722533 141.905023,61.5424446 142.409428,61.7806467 C142.70148,62.058469 142.891477,62.3099848 142.387071,62.7664721 C141.908993,63.0938597 141.568454,63.2745297 141.090376,63.6019173 C140.864661,63.8897114 140.724082,64.3317355 141.41455,64.4707803 C142.689425,64.7386307 145.63981,63.3059959 145.63981,63.2760803 C146.117889,63.0082299 145.959291,62.4991296 145.919271,62.4991296 C145.640572,62.2609221 145.011619,62.4039931 144.589022,62.3654584 C144.387832,62.3654584 143.727229,62.2923696 144.041298,61.8558502 C144.30342,61.5842302 144.400116,61.4218999 144.577861,61.0872406 C144.776884,60.759853 144.601935,60.5390549 143.8848,60.3603899 C143.519579,60.3108085 143.267215,60.2957117 143.001687,60.3019087 C143.001687,60.3019087 143.267215,60.2957117 143.001687,60.3019087 L143.001866,60.3019355 L143.001866,60.3019355 Z M123.850117,89.2818587 C123.847255,89.2829281 123.841747,89.2887561 123.838957,89.2901998 C121.718564,89.6968277 121.784525,91.3420265 123.145895,92.0638779 C100.755447,92.0638779 66.3953346,91.7798265 59.0265256,91.7798265 C54.9039274,91.7798265 41.8611355,91.4122306 41.6103813,91.4122306 C44.407524,94.4698264 48.4594389,95.092467 53.7614043,95.1550251 C63.7064347,95.1550251 109.785815,95.0631261 122.899433,95.0631261 C121.967172,96.3002534 122.984014,98.2910191 123.71544,98.6556742 C123.730964,98.663133 123.756108,98.6747892 123.771332,98.6807242 C123.798625,98.6908832 123.834621,98.7007481 123.860759,98.7057742 C123.869415,98.7073782 123.885799,98.7049721 123.894276,98.7057742 C124.762472,98.8588277 125.144506,98.3890803 125.436897,98.0457591 C126.84527,98.1385349 134.772033,98.2242289 135.497468,98.037418 C135.499972,98.036616 135.506231,98.0298255 135.508628,98.0290769 C135.999334,98.5688146 136.486319,99.0787704 137.420154,98.9898523 C139.054528,98.7279315 140.341708,98.5949875 140.382416,96.1159208 C140.382416,96.1159208 140.215351,91.8913751 136.503417,92.1560442 C135.625134,92.2552068 133.161054,92.4400955 133.161054,92.4400955 C130.309468,92.1865292 128.217871,92.1606157 125.012082,92.0724997 C125.307989,91.7917366 125.830449,90.6546756 125.190936,90.2428613 C125.024165,90.1392206 124.775386,90.0815148 124.430804,90.1008356 C124.4283,90.1009693 124.422076,90.1008142 124.419644,90.1008356 C124.414779,90.1006538 124.402044,90.1013703 124.397287,90.1008356 C124.394783,90.1003009 124.388416,90.0930025 124.386126,90.0924945 C124.376933,90.0900884 124.361373,90.0881903 124.352609,90.0841534 C124.335224,90.0753311 124.312642,90.0566332 124.296717,90.0423812 C124.292782,90.0386651 124.278223,90.0296824 124.27436,90.0256723 C124.112239,89.849261 124.02372,89.4167463 123.916651,89.3071894 C123.91522,89.30612 123.906742,89.2999444 123.90549,89.2988483 C123.90406,89.2980463 123.895618,89.2913093 123.89433,89.2905072 C123.890431,89.2886358 123.875944,89.2831018 123.871973,89.2821661 C123.870542,89.2820699 123.862136,89.2821501 123.860813,89.2821661 C123.859382,89.2824094 123.851011,89.2818988 123.849652,89.2821661 C123.849652,89.2821661 123.851011,89.2818988 123.849652,89.2821661 L123.850117,89.2818587 L123.850117,89.2818587 Z M125.370381,95.3221944 C125.37428,95.3208576 125.377607,95.3235311 125.381542,95.3221944 C128.648106,95.4412981 131.717286,95.3451056 134.983887,95.46422 C135.501599,95.7931315 135.242671,96.5465293 134.905638,96.68397 C134.890542,96.689611 134.865077,96.6976045 134.849746,96.7006789 C134.837441,96.7028177 134.817373,96.7004116 134.805032,96.7006789 C134.792691,96.7004918 134.772659,96.7028177 134.760318,96.7006789 C133.698137,96.6807352 133.083771,96.6621362 132.021625,96.6421978 C132.019837,96.602706 132.013935,96.5601049 131.999269,96.5252355 C131.747545,95.967666 129.924269,96.0049603 129.495304,96.4416909 C129.489366,96.4479735 129.478313,96.460298 129.472948,96.4667409 C129.46608,96.4754296 129.456386,96.4912028 129.450591,96.5001587 C129.443687,96.5114406 129.433349,96.5302027 129.428234,96.541931 C129.421545,96.5584795 129.420042,96.5830269 129.417073,96.6004122 C129.414212,96.6204094 129.403516,96.6461625 129.405913,96.6672478 C127.972,96.7960534 126.681457,96.6316672 125.247544,96.5920577 C124.826842,96.2006416 124.875955,95.4923712 125.370506,95.322181 C125.370506,95.322181 124.875955,95.4923712 125.370506,95.322181 L125.370381,95.3221944 L125.370381,95.3221944 Z M125.370381,95.3221944" fill="#FFFFFF" id="Shape"/></g></g></g></svg>