<?xml version="1.0" encoding="UTF-8" standalone="no"?>
<svg width="180px" height="120px" viewBox="0 0 180 120" version="1.1" xmlns="http://www.w3.org/2000/svg" xmlns:xlink="http://www.w3.org/1999/xlink">
    <!-- Generator: Sketch 40.2 (33826) - http://www.bohemiancoding.com/sketch -->
    <title>icon-flag-as</title>
    <desc>Created with Sketch.</desc>
    <defs></defs>
    <g id="Page-1" stroke="none" stroke-width="1" fill="none" fill-rule="evenodd">
        <rect id="Rectangle-path" fill="#000066" x="0" y="0" width="179.155976" height="120"></rect>
        <polygon id="Shape" fill="#BD1021" points="0 60 179.155976 0 179.155976 120"></polygon>
        <polygon id="Shape" fill="#FFFFFF" points="19.1876051 60 179.155976 6.432 179.155976 113.568"></polygon>
        <path d="M148.53822,70.7820441 C148.53822,70.7820441 147.427453,69.8684654 148.735292,68.399574 C148.018668,67.7905215 148.681545,66.6261564 148.681545,66.6261564 C148.681545,66.6261564 147.463284,66.1604104 148.735292,64.279513 C147.821596,63.6704605 148.233655,62.2911357 148.233655,62.2911357 C148.233655,62.2911357 145.24175,61.1805105 148.072414,60.105712 C145.725471,61.1267706 143.539768,58.7263872 143.539768,58.7263872 L140.135805,58.833867 C139.562506,56.0035642 135.065691,58.4576875 138.415907,50.3429586 C137.555959,50.1817388 136.588516,49.9309525 135.621074,50.6474848 C134.653632,51.3640172 131.912545,52.8866485 130.282226,51.3640172 C128.651907,49.8413859 131.357162,47.6559622 131.392993,47.6022223 C131.44674,47.5484824 134.994028,45.7213249 135.51358,44.5032199 C135.459834,43.5896411 134.349067,42.8731087 135.35234,40.9026448 C136.516854,39.0217473 143.683093,37.2483297 146.943732,36.6392772 C148.520304,35.9227449 149.236928,34.5613334 149.236928,34.5613334 L149.59524,35.8869183 C149.59524,35.8869183 156.815226,33.7552345 157.173538,32.7341759 C157.53185,31.7131173 157.334778,33.6477546 157.334778,33.6477546 C160.183358,33.3969683 163.784394,30.9607583 164.303946,32.0713834 C166.68672,31.6056374 171.273113,29.5814335 171.273113,29.5814335 C171.273113,29.5814335 172.849686,29.5276936 171.738919,31.2652845 C172.455543,32.3759097 171.541847,33.3432284 171.488101,33.3432284 C171.434354,33.3432284 171.792666,34.4538535 170.87897,35.062906 C171.183535,36.0302247 170.323587,36.7825837 170.323587,36.7825837 C170.323587,36.7825837 170.735645,37.9469488 169.105326,38.5560013 C169.266566,39.5770599 168.191631,39.7741063 168.191631,39.7741063 C168.191631,39.7741063 168.352871,40.8489048 167.636247,41.2967376 C167.636247,42.1028365 166.830045,42.5148426 166.830045,42.5148426 C166.830045,42.5148426 167.331682,42.8193688 166.632974,43.3209415 C165.91635,43.8225141 158.553039,48.3545813 158.553039,48.3008414 C158.553039,48.2471014 163.945634,49.26816 164.303946,49.4652064 C164.662258,49.6622528 168.729098,52.3671625 168.729098,52.3671625 L164.608511,57.4545422 C164.608511,57.4545422 160.040034,56.9529696 159.825046,57.2037559 C159.627975,57.4545422 160.792489,57.5620221 161.043307,57.9740282 C161.294125,58.3860343 161.706184,59.353353 162.512386,59.2458731 C163.318588,59.1383933 160.98956,60.7147645 159.466734,60.8759843 C159.466734,61.4312968 161.401619,61.4850368 161.903256,61.037204 C162.404893,60.571458 160.684995,62.3627889 160.487924,62.6135752 C160.290852,62.8643615 162.78112,62.255309 162.78112,62.255309 C162.78112,62.255309 162.369061,63.9391601 160.183358,64.4407327 C161.043307,65.8558841 160.684995,66.7873762 160.649164,66.7873762 C160.613333,66.7873762 159.233832,65.3722248 157.908078,65.6230111 C158.266389,67.0023359 159.32341,68.2741809 159.627975,68.4712273 C159.93254,68.6682737 157.2452,68.632447 156.886888,67.8621747 C156.528576,67.0919025 156.224011,69.6893323 157.191454,70.5133445 C156.080687,70.5670844 155.113244,69.904292 155.113244,69.904292 C155.113244,69.904292 154.450367,71.4269232 154.916173,72.1971955 C155.381978,72.9674678 153.3396,70.6745643 153.3396,70.6745643 L149.469831,72.3046754 L148.53822,70.7820441 L148.53822,70.7820441 L148.53822,70.7820441 Z" id="Shape" fill="#AA5323"></path>
        <path d="M118.672919,67.7546949 C118.762497,67.7546949 124.280501,67.6651283 126.824516,66.2141503 C128.096523,68.2025276 129.81642,69.5639391 129.81642,69.5639391 L130.622622,66.661983 C130.622622,66.661983 132.611254,66.7515496 132.79041,67.1993823 C132.521676,67.7367816 132.432098,68.4712273 132.432098,68.4712273 C132.432098,68.4712273 133.793683,68.5607938 133.883261,68.7399269 C133.972839,68.91906 133.524949,70.4596045 133.524949,70.4596045 L139.311687,71.821016 C139.311687,71.821016 139.759577,69.5639391 140.225383,69.8326387 C140.673273,70.1013384 142.661904,72.9137279 145.474653,73.092861 C148.287402,73.2719941 148.466558,70.7462175 148.466558,70.7462175 L149.093603,71.1044837 C149.093603,71.1044837 150.276033,68.5787071 150.455189,68.5787071 C150.634345,68.5787071 150.903079,68.9369733 152.44382,68.9369733 C152.89171,69.4743726 153.070866,70.7462175 153.070866,70.7462175 C153.070866,70.7462175 151.350969,72.4658952 151.888437,73.8273066 C152.425905,75.1887181 152.515483,74.8304519 152.515483,74.8304519 L165.002654,77.8219745 C165.002654,77.8219745 165.6297,78.8251198 164.554764,79.3625191 C164.554764,79.4520856 151.978015,76.460563 151.978015,76.460563 C151.978015,76.460563 150.795585,77.8219745 149.899805,77.5532749 C148.98611,77.2845753 149.631071,78.0906742 149.631071,78.0906742 L163.211094,79.183386 C163.211094,79.183386 164.214368,80.4552309 163.479828,80.8134971 C162.566133,80.9030637 148.806954,79.8999184 148.806954,79.8999184 C148.806954,79.8999184 148.000752,81.619596 147.087057,80.168618 C146.460011,81.1717633 145.725471,79.8999184 145.725471,79.8999184 C145.725471,79.8999184 144.543042,80.8134971 144.363886,79.8103518 C143.360612,80.5268842 142.733566,79.3625191 142.733566,79.3625191 L136.946828,79.0042529 L136.588516,79.5416522 C136.588516,79.5416522 137.59179,79.8103518 136.051048,80.4552309 C134.510307,81.0821968 145.277581,80.8134971 145.564231,80.9030637 C145.832965,80.9926302 144.847607,81.8166424 144.847607,81.8166424 C144.847607,81.8166424 150.365611,82.1749086 151.368884,81.0105435 C152.372158,79.8282651 151.010572,82.5510881 151.010572,82.5510881 C151.010572,82.5510881 155.364063,82.371955 155.364063,82.1928219 C155.364063,82.0136888 155.274485,83.5542334 152.28258,83.3751003 C154.07414,84.5036388 156.331505,85.2201711 156.331505,85.2201711 C156.331505,85.2201711 154.07414,85.7575704 151.440547,85.1306046 C151.888437,86.312883 153.877068,87.3876815 153.877068,87.3876815 C153.877068,87.3876815 152.425905,88.6595265 149.165266,85.5784373 C150.078961,87.2085484 149.344422,87.8355142 149.254844,87.6563812 C149.165266,87.4772481 147.624524,85.2201711 144.005574,84.3961589 C146.262939,85.8471369 145.277581,86.4741028 145.277581,86.4741028 C145.277581,86.4741028 144.095152,84.3961589 142.196098,86.4741028 C141.479474,84.575292 138.666726,83.4825802 135.226931,83.3034471 C134.134079,82.0316021 133.507034,82.3898683 130.963019,81.673336 C129.511855,80.0432248 127.433646,78.2339806 127.433646,78.2339806 C127.433646,78.2339806 127.523224,75.7977706 129.959745,76.0664703 C130.228479,76.8725692 130.228479,76.6038695 130.228479,76.6038695 C130.228479,76.6038695 132.95165,75.6007242 133.757852,76.9621357 C134.940281,74.8841919 136.570601,76.6576094 136.839335,77.3741418 C137.627621,77.4816217 141.551137,77.5891015 141.551137,77.5891015 C141.551137,77.5891015 141.103247,76.7830026 141.371981,76.8725692 C141.640715,76.9621357 143.808502,76.0664703 143.718924,75.7798573 C143.629346,75.5111577 143.539768,74.5975789 143.89808,74.6871455 C144.256392,74.776712 140.816597,74.2393127 138.917544,75.6902908 C138.290498,75.063325 138.738388,73.3436473 138.738388,73.3436473 L133.130806,72.1613689 L132.862072,73.6123469 C132.862072,73.6123469 131.231753,73.8810466 131.321331,73.5227804 C131.410909,73.1645142 130.963019,74.7946253 130.963019,74.7946253 C130.963019,74.7946253 128.795231,74.257226 128.795231,74.1676595 C128.795231,74.078093 129.422277,70.9074373 129.422277,70.9970038 C129.422277,71.0865704 127.612802,71.1761369 125.068787,73.0749477 C124.370079,70.835784 118.672919,67.8442614 118.672919,67.7546949 L118.672919,67.7546949 L118.672919,67.7546949 Z" id="Shape" fill="#FFC221"></path>
        <path d="M125.731664,60.3206717 C125.731664,60.3206717 121.933557,63.5808939 125.731664,65.4797047 C125.91082,64.2078597 126.179554,64.0287266 126.179554,64.0287266 C126.179554,64.0287266 129.350615,65.211005 131.249668,62.3986155 C130.443466,61.2163371 128.992303,61.6820832 128.992303,61.6820832 C128.992303,61.6820832 126.000398,61.6820832 125.731664,60.3206717 L125.731664,60.3206717 L125.731664,60.3206717 Z" id="Shape" fill="#FFC221"></path>
        <path d="M128.902725,61.7716497 L126.269132,64.0287266" id="Shape"></path>
        <path d="M125.857073,60.3564983 L125.857073,60.3564983 C125.857073,60.3564983 126.35871,59.8549256 126.51995,59.2458731 C126.681191,58.6368206 126.322879,57.9740282 126.932009,57.4187156 C127.54114,56.863403 135.567327,53.4598743 136.230204,52.7970819 C136.893081,52.1342895 138.111342,50.7191381 138.272583,50.4146118 C138.433823,50.1100856 138.881713,51.9372431 137.502212,52.7612553 C138.971291,52.3492492 139.938733,51.9014165 140.547863,52.0984629 C139.938733,52.9583017 138.308414,54.3913664 137.555959,54.3913664 C139.329603,53.728574 140.959922,53.1732614 141.425728,53.5315276 C141.891533,53.8897938 139.240025,55.6632113 138.165089,55.7706912 C139.938733,55.3049452 142.339423,54.6063261 142.643988,55.3586851 C141.676546,55.6632113 141.981111,55.9139977 139.99248,57.0425361 C139.741662,57.2395825 138.469654,57.2933225 138.469654,57.2933225 C139.99248,57.1321027 142.070689,56.5230502 142.285676,57.6515886 C141.067416,58.1173347 140.60161,58.7263872 139.598337,58.9771735 C138.577148,59.2279598 136.24812,59.6937059 134.814872,60.2490184 C133.39954,60.804331 131.303415,62.4344421 131.303415,62.4344421 C131.303415,62.4344421 126.770769,62.5956619 126.770769,62.541922 C126.770769,62.4344421 125.91082,60.4102382 125.857073,60.3564983 L125.857073,60.3564983 L125.857073,60.3564983 Z" id="Shape" fill="#FFFFFF"></path>
        <path d="M164.644342,57.2574958 L173.440901,58.9413469 C173.440901,58.9413469 174.408343,57.8307217 173.906706,57.2216692 C175.23246,56.917143 174.874148,55.179552 174.874148,55.179552 C174.874148,55.179552 176.396974,54.5167596 175.124967,52.9941283 C175.984916,52.1342895 174.927895,51.471497 174.927895,51.471497 C174.927895,51.471497 175.286207,49.9488658 174.157525,49.787646 C174.46209,48.569541 172.22264,48.1575349 172.22264,48.1575349 C172.22264,48.1575349 167.600416,49.4293798 164.339777,49.5368597 C165.414713,50.6116582 163.927718,51.2565373 163.927718,51.2565373 C163.927718,51.2565373 164.787667,51.8655898 164.536849,52.3671625 C164.28603,52.8687351 164.698089,53.441961 163.569406,53.7823139 C165.038485,54.4451063 163.408166,55.5557315 163.408166,55.5557315 C163.408166,55.5557315 165.056401,56.7021833 164.644342,57.2574958 L164.644342,57.2574958 L164.644342,57.2574958 Z" id="Shape" fill="#FFFFFF"></path>
    </g>
</svg>