<?xml version="1.0" ?><svg height="120px" version="1.1" viewBox="0 0 180 120" width="180px" xmlns="http://www.w3.org/2000/svg" xmlns:sketch="http://www.bohemiancoding.com/sketch/ns" xmlns:xlink="http://www.w3.org/1999/xlink"><title/><defs/><g fill="none" fill-rule="evenodd" id="Page-1" stroke="none" stroke-width="1"><g id="djibouti"><rect d="M0,0 L0,120 L180,120 L180,0 L0,0 Z M0,0" fill="#FFFFFF" height="120" id="Rectangle-57" width="180" x="0" y="0"/><path d="M0,90 L0,120 L180,120 L180,60 L90,60 L0,120 L0,90 L0,90 L0,90 L0,90 Z M0,90" fill="#57BB63" id="Rectangle-42"/><path d="M0,30 L0,0 L180,0 L180,60 L90,60 L0,0 L0,30 L0,30 L0,30 L0,30 Z M0,30" fill="#346DA6" id="Rectangle-42"/><path d="M37.5000002,68.3368807 L28.2607724,72.6631193 L30.0253075,63.4999999 L22.5506141,57.0106431 L32.8803876,55.6737607 L37.5000007,47.3368807 L42.1196166,55.6737628 L52.4493894,57.0106497 L44.974693,63.5000017 L46.7392283,72.6631193 L37.5000002,68.3368807 Z M37.5000002,68.3368807" fill="#CA4638" id="Star-7"/></g></g></svg>