<?xml version="1.0" ?><svg height="120px" version="1.1" viewBox="0 0 180 120" width="180px" xmlns="http://www.w3.org/2000/svg" xmlns:sketch="http://www.bohemiancoding.com/sketch/ns" xmlns:xlink="http://www.w3.org/1999/xlink"><title/><defs/><g fill="none" fill-rule="evenodd" id="Page-1" stroke="none" stroke-width="1"><g id="comoros"><rect d="M0,0 L0,120 L180,120 L180,0 L0,0 Z M0,0" fill="#FFFFFF" height="120" id="Rectangle-57" width="180" x="0" y="0"/><rect d="M0,90 L0,120 L180,120 L180,90 L0,90 Z M0,90" fill="#346DA6" height="30" id="Rectangle-42" width="180" x="0" y="90"/><rect d="M0,60 L0,90 L180,90 L180,60 L0,60 Z M0,60" fill="#CA4638" height="30" id="Rectangle-42" width="180" x="0" y="60"/><rect d="M0,0 L0,30 L180,30 L180,0 L0,0 Z M0,0" fill="#E5B731" height="30" id="Rectangle-42" width="180" x="0" y="0"/><path d="M0,0 L90,60 L0,120 L0,0 L0,0 L0,0 L0,0 Z M0,0" fill="#57BB63" id="Path-2085"/><path d="M41.3661376,78.8458187 C39.9842085,79.1648213 38.5453596,79.3333333 37.0674676,79.3333333 C26.4753736,79.3333333 17.8887858,70.677506 17.8887858,60 C17.8887858,49.3224943 26.4753736,40.6666667 37.0674676,40.6666667 C38.5453596,40.6666667 39.9842085,40.8351785 41.3661376,41.1541816 C32.8437414,43.1214827 26.4861259,50.8123037 26.4861259,60 C26.4861259,69.187696 32.8437414,76.8785173 41.3661376,78.8458187 C41.3661376,78.8458187 32.8437414,76.8785173 41.3661376,78.8458187 L41.3661376,78.8458187 L41.3661376,78.8458187 Z M41.3661376,78.8458187" fill="#FFFFFF" id="Oval-34"/><path d="M40.7048037,49.3333333 L38.1781091,50.5694015 L38.6606647,47.9513674 L36.6165256,46.0972655 L39.4414567,45.7152991 L40.7048038,43.3333333 L41.9681517,45.7152997 L44.7930826,46.0972673 L42.7489427,47.9513679 L43.2314983,50.5694015 L40.7048037,49.3333333 Z M40.7048037,49.3333333" fill="#FFFFFF" id="Star-7"/><path d="M40.7048037,58 L38.1781091,59.2360681 L38.6606647,56.6180341 L36.6165256,54.7639321 L39.4414567,54.3819657 L40.7048038,52 L41.9681517,54.3819663 L44.7930826,54.763934 L42.7489427,56.6180345 L43.2314983,59.2360682 L40.7048037,58 Z M40.7048037,58" fill="#FFFFFF" id="Star-7"/><path d="M40.7048037,66.6666667 L38.1781091,67.9027347 L38.6606647,65.2847007 L36.6165256,63.4305988 L39.4414567,63.0486324 L40.7048038,60.6666667 L41.9681517,63.048633 L44.7930826,63.4306007 L42.7489427,65.2847012 L43.2314983,67.9027347 L40.7048037,66.6666667 Z M40.7048037,66.6666667" fill="#FFFFFF" id="Star-7"/><path d="M40.7048037,74.6666667 L38.1781091,75.9027347 L38.6606647,73.2847007 L36.6165256,71.4305987 L39.4414567,71.0486327 L40.7048038,68.6666667 L41.9681517,71.0486327 L44.7930826,71.4306007 L42.7489427,73.2847013 L43.2314983,75.9027347 L40.7048037,74.6666667 Z M40.7048037,74.6666667" fill="#FFFFFF" id="Star-7"/></g></g></svg>