<?xml version="1.0" ?><svg height="120px" version="1.1" viewBox="0 0 180 120" width="180px" xmlns="http://www.w3.org/2000/svg" xmlns:sketch="http://www.bohemiancoding.com/sketch/ns" xmlns:xlink="http://www.w3.org/1999/xlink"><title/><defs/><g fill="none" fill-rule="evenodd" id="Page-1" stroke="none" stroke-width="1"><g id="rectangle_ecuador"><rect fill="#346DA6" height="30" id="Rectangle-3-copy-3" width="180" x="0" y="60"/><rect fill="#CA4638" height="30" id="Rectangle-3-copy-2" width="180" x="0" y="90"/><rect fill="#E5B731" height="60" id="Rectangle-3" width="180" x="0" y="0"/><g id="ecuador" transform="translate(62.000000, 27.000000)"><g id="flag" stroke="#262626" stroke-width="0.1" transform="translate(0.000000, 8.000000)"><path d="M23.5546474,26.7951666 L27.8740222,22.4757918 L10.7854721,5.20044043 C10.7854721,5.20044043 9.81473265,6.1711799 8.21059867,5.03902579 C9.89843583,5.20293154 10.1760639,4.59103238 10.1760639,4.59103238 L8.88990205,4.13821733 L8.19459771,1.96478186 L10.2220863,2.80603305 L10.7086411,4.05845518 C10.7086411,4.05845518 11.3574201,3.64823811 11.0309247,2.21869973 C12.5569003,3.50977752 11.3180492,4.66786332 11.3180492,4.66786332 L28.5,21.8498141 L45.6819508,4.66786332 C45.6819508,4.66786332 44.4430997,3.50977752 45.9690753,2.21869973 C45.6425799,3.64823811 46.2913589,4.05845518 46.2913589,4.05845518 L46.7779137,2.80603305 L48.8054023,1.96478186 L48.1100979,4.13821733 L46.8239361,4.59103238 C46.8239361,4.59103238 47.1015642,5.20293154 48.7894013,5.03902579 C47.1852673,6.1711799 46.2145279,5.20044043 46.2145279,5.20044043 L29.1259778,22.4757918 L29.1259778,22.4757918 L32.4453526,25.7951666 L32.4453526,25.7951666 L48.794235,9.40576608 L48.4633536,9.08623759 L48.2897219,7.81282951 L49.5473759,7.96369965 L49.8782573,8.28322814 L50.2097134,7.93999528 L50.267436,7.10911876 L52.7485805,5.94159998 L51.5949242,8.39105918 L50.8400078,8.54866343 L50.5085516,8.89189629 L50.6926696,9.06969693 L50.3952308,9.37770379 C50.3500942,9.42444411 51.8491698,10.0308249 53.1068975,9.43161011 C53.1068975,9.43161011 54.0869492,10.4469641 52.7181962,11.8643494 C51.3494433,13.2817346 50.2847743,12.3540042 50.2847743,12.3540042 C51.2479036,11.4904583 49.9370426,9.85217156 49.9370426,9.85217156 L49.6086473,10.1922349 L49.4245294,10.0144342 L33.0648426,26.4146567 L50.1267928,43.4766068 L50.3232217,44.1598949 L51.043439,44.393253 L51.873633,45.9669874 L50.2998984,45.1367936 L50.0340742,44.4490425 L49.3832523,44.2201473 L32.4148513,27.0662585 L28.119959,31.3717926 L45.3828102,48.677427 L45.5303121,49.3208933 L46.3395158,49.6685943 L46.9662671,50.916805 L45.7092215,50.2772625 L45.3151271,49.528695 L44.7376589,49.2711799 L27.5012358,31.9920488 L11.2623411,48.2711799 L10.6848729,48.528695 L10.2907785,49.2772625 L9.03373292,49.916805 L9.66048417,48.6685943 L10.4696879,48.3208933 L10.6171898,47.677427 L26.8825129,31.3717929 L23.5905779,28.0717012 L7.61674771,44.2201473 L6.96592581,44.4490425 L6.70010157,45.1367936 L5.12636701,45.9669874 L5.956561,44.393253 L6.67677828,44.1598949 L6.87320721,43.4766068 L22.9351574,27.4146567 L6.57547064,11.0144342 L6.39135269,11.1922349 L6.06295736,10.8521716 C6.06295736,10.8521716 4.75209643,12.4904583 5.71522569,13.3540042 C5.71522569,13.3540042 4.65055669,14.2817346 3.28180376,12.8643494 C1.91305083,11.4469641 2.89310255,10.4316101 2.89310255,10.4316101 C4.15083022,11.0308249 5.64990576,10.4244441 5.60476916,10.3777038 L5.30733039,10.0696969 L5.49144835,9.89189629 L5.15999223,9.54866343 L4.40507579,9.39105918 L3.25141948,6.94159998 L5.73256396,8.10911876 L5.79028655,8.93999528 L6.12174267,9.28322814 L6.45262411,8.96369965 L7.71027806,8.81282951 L7.5366464,10.0862376 L7.20576496,10.4057661 L23.5546474,26.7951666 Z M24.2067044,27.4488396 L28.5,23.1086124 L31.7987249,26.4433969 L27.5012361,30.7515363 L24.2067044,27.4488396 Z" fill="#AFBAC0" id="Rectangle-2"/><path d="M44.2457713,5 L44.2457701,15.7164361 L47.71371,12.20335 L47.71371,25.3533595 C47.71371,25.3533595 50.0370391,41.9539067 41.4465935,43.108747 C38.3938055,43.5191428 32.2344112,41.8036481 32.2344112,41.8036481 C32.2344112,41.8036481 36.1583663,46.5664647 35.0790662,47.1690604 C34.634381,47.4173374 31.8209443,47.42657 31.8209443,47.42657 L31.8209443,50 C31.8209443,50 25.146485,49.3596412 22.9354704,50 C22.7046864,50 22.9354703,47.8087333 22.9354703,47.8087333 C22.9354703,47.8087333 19.9850157,48.0504758 19.5284957,47.7955912 C18.4491956,47.1929955 21.7916031,42.363298 21.7916031,42.363298 C21.7916031,42.363298 16.7178841,45.1165467 10.9026375,41.8036481 C5.2895317,38.6059074 7.38155885,21.7255326 7.38155885,21.7255326 L7.38155885,11.4673836 L11.2774246,15.5722852 L11.2774245,5 L27.5,19.5385368 L44.2457713,5 Z" fill="#E5B731" id="Path-29"/><path d="M28.7935238,18.4091918 L41.1716163,9 L41.4905099,19.9484418 L45,16.4553642 L44.7144053,29.0400037 C44.7144053,29.0400037 45,39.632369 35.8801299,41.8025232 C33.3760131,42.3984003 29.8262972,42.1645192 29.8262972,42.1645192 L31.4096143,48.8477837 C31.4096143,48.8477837 34.0439437,50.9507218 33.1469062,51.5490929 C32.2498688,52.1474641 28.205798,51.1759412 28.205798,51.1759412 C27.8733824,51.1759412 24.3524279,52.4372885 23.4553905,51.8389174 C22.5583531,51.2405463 24.5462164,49.0818288 24.5462164,49.0818288 L26.4548195,42.1645192 C26.4548195,42.1645192 22.5648461,43.6152349 17.4973175,40.7381641 C11.0027903,37.05092 12.0644492,25.90753 12.0644492,25.90753 L12.0644492,16.4553642 L15.1101848,19.9484418 L15.1101848,9 L27.7192339,18.4091918 L28.7935238,18.4091918 Z" fill="#346DA6" id="Path-29"/><path d="M29.2221422,20.367939 L40.0164235,11 L40.0164235,18.4094084 C40.0164235,19.4348482 37.9122554,23.9622358 37.9122554,23.9622358 L43,18.4094084 L43,27.884326 C43,27.884326 42.2868547,34.4237335 38.9789963,36.8782972 C35.6711379,39.3328615 29.6950533,42.1463056 29.6950533,42.1463056 L30.3085782,51.8054641 C30.3085782,51.8054641 31.8338023,53.2348166 31.0711902,53.834628 C30.3085782,54.4344394 28.9067919,53.209672 28.9067919,53.209672 C28.6241903,53.209672 27.222404,54.4344394 26.4597919,53.834628 C25.6971799,53.2348166 27.222404,51.8054641 27.222404,51.8054641 L27.8359288,42.1463056 C27.8359288,42.1463056 22.5045148,39.3328615 19.1966564,36.8782972 C15.888798,34.4237335 15,27.884326 15,27.884326 L15,18.4094084 L19.6187267,23.9622358 C19.6187267,23.9622358 18.2180855,19.668921 18.2180855,18.6434812 L18.2180855,11.2340728 L28.3088399,20.367939 L29.2221422,20.367939 Z" fill="#CA4638" id="Path-29"/><path d="M40.3092081,20 C40.3092081,20 40.3527178,16.5470895 36.8540058,10.7586659 C38.2378601,12.4120434 39.6160437,14.9806957 39.6160437,14.9806957 C39.6160437,14.9806957 36.9720592,8.6205831 36,7.72121716 C37.5567588,9.04336978 39.7084244,13.6200871 39.7084244,13.6200871 C39.7084244,13.6200871 39.1408401,9.97855938 36,5 C37.1641409,5 40.9184463,14.0609573 40.9184463,14.0609573 C40.9184463,14.0609573 37.778225,5.37677687 37.3022995,5.24618683 C37.8881332,5.24618683 40.967936,12.6303039 40.967936,12.6303039 C40.967936,12.6303039 39.2471396,6.45285711 38.6162497,5.7390183 C39.2471396,6.19362272 41.3069401,11.5430073 41.3069401,11.5430073 C41.3069401,11.5430073 40.3161161,7.16017214 39.2471396,5.37677687 C40.3161161,6.27625726 41.9845359,11.6341114 41.9845359,11.6341114 C41.9845359,11.6341114 41.7861648,8.02726253 40.967936,5.91161233 C43.8878253,12.6303039 42.8027647,17.4469132 42.8027647,17.4469132 L40.3092081,20 Z" fill="#57BB63" id="Path-33"/><path d="M12.1788662,13.1847081 C12.1788662,13.1847081 11.3881951,15.571417 13.1316078,16.5551565 C14.7663018,17.9604011 15.792313,19 15.792313,19 C15.792313,19 15.7274612,17.8352579 14.9640585,17.526723 C14.9640585,17.526723 16.5461125,17.3049919 16.5461125,16.7262614 C15.9560435,16.8932707 14.7793434,16.7262614 14.7793434,16.7262614 C14.7793434,16.7262614 16.373372,16.2537888 16.8016075,15.2032684 C15.1761611,16.0106697 14.2155564,16.0570864 14.2155564,16.0570864 C14.2155564,15.2032684 16.6126061,14.8515343 17.1089128,14.5612836 C16.3606859,14.2765259 14.7663019,14.6802834 14.7663019,14.6802834 C15.3681558,14.4006122 16.1997536,14.4348083 16.8016075,14.155137 C17.2554441,13.9442468 17.4795367,13.4194893 17.9333733,13.2085991 C17.4980167,13.25714 16.9814691,13.4522108 16.5461125,13.5007517 C16.1080436,13.5495949 15.7511657,13.4519084 15.3130968,13.5007517 C15.6380719,13.305796 15.2540587,12.0964215 15.6043967,12 C15.8412142,11.9348221 16.1207925,12.2883174 16.5461125,12.4986957 C16.9286039,12.6878896 17.4598152,12.7406461 17.6573677,12.6221325 C18.2729858,12.2528172 18.7709351,11.4263611 19.3865532,11.0570458 C18.9665717,11.1278068 18.353355,10.9862848 17.9333735,11.0570458 C17.1552749,11.1881445 16.5704116,11.5315265 15.792313,11.6626252 C15.792313,11.6626252 19.4339773,10.2868461 19.5755368,9.60891117 C19.0232881,9.96249766 17.6573675,9.82336115 17.6573675,9.82336115 L18.7265344,9.1967349 C18.7265344,9.1967349 22.3909823,9.00099489 22.5910894,8.60207705 C22.2927942,8.12232344 20.2947163,8.581144 20.2947163,8.581144 C20.2947163,8.581144 20.2628168,8.13782177 20.8336863,7.99979685 C21.4858206,7.84212372 22.7819591,7.77661921 23,7.38170309 L21.2965417,7.38170309 C21.2965417,7.38170309 22.1103316,6.82788744 22.2927942,6.4104779 C21.6162955,6.4104779 21.1051871,7.04154105 21.1051871,7.04154105 L20.8336866,6.4104779 C20.7390628,6.63512003 20.5891123,6.81689892 20.4944885,7.04154105 C20.2843362,7.54045431 20.1295105,8.08223076 19.9193582,8.581144 L17.2822465,9.48558821 C17.7930367,9.10836634 18.5124978,8.95836588 19.0232881,8.581144 C19.3777427,8.319377 19.5235264,7.83038857 19.877981,7.56862156 C19.3720436,7.89815953 18.624619,7.79278547 18.1186815,8.12232344 C17.7187478,8.38281684 16.5461125,9.78541734 16.5461125,9.78541734 C16.5461125,9.78541734 16.7854113,8.8408447 17.1603676,8.27044751 C17.5224744,7.71959754 18.6306869,7.10054898 18.8622847,6.82788744 C19.2831471,6.33240352 19.5006299,5.49548392 19.9214923,5 C19.4416925,5.46164774 18.5984813,5.57465192 18.1186815,6.03629966 C17.7789607,6.36316796 17.2822465,7.74211557 17.2822465,7.74211557 L16.8016074,5.90774344 C16.6990542,6.55686998 16.1088657,7.3506703 16.0063125,7.99979685 C15.9139544,8.58439288 16.2168735,9.60891117 16.2168735,9.60891117 L15.6043967,11.4845806 C15.4247443,11.8116273 14.7661,11.8889391 14.5864475,12.2159858 C14.2290269,12.8666491 14.3505981,13.767047 13.9931774,14.4177102 C14.3064728,14.4177102 14.14143,13.6428741 14.2155563,13.2554561 C14.3129515,12.746424 13.9877237,11.4845806 13.9877237,11.4845806 C13.9877237,11.4845806 14.5649646,11.0651258 14.9640585,9.82336115 C15.2432252,8.95474551 15.3470422,7.34179201 15.4805024,6.6442682 L14.5864475,8.39217774 C14.5864475,8.39217774 13.8258904,7.04154105 13.7811936,6.70331304 C13.3719504,7.36206562 13.6463918,8.39217774 13.9877237,9.1967349 C14.3290556,10.001292 13.9877237,10.1019755 13.9877237,10.1019755 C13.8007556,9.99645613 13.6137874,9.89093679 13.4268193,9.78541745 L12.8955565,9.48558821 C12.9426768,9.62921563 13.0806657,10.1800015 13.293204,10.5416833 C13.4994948,10.8927335 13.7811936,11.0570458 13.7811936,11.0570458 C13.7811936,11.0570458 13.8985455,12.5428014 13.9877237,12.8146255 L12.8061629,10.4235936 C12.9033443,11.1789218 12.7089815,12.2873993 12.8061629,13.0427275 C12.9426617,14.1036446 13.5072033,15.8723295 13.5072033,15.8723295 L12.1788662,13.1847081 Z" fill="#57BB63" id="Path-34"/><polygon fill="#346DA6" id="Triangle-1" points="48 10.4873616 49 10 49 19 48 19 "/><polygon fill="#CA4638" id="Path" points="48 11.4873616 49 11 49 20 48 20 "/><polygon fill="#346DA6" id="Triangle-1" points="44 5.48736161 45 5 45 14 44 14 "/><polygon fill="#CA4638" id="Path" points="44 5.48736161 45 5 45 14 44 14 "/><g id="Group" transform="translate(10.000000, 13.000000) scale(-1, 1) translate(-10.000000, -13.000000) translate(8.000000, 5.000000)"><polygon fill="#346DA6" id="Triangle-1" points="4 7.48736161 5 7 5 16 4 16 "/><polygon fill="#CA4638" id="Path" points="3 7.48736161 4 7 4 16 3 16 "/><polygon fill="#346DA6" id="Triangle-1" points="1 -0.512638386 2 -1 2 8 1 8 "/><polygon fill="#CA4638" id="Path" points="0 0.487361614 1 0 1 9 0 9 "/></g></g><g id="oval" transform="translate(13.000000, 15.000000)"><ellipse cx="14.5" cy="16" fill="#AFBAC0" id="Oval-1" rx="11.5" ry="16" stroke="#E5B731" stroke-width="0.1"/><path d="M15,30 C20.5228478,30 25,23.5081293 25,15.5 C25,7.49187073 20.5228478,1 15,1 C9.47715223,1 5,7.49187073 5,15.5 C5,23.5081293 9.47715223,30 15,30 Z" fill="#4086CD" id="Oval-1" stroke="#262626" stroke-width="0.1"/><path d="M5,17.2357498 C5.16848792,21.8323365 6.65435846,23.9188003 6.65435846,23.9188003 C7.41578595,24.4117914 9.65614347,22.4747545 11.00674,23.0581453 C11.00674,22.4747545 7.89068312,21.9455645 7.89068312,21.9455645 C7.89068312,21.9455645 10.3180295,21.8152481 11.3587979,21.5528544 C11.3587979,21.326844 10.2529141,21.257312 9.42980516,21.0311976 C8.91569599,20.8899678 8.53350115,20.5242161 8.53350115,20.5242161 C8.53350115,20.5242161 9.67207151,20.7603723 10.2138557,20.7581398 C10.8275711,20.755611 12,20.5099322 12,20.5099322 C12,20.5099322 10.5243894,19.6602451 10.0752087,19.1865167 C9.88279233,18.9835849 10.0752087,18.4799516 10.0752087,18.4799516 C10.0752087,18.4799516 9.41702896,18.4210458 9.09843123,18.2395708 C8.55096082,17.9277286 7.47700434,17 7.47700434,17 C7.47700434,17 6.06748515,17.2357498 5,17.2357498 Z M17.0280717,16 L10,17.8940425 C10,17.8940425 10.3639945,17.8796623 10.6307032,18.1997369 C10.8851001,18.5050362 11.0319757,19.1387087 11.4583841,19.405967 C11.9638155,19.7227542 12.7341395,19.7064942 13.2539878,19.8085517 C13.4917387,19.8552274 13.5611529,20.0326957 13.7342036,20.0902957 C14.7283197,20.421188 16.5983122,20.0902957 16.5983122,20.0902957 C16.5983122,20.0902957 14.1342418,20.850387 14.4697853,21.0072701 C15.3371864,21.4128226 20.318745,21.6870264 20.318745,21.6870264 C20.318745,21.6870264 18.1183708,22.5736459 18.4253134,22.7905963 C18.7286215,23.0049778 19.7374783,23.0630479 20.6959551,23.2681894 C21.346122,23.4073437 21.8595857,23.8072129 22.3411815,23.9409784 C22.8192969,24.0737771 23.4544615,23.9409782 23.4544615,23.9409782 C23.4544615,23.9409782 24.2339091,22.2704786 24.5485072,21.00727 C24.7845213,20.0596011 25,17.5626085 25,17.5626085 L17.0280717,16 Z" fill="#57BB63" id="Path-15" stroke="#262626" stroke-width="0.1"/><path d="M5.34812114,12.9534345 C4.94678844,14.3845033 5.00264876,15.3216228 5.0026488,16.1758219 C5.0026488,16.2714993 6.36511486,16.2942587 7.44362928,16.4217844 C8.03176935,16.4913273 8.86623772,16.7608558 8.86623772,16.7608558 C8.86623772,16.7608558 7.73383605,15.8716602 8.0333739,15.5685023 C9.20323464,14.3845033 10.6142451,14.115834 10.6142451,14.115834 C10.6142451,14.115834 8.40026877,15.1086349 8.86623772,15.7948895 C9.08145621,16.111852 9.7239201,16.7139288 10.2971617,16.8809776 C11.1951121,17.1426499 11.991792,16.8930243 12.2508685,16.8809776 C13.8100165,16.8084793 15.003083,16.4217844 15.003083,16.4217844 C15.003083,16.4217844 16.0971819,16.4323388 17.3149038,16.4217844 C18.1492644,16.4145527 18.9338269,16.4969499 19.7090043,16.5524003 C20.6477507,16.6195512 20.704428,16.857078 21.4052586,16.8809776 C21.8449217,16.8959708 22.254904,16.669084 22.6945671,16.6840773 C23.0600971,16.6965425 23.2942162,16.7483906 23.6597462,16.7608558 C24.0447018,16.7739835 24.946024,16.7608558 24.946024,16.7608558 C24.946024,16.7608558 25.0835575,15.040639 24.9195457,14.4598978 L23.6597462,13.7165489 L22.1325374,14.3845033 L11.402249,12 L5.34812114,12.9534345 Z" fill="#4D7277" id="Path-14" stroke="#262626" stroke-width="0.1"/><path d="M6.75490918,13.8463387 C6.13896713,13.8458248 5.00000005,13.8463388 5,13.6530041 C4.99999997,13.4596694 7.41447927,12.2751899 7.93057545,11.6899911 C8.44667166,11.1047924 10.2933996,9.82439588 10.8782176,10.0201547 C11.4630356,10.2159135 12.4001098,10.4534557 12.4001098,10.4534557 L13.3815573,10.9640907 C13.3815573,10.9640907 14.6237835,10.7564432 15.0331562,10.9640907 C15.4425288,11.1717382 15.7047867,12.165768 16.223386,12.165768 C16.7419854,12.1657681 18.2159771,13.6497722 18.2159771,13.6497722 L19.1594228,13.653004 C19.1594228,13.653004 19.8060222,13.9311758 20.2615886,14.2545931 C20.717155,14.5780105 22,15 22,15 C22,15 18.5604963,14.9295916 18.178658,14.6274119 C18.0117991,14.495363 17.5014483,14.8169327 16.9575943,14.8317122 C16.2568972,14.850754 15.5135262,14.5886295 15.5135262,14.5886295 C15.5135262,14.5886295 14.9400225,14.883372 14.3054332,14.8317122 C13.4216902,14.7597697 12.392828,14.254593 12.392828,14.254593 C12.392828,14.254593 11.3773609,14.7416813 10.5592983,14.5886294 C9.74123576,14.4355774 8.69914466,13.6530041 8.69914466,13.6530041 C8.69914466,13.6530041 7.42996619,13.8469021 6.75490918,13.8463387 Z" fill="#FFFFFF" id="Path-13" stroke="#262626" stroke-width="0.1"/><path d="M5.76438366,7.3746527 C5.76438366,7.3746527 9.19404641,4.9999998 14.8854111,5 C20.5767757,5.0000002 23.8296376,7.13742253 23.8296376,7.13742253 L25,10 C25,10 20.8523838,7.13742273 14.8854111,7.13742253 C8.9184383,7.13742232 5,10 5,10 L5.76438366,7.3746527 Z" fill="#AFBAC0" id="Path-11" stroke="#E5B731" stroke-width="0.1"/><path d="M14.1805369,5.15171858 L14.5,4 L14.8194631,5.15171858 L15.6247552,4.25301488 L15.3987694,5.39905152 L16.4939703,4.92669902 L15.7764179,5.89340534 L17,5.93762237 L15.920145,6.5 L17,7.06237763 L15.7764179,7.10659466 L16.4939703,8.07330098 L15.3987694,7.60094848 L15.6247552,8.74698512 L14.8194631,7.84828142 L14.5,9 L14.1805369,7.84828142 L13.3752447,8.74698512 L13.6012306,7.60094848 L12.5060298,8.07330098 L13.2235821,7.10659466 L12,7.06237763 L13.079855,6.5 L12,5.93762237 L13.2235821,5.89340534 L12.5060298,4.92669902 L13.6012306,5.39905152 L13.3752447,4.25301488 L14.1805369,5.15171858 L14.1805369,5.15171858 Z" fill="#E5B731" id="Triangle-1"/><path d="M10,1.14434758 C10,1.14434758 12.6862608,-0.00660610221 14.6577026,2.85743748e-05 C16.6291443,0.00666320718 19,1.14434758 19,1.14434758 L19,3 C19,3 17.4375428,1.57249584 14.6577026,1.55452077 C11.8778623,1.53654564 10.1406881,3 10.1406881,3 L10,1.14434758 Z" fill="#C27200" id="Path-36" stroke="#262626" stroke-width="0.1"/><path d="M5.29197341,33.6543247 L5.29197341,33.3983706 L4.81443434,33.3983706 C4.81443434,33.3983706 5.08503606,31.3173666 6.38835261,31.4103144 C6.38835261,31.4103144 6.31539213,29.9999999 4.32500751,30 C2.3346229,30.0000001 2.28453651,31.4103144 2.28453651,31.4103144 C3.6025015,31.8987985 4.21379161,33.3983706 4.1481558,33.3983706 L3.71563251,33.3983706 L3.71563251,33.6543247 L3.23364258,33.6543247 L2.58939303,33.2207644 L0,34.0924308 L2.58939303,35.0661901 L3.23364258,34.5305369 L3.71563251,34.5305369 L3.71563251,34.9905162 L4.48850661,36 L5.29197341,34.9905162 L5.29197341,34.5305369 L27,34.5305369 L27,33.6543247 L5.29197341,33.6543247 Z" fill="#AFBAC0" id="Rectangle-2" stroke="#262626" stroke-width="0.1"/><rect fill="#C27200" height="5" id="Rectangle-1" rx="2" stroke="#262626" stroke-width="0.1" width="16" x="7" y="32"/><path d="M12.3350043,30.0725059 C12.4007496,29.7851543 12.3350043,29.0149704 12.3350043,29.0149704 C12.3350043,29.0149704 13.790284,29.3336495 14.5,29.3312479 C15.2649442,29.3286594 16.7589849,29 16.7589849,29 C16.7589849,29 16.7192018,29.5799475 16.7589849,29.8651547 C16.7995402,30.155898 17,30.7278516 17,30.7278516 C17,30.7278516 16.1633398,31.2187485 15.8354294,31.5346889 C15.3772621,31.9761312 14.641767,33 14.641767,33 C14.641767,33 13.9075406,31.9694633 13.4519089,31.5346889 C13.0269517,31.1291847 12,30.4791643 12,30.4791643 C12,30.4791643 12.2890816,30.2732189 12.3350043,30.0725059 Z" fill="#C27200" id="Path-35" stroke="#262626" stroke-width="0.1"/></g><g id="ship" transform="translate(23.000000, 36.000000)"><path d="M4.23809524,3.79021121 C4.23809524,3.90611638 4.18473639,4 4.1189853,4 C4.05323421,4 4,3.90589413 4,3.79021121 L4,1.20934239 C4,1.09365947 4.05323421,1 4.1189853,1 C4.18473639,1 4.23809524,1.09388172 4.23809524,1.20934239 L4.23809524,3.79021121 L4.23809524,3.79021121 Z" fill="#84848A" id="path5361"/><path d="M7,4 C6.92963567,3.40879074 6.74599367,2.97595257 6.52134426,3.00103679 C6.51877373,3.00131826 6.51641821,3.00195462 6.5138379,3.00226056 C6.15551757,3.0488403 6.13019532,3.49887549 6,3.8880006 L7,4 Z" fill="#A3A5A8" id="path5469"/><path d="M3,4 L2.97407698,3.64498186 L2.8842629,3.64498186 L2.8842629,3.6923821 L2.62817491,3.66868198 L2.61534433,3.75163241 L2.55119141,3.75163241 L2.53207646,3.64498186 L2.44854674,3.65102781 L2.44854674,3.6923821 L2.35244828,3.6923821 L2.34642577,3.60943168 L2.26289605,3.60943168 L2.26289605,3.54437727 L2.16051322,3.53833132 L2.14113642,3.31390568 L2.08981409,3.31390568 L2.08981409,3.00580411 L2.0193768,3 L2.03849175,3.65683192 L2,3.66263603 L2,3.7337364 L2.04477612,3.7337364 L2.02566117,3.9528416 L3,4 Z M1.9972202,3.99995846 L2,3.57036693 L1.96309756,3.58896397 L1.93765594,3.58896397 L1.9177724,3.55175768 L1.9149926,3.57979252 L1.82147689,3.58895664 L1.81010166,3.49565866 L1.75348763,3.51398688 L1.75062451,3.57953104 L1.67985772,3.58869515 L1.66856961,3.50483498 L1.64868531,3.50483498 L1.64868531,3.03746533 L1.61760001,3.04692269 L1.60335939,3.60730929 L1.57505313,3.61647341 L1.57505313,3.5417749 L1.53823705,3.53231754 L1.5326017,3.67255532 L1.49005482,3.65395828 L1.49292552,3.52316076 L1.45324404,3.52316076 L1.44760869,3.67256021 L1.20682786,3.69088843 L1.21820384,3.01859704 L1.1785216,3 L1.1813014,3.67257976 C1.1813014,3.67257976 1.02552797,3.50457595 1,3.4204323 L1.09351723,3.78420352 C1.0934483,3.78518102 1.40506333,3.98110971 1.99724595,4 L1.9972202,3.99995846 Z" fill="#2F2311" id="polygon5597"/><path d="M8,3.35186858 L8.0639731,3.48324805 L8,3.48324805 L8,3.35186858 Z M5.00557975,3.48324805 L4.88645087,3.48324805 L2.56627394,3.43509572 C2.56627394,3.43509572 1.55504933,3.39484578 1.05917579,3.31434379 C0.563447677,3.23384392 0,3 0,3 C0.00487774429,3.2498954 0.110802016,3.3787943 0.197408361,3.50794199 C0.208631033,3.52449317 0.229570585,3.54251182 0.257454808,3.56078348 C0.444090947,3.68449774 0.95353852,3.8375951 1.11686316,3.88648538 C1.30453148,3.9430356 1.97376185,4.00723731 2.42640752,3.99933702 C2.64502983,3.99551573 3.83193251,3.985986 5.00010494,3.97715821 L5,3.98662494 L5.00001003,3.98662494 C5.23770554,4.01923141 6.54262115,3.98508331 7.35118499,3.95997092 C7.4319344,3.95939834 7.47647775,3.95908497 7.47647775,3.95908497 L7.47647775,3.95602895 C7.78821188,3.94609605 8,3.93841896 8,3.93841896 L8,3.86602701 C8.72015075,3.80553356 9.91262531,3.66103724 9.91262531,3.66103724 C9.91906033,3.64499208 9.92678236,3.61634273 9.93504492,3.58275965 C9.95791498,3.48966822 9.9846203,3.35237145 9.99523809,3.29631882 C9.9983269,3.28077969 10,3.27162488 10,3.27162488 L8,3.32138681 L8,3.16840682 C7.02909346,3.19155392 5.01093639,3 5.01093639,3 L5.00557975,3.48324805 Z" fill="#FFE600" id="path5365"/><path d="M9.98854095,3.02611423 C9.98012098,3.0666072 9.97225357,3.10005737 9.96562284,3.11913131 C9.96562284,3.11913131 7.65749456,3.44454327 7.47530745,3.38732647 L7.47530745,3.47300761 C7.47530745,3.47300761 2.77565766,3.51173925 2.31294872,3.52142279 C1.85023846,3.5308182 1.16612772,3.4542243 0.974436576,3.38732647 C0.807330426,3.3289321 0.286403971,3.14700938 0.0957692676,3 L0,3.02317535 C0,3.02317535 0.206772103,3.34712162 0.348239443,3.50879786 C0.39182463,3.5583881 0.429530309,3.59330646 0.452756271,3.59771103 C0.550938386,3.6170781 0.787421143,3.80839123 0.905512541,3.80839123 C1.02360262,3.80839123 2.46059947,4 2.46059947,4 C2.46059947,4 4.74413881,3.96155899 5.13777374,3.98063293 C5.53140998,4 8.366039,3.94248505 8.366039,3.94248505 C8.366039,3.94248505 8.12985752,4.01936206 8.40540367,3.94248505 C8.68110376,3.86560553 9.5768044,3.73180234 9.70469586,3.67428989 C9.74512487,3.65610038 9.78961915,3.58420669 9.8313901,3.49471226 C9.92173375,3.3007584 10,3.02346598 10,3.02346598 C9.99763188,3.02421761 9.99302721,3.02521979 9.9885541,3.02617186" fill="#034EA2" id="path5665"/><path d="M3.37007425,1.43168003 C3.26354187,1.44773451 3.18610966,1.28919883 3.08733601,1.49565538 C3.08441697,1.49978473 3.08166715,1.50411777 3.07908654,1.50845082 C3.01151563,1.61211425 2.97611342,1.75654902 3.01814482,1.86476585 C3.04287771,1.92960965 3.1591064,1.98794649 3.21164636,1.99748844 C3.34097266,2.02069244 3.44556325,1.87972966 3.45801078,1.71447591 C3.51879457,1.81553766 3.69548411,1.8194411 3.78471799,1.82594622 C3.9402339,1.83700104 3.98307332,1.79970724 4.00780481,1.58175332 C4.09881691,1.75351219 4.17156172,1.76695758 4.32772348,1.73117479 C4.50619266,1.68997014 4.71440504,1.66112578 4.8448623,1.48416355 C4.89465244,1.5850068 4.96594337,1.64030865 5.05356261,1.64182522 C5.13002603,1.6433066 5.22976706,1.62532632 5.30105799,1.5895602 C5.36006355,1.56028438 5.42521039,1.45054914 5.48550767,1.43558347 C5.53174137,1.52731807 5.62275488,1.49197044 5.68402376,1.50780086 C5.79815412,1.60148903 5.92198078,1.65874075 6.10546027,1.52817912 C6.15363576,1.49369625 6.32499206,1.57849242 6.38528934,1.54032646 C6.42732074,1.51386712 6.43540381,1.45878377 6.47064385,1.43080787 C6.54565339,1.50801381 6.66721815,1.42821545 6.747238,1.40066359 C6.81109313,1.40501515 6.90000408,1.39112719 6.92295876,1.28767671 C7.0343393,1.19854379 7.00200843,1.12393952 6.96725348,1.08143311 C6.79007743,0.986445027 6.66641012,0.986445027 6.50055065,1.14497701 C6.44590955,1.1261116 6.41907409,1.12807073 6.37979392,1.2223959 C6.30898809,1.07796297 6.18321822,1.03654352 6.05389192,1.14042175 C5.9447747,1.05822726 5.88771093,1.11851211 5.79944583,1.12286737 C5.62243195,0.945032985 5.30493735,0.968457343 5.08540697,1.14021806 C4.83613338,0.985809885 4.75983213,1.07450765 4.59510361,1.23954475 C4.50231329,1.18511135 4.38802076,1.21849986 4.28633794,1.22893435 C4.19419629,1.23826705 4.14634373,1.39288818 4.06584018,1.34105462 C3.88801687,1.22633267 3.80185574,1.40177833 3.66735694,1.39375479 C3.52138081,1.22611416 3.37007002,1.4317041 3.37007002,1.4317041" fill="#FFFFFF" id="path5699"/><path d="M4.38461767,0.818551695 L4.39668794,0.843024743 C4.39668794,0.843024743 4.40958014,0.794370712 4.42153386,0.794370712 C4.43360413,0.794370712 4.46489462,0.830642186 4.46489462,0.830642186 L4.47134532,0.78198312 L4.52677737,0.818549177 L4.52396605,0.753677976 C4.52396605,0.753677976 4.56006134,0.766065568 4.55900735,0.758084131 C4.55818951,0.750102695 4.55536797,0.703236305 4.55536797,0.703236305 C4.55536797,0.703236305 4.59872873,0.707365502 4.60154209,0.710915605 L4.59791293,0.660491558 C4.59791293,0.660491558 4.66107968,0.679954178 4.65885108,0.668749953 C4.65603976,0.65432294 4.64584336,0.609772929 4.64584336,0.609772929 C4.64584336,0.609772929 4.69670574,0.622160521 4.71779983,0.622160521 C4.73889494,0.622160521 4.73631671,0.638073038 4.73631671,0.638073038 L4.73631671,0.597674884 L4.81741456,0.591481088 L4.80452237,0.544891656 L4.86546255,0.541064595 L4.83956264,0.472059161 C4.83956264,0.472059161 4.96226392,0.571434339 5,0.482407332 C5,0.482407332 4.94374705,0.490388769 4.88093299,0.439652515 C4.81811688,0.388933886 4.75928569,0.375073379 4.73631671,0.360918289 C4.71323016,0.346491276 4.66061045,0.308137579 4.63119486,0.275700719 C4.60166272,0.243555924 4.55970762,0.194020663 4.56298817,0.194904412 C4.57036916,0.197422215 4.58420085,0.193141949 4.58420085,0.193141949 C4.58420085,0.193141949 4.4467335,0.0654591095 4.37665193,0.0392160459 C4.37665193,0.0392160459 4.28735115,-0.00678421996 4.24574773,0.0678283624 C4.24574773,0.0678283624 4.22641097,0.128275784 4.21070847,0.14449799 C4.19500291,0.160989602 4.16195612,0.215562988 4.15914173,0.223816347 C4.15645309,0.231495647 4.14894942,0.207299557 4.10839692,0.268049115 C4.10839692,0.268049115 4.09925758,0.276911782 4.09632665,0.273638638 C4.09632665,0.273638638 4.01757395,0.17662516 3.92417171,0.268049115 L3.91737343,0.276030551 C3.91737343,0.276030551 3.87975492,0.233867417 3.8501042,0.233867417 C3.84647504,0.233867417 3.81506392,0.189340066 3.80955681,0.180784571 C3.80404662,0.173105271 3.80674549,0.178770328 3.80674549,0.178770328 C3.80674549,0.178770328 3.76900941,-0.015256628 3.69881027,0.000963060724 C3.6287287,0.0171777138 3.59649974,0.0593458832 3.58642193,0.0655396792 C3.57622962,0.0717334753 3.50520753,0.132477997 3.49044147,0.140439291 C3.47579194,0.148420728 3.44438389,0.182899526 3.44438389,0.182899526 C3.44438389,0.182899526 3.3807479,0.251605342 3.36598183,0.257504555 C3.35121576,0.263673173 3.26554824,0.312646964 3.26179743,0.312646964 C3.25804559,0.312646964 3.26999625,0.322692999 3.27292923,0.322692999 C3.27292923,0.322692999 3.2064809,0.37134703 3.16851072,0.383437521 C3.13089118,0.395522977 3.01463651,0.439760781 3.00537858,0.434153633 C2.99611656,0.427985015 3.00162675,0.43213939 3.00162675,0.43213939 C3.00162675,0.43213939 3.03502521,0.475191308 3.13171004,0.453968744 C3.15010936,0.450141683 3.16217963,0.451954502 3.16944612,0.450141683 C3.17682711,0.448127441 3.17870814,0.448127441 3.1730855,0.451904146 C3.16747308,0.456310301 3.13077873,0.500558176 3.13077873,0.500558176 C3.13336514,0.498543934 3.23203323,0.498543934 3.21375148,0.508539613 C3.20637049,0.51266881 3.18152354,0.553064446 3.18152354,0.553064446 L3.27738747,0.557193643 L3.26437873,0.589338438 C3.26437873,0.589338438 3.35203769,0.599686609 3.36129664,0.595532234 L3.34559312,0.640354168 C3.34559312,0.640354168 3.39071326,0.635645876 3.42118284,0.613524456 L3.40641677,0.670139781 C3.40641677,0.670139781 3.4645436,0.663945984 3.4701693,0.662158344 L3.44708275,0.72083575 C3.44708275,0.72083575 3.48774771,0.735010982 3.49782654,0.730881785 C3.50801885,0.726752587 3.50333673,0.726752587 3.50333673,0.726752587 L3.48587588,0.763316126 L3.54763596,0.763316126 L3.54118526,0.793690905 L3.59556332,0.767435253 L3.60939194,0.807830888 C3.60939194,0.807830888 3.6527527,0.761538557 3.65732339,0.763600638 L3.68498063,0.811960086 C3.68498063,0.811960086 3.71263889,0.755344761 3.71638868,0.753280163 L3.71990539,0.7515177 C3.71990539,0.7515177 3.7300977,0.809608458 3.74205449,0.824352714 C3.74205449,0.824352714 3.76232972,0.787786657 3.76795338,0.789851255 C3.77346356,0.791865498 3.78365792,0.828182292 3.78365792,0.828182292 L3.79830744,0.795750468 L3.83346426,0.828182292 C3.83346426,0.828182292 3.84084525,0.77953078 3.85092613,0.785427475 C3.86100598,0.791621271 3.90401405,0.984175312 3.99987899,0.998624985 C4.12105603,1.0166021 4.16887094,0.852363275 4.16887094,0.852363275 L4.2049652,0.795750468 L4.20953488,0.848825761 L4.24727095,0.806070944 L4.24835459,0.832326597 C4.24835459,0.832326597 4.29534859,0.781607967 4.29710694,0.759491583 L4.31374688,0.822006121 C4.31374688,0.822006121 4.34468672,0.772171241 4.34785073,0.773644156 C4.35253286,0.776363383 4.35711275,0.808145614 4.38207113,0.818171507" fill="#FFFFFF" id="path5747" stroke="#999B9E" stroke-width="0.13325042"/><path d="M5.01332903,4 C5.01332903,4 5.06271088,3.77961857 5.24931281,3.73723648 C5.43613204,3.69485599 5.63278265,3.56790431 5.63278265,3.40666675 C5.63278265,3.24580714 5.52484515,3.15238222 5.40685326,3.10152435 C5.40685326,3.10152435 5.76082893,2.89828426 5.76082893,2.60180902 C5.76082893,2.30514079 5.38696938,2.14390645 5.38696938,2.14390645 C5.38696938,2.14390645 5.95704306,1.95761951 5.99637242,1.71162259 C6.03592288,1.46600201 5.74094315,1.17781116 5.65244923,1.09323836 C5.56417451,1.00847578 5.42651794,1 5.42651794,1 L5.48551579,1.10171413 L5.36752199,1.0589573 C5.36752199,1.0589573 5.42586226,1.19815463 5.5838411,1.31361978 C5.70052163,1.39856893 5.90831689,1.57619192 5.84932095,1.71162259 C5.790325,1.847428 5.26941398,2.06780942 5.26941398,2.06780942 L5.26941398,2.25409636 C5.26941398,2.25409636 5.64283514,2.44885907 5.63300375,2.61876057 C5.62316855,2.78828413 5.29891195,2.98323501 5.29891195,2.98323501 L5.27925489,3.152572 C5.27925489,3.152572 5.50518809,3.27971346 5.49535671,3.41533231 C5.48552151,3.55113772 5.24953963,3.61875897 5.24953963,3.61875897 C5.24953963,3.61875897 4.96439319,3.7287607 5.00372446,3.97475924" fill="#2F3B30" id="path6023"/><path d="M4.98666514,4 C4.98666514,4 4.93749894,3.77961857 4.75067352,3.73723648 C4.56406539,3.69485599 4.36718905,3.56790431 4.36718905,3.40666675 C4.36718905,3.24580714 4.47535124,3.15238222 4.59334514,3.10152435 C4.59334514,3.10152435 4.23936153,2.89828426 4.23936153,2.60180902 C4.23936153,2.30514079 4.61301238,2.14390645 4.61301238,2.14390645 C4.61301238,2.14390645 4.04270058,1.95761951 4.00358911,1.71162259 C3.96425845,1.46600201 4.25924416,1.17781116 4.34752372,1.09323836 C4.43601867,1.00847578 4.57368171,1 4.57368171,1 L4.51446461,1.10171413 L4.63246041,1.0589573 C4.63246041,1.0589573 4.57433551,1.19815463 4.41613413,1.31361978 C4.29944973,1.39856893 4.09186677,1.57619192 4.15064547,1.71162259 C4.20986067,1.847428 4.73078898,2.06780942 4.73078898,2.06780942 L4.73078898,2.25409636 C4.73078898,2.25409636 4.35713813,2.44885907 4.36696985,2.61876057 C4.3770341,2.78828413 4.70129003,2.98323501 4.70129003,2.98323501 L4.72117266,3.152572 C4.72117266,3.152572 4.49479546,3.27971346 4.50462908,3.41533231 C4.51446461,3.55113772 4.75045241,3.61875897 4.75045241,3.61875897 C4.75045241,3.61875897 5.03560641,3.7287607 4.99627574,3.97475924" fill="#2F3B30" id="path6025"/><path d="M9.9256002,3.16418838 C9.80330741,3.22124864 8.94912792,3.35399981 8.68626244,3.43027487 C8.42325764,3.50654745 8.64871112,3.43027487 8.64871112,3.43027487 C8.64871112,3.43027487 5.94456956,3.48733513 5.56891081,3.46812282 C5.19339639,3.44947973 3.01497702,3.48733762 3.01497702,3.48733762 C3.01497702,3.48733762 1.64413058,3.29723536 1.5313323,3.29723536 C1.41882143,3.29723536 1.19336794,3.10771476 1.09941811,3.08849995 C1.07740566,3.08385161 1.04143572,3.04919785 1,3 L1.06287461,3.10392897 L1.05122768,3.1749616 C1.10978363,3.41164671 1.5834222,3.91761746 1.5834222,3.91761746 L3.10692001,4 C3.10692001,4 9.85367286,3.68093235 9.85367286,3.60989973 C9.85367286,3.53886461 10,3.19854385 10,3.19854385 C10,3.19854385 9.96431872,3.14643271 9.92561275,3.16419087" fill="#ED1C24" id="path6031"/></g><g id="bird" transform="translate(5.000000, 0.000000)"><path d="M28.4015633,10.6128854 C28.5290878,10.5373752 28.5264492,9.93990562 28.5120095,9.56933876 C28.8639643,10.0875986 29.3990979,10.3601538 29.6203857,10.3308719 C29.8025862,10.3067751 29.7846184,9.73820336 29.7516867,9.35681168 C30.2373528,9.90842459 30.7277158,10.0167588 30.9577704,9.93550332 C31.1357059,9.87274383 31.0319703,9.41943728 30.9177458,9.06009236 C31.5981775,9.4635636 32.125612,9.23318517 32.2414808,9.13826724 C32.3482227,9.05074366 32.0677813,8.52196279 31.8577302,8.16149378 C32.5953078,8.62831917 33.296149,8.62629353 33.4731298,8.50377138 C33.6230055,8.39999276 33.2940711,7.87107442 32.9928413,7.44696472 C33.8838632,7.92454599 34.6688138,7.94439204 34.7532498,7.80025294 C34.822615,7.68221434 34.4906939,7.18907663 34.1924463,6.78684021 C36.3124121,8.1854361 36.525051,7.37513788 36.525051,7.37513788 L36.024845,6.69902983 C37.032785,7.01167474 37.8070412,7.08864279 37.8833149,7.02785493 C37.9382786,6.98409455 37.7829069,6.8104066 37.5729095,6.6147969 C39.2252006,7.14518506 39.7082981,6.80871657 39.877606,6.75262643 C40.0293516,6.70220916 39.6525395,6.39568419 39.3249362,6.15730493 C40.2692796,6.46952188 40.9246469,6.63681777 40.9246469,6.63681777 C42.1811648,6.68200568 41.8619362,6.33421623 41.2915902,6.0002784 C42.6735591,6.41993167 43.6704312,6.58042592 43.6149229,6.41761765 C43.5440614,6.20929054 42.9834009,5.81234995 42.4985501,5.50038687 C43.5316115,5.94263472 44.2373738,6.14561939 44.6955136,6.2421705 C45.6554474,6.44447654 45.218208,6.10080249 45.218208,6.10080249 L43.9794334,5.43464866 C44.5476682,5.64172591 44.9753762,5.75711413 45.2878442,5.82297613 C46.2479471,6.02528095 45.8106947,5.68160812 45.8106947,5.68160812 L44.0856944,4.75398531 C44.8593987,5.26862296 47,5.64565241 47,5.64565241 C47,5.64565241 45.0511877,4.40005372 44.5548882,4.2208522 C44.0587318,4.0416519 39.5343163,2.32833923 39.5343163,2.32833923 L39.3213627,2.38041213 L37.0225518,1.76150107 L33.340954,1.16043087 L29.7364268,1.29047004 L28.5444599,3.27990967 L26.3190709,4.15775462 L24.9206227,4.37191809 L20.7699961,4.68128294 L19.4787691,4.23882857 L18.3247445,3.63213939 L17.8821397,2.58813311 L17.0479153,1.22143685 L13.4264495,1.08224675 L11.490699,1.2058941 L11.3795641,1 C11.3795641,1 10.8672446,1.20796486 10.1026272,1.51724981 L9.93405915,1.45789219 L8.5563044,2.10872138 L7.44629406,2.07766029 C3.72821852,3.31040779 0,5.76593796 0,5.76593796 C0.0527549276,5.74890357 0.290678048,5.66077164 0.65906025,5.52248086 C0.812243788,5.50493627 1.20371677,5.45682266 1.67358859,5.37406177 C1.67133091,5.46139561 1.78511658,5.56585976 2.3273026,5.57879491 C2.56527971,5.58447246 2.86678331,5.57311464 3.23871444,5.52406793 C3.09211649,5.63188266 2.98613312,5.73057678 2.95304765,5.80752585 C2.87939484,5.97849796 4.06448506,5.8673266 5.65842364,5.48971557 C5.15057258,5.78040088 4.94272611,6.07347629 6.1069697,6.09574857 C6.1069697,6.09574857 6.85060887,5.9490211 7.90234191,5.65814727 C7.60269637,5.91317254 7.28992206,6.21527905 7.43570618,6.25632246 C7.61580626,6.30709828 8.15631233,6.64921646 9.96805601,5.9232376 C9.65556972,6.19688815 9.33503083,6.50688995 9.41166137,6.56663867 C9.4898514,6.62768323 10.2828429,6.54196064 11.3062946,6.2112099 L10.7497941,6.94467915 C10.7497941,6.94467915 10.9326332,7.76255727 13.1022057,6.44767251 C12.7894245,6.83803881 12.4396409,7.31793597 12.5045903,7.43852951 C12.582888,7.58391822 13.348197,7.59626118 14.2405809,7.17146225 C13.9355738,7.58631498 13.6166351,8.08517402 13.7580161,8.19128886 C13.9304805,8.32065643 14.6308435,8.35001689 15.3849945,7.91228601 C15.1619411,8.2643351 14.8625245,8.78166432 14.9659592,8.87329331 C15.1092864,9.0000142 15.9146164,9.37349406 16.9027409,8.37429556 C16.8673732,8.57705066 16.6130442,10.1051388 16.9705616,10.1655326 C17.339007,10.2279127 18.3570883,9.72074396 18.831667,8.73044624 C18.8378985,8.73404353 18.7035713,9.09682484 18.7035713,9.09682484 C18.7035713,9.09682484 18.5668213,10.3786678 18.7492063,10.49621 C18.9179962,10.6051256 19.3209154,10.6535621 19.8135096,9.8584873 C19.7982432,10.3063458 19.7920838,10.8302469 19.8430633,10.8961997 C17.6845316,12.3190255 16.8368106,17.8483917 16.9705621,16.8888583 C16.9705621,16.8888583 23.0590796,13.5503549 24.920622,11.7517875 L27.2767774,9.83228114 C27.7865944,10.7505846 28.2210466,10.719716 28.4015633,10.6128854 Z" fill="#452C25" id="path6119" stroke="#262626" stroke-width="0.1"/><path d="M20.2311888,4.19464763 C19.3018326,4.24342563 18.3854279,3.67945104 18.3854279,3.67945104 C17.2341992,3.47337216 17.1671714,2.52254282 17.1671714,2.52254282 C16.7065606,2.36229045 16.3104167,1.28185298 16.3104167,1.28185298 C15.5969048,1.67095705 14.7039985,1.28607795 14.7039985,1.28607795 C14.7039985,1.28607795 14.7039985,1.12582558 13.8983061,1.28607795 C13.0924599,1.44633031 13.2305835,1.14873884 13.2305835,1.14873884 C13.2305835,1.14873884 13.5529209,0.851006932 12.1257485,1.14873884 C10.6985748,1.44633031 12.2409768,0.759494337 12.2409768,0.759494337 C11.8266073,0.873920188 10.4684192,0.965573216 10.4684192,0.965573216 C9.97000125,0.986096724 9.46420157,1.21073066 8.91336542,1.35411436 C8.57054242,1.44337883 7.98400794,1.5474019 7.68742761,1.66309284 C6.89619371,1.97206893 5.31041218,2.63599165 4.0007254,3.10550216 C2.27892915,3.72275457 0.91441576,4.19240552 1.00418913,4.17258417 C1.11173479,4.14882832 2.8738991,3.12925921 5.08100946,2.21511869 C7.13041595,1.3660631 9.48287917,0.58040605 10.6689022,0.272693854 C12.2079891,-0.193163023 13.4685702,0.0293632288 14.1835879,0.266368403 C14.5288206,0.380794255 16.433476,0.212809715 17.2849605,0.30432231 C18.1367458,0.395834905 18.2254641,1.67532245 18.2254641,1.67532245 C18.3866341,1.76697427 18.4441727,2.96900685 18.4441727,2.96900685 C18.4441727,2.96900685 17.972262,2.98052949 18.5247564,3.04913243 C19.0772507,3.1178722 20.0900536,3.85053469 20.0900536,3.85053469 C20.4352864,3.85053469 20.4744496,3.83943214 20.4744496,3.83943214 C20.4744496,3.83943214 20.6750824,3.60833112 20.951478,3.51175817 C21.2275741,3.41504478 21.4809259,3.31833139 21.7915141,3.29696409 C22.1022547,3.27531592 22.5410266,3.27278574 22.8516161,3.30498193 C23.1623554,3.33731374 23.5292786,3.33984392 23.9666932,3.41504958 C24.4041104,3.49025523 24.4500482,3.51176297 24.5881731,3.554638 C24.7262954,3.59765227 24.8499604,3.56981909 24.8499604,3.56981909 C25.41872,3.35263526 26.4735491,2.96887362 26.7163566,3.01287331 C26.7163566,3.01287331 27.1143137,2.92150115 27.3283408,2.76940225 C27.5423809,2.61730336 28.0319141,2.25195634 28.0319141,2.25195634 C28.0319141,2.25195634 27.6940617,0.0787113503 30.1109945,0.29167861 C32.5279273,0.504785101 35.7324728,0.788179718 36.3750401,0.87955068 C37.0173052,0.970782411 39.318559,1.57130658 39.8692428,1.81477764 C40.4199265,2.0582487 42.0024048,2.70586328 42.7065694,2.99038135 C42.9924556,3.10579143 44.0813276,3.54648453 44.8871777,3.83718763 C46.096393,4.2733833 47,5 47,5 C46.2422005,4.70718802 45.6296041,4.3723448 45.0293587,4.13421617 C44.5438988,3.94163319 44.0361413,3.85208784 43.6410539,3.69183548 C42.8032751,3.35179267 42.1578435,3.04211202 41.650086,2.82605285 C39.7782659,2.02971215 39.795439,1.99780163 39.0371928,1.94354078 C38.5145222,1.90600817 39.4127026,2.5259312 39.4127026,2.5259312 C39.4127026,2.5259312 37.6994876,1.91725355 37.1488039,1.70428749 C36.5982647,1.4911798 36.13932,1.39994807 35.6192115,1.43031144 C35.0991031,1.46081644 34.7012958,1.3695847 34.3955297,1.27821374 C34.089606,1.18684038 32.3456712,1.12611365 32.039603,1.09560985 C31.7338369,1.06524648 31.4890638,1.00437812 31.4890638,1.00437812 L31.6113781,1.18684038 L30.7547706,1.06524648 L30.5099975,1.39994807 C30.5099975,1.39994807 29.6839784,1.55204817 29.6226702,1.30857711 C29.5615196,1.06524648 29.133137,2.40405523 28.9189523,2.79976562 C28.7047545,3.19533557 27.7275014,3.06418148 27.4827414,3.30765254 C27.2379682,3.5511236 26.7159046,3.71404537 26.593748,3.77491374 C26.4712879,3.8357821 26.1001495,3.80710512 25.8859583,3.80710512 C25.5672355,3.80710512 25.8388142,3.81146212 25.3159925,3.90227256 C25.3159925,3.90227256 24.8644203,3.89833565 24.6918032,3.83395408 C24.5191875,3.76957251 24.1393089,3.66962558 23.9480156,3.61972173 C23.6868327,3.55154489 22.2337508,3.52132196 22.0266416,3.53200561 C21.8193814,3.54268806 21.4690269,3.64066774 21.2388713,3.72655704 C21.0088668,3.81244635 20.6057946,4.03806451 20.6057946,4.09176363" fill="#DCDDDE" id="path7253" stroke="#262626" stroke-width="0.05"/><path d="M26.7284406,7.70449088 C26.6153128,7.59869565 26.7737522,7.49306227 26.7737522,7.49306227 C26.7737522,7.49306227 26.4796791,6.72624916 26.2985866,6.59420743 C26.117494,6.46200386 26.3210938,6.35620862 26.3210938,6.35620862 C26.3210938,6.35620862 26.0043675,5.82739293 25.7781132,5.66894287 C25.5518603,5.51016909 25.7781132,5.48376075 25.7781132,5.48376075 C25.7781132,5.48376075 25.5416432,4.7738148 24.9902242,4.44849 C24.9902242,4.44849 24.624633,4.31332188 24.2517878,4.19991125 C23.878497,4.08633877 22.9537898,3.98103048 21.8358471,4.00290141 C20.6580822,4.02590807 20.1587819,4.62346569 20.1587819,4.62346569 L20.0835631,5.63783663 L20.2532529,5.51405772 L20.0041956,6.77679713 C19.9648089,7.06566901 20.2153464,7.56758941 20.2292654,8.17125457 C20.2335666,8.36226893 20.2446646,8.56219491 20.2648029,8.766982 C20.3184057,9.30859516 20.4367143,9.8837465 20.6666705,10.4135333 C20.6845859,10.4553329 20.7013194,10.5781393 20.7232338,10.5382833 C20.7808342,10.4323263 20.9099528,10.8958501 21.0261883,11.062076 C21.0261883,11.062076 21.0959304,11.6923114 21.1516063,11.4586868 C21.1732236,11.3679591 21.362163,11.8156048 21.4788454,12.0963757 C21.5211926,12.198606 21.7440408,12.8923514 21.735601,12.5764238 C21.7262752,12.230848 21.9313527,13.3126176 21.9313527,13.4678264 L22.2029172,13.0448074 L22.3386969,13.520805 L22.5648039,13.4942348 L22.496989,13.9436622 C22.496989,13.9436622 23.1305862,13.3886014 23.1533893,13.1770109 C23.175748,12.9655823 23.1985523,12.8069704 23.1985523,12.8069704 L23.4021508,12.59538 L23.7190256,12.0665656 C23.7190256,12.0665656 24.5112107,12.7275835 24.6015342,12.9655823 C24.6920049,13.2034193 24.782774,13.4150098 24.782774,13.4150098 L24.9863725,13.2034193 L25.1673165,13.6792551 L25.2805915,13.4414181 L25.3904604,13.7717659 L25.4724901,13.9694231 C25.5271288,14.0243453 25.6538784,14.0520499 25.8913857,13.6264398 C26.2307678,13.018399 26.2084091,12.5425633 26.2307678,12.436768 C26.2534222,12.3309728 26.3892045,12.6217883 26.3892045,12.6217883 C26.3892045,12.6217883 26.6834261,12.0401559 26.6381146,11.6701154 C26.5928043,11.299913 26.8193479,11.4321166 26.8193479,11.4321166 C26.8193479,11.4321166 26.8645174,10.4538749 26.8193479,10.215876 C26.7738943,9.97803909 26.9774992,10.0310176 26.9774992,10.0310176 C26.9774992,10.0310176 26.909674,8.86775426 26.8417066,8.73555068 C26.7737522,8.6033471 27,8.57693876 27,8.57693876 C27,8.57693876 26.8417195,7.81028611 26.7284406,7.70449088 L26.7284406,7.70449088 Z" fill="#452C25" id="path6255" stroke="#262626" stroke-width="0.1"/><path d="M21.055632,5.9094046 C21.055632,5.9094046 20.9753962,5.11532725 21.2027884,5.02964675 C21.2027884,5.02964675 21.2831969,4.30180086 22.2738727,4.40167318 C22.2738727,4.40167318 22.6084777,3.8593816 23.1438464,4.14480672 C23.1438464,4.14480672 23.652585,3.90230862 23.9470737,4.04493441 C24.2417366,4.18773524 24.6029702,4.43023334 24.6297715,4.48735367 C24.6297715,4.48735367 25.0579243,4.40167318 25.2588637,4.55866732 C25.4598016,4.71565996 25.3660781,5.22939287 25.3660781,5.22939287 C25.3660781,5.22939287 25.847838,5.59051216 25.8879559,5.9094046 C25.9280738,6.22829703 25.9280738,6.35672951 25.820861,6.44223497 C25.820861,6.44223497 26.0351109,6.61359596 25.9949961,6.85609407 C25.9547024,7.09876871 25.7539388,7.45060183 25.7138224,7.45060183 C25.673703,7.45060183 25.7406252,8.08330601 25.5265481,8.29741899 C25.3122967,8.51153197 25.111533,8.55428544 25.0179853,8.58284561 C24.9242602,8.61140578 24.6832045,8.95377769 24.455638,8.99670471 C24.2280716,9.03945669 23.9202693,8.65415776 23.893465,8.53991709 C23.8666622,8.42585147 23.5588615,8.29741899 23.5588615,8.29741899 C23.5588615,8.29741899 22.8626728,9.02526488 22.3944006,8.91102421 C21.9257784,8.79695859 21.6982119,8.41148461 21.6582713,8.34017246 C21.6179777,8.26885882 21.4841363,7.7409341 21.4841363,7.7409341 C21.4841363,7.7409341 20.9620826,7.44114062 21.002199,7.15588904 C21.0423184,6.87046242 21.2565713,6.52791547 21.2565713,6.52791547 L21.055632,5.9094046 L21.055632,5.9094046 Z" fill="#DCDDDE" id="path6819" stroke="#979797" stroke-width="0.1"/><path d="M18.0588577,7 C18.0588577,7 17.7234897,6.32884771 18.6538249,6 C18.6538249,6 18.9350349,6.17803526 19,6.30131452 C19,6.30131452 18.8377837,6.61639629 18.307651,6.69868548 C18.307651,6.69868548 18.0696637,6.78082014 18.0588577,7 L18.0588577,7 L18.0588577,7 Z" fill="#D9C0B9" id="path7187" stroke="#000000" stroke-width="0.1"/><path d="M18.3028203,6 C18.3028203,6 17.8296636,5.82986115 18.0662419,5.54473039 C18.3028203,5.25959967 18.2541546,5.41074346 18.2541546,5.41074346 C18.2541546,5.41074346 18.2642478,5.00000006 18.4564677,5 C18.6486877,4.99999995 18.6822458,5.32026144 18.6822458,5.32026144 C18.6822458,5.32026144 18.8566581,5.04125816 18.9410034,5.29299428 C19.0253488,5.54473039 18.9944907,5.75857843 18.9944907,5.75857843 L18.3028203,6 Z" fill="#CA4638" id="Path-32" stroke="#262626" stroke-width="0.1"/><path d="M21.1873282,5.20358915 C20.975702,5.25675103 20.4966116,5.30991167 20.329608,5.30991167 C20.1624747,5.30991167 19.906228,5.1637193 19.7280036,5.1238482 C19.5497791,5.08397709 18.9704877,5.01752568 18.7588626,5.25675103 C18.5472375,5.49597639 18.4135049,5.57571734 18.3467034,5.65545955 C18.2799008,5.73520175 18.0115228,5.99604177 18.000953,6.11156483 C17.9903912,6.226942 18.0682768,6.39971593 18.2018809,6.39971593 C18.3356135,6.39971593 18.6165189,6.71138092 18.6161274,6.77651673 C18.6154445,6.88517617 18.9830129,7.0021595 19.3295452,6.99996972 C19.954372,6.99617877 20.2618926,6.65077056 21.1985468,6.77184413 C21.7085602,6.83771069 22.6466506,6.39971593 22.8139137,6.13391026 C22.9809184,5.86810458 23.0812503,5.58900813 22.914117,5.28333135 C22.7469825,4.97765458 22.2461038,5.00905464 22.2012205,5 C22.2012205,5 21.3989522,5.15042851 21.1873282,5.20358915 L21.1873282,5.20358915 Z" fill="#DBA05F" id="path7155" stroke="#262626" stroke-width="0.1"/><path d="M18,7.9679613 C18,7.9679613 18.388872,8.1189505 18.6514548,7.7653705 C18.8667142,7.475592 18.9436499,7.60777239 18.9997642,7.63039462 C18.9997642,7.63039462 19.0111227,7.27020571 18.8761784,7 C18.8761784,7 18.6031842,7.41484211 18.4009064,7.52744753 C18.1988974,7.64005513 18.0620624,7.60268928 18,7.9679613 L18,7.9679613 L18,7.9679613 Z" fill="#D9C0B9" id="path7191" stroke="#000000" stroke-width="0.1"/><path d="M20,6.05566962 C20,6.10948687 19.7764735,6.17902057 19.5004539,6.2109043 C19.2239805,6.24267411 19,6.2249236 19,6.17110635 C19,6.11717519 19.2235305,6.04764149 19.4995461,6.01575873 C19.7755617,5.98398795 20,6.00173846 20,6.05566962" fill="#000000" id="path7183"/><path d="M25.7652008,13.1684015 C25.7652008,13.3448316 25.7413582,13.609328 25.6231584,13.7635558 C25.5051294,13.9179312 25.3867587,14.0061463 25.197707,14.0061463 C25.008486,14.0061463 24.5121843,13.9840928 24.4176592,14.1383207 C24.3231326,14.2926961 24.2519406,14.3809111 24.2519406,14.3809111 C24.2519406,14.3809111 23.9579489,14.6674622 24.005126,14.8218376 C24.2519406,14.5351389 24.4885111,14.6674609 24.4885111,14.6674609 C24.4885111,14.6674609 24.7722572,14.7115691 25.0319899,14.5792459 C25.2920642,14.4470728 25.4339358,14.4250193 25.5523065,14.4250193 C25.6706757,14.4250193 25.7652008,14.535139 25.7652008,14.535139 C25.7652008,14.535139 25.8360527,14.8657969 25.81221,15.0642805 C25.7885368,15.2626152 25.7413582,15.6595824 26.0014311,15.6595824 L26.2099309,16 C26.2099309,16 26.5450807,15.6373801 26.4979036,15.7035404 C26.4979036,15.7035404 26.5450807,15.2846687 26.4505542,15.0422258 C26.3560291,14.7997842 26.3086826,14.535139 26.3086826,14.535139 C26.3086826,14.535139 27.1125745,14.7777307 27.1834264,14.8657969 C27.2544491,14.954012 27.4434978,15.1083874 27.5143496,15.086334 C27.5852015,15.0642805 27.7461983,15.086334 27.8689432,15.302365 C28.163821,15.086334 27.8689431,14.8878504 27.8689431,14.8878504 C27.8689431,14.8878504 27.6325509,14.4250193 27.2779515,14.2706426 C26.923352,14.1164161 26.6869538,14.1162659 26.5450807,13.9840928 C26.4032062,13.8517709 26.3793636,13.697543 26.3560291,13.5431663 C26.3323543,13.3887909 26.3623285,12.0561776 26.3623285,12.0561776 L25.7531948,12 C25.7531963,12 25.7652008,12.9921202 25.7652008,13.1684015 Z" fill="#BD8759" id="path6817" stroke="#000000" stroke-width="0.1"/><path d="M21.8686791,14.7172108 C21.8686791,14.7172108 21.322379,15.0886035 21.260728,15.2636606 C21.199237,15.4387177 21.1820089,15.6072483 21.1820089,15.6072483 L21.1820089,16 C21.1820089,16 21.637335,15.6891465 21.6113348,15.7922355 C21.6113348,15.7922355 21.7700402,15.8725278 22.0223253,15.3581395 C22.2742946,14.8436094 22.5128292,14.6215958 22.6916088,14.6364921 C22.8703912,14.6513873 23.0981731,14.8041713 23.2129355,14.9115612 C23.3280137,15.0190916 23.4862434,15.0992435 23.6854157,15.0488819 C23.6854157,15.0488819 23.7881913,14.9115612 23.9413369,15.0476051 C24.0733288,14.9864632 23.9413369,14.6584805 23.9413369,14.6584805 C23.9413369,14.6584805 23.774569,14.3097848 23.4162169,14.2594245 C23.0578648,14.2089213 22.8096903,14.1212511 22.8947317,13.9842138 C22.9799344,13.8471752 23.4383484,12.783642 23.4383484,12.783642 L22.8308717,12 L22.5874392,12.6817852 C22.5874392,12.6817852 22.6666327,13.084813 22.6697945,13.1880882 C22.672966,13.2912217 22.1867229,14.1723212 22.1212785,14.2233913 C22.0559955,14.2746031 20.7534717,14.7169274 20.5984011,14.7604779 C20.4438061,14.8041713 20.1195958,15.1427939 20.1195958,15.1427939 L20,15.4238198 C20,15.4238198 20.3009071,15.2402538 20.370775,15.3334559 C20.370775,15.3334559 20.5217351,15.1659173 20.6573632,15.2287623 C20.7929899,15.2916073 21.0125535,15.1759904 21.0552334,15.1076134 C21.0977548,15.0389518 21.1092949,15.0476052 21.1092949,15.0476052 C21.1092949,15.0476052 21.3163697,15.0150678 21.4940462,14.9886812 L21.8686791,14.7172108 Z" fill="#BD8759" id="path6813" stroke="#000000" stroke-width="0.1"/></g></g></g></g></svg>