<?xml version="1.0" ?><svg height="120px" version="1.1" viewBox="0 0 180 120" width="180px" xmlns="http://www.w3.org/2000/svg" xmlns:sketch="http://www.bohemiancoding.com/sketch/ns" xmlns:xlink="http://www.w3.org/1999/xlink"><title/><defs/><g fill="none" fill-rule="evenodd" id="Ameria" stroke="none" stroke-width="1"><g id="Group" transform="translate(-1000.000000, -400.000000)"><g id="Bahamas" transform="translate(1000.000000, 400.000000)"><rect d="M0,0 L0,120 L180,120 L180,0 L0,0 Z M0,0" fill="#4086CD" height="120" id="Oval-15-copy" width="180" x="0" y="0"/><rect d="M-1.42108547e-14,0 L-1.42108547e-14,80 L180,80 L180,0 L-1.42108547e-14,0 Z M-1.42108547e-14,0" fill="#E5B731" height="80" id="Oval-15-copy" width="180" x="-1.59877022e-14" y="0"/><rect d="M-1.42108547e-14,0 L-1.42108547e-14,40 L180,40 L180,0 L-1.42108547e-14,0 Z M-1.42108547e-14,0" fill="#4086CD" height="40" id="Oval-15-copy" width="180" x="-1.59877022e-14" y="0"/><polygon d="M0,0 L64,60 L0,120 L0,0 Z M0,0" fill="#262626" id="Oval-15-copy-2" points="0 0 64 60 0 120 "/></g></g></g></svg>