<?xml version="1.0" encoding="UTF-8" standalone="no"?>
<svg width="180px" height="120px" viewBox="0 0 180 120" version="1.1" xmlns="http://www.w3.org/2000/svg" xmlns:xlink="http://www.w3.org/1999/xlink">
    <!-- Generator: Sketch 40.2 (33826) - http://www.bohemiancoding.com/sketch -->
    <title>icon-flag-gt</title>
    <desc>Created with Sketch.</desc>
    <defs></defs>
    <g id="Page-1" stroke="none" stroke-width="1" fill="none" fill-rule="evenodd">
        <rect id="Rectangle-8" fill="#306FC5" x="0" y="0" width="60" height="120"></rect>
        <rect id="Rectangle-8-copy" fill="#306FC5" x="120" y="0" width="60" height="120"></rect>
        <rect id="Rectangle" fill="#FFFFFF" x="60" y="0" width="60" height="120"></rect>
        <path d="M74.259766,38.771484 C73.952606,38.992172 73.674567,39.219731 73.423828,39.451172 C71.755621,40.969489 71.311749,42.620781 71.845703,43.115234 C71.244515,43.937826 70.735926,44.813044 70.283203,45.71875 L70.294922,44.699219 C70.228568,45.019055 70.277436,45.39679 70.279297,45.726562 C69.829118,46.628118 69.436126,47.560815 69.095703,48.517578 L68.972656,46.662109 C69.046117,46.68679 69.120478,46.703418 69.199219,46.699219 C69.869862,45.050097 69.390726,41.00461 69.068359,40.5 C69.063367,40.510599 69.06159,40.520663 69.056641,40.53125 C69.057078,40.524363 69.056201,40.518611 69.056641,40.511719 C67.633555,43.532288 67.966861,46.064283 68.808594,46.585938 C68.860148,46.620234 68.915486,46.641358 68.970703,46.660156 C68.972832,47.268677 69.035029,47.971818 69.09375,48.521484 C69.06483,48.602801 69.036085,48.684016 69.007812,48.765625 L68.695312,48.382812 C68.76953,48.333601 68.826067,48.262136 68.826172,48.166016 C68.826172,48.014083 68.703995,47.890625 68.552734,47.890625 C68.401583,47.890625 68.279297,48.014028 68.279297,48.166016 C68.279463,48.317892 68.401804,48.441184 68.552734,48.441406 C68.605561,48.441503 68.645642,48.410781 68.6875,48.384766 C68.78505,48.540341 68.886726,48.681178 69.005859,48.771484 C68.703423,49.644995 68.448722,50.537684 68.205078,51.433594 L68.205078,51.435547 C68.124638,51.731374 68.033087,52.023516 67.957031,52.320312 C67.853484,52.723225 67.787784,53.132026 67.736328,53.542969 C67.490745,52.732965 66.899285,51.221516 65.380859,49.515625 C65.43616,51.529508 65.882608,52.853845 66.429688,53.585938 C66.171146,54.981589 66.163734,56.239932 66.345703,57.195312 C65.415175,55.662676 64.270536,54.258499 63.908203,54.068359 C63.909051,54.078025 63.911243,54.086057 63.912109,54.095703 C63.91004,54.091554 63.908319,54.088136 63.90625,54.083984 C64.226133,57.629322 65.780363,59.881149 66.917969,60.220703 C67.163469,60.297476 67.38758,60.278945 67.578125,60.173828 C67.613552,61.388918 67.844171,62.568443 68.193359,63.720703 L67.291016,62.648438 C67.323825,62.619617 67.356517,62.591393 67.382812,62.554688 C66.656125,61.112634 63.657481,59.140143 63.125,59.078125 C63.120113,59.073346 63.116218,59.069238 63.111328,59.064453 C63.637172,60.252443 64.287227,61.154529 64.923828,61.773438 L64.925781,61.775391 C65.00433,61.852032 65.08025,61.902579 65.158203,61.970703 C65.285301,62.081117 65.413565,62.201614 65.537109,62.289062 C66.284417,62.823271 66.946532,62.942598 67.285156,62.652344 C67.553487,63.085131 67.849466,63.465308 68.199219,63.734375 C68.245183,63.885623 68.288268,64.037141 68.337891,64.1875 L67.755859,63.994141 C67.771704,63.955816 67.78125,63.913256 67.78125,63.869141 C67.78125,63.690084 67.63687,63.544922 67.458984,63.544922 C67.280932,63.544922 67.136719,63.690028 67.136719,63.869141 C67.136719,64.048253 67.280987,64.193359 67.458984,64.193359 C67.588358,64.193359 67.698775,64.11661 67.75,64.005859 C67.911618,64.085104 68.093726,64.154558 68.339844,64.191406 C68.775676,65.5111 69.334932,66.794475 69.900391,68.0625 C69.64234,67.742855 69.384928,67.457563 69.126953,67.271484 C69.147621,67.252305 69.171085,67.237195 69.189453,67.214844 C69.04865,66.881118 68.788696,66.512491 68.482422,66.140625 C68.593944,66.135693 68.718362,66.144683 68.818359,66.128906 L68.820312,66.128906 C69.027658,65.477892 68.207843,64.747468 66.734375,64.435547 C65.920059,63.76172 65.151179,63.236508 64.904297,63.193359 C64.913385,63.218577 64.92439,63.238673 64.933594,63.263672 C64.913796,63.241426 64.896789,63.223534 64.876953,63.201172 C65.017658,63.592991 65.175687,63.948603 65.339844,64.287109 C64.645485,64.275635 63.879283,64.336252 63.039062,64.519531 L63.041016,64.521484 C63.034271,64.522927 63.028237,64.52198 63.021484,64.523438 C63.033225,64.525552 63.042965,64.527177 63.054688,64.529297 C63.322973,64.803203 64.801591,65.456795 66.306641,65.849609 C67.148566,66.933644 68.041431,67.488832 68.638672,67.453125 C68.83369,67.453212 68.995706,67.389135 69.121094,67.275391 L69.916016,68.095703 C70.073581,68.448993 70.230862,68.805454 70.384766,69.15625 C70.215348,69.072625 69.991239,68.999666 69.714844,68.9375 C69.724554,68.910824 69.738623,68.885909 69.744141,68.857422 C68.484494,67.922865 64.957773,67.500502 64.460938,67.658203 C64.466224,67.662561 64.471276,67.665581 64.476562,67.669922 C64.474482,67.669258 64.472784,67.668633 64.470703,67.667969 C66.721932,69.517385 68.923788,69.773786 69.5625,69.169922 C69.633686,69.104983 69.681346,69.025929 69.712891,68.941406 L70.388672,69.164062 C70.424642,69.246073 70.462478,69.330213 70.498047,69.412109 C71.044565,70.656615 71.837667,71.719811 72.738281,72.710938 C71.174324,71.647008 68.772075,70.736256 68.310547,70.773438 C68.318316,70.784068 68.326202,70.792159 68.333984,70.802734 C68.32297,70.79579 68.313761,70.790166 68.302734,70.783203 C70.281463,73.46809 72.635209,74.385937 73.494141,73.902344 C73.586009,73.854094 73.656786,73.78689 73.714844,73.708984 C74.426342,74.412213 75.159005,75.102483 75.890625,75.802734 C74.182665,74.744731 70.206059,74.242635 69.630859,74.4375 C69.641429,74.446267 69.651542,74.452228 69.662109,74.460938 C69.653814,74.458232 69.646974,74.455837 69.638672,74.453125 C72.215931,76.583511 74.745652,77.013656 75.714844,76.464844 C75.927393,76.348578 76.062251,76.186214 76.115234,75.986328 C76.660546,76.4259 77.441194,76.623052 77.892578,77.160156 C78.034413,77.319522 78.352883,77.514282 78.423828,77.550781 C79.283407,77.983755 80.230393,78.229969 81.154297,78.542969 C79.002764,78.693508 74.994208,81.357885 74.619141,81.990234 C74.6352,81.990363 74.650003,81.98821 74.666016,81.988281 C74.654032,81.993223 74.644814,81.998965 74.632812,82.003906 C78.374262,82.034125 80.830135,80.536641 81.234375,79.314453 C81.264467,79.232438 81.28136,79.153334 81.292969,79.074219 L81.292969,79.072266 C81.319012,78.89262 81.296076,78.721983 81.222656,78.566406 C81.583501,78.690226 81.941142,78.823737 82.287109,78.986328 C82.806877,79.243653 83.314296,79.708666 83.822266,79.794922 C83.836981,79.797301 83.850542,79.800345 83.865234,79.802734 L82.5625,80.189453 C82.552081,80.160299 82.547625,80.129557 82.533203,80.101562 C82.532592,80.103191 82.52804,80.105759 82.527344,80.107422 C82.524568,80.101775 82.524423,80.095441 82.521484,80.089844 C80.732148,80.182144 77.322218,82.448968 77.005859,82.982422 C77.960075,82.989821 78.815202,82.877396 79.554688,82.6875 C81.690612,82.1502 82.83868,80.975983 82.564453,80.193359 C83.126138,80.099139 83.497274,79.95113 83.884766,79.806641 C86.055763,80.160588 87.976004,80.627311 89.90625,81.634766 C90.213293,81.79402 90.533447,81.989863 90.734375,82.308594 L91.076172,82.099609 C90.875189,81.780878 90.545136,81.585146 90.25,81.425781 C88.639637,80.574973 87.02887,80.122884 85.28125,79.789062 C85.141627,79.439504 84.923862,79.115209 84.650391,78.810547 C84.915458,78.513291 84.978901,77.9887 84.822266,77.324219 C84.78774,77.173474 84.714043,76.999936 84.65625,76.835938 C84.610585,76.708011 84.585192,76.591647 84.525391,76.457031 C84.107268,75.508902 83.333178,74.403291 82.160156,73.326172 C81.966311,73.148215 81.760548,72.970532 81.544922,72.794922 L81.542969,72.794922 C81.32691,72.618998 81.101536,72.445332 80.863281,72.273438 C80.843312,72.636755 81.303624,73.990848 81.986328,75.421875 C81.278612,74.671492 80.341445,73.907645 79.107422,73.238281 C79.145733,73.908081 81.375401,77.940451 83.128906,79.015625 C83.239102,78.947301 83.318064,78.848815 83.378906,78.734375 L83.970703,79.521484 C83.52745,79.36824 83.082458,78.991167 82.628906,78.777344 C81.376701,78.176827 79.984117,77.944696 78.767578,77.332031 C78.73346,77.316754 78.649508,77.264939 78.566406,77.210938 C78.779418,77.332437 78.995294,77.366908 79.201172,77.294922 C79.449452,75.309042 77.773384,71.140372 77.289062,70.699219 C77.286529,70.713448 77.287638,70.726037 77.285156,70.740234 C77.282223,70.725627 77.278319,70.713851 77.275391,70.699219 C76.815747,73.322764 77.230461,75.398591 77.886719,76.482422 C78.005809,76.681732 78.137996,76.837141 78.269531,76.96875 C78.259865,76.958362 78.242927,76.949787 78.234375,76.939453 C77.750163,76.375324 76.875447,76.202746 76.332031,75.675781 C75.575669,74.956997 74.817869,74.250012 74.083984,73.527344 C74.18095,73.490086 74.26358,73.428584 74.328125,73.339844 C74.744402,72.790107 74.472034,71.271338 73.242188,69.662109 C73.344604,68.692408 73.150332,67.326898 72.441406,65.808594 C72.441765,65.814105 72.44105,65.818712 72.441406,65.824219 C72.437384,65.81558 72.435696,65.807476 72.431641,65.798828 C72.158444,66.22456 71.731104,69.695673 72.3125,71.128906 C72.432658,71.136009 72.545667,71.100605 72.650391,71.03125 C72.70214,70.998416 72.744181,70.932739 72.791016,70.882812 C73.077094,71.818604 73.480645,72.797442 73.935547,73.378906 C72.688701,72.135605 71.552722,70.820224 70.839844,69.189453 C70.547662,68.519434 70.240333,67.842802 69.939453,67.162109 C70.242775,67.063352 70.453946,66.726803 70.554688,66.238281 C70.586435,67.132191 70.697907,67.996164 70.949219,68.566406 C71.220579,68.580027 71.457726,68.409551 71.634766,68.099609 C72.16952,67.219675 72.170533,65.078128 70.900391,62.591797 C70.761284,62.822345 70.615648,63.832027 70.566406,64.980469 C70.478344,64.316143 70.250033,63.5518 69.845703,62.724609 C70.327764,61.984335 70.747888,60.878271 70.878906,59.455078 C70.876113,59.460598 70.873886,59.465189 70.871094,59.470703 C70.872076,59.460412 70.874048,59.451729 70.875,59.441406 C70.622981,59.56863 69.8368,60.526255 69.1875,61.578125 C69.140927,61.507759 69.109701,61.439829 69.060547,61.369141 C69.059151,61.372149 69.058015,61.381536 69.056641,61.384766 C69.050352,61.375665 69.047348,61.366527 69.041016,61.357422 C69.045156,61.375966 69.04667,61.391652 69.050781,61.410156 C69.013726,61.509251 68.988991,61.702024 68.970703,61.943359 C68.743374,62.341843 68.542278,62.741394 68.412109,63.105469 C68.261905,62.564402 68.142174,62.015275 68.054688,61.460938 C68.991997,61.681802 70.325215,59.899398 70.521484,56.857422 C70.554783,56.389624 70.56207,55.895651 70.535156,55.371094 C70.334153,55.505401 69.900283,56.129898 69.439453,56.955078 C69.716198,56.129908 69.884566,55.092379 69.853516,53.873047 C69.904981,53.845677 69.951732,53.830644 70.003906,53.800781 C70.771502,53.370088 71.61238,52.673923 72.384766,51.667969 C71.930159,51.610113 69.452457,52.415075 68.074219,53.380859 C68.118611,53.014523 68.17722,52.651146 68.261719,52.291016 C68.538132,52.149893 68.806731,51.998104 69.03125,51.804688 L68.263672,52.283203 C68.276988,52.226685 68.28435,52.169627 68.298828,52.113281 C68.854178,49.946295 69.520299,47.799057 70.474609,45.806641 C70.877382,45.626941 71.330091,45.367992 71.572266,44.994141 L70.490234,45.773438 C70.928603,44.862145 71.42871,43.983328 72.009766,43.152344 C73.10834,42.22616 74.294749,39.255618 74.259766,38.771484 L74.259766,38.771484 L74.259766,38.771484 Z M69.03125,51.804688 L69.033203,51.804688 C69.4734,52.097692 70.262049,51.952744 71.140625,51.361328 C72.157883,50.688852 73.296322,49.429364 74.150391,47.580078 C73.830951,47.607025 72.786196,48.16786 71.693359,48.925781 C72.386461,48.037685 73.035624,46.777129 73.421875,45.142578 C73.414724,45.152573 73.407538,45.159944 73.400391,45.169922 C73.404081,45.154564 73.410419,45.142374 73.414062,45.126953 C72.786747,45.322263 69.577193,48.364299 69.035156,50.212891 C69.155317,50.316175 69.302476,50.372544 69.46875,50.386719 C69.607002,50.403096 69.761421,50.383338 69.923828,50.337891 C69.459761,50.775952 69.071788,51.218182 68.853516,51.625 C68.856059,51.628379 68.860689,51.629488 68.863281,51.632812 C68.860578,51.632724 68.854117,51.636945 68.851562,51.636719 C68.902126,51.70391 68.962704,51.758837 69.03125,51.804688 L69.03125,51.804688 L69.03125,51.804688 Z M68.205078,51.433594 C68.121996,51.017116 68.02029,50.738741 67.910156,50.513672 C67.964621,50.509374 68.019081,50.50453 68.072266,50.486328 C68.300701,48.563739 66.677849,44.534438 66.220703,44.099609 C66.217658,44.116637 66.217812,44.131457 66.214844,44.148438 C66.212249,44.135275 66.209621,44.124511 66.207031,44.111328 C65.617797,47.405588 66.468554,49.807785 67.408203,50.371094 C67.573744,50.47839 67.740278,50.525157 67.904297,50.513672 L68.205078,51.433594 L68.205078,51.433594 L68.205078,51.433594 Z M71.345703,39.8125 C71.339826,39.820439 71.335916,39.828001 71.330078,39.835938 C71.331398,39.831094 71.332662,39.827112 71.333984,39.822266 C69.622219,42.134218 69.568942,44.31593 70.291016,44.689453 C70.345599,44.721498 70.403345,44.746192 70.466797,44.755859 C71.258052,43.544562 71.516589,40.265856 71.345703,39.8125 L71.345703,39.8125 L71.345703,39.8125 Z M69.746094,45.462891 C69.594888,45.462891 69.472656,45.588191 69.472656,45.740234 C69.472656,45.892388 69.594888,46.015625 69.746094,46.015625 C69.897189,46.015625 70.019531,45.892388 70.019531,45.740234 C70.019531,45.588191 69.897189,45.462891 69.746094,45.462891 L69.746094,45.462891 L69.746094,45.462891 Z M70.664062,46.318359 C70.512857,46.318359 70.388672,46.441596 70.388672,46.59375 C70.388672,46.745848 70.512856,46.869141 70.664062,46.869141 C70.815268,46.869141 70.9375,46.745848 70.9375,46.59375 C70.9375,46.441596 70.815269,46.318359 70.664062,46.318359 L70.664062,46.318359 L70.664062,46.318359 Z M68.830078,54.269531 C68.542683,54.880365 68.249791,55.59539 68.009766,56.316406 C67.994999,56.109526 67.982805,55.902737 67.957031,55.695312 C67.956713,55.2336 67.977479,54.776684 68.001953,54.320312 C68.230884,54.363916 68.51127,54.344006 68.830078,54.269531 L68.830078,54.269531 L68.830078,54.269531 Z M68.759766,58.3125 C68.574921,58.718953 68.402965,59.130338 68.261719,59.537109 C68.213267,59.50776 68.158372,59.486347 68.097656,59.486328 C68.030949,59.486328 67.973281,59.511912 67.921875,59.546875 C67.923715,59.357129 67.909524,59.170103 67.921875,58.978516 C67.922262,58.972668 67.921494,58.966785 67.921875,58.960938 C68.089129,58.922329 68.259662,58.830158 68.427734,58.685547 C68.541272,58.591383 68.65104,58.452147 68.759766,58.3125 L68.759766,58.3125 L68.759766,58.3125 Z M67.214844,58.861328 C67.330579,58.927367 67.452225,58.969 67.583984,58.974609 C67.580177,59.045519 67.58282,59.116632 67.578125,59.1875 C67.561213,59.449903 67.575548,59.705866 67.578125,59.964844 C67.510458,59.627788 67.383636,59.255195 67.214844,58.861328 L67.214844,58.861328 L67.214844,58.861328 Z M67.921875,60.074219 C67.969577,60.106647 68.022746,60.130112 68.083984,60.132812 C68.037155,60.303265 67.988182,60.474374 67.957031,60.634766 C67.940522,60.44865 67.929182,60.262036 67.921875,60.074219 L67.921875,60.074219 L67.921875,60.074219 Z M68.990234,63.621094 C69.029038,64.226707 69.095397,64.846202 69.214844,65.453125 C68.990942,64.891605 68.793298,64.321602 68.611328,63.748047 C68.729659,63.739159 68.857643,63.696085 68.990234,63.621094 L68.990234,63.621094 L68.990234,63.621094 Z M74.208984,68.693359 C74.027018,69.327214 74.789457,73.816852 76.048828,75.384766 C76.274148,75.330816 76.450026,75.17261 76.568359,74.929688 C77.08922,73.897694 76.531947,71.286037 74.226562,68.701172 C74.229911,68.710191 74.232986,68.717551 74.236328,68.726562 C74.226323,68.715308 74.219056,68.704612 74.208984,68.693359 L74.208984,68.693359 L74.208984,68.693359 Z M71.421875,68.962891 C71.243934,68.962891 71.099609,69.107997 71.099609,69.287109 C71.099609,69.466111 71.243934,69.611328 71.421875,69.611328 C71.599927,69.611328 71.744141,69.466111 71.744141,69.287109 C71.744141,69.108052 71.599927,68.962947 71.421875,68.962891 L71.421875,68.962891 L71.421875,68.962891 Z M69.955078,69.462891 C69.777137,69.463113 69.632648,69.608107 69.632812,69.787109 C69.632978,69.965999 69.777357,70.111217 69.955078,70.111328 C70.133075,70.111439 70.277178,69.966221 70.277344,69.787109 L70.277344,69.785156 C70.277178,69.605932 70.133075,69.462669 69.955078,69.462891 L69.955078,69.462891 L69.955078,69.462891 Z M81.132812,77.382812 C80.954926,77.382812 80.810547,77.527918 80.810547,77.707031 C80.810547,77.886032 80.954926,78.03125 81.132812,78.03125 C81.310864,78.03125 81.455078,77.886032 81.455078,77.707031 C81.455078,77.528029 81.310754,77.382812 81.132812,77.382812 L81.132812,77.382812 L81.132812,77.382812 Z M83.447266,77.923828 C83.762453,78.356051 84.083005,78.746134 84.402344,79.001953 C84.496773,78.958924 84.5741,78.893041 84.642578,78.818359 L85.263672,79.787109 C84.901425,79.71812 84.542142,79.646773 84.166016,79.585938 C84.109059,79.576324 84.051122,79.547908 83.994141,79.529297 C83.835803,79.251817 83.640764,78.980949 83.386719,78.722656 C83.472573,78.553929 83.50628,78.342909 83.486328,78.095703 C83.483066,78.043796 83.455381,77.978682 83.447266,77.923828 L83.447266,77.923828 L83.447266,77.923828 Z M81.869141,79.181641 C81.691254,79.181641 81.546875,79.326857 81.546875,79.505859 C81.546875,79.68486 81.691254,79.830078 81.869141,79.830078 C82.047192,79.830078 82.191406,79.68486 82.191406,79.505859 C82.191406,79.326968 82.047082,79.181752 81.869141,79.181641 L81.869141,79.181641 L81.869141,79.181641 Z" id="path9167" fill="#67923D"></path>
        <path d="M105.74023,39.1875 C105.70121,39.582335 106.28681,41.386151 107.07031,42.910156 L107.00977,42.873047 C107.07846,42.967391 107.13853,43.066509 107.20508,43.162109 C107.44224,43.599992 107.68974,44.000409 107.94727,44.328125 C108.52905,45.323236 109.02358,46.368621 109.44531,47.449219 L108.23633,46.548828 C108.64149,46.9154 109.04605,47.251458 109.45117,47.466797 C109.83461,48.451241 110.15297,49.465199 110.44727,50.488281 C110.60079,51.02201 110.75866,51.553886 110.89648,52.091797 C110.97001,52.377897 111.02626,52.666758 111.07227,52.957031 C110.92501,52.708766 110.72133,52.483136 110.5,52.359375 C110.52122,52.337897 110.54595,52.321466 110.56445,52.296875 C110.5619,52.297102 110.55545,52.292892 110.55273,52.292969 C110.55534,52.289639 110.55995,52.288545 110.5625,52.285156 C109.73166,50.736435 106.30712,48.625196 105.70312,48.574219 C106.48866,50.275026 107.53561,51.430851 108.4707,52.046875 C109.30635,52.607674 110.051,52.727684 110.44336,52.416016 L111.08398,53.056641 C111.12484,53.331166 111.15354,53.607189 111.17578,53.884766 C110.80578,53.541134 110.2521,53.209116 109.64648,52.925781 C109.56158,52.800826 109.48508,52.69792 109.42969,52.652344 C109.42839,52.662565 109.429,52.671437 109.42773,52.681641 C109.42573,52.674028 109.42388,52.667776 109.42188,52.660156 C109.4147,52.716733 109.41649,52.76624 109.41016,52.822266 C108.38303,52.368413 107.33044,52.060221 107.06641,52.09375 C107.80608,53.057233 108.6108,53.681548 109.33008,54.041016 C109.30822,56.351185 110.0072,58.033458 110.76758,58.664062 C110.93555,58.808586 111.10628,58.900801 111.27344,58.939453 C111.27382,58.945301 111.27305,58.951184 111.27344,58.957031 C111.33602,59.927802 111.25266,60.873625 111.08008,61.800781 L110.56055,60.988281 C110.6069,60.975228 110.65317,60.964578 110.69727,60.941406 C110.69104,60.93865 110.68054,60.922154 110.67383,60.917969 C110.68724,60.911955 110.70166,60.91123 110.71484,60.904297 C110.71384,58.972501 108.57854,55.260659 108.05078,54.908203 C108.02387,55.432749 108.03115,55.928691 108.06445,56.396484 C108.26287,59.463665 109.61854,61.247971 110.55664,60.990234 C110.71626,61.287496 110.88088,61.574899 111.07617,61.818359 C110.94721,62.50614 110.76356,63.181444 110.54688,63.849609 C110.48343,63.522529 110.37111,63.161991 110.23242,62.791016 C110.23974,62.134285 110.21734,61.583288 110.14453,61.388672 C110.14864,61.370184 110.15016,61.354465 110.1543,61.335938 C110.14797,61.345032 110.14495,61.354193 110.13867,61.363281 C110.1373,61.360056 110.13616,61.350661 110.13477,61.347656 C110.01794,61.515665 109.93442,61.677808 109.83203,61.84375 C109.36051,60.844014 108.81468,59.969431 108.60547,59.824219 C108.605,59.834488 108.60591,59.843273 108.60547,59.853516 C108.60334,59.847318 108.60174,59.842142 108.59961,59.835938 C108.53538,61.228491 108.78579,62.358056 109.14648,63.15625 C108.26959,65.23364 108.50068,66.890323 109.25586,67.138672 C108.95471,67.820009 108.64792,68.499296 108.35547,69.169922 C107.82916,70.374006 107.07439,71.406585 106.2168,72.367188 L106.16992,71.091797 C106.21957,71.103569 106.27006,71.112461 106.32227,71.109375 C106.90367,69.676142 106.47627,66.203021 106.20312,65.777344 C106.1988,65.786574 106.19765,65.795468 106.19336,65.804688 C106.19376,65.798493 106.19296,65.793309 106.19336,65.787109 C105.51575,67.238278 105.30876,68.551303 105.38086,69.511719 C105.37249,69.450382 105.36641,69.372764 105.35352,69.339844 C105.3473,69.348264 105.34406,69.356818 105.33789,69.365234 C105.33971,69.358451 105.33998,69.352492 105.3418,69.345703 C103.69601,71.582996 103.55168,73.70266 104.15234,74.277344 C104.1828,74.307715 104.21573,74.331445 104.25,74.353516 C103.78916,74.786578 103.32433,75.218095 102.86328,75.65625 C102.80716,75.710676 102.73622,75.749202 102.67383,75.796875 C103.7137,74.030214 104.00546,69.675679 103.76562,69.076172 C103.75746,69.08741 103.75225,69.098141 103.74414,69.109375 C103.74629,69.101111 103.74785,69.094208 103.75,69.085938 C102.91979,70.232201 102.4014,71.340164 102.0957,72.332031 C102.07296,71.808344 102.02194,71.262047 101.91992,70.679688 C101.91742,70.692187 101.91461,70.702362 101.91211,70.714844 C101.90997,70.70263 101.91038,70.691924 101.9082,70.679688 C101.42382,71.12084 99.745751,75.289511 99.994141,77.275391 C100.19922,77.347098 100.41474,77.311732 100.62695,77.191406 C100.54519,77.244371 100.4634,77.295464 100.42969,77.310547 C99.213089,77.923213 97.818501,78.157296 96.566406,78.757812 C96.139255,78.959212 95.720404,79.305524 95.302734,79.474609 L95.941406,78.617188 C96.228311,78.727359 96.59886,78.674788 97.011719,78.457031 C97.970821,77.965407 99.147209,76.594013 99.955078,74.447266 L99.955078,74.445312 C100.13461,73.968031 100.29689,73.453246 100.43359,72.900391 C100.15744,72.988911 99.386572,73.628849 98.542969,74.480469 C98.736884,73.939483 98.913034,73.363354 99.046875,72.722656 C98.414158,72.961787 95.158321,76.324944 94.628906,78.347656 C94.723561,78.433035 94.837758,78.480791 94.960938,78.507812 C94.506415,78.813029 94.296105,79.293183 94.046875,79.746094 C92.248658,80.082061 90.595326,80.532491 88.945312,81.404297 C88.650177,81.563662 88.320125,81.761347 88.119141,82.080078 L88.460938,82.287109 C88.661865,81.968378 88.98191,81.772535 89.289062,81.613281 C91.238204,80.595907 93.175735,80.130621 95.373047,79.775391 C95.545296,79.746139 95.71789,79.665874 95.890625,79.572266 L97.455078,79.894531 C97.425839,79.932323 97.394342,79.969651 97.373047,80.013672 C98.5026,81.410849 102.33106,82.839216 102.94531,82.78125 C102.93708,82.76974 102.92817,82.761444 102.91992,82.75 C102.9294,82.755848 102.93778,82.759764 102.94727,82.765625 C100.99531,80.035964 98.598712,79.159333 97.693359,79.693359 C97.602372,79.742012 97.528118,79.804085 97.466797,79.878906 C96.957792,79.645104 96.430379,79.631323 95.908203,79.5625 C95.987536,79.518886 96.066905,79.477538 96.146484,79.427734 L98.476562,79.458984 C97.682497,79.30316 96.936902,79.306127 96.214844,79.386719 C96.444815,79.240217 96.674573,79.080521 96.908203,78.964844 C98.160518,78.376252 99.554447,78.144248 100.77148,77.53125 C100.84237,77.494751 101.16095,77.298038 101.30273,77.138672 C101.49228,76.913163 101.74786,76.75578 102.01367,76.609375 C102.26487,76.642116 102.52111,76.667257 102.80078,76.642578 C102.88342,76.779269 103.00825,76.895635 103.17383,76.986328 C104.27436,77.60792 107.14364,77.119226 110.06641,74.703125 C110.05892,74.705569 110.0524,74.706545 110.04492,74.708984 C110.05521,74.700499 110.06588,74.69408 110.07617,74.685547 C109.39467,74.454459 104.46667,75.077429 102.69922,76.390625 C102.71617,76.479387 102.74987,76.562696 102.79492,76.638672 L102.03125,76.599609 C102.43978,76.376328 102.87903,76.185678 103.20508,75.876953 C103.96757,75.143679 104.73729,74.423915 105.48047,73.689453 C105.57525,73.816672 105.71121,73.909532 105.89258,73.957031 C106.87169,74.23423 109.04457,73.27112 110.89258,70.763672 C110.88154,70.770643 110.87236,70.77625 110.86133,70.783203 C110.86912,70.772616 110.87699,70.764548 110.88477,70.753906 C110.42304,70.716712 108.02093,71.626988 106.45703,72.691406 C107.25624,71.81212 107.95998,70.86841 108.49219,69.798828 L108.98828,69.78125 C108.7953,69.75814 108.64632,69.780717 108.49219,69.796875 C108.55995,69.660631 108.63746,69.53126 108.69922,69.390625 C108.88847,68.954841 109.08524,68.511788 109.28125,68.072266 L109.44531,67.904297 C109.57564,68.062892 109.76596,68.142677 109.99609,68.142578 C110.75659,68.189413 111.99547,67.291237 112.99609,65.527344 C114.29088,65.17627 115.53777,64.626827 115.76953,64.390625 C115.77991,64.388748 115.78843,64.386639 115.79883,64.384766 C115.79275,64.383453 115.78732,64.384112 115.78125,64.382812 L115.7832,64.380859 C114.9983,64.209637 114.27917,64.153093 113.63867,64.171875 C113.67684,64.074053 113.7214,63.992006 113.75781,63.890625 C113.73799,63.912973 113.72096,63.930893 113.70117,63.953125 C113.71038,63.928112 113.72138,63.908045 113.73047,63.882812 C113.61729,63.902595 113.38033,64.035834 113.09766,64.21875 C111.51484,64.391663 110.55748,65.065917 110.63281,65.697266 C110.41151,65.896241 110.16029,66.271806 109.91211,66.632812 C110.22531,65.900964 110.52388,65.16227 110.78125,64.412109 C111.10747,64.222068 111.39571,63.940477 111.66406,63.605469 C112.02125,63.907443 112.71787,63.777996 113.50195,63.216797 C113.70957,63.069486 113.92532,62.888688 114.14062,62.679688 C114.14156,62.678774 114.14164,62.676696 114.14258,62.675781 C114.81176,62.025308 115.49412,61.080841 116.04688,59.832031 C116.04198,59.83682 116.03809,59.84092 116.0332,59.845703 C115.47382,59.910435 112.32255,61.982549 111.55859,63.498047 C111.58411,63.533669 111.61707,63.561287 111.64844,63.589844 L110.79492,64.369141 C111.18038,63.238244 111.45958,62.081207 111.57227,60.892578 C111.75978,60.66255 111.9397,60.414396 112.10352,60.136719 C112.16022,60.149083 112.21949,60.152689 112.28125,60.148438 C113.18328,60.10468 114.57516,58.282061 114.8457,55.283203 C114.84391,55.286805 114.84164,55.28937 114.83984,55.292969 C114.84059,55.284684 114.84302,55.277834 114.84375,55.269531 C114.56669,55.414902 113.70881,56.463411 112.98828,57.628906 C113.2729,56.7504 113.4075,55.545118 113.30078,54.177734 C113.28184,53.835567 113.23301,53.470411 113.17578,53.099609 C113.62714,52.629074 114.08306,51.927257 114.47852,50.919922 C114.5272,50.796328 114.56855,50.641997 114.61523,50.509766 C114.70904,50.243336 114.80425,49.985699 114.88867,49.683594 C112.76169,51.129406 111.76672,52.700846 111.43359,53.314453 C111.38454,52.974243 111.32425,52.635341 111.23828,52.300781 C110.97875,51.287924 110.69192,50.28037 110.36719,49.289062 C110.48277,48.841064 110.53706,48.393309 110.52344,47.945312 C110.52899,47.943902 110.53354,47.939085 110.53906,47.9375 C110.57928,47.927579 110.61772,47.907719 110.65625,47.888672 C110.66658,47.883136 110.67731,47.881175 110.6875,47.875 C111.45749,47.440839 111.8368,45.190219 110.66016,42.445312 C110.66031,42.450842 110.66,42.455412 110.66016,42.460938 C110.65618,42.451589 110.6544,42.442953 110.65039,42.433594 C110.34561,42.873415 109.79312,46.467852 110.33984,47.960938 C110.39961,47.966242 110.45856,47.960874 110.51562,47.947266 L110.36328,49.277344 C110.06112,48.356007 109.72199,47.450677 109.33008,46.572266 C109.49615,46.187266 109.55608,45.770918 109.54883,45.335938 C109.57192,45.331227 109.59482,45.328249 109.61719,45.320312 C109.6403,45.313075 109.6613,45.297712 109.68359,45.287109 C109.70577,45.275609 109.72872,45.268663 109.75,45.253906 C110.43292,44.811126 110.65676,42.720572 109.42188,40.265625 C109.42237,40.27117 109.42333,40.27571 109.42383,40.28125 C109.41946,40.272498 109.41652,40.26462 109.41211,40.255859 C109.15783,40.677375 108.84963,44.010909 109.43555,45.351562 C109.47248,45.352561 109.50757,45.344664 109.54297,45.337891 L109.31445,46.535156 C109.18215,46.239996 109.03945,45.950615 108.89453,45.662109 C108.86204,45.314136 108.74617,44.842092 108.68164,44.53125 L108.88672,45.644531 C108.73745,45.348052 108.57996,45.056054 108.41602,44.767578 C108.46775,44.738617 108.51513,44.704617 108.55664,44.662109 C108.59836,44.62394 108.63193,44.577156 108.66406,44.527344 L108.66406,44.525391 C109.20174,43.687914 108.38001,41.272643 105.75781,39.193359 C105.76187,39.200307 105.76548,39.205947 105.76953,39.212891 C105.75894,39.20443 105.75089,39.195949 105.74023,39.1875 L105.74023,39.1875 L105.74023,39.1875 Z M108.98828,69.78125 C109.04171,69.960092 109.16574,70.108785 109.35938,70.214844 C110.27761,70.738137 112.66692,70.341713 115.10938,68.335938 L115.11133,68.335938 C115.11545,68.332549 115.11892,68.32957 115.12305,68.326172 C114.54414,68.142289 110.43437,68.633503 108.9668,69.722656 C108.97084,69.743529 108.98229,69.761207 108.98828,69.78125 L108.98828,69.78125 L108.98828,69.78125 Z M113.69922,45.779297 C113.19913,46.162983 111.15849,49.995518 111.18359,51.931641 C111.3215,51.995932 111.47071,52.006537 111.625,51.972656 C111.59703,52.01573 111.56852,52.059945 111.56836,52.115234 C111.5688,52.267388 111.69048,52.391014 111.8418,52.390625 C111.99251,52.390237 112.1149,52.266834 112.11523,52.115234 C112.11551,51.986065 112.0196,51.893354 111.90039,51.863281 C112.88226,51.357352 113.94507,49.083012 113.70898,45.792969 C113.70595,45.802792 113.70225,45.810502 113.69922,45.820312 C113.69824,45.805974 113.70025,45.793673 113.69922,45.779297 L113.69922,45.779297 L113.69922,45.779297 Z M106.51172,46.009766 C106.51501,46.023697 106.5201,46.034958 106.52344,46.048828 C106.51741,46.040418 106.51189,46.033816 106.50586,46.025391 C107.19514,48.942472 108.88171,50.509729 109.80469,50.392578 C109.94024,50.380114 110.06162,50.333938 110.16016,50.25 C110.16085,50.24941 110.16142,50.24864 110.16211,50.248047 C109.71037,48.707591 107.0343,46.172403 106.51172,46.009766 L106.51172,46.009766 L106.51172,46.009766 Z M108.97461,47.378906 C108.82346,47.378407 108.69955,47.502142 108.69922,47.654297 C108.69955,47.806451 108.8233,47.930076 108.97461,47.929688 C109.12521,47.929299 109.24772,47.805897 109.24805,47.654297 C109.24849,47.502143 109.12576,47.379295 108.97461,47.378906 L108.97461,47.378906 L108.97461,47.378906 Z M110.88477,48.8125 C110.73362,48.812001 110.60982,48.933783 110.60938,49.085938 L110.60938,49.087891 C110.60981,49.240045 110.73346,49.363669 110.88477,49.363281 C111.03548,49.362893 111.15775,49.23949 111.1582,49.087891 C111.15853,48.935737 111.03604,48.812888 110.88477,48.8125 L110.88477,48.8125 L110.88477,48.8125 Z M112.67383,53.527344 C112.24963,54.301106 111.7947,55.531721 111.57617,56.742188 C111.58578,55.707053 111.59214,54.678379 111.47852,53.669922 C111.5343,53.701672 111.58279,53.747514 111.64453,53.765625 L111.64648,53.765625 C111.939,53.857393 112.29593,53.772932 112.67383,53.527344 L112.67383,53.527344 L112.67383,53.527344 Z M111.19141,54.265625 C111.23169,54.989865 111.24124,55.721065 111.23438,56.457031 C111.00556,55.743479 110.72153,55.029095 110.43555,54.40625 C110.75945,54.441012 111.02039,54.393625 111.19141,54.265625 L111.19141,54.265625 L111.19141,54.265625 Z M111.72266,58.589844 C111.70435,58.635463 111.68522,58.68012 111.66797,58.71875 C111.66824,58.68026 111.66319,58.637439 111.66211,58.597656 C111.68209,58.598034 111.70256,58.59147 111.72266,58.589844 L111.72266,58.589844 L111.72266,58.589844 Z M112.3457,58.802734 C112.13158,59.258224 111.9678,59.694962 111.91602,60.060547 C111.97302,60.09786 112.03439,60.122041 112.09961,60.136719 L111.57422,60.886719 C111.62762,60.320364 111.65475,59.748689 111.61719,59.166016 C111.61465,59.127649 111.61556,59.08916 111.61328,59.050781 C111.87644,59.100109 112.12404,59.012152 112.3457,58.802734 L112.3457,58.802734 L112.3457,58.802734 Z M110.89062,59.527344 C110.71264,59.527399 110.56836,59.672616 110.56836,59.851562 C110.56836,60.030675 110.71263,60.175781 110.89062,60.175781 C111.06862,60.175781 111.21289,60.03073 111.21289,59.851562 C111.21289,59.672505 111.06862,59.527344 110.89062,59.527344 L110.89062,59.527344 L110.89062,59.527344 Z M112.17773,61.306641 C111.99974,61.306641 111.85547,61.451747 111.85547,61.630859 C111.85547,61.809972 111.99974,61.955078 112.17773,61.955078 C112.35573,61.955078 112.5,61.809972 112.5,61.630859 C112.5,61.451747 112.35573,61.306641 112.17773,61.306641 L112.17773,61.306641 L112.17773,61.306641 Z M107.74023,62.480469 C106.47025,65.41004 106.62276,67.855302 107.29297,68.830078 C107.51901,69.176871 107.80484,69.35802 108.11719,69.322266 C108.80872,67.43956 108.11396,63.017196 107.74023,62.480469 L107.74023,62.480469 L107.74023,62.480469 Z M110.14453,64.353516 C110.19148,64.371988 110.23952,64.404512 110.28516,64.412109 C110.31126,64.417261 110.33576,64.416404 110.36133,64.417969 C110.24094,64.757535 110.11422,65.096202 109.98047,65.431641 C110.0498,65.079293 110.10359,64.71899 110.14453,64.353516 L110.14453,64.353516 L110.14453,64.353516 Z M110.63672,65.720703 C110.64146,65.750408 110.64104,65.781185 110.65039,65.810547 C110.7828,65.831539 110.94142,65.826139 111.0957,65.826172 C110.41777,66.468889 109.81407,67.167513 109.51758,67.779297 C109.44424,67.863534 109.37022,67.948267 109.29688,68.039062 C109.49904,67.585688 109.69776,67.134525 109.89453,66.675781 L110.63672,65.720703 L110.63672,65.720703 L110.63672,65.720703 Z M107.16992,69.652344 C106.99209,69.652455 106.84766,69.797672 106.84766,69.976562 C106.84766,70.155676 106.99203,70.300781 107.16992,70.300781 C107.34791,70.300781 107.49219,70.155565 107.49219,69.976562 C107.49219,69.797562 107.34791,69.652344 107.16992,69.652344 L107.16992,69.652344 L107.16992,69.652344 Z M105.40039,69.685547 C105.47791,70.344858 105.68966,70.820452 105.98047,71.007812 L105.98242,71.007812 C106.04143,71.047367 106.10161,71.076025 106.16602,71.091797 C106.11586,71.518736 106.15229,71.946107 106.21289,72.373047 C105.74772,72.893698 105.2474,73.390431 104.73633,73.880859 C105.24323,72.620565 105.44383,70.54524 105.40039,69.685547 L105.40039,69.685547 L105.40039,69.685547 Z M108.75977,70.34375 C108.58166,70.343861 108.4375,70.489079 108.4375,70.667969 C108.4375,70.847137 108.58166,70.992187 108.75977,70.992188 C108.93765,70.992188 109.08008,70.847193 109.08008,70.667969 C109.08008,70.488968 108.93765,70.34375 108.75977,70.34375 L108.75977,70.34375 L108.75977,70.34375 Z M101.85938,74.998047 C101.90773,75.192557 101.95974,75.380804 102.04492,75.515625 C102.17095,75.721219 102.33879,75.848726 102.53516,75.898438 C102.01057,76.246736 101.35875,76.45455 100.96094,76.917969 C100.95369,76.926723 100.93969,76.934562 100.93164,76.943359 C101.06186,76.812326 101.19062,76.660337 101.30859,76.462891 C101.5332,76.09196 101.71665,75.583875 101.85938,74.998047 L101.85938,74.998047 L101.85938,74.998047 Z M95.730469,78.363281 C95.719727,78.394966 95.696958,78.431762 95.6875,78.462891 C95.758762,78.532146 95.843696,78.579623 95.933594,78.615234 C95.738049,78.811621 95.518484,79.131279 95.292969,79.478516 C95.205733,79.513199 95.118409,79.551695 95.03125,79.566406 C94.705996,79.619014 94.396772,79.681772 94.082031,79.740234 L95.007812,78.519531 C95.21857,78.552243 95.466385,78.486654 95.730469,78.363281 L95.730469,78.363281 L95.730469,78.363281 Z M98.0625,78.558594 C97.884393,78.55865 97.740234,78.703755 97.740234,78.882812 C97.740234,79.061813 97.884393,79.207031 98.0625,79.207031 C98.240386,79.207031 98.384766,79.061813 98.384766,78.882812 C98.384766,78.703699 98.240386,78.558594 98.0625,78.558594 L98.0625,78.558594 L98.0625,78.558594 Z M96.292969,79.835938 C96.114863,79.835993 95.970703,79.981099 95.970703,80.160156 C95.970703,80.339158 96.114863,80.484375 96.292969,80.484375 C96.470856,80.484375 96.615234,80.339158 96.615234,80.160156 C96.615234,79.981043 96.470856,79.835938 96.292969,79.835938 L96.292969,79.835938 L96.292969,79.835938 Z M94.628906,80.363281 C94.625684,80.369419 94.626073,80.376616 94.623047,80.382812 C94.62208,80.380579 94.616049,80.377172 94.615234,80.375 C94.213578,81.154389 95.374414,82.402668 97.59375,82.960938 C98.333253,83.150815 99.190284,83.263301 100.14453,83.255859 C99.828121,82.722404 96.418298,80.455471 94.628906,80.363281 L94.628906,80.363281 L94.628906,80.363281 Z" id="path10706-3_1_" fill="#67923D"></path>
        <path d="M98.425331,47.654215 L88.298878,57.686178 C87.528736,58.455823 78.720858,66.922036 77.928555,67.684748 C77.650398,68.020618 76.860686,68.918178 76.777835,69.043762 C76.240703,69.630301 75.657928,70.39684 74.962149,71.082282 C74.838229,71.239373 74.674014,71.182295 74.524572,71.269493 C74.067095,71.536137 73.591978,71.99798 73.249821,72.378893 L70.169748,75.807657 C69.971356,76.024322 69.918547,76.158005 70.052609,76.282646 L71.723593,78.529179 C72.033613,78.837426 72.390763,78.995792 72.529787,78.737191 C73.323578,77.354437 75.295431,75.244193 76.040547,73.574991 C76.48562,72.57753 77.04414,70.767712 77.4428,70.329999 C77.931808,69.782344 79.25165,68.367527 80.421389,67.104643 C80.500439,67.019493 80.578603,66.934849 80.655722,66.851478 C80.736752,66.764058 80.81641,66.677691 80.894797,66.592766 C86.824908,60.512039 93.689598,53.125826 98.688109,47.918252 C98.491866,47.7215 98.615899,47.839152 98.425331,47.654215 L98.425331,47.654215 L98.425331,47.654215 L98.425331,47.654215 L98.425331,47.654215 L98.425331,47.654215 L98.425331,47.654215 Z" id="path10388-7-3" fill="#6C301E"></path>
        <path d="M79.088537,77.217925 L79.320004,77.659077" id="path9165" fill="#000000"></path>
        <path d="M81.990944,75.118609 C87.737639,68.234777 95.906258,62.06553 102.17864,59.038979 C101.28524,58.943069 99.234005,59.849117 98.394571,60.32455 C92.133714,63.871965 86.699886,68.72786 80.958575,74.491632 C81.256688,74.826393 81.453096,75.024754 81.780589,75.31708 L81.990944,75.118609 L81.990944,75.118609 L81.990944,75.118609 L81.990944,75.118609 L81.990944,75.118609 Z" id="path2253_352-9-3" fill="#B2B6BA"></path>
        <path d="M82.6854,75.44516 C82.61578,75.242972 82.437175,75.156661 82.282166,75.172914 C82.223676,75.129254 82.177485,75.099694 82.142922,75.078224 C82.125892,75.068124 82.109732,75.073424 82.099592,75.085224 C82.038732,75.153394 82.019552,75.180464 81.938959,75.271548 C81.532693,75.157271 81.121521,74.735866 81.085525,74.378251 C80.714042,74.108834 80.283961,73.894054 79.794623,73.734689 L79.791623,73.734467 C79.193854,73.694247 78.546474,74.003385 77.925829,74.990751 C77.1994,76.16394 77.421606,76.895589 78.007799,77.50659 C77.999599,77.54298 77.992859,77.5817 78.000999,77.620914 C77.880111,77.566944 77.721794,77.642384 77.655479,77.765968 C77.455654,78.134621 77.719479,78.487077 78.248121,78.514257 C79.490569,77.646042 80.231495,77.072593 81.236081,75.987545 C81.292911,76.071195 81.428686,76.330849 81.698133,76.404014 C81.965707,76.457984 82.087311,76.379104 82.330906,76.208149 C82.554656,76.009068 82.766278,75.696384 82.685411,75.44516 C82.685411,75.44516 82.766281,75.696384 82.685411,75.44516 L82.685411,75.44516 L82.685411,75.44516 L82.6854,75.44516 L82.6854,75.44516 Z M80.25822,75.339823 C80.025265,75.286293 79.836464,75.513055 79.893683,75.724341 C79.665468,75.659991 79.451917,75.926584 79.555826,76.127774 C79.338526,76.015558 79.081536,76.305222 79.175413,76.490381 C78.980714,76.396031 78.718046,76.700667 78.78199,76.897419 C78.630012,76.757358 78.295849,77.110313 78.38934,77.29059 C78.35775,77.27761 78.36729,77.28209 78.33642,77.28169 C77.715996,76.963625 77.445997,76.030898 77.86439,75.293314 C77.95843,75.12757 78.031969,74.969591 78.153352,74.788316 L78.153297,74.788648 C78.458135,74.439465 78.915336,73.894639 79.583168,74.234393 C79.848757,74.399693 80.140309,74.748877 80.407718,74.980297 C80.314838,75.058237 80.2494,75.155416 80.25822,75.339798 C80.25822,75.339798 80.24942,75.155416 80.25822,75.339798 L80.25822,75.339798 L80.25822,75.339798 L80.25822,75.339823 L80.25822,75.339823 Z" id="path382" fill="#FAB81C"></path>
        <path d="M82.522177,65.133019 C82.522177,65.133019 80.968498,65.300927 80.533015,63.144199 C80.067325,60.837592 81.871765,60.592249 81.871765,60.592249 C81.871765,60.592249 83.916162,60.39411 85.189314,60.361494 L85.754449,64.919349 L82.522177,65.133019 L82.522177,65.133019 L82.522177,65.133019 L82.522177,65.133019 L82.522177,65.133019 L82.522177,65.133019 Z" id="path814-3_1_" fill="#F9F0AA"></path>
        <path d="M81.753028,60.629691 C81.753028,60.629691 83.664244,60.158141 83.901664,62.276982 C83.963684,62.830794 83.664244,64.096563 82.72713,64.438591 L86.227526,64.068828 L85.910561,60.258874 L84.731396,60.358004 C84.731396,60.358004 82.228034,60.444594 81.753028,60.629696 C81.753028,60.629696 82.228034,60.444593 81.753028,60.629696 L81.753028,60.629696 L81.753028,60.629696 L81.753028,60.629691 L81.753028,60.629691 Z" id="path443" fill="#F9F0AA"></path>
        <path d="M78.311919,48.064793 L88.438372,58.096756 C89.208514,58.866401 98.016392,67.332614 98.808694,68.095326 C99.086854,68.431196 99.876564,69.328756 99.959414,69.45434 C100.49654,70.040879 101.07932,70.807418 101.7751,71.49286 C101.89902,71.649951 102.06323,71.592873 102.21267,71.680071 C102.67015,71.946715 103.14527,72.408558 103.48743,72.789471 L106.5675,76.218235 C106.76589,76.4349 106.8187,76.568583 106.68464,76.693224 L105.01365,78.939757 C104.70363,79.248004 104.34648,79.40637 104.20746,79.147769 C103.41367,77.765015 101.44182,75.654771 100.6967,73.985569 C100.25163,72.988108 99.693114,71.17829 99.294454,70.740577 C98.805444,70.192922 97.4856,68.778105 96.315861,67.515221 C96.236811,67.430071 96.158647,67.345427 96.081528,67.262056 C96.000498,67.174636 95.92084,67.088269 95.842453,67.003344 C89.912342,60.922617 83.047652,53.536404 78.049141,48.32883 C78.245384,48.132078 78.121351,48.24973 78.311919,48.064793 L78.311919,48.064793 L78.311919,48.064793 L78.311919,48.064793 L78.311919,48.064793 L78.311919,48.064793 L78.311919,48.064793 Z" id="path6275" fill="#6C301E"></path>
        <path d="M82.52113,65.133019 C82.53304,65.133019 95.615863,64.246665 96.956377,64.301857 C100.92831,62.108853 96.937197,53.497142 93.590319,48.680464 C93.972441,47.594973 86.057357,45.153629 82.477637,45.374122 C82.028043,45.401802 81.593332,45.431812 81.177309,45.463982 C79.235774,45.671217 79.215654,48.178847 80.007515,49.760296 C80.775728,51.294428 87.655798,63.755199 82.817975,65.073165 L82.52113,65.133015 L82.52113,65.133015 L82.52113,65.133015 L82.52113,65.133015 L82.52113,65.133019 L82.52113,65.133019 Z" id="path814-3_2_" fill="#F9F0AA"></path>
        <path d="M93.600187,48.680409 C95.286881,48.407719 95.26395,46.124187 94.111245,45.209099 C90.201164,45.064544 85.055141,45.172769 81.337831,45.452668 C81.76069,45.440408 82.936657,45.548188 83.067468,47.105672 C83.128488,47.832384 82.773434,48.499743 82.295231,48.879213 C81.827666,49.250252 81.309773,49.250252 81.309773,49.250252 C81.372343,49.274492 81.855283,49.252052 82.217615,49.228232 C82.404046,49.215922 82.861413,49.161112 82.988474,49.144302 C88.289672,48.443217 93.581334,48.681516 93.581334,48.681516 L93.601454,48.682404 C93.601012,48.681738 93.600627,48.681104 93.600154,48.680404 C93.600154,48.680404 93.600595,48.68107 93.600154,48.680404 L93.600154,48.680404 L93.600154,48.680404 L93.600187,48.680409 L93.600187,48.680409 Z" id="path501" fill="#F9F0AA"></path>
        <path d="M88.4738425,40.0780727 L87.5223963,41.2162052 C87.2197636,42.5464856 87.9719905,43.5485504 89.4522997,44.4185411 C90.6512542,45.1673855 92.8706706,45.0360326 93.5715767,44.4324086 L90.111642,41.4329263 L88.4738425,40.0780727 L88.4738425,40.0780727 L88.4738425,40.0780727 L88.4738425,40.0780727 L88.4738425,40.0780727 L88.4738425,40.0780727 Z" id="path14573-4" fill="#A50A0A"></path>
        <path d="M95.4827929,74.315182 C95.3132304,74.109555 95.1416835,73.904593 94.9693648,73.699798 C92.8103646,76.568094 90.1132406,79.139959 86.7403472,80.954214 C90.5442027,79.870387 93.0337285,77.080969 95.4827929,74.315182 C95.4827929,74.315182 93.0337285,77.080969 95.4827929,74.315182 L95.4827929,74.315182 L95.4827929,74.315182 L95.4827929,74.315182 L95.4827929,74.315182 Z" id="path511" fill="#448127"></path>
        <path d="M91.5878168,83.381025 C92.9291024,80.646301 94.5473879,77.911466 96.1803915,75.176686 C96.0021194,74.953308 95.821532,74.729986 95.6394563,74.507552 C93.7846874,77.601222 91.6081577,81.280544 91.5878168,83.381025 C91.5878168,83.381025 91.6081578,81.280544 91.5878168,83.381025 L91.5878168,83.381025 L91.5878168,83.381025 L91.5878168,83.381025 L91.5878168,83.381025 Z" id="path513" fill="#448127"></path>
        <path d="M102.116512,54.31316 C101.868122,53.235046 101.543715,52.069567 101.029405,50.998831 C100.358982,49.619959 99.35842,48.249185 98.044201,46.7328585 C95.6770511,44.150122 93.3084131,41.6561929 89.9896518,39.8146459 C89.9957718,39.8028309 90.0010628,39.7914599 90.0069608,39.7797549 C90.6961304,38.6425273 88.4054859,36.915715 87.8506618,39.4338447 C87.8535818,39.4923657 88.0004346,39.5516628 88.0235868,39.5879402 C88.0932638,39.6968832 88.0805308,39.7556813 88.0805308,39.7556813 C87.6790597,40.4107815 87.3199797,40.9166675 87.2795184,41.6676197 C87.6021061,41.2567538 87.9363801,40.7537522 88.4049371,40.7537522 C88.1728085,41.1440388 88.0627803,42.320612 88.3234082,42.499669 L88.517942,42.1564209 C88.525052,42.4292776 88.563254,42.6112191 88.616118,42.7457892 C88.6974269,42.5808216 88.7779635,42.4231205 88.8589963,42.3037491 C88.8775181,42.6859926 88.9263032,42.9927969 89.0364416,43.1444517 C89.1447609,42.9565195 89.2909507,42.842085 89.4446925,42.7457337 C89.3913873,42.9640635 89.3134414,43.1702453 89.346516,43.4321744 C89.5089675,43.1525504 89.6716394,42.9872499 89.8340358,42.7942699 C89.7399385,43.1970927 89.8255466,43.4977399 89.939213,43.9423316 C90.0402008,43.415367 90.0798352,43.3594533 90.3216657,43.1375735 C90.3484562,43.6207722 90.2567293,44.059706 90.3577171,44.32929 C90.5782144,43.9040018 90.7260579,43.9647969 90.8579154,43.6897214 C90.8321723,44.0907137 90.7521869,44.5252098 90.8543874,44.8831574 C90.9392238,44.5244887 91.1681001,44.3325072 91.3448839,44.2051482 C91.3593264,44.7633423 91.4874354,44.6714841 91.1426877,45.1449202 C91.2887673,45.2122052 91.783839,45.0492345 92.0522395,44.9334687 C91.9224216,45.2325627 91.9606228,45.4672006 91.8306396,45.6788185 C92.1031192,45.5410866 92.3352479,45.3182083 92.5626358,45.0894502 C92.457238,45.4326983 92.1778679,45.7759464 92.3179939,46.119139 C92.3814972,45.7984117 92.6392586,45.5343192 92.88368,45.4862268 C92.8457544,45.6660049 92.8200665,46.0382083 92.5626358,46.2179864 C93.178926,46.2819433 93.4221346,45.8632006 93.7324296,45.5315457 C93.6923542,45.8762915 93.7037098,46.1518662 94.1240329,46.6372283 C94.0390863,46.0201251 94.1849453,46.1470958 94.4628271,45.7760018 C94.5969998,46.3213824 94.7510724,46.9007106 95.3160969,47.3028678 C95.0818184,46.727367 95.0385458,46.4308246 95.1713955,46.0686613 C95.2441596,46.4424179 95.5963491,46.893444 95.6807445,47.2476752 C95.7331677,46.8547815 95.7921508,46.474535 95.9236223,46.2179864 C96.0880031,46.6640203 96.2257038,47.1245873 96.2647318,47.639404 C96.3878796,47.3828 96.48782,47.1227014 96.5576626,46.8558909 C101.536769,52.091478 102.647249,58.747262 97.191593,65.779798 C99.15198,64.447133 99.657911,62.334892 100.747058,60.534393 C99.683875,62.892255 99.210026,65.54516 97.337893,67.495928 C99.151263,65.921302 99.535811,64.478751 100.626336,62.961259 C99.464094,66.134862 97.855565,69.612772 95.625565,72.796803 C96.0217988,73.23019 96.4180877,73.670344 96.81592,74.114214 C97.161936,73.534387 97.507786,72.955392 97.849447,72.375453 C100.213123,68.456778 104.070505,62.855201 102.116512,54.31316 C102.116512,54.31316 104.070505,62.855201 102.116512,54.31316 L102.116512,54.31316 L102.116512,54.31316 Z" id="path515" fill="#448127"></path>
        <path d="M87.8074994,39.0321867 C87.555967,39.0895977 87.4563022,39.1952684 87.274888,39.3985103 C87.5063551,39.4493203 87.7018812,39.4609693 87.9109678,39.4655733 C87.9757938,39.4598633 87.9976228,39.3772653 87.9832358,39.3170802 L87.9510432,39.0746212 C87.9453103,39.0194286 87.799341,39.0238108 87.7306561,39.0527106 L87.8074991,39.0321866 L87.8074991,39.0321866 L87.8074991,39.0321866 L87.8074991,39.0321866 L87.8074994,39.0321867 L87.8074994,39.0321867 Z" id="path14571-4" fill="#EAC102"></path>
        <path d="M88.9495105,39.2743685 C89.0603104,39.2743685 89.1449263,39.1800695 89.1449263,39.0650804 C89.1449263,38.9572468 89.0603103,38.8626151 88.9495105,38.8626151 C88.8454909,38.8626151 88.7542049,38.9573021 88.7542049,39.0650804 C88.7543152,39.1799587 88.8454909,39.2743685 88.9495105,39.2743685 C88.9495105,39.2743685 88.8454909,39.2743685 88.9495105,39.2743685 L88.9495105,39.2743685 L88.9495105,39.2743685 L88.9495105,39.2743685 L88.9495105,39.2743685 Z" id="path1314-2-0-8" stroke="#000000" fill="#000000"></path>
        <path d="M96.222469,75.118609 C90.475775,68.234777 82.307156,62.06553 76.034774,59.038979 C76.928174,58.943069 78.979409,59.849117 79.818843,60.32455 C86.0797,63.871965 91.513528,68.72786 97.254839,74.491632 C96.956729,74.826393 96.760319,75.024754 96.432829,75.31708 L96.222469,75.118609 L96.222469,75.118609 L96.222469,75.118609 L96.222469,75.118609 L96.222469,75.118609 Z" id="path6277" fill="#B2B6BA"></path>
        <path d="M95.158895,75.342515 C95.228515,75.140327 95.40712,75.054016 95.562129,75.070269 C95.620619,75.026609 95.66681,74.997049 95.701373,74.975579 C95.718403,74.965479 95.734563,74.970779 95.744703,74.982579 C95.805563,75.050749 95.824743,75.077819 95.905336,75.168903 C96.311602,75.054626 96.722774,74.633221 96.75877,74.275606 C97.130253,74.006189 97.560334,73.791409 98.049672,73.632044 L98.052672,73.631822 C98.650441,73.591602 99.297821,73.90074 99.918466,74.888106 C100.64489,76.061295 100.42269,76.792944 99.836496,77.403945 C99.844696,77.440335 99.851436,77.479055 99.843296,77.518269 C99.964184,77.464299 100.1225,77.539739 100.18882,77.663323 C100.38864,78.031976 100.12482,78.384432 99.596174,78.411612 C98.353726,77.543397 97.6128,76.969948 96.608214,75.8849 C96.551384,75.96855 96.415609,76.228204 96.146162,76.301369 C95.878588,76.355339 95.756984,76.276459 95.513389,76.105504 C95.289639,75.906423 95.078017,75.593739 95.158884,75.342515 C95.158884,75.342515 95.078014,75.593739 95.158884,75.342515 L95.158884,75.342515 L95.158884,75.342515 L95.158895,75.342515 L95.158895,75.342515 Z M97.586075,75.237178 C97.81903,75.183648 98.007831,75.41041 97.950612,75.621696 C98.178827,75.557346 98.392378,75.823939 98.288469,76.025129 C98.505769,75.912913 98.762759,76.202577 98.668882,76.387736 C98.863581,76.293386 99.126249,76.598022 99.062305,76.794774 C99.214283,76.654713 99.548446,77.007668 99.454955,77.187945 C99.486545,77.174965 99.477005,77.179445 99.507875,77.179045 C100.1283,76.86098 100.3983,75.928253 99.979905,75.190669 C99.885865,75.024925 99.812326,74.866946 99.690943,74.685671 L99.690998,74.686003 C99.38616,74.33682 98.928959,73.791994 98.261127,74.131748 C97.995538,74.297048 97.703986,74.646232 97.436577,74.877652 C97.529457,74.955592 97.594895,75.052771 97.586075,75.237153 C97.586075,75.237153 97.594875,75.052771 97.586075,75.237153 L97.586075,75.237153 L97.586075,75.237153 L97.586075,75.237178 L97.586075,75.237178 Z" id="path6279" fill="#FAB81C"></path>
    </g>
</svg>