<?xml version="1.0" ?><svg height="120px" version="1.1" viewBox="0 0 180 120" width="180px" xmlns="http://www.w3.org/2000/svg" xmlns:sketch="http://www.bohemiancoding.com/sketch/ns" xmlns:xlink="http://www.w3.org/1999/xlink"><title/><defs/><g fill="none" fill-rule="evenodd" id="Ameria" stroke="none" stroke-width="1"><g id="Group" transform="translate(-600.000000, -600.000000)"><g id="Uruguay" transform="translate(600.000000, 600.000000)"><g id="Group"><rect d="M0,0 L0,120 L180,120 L180,0 L0,0 Z M0,0" fill="#FFFFFF" height="120" id="Oval-1" width="180" x="0" y="0"/><rect d="M0,13 L0,26 L180,26 L180,13 L0,13 Z M0,13" fill="#346DA6" height="13" id="Rectangle-1" width="180" x="0" y="13"/><rect d="M0,40 L0,53 L180,53 L180,40 L0,40 Z M0,40" fill="#346DA6" height="13" id="Rectangle-1" width="180" x="0" y="40"/><rect d="M0,66 L0,79 L180,79 L180,66 L0,66 Z M0,66" fill="#346DA6" height="13" id="Rectangle-1" width="180" x="0" y="66"/><rect d="M0,92 L0,105 L180,105 L180,92 L0,92 Z M0,92" fill="#346DA6" height="13" id="Rectangle-1" width="180" x="0" y="92"/><rect d="M0,0 L0,66 L90,66 L90,0 L0,0 Z M0,0" fill="#FFFFFF" height="66" id="Oval-38-copy-3" width="90" x="0" y="0"/></g><g id="uruquay" transform="translate(13.000000, 3.000000)"><g id="right"><path d="M32,36 L35,38.375 C29.6666667,48.6666667 35.6666667,50.25 31,55 C33,49.4583333 29,51.0416667 29,41.5416667 M28.7175144,34.7824856 L29.1594562,38.5831845 C18.1109127,42.0892557 21.2339677,47.4514821 14.5753788,47.5104076 C19.9081424,45.0060711 15.9601296,43.2972297 22.677644,36.5797153 M27.5,31.5 L25.125,34.5 C14.8333333,29.1666667 13.25,35.1666667 8.5,30.5 C14.0416667,32.5 12.4583333,28.5 21.9583333,28.5 M27.7175144,28.2175144 L23.9168155,28.6594562 C20.4107443,17.6109127 15.0485179,20.7339677 14.9895924,14.0753788 C17.4939289,19.4081424 19.2027703,15.4601296 25.9202847,22.177644 M31,27 L28,24.625 C33.3333333,14.3333333 27.3333333,12.75 32,8 C30,13.5416667 34,11.9583333 34,21.4583333 M34.2824856,28.2175144 L33.8405438,24.4168155 C44.8890873,20.9107443 41.7660323,15.5485179 48.4246212,15.4895924 C43.0918576,17.9939289 47.0398704,19.7027703 40.322356,26.4202847 M36.5,31.5 L38.875,28.5 C49.1666667,33.8333333 50.75,27.8333333 55.5,32.5 C49.9583333,30.5 51.5416667,34.5 42.0416667,34.5 M35.2824856,34.7824856 L39.0831845,34.3405438 C42.5892557,45.3890873 47.9514821,42.2660323 48.0104076,48.9246212 C45.5060711,43.5918576 43.7972297,47.5398704 37.0797153,40.822356" fill="#FCD116" id="Shape" stroke="#000000" stroke-width="0.5" transform="translate(31.500000, 31.500000) rotate(-24.000000) translate(-31.500000, -31.500000) "/><path d="M33,36 C27.3452028,45.6426274 35.9765229,49.9893299 31.2681467,55 M29.4246212,35.4895924 C18.6077086,38.3094141 21.6373907,47.4862619 14.7649871,47.700016 M27.5,32.5 C17.8573726,26.8452028 13.5106701,35.4765229 8.5,30.7681467 M28.0104076,28.9246212 C25.1905859,18.1077086 16.0137381,21.1373907 15.799984,14.2649871 M30,27 C35.6547972,17.3573726 27.0234771,13.0106701 31.7318533,8 M33.5753788,27.5104076 C44.3922914,24.6905859 41.3626093,15.5137381 48.2350129,15.299984 M36.5,30.5 C46.1426274,36.1547972 50.4893299,27.5234771 55.5,32.2318533 M35.9895924,34.0753788 C38.8094141,44.8922914 47.9862619,41.8626093 48.200016,48.7350129" id="Shape" stroke="#000000" stroke-width="0.5" transform="translate(31.500000, 31.500000) rotate(-24.000000) translate(-31.500000, -31.500000) "/><path d="M30.5,37 L33,37 L30.5,54 L28,37 L30.5,37 L30.5,54 M26.5104076,35.4895924 L28.2781746,37.2573593 L14.4895924,47.5104076 L24.7426407,33.7218254 L26.5104076,35.4895924 L14.4895924,47.5104076 M25,31.5 L25,34 L8,31.5 L25,29 L25,31.5 L8,31.5 M26.5104076,26.5104076 L24.7426407,28.2781746 L14.4895924,14.4895924 L28.2781746,24.7426407 L26.5104076,26.5104076 L14.4895924,14.4895924 M30.5,25 L28,25 L30.5,8 L33,25 L30.5,25 L30.5,8 M35.4895924,26.5104076 L33.7218254,24.7426407 L47.5104076,14.4895924 L37.2573593,28.2781746 L35.4895924,26.5104076 L47.5104076,14.4895924 M37,31.5 L37,29 L54,31.5 L37,34 L37,31.5 L54,31.5 M35.4895924,35.4895924 L37.2573593,33.7218254 L47.5104076,47.5104076 L33.7218254,37.2573593 L35.4895924,35.4895924 L47.5104076,47.5104076" fill="#FCD116" id="Shape" stroke="#000000" stroke-width="0.5"/><circle cx="31.5" cy="31.5" d="M31.5,39 C35.6421358,39 39,35.6421358 39,31.5 C39,27.3578642 35.6421358,24 31.5,24 C27.3578642,24 24,27.3578642 24,31.5 C24,35.6421358 27.3578642,39 31.5,39 Z M31.5,39" fill="#FCD116" id="Oval" r="7.5" stroke="#000000" stroke-width="0.5"/><path d="M37,28.4309359 C36.4958971,29.1426336 36.2078384,27.8971625 34.407471,27.8971625 C32.6071037,27.8971625 32.3190449,29.2315959 32.0309862,28.9647092 C31.7429274,28.6978225 33.5432947,27.0965025 34.1194123,27.0075403 C34.6955298,26.9185781 36.3518678,27.6302759 37,28.4309359 M34.7469279,29.05 C35.3146641,29.35 34.8280331,30 34.2602969,30 C33.6925608,30 32.6381936,29.4 33.1248246,29" fill="#000000" id="Shape"/><path d="M32,28.9333333 C32.0714286,28.1333333 32.7857143,28 33.9285714,28 C35.0714286,28 35.5714286,28.8 36,29 C35.5,29 35.0714286,28.3333333 33.9285714,28.3333333 C32.7857143,28.3333333 32.7857143,28.3333333 32,29 M32.0253417,29.226033 C32.2860481,28.7616528 32.611931,29.6904132 33.3288735,29.6904132 C34.0458159,29.6904132 34.4368754,29.4582231 34.8931115,29.0712396 C35.3493476,28.6842561 34.2413457,30 33.5244032,30 C32.8074608,30 31.829812,29.5356198 32.0253417,29.226033" fill="#000000" id="Shape"/><path d="M35,30 C35.6855353,29.6315789 35.2636674,29.1052632 35,29 C35.105467,29.1052632 35.5273348,29.6315789 35,30 M31.3389831,34.1672355 C31.7457627,34.1672355 31.8813559,34 32.4237288,34 C32.9661017,34 34.2542373,34.9197952 35,34.5853242 C33.440678,35.337884 34.0508475,34.8361775 31.3389831,34.8361775 L31,34.8361775 M35,35 C34.6363636,34.5625 34.7272727,34.6875 34,34 C34.7272727,34.375 34.9090909,34.5625 35,35 M31.3389831,35 C33.0338983,35 32.7627119,34.7368421 35,34 C33.3728814,34.1578947 33.0338983,34.5789474 31.3389831,34.5789474 L31,34.5789474 M31,33.8343197 C31.3402103,33.8343197 31.4374133,33.4355545 31.8262251,33.4355545 C32.2150368,33.4355545 32.7496531,33.6748136 32.9926604,33.9938257 C33.0412619,34.0735788 32.846856,33.3558015 32.4580442,33.2760485 C32.0692324,33.1962954 32.2150368,32.1595061 31.7776236,32 C31.7776236,32.3190121 31.923428,32.2392591 31.9720295,32.7177773 C31.9720295,33.1165424 31.5346162,33.1165424 31.4374133,32.7177773 C31.5346162,33.3558015 31.2430074,33.3558015 31,33.3558015" fill="#000000" id="Shape"/></g><g fill="#000000" id="Group" transform="translate(29.000000, 31.000000) scale(-1, 1) translate(-29.000000, -31.000000) translate(26.000000, 27.000000)"><g id="right"><path d="M6,1.43093587 C5.49589715,2.14263365 5.20783837,0.897162532 3.40747104,0.897162532 C1.6071037,0.897162532 1.31904493,2.23159587 1.03098615,1.9647092 C0.742927378,1.69782253 2.54329471,0.0965025308 3.11941226,0.00754030844 C3.69552981,-0.0814219139 5.35186776,0.630275865 6,1.43093587 M3.74692792,2.05 C4.31466407,2.35 3.82803308,3 3.26029693,3 C2.69256077,3 1.63819363,2.4 2.12482462,2" id="Shape"/><path d="M2,1.93333333 C2.07142857,1.13333333 2.78571429,1 3.92857143,1 C5.07142857,1 5.57142857,1.8 6,2 C5.5,2 5.07142857,1.33333333 3.92857143,1.33333333 C2.78571429,1.33333333 2.78571429,1.33333333 2,2 M2.02534174,2.22603297 C2.28604808,1.76165276 2.61193101,2.69041319 3.32887346,2.69041319 C4.0458159,2.69041319 4.43687542,2.45822308 4.89311152,2.07123957 C5.34934762,1.68425606 4.24134566,3 3.52440321,3 C2.80746077,3 1.82981198,2.53561978 2.02534174,2.22603297" id="Shape"/><path d="M5,3 C5.85691912,2.63157895 5.32958428,2.10526316 5,2 C5.13183371,2.10526316 5.65916855,2.63157895 5,3 M0.338983051,7.16723549 C0.745762712,7.16723549 0.881355932,7 1.42372881,7 C1.96610169,7 3.25423729,7.91979522 4,7.58532423 C2.44067797,8.33788396 3.05084746,7.83617747 0.338983051,7.83617747 L0,7.83617747 M5,8 C4.63636364,7.5625 4.72727273,7.6875 4,7 C4.72727273,7.375 4.90909091,7.5625 5,8 M0.338983051,8 C2.03389831,8 1.76271186,7.73684211 4,7 C2.37288136,7.15789474 2.03389831,7.57894737 0.338983051,7.57894737 L0,7.57894737 M0,6.83431969 C0.510315477,6.83431969 0.656119899,6.43555454 1.23933759,6.43555454 C1.82255527,6.43555454 2.6244796,6.67481363 2.98899065,6.99382575 C3.06189286,7.07357878 2.77028402,6.35580151 2.18706633,6.27604848 C1.60384864,6.19629545 1.82255527,5.15950606 1.16643538,5 C1.16643538,5.31901212 1.38514201,5.23925909 1.45804422,5.71777727 C1.45804422,6.11654242 0.801924321,6.11654242 0.656119899,5.71777727 C0.801924321,6.35580151 0.364511055,6.35580151 0,6.35580151" id="Shape"/></g></g><path d="M30.5,35 C30.2291748,35 29.5250292,35.2084034 30.5,35.2084034 C31.4749708,35.2084034 30.7708252,35 30.5,35" fill="#000000" id="Shape"/></g></g></g></g></svg>