<?xml version="1.0" ?><svg height="120px" version="1.1" viewBox="0 0 180 120" width="180px" xmlns="http://www.w3.org/2000/svg" xmlns:sketch="http://www.bohemiancoding.com/sketch/ns" xmlns:xlink="http://www.w3.org/1999/xlink"><title/><defs/><g fill="none" fill-rule="evenodd" id="Africa,-Middle-East-and-India" stroke="none" stroke-width="1"><g id="Africa,-Middle-Eest-and-India" transform="translate(-800.000000, -1001.000000)"><g id="Mauritania" transform="translate(800.000000, 1001.000000)"><rect d="M0.00276191524,-1.42108547e-14 L0.00276191524,120 L180.002762,120 L180.002762,-1.42108547e-14 L0.00276191524,-1.42108547e-14 Z M0.00276191524,-1.42108547e-14" fill="#479951" height="120" id="Rectangle-3" width="180" x="0.00276191524" y="-1.42112908e-14"/><path d="M123.725128,34.3778524 C125.195818,38.3056243 126,42.5588987 126,47 C126,66.882252 109.882252,83 90,83 C70.117748,83 54,66.882252 54,47 C54,44.0856217 54.34631,41.2521284 55.0000236,38.5384268 C55.0220502,56.470018 70.4597742,71 89.5,71 C108.553825,71 124,56.4492553 124,38.5 C124,37.1036309 123.906518,35.72783 123.725128,34.3778481 L123.725128,34.3778524 Z M90.4999997,51.75 L81.9771145,56.2307469 L83.6048403,46.7403735 L76.7096804,40.0192539 L86.2385583,38.6346258 L90.5000002,30 L94.7614447,38.6346279 L104.290322,40.0192608 L97.3951591,46.7403753 L99.0228852,56.2307471 L90.4999997,51.75 Z M90.4999997,51.75" fill="#E5B731" id="Oval-8"/></g></g></g></svg>