<?xml version="1.0" ?><svg height="120px" version="1.1" viewBox="0 0 180 120" width="180px" xmlns="http://www.w3.org/2000/svg" xmlns:sketch="http://www.bohemiancoding.com/sketch/ns" xmlns:xlink="http://www.w3.org/1999/xlink"><title/><defs/><g fill="none" fill-rule="evenodd" id="Page-1" stroke="none" stroke-width="1"><g id="rectangle_dominica"><rect fill="#57BB63" height="120" id="Path" width="180" x="0" y="0"/><path d="M71,41 L71,0 L84,0 L84,41 L180,41 L180,54 L84,54 L84,120 L71,120 L71,54 L0,54 L0,41 L71,41 Z" fill="#E5B731" id="Rectangle-53"/><path d="M84,54 L84,0 L97,0 L97,54 L180,54 L180,67 L97,67 L97,120 L84,120 L84,67 L0,67 L0,54 L84,54 Z" fill="#262626" id="Rectangle-53"/><path d="M97,66 L97,0 L110,0 L110,66 L180,66 L180,79 L110,79 L110,120 L97,120 L97,79 L0,79 L0,66 L97,66 Z" fill="#FFFFFF" id="Rectangle-53"/><g id="bird" transform="translate(51.373494, 21.000000)"><path d="M58.732395,73.4836771 C46.5958059,80.5242353 31.609792,80.5242353 19.473203,73.4836771 C7.33661396,66.4431186 -0.0857270001,53.4438049 0.0287322964,39.4290872 C-0.0857270001,25.4143696 7.33661396,12.4150557 19.473203,5.37449738 C31.609792,-1.66606095 46.5958059,-1.66606095 58.732395,5.37449738 C70.8689839,12.4150557 78.2913249,25.4143696 78.1768655,39.4290872 C78.2913249,53.4438049 70.8689839,66.4431186 58.732395,73.4836771 L58.732395,73.4836771 Z" fill="#CA4638" id="Shape"/><path d="M39.0715949,5.06486953 L40.2090717,8.57881391 C40.2090717,8.57881391 44.022352,8.69334247 44.022352,8.63607819 C44.022352,8.57881391 41.0055657,10.9396639 41.0055657,10.9396639 C41.0055657,10.9396639 42.4293639,14.9715897 42.3720997,14.8570612 C42.3148354,14.7425326 39.0715949,12.4389469 39.0715949,12.4389469 C39.0715949,12.4389469 35.7710901,14.7425326 35.8283544,14.7425326 C35.8856186,14.7425326 37.0803597,10.9396639 37.0803597,10.9396639 L34.1208377,8.69334247 L37.8195895,8.63607819 C37.8195895,8.57881391 39.0715949,5.06486953 39.0715949,5.06486953 L39.0715949,5.06486953 Z M39.0715949,73.9381793 L37.9341181,70.4242349 C37.9341181,70.4242349 34.1208377,70.3097063 34.1208377,70.3669706 C34.1208377,70.4242349 37.137624,68.0633848 37.137624,68.0633848 C37.137624,68.0633848 35.7138258,64.031459 35.7710901,64.1459876 C35.8283544,64.2605162 39.0715949,66.5667048 39.0715949,66.5667048 C39.0715949,66.5667048 42.3720997,64.2605162 42.3148354,64.2605162 C42.2575711,64.2605162 41.06283,68.0633848 41.06283,68.0633848 L44.022352,70.3097063 L40.3236002,70.3669706 C40.3236002,70.4242349 39.0715949,73.9381793 39.0715949,73.9381793 L39.0715949,73.9381793 Z M55.96716,21.0233828 L54.8270803,17.5094385 C54.8270803,17.5094385 51.0164028,17.3949099 51.0164028,17.4521742 C51.0164028,17.5094385 54.0305862,15.1485884 54.0305862,15.1485884 C54.0305862,15.1485884 52.6093909,11.1166626 52.6666552,11.2311912 C52.7213166,11.3457197 55.96716,13.6493055 55.96716,13.6493055 C55.96716,13.6493055 59.2676648,11.3457197 59.2104005,11.3457197 C59.1531362,11.3457197 57.9583951,15.1485884 57.9583951,15.1485884 L60.9179172,17.3949099 L57.2191654,17.4521742 C57.2191654,17.5094385 55.96716,21.0233828 55.96716,21.0233828 L55.96716,21.0233828 Z M66.9228577,53.0523351 L65.7853809,49.5383907 C65.7853809,49.5383907 61.9721005,49.4238621 61.9721005,49.4811264 C61.9721005,49.5383907 64.9888868,47.1775407 64.9888868,47.1775407 C64.9888868,47.1775407 63.5650886,43.1456149 63.6223529,43.2601434 C63.6796172,43.374672 66.9228577,45.6782577 66.9228577,45.6782577 C66.9228577,45.6782577 70.2233625,43.374672 70.1660982,43.374672 C70.1114368,43.374672 68.9140928,47.1775407 68.9140928,47.1775407 L71.8736149,49.4238621 L68.174863,49.4811264 C68.174863,49.5383907 66.9228577,53.0523351 66.9228577,53.0523351 L66.9228577,53.0523351 Z M11.2151262,53.9659606 L10.0776494,50.4546192 C10.0776494,50.4546192 6.26436902,50.3374877 6.26436902,50.3973549 C6.26436902,50.4546192 9.28115534,48.0911662 9.28115534,48.0911662 C9.28115534,48.0911662 7.85735714,44.0592404 7.91462142,44.1763719 C7.9718857,44.2909004 11.2151262,46.5944862 11.2151262,46.5944862 C11.2151262,46.5944862 14.515631,44.2909004 14.4583667,44.2909004 C14.4011024,44.2909004 13.2063614,48.0911662 13.2063614,48.0911662 L16.1658834,50.3374877 L12.4671316,50.3973549 C12.4671316,50.4546192 11.2151262,53.9659606 11.2151262,53.9659606 L11.2151262,53.9659606 Z M21.3300802,21.3982036 L20.1900004,17.8842592 C20.1900004,17.8842592 16.379323,17.7697306 16.379323,17.8269949 C16.379323,17.8842592 19.3935064,15.5234092 19.3935064,15.5234092 C19.3935064,15.5234092 17.9723111,11.4914834 18.0295754,11.6060119 C18.0842367,11.7205405 21.3300802,14.0241262 21.3300802,14.0241262 C21.3300802,14.0241262 24.6305849,11.7205405 24.5733207,11.7205405 C24.5160564,11.7205405 23.3213153,15.5234092 23.3213153,15.5234092 L26.2808373,17.7697306 L22.5820855,17.8269949 C22.5820855,17.8842592 21.3300802,21.3982036 21.3300802,21.3982036 L21.3300802,21.3982036 Z M10.9938779,25.9585225 L12.1313547,29.4724669 C12.1313547,29.4724669 15.944635,29.5869954 15.944635,29.5297311 C15.944635,29.4724669 12.9278487,31.8333169 12.9278487,31.8333169 C12.9278487,31.8333169 14.3516469,35.8652427 14.2943826,35.7507141 C14.2371184,35.6361856 10.9938779,33.3325998 10.9938779,33.3325998 C10.9938779,33.3325998 7.69337307,35.6361856 7.75063735,35.6361856 C7.8052987,35.6361856 9.00264271,31.8333169 9.00264271,31.8333169 L6.04312067,29.5869954 L9.74187249,29.5297311 C9.74187249,29.4724669 10.9938779,25.9585225 10.9938779,25.9585225 L10.9938779,25.9585225 Z M21.8792966,57.9302104 L23.0167735,61.4415519 C23.0167735,61.4415519 26.8300538,61.5586834 26.8300538,61.5014191 C26.8300538,61.4415519 23.8158704,63.8050049 23.8158704,63.8050049 C23.8158704,63.8050049 25.2370657,67.8369307 25.1798014,67.7197992 C25.1225372,67.6052706 21.8792966,65.3016849 21.8792966,65.3016849 C21.8792966,65.3016849 18.5787919,67.6052706 18.6360561,67.6052706 C18.6933204,67.6052706 19.8880615,63.8050049 19.8880615,63.8050049 L16.9285395,61.5586834 L20.6272913,61.5014191 C20.6272913,61.4415519 21.8792966,57.9302104 21.8792966,57.9302104 L21.8792966,57.9302104 Z M66.7250356,25.1073671 L67.8625124,28.6187085 C67.8625124,28.6187085 71.6757928,28.73584 71.6757928,28.6785757 C71.6757928,28.6187085 68.6590065,30.9821615 68.6590065,30.9821615 C68.6590065,30.9821615 70.0828047,35.0140873 70.0255404,34.8969558 C69.9682761,34.7824272 66.7250356,32.4788415 66.7250356,32.4788415 C66.7250356,32.4788415 63.4245308,34.7824272 63.4817951,34.7824272 C63.5390594,34.7824272 64.7338005,30.9821615 64.7338005,30.9821615 L61.7742784,28.73584 L65.4730303,28.6785757 C65.4730303,28.6187085 66.7250356,25.1073671 66.7250356,25.1073671 L66.7250356,25.1073671 Z M56.5788466,57.6282715 L57.7163234,61.1422159 C57.7163234,61.1422159 61.5296038,61.2567444 61.5296038,61.1994802 C61.5296038,61.1422159 58.5128175,63.5030659 58.5128175,63.5030659 C58.5128175,63.5030659 59.9366157,67.5349917 59.8793514,67.4204632 C59.8220871,67.3033317 56.5788466,64.9997459 56.5788466,64.9997459 C56.5788466,64.9997459 53.2783418,67.3033317 53.3356061,67.3033317 C53.3928704,67.3033317 54.5876115,63.5030659 54.5876115,63.5030659 L51.6280894,61.2567444 L55.3268412,61.1994802 C55.3268412,61.1422159 56.5788466,57.6282715 56.5788466,57.6282715 L56.5788466,57.6282715 Z" fill="#479951" id="Shape"/><path d="M31.9489359,52.1692474 C32.5985247,51.6528806 33.5373497,51.9625764 33.8261522,52.5825893 C34.1149547,53.2026021 33.8985696,53.8232355 34.2593559,53.8232355 C34.6205759,53.8232355 47.8140507,52.9780082 48.174837,53.4949959 C48.5360569,54.0113627 48.6084744,55.0447174 48.2472544,55.4555767 C47.8860345,55.8714012 30.0157905,56.7036615 29.5825867,56.287837 C29.149383,55.8782191 28.4993605,54.1193439 28.4993605,54.0156981 C29.7989718,53.9120524 31.2989135,52.686235 31.9489359,52.1692474 L31.9489359,52.1692474 Z" fill="#9C4A00" id="Shape" stroke="#000000" stroke-width="0.2" transform="translate(38.520609, 54.121009) rotate(0.986600) translate(-38.520609, -54.121009) "/><path d="M42.4795296,56.3125755 C42.4605382,57.4624511 40.1958888,56.4286895 40.1449816,54.3270249 C40.1958888,52.2253603 42.1261497,51.1469258 42.1683527,52.345836 C42.2013239,53.3421131 41.505097,53.0218832 41.505097,54.320161 C41.505097,55.618439 42.4465587,55.2289454 42.4795296,56.3125755 L42.4795296,56.3125755 Z" fill="#FCD116" id="Shape" stroke="#000000" stroke-width="0.2" transform="translate(41.316296, 54.319441) rotate(0.755462) translate(-41.316296, -54.319441) "/><path d="M40.6601203,56.3246957 C40.6411289,57.449426 38.636749,56.4349136 38.5858416,54.379208 C38.636749,52.3235021 40.5670099,51.2686506 40.6092129,52.4413431 C40.6421839,53.4158341 40.214055,53.1093203 40.214055,54.3792077 C40.214055,55.6490954 40.6271491,55.2647623 40.6601203,56.3246957 L40.6601203,56.3246957 Z" fill="#FCD116" id="Shape" stroke="#000000" stroke-width="0.2" transform="translate(39.627010, 54.425864) rotate(0.755462) translate(-39.627010, -54.425864) "/><path d="M39.1133698,56.3979904 C39.0922692,57.614664 36.865257,56.5172183 36.8086952,54.2934647 C36.865257,52.069711 39.0099174,50.9286284 39.056808,52.1971852 C39.0934413,53.2513378 38.7831954,52.9197677 38.7831954,54.2934647 C38.7831954,55.6671618 39.0767365,55.2514104 39.1133698,56.3979904 L39.1133698,56.3979904 Z" fill="#FCD116" id="Shape" stroke="#000000" stroke-width="0.2" transform="translate(37.980010, 54.271939) rotate(0.755462) translate(-37.980010, -54.271939) "/><path d="M37.2974009,54.3005837 C37.2974009,55.4243007 37.8988021,55.2585295 37.9354354,56.4051097 C37.9143345,57.6217833 35.6873226,56.5243373 35.6307605,54.3005837 C35.6873226,52.0768301 37.8251191,50.4152087 37.8720097,51.6837652 C37.908643,52.7379178 37.2974009,53.176867 37.2974009,54.3005837 L37.2974009,54.3005837 Z" fill="#FCD116" id="Shape" stroke="#000000" stroke-width="0.2" transform="translate(36.802075, 54.107217) rotate(0.755462) translate(-36.802075, -54.107217) "/><ellipse cx="34.098275" cy="23.2961497" fill="#E5B731" id="Oval-1" rx="1.56175305" ry="1.17131479"/><path d="M40.9795568,45.8044385 C36.7714145,29.2865631 37.8906209,26.1320439 37.8906209,26.1320439 C37.8906209,26.1320439 51.0735054,32.8096567 51.0735044,45.8044385 C51.0735034,58.7992203 50.8015194,64.6430847 49.471589,64.6430847 C48.1416585,64.6430847 45.1876983,62.3223155 40.9795568,45.8044385 L40.9795568,45.8044385 Z" fill="#57BB63" id="Path-28" stroke="#262626" stroke-width="0.2"/><path d="M39.8303567,53.2497097 C35.0772284,52.417232 35.6395001,44.481117 35.6395001,44.481117 L40.1956299,41.4534411 L45.4185044,49.3166035 C45.4185044,49.3166035 44.583485,54.082187 39.8303567,53.2497097 L39.8303567,53.2497097 Z" fill="#479951" id="Path-26" stroke="#262626" stroke-width="0.2"/><path d="M33.2940745,26.0224873 C33.2940745,26.0224873 31.190131,29.8084166 31.6870754,36.2859805 C32.18402,42.7635445 37.5700854,45.2851249 39.1580202,48.9365871 L38.2947854,28.0560198 L33.2940745,26.0224873 L33.2940745,26.0224873 Z" fill="#9461C9" id="Path-27" stroke="#000000" stroke-width="0.2"/><path d="M36.6028863,34.3874237 L48.1119183,51.8643657 C48.1119183,51.8643657 42.7840628,48.7985609 39.5855701,44.382745 C36.3870775,39.9669291 36.6028863,34.3874237 36.6028863,34.3874237 L36.6028863,34.3874237 Z" fill="#CA4638" id="Path-25" stroke="#262626" stroke-width="0.2"/><path d="M42.7441548,46.2210585 C47.0942836,51.1788243 52.6067823,55.691539 53.2112546,57.3767632 C53.669562,55.6322465 52.7646409,45.728435 49.5897882,43.9923068 C48.9019459,40.8171996 48.9642226,38.0249048 45.9942483,34.7448171 C43.6168902,32.1192244 40.7423963,28.6920073 38.1547258,29.8841658 C35.5670554,31.0763245 36.4963799,33.5516417 36.918338,36.4604034 C37.2117562,38.4830782 39.581324,42.6164357 42.7441548,46.2210585 L42.7441548,46.2210585 Z" fill="#479951" id="Oval-3" stroke="#262626" stroke-width="0.2"/><path d="M38.7835488,27.4376817 C38.7835391,27.4395964 38.7835342,27.4415117 38.7835342,27.4434277 C38.7835342,27.4758952 38.782702,27.5080853 38.7810664,27.5399562 L38.7810664,27.5399562 C39.0300827,27.450024 39.255743,27.3988076 39.3995094,27.3988076 C39.9026534,27.3988076 39.2122211,28.0261115 39.2122211,28.7448885 C39.2122211,29.4636656 38.8043425,30.0463494 38.3011985,30.0463494 C37.7980547,30.0463494 37.3901759,29.4636656 37.3901759,28.7448885 C37.3901759,28.6865847 37.4000862,28.6288828 37.4185675,28.5720686 C37.2267363,28.4142688 37.0789234,28.1595287 37.0079063,27.8546732 L37.0079063,27.8546732 C36.9507858,27.8706986 36.891751,27.8790977 36.8313429,27.8790977 C36.6308161,27.8790977 36.4454212,27.7865443 36.2949484,27.6297086 C36.1326117,27.9875502 35.8506007,28.2243042 35.529882,28.2243042 C35.0792579,28.2243042 34.7050489,27.7569165 34.6318365,27.1429721 L34.6318365,27.1429721 C34.4739605,27.33059 34.2709958,27.4434277 34.049583,27.4434277 C33.546439,27.4434277 33.1385603,26.8607438 33.1385603,26.1419668 C33.1385603,25.6276879 33.9096212,25.1602366 34.5326597,24.9358773 C34.6508969,24.3254964 34.9944032,23.8840099 35.3997359,23.8840099 C35.4313679,23.8840099 35.4626235,23.8866986 35.4934247,23.8919466 C35.6421078,23.4618378 35.9522498,23.1660036 36.3107585,23.1660036 C36.4488136,23.1660036 36.5796966,23.2098722 36.6969493,23.2883839 C37.1722772,22.8021272 37.8510856,22.4978764 38.604696,22.4978764 C40.0422502,22.4978764 41.2076178,23.6049757 41.2076178,24.970652 C41.2076178,26.2792188 40.1376785,27.3503826 38.7835488,27.4376817 L38.7835488,27.4376817 Z" fill="#479951" id="Oval-3" stroke="#262626" stroke-width="0.2"/><path d="M39.5038608,26.1280711 C39.3753472,26.0509496 39.2813216,25.9953827 39.2279498,25.9678533 C38.7325391,25.7720345 38.0930663,25.1021065 38.2021138,24.4873326 C38.0155596,24.2717785 37.9455209,24.0044954 38.1342679,23.6819158 C38.2259605,23.5382226 38.3466926,23.4476123 38.4928748,23.4007504 L38.4928748,23.4007504 C38.3274739,23.3161859 38.187898,23.2380725 38.187898,23.2380725 C38.187898,23.2380725 37.7003689,24.4694097 37.0604312,24.2463238 C36.590575,24.0825293 37.2363474,22.895781 37.2363474,22.895781 C37.2363474,22.895781 36.8325569,24.3321225 36.0511288,24.1882116 C35.1953641,24.0306106 33.4448498,22.0598563 33.3741388,21.9335308 C32.7999926,20.9954211 33.7054239,19.6657757 34.7819494,18.908144 C36.0009312,18.0884031 38.1481488,17.779017 39.7492458,18.4730666 C42.3164778,19.2622623 42.0877398,21.3266869 44.0260425,21.5656194 C43.6185314,22.1019304 42.0953294,21.8641041 41.5339609,21.755012 L41.5339609,21.755012 C42.9004446,22.263729 44.5063625,23.0755634 45.3654552,22.7119725 C44.8591219,23.7100445 44.0345171,23.9743305 43.233211,23.9359406 C44.2136715,24.4053319 45.2082317,24.7399062 46.0152807,24.4469514 C45.4716833,25.169352 44.858594,25.5438003 44.2417297,25.7000343 C45.0403493,25.9457794 45.8371937,26.0527829 46.5797823,25.8845648 C46.2220716,26.6811232 45.6305103,27.0580979 44.9306913,27.1676937 L44.9306913,27.1676937 C46.1103391,27.6934352 47.2544193,27.9704993 48.1819009,27.629749 C47.2587836,29.6853679 44.220196,28.6354914 41.9259552,27.4870206 C43.4486634,28.4086022 45.4229127,29.3830903 47.8688298,29.0390304 C46.0212182,32.3962713 40.3418189,28.4283105 39.5848791,28.1116927 C38.9295087,27.9076109 38.6271035,26.6676229 38.5643336,26.3905292 C38.8036759,26.0758794 39.1163787,26.0206073 39.5038608,26.1280711 L39.5038608,26.1280711 Z" fill="#9461C9" id="Shape" stroke="#000000" stroke-width="0.2"/><path d="M37.6122194,21.3439584 C38.1153634,21.3439584 38.523242,20.5630819 38.523242,20.5630819 C38.523242,20.5630819 38.1153634,20.0424975 37.6122194,20.0424975 C37.1090754,20.0424975 36.7011968,20.5630819 36.7011968,20.5630819 C36.7011968,20.5630819 37.1090754,21.3439584 37.6122194,21.3439584 L37.6122194,21.3439584 Z" fill="#CA4638" id="Oval-2" stroke="#262626" stroke-width="0.2"/><path d="M34.9231294,21.1200617 C35.0997088,21.7668149 34.6562631,22.6589129 33.5991843,22.9988958 C32.5297208,23.4695863 31.758285,24.4927491 31.3763625,26.1423089 C29.4891211,22.4542803 30.4535158,20.8468612 32.1993337,20.4158115 C33.6926674,19.9029801 34.613117,19.9383355 34.9231294,21.1200617 L34.9231294,21.1200617 L34.9231294,21.1200617 Z" fill="#E5B731" id="Shape" stroke="#000000" stroke-width="0.2" transform="translate(32.689138, 23.094748) rotate(0.550949) translate(-32.689138, -23.094748) "/></g></g></g></svg>