<?xml version="1.0" ?><svg height="120px" version="1.1" viewBox="0 0 180 120" width="180px" xmlns="http://www.w3.org/2000/svg" xmlns:sketch="http://www.bohemiancoding.com/sketch/ns" xmlns:xlink="http://www.w3.org/1999/xlink"><title/><defs/><g fill="none" fill-rule="evenodd" id="Ameria" stroke="none" stroke-width="1"><g id="Group" transform="translate(-600.000000, -200.000000)"><g id="Venezuela" transform="translate(600.000000, 200.000000)"><rect d="M-1.42108547e-14,0 L-1.42108547e-14,120 L180,120 L180,0 L-1.42108547e-14,0 Z M-1.42108547e-14,0" fill="#CA4638" height="120" id="Oval-15-copy" width="180" x="-1.59877022e-14" y="0"/><rect d="M-1.42108547e-14,0 L-1.42108547e-14,80 L180,80 L180,0 L-1.42108547e-14,0 Z M-1.42108547e-14,0" fill="#346DA6" height="80" id="Oval-15-copy" width="180" x="-1.59877022e-14" y="0"/><rect d="M-1.42108547e-14,0 L-1.42108547e-14,40 L180,40 L180,0 L-1.42108547e-14,0 Z M-1.42108547e-14,0" fill="#E5B731" height="40" id="Oval-15-copy" width="180" x="-1.59877022e-14" y="0"/><path d="M84.7257245,49.7517963 L81.1847001,51.3944085 L81.8609754,47.9153004 L78.9962261,45.4513824 L82.9552128,44.9437869 L84.7257247,41.7783903 L86.4962376,44.9437877 L90.4552241,45.451385 L87.5904736,47.915301 L88.266749,51.3944085 L84.7257245,49.7517963 Z M96.5267827,49.649575 L92.6282687,49.8460874 L94.558597,46.8736517 L92.8254476,43.5159928 L96.6863048,44.528421 L99.5136733,42.2567617 L99.9694856,45.854913 L103.450045,47.8086113 L99.870895,49.0199601 L99.1946301,52.4990697 L96.5267827,49.649575 Z M107.959467,54.2695411 L104.294082,52.9271609 L107.232382,50.9452589 L106.948951,47.1773221 L110.107302,49.6178242 L113.597516,48.6314918 L112.611184,52.1217075 L115.051685,55.2800591 L111.283748,54.9966263 L109.301847,57.9349258 L107.959467,54.2695411 Z M116.376356,62.541868 L113.480735,59.9241575 L116.947513,59.1872764 L118.096215,55.5875313 L120.110358,59.0334644 L123.715915,59.4264102 L121.493946,62.2929953 L122.5736,66.1355956 L119.186206,64.4613075 L116.247912,66.443218 L116.376356,62.541868 Z M121.193675,73.8928056 L119.551063,70.3517812 L123.030171,71.0280565 L125.494089,68.1633072 L126.001684,72.1222939 L129.167081,73.8928058 L126.001684,75.6633188 L125.494086,79.6223052 L123.03017,76.7575547 L119.551063,77.4338302 L121.193675,73.8928056 Z M60.4824938,74.4186888 L60.6790062,78.3172028 L57.7065706,76.3868744 L54.3489116,78.1200238 L55.3613398,74.2591666 L53.0896806,71.4317981 L56.6878318,70.9759858 L58.6415302,67.4954268 L59.852879,71.0745764 L63.3319885,71.7508414 L60.4824938,74.4186888 Z M65.1024599,62.9860049 L63.7600798,66.6513895 L61.7781777,63.7130897 L58.0102409,63.9965203 L60.4507431,60.8381697 L59.4644106,57.3479553 L62.9546263,58.3342876 L66.1129779,55.8937869 L65.8295452,59.6617231 L68.7678446,61.6436247 L65.1024599,62.9860049 Z M73.3747868,54.5691152 L70.7570764,57.4647362 L70.0201953,53.9979585 L66.4204502,52.8492568 L69.8663833,50.8351133 L70.2593291,47.2295562 L73.1259142,49.4515254 L76.9685144,48.3718719 L75.2942264,51.7592658 L77.2761368,54.6975593 L73.3747868,54.5691152 Z M73.3747868,54.5691152" fill="#FFFFFF" id="Star-71"/></g></g></g></svg>