<?xml version="1.0" ?><svg height="120px" version="1.1" viewBox="0 0 180 120" width="180px" xmlns="http://www.w3.org/2000/svg" xmlns:sketch="http://www.bohemiancoding.com/sketch/ns" xmlns:xlink="http://www.w3.org/1999/xlink"><title/><defs/><g fill="none" fill-rule="evenodd" id="Page-1" stroke="none" stroke-width="1"><g id="rectangle_french_polynesia"><rect fill="#FFFFFF" height="120" id="Rectangle-326" width="180" x="0" y="0"/><rect fill="#CA4638" height="33" id="Rectangle-3" width="180" x="0" y="0"/><rect fill="#CA4638" height="33" id="Rectangle-3-copy" width="180" x="0" y="87"/><g id="french_polynesia" transform="translate(65.000000, 35.000000)"><path d="M27.8461423,49.9997465 C25.2475557,49.9968835 22.6488242,49.9619753 20.0502719,49.5394032 C18.2596901,49.1818448 16.5765675,48.6601195 15.0000001,47.9917993 C15.8779827,47.3337699 17.7515631,46.1048457 19.6317935,46.0020229 C19.7150266,45.9974714 19.6317935,46.0020229 19.6317935,46.0020229 C19.7150266,45.9974714 19.795901,46.0020229 19.8790762,46.0020229 C22.5406375,46.0020229 23.2808723,48.0065708 25.1290762,48.1668259 C26.977274,48.3273434 28.5244566,46.1557132 30.8165762,46.0757183 C32.7221518,46.0092089 35.0422943,47.2760099 35.7702783,47.7049377 C35.2847643,47.9610347 34.7969798,48.1908896 34.3053454,48.3975982 L31.2335531,49.4003297 C30.1414138,49.6662246 29.0173297,49.8561268 27.8461423,49.9997465 C27.8461423,49.9997465 29.0173297,49.8561268 27.8461423,49.9997465 L27.8461423,49.9997465 L27.8461423,49.9997465 Z M40.0343172,44.9916487 L9.9031605,44.8636356 L9.0000001,44.0461018 C9.0000001,44.0461018 13.7241545,42.0703474 15.0442459,42.0023895 C16.3643373,41.9337532 18.5875891,43.7054093 20.3243799,43.6374484 C22.0609476,43.5690449 23.3812678,42.2062663 25.6735862,42.1383055 C27.9661363,42.0703474 28.5918746,43.7735944 31.0927801,43.5690449 C33.5939087,43.3649438 32.6905195,41.9337532 35.9557543,42.0023895 C38.0819525,42.0466379 40.0018166,43.3041065 41.0826361,44.1761427 C40.7430985,44.4552269 40.3936699,44.7271988 40.0343172,44.9916487 C40.0343172,44.9916487 40.3936699,44.7271988 40.0343172,44.9916487 L40.0343172,44.9916487 L40.0343172,44.9916487 Z M6.2606094,41.8385541 L43.409088,41.9937549 C43.8315525,41.5415171 44.2333565,41.0764163 44.614599,40.5997073 C43.8698399,39.4836995 42.1641358,38.2519843 40.5543833,38.0831238 C38.589441,38.1662441 37.1868684,40.4996971 35.5732068,40.5833624 C33.9595452,40.6664862 32.1357159,38.1662441 30.3114216,38.2501905 C28.4875952,38.3333108 26.5933249,40.5833624 24.7690335,40.5833624 C22.9452043,40.5833624 21.6121513,38.1662441 19.2970836,38.1662441 C16.9820187,38.1662441 15.9295715,40.8330045 14.1757212,40.6664862 C12.4214058,40.4996971 10.8781851,38 9.1945418,38 C7.98310116,38 6.19041926,39.5530982 5.07108278,40.3621342 C5.44772589,40.8685439 5.84434771,41.3611857 6.2606094,41.8385541 C6.2606094,41.8385541 5.84434771,41.3611857 6.2606094,41.8385541 L6.2606094,41.8385541 L6.2606094,41.8385541 Z M46.4479717,37.9634535 L37.0000001,37.9634535 C37.0000001,37.9634535 38.5531823,36.8939115 38.9765909,35.9068602 C39.7528386,36.4005197 39.5411358,36.8939115 41.0943179,36.9761379 C42.6470461,37.0583743 44.1294289,34.9200799 45.6120443,35.002313 C46.2077709,35.0353637 46.8719359,35.5334999 47.453285,36.1121777 C47.1462956,36.7409128 46.8112463,37.3586849 46.4479717,37.9634535 C46.4479717,37.9634535 46.8112463,37.3586849 46.4479717,37.9634535 L46.4479717,37.9634535 L46.4479717,37.9634535 Z M3.49365436,37.9634535 L12.0000001,37.9634535 C12.0000001,37.9634535 10.4468176,36.8939115 10.023406,35.9068602 C9.247158,36.4005197 9.4588639,36.8939115 7.90568138,36.9761379 C6.35318265,37.0583743 4.87056684,34.9200799 3.38795102,35.002313 C3.02060779,35.0226931 2.62724191,35.2199148 2.2433171,35.5038161 C2.61553881,36.3451179 3.03267139,37.1665677 3.49365436,37.9634535 C3.49365436,37.9634535 3.03267139,37.1665677 3.49365436,37.9634535 L3.49365436,37.9634535 L3.49365436,37.9634535 Z M0.66547617,30.7493499 C1.37446231,31.3145204 2.55009745,32.075628 3.69411553,32.028437 C5.5022312,31.9536274 6.77660313,29.3376942 9.2927494,30.1596317 C9.3711609,31.7294383 10.0000001,33 10.0000001,33 L1.26320671,32.9274393 C1.0330123,32.2106822 0.83357533,31.4837928 0.66547617,30.7493499 C0.66547617,30.7493499 0.83357533,31.4837928 0.66547617,30.7493499 L0.66547617,30.7493499 L0.66547617,30.7493499 Z M48.7417007,32.927984 L40.0000001,33 C40.0000001,33 40.5841514,31.7294383 40.6569573,30.1596317 C42.9930786,29.3376942 44.8906695,31.9536274 46.5695872,32.028437 C47.6080827,32.0745648 48.6745339,31.3484063 49.3369076,30.7878375 C49.1701893,31.5082641 48.9718538,32.2224821 48.7416983,32.9279913 C48.7416983,32.9279913 48.9718538,32.2224821 48.7416983,32.9279913 L48.7417007,32.927984 L48.7417007,32.927984 Z M23,32.9791892 L26.9997903,32.8861526 C26.9997903,32.8861526 27.063539,32 24.9681227,32 C22.8729182,32 23.0635422,33.0260135 23,32.9791892 C23,32.9791892 23.0635422,33.0260135 23,32.9791892 C23,32.9791892 23.0635422,33.0260135 23,32.9791892 L23,32.9791892 L23,32.9791892 Z M21.0710068,38 L30.998106,37.9944603 C31.0754143,37.9214928 28.7755624,34.790321 26.0360997,35.011152 C22.9843265,35.0858081 20.9112415,38 21.0710068,38 C21.0710068,38 20.9112415,38 21.0710068,38 C21.0710068,38 20.9112415,38 21.0710068,38 L21.0710068,38 L21.0710068,38 Z" fill="#083D9C" id="path560"/><path d="M30.6737421,24 L30.6409078,9.0724201 C25.7890371,9.3027416 23.2465965,1.98566468 31,0.99529342 C23.0341293,-1.49894863 20.9702669,1.21550043 20,3.44015716 L20.0806564,21.3146971 L30.6737421,24 L30.6737421,24 L30.6737421,24 L30.6737421,24 Z" fill="#630810" id="path563"/><path d="M21.0755652,19.5419018 L31,22 L31,8.86781741 C26.4543864,9.0786513 22.6669172,0.86242526 30.6969874,0.30067061 C22.8182941,-0.752805482 21.9090223,1.14330698 21,3.17973452 L21.0755652,19.5419018 L21.0755652,19.5419018 L21.0755652,19.5419018 L21.0755652,19.5419018 Z" fill="#CE1126" id="path563-copy"/><path d="M14,28 L35,28.0976569" fill="#630810" id="path564" stroke="#630810" stroke-width="2.7916038"/><path d="M0.31578277,28.9307008 L9,29 L9,23.4880746 L0.06362485,23.0519128 C-0.074340077,25.0180657 0.01311638,26.9927867 0.31578277,28.9307008 C0.31578277,28.9307008 0.01311638,26.9927867 0.31578277,28.9307008 L0.31578277,28.9307008 L0.31578277,28.9307008 Z M0.15339862,22.051808 L10,23 L9.9255635,18.851864 L1.72936406,15.6224443 C0.91312468,17.7036658 0.39249919,19.8676554 0.15339858,22.051808 C0.15339858,22.051808 0.39249919,19.8676554 0.15339858,22.051808 L0.15339862,22.051808 L0.15339862,22.051808 Z M49.9271335,23.0054658 L40,23.7501107 L40.0683221,29 L49.1781103,29 L49.9510668,23.3572244 C49.9438793,23.2399105 49.9359013,23.1226543 49.9271335,23.0054658 C49.9271335,23.0054658 49.9359013,23.1226543 49.9271335,23.0054658 L49.9271335,23.0054658 L49.9271335,23.0054658 Z M48.0618051,15.1097061 L40,18.2054455 L40.075543,22 L49.6912547,20.9507684 C49.3804323,18.9481964 48.8358636,16.9836738 48.0618051,15.1097061 C48.0618051,15.1097061 48.8358636,16.9836738 48.0618051,15.1097061 L48.0618051,15.1097061 L48.0618051,15.1097061 Z M11.4016364,3.91784111 L18.9924174,15.2417242 L19,19 L14.3021463,15.5534039 C14.3021463,15.5534039 13.7387305,15.5311683 13.7403418,15.1142354 C13.7431077,14.6098072 14.2816391,14.7427267 14.2816391,14.0912718 C14.2816391,13.4405345 13.5389426,13.4830852 13.5389426,12.9762601 C13.5389426,12.469444 14.557337,12.3819961 14.557337,11.658341 C14.557337,10.9344476 13.2559652,11.2647872 12.278914,11.1925898 C11.3023312,11.1201484 10.1175402,10.8437141 10.0009359,11.2979425 C10.0009359,11.2979425 7.96862467,8.99842455 6.80057062,7.67913759 C7.26794666,7.18882482 7.76045146,6.7119744 8.2784025,6.2499972 C9.2894734,5.36825573 10.3282685,4.59534565 11.4016364,3.91784111 C11.4016364,3.91784111 10.3282685,4.59534565 11.4016364,3.91784111 L11.4016364,3.91784111 L11.4016364,3.91784111 Z M19.3055502,0.62686822 L20,1.51907907 C19.0550899,2.06270736 19.6070843,13 19.6070843,13 C19.6070843,13 15.3330394,5.59259772 13.6598865,2.65476143 C15.4348594,1.78144885 17.3077572,1.12310888 19.3055502,0.62686822 C19.3055502,0.62686822 17.3077572,1.12310888 19.3055502,0.62686822 L19.3055502,0.62686822 L19.3055502,0.62686822 Z M30.8794919,0.72744296 L29,7.41923903 C29,7.41923903 30.0060104,7.54826475 30.8210646,7.48456569 C31.0248847,7.46858269 31.1444508,7.51169077 31.2106455,7.57788944 C31.2243878,7.59274959 31.2379561,7.61669126 31.2468856,7.63388369 C31.2528058,7.64637264 31.2612309,7.66714578 31.2650057,7.6805456 C31.2730945,7.71308792 31.2759357,7.75690984 31.2740657,7.7925341 C31.2595522,7.99515268 31.1200453,8.22182342 31.1200453,8.22182342 L31.1109853,13 L36.6854407,2.8586929 C35.4852719,2.26376846 34.2062358,1.75348593 32.8492594,1.3392804 C32.1791408,1.09273283 31.5244443,0.89157209 30.8794919,0.72744296 C30.8794919,0.72744296 31.5244443,0.89157209 30.8794919,0.72744296 L30.8794919,0.72744296 L30.8794919,0.72744296 Z M42.784579,7.20460994 C41.596486,8.49080768 39.2545712,11.0688596 39.2356101,11.088734 C39.0349005,10.5931348 37.7840849,10.768821 36.6147892,10.768821 C35.970171,10.768821 34.9417222,10.8592418 34.9049719,11.241566 C34.8682215,11.6238903 35.8046444,12.2907937 35.7912885,12.490989 C35.7779326,12.6911843 35.0894129,13.2191495 35.1192699,13.5739968 C35.1567178,13.997285 35.6383699,14.3740115 35.5804803,14.4312855 L31,19 L31.0089619,14.5514019 L37.8997289,3.50437177 C39.7317866,4.5470045 41.3613337,5.79600583 42.784579,7.20460994 C42.784579,7.20460994 41.3613337,5.79600583 42.784579,7.20460994 L42.784579,7.20460994 L42.784579,7.20460994 Z M2.23787294,14.421025 L9.8285453,18 L10.9463739,16.8664242 C10.9463739,16.8664242 10.2264253,16.3846106 10.2620719,15.941322 C10.275626,15.4929195 10.9862883,15.4248858 10.9998454,14.9382013 C11.0128989,14.4897926 10.194796,14.4359014 10.1860102,13.9872529 C10.1325449,13.5010542 10.8165934,12.9797379 10.8165934,12.9797379 L5.82880522,8.76003318 C4.33917423,10.517954 3.14655696,12.4243257 2.23787294,14.421025 C2.23787294,14.421025 3.14655696,12.4243257 2.23787294,14.421025 L2.23787294,14.421025 L2.23787294,14.421025 Z M47.7379927,14.3607356 L40.1313357,18 C39.9869682,17.4873277 39.8620975,16.9827856 39.179522,16.5684861 C39.2464151,16.531691 39.7730059,16.2227576 39.7730059,15.7033986 C39.7730095,15.2277686 39.1966752,15.0959554 39.0339506,14.869207 C39.0240821,14.8546571 39.0177254,14.8332326 39.0003571,14.7971163 C38.9992642,14.792496 39.0010989,14.7812416 39.0003571,14.7559218 C39.0003571,14.7485034 38.9995867,14.7324044 39.0003571,14.7044284 C39.0021022,14.6970793 39.0091255,14.6808717 39.0115549,14.6735324 C39.1149761,14.3873483 39.7221266,14.0991176 39.7618081,13.4479918 C39.6865159,13.0192478 39.1633256,12.4381264 39.1123352,12.1812564 C39.1121882,12.1793549 39.1123997,12.1728 39.1123352,12.1503604 C39.1127007,12.1488214 39.1118801,12.1415382 39.123533,12.1194646 L44.1212277,8.64392856 C45.604254,10.3819189 46.811775,12.3113622 47.7379926,14.3607356 C47.7379926,14.3607356 46.811775,12.3113622 47.7379926,14.3607356 L47.7379927,14.3607356 L47.7379927,14.3607356 Z" fill="#FF9C10" id="path590"/><path d="M31,22 L34.9312025,21.9020993 L35,21 L31,22 L31,22 L31,22 L31,22 Z" fill="#FF9C10" id="path596"/><path d="M18,23 L14,22.864285 L14,21 L18,23 L18,23 L18,23 L18,23 Z" fill="#FF9C10" id="path597"/><path d="M18.9624191,22 L14.459622,19.7296548 L14.459622,16.7768202 C14.459622,16.7768202 13.9319637,16.8504573 14.0073767,16.2598898 C14.0322661,15.0295033 17.3167102,18.5056062 19,19.6374869 L18.9624191,22 L18.9624191,22 L18.9624191,22 L18.9624191,22 Z" fill="#FF9C10" id="path598"/><path d="M31.0149275,22 L31,20.1374808 C31,20.1374808 34.2975899,16.6450522 35,16 C35,16.7165168 34.6185365,17.2714138 34.6185365,17.2714138 L34.6185365,19.9940862 L31.0149275,22 L31.0149275,22 L31.0149275,22 L31.0149275,22 Z" fill="#FF9C10" id="path599"/><g id="group" transform="translate(16.500000, 25.000000) scale(-1, 1) translate(-16.500000, -25.000000) translate(10.000000, 11.000000)"><path d="M8.71261192,20.1787852 C9.28638553,20.068318 8.93147424,5.98708014 8.93147424,5.98708014 C8.93147424,5.98708014 9.5037361,5.81081631 9.54563598,5.35786934 C9.58753145,4.90033237 8.84343771,4.95245022 8.84343771,4.3668495 C8.84343771,3.78172938 9.58836549,4.05750373 9.61428079,3.46852667 C9.60895699,2.90535886 8.95869544,3.00692298 8.91017064,2.43945318 C8.86164583,1.87198337 9.53572875,1.97549211 9.59325037,1.43475113 C9.64153615,0.969016646 8.84079747,0.640199327 8.80483638,0.308106348 C8.78152992,0.0950913843 9.7658183,0 9.7658183,0 C10.5472902,0.0108560051 11.3164495,0.0262172838 12.0979215,0.0370702472 C13.7645484,0.0382747801 12.2897,0.802650841 12.3145532,1.45578753 C12.3294669,1.88244769 12.7949789,2.07586293 12.8695384,2.44680737 C12.8954581,2.82764052 12.1738635,2.94614381 12.1586002,3.4031941 C12.1451071,3.811038 13.0045269,3.91679426 12.9608524,4.29570199 C12.8859388,4.93701844 12.2323749,5.01650665 12.2476382,5.40481644 C12.2625518,5.79264866 12.9968048,5.88440626 13,6.19385259 C12.9542013,6.79247808 12.9893482,20.3547727 12.9618538,20.8501543 C11.037978,28.7577042 1.31290049,29.8527088 0,19.3105632 C2.5641663,21.8889763 6.79780733,22.5846268 8.71261192,20.1787852 C8.71261192,20.1787852 6.79780733,22.5846268 8.71261192,20.1787852 L8.71261192,20.1787852 L8.71261192,20.1787852 L8.71261192,20.1787852 L8.71261192,20.1787852 Z" fill="#630810" id="path606"/><path d="M1,20.6469617 C3.05351785,23.9267005 8.5430548,22.9539545 9.8267683,20.6644081 C10.2114346,20.5592808 9.98411313,6.53829727 9.98411313,6.53829727 C9.98411313,6.53829727 10.5975251,6.26883109 10.6256154,5.83777899 C10.6537027,5.40235876 9.84557523,5.36288063 9.84557523,4.80558708 C9.84557523,4.2487509 10.6722693,4.46702694 10.6896433,3.90652026 C10.6860742,3.37057524 9.82177502,3.4098218 9.86366717,2.91426964 C9.91294098,2.35628426 10.5915735,2.42147326 10.6301369,1.90687098 C10.6625084,1.46364949 10.204056,1.19372306 9.9964909,1.00987387 C10.1307387,1.01629725 10.6541774,1.00183814 10.6579898,1 C11.1819002,1.01033124 11.7062882,1.02065669 12.2301986,1.03098504 C13.34753,1.03213134 12.2109198,1.26579279 12.2275818,1.8873577 C12.2375801,2.29339367 12.793865,2.56355169 12.8438507,2.91656515 C12.8612277,3.27898933 12.0476264,3.53353905 12.0373937,3.96849612 C12.0283477,4.35662538 12.8369498,4.38302229 12.8076698,4.74361412 C12.7574466,5.35393017 12.0914263,5.48820444 12.101659,5.85774384 C12.1116573,6.22682877 12.9978579,6.36752642 13,6.66201452 C12.9692959,7.23170324 12.8719381,21.0798577 12.8719381,21.0798577 C11.4599195,28.134187 3.31035667,29.9286415 1,20.6469617 C1,20.6469617 3.31035667,29.9286415 1,20.6469617 L1,20.6469617 L1,20.6469617 L1,20.6469617 L1,20.6469617 Z" fill="#CE1126" id="path606-copy"/><path d="M0,17 L3.53440798,17.1150802 C3.53440798,17.1150802 5.17795778,18.5001946 6,20 L2.30134465,20 C1.39704001,19.3072554 0.575542571,18.6156497 0,17 C0,17 0.575542571,18.6156497 0,17 L0,17 L0,17 L0,17 L0,17 Z" fill="#630810" id="path617"/></g><path d="M35.7126119,31.1756585 C36.2863855,31.0651406 35.9314742,16.9774481 35.9314742,16.9774481 C35.9314742,16.9774481 36.5037361,16.8011035 36.545636,16.3479489 C36.5875315,15.8902022 35.8434377,15.9423439 35.8434377,15.3564748 C35.8434377,14.7710864 36.5883655,15.0469872 36.6142808,14.4577402 C36.608957,13.8943142 35.9586954,13.9959249 35.9101706,13.428195 C35.8616458,12.860465 36.5357288,12.9640212 36.5932504,12.4230324 C36.6415362,11.9570844 35.5893426,11.365768 35.6401434,11.1301549 C35.6909442,10.8945419 36.7699123,11.051176 36.775599,11.0492436 C37.5570709,11.0601046 38.3392553,11.0709595 39.1207272,11.0818175 C40.7873541,11.0830225 39.2897,11.7906423 39.3145532,12.4440784 C39.3294669,12.8709342 39.7949789,13.0644381 39.8695384,13.4355525 C39.8954581,13.8165602 39.1738635,13.9351179 39.1586002,14.3923776 C39.1451071,14.8004085 40.0045269,14.9062132 39.9608524,15.2852947 C39.8859388,15.9269051 39.2323749,16.0064297 39.2476382,16.3949175 C39.2625518,16.7829275 39.9968048,16.8747272 40,17.1843153 C39.9542013,17.7832152 39.9893482,31.3517266 39.9618538,31.8473353 C38.037978,39.7585099 28.3129005,40.8540165 27,30.3070385 C29.5641663,32.8866335 33.7978073,33.5826028 35.7126119,31.1756585 C35.7126119,31.1756585 33.7978073,33.5826028 35.7126119,31.1756585 L35.7126119,31.1756585 L35.7126119,31.1756585 L35.7126119,31.1756585 L35.7126119,31.1756585 Z" fill="#630810" id="path606"/><path d="M28,31.6469617 C30.0535178,34.9267005 35.5430548,33.9539545 36.8267683,31.6644081 C37.2114346,31.5592808 36.9841131,17.5382973 36.9841131,17.5382973 C36.9841131,17.5382973 37.5975251,17.2688311 37.6256154,16.837779 C37.6537027,16.4023588 36.8455752,16.3628806 36.8455752,15.8055871 C36.8455752,15.2487509 37.6722693,15.4670269 37.6896433,14.9065203 C37.6860742,14.3705752 36.821775,14.4098218 36.8636672,13.9142696 C36.912941,13.3562843 37.5915735,13.4214733 37.6301369,12.906871 C37.6625084,12.4636495 37.204056,12.1937231 36.9964909,12.0098739 C37.1307387,12.0162972 37.6541774,12.0018381 37.6579898,12 C38.1819002,12.0103312 38.7062882,12.0206567 39.2301986,12.030985 C40.34753,12.0321313 39.2109198,12.2657928 39.2275818,12.8873577 C39.2375801,13.2933937 39.793865,13.5635517 39.8438507,13.9165651 C39.8612277,14.2789893 39.0476264,14.533539 39.0373937,14.9684961 C39.0283477,15.3566254 39.8369498,15.3830223 39.8076698,15.7436141 C39.7574466,16.3539302 39.0914263,16.4882044 39.101659,16.8577438 C39.1116573,17.2268288 39.9978579,17.3675264 40,17.6620145 C39.9692959,18.2317032 39.8719381,32.0798577 39.8719381,32.0798577 C38.4599195,39.134187 30.3103567,40.9286415 28,31.6469617 C28,31.6469617 30.3103567,40.9286415 28,31.6469617 L28,31.6469617 L28,31.6469617 L28,31.6469617 L28,31.6469617 Z" fill="#CE1126" id="path606-copy"/><path d="M27,28 L30.534408,28.1150802 C30.534408,28.1150802 32.1779578,29.5001946 33,31 L29.3013447,31 C28.39704,30.3072554 27.5755426,29.6156497 27,28 C27,28 27.5755426,29.6156497 27,28 L27,28 L27,28 L27,28 L27,28 Z" fill="#630810" id="path617"/><path d="M28.438216,26.186746 L27.0251442,24.6517535 C27.0251442,24.6517535 26.9510533,24.4153571 27.1309695,24.3032103 C27.3108858,24.1910636 27.6067877,24.2774981 27.6067877,24.2774981 L28.632515,25.3928363 L28.68457,24.2348522 C28.68457,24.2348522 28.8041843,23.995443 29.0580595,24.0000661 C29.3119348,24.0046891 29.4273926,24.2394752 29.4273926,24.2394752 L29.3915017,25.4177694 L30.3944673,24.3231568 C30.3944673,24.3231568 30.595166,24.1932972 30.8431034,24.3406618 C31.0910409,24.4880265 30.9708987,24.707697 30.9708987,24.707697 L29.4435567,26.1874732 L30.7032345,27.5903725 C30.7032345,27.5903725 30.7642622,27.7954468 30.5631677,27.9328903 C30.3620731,28.0703337 30.1202055,27.9540833 30.1202055,27.9540833 L28.9375216,26.6765764 L27.6006519,27.9391235 C27.6006519,27.9391235 27.3479643,28.0568802 27.1344663,27.911853 C26.9209683,27.7668257 27.025672,27.5857495 27.025672,27.5857495 L28.438216,26.186746 L28.438216,26.186746 L28.438216,26.186746 L28.438216,26.186746 Z M33.438216,26.186746 L32.0251442,24.6517535 C32.0251442,24.6517535 31.9510533,24.4153571 32.1309695,24.3032103 C32.3108858,24.1910636 32.6067877,24.2774981 32.6067877,24.2774981 L33.632515,25.3928363 L33.68457,24.2348522 C33.68457,24.2348522 33.8041843,23.995443 34.0580595,24.0000661 C34.3119348,24.0046891 34.4273926,24.2394752 34.4273926,24.2394752 L34.3915017,25.4177694 L35.394467,24.3231568 C35.394467,24.3231568 35.595166,24.1932972 35.843103,24.3406618 C36.091041,24.4880265 35.970899,24.707697 35.970899,24.707697 L34.4435567,26.1874732 L35.703235,27.5903725 C35.703235,27.5903725 35.764262,27.7954468 35.563168,27.9328903 C35.362073,28.0703337 35.120206,27.9540833 35.120206,27.9540833 L33.9375216,26.6765764 L32.6006519,27.9391235 C32.6006519,27.9391235 32.3479643,28.0568802 32.1344663,27.911853 C31.9209683,27.7668257 32.025672,27.5857495 32.025672,27.5857495 L33.438216,26.186746 L33.438216,26.186746 L33.438216,26.186746 L33.438216,26.186746 Z M24.438216,26.186746 L23.0251442,24.6517535 C23.0251442,24.6517535 22.9510533,24.4153571 23.1309695,24.3032103 C23.3108858,24.1910636 23.6067877,24.2774981 23.6067877,24.2774981 L24.632515,25.3928363 L24.68457,24.2348522 C24.68457,24.2348522 24.8041843,23.995443 25.0580595,24.0000661 C25.3119348,24.0046891 25.4273926,24.2394752 25.4273926,24.2394752 L25.3915017,25.4177694 L26.3944673,24.3231568 C26.3944673,24.3231568 26.595166,24.1932972 26.8431034,24.3406618 C27.0910409,24.4880265 26.9708987,24.707697 26.9708987,24.707697 L25.4435567,26.1874732 L26.7032345,27.5903725 C26.7032345,27.5903725 26.7642622,27.7954468 26.5631677,27.9328903 C26.3620731,28.0703337 26.1202055,27.9540833 26.1202055,27.9540833 L24.9375216,26.6765764 L23.6006519,27.9391235 C23.6006519,27.9391235 23.3479643,28.0568802 23.1344663,27.911853 C22.9209683,27.7668257 23.025672,27.5857495 23.025672,27.5857495 L24.438216,26.186746 L24.438216,26.186746 L24.438216,26.186746 L24.438216,26.186746 Z M20.438216,26.186746 L19.0251442,24.6517535 C19.0251442,24.6517535 18.9510533,24.4153571 19.1309695,24.3032103 C19.3108858,24.1910636 19.6067877,24.2774981 19.6067877,24.2774981 L20.632515,25.3928363 L20.68457,24.2348522 C20.68457,24.2348522 20.8041843,23.995443 21.0580595,24.0000661 C21.3119348,24.0046891 21.4273926,24.2394752 21.4273926,24.2394752 L21.3915017,25.4177694 L22.3944673,24.3231568 C22.3944673,24.3231568 22.595166,24.1932972 22.8431034,24.3406618 C23.0910409,24.4880265 22.9708987,24.707697 22.9708987,24.707697 L21.4435567,26.1874732 L22.7032345,27.5903725 C22.7032345,27.5903725 22.7642622,27.7954468 22.5631677,27.9328903 C22.3620731,28.0703337 22.1202055,27.9540833 22.1202055,27.9540833 L20.9375216,26.6765764 L19.6006519,27.9391235 C19.6006519,27.9391235 19.3479643,28.0568802 19.1344663,27.911853 C18.9209683,27.7668257 19.025672,27.5857495 19.025672,27.5857495 L20.438216,26.186746 L20.438216,26.186746 L20.438216,26.186746 L20.438216,26.186746 Z M16.438216,26.186746 L15.0251442,24.6517535 C15.0251442,24.6517535 14.9510533,24.4153571 15.1309695,24.3032103 C15.3108858,24.1910636 15.6067877,24.2774981 15.6067877,24.2774981 L16.632515,25.3928363 L16.68457,24.2348522 C16.68457,24.2348522 16.8041843,23.995443 17.0580595,24.0000661 C17.3119348,24.0046891 17.4273926,24.2394752 17.4273926,24.2394752 L17.3915017,25.4177694 L18.3944673,24.3231568 C18.3944673,24.3231568 18.595166,24.1932972 18.8431034,24.3406618 C19.0910409,24.4880265 18.9708987,24.707697 18.9708987,24.707697 L17.4435567,26.1874732 L18.7032345,27.5903725 C18.7032345,27.5903725 18.7642622,27.7954468 18.5631677,27.9328903 C18.3620731,28.0703337 18.1202055,27.9540833 18.1202055,27.9540833 L16.9375216,26.6765764 L15.6006519,27.9391235 C15.6006519,27.9391235 15.3479643,28.0568802 15.1344663,27.911853 C14.9209683,27.7668257 15.025672,27.5857495 15.025672,27.5857495 L16.438216,26.186746 L16.438216,26.186746 L16.438216,26.186746 L16.438216,26.186746 Z" fill="#630810" id="Path-47"/></g></g></g></svg>