<?xml version="1.0" ?><svg height="120px" version="1.1" viewBox="0 0 180 120" width="180px" xmlns="http://www.w3.org/2000/svg" xmlns:sketch="http://www.bohemiancoding.com/sketch/ns" xmlns:xlink="http://www.w3.org/1999/xlink"><title/><defs/><g fill="none" fill-rule="evenodd" id="Africa,-Middle-East-and-India" stroke="none" stroke-width="1"><g id="Africa,-Middle-Eest-and-India" transform="translate(0.000000, -601.000000)"><g id="India" transform="translate(0.000000, 601.000000)"><rect d="M0.00552383048,0 L0.00552383048,120 L180.005524,120 L180.005524,0 L0.00552383048,0 Z M0.00552383048,0" fill="#FFFFFF" height="120" id="Rectangle-3-copy-3" width="180" x="0.00552383048" y="0"/><rect d="M0.00552366097,80 L0.00552366097,120 L180,120 L180,80 L0.00552366097,80 Z M0.00552366097,80" fill="#479951" height="40" id="Rectangle-3-copy-2" width="179.994476" x="0.00552366097" y="80"/><rect d="M0.00276191524,-3.55271368e-15 L0.00276191524,40 L179.997238,40 L179.997238,-3.55271368e-15 L0.00276191524,-3.55271368e-15 Z M0.00276191524,-3.55271368e-15" fill="#CE6F2D" height="40" id="Rectangle-3" width="179.994476" x="0.00276191524" y="-4.73709694e-15"/><path d="M90,78.4 C100.16204,78.4 108.4,70.1620399 108.4,60 C108.4,49.8379601 100.16204,41.6 90,41.6 C79.8379601,41.6 71.6,49.8379601 71.6,60 C71.6,70.1620399 79.8379601,78.4 90,78.4 Z M90,76.7121246 C99.2078577,76.7121246 106.6723,69.2387669 106.6723,60.0199121 C106.6723,50.8010572 99.2078577,43.3276995 90,43.3276995 C80.7921423,43.3276995 73.3276995,50.8010572 73.3276995,60.0199121 C73.3276995,69.2387669 80.7921423,76.7121246 90,76.7121246 Z M89.7408451,63.1962441 C91.4106638,63.1962441 92.7643192,61.8425887 92.7643192,60.17277 C92.7643192,58.5029512 91.4106638,57.1492958 89.7408451,57.1492958 C88.0710263,57.1492958 86.7173709,58.5029512 86.7173709,60.17277 C86.7173709,61.8425887 88.0710263,63.1962441 89.7408451,63.1962441 Z M89.7408451,76.5093418 L90.2591549,67.4389193 L89.7408451,63.1196704 L89.2225352,67.4389193 L89.7408451,76.5093418 Z M87.6689716,77.1294126 C88.0828549,77.1839014 88.4625454,76.8925546 88.5170342,76.4786712 C88.571523,76.0647879 88.2801762,75.6850974 87.8662929,75.6306086 C87.4524095,75.5761198 87.072719,75.8674667 87.0182302,76.28135 C86.9637415,76.6952333 87.2550883,77.0749238 87.6689716,77.1294126 Z M85.5019807,75.9512847 L88.3502277,67.3240778 L88.9674827,63.0178554 L87.3489299,67.0557809 L85.5019807,75.9512847 Z M81.551988,74.3151442 L86.5360687,66.7190828 L88.2468237,62.7193486 L85.6383297,66.2007729 L81.551988,74.3151442 Z M78.1600523,71.7124204 L84.94031,65.6651635 L87.6279797,62.244493 L84.2073092,64.9321627 L78.1600523,71.7124204 Z M75.5573285,68.3204847 L83.6716998,64.2341429 L87.1531241,61.625649 L83.1533899,63.3364039 L75.5573285,68.3204847 Z M73.9211879,64.370492 L82.8166918,62.5235427 L86.8546173,60.90499 L82.5483949,61.522245 L73.9211879,64.370492 Z M73.3631309,60.1316276 L82.4335534,60.6499375 L86.7528022,60.1316276 L82.4335534,59.6133177 L73.3631309,60.1316276 Z M73.9211879,55.8927633 L82.5483949,58.7410102 L86.8546173,59.3582652 L82.8166918,57.7397125 L73.9211879,55.8927633 Z M75.5573285,51.9427705 L83.1533899,56.9268513 L87.1531241,58.6376062 L83.6716998,56.0291123 L75.5573285,51.9427705 Z M78.1600523,48.5508348 L84.2073092,55.3310925 L87.6279797,58.0187623 L84.94031,54.5980917 L78.1600523,48.5508348 Z M81.551988,45.9481111 L85.6383297,54.0624823 L88.2468237,57.5439066 L86.5360687,53.5441725 L81.551988,45.9481111 Z M85.5019807,44.3119705 L87.3489299,53.2074743 L88.9674827,57.2453999 L88.3502277,52.9391774 L85.5019807,44.3119705 Z M89.7408451,43.7539134 L89.2225352,52.8243359 L89.7408451,57.1435848 L90.2591549,52.8243359 L89.7408451,43.7539134 Z M93.9797094,44.3119705 L91.1314624,52.9391774 L90.5142075,57.2453999 L92.1327602,53.2074743 L93.9797094,44.3119705 Z M97.9297022,45.9481111 L92.9456214,53.5441725 L91.2348665,57.5439066 L93.8433604,54.0624823 L97.9297022,45.9481111 Z M101.321638,48.5508348 L94.5413801,54.5980917 L91.8537104,58.0187623 L95.274381,55.3310925 L101.321638,48.5508348 Z M103.924362,51.9427705 L95.8099904,56.0291123 L92.3285661,58.6376062 L96.3283002,56.9268513 L103.924362,51.9427705 Z M105.560502,55.8927633 L96.6649983,57.7397125 L92.6270728,59.3582652 L96.9332953,58.7410102 L105.560502,55.8927633 Z M106.118559,60.1316276 L97.0481367,59.6133177 L92.7288879,60.1316276 L97.0481367,60.6499375 L106.118559,60.1316276 Z M105.560502,64.370492 L96.9332953,61.522245 L92.6270728,60.90499 L96.6649983,62.5235427 L105.560502,64.370492 Z M103.924362,68.3204847 L96.3283002,63.3364039 L92.3285661,61.625649 L95.8099904,64.2341429 L103.924362,68.3204847 Z M101.321638,71.7124204 L95.274381,64.9321627 L91.8537104,62.244493 L94.5413801,65.6651635 L101.321638,71.7124204 Z M97.9297022,74.3151442 L93.8433604,66.2007729 L91.2348665,62.7193486 L92.9456214,66.7190828 L97.9297022,74.3151442 Z M93.9797094,75.9512847 L92.1327602,67.0557809 L90.5142075,63.0178554 L91.1314624,67.3240778 L93.9797094,75.9512847 Z M83.3463235,76.0164844 C83.7333807,76.1728657 84.1739247,75.9858659 84.3303059,75.5988087 C84.4866872,75.2117514 84.2996874,74.7712075 83.9126302,74.6148262 C83.5255729,74.4584449 83.085029,74.6454447 82.9286477,75.032502 C82.7722664,75.4195592 82.9592662,75.8601031 83.3463235,76.0164844 Z M79.4529081,73.8201971 C79.7863022,74.0714276 80.2602341,74.0048208 80.5114646,73.6714267 C80.7626951,73.3380325 80.6960883,72.8641007 80.3626942,72.6128702 C80.0293,72.3616397 79.5553682,72.4282464 79.3041376,72.7616406 C79.0529071,73.0950347 79.1195139,73.5689666 79.4529081,73.8201971 Z M76.2605985,70.6910564 C76.5176093,71.0200151 76.9926314,71.0783405 77.3215902,70.8213298 C77.650549,70.564319 77.7088744,70.0892969 77.4518636,69.7603381 C77.1948528,69.4313793 76.7198307,69.3730539 76.3908719,69.6300647 C76.0619131,69.8870754 76.0035878,70.3620976 76.2605985,70.6910564 Z M73.9869455,66.842308 C74.1500581,67.2265771 74.5937985,67.4058598 74.9780676,67.2427473 C75.3623366,67.0796348 75.5416194,66.6358943 75.3785069,66.2516253 C75.2153943,65.8673562 74.7716539,65.6880734 74.3873848,65.851186 C74.0031158,66.0142985 73.823833,66.4580389 73.9869455,66.842308 Z M72.7868947,62.5362379 C72.8449932,62.9496299 73.2272117,63.2376523 73.6406038,63.1795538 C74.0539958,63.1214553 74.3420182,62.7392368 74.2839197,62.3258447 C74.2258212,61.9124527 73.8436027,61.6244304 73.4302107,61.6825288 C73.0168186,61.7406273 72.7287963,62.1228458 72.7868947,62.5362379 Z M72.7422277,58.0662975 C72.6913527,58.4806406 72.9860018,58.8577742 73.4003449,58.9086492 C73.8146879,58.9595241 74.1918216,58.664875 74.2426965,58.250532 C74.2935714,57.8361889 73.9989223,57.4590553 73.5845793,57.4081803 C73.1702362,57.3573054 72.7931026,57.6519545 72.7422277,58.0662975 Z M73.8559883,53.737106 C73.699607,54.1241633 73.8866068,54.5647072 74.273664,54.7210885 C74.6607213,54.8774698 75.1012652,54.69047 75.2576465,54.3034127 C75.4140278,53.9163555 75.227028,53.4758115 74.8399707,53.3194303 C74.4529135,53.163049 74.0123695,53.3500488 73.8559883,53.737106 Z M76.0522756,49.8436906 C75.8010451,50.1770847 75.8676519,50.6510166 76.201046,50.9022471 C76.5344401,51.1534776 77.008372,51.0868708 77.2596025,50.7534767 C77.510833,50.4200825 77.4442262,49.9461507 77.1108321,49.6949202 C76.777438,49.4436897 76.3035061,49.5102965 76.0522756,49.8436906 Z M79.1814163,46.6513811 C78.8524575,46.9083918 78.7941322,47.383414 79.0511429,47.7123728 C79.3081537,48.0413315 79.7831758,48.0996569 80.1121346,47.8426462 C80.4410934,47.5856354 80.4994188,47.1106133 80.242408,46.7816545 C79.9853972,46.4526957 79.5103751,46.3943703 79.1814163,46.6513811 Z M83.0301647,44.3777281 C82.6458956,44.5408406 82.4666128,44.984581 82.6297254,45.3688501 C82.7928379,45.7531192 83.2365783,45.9324019 83.6208474,45.7692894 C84.0051165,45.6061769 84.1843992,45.1624364 84.0212867,44.7781674 C83.8581742,44.3938983 83.4144337,44.2146155 83.0301647,44.3777281 Z M87.3362348,43.1776773 C86.9228427,43.2357757 86.6348204,43.6179943 86.6929189,44.0313863 C86.7510173,44.4447784 87.1332359,44.7328007 87.5466279,44.6747022 C87.96002,44.6166038 88.2480423,44.2343852 88.1899438,43.8209932 C88.1318454,43.4076011 87.7496268,43.1195788 87.3362348,43.1776773 Z M91.8061751,43.1330102 C91.3918321,43.0821353 91.0146984,43.3767844 90.9638235,43.7911274 C90.9129486,44.2054705 91.2075977,44.5826041 91.6219407,44.633479 C92.0362838,44.684354 92.4134174,44.3897049 92.4642923,43.9753618 C92.5151673,43.5610188 92.2205182,43.1838851 91.8061751,43.1330102 Z M96.1353666,44.2467708 C95.7483094,44.0903895 95.3077655,44.2773893 95.1513842,44.6644466 C94.9950029,45.0515038 95.1820027,45.4920477 95.56906,45.648429 C95.9561172,45.8048103 96.3966611,45.6178105 96.5530424,45.2307532 C96.7094237,44.843696 96.5224239,44.4031521 96.1353666,44.2467708 Z M100.028782,46.4430581 C99.6953879,46.1918276 99.2214561,46.2584344 98.9702256,46.5918285 C98.7189951,46.9252227 98.7856018,47.3991545 99.118996,47.650385 C99.4523901,47.9016156 99.926322,47.8350088 100.177552,47.5016146 C100.428783,47.1682205 100.362176,46.6942886 100.028782,46.4430581 Z M103.221092,49.5721989 C102.964081,49.2432401 102.489059,49.1849147 102.1601,49.4419255 C101.831141,49.6989362 101.772816,50.1739584 102.029827,50.5029171 C102.286837,50.8318759 102.761859,50.8902013 103.090818,50.6331905 C103.419777,50.3761798 103.478102,49.9011576 103.221092,49.5721989 Z M105.494745,53.4209472 C105.331632,53.0366781 104.887892,52.8573954 104.503623,53.0205079 C104.119354,53.1836204 103.940071,53.6273609 104.103183,54.0116299 C104.266296,54.395899 104.710036,54.5751818 105.094305,54.4120692 C105.478574,54.2489567 105.657857,53.8052163 105.494745,53.4209472 Z M106.694795,57.7270173 C106.636697,57.3136253 106.254478,57.0256029 105.841086,57.0837014 C105.427694,57.1417999 105.139672,57.5240184 105.19777,57.9374105 C105.255869,58.3508025 105.638087,58.6388248 106.051479,58.5807264 C106.464872,58.5226279 106.752894,58.1404094 106.694795,57.7270173 Z M106.739462,62.1969577 C106.790337,61.7826146 106.495688,61.405481 106.081345,61.354606 C105.667002,61.3037311 105.289869,61.5983802 105.238994,62.0127233 C105.188119,62.4270663 105.482768,62.8042 105.897111,62.8550749 C106.311454,62.9059498 106.688588,62.6113007 106.739462,62.1969577 Z M105.625702,66.5261492 C105.782083,66.1390919 105.595083,65.698548 105.208026,65.5421667 C104.820969,65.3857854 104.380425,65.5727852 104.224044,65.9598425 C104.067662,66.3468997 104.254662,66.7874437 104.641719,66.9438249 C105.028777,67.1002062 105.469321,66.9132064 105.625702,66.5261492 Z M103.429415,70.4195646 C103.680645,70.0861705 103.614038,69.6122386 103.280644,69.3610081 C102.94725,69.1097776 102.473318,69.1763844 102.222088,69.5097785 C101.970857,69.8431727 102.037464,70.3171045 102.370858,70.568335 C102.704252,70.8195655 103.178184,70.7529588 103.429415,70.4195646 Z M100.300274,73.6118741 C100.629233,73.3548634 100.687558,72.8798412 100.430547,72.5508825 C100.173536,72.2219237 99.6985143,72.1635983 99.3695555,72.4206091 C99.0405967,72.6776198 98.9822714,73.152642 99.2392821,73.4816007 C99.4962929,73.8105595 99.971315,73.8688849 100.300274,73.6118741 Z M96.4515255,75.8855271 C96.8357945,75.7224146 97.0150773,75.2786742 96.8519648,74.8944051 C96.6888522,74.510136 96.2451118,74.3308533 95.8608427,74.4939658 C95.4765737,74.6570784 95.2972909,75.1008188 95.4604034,75.4850879 C95.623516,75.8693569 96.0672564,76.0486397 96.4515255,75.8855271 Z M92.1454554,77.0855779 C92.5588474,77.0274795 92.8468697,76.6452609 92.7887713,76.2318689 C92.7306728,75.8184768 92.3484543,75.5304545 91.9350622,75.588553 C91.5216702,75.6466514 91.2336478,76.02887 91.2917463,76.442262 C91.3498448,76.8556541 91.7320633,77.1436764 92.1454554,77.0855779 Z M92.1454554,77.0855779" fill="#346DA6" id="Shape"/></g></g></g></svg>