<?xml version="1.0" ?><svg height="120px" version="1.1" viewBox="0 0 180 120" width="180px" xmlns="http://www.w3.org/2000/svg" xmlns:sketch="http://www.bohemiancoding.com/sketch/ns" xmlns:xlink="http://www.w3.org/1999/xlink"><title/><defs/><g fill="none" fill-rule="evenodd" id="Asia-Pacific" stroke="none" stroke-width="1"><g id="Uzbekistan" transform="translate(0.000000, -1001.000000)"><g transform="translate(0.000000, 1001.000000)"><rect d="M0,0 L0,120 L180,120 L180,0 L0,0 Z M0,0" fill="#CA4638" height="120" id="TH-copy-3" transform="translate(90.000000, 60.000000) scale(1, -1) translate(-90.000000, -60.000000) " width="180" x="0" y="0"/><rect d="M0,0 L0,40 L180,40 L180,0 L0,0 Z M0,0" fill="#4086CD" height="40" id="TH-copy-2" width="180" x="0" y="0"/><rect d="M0,80 L0,120 L180,120 L180,80 L0,80 Z M0,80" fill="#57BB63" height="40" id="TH-copy-3" width="180" x="0" y="80"/><rect d="M0,45 L0,75 L180,75 L180,45 L0,45 Z M0,45" fill="#FFFFFF" height="30" id="TH" width="180" x="0" y="45"/><path d="M23.0446039,36.7923409 C22.1698623,36.9290021 21.2726939,37 20.3585574,37 C11.0339354,37 3.47483648,29.6126988 3.47483648,20.5 C3.47483648,11.3873012 11.0339354,4 20.3585574,4 C21.2726939,4 22.1698623,4.07099789 23.0446039,4.20765906 C14.9965695,5.4650061 8.84692951,12.2806618 8.84692951,20.5 C8.84692951,28.7193382 14.9965695,35.5349939 23.0446039,36.7923409 L23.0446039,36.7923409 Z M40.8171227,35.737126 L38.2047439,36.9999999 L38.7036637,34.3251903 L36.5902045,32.4308796 L39.5109337,32.0406298 L40.8171229,29.6070079 L42.1233129,32.0406304 L45.0440419,32.4308816 L42.9305818,34.3251908 L43.4295017,37 L40.8171227,35.737126 Z M29.4288843,35.737126 L26.8165054,36.9999999 L27.3154253,34.3251903 L25.201966,32.4308796 L28.1226952,32.0406298 L29.4288844,29.6070079 L30.7350744,32.0406304 L33.6558034,32.4308816 L31.5423433,34.3251908 L32.0412633,37 L29.4288843,35.737126 Z M63.5935997,35.737126 L60.9812208,36.9999999 L61.4801407,34.3251903 L59.3666814,32.4308796 L62.2874106,32.0406298 L63.5935998,29.6070079 L64.8997898,32.0406304 L67.8205188,32.4308816 L65.7070587,34.3251908 L66.2059787,37 L63.5935997,35.737126 Z M74.9818381,35.737126 L72.3694593,36.9999999 L72.8683791,34.3251903 L70.7549199,32.4308796 L73.6756491,32.0406298 L74.9818383,29.6070079 L76.2880283,32.0406304 L79.2087573,32.4308816 L77.0952972,34.3251908 L77.5942171,37 L74.9818381,35.737126 Z M52.2053612,35.737126 L49.5929823,36.9999999 L50.0919022,34.3251903 L47.978443,32.4308796 L50.8991721,32.0406298 L52.2053614,29.6070079 L53.5115514,32.0406304 L56.4322803,32.4308816 L54.3188203,34.3251908 L54.8177402,37 L52.2053612,35.737126 Z M40.8171227,23.3259617 L38.2047439,24.5888357 L38.7036637,21.914026 L36.5902045,20.0197153 L39.5109337,19.6294655 L40.8171229,17.1958436 L42.1233129,19.6294661 L45.0440419,20.0197173 L42.9305818,21.9140265 L43.4295017,24.5888357 L40.8171227,23.3259617 Z M63.5935997,23.3259617 L60.9812208,24.5888357 L61.4801407,21.914026 L59.3666814,20.0197153 L62.2874106,19.6294655 L63.5935998,17.1958436 L64.8997898,19.6294661 L67.8205188,20.0197173 L65.7070587,21.9140265 L66.2059787,24.5888357 L63.5935997,23.3259617 Z M74.9818381,23.3259617 L72.3694593,24.5888357 L72.8683791,21.914026 L70.7549199,20.0197153 L73.6756491,19.6294655 L74.9818383,17.1958436 L76.2880283,19.6294661 L79.2087573,20.0197173 L77.0952972,21.9140265 L77.5942171,24.5888357 L74.9818381,23.3259617 Z M52.2053612,23.3259617 L49.5929823,24.5888357 L50.0919022,21.914026 L47.978443,20.0197153 L50.8991721,19.6294655 L52.2053614,17.1958436 L53.5115514,19.6294661 L56.4322803,20.0197173 L54.3188203,21.9140265 L54.8177402,24.5888357 L52.2053612,23.3259617 Z M63.5935997,10.9147974 L60.9812208,12.1776714 L61.4801407,9.50286171 L59.3666814,7.60855104 L62.2874106,7.21830121 L63.5935998,4.78467932 L64.8997898,7.21830182 L67.8205188,7.60855299 L65.7070587,9.50286222 L66.2059787,12.1776714 L63.5935997,10.9147974 Z M74.9818381,10.9147974 L72.3694593,12.1776714 L72.8683791,9.50286171 L70.7549199,7.60855104 L73.6756491,7.21830121 L74.9818383,4.78467932 L76.2880283,7.21830182 L79.2087573,7.60855299 L77.0952972,9.50286222 L77.5942171,12.1776714 L74.9818381,10.9147974 Z M52.2053612,10.9147974 L49.5929823,12.1776714 L50.0919022,9.50286171 L47.978443,7.60855104 L50.8991721,7.21830121 L52.2053614,4.78467932 L53.5115514,7.21830182 L56.4322803,7.60855299 L54.3188203,9.50286222 L54.8177402,12.1776714 L52.2053612,10.9147974 Z M52.2053612,10.9147974" fill="#FFFFFF" id="Oval-148"/></g></g></g></svg>