<?xml version="1.0" ?><svg height="120px" version="1.1" viewBox="0 0 180 120" width="180px" xmlns="http://www.w3.org/2000/svg" xmlns:sketch="http://www.bohemiancoding.com/sketch/ns" xmlns:xlink="http://www.w3.org/1999/xlink"><title/><defs/><g fill="none" fill-rule="evenodd" id="Page-1" stroke="none" stroke-width="1"><g id="lesotho"><rect d="M0,0 L0,120 L180,120 L180,0 L0,0 Z M0,0" fill="#FFFFFF" height="120" id="Rectangle-326" width="180" x="0" y="0"/><rect d="M0,0 L0,40 L180,40 L180,0 L0,0 Z M0,0" fill="#265697" height="40" id="Rectangle-1" width="180" x="0" y="0"/><rect d="M0,80 L0,120 L180,120 L180,80 L0,80 Z M0,80" fill="#57BB63" height="40" id="Rectangle-1-copy" width="180" x="0" y="80"/><g id="Group" transform="translate(72.500000, 41.666667)"><path d="M21.2363565,17.0847458 L13.7409638,17.0847458 C13.7409638,17.0847458 11.020406,11.5699778 11.4613968,7.71458911 C11.910425,3.78889729 14.2424306,1.93181421 17.3428826,1.89894562 C21.0086053,1.85965059 22.9298723,3.62705436 23.5102791,7.557409 C24.0854204,11.4520966 21.2363565,17.0847458 21.2363565,17.0847458 L21.2363565,17.0847458 L21.2363565,17.0847458 L21.2363565,17.0847458 Z M14.5934595,15.819209 C14.5934595,15.819209 12.4898854,11.1271427 12.8308657,7.84690683 C13.1780607,4.50685582 14.9812008,2.92681527 17.3785146,2.89885006 C20.2129037,2.86541714 21.6984548,4.36915687 22.1472337,7.71317516 C22.5919411,11.0268472 20.3890042,15.819209 20.3890042,15.819209 L14.5934595,15.819209 L14.5934595,15.819209 L14.5934595,15.819209 L14.5934595,15.819209 Z M14.5934595,15.819209" fill="#1C1C1C" id="path2760"/><path d="M17.3228895,0.632951018 C16.6994406,0.645151914 16.0911646,1.27264862 16.0911646,1.27264862 L16.1448792,7.97608974 L13.815718,10.1932475 L15.7012292,10.1932475 L15.6853019,14.0373509 L4.53091974,27.6850039 L2.8820229,27.1671495 L0,32.7534496 C0,32.7534496 7.12833044,36.809221 17.4746932,36.6983319 C28.8304314,36.5756298 35,32.5663604 35,32.5663604 L32.021853,27.0518984 L30.5635005,27.6281505 L19.2663522,14.0513033 L19.2504288,10.0924648 L21.1359401,10.0924648 L18.5697831,7.9028806 L18.5849518,1.22384503 C18.5849518,1.22384503 17.9463342,0.620750123 17.3228895,0.632951018 C17.3228895,0.632951018 17.9463342,0.620750123 17.3228895,0.632951018 L17.3228895,0.632951018 L17.3228895,0.632951018 L17.3228895,0.632951018 L17.3228895,0.632951018 Z M17.3228895,0.632951018" fill="#1C1C1C" id="path1873"/><path d="M4.04462108,29.1073446 C3.92448346,29.2655374 3.04347826,31.0056497 3.04347826,31.0056497 L4.56521739,30.6892642 L4.04462108,29.1073446 L4.04462108,29.1073446 L4.04462108,29.1073446 L4.04462108,29.1073446 Z M4.04462108,29.1073446" fill="#FFFFFF" id="path3649"/><path d="M4.94565061,31.6384181 L3.04347826,32.15254 L5.32608696,32.9039548 L4.94565061,31.6384181 L4.94565061,31.6384181 L4.94565061,31.6384181 L4.94565061,31.6384181 Z M4.94565061,31.6384181" fill="#FFFFFF" id="path3651"/><path d="M5.32608696,29.1073446 L6.20825709,31.6384181 L8.36956522,31.0378224 L7.79615466,29.8366352 L5.32608696,29.1073446 L5.32608696,29.1073446 L5.32608696,29.1073446 L5.32608696,29.1073446 Z M5.32608696,29.1073446" fill="#FFFFFF" id="path3653"/><path d="M6.84782609,32.1561395 L7.14372061,32.9844904 L9.89130435,33.5367232 L8.79227171,31.6384181 L6.84782609,32.1561395 L6.84782609,32.1561395 L6.84782609,32.1561395 L6.84782609,32.1561395 Z M6.84782609,32.1561395" fill="#FFFFFF" id="path3655"/><path d="M9.89130435,30.3728814 L10.8635264,32.2711864 L12.9347826,31.6154059 L12.2584555,30.7870551 L9.89130435,30.3728814 L9.89130435,30.3728814 L9.89130435,30.3728814 L9.89130435,30.3728814 Z M9.89130435,30.3728814" fill="#FFFFFF" id="path3657"/><path d="M11.4130435,33.5873436 L11.7753591,34.3846311 L15.2173913,34.8022599 L13.7681153,32.9039548 L11.4130435,33.5873436 L11.4130435,33.5873436 L11.4130435,33.5873436 L11.4130435,33.5873436 Z M11.4130435,33.5873436" fill="#FFFFFF" id="path3659"/><path d="M14.4565217,31.0056497 L15.5324994,32.9039548 L18.2608696,31.8966906 L17.9534501,31.160614 L14.4565217,31.0056497 L14.4565217,31.0056497 L14.4565217,31.0056497 L14.4565217,31.0056497 Z M14.4565217,31.0056497" fill="#FFFFFF" id="path3661"/><path d="M15.9782609,33.8531073 L16.6430965,34.8022599 L20.5434783,34.6927419 L19.0808346,32.9039548 L15.9782609,33.8531073 L15.9782609,33.8531073 L15.9782609,33.8531073 L15.9782609,33.8531073 Z M15.9782609,33.8531073" fill="#FFFFFF" id="path3663"/><path d="M19.7826087,31.3155777 L20.6956518,32.9039548 L22.826087,31.8579517 L22.2554365,31.0056497 L19.7826087,31.3155777 L19.7826087,31.3155777 L19.7826087,31.3155777 L19.7826087,31.3155777 Z M19.7826087,31.3155777" fill="#FFFFFF" id="path3665"/><path d="M23.6714996,32.2711864 L21.3043478,33.293351 L21.9384044,34.1694915 L25.1086957,33.7314231 L23.6714996,32.2711864 L23.6714996,32.2711864 L23.6714996,32.2711864 L23.6714996,32.2711864 Z M23.6714996,32.2711864" fill="#FFFFFF" id="path3667"/><path d="M24.3478261,31.0056521 L25.5091539,32.2711864 L27.3913043,30.9704946 L26.7505735,30.3728814 L24.3478261,31.0056521 L24.3478261,31.0056521 L24.3478261,31.0056521 L24.3478261,31.0056521 Z M24.3478261,31.0056521" fill="#FFFFFF" id="path3669"/><path d="M28.4811979,31.6384181 L26.6304348,32.8119166 L27.1239697,33.5367232 L29.673913,32.984487 L28.4811979,31.6384181 L28.4811979,31.6384181 L28.4811979,31.6384181 L28.4811979,31.6384181 Z M28.4811979,31.6384181" fill="#FFFFFF" id="path3671"/><path d="M30.7971031,29.1073446 L31.1956522,29.7605269 L30.0724657,31.6384181 L28.9130435,29.9646464 L30.7971031,29.1073446 L30.7971031,29.1073446 L30.7971031,29.1073446 L30.7971031,29.1073446 Z M30.7971031,29.1073446" fill="#FFFFFF" id="path3673"/><path d="M31.2513258,30.3728814 L31.9565217,31.7873066 L30.5461299,32.2711864 L30.4347826,31.6011975 L31.2513258,30.3728814 L31.2513258,30.3728814 L31.2513258,30.3728814 L31.2513258,30.3728814 Z M31.2513258,30.3728814" fill="#FFFFFF" id="path3675"/></g></g></g></svg>