<?xml version="1.0" encoding="UTF-8" standalone="no"?>
<svg width="180px" height="121px" viewBox="0 0 180 121" version="1.1" xmlns="http://www.w3.org/2000/svg" xmlns:xlink="http://www.w3.org/1999/xlink">
    <!-- Generator: Sketch 40.2 (33826) - http://www.bohemiancoding.com/sketch -->
    <title>icon-flag-bz</title>
    <desc>Created with Sketch.</desc>
    <defs>
        <radialGradient cx="51.0981338%" cy="50.6546123%" fx="51.0981338%" fy="50.6546123%" r="35.1569095%" id="radialGradient-1">
            <stop stop-color="#FFEF5D" offset="0%"></stop>
            <stop stop-color="#EA5700" offset="100%"></stop>
        </radialGradient>
        <radialGradient cx="51.1169794%" cy="49.2805612%" fx="51.1169794%" fy="49.2805612%" r="7.54556213%" id="radialGradient-2">
            <stop stop-color="#FFEF5D" offset="0%"></stop>
            <stop stop-color="#EA5700" offset="100%"></stop>
        </radialGradient>
        <radialGradient cx="50.1209337%" cy="52.8630307%" fx="50.1209337%" fy="52.8630307%" r="33.1647626%" id="radialGradient-3">
            <stop stop-color="#952D1A" offset="0%"></stop>
            <stop stop-color="#570A00" offset="100%"></stop>
        </radialGradient>
        <radialGradient cx="49.4271352%" cy="49.6009205%" fx="49.4271352%" fy="49.6009205%" r="7.6813253%" id="radialGradient-4">
            <stop stop-color="#952C1A" offset="0%"></stop>
            <stop stop-color="#570A00" offset="100%"></stop>
        </radialGradient>
    </defs>
    <g id="Page-1" stroke="none" stroke-width="1" fill="none" fill-rule="evenodd">
        <rect id="Rectangle-57" fill="#346DA6" x="0" y="0" width="180" height="120"></rect>
        <rect id="Rectangle-44" fill="#CA4638" x="0" y="0" width="180" height="8.7"></rect>
        <rect id="Rectangle-44-copy" fill="#CA4638" x="0" y="111.3" width="180" height="8.7"></rect>
        <circle id="Oval-22" fill="#FFFFFF" cx="90.2" cy="60.2" r="40.5"></circle>
        <path d="M61.7,47.7 C61.3,49 63.8,50.6 62.4,53 C65.9,51.4 63.4,47.6 61.9,47.1 C60.4,46.5 56.4,47.9 58.3,51.5 C58.4,48.6 61.3,48.9 61.7,47.7 L61.7,47.7 Z" id="Shape" fill="#479951"></path>
        <path d="M59.5,54.9 C59.4,56.2 62.3,57.2 61.4,59.8 C64.4,57.4 61.1,54.4 59.5,54.2 C57.9,54 54.3,56.3 57.1,59.3 C56.5,56.6 59.4,56.3 59.5,54.9 L59.5,54.9 Z" id="Shape" fill="#479951"></path>
        <path d="M64.9,73.9 C66.4,70.4 62,69.3 60.5,69.9 C59,70.5 57,74.3 60.9,75.6 C59,73.5 61.4,71.7 60.8,70.5 C61.4,71.7 64.4,71.2 64.9,73.9 L64.9,73.9 Z" id="Shape" fill="#479951"></path>
        <path d="M64.4,77.8 C65.3,78.8 68,77.5 69.2,80 C69.7,76.2 65.2,76.3 63.9,77.3 C62.6,78.3 61.6,82.4 65.7,82.7 C63.4,81.1 65.3,78.8 64.4,77.8 L64.4,77.8 Z" id="Shape" fill="#479951"></path>
        <path d="M68.8,83.1 C67.8,84.4 67.8,88.6 71.9,87.9 C69.2,86.9 70.5,84.3 69.4,83.5 C70.5,84.3 72.9,82.4 74.6,84.5 C74.2,80.6 69.8,81.8 68.8,83.1 L68.8,83.1 Z" id="Shape" fill="#479951"></path>
        <path d="M65.5,41.1 C64.8,42.3 66.9,44.5 64.9,46.4 C68.7,45.7 67.2,41.5 65.9,40.5 C64.6,39.6 60.3,39.9 61.3,43.9 C62.1,41.2 64.8,42.3 65.5,41.1 L65.5,41.1 Z" id="Shape" fill="#479951"></path>
        <path d="M59.2,63.1 C59.5,64.4 62.5,64.6 62.4,67.4 C64.7,64.3 60.7,62.2 59.1,62.5 C57.5,62.7 54.6,65.9 58.1,68.1 C56.7,65.5 59.5,64.4 59.2,63.1 L59.2,63.1 Z" id="Shape" fill="#479951"></path>
        <path d="M116.4,49.7 C114.5,53 118.7,54.6 120.3,54.2 C121.8,53.8 124.3,50.3 120.6,48.5 C122.2,50.8 119.6,52.3 120,53.5 C119.6,52.3 116.6,52.4 116.4,49.7 L116.4,49.7 Z" id="Shape" fill="#479951"></path>
        <path d="M71.2,35.4 C70.2,36.3 71.6,39 69.2,40.3 C73,40.6 72.7,36.1 71.6,34.9 C70.6,33.7 66.4,32.9 66.3,37 C67.9,34.6 70.3,36.3 71.2,35.4 L71.2,35.4 Z" id="Shape" fill="#479951"></path>
        <path d="M120.8,61.1 C120.7,59.8 117.7,59.2 118.2,56.5 C115.5,59.3 119.3,61.8 120.9,61.8 C122.5,61.8 125.7,59 122.6,56.4 C123.5,59 120.6,59.8 120.8,61.1 L120.8,61.1 Z" id="Shape" fill="#479951"></path>
        <path d="M117.6,46.4 C116.9,45.3 114,46.1 113.1,43.5 C112,47.2 116.5,47.7 117.9,46.9 C119.3,46.1 120.9,42.1 116.8,41.3 C119,43.2 116.9,45.2 117.6,46.4 L117.6,46.4 Z" id="Shape" fill="#479951"></path>
        <path d="M108.1,38 C108,41.8 112.5,41.2 113.7,40.1 C114.8,39 115.3,34.7 111.2,35 C113.7,36.3 112.2,38.8 113.2,39.7 C112.1,38.7 109.5,40.3 108.1,38 L108.1,38 Z" id="Shape" fill="#479951"></path>
        <path d="M108.1,34.9 C108.9,33.5 108.4,29.3 104.5,30.5 C107.3,31.1 106.3,33.9 107.5,34.6 C106.3,34 104.2,36.1 102.2,34.3 C103.1,38 107.3,36.2 108.1,34.9 L108.1,34.9 Z" id="Shape" fill="#479951"></path>
        <path d="M105.5,87.1 C106.6,86.3 105.5,83.5 108,82.4 C104.2,81.6 104,86.1 104.9,87.5 C105.8,88.8 109.9,90.1 110.4,86.1 C108.7,88.3 106.5,86.3 105.5,87.1 L105.5,87.1 Z" id="Shape" fill="#479951"></path>
        <path d="M111.5,82.5 C112.3,81.5 110.6,79 112.8,77.4 C109,77.5 109.9,82 111,83.1 C112.2,84.2 116.4,84.4 116,80.4 C114.9,82.9 112.3,81.5 111.5,82.5 L111.5,82.5 Z" id="Shape" fill="#479951"></path>
        <path d="M101,31 C101.5,29.5 99.8,25.5 96.4,27.7 C99.2,27.6 99.1,30.5 100.4,30.8 C99.1,30.5 97.6,33.1 95.2,31.9 C96.9,35.3 100.5,32.5 101,31 L101,31 Z" id="Shape" fill="#479951"></path>
        <path d="M98.6,90.1 C99.8,89.6 99.5,86.6 102.2,86.2 C98.8,84.5 97.4,88.9 98,90.4 C98.5,91.9 102.2,94.1 103.7,90.3 C101.4,92.1 99.8,89.6 98.6,90.1 L98.6,90.1 Z" id="Shape" fill="#479951"></path>
        <path d="M116.4,76.1 C116.9,74.9 114.6,72.9 116.4,70.8 C112.7,71.9 114.7,76 116.2,76.7 C117.6,77.4 121.8,76.6 120.3,72.8 C119.8,75.6 117,74.9 116.4,76.1 L116.4,76.1 Z" id="Shape" fill="#479951"></path>
        <path d="M119.5,69.1 C119.7,67.8 117,66.4 118.2,64 C114.9,66 117.8,69.4 119.4,69.8 C121,70.2 124.8,68.3 122.4,65 C122.6,67.8 119.7,67.8 119.5,69.1 L119.5,69.1 Z" id="Shape" fill="#479951"></path>
        <path d="M74.6,35.9 C78.2,37.1 79,32.7 78.3,31.2 C77.6,29.8 73.7,28 72.7,32 C74.7,30 76.6,32.3 77.7,31.6 C76.6,32.2 77.3,35.2 74.6,35.9 L74.6,35.9 Z" id="Shape" fill="#479951"></path>
        <path d="M81.4,32.7 C84.6,34.8 86.5,30.7 86.2,29.1 C85.9,27.5 82.6,24.8 80.6,28.4 C83,27 84.3,29.7 85.6,29.3 C84.2,29.7 84.1,32.7 81.4,32.7 L81.4,32.7 Z" id="Shape" fill="#479951"></path>
        <path d="M74.9,87.6 C74.2,89.1 75.3,93.2 79,91.5 C76.2,91.2 76.8,88.3 75.5,87.8 C76.8,88.3 78.6,85.9 80.8,87.5 C79.6,83.9 75.6,86.1 74.9,87.6 L74.9,87.6 Z" id="Shape" fill="#479951"></path>
        <path d="M88.2,88.9 C86,85.8 82.8,88.9 82.5,90.5 C82.2,92.1 84.3,95.8 87.5,93.2 C84.7,93.6 84.5,90.7 83.2,90.6 C84.5,90.7 85.6,87.9 88.2,88.9 L88.2,88.9 Z" id="Shape" fill="#479951"></path>
        <path d="M90.6,91.4 C91.9,91.2 92.4,88.2 95.1,88.6 C92.2,86.1 89.8,89.9 89.9,91.5 C90,93.1 93,96.2 95.4,92.9 C92.8,94 91.9,91.2 90.6,91.4 L90.6,91.4 Z" id="Shape" fill="#479951"></path>
        <path d="M88.2,31.4 C90.8,34.2 93.6,30.7 93.7,29.1 C93.8,27.5 91.2,24.1 88.4,27 C91.1,26.2 91.7,29.1 93,29.1 C91.7,29.2 90.9,32.1 88.2,31.4 L88.2,31.4 Z" id="Shape" fill="#479951"></path>
        <path d="M70.1,73.3 C70.4,73.4 70.1,72.3 70.2,71.9 C70.3,71.5 71.1,73 71.5,73.1 C71.9,73.3 74.5,72.1 74.5,72.1 L75.1,70.9 L75.4,71.9 C75.4,71.9 76.1,71.1 76.3,70.7 C76.5,70.4 76.3,71.3 76.1,71.6 C75.9,71.9 76.7,72 76.6,72.7 C76.5,73.3 77.4,72.3 77.4,72.3 L79.8,72.5 C79.8,72.5 80.2,71 80.8,70.2 L81,71.1 L82,70.1 C83.1,73 85.4,76.2 90.2,77.9 C94.7,76.3 96.9,73.4 98.1,70.6 L99.4,72 C99.4,72 100.4,71.7 100.6,71.6 C100.8,71.5 103,72.4 103,72.4 L103.6,72.7 C103.8,72.9 103.7,72 103.7,72 C103.7,72 104.8,72.2 104.7,72.8 C104.7,72.8 105,72.2 105.2,72.1 C105.4,72 105.9,72.6 106,72.8 C106.1,73 108.5,73.3 108.9,73.5 C108.9,73.5 109.2,73.8 109.2,74 C109.2,74 109.7,73.9 110.1,73.9 C110.1,73.9 109.8,74.1 109.8,74.4 C109.8,74.7 109.6,75 109.3,75.1 C109,75.3 109.3,75.4 109.7,75.4 C110.1,75.5 109.7,76 108.9,76.3 C108.9,76.3 108.7,76.8 109.1,76.9 C109.1,76.9 108.4,77 108.3,76.7 C108.3,76.7 108,77.2 108,77.4 C108,77.4 107.2,77.1 107,77 C107,77 106.7,77.3 106.9,77.5 C106.9,77.5 105.5,77.3 105.2,76.8 C105.2,76.8 104.7,77 104.8,77.1 C104.8,77.1 103.8,76.4 103.5,76.4 L103.3,76.8 C103.3,76.8 102.6,76.4 102.4,76.4 C102.2,76.4 102.4,76.7 102.4,76.7 L101.5,76.1 L101.1,76.7 C101.1,76.7 100.3,76.3 100.1,76.2 C99.9,76 99.8,76.5 99.7,76.6 C99.7,76.6 99.4,76.2 99,76.2 C99,76.2 98.8,76.7 98.9,76.9 C98.9,76.9 97.7,76.6 97.5,76.6 C97.3,76.5 97.4,76.9 97.5,77.1 C97.5,77.1 96.6,76.8 96.4,76.7 L96.3,77.1 C96.3,77.1 95.6,77 95.4,76.9 L94.9,77.5 L94.2,77.5 L94,78.1 C94,78.1 92.7,77.7 92.6,77.9 C92.5,78.1 92.7,78.4 92.7,78.4 C92.7,78.4 91.7,78.4 91.6,78.2 L91.5,78.7 C91.5,78.7 90.2,78.3 89.9,78.5 C89.9,78.5 89.5,78.9 89.2,79 C88.9,79.1 89.2,78.8 89.2,78.8 L88.8,78.2 C88.8,78.2 88.3,78.5 88.1,78.4 C87.8,78.3 87,78.8 86.8,78.7 C86.8,78.7 86.8,78.3 86.6,78.2 C86.4,78.1 86,78.1 85.9,78.4 C85.9,78.4 85.7,78.2 85.5,77.8 C85.2,77.4 84.9,77.8 84.9,77.8 L85,77.8 C85,77.8 84.7,77.8 84.3,77.7 C83.9,77.6 83.8,77.3 83.8,77.3 C83.8,77.3 82.7,77.4 82.5,77.4 L82.8,77.1 C82.8,77.1 81.3,77.4 81,77.3 C80.7,77.2 81.3,76.8 81.3,76.8 C81.3,76.8 79.9,76.4 79.6,76.4 C79.3,76.3 77.8,76.7 77.6,76.7 C77.4,76.7 77.3,76.3 77.3,76.3 C77.3,76.3 76.9,76.6 76.6,76.7 C76.6,76.7 76.3,76.1 76.5,76 C76.5,76 75.5,76.3 75.5,76.5 C75.5,76.5 75.3,76.1 75.3,75.9 C75.3,75.9 74.8,76.6 74.6,76.8 C74.4,77 74.6,76.4 74.6,76.4 C74.6,76.4 74,77.1 73.8,77.2 L73.8,76.7 C73.8,76.7 72.1,77.6 71.7,77.5 C71.7,77.5 71.7,77.1 71.9,77 C71.9,77 71.1,77 70.9,76.9 C70.6,76.9 70.3,76.7 70.1,76.7 C69.8,76.7 70.5,76.4 70.9,76.5 C70.9,76.5 69.7,76.1 69.4,76.3 C69.4,76.3 69.2,75.9 69.9,75.7 C69.9,75.7 69.1,74.9 68.6,75 C68.6,75 69.1,74.7 69.5,74.8 C69.5,74.8 69,73.5 68.7,73.3 C68.6,73.4 69.7,73.2 70.1,73.3" id="path18" fill="#479951"></path>
        <path d="M70.1,73.3 C70.4,73.4 70.1,72.3 70.2,71.9 C70.3,71.5 71.1,73 71.5,73.1 C71.9,73.3 74.5,72.1 74.5,72.1 L75.1,70.9 L75.4,71.9 C75.4,71.9 76.1,71.1 76.3,70.8 C76.5,70.5 76.3,71.4 76.1,71.7 C75.9,72 76.7,72.1 76.6,72.8 C76.5,73.4 77.4,72.4 77.4,72.4 L79.8,72.6 C79.8,72.6 80.2,71.1 80.8,70.3 L81,71.2 L82,70.2 C83.1,73.1 85.4,76.3 90.2,78 C94.7,76.4 96.9,73.5 98.1,70.7 L99.4,72.1 C99.4,72.1 100.4,71.8 100.6,71.7 C100.8,71.6 103,72.5 103,72.5 L103.6,72.8 C103.8,73 103.7,72.1 103.7,72.1 C103.7,72.1 104.8,72.3 104.7,72.9 C104.7,72.9 105,72.3 105.2,72.2 C105.4,72.1 105.9,72.7 106,72.9 C106.1,73.1 108.5,73.4 108.9,73.6 C108.9,73.6 109.2,73.9 109.2,74.1 C109.2,74.1 109.7,74 110.1,74 C110.1,74 109.8,74.2 109.8,74.5 C109.8,74.8 109.6,75.1 109.3,75.2 C109,75.4 109.3,75.5 109.7,75.5 C110.1,75.6 109.7,76.1 108.9,76.4 C108.9,76.4 108.7,76.9 109.1,77 C109.1,77 108.4,77.1 108.3,76.8 C108.3,76.8 108,77.3 108,77.5 C108,77.5 107.2,77.2 107,77.1 C107,77.1 106.7,77.4 106.9,77.6 C106.9,77.6 105.5,77.4 105.2,76.9 C105.2,76.9 104.7,77.1 104.8,77.2 C104.8,77.2 103.8,76.5 103.5,76.5 L103.3,76.9 C103.3,76.9 102.6,76.5 102.4,76.5 C102.2,76.5 102.4,76.8 102.4,76.8 L101.5,76.2 L101.1,76.8 C101.1,76.8 100.3,76.4 100.1,76.3 C99.9,76.1 99.8,76.6 99.7,76.7 C99.7,76.7 99.4,76.3 99,76.3 C99,76.3 98.8,76.8 98.9,77 C98.9,77 97.7,76.7 97.5,76.7 C97.3,76.6 97.4,77 97.5,77.2 C97.5,77.2 96.6,76.9 96.4,76.8 L96.3,77.2 C96.3,77.2 95.6,77.1 95.4,77 L94.9,77.6 L94.2,77.6 L94,78.2 C94,78.2 92.7,77.8 92.6,78 C92.5,78.2 92.7,78.5 92.7,78.5 C92.7,78.5 91.7,78.5 91.6,78.3 L91.5,78.8 C91.5,78.8 90.2,78.4 89.9,78.6 C89.9,78.6 89.5,79 89.2,79.1 C89,79.2 89.2,78.9 89.2,78.9 L88.8,78.3 C88.8,78.3 88.3,78.6 88.1,78.5 C87.8,78.4 87,78.9 86.8,78.8 C86.8,78.8 86.8,78.4 86.6,78.3 C86.4,78.2 86,78.2 85.9,78.5 C85.9,78.5 85.7,78.3 85.5,77.9 C85.2,77.5 84.9,77.9 84.9,77.9 L85,77.8 C85,77.8 84.7,77.8 84.3,77.7 C83.9,77.6 83.8,77.3 83.8,77.3 C83.8,77.3 82.7,77.4 82.5,77.4 L82.8,77.1 C82.8,77.1 81.3,77.4 81,77.3 C80.7,77.2 81.3,76.8 81.3,76.8 C81.3,76.8 79.9,76.4 79.6,76.4 C79.3,76.3 77.8,76.7 77.6,76.7 C77.4,76.7 77.3,76.3 77.3,76.3 C77.3,76.3 76.9,76.6 76.6,76.7 C76.6,76.7 76.3,76.1 76.5,76 C76.5,76 75.5,76.3 75.5,76.5 C75.5,76.5 75.2,76.1 75.3,75.9 C75.3,75.9 74.8,76.6 74.6,76.8 C74.4,77 74.6,76.4 74.6,76.4 C74.6,76.4 74,77.1 73.8,77.2 L73.8,76.7 C73.8,76.7 72.1,77.6 71.7,77.5 C71.7,77.5 71.7,77.1 71.9,77 C71.9,77 71.1,77 70.9,76.9 C70.6,76.9 70.3,76.7 70.1,76.7 C69.8,76.7 70.5,76.4 70.9,76.5 C70.9,76.5 69.7,76.1 69.4,76.3 C69.4,76.3 69.2,75.9 69.9,75.7 C69.9,75.7 69.1,74.9 68.6,75 C68.6,75 69.1,74.7 69.5,74.8 C69.5,74.8 69,73.5 68.7,73.3 C68.6,73.4 69.7,73.2 70.1,73.3 L70.1,73.3 L70.1,73.3 L70.1,73.3 L70.1,73.3 L70.1,73.3 Z" id="path20" fill="#479951"></path>
        <path d="M83.1,72.3 C82.6,71.4 82.2,70.6 81.9,69.7 L90.2,62.3 L98.5,69.7 C98.2,70.6 97.8,71.5 97.3,72.4 L97.2,72.5 C97,72.4 96.6,72.3 96.6,72.3 C96.6,72.3 96.3,72.6 96.1,72.6 C95.8,72.6 95.6,72.3 95.6,72.3 C95.6,72.3 95.2,72.6 94.9,72.6 C94.5,72.6 94.4,72.3 94.4,72.3 C94.4,72.3 94,72.6 93.7,72.6 C93.4,72.5 93.3,72.4 93.3,72.4 C93.3,72.4 93.1,72.7 92.7,72.6 C92.4,72.5 92.1,72.4 92.1,72.4 C92.1,72.4 91.6,72.6 91.3,72.7 C91,72.8 90.7,72.4 90.7,72.4 C90.7,72.4 90.3,72.7 90.1,72.7 C89.9,72.7 89.4,72.4 89.4,72.4 C89.4,72.4 88.8,72.6 88.6,72.6 C88.4,72.6 87.8,72.3 87.8,72.3 C87.8,72.3 87.2,72.5 87,72.5 C86.7,72.5 86.3,72.3 86.3,72.3 C86.3,72.3 85.8,72.5 85.6,72.5 C85.3,72.4 85.1,72.3 85.1,72.3 C85.1,72.3 84.6,72.5 84.3,72.5 C84,72.4 83.6,72.2 83.6,72.2 C83.6,72.2 83.7,72.2 83.1,72.3 L83.1,72.3" id="path22" fill="#9DD7FF"></path>
        <path d="M92.5,68 C92.5,68 94.2,69 92.5,70.8" id="path24"></path>
        <path d="M84.9,70.5 C84.9,70.5 85.4,70.8 86.6,71.2 C87.7,71.6 88.9,71.7 90.7,71.7 C94.3,71.7 94.3,71.1 94.3,71.1 L93,72.5 C93,72.5 87.7,72.8 86.9,72.2 C86.5,71.9 85.7,71.3 84.9,70.5" id="path26" fill="#730000"></path>
        <path d="M84.9,70.5 C85.5,70.8 85.3,70.7 86.6,71.2 C87.7,71.6 88.9,71.7 90.7,71.7 C92.3,71.7 93.2,71.6 93.6,71.4 C94.1,71.3 94.2,71 94.2,71 L93,72.5 C93,72.5 87.8,72.8 86.9,72.2 C86.5,71.9 85.7,71.3 84.9,70.5 L84.9,70.5 L84.9,70.5 L84.9,70.5 L84.9,70.5 L84.9,70.5 L84.9,70.5 Z" id="path28"></path>
        <polyline id="path30" points="85 70.6 87.4 68.3 87.1 71.4"></polyline>
        <path d="M87.7,71.7 L87.7,66.6" id="path32"></path>
        <path d="M91.7,71.7 L91.7,66.2" id="path34"></path>
        <path d="M89.7,71.8 L89.7,65.9" id="path36"></path>
        <polyline id="path38" fill="#FF0018" points="88.4 66.8 87.3 67.2 88.4 67.3 88.4 66.8"></polyline>
        <polyline id="path40" points="88.4 66.8 87.3 67.2 88.4 67.3 88.4 66.8"></polyline>
        <polyline id="path42" fill="#FF0018" points="90.4 66 89.3 66.4 90.4 66.4 90.4 66"></polyline>
        <polyline id="path44" points="90.4 66 89.3 66.4 90.4 66.4 90.4 66"></polyline>
        <polyline id="path46" fill="#FF0018" points="92.5 66.3 91.4 66.7 92.5 66.8 92.5 66.3"></polyline>
        <polygon id="path48" points="92.5 66.3 91.4 66.7 92.5 66.8 92.5 66.3 92.5 66.3 92.5 66.3 92.5 66.3"></polygon>
        <path d="M85.4,70.3 L87.4,68.3 L87.3,69.5 C87.3,69.5 86.3,70.2 86.3,70.7 L85.4,70.3" id="path50" fill="#FFFFFF"></path>
        <path d="M85.4,70.3 L85.4,70.3 L87.4,68.3 L87.3,69.5 C87.3,69.5 86.3,70.2 86.3,70.7 L85.4,70.3" id="path52"></path>
        <path d="M86.5,70.7 C86.5,70.7 86.7,70.1 87.3,69.8 L87.2,71 L86.5,70.7" id="path54" fill="#FFFFFF"></path>
        <path d="M86.5,70.7 C86.5,70.7 86.7,70.1 87.3,69.8 L87.2,71 L86.5,70.7 L86.5,70.7 L86.5,70.7 L86.5,70.7 L86.5,70.7 L86.5,70.7 Z" id="path56"></path>
        <path d="M89.4,67.3 C89.4,67.3 90.2,67.2 90.8,67.3 C90.8,67.3 90.7,68.1 90.8,68.3 C90.8,68.3 89.7,68 89.2,68.5 C89.2,68.4 89.1,67.6 89.4,67.3" id="path58" fill="#FFFFFF"></path>
        <path d="M89.4,67.3 C89.4,67.3 90.2,67.2 90.8,67.3 C90.8,67.3 90.7,68.1 90.8,68.3 C90.8,68.3 89.7,68 89.2,68.5 C89.2,68.4 89.1,67.6 89.4,67.3 L89.4,67.3 L89.4,67.3 L89.4,67.3 L89.4,67.3 L89.4,67.3 Z" id="path60"></path>
        <path d="M87.6,67.5 C87.6,67.5 88.4,67.4 89,67.5 C89,67.5 88.8,68.4 88.9,68.6 C88.9,68.6 88,68.1 87.5,68.5 C87.6,68.5 87.3,67.8 87.6,67.5" id="path62" fill="#FFFFFF"></path>
        <path d="M87.6,67.5 C87.6,67.5 88.4,67.4 89,67.5 C89,67.5 88.8,68.4 88.9,68.6 C88.9,68.6 88,68.1 87.5,68.5 C87.6,68.5 87.3,67.8 87.6,67.5 C87.6,67.5 87.3,67.8 87.6,67.5 L87.6,67.5 L87.6,67.5 L87.6,67.5 L87.6,67.5 L87.6,67.5 Z" id="path64"></path>
        <path d="M87.6,68.6 C87.6,68.6 88.4,68.5 89,68.6 C89,68.6 88.9,69.4 89,69.6 C89,69.6 87.9,69.3 87.5,69.8 C87.5,69.7 87.3,68.9 87.6,68.6" id="path66" fill="#FFFFFF"></path>
        <path d="M87.6,68.6 C87.6,68.6 88.4,68.5 89,68.6 C89,68.6 88.9,69.4 89,69.6 C89,69.6 87.9,69.3 87.5,69.8 C87.5,69.7 87.3,68.9 87.6,68.6 C87.6,68.6 87.3,68.9 87.6,68.6 L87.6,68.6 L87.6,68.6 L87.6,68.6 L87.6,68.6 L87.6,68.6 Z" id="path68"></path>
        <path d="M89.2,68.4 C89.2,68.4 90.4,68.2 91,68.3 C91,68.3 90.7,69 91.1,69.4 C91.1,69.4 89.8,69 89.3,69.5 C89.3,69.6 88.9,68.8 89.2,68.4" id="path70" fill="#FFFFFF"></path>
        <path d="M89.2,68.4 C89.2,68.4 90.4,68.2 91,68.3 C91,68.3 90.7,69 91.1,69.4 C91.1,69.4 89.8,69 89.3,69.5 C89.3,69.6 88.9,68.8 89.2,68.4 L89.2,68.4 L89.2,68.4 L89.2,68.4 L89.2,68.4 L89.2,68.4 Z" id="path72"></path>
        <path d="M87.5,69.7 C87.5,69.7 88.5,69.7 89.1,69.8 C89.1,69.8 88.9,71 89,71.1 C89,71.1 87.7,70.8 87.5,71.2 C87.5,71.3 87.1,70.2 87.5,69.7" id="path74" fill="#FFFFFF"></path>
        <path d="M87.5,69.7 C87.5,69.7 88.5,69.7 89.1,69.8 C89.1,69.8 88.9,71 89,71.1 C89,71.1 87.7,70.8 87.5,71.2 C87.5,71.3 87.1,70.2 87.5,69.7 L87.5,69.7 L87.5,69.7 L87.5,69.7 L87.5,69.7 L87.5,69.7 L87.5,69.7 L87.5,69.7 Z" id="path76"></path>
        <path d="M89.3,69.7 C89.3,69.7 90.7,69.6 91.3,69.7 C91.3,69.7 90.9,70.6 91.3,71.4 C91.3,71.4 89.5,70.9 89.2,71.3 C89.3,71.3 88.9,70.2 89.3,69.7" id="path78" fill="#FFFFFF"></path>
        <path d="M89.3,69.7 C89.3,69.7 90.7,69.6 91.3,69.7 C91.3,69.7 90.9,70.6 91.3,71.4 C91.3,71.4 89.5,70.9 89.2,71.3 C89.3,71.3 88.9,70.2 89.3,69.7 L89.3,69.7 L89.3,69.7 L89.3,69.7 L89.3,69.7 L89.3,69.7 Z" id="path80"></path>
        <path d="M91.4,67.3 C91.4,67.3 92.2,67.2 92.8,67.3 C92.8,67.3 92.7,68.1 92.8,68.3 C92.8,68.3 91.7,68 91.2,68.5 C91.3,68.4 91.1,67.6 91.4,67.3" id="path82" fill="#FFFFFF"></path>
        <path d="M91.4,67.3 C91.4,67.3 92.2,67.2 92.8,67.3 C92.8,67.3 92.7,68.1 92.8,68.3 C92.8,68.3 91.7,68 91.2,68.5 C91.3,68.4 91.1,67.6 91.4,67.3 C91.4,67.3 91.1,67.6 91.4,67.3 L91.4,67.3 L91.4,67.3 L91.4,67.3 L91.4,67.3 L91.4,67.3 Z" id="path84"></path>
        <path d="M91.4,68.4 C91.4,68.4 92.2,68.3 92.8,68.4 C92.8,68.4 92.7,69.2 92.8,69.4 C92.8,69.4 91.7,69.1 91.2,69.6 C91.3,69.6 91.1,68.8 91.4,68.4" id="path86" fill="#FFFFFF"></path>
        <path d="M91.4,68.4 C91.4,68.4 92.2,68.3 92.8,68.4 C92.8,68.4 92.7,69.2 92.8,69.4 C92.8,69.4 91.7,69.1 91.2,69.6 C91.3,69.6 91.1,68.8 91.4,68.4 C91.4,68.4 91.1,68.8 91.4,68.4 L91.4,68.4 L91.4,68.4 L91.4,68.4 L91.4,68.4 L91.4,68.4 Z" id="path88"></path>
        <path d="M91.5,69.6 C91.5,69.6 92.3,69.5 93,69.6 C93,69.6 92.8,70.9 92.9,71.1 C92.9,71.1 92,70.7 91.5,71 C91.5,71 91.2,70 91.5,69.6" id="path90" fill="#FFFFFF"></path>
        <path d="M91.5,69.6 C91.5,69.6 92.3,69.5 93,69.6 C93,69.6 92.8,70.9 92.9,71.1 C92.9,71.1 92,70.7 91.5,71 C91.5,71 91.2,70 91.5,69.6 L91.5,69.6 L91.5,69.6 L91.5,69.6 L91.5,69.6 L91.5,69.6 Z" id="path92"></path>
        <path d="M93.2,68.8 C93.1,68.6 93.9,68.6 93.9,68.6 C93.9,68.6 94.1,69.4 93.9,69.9 L93.3,69.8 C93.2,69.7 93.3,69.2 93.2,68.8" id="path94" fill="#FF0018"></path>
        <path d="M93.2,68.8 C93.1,68.6 93.9,68.6 93.9,68.6 C93.9,68.6 94.1,69.4 93.9,69.9 L93.3,69.8 C93.2,69.7 93.3,69.2 93.2,68.8 L93.2,68.8 L93.2,68.8 L93.2,68.8 L93.2,68.8 L93.2,68.8 Z" id="path96"></path>
        <path d="M93.2,69.7 C93.2,69.7 93.5,70.7 93.8,70.8 L93.3,71.4 C93.3,71.4 92.7,71 92.7,70.5 C92.8,70.5 93.1,70.1 93.2,69.7" id="path98" fill="#FFFFFF"></path>
        <path d="M93.2,69.7 C93.2,69.7 93.5,70.7 93.8,70.8 L93.3,71.4 C93.3,71.4 92.7,71 92.7,70.5 C92.8,70.5 93.1,70.1 93.2,69.7 C93.2,69.7 93.1,70.1 93.2,69.7 L93.2,69.7 L93.2,69.7 L93.2,69.7 L93.2,69.7 L93.2,69.7 Z" id="path100"></path>
        <path d="M97.4,72.4 C96.1,74.6 93.9,76.7 90.3,78.1 C86.7,76.8 84.4,74.6 83.1,72.4 L83.1,72.4 C83.7,72.3 83.8,72.1 83.8,72.1 C83.8,72.1 84.2,72.3 84.5,72.4 C84.8,72.5 85.3,72.2 85.3,72.2 C85.3,72.2 85.5,72.3 85.8,72.4 C86.1,72.5 86.5,72.2 86.5,72.2 C86.5,72.2 86.9,72.4 87.2,72.4 C87.5,72.4 88,72.2 88,72.2 C88,72.2 88.6,72.5 88.8,72.5 C89,72.5 89.6,72.3 89.6,72.3 C89.6,72.3 90.2,72.6 90.3,72.6 C90.5,72.6 90.9,72.3 90.9,72.3 C90.9,72.3 91.2,72.6 91.5,72.6 C91.8,72.6 92.3,72.3 92.3,72.3 C92.3,72.3 92.6,72.5 92.9,72.5 C93.2,72.6 93.5,72.3 93.5,72.3 C93.5,72.3 93.7,72.5 93.9,72.5 C94.2,72.6 94.6,72.2 94.6,72.2 C94.6,72.2 94.8,72.4 95.1,72.5 C95.5,72.6 95.8,72.2 95.8,72.2 C95.8,72.2 96.1,72.5 96.3,72.5 C96.5,72.5 96.8,72.2 96.8,72.2 C96.8,72.2 97.2,72.4 97.4,72.4" id="path102" fill="#006AC8"></path>
        <path d="M90.3,62.3 L82,69.8 C81.2,67.4 81.1,65.3 81.1,64.4 L81.1,53.7 L90.3,53.7 L90.3,62.3 L90.3,62.3 L90.3,62.3 L90.3,62.3 L90.3,62.3 Z" id="path114" fill="#FFFFFF"></path>
        <path d="M90.3,53.7 L90.3,62.2 L82,69.7 C81.2,67.3 81.1,65.2 81.1,64.3 L81.1,53.7 L90.3,53.7" id="path116"></path>
        <path d="M90.3,53.7 L90.3,62.2 L98.6,69.7 C99.4,67.3 99.5,65.2 99.5,64.3 L99.5,53.7 L90.3,53.7" id="path118" fill="#FFD83C"></path>
        <path d="M90.3,53.7 L90.3,62.2 L98.6,69.7 C99.4,67.3 99.5,65.2 99.5,64.3 L99.5,53.7 L90.3,53.7" id="path120"></path>
        <path d="M86.2,56.7 C86.2,56.6 86.3,56.4 86.4,56.2 C86.4,56.1 87.1,55 87.5,54.9 L89.7,56.5 C89.7,56.6 88.7,58 88.7,57.9 C88.7,58 86.1,56.9 86.2,56.7 C86.2,56.7 86.1,56.9 86.2,56.7 L86.2,56.7 L86.2,56.7 L86.2,56.7 L86.2,56.7 L86.2,56.7 Z" id="path134" fill="#FFFFFF"></path>
        <path d="M98.3,63.5 C98,63.1 97.7,62.7 97.2,62.2 L92.2,55.9 L92.7,55.4 L97.2,60.8 C97.3,60.9 98.1,61.8 98.9,62.8 C98.9,62.8 99,63.1 98.7,63.4 C98.6,63.5 98.3,63.5 98.3,63.5 L98.3,63.5 L98.3,63.5 L98.3,63.5 L98.3,63.5 L98.3,63.5 Z" id="path138" fill="#730000"></path>
        <path d="M98.8,63.4 C98.6,63.5 98.3,63.6 98.3,63.6 C98,63.2 97.7,62.8 97.2,62.3 L92.2,56 L92.7,55.5 L97.2,60.9 C97.3,61 98.1,61.9 98.9,62.9 C99,62.8 99,63.2 98.8,63.4 C98.8,63.4 99,63.2 98.8,63.4 L98.8,63.4 L98.8,63.4 L98.8,63.4 L98.8,63.4 L98.8,63.4 Z" id="path140"></path>
        <path d="M94,56.8 L93.2,55.8 C93.2,55.8 92.6,55.9 92.5,56.2 C92.5,56.2 92.1,56.9 90.9,57 C90.9,57 91.2,58.4 92.6,59.1 C92.6,59.1 93.1,57.7 93.6,57.4 C93.5,57.5 94,57.1 94,56.8" id="path142" fill="#FFFFFF"></path>
        <path d="M94,56.8 L93.2,55.8 C93.2,55.8 92.6,55.9 92.5,56.2 C92.5,56.2 92.1,56.9 90.9,57 C90.9,57 91.2,58.4 92.6,59.1 C92.6,59.1 93.1,57.7 93.6,57.4 C93.5,57.5 94,57.1 94,56.8 L94,56.8 L94,56.8 L94,56.8 L94,56.8 L94,56.8 Z" id="path144"></path>
        <path d="M91.8,61.2 L97.5,55.5 L98.9,57 C98.9,57 98.6,56.9 98.5,57 C98.4,57.1 98.6,57.4 98.6,57.4 C98.6,57.4 98.3,57.3 98.2,57.4 C98.1,57.5 98.2,57.8 98.2,57.8 C98.2,57.8 98,57.6 97.9,57.7 C97.8,57.8 97.9,58.1 97.9,58.1 C97.9,58.1 97.6,58 97.5,58.1 C97.4,58.2 97.5,58.5 97.5,58.5 C97.5,58.5 97.2,58.3 97,58.5 C96.8,58.7 97.1,58.9 97.1,58.9 C97.1,58.9 96.7,58.7 96.6,59 C96.4,59.2 96.6,59.4 96.6,59.4 C96.6,59.4 96.3,59.2 96.2,59.3 C96.1,59.4 96.2,59.7 96.2,59.7 C96.2,59.7 95.9,59.5 95.8,59.7 C95.6,59.9 95.8,60.1 95.8,60.1 C95.8,60.1 95.5,59.9 95.4,60 C95.3,60.1 95.4,60.4 95.4,60.4 C95.4,60.4 95.1,60.2 95,60.4 C94.8,60.6 95,60.8 95,60.8 C95,60.8 94.8,60.6 94.6,60.8 C94.4,61 94.6,61.2 94.6,61.2 C94.6,61.2 94.3,61 94.2,61.2 C94.1,61.4 94.2,61.6 94.2,61.6 C94.2,61.6 94,61.5 93.8,61.5 C93.6,61.6 93.8,61.9 93.8,61.9 C93.8,61.9 93.6,61.6 93.5,61.8 C93.4,61.9 93.5,62.3 93.5,62.3 C93.5,62.3 93.3,62 93.2,62.2 C93.1,62.3 93.3,62.6 93.3,62.6 C93.3,62.6 92.9,62.4 93,62.4 C93,62.6 91.8,61.2 91.8,61.2" id="path164" fill="#FFFFFF"></path>
        <path d="M91.8,61.2 L97.5,55.5 L98.9,57 C98.9,57 98.6,56.9 98.5,57 C98.4,57.1 98.6,57.4 98.6,57.4 C98.6,57.4 98.3,57.3 98.2,57.4 C98.1,57.5 98.2,57.8 98.2,57.8 C98.2,57.8 98,57.6 97.9,57.7 C97.8,57.8 97.9,58.1 97.9,58.1 C97.9,58.1 97.6,58 97.5,58.1 C97.4,58.2 97.5,58.5 97.5,58.5 C97.5,58.5 97.2,58.3 97,58.5 C96.8,58.7 97.1,58.9 97.1,58.9 C97.1,58.9 96.7,58.7 96.6,59 C96.4,59.2 96.6,59.4 96.6,59.4 C96.6,59.4 96.3,59.2 96.2,59.3 C96.1,59.4 96.2,59.7 96.2,59.7 C96.2,59.7 95.9,59.5 95.8,59.7 C95.6,59.9 95.8,60.1 95.8,60.1 C95.8,60.1 95.5,59.9 95.4,60 C95.3,60.1 95.4,60.4 95.4,60.4 C95.4,60.4 95.1,60.2 95,60.4 C94.8,60.6 95,60.8 95,60.8 C95,60.8 94.8,60.6 94.6,60.8 C94.4,61 94.6,61.2 94.6,61.2 C94.6,61.2 94.3,61 94.2,61.2 C94.1,61.4 94.2,61.6 94.2,61.6 C94.2,61.6 94,61.5 93.8,61.5 C93.6,61.6 93.8,61.9 93.8,61.9 C93.8,61.9 93.6,61.6 93.5,61.8 C93.4,61.9 93.5,62.3 93.5,62.3 C93.5,62.3 93.3,62 93.2,62.2 C93.1,62.3 93.3,62.6 93.3,62.6 C93.3,62.6 92.9,62.4 93,62.4 C93,62.6 91.8,61.2 91.8,61.2 L91.8,61.2 L91.8,61.2 L91.8,61.2 L91.8,61.2 L91.8,61.2 L91.8,61.2 L91.8,61.2 Z" id="path166"></path>
        <path d="M91.9,61.1 C91.8,61.1 91.7,61.1 91.5,61.2 C91.3,61.3 91.2,61.3 91.2,61.1 C91.2,60.9 91.2,60.9 91.4,60.8 C91.7,60.6 92.1,60.6 92.4,60.7 L91.9,61.1" id="path174" fill="#730000"></path>
        <path d="M91.9,61.1 C91.8,61.1 91.7,61.1 91.5,61.2 C91.3,61.3 91.2,61.3 91.2,61.1 C91.2,60.9 91.2,60.9 91.4,60.8 C91.7,60.6 92.1,60.6 92.4,60.7 L91.9,61.1" id="path176"></path>
        <path d="M97.4,55.6 C97.4,55.5 97.3,55.3 97.5,55.2 C97.6,55 97.6,54.8 97.3,54.9 C97,55 96.9,55.4 97.1,56 L97.4,55.6" id="path178" fill="#730000"></path>
        <path d="M97.4,55.6 C97.4,55.5 97.3,55.3 97.5,55.2 C97.6,55 97.6,54.8 97.3,54.9 C97,55 96.9,55.4 97.1,56 L97.4,55.6 L97.4,55.6 L97.4,55.6 L97.4,55.6 L97.4,55.6 L97.4,55.6 Z" id="path180"></path>
        <path d="M96.1,36.8 C96.1,36.8 96.2,36.5 96.4,36.7 C96.6,36.9 96.7,37.5 96.7,37.5 L96.4,37.7 C96.4,37.7 96.6,37.5 96.1,36.8" id="path194" fill="#730000"></path>
        <path d="M96.1,36.8 C96.1,36.8 96.2,36.5 96.4,36.7 C96.6,36.9 96.7,37.5 96.7,37.5 L96.4,37.7 C96.4,37.7 96.6,37.5 96.1,36.8 C96.1,36.8 96.6,37.5 96.1,36.8 L96.1,36.8 L96.1,36.8 L96.1,36.8 L96.1,36.8 L96.1,36.8 Z" id="path196"></path>
        <path d="M94.4,43 C94.4,43 94.6,42.8 94.3,42.3 L94.6,42.2 C94.6,42.2 94.7,42.6 94.6,43 L94.4,43" id="path198" fill="#730000"></path>
        <path d="M94.4,43 C94.4,43 94.6,42.8 94.3,42.3 L94.6,42.2 C94.6,42.2 94.7,42.6 94.6,43 L94.4,43" id="path200"></path>
        <path d="M96.7,36.6 C96.7,36.6 96.5,36.6 96.3,36.4 L96.7,36.6" id="path202" fill="#66FF66"></path>
        <path d="M96.7,36.6 C96.7,36.6 96.5,36.6 96.3,36.4" id="path204"></path>
        <polyline id="path206" fill="#730000" points="99.7 41.9 99 42.3 99.4 42.5 100.3 42 99.7 41.9"></polyline>
        <polyline id="path208" points="99.7 41.9 99 42.3 99.4 42.5 100.3 42 99.7 41.9"></polyline>
        <path d="M89.9,44.8 C89.7,45 89.7,45.2 89.6,45.4 C89.5,45.6 89.2,45.8 89.2,46 C89.2,46.2 89.1,46.4 89.2,46.7 C89.3,47 89.8,48.4 89.6,49.4 C89.4,50.5 89.5,50.9 89.5,51.1 C89.6,51.3 89.8,51.7 89.9,51.7 C90.2,51.7 90.1,51.6 90.2,51.4 C90.5,50.9 90.2,47 90.1,45.9 C90,45.1 89.6,44.3 89.6,44.2 C89.6,44.1 89.5,43.8 89.4,43.7 C89.1,43 88.8,42.4 88.8,40.9 C88.8,40.9 87.9,41.1 87,39.3 C86.6,38.4 86,38.5 85.2,38.2 L85.5,38 C85.5,38 86.1,38.3 86.4,38.3 C86.7,38.3 86.6,37.7 86.6,37.7 L86.9,37.4 L86.9,38.8 C86.9,39.4 87.7,40.3 88.2,40.5 C88.5,40.7 88.9,40 88.8,39.4 C88.7,38.8 88.8,37.9 88.8,37.9 L89.2,38.2 C89.2,38.2 89,38.5 89.1,38.6 C89.2,38.8 89.4,38.4 89.5,38.3 L89.7,38.3 C89.7,38.3 89.4,38.8 89.2,39.1 C89,39.4 89,40.3 89,40.7 C89,41.1 89.1,41.9 89.1,42.2 C89.1,42.4 89.5,43.2 89.8,43.7 C89.9,43.9 90.1,44.4 90.1,44.4 C90.3,44.8 90.4,45 90.5,45.3 C90.6,45.5 90.7,45.9 90.8,46.7 C90.8,46.9 90.9,47.6 90.9,48.1 C91,48.6 91.3,48.2 91.8,47.9 C92.3,47.5 92.3,46.7 92.3,46.7 C92.3,46.7 92.7,46.4 92.6,46.6 C92.6,46.8 92.8,47 92.8,47 C92.5,47.7 92.7,47.6 93,47.6 C93.3,47.6 94.3,46.8 94.3,46.8 L94.9,46.8 C95.1,46.7 95,47 95,47 L95.7,46.9 C95.5,47.1 94.6,47.6 94.4,47.7 C94.2,47.8 93.1,48.3 92.7,48.5 C92.3,48.7 91.4,49.1 91.4,49.6 C91.4,50 91.5,51.3 91.4,51.6 C91.4,52 91.2,53.7 91.2,53.7 L89,53.7 C89,53.7 89.4,52.2 89,51.8 C88.6,51.4 87.7,50.1 87,49.7 C86.4,49.3 87.4,49.6 87.4,49.6 L87.4,49.2 L88.3,50.3 C88.3,50.3 89.9,48.8 88.3,46.9 C87.8,46.3 87.3,45.3 86.9,45.2 C86.5,45.1 86.3,45 85.6,45.2 C84.9,45.4 83.1,45.4 82.4,44.2 L83,44.1 L83.5,43.9 C83.5,43.9 83.3,44.6 84.8,44.6 C86.2,44.6 86.5,44.6 86.3,43.2 L86.7,43 L87,43.3 C87,43.3 86.8,44 86.9,44.4 C87,44.7 87.5,44.9 87.9,45.2 C88.1,45.3 88.2,45.4 88.3,45.4 C88.5,45.4 88.5,45.4 88.7,45.1 C89,44.7 89,44.7 89.3,44.4 L89.5,44.1 L89.9,44.8" id="path210" fill="#730000"></path>
        <path d="M89.9,44.8 C89.7,45 89.7,45.2 89.6,45.4 C89.5,45.6 89.2,45.8 89.2,46 C89.2,46.2 89.1,46.4 89.2,46.7 C89.3,47 89.8,48.4 89.6,49.4 C89.4,50.5 89.5,50.9 89.5,51.1 C89.6,51.3 89.8,51.7 89.9,51.7 C90.2,51.7 90.1,51.6 90.2,51.4 C90.5,50.9 90.2,47 90.1,45.9 C90,45.1 89.6,44.3 89.6,44.2 C89.6,44.1 89.5,43.8 89.4,43.7 C89.1,43 88.8,42.4 88.8,40.9 C88.8,40.9 87.9,41.1 87,39.3 C86.6,38.4 86,38.5 85.2,38.2 L85.5,38 C85.5,38 86.1,38.3 86.4,38.3 C86.7,38.3 86.6,37.7 86.6,37.7 L86.9,37.4 L86.9,38.8 C86.9,39.4 87.7,40.3 88.2,40.5 C88.5,40.7 88.9,40 88.8,39.4 C88.7,38.8 88.8,37.9 88.8,37.9 L89.2,38.2 C89.2,38.2 89,38.5 89.1,38.6 C89.2,38.8 89.4,38.4 89.5,38.3 L89.7,38.3 C89.7,38.3 89.4,38.8 89.2,39.1 C89,39.4 89,40.3 89,40.7 C89,41.1 89.1,41.9 89.1,42.2 C89.1,42.4 89.5,43.2 89.8,43.7 C89.9,43.9 90.1,44.4 90.1,44.4 C90.3,44.8 90.4,45 90.5,45.3 C90.6,45.5 90.7,45.9 90.8,46.7 C90.8,46.9 90.9,47.6 90.9,48.1 C91,48.6 91.3,48.2 91.8,47.9 C92.3,47.5 92.3,46.7 92.3,46.7 C92.3,46.7 92.7,46.4 92.6,46.6 C92.6,46.8 92.8,47 92.8,47 C92.5,47.7 92.7,47.6 93,47.6 C93.3,47.6 94.3,46.8 94.3,46.8 L94.9,46.8 C95.1,46.7 95,47 95,47 L95.7,46.9 C95.5,47.1 94.6,47.6 94.4,47.7 C94.2,47.8 93.1,48.3 92.7,48.5 C92.3,48.7 91.4,49.1 91.4,49.6 C91.4,50 91.5,51.3 91.4,51.6 C91.4,52 91.2,53.7 91.2,53.7 L89,53.7 C89,53.7 89.4,52.2 89,51.8 C88.6,51.4 87.7,50.1 87,49.7 C86.4,49.3 87.4,49.6 87.4,49.6 L87.4,49.2 L88.3,50.4 C88.3,50.4 89.9,48.9 88.3,47 C87.8,46.4 87.3,45.4 86.9,45.3 C86.5,45.2 86.3,45.1 85.6,45.3 C84.9,45.5 83.1,45.5 82.4,44.3 L83,44.2 L83.5,44 C83.5,44 83.3,44.7 84.8,44.7 C86.2,44.7 86.5,44.7 86.3,43.3 L86.7,43.1 L87,43.4 C87,43.4 86.8,44.1 86.9,44.5 C87,44.8 87.5,45 87.9,45.3 C88.1,45.4 88.2,45.5 88.3,45.5 C88.5,45.5 88.5,45.5 88.7,45.2 C89,44.8 89,44.8 89.3,44.5 L89.5,44.2 L89.9,44.8 L89.9,44.8 L89.9,44.8 L89.9,44.8 L89.9,44.8 L89.9,44.8 Z" id="path212"></path>
        <path d="M90.2,43.8 C90.3,43.7 90.4,43.4 90.6,43.2 C90.8,42.8 91.1,42.6 91.4,42.1 C91.7,41.7 91.8,41 91.7,40.5 L92,40.7 L92,41.4 C92,41.4 92.4,41.1 92.5,41 L92.7,41.1 C92.7,41.1 91.5,42.3 90.5,44.3 L90.2,43.8" id="path214" fill="#730000"></path>
        <path d="M90.2,43.8 C90.3,43.7 90.4,43.4 90.6,43.2 C90.8,42.8 91.1,42.6 91.4,42.1 C91.7,41.7 91.8,41 91.7,40.5 L92,40.7 L92,41.4 C92,41.4 92.4,41.1 92.5,41 L92.7,41.1 C92.7,41.1 91.5,42.3 90.5,44.3 L90.2,43.8 L90.2,43.8 L90.2,43.8 L90.2,43.8 L90.2,43.8 L90.2,43.8 Z" id="path216"></path>
        <path d="M80.1,39.7 C80.3,40 80.4,40.5 80.9,40.9 L81.2,40.8 C81.2,40.8 80.5,40 80.5,39.6 L80.1,39.7" id="path218" fill="#730000"></path>
        <path d="M80.1,39.7 C80.3,40 80.4,40.5 80.9,40.9 L81.2,40.8 C81.2,40.8 80.5,40 80.5,39.6 L80.1,39.7" id="path220"></path>
        <path d="M81.9,39.2 C81.9,39.2 82,40.2 81.7,40.6 L82,40.4 C82,40.4 82.2,39.7 82.2,39.3 L81.9,39.2" id="path222" fill="#730000"></path>
        <path d="M81.9,39.2 C81.9,39.2 82,40.2 81.7,40.6 L82,40.4 C82,40.4 82.2,39.7 82.2,39.3 L81.9,39.2 L81.9,39.2 L81.9,39.2 L81.9,39.2 L81.9,39.2 L81.9,39.2 Z" id="path224"></path>
        <path d="M92,36.1 C92,36.1 91.9,37.5 92.2,38.4 L92.6,38.3 C92.6,38.3 92.5,38 92.9,37.9 C93.2,37.8 93.9,37.5 94.3,37.2 L94.2,36.9 C94.2,36.9 93.6,37.3 93.4,37.5 C93.1,37.6 93,37.7 92.8,37.7 C92.6,37.6 92.3,37.3 92.5,36.5 L92,36.1" id="path226" fill="#730000"></path>
        <path d="M92,36.1 C92,36.1 91.9,37.5 92.2,38.4 L92.6,38.3 C92.6,38.3 92.5,38 92.9,37.9 C93.2,37.8 93.9,37.5 94.3,37.2 L94.2,36.9 C94.2,36.9 93.6,37.3 93.4,37.5 C93.1,37.6 93,37.7 92.8,37.7 C92.6,37.6 92.3,37.3 92.5,36.5 L92,36.1" id="path228"></path>
        <path d="M96.1,42.6 C96.1,42.6 96,43.6 96.1,44 L96.4,44.1 C96.4,44.1 96.3,42.9 96.5,42.8 L96.1,42.6" id="path230" fill="#730000"></path>
        <path d="M96.1,42.6 C96.1,42.6 96,43.6 96.1,44 L96.4,44.1 C96.4,44.1 96.3,42.9 96.5,42.8 L96.1,42.6" id="path232"></path>
        <path d="M97.6,43.4 C97.6,43.4 97.2,44 96.8,44.1 L97.5,44 C97.5,44 97.7,43.9 98,43.6 L97.6,43.4" id="path234" fill="#730000"></path>
        <path d="M97.6,43.4 C97.6,43.4 97.2,44 96.8,44.1 L97.5,44 C97.5,44 97.7,43.9 98,43.6 L97.6,43.4" id="path236"></path>
        <path d="M91.7,40.4 L92,40.6 L92.3,40.6 C92.3,40.6 92.6,40.9 92.9,41.1 C93.2,41.3 93.2,41.1 93.2,41.1 L93.4,41.7 L93.6,41.7 C93.6,41.7 93.5,42.1 93.5,42.3 L93.9,42 L94.3,42.4 C94.3,42.4 94.6,42.1 94.8,42.1 C95,42.1 95,41.9 95,41.9 L95,41.9 C94,41.4 93.5,40.9 93.8,40.4 C94.3,39.5 95.1,40.1 95.4,40.2 L99.1,42.2 C99.1,42.2 99.4,42 99.2,41.9 C99,41.7 98.9,41.4 99,41.2 C99.1,41 99.5,41.7 99.7,41.7 C99.9,41.8 100.4,41.8 100.4,41.8 L100.4,41.6 C100.4,41.6 101,42 101,42.2 C101,42.2 101.4,42 101.3,41.8 C101.1,41.7 102,42.1 102,42.4 L102.2,42.2 C102.2,42.2 102.3,41.6 102.5,41.3 C102.7,41 102.9,40.9 102.9,40.9 C102.9,40.9 103.1,40.6 103.3,40.6 C103.3,40.6 103.1,40.5 103,40.3 C102.9,40.1 102.7,40.1 102.7,40.1 C102.7,40.1 103,39.9 103.1,39.8 C103.2,39.7 103.3,39.7 103.3,39.7 C103.3,39.7 102.9,39.3 102.5,39.3 C102.5,39.3 102.5,38.8 102.1,38.8 L102.3,38.8 C102.3,38.8 102,38.3 101.7,38.2 C101.7,38.2 101.9,38 102,38 C102,38 101.7,37.6 101.2,37.7 L101.5,37.6 C101.5,37.6 101.3,37.4 100.6,37.5 C100.6,37.5 100.7,37.2 100.4,37 C100.4,37 100.1,37 100.1,37.2 C100.1,37.2 99.9,37 99.6,37 C99.3,37 99.7,37.3 99.7,37.3 C99.7,37.3 99.3,37 99.1,37.1 C99.1,37.1 99.2,36.7 98.9,36.4 C98.9,36.4 98.6,36.6 98.5,36.8 L98.4,36.6 C98.4,36.6 98,37.1 97.9,36.9 C97.8,36.8 97.8,36.5 97.8,36.5 L97.6,37 L97.6,36.5 C97.6,36.5 97.3,36.7 97.1,37.2 C97.1,37.2 96.8,37.5 96.8,37.7 C96.8,37.7 96.6,37.4 96.4,37.7 C96.2,38 96.4,37.9 96.4,37.9 C96.4,37.9 96.4,38 96.2,38 L96.2,38.2 C96.2,38.2 95.9,38.1 95.8,38.1 L95.9,38.3 C95.9,38.3 95.4,38.3 95.4,37.9 C95.4,37.9 95,37.7 94.9,37.9 C94.9,37.9 94.6,37.9 94.6,38.1 C94.6,38.1 94.5,37.9 94.3,37.9 C94.1,37.8 94.3,38.2 94.3,38.2 C94.3,38.2 94.2,38 94,37.8 C93.8,37.7 94,38 94,38 C94,38 93.7,37.7 93.8,37.6 C93.8,37.6 93.5,37.9 93.6,38.1 L93.4,38.2 C93.4,38.2 93.3,38.1 93.3,38 C93.3,37.9 93,38.2 93,38.2 C93,38.2 92.8,37.7 93,37.7 C93,37.7 92.6,37.7 92.6,38.1 C92.5,38.5 92.6,38.1 92.6,38.1 C92.6,38.1 92.3,38.1 92.1,38.2 C91.8,38.3 92.3,38.5 92.3,38.5 C92.3,38.5 91.9,38.4 91.7,38.5 L91.8,38.7 C91.8,38.7 91.7,38.6 91.3,38.7 C91,38.8 91.4,38.9 91.4,38.9 C91.4,38.9 91.1,38.8 90.9,38.9 C90.8,39 91,39.2 91,39.2 C91,39.2 90.4,39 90.3,39 C90.2,39.1 90.5,39.4 90.5,39.4 C90.5,39.4 90.1,39.5 90,39.8 L90.3,39.9 C90.3,39.9 90.1,40 90.1,40.1 C90,40.3 90.3,40.2 90.3,40.2 C90.3,40.2 89.9,40.5 89.9,40.7 C89.9,40.7 90.2,40.8 90.4,40.6 C90.6,40.4 90.5,40.4 90.5,40.4 L90.5,40.6 C90.5,40.6 90.9,40.4 90.9,40.3 C90.9,40.2 90.8,40.5 90.8,40.5 L91.2,40.3 L91.7,40.4 L91.7,40.4 L91.7,40.4 L91.7,40.4 L91.7,40.4 L91.7,40.4 L91.7,40.4 Z" id="path240" fill="#479951"></path>
        <path d="M91.3,34.4 L91.2,34 C91.2,34 91.7,34 92.2,34.1 L92.4,33.7 C92.4,33.7 92.9,33.9 93,34.1 C93,34.1 93.9,33.9 94.2,34 L94.1,34.4 C94.1,34.4 94.9,34.5 95.2,34.6 C95.5,34.7 95.1,34.9 95.1,34.9 C95.1,34.9 96,35 96.4,35.3 C96.8,35.6 96.8,35.8 96.6,35.8 L97.1,36.6 C97.1,36.6 96.3,36.7 96.1,36.9 C95.9,37.1 95.8,36.7 95.8,36.7 L95.6,37.3 C95.6,37.3 95.1,37 94.9,36.8 C94.9,36.8 94.6,37.1 94.8,37.3 C94.8,37.3 94.1,37.3 93.9,36.7 C93.9,36.7 93.5,36.6 93.5,37 C93.5,37 93,36.5 92.9,36.3 L92.4,36.5 L92.1,36.2 C91.9,36.2 92,36.5 92,36.5 L91.7,36 L91.4,35.6 C91.4,35.6 91.1,36 90.9,36 C90.7,36 90.7,35.7 90.7,35.6 C90.8,35.4 90.1,35.4 90,35.6 C90,35.6 89.8,34.8 90.5,34.6 L91.3,34.4 L91.3,34.4 L91.3,34.4 L91.3,34.4 L91.3,34.4 L91.3,34.4 Z" id="path244" fill="#479951"></path>
        <path d="M87.6,37 L87.3,37.3 L87.1,37.2 L86.7,37.6 L86.6,37.4 L86.4,37.8 L86.1,37.7 L85.9,38 L85.6,37.9 C85.6,37.9 85.3,38.1 85.2,38.2 C85,38.2 85.2,37.8 85.2,37.8 C85.2,37.8 85,38.2 84.8,38.2 C84.6,38.2 84.7,38 84.7,38 C84.7,38 84.6,38.3 84.4,38.3 C84.2,38.3 84.3,38.1 84.3,38.1 L84,38.4 L84,38.2 L83.9,38.1 C83.9,38.1 84,37.7 84.1,37.7 C84.2,37.6 84,37.4 84,37.4 L84.1,37.2 C84.1,37.2 83.7,37.1 83.7,37.2 C83.7,37.2 83.9,36.7 84.2,36.6 L84.2,36 C84.2,36 84.5,35.8 84.7,35.7 C85,35.7 84.6,35.3 84.6,35.3 L85.2,34.9 L85.3,34.5 L86.2,34.6 L86.4,34.2 L87.2,34.4 L87.8,34.1 L88.3,34.6 L89,34.7 L89,35.3 C89,35.3 89.8,35.6 89.9,35.6 C89.9,35.6 89.7,36.1 89.7,36.2 C89.7,36.2 90.3,36 90.5,36.1 C90.5,36.1 90.6,36.6 90.6,36.8 C90.6,36.8 91.6,37.1 91.6,37.3 C91.6,37.3 91.4,37.4 91.3,37.6 C91.3,37.6 91.4,38.2 91.4,38.4 L91.3,38.5 C91.3,38.5 91,38.2 90.8,38.2 L90.6,38.6 L90.3,38.4 L90.1,38.4 C90.1,38.4 89.9,38.2 89.8,38.2 L89.8,38 L89.5,38.2 C89.5,38.2 89.1,38 89.1,37.8 L89.1,37.5 L88.7,37.8 C88.7,37.8 88.6,37.6 88.6,37.5 C88.6,37.4 88.4,37.7 88.4,37.7 C88.4,37.7 88.2,37.3 88.2,37.2 L88.1,37.5 C88.1,37.5 87.6,37.3 87.6,37 L87.6,37 L87.6,37 L87.6,37 L87.6,37 L87.6,37 L87.6,37 Z" id="path248" fill="#479951"></path>
        <path d="M81.4,38.9 C81.4,38.9 82.2,39.3 82.2,39.5 C82.2,39.5 82.4,39.1 82.3,38.9 L82.6,39.1 C82.6,39.1 82.7,38.7 82.6,38.6 C82.5,38.5 83.3,38.2 83.5,38.7 C83.5,38.7 84,38.2 83.1,37.8 C83.1,37.8 83,37.5 83.6,37.6 C83.6,37.6 83.6,37.4 83.4,37.3 L83.9,37.3 C83.9,37.3 83.6,37 83.1,36.9 C82.6,36.8 82.9,36.8 82.9,36.7 L82.9,36.3 C82.9,36.3 82.6,36.2 82.4,36.3 L82.5,36.2 C82.5,36.2 82,36.1 81.8,36.2 C81.8,36.2 81.5,36.1 81.5,35.8 C81.5,35.8 81.2,35.8 81.1,36.1 C81.1,36.1 80.8,36.4 80.5,36.4 C80.4,36.4 80.2,36.2 80.2,36.2 L80,36.7 L79.6,36.7 L79.7,36.9 C79.7,36.9 79.1,36.7 79,36.9 C79,36.9 79.2,37.2 79.2,37.5 C79.2,37.5 78.8,37.6 78.7,37.7 C78.6,37.8 78.9,37.8 78.9,37.8 C78.9,37.8 78.4,38 78.3,38.1 L78.5,38.3 L78,38.6 L78.2,38.6 C78.2,38.6 77.9,38.7 77.7,38.8 C77.5,38.9 78,38.9 78,38.9 L77.8,39.1 L78.2,39.2 C78.2,39.2 77.9,40 77.9,40.4 C77.9,40.4 78.3,39.9 78.5,39.8 L78.2,40.4 C78.2,40.4 78.9,40.2 78.9,40.1 C79,40 79,39.9 79,39.9 L79,40.2 C79,40.2 79.3,39.8 79.3,39.7 C79.3,39.6 79.7,39.8 79.7,39.8 L79.7,39.6 C79.7,39.6 80,39.7 80.2,39.7 C80.3,39.7 80.4,39.6 80.4,39.6 L80.7,39.6 L80.6,39.9 C80.6,39.9 80.8,39.7 80.9,39.6 C80.9,39.4 81.1,39.6 81.1,39.6 L81.3,39 L81.4,38.9 L81.4,38.9 L81.4,38.9 L81.4,38.9 L81.4,38.9 L81.4,38.9 Z" id="path252" fill="#479951"></path>
        <path d="M78.8,41.7 L79.1,42.3 C78.8,42.3 78.5,42.6 78.5,42.6 C78.6,43.7 78.3,43.6 78.3,43.6 C78.4,43.8 78.3,44.2 78.3,44.2 L79.8,43.3 L79.8,43.2 L81.6,42.3 L81.7,42.4 L82.2,42.1 L82.6,43.1 L82.2,43.3 C82.2,43.6 82.6,44.2 82.6,44.2 L83.1,44.1 L83.6,43.9 L83.6,44.1 C83.6,44 84.2,43.8 84.2,43.8 C84.2,43.8 84.2,44.1 84.5,44.1 C84.7,44.1 85,43.6 85,43.6 L85.4,43.8 C85.4,43.8 85.5,43.6 85.5,43.4 C85.5,43.2 86,43.2 86,43.2 L86.3,43.5 L86.7,43.1 C86.7,43.1 86.8,43.4 87,43.4 C87.2,43.4 87.7,43.8 87.7,43.7 C87.7,43.6 87.9,43.2 87.9,43.2 L88.7,43.5 C88.6,43.1 88.3,42.7 88.3,42.7 C88.3,42.7 88.7,42.4 88.6,42.3 C88.5,42.2 88.3,42.3 88.3,42.3 L88.5,41.8 L88.2,41.8 L88.3,41.7 L87.8,41.5 L88.1,41 C88,40.9 86.7,40.6 86.7,40.6 L87,40.3 C87,40.3 86.8,40.1 86.7,40.1 C86.5,40.1 85.7,40.1 85.7,40 C85.7,39.9 85.4,39.6 85.4,39.6 L84.9,40 L84.6,39.9 L84.2,40.1 C84.2,40.1 84.2,40.4 84.1,40.2 C84,40 83.6,39.6 83.6,39.6 C83.5,39.7 83,40.4 83,40.4 C83,40.4 82.9,40.7 82.7,40.5 C82.5,40.3 82.1,40 82,40.2 C81.9,40.4 81.6,40.6 81.5,40.6 C81.4,40.5 81,40.6 81,40.7 C81,40.8 80.5,41.2 80.5,41.2 C80.2,41.1 79.7,41.1 79.7,41.1 C79.7,41.1 79.6,41.3 79.5,41.5 L78.8,41.7 L78.8,41.7 L78.8,41.7 L78.8,41.7 L78.8,41.7 L78.8,41.7 L78.8,41.7 L78.8,41.7 Z" id="path256" fill="#479951"></path>
        <path d="M87.5,49.6 L87.5,49.2 L88,49.5 L88.3,49.2 L88.6,49.6 L88.8,49.2 L88.8,49.8 L89.3,49.3 L89.6,49.4 L89.6,49 C89.6,49 90,48.4 89.8,48.3 L90.1,48.2 C90.1,48.2 89.6,47.7 89.4,47.6 C89.2,47.5 89,47.5 89,47.5 C89,47.5 88.6,47.1 88.3,47 C88.2,46.8 88,47 88,47 C88,47 87.8,46.7 87.6,46.6 C87.3,46.5 87.3,46.8 87.3,46.8 C87.3,46.8 87.1,46.6 86.9,46.5 C86.6,46.4 86.8,46.7 86.8,46.7 L85.9,46.4 L86,46.7 L85.2,46.5 L85.3,46.8 L84.7,46.7 L84.7,47 L83.9,47.2 L84.1,47.5 L83.6,47.3 L83.6,47.7 L83,47.9 L83.2,48.1 C83.2,48.1 82.4,48.5 82.3,48.6 C82.1,48.7 82.6,48.9 82.6,48.9 L81.8,48.8 L82,49 L81.3,49.7 L81.8,50.1 L81.5,50.6 L82.3,50.8 L82.6,51.3 L83.2,51.2 L83.2,51.8 L84.1,51.1 C84.1,51.1 84.8,51.7 84.8,51.5 L84.8,50.8 L85.1,50.8 L85.1,50.3 L85.4,50.5 L85.8,49.9 L86.4,50.7 L86.8,49.7 L87.5,49.6 L87.5,49.6 L87.5,49.6 L87.5,49.6 L87.5,49.6 L87.5,49.6 Z" id="path260" fill="#479951"></path>
        <path d="M91.3,47.2 L91.2,46.3 L90.9,46.6 L91,45.8 L90.6,45.7 L90.8,44.9 L90.5,44.7 L90.6,44.3 L90.9,44.1 L91.5,43.6 L92.8,43.6 L93,43.2 C93,43.2 93.8,43.2 93.9,43.4 C94.1,43.6 94.5,43 94.5,43 L94.7,43 L94.9,43.4 C94.9,43.4 95.6,43.3 95.9,43.5 L95.4,44 L96.1,44.1 L96.6,44.2 L97,44 L97.6,44 L97.8,44.3 L98.4,44.3 L98.2,44.5 L99,44.9 L98.8,45.1 C98.8,45.1 99.2,45.3 99.5,45.3 L99.7,45.3 C99.7,45.3 99.9,45.7 99.6,45.8 C99.6,45.8 99.8,46.3 100.3,46.4 C100.8,46.5 100.8,46.5 100.8,46.6 C100.9,46.7 100.8,47.2 100.3,47.2 L100.3,47.7 C100.3,47.7 99.9,48.1 99.8,48.2 L99.5,48 C99.5,48 99.2,48.3 99.2,48.5 C99.2,48.5 98.5,47.6 98.3,47.6 C98,47.5 98.1,48 98.1,48 L97.4,47.4 L97.3,47.8 L96.7,47.3 L96.3,47.6 L95.6,46.9 L95,46.9 L95.3,46.6 L94.5,46.6 L94.3,45.9 L94.2,46.5 L93.7,46.2 L93.1,46.9 C93.1,46.9 93,46.8 92.9,46.5 C92.8,46.2 92.5,46.9 92.5,46.9 L92.3,46.4 L92,46.9 C92,46.9 91.8,46.5 91.6,46.4 C91.5,46.2 91.3,46.9 91.3,47.2 L91.3,47.2 L91.3,47.2 L91.3,47.2 L91.3,47.2 L91.3,47.2 Z" id="path264" fill="#479951"></path>
        <path d="M91.4,49.3 L91.4,49 L92.5,48.6 L93.4,48.2 L93.9,48 L94.1,48.4 L94.4,47.9 L94.8,48.4 L95,48.1 L95.4,48.4 L95.7,48.4 L95.8,48.8 C95.8,48.8 96.6,48.9 96.6,48.7 C96.7,48.5 96.8,49.2 96.8,49.2 L97.5,49.3 L97.7,50.1 C97.7,50.1 98.1,50.9 98,51.2 C97.9,51.5 97.6,50.8 97.6,50.8 C97.6,50.8 97.5,51.4 97.5,51.5 C97.5,51.7 96.5,51.3 96.5,51.3 L96,52.2 C96,52.2 95.6,51.6 95.4,51.6 C95.2,51.6 95.2,52.2 95.2,52.2 C95.2,52.2 94.6,51.5 94.3,51.1 C94,50.8 94,51.4 94,51.4 C94,51.4 93.6,50.7 93.6,50.5 C93.6,50.3 93.2,50.1 93.2,50.1 C93.2,50.1 92.6,50.8 92.1,51 C92.1,51 92.2,50.5 92,50.4 C91.8,50.2 91.4,50.7 91.4,50.7 C91.4,50.7 91,50 91.4,49.3 L91.4,49.3 L91.4,49.3 L91.4,49.3 L91.4,49.3 L91.4,49.3 Z" id="path268" fill="#479951"></path>
        <path d="M96.5,37.7 L96.6,38.1 C96.6,38.1 96.9,38 97.2,38 C97.2,38 97.1,38.3 97.1,38.4 C97.1,38.4 97.6,38.3 97.8,38.5 L97.7,38.7 C97.7,38.7 98,38.7 98.2,38.9 L97.7,39.3 C97.7,39.3 98.5,39.6 98.7,39.8 C98.7,39.8 98.2,40.2 98.1,40.2 C98,40.2 98.1,40.4 98.2,40.5 L97.8,40.5 C97.8,40.5 98,40.9 98,41.1 C98,41.3 97.3,41.2 97.3,41.2" id="path270"></path>
        <path d="M99.9,40.2 C99.9,40.2 100,39.4 99.8,39.2 C99.8,39.2 100.3,39.6 100.6,39.6 C100.9,39.6 100.6,39 100.6,39 C100.6,39 101.1,39.3 101.3,39.3 C101.5,39.3 101.1,38.8 101.1,38.8 C101.1,38.8 101.2,38.5 101.6,38.8" id="path272"></path>
        <path d="M92.7,35.7 C92.7,35.7 92.7,35.5 92.6,35.4 C92.1,34.8 93.1,35.9 93.3,35.9" id="path274"></path>
        <path d="M94.2,36 C94.2,36 94.5,36.2 94.7,36.2 C94.9,36.2 94.6,35.6 94.5,35.5 C94.4,35.4 95.1,35.8 95.3,35.8 C95.5,35.9 95.6,35.4 95.6,35.4 C95.6,35.4 96.3,35.5 96.5,35.6" id="path276"></path>
        <path d="M91.5,35.5 C91.5,35.5 91.4,35.1 91.4,34.9" id="path278"></path>
        <path d="M85.2,37.8 C85.2,37.8 85.4,37.4 85.2,37.1" id="path282"></path>
        <path d="M80.5,39.1 C80.5,38.9 80.6,38.4 80.5,38.3 C80.4,38.2 80.7,38.4 80.9,38.4" id="path284"></path>
        <path d="M82.8,38.4 C82.5,38.1 82.4,38 82,38" id="path286"></path>
        <path d="M78.9,39.7 C79,39.6 79.1,39.2 79,39" id="path288"></path>
        <polyline id="path292" points="83.9 49.3 84.2 48.8 84.5 49.5 84.7 49 84.8 49.2 85.3 48.7 85.8 49.5"></polyline>
        <path d="M93.7,46.2 L94,45.5 L94.4,45.7 L94.6,45.1 L95.1,45.4 L95.4,44.8 L96,45 L96,44.6 C96,44.6 96.4,44.8 96.5,45 C96.6,45.2 96.5,44.5 96.5,44.5 L96.9,44.7 C96.9,44.7 97.2,44.4 96.8,44.2" id="path294"></path>
        <polyline id="path296" points="95 45.4 95.5 46.1 95.9 45.7 96.2 46.5 96.6 46.2 97.2 46.6 97.5 46.4 98.2 46.9 98.5 46.3 99.1 46.5 99.5 45.8"></polyline>
        <path d="M68.5,50.5 L82.5,43.2 C82.6,42.8 82.4,42.5 82.1,42.2 C78.1,44.2 74.4,46.6 70,48.1 C69.7,48.2 67.5,49.1 66.4,50.5 C66,50.8 66,51.4 66,51.4 C66,51.4 66,52 66.2,52.2 C66.2,52.2 66.2,52.4 66.4,52.5 C66.4,52.5 66.5,52.6 66.6,52.5 C66.7,52.5 66.9,52.5 67.1,52.1 C67.4,51.7 68.1,50.8 68.5,50.5 L68.5,50.5 L68.5,50.5 L68.5,50.5 L68.5,50.5 L68.5,50.5 Z" id="path416" fill="#730000"></path>
        <path d="M79.7,43.2 L81.5,42.3 C81.5,42.3 82.1,42.8 82.1,43.3 C82.1,43.3 82.2,44.5 83.7,45.3 C83.7,45.3 82.4,46.9 80.2,47 C80.2,47 80.4,44.8 79.9,44.2 C80.3,44.2 79.9,43.5 79.7,43.2" id="path418" fill="#FFFFFF"></path>
        <path d="M79.7,43.2 L81.5,42.3 C81.5,42.3 82.1,42.8 82.1,43.3 C82.1,43.3 82.2,44.5 83.7,45.3 C83.7,45.3 82.4,46.9 80.2,47 C80.2,47 80.5,44.9 80,44.3 C80,44.3 79.9,44.4 80,44.3 C80.1,44.1 80,43.4 79.7,43.2 C79.7,43.3 79.7,43.3 79.7,43.2 L79.7,43.2 L79.7,43.2 L79.7,43.2 L79.7,43.2 L79.7,43.2 Z" id="path420"></path>
        <path d="M81.9,43.5 L80.3,44.3" id="path422"></path>
        <path d="M81.3,43.9 C81.3,44.1 81.2,44.6 81.3,44.9" id="path424"></path>
        <path d="M81.1,43.9 C81.1,44 80.9,44.3 81.1,44.8" id="path426"></path>
        <path d="M80.9,44 C80.9,44.2 80.8,44.3 80.9,44.5" id="path428"></path>
        <path d="M80.8,44.1 L80.8,44.4" id="path430"></path>
        <path d="M81.9,44.1 C82,44.3 82.5,45.1 82.8,45.4" id="path432"></path>
        <path d="M82,44.5 C82.1,44.7 82.3,45.2 82.6,45.4" id="path434"></path>
        <path d="M81.9,44.8 C82,45 82.1,45.3 82.3,45.5" id="path436"></path>
        <path d="M81.9,45.2 C81.9,45.4 82,45.6 82.1,45.7" id="path438"></path>
        <path d="M74.7,42.3 C74.6,42.9 74.6,43.5 74.6,44.1 C74.6,44.5 74.8,45 75,45.4 C75.1,45.7 75.3,46 75.5,46.1 C76.2,46.5 76.8,46.1 77.2,45.9 C77.4,45.8 77.6,45.6 77.7,45.4 C77.8,45.2 77.8,45 77.9,44.5 C77.9,44.5 78.1,44.4 78,44.4 C78.2,44.1 78.1,44 78.2,43.8 C78.3,43.6 78.1,43.4 77.9,43.4 C78,43 78.1,42.6 78,42.3 C78,42.2 78.1,41.9 77.9,41.9 C77,42.4 76,42.3 75,42.3 C75,42.3 74.9,42.1 74.7,42.3 C74.8,42.2 74.8,42.2 74.7,42.3" id="path440" fill="url(#radialGradient-1)"></path>
        <path d="M74.7,42.6 C74.6,42.5 74.6,42.3 74.7,42 C74.8,41.6 74.7,41.6 74.9,41.4 C75.1,41.2 75.1,41.1 75.2,41 C75.3,41 75.7,41 75.9,40.9 C76,40.8 76.2,40.8 76.5,40.7 C76.8,40.6 77.4,40.7 77.6,40.8 C77.9,41 78.1,41.3 78.3,41.5 C78.5,41.6 78.6,42.2 78.6,43 C78.5,43.8 78.4,43.7 78.4,43.7 C78.4,43.7 78.2,43.3 78,43.6 L78,43.1 C78,42.9 77.9,42.4 78,42.1 C78,42.1 76.9,42.5 76.3,42.4 C75.7,42.4 74.9,42.2 74.9,42.1 L74.7,42.6" id="path444" fill="#000000"></path>
        <path d="M78,44.5 C78,44.6 77.9,44.5 77.9,44.6 C77.8,45 77.8,45.2 77.7,45.5 C77.6,45.8 77.1,46 77.1,46 C76.7,46.1 76.3,46.6 75.5,46.2 L75.4,46.1 C75.4,46.1 75.6,46.9 74.8,47.3 C74.5,47.4 71.8,48.9 71.8,48.9 C71.8,48.9 71.5,49.4 71.7,50.1 C71.7,50.2 71.8,50.3 71.6,50.4 C71.4,50.5 71.1,50.9 70.9,51.5 C70.9,51.5 70.3,51.2 70.3,50.9 C70.3,50.5 70.5,50.3 70.6,50.1 C70.7,49.8 70.8,49.2 70.7,49 C70.6,48.8 70.3,48.7 70.1,48.6 C70,48.5 69.8,48.7 69.8,48.9 C69.8,49.1 70,49.1 70.1,49.1 C70.1,49.1 69.9,49.5 69.9,49.7 L68.1,50.6 C68.1,50.6 68.3,50.9 68.4,51 C68.5,51.1 68.7,52.9 69.2,53.8 C69.7,54.7 69.9,54.4 70,54.5 C70.1,54.6 70.3,54.8 70.4,54.9 C70.5,55 71.1,55.1 71.2,54.7 C71.3,54.4 71.4,54.2 71.8,53.9 C72.2,53.6 72.9,52.9 72.9,52.5 C72.9,52.5 73.3,53.8 73.3,54.9 C73.3,54.9 74.9,55.2 76.4,55.3 C77.8,55.3 78.6,55 78.6,55 C78.6,55 78.8,53.8 78.7,53.5 C78.7,53.5 78.9,54.3 79.1,54.6 C79.3,54.9 79.5,55.6 79.9,55.7 C80.3,55.7 80.7,55.3 80.7,55.1 L80.7,53.8 L82.3,53.8 C82.3,53.8 83,54.1 83.3,54 C83.5,54 83.7,53.8 83.5,53.7 L83.4,53.6 C83.6,53.6 83.9,53.7 83.9,53.7 L85,53.7 L85,53.6 C84.9,53.4 84.5,53.2 84.2,53 C83.9,52.9 83.5,52.7 83.3,52.7 C82.9,52.7 82.7,52.7 82.1,52.8 C81.9,52.8 81.4,52.9 81,53.1 C80.9,53.2 80.8,53.2 80.8,52.9 C80.9,52.6 80.8,51.4 80.5,50.9 C80.3,50.5 80.3,50.2 80.3,49.9 L80.3,48.2 C80.2,47.9 79.8,47.5 79,47.4 C78.3,47.3 77.7,46.7 77.6,46.2 C77.8,45.7 77.9,44.8 78,44.5" id="path452" fill="url(#radialGradient-2)"></path>
        <path d="M84.9,53.7 C84.8,53.6 84.7,53.5 84.6,53.4 C84.5,53.3 84.3,53.3 84.2,53.2 C84.1,53.1 83.9,53.1 83.8,53" id="path456"></path>
        <path d="M83.8,53.6 C83.7,53.6 83.7,53.5 83.6,53.5 L83.4,53.5 L83.4,53.5 C83.2,53.5 83.1,53.4 82.9,53.2" id="path458"></path>
        <path d="M81.1,53.1 C80.7,53.2 80.5,53.4 80.6,53.3 C80.4,53.5 80.2,53.6 80.2,53.6" id="path502"></path>
        <path d="M77.7,44.4 C77.7,44.5 77.8,44.5 77.9,44.5" id="path506"></path>
        <path d="M77.9,43.7 C78,43.6 78.1,43.6 78.1,43.9" id="path508"></path>
        <path d="M67.8,49.2 C67.7,49.3 67.6,48.8 67.9,48.6 C67.9,48.6 68,48.2 68.3,48.2 C68.3,48.2 68.6,47.8 68.9,47.9 C68.9,47.9 69.3,47.6 69.5,47.6 C69.7,47.6 70,48 70.1,48.1 C70.1,48.2 70.1,48.5 70,48.6 C69.9,48.7 69.8,48.6 69.8,48.4 C69.8,48.4 69.9,48.7 69.6,48.8 C69.4,48.9 69.4,48.8 69.4,48.7 C69.4,48.7 69.3,49 69.2,49.1 C69,49.2 68.9,49 68.8,49 C68.8,49 69,49.2 68.9,49.3 C68.8,49.4 68.6,49.4 68.5,49.3 C68.3,49.2 68.2,49 67.8,49.2" id="path544" fill="#FFB366"></path>
        <path d="M72.5,58.8 C72.7,57.3 73.4,56 73.5,55.9 C73.5,55.9 74.2,56.1 75.5,56.2 C76.8,56.3 77.1,56.3 77.7,56.2 C78.3,56.1 79,56 79,56 C79,56 79.2,56.5 79.3,56.9 C79.4,57.9 79.7,62.2 79.8,63.3 C79.8,63.3 80,64 80,65.7 C80,67.5 80.5,71.3 80.5,73.2 L80,73.3 C80,73.3 77.3,73.5 77.3,73.1 C77.3,72.7 77.1,67.9 77.6,65 C77.6,65 77.5,64.4 77.3,63.9 C77.1,63.4 76.5,62 76.5,61.7 C76.5,61.7 75.4,64.8 75.4,65.3 C75.3,65.8 75.2,72.6 75.1,73.2 C75.1,73.2 73.5,74.4 73.3,74.5 C73.1,74.6 71.6,73.9 71.5,73.7 C71.4,73.5 71.7,71.2 72.4,67.3 C72.7,65.9 72.5,65.7 72.5,65.3 C72.2,65.2 72.3,60.3 72.5,58.8" id="path554" fill="#FFFFFF"></path>
        <path d="M72.5,58.8 C72.7,57.3 73.4,56 73.5,55.9 C73.5,55.9 74.2,56.1 75.5,56.2 C76.8,56.3 77.1,56.3 77.7,56.2 C78.3,56.1 79,56 79,56 C79,56 79.2,56.5 79.3,56.9 C79.4,57.9 79.7,62.2 79.8,63.3 C79.8,63.3 80,64 80,65.7 C80,67.5 80.5,71.3 80.5,73.2 L80,73.3 C80,73.3 77.3,73.5 77.3,73.1 C77.3,72.7 77.1,67.9 77.6,65 C77.6,65 77.5,64.4 77.3,63.9 C77.1,63.4 76.5,62 76.5,61.7 C76.5,61.7 75.4,64.8 75.4,65.3 C75.3,65.8 75.2,72.6 75.1,73.2 C75.1,73.2 73.5,74.4 73.3,74.5 C73.1,74.6 71.6,73.9 71.5,73.7 C71.4,73.5 71.7,71.2 72.4,67.3 C72.7,65.9 72.5,65.7 72.5,65.3 C72.2,65.2 72.3,60.3 72.5,58.8 L72.5,58.8 L72.5,58.8 L72.5,58.8 L72.5,58.8 L72.5,58.8 Z" id="path556"></path>
        <path d="M73.3,55.8 C73.3,55.8 73.3,55.2 73.5,54.9 C73.5,54.9 74.2,55 75.1,55.1 C76,55.2 76.8,55.3 77.5,55.2 C78.2,55.1 78.9,54.9 78.9,54.9 C78.9,54.9 79.1,55.8 79,56 C79,56 78.2,56.2 77.4,56.2 C76.6,56.3 75.1,56.1 74.7,56 C74.1,56 73.5,55.9 73.3,55.8" id="path586" fill="#9B5F00"></path>
        <path d="M73.3,55.8 C73.3,55.8 73.3,55.2 73.5,54.9 C73.5,54.9 74.2,55 75.1,55.1 C76,55.2 76.8,55.3 77.5,55.2 C78.2,55.1 78.9,54.9 78.9,54.9 C78.9,54.9 79.1,55.8 79,56 C79,56 78.2,56.2 77.4,56.2 C76.6,56.3 75.1,56.1 74.7,56 C74.1,56 73.5,55.9 73.3,55.8 L73.3,55.8 L73.3,55.8 L73.3,55.8 L73.3,55.8 L73.3,55.8 Z" id="path588"></path>
        <polyline id="path590" fill="#FFFFFF" points="73.9 55.9 74 55 74.2 55 74.2 56 73.9 55.9"></polyline>
        <polyline id="path592" points="73.9 55.9 74 55 74.2 55 74.2 56 73.9 55.9"></polyline>
        <polyline id="path594" fill="#FFFFFF" points="78.1 55.1 78.1 56.2 78.3 56.2 78.3 55.1 78.1 55.1"></polyline>
        <polyline id="path596" points="78.1 55.1 78.1 56.2 78.3 56.2 78.3 55.1 78.1 55.1"></polyline>
        <polyline id="path598" fill="#FFFFFF" points="75.1 55.1 75 56.1 75.1 56.1 75.2 55.1 75.1 55.1"></polyline>
        <polyline id="path600" points="75.1 55.1 75 56.1 75.1 56.1 75.2 55.1 75.1 55.1"></polyline>
        <path d="M71.8,74.3 C71.7,74.6 71.6,74.9 71.6,75.4 C71.6,75.5 71.5,76 71.8,76 C72,76 72.1,75.5 72.1,75.5 C72.1,75.5 71.9,76.1 72.2,76.2 C72.5,76.3 72.6,75.5 72.6,75.5 C72.6,75.7 72.3,76.3 72.7,76.3 C73,76.4 73.1,75.6 73.1,75.6 C73.1,75.6 72.8,76.4 73.2,76.4 C73.5,76.4 73.5,75.6 73.5,75.6 C73.5,75.6 73.3,76.6 73.8,76.5 C74.1,76.5 74.1,76.1 74.2,75.9 C74.3,75.6 74.5,75.2 74.2,74.6 C73.9,74.1 74,74 74,74 C74,74 73.5,74.4 73,74.7 C72.8,74.8 71.8,74.3 71.8,74.3" id="path602" fill="#FFA54B"></path>
        <path d="M71.8,74.3 C71.7,74.6 71.6,74.9 71.6,75.4 C71.6,75.5 71.5,76 71.8,76 C72,76 72.1,75.5 72.1,75.5 C72.1,75.5 71.9,76.1 72.2,76.2 C72.5,76.3 72.6,75.5 72.6,75.5 C72.6,75.7 72.3,76.3 72.7,76.3 C73,76.4 73.1,75.6 73.1,75.6 C73.1,75.6 72.8,76.4 73.2,76.4 C73.5,76.4 73.5,75.6 73.5,75.6 C73.5,75.6 73.3,76.6 73.8,76.5 C74.1,76.5 74.1,76.1 74.2,75.9 C74.3,75.6 74.5,75.2 74.2,74.6 C73.9,74.1 74,74 74,74 C74,74 73.5,74.4 73,74.7 C72.8,74.8 71.8,74.3 71.8,74.3 L71.8,74.3 L71.8,74.3 L71.8,74.3 L71.8,74.3 L71.8,74.3 Z" id="path604"></path>
        <path d="M77.4,73.4 C77.3,73.3 77.3,73.8 77.3,73.9 C77.3,74.1 77.3,74.5 78,74.5 C78.6,74.4 79.3,74.3 79.7,74.4 C80.1,74.5 80.7,74.5 81,74.5 C81.3,74.5 81.5,74.5 81.7,74.4 C81.8,74.3 82.1,74.5 82.3,74.5 C82.4,74.5 82.6,74.3 82.6,74.1 C82.6,73.8 82.3,73.8 82,73.8 C81.7,73.8 81.3,73.7 81.1,73.6 C80.9,73.5 80.5,73.3 80,73.2 L78.9,73.2 C78.7,73.4 77.5,73.5 77.4,73.4" id="path606" fill="#FFA54B"></path>
        <path d="M77.4,73.4 C77.3,73.3 77.3,73.8 77.3,73.9 C77.3,74.1 77.3,74.5 78,74.5 C78.6,74.4 79.3,74.3 79.7,74.4 C80.1,74.5 80.7,74.5 81,74.5 C81.3,74.5 81.5,74.5 81.7,74.4 C81.8,74.3 82.1,74.5 82.3,74.5 C82.4,74.5 82.6,74.3 82.6,74.1 C82.6,73.8 82.3,73.8 82,73.8 C81.7,73.8 81.3,73.7 81.1,73.6 C80.9,73.5 80.5,73.3 80,73.2 L78.9,73.2 C78.7,73.4 77.5,73.5 77.4,73.4 C77.4,73.4 77.5,73.5 77.4,73.4 L77.4,73.4 L77.4,73.4 L77.4,73.4 L77.4,73.4 L77.4,73.4 Z" id="path608"></path>
        <path d="M94.8,42.4 L100,45 C101,45.5 101.4,45 102,45.3 L112.2,50.5 C113.1,50.9 113.6,51 113.4,51.5 C113.4,52.2 113.7,52.2 113.8,52.2 C113.9,52.2 114.2,52.2 114.4,52 L114.5,51.9 C114.6,51.8 114.6,51.8 114.6,51.7 C115,51.1 115.3,50.5 114.8,50.2 C114.3,50 114.2,50.5 113.7,50.4 C113.7,50.4 112.7,50 112.4,49.8 C111.8,49.4 110.9,49 110.7,48.8 C110.1,48.7 105.2,45.9 102.4,44.5 C102.1,44.2 101.9,43.3 101.4,43 C101.2,42.7 97.5,41 95.5,40 C94.8,39.7 94.4,39.5 93.9,40.4 C93.3,41.3 93.4,41.8 94.8,42.4 C94.8,42.4 93.4,41.8 94.8,42.4 L94.8,42.4 L94.8,42.4 L94.8,42.4 L94.8,42.4 L94.8,42.4 Z" id="path612" fill="#B34B00"></path>
        <path d="M95.2,41.3 L101,44.2" id="path614"></path>
        <path d="M105.8,42.3 C106,42.9 106,43.1 106,43.3 C106,43.5 105.9,43.6 106,43.8 C106.1,44.3 105.9,44.8 105.5,45.3 C105.3,45.6 105.2,45.9 105,46 C104.4,46.4 103.6,45.9 103.2,45.7 C103,45.6 102.9,45.4 102.8,45.3 C102.7,45.1 102.7,44.9 102.6,44.5 C102.6,44.4 102.6,44.3 102.5,44.3 C102.3,44 102.3,43.9 102.2,43.7 C102.1,43.5 102.4,43.3 102.6,43.3 C102.5,42.9 102.4,42.5 102.5,42.2 C102.5,42.1 102.4,41.8 102.6,41.8 C103.5,42.2 104.5,42.1 105.4,42.1 C105.6,42.3 105.6,42.1 105.8,42.3 C105.8,42.2 105.8,42.2 105.8,42.3" id="path616" fill="url(#radialGradient-3)"></path>
        <path d="M87.6,57.1 C87.3,56.9 86.8,56.6 86.4,56.4 L86.2,56.8 C86.3,57 88.2,57.8 88.5,58 C88.5,57.9 88.2,57.5 87.6,57.1 C87.6,57.1 88.2,57.5 87.6,57.1 L87.6,57.1 L87.6,57.1 L87.6,57.1 L87.6,57.1 L87.6,57.1 Z" id="path4826" fill="#CCB8C8"></path>
        <path d="M105.9,42.6 C106,42.5 105.9,42.2 105.8,41.8 C105.8,41.6 105.6,41.5 105.4,41.3 C105.2,41.1 105.1,41.1 105,41 C104.9,41 104.6,41 104.5,40.9 C104.4,40.8 104.1,40.9 103.8,40.9 C103.4,41 103.2,40.9 102.9,41.1 C102.6,41.3 102.4,41.4 102.3,41.7 C102.2,41.9 102.1,42.2 102.1,43 C102.1,43.8 102.3,43.7 102.3,43.7 C102.3,43.7 102.5,43.4 102.6,43.6 C102.6,43.6 102.6,43.2 102.5,42.9 C102.5,42.7 102.5,42.4 102.6,42 C102.6,42 103.5,42.3 104.3,42.3 C104.9,42.3 105.6,42.2 105.6,42.1 L105.9,42.6" id="path620" fill="#000000"></path>
        <path d="M102.5,44.5 C102.6,44.4 102.6,44.6 102.6,44.7 C102.7,45 102.7,45.2 102.8,45.5 C102.9,45.7 103,45.8 103.1,45.9 C103.4,46.1 104.3,46.6 105,46.2 L105.1,46.1 C105.1,46.1 104.9,46.9 105.7,47.3 C106,47.4 108.7,48.9 108.7,48.9 C108.7,48.9 109,49.4 108.8,50.1 C108.8,50.2 108.7,50.3 108.8,50.4 C109,50.5 109.3,50.9 109.5,51.5 C109.5,51.5 110.1,51.2 110.1,50.9 C110.1,50.5 109.9,50.3 109.8,50.1 C109.8,49.8 109.6,49.2 109.7,49 C109.8,48.8 110.1,48.7 110.2,48.6 C110.3,48.5 110.5,48.7 110.5,48.9 C110.5,49.1 110.3,49.1 110.2,49.1 C110.2,49.1 110.4,49.5 110.4,49.7 L112.2,50.6 C112.2,50.6 112,50.9 111.9,51 C111.8,51.1 111.6,52.9 111.1,53.8 C110.6,54.7 110.4,54.4 110.3,54.5 C110.2,54.6 110,54.8 109.9,54.9 C109.8,55 109.2,55.1 109.1,54.7 C109,54.4 108.9,54.2 108.5,53.9 C108.1,53.6 107.4,52.9 107.4,52.5 C107.4,52.5 107,53.8 107,54.9 C107,54.9 105.4,55.2 103.9,55.3 C102.5,55.3 101.7,55 101.7,55 C101.7,55 101.5,53.8 101.6,53.5 C101.6,53.5 101.4,54.3 101.2,54.6 C101,54.9 100.8,55.6 100.4,55.7 C100,55.7 99.6,55.3 99.6,55.1 L99.6,53.8 L98,53.8 C98,53.8 97.3,54.1 97,54 C96.8,54 96.7,53.8 96.8,53.7 L96.9,53.6 C96.7,53.6 96.4,53.7 96.4,53.7 L95.6,53.7 L95.6,53.6 C95.7,53.4 96.1,53.2 96.4,53 C96.7,52.9 97,52.7 97.3,52.7 C97.7,52.7 97.9,52.7 98.5,52.8 C98.7,52.8 99.3,52.9 99.6,53.1 C99.7,53.2 99.8,53.2 99.8,52.9 C99.7,52.6 99.6,51.8 99.9,51.3 C100.1,50.9 100.1,50.6 100.1,50.3 C100.1,50 99.9,49.2 99.9,48.9 C99.9,47.8 100.7,47.4 101.5,47.1 C102.3,46.8 102.8,46.6 102.8,46.1 C102.5,45.7 102.6,44.8 102.5,44.5" id="path624" fill="url(#radialGradient-4)"></path>
        <path d="M95.7,53.7 C95.8,53.6 95.9,53.5 96,53.4 C96.1,53.3 96.3,53.3 96.4,53.2 C96.5,53.1 96.7,53.1 96.8,53" id="path628"></path>
        <path d="M96.8,53.6 C96.9,53.6 96.9,53.5 97,53.5 L97.2,53.5 L97.2,53.5 C97.4,53.5 97.5,53.4 97.7,53.2" id="path630"></path>
        <path d="M102.8,44.3 C102.8,44.5 102.7,44.4 102.6,44.4" id="path678"></path>
        <path d="M108,58.8 C107.8,57.3 107.1,56 107,55.9 C107,55.9 106.3,56.1 105,56.2 C103.7,56.3 103.4,56.3 102.8,56.2 C102.2,56.1 101.5,56 101.5,56 C101.5,56 101.3,56.5 101.2,56.9 C101.1,57.9 100.8,62.2 100.7,63.3 C100.7,63.3 100.5,64 100.5,65.7 C100.5,67.5 100,71.3 100,73.2 L100.5,73.3 C100.5,73.3 103.2,73.5 103.2,73.1 C103.2,72.7 103.4,67.9 102.9,65 C102.9,65 103,64.4 103.2,63.9 C103.4,63.4 104,62 104,61.7 C104,61.7 105.1,64.8 105.1,65.3 C105.2,65.8 105.3,72.6 105.4,73.2 C105.4,73.2 106.9,74.4 107.2,74.5 C107.4,74.6 108.9,73.9 109,73.7 C109.1,73.5 108.8,71.2 108.1,67.3 C107.8,65.9 108,65.7 108,65.3 C108.3,65.2 108.3,60.3 108,58.8" id="path714" fill="#FFFFFF"></path>
        <path d="M108,58.8 C107.8,57.3 107.1,56 107,55.9 C107,55.9 106.3,56.1 105,56.2 C103.7,56.3 103.4,56.3 102.8,56.2 C102.2,56.1 101.5,56 101.5,56 C101.5,56 101.3,56.5 101.2,56.9 C101.1,57.9 100.8,62.2 100.7,63.3 C100.7,63.3 100.5,64 100.5,65.7 C100.5,67.5 100,71.3 100,73.2 L100.5,73.3 C100.5,73.3 103.2,73.5 103.2,73.1 C103.2,72.7 103.4,67.9 102.9,65 C102.9,65 103,64.4 103.2,63.9 C103.4,63.4 104,62 104,61.7 C104,61.7 105.1,64.8 105.1,65.3 C105.2,65.8 105.3,72.6 105.4,73.2 C105.4,73.2 106.9,74.4 107.2,74.5 C107.4,74.6 108.9,73.9 109,73.7 C109.1,73.5 108.8,71.2 108.1,67.3 C107.8,65.9 108,65.7 108,65.3 C108.3,65.2 108.3,60.3 108,58.8 L108,58.8 L108,58.8 L108,58.8 L108,58.8 L108,58.8 Z" id="path716"></path>
        <path d="M107.2,55.8 C107.2,55.8 107.2,55.2 107,54.9 C107,54.9 106.3,55 105.4,55.1 C104.5,55.2 103.7,55.3 103,55.2 C102.3,55.1 101.6,54.9 101.6,54.9 C101.6,54.9 101.4,55.8 101.5,56 C101.5,56 102.3,56.2 103.1,56.2 C103.9,56.3 105.4,56.1 105.9,56 C106.5,56 107,55.9 107.2,55.8" id="path746" fill="#9B5F00"></path>
        <path d="M107.2,55.8 C107.2,55.8 107.2,55.2 107,54.9 C107,54.9 106.3,55 105.4,55.1 C104.5,55.2 103.7,55.3 103,55.2 C102.3,55.1 101.6,54.9 101.6,54.9 C101.6,54.9 101.4,55.8 101.5,56 C101.5,56 102.3,56.2 103.1,56.2 C103.9,56.3 105.4,56.1 105.9,56 C106.5,56 107,55.9 107.2,55.8 L107.2,55.8 L107.2,55.8 L107.2,55.8 L107.2,55.8 L107.2,55.8 Z" id="path748"></path>
        <polyline id="path750" fill="#FFFFFF" points="106.6 55.9 106.5 55 106.3 55 106.4 56 106.6 55.9"></polyline>
        <polyline id="path754" fill="#FFFFFF" points="102.5 55.1 102.5 56.2 102.3 56.2 102.3 55.1 102.5 55.1"></polyline>
        <polyline id="path756" points="102.5 55.1 102.5 56.2 102.3 56.2 102.3 55.1 102.5 55.1"></polyline>
        <polyline id="path758" fill="#FFFFFF" points="105.4 55.1 105.5 56.1 105.4 56.1 105.3 55.1 105.4 55.1"></polyline>
        <path d="M108.8,74.3 C108.8,74.6 109,74.9 109,75.4 C109,75.5 109.1,76 108.8,76 C108.6,76 108.5,75.5 108.5,75.5 C108.5,75.5 108.7,76.1 108.4,76.2 C108.1,76.3 108,75.5 108,75.5 C108.1,75.7 108.3,76.3 107.9,76.3 C107.6,76.4 107.5,75.6 107.5,75.6 C107.5,75.6 107.8,76.4 107.5,76.4 C107.2,76.4 107.2,75.6 107.2,75.6 C107.2,75.6 107.4,76.6 106.9,76.5 C106.6,76.5 106.6,76.1 106.6,75.9 C106.5,75.6 106.3,75.2 106.5,74.6 C106.7,74.2 106.6,74 106.6,74 C106.6,74 107.2,74.4 107.6,74.7 C107.7,74.8 108.8,74.3 108.8,74.3" id="path762" fill="#730000"></path>
        <path d="M108.8,74.3 C108.8,74.6 109,74.9 109,75.4 C109,75.5 109.1,76 108.8,76 C108.6,76 108.5,75.5 108.5,75.5 C108.5,75.5 108.7,76.1 108.4,76.2 C108.1,76.3 108,75.5 108,75.5 C108.1,75.7 108.3,76.3 107.9,76.3 C107.6,76.4 107.5,75.6 107.5,75.6 C107.5,75.6 107.8,76.4 107.5,76.4 C107.2,76.4 107.2,75.6 107.2,75.6 C107.2,75.6 107.4,76.6 106.9,76.5 C106.6,76.5 106.6,76.1 106.6,75.9 C106.5,75.6 106.3,75.2 106.5,74.6 C106.7,74.2 106.6,74 106.6,74 C106.6,74 107.2,74.4 107.6,74.7 C107.7,74.8 108.8,74.3 108.8,74.3 L108.8,74.3 L108.8,74.3 L108.8,74.3 L108.8,74.3 L108.8,74.3 Z" id="path764"></path>
        <path d="M103.1,73.4 C103.2,73.3 103.2,73.8 103.2,73.9 C103.2,74.1 103.2,74.5 102.5,74.5 C101.8,74.4 101.2,74.3 100.8,74.4 C100.4,74.5 99.8,74.5 99.5,74.5 C99.2,74.5 99,74.5 98.8,74.4 C98.7,74.3 98.4,74.5 98.2,74.5 C98,74.5 97.9,74.3 97.9,74.1 C97.9,73.8 98.2,73.8 98.5,73.8 C98.8,73.8 99.2,73.7 99.4,73.6 C99.6,73.5 100,73.3 100.5,73.2 L101.6,73.2 C101.9,73.4 103,73.5 103.1,73.4" id="path766" fill="#730000"></path>
        <path d="M103.1,73.4 C103.2,73.3 103.2,73.8 103.2,73.9 C103.2,74.1 103.2,74.5 102.5,74.5 C101.8,74.4 101.2,74.3 100.8,74.4 C100.4,74.5 99.8,74.5 99.5,74.5 C99.2,74.5 99,74.5 98.8,74.4 C98.7,74.3 98.4,74.5 98.2,74.5 C98,74.5 97.9,74.3 97.9,74.1 C97.9,73.8 98.2,73.8 98.5,73.8 C98.8,73.8 99.2,73.7 99.4,73.6 C99.6,73.5 100,73.3 100.5,73.2 L101.6,73.2 C101.9,73.4 103,73.5 103.1,73.4 L103.1,73.4 L103.1,73.4 L103.1,73.4 L103.1,73.4 L103.1,73.4 Z" id="path768"></path>
        <path d="M93.6,76.3 C95,75.5 95.7,74.8 96.3,73.9 C95.8,74.2 95.9,74.2 95.6,74.2 C95.3,74.1 95.1,73.9 95.1,73.9 C95.1,73.9 94.8,74.2 94.5,74.2 C94.2,74.1 93.9,73.9 93.9,73.9 C93.9,73.9 93.5,74.2 93.1,74.2 C92.8,74.2 92.5,73.9 92.5,73.9 C92.5,73.9 91.7,74.2 91.6,74.2 C91.4,74.2 90.9,73.9 90.9,73.9 C90.9,73.9 90.5,74.1 90.3,74.1 C90.1,74.1 89.5,73.8 89.5,73.8 C89.5,73.8 88.8,74 88.5,74 C88.2,74 87.8,73.8 87.8,73.8 C87.8,73.8 87.4,74 87.1,74 C86.8,73.9 86.6,73.8 86.6,73.8 C86.6,73.8 86.1,74 85.7,74 C85.4,73.9 85,73.7 85,73.7 C85,73.7 85,73.9 84.3,74 C84.3,74 84.6,73.9 84.3,74 C84.9,74.8 85.8,75.7 86.6,76.2 C87.2,76 87.5,75.9 87.5,75.9 C87.5,75.9 88,76.2 88.3,76.2 C88.6,76.3 89,76 89,76 L89.6,76.3 C89.9,76.4 90.2,76.1 90.2,76.1 C90.2,76.1 90.7,76.3 91,76.3 C91.3,76.3 91.8,76.1 91.8,76.1 C91.8,76.1 92.3,76.4 92.5,76.4 C92.7,76.4 93,76.2 93,76.2 C93,76.2 93.2,76.3 93.6,76.3 C93.6,76.3 93.2,76.3 93.6,76.3 L93.6,76.3 L93.6,76.3 L93.6,76.3 L93.6,76.3 L93.6,76.3 Z" id="path110" fill="#5AC800"></path>
        <path d="M90.3,78 C92.2,77.2 92.5,77 93.7,76.3 C93.5,76.3 92.9,76.1 93.1,76.1 C93.1,76.1 92.9,76.3 92.6,76.3 C92.4,76.3 91.8,76 91.8,76 C91.8,76 91.2,76.2 91,76.2 C90.8,76.2 90.3,76 90.3,76 C90.3,76 89.8,76.2 89.5,76.2 C89.3,76.1 89,76 89,76 C89,76 88.4,76.2 88.1,76.2 C87.8,76.1 87.4,75.9 87.4,75.9 C87.4,75.9 86.9,76.2 86.6,76.2 C87.6,76.9 88.6,77.5 90.3,78 C90.3,78 88.6,77.5 90.3,78 L90.3,78 L90.3,78 L90.3,78 L90.3,78 L90.3,78 Z" id="path112" fill="#FFD800"></path>
        <path d="M96.3,73.9 C96.3,73.9 95.9,74.2 95.6,74.2 C95.3,74.1 95.1,73.9 95.1,73.9 C95.1,73.9 94.8,74.2 94.5,74.2 C94.2,74.1 93.9,73.9 93.9,73.9 C93.9,73.9 93.5,74.2 93.1,74.2 C92.8,74.2 92.5,73.9 92.5,73.9 C92.5,73.9 91.7,74.2 91.6,74.2 C91.4,74.2 90.9,73.9 90.9,73.9 C90.9,73.9 90.5,74.1 90.3,74.1 C90.1,74.1 89.5,73.8 89.5,73.8 C89.5,73.8 88.8,74 88.6,74 C88.3,74 87.9,73.8 87.9,73.8 C87.9,73.8 87.4,74 87.1,74 C86.8,73.9 86.6,73.8 86.6,73.8 C86.6,73.8 86.1,74 85.8,74 C85.5,73.9 85.1,73.7 85.1,73.7 C85.1,73.7 85,73.9 84.4,74 L84.4,74" id="path108"></path>
        <path d="M86.4,56.3 C86.6,56.5 87.1,56.8 87.4,56.9 C87.9,57.3 88.3,57.7 88.7,57.9" id="path4040_1_"></path>
        <path d="M110.7,48.6 C110.5,48.7 110.4,48.9 110.3,49 C110.3,49.1 110.3,49.3 110.4,49.5 C110.5,49.6 110.6,49.5 110.6,49.4 C110.6,49.5 110.6,49.7 110.8,49.8 C111,49.9 111,49.8 111,49.7 C111,49.7 111.1,50 111.2,50.1 C111.4,50.2 111.5,50 111.6,50 C111.6,50 111.4,50.2 111.5,50.3 C111.6,50.4 111.8,50.4 111.9,50.3 C112,50.2 112,50 112.4,50.2 C112.5,50.2 112.6,50.1 112.6,50 L111.1,48.9 L110.7,48.6 L110.7,48.6 L110.7,48.6 L110.7,48.6 L110.7,48.6 Z" id="path184-4" fill="#730000"></path>
        <path d="M89,62.5 C89.4,62.2 89.6,61.9 89.5,61.7 C89.4,61.5 89.1,61.8 88.9,61.7 C88.9,61.7 88.5,61.5 88.4,61.3 L87.7,60.6 C87.5,60.4 86.9,59.5 85.9,58.6 C85.6,58.4 85.7,57.7 85.5,57.5 C85.5,57.3 83.5,55.4 82.8,54.7 C82.5,54.5 82.4,54.4 81.9,54.8 C81.5,55.2 81.4,55.5 81.9,56 L81.9,56 L84.4,58.3 C84.8,58.7 85.3,58.7 85.5,58.9 L88.1,61.6 C88.4,61.9 88.6,62.1 88.4,62.3 C88.2,62.7 88.4,62.8 88.5,62.8 C88.5,62.8 88.7,62.8 88.8,62.7 L89,62.5 L89,62.5 L89,62.5 L89,62.5 L89,62.5 Z" id="path4393_1_" fill="#B34B00"></path>
        <path d="M81.9,63.3 L86.9,57 C87,56.9 87.5,56.9 87.5,57.4 L82.8,64 C82.8,64 82.3,63.9 81.9,63.3 L81.9,63.3 L81.9,63.3 L81.9,63.3 L81.9,63.3 L81.9,63.3 Z" id="path130" fill="#782121"></path>
    </g>
</svg>