<?xml version="1.0" ?><svg height="120px" version="1.1" viewBox="0 0 180 120" width="180px" xmlns="http://www.w3.org/2000/svg" xmlns:sketch="http://www.bohemiancoding.com/sketch/ns" xmlns:xlink="http://www.w3.org/1999/xlink"><title/><defs/><g fill="none" fill-rule="evenodd" id="Europe" stroke="none" stroke-width="1"><g id="Cyprus"><rect d="M0,0 L0,120 L180,120 L180,0 L0,0 Z M0,0" fill="#FFFFFF" height="120" id="Oval-1-copy-4" width="180" x="0" y="0"/><g id="Shape-+-Shape" transform="translate(41.000000, 20.000000)"><path d="M45.2880479,81 C45.251446,80.9828172 45.2437189,80.9756244 45.2174876,80.951049 L45.1920696,80.9276723 C45.1261862,80.8683317 45.0169905,80.7634366 44.8703796,80.5994006 C44.5995255,80.2971029 44.23615,79.8545455 43.9166968,79.4635365 C43.2832806,78.6877123 42.7598735,78.0193806 42.6612517,77.8935065 L42.5,77.6873127 L42.3387483,77.8935065 C42.2401265,78.0197802 41.7161094,78.6885115 41.0830999,79.4635365 C40.76385,79.8545455 40.4002711,80.2971029 40.1296204,80.5992008 C39.9828061,80.7632368 39.8738138,80.8683317 39.8079304,80.9274725 L39.7825124,80.951049 C39.7554677,80.9764236 39.7481473,80.9832168 39.7249661,80.9942058 L39.6983281,80.996004 L39.2906236,80.9576424 L39.4872571,80.8073926 L39.6698599,80.9210789 C39.6611161,80.9004995 39.6454587,80.8643357 39.6173972,80.8243756 C39.5714415,80.759041 39.504338,80.6781219 39.428084,80.5964036 C39.2629688,80.4193806 39.0287167,80.2063936 38.8432671,80.0405594 C38.4270221,79.6687313 38.0081338,79.3262737 38.0040669,79.3226773 L38,79.3194805 L40.9206281,77.2087912 L39.767465,76.6805195 L40.3835969,76 L42.5,76.8903097 L44.6164031,76 L45.232535,76.6805195 L44.0793719,77.2087912 L47,79.3194805 L46.9977632,79.3212787 C46.9918662,79.3260739 46.5729779,79.6685315 46.1567329,80.0403596 C45.97108,80.2061938 45.7370312,80.4191808 45.5717126,80.5964036 C45.4954587,80.6779221 45.4283552,80.7588412 45.3826028,80.8241758 C45.3545413,80.8643357 45.3388839,80.9006993 45.3313601,80.9182817 L45.5127429,80.8073926 L45.7093764,80.9576424 L45.3091957,80.9944056 L45.2908947,80.9984016 L45.2908947,80.9984016 L45.2880479,81 L45.2880479,81 Z M49.8613017,76.9993237 C47.5945103,76.9993237 46.0503223,76.1722039 46,76.1448136 C47.9692244,75.3851551 49.6745685,75 51.0684134,75 L51.0925348,75 C52.2688709,75.0037197 52.9968808,75.2918252 53.400707,75.5325894 C53.8055729,75.774199 53.9831566,76.0320399 54,76.0574013 L53.9981285,76.0582467 C52.6631316,76.6838279 51.27199,77 49.8621335,77 L49.8621335,77 L49.8613017,76.9993237 L49.8613017,76.9993237 Z M39,76.1448136 C37.0307756,75.3851551 35.3254315,75 33.9315866,75 L33.9074652,75 C32.7311291,75.0037197 32.0031192,75.2918252 31.599293,75.5325894 C31.1944271,75.774199 31.0168434,76.0320399 31,76.0574013 C32.3368684,76.6838279 33.72801,77 35.1378665,77 C37.4054897,76.9993237 38.9496777,76.1722039 39,76.1448136 Z M55.3360741,76.9981812 C55.1895446,76.9981812 55.0638525,76.8722292 55.0229792,76.6846652 C54.9829073,76.5007389 54.9953296,76.2661134 55.0595782,75.9871547 C55.1659022,75.5272252 55.4131457,75.0438786 55.7265077,75.0011368 C55.7325185,75.0002274 55.7387964,75 55.7450744,75 L55.7875505,75.0018188 C55.8548713,75.004547 55.9268671,75.0325111 55.9961914,75.0823008 L55.9961914,75.0825281 C55.9961914,75.0836649 56.0198338,75.560873 55.9493073,76.0410367 C55.9080333,76.3209049 55.8460555,76.5348414 55.7593667,76.6953507 C55.6538441,76.8908719 55.5042424,77 55.3359405,77 L55.3359405,77 L55.3360741,76.9981812 L55.3360741,76.9981812 Z M27.6640358,77 C27.4966571,77 27.3462434,76.8920765 27.2405797,76.6964936 C27.1538848,76.5357468 27.091769,76.3217213 27.0506257,76.0412113 C26.9833002,75.5817395 27.0018681,75.1247723 27.0037383,75.0810565 C27.0740026,75.0307377 27.1456027,75.0031876 27.2123939,75.0004554 L27.2273551,75 C27.5627804,75 27.8271398,75.4959016 27.9404176,75.9874772 C28.0046707,76.2668488 28.0170939,76.5018215 27.9770192,76.6857923 C27.9369445,76.8702186 27.8113771,76.9977231 27.6644365,76.9977231 L27.6644365,76.9977231 L27.6640358,77 L27.6640358,77 Z M45.0009822,75.9983233 C47.2346223,71.4870892 49.5548894,71 50.4488561,71 C50.7501844,71.0014671 50.9503497,71.0523977 50.9864934,71.0624581 L50.9886541,71.0739856 C50.9886541,71.0752431 51.1226215,72.0735245 50.4698745,73.1527079 C49.8577891,74.1646127 48.4124348,75.480005 45.0025536,75.9995808 L45,76 L45,76 L45.0009822,75.9983233 L45.0009822,75.9983233 Z M38.9976425,75.9995808 C35.5873727,75.480005 34.1418536,74.1646127 33.5296985,73.1527079 C32.8768771,72.0735245 33.0108597,71.0752431 33.0122349,71.0651828 L33.0128243,71.0622485 L33.0153782,71.0614101 C33.0163605,71.0614101 33.2238174,71.0016767 33.5375567,71 C34.4447879,71 36.7653195,71.4868796 38.9986248,75.9970657 L39,76 L38.9960709,75.9979041 L38.9960709,75.9979041 L38.9976425,75.9995808 L38.9976425,75.9995808 Z M52.1226606,73.9984539 C51.486654,73.9982821 50.7727803,73.949665 50.0012886,73.8536334 L50,73.8534616 L50.0009204,73.8526026 C51.6946677,72.3212506 53.2991348,72 54.346935,72 C54.4288519,72.0001718 54.499908,72.0022333 54.5704117,72.0051538 C55.4033871,72.0415736 55.9618948,72.2726336 56,72.2886102 C55.9981592,72.3059612 55.9806713,72.4552482 55.8904706,72.636145 C55.798061,72.8220237 55.6055102,73.095688 55.2119408,73.3447861 C54.5271522,73.7782168 53.4878198,73.9982821 52.1230288,73.9982821 L52.1211879,74 L52.1211879,74 L52.1226606,73.9984539 L52.1226606,73.9984539 Z M30.8771553,74 C29.5119961,73.9998281 28.4726637,73.7799175 27.7878751,73.3459422 C27.3943057,73.09663 27.2017549,72.8227304 27.1093453,72.6366919 C27.0228263,72.4623453 27.0031294,72.3175722 27,72.2888583 C27.0360803,72.2733838 27.5949561,72.0416094 28.4294042,72.0051582 C28.499908,72.0020633 28.570964,72.0001719 28.6455176,72 C29.7006811,72 31.3051482,72.3215268 32.9983433,73.8535076 L33,73.855055 L32.9979751,73.855227 C32.2248267,73.9497937 31.5105848,73.9996561 30.8754986,73.9996561 L30.8754986,73.9996561 L30.8771553,74 L30.8771553,74 Z M58.954674,73.9991051 C58.1256793,73.9871129 57.5388321,73.8655808 57.2108996,73.6380884 C57.0559017,73.5305173 56.9788902,73.3867908 57.0050157,73.2532665 C57.0364052,73.0932522 57.1752208,72.9301951 57.4296513,72.7551459 C58.1245095,72.2767138 59.1543191,72.0234473 60.4904199,72.0023268 C60.5760099,72.0008949 60.6629647,72 60.7489446,72 C60.8232266,72 60.8971187,72.0007159 60.9698409,72.0023268 C62.5648565,72.0377662 63.9824531,72.3681761 63.9964906,72.3713979 L64,72.3721138 L63.9968805,72.3751566 C62.6923641,73.5727582 60.5976512,74 59.0730183,74 L58.9560388,74 L58.9560388,74 L58.954674,73.9991051 L58.954674,73.9991051 Z M23.9267808,73.9974989 C22.4021498,73.9974989 20.3076343,73.5708799 19.0013648,72.3740956 L19,72.3726664 L19.0038993,72.3717731 C19.0175469,72.3685574 20.4353368,72.038946 22.0303504,72.0033944 C22.1254936,72.0012506 22.2212217,72 22.3179246,72 C23.7474124,72 24.8415594,72.254042 25.5703408,72.7548013 C25.8247709,72.9297008 25.9637814,73.092452 25.9949759,73.2519875 C26.0211013,73.3852613 25.9442848,73.5288968 25.7890922,73.6360875 C25.4609651,73.8631532 24.8743136,73.9842787 24.0451249,73.996427 L23.9281455,74 L23.9281455,74 L23.9267808,73.9974989 L23.9267808,73.9974989 Z M64.3332318,72 C64.1759809,72 64.0591122,71.8399269 64.0252322,71.6816817 C63.9834811,71.4876616 63.9934056,71.2625669 64.0560322,70.9936023 C64.1167765,70.7324716 64.2192719,70.4872699 64.3448673,70.3029116 C64.4389783,70.1647735 64.5902403,70 64.7748689,70 C64.8647021,70.0036558 64.9350287,70.0276799 64.9966286,70.0723332 C64.9978264,70.0981851 65.017333,70.5622144 64.9470065,71.0361666 C64.9042287,71.3249772 64.8438266,71.5341428 64.7574156,71.6947382 C64.653038,71.8853636 64.4973271,71.9976498 64.3330607,71.9976498 L64.3330607,71.9976498 L64.3332318,72 L64.3332318,72 Z M19.6667945,72 C19.5020031,72 19.3473081,71.8887147 19.2425808,71.6951411 C19.1559927,71.534744 19.0957574,71.3252351 19.0529767,71.0363114 C18.9814473,70.5535528 19.0030088,70.0812435 19.0031799,70.0765413 L19.0033511,70.0718391 C19.0656398,70.026907 19.1352868,70.0028736 19.2116076,70 L19.212121,70 C19.4101101,70 19.5610405,70.1645768 19.6551581,70.3025078 C19.7805912,70.4866771 19.8832649,70.7322362 19.9440135,70.9934692 C20.0064734,71.2625392 20.0165696,71.487722 19.9748157,71.6818182 C19.9405911,71.8359457 19.8242275,71.9979101 19.6667945,71.9979101 L19.6667945,71.9979101 L19.6667945,72 L19.6667945,72 Z M53.3360741,72 C53.1895446,72 53.0638525,71.8739333 53.0229792,71.6861987 C52.9829073,71.5021049 52.9953296,71.2672659 53.0595782,70.9880532 C53.1659022,70.5277051 53.4131457,70.0439185 53.7265077,70.0011378 C53.7325185,70.0002276 53.7387964,70 53.7450744,70 L53.7875505,70.0018205 C53.8548713,70.0045511 53.9268671,70.0325407 53.9961914,70.0823757 L53.9961914,70.0826033 C53.9961914,70.083741 54.0198338,70.5613835 53.9493073,71.0419843 C53.9080333,71.3221072 53.8460555,71.5362385 53.7593667,71.6968938 C53.6538441,71.892593 53.5029067,71.9995449 53.3359405,71.9995449 L53.3359405,71.9995449 L53.3360741,72 L53.3360741,72 Z M30.6640358,72 C30.4966571,72 30.3462434,71.8920765 30.2405797,71.6964936 C30.1538848,71.5357468 30.091769,71.3217213 30.0506257,71.0412113 C29.9833002,70.5817395 30.0018681,70.1247723 30.0037383,70.0810565 C30.0740026,70.0307377 30.1456027,70.0031876 30.2123939,70.0004554 L30.2273551,70 C30.5627804,70 30.8271398,70.4959016 30.9404176,70.9874772 C31.0046707,71.2668488 31.0170939,71.5018215 30.9770192,71.6857923 C30.9369445,71.8724954 30.8100413,71.9977231 30.6644365,71.9977231 L30.6644365,71.9977231 L30.6640358,72 L30.6640358,72 Z M26,70.9994756 C22.6751479,70.9026394 20.9496559,70.1207831 20.0876494,69.481734 C19.6023482,69.1220066 19.3325486,68.7654256 19.1918387,68.5296277 C19.0591573,68.3069393 19.0088736,68.1365146 19,68.1034784 L19.0044368,68.1019053 C19.0050706,68.1019053 19.3190269,68.0089145 19.8252445,68.0006992 L19.9029941,68 C21.0242364,68 23.3068635,68.3896172 25.9987323,70.9982521 L25.9987323,71 L25.9987323,71 L26,70.9994756 L26,70.9994756 Z M59.0008451,70.9987767 C61.612139,68.4683677 63.8442037,68.034778 64.9421725,68.0013981 C64.9749193,68.0005243 65.0074548,68 65.0391453,68 C65.0839344,68 65.1276673,68.0008738 65.1694987,68.0013981 C65.6598557,68.0094373 65.9687321,68.0954212 66,68.1045089 L66,68.1050332 C65.9997887,68.1050332 65.9535207,68.2862635 65.8079558,68.5305837 C65.6672502,68.7663404 65.3978813,69.1228591 64.9123834,69.4825236 C64.0501917,70.121461 62.3243292,70.9033555 59,71 L59.0021127,70.9982524 L59.0021127,70.9982524 L59.0008451,70.9987767 L59.0008451,70.9987767 Z M28.9985438,71 C26.3646765,70.6292129 24.8724776,69.5839704 24.0844602,68.7720083 C23.2583732,67.9210058 23.0110256,67.1284677 23,67.0915429 C23.0047847,67.0901966 23.326607,67.0126929 23.8113168,67.0013462 C23.8464739,67.0003846 23.8830872,67 23.9203245,67 C23.9579779,67 23.9962555,67.0003846 24.0353651,67.0013462 C25.3600999,67.0280783 27.7661743,67.5827203 28.9979197,70.9986538 L29,70.9986538 L29,70.9986538 L28.9985438,71 L28.9985438,71 Z M55.0018721,71 C56.2337401,67.5827483 58.6396478,67.0280796 59.9640827,67.0013463 C60.0031896,67.0003847 60.0416724,67 60.0793233,67 C60.1167661,67 60.1529608,67.0003847 60.1885314,67.0013463 C60.6729996,67.0126935 60.9950076,67.090201 60.9981279,67.0911626 L61,67.0915473 C60.9979198,67.0982787 60.7572459,67.9048947 59.915407,68.7720935 C59.124948,69.58371 57.6334766,70.6299644 55,70.9992307 C55,70.9992307 57.6334766,70.6299644 55,70.9992307 L55.0018721,71 L55.0018721,71 Z M68.3670322,68.9995162 C66.9921353,68.9995162 66.0121016,68.7731194 66.0023422,68.7707006 L66,68.7702169 L66.0027326,68.7666694 C66.011516,68.7560268 67.0780176,67.4735951 69.1345074,67.1338386 C69.6722474,67.0449891 70.2347762,67 70.8058933,67 C70.8535189,67 70.9007541,67.0003225 70.9474038,67.0009675 C72.1310175,67.0159639 72.986522,67.2144642 72.9951102,67.2165605 L72.9974524,67.2234943 C72.9970621,67.2234943 73.0070166,67.2970249 72.9900353,67.3900669 C72.9726637,67.4837539 72.9234766,67.6308151 72.7886024,67.7985165 C72.5506695,68.0939289 71.9955578,68.5022172 70.7020538,68.7694106 C69.966199,68.9225994 69.1815474,69 68.3715215,69 L68.3715215,69 L68.3670322,68.9995162 L68.3670322,68.9995162 Z M15.6328942,68.9996775 C14.8230384,68.9996775 14.0373865,68.9222706 13.2979953,68.7695533 C12.0040607,68.5021771 11.4489318,68.0940171 11.2111867,67.7985809 C11.0761131,67.630866 11.0271197,67.4837929 11.0099427,67.3899371 C10.9933513,67.3002741 11.002135,67.2288341 11.0038917,67.2169005 L11.0099427,67.2151266 C11.013261,67.2144815 11.868792,67.0159652 13.0524425,67.0009676 C13.0990936,67.0003225 13.1461351,67 13.1939574,67 C13.7652874,67 14.3276385,67.0449927 14.8655904,67.1338494 C16.9221441,67.4736333 17.9886788,68.7561684 17.999024,68.7690695 L18,68.7705209 L17.9974625,68.7710047 C17.9857509,68.7726173 17.0058819,69 15.6317231,69 L15.6317231,69 L15.6328942,68.9996775 L15.6328942,68.9996775 Z M62.3341244,67.9984027 C62.1877299,67.9984027 62.066114,67.874729 62.0244592,67.683514 C61.9832063,67.4950371 61.9941892,67.262065 62.0570062,66.9912151 C62.1638889,66.5293782 62.4119425,66.044267 62.7257598,66.0011409 C62.731787,66.0002282 62.7380821,66 62.7443772,66 L62.7869695,66.0018254 C62.8546083,66.0045636 62.926935,66.0326298 62.996181,66.0826013 L62.996181,66.0828294 C62.996181,66.0844267 63.0198881,66.5576726 62.9491687,67.0375357 C62.9067103,67.3264119 62.844429,67.5434113 62.7588425,67.7010839 C62.6543707,67.8950371 62.5043599,68 62.3342583,68 L62.3342583,68 L62.3341244,67.9984027 L62.3341244,67.9984027 Z M21.6658503,68 C21.4958892,68 21.3450804,67.8942077 21.2410144,67.702045 C21.1554311,67.5441563 21.0931522,67.3266309 21.0508293,67.0375871 C20.9830591,66.5771735 21.0019437,66.1231578 21.0038188,66.0813435 C21.0742676,66.0308466 21.1460558,66.0031989 21.2130224,66.000457 L21.2280229,66 C21.5636593,66 21.8291149,66.4978864 21.943092,66.991203 C22.0057727,67.2626528 22.0167552,67.4957158 21.9756377,67.684451 C21.9341184,67.8763852 21.8122393,67.9997715 21.6662521,67.9997715 L21.6662521,67.9997715 L21.6658503,68 L21.6658503,68 Z M16.9994029,66.9979368 C16.980496,66.9931914 15.8098555,66.6810267 14.6177208,65.9199059 C13.5143494,65.21573 12.1645902,63.9701659 12,62.0348684 L12,62.0338368 L12.0027863,62.0330115 C12.0029853,62.0330115 12.105481,62.0072213 12.2571349,62.0012379 C12.2780321,62.0004126 12.3003224,62 12.3236078,62 C12.6531863,62 13.3278669,62.0961459 14.1440513,62.739457 C15.1829399,63.5606173 16.1422203,64.9924899 17,67 C17,67 16.1422203,64.9924899 17,67 L16.9994029,66.9979368 L16.9994029,66.9979368 Z M67.0021884,67 C67.8586321,64.9919505 68.8187244,63.5589267 69.8566029,62.7399381 C70.5910954,62.1601651 71.2086102,62.0183695 71.5971432,62.0014448 C71.6214141,62.0004128 71.6442924,62 71.6663749,62 C71.6934309,62 71.7190944,62.0006192 71.7435642,62.0014448 C71.8937652,62.0074303 71.9960212,62.0328173 72,62.0340557 L71.9998011,62.0379773 C71.8352763,63.9713106 70.4862531,65.2173375 69.3833207,65.9215686 C68.1936498,66.6790506 67.0258624,66.9927761 67,66.998968 C67,66.998968 67.0258624,66.9927761 67,66.998968 L67.0021884,67 L67.0021884,67 Z M19.9927545,66.9972144 C19.9856996,66.9942298 19.1864013,66.6603548 18.1872783,65.7866689 C17.2564161,64.9724755 15.9476414,63.50645 15,61.1446526 C15.000572,61.1444537 15.2177478,61.0236777 15.5502803,61.0017907 C15.5695382,61.0003979 15.5889868,61 15.608626,61 C15.6372269,61 15.6667811,61.0009949 15.6969073,61.0017907 C16.1566182,61.0153208 16.856767,61.2146908 17.6329939,62.0887747 C18.5245777,63.0929862 19.3204439,64.7430609 19.9980933,66.9936329 L20,67 L19.9942798,66.9980103 L19.9942798,66.9980103 L19.9927545,66.9972144 L19.9927545,66.9972144 Z M64.00286,66.9904497 C64.6795302,64.7431357 65.4753661,63.0929168 66.3669158,62.0887386 C67.1429225,61.2146836 67.8432352,61.0153203 68.2939674,61.0021886 C68.3332444,61.0009948 68.3624161,61 68.3912065,61 C68.4110357,61 68.4301022,61.0003979 68.4491687,61.0017907 C68.7675793,61.0224831 68.9799802,61.1339037 69,61.1448468 C68.0518228,63.5065659 66.7436699,64.9725428 65.8126525,65.7865101 C64.8137584,66.6601671 64.0142999,66.994031 64.0064826,66.9974135 L64,67 L64.0019067,66.9900517 L64.0019067,66.9900517 L64.00286,66.9904497 L64.00286,66.9904497 Z M71.6672613,67 C71.343948,67 71.1341741,66.8943852 71.0441196,66.6862392 C70.9300506,66.4225877 71.0679576,66.0844148 71.1131614,65.987023 C71.3402399,65.4956957 71.8697956,65 72.5406131,65 L72.5697484,65.000257 C72.7101274,65.0033406 72.8565101,65.0310934 72.9928278,65.0806887 L72.993181,65.0830014 C72.9938873,65.0896826 73.0373253,65.5614801 72.8957103,66.038674 C72.8091873,66.3264808 72.5178346,66.999743 71.6667315,66.999743 L71.6667315,66.999743 L71.6672613,67 L71.6672613,67 Z M12.3326492,67 C11.4813585,67 11.190002,66.3279363 11.1041842,66.0388075 C10.9632736,65.5636083 11.0060059,65.0907222 11.0063591,65.0860961 L11.0068888,65.0809561 C11.144621,65.0308404 11.2902992,65.003084 11.4303269,65.000257 L11.4594626,65 C12.1302889,65 12.6598514,65.4957594 12.886933,65.9871498 C12.9319608,66.0845541 13.0700461,66.4225135 12.955799,66.6864559 C12.8639776,66.8946286 12.6556135,67 12.3324727,67 L12.3324727,67 L12.3326492,67 L12.3326492,67 Z M72.9227476,64 C72.3679704,64 72.0044756,63.9627163 72.000973,63.9623043 L72,63.9612744 C72.0001946,63.9569486 72.0202374,63.233109 72.6238568,62.5362538 C73.1926445,61.879772 74.4131154,61.0805411 76.9980541,61.000206 L77,61 L76.9996108,61.0039138 C76.9992216,61.0067976 76.9223584,61.6325872 76.6501265,62.288451 C76.3998832,62.890964 75.9262502,63.6428179 75.0906791,63.803694 C74.2481027,63.9623043 73.4483363,63.9973222 72.9229422,63.9973222 L72.9229422,63.9973222 L72.9227476,64 L72.9227476,64 Z M10.0768991,64 C9.55308219,64 8.75159558,63.9660074 7.90905199,63.8038731 C7.07351339,63.6429749 6.59989882,62.8908117 6.3498599,62.2884219 C6.07763854,61.6322621 6.00077833,61.0063865 6,61 L6.00233499,61 C8.58678394,61.0803461 9.80740193,61.8798929 10.3761675,62.5362588 C10.9634184,63.2140503 10.9982488,63.9177998 11,63.9622991 L10.9982488,63.9625052 C10.9943571,63.9625052 10.6304872,63.999588 10.0759262,63.999588 L10.0759262,63.999588 L10.0768991,64 L10.0768991,64 Z M70.179065,60.9972757 C70.1771422,60.9832652 70,59.5179996 70,58.0616852 C70,56.6067328 71.9158755,56.024713 71.9973561,56.0007784 L72,56 C71.9949525,56.0295777 71.9069823,56.5318155 71.8194928,57.1202569 C71.7517125,57.5777389 71.6375436,58.4037751 71.6375436,58.7974314 C71.6375436,59.2039307 71.287826,59.7003308 70.9097464,60.1759097 C70.5494532,60.6291107 70.1850739,60.9941623 70.1817089,60.9978595 L70.1795457,61 L70.1819493,60.9980541 L70.1819493,60.9980541 L70.179065,60.9972757 L70.179065,60.9972757 Z M13.8190121,60.9986379 C13.8146857,60.9943569 13.4500661,60.6293053 13.0900132,60.1759097 C12.7119337,59.7001362 12.3622161,59.2037361 12.3622161,58.7974314 C12.3622161,58.4051372 12.2482875,57.578128 12.1802668,57.1202569 C12.0942194,56.5394046 12.0072107,56.0422261 12,56 L12.0031246,56.0007784 C12.0841245,56.024713 14,56.6067328 14,58.0616852 C14,59.5189726 13.8226175,60.9832652 13.820935,60.9978595 L13.8206946,61 L13.8182911,61 L13.8182911,61 L13.8190121,60.9986379 L13.8190121,60.9986379 Z M72.111455,60.9820559 C72.0790487,60.9680127 72.0455622,60.9327095 72.0280628,60.8944808 C71.9863668,60.8026146 71.9954405,60.7015814 72.0271987,60.547301 C72.0829375,60.2759936 72.2218524,59.9198418 72.4644674,59.4267685 C72.8507502,58.641128 73.3478624,57.8336425 73.3964719,57.7550394 C73.4083542,57.7421665 74.0903983,56.9668633 74.9569421,56.195071 C75.4594554,55.7476382 75.9312908,55.3860251 76.3590536,55.1195939 C76.9006705,54.7825564 77.3197917,54.6232048 77.6782051,54.6177436 C77.7981084,54.6177436 77.8920866,54.6308116 77.9774231,54.6563624 C74.6444618,52.8304122 78.0581852,55.3090771 77.9992433,56.0544437 C77.9177955,57.0821348 77.6356449,57.8515866 77.1607849,58.3415392 C76.639908,58.8788876 75.7485194,59.4878175 74.6505948,60.0561781 C73.6617712,60.5679757 72.767358,60.9194465 72.2583634,60.9959041 C72.2410801,60.9959041 72.2237967,60.9978545 72.204353,60.9978545 C72.1697863,61 72.1391083,60.9941487 72.111455,60.9820559 Z M11.7963126,62 C11.7782317,62 11.7603661,61.9982887 11.7425005,61.9955077 C11.2353752,61.9114384 10.3442469,61.5261743 9.35905493,60.9648565 C8.26516256,60.3415029 7.37683241,59.6736546 6.85786852,59.0843138 C6.38475253,58.5469547 6.10385337,57.7030529 6.02270472,56.5759252 C5.9652334,55.7760902 6.03411289,55.1097393 6.04143134,55.043639 C6.13011368,55.0143324 6.22439248,55 6.32448298,55 C6.70418116,55.0062036 7.1094939,55.1760535 7.65665533,55.5506219 C8.08306241,55.8426183 8.55316492,56.239648 9.05361745,56.7301592 C9.91719403,57.5766281 10.596518,58.4269474 10.6031907,58.4352902 L10.6100786,58.4438468 C10.6671195,58.5454573 11.1561638,59.4216606 11.5371535,60.274547 C11.7790927,60.8161843 11.9174974,61.2065825 11.9728163,61.503713 C12.0044578,61.6729212 12.0137135,61.783944 11.9719553,61.8846988 C11.9545201,61.9264126 11.9213719,61.9651316 11.8890846,61.9805336 C11.8589499,61.9933686 11.8288151,61.9997861 11.7943753,61.9997861 L11.7943753,61.9997861 L11.7963126,62 L11.7963126,62 Z M11.7963126,62" fill="#2F4712" id="Shape"/><path d="M96.9597624,0.00707977388 L96.495255,0.196817714 L96.3131996,0.271256479 L95.7502679,0.239498636 L95.2230372,0.499022919 L94.288105,1.15420542 L94.2468812,1.18454731 L93.8983527,1.27779805 L93.5746768,1.13458433 L93.3908463,1.22035074 L93.3275313,1.6087269 L93.1525767,1.88767 L92.9371872,2.04281818 L92.1910167,2.12110025 L91.5618113,2.45384963 L90.7432526,2.22911738 L90.3629679,2.38183821 L89.5544686,3.12865322 L89.1412443,3.32931424 L88.9968624,3.32081851 L88.4489212,3.29189258 L88.217555,3.36956781 L87.8719852,3.71202659 L87.2181244,3.76421463 L87.0143723,3.9088443 L86.695233,4.56827467 L86.3494659,4.93399556 L86.1516311,4.97687876 L85.9372279,4.89637162 L85.7760803,4.92549983 L85.7031004,5.34745435 L85.5466866,5.52424642 L85.1090042,5.67878777 L84.7592923,5.97755423 L84.4523821,6.13917535 L84.0413275,6.12865683 L83.9468481,6.12865683 L83.5373715,6.36046885 L82.7671373,6.42964836 L82.4468145,6.74297892 L82.3762015,6.80993336 L82.2266913,6.90257725 L81.9821099,7.0522639 L81.922148,7.08948328 L81.6272696,7.03547472 L81.2820942,7.17565425 L81.1424461,6.95537214 L80.9035847,7.10242916 L80.5872069,7.11638643 L80.1931152,6.93656017 L79.8929112,6.79941484 L79.6733797,6.83198179 L79.5970466,7.22440355 L79.5893542,7.26607307 L79.3585798,7.58102187 L78.9278009,7.84863732 L78.8692197,7.9269194 L78.3790707,8.57583124 L77.4476889,9.58035002 L76.6600973,9.99057234 L75.8437083,10.2452419 L75.2722951,10.7266665 L73.773445,11.4886525 L71.4077116,12.6956528 L70.9238743,12.8546443 L70.2295787,12.9683252 L68.9912867,13.4359949 L67.8987574,13.7740035 L67.8380065,13.7930178 L67.6218281,13.8601745 L66.0813597,14.3381603 L65.3643812,14.2604851 L64.9397168,14.4186675 L63.8341694,14.2928498 L63.0655132,14.3084253 L62.5789145,14.4121945 L61.6642984,14.8620636 L60.1204769,15.6230382 L59.6104063,16.1016309 L58.8161085,16.5266196 L57.8861074,16.8286225 L57.8882771,16.4279073 L57.8827542,16.4109159 L57.5600646,16.5154942 L57.3271205,16.5909444 L56.5726658,16.7102892 L56.1529325,16.7102892 L55.8923744,16.6326139 L55.8521368,16.6465712 L54.3100905,17.1676425 L52.5903282,17.3379617 L51.7297567,17.6209504 L51.0867442,17.6104318 L50.6847629,17.7332153 L49.8967768,17.8319276 L49.6151137,17.7548592 L49.5516014,17.7370586 L47.2339954,17.8402211 L46.1744056,17.7174376 L45.6686743,17.8353664 L44.8213181,17.5430728 L43.5848013,17.3960158 L43.2958402,17.3072152 L42.6459243,17.1093861 L42.3518349,17.283144 L42.1317116,17.3072152 L41.6056643,17.1116112 L41.416311,17.1065542 L40.9819817,17.2675685 L40.7320748,17.2018277 L40.4999197,17.0120898 L39.9553316,16.928953 L39.6235687,16.6429302 L37.7690894,16.8949701 L37.2659223,16.7432607 L35.5787051,16.2391808 L35.3102572,16.253138 L34.975733,16.510235 L34.4731577,16.6981524 L34.036856,16.814463 L33.4427599,16.8357023 L32.7530008,16.6500099 L32.0417423,16.2964258 L31.7788173,16.2323033 L31.1922164,16.2929871 L31.0127252,16.3097762 L29.9345946,15.7166935 L28.5456089,14.8258556 L27.6031815,14.3614225 L27.2493274,14.3025592 L27.2017919,14.4751034 L27.3773382,15.0424967 L27.4371028,15.6036194 L27.4191537,16.1220611 L27.4094888,16.4430783 L27.4974592,16.7313262 L27.8377035,17.1180841 L27.9795213,17.5064603 L28.0832711,18.5753039 L28.0820877,19.6599252 L27.9166007,21.3896151 L27.860781,21.6529827 L27.6633406,22.5490798 L27.4830605,23.3721541 L26.7836366,25.5634452 L26.5915218,25.8351063 L26.1199136,26.1650237 L25.0510534,26.9110296 L24.2640536,27.3764742 L24.0149356,27.4822663 L23.3760653,27.5318247 L22.9780287,27.5105853 L22.4823569,27.2352833 L21.9957583,27.106836 L21.3582687,26.636739 L20.6491798,26.4862432 L19.8718449,26.0254511 L19.6694735,25.7760407 L19.2461899,25.7351803 L18.6591945,25.554545 L18.659589,25.5535336 L18.4440023,25.4873882 L18.2950838,25.4428868 L18.2950838,25.4426845 L17.5463491,25.4216475 L16.8481086,25.0911232 L16.4804475,25.0000975 L15.9780694,24.9740035 L15.4522194,25.2246275 L15.4520221,25.2238184 L15.1855468,25.351052 L14.8488528,25.2139067 L14.6052576,25.2294822 L14.3293146,25.6573028 L14.2880908,25.7236504 L14.0979485,25.8268128 L13.8612568,25.8233741 L13.6760455,25.8183171 L13.4756466,25.9081291 L13.2058181,26.0280807 L13.2058181,26.0286875 L12.9675484,26.1352887 L12.851175,26.1868699 L12.8492026,26.1848471 L12.7776034,26.1996135 L12.6503816,26.2222688 L12.4925871,26.2532175 L12.2144744,26.0865394 L12.0665421,25.997132 L11.8186075,25.9453485 L11.685074,26.044263 L11.6588407,26.5097076 L11.5369444,26.7884484 L11.1501508,27.1392006 L10.7570453,27.4942007 L10.4830747,27.9082664 L9.75800919,29.6053893 L9.3037584,30.2901046 L9.1627296,30.4497029 L8.68776829,30.9869566 L8.26645709,31.3221333 L7.29562669,32.0938287 L6.37667123,32.4459969 L5.58513479,32.6118658 L5.20031356,32.6134841 L4.47130317,32.5139627 L3.81586444,32.3076378 L3.09592724,31.8460366 L2.30636322,31.1953042 L1.16353687,30.0374578 L1.00179756,29.9377341 L0.96806899,29.9146743 L0.608100387,29.6786144 L0.341033269,29.6856942 L0.236494442,29.8624862 L0.179293951,30.1179649 L0.130969399,30.3445177 L0,31.6324297 L0.00966491046,31.7070707 L0.0785027421,32.2374469 L0.946569496,33.4814644 L1.21442559,34.1423107 L1.25841079,34.2177608 L1.4375075,34.5262367 L1.57380246,34.7614875 L1.58741223,34.7853564 L1.88406581,35.6931857 L1.67557988,36.2057613 L1.78090768,36.5490292 L1.51739094,36.7587928 L1.46906639,37.0551319 L2.24837376,38.0570211 L2.41839729,38.4990012 L2.22845221,39.1117051 L1.92548685,39.4497137 L1.84086958,39.5421554 L1.88347408,39.8010728 L2.24206198,40.1317994 L2.85134583,40.6880673 L3.17620517,41.5145804 L3.42335073,41.7362784 L3.71053664,41.6735719 L3.87030353,41.7985804 L4.11251802,41.7943326 L4.35078765,42.0386859 L4.50503173,42.1153497 L4.74882417,42.2399538 L4.94153065,42.497253 L4.98413515,43.2883671 L5.34351202,44.2714443 L5.34903483,44.8044501 L5.35100726,44.8801026 L5.5746809,45.2741426 L5.64489944,45.5852481 L5.52576462,46.4083223 L5.81078086,46.6724991 L6.11986075,46.6077697 L6.31947074,46.6401344 L6.64018797,46.9140205 L7.02855958,47.5210605 L7.40844973,47.4640178 L7.64948076,47.5831603 L8.81360937,48.6621178 L9.07771784,48.7988586 L9.09231382,48.8073543 L9.2822589,48.9050552 L9.51835886,49.1494085 L9.884442,48.9002005 L9.92507407,48.8959526 L10.3231106,48.8599469 L10.4978679,48.9807076 L10.8339701,49.2131265 L11.2746112,49.2072604 L12.2300566,49.5076451 L12.6480147,49.6174827 L13.4884674,50.1531182 L13.8456746,50.3796709 L14.0571192,50.5558562 L14.3379933,50.7907024 L14.8991498,51.0382922 L15.3804229,51.1564233 L15.6411783,51.219939 L15.8374351,51.2976142 L15.8423662,51.2850729 L15.8451276,51.285882 L15.8403938,51.2986256 L16.8826261,51.7078365 L17.4471358,51.8429591 L17.9694355,52.0401813 L18.3495229,52.1823836 L18.6284246,52.1870361 L19.0229107,51.8468024 L19.4049705,51.8241471 L19.7223346,51.9052611 L20.0320062,51.8520616 L20.5221553,51.5423721 L20.6178182,51.3969333 L20.9653605,51.227221 L22.1377733,51.0779389 L22.4803845,51.1920244 L23.3600886,50.7996027 L23.9494509,50.9676967 L24.4711588,50.7779588 L25.6110265,51.0376853 L25.9139919,51.2563492 L26.2526582,51.653828 L26.2940793,51.6556485 L26.671208,51.6631328 L26.5136108,51.9323665 L27.0112551,52.4677997 L27.460772,53.1646517 L27.4911474,53.2566888 L27.8179792,54.2405751 L28.0609827,54.5891022 L28.2310062,55.0755838 L28.2392904,55.3927577 L27.9749847,55.5994871 L27.9315912,55.7174159 L27.9166007,55.7611082 L27.9702509,55.8936011 L28.0700559,55.837772 L28.2600009,55.7299572 L28.4899864,55.6933447 L28.8974905,55.7378461 L29.1665301,55.766772 L29.5913917,55.5505355 L29.8728575,55.4069172 L30.3251359,55.6065669 L30.8221884,55.600903 L31.0308716,55.6961766 L31.6216146,55.9708718 L31.9231992,56 L32.0346416,55.9249544 L32.1056491,55.7518034 L32.0691591,55.5503332 L31.8433158,55.2827178 L31.3440936,54.6884213 L31.1397498,54.3829796 L30.984125,53.9407972 L30.9358004,53.375629 L30.9014801,52.9943326 L30.9634145,52.4932869 L31.0975397,52.314472 L31.1961613,51.9163864 L31.1979365,51.9163864 L31.2233808,51.8122126 L31.5007046,51.4347595 L32.2352378,50.9507053 L33.0242101,50.226141 L33.6478927,49.8043887 L34.2909051,49.5187704 L34.3080652,49.4386678 L34.3796644,49.4682006 L36.015204,48.8979754 L36.0422263,48.8947389 L36.7704477,48.7646734 L41.685745,49.1196735 L41.8679976,49.0632376 L41.8687866,49.0620239 L42.0324983,48.5907132 L42.120666,48.5033286 L42.1792472,48.4462858 L42.7196932,48.202337 L42.9723616,48.1653199 L43.6737579,48.3429211 L43.9609438,48.4155394 L44.4209147,48.1511604 L44.7471547,48.1568242 L45.4211343,47.7793711 L45.8375144,47.7900919 L45.9959006,47.7251603 L46.8069641,47.1274251 L47.5882439,46.8978381 L47.7914043,46.7869891 L47.8630035,46.7467355 L48.6638104,46.3130488 L49.1725002,45.9123336 L49.6115633,45.6730373 L50.0924419,45.5458036 L51.3508527,45.4549802 L51.6039156,45.0225072 L52.1451506,44.948473 L52.4719823,44.5702108 L52.8459552,44.4142535 L53.1140085,44.0181907 L53.3386684,43.6862504 L53.6524821,43.4999512 L54.6584218,43.4352219 L55.8507561,43.586729 L56.0083533,43.4886236 L56.2777874,42.5025122 L56.559845,42.3174267 L57.319428,41.1822355 L57.3219922,40.7685745 L57.3227812,40.4230815 L57.447636,39.9311384 L57.3628215,39.0429302 L57.4634155,38.1435966 L57.9356154,37.0007188 L58.351601,36.5397244 L59.0224247,36.0742798 L59.363458,35.9219636 L59.8465063,35.8386245 L59.8465063,35.8374108 L59.9175138,35.8250718 L60.0405934,35.8034279 L61.7039443,35.7799635 C61.7270217,35.7623652 62.3088887,35.7714678 62.3088887,35.7714678 L62.8635363,35.7637812 L64.2667235,36.0198667 L64.3665285,36.0376673 L64.840898,36.1952428 L65.3880503,36.6315592 L65.967156,37.2116961 L66.0758369,37.3199155 L66.4509932,37.4819412 L66.564408,37.5327133 L66.8742769,37.4819412 L67.3155096,37.2462858 L67.6484559,36.9576333 L68.1023122,36.7033683 L68.1133578,36.687186 L68.3687876,36.293146 L68.3764801,36.2850548 L68.3820029,36.2864708 L68.3825946,36.2842457 L68.3782553,36.2832343 L68.4790465,36.1264679 L69.3561864,35.7759179 L70.3877677,35.714425 L70.5037466,35.6501002 L70.5682451,35.6147014 L70.840835,35.2864021 L71.0962648,35.2841771 L71.7146218,35.5135617 L72.1493455,35.4251657 L72.4945209,35.5665589 L72.7627715,35.5339919 L73.2687,35.4724991 L73.8119074,35.8645162 L74.1284825,35.9059835 L75.2444838,36.5755278 L75.3024733,36.5852372 L75.3324542,36.590901 L75.396361,36.6016218 L75.5287111,36.5613683 L75.7255597,36.5029096 L75.7515957,36.4950207 L75.7764484,36.5302173 L75.9032757,36.7136846 L76.077244,36.7391717 L76.2831658,36.4573967 L76.2013099,36.3295562 L76.1703428,36.283032 L75.7717145,36.1998952 L75.4137184,35.5722227 L75.7545544,35.195781 L75.2198284,34.5230002 L75.131069,34.4115444 L75.1008908,34.364211 L74.9160741,34.0763676 L73.9799585,32.6128772 L72.7606018,31.6146291 L72.7602073,31.6154382 L72.3331761,31.2650906 L72.3304147,31.2630678 L72.1809044,31.1425093 L71.5296078,30.4632556 L71.0645087,29.8301215 L71.0035605,29.6937853 L70.9075032,29.4789648 L70.6287987,28.8563492 L70.1431863,28.4728278 L69.7475167,28.0296339 L69.7281868,28.0035399 L68.9116005,26.8655168 L68.7774752,26.6747675 L68.5845715,26.5604797 L68.1770673,26.5576478 L68.1386049,26.518001 L68.1157247,26.4935253 L68.1295318,26.4785566 L68.3249996,26.2793115 L68.5429532,26.2230779 L68.6368409,26.0027958 L68.2210525,24.7680832 L68.2182911,24.7249977 L68.187324,24.3305532 L68.5261876,22.5393704 L68.5695811,22.3211111 L69.1471088,21.1159313 L69.5049077,20.8153443 L69.895449,20.0280735 L70.2299732,19.5248027 L70.5504932,19.2047969 L70.6065102,19.170814 L71.1852214,18.811566 L71.6714256,18.7413751 L72.1345523,18.6744207 L72.9430517,18.9301017 L73.7124969,18.9147285 L73.8625989,18.8983438 L74.2117191,18.8572812 L74.7858937,18.6717911 L75.0569056,18.5002583 L75.19754,18.279167 L75.4908404,17.2704004 L75.5851226,16.9493832 L75.7659945,16.6006538 L76.8125662,15.3651321 L77.6037082,14.6146761 L79.3826434,13.2770034 L80.2534716,12.7431884 L80.6980575,12.4707183 L84.6677715,10.6611281 L85.6993528,9.58864346 L86.2368401,9.03095956 L87.187749,8.37658618 L88.3003971,7.90911882 L89.257815,7.13196193 L89.4668926,6.8621214 L89.7304094,5.99171377 L89.9499409,5.93730066 L90.1481702,5.49754556 L90.2045817,5.37253698 L90.9858615,4.8077733 L91.0742264,4.76266503 L94.1094028,3.20309198 L94.5504383,3.26519171 L94.7865383,2.90250501 L95.6695955,2.75059329 L95.8321238,2.7222742 L96.0498801,2.61081833 L96.2350914,2.2873738 L96.2350914,2.22345356 L96.2605357,1.35911431 L96.4491001,1.12548177 L96.5518637,0.555863389 L96.6487101,0.424381874 L96.7498958,0.287641099 L97,0.107410284 L96.9566065,0 L96.9566065,0 L96.9597624,0.00707977388 L96.9597624,0.00707977388 Z M96.9597624,0.00707977388" fill="#FFAD2D" id="Shape"/></g></g></g></svg>