<?xml version="1.0" ?><svg height="120px" version="1.1" viewBox="0 0 180 120" width="180px" xmlns="http://www.w3.org/2000/svg" xmlns:sketch="http://www.bohemiancoding.com/sketch/ns" xmlns:xlink="http://www.w3.org/1999/xlink"><title/><defs/><g fill="none" fill-rule="evenodd" id="Asia-Pacific" stroke="none" stroke-width="1"><g id="Timor-Leste" transform="translate(-200.000000, -201.000000)"><g transform="translate(200.000000, 201.000000)"><rect d="M0,0 L0,120 L180,120 L180,0 L0,0 Z M0,0" fill="#CA4638" height="120" id="Rectangle-127" width="180" x="0" y="0"/><polygon d="M0,0 L95.2460937,58.4855972 L0,120 L0,0 Z M0,0" fill="#E5B731" id="Oval-15-copy-3" points="0 0 95.2460937 58.4855972 0 120 "/><polygon d="M0,0 L67.0811961,60 L0,120 L0,0 Z M0,0" fill="#262626" id="Oval-15-copy-2" points="0 0 67.0811961 60 0 120 "/><polygon d="M23.9999997,67 L15.7710071,71.3262384 L17.3426045,62.1631192 L10.6852087,55.6737624 L19.8855046,54.3368801 L24.0000002,46 L28.1144983,54.3368821 L37.3147935,55.6737691 L30.657395,62.163121 L32.2289926,71.3262386 L23.9999997,67 Z M23.9999997,67" fill="#FFFFFF" id="Star-16" points="23.9999997 67 15.7710071 71.3262384 17.3426045 62.1631192 10.6852087 55.6737624 19.8855046 54.3368801 24.0000002 46 28.1144983 54.3368821 37.3147935 55.6737691 30.657395 62.163121 32.2289926 71.3262386 " transform="translate(24.000000, 60.000000) rotate(-30.000000) translate(-24.000000, -60.000000) "/></g></g></g></svg>