<?xml version="1.0" ?><svg height="120px" version="1.1" viewBox="0 0 180 120" width="180px" xmlns="http://www.w3.org/2000/svg" xmlns:sketch="http://www.bohemiancoding.com/sketch/ns" xmlns:xlink="http://www.w3.org/1999/xlink"><title/><defs/><g fill="none" fill-rule="evenodd" id="Africa,-Middle-East-and-India" stroke="none" stroke-width="1"><g id="Africa,-Middle-Eest-and-India" transform="translate(-400.000000, -1201.000000)"><g id="Lebanon" transform="translate(400.000000, 1201.000000)"><rect d="M0.00552383048,0 L0.00552383048,120 L180.005524,120 L180.005524,0 L0.00552383048,0 Z M0.00552383048,0" fill="#FFFFFF" height="120" id="Rectangle-3-copy-3" width="180" x="0.00552383048" y="0"/><rect d="M0.00552366097,90 L0.00552366097,120 L180,120 L180,90 L0.00552366097,90 Z M0.00552366097,90" fill="#CA4638" height="30" id="Rectangle-3-copy-2" width="179.994476" x="0.00552366097" y="90"/><rect d="M0.00276191524,-3.55271368e-15 L0.00276191524,30 L179.997238,30 L179.997238,-3.55271368e-15 L0.00276191524,-3.55271368e-15 Z M0.00276191524,-3.55271368e-15" fill="#CA4638" height="30" id="Rectangle-3" width="179.994476" x="0.00276191524" y="-3.55282271e-15"/><path d="M89.2496672,32 L88.3476298,33.5025362 C87.851532,34.3290674 86.6496082,35.5696804 85.6804488,36.2571892 C84.7112828,36.9446914 83.5431158,37.9683844 83.0781656,38.5324556 L82.2280438,39.5556162 L83.1300812,39.319499 C83.6242452,39.1889334 84.2680158,38.9797618 84.5642568,38.8544278 C84.8605044,38.729096 85.1028828,38.7988118 85.102885,39.0118444 C85.102885,39.0175468 85.1033294,39.027372 85.102885,39.0333054 C85.1017014,39.0453108 85.09931,39.063386 85.0963972,39.0762362 C84.965748,39.6062338 83.4175398,40.8208406 82.1891038,41.3300372 C81.0133204,41.817412 79.270091,43.0898766 79.0417046,43.5981492 C79.0362882,43.6107508 79.0321918,43.6294794 79.0287224,43.64108 C79.0271582,43.6468 79.0233038,43.6570872 79.0222368,43.6625476 C79.0213414,43.6679134 79.0226218,43.6789156 79.0222368,43.6840086 C79.0221664,43.6856828 79.0222478,43.6895284 79.0222368,43.6911652 C79.022228,43.692571 79.0221862,43.696938 79.0222368,43.6983218 C79.0223358,43.6996946 79.0220828,43.7041232 79.0222368,43.7054806 C79.0224458,43.7068138 79.0219706,43.7113128 79.0222368,43.7126328 C79.0235018,43.7178468 79.0266214,43.7291438 79.0287224,43.7340916 C79.0304604,43.7377656 79.0330168,43.7448936 79.0352146,43.7484048 C79.0359978,43.749562 79.040873,43.7544262 79.0417046,43.7555592 C79.0434712,43.7578054 79.04623,43.76054 79.0481946,43.7627136 C79.0492264,43.7637872 79.0536044,43.7688164 79.0546846,43.7698724 C79.0591924,43.7740216 79.0688834,43.7803092 79.074148,43.7841834 C79.2118328,43.8803256 79.5907498,43.894938 80.0281098,43.7984944 C80.795263,43.629321 81.1115196,43.734327 81.364942,44.2564068 C81.7525908,45.055009 81.5303908,45.4155098 80.6381192,45.4155076 C79.5589928,45.4155076 78.022911,46.4992342 77.8151936,47.4117392 C77.6759138,48.0235592 77.0871762,48.5225544 75.8229198,49.1002986 C73.7588468,50.0435376 71.0951792,51.8444356 70.910377,52.3987256 C70.9057108,52.4141498 70.904481,52.435448 70.9038892,52.448813 C70.9038892,53.2345232 72.6423842,53.1797366 75.1609904,52.312864 C75.7256754,52.118505 75.9746076,52.3164258 76.4004814,53.2859372 C76.927674,54.4860856 76.9193404,54.5154776 75.6931308,56.0978276 C74.8368204,57.2028458 74.0839364,57.7726942 73.26606,57.9438036 C71.6365618,58.2847002 71.1300998,58.6156506 69.015451,60.7270764 C68.0034466,61.7375188 66.987612,62.5736816 66.7571048,62.5802046 C66.6667288,62.5827588 66.606693,62.5964516 66.5754024,62.6231288 C66.5743838,62.6240792 66.5698606,62.629313 66.5689124,62.6302876 C66.5680236,62.6312776 66.5632452,62.6364256 66.5624202,62.6374376 C66.5617206,62.6385024 66.5565704,62.6435118 66.5559346,62.6445964 C66.555356,62.6457052 66.556445,62.65062 66.5559346,62.6517552 C66.5554748,62.6529058 66.549834,62.657726 66.5494424,62.6589096 C66.5491058,62.6601086 66.5497196,62.6648342 66.5494424,62.6660618 C66.549229,62.6673092 66.5495964,62.671949 66.5494424,62.6732184 C66.5493434,62.6745032 66.549482,62.6790616 66.5494424,62.680375 C66.5494776,62.683026 66.5491828,62.6919426 66.5494424,62.6946794 C66.5496272,62.6960654 66.5491982,62.700428 66.5494424,62.7018382 C66.5506326,62.7075406 66.553871,62.7172954 66.5559346,62.7232992 C66.5570742,62.726344 66.5610716,62.7345038 66.5624202,62.7376102 C66.5638722,62.740754 66.5672492,62.7487092 66.5689124,62.7519212 C66.7390098,63.0648448 67.8552788,63.6820636 68.4833062,63.6820636 C68.9429214,63.6820636 70.0630008,63.156653 70.9687826,62.5158106 C72.5583772,61.3911772 72.6369832,61.3743318 73.27904,62.014963 C73.6448934,62.380009 73.9474594,63.0877028 73.9474594,63.5818932 C73.9474594,64.3351754 73.5426572,64.679471 71.455493,65.742687 C69.911225,66.5293432 68.0976528,67.8814544 66.6792358,69.29869 C64.7728522,71.203483 64.2320064,71.5548626 63.421511,71.4237052 C62.9097954,71.3408994 62.6236678,71.3063506 62.5324492,71.3593112 C62.529532,71.3612494 62.521931,71.3643008 62.519467,71.3664656 C62.5183538,71.3676074 62.513989,71.372421 62.5129792,71.3736156 C62.512086,71.374874 62.5072724,71.3794632 62.5064958,71.3807766 C62.5031386,71.387645 62.5005998,71.4010012 62.5000014,71.4093964 C62.4994338,71.506907 62.6715706,71.7058838 62.9802218,72.046182 C63.2724742,72.3684072 63.950732,72.6328956 64.4857852,72.6328912 C65.945461,72.6328912 70.5596002,70.9131204 71.9811412,69.8424618 C73.3009278,68.8484468 74.5840404,68.6567476 75.647703,69.284379 C77.2932788,70.2553732 74.5415936,72.2106364 69.3593946,73.7562178 C67.4530132,74.3247858 65.8011366,74.8781166 65.5889928,75.0154846 C65.5859282,75.0176054 65.5783228,75.020736 65.5760194,75.0226368 C65.5750624,75.0235344 65.5702862,75.0289574 65.5695272,75.0297934 C65.5688188,75.0306866 65.5637192,75.0360194 65.5630394,75.03695 C65.5623838,75.0379026 65.563673,75.0431276 65.5630394,75.0441 C65.4888488,75.166948 65.5983978,75.4903392 65.8226196,75.7882148 C66.3637096,76.5070428 69.08661,76.541728 71.4100674,75.8526154 C72.339959,75.5768168 74.6557736,74.6398896 76.5562326,73.7776788 C80.0033114,72.2137956 80.0160956,72.2165236 81.222173,72.8475364 C84.0245616,74.3137264 83.7656458,76.879329 80.3980068,81.0971822 C78.931434,82.9340238 77.630233,83.7532994 75.2648238,84.3312108 C74.3897078,84.5450156 72.5911528,86.2396514 72.5911528,86.8497532 C72.5911528,86.9099716 72.602892,86.9575026 72.6171128,87 L73.2206366,87 C73.3531888,86.9031692 73.4885328,86.7636276 73.6229836,86.5850162 C74.3686186,85.5944552 75.872378,84.9336324 77.3933722,84.9250744 C79.046054,84.9157662 81.070692,84.0082376 82.5914508,82.592564 C83.9275328,81.3488072 85.2696758,80.978061 86.2839726,81.5765622 C86.8458922,81.9081286 87.3571282,81.9412122 88.0361318,81.6838826 C89.2435732,81.2263068 89.8402066,81.4474816 89.8402088,82.3492946 C89.8402088,82.7548426 90.2651608,83.2988146 90.846084,83.630029 C91.4015114,83.9467036 92.3925828,84.7218076 93.046018,85.354367 C93.5436888,85.8361362 93.9063148,86.0561626 94.0973166,86.055551 C94.104603,86.0553574 94.116494,86.0564222 94.12327,86.055551 C94.1282596,86.0547766 94.1380452,86.0567104 94.14274,86.055551 C94.145809,86.054693 94.1527808,86.0494196 94.1557178,86.0484032 C94.1585888,86.0472944 94.1659632,86.0425138 94.1686978,86.0412422 C94.1767212,86.0371722 94.1878224,86.032484 94.1946534,86.026929 C94.1957644,86.0259654 94.2000698,86.0207844 94.2011478,86.019779 C94.202184,86.0187296 94.2066302,86.0137158 94.2076378,86.0126224 C94.2086058,86.0114938 94.213184,86.0066362 94.2141256,86.0054658 C94.2150298,86.0042558 94.21974,85.9995632 94.2206178,85.9983114 C94.223128,85.9944306 94.2248946,85.988253 94.2271056,85.9840004 C94.2285136,85.9810876 94.2323262,85.9727694 94.2335934,85.9696916 C94.2347946,85.9665368 94.2390186,85.9587026 94.2400834,85.9553806 C94.2415816,85.950292 94.2453854,85.9393756 94.2465712,85.9339174 C94.2480188,85.9264836 94.245678,85.913365 94.2465712,85.9052998 C94.2659708,85.6934728 94.1018618,85.267126 93.7209208,84.667494 C93.4970268,84.315065 93.3830008,83.9637954 93.4159216,83.787439 C93.4176772,83.778958 93.4199168,83.7664268 93.4224072,83.7588192 C93.423461,83.7558448 93.4277268,83.7473374 93.4288994,83.7445104 C93.4295154,83.743131 93.4282504,83.7386892 93.4288994,83.7373516 C93.4295726,83.7360514 93.434681,83.7314644 93.4353894,83.7301972 C93.43907,83.7240614 93.4439188,83.713893 93.448365,83.7087318 C93.4492868,83.7077396 93.4539046,83.7025278 93.4548528,83.7015796 C93.4577986,83.698845 93.4646142,83.6967858 93.4678328,83.6944208 C93.4689394,83.6936772 93.4730952,83.687999 93.4743228,83.6872664 C93.4770266,83.6858386 93.484115,83.6814716 93.4873006,83.6801098 C93.6981332,83.598569 94.8153504,83.6401446 96.0376704,83.7802824 C98.1877656,84.0267792 98.4483908,84.1560182 99.7172078,85.6262562 C100.343801,86.352309 100.857967,86.8084328 101.274687,87 L102.137789,87 C102.321792,86.9171436 102.451601,86.7971138 102.48173,86.67803 C102.482476,86.6748136 102.487626,86.6669398 102.488218,86.663719 C102.488999,86.65889 102.487784,86.647087 102.488218,86.6422558 C102.488431,86.6390394 102.488158,86.631159 102.488218,86.6279514 C102.488198,86.6247394 102.488394,86.6168458 102.488218,86.6136382 C102.488156,86.6128352 102.488323,86.6073132 102.488218,86.6064794 C102.487943,86.6047546 102.488662,86.6011796 102.488218,86.5993272 C102.41432,86.3524014 101.141169,85.1411672 99.6133788,83.8661418 C96.1411056,80.9683458 95.6087056,79.9093802 95.5963856,75.8955418 C95.58902,73.4951174 95.7029558,72.8802944 96.2648028,72.2608294 C97.1400398,71.2958456 97.6208014,71.3191678 99.7691278,72.4397004 C101.391505,73.285915 101.895527,73.3565812 105.583706,73.2768334 C109.544588,73.1911896 109.660506,73.2159242 111.651376,74.385849 C112.767251,75.041581 114.130519,75.9197198 114.688459,76.3391498 C115.92014,77.265055 117.170829,77.3302168 117.465956,76.4822488 C117.814496,75.4808264 115.473018,73.538475 111.07381,71.1947468 C106.699167,68.8640998 106.240945,68.212385 108.257375,67.1522028 C109.404279,66.5492092 109.483723,66.5606404 111.300943,67.5743476 C112.757655,68.3869484 113.423885,68.561646 114.357493,68.3685498 L115.551563,68.1181238 L112.923313,65.9644866 C111.478194,64.780275 110.080279,63.5240266 109.814851,63.1669116 C109.047379,62.134313 107.562975,61.449728 106.102866,61.4497214 C105.418668,61.4497214 104.779527,61.3185684 104.603793,61.156369 C104.598106,61.1508492 104.588921,61.1404982 104.584323,61.1349036 C104.583243,61.1335044 104.578847,61.1291594 104.577835,61.1277536 C104.575958,61.1249244 104.57294,61.1162806 104.571347,61.1134426 C104.160686,60.3808382 105.397381,60.0329588 108.847918,59.8970978 C113.496532,59.7140732 114.136039,59.172409 110.931041,58.13699 C109.651255,57.7235352 107.73359,57.2003048 106.667448,56.9707282 C105.367505,56.6908068 104.64688,56.3856338 104.467514,56.0334336 C104.447841,55.9932902 104.434417,55.9462344 104.428583,55.9046434 C104.424812,55.8739424 104.4249,55.8360166 104.428583,55.8044774 C104.444493,55.6848502 104.515553,55.5583282 104.636243,55.4252656 C104.854549,55.184568 105.897573,55.2114168 107.673321,55.5111228 C109.663859,55.8470914 110.75344,55.9223446 110.950511,55.6900004 C111.15554,55.4228148 110.238169,54.7575854 108.211947,53.6365314 C106.365859,52.6151352 104.036019,50.9621784 102.974933,49.9159618 C101.923421,48.8791854 100.361482,47.6998842 99.5095476,47.2972556 C98.3851056,46.765839 98.0209726,46.4052502 98.166221,45.9879014 C98.4196148,45.2598752 100.188956,45.2524744 101.333095,45.9735926 C101.798038,46.2666326 103.016326,46.503093 104.039207,46.4959012 L105.901694,46.481588 L104.668688,45.9807492 C103.437153,45.4812656 100.08712,43.0984962 99.827529,42.5606886 C99.822766,42.5500626 99.8167028,42.5339718 99.8145534,42.5249144 C99.8139022,42.5214164 99.814769,42.5138374 99.8145534,42.5106056 C99.8145534,42.5096244 99.81445,42.5044148 99.8145534,42.503449 C99.8147558,42.5024876 99.8142498,42.497245 99.8145534,42.4962968 C99.8150528,42.4953596 99.8204406,42.4900642 99.8210412,42.4891358 C99.8224426,42.4873054 99.8257426,42.4837766 99.827529,42.4819792 C99.8285234,42.4810926 99.8329344,42.4757136 99.8340234,42.4748292 C99.971046,42.373627 100.743558,42.3303794 101.670548,42.3818176 L103.533029,42.4891358 L100.85287,40.4213624 C98.886523,38.9062158 97.6747696,38.2540148 96.2907584,37.960064 C95.2535992,37.739778 94.0645784,37.4779252 93.6495396,37.3805136 C92.5380028,37.1196222 90.6713336,35.1740918 89.9115944,33.4810752 L89.2496672,32 L89.2496672,32 L89.2496672,32 L89.2496672,32 Z M83.1430612,42.4318962 C83.1836028,42.43042 83.2280252,42.4318962 83.2728502,42.4318962 C83.6183954,42.4318962 83.8695166,42.5161408 83.973713,42.646548 C83.9760604,42.6496016 83.9845128,42.6577438 83.9866908,42.6608568 C83.9887984,42.6639962 83.9912448,42.6719734 83.993183,42.6751656 C84.0043348,42.6944618 84.0140258,42.7185078 84.0191408,42.7395574 C84.0202914,42.7448594 84.0248674,42.7556262 84.025633,42.761025 C84.0264756,42.7682696 84.0254966,42.7822176 84.025633,42.789647 C84.0255978,42.795246 84.0260664,42.8054166 84.025633,42.811108 C84.0246782,42.8206472 84.021233,42.8370922 84.0191408,42.8468778 C84.017746,42.8527826 84.0144592,42.8623636 84.012653,42.8683498 C83.9404644,43.1071158 83.5513196,43.5425464 83.1430612,43.841423 C82.8309538,44.0698996 82.6446798,44.1942392 82.5395396,44.1777018 C82.5323478,44.1762014 82.5200498,44.1734294 82.5135818,44.1705518 C82.5104292,44.1689282 82.5035784,44.1653598 82.5006018,44.1633952 C82.4948136,44.1591118 82.4862688,44.147641 82.481134,44.1419254 C82.410129,44.0554456 82.3967684,43.8231366 82.3967684,43.4121216 C82.3967684,42.6597326 82.5349416,42.4540568 83.1430612,42.4318962 C83.1430612,42.4318962 82.5349416,42.4540568 83.1430612,42.4318962 L83.1430612,42.4318962 L83.1430612,42.4318962 Z M92.182914,43.3620408 C92.1910716,43.3619242 92.1941428,43.3620408 92.202384,43.3620408 C92.7298274,43.3620408 93.0844564,43.608718 93.1563414,44.0202918 C93.2453798,44.530045 93.0337178,44.6713972 92.202384,44.6713928 C91.7347608,44.6713928 91.4639672,44.6227442 91.33279,44.4925218 C91.2355258,44.3912316 91.216663,44.2393282 91.2549188,44.0202918 C91.325684,43.6151442 91.6691722,43.3694284 92.182914,43.3620408 C92.182914,43.3620408 91.6691722,43.3694284 92.182914,43.3620408 L92.182914,43.3620408 L92.182914,43.3620408 Z M89.5352074,43.5838448 C89.9935532,43.5481674 90.1776646,43.8193306 90.1776646,44.3995036 C90.1776646,45.0978518 89.9105758,45.3155308 88.6526356,45.6373094 C87.859122,45.8402924 87.1315116,45.9335768 86.9783476,45.8591178 C86.9747858,45.8571972 86.9682166,45.854082 86.9653698,45.851959 C86.9645008,45.8512264 86.9596674,45.8455614 86.9588798,45.844798 C86.5233942,45.3646656 86.9051008,44.7484764 87.9907062,44.1777018 C88.6890522,43.8105394 89.1898778,43.6107266 89.5352074,43.5838448 C89.5352074,43.5838448 89.1898778,43.6107266 89.5352074,43.5838448 L89.5352074,43.5838448 L89.5352074,43.5838448 Z M95.6288378,43.5910014 C96.3003922,43.5688056 96.3852396,43.8861226 96.057136,44.8288028 C95.9442518,45.153151 95.476809,45.4155098 95.0188218,45.4155076 C94.3486974,45.4155076 94.2050418,45.2534446 94.2919968,44.578379 C94.3693664,43.9777658 94.6645074,43.7040836 95.3303154,43.619619 C95.440652,43.6056204 95.5396872,43.593945 95.6288378,43.5910014 C95.6288378,43.5910014 95.5396872,43.593945 95.6288378,43.5910014 L95.6288378,43.5910014 L95.6288378,43.5910014 Z M85.3494852,45.4155076 C85.3725918,45.4135188 85.398961,45.4155076 85.4208708,45.4155076 C86.2353944,45.4155076 85.7274188,46.9516048 84.681068,47.6550042 C83.7492932,48.2813728 82.7590138,48.5502348 82.481134,48.3061074 C82.4798778,48.3049502 82.4758672,48.3001234 82.474644,48.2989486 C82.4567294,48.2810032 82.4399148,48.2575226 82.4292184,48.2345546 C82.4278566,48.231446 82.4239538,48.2234402 82.4227262,48.2202414 C82.4209926,48.2153816 82.4176662,48.2038448 82.4162428,48.1987782 C82.415354,48.1953506 82.4104964,48.1879872 82.4097484,48.1844716 C82.4087386,48.1791256 82.4104458,48.1685502 82.4097484,48.163004 C82.4087584,48.1536386 82.4033508,48.1371716 82.4032606,48.1272276 C82.4032804,48.1252124 82.4032078,48.1221104 82.4032606,48.1200732 C82.4258194,47.2810416 84.3869808,45.4983926 85.3494852,45.4155076 C85.3494852,45.4155076 84.3869808,45.4983926 85.3494852,45.4155076 L85.3494852,45.4155076 L85.3494852,45.4155076 Z M93.0005902,48.971515 C93.388624,48.924666 93.6346368,49.3501856 93.500285,50.1306136 C93.425474,50.565162 93.0375678,50.8650396 92.4554764,50.939118 C92.0106056,50.9957306 91.7363954,50.9758712 91.6313124,50.8532564 C91.6303312,50.8520618 91.6257684,50.8473252 91.6248224,50.8461042 C91.6202332,50.8399134 91.6156594,50.8313202 91.611838,50.8246366 C91.6103772,50.8219262 91.60669,50.8131218 91.605348,50.8103322 C91.6047144,50.8089154 91.5994696,50.80461 91.5988602,50.8031756 C91.5959738,50.795898 91.594491,50.7823372 91.5923724,50.774558 C91.5404832,50.5662774 91.7541428,50.178996 92.2283418,49.551061 C92.5027544,49.187687 92.7754356,48.9986894 93.0005902,48.971515 C93.0005902,48.971515 92.7754356,48.9986894 93.0005902,48.971515 L93.0005902,48.971515 L93.0005902,48.971515 Z M89.9570178,49.1432272 C89.975874,49.1417708 89.9929438,49.1432272 90.0089378,49.1432272 C90.7882988,49.1432272 90.9143852,49.829526 90.2101124,50.2450884 C89.8850822,50.4368778 89.5693404,50.5801572 89.4638218,50.5956826 C89.4603722,50.5960654 89.4537678,50.6027886 89.4508418,50.602837 C89.448182,50.6027182 89.4399782,50.5961468 89.4378618,50.5956826 C89.3791416,50.5752424 88.9488568,50.4366974 88.4839088,50.280867 L87.640277,49.994669 L88.5942278,49.5653698 C89.0850522,49.3461662 89.6742012,49.1650996 89.9570178,49.1432272 C89.9570178,49.1432272 89.6742012,49.1650996 89.9570178,49.1432272 L89.9570178,49.1432272 L89.9570178,49.1432272 Z M96.5178908,50.0018234 C96.886228,49.9822874 97.2848988,50.0537764 97.6730184,50.2164686 C98.3773858,50.5117306 98.5143006,50.7677116 98.3803756,51.5401338 C98.1985126,52.589041 97.6257778,52.7068906 95.6677712,52.08391 C94.7059026,51.7778658 94.6069752,51.6309014 94.9149884,50.9963554 C95.2088424,50.3909836 95.8147026,50.0391112 96.5178908,50.0018234 C96.5178908,50.0018234 95.8147026,50.0391112 96.5178908,50.0018234 L96.5178908,50.0018234 L96.5178908,50.0018234 Z M81.9944192,50.259395 C82.0165006,50.2591684 82.036646,50.259395 82.059317,50.259395 C83.4841382,50.259395 83.6807016,50.507093 82.9873166,51.4185024 C82.754836,51.7240648 82.3134016,52.1893186 82.0009092,52.448813 C81.5233508,52.8453696 81.376954,52.8032858 81.0729162,52.1769216 C80.711014,51.431368 80.598121,50.9409044 80.7744004,50.6457678 C80.9372378,50.3822892 81.3375102,50.2662348 81.9944192,50.259395 C81.9944192,50.259395 81.3375102,50.2662348 81.9944192,50.259395 L81.9944192,50.259395 L81.9944192,50.259395 Z M78.2434962,50.889035 C78.8512,50.8725614 79.2256708,51.1595404 79.7101218,51.9908984 L80.391519,53.1643014 L79.3726682,53.557822 C78.4427678,53.9152318 78.2862642,53.8478216 77.5166712,52.7636308 C77.031602,52.080258 76.8460584,51.6270316 76.9780518,51.3397974 C76.9902002,51.3144732 77.0062294,51.2839548 77.0234774,51.261088 C77.027895,51.2554252 77.0382064,51.2451446 77.042943,51.2396248 C77.0477896,51.2341578 77.057243,51.2234834 77.0624108,51.2181572 C77.2364286,51.0441526 77.586618,50.949634 78.1201972,50.9033482 C78.162941,50.8996324 78.2029832,50.8901328 78.2434962,50.889035 C78.2434962,50.889035 78.2029832,50.8901328 78.2434962,50.889035 L78.2434962,50.889035 L78.2434962,50.889035 Z M100.684147,54.4021094 C101.359253,54.3475252 102.048484,54.8230816 101.949594,55.5898256 C101.823983,56.5637414 100.760188,56.8455768 99.8859346,56.1407584 C99.3638284,55.7198324 99.344574,55.5638326 99.74966,54.9530378 C99.9816896,54.6031806 100.330519,54.430694 100.684147,54.4021094 C100.684147,54.4021094 100.330519,54.430694 100.684147,54.4021094 L100.684147,54.4021094 L100.684147,54.4021094 Z M87.9452806,56.22662 C87.9701208,56.2250316 87.9971214,56.22662 88.0231584,56.22662 C88.080211,56.22662 88.1332288,56.2386958 88.178903,56.2552354 C88.2076328,56.2662354 88.2392204,56.2806146 88.2632664,56.298164 C88.270038,56.3033142 88.2828332,56.3139556 88.2892242,56.3196338 C88.2923746,56.3225356 88.2991528,56.3309044 88.302202,56.3339426 C88.3052028,56.3370424 88.3122758,56.3450152 88.3151798,56.3482536 C88.3180376,56.351547 88.3253988,56.3591326 88.3281576,56.3625646 C88.4311484,56.4953104 88.4671998,56.722676 88.425501,57.0351266 C88.2915342,58.0389404 87.6267954,58.333472 87.341759,57.5145066 C87.087263,56.7832992 87.3343076,56.2656832 87.9452806,56.22662 C87.9452806,56.22662 87.3343076,56.2656832 87.9452806,56.22662 L87.9452806,56.22662 L87.9452806,56.22662 Z M83.6881772,56.999348 C83.9742168,56.960529 84.4440554,57.1506838 84.9146882,57.5431286 C85.2345242,57.809817 85.3670478,58.0686228 85.3624674,58.2586236 C85.3617502,58.2761576 85.3589848,58.299471 85.355973,58.315861 C85.3539204,58.3260118 85.3524068,58.3419618 85.3494852,58.351633 C85.3470168,58.3592934 85.3395148,58.3729114 85.3365052,58.3802528 C85.3317928,58.3911428 85.3229246,58.4058938 85.3170418,58.4160314 C85.3150112,58.4193644 85.3127034,58.4270864 85.3105518,58.4303424 C85.308332,58.4335456 85.2999126,58.4415294 85.2975718,58.4446512 C85.2867522,58.4584738 85.2718912,58.475636 85.2586318,58.4875754 C85.2556266,58.4901824 85.2487758,58.4993784 85.2456518,58.5018842 C85.0501246,58.65322 84.6358448,58.6174546 84.1619098,58.2514626 C83.7702878,57.9490374 83.4451058,57.5536666 83.4156192,57.34994 C83.4152078,57.3466576 83.415859,57.338819 83.4156192,57.3356334 C83.4154542,57.3325006 83.4156192,57.3243474 83.4156192,57.3213202 C83.4156192,57.1273286 83.5165508,57.0226416 83.6881772,56.999348 C83.6881772,56.999348 83.5165508,57.0226416 83.6881772,56.999348 L83.6881772,56.999348 L83.6881772,56.999348 Z M90.4567148,57.142447 C90.5888006,57.1310224 90.7258848,57.2603516 90.9564008,57.5145066 C91.2457052,57.8334692 91.5855304,58.4444092 91.7091858,58.8739416 C92.0062826,59.9060298 91.5368708,60.3371726 90.6189472,59.8684802 C89.633411,59.365261 89.3937452,58.5687928 89.96351,57.6719122 C90.1810086,57.329557 90.3161018,57.1546152 90.4567148,57.142447 C90.4567148,57.142447 90.3161018,57.1546152 90.4567148,57.142447 L90.4567148,57.142447 L90.4567148,57.142447 Z M92.8188878,58.5448172 C93.0694282,58.5106006 93.4094008,58.8855554 93.4937928,59.5178882 C93.5430068,59.8866544 93.4918128,60.2009926 93.3769816,60.297775 C93.375886,60.2986484 93.371596,60.3040978 93.3704938,60.3049272 C93.367141,60.307323 93.360959,60.310051 93.3575116,60.3120882 C93.352874,60.3146336 93.3428486,60.3173506 93.3380438,60.3192404 C93.3368294,60.3196716 93.3327792,60.326012 93.3315538,60.3263992 C93.330324,60.3267424 93.3263068,60.3260934 93.325066,60.3263992 C93.3225602,60.3269206 93.3146314,60.3260472 93.3120838,60.3263992 C93.310799,60.3265246 93.3068896,60.326309 93.3056004,60.3263992 C93.3042958,60.3264388 93.3004194,60.3263992 93.299106,60.3263992 C92.8162214,60.3263992 92.5398354,59.8909752 92.5398354,59.117211 C92.5398354,58.7470764 92.663482,58.5660362 92.8188878,58.5448172 C92.8188878,58.5448172 92.663482,58.5660362 92.8188878,58.5448172 L92.8188878,58.5448172 L92.8188878,58.5448172 Z M77.9839204,60.0330446 C78.4808344,60.0325232 78.9168634,60.0595238 79.2039414,60.1189062 C79.6778148,60.2169184 79.9930088,60.3522822 80.144921,60.512429 C80.1770212,60.5473078 80.2058126,60.5892486 80.22279,60.6269038 C80.2308618,60.6458084 80.2379678,60.6717134 80.2422578,60.6912978 C80.2500018,60.7306184 80.2496366,60.77809 80.2422578,60.820088 C80.185665,61.1104176 79.7689498,61.4645912 78.996279,61.8718618 C78.3554828,62.2096212 77.2712832,62.5992874 76.5821904,62.7304514 C75.437999,62.9482558 75.2810994,62.8674762 74.8040668,61.8503942 C74.5212678,61.2474314 74.2920982,60.6736868 74.284913,60.5625098 C74.284913,60.561137 74.2847942,60.5567238 74.284913,60.5553532 C74.2853618,60.552612 74.2840088,60.5437834 74.284913,60.5410422 C74.2854718,60.5396782 74.2907298,60.5352562 74.2914008,60.5338878 C74.2929584,60.5311576 74.2958976,60.5223048 74.2978908,60.5195812 C74.2989908,60.5182172 74.3031708,60.5137886 74.3043808,60.512429 C74.5435142,60.2649554 76.5252258,60.0345736 77.9839204,60.0330446 C77.9839204,60.0330446 76.5252258,60.0345736 77.9839204,60.0330446 L77.9839204,60.0330446 L77.9839204,60.0330446 Z M100.995639,63.3815546 C102.328106,63.3226628 103.047051,64.2238642 101.599165,65.3420032 C100.667689,66.0613372 99.299947,66.0902078 98.4517634,65.4063994 C97.8414856,64.914398 97.8725958,64.8439958 98.983895,64.0970496 C99.6865684,63.6247624 100.400919,63.407838 100.995639,63.3815546 C100.995639,63.3815546 100.400919,63.407838 100.995639,63.3815546 L100.995639,63.3815546 L100.995639,63.3815546 Z M105.849774,64.4333284 C105.87338,64.4304354 105.899784,64.433412 105.921164,64.4333284 C106.118086,64.4325606 106.572513,64.6645902 106.933518,64.9556436 C107.576543,65.4740494 107.574354,65.508508 106.771288,66.451021 C106.355633,66.9388336 105.931915,67.3213542 105.784876,67.3525436 C105.783675,67.3527548 105.779559,67.352383 105.778393,67.3525436 C105.777262,67.3526558 105.772985,67.3524886 105.7719,67.3525436 C105.77086,67.3525568 105.766416,67.3525898 105.76541,67.3525436 C105.764447,67.3524468 105.75984,67.3526932 105.758923,67.3525436 C105.651853,67.3197306 105.065456,67.2277486 104.461024,67.1450506 C103.788616,67.053051 103.3643,66.7820902 103.364302,66.451021 C103.364302,66.436314 103.368053,66.4170046 103.370792,66.400938 C103.47767,65.8436758 105.141684,64.520136 105.849774,64.4333284 C105.849774,64.4333284 105.141684,64.520136 105.849774,64.4333284 L105.849774,64.4333284 L105.849774,64.4333284 Z M81.4428176,65.921558 C81.5046156,65.9180952 81.5783662,65.921558 81.6569678,65.921558 C82.5731556,65.921558 83.0781656,66.6756784 83.0781656,68.0465754 C83.0781656,69.8886178 81.9550568,69.7408218 81.4363232,67.831928 C80.9846962,66.1699534 80.939583,65.9497642 81.4428176,65.921558 C81.4428176,65.921558 80.939583,65.9497642 81.4428176,65.921558 L81.4428176,65.921558 L81.4428176,65.921558 Z M88.419011,66.443871 C88.9713738,66.4263392 90.3082148,66.7345922 90.4826704,66.9447142 C90.4834778,66.9457548 90.488408,66.9508346 90.4891582,66.951873 C90.489794,66.9528938 90.4950784,66.9580044 90.4956482,66.9590208 C90.4961608,66.9600416 90.4951928,66.9651676 90.4956482,66.9661774 C90.4960442,66.9671828 90.5018104,66.9723286 90.5021404,66.973334 C90.5023428,66.974324 90.5019952,66.9795094 90.5021404,66.9804884 C90.5022174,66.9814652 90.5021228,66.9866748 90.5021404,66.9876428 C90.5020876,66.9886614 90.5022328,66.9937236 90.5021404,66.9947994 C90.4846768,67.137245 90.1271108,67.7177744 89.697442,68.2969948 L88.9057258,69.3630818 L88.4903988,67.9893336 C88.285328,67.304258 88.1591096,66.6871162 88.1853908,66.5297304 C88.1856416,66.5284368 88.1851202,66.5237926 88.1853908,66.5225716 C88.1859848,66.5202726 88.1911988,66.5174346 88.1918764,66.5154128 C88.1922482,66.5144778 88.1914936,66.5091318 88.1918764,66.5082628 C88.1927058,66.5066722 88.1974512,66.5024108 88.1983708,66.5011018 C88.1999922,66.4995002 88.2030106,66.495483 88.2048586,66.4939518 C88.2058398,66.4932082 88.2103124,66.4875234 88.2113508,66.4867974 C88.2124464,66.4860912 88.216688,66.487486 88.2178408,66.4867974 C88.2190442,66.4861286 88.2230746,66.480292 88.2243286,66.479643 C88.2269554,66.4783846 88.2344662,66.47367 88.2373064,66.4724886 C88.2785278,66.4564902 88.342066,66.4463108 88.419011,66.443871 C88.419011,66.443871 88.342066,66.4463108 88.419011,66.443871 L88.419011,66.443871 L88.419011,66.443871 Z M85.0250116,67.0520346 C85.1250742,67.0421324 85.2817846,67.0680748 85.4987442,67.1021198 C85.9336468,67.1703748 86.3340204,67.5317974 86.4007838,67.917783 C86.481823,68.3863192 86.4368264,68.7133822 86.322906,68.8837084 C86.3139234,68.8966796 86.3002878,68.915538 86.2904626,68.9266326 C86.2790996,68.9390076 86.2639108,68.9525002 86.2515248,68.9624046 C86.2468366,68.9659994 86.2368816,68.9734684 86.2320592,68.97672 C86.2093288,68.9913258 86.1796002,69.0055554 86.1541836,69.0124898 C86.1432144,69.0152266 86.1266528,69.018333 86.1152458,69.0196508 C86.0961124,69.0214416 86.0705748,69.021831 86.050348,69.0196508 C85.8247182,68.990965 85.5327122,68.7110546 85.2781018,68.1682068 C84.9846372,67.5425246 84.8499048,67.2459316 84.9017126,67.1235852 C84.90593,67.1149634 84.9149016,67.101792 84.9211782,67.0949698 C84.9439284,67.0729368 84.9777578,67.056714 85.0250116,67.0520346 C85.0250116,67.0520346 84.9777578,67.056714 85.0250116,67.0520346 L85.0250116,67.0520346 L85.0250116,67.0520346 Z M85.0250116,67.0520346" fill="#00A651" id="Shape"/></g></g></g></svg>