<?xml version="1.0" ?><svg height="120px" version="1.1" viewBox="0 0 180 120" width="180px" xmlns="http://www.w3.org/2000/svg" xmlns:sketch="http://www.bohemiancoding.com/sketch/ns" xmlns:xlink="http://www.w3.org/1999/xlink"><title/><defs/><g fill="none" fill-rule="evenodd" id="Asia-Pacific" stroke="none" stroke-width="1"><g id="SG" transform="translate(-600.000000, -601.000000)"><g transform="translate(600.000000, 601.000000)"><rect d="M0,0 L0,120 L180,120 L180,0 L0,0 Z M0,0" fill="#FFFFFF" height="120" id="Oval-15-copy" width="180" x="0" y="0"/><rect d="M0,0 L0,60 L180,60 L180,0 L0,0 Z M0,0" fill="#CA4638" height="60" id="Oval-15-copy-2" width="180" x="0" y="0"/><path d="M37.5,51.729414 C36.3601851,51.9074876 35.1911475,52 34,52 C21.8497349,52 12,42.3741227 12,30.5 C12,18.6258773 21.8497349,9 34,9 C35.1911475,9 36.3601851,9.0925124 37.5,9.27058604 C27.0131672,10.9089473 19,19.7899533 19,30.5 C19,41.2100467 27.0131672,50.0910527 37.5,51.729414 L37.5,51.729414 Z M41.4999995,20.4626163 L38.7188472,21.9999999 L39.2499999,18.7437694 L37,16.4376941 L40.1094237,15.962616 L41.4999997,13 L42.8905765,15.9626168 L46,16.4376965 L43.7499992,18.74377 L44.281152,22 L41.4999995,20.4626163 Z M52.6823844,27.4154983 L50.3608222,25.2455429 L53.6218168,24.7444686 L55.1197365,21.8919751 L56.5324273,24.7024056 L59.7797542,25.1094232 L57.3918501,27.3474393 L57.9008872,30.4514845 L55.0123925,29.0242225 L52.0796689,30.5356092 L52.6823844,27.4154983 Z M48.7586182,39.1031928 L50.1049663,36.224703 L51.5892191,39.1712526 L54.7649842,39.7143899 L52.5286515,41.9264095 L53.1450339,45.1405763 L50.2786512,43.5611295 L47.4838299,45.0044552 L47.9486428,41.8162853 L45.6049671,39.4941437 L48.7586182,39.1031928 Z M35.2413825,39.1031934 L38.3950335,39.4941442 L36.0513576,41.8162864 L36.5161687,45.0044571 L33.7213482,43.56113 L30.8549666,45.1405767 L31.4713488,41.9264088 L29.2350172,39.714388 L32.410782,39.1712526 L33.8950344,36.2247034 L35.2413825,39.1031934 Z M31.3176154,27.4154992 L31.9203308,30.53561 L28.9876067,29.0242232 L26.0991106,30.4514838 L26.6081493,27.3474389 L24.2202456,25.1094238 L27.4675734,24.7024056 L28.8802658,21.8919758 L30.3781835,24.7444696 L33.6391776,25.2455437 L31.3176154,27.4154992 Z M31.3176154,27.4154992" fill="#FFFFFF" id="Oval-148"/></g></g></g></svg>