<?xml version="1.0" ?><svg height="120px" version="1.1" viewBox="0 0 180 120" width="180px" xmlns="http://www.w3.org/2000/svg" xmlns:sketch="http://www.bohemiancoding.com/sketch/ns" xmlns:xlink="http://www.w3.org/1999/xlink"><title/><defs/><g fill="none" fill-rule="evenodd" id="Page-1" stroke="none" stroke-width="1"><g id="ethiopia"><rect d="M0,0 L0,120 L180,120 L180,0 L0,0 Z M0,0" fill="#E5B731" height="120" id="Rectangle-57" width="180" x="0" y="0"/><rect d="M0,0 L0,40 L180,40 L180,0 L0,0 Z M0,0" fill="#479951" height="40" id="Rectangle-57" width="180" x="0" y="0"/><rect d="M0,80 L0,120 L180,120 L180,80 L0,80 Z M0,80" fill="#CA4638" height="40" id="Rectangle-57" width="180" x="0" y="80"/><g id="Oval-+-path12-+-Rectangle" transform="translate(59.500000, 29.333333)"><ellipse cx="31" cy="31" d="M31,62 C48.1208281,62 62,48.1208281 62,31 C62,13.8791719 48.1208281,0 31,0 C13.8791719,0 0,13.8791719 0,31 C0,48.1208281 13.8791719,62 31,62 Z M31,62" fill="#4086CD" id="Oval" rx="31" ry="31"/><path d="M7.96465613,22.8608922 L26.0270916,22.8608922 L30.1110739,10.2916822 L31.200248,13.6438197 L25.2653717,31.9094954 L23.5030507,30.629092 L25.3539415,24.9326278 L10.8161543,24.9326278 L7.96465613,22.8608922 L7.96465613,22.8608922 L7.96465613,22.8608922 L7.96465613,22.8608922 Z M16.9958754,50.6561222 L22.5774702,33.477728 L11.8854615,25.7095283 L15.4101066,25.7095283 L30.9478206,36.9983364 L29.1854996,38.2787367 L24.3397943,34.7581283 L19.8473673,48.5843897 L16.9958754,50.6561222 L16.9958754,50.6561222 L16.9958754,50.6561222 L16.9958754,50.6561222 Z M46.2215035,50.6561222 L31.6086894,40.0392895 L20.9166807,47.8074893 L22.0058579,44.4553533 L37.5435657,33.1665452 L38.2167127,35.2382777 L33.3710105,38.7588861 L45.1323325,47.3039863 L46.2215035,50.6561222 L46.2215035,50.6561222 L46.2215035,50.6561222 L46.2215035,50.6561222 Z M55.2527227,22.8608922 L40.6399087,33.477728 L44.723888,46.0469365 L41.8723929,43.975204 L35.9375167,25.7095283 L38.1158647,25.7095283 L39.9667617,31.4059924 L51.7280776,22.8608922 L55.2527227,22.8608922 L55.2527227,22.8608922 L55.2527227,22.8608922 L55.2527227,22.8608922 Z M31.6086894,5.68249805 L37.1902904,22.8608922 L50.4063369,22.8608922 L47.5548387,24.9326278 L28.3491756,24.9326278 L29.0223194,22.8608922 L35.0119392,22.8608922 L30.5195123,9.034634 L31.6086894,5.68249805 L31.6086894,5.68249805 L31.6086894,5.68249805 L31.6086894,5.68249805 Z M31.6086894,5.68249805" fill="#E5B731" id="path12"/><path d="M15.7500297,11.128445 L23.1314779,20.5762677 L24.4635472,19.5355411 L17.0820991,10.0877183 L15.7500297,11.128445 L15.7500297,11.128445 L15.7500297,11.128445 L15.7500297,11.128445 Z M45.2964357,9.6400524 L38.5920151,19.5797645 L39.9934371,20.5250355 L46.6978575,10.5853234 L45.2964357,9.6400524 L45.2964357,9.6400524 L45.2964357,9.6400524 L45.2964357,9.6400524 Z M55.8423227,37.2804157 L44.3173148,33.9756729 L43.8513718,35.6006091 L55.3763797,38.9053519 L55.8423227,37.2804157 L55.8423227,37.2804157 L55.8423227,37.2804157 L55.8423227,37.2804157 Z M32.8136333,55.8514922 L32.3952073,43.8693367 L30.7058167,43.9283315 L31.1242429,55.9104871 L32.8136333,55.8514922 L32.8136333,55.8514922 L32.8136333,55.8514922 L32.8136333,55.8514922 Z M8.03523367,39.6886855 L19.3016399,35.5880489 L18.7234822,33.9995735 L7.45707587,38.10021 L8.03523367,39.6886855 L8.03523367,39.6886855 L8.03523367,39.6886855 L8.03523367,39.6886855 Z M8.03523367,39.6886855" fill="#E5B731" id="Rectangle"/></g></g></g></svg>