<?xml version="1.0" ?><svg height="120px" version="1.1" viewBox="0 0 180 120" width="180px" xmlns="http://www.w3.org/2000/svg" xmlns:sketch="http://www.bohemiancoding.com/sketch/ns" xmlns:xlink="http://www.w3.org/1999/xlink"><title/><defs/><g fill="none" fill-rule="evenodd" id="Africa,-Middle-East-and-India" stroke="none" stroke-width="1"><g id="Africa,-Middle-Eest-and-India" transform="translate(-800.000000, -1201.000000)"><g id="Malawi" transform="translate(800.000000, 1201.000000)"><rect d="M0.00552366097,0 L0.00552366097,120 L180,120 L180,0 L0.00552366097,0 Z M0.00552366097,0" fill="#479951" height="120" id="Rectangle-3-copy-2" width="179.994476" x="0.00552366097" y="0"/><rect d="M0,40 L0,80 L180,80 L180,40 L0,40 Z M0,40" fill="#CA4638" height="40" id="Rectangle-3-copy-3" width="180" x="0" y="40"/><rect d="M0,-3.55271368e-15 L0,40 L180,40 L180,-3.55271368e-15 L0,-3.55271368e-15 Z M0,-3.55271368e-15" fill="#262626" height="40" id="Rectangle-3" width="180" x="0" y="-4.73709694e-15"/><path d="M111.655102,36.1118866 C109.446042,26.3922772 100.752212,18.6447547 90.3638986,18.6447547 C79.7531367,18.6447547 70.8643352,26.0785785 68.8938822,36.1118866 L111.655102,36.1118866 Z M88.9083043,9.2076514 C88.9083043,11.9247608 89.2722028,13.2833155 90,17.1891603 C90.7423531,13.2833155 91.0916957,11.890797 91.0916957,9.2076514 C91.0916957,8.08684377 90.7277972,7 90,7 C89.1994231,7 88.9083043,8.12080764 88.9083043,9.2076514 Z M92.6822924,9.30493646 C92.3511601,12.001793 92.54678,13.3945693 92.7931496,17.3599967 C94.005972,13.5737355 94.5224161,12.2341707 94.8494092,9.57102495 C94.9860013,8.45857165 94.7572681,7.33548096 94.0348958,7.2467848 C93.2402863,7.14921902 92.8147453,8.22619386 92.6822924,9.30493646 Z M96.4162938,9.86142983 C95.7589655,12.4978295 95.7833906,13.9040644 95.5446597,17.8699589 C97.2098711,14.2597259 97.8857175,12.9930847 98.5348292,10.38964 C98.8059771,9.30212518 98.7158192,8.15953029 98.0096407,7.98346022 C97.2328444,7.78978314 96.6792251,8.80686997 96.4162938,9.86142983 Z M100.054643,10.8688355 C99.080918,13.4054756 98.9337842,14.8042053 98.2135118,18.7114447 C100.306288,15.3310601 101.131461,14.1562252 102.093015,11.651293 C102.494676,10.6049289 102.544437,9.45986329 101.86498,9.19904411 C101.117577,8.91214301 100.444133,9.85417941 100.054643,10.8688355 Z M103.543101,12.3121353 C102.267495,14.7112005 101.950996,16.0815732 100.759919,19.8719095 C103.249061,16.7717669 104.21126,15.7062524 105.470921,13.3371755 C105.997108,12.3475611 106.186047,11.217095 105.54344,10.8754149 C104.836573,10.4995668 104.053343,11.3525092 103.543101,12.3121353 Z M106.829662,14.169813 C105.271192,16.3955388 104.790045,17.7171253 103.145921,21.3340533 C105.994322,18.5603688 107.079202,17.6200591 108.618191,15.4221549 C109.26106,14.5040431 109.58636,13.4050291 108.990183,12.9875818 C108.334389,12.5283898 107.45305,13.2795227 106.829662,14.169813 Z M109.865331,16.414175 C108.04723,18.4333808 107.408609,19.6864794 105.335948,23.0760791 C108.501144,20.6702019 109.692533,19.8691148 111.487908,17.875149 C112.237874,17.0422266 112.694685,15.9910486 112.153827,15.5040573 C111.558882,14.9683668 110.592572,15.6064926 109.865331,16.414175 Z M112.604855,19.0117628 C110.554226,20.794347 109.767651,21.9602768 107.29735,25.0720171 C110.732156,23.0698133 112.012293,22.4198912 114.037289,20.6595893 C114.883173,19.9242733 115.464685,18.9366019 114.987207,18.3873264 C114.461982,17.7831234 113.425106,18.2987292 112.604855,19.0117628 Z M115.007392,21.9238526 C112.754806,23.4432409 111.832003,24.5046207 109.00089,27.2921125 C112.6541,25.7234305 114.0039,25.2343621 116.228329,23.7339662 C117.157521,23.1072185 117.855065,22.1977776 117.448086,21.5944064 C117.000409,20.9306981 115.908426,21.3160973 115.007392,21.9238526 Z M117.294818,25.5811794 C114.852696,26.7722818 113.791158,27.6949028 110.599653,30.0612522 C114.435629,29.0162651 115.840359,28.7198123 118.251954,27.5435987 C119.259329,27.0522689 120.076655,26.2487581 119.75761,25.5946183 C119.40666,24.8750646 118.271667,25.1047384 117.294818,25.5811794 Z M118.861786,29.0158644 C116.292709,29.9004687 115.126644,30.6868438 111.670543,32.6466082 C115.605278,32.0768981 117.035665,31.9538484 119.572629,31.0803017 C120.632373,30.7154024 121.541531,30.0174878 121.304583,29.329342 C121.043941,28.5723817 119.889417,28.6620227 118.861786,29.0158644 Z M119.998492,32.6159133 C117.340758,33.1808321 116.087549,33.819238 112.418374,35.3432018 C116.393211,35.257262 117.827932,35.3094497 120.452444,34.7515924 C121.54876,34.5185634 122.536195,33.9366493 122.384877,33.2247563 C122.218428,32.4416739 121.061585,32.3899457 119.998492,32.6159133 Z M59.5475556,34.7515924 C62.2052897,35.3165112 63.6098155,35.2430241 67.5816257,35.3432018 C63.9154769,33.8050001 62.6260206,33.1737706 60.0015082,32.6159133 C58.9051929,32.3828842 57.7664406,32.5128632 57.615123,33.2247563 C57.4486737,34.0078387 58.484462,34.5256249 59.5475556,34.7515924 Z M60.427371,31.0803017 C62.9964485,31.964906 64.399461,32.0631352 68.3294574,32.6466082 C64.8780951,30.6730808 63.6751777,29.8894112 61.1382138,29.0158644 C60.0784693,28.6509652 58.9323646,28.6411963 58.695417,29.329342 C58.4347747,30.0863024 59.3997401,30.7264599 60.427371,31.0803017 Z M61.7480462,27.5435987 C64.190168,28.734701 65.5707515,29.0031823 69.4003468,30.0612522 C66.215223,27.68182 65.1167773,26.757393 62.7051821,25.5811794 C61.6978068,25.0898497 60.5614355,24.9404786 60.2423902,25.5946183 C59.8914404,26.3141721 60.7711975,27.0671577 61.7480462,27.5435987 Z M63.7716711,23.7339662 C66.0242569,25.2533545 67.3540393,25.711363 70.9991104,27.2921125 C68.1761369,24.4925532 67.2170366,23.4242485 64.9926081,21.9238526 C64.0634165,21.2971049 62.9588927,20.9910352 62.5519137,21.5944064 C62.1042367,22.2581147 62.8706368,23.1262109 63.7716711,23.7339662 Z M65.9627115,20.6595893 C68.01334,22.4421735 69.2773932,23.0588278 72.7026496,25.0720171 C70.2418985,21.9492913 69.4201408,20.7720647 67.3951452,19.0117628 C66.5492609,18.2764469 65.4902706,17.8380509 65.0127927,18.3873264 C64.487567,18.9915295 65.1424601,19.9465556 65.9627115,20.6595893 Z M68.5120924,17.875149 C70.3301935,19.8943548 71.5096734,20.6604621 74.6640524,23.0760791 C72.602208,19.6767395 71.9300433,18.4081407 70.1346685,16.414175 C69.3847018,15.5812526 68.3870321,15.0170659 67.8461734,15.5040573 C67.2512288,16.0397478 67.784852,17.0674667 68.5120924,17.875149 Z M71.3818086,15.4221549 C72.9402786,17.6478807 74.0176018,18.5520199 76.8540789,21.3340533 C75.2218784,17.7087763 74.7093273,16.3677172 73.1703382,14.169813 C72.5274694,13.2517012 71.6059931,12.5701345 71.0098166,12.9875818 C70.3540224,13.4467739 70.7584206,14.5318647 71.3818086,15.4221549 Z M74.5290792,13.3371755 C75.8046848,15.7362407 76.7637909,16.7649333 79.2400808,19.8719095 C78.0618566,16.0747396 77.71656,14.6812122 76.4568994,12.3121353 C75.9307121,11.3225209 75.0991665,10.5337348 74.4565597,10.8754149 C73.7496923,11.251263 74.0188369,12.3775494 74.5290792,13.3371755 Z M77.9069855,11.651293 C78.8807104,14.1879332 79.7073015,15.3258437 81.7864882,18.7114447 C81.079805,14.7989889 80.9069104,13.3737676 79.945357,10.8688355 C79.5436955,9.82247141 78.8144769,8.93822493 78.1350198,9.19904411 C77.3876168,9.4859452 77.5174955,10.6366369 77.9069855,11.651293 Z M81.4651708,10.38964 C82.1224991,13.0260397 82.8042524,14.2562045 84.4553403,17.8699589 C84.230733,13.900543 84.2328179,12.4648745 83.5837062,9.86142983 C83.3125583,8.77391497 82.6965378,7.80739015 81.9903593,7.98346022 C81.213563,8.17713729 81.2022395,9.33508018 81.4651708,10.38964 Z M85.1505908,9.57102495 C85.4817231,12.2678814 86.0084754,13.5719616 87.2068504,17.3599967 C87.4676674,13.3927954 87.6447008,11.9680823 87.3177076,9.30493646 C87.1811155,8.19248316 86.6874764,7.15808864 85.9651042,7.2467848 C85.1704946,7.34435058 85.0181378,8.49228235 85.1505908,9.57102495 Z M85.1505908,9.57102495" fill="#CA4638" id="Oval"/></g></g></g></svg>