<?xml version="1.0" ?><svg height="120px" version="1.1" viewBox="0 0 180 120" width="180px" xmlns="http://www.w3.org/2000/svg" xmlns:sketch="http://www.bohemiancoding.com/sketch/ns" xmlns:xlink="http://www.w3.org/1999/xlink"><title/><defs/><g fill="none" fill-rule="evenodd" id="Page-1" stroke="none" stroke-width="1"><g id="gibraltar"><rect d="M0,0 L0,120 L180,120 L180,0 L0,0 Z M0,0" fill="#FFFFFF" height="120" id="Rectangle-326" width="180" x="0" y="0"/><rect d="M0,80 L0,120 L180,120 L180,80 L0,80 Z M0,80" fill="#CA4638" height="40" id="Rectangle-3-copy" width="180" x="0" y="80"/></g><g id="Group" stroke="#000000" stroke-width="0.1" transform="translate(55.000000, 9.000000)"><path d="M26,96 L26,100 L28.3291139,100 L28.3291139,97.9922176 L31.4972875,97.9922176 L31.4972875,100 L34,100 L34,96 L26,96 L26,96 L26,96 L26,96 Z M26,101 L26,105 L34,105 L34,101 L31.4972875,101 L31.4972875,103 L28.3291139,103 L28.3291139,101 L26,101 L26,101 L26,101 L26,101 Z M26,101" fill="#DFAC16" id="Shape"/><rect d="M7,43 L7,64 L64,64 L64,43 L7,43 Z M7,43" fill="#000000" height="21" id="Rectangle" width="57" x="7" y="43"/><path d="M23,61 L4.17319721,61 L0,63.9131443 L0,67 L23,67" fill="#CA4638" id="Shape"/><path d="M48,61 L66.8268028,61 L71,63.9131443 L71,67 L48,67" fill="#CA4638" id="Shape"/><path d="M0,64 L71,64" fill="#000000" id="Shape"/><path d="M22.7304786,62 L18,64.4095745 L18,68 L36,68 L54,68 L54,64.4095745 L49.2695214,62 L36,62 L22.7304786,62 L22.7304786,62 L22.7304786,62 L22.7304786,62 Z M22.7304786,62" fill="#CA4638" id="Shape"/><path d="M41.2079772,60.2054794 C40.2575316,60.7831878 39.1703932,61.5100324 38.1452992,62.2563601 C37.3853219,62.8096658 36.7505185,63.3621698 36.1225072,63.9001957 C35.9034211,64.0878873 35.6014177,64.2840254 35.4102564,64.4637965 C35.186808,64.6739269 35.0337003,64.8744936 34.8547008,65.074364 C34.7376456,65.2050693 34.5817072,65.337037 34.4843305,65.4657534 C34.2380399,65.7912993 34,66.0745826 34,66.6712329 C34,66.7795394 34.0027943,66.8881466 34.014245,67 C34.3674485,66.5346511 34.8745892,66.211029 35.4387465,66.1389433 C35.4673368,66.1389883 35.4955624,66.1386326 35.5099715,66.1389433 C35.5798564,66.1341438 35.624196,66.1389433 35.6809117,66.1389433 C35.7376228,66.1389433 35.7819624,66.1341438 35.8376068,66.1389433 C35.9231179,66.1463177 35.9987738,66.168541 36.0797721,66.18591 C36.1109197,66.1543734 36.1351522,66.1227066 36.1652422,66.0919765 C36.2688045,65.9861999 36.3247225,65.9124659 36.4501425,65.7945206 C36.7007225,65.5588753 37.1138598,65.2606478 37.4330485,64.9960861 C37.9494291,64.5680802 38.4173265,64.1572928 39.02849,63.7123288 C40.0174268,62.9923225 41.0708194,62.290657 41.977208,61.739726 C42.883592,61.188795 43.6881458,60.7917294 44,60.6908023 L43.5441595,59 C42.9325265,59.1979516 42.1584182,59.6277711 41.2079772,60.2054794 C41.2079772,60.2054794 42.1584182,59.6277711 41.2079772,60.2054794 L41.2079772,60.2054794 L41.2079772,60.2054794 Z M41.2079772,60.2054794" fill="#DFAC16" id="Shape"/><path d="M37,63 L37,65" fill="#000000" id="Shape"/><path d="M39,62 L39,64" fill="#000000" id="Shape"/><path d="M40,62 L40,64" fill="#000000" id="Shape"/><path d="M41,61 L41,63" fill="#000000" id="Shape"/><path d="M18,65 L54,65" fill="#000000" id="Shape"/><path d="M14.716059,48.8258928 C17.3691936,48.8258928 19.5360745,51.0867957 19.5360745,53.8733259 L19.5360745,61 L23,61 L23,34 L4,34 L4,61 L9.89604343,61 L9.89604343,53.8733259 C9.89603875,51.1956395 12.0256519,48.8258928 14.716059,48.8258928 C14.716059,48.8258928 12.0256519,48.8258928 14.716059,48.8258928 L14.716059,48.8258928 L14.716059,48.8258928 L14.716059,48.8258928 L14.716059,48.8258928 Z M14.716059,48.8258928" fill="#CA4638" id="Shape"/><rect d="M10,16 L10,32 L19,32 L19,16 L10,16 Z M10,16" fill="#000000" height="16" id="Rectangle" width="9" x="10" y="16"/><path d="M19,29.754491 L11.4828197,29.754491 L11.4828197,27 L5.9710145,27 L5.9710145,29.754491 L2.23188406,29.754491 L2.23188406,27 L0,27 L0,32 L19,32 L19,29.754491 L19,29.754491 L19,29.754491 L19,29.754491 Z M2,32 L18,32 L18,34 L2,34 L2,32 L2,32 L2,32 L2,32 Z M2,32" fill="#CA4638" id="Shape"/><path d="M9,10 L9,27 L11.9002173,27 L11.9002173,22.3321524 C11.9002173,20.583401 13.1238878,19.1522994 14.8358209,19.064659 C14.8910424,19.061832 14.944086,19.064659 15,19.064659 C16.7893158,19.0646575 18.238806,20.5269897 18.238806,22.3321524 L18.238806,27 L21,27 L21,10 L9,10 L9,10 L9,10 L9,10 Z M9,10" fill="#CA4638" id="Shape"/><rect d="M28,6 L28,32 L42,32 L42,6 L28,6 Z M28,6" fill="#000000" height="26" id="Rectangle" width="14" x="28" y="6"/><path d="M27,6 L27,28 L31.5887681,28 L31.5887681,21.4740533 C31.5887681,19.9688322 32.5508745,17.8793829 35.5,17.8793829 C38.4491255,17.8793829 39.4112319,19.9688322 39.4112319,21.4740533 L39.4112319,28 L44,28 L44,6 L35.5,6 L27,6 L27,6 L27,6 L27,6 Z M35,8 L36,8 L37,8 L37,15 L36,15 L35,15 L35,8 L35,8 L35,8 L35,8 Z M31,10 L33,10 L33,16 L31,16 L31,10 L31,10 L31,10 L31,10 Z M39,10 L41,10 L41,16 L39,16 L39,10 L39,10 L39,10 L39,10 Z M39,10" fill="#BF3126" id="Shape"/><path d="M26,3 L26,6 L35.5,6 L45,6 L45,3 L35.5,3 L26,3 L26,3 L26,3 L26,3 Z M26,3" fill="#CA4638" id="Shape"/><path d="M24,0 L24,3 L35.5,3 L47,3 L47,0 L44.1101804,0 L44.1101804,1.65254237 L40.8498711,1.65254237 L40.8498711,0 L37.1301547,0 L37.1301547,1.65254237 L35.5,1.65254237 L33.8698453,1.65254237 L33.8698453,0 L30.1501289,0 L30.1501289,1.65254237 L26.8898196,1.65254237 L26.8898196,0 L24,0 L24,0 L24,0 L24,0 Z M24,0" fill="#CA4638" id="Shape"/><path d="M8,8 L8,10 L22,10 L22,8 L8,8 L8,8 L8,8 L8,8 Z M8,8" fill="#CA4638" id="Shape"/><path d="M6,4 L6,8 L23,8 L23,4 L20.381122,4 L20.381122,6.0341297 L17.2172751,6.0341297 L17.2172751,4 L12.3882458,4 L12.3882458,6.0341297 L9.2243989,6.0341297 L9.2243989,4 L6,4 L6,4 L6,4 L6,4 Z M6,4" fill="#CA4638" id="Shape"/><rect d="M34,80 L34,108 L36,108 L36,80 L34,80 Z M34,80" fill="#DFAC16" height="28" id="Rectangle" width="2" x="34" y="80"/><path d="M35,73 L40,76.007595 L35,79 L30,76.007595 L35,73 L35,73 L35,73 L35,73 Z M28.3088235,74.9402985 L27,74.9402985 L27,77.0597015 L28.3088235,77.0597015 L35,81 L41.6911765,77.0597015 L43,77.0597015 L43,74.9402985 L41.6911765,74.9402985 L35,71 L28.3088235,74.9402985 L28.3088235,74.9402985 L28.3088235,74.9402985 L28.3088235,74.9402985 Z M28.3088235,74.9402985" fill="#DFAC16" id="Shape"/><path d="M27.5393548,59 L27,60.6588419 C28.7443712,61.353908 31.2194308,62.7051543 33.2025806,64.0234742 C34.1941533,64.6826341 35.0619128,65.3306617 35.6580645,65.8701096 C35.9561381,66.139836 36.1850517,66.3901471 36.3109678,66.5586854 C36.3264693,66.5794429 36.3446507,66.6046322 36.3535484,66.6212833 C36.355129,66.6244633 36.3521449,66.633903 36.3535484,66.6369327 C36.363527,66.6600388 36.3756858,66.6843267 36.3819355,66.6995305 C36.3704308,66.8115506 36.3522494,66.9323142 36.3251613,67.0125196 C36.3228177,67.0189446 36.313484,67.0379543 36.3109678,67.0438185 C36.3096642,67.0466028 36.3123167,67.0568388 36.3109678,67.0594679 C36.3095643,67.0619368 36.2982231,67.0728137 36.2967742,67.0751173 C36.2873769,67.0884782 36.2783566,67.1089853 36.2683871,67.1220658 C36.2663069,67.1246547 36.2563691,67.1351612 36.2541935,67.1377152 C36.2518817,67.1402341 36.2424436,67.1508908 36.24,67.1533647 C36.2347722,67.1582173 36.2176128,67.1643868 36.2116129,67.1690141 C36.2019295,67.1757596 36.1810956,67.1942485 36.1690322,67.200313 C36.1041461,67.2293433 35.9980829,67.2472613 35.8283871,67.2472613 C35.7277514,67.2472613 35.6463599,67.2308757 35.5870968,67.2159624 C35.5642827,67.2096776 35.534165,67.2083105 35.5161291,67.200313 C35.5103517,67.1975637 35.4930741,67.1875731 35.4877419,67.1846635 C35.472363,67.1757196 35.4573518,67.1634353 35.4451613,67.1533647 C35.4414005,67.1492132 35.4329889,67.1396532 35.4309678,67.1377152 C35.4297187,67.1359975 35.4179823,67.1240638 35.4167742,67.1220658 C35.4132905,67.1153353 35.4060143,67.0961753 35.4025806,67.0907668 C35.401595,67.0908169 35.3895226,67.0907468 35.3883871,67.0907668 C35.387129,67.090862 35.3756833,67.0903962 35.3741935,67.0907668 C35.3710233,67.0906517 35.3635881,67.0907868 35.36,67.0907668 C35.3525376,67.0908269 35.3380125,67.0907668 35.3316129,67.0907668 C35.2875834,67.0907668 35.2467605,67.0859893 35.2038709,67.0907668 C34.6827111,67.1487975 34.2411351,67.5585527 34.0967742,68.1236307 C34.096915,68.1250028 34.0967333,68.1379581 34.0967742,68.1392802 C34.0985001,68.1413984 34.1092055,68.1530166 34.1109678,68.1549296 C34.118085,68.1620757 34.132174,68.1778654 34.1393548,68.1862285 C34.5039496,68.6713665 35.1294968,69 35.8283871,69 C36.5634449,69 37.2044346,68.6606398 37.56,68.1549296 C37.9155609,67.6492194 38,67.0741959 38,66.6056338 C38,66.05922 37.7774815,65.7420194 37.5458065,65.4319249 C37.3141269,65.1218303 37.0133599,64.8231036 36.6658065,64.5086072 C35.9706996,63.8796094 35.0602504,63.2087863 34.0258065,62.5211267 C31.9569049,61.1458078 29.4471903,59.7601978 27.5393548,59 C27.5393548,59 29.4471903,59.7601978 27.5393548,59 L27.5393548,59 L27.5393548,59 L27.5393548,59 L27.5393548,59 Z M27.5393548,59" fill="#DFAC16" id="Shape"/><path d="M35.31238,63 L35,65" fill="#000000" id="Shape"/><path d="M36.86199,64 L36,66" fill="#000000" id="Shape"/><path d="M37,65 L36,67" fill="#000000" id="Shape"/><path d="M38,68 L36,67" fill="#000000" id="Shape"/><path d="M39,66 L37,66.28045" fill="#000000" id="Shape"/><path d="M36.2051,69 L36,67" fill="#000000" id="Shape"/><path d="M36,67 L35,68" fill="#000000" id="Shape"/><path d="M30,61 L30,63" fill="#000000" id="Shape"/><path d="M32,62 L32,64" fill="#000000" id="Shape"/><path d="M31,62 L31,64" fill="#000000" id="Shape"/><path d="M35.1546052,66.002033 C33.9337158,66.1721417 33,67.1800547 33,68.3596139 L33,73.6268674 C33,74.9243844 34.1360316,75.9993745 35.5328948,75.9993697 C35.5692737,75.9993697 35.5955527,76.0007878 35.6315789,75.9993697 C35.6676053,76.0007878 35.6938843,75.9993697 35.7302632,75.9993697 C36.7233473,75.9993745 37.5850684,75.4517186 38,74.6713653 L37.0953948,74.1789592 C36.8703948,74.6848686 36.3424948,75.0294884 35.7302632,75.0294788 C35.7066,75.0294788 35.6838052,75.0293547 35.6644737,75.0294788 C35.6584473,75.0293881 35.6402527,75.0295409 35.6315789,75.0294788 C35.6222947,75.0301139 35.6067211,75.0293595 35.5986842,75.0294788 C35.5793527,75.0293547 35.5565579,75.0294788 35.5328948,75.0294788 C34.7165842,75.0294884 34.0526316,74.4191912 34.0526316,73.6268674 L34.0526316,68.3596139 C34.0526316,67.5672948 34.7165789,66.9719239 35.5328948,66.9719239 C35.5560632,66.9719239 35.5791473,66.9720576 35.5986842,66.9719239 C35.6067421,66.9720528 35.6225053,66.9712363 35.6315789,66.9719239 C35.6402157,66.9718571 35.6584316,66.9720194 35.6644737,66.9719239 C35.6840105,66.9720576 35.7070947,66.9719239 35.7302632,66.9719239 C35.9598527,66.9719239 36.1776105,67.0208899 36.3717105,67.1062165 C36.3730527,67.1062594 36.3870263,67.106078 36.3881579,67.1062165 C36.4311473,67.0991592 36.4750948,67.0867542 36.5032895,67.0763737 C36.5165053,67.0686767 36.5442157,67.0513535 36.5526316,67.0465309 C36.5553843,67.0438952 36.5663842,67.0342547 36.5690789,67.0316095 C36.5706158,67.0316238 36.5835895,67.0315331 36.5855263,67.0316095 C36.5883579,67.0292507 36.5992947,67.0190898 36.6019737,67.0166881 C36.6054684,67.0135701 36.6172157,67.0030034 36.6184211,67.0017667 C36.6283105,66.9894953 36.6417895,66.9681517 36.6513158,66.9570025 C36.6512843,66.9556321 36.6515263,66.9437618 36.6513158,66.9420811 L36.6677632,66.9271597 C36.6699473,66.9229674 36.6798895,66.9052622 36.6842105,66.8973169 C36.7156,66.8208429 36.7366684,66.7056975 36.75,66.5988889 C36.7427579,66.5843925 36.7286737,66.5612345 36.7171052,66.5392033 C36.7172105,66.5384585 36.7171368,66.5276626 36.7171052,66.5242819 C36.7059211,66.508778 36.6834789,66.4819147 36.6677632,66.4645963 C36.5608843,66.3468868 36.3774421,66.1949655 36.1578948,66.0169544 C36.1562158,66.01726 36.1428948,66.016878 36.1414473,66.0169544 C36.1257368,66.013698 36.0914473,66.0050555 36.0756579,66.002033 C36.0734684,66.0019137 36.0612105,66.0020092 36.0592105,66.002033 C36.0507211,66.0021476 36.0312684,66.0022097 36.0263158,66.002033 C36.0230789,66.0020807 36.0119527,66.002076 36.0098684,66.002033 C36.0005421,66.0021381 35.9833211,66.0018516 35.9769737,66.002033 C35.9599211,66.0027062 35.9264895,66.0031265 35.9111842,66.002033 C35.8469421,65.9974588 35.7957421,66.002033 35.7302632,66.002033 C35.6893368,66.002033 35.6680158,66.0022574 35.6315789,66.002033 C35.5951421,66.0022574 35.5738211,66.002033 35.5328948,66.002033 C35.4674158,66.002033 35.4162157,65.9974588 35.3519737,66.002033 C35.3366684,66.0031265 35.3032368,66.0027062 35.2861842,66.002033 C35.2798421,66.0018516 35.2626158,66.0021381 35.2532895,66.002033 C35.2491211,66.002119 35.2396843,66.0017322 35.2368421,66.002033 C35.2302421,66.002267 35.2095105,66.0024627 35.2039473,66.002033 C35.2019473,66.0020092 35.1896895,66.0019137 35.1875,66.002033 C35.1778527,66.0032697 35.1642211,66.0006913 35.1546052,66.002033 C35.1546052,66.002033 35.1642211,66.0006913 35.1546052,66.002033 L35.1546052,66.002033 L35.1546052,66.002033 L35.1546052,66.002033 L35.1546052,66.002033 Z M37.9375,68.0001943 C37.912155,68.0369684 37.886925,68.08543 37.859375,68.1221408 C37.65143,68.3838282 37.353715,68.6021563 37,68.7471165 L37,72.4359975 L38,73 L38,68.5032235 C38,68.332435 37.987145,68.161866 37.953125,68.0001943 C37.95151,67.9997016 37.938885,68.0003162 37.9375,68.0001943 C37.9375,68.0001943 37.938885,68.0003162 37.9375,68.0001943 L37.9375,68.0001943 L37.9375,68.0001943 L37.9375,68.0001943 L37.9375,68.0001943 Z M37.9375,68.0001943" fill="#DFAC16" id="Shape"/><path d="M56.283941,48.8258928 C53.6308064,48.8258928 51.4639255,51.0867957 51.4639255,53.8733259 L51.4639255,61 L48,61 L48,34 L67,34 L67,61 L61.1039566,61 L61.1039566,53.8733259 C61.1039612,51.1956395 58.9743481,48.8258928 56.283941,48.8258928 L56.283941,48.8258928 L56.283941,48.8258928 L56.283941,48.8258928 L56.283941,48.8258928 Z M56.283941,48.8258928" fill="#CA4638" id="Shape"/><path d="M19,34 L19,36 L35,36 L51,36 L51,34 L35,34 L19,34 L19,34 L19,34 L19,34 Z M19,34" fill="#CA4638" id="Shape"/><rect d="M52,16 L52,32 L61,32 L61,16 L52,16 Z M52,16" fill="#000000" height="16" id="Rectangle" transform="translate(56.500000, 24.000000) scale(-1, 1) translate(-56.500000, -24.000000) " width="9" x="52" y="16"/><path d="M52,29.754491 L59.5171803,29.754491 L59.5171803,27 L65.0289855,27 L65.0289855,29.754491 L68.7681159,29.754491 L68.7681159,27 L71,27 L71,32 L52,32 L52,29.754491 L52,29.754491 L52,29.754491 L52,29.754491 Z M69,32 L53,32 L53,34 L69,34 L69,32 L69,32 L69,32 L69,32 Z M69,32" fill="#CA4638" id="Shape"/><path d="M62,10 L62,27 L59.0997827,27 L59.0997827,22.3321524 C59.0997827,20.583401 57.8761122,19.1522994 56.1641791,19.064659 C56.1089576,19.061832 56.055914,19.064659 56,19.064659 C54.2106842,19.0646575 52.761194,20.5269897 52.761194,22.3321524 L52.761194,27 L50,27 L50,10 L62,10 L62,10 L62,10 L62,10 Z M62,10" fill="#BF3126" id="Shape"/><path d="M19,27 L19,34 L36.5,34 L54,34 L54,27 L50.6854909,27 L50.6854909,29.6945606 L46.2762815,29.6945606 L46.2762815,27 L40.3618592,27 L40.3618592,29.6945606 L36.5,29.6945606 L32.6381408,29.6945606 L32.6381408,27 L26.7237185,27 L26.7237185,29.6945606 L22.3145091,29.6945606 L22.3145091,27 L19,27 L19,27 L19,27 L19,27 Z M19,27" fill="#CA4638" id="Shape"/><path d="M63,8 L63,10 L49,10 L49,8 L63,8 L63,8 L63,8 L63,8 Z M63,8" fill="#CA4638" id="Shape"/><path d="M65,4 L65,8 L48,8 L48,4 L50.618878,4 L50.618878,6.0341297 L53.7827249,6.0341297 L53.7827249,4 L58.6117542,4 L58.6117542,6.0341297 L61.7756011,6.0341297 L61.7756011,4 L65,4 L65,4 L65,4 L65,4 Z M65,4" fill="#CA4638" id="Shape"/><rect d="M34,82 L34,106 L36,106 L36,82 L34,82 Z M34,82" fill="#DFAC16" height="24" id="Rectangle" width="2" x="34" y="82"/><path d="M23,36 L23,63 L29.1132723,63 L29.1132723,52.892467 C29.1132723,48.1314096 32.1577354,45.8901667 36,45.8901667 C39.6930424,45.8901667 42.8867277,48.1314096 42.8867277,52.892467 L42.8867277,63 L49,63 L49,36 L36,36 L23,36 L23,36 L23,36 L23,36 Z M23,36" fill="#CA4638" id="Shape"/></g></g></svg>