<?xml version="1.0" ?><svg height="120px" version="1.1" viewBox="0 0 180 120" width="180px" xmlns="http://www.w3.org/2000/svg" xmlns:sketch="http://www.bohemiancoding.com/sketch/ns" xmlns:xlink="http://www.w3.org/1999/xlink"><title/><defs/><g fill="none" fill-rule="evenodd" id="Ameria" stroke="none" stroke-width="1"><g id="Group" transform="translate(-400.000000, 0.000000)"><g id="St.-Lucia" transform="translate(400.000000, 0.000000)"><rect d="M0,0 L0,120 L180,120 L180,0 L0,0 Z M0,0" fill="#4086CD" height="120" id="Rectangle-91" width="180" x="0" y="0"/><g id="Rectangle-40-copy-3-+-Triangle-copy-+-Triangle" transform="translate(59.000000, 18.000000)"><polygon d="M0.498851958,0 L61.491977,0 L30.9954145,82.8710938 L0.498851958,0 Z M0.498851958,0" fill="#FFFFFF" id="Rectangle-40-copy-3" points="0.498851958 0 61.491977 0 30.9954145 82.8710938 " transform="translate(30.995414, 41.435547) scale(1, -1) translate(-30.995414, -41.435547) "/><polygon d="M11.1100082,72.9265625 L50.8881332,72.9265625 L30.9990707,18.8997888 L11.1100082,72.9265625 Z M11.1100082,72.9265625" fill="#000000" id="Triangle-copy" points="11.1100082 72.9265625 50.8881332 72.9265625 30.9990707 18.8997888 "/><polygon d="M0.502508155,82.868504 L61.4956332,82.868504 L30.9990707,55.689375 L0.502508155,82.868504 Z M0.502508155,82.868504" fill="#E5B731" id="Triangle" points="0.502508155 82.868504 61.4956332 82.868504 30.9990707 55.689375 "/></g></g></g></g></svg>