<?xml version="1.0" ?><svg height="120px" version="1.1" viewBox="0 0 180 120" width="180px" xmlns="http://www.w3.org/2000/svg" xmlns:sketch="http://www.bohemiancoding.com/sketch/ns" xmlns:xlink="http://www.w3.org/1999/xlink"><title/><defs/><g fill="none" fill-rule="evenodd" id="Page-1" stroke="none" stroke-width="1"><g id="rectangle_san_marino"><rect fill="#4BB7C0" height="120" id="Oval-15-copy" width="180" x="0" y="0"/><rect fill="#FFFFFF" height="60" id="Oval-15-copy-2" width="180" x="0" y="0"/><g id="San_Marino" transform="translate(54.000000, 17.000000)"><path d="M66.9192703,46.4532305 C66.6769702,46.7584228 65.6190158,47.1517749 65.2271248,46.9399876 C64.8861251,46.7555723 64.8900494,45.6195408 65.5091456,45.0634387 C65.8996974,44.7129691 67.3555435,45.9038586 66.9192703,46.4532257 L66.9192703,46.4532305 Z" fill="#A48253" id="path74" stroke="#262626" stroke-width="0.1"/><path d="M56.0000034,69 C56.0706769,68.6227186 56.2120273,68.1025859 56.4427315,68.017456 C56.6604399,67.9368392 56.8700256,68.1516009 57,68.3312115 L56,69 L56.0000034,69 Z" fill="#A48253" id="path112" stroke="#262626" stroke-width="0.1"/><path d="M58.5741927,59.371013 C58.9798869,59.061907 59.4408129,58.8901955 59.6151208,59.0783082 C60.0830624,59.584486 60.1065587,60.5531872 59.7816788,60.8361757 C59.4543441,61.121058 58.6935176,61.098348 58.0369964,60.2476117 C57.8984849,60.0679516 58.1645595,59.6832724 58.5741906,59.371012 L58.5741927,59.371013 Z" fill="#A48253" id="path132" stroke="#262626" stroke-width="0.1"/><path d="M58.9716703,57.6926816 C59.2051001,58.0975695 57.9317174,59.2269783 57.5070403,58.9594814 C57.2123065,58.7743969 56.8106825,57.3530251 57.0999142,57.1070255 C57.508481,56.7590954 58.7688908,57.3407911 58.9716736,57.6926743 L58.9716703,57.6926816 Z" fill="#D99F31" id="path136" stroke="#262626" stroke-width="0.1"/><path d="M8.91476303,40 C7.4807726,43.785345 7.05685919,50.1150431 7.55055027,53.0439818 C9.09331988,62.1984771 16.5629761,70.7921805 23.4572399,72.183307 C29.4025466,73.3831307 32.9569686,76.0721906 35.4051548,78.8509948 C36.548549,80.1495202 37.4711188,81.4174279 38.2304597,82.6112691 C38.8837064,83.6383259 39.4432053,84.7590981 39.9926369,85.6458689 C40.0814194,85.7890104 39.3395319,86.0970842 39.2611026,85.9698955 C38.6801864,85.0268718 38.146215,83.8377312 37.4770831,82.7485741 C36.715624,81.509584 35.4077088,80.2421105 34.2702765,78.8935884 C31.8498886,76.0236423 28.6266312,73.8668294 23.0404195,72.7471992 C16.435341,71.4231811 8.74818642,62.9506344 7.21346207,53.8410951 C6.71480454,50.8816953 7.08227382,44.0130563 8.39529108,40.3869867 L8.91479665,40.000006 L8.91476303,40 Z" fill="#A48253" id="path228" stroke="#262626" stroke-width="0.1"/><path d="M51.1030289,73.2258338 C51.3934242,72.8738968 52.2340527,72.9116268 52.8504816,73.4929719 C53.1565711,73.7816882 52.9542028,74.2155213 52.5904118,74.559003 C52.2240252,74.9046301 51.758518,75.0971917 51.6008716,74.950184 C50.9851521,74.3743913 50.8898089,73.4840167 51.1030339,73.2258306 L51.1030289,73.2258338 Z" fill="#A48253" id="path276" stroke="#262626" stroke-width="0.1"/><path d="M52.0485288,75.5215252 C51.8896312,75.326841 52.1435956,74.7299631 52.4816272,74.4031077 C52.7810879,74.1131214 53.2686458,73.9149394 53.3740348,74.0363248 C53.7877121,74.5128364 54.2111677,75.3606515 53.8827788,75.7807658 C53.5531676,76.2024852 52.4066611,75.9605867 52.0485265,75.5215265 L52.0485288,75.5215252 Z" fill="#D99F31" id="path280" stroke="#262626" stroke-width="0.1"/><g id="Group" stroke="#262626" stroke-width="0.1" transform="translate(0.000000, 30.000000)"><path d="M19.9999951,42.3819931 C18.9424327,42.483306 18.2273309,43.8243355 17.1662815,44.6681944 C15.2124349,46.2214904 12.0815606,46.3765677 10.0853222,45.3392191 C10.001705,45.2954733 9.9593144,45.1982174 10.0538203,45.179198 C12.5357886,44.6874682 12.8595226,41.7289775 18.0333781,42.0201084 C18.6397533,42.0543446 18.8959774,42.1627581 19.5048256,42.1627581 L20,42.3819952 L19.9999951,42.3819931 Z" fill="#658D5C" id="path180"/><path d="M16.9999886,38.3186389 C16.5587357,38.3334413 16.0884641,38.3334413 15.6530481,38.4023761 C14.3530666,38.6086148 13.0661038,39.9433236 11.089296,39.9969022 C8.45882479,40.0682324 6.79792579,38.900572 5,37.2341511 C7.61580606,36.8635388 9.63779979,35.4400153 12.3367717,36.2404484 C13.7205144,36.6508132 15.3470174,38.2932628 16.6460998,38.0579886 L17,38.3186436 L16.9999886,38.3186389 Z" fill="#658D5C" id="path162"/><path d="M16.2749121,26 L16.3126248,26.0166695 C16.341389,27.5273292 17.6042872,29.5876288 17.9138253,31.2491643 C18.1808503,32.6800908 17.7958936,33.8762113 17.19137,35.209303 C17.0401998,35.5415254 16.6856037,36.2093034 16.6717006,36.5364549 C16.6587527,36.841137 16.8693724,37.1230614 17.0475491,37.375272 C17.109871,37.46398 17.4868385,37.9128863 17.4480069,38 C15.9390114,36.8147552 16.8267051,37.5873314 16.1986925,36.4945683 C15.8749387,35.9310079 15.4890214,35.4193398 15.168144,34.8517235 C13.4741027,31.8544823 13.4427814,28.4544149 16.2749175,26.0000025 L16.2749121,26 Z" fill="#658D5C" id="path182"/><path d="M16.2749121,26 L16.3126248,26.0166695 C16.341389,27.5273292 17.6042872,29.5876288 17.9138253,31.2491643 C18.1808503,32.6800908 17.7958936,33.8762113 17.19137,35.209303 C17.0401998,35.5415254 16.6856037,36.2093034 16.6717006,36.5364549 C16.6587527,36.841137 16.8693724,37.1230614 17.0475491,37.375272 C17.109871,37.46398 17.4868385,37.9128863 17.4480069,38 C15.9390114,36.8147552 16.8267051,37.5873314 16.1986925,36.4945683 C15.8749387,35.9310079 15.4890214,35.4193398 15.168144,34.8517235 C13.4741027,31.8544823 13.4427814,28.4544149 16.2749175,26.0000025 L16.2749121,26 Z" id="path184"/><path d="M24.5467749,41.2648791 C23.8269556,40.8405781 22.2681162,40.8005835 21.0911763,40.097567 C19.4475981,39.1151424 18.5956674,38.2020469 18.1390501,36.5831756 C17.8619224,35.6013041 18.0750316,34.8163662 18.1317465,34 C19.6123025,35.7525616 22.1843982,35.9175244 23.5605332,38.0141189 C24.3970099,39.2879966 24.2859553,41.2254398 26,42 L25.4041416,41.8973151 C25.1450113,41.6725736 24.8542987,41.4463077 24.5467749,41.2648791 Z" fill="#658D5C" id="path188"/><path d="M12.9712553,35.5119271 C12.9712553,35.5119271 12.183569,35.3219043 11.8349015,35.1272819 C11.2293367,34.7876835 9.88904598,32.81846 8.34001382,31.8329726 C6.11927757,30.4204927 4.18489685,30.7155171 2,30 C2.62000974,32.6114703 3.80507588,34.1736898 6.00626773,35.2805131 C7.97747106,36.2715509 11.1960512,35.4145441 11.5445772,35.4467441 C11.8932446,35.4797365 13,36 13,36 L12.9712517,35.5119365 L12.9712553,35.5119271 Z" fill="#658D5C" id="path194"/><path d="M15.9857619,37.6618152 C15.8987356,36.9637697 15.1945572,35.9590302 14.8997109,35.3092912 C14.4679958,34.3565688 14.1437977,33.3169128 14.0472848,32.2486028 C13.8392067,29.9472403 14.3078571,28.7055 15.6522057,27 C15.6620692,27.499948 15.72165,27.6753861 15.8556037,28.140274 C16.418111,30.0930385 17.205775,31.707039 16.9505115,33.8301085 C16.8246521,34.8753247 16.0672213,36.3634836 16.0325629,37.0022422 C16.0148545,37.333023 16.1805579,37.721381 16.326909,38 L15.9857619,37.661808 L15.9857619,37.6618152 Z" fill="#658D5C" id="path196"/><path d="M9.99999874,30.9999892 C8.82989635,29.6954281 6.89924185,29.5312632 4.71689618,29.0303832 C3.6729338,28.7908695 2.82034512,28.2475648 2.02448036,27.5642161 C0.788851749,26.5025794 0.38034802,25.0792537 0.139542158,23.5522141 C0.00446744536,22.6960363 -0.0321678793,21.8663917 0.0279970201,21 C0.127479169,21.1670073 0.253617915,21.3321693 0.418477506,21.4448321 C1.22907457,21.9982113 2.07378139,22.3842997 2.88570996,22.9430753 C3.59518697,23.4314685 4.09900054,23.753705 4.68084717,24.3783196 C5.4163869,25.1690849 6.03054776,26.0235603 6.54791848,26.9570716 C6.95582329,27.693776 7.30549866,28.5574778 7.83284686,29.2259226 C8.10612331,29.5731328 9.20891277,30.0242083 9.60996587,30.0730181 L10,31 L9.99999874,30.9999892 Z" fill="#658D5C" id="path208"/><path d="M13.4571353,14 C15.0700928,18.0604448 12.9404485,20.9839502 9.03002882,23 L8,21.6871465 C8.67225033,19.0794908 9.15486229,17.7955543 11.3152273,15.9426383 C12.1694722,15.210075 12.9179931,14.9722006 13.4571285,14 L13.4571353,14 Z" fill="#658D5C" id="path224"/><path d="M19.6883165,39.9999947 C18.1046002,38.8187031 15.2507224,39.242918 13.5512479,37.6405346 C12.3033144,36.4641071 11.7772563,34.6088619 12.0866846,33 C13.5950201,34.1821569 15.348895,34.5067992 16.7207918,35.8340258 C18.335253,37.3965359 16.9605168,38.4449761 20,39.9653548 L19.6883009,40 L19.6883165,39.9999947 Z" fill="#658D5C" id="path234"/><path d="M11.2068324,32.2126717 L11.2116298,32.169287 C11.6280541,31.6759523 11.3391957,30.1941532 11.2026314,29.6001854 C10.9671374,28.5763934 10.9380558,27.6963201 11.1093925,26.6537491 C11.3071113,25.449708 11.9699737,24.3625519 12.6494811,23.3657514 C12.952431,22.9217657 13.9365243,21.5335965 14.0386156,21.0308666 C14.0470048,20.9879287 14.0928799,20.9910604 14.1119173,21.0323561 C14.4871193,21.8460825 14.6831894,22.8367786 14.8345901,23.7164013 C15.0459511,24.9481722 15.1122064,26.0676832 14.6821411,27.4683642 C14.2974952,28.7222011 13.7803363,29.5336882 12.9882556,30.3770834 C12.6530766,30.7335549 11.8645978,31.5192523 11.749174,31.9438557 C11.7281884,32.0213814 11.5943262,32.5865767 11.623857,33 L11.2068324,32.2126629 L11.2068324,32.2126717 Z" fill="#658D5C" id="path236"/><path d="M8,16.9999923 L8.05733664,16.4964274 C8.44873376,16.346866 8.79697829,15.9572812 8.9549549,15.5797568 C9.63665565,13.9498035 10.0520442,12.2928648 11.0095668,10.787447 C12.2525629,8.83349173 13.5839797,8.07332167 14.9277665,7 C14.9903843,8.72690376 15.2948707,10.5460604 13.9187939,12.8092484 C13.1367534,14.0940993 10.8577823,15.367334 9.43930017,15.9265315 C8.80482595,16.1768065 8.35081102,16.3801929 8.00000766,17 L8,16.9999923 Z" fill="#658D5C" id="path250"/><path d="M7.93702652,21.4983458 L8,22 C6.9174276,20.6328139 6.55524568,21.0368606 5.05876812,20.4584194 C3.75594794,19.9554361 2.69837444,19.0171019 1.94126728,17.9183967 C0.810911502,16.2777158 0.831955801,13.8499342 1.30931805,12 C1.91626705,13.1167223 4.29106044,14.2368454 5.20242637,15.6309009 C5.78864856,16.5274395 6.15240589,17.5929137 6.44338094,18.6028712 C6.58863068,19.1079213 6.75271031,20.1261472 6.97643978,20.5436286 C7.14320805,20.8556669 7.6484186,21.2727033 7.93702116,21.4983508 L7.93702652,21.4983458 Z" fill="#658D5C" id="path260"/><path d="M11.2388229,31.549778 C11.642924,30.9794404 11.288841,29.5338486 11.1598389,28.879525 C10.9605585,27.8670226 10.9461546,26.9926417 11.1248586,25.9707776 C11.4164185,24.3005858 12.5600301,23.1817111 13.5702024,21.828145 C13.7693247,21.5611197 13.9679713,21.2910209 14.1243565,21 C15.2852157,24.0206857 15.6108018,27.1061855 13.0809446,29.6432919 C12.6991623,30.0261998 11.7809532,30.7643606 11.6400775,31.2293566 C11.5644171,31.4783858 11.5383004,31.7427774 11.51709,32 L11.2388256,31.5497879 L11.2388229,31.549778 Z" fill="#658D5C" id="path264"/><path d="M20.0788764,42.0000065 C20.0788764,42.0000065 19.9447641,42.1843442 19.31515,42.1843442 C18.685536,42.1843442 16.7165822,41.9018135 15.1413539,42.2574127 C12.7660638,42.7937592 11.785443,44.7136602 10,45.3960145 C12.7123545,46.4052542 14.6974739,46.1568227 16.9545308,44.5970066 C17.9121555,43.9354181 18.502603,42.6409605 19.8211801,42.4055933 C20.4230514,42.2984266 20.6083458,42.3141934 21,42.445332 L20.0788701,42 L20.0788764,42.0000065 Z" fill="#658D5C" id="path268"/><path d="M9.00000129,10 C9.43890562,8.85530663 9.42882325,7.5817245 9.67462732,6.39298287 C10.192513,3.88717796 10.9653693,3.07245272 12.9307334,1.39628891 C13.5569318,0.862427401 14.1982543,0.474061057 14.8793009,0 C14.9896003,0.720868503 15.0409305,1.32592703 14.96149,2.0497513 C14.5748329,5.59049293 12.9376055,6.42618615 10.1925117,8.59160685 C9.66011362,9.01107014 9.52277357,9.59882413 9,10 L9.00000129,10 Z" fill="#658D5C" id="path288"/><path d="M7,15.3999356 L6.81518963,16 C6.71147141,15.2191493 6.38626037,14.8712202 5.83000276,14.3619774 C3.40723361,12.1453485 2.37201473,9.53645195 3.38839738,6.48610684 C3.74424495,5.41986388 4.08674176,4.83174274 4.83624023,4 C5.30957919,4.82022067 5.53894086,5.31084408 5.86696245,6.20085297 C6.69811709,8.45940653 7.02965129,9.73628007 6.70008519,12.3232997 C6.58343625,13.2371819 6.15015074,14.3500402 6.74997679,15.1625895 C6.81560967,15.2509935 6.89515494,15.3544623 6.99999762,15.3999428 L7,15.3999356 Z" fill="#658D5C" id="path296"/></g><path d="M59.1635232,68.6386864 C59.5027962,68.7227185 59.4940561,68.5454764 59.7065423,68.594085 C59.9028537,68.6386864 60.1009917,69.7736338 61.0501965,69.656375 C61.2919025,69.6263817 61.4130868,69.3717012 61.4130868,69.3717012 C61.4130868,69.3717012 61.7601845,69.935877 62.1251511,69.9866846 C62.6504305,70.0598564 62.5000351,69.5913479 62.6333457,69.5758335 C62.8467463,69.5513995 63.2391017,70 63.6313356,70 C63.8523013,70 63.8207379,69.6263817 64.0540838,69.6263817 C64.2875732,69.6263817 64.7484227,69.8468034 64.938333,69.5758335 C65.1864334,69.2222535 64.6085852,68.8076546 64.5664529,68.6813482 C64.5238015,68.5554304 64.7306752,68.5518095 64.7090292,68.4300292 C64.628674,67.9805246 63.8922138,67.9086444 63.8284245,67.7500187 C63.7647787,67.5919096 63.9312097,67.4286299 63.8688671,67.1823524 C63.7634755,66.7632275 63.1634512,66.7486194 62.892004,66.8082175 C62.2632878,66.9469341 62.8333059,66.2823077 62.3852452,66.0951117 C61.6138312,65.7726885 60.4916529,66.383276 60.2050757,66.2636925 C60.0124143,66.1832801 59.938977,66.159493 59.7743627,66.1309226 C59.0795114,66.011339 58.4389274,67.0159706 58,67.225533 L58.2191379,67.4896509 C58.8080752,67.6540974 58.8241198,68.5545295 59.1635232,68.6386864 Z" fill="#658D5C" id="path412" stroke="#262626" stroke-width="0.1"/><g fill="#D99F31" id="Group" stroke="#262626" stroke-width="0.1" transform="translate(4.000000, 38.000000)"><path d="M1,12 C1.55242072,12 2,12.4474896 2,12.9997996 C2,13.5521097 1.55242072,14 1,14 C0.44757928,14 0,13.5521097 0,12.9997996 C0,12.4474896 0.44757928,12 1,12 L1,12 Z" id="path214"/><path d="M2.00016045,0.982611832 C2.00952169,0.430277687 2.46515224,-0.00934232029 3.01744572,0.000150898077 C3.56974034,0.00964864457 4.00973072,0.46504125 3.99983634,1.0173754 C3.99033928,1.56970954 3.53497926,2.00973142 2.98268464,1.99983633 C2.43025646,1.99007822 1.99039964,1.53494598 2.00015932,0.982611832 L2.00016045,0.982611832 Z" id="path306"/><path d="M8.00006452,21 C8.55221227,21 9,21.4477877 9,21.9999355 C9,22.5520832 8.55221227,23 8.00006452,23 C7.44791677,23 7,22.5520821 7,21.9999355 C7,21.4477877 7.44791786,21 8.00006452,21 L8.00006452,21 Z" id="path316"/><path d="M11,31 C11.5521834,31 12,31.4477165 12,32.0000645 C12,32.5522835 11.5521834,33 11,33 C10.4478166,33 10,32.5522835 10,32.0000645 C10,31.4477165 10.4478166,31 11,31 L11,31 Z" id="path374"/><path d="M15.9999355,34 C16.5522835,34 17,34.4477165 17,35.0000645 C17,35.5522835 16.5522835,36 15.9999355,36 C15.4477165,36 15,35.5522835 15,35.0000645 C15,34.4477165 15.4477165,34 15.9999355,34 L15.9999355,34 Z" id="path458"/></g><g id="Group" stroke="#262626" stroke-width="0.1" transform="translate(32.000000, 29.000000)"><path d="M33.502821,16.9999925 L33.3013392,16.0918269 C33.355801,16.0616034 33.40222,16.0164909 33.4467774,15.9729986 C33.6827419,15.7403548 33.7954131,15.0969726 33.8136643,14.7741013 C33.8530505,14.0727785 33.3568109,13.6705905 33.3320987,13.0873596 C33.3194445,12.7846873 33.6469695,12.6763254 33.6998494,12.3897228 C33.7670993,12.0248346 32.7858505,11.1426162 33.043096,10.4526473 C33.2179918,9.98514785 33.6417861,10.2266379 33.8130924,9.61760591 C33.9621201,9.08685958 33.5150372,8.14035568 34.0742193,7.82250479 C34.4119407,7.63128872 34.8978258,7.93867939 35.0610773,7.32493033 C35.1848087,6.86096964 35.0893911,6.06897992 35.7286111,6.00322283 C36.5976267,5.91402761 36.7279773,7.70440666 36.9538914,7.88221792 C37.2045299,8.07918337 37.403566,7.82354083 37.6445678,7.92010688 C38.0078653,8.06562003 37.9183368,8.5798547 37.8365589,8.87633454 C37.7420052,9.22102501 37.5783157,9.50526964 37.4393506,9.82548594 C37.4121806,9.88932324 37.4116087,9.94932721 37.4849058,9.97792805 C37.7132656,10.0665341 37.9082742,10.029087 37.9876064,10.3364764 C38.0952402,10.7538492 37.4702439,11.2098487 37.3318507,11.5406812 C37.2240709,11.798241 37.6461496,11.8635525 37.7010494,12.2047042 C37.7793716,12.6862089 36.20402,13.2258015 36.083294,13.4518109 C36.069204,13.7674574 36.4779228,14.0940135 35.9812573,14.26459 C34.7336983,14.6933155 33.4881591,15.4993129 33.502821,17 L33.502821,16.9999925 Z" fill="#658D5C" id="path24"/><path d="M31.904524,15.4280028 L32,16 C30.4825002,13.6607136 29.2440592,14.5899742 28.9185856,14.209821 C28.6709242,13.9204823 28.9866392,13.7121483 28.7845999,13.485339 C28.5708257,13.2450286 27.2953242,13.7536445 26.9164461,12.6863906 C26.8375844,12.4644134 27.1190068,12.0977663 26.9767129,12.0677812 C26.6540128,11.9997097 26.2190863,12.0093739 25.9975353,11.694597 C25.9052225,11.5631443 25.8258326,11.3832312 25.9465002,11.2412624 C26.0091407,11.167933 26.0828596,11.1055467 26.1350828,11.0221272 C26.3322372,10.7062145 25.1332226,10.4624941 25.1295301,9.99224851 C25.1271519,9.72280603 25.4559227,9.62545939 25.335388,9.29377262 C25.2301512,9.00344006 24.8661745,8.52282038 25.051987,8.20690644 C25.2773621,7.82434329 25.7827104,8.30595802 26.0642658,8.34091719 C26.202472,8.35797024 26.4370788,8.00709834 26.665224,8.00013538 C27.0282784,7.9886207 27.1831,8.71552234 27.4606983,8.68610514 C27.7314387,8.65725706 28.0389806,8.20349535 28.3353011,8.59771157 C28.5416838,8.87255404 28.5369385,9.67505557 29.0205264,9.44256236 C29.1360555,9.38713905 29.308015,9.23522218 29.4373894,9.29576152 C30.211235,9.65643955 30.0136843,10.9965422 30.2060877,11.7095143 C30.30948,12.0922195 30.6785995,12.0078061 30.8107429,12.2445623 C30.8746987,12.3595311 30.9281144,12.4925456 30.9386657,12.6272674 C30.9480447,12.7428041 30.9314082,12.8567767 30.9169042,12.9706073 C30.8570349,13.4327529 30.897387,13.8480012 31.0064513,14.3007642 C31.0925595,14.6614422 31.5632289,15.329933 31.904524,15.4279896 L31.904524,15.4280028 Z" fill="#658D5C" id="path50"/><path d="M31.0889341,9 C31.3457746,9.65278003 31.7139308,10.6621213 31.9588421,11.6045689 C33.107894,16.0241456 33.2138683,21.1312303 32.721933,24.0819574 C31.2071225,33.1703382 23.0683417,41.6255999 16.5544361,42.9458533 C11.0238669,44.066796 7.75492547,46.4999922 5.43328362,49.100572 C4.33260856,50.3331138 3.45371986,51.5626547 2.7734926,52.7346974 C2.09873142,53.8963493 1.65613443,54.8923205 1.05721467,55.8931219 C1.05019957,55.8966771 1.03954991,55.9012326 1.02370837,55.906645 C0.983331785,55.9213058 0.929495941,55.9341167 0.867530415,55.9462153 C0.735886315,55.9712681 0.569194019,55.9907688 0.411053971,55.9973165 C0.249828942,56.0042944 0.106830114,55.9977985 0.020609674,55.9762503 L0,55.9706945 C0.0842583487,55.8381738 0.16809413,55.7090698 0.2503892,55.5718526 C0.82154531,54.6160266 1.31797815,53.6842579 1.97101151,52.5771251 C2.62207922,51.4741176 3.39216859,50.3100494 4.44013663,49.1073956 C6.85584728,46.3348635 10.2890916,43.6529957 16.1565517,42.4557651 C22.9870153,41.0619487 30.7867744,32.4618026 32.3143094,23.2976896 C32.8115862,20.3134952 32.8007965,15.160289 30.9331063,9.57669583 L31.0888629,9.00006869 L31.0889341,9 Z" fill="#A48253" id="path448"/><path d="M33.0897405,23.031788 C33.4314924,23.0161757 33.6446534,22.4317985 33.7478538,22.1776984 C33.8824646,21.8464801 33.9425303,21.5162031 33.9561479,21.1631816 C33.9767928,20.6502706 33.5861655,19.7492061 34.4343554,19.8712811 C34.4343554,19.8712811 34.6132659,18.669014 34.9800927,18.3917615 C35.2192025,18.2114146 35.646095,18.313701 35.7493075,18.2421003 C35.9938668,18.0727895 35.8991137,17.3396935 36.4266336,17.2460217 C36.6309103,17.2095485 36.9973123,17.3993168 37.1529928,17.3265048 C37.3480819,17.2352546 37.4180393,16.685197 37.7914685,16.5916597 C38.0249832,16.5333832 38.3343294,16.7699874 38.4865752,16.6806219 C38.8081069,16.4922004 39.0529454,15.8959793 39.5076557,16.0157616 C40.0208418,16.1506184 39.8397951,16.8820986 39.7093473,17.1816899 C39.6160264,17.3960875 39.8756355,17.4737435 39.9678034,17.6312103 C40.1402571,17.9268977 39.5671388,18.3967411 39.4956159,18.6575711 C39.4683684,18.7544734 39.7209502,18.8727754 39.7843172,18.9363005 C40.1659146,19.3190665 39.1831019,19.9957696 38.9190628,20.2073366 C38.8403548,20.2701882 38.669491,20.3960281 38.6600242,20.4969676 C38.6398162,20.711634 38.8862324,20.8682929 38.8227319,21.1300653 C38.6069857,22.0186089 37.2895941,21.7565676 36.7719658,21.9188796 C36.5632469,21.9840193 36.5330017,22.3819942 36.403986,22.548209 C35.9898495,23.0819808 34.1741758,22.566244 33.6869385,22.9840018 C33.395652,23.2337957 33.160693,23.663532 33,24 L33.0897405,23.0317812 L33.0897405,23.031788 Z" fill="#658D5C" id="path58"/><path d="M26.1616255,18.362282 C26.0238532,17.952369 25.3690182,17.6697274 25.3002713,17.1761839 C25.269188,16.9519075 25.5237304,16.5705028 25.5024483,16.5040296 C25.3893187,16.1477541 24.7735462,15.6883926 25.0889926,15.2452482 C25.4961477,14.6728031 26.0759364,15.2637576 26.5585634,15.3991347 C26.6376698,15.3700865 26.6642721,15.1140601 26.8528688,15.0656926 C27.5917119,14.8761381 28.2350612,16.0342701 28.4291287,16.104525 C29.0020608,16.3140748 29.4514945,15.3359057 29.7630265,17.4735555 C30.0081862,17.4169462 30.3414236,17.3585798 30.4892709,17.6017718 C31.0986077,18.609259 30.7428353,20.7801426 31.9605132,21.3634055 L32,21.4404163 C31.9833328,21.5258038 31.9438578,22.1675589 31.7652011,21.9582791 C31.4574505,21.5982207 31.2152308,21.0860328 30.6792723,20.9953764 C30.1136187,20.8998562 27.6438141,21.7621049 27.577431,20.6794977 C27.5695953,20.5516875 27.748808,20.3763185 27.6895837,20.2522912 C27.5484483,19.9541121 26.0647412,20.058549 25.9090463,19.2581784 C25.848141,18.9441917 26.0769203,18.658171 26.1616279,18.3622888 L26.1616255,18.362282 Z" fill="#658D5C" id="path84"/><path d="M26.1616255,18.362282 C26.0238532,17.952369 25.3690182,17.6697274 25.3002713,17.1761839 C25.269188,16.9519075 25.5237304,16.5705028 25.5024483,16.5040296 C25.3893187,16.1477541 24.7735462,15.6883926 25.0889926,15.2452482 C25.4961477,14.6728031 26.0759364,15.2637576 26.5585634,15.3991347 C26.6376698,15.3700865 26.6642721,15.1140601 26.8528688,15.0656926 C27.5917119,14.8761381 28.2350612,16.0342701 28.4291287,16.104525 C29.0020608,16.3140748 29.4514945,15.3359057 29.7630265,17.4735555 C30.0081862,17.4169462 30.3414236,17.3585798 30.4892709,17.6017718 C31.0986077,18.609259 30.7428353,20.7801426 31.9605132,21.3634055 L32,21.4404163 C31.9833328,21.5258038 31.9438578,22.1675589 31.7652011,21.9582791 C31.4574505,21.5982207 31.2152308,21.0860328 30.6792723,20.9953764 C30.1136187,20.8998562 27.6438141,21.7621049 27.577431,20.6794977 C27.5695953,20.5516875 27.748808,20.3763185 27.6895837,20.2522912 C27.5484483,19.9541121 26.0647412,20.058549 25.9090463,19.2581784 C25.848141,18.9441917 26.0769203,18.658171 26.1616279,18.3622888 L26.1616255,18.362282 Z" id="path86"/><path d="M32.9195114,22 C31.9598362,20.5815642 31.530664,21.1166148 30.0733275,21.2211715 C29.7409145,21.2448455 28.619974,21.2895151 28.6398018,20.7548892 C28.6455635,20.602703 28.7667348,20.562684 28.6673202,20.3793551 C28.4556138,19.9869117 27.1422147,20.0587772 26.9445756,19.3320868 C26.8422013,18.9559896 27.0590795,18.449124 27.0038986,18.3073651 C26.8207502,17.835306 26.0053143,17.393824 26.2476367,16.7754927 C26.2798873,16.6933405 26.3276706,16.6175284 26.3433525,16.5293167 C26.392173,16.2563671 25.806484,15.6311351 26.0671512,15.2282666 C26.3699816,14.7597295 26.8987136,15.1297683 27.3014019,15.3035145 C27.5895863,15.4280825 27.5166519,15.1851469 27.7071978,15.1252585 C28.0399115,15.0201375 28.4545829,15.3229603 28.6772404,15.5260165 C28.8020941,15.6404386 29.1967962,16.0889657 29.2972504,16.1334933 C29.5323155,16.2374868 29.9317523,16.1191204 30.2044064,16.2102909 C30.4492414,16.2925838 30.6152287,17.2719321 30.6522164,17.5216252 L30.6995501,17.5529086 C30.9226409,17.5068288 31.251359,17.5088021 31.3851057,17.7159458 C31.9935672,18.6611914 31.6945847,20.9179193 33,21.603036 L32.9195114,21.9999905 L32.9195114,22 Z" fill="#658D5C" id="path88"/><path d="M23.5292023,39 C23.5657697,38.6981904 23.5982319,38.2904149 23.5300714,37.9944045 C23.4317865,37.5661889 22.5966273,37.027513 22.5596742,36.6564104 C22.5358083,36.4199786 22.6955531,36.3582251 22.7289126,36.0626492 C22.7740774,35.664296 21.9056847,35.4093093 22.0084606,34.8609215 C22.0710753,34.5250459 22.4425282,34.364574 22.4072437,34.0663887 C22.3878687,33.9002637 21.9480272,33.4898777 22.0418211,33.0632577 C22.1180359,32.7182495 22.4492005,32.855818 22.6412782,32.6821547 C22.8520889,32.492401 22.228125,31.9135703 22.4271314,31.5653735 C22.5849513,31.2887881 23.0167093,31.4099754 23.1389872,31.2142777 C23.265756,31.0119118 23.0374954,30.1669331 23.6387493,30.0093601 C24.1143891,29.884983 24.2112618,31.0382947 24.4129634,31.206014 C24.6037582,31.3651813 24.690366,31.0801874 24.9889403,31.1259953 C25.2831518,31.1713687 25.0563024,31.9832953 25.1726781,32.2279896 C25.2984204,32.4934135 25.4983252,32.2824956 25.7018226,32.3645431 C26.0301639,32.4970379 25.7063092,33.2840323 25.7063092,33.5577187 C25.7063092,33.8435828 25.9738326,33.8431471 25.9976974,34.1814872 C26.0365744,34.7314693 25.5736372,34.8706322 25.3286968,35.2095515 C25.2609491,35.3027617 25.255047,35.3894485 25.3301091,35.4807735 C25.770849,36.0172745 25.4599577,36.339523 25.0314066,36.6891693 C24.365614,37.232919 23.5833196,37.5335675 23.9185874,38.62889 L23.5291708,38.9999902 L23.5292023,39 Z" fill="#658D5C" id="path110"/><path d="M30.4590938,35.8162707 C31.2314683,35.7789724 31.9700157,36.1216394 32.4368971,35.9530835 C33.1322292,35.703106 32.7077561,35.1623627 33.0429471,35.1322067 C33.3781382,35.1014164 35.0693593,35.2253731 35.0676242,34.3844966 C35.0676242,34.222606 34.9313205,34.1594383 34.9921689,33.9770737 C35.0530039,33.7945504 36.3254817,33.8559738 36.3712391,33.1768294 C36.4001434,32.7438529 36.0053817,32.7389333 36.0662302,32.4765753 C36.1270652,32.2143773 37.4899279,30.9262425 36.8108032,30.3929586 C36.3431148,30.0256909 35.5769408,30.6669014 35.5048077,30.4794585 C35.4104549,30.2350362 35.3893248,30.0306105 35.0792317,30.0017243 C34.6307635,29.9604578 34.3599045,30.6735679 34.0672832,30.6735679 C33.7740297,30.6735679 33.6405908,30.3805783 33.3400339,30.4074017 C32.9468459,30.4420017 32.887598,31.041947 32.5523935,31.041947 C32.2173638,31.041947 31.6945567,30.8560912 31.6945567,30.8560912 L30,35.850872 C30,35.850872 30.2797495,35.8246842 30.4591072,35.8162721 L30.4590938,35.8162707 Z" fill="#658D5C" id="path142"/><path d="M31,30 C31,30 31.5844789,29.3084282 32.0555129,29.0391757 C32.9696161,28.5158121 34.4551429,29.3580517 34.6758231,28.8841605 C34.7884751,28.6427921 34.6184418,28.4661886 34.7602423,28.4018742 C34.9017747,28.3375598 36.5226356,28.7029089 36.5870082,27.8699657 C36.5991478,27.7198984 36.4183039,27.6440396 36.5587754,27.4836274 C36.6996601,27.3235148 37.7232435,27.2455579 37.6207545,26.6956583 C37.5884343,26.5196552 37.3656544,26.4700318 37.4227677,26.2940287 C37.4793561,26.1174252 38.2463876,25.2888282 37.9189968,24.7807509 C37.823499,24.6324821 37.58237,24.6615657 37.6003059,24.4803153 C37.6574192,23.9173736 37.8240239,23.0471053 37.4148496,23.0016768 C36.9752089,22.9532529 36.4614348,23.9693973 36.2898269,24.0085262 C36.0767967,24.0569501 35.9499055,23.8182802 35.7370094,23.8957878 C35.3834965,24.0242681 35.3270421,24.6194413 35.1851188,24.6194413 C35.0437092,24.6194413 35.054397,24.4533324 34.8269936,24.4585797 C34.1327665,24.4750706 34.0744694,25.7409837 33.727032,26.0520522 C33.529034,26.229105 33.4121717,25.9904364 33.2169433,26.0363103 C32.7358916,26.1484496 32.8778149,27.5156977 32.6228376,27.9507646 C32.3676035,28.3855269 31.8158469,28.8998948 31.7026701,28.9648096 C31.5889684,29.0291253 31.3664342,29.0285249 31.3664342,29.0285249 L31,29.9999937 L31,30 Z" fill="#658D5C" id="path248"/><path d="M32,9.99997999 C32,9.99997999 31.5450631,8.83407191 31.1564079,8.40878108 C30.7450905,7.95748878 30.4495144,7.86280928 29.702492,7.65356869 C29.0417419,7.46824135 28.0097617,7.31920115 27.9663167,6.86512849 C27.9223925,6.41105584 27.9831255,6.49697636 27.7947454,6.45345932 C27.1882183,6.3137337 26.4299346,6.137861 26.5748738,5.61121403 C26.7198062,5.08428926 26.943388,5.00226147 26.6836526,4.89173202 C26.3000737,4.72948334 25.2914135,4.21465468 25.4119277,3.76405689 C25.5318054,3.31290349 25.9805572,3.30692488 25.7915421,3.03025518 C25.6556477,2.83241502 25.1693166,2.61525004 25.2083244,2.2546056 C25.2352801,2.00866115 25.5903178,1.92899703 25.5796929,1.71002399 C25.5690733,1.49063425 24.6157518,0.517834298 25.1766106,0.111597544 C25.6878381,-0.258361471 26.5905722,0.403004819 26.8212897,0.486561684 C27.0526421,0.570118549 27.3185626,0.140932614 27.6569486,0.211421065 C28.0919044,0.302346717 28.1147371,0.873205233 28.2428622,1.07563382 C28.4775442,1.44462053 28.9576982,0.964548764 29.3333441,1.14153384 C29.9595369,1.43683386 29.7415065,2.45203612 29.9105337,2.65738514 C30.0787823,2.86259409 30.5414791,2.53462186 30.8698806,2.6929778 C31.3806274,2.94031243 30.9436135,4.42251215 30.9769088,4.66582338 C31.0103786,4.90996094 31.3817417,4.70016357 31.5935963,4.84489432 C32.1577766,5.23000879 31.4710214,6.39869605 31.5796338,7.38469978 C31.6170641,7.72546263 31.7101432,8.25475224 31.7101432,8.25475224 L32,10 L32,9.99997999 Z" fill="#658D5C" id="path314"/><path d="M27.3814668,45.1458093 C27.5314249,45.4122116 27.8037367,45.596004 27.9298403,45.8698911 C28.1080756,46.2549404 27.9412309,46.6462282 27.4917571,46.6175364 C27.297173,46.6052002 27.1181333,46.4498227 26.9315903,46.4341595 C26.7806939,46.4221002 26.3491779,47.0189413 25.9307941,46.9995368 C25.3605767,46.9736169 25.0888016,46.2539711 24.7410462,45.8859697 C24.4640449,45.8255373 24.2604814,46.2475952 23.9527919,46.1900731 C23.3205274,46.0721186 23.3510818,45.0342305 23.132911,44.5771049 C22.9586968,44.4430717 22.6952306,44.7266617 22.3446567,44.4702391 C21.8028493,44.074655 22.0865516,42.8309367 21.5054781,42.4830299 C20.9938234,42.1764316 19.9116778,42.3796295 20.0057611,42.3286217 L20.6089451,42.0044204 C20.6466023,41.9839069 20.761986,42.0410124 20.7996432,42.0487742 C21.7882443,42.2523876 23.1113338,42.0848123 24.1247266,42.0848123 C24.6105174,42.0848123 24.5323892,42.4907917 24.6105174,42.5736786 L24.6496485,42.5799101 C25.1542004,42.6160867 25.7564472,42.5779738 26.1866266,42.9068834 C26.7072596,43.3066253 26.214501,43.6638149 26.2126255,43.7534942 L26.2360771,43.7651357 L26.3462347,43.8036688 L26.6860875,43.9069307 C26.9494198,43.9942536 27.2443777,44.1149801 27.4210052,44.3470071 C27.6784409,44.6852077 27.3895124,44.8430813 27.3814713,45.1457987 L27.3814668,45.1458093 Z" fill="#658D5C" id="path388"/><path d="M14.0000011,43 C14.0000011,43 15.7356818,42.1924406 15.8774229,41.7871276 C16.0957254,41.1657464 15.8576913,40.2247014 16.1615406,39.9998748 C16.3596112,39.8527674 16.5580562,39.9264606 16.6880636,39.7173405 C16.8183205,39.5080815 16.6493488,38.4941791 17.1182988,38.0845633 C17.4120323,37.8283083 17.6767926,38.0580063 18.0347182,37.7779748 C18.4202434,37.4752794 17.9331848,36.7279257 18.5225264,36.4820961 C18.8694617,36.3373527 19.2181458,36.8100972 19.3911144,36.7597637 C19.7234378,36.6634078 19.8990297,35.9271777 20.3864625,36.0058752 C20.7784821,36.0690005 20.5866564,36.5133809 20.5616791,36.9337059 C20.547192,37.1752233 20.8873843,37.0631549 20.9885423,37.4015838 C21.0627246,37.6479667 20.760124,38.1773016 20.5576822,38.3744646 C20.4421619,38.4868108 20.9094888,38.6842517 20.881389,39.034221 C20.8405511,39.5372767 19.9688407,39.5724546 19.7665247,39.6530993 C19.5052612,39.7568247 19.7409225,40.1914718 19.5635838,40.4446684 C19.2799663,40.8494211 18.5528741,40.5981716 18.4232368,40.7913015 C18.3047188,40.9677464 18.5682304,41.422277 18.2345324,41.701057 C17.8877219,41.990544 16.5395711,41.8071463 16.3208954,41.8971075 C15.671109,42.1635126 15.1419648,42.4411814 15.1419648,42.4411814 L14,42.9999929 L14.0000011,43 Z" fill="#658D5C" id="path426"/><path d="M30.4413583,28.3692395 L30.2340282,29 C30.2340282,28.1288494 30.1964318,27.7140075 29.0683579,27.7687535 C28.8935152,27.7766719 28.7135767,27.7945045 28.5399785,27.7697119 C27.9667324,27.687648 28.4084699,27.372693 28.2261996,27.1328683 C28.0030974,26.8404095 26.4940951,27.1031557 26.3707738,26.4115553 C26.3234286,26.1439981 26.6495829,25.8255057 26.4103823,25.6155349 C26.0481788,25.2983158 25.1459961,25.0232596 25.2423868,24.4415969 C25.2826149,24.2023376 25.6330587,24.0287304 25.5824648,23.8058841 C25.5148516,23.5088971 24.8664128,22.9924612 25.0248467,22.6661869 C25.1509451,22.4059875 25.3822544,22.4900329 25.4040695,22.2444065 C25.42898,21.9701996 24.9041637,21.2858156 25.3718872,21.0778262 C25.9887635,20.8036193 26.4065126,21.3390163 26.9358169,21.3783496 C27.2427852,21.4011296 27.4510401,21.0667896 27.7714698,21.1321578 C28.1859702,21.2162019 28.1886033,21.8264464 28.4551968,21.9513823 C28.5531307,21.9966586 28.8467883,21.7692853 28.9849647,21.7548537 C29.727473,21.6768927 29.5589706,22.9940185 29.8117963,23.3024651 C29.9036912,23.4139589 30.0995721,23.303064 30.2323252,23.3408088 C30.6969611,23.4731013 30.199209,24.9131817 30.390767,25.1057512 C30.455899,25.1714021 30.6920094,25.1346144 30.7953535,25.1609321 C31.1832509,25.2605399 30.9123214,26.17626 30.8482766,26.401223 C30.7040743,26.9061994 30.205248,27.8980416 30.4413583,28.3692048 L30.4413583,28.3692395 Z" fill="#658D5C" id="path436"/><path d="M31.7203785,27.9999784 C31.9932467,27.2633552 31.8962065,26.5453065 31.3539721,26.1430694 C30.7733028,25.7122377 29.9989739,24.6894372 30.000001,24.0970298 C30.0016097,23.3967962 30.6807793,23.8232854 30.7122103,23.4921882 C30.7358826,23.2450999 29.819644,22.5042837 30.1462913,21.9599469 C30.3590941,21.6060861 30.9258917,21.6471187 31.0692616,21.469664 C31.3077908,21.1743554 30.7163063,19.8643418 31.1844303,19.25426 C31.4418057,18.918819 31.6413184,19.2753754 31.812902,19.1515307 C31.9789295,19.0309813 31.7126321,18.0296005 32.3427124,18.0005482 C32.9496897,17.9726952 33.3960472,19.0157071 33.4932358,18.9835104 C33.6895188,18.918819 33.9227888,18.7087187 34.1437711,18.9236103 C34.3590611,19.132662 34.2918309,20.9127472 34.2918309,20.9127472 C34.2918309,20.9127472 34.7044186,20.8717159 34.8365402,20.9548271 C35.3852093,21.300751 34.3996863,23.32149 34.1221406,23.8754171 C33.8853686,24.3481791 34.5790163,24.4076303 34.2234252,24.893122 C33.6382268,25.6929392 32.4686963,26.6526953 32.2836617,27.8294337 L31.7203785,28 L31.7203785,27.9999784 Z" fill="#658D5C" id="path466"/><path d="M25.0000032,38.6295135 C25.0000032,38.6295135 25.588144,38.2801462 25.800027,37.8904205 C26.0084802,37.5056499 26.0354098,37.3675339 26.0272801,36.7594184 C26.022322,36.3900902 25.7418476,35.1192194 26.0576394,34.9168604 C26.3171576,34.7509175 26.4609536,35.0762472 26.7843676,34.7258585 C27.1786626,34.2986918 26.6003035,32.8203663 27.1617686,32.4211623 C27.5002987,32.1804803 27.8060636,32.6061903 28.197429,32.2045192 C28.4644445,31.9306198 28.4188431,31.0089757 28.9446143,30.8580335 C29.2741274,30.7631882 29.5363139,31.0577762 29.8480382,31.1058551 C30.2291217,31.1647149 31.0977423,29.7115829 31.6420551,30.0516322 C31.8806128,30.2008203 31.9512412,30.4101782 31.9074144,30.710449 C31.8601567,31.0340297 31.7002292,31.3200213 31.6391298,31.6360269 C31.5604996,32.043234 32.0405404,32.0073941 31.9972298,32.4371845 C31.9565757,32.8452661 31.5344617,33.2367385 31.5344617,33.501606 C31.5344617,33.7915313 31.9150397,33.9799108 31.9396795,34.3365633 C31.9860445,35.0125717 30.7533657,35.0259751 30.653774,35.3967601 C30.5550749,35.7641936 30.7949017,36.0396966 30.5618076,36.4729828 C30.3099136,36.940361 29.4425622,36.5268888 29.1036492,36.6855466 C28.8207592,36.817252 28.9919903,37.5502256 28.8205011,37.843939 C28.3470639,38.6536918 26.0563649,37.5164247 25.1153414,39 L25,38.6295074 L25.0000032,38.6295135 Z" fill="#658D5C" id="path478"/></g><g id="Group" stroke="#262626" stroke-width="0.1" transform="translate(56.000000, 36.000000)"><path d="M12.8197302,7.11574767 C13.237026,7.4491813 12.8331399,8.74396618 12.5791124,8.94247667 C12.3634097,9.11170913 11.7503481,8.88585144 11.3949733,8.54764425 C11.0721077,8.23962154 10.9181999,7.80918893 11.0435217,7.66781805 C11.4297881,7.23183869 12.4025721,6.7824451 12.8197417,7.11574986 L12.8197302,7.11574767 Z" fill="#D99F31" id="path78"/><path d="M1.85464562,33.2114962 C2.31295231,33.6474197 1.58531024,35.083689 1.08523252,34.9961678 C0.224981974,34.8456622 -0.0848323142,33.9356164 0.0194233927,33.5608646 C0.126615992,33.1736597 1.34574726,32.7273403 1.85465259,33.2114972 L1.85464562,33.2114962 Z" fill="#A48253" id="path404"/><path d="M2.12260889,34.8445507 C1.92264913,34.6951102 1.97424736,34.0114366 2.22657776,33.5557427 C2.45548948,33.1429383 2.81024501,32.9427024 2.9573199,33.014272 C3.49788113,33.2785744 4.17470779,34.1631522 3.95879314,34.6451205 C3.74442113,35.1234642 2.38729248,35.041439 2.12261215,34.8445529 L2.12260889,34.8445507 Z" fill="#D99F31" id="path486"/><path d="M8.65180211,3.99566228 C8.20161895,3.93381959 7.84956326,3.1096414 8.065001,2.35788875 C8.26677241,1.65240257 10.1610922,2.09850429 9.98895766,2.75963112 C9.80100015,3.48259964 9.09166741,4.05583346 8.65180211,3.99565926 L8.65180211,3.99566228 Z" fill="#A48253" id="path500"/><path d="M9.32242694,0.00335096363 C9.70301131,0.0588776089 10.1067839,0.851950662 9.97426957,1.65893726 C9.91077066,2.04877261 9.25313097,2.02732734 8.91713492,1.9645251 C8.55518063,1.89661633 7.94599786,1.67272327 8.00383996,1.36407151 C8.16452152,0.503217219 8.97207848,-0.0483465932 9.32242694,0.00334555989 L9.32242694,0.00335096363 Z" fill="#D99F31" id="path504"/></g><path d="M9.32833614,58.7627312 C8.93424356,58.1838126 8.09630458,57.5397229 7.62257389,57.0677493 C6.80788885,56.2562894 6.30230482,55.3263966 6.11653346,54.2080348 C5.67790087,51.5646415 6.47933596,49.7869224 8.49025872,48 C8.61725321,49.8543782 9.72271989,51.391715 9.95669132,53.2435292 C10.2921502,55.8997658 8.53000976,56.4004135 9.75400638,59 L9.32834091,58.7627266 L9.32833614,58.7627312 Z" fill="#658D5C" id="path520" stroke="#262626" stroke-width="0.1"/><path d="M26.3740734,27 C26.3740734,27 26.1977086,26.7567113 26.1304905,26.5748519 C26.0333046,26.3119972 26.045951,25.8522671 26.045951,25.8522671 L25,24.6438626 L26.980147,22.5662084 L30.7451008,21.3743366 L35.5003375,21 L40.2550273,21.3743366 L44.0205397,22.5662084 L46,24.6438626 L44.9547357,25.8522671 C44.9547357,25.8522671 44.9668327,26.3119972 44.8696468,26.5748519 C44.802977,26.7567113 44.626064,27 44.626064,27 L40.3164761,25.529049 L35.5003468,25.2907661 L30.6837986,25.529049 L26.3740827,27 L26.3740734,27 Z" fill="#F1BF31" id="path582" stroke="#262626" stroke-width="0.1"/><path d="M33.7041612,11.0354721 C30.5806839,14.781184 25.2743666,12.9861782 22.77334,14.4444419 C18.4217792,16.9808105 23.3365572,22.849582 24.2278293,24 L28.3238425,22.711957 C26.5822081,21.2628032 23.2739067,18.7267118 24.3253667,16.7266241 C25.4028261,14.67601 31.2337707,16.7192253 33.7378088,12.3415903 C34.2645001,11.4208908 33.860931,10.8480316 33.7041554,11.0354721 L33.7041612,11.0354721 Z" fill="#F1BF31" id="path588" stroke="#262626" stroke-width="0.1"/><path d="M27.1674912,23.2298545 L27,23.148786 L28,23 L27.1674912,23.2298545 Z" fill="#D99F31" id="polygon596" stroke="#262626" stroke-width="0.1"/><path d="M27.1674912,23.2298545 L27,23.148786 L28,23 L27.1674912,23.2298545 Z" id="polygon598" stroke="#262626" stroke-width="0.1"/><path d="M28.8866791,22 L29,22.1330147 L27,23 L27.4520792,22.6373402 C27.9549925,22.4560102 28.4325891,22.2430661 28.8866791,22 L28.8866791,22 Z" fill="#F1BF31" id="path600" stroke="#262626" stroke-width="0.1"/><path d="M28.8866791,22 L29,22.1330147 L27,23 L27.4520792,22.6373402 C27.9549925,22.4560102 28.4325891,22.2430661 28.8866791,22 L28.8866791,22 Z" id="path602" stroke="#262626" stroke-width="0.1"/><path d="M38.2958515,11.0354721 C41.4193407,14.781184 46.7256783,12.9861782 49.2267144,14.4444419 C53.5781529,16.9808105 48.6634951,22.849582 47.7722196,24 L43.6760518,22.711957 C45.4178318,21.2628032 48.7260068,18.7267118 47.6749483,16.7266241 C46.5972114,14.67601 40.7661008,16.7192253 38.2621922,12.3415903 C37.7354989,11.4208908 38.1390695,10.8480316 38.2958457,11.0354721 L38.2958515,11.0354721 Z" fill="#F1BF31" id="path632" stroke="#262626" stroke-width="0.1"/><path d="M36.5190051,19 L34.8155121,19 C34.8155121,19 35.0776898,17.4250034 34.8662418,16.3536676 C34.6940549,15.4818889 34.0880912,14.8053749 34.0080999,13.9210267 C33.8944362,12.6734187 35.0146076,11 35.0146076,11 L36.5190064,11 L38.0235421,11 C38.0235421,11 39.1050413,12.6734187 38.9916714,13.9210267 C38.9116801,14.8053762 38.3439479,15.4818852 38.171761,16.3536676 C37.9604612,17.4249998 38.2224907,19 38.2224907,19 L36.5189977,19 L36.5190051,19 Z" fill="#F1BF31" id="path670" stroke="#262626" stroke-width="0.1"/><path d="M36.0056023,5.00000786 L35.9522776,4.09604179 L35.9396912,3.76158592 C35.9167387,3.13529718 36.8719228,3.95681054 37.2604428,3.95681054 C37.6489628,3.95681054 38,3.5730479 38,3.10337274 C38,2.6333636 37.6489628,2.24976795 37.2604428,2.24976795 L37.2604463,2.24975663 C36.8641775,2.24975663 36.3390047,2.64338147 36.0825739,2.44180564 C35.6522839,2.10283968 36.2416335,1.3745934 36.2416335,0.893217752 C36.2416335,0.423877979 35.8890751,0 35.5000023,0 C35.1110678,0 34.7583712,0.423876564 34.7583712,0.893217752 C34.7583712,1.37459057 35.3449548,2.12389716 34.9183992,2.44180564 C34.6470259,2.64338147 34.1224058,2.24975663 33.7396954,2.24975663 C33.3511754,2.24975663 33,2.63335228 33,3.10336142 C33,3.57303658 33.3511754,3.95679922 33.7396954,3.95679922 C34.0982027,3.95679922 35.0822975,3.13578682 35.059475,3.7615746 L35.0477189,4.08382902 L34.9769977,5.28089365 C34.3917722,5.62980015 34,6.26906 34,6.99986122 C34,8.10433379 34.894849,9 35.9999336,9 C37.1044438,9 38,8.1043362 38,6.99986122 C38,5.89727151 37.1075111,5.00306514 36.0056023,5.00000786 Z" fill="#E5B731" id="path690" stroke="#262626" stroke-width="0.1"/><path d="M36.8945339,12.440717 L35.4997237,12.440717 L34.1104975,12.4401912 C33.8746983,12.8948292 33.1303114,13.2033555 32.5210983,12.8403282 C32.088527,12.5821105 32,11.9958007 32,11.9958007 C32,11.9958007 33.1656692,12.0444003 33.171921,10.8668141 C33.171921,9.67338909 33.7722987,8.89376281 34.6353975,9.01177806 C35.0120789,9.06301747 35.2669157,9.27993308 35.4997237,9.52153764 C35.7330751,9.27993308 35.9888652,9.06239696 36.3662259,9.01177806 C37.2290564,8.89485791 37.8282056,9.67339435 37.8282056,10.8575065 C37.8282056,12.0450314 39,11.9968958 39,11.9968958 C39,11.9968958 38.9116088,12.5821184 38.4789017,12.840336 C37.8673733,13.2044506 37.1186319,12.892196 36.8945339,12.4406644 L36.8945339,12.440717 Z" fill="#D99F31" id="path698" stroke="#262626" stroke-width="0.1"/><path d="M36.4997851,25.0000002 C42.0631188,24.9994747 46,26.2601119 46,28.2350754 C46,29.8149873 42.0631307,31 36.4997851,31 C30.9370125,31 27,29.8149899 27,28.2350754 C27,26.2601067 30.9370125,25.0000002 36.4997851,25.0000002 Z" fill="#F1BF31" id="path708" stroke="#262626" stroke-width="0.1"/><path d="M27,28 C27,26.8954668 30.8202292,26 35.9996391,26 C41.1803458,26 45,26.8954668 45,28 C45,29.1045332 41.180358,30 35.9996391,30 C30.8202292,30 27,29.1045332 27,28 L27,28 Z" fill="#D99F31" id="path712" stroke="#262626" stroke-width="0.1"/><path d="M27,28.0016221 C27,26.8603957 30.7759345,26 35.9998581,26 C41.2240655,26 45,26.860399 45,28.0016221 C45,29.1428485 41.2240655,30 35.9998581,30 C30.7759468,30 27,29.1428485 27,28.0016221 L27,28.0016221 Z" id="path750" stroke="#262626" stroke-width="0.1"/><path d="M22,22.5592365 C22.2614408,22.3520733 22.7204711,22.2728633 23.2068247,22.2394224 C23.7771608,22.2005972 24.2518672,22.2792398 24.6545293,22.4675579 C24.2763183,21.1354539 24.8905158,19.7728771 24.8905158,19.7728771 C24.8905158,19.7728771 26.0999291,19.777412 27.2886365,20.7184328 C27.3276082,19.1043476 27.8468932,18.3037416 27.8468932,18.3037416 C27.8468932,18.3037416 29.0048231,18.4307038 30.2677335,19.667734 C30.5388089,18.0012093 31.4240818,17.0606204 31.4240818,17.0606204 C31.4240818,17.0606204 32.94081,17.5244004 33.807957,19.1007965 C34.3859151,16.8164663 35.9997133,16 35.9997133,16 C35.9997133,16 37.6142237,16.8164687 38.1921879,19.1007965 C39.0591973,17.5243944 40.5760631,17.0606204 40.5760631,17.0606204 C40.5760631,17.0606204 41.4896662,17.9030198 41.7324114,19.667734 C42.9954606,18.4307074 44.1532517,18.3037416 44.1532517,18.3037416 C44.1532517,18.3037416 44.672393,19.1043393 44.7115084,20.7184328 C45.9002134,19.777412 47.2601927,20.0328938 47.2601927,20.0328938 C47.2601927,20.0328938 47.7238254,21.1354515 47.345758,22.4675603 C47.7481291,22.2792422 48.2228343,22.2005996 48.7927443,22.2394248 C49.2790979,22.2728657 49.7387041,22.3520757 50,22.5592389 C48.8741394,22.9887275 47.7885436,23.8386395 47.0367239,25 C46.2140069,23.3439608 41.7744124,21.6744728 35.9997145,21.6744728 C30.225735,21.6744728 25.7859955,23.3439728 24.9634234,25 C24.2114576,23.8386347 23.1260006,22.9887227 22,22.5592365 Z" fill="#F1BF31" id="path782" stroke="#262626" stroke-width="0.1"/><path d="M25.0000072,24.5825302 C25.0000072,22.9903704 29.7224788,21 35.9999376,21 C42.2775284,21 47,22.9903704 47,24.5825302 C47,25.0236399 46.5085603,25.0678069 46.4641926,24.9320481 C45.9366062,23.3178108 42.27752,21.8953916 35.9999292,21.8953916 C29.7224824,21.8953916 26.0633998,23.3178108 25.5356657,24.9320481 C25.4912993,25.0678069 25,25.0236387 25,24.5825302 L25.0000072,24.5825302 Z" fill="#F1BF31" id="path858" stroke="#262626" stroke-width="0.1"/><path d="M53,51.1105432 C53,69.6338538 36.0003012,77 36.0003012,77 C36.0003012,77 19,69.8641447 19,49.7052199 C19,31.7180407 35.6973396,34.1160757 35.6973396,34.1160757 C38.9597721,34.0593332 53,31.7180167 53,51.1105432 Z" fill="#A0CFEB" id="path880" stroke="#262626" stroke-width="0.1"/><path d="M40.6105862,62.994008 C41.6049286,62.4381493 42.7508521,62.1212675 43.9701343,62.1212675 C45.9534137,62.1212675 47.7409053,62.9591155 49,64.3004179 C44.0432221,73.2270714 35.4024854,77 35.4024854,77 L35.4024854,77 C35.4024854,77 26.9851895,73.4415366 22,64.2588174 C23.2568314,62.9417362 25.0282391,62.1212554 26.990908,62.1212554 C28.3583643,62.1212554 29.6326761,62.5193147 30.7049399,63.2063414 C31.9653228,61.8488052 33.7639022,61 35.7606892,61 C37.6509805,61 39.3636748,61.7612273 40.61055,62.9939984 L40.6105862,62.994008 Z" fill="#94BB79" id="path882" stroke="#262626" stroke-width="0.1"/><path d="M36.2126938,38.0005307 C37.2068432,38.0005307 38,38.5770186 38,39.522417 C38,40.1939951 37.5996708,40.6813353 37.0169498,41.0171925 C36.8012603,40.0238132 36.3872819,39.522417 35.7598642,39.522417 C35.7070667,39.522417 35.6548698,39.5285043 35.6037219,39.540101 C35.6389702,40.5604413 36.3625334,42.0945047 36.3625334,43.7462749 C36.3625334,44.586291 35.7951125,45 35.5630739,45 C35.5630739,42.7095614 34,41.8569263 34,40.4111441 C34,40.1808116 34.029399,39.8969877 34.1016951,39.6121514 C34.2192885,39.1491631 34.746662,38.3995993 35.3725824,38.1681119 C35.8330595,37.9979349 36.1367936,37.9979349 36.21269,38.0005429 L36.2126938,38.0005307 Z" fill="#FFFFFF" id="path908" stroke="#262626" stroke-width="0.1"/><path d="M27.2129142,40.000644 C28.2068759,40.000644 29,40.5766746 29,41.5220436 C29,42.1935965 28.5996861,42.6814976 28.0169873,43.0172047 C27.801306,42.0234284 27.3874931,41.5220436 26.7593489,41.5220436 C26.7065534,41.5220436 26.6549579,41.5281307 26.6036634,41.5403074 C26.6384608,42.5604645 27.3625957,44.0941856 27.3625957,45.7463233 C27.3625957,46.5857285 26.7945959,47 26.5631667,47 C26.5631667,44.7092056 25,43.8570457 25,42.410741 C25,42.1808504 25.0296976,41.896604 25.1018411,41.6122115 C25.21943,41.148951 25.7463338,40.3998499 26.3726799,40.1683614 C26.8331395,39.9981908 27.1362626,39.9976103 27.2129053,40.0006538 L27.2129142,40.000644 Z" fill="#FFFFFF" id="path916" stroke="#262626" stroke-width="0.1"/><path d="M45.2126938,40.000644 C46.2068432,40.000644 47,40.5766746 47,41.5220436 C47,42.1935965 46.5996708,42.6814976 46.0169498,43.0172047 C45.8012603,42.0234284 45.3872819,41.5220436 44.7597144,41.5220436 C44.7066171,41.5220436 44.6548698,41.5281307 44.6037219,41.5403074 C44.6385207,42.5604645 45.3625334,44.0941856 45.3625334,45.7463233 C45.3625334,46.5857285 44.7946617,47 44.5630739,47 C44.5630739,44.7092056 43,43.8570457 43,42.410741 C43,42.1808504 43.029399,41.896604 43.101845,41.6122115 C43.2192885,41.148951 43.7462124,40.3998499 44.3727322,40.1683614 C44.8330582,39.9981908 45.136344,39.9976103 45.21269,40.0006538 L45.2126938,40.000644 Z" fill="#FFFFFF" id="path928" stroke="#262626" stroke-width="0.1"/><path d="M25.0042541,50 L25,48.5901064 L26.997744,48 L28.9957459,48.4084301 L29,50 L25.0042541,50 Z" fill="#000000" id="polygon936" stroke="#262626" stroke-width="0.1"/><path d="M30.1682822,59.3799602 L31,62.8290013 C30.13616,62.4465536 29.1823194,62.2340833 28.1784113,62.2340833 C27.0344376,62.2340833 25.9542793,62.5102229 25,63 L25.9492123,59.5185412 L25.9273626,52.7448873 L25,51.6214938 L25,49.2644522 L26.2909857,48.7111517 L26.2909857,50.1918785 L27.2403425,49.8101615 L27.2403425,48.3351343 L27.9998567,48 L28.7590817,48.22021 L28.7590817,49.7168489 L29.7084385,49.9633441 L29.7084385,48.48101 L31,48.8240299 L31,51.2575904 L30.1682822,52.503209 L30.1682822,59.3799639 L30.1682822,59.3799602 Z" fill="#FFFFFF" id="path938" stroke="#262626" stroke-width="0.1"/><path d="M27.9999583,59.1133274 L27.9999583,52.0256318 L27.9999583,50.5228755 L27.9999583,48.0001236 L27.9997133,48 L27.240381,48.3352769 L27.240381,49.8102893 L26.2910707,50.1922956 L26.2910707,48.7111508 L25.0000012,49.264154 L25.0000012,51.6211721 L25.9278966,52.7444085 L25.949744,59.5179949 L25,63 C25.9048904,62.5357809 26.9223447,62.2632962 28,62.2361346 L28,62.2133547 L28,59.1133595 L27.9999583,59.1133274 Z" fill="#BDBFC1" id="path940" stroke="#262626" stroke-width="0.1"/><path d="M30.1682822,59.3799602 L31,62.8290013 C30.13616,62.4465536 29.1823194,62.2340833 28.1784113,62.2340833 C27.0344376,62.2340833 25.9542793,62.5102229 25,63 L25.9492123,59.5185412 L25.9273626,52.7448873 L25,51.6214938 L25,49.2644522 L26.2909857,48.7111517 L26.2909857,50.1918785 L27.2403425,49.8101615 L27.2403425,48.3351343 L27.9998567,48 L28.7590817,48.22021 L28.7590817,49.7168489 L29.7084385,49.9633441 L29.7084385,48.48101 L31,48.8240299 L31,51.2575904 L30.1682822,52.503209 L30.1682822,59.3799639 L30.1682822,59.3799602 Z" id="path944" stroke="#262626" stroke-width="0.1"/><path d="M43.0037386,50 L43,48.4202218 L44.9978084,48 L46.9956169,48.4949881 L47,50 L43.0037386,50 Z" fill="#000000" id="polygon946" stroke="#262626" stroke-width="0.1"/><path d="M34.0042541,50 L34,48.5482698 L35.997744,48 L37.9957459,48.4723751 L38,50 L34.0042541,50 Z" fill="#000000" id="polygon948" stroke="#262626" stroke-width="0.1"/><path d="M38.1681426,58.9016168 L38.9999841,62.4437084 C38.2394759,62.1477382 37.4167538,61.9864793 36.5585807,61.9864793 C35.2598114,61.9864793 34.0435261,62.3557212 33,63 L33.949333,58.9662496 L33.9273393,51.8814629 L33,50.690451 L33,48.213918 L34.2912473,47.6794716 L34.2912473,49.2177311 L35.2405803,48.8609287 L35.2405803,47.3082581 L36.0000753,47 L36.7589909,47.2688152 L36.7589909,48.8231555 L37.7083239,49.0994049 L37.7083239,47.5798079 L39,48.0150401 L39,50.5352687 L38.1681585,51.7774039 L38.1681585,58.9016348 L38.1681426,58.9016168 Z" fill="#FFFFFF" id="path950" stroke="#262626" stroke-width="0.1"/><path d="M35.9999792,62.0049939 L35.9999792,60.6384597 L35.9999792,58.5260049 L35.9999792,51.1824214 L35.9999792,49.6212607 L35.9999792,47 L35.9998567,47 L35.2408506,47.3088657 L35.2408506,48.8615365 L34.2911532,49.217278 L34.2911532,47.679622 L33,48.2139156 L33,50.6904491 L33.9278499,51.8814611 L33.949842,58.9662489 L33,63 C33.8924027,62.449018 34.9114095,62.0993454 36,62.0096897 L36,62.0049888 L35.9999792,62.0049939 Z" fill="#BDBFC1" id="path952" stroke="#262626" stroke-width="0.1"/><path d="M38.1681426,58.9016168 L38.9999841,62.4437084 C38.2394759,62.1477382 37.4167538,61.9864793 36.5585807,61.9864793 C35.2598114,61.9864793 34.0435261,62.3557212 33,63 L33.949333,58.9662496 L33.9273393,51.8814629 L33,50.690451 L33,48.213918 L34.2912473,47.6794716 L34.2912473,49.2177311 L35.2405803,48.8609287 L35.2405803,47.3082581 L36.0000753,47 L36.7589909,47.2688152 L36.7589909,48.8231555 L37.7083239,49.0994049 L37.7083239,47.5798079 L39,48.0150401 L39,50.5352687 L38.1681585,51.7774039 L38.1681585,58.9016348 L38.1681426,58.9016168 Z" id="path956" stroke="#262626" stroke-width="0.1"/><path d="M47.168279,59.3800368 L47.9999963,62.6501304 C47.1870892,62.3207139 46.299375,62.1391055 45.3683977,62.1391055 C44.1478805,62.1391055 43.0001464,62.4512607 42,63 L42.9492117,59.308096 L42.9275078,52.5419223 L42.0000012,51.34958 L42.0000012,48.9516981 L43.2911332,48.5351034 L43.2911332,50.005803 L44.2404894,49.7222225 L44.2404894,48.2377434 L45.0000031,48 L45.759083,48.256455 L45.759083,49.7432553 L46.7084393,50.0644041 L46.7084393,48.6109596 L48,49.0465557 L48,51.4261632 L47.1682827,52.60632 L47.1682827,59.3800344 L47.168279,59.3800368 Z" fill="#FFFFFF" id="path958" stroke="#262626" stroke-width="0.1"/><path d="M45,59.0392934 L45,51.9988298 L45,50.5060878 L45,48 L44.2409577,48.237743 L44.2409577,49.7223672 L43.2912149,50.0058024 L43.2912149,48.5351051 L42,48.9516991 L42,51.3497246 L42.9274606,52.5414841 L42.9498874,59.3082368 L42,63 C42.8992455,62.5066731 43.917136,62.2046712 44.9999963,62.1486813 L44.9999963,62.118655 L44.9999963,59.039318 L45,59.0392934 Z" fill="#BDBFC1" id="path960" stroke="#262626" stroke-width="0.1"/><path d="M47.168279,59.3800368 L47.9999963,62.6501304 C47.1870892,62.3207139 46.299375,62.1391055 45.3683977,62.1391055 C44.1478805,62.1391055 43.0001464,62.4512607 42,63 L42.9492117,59.308096 L42.9275078,52.5419223 L42.0000012,51.34958 L42.0000012,48.9516981 L43.2911332,48.5351034 L43.2911332,50.005803 L44.2404894,49.7222225 L44.2404894,48.2377434 L45.0000031,48 L45.759083,48.256455 L45.759083,49.7432553 L46.7084393,50.0644041 L46.7084393,48.6109596 L48,49.0465557 L48,51.4261632 L47.1682827,52.60632 L47.1682827,59.3800344 L47.168279,59.3800368 Z" id="path964" stroke="#262626" stroke-width="0.1"/><path d="M34.2859227,33.2142209 C34.5449029,32.8684301 35.0397531,32.6433666 35.5176095,32.6433666 C35.996145,32.6433666 36.4903149,32.8684301 36.7492963,33.2142209 L41.6950698,31.000011 L42,38 L36.7604393,35.0113388 C36.3656476,35.4087773 36.0611249,35.6132852 35.5181516,35.6132852 C34.9747686,35.613836 34.6189943,35.3635037 34.2749086,35.0113388 L29,37.9657775 L29.340277,31 L34.2859227,33.2142209 Z" fill="#D99F31" id="path986" stroke="#262626" stroke-width="0.1"/><path d="M55.9999878,47.2777618 C55.9999878,38.9841522 52.679152,30 46.0924209,30 C43.8420096,30 41.4288335,31.1529013 41.4288335,33.3297146 C41.4288335,35.5066723 42.7172446,37.1076034 44.6409635,37.1076034 C46.5646825,37.1076034 47.2715511,35.9919657 47.2715511,35.9919657 C48.0705001,36.5145263 50.9729914,38.315536 51.3913284,47.2932325 C52.206467,64.7907554 37,75 37,75 C37,75 56,66.9787073 56,47.2778213 L55.9999878,47.2777618 Z" fill="#D99F31" id="path994" stroke="#262626" stroke-width="0.1"/><path d="M16,47.2777618 C16,38.9841522 19.3208571,30 25.9080713,30 C28.1580687,30 30.5712604,31.1529013 30.5712604,33.3297146 C30.5712604,35.5066723 29.282841,37.1076034 27.3591096,37.1076034 C25.4355252,37.1076034 24.7285052,35.9919657 24.7285052,35.9919657 C23.929551,36.5145263 21.027041,38.315536 20.6087013,47.2932325 C19.7939907,64.7907554 35,75 35,75 C35,75 16,66.9787073 16,47.2778213 L16,47.2777618 Z" fill="#D99F31" id="path1022" stroke="#262626" stroke-width="0.1"/><path d="M36.5000612,76 C32.6373869,74.5217461 28.1591269,71.4810488 25.3662502,68.927382 C20.0486594,64.0642052 15.3128152,56.0247033 16.0824606,44.9442741 C16.5689545,37.9475549 18.6333006,33.517235 21.3046633,31.1987323 C25.872871,27.2342867 31.7642049,29.039035 31.7642049,33.3674343 C31.7642049,35.7492728 29.8333635,37.6854008 27.452735,37.6854008 C26.0113833,37.6854008 24.4896468,36.5146357 24.6402971,34.7561976 C24.6809924,33.8142958 25.4566416,33.0629434 26.4074918,33.0629434 C27.3844775,33.0629434 28.1765482,33.855461 28.1765482,34.8339603 C28.1765482,35.3743137 27.8227091,35.8955114 27.4417382,36.2207266 C28.9463435,36.1669765 30.2651657,34.8878556 30.2651657,33.3674343 C30.2651657,31.8084161 29.0824161,30.5041328 27.3904656,30.3634701 C21.7360303,29.8930196 18.0819767,36.325794 17.4655447,45.048942 C16.5890851,57.4436518 23.3404486,67.4628773 33.4857898,73.1016115 C34.9084266,73.8921284 36.0230651,74.3735915 36.4999935,74.5741406 C36.9773487,74.3735806 38.0915604,73.8921235 39.5141972,73.1016115 C49.6595989,67.4629257 56.410949,57.4436518 55.5344423,45.048942 C54.9180079,36.3258061 51.2639567,29.8930208 45.6095214,30.3634701 C43.9175734,30.504134 42.7354016,31.8084161 42.7354016,33.3674343 C42.7354016,34.8878556 44.0536556,36.1669765 45.5588291,36.2207266 C45.1777168,35.8955138 44.8233058,35.3743161 44.8233058,34.8339603 C44.8233058,33.8554634 45.6155179,33.0629434 46.5925073,33.0629434 C47.5433611,33.0629434 48.3195761,33.8142921 48.3602823,34.7561976 C48.5107851,36.5146272 46.9886158,37.6854008 45.5472761,37.6854008 C43.1666477,37.6854008 41.2362294,35.7492728 41.2362294,33.3674343 C41.2362294,29.039035 47.1272731,27.2342867 51.6953358,31.1987323 C54.3672667,33.5172471 56.4316152,37.9475791 56.9175385,44.9442741 C57.6871887,56.024667 52.9513397,64.0642173 47.6337489,68.927382 C44.8408722,71.4810488 40.3626243,74.5217582 36.4999379,76 L36.5000612,76 Z" fill="#F1BF31" id="path1052" stroke="#262626" stroke-width="0.1"/><path d="M36.9005487,81.8611833 C38.7611332,81.8397143 40.1601858,81.6659994 41.7511391,81.3575766 C41.375763,82.6104928 40.6252975,84.9939574 43.6250194,84.9939574 C45.8078256,84.9939574 48.1249574,83.7048417 50.3750656,84.8386238 C55.2895341,87.3137217 59.0001413,85.5461144 62,82.2321884 C62,82.2321884 59.7820318,82.6973478 57.5000571,82.600246 C57.5000571,82.600246 59.2096085,81.1695518 59.3749416,79.2858946 C57.8748695,80.3904891 56.3746522,80.5518555 54.8741446,80.5518555 C53.3749315,80.5518555 52.4158396,79.6622305 50.4519371,79.3580204 C50.5625346,78.6915029 50.6811351,78.0126392 50.858034,77.0767033 C51.0507949,76.0548972 50.764011,75.2256102 49.2503611,75.0509093 C45.9562806,74.6712054 42.7656634,76.5371679 36.9363943,76.6269717 C31.0672739,76.5371668 27.0444501,74.6712006 23.7497889,75.0509093 C22.2361427,75.2256066 21.9493564,76.0548948 22.1422612,77.0767033 C22.3190173,78.0126345 22.4376178,78.6914957 22.5475015,79.3580204 C20.5843128,79.6622328 19.6250879,80.5518555 18.1260078,80.5518555 C16.6247864,80.5518555 15.1252829,80.3904879 13.6250657,79.2858946 C13.7903915,81.16954 15.5000832,82.600246 15.5000832,82.600246 C13.2182537,82.6973467 11,82.2321884 11,82.2321884 C14.0002894,85.546112 17.7106062,87.3137217 22.6250748,84.8386238 C24.8751829,83.7048428 27.1923147,84.9939574 29.3751209,84.9939574 C32.3748417,84.9939574 31.6243701,82.6104928 31.2491464,81.3575766 C32.9515598,81.6876075 34.8360018,81.8693214 36.8997865,81.8693214 L36.9005124,81.8611833 L36.9005487,81.8611833 Z" fill="#FFFFFF" id="path1056" stroke="#262626" stroke-width="0.1"/><path d="M26.0974608,78.9014745 C25.7537446,78.8708901 25.2005636,78.8388744 25.2005636,78.8388744 L25,76 L25.6646194,76.0822526 L25.8026321,78.2974724 C25.8700714,78.3016376 26.1684109,78.3222002 26.3672201,78.3447154 C26.5932309,78.3702233 26.9582573,78.4298307 26.9582573,78.4298307 L27,79 C27,79 26.442683,78.9320633 26.0974619,78.9014789 L26.0974608,78.9014745 Z" fill="#000000" id="path1076"/><path d="M35.0241507,79.9334936 C34.6506522,79.8976904 34.0543746,79.8132092 34.0543746,79.8132092 L34.0270549,78.4093522 L34,77 L35.5917924,77.1678884 L35.5968096,77.4450653 L35.6023519,77.7265338 L34.71229,77.6326667 L34.7235089,78.2112919 L35.6589714,78.3097186 L35.6692628,78.8330956 L34.7338003,78.7346689 L34.7447509,79.3296534 C34.8158867,79.3407798 35.1359348,79.390801 35.3509278,79.4102449 C35.592712,79.4323706 35.9893063,79.4408187 35.9893063,79.4408187 L36,80 C36,80 35.3968592,79.9694262 35.0241518,79.9334879 L35.0241507,79.9334936 Z" fill="#000000" id="path1078"/><path d="M40,77.5526879 L39.287981,77.6739547 L39.2986504,79.9025132 L38.7253328,80 L38.7146635,77.7716669 L38.0027357,77.8929336 L38,77.3406965 L39.9973555,77 L40,77.5526879 Z" fill="#000000" id="polygon1080"/><path d="M45.8567855,78.9994267 C45.4249888,79.007636 45.1966722,78.9268085 45,78.8128913 L45.1839391,78.2811815 C45.4288966,78.3700736 45.5716102,78.4071348 45.8580461,78.4018005 C46.1732263,78.3955132 46.3274124,78.288292 46.3296817,78.1330735 C46.3314429,78.0291383 46.2583254,77.9565212 46.1337663,77.8907413 C46.0090812,77.8248248 45.8429188,77.7705322 45.6766293,77.700239 C45.3434206,77.5593793 45.0007579,77.3521931 45.0087004,76.8574079 C45.0180296,76.2957486 45.5960699,76.0092437 46.0601407,76.0004913 C46.4773129,75.9924209 46.7113028,76.0851433 46.914278,76.1780012 L46.7454673,76.693437 C46.5402217,76.6328537 46.3340944,76.5808861 46.0703516,76.5862193 C45.8097608,76.5910013 45.657718,76.7376099 45.6559525,76.8425015 C45.6545649,76.9238721 45.7276878,76.9886955 45.8562806,77.0544742 C45.9826052,77.1190244 46.1519197,77.1790589 46.3207294,77.2559161 C46.6594843,77.4094939 47.0074436,77.6329551 46.9998788,78.0975164 C46.9891631,78.7364428 46.3978849,78.9894435 45.8567802,78.9994256 L45.8567855,78.9994267 Z" fill="#000000" id="path1082"/><path d="M31.0162984,78.9073543 L31.3953231,78.9740712 C31.9600993,79.0732865 32.0035598,78.872704 31.9997988,78.6282181 C31.9939432,78.3329412 31.8608514,78.1515133 31.2900145,78.0510061 L31,78 L31.016293,78.9073543 L31.0162984,78.9073543 Z M31.0142417,79.884248 L31.418641,79.9658191 C31.8897734,80.0602292 32.0043558,79.9573301 31.9998751,79.6786225 C31.9947534,79.3591373 31.8316821,79.1672956 31.3231035,79.0651446 L31,79 L31.014243,79.884248 L31.0142417,79.884248 Z M31.0157574,79.9640732 L30.0439734,79.7713499 L30,77 L30.8739627,77.1731178 C31.4738642,77.2916862 31.7976389,77.5973769 31.8060203,78.1236659 C31.8092379,78.3439976 31.7022284,78.4901744 31.5852336,78.5689975 C31.7540096,78.6783627 31.9937404,78.9287035 31.9998257,79.2958793 C32.0078649,79.810832 31.7386244,80.1070531 31.0157603,79.9640777 L31.0157574,79.9640732 Z" fill="#000000" id="path1084"/><path d="M30,79 L28.3655914,78.8876104 L28,76 L29.6344086,76.1125058 L30,79 Z" fill="#000000" id="polygon1086"/><path d="M37.3103365,78.9953331 C37.793959,78.987172 38.0058869,78.7875684 37.9998758,78.4684312 C37.993696,78.1331453 37.8439354,77.9926382 37.4056523,78.000296 L37,78.0067939 L37.0178618,79 L37.3103365,78.9953345 L37.3103365,78.9953331 Z M37.9018003,79.9715934 C37.4806622,79.9521308 37.2539969,79.6559281 37.0318888,79.3063089 L36.7969222,78.9368014 C36.763515,78.9407826 36.7274747,78.9416366 36.691233,78.9426229 L36.5520344,78.9461712 L36.5645879,79.98764 L36.0366472,80 L36,77.0202201 L36.8197003,77.0003305 C37.2902412,76.9886754 37.6372749,77.284884 37.6457784,77.9477532 C37.6497298,78.2708061 37.5440371,78.5576317 37.3287106,78.7438775 L37.5325979,79.0430631 C37.6471961,79.2098452 37.7753592,79.3207979 38,79.3968019 L37.901802,79.971591 L37.9018003,79.9715934 Z" fill="#000000" id="path1116"/><path d="M42.4559357,77.0303566 C42.3107304,77.6892167 42.1566198,78.3446083 42,79 C42.3321909,78.9575027 42.6805941,78.8823357 43,78.7612029 C42.8563934,78.1757744 42.7152959,77.5915013 42.5833338,77 L42.4559357,77.0303542 L42.4559357,77.0303566 Z M43.2514779,79.4856771 L42.9737508,78.5616016 C42.826393,78.6274307 42.6675772,78.6661732 42.5078162,78.6955588 C42.3467072,78.7249444 42.1845206,78.7451357 42.0305571,78.7740293 L41.7270796,79.8343596 L41,80 L41.8788857,77.046541 L41.5710935,77.1169666 L41.5654318,76.4365099 C42.215395,76.3071491 42.8458048,76.1628494 43.4748791,76 L43.5003601,76.6760243 L43.1900064,76.7469433 L44,79.3147842 L43.2514848,79.4856785 L43.2514779,79.4856771 Z" fill="#000000" id="path1118"/></g></g></g></svg>