<?xml version="1.0" encoding="UTF-8" standalone="no"?>
<svg width="180px" height="119px" viewBox="0 0 180 119" version="1.1" xmlns="http://www.w3.org/2000/svg" xmlns:xlink="http://www.w3.org/1999/xlink">
    <!-- Generator: Sketch 40.3 (33839) - http://www.bohemiancoding.com/sketch -->
    <title>icon-flag-sh</title>
    <desc>Created with Sketch.</desc>
    <defs></defs>
    <g id="Page-1" stroke="none" stroke-width="1" fill="none" fill-rule="evenodd">
        <polygon id="path20" fill="#00247D" points="179.99438 118.912956 179.99438 0.22587006 0.00563400019 0.22587006 0.00563400019 118.912956"></polygon>
        <polygon id="path28" fill="#FFFFFF" points="0.00563400019 20.0070511 19.0044459 20.0070511 0.00563400019 7.39654816 0.00563400019 0.22587006 10.879954 0.22587006 37.4407931 17.6992466 37.4407931 0.22587006 52.3773592 0.22587006 52.3773592 17.6992466 78.9381984 0.22587006 89.8750145 0.22587006 89.8750145 7.39654816 70.8137064 19.9246295 89.8750145 19.9246295 89.8750145 39.7058105 70.8137064 39.7058105 89.8750145 52.2338918 89.8750145 59.4869915 78.9381984 59.4869915 52.3773592 42.0136149 52.3773592 59.4869915 37.4407931 59.4869915 37.4407931 42.0136149 10.879954 59.4869915 0.00563400019 59.4869915 0.00563400019 52.2338918 19.0044459 39.7058105 0.00563400019 39.7058105"></polygon>
        <polygon id="path32" fill="#CF142B" points="82.812956 0.22587006 52.8148318 20.0070511 60.0018824 20.0070511 89.8750145 0.22587006"></polygon>
        <polygon id="path36" fill="#CF142B" points="89.8750145 59.5694131 59.9393863 39.7882321 67.1264369 39.7882321 89.8125183 54.8713824 89.8125183 59.5694131"></polygon>
        <polygon id="path40" fill="#CF142B" points="30.0662544 20.0070511 0.00563400019 0.22587006 0.00563400019 4.92390054 22.8167076 20.0070511"></polygon>
        <polygon id="path44" fill="#CF142B" points="30.0037582 39.7882321 0.00563400019 59.5694131 7.19268459 59.5694131 37.1908088 39.7882321"></polygon>
        <polygon id="path48" fill="#CF142B" points="0.00563400019 24.0457089 40.6280939 24.0457089 40.6280939 0.143448473 49.3775468 0.143448473 49.3775468 24.0457089 89.8750145 24.0457089 89.8750145 35.6671527 49.3775468 35.6671527 49.3775468 59.5694131 40.6280939 59.5694131 40.6280939 35.6671527 0.00563400019 35.6671527"></polygon>
        <g id="Group" transform="translate(125.000000, 50.000000)">
            <path d="M29.8719768,13.2681829 C29.8719768,23.154108 28.2470785,33.8284811 14.9979068,38.9230683 C1.81123147,33.8284811 0.186333012,23.154108 0.12383701,13.2681829 L29.8719768,13.2681829 L29.8719768,13.2681829 L29.8719768,13.2681829 Z" id="path52" stroke="#FFFFFF" stroke-width="4.20413724" fill="#8FC5FF"></path>
            <path d="M14.9979068,38.9230683 C20.9975317,36.6183742 24.6223051,33.1613328 26.7471722,29.1584429 L25.4347543,29.1584429 C25.1222739,29.1584429 12.7480476,27.9454459 11.3106374,27.3995973 C10.0607156,26.9750484 5.18602038,27.7634964 2.93616115,28.5519444 C5.06102823,32.7974337 8.6858016,36.4970744 14.9979068,38.9230683 L14.9979068,38.9230683 L14.9979068,38.9230683 Z" id="path56" fill="#366CC9"></path>
            <path d="M5.7484853,32.7974337 C5.93597346,32.7367839 6.31095007,32.7367839 6.49843838,32.7974337 C6.68592668,32.8580836 6.68592668,32.8580836 6.74842268,32.676134 C6.81091884,32.4941846 6.93591099,32.5548343 7.06090314,32.6154841 C7.1858953,32.7367839 7.43587976,32.676134 7.56087191,32.4941844 C7.68586407,32.312235 7.68586407,32.3728848 7.81085622,32.4335347 C7.93584852,32.5548343 7.99834453,32.4941844 8.06084068,32.4941844 C8.18583283,32.4335347 8.37332114,32.312235 8.43581714,32.1909353 C8.56080944,32.0089857 8.6858016,31.9483358 8.7482976,32.0696355 C8.81079375,32.1909353 8.93578591,32.1909353 8.99828206,32.1909353 C9.06077806,32.1909353 9.12327421,32.312235 9.12327421,32.4335347 C9.12327421,32.5548343 9.18577037,32.6154841 9.43575467,32.3728848 C9.68573898,32.6154841 9.74823513,32.4941844 9.74823513,32.2515851 C9.74823513,32.0089857 9.68573898,31.099238 9.56074683,30.9172884 C9.43575467,30.7959887 9.37325852,30.4320897 9.37325852,30.1288404 C9.37325852,29.5829918 9.31076252,29.5829918 8.6858016,29.2190928 C8.6858016,29.0371432 8.62330545,28.9764933 8.18583283,28.9764933 C8.18583283,28.9158434 8.12333668,28.733894 7.99834453,28.6732441 C7.87335237,28.6125943 7.87335237,28.5519444 7.93584852,28.3699948 C8.12333668,28.3699948 8.31082499,28.3699948 8.43581714,28.1880454 C8.56080944,28.0060958 8.93578591,28.0667457 9.12327421,28.1273955 C9.37325852,28.2486951 9.62324298,28.2486951 10.0607156,28.1880454 C10.2482039,28.0667457 10.4981882,27.9454459 10.8106687,27.7634964 C11.1231491,27.5815469 11.1856453,27.5208971 11.1856453,27.3389475 C11.2481413,26.7930989 10.998157,26.1259505 10.8731648,25.8227012 C10.6856765,25.519452 10.6856765,25.155553 10.4356922,24.6703541 C10.1857077,24.1851554 10.1857077,24.0032058 9.93572344,23.6999566 C9.87322729,23.6393068 9.74823513,23.518007 9.74823513,23.3967073 C9.74823513,23.2147579 9.68573898,22.9721584 9.49825083,22.7902088 C8.99828206,22.36566 8.81079375,20.9707134 8.62330545,19.8790162 C8.49831329,19.2725177 8.56080944,17.8775713 8.31082499,17.6349719 C7.87335237,17.2710729 7.68586407,17.3317226 7.3733836,17.2710729 C7.1858953,16.9678236 7.06090314,16.4219749 6.87341484,15.9367762 C6.56093438,15.9974261 6.37344622,16.3006752 6.12346176,16.4219749 C5.93597346,16.5432747 5.87347745,16.5432747 5.87347745,16.8465238 C5.87347745,17.1497731 5.68598915,17.5136722 5.43600484,17.9382211 C5.12352438,18.3627701 4.68605161,18.2414704 4.248579,18.9086187 C3.37363377,17.8775713 3.31113762,17.574322 3.24864162,17.2710729 C3.18614546,16.9678236 3.06115331,16.9071737 2.56118454,16.4826248 C2.56118454,16.3613251 2.49868839,15.8761263 2.56118454,15.572877 C2.18620793,15.2696279 1.93622362,15.3302777 1.74873531,15.5122272 C1.56124701,15.7548266 1.43625485,16.0580759 1.18627055,16.1793755 C0.998782239,16.3613251 0.498813472,16.9071737 0.12383701,17.5136722 C0.686301779,22.9721584 1.93622362,28.4306447 5.7484853,32.7974337 L5.7484853,32.7974337 L5.7484853,32.7974337 Z" id="path60" fill="#5D3100"></path>
            <path d="M29.8719768,13.2681829 C29.8719768,9.5078923 29.6844885,5.92955132 29.7469846,2.71510951 C24.8097934,0.592364781 18.3101997,0.107166032 14.9979068,0.107166032 C11.6856141,0.107166032 5.18602038,0.531714919 0.248829164,2.71510951 C0.373821318,5.86890146 0.12383701,9.5078923 0.12383701,13.2681829 L29.8719768,13.2681829 L29.8719768,13.2681829 L29.8719768,13.2681829 Z" id="path64" stroke="#FFFFFF" stroke-width="4.08330476" fill="#FFFF00"></path>
            <path d="M0.936286087,17.574322 C1.12377439,17.8169215 1.37375885,18.2414704 1.43625485,18.4840698 C1.56124701,18.2414704 1.62374316,18.1808205 1.68623931,17.9988709 C1.74873531,17.8169215 1.87372747,17.574322 1.81123147,17.4530223 C1.74873531,17.3317227 1.68623931,17.210423 1.87372747,17.2710729 C2.06121578,17.3923724 1.99871977,17.574322 1.99871977,17.8775713 C1.87372747,18.6660193 1.56124701,18.787319 1.49875101,19.3331676 C1.99871977,20.4248648 1.62374316,20.8494138 2.12371193,21.8804612 C2.18620793,21.9411111 2.43619239,21.8198113 2.49868839,21.8804612 C2.74867285,21.6985116 2.99865716,21.7591615 3.37363377,21.8198113 C3.74861023,21.8804612 3.99859469,22.1837105 3.99859469,22.4263098 C3.99859469,22.6689093 3.99859469,22.7295591 4.06109069,22.8508587 C4.12358684,22.9721584 4.31107515,23.2147579 4.248579,23.3967075 C4.186083,23.5786569 4.31107515,23.6393068 4.31107515,23.6999566 C4.37357115,23.7606065 4.31107515,23.9425561 4.248579,24.0638557 C4.186083,24.1851554 4.186083,24.3064551 4.43606731,24.5490546 C4.62355561,24.7916539 5.06102823,25.7620515 5.06102823,26.36855 C5.06102823,26.9750484 5.12352438,27.2176477 5.31101253,27.3389475 C5.56099699,27.4602472 5.623493,27.5208971 5.623493,27.8241462 C5.623493,28.1273955 5.7484853,29.4010423 5.7484853,29.5829918 C5.7484853,29.7649414 5.87347745,29.7649414 5.93597346,29.8255912 C6.06096576,29.9468909 6.12346176,30.0681907 6.43594222,30.0681907 C6.74842268,30.0681907 7.06090314,30.0075408 7.3108876,30.0681907 C7.62336806,30.4927396 7.81085622,30.9779383 7.87335237,31.3418373 C7.93584852,31.6450866 7.93584852,32.1302854 8.06084068,32.1302854 C8.18583283,32.1302854 8.31082499,32.1302854 8.24832898,31.7057365 C8.18583283,31.2811875 8.18583283,31.2205378 8.06084068,31.0385882 C7.93584852,30.8566386 7.81085622,30.7353389 7.93584852,30.6140393 C7.99834453,30.4927396 8.06084068,30.31079 7.99834453,30.1288404 C7.93584852,29.9468909 7.93584852,29.7649414 8.18583283,30.0681905 C8.43581714,30.3714398 8.56080944,30.4927396 8.62330545,30.5533894 C8.6858016,30.674689 8.7482976,30.8566386 8.7482976,31.0385882 C8.7482976,31.2205378 8.7482976,31.2811875 8.87328991,31.2205378 C8.99828206,31.099238 9.12327421,31.2811875 9.06077806,31.4631371 C8.99828206,31.6450866 9.06077806,31.7663864 9.24826637,31.8876859 C9.43575467,31.9483358 9.49825083,32.0089857 9.56074683,32.1302854 C9.62324298,32.2515851 9.74823513,32.312235 9.74823513,32.0696355 C9.74823513,31.7663864 9.62324298,31.1598879 9.56074683,30.9779383 C9.49825083,30.7959887 9.43575467,30.3714398 9.37325852,30.1288404 C9.31076252,29.8862411 9.31076252,29.8255912 9.18577037,29.7649414 C9.06077806,29.7042915 8.99828206,29.6436416 8.93578591,29.5223419 C8.87328991,29.4010423 8.81079375,29.4010423 8.7482976,29.4010423 C8.6858016,29.4010423 8.62330545,29.3403925 8.56080944,29.2797426 C8.49831329,29.2190928 8.49831329,29.2190928 8.37332114,29.1584429 C8.24832898,29.097793 8.18583283,29.2190928 8.12333668,29.097793 C8.06084068,28.9764933 7.99834453,28.7945439 7.93584852,28.6732441 C7.87335237,28.5519444 7.81085622,28.5519444 7.74836022,28.1880454 C7.74836022,27.8241462 7.74836022,27.7634964 7.62336806,27.6421966 C7.49837576,27.5208971 7.3108876,27.1569979 7.24839145,27.0356982 C7.1858953,26.9143986 7.06090314,26.732449 7.06090314,27.0356982 C7.06090314,27.3389475 7.06090314,27.5208971 7.24839145,27.5815469 C7.43587976,27.7028465 7.49837576,27.7028465 7.43587976,27.8241462 C7.3733836,27.9454459 7.43587976,28.0667457 7.49837576,28.1880454 C7.56087191,28.309345 7.62336806,28.4306447 7.49837576,28.4912946 C7.3733836,28.6125943 7.3108876,28.5519444 7.3108876,28.3699948 C7.3108876,28.1880454 7.24839145,28.0060958 7.1858953,27.8241462 C7.1233993,27.7028465 7.06090314,27.5815469 6.93591099,27.6421966 C6.81091884,27.7028465 6.74842268,27.6421966 6.81091884,27.5815469 C6.87341484,27.5208971 6.87341484,27.4602472 6.81091884,27.3995973 C6.74842268,27.3389475 6.74842268,27.2782976 6.81091884,27.2176477 C6.87341484,27.096348 6.87341484,27.096348 6.87341484,26.8537487 C6.81091884,26.6111493 6.49843838,25.519452 6.31095007,25.2768526 C6.12346176,25.0342533 6.18595791,24.8523037 6.37344622,25.0949032 C6.56093438,25.3375025 6.74842268,25.5801019 6.74842268,25.7620515 C6.74842268,25.9440009 6.81091884,26.0653007 6.87341484,26.1866004 C6.93591099,26.3079001 6.99840714,26.2472502 6.99840714,26.0653007 C6.99840714,25.8833511 7.1858953,25.9440009 6.93591099,25.6407518 C6.68592668,25.3375025 6.31095007,24.731004 6.12346176,23.7606065 C5.93597346,22.7902088 5.87347745,22.1230607 5.7484853,21.8198113 C5.56099699,21.5772119 5.56099699,21.5165622 5.49850084,21.2133129 C5.49850084,20.9707134 5.49850084,20.7281141 5.37350869,20.5461645 C5.24851653,20.364215 5.18602038,20.3035652 5.18602038,20.6068144 C5.18602038,20.9100637 5.18602038,21.5165622 5.31101253,21.6378618 C5.37350869,21.7591615 5.37350869,22.0017609 5.31101253,22.1837104 C5.31101253,22.36566 5.06102823,22.4869597 5.56099699,22.7902088 C5.7484853,22.9115086 5.7484853,23.0934582 5.68598915,23.2147579 C5.623493,23.3360576 5.623493,23.3360576 5.49850084,23.154108 C5.37350869,22.9721584 5.24851653,22.8508587 5.18602038,22.7295591 C5.06102823,22.6082594 5.06102823,22.5476095 5.06102823,22.36566 C5.06102823,22.1837104 5.12352438,22.0017609 5.06102823,21.8804612 C4.99853207,21.8198113 4.93603607,21.8804612 4.93603607,22.0017609 C4.87353992,22.1230607 4.87353992,22.4869597 4.81104392,22.5476095 C4.74854777,22.6689093 4.68605161,22.6082594 4.68605161,22.36566 C4.68605161,22.1230607 4.68605161,21.8198113 4.81104392,21.4559123 C4.93603607,21.0920132 4.99853207,20.7281141 4.87353992,20.2429154 C4.74854777,19.7577165 4.81104392,19.6364169 4.43606731,19.2118679 C4.06109069,18.8479688 3.62361808,18.42342 3.43612977,17.9382211 C3.24864162,17.4530223 3.24864162,17.0284734 3.06115331,16.785874 C2.873665,16.5432747 2.56118454,16.3006752 2.43619239,16.1793755 L2.43619239,15.4515775 C2.43619239,15.2696279 2.37369624,15.1483281 2.12371193,15.208978 C1.93622362,15.2696279 1.81123147,15.3909276 1.62374316,15.6335269 C1.49875101,15.8761263 1.37375885,15.7548266 1.24876655,16.1793755 C1.18627055,16.9071737 0.936286087,17.1497731 0.936286087,17.574322 L0.936286087,17.574322 L0.936286087,17.574322 Z" id="path68" fill="#CF6200"></path>
            <path d="M2.12371193,22.1837105 C2.24870408,22.2443602 2.37369624,22.3050101 2.56118454,22.2443602 C2.74867285,22.1230607 2.99865716,21.8804612 3.24864162,22.1230607 C3.49862592,22.36566 3.62361808,22.8508587 3.62361808,23.154108 C3.62361808,23.518007 3.62361808,24.1245055 3.99859469,24.4884047 C4.37357115,24.8523037 4.62355561,25.2162029 4.62355561,25.7014016 C4.62355561,26.1866004 4.81104392,26.9143986 4.87353992,27.096348 C4.93603607,27.2782976 5.06102823,27.5208971 5.18602038,27.6421968 C5.31101253,27.7634964 5.43600484,28.1273955 5.43600484,28.4912946 C5.43600484,28.8551937 5.37350869,29.1584429 5.43600484,29.3403925 C5.49850084,29.5223419 5.43600484,29.7042915 5.31101253,29.5829918 C5.18602038,29.4616921 5.12352438,29.4616921 5.06102823,29.2797426 C4.99853207,29.097793 4.87353992,29.1584429 4.93603607,29.4010423 C4.99853207,29.6436416 5.24851653,29.8862411 5.49850084,29.8862411 C5.68598915,29.8862411 5.7484853,29.9468909 5.93597346,30.0681905 C6.06096576,30.1894903 6.06096576,30.2501401 6.31095007,30.2501401 C6.56093438,30.2501401 6.56093438,30.2501401 6.81091884,30.31079 C6.99840714,30.3714398 6.99840714,30.3714398 7.1233993,30.31079 C7.24839145,30.2501401 7.3733836,30.3714398 7.43587976,30.5533894 C7.49837576,30.7353389 7.68586407,31.3418373 7.68586407,31.4631371 C7.68586407,31.5844368 7.68586407,31.7663864 7.81085622,31.9483358 C7.93584852,32.1302854 7.87335237,32.2515851 7.74836022,32.1909353 C7.62336806,32.0696355 7.62336806,32.1302854 7.49837576,32.1302854 C7.3733836,32.1302854 7.3108876,32.0696355 7.1858953,32.0089857 C7.06090314,31.9483358 7.1233993,31.9483358 6.99840714,31.7663864 C6.87341484,31.5844368 6.81091884,31.5237869 6.81091884,31.6450866 C6.81091884,31.7663864 6.81091884,31.9483358 6.68592668,31.8876859 C6.56093438,31.8270362 6.56093438,31.8270362 6.43594222,31.8876859 C6.37344622,31.9483358 6.31095007,32.0089857 6.24845392,31.8876859 C6.18595791,31.7663864 6.06096576,31.7057365 5.93597346,31.7057365 C5.8109813,31.6450866 5.8109813,31.6450866 5.8109813,31.5237869 C5.7484853,31.4024872 5.623493,31.3418373 5.49850084,31.3418373 C5.37350869,31.3418373 5.31101253,31.2811875 5.31101253,31.1598879 C5.31101253,31.0385882 5.18602038,30.9779383 5.12352438,30.9779383 C5.06102823,30.9779383 5.06102823,30.7959887 5.06102823,30.7353389 C5.06102823,30.674689 4.93603607,30.674689 4.87353992,30.6140393 C4.81104392,30.5533894 4.74854777,30.6140393 4.74854777,30.4320897 C4.74854777,30.2501401 4.68605161,30.2501401 4.62355561,30.1288404 C4.56105946,30.0075408 4.62355561,29.8862411 4.68605161,29.7649414 C4.74854777,29.6436416 4.68605161,29.5829918 4.62355561,29.4616921 C4.49856346,29.3403925 4.62355561,29.2190928 4.37357115,29.0371432 C4.12358684,28.7945439 3.99859469,28.9764933 3.87360254,28.4912946 C3.81110638,27.9454459 3.62361808,26.9143986 3.49862592,26.732449 C3.37363377,26.5504994 3.24864162,26.4291997 3.12364931,26.36855 C2.99865716,26.3079001 2.873665,26.36855 2.873665,26.0653007 C2.873665,25.7620515 2.74867285,25.3981523 2.56118454,25.2162027 C2.37369624,25.0342533 2.31120023,24.9736034 2.18620793,24.9129536 C2.06121578,24.8523037 2.06121578,24.6703541 2.18620793,24.4277548 C2.31120023,24.1851554 2.24870408,23.8212564 2.24870408,23.6393068 C2.24870408,23.4573572 2.18620793,23.2754077 2.18620793,23.0328083 C2.24870408,22.8508587 2.18620793,22.6082594 2.12371193,22.4869597 C2.12371193,22.3050101 2.06121578,22.3050101 2.12371193,22.1837105 L2.12371193,22.1837105 L2.12371193,22.1837105 Z" id="path72" fill="#CF6200"></path>
            <path d="M6.06096576,17.6956218 C5.8109813,17.9988709 5.623493,18.1808205 5.31101253,18.42342 C4.99853207,18.6053694 4.62355561,18.787319 4.81104392,19.1512182 C4.99853207,19.5151172 5.18602038,19.575767 5.24851653,19.8183663 C5.31101253,20.1216157 5.37350869,20.3035652 5.56099699,20.3642151 C5.7484853,20.4248648 5.87347745,20.3642151 5.87347745,20.8494138 C5.87347745,21.3346126 5.87347745,21.4559123 6.06096576,21.6378618 C6.24845392,21.8198113 6.24845392,22.0017609 6.31095007,22.36566 C6.37344622,22.790209 6.37344622,23.6393068 6.68592668,24.1851554 C6.93591099,24.7916539 7.56087191,25.8833511 7.43587976,26.1259505 C7.3108876,26.36855 7.3108876,26.5504994 7.56087191,26.7930989 C7.81085622,27.096348 7.99834453,27.4602472 7.99834453,27.7028465 C7.99834453,27.9454459 8.06084068,28.0060958 8.31082499,27.9454459 C8.56080944,27.8847961 8.6858016,27.7634964 8.81079375,27.6421968 C8.87328991,27.5208971 9.06077806,27.5815469 9.31076252,27.7028465 C9.56074683,27.8241462 9.93572344,27.9454459 10.1232117,27.8241462 C10.3106999,27.7028465 10.4356922,27.5208971 10.6231804,27.5208971 C10.9356608,27.3389475 11.0606531,26.8537487 11.1231491,26.732449 C11.1856453,26.6111493 11.1231491,26.6111493 10.998157,26.4898495 C10.8731648,26.36855 10.9356608,26.1259505 10.9356608,25.9440009 C10.9356608,25.7620515 10.8106687,25.3981523 10.5606844,24.9736034 C10.3106999,24.4884047 10.1232117,23.9425561 9.99821944,23.8212564 C9.81073129,23.6999566 9.74823513,23.3360576 9.68573898,23.154108 C9.68573898,22.9721584 9.49825083,22.8508587 9.31076252,22.7295591 C9.18577037,22.6082594 9.06077806,22.4263098 8.87328991,21.6985116 C8.7482976,20.9707136 8.62330545,20.4248648 8.62330545,20.3035652 C8.62330545,20.1822655 8.62330545,20.1822655 8.49831329,20.1216157 C8.37332114,20.0609658 8.31082499,19.8790162 8.37332114,19.7577166 C8.43581714,19.6364169 8.31082499,19.575767 8.31082499,19.3938175 C8.31082499,19.2118679 8.31082499,19.0299184 8.37332114,18.9086187 C8.43581714,18.787319 8.43581714,18.42342 8.37332114,18.1201706 C8.31082499,17.8169215 8.18583283,17.574322 7.87335237,17.5136722 C7.49837576,17.4530223 7.43587976,17.3923724 7.3108876,17.0891233 C7.1858953,16.8465238 7.06090314,16.3613251 6.99840714,16.2400254 C6.93591099,16.1187258 6.87341484,16.1187258 6.62343053,16.3006752 C6.37344622,16.4826248 6.24845392,16.6039245 6.24845392,16.9678236 C6.24845392,17.210423 6.31095007,17.3317227 6.37344622,17.4530223 C6.43594222,17.574322 6.49843838,17.6349719 6.56093438,18.0595208 C6.62343053,18.4840698 6.99840714,19.0905683 6.49843838,19.4544673 C5.99846961,19.8183663 6.06096576,19.8790162 6.12346176,20.1216157 C6.12346176,20.3642151 5.99846961,20.5461645 5.93597346,20.1822655 C5.87347745,19.8183663 5.93597346,19.6364169 6.18595791,19.4544673 C6.43594222,19.2725177 6.68592668,19.0905683 6.49843838,18.8479688 C6.31095007,18.6053694 6.24845392,18.0595208 6.24845392,17.8169215 C6.24845392,17.574322 6.18595791,17.5136722 6.06096576,17.6956218 L6.06096576,17.6956218 L6.06096576,17.6956218 Z" id="path76" fill="#CF6200"></path>
            <path d="M8.37332114,21.7591615 C8.37332114,22.0017609 8.37332114,22.1230607 8.31082499,22.2443602 C8.24832898,22.3050101 8.31082499,22.4263098 8.37332114,22.6082594 C8.43581714,22.7295591 8.49831329,22.9115086 8.43581714,23.154108 C8.37332114,23.3967073 8.49831329,23.5786569 8.62330545,23.6393068 C8.7482976,23.6999566 8.81079375,23.6393068 8.7482976,23.9425561 C8.6858016,24.2458052 8.87328991,24.5490546 8.99828206,24.6703541 C9.12327421,24.7916539 9.24826637,25.0342533 9.24826637,25.155553 C9.24826637,25.2768526 9.37325852,25.3981523 9.49825083,25.4588022 C9.62324298,25.519452 9.62324298,25.519452 9.62324298,25.6407518 C9.62324298,25.7014016 9.68573898,25.7014016 9.87322729,25.7620515 C10.0607156,25.8227012 10.1857077,25.8833511 10.3731961,26.1259505 C10.5606844,26.36855 10.8731648,26.4898495 10.8106687,26.2472502 C10.7481727,26.0046508 10.8106687,25.8227012 10.5606844,25.7014016 C10.3106999,25.5801019 10.1232117,24.9736034 9.99821944,24.5490546 C9.87322729,24.1245055 9.56074683,23.5786569 9.37325852,23.4573572 C9.37325852,23.154108 9.37325852,23.0328083 9.18577037,22.8508587 C8.99828206,22.7295591 8.93578591,22.4869597 8.93578591,22.36566 C8.93578591,22.2443602 8.81079375,22.0017609 8.7482976,22.0017609 C8.6858016,21.9411111 8.62330545,21.8804612 8.62330545,21.6985116 C8.62330545,21.5165622 8.37332114,21.5165622 8.37332114,21.7591615 L8.37332114,21.7591615 L8.37332114,21.7591615 Z" id="path104" fill="#5D3100"></path>
            <path d="M13.4980319,27.4602472 C13.4980319,26.2472502 13.3551748,16.3006752 13.3551748,13.9959811 C13.3551748,13.4501324 12.9980319,13.5714322 12.9980319,13.9959811 L12.9980319,27.3995973 C13.140889,27.3995973 13.3551748,27.4602472 13.4980319,27.4602472 L13.4980319,27.4602472 L13.4980319,27.4602472 Z" id="path284" stroke="#000000" stroke-width="0.520829688" fill="#FFFF00"></path>
            <polygon id="path288" stroke="#000000" stroke-width="0.520829688" fill="#FFFF00" points="17.9352233 13.2681829 18.4351919 27.5208971 18.3726959 27.6421968 18.0602154 27.6421968 17.747735 13.2681829"></polygon>
            <path d="M22.1849574,25.2768526 C22.1224614,23.8212564 21.9349731,17.1497731 21.8724769,13.8140315 C21.8724769,13.3894826 21.6224926,13.4501324 21.6224926,13.8140315 C21.6224926,16.4826248 21.8099809,23.9425561 21.8724769,25.2768526 L22.1849574,25.2768526 L22.1849574,25.2768526 L22.1849574,25.2768526 Z" id="path292" stroke="#000000" stroke-width="0.520829688" fill="#FFFF00"></path>
            <path d="M15.4353796,15.6335269 L11.1231491,15.572877 C10.8731648,16.4219749 11.9980945,16.4219749 12.373071,16.1793755 C12.8730397,16.5432747 13.1855202,16.4826248 13.4355045,16.2400254 C13.8104811,16.5432747 14.3104499,16.4826248 14.4979382,16.3006752 C14.9979068,16.6039245 15.5603717,16.2400254 15.4353796,15.6335269 L15.4353796,15.6335269 L15.4353796,15.6335269 Z" id="path296" stroke="#000000" stroke-width="0.520829688" fill="#FFFFFF"></path>
            <path d="M15.74786,17.7562716 L11.3106374,17.7562716 C10.5606844,18.4840698 11.5606217,18.787319 12.373071,18.3021202 C12.4980631,18.5447197 12.9980319,18.6660193 13.4355045,18.4840698 C13.8104811,18.787319 14.3104499,18.5447197 14.4979382,18.3021202 C14.9979068,18.5447197 15.5603717,18.6053694 15.74786,17.7562716 L15.74786,17.7562716 L15.74786,17.7562716 Z" id="path300" stroke="#000000" stroke-width="0.520829688" fill="#FFFFFF"></path>
            <path d="M15.6228677,20.4248648 L11.3731336,20.3642151 C11.3106374,21.0920132 12.1230867,21.0313633 12.4980631,20.8494138 C12.8105436,21.3346126 13.5604968,21.2133129 13.8104811,20.9707136 C14.1854577,21.2133129 14.5604342,21.152663 14.8104187,20.9100637 C15.2478913,21.2739627 15.6853639,20.788764 15.6228677,20.4248648 L15.6228677,20.4248648 L15.6228677,20.4248648 Z" id="path304" stroke="#000000" stroke-width="0.520829688" fill="#FFFFFF"></path>
            <path d="M15.8728522,23.0934582 L11.1231491,23.0328083 C10.8731648,23.8212564 11.6231179,23.9425561 11.9355984,23.7606065 C12.0605905,24.2458052 12.6855514,24.0638557 12.8730397,23.6999566 C13.123024,23.9425561 13.4355045,23.8212564 13.5604968,23.6393068 C13.6229928,24.0638557 14.1854577,24.0638557 14.6229303,23.6999566 C15.4353796,24.3064551 16.2478287,23.6393068 15.8728522,23.0934582 L15.8728522,23.0934582 L15.8728522,23.0934582 Z" id="path308" stroke="#000000" stroke-width="0.520829688" fill="#FFFFFF"></path>
            <path d="M20.0600903,22.0017609 L16.1228365,21.9411111 C16.3103248,22.7295591 16.6853014,22.9115086 17.3102623,22.4869597 C17.810231,22.9721584 18.5601842,22.790209 18.7476723,22.5476095 C19.6226177,23.2147579 20.0600903,22.4263098 20.0600903,22.0017609 L20.0600903,22.0017609 L20.0600903,22.0017609 Z" id="path312" stroke="#000000" stroke-width="0.520829688" fill="#FFFFFF"></path>
            <path d="M19.6851137,19.3331676 L15.8728522,19.2118679 C15.9353482,20.1822655 16.8727896,20.1216157 17.3102623,19.6970668 C17.6852388,20.1216157 18.3101997,20.0003159 18.497688,19.6970668 C18.9976568,20.2429154 19.810106,19.9396661 19.6851137,19.3331676 L19.6851137,19.3331676 L19.6851137,19.3331676 Z" id="path316" stroke="#000000" stroke-width="0.520829688" fill="#FFFFFF"></path>
            <path d="M20.1850825,16.3613251 L16.0603405,16.3613251 C16.1228365,17.0284734 16.9977819,17.3923724 17.747735,16.785874 C17.9352233,17.5136722 18.6851763,17.3317227 18.9976568,17.0284734 C19.4351294,17.574322 20.4975629,16.9678236 20.1850825,16.3613251 L20.1850825,16.3613251 L20.1850825,16.3613251 Z" id="path320" stroke="#000000" stroke-width="0.520829688" fill="#FFFFFF"></path>
            <path d="M19.9350982,14.3598801 L16.2478287,14.4205299 C16.1853327,15.0270284 17.0602779,15.2696279 17.3727583,14.7844291 C17.5602466,15.0876783 18.1852076,15.0270284 18.3726959,14.7844291 C18.6851763,15.208978 18.9976568,14.9057288 19.122649,14.7844291 C19.5601216,15.0876783 19.9975942,14.9057288 19.9350982,14.3598801 L19.9350982,14.3598801 L19.9350982,14.3598801 Z" id="path324" stroke="#000000" stroke-width="0.520829688" fill="#FFFFFF"></path>
            <path d="M24.2473285,15.6941768 L19.7476099,15.6335269 C19.7476099,16.1187256 20.2475786,16.3006752 20.4975629,16.1187256 C20.4975629,16.5432747 21.1225239,16.7252241 21.5599965,16.3613251 C21.8099809,16.7252241 22.6224302,16.8465238 22.9974066,16.3006752 C23.6223676,16.8465238 24.3098246,16.4219749 24.2473285,15.6941768 L24.2473285,15.6941768 L24.2473285,15.6941768 Z" id="path328" stroke="#000000" stroke-width="0.520829688" fill="#FFFFFF"></path>
            <path d="M24.1848325,19.2725177 L19.7476099,19.2725177 C19.810106,19.8790162 20.4975629,20.0609658 20.8725396,19.7577166 C20.9975317,20.2429154 21.4975005,20.3035652 21.8724769,20.0609658 C22.2474536,20.4855147 22.9349106,20.5461645 23.2473911,20.0609658 C23.8098559,20.1822655 24.2473285,19.7577166 24.1848325,19.2725177 L24.1848325,19.2725177 L24.1848325,19.2725177 Z" id="path332" stroke="#000000" stroke-width="0.520829688" fill="#FFFFFF"></path>
            <path d="M23.934848,22.4869597 L20.4350669,22.4263098 C20.4350669,23.0328083 21.18502,23.0934582 21.4975005,22.790209 C21.8099809,23.154108 22.3724457,23.154108 22.6224302,22.8508587 C23.1223988,23.2754077 23.872352,23.154108 23.934848,22.4869597 L23.934848,22.4869597 L23.934848,22.4869597 Z" id="path336" stroke="#000000" stroke-width="0.520829688" fill="#FFFFFF"></path>
            <path d="M18.3726959,27.5815469 C16.4978131,27.6421968 14.5604342,27.6421968 13.2480164,27.3995973 C11.9355984,27.2176477 11.5606217,27.0356983 10.6231804,26.4898495 C9.31076252,25.7014016 8.93578591,25.519452 7.06090314,24.4277548 C6.74842268,24.2458052 6.43594222,24.4884047 6.87341484,24.731004 C8.7482976,25.9440009 9.49825083,26.36855 10.3731961,26.9750484 C11.3106374,27.5815469 11.9355984,28.1273955 12.4980631,28.733894 C13.2480164,29.5829918 13.8104811,29.5829918 14.1229616,29.4616922 C14.435442,29.3403925 14.9979068,29.1584429 15.5603717,29.2797426 C16.1228365,29.4010423 16.8102936,29.4010423 17.18527,29.3403925 C17.4977505,29.6436416 18.3101997,29.5829918 18.7476723,29.4616922 C19.1851451,29.3403925 19.4976256,29.3403925 19.810106,29.4010423 C20.1225865,29.4616922 20.5600591,29.4010423 20.8725396,29.3403925 C21.18502,29.2797426 21.9974692,29.2190928 22.559934,29.2797426 C23.1223988,29.3403925 23.6848637,29.3403925 24.0598402,29.2190928 C24.4348168,29.097793 25.1222739,29.1584429 25.3722582,29.2190928 C25.6847386,28.9764933 25.8722269,28.6732441 25.9347229,28.3699948 C26.3096995,28.309345 26.4346917,28.2486953 26.4971879,28.0667457 C26.62218,27.6421968 26.8096683,27.2782976 26.8721643,27.096348 L26.9971566,27.096348 L27.0596526,26.732449 L26.7471722,26.36855 L26.8721643,25.7014016 L27.1846448,25.6407518 C27.1846448,25.4588022 27.1221488,25.0949032 27.0596526,24.9736034 C24.9972816,25.0342533 22.9974066,25.0949032 21.5599965,25.155553 C21.3725083,25.2768526 21.247516,25.6407518 21.18502,25.8227014 C20.3100746,25.9440009 19.810106,26.0046508 19.5601216,26.0653007 C19.3101373,26.1259505 19.1851451,26.1259505 18.9976568,26.36855 C18.8726646,26.8537487 18.5601842,27.3389475 18.3726959,27.5815469 L18.3726959,27.5815469 L18.3726959,27.5815469 Z" id="path340" stroke="#000000" stroke-width="0.520829688" fill="#000000"></path>
            <path d="M24.9347855,25.2162027 C25.0597777,24.8523037 25.309762,24.0032058 25.8097308,22.3050101 C25.8722269,22.0017609 25.6222425,21.8804612 25.4972503,22.2443602 C24.9347855,24.2458052 24.6848011,24.9736034 24.6223051,25.2162027 C24.6848011,25.2162027 24.8722894,25.155553 24.9347855,25.2162027 L24.9347855,25.2162027 L24.9347855,25.2162027 Z" id="path344" stroke="#000000" stroke-width="0.520829688" fill="#000000"></path>
            <path d="M28.1220862,21.8804612 C27.4346292,22.2443602 27.1221488,22.36566 26.8096683,22.2443602 C26.4971879,22.1230607 26.0597152,22.0624108 25.8097308,22.1837105 L25.8097308,22.2443602 C25.4972503,23.2754077 25.309762,24.0638557 25.1847699,24.5490546 C25.6847386,24.731004 26.5596839,24.731004 26.8096683,24.5490546 C26.9971566,24.3064551 27.6221175,24.367105 27.8721018,24.367105 C28.0595902,24.1245055 28.1220862,23.8212564 28.0595902,23.6999566 C27.997094,23.5786569 27.997094,23.3360576 28.1220862,23.0934582 C28.1220862,22.9115086 28.1845823,22.2443602 28.1220862,21.8804612 L28.1220862,21.8804612 L28.1220862,21.8804612 Z" id="path348" stroke="#000000" stroke-width="0.520829688" fill="#FFFFFF"></path>
            <path d="M12.9980319,27.3995973 L12.9980319,23.8212564" id="path600" stroke="#000000" stroke-width="0.520829688"></path>
            <path d="M12.8105436,28.733894 C13.3105124,28.4306447 14.1854577,28.4912946 14.6229303,28.7945439 C15.1228991,28.4912946 16.0603405,28.6125943 16.4978131,28.9764933 C17.18527,28.5519444 17.747735,28.4912946 18.3726959,28.9158434 C18.8726646,28.5519444 19.6851137,28.5519444 20.2475786,28.9764933 C20.8100434,28.733894 21.4975005,28.4912946 22.0599653,29.097793 C21.7474848,28.8551937 20.9975317,28.6732441 20.2475786,29.2190928 C19.6851137,28.6732441 18.6851763,28.8551937 18.3726959,29.2797426 C17.9352233,28.7945439 17.0602779,28.733894 16.4978131,29.3403925 C15.9353482,28.8551937 15.060403,28.8551937 14.5604342,29.2190928 C14.2479537,28.733894 13.685489,28.5519444 12.8105436,28.733894 L12.8105436,28.733894 L12.8105436,28.733894 Z" id="path824" fill="#00B800"></path>
            <path d="M21.6849888,28.0060958 C19.122649,28.4306447 13.4980007,28.1273955 12.2480788,27.8241462 C11.8106062,27.7028465 11.9355984,27.5815469 12.310575,27.6421968 C13.747985,27.9454459 16.7477974,27.9454459 18.4351919,27.8847961 C18.7476723,27.4602472 19.2476411,26.732449 19.4351294,26.5504994 C19.5601216,26.36855 19.6851137,26.3079001 19.9975942,26.3079001 C20.5600591,26.1866004 20.8725396,26.1866004 21.3725083,26.0653007 L21.3725083,26.2472502 C21.3100122,26.3079001 21.3100122,26.3079001 21.247516,26.36855 C21.247516,26.6717991 21.3100122,27.4602472 21.3725083,27.7634964 C21.4350043,27.7634964 21.4975005,27.7028465 21.5599965,27.7028465 C21.6849888,27.7028465 21.8099809,28.0060958 21.6849888,28.0060958 L21.6849888,28.0060958 L21.6849888,28.0060958 Z" id="path828" fill="#CF6200"></path>
            <path d="M25.8722269,28.1273955 L26.1847074,28.1273955 C26.3096995,28.1273955 26.4346917,28.0667457 26.4971879,27.8847961 C26.5596839,27.7028465 26.7471722,27.1569979 26.8096683,26.9143986 L26.5596839,26.5504994 C26.62218,26.2472502 26.6846762,25.8227012 26.6846762,25.7014016 C26.8096683,25.6407518 26.9346605,25.5801019 26.9971566,25.5801019 C26.9971566,25.519452 26.9971566,25.3375025 26.9346605,25.2768526 C25.8097308,25.3375025 22.4974379,25.4588022 21.8724769,25.4588022 C21.7474848,25.4588022 21.6849888,25.4588022 21.6224926,25.6407518 C21.3100122,26.732449 21.7474848,28.309345 22.9349106,29.2190928 C22.9974066,29.2797426 23.1223988,29.2190928 22.9974066,29.097793 C22.8099183,28.9158434 22.4974379,28.5519444 22.3099497,28.2486951 L23.1223988,28.2486951 C23.1848949,28.4912946 23.3723832,29.097793 23.4348792,29.1584429 C23.4973754,29.2797426 23.5598716,29.2797426 23.4973754,29.097793 C23.3723832,28.7945439 23.3098871,28.3699948 23.2473911,28.1880454 L24.1223363,28.1880454 C24.1223363,28.4912946 24.1848325,28.9158434 24.1848325,28.9764933 C24.1848325,29.097793 24.3098246,29.097793 24.3098246,28.9764933 L24.3098246,28.1880454 L25.0597777,28.1880454 C25.0597777,28.3699948 24.9972816,28.9158434 24.9972816,28.9764933 C24.9972816,29.097793 25.0597777,29.1584429 25.0597777,28.9764933 C25.1222739,28.7945439 25.1847699,28.3699948 25.1847699,28.1273955 L25.6847386,28.1273955 C25.6847386,28.309345 25.4972503,28.7945439 25.4347543,28.9158434 C25.3722582,29.0371432 25.4347543,29.0371432 25.4972503,28.9158434 C25.6847386,28.8551937 25.8722269,28.309345 25.8722269,28.1273955 L25.8722269,28.1273955 L25.8722269,28.1273955 Z" id="path832" fill="#CF6200"></path>
            <path d="M22.1849574,28.0060958 C22.1224614,27.8241462 21.8099809,27.2176477 21.8099809,26.7930989 L22.9349106,26.7930989 C22.9974066,27.1569979 23.0599028,27.8847961 23.1223988,28.0060958 L22.1849574,28.0060958 L22.1849574,28.0060958 L22.1849574,28.0060958 Z" id="path836" fill="#000000"></path>
            <path d="M23.1223988,26.7930989 C23.1223988,27.0356982 23.3098871,27.9454459 23.3098871,28.0667457 L24.1848325,28.0667457 C24.1848325,27.8241462 24.1223363,26.9143986 24.1223363,26.7930989 C23.934848,26.732449 23.2473911,26.732449 23.1223988,26.7930989 L23.1223988,26.7930989 L23.1223988,26.7930989 Z" id="path840" fill="#000000"></path>
            <path d="M21.8724769,25.6407518 C21.8099809,25.8833511 21.8099809,26.36855 21.8099809,26.5504994 L22.8724145,26.5504994 C22.8724145,26.3079001 22.8099183,25.8833511 22.8099183,25.6407518 L21.8724769,25.6407518 L21.8724769,25.6407518 L21.8724769,25.6407518 Z" id="path844" fill="#000000"></path>
            <path d="M22.9974066,25.6407518 C22.9974066,25.8833511 23.0599028,26.4291998 23.0599028,26.5504994 L24.1223363,26.5504994 C24.1223363,26.36855 24.0598402,25.7014016 24.0598402,25.6407518 L22.9974066,25.6407518 L22.9974066,25.6407518 L22.9974066,25.6407518 Z" id="path848" fill="#000000"></path>
            <path d="M24.3098246,25.5801019 C24.3098246,25.7620515 24.3723206,26.36855 24.3098246,26.4898495 L25.247266,26.4898495 C25.247266,26.3079001 25.309762,25.7014016 25.247266,25.519452 C24.9972816,25.5801019 24.5598089,25.5801019 24.3098246,25.5801019 L24.3098246,25.5801019 L24.3098246,25.5801019 Z" id="path852" fill="#000000"></path>
            <path d="M25.4972503,25.5801019 L25.4972503,26.5504994 C25.7472348,26.5504994 26.3721957,26.5504994 26.4971879,26.4898495 C26.5596839,26.3079001 26.62218,25.7620515 26.62218,25.519452 C26.3096995,25.519452 25.6222425,25.5801019 25.4972503,25.5801019 L25.4972503,25.5801019 L25.4972503,25.5801019 Z" id="path856" fill="#000000"></path>
            <path d="M26.4971879,26.6717991 C26.1847074,26.6717991 25.6222425,26.6717991 25.4347543,26.732449 C25.4347543,27.1569979 25.3722582,27.8241462 25.309762,28.0060958 L26.3096995,28.0060958 C26.4346917,27.8241462 26.62218,27.2176477 26.6846762,27.0356983 C26.62218,26.8537487 26.5596839,26.7930989 26.4971879,26.6717991 L26.4971879,26.6717991 L26.4971879,26.6717991 Z" id="path860" fill="#000000"></path>
            <path d="M24.3723206,26.732449 C24.3723206,26.8537487 24.3723206,27.8847961 24.4348168,28.0060958 L25.1847699,28.0060958 C25.247266,27.5815469 25.247266,26.8537487 25.309762,26.732449 L24.3723206,26.732449 L24.3723206,26.732449 L24.3723206,26.732449 Z" id="path864" fill="#000000"></path>
            <path d="M20.0600903,26.4898495 L19.6226177,26.5504994 C19.4351294,26.8537487 18.6851763,27.8241462 18.6226802,27.8847961 C19.122649,27.8847961 19.9350982,27.8847961 20.1225865,27.8241462 C20.0600903,27.6421968 20.0600903,26.6111493 20.0600903,26.4898495 L20.0600903,26.4898495 L20.0600903,26.4898495 Z" id="path868" fill="#000000"></path>
            <path d="M20.2475786,26.4291998 C20.2475786,26.732449 20.3100746,27.6421968 20.3100746,27.8241462 C20.5600591,27.8241462 20.9975317,27.7634964 21.18502,27.7634964 C21.1225239,27.3389475 21.0600279,26.36855 21.0600279,26.2472502 C20.8100434,26.36855 20.4350669,26.4291998 20.2475786,26.4291998 L20.2475786,26.4291998 L20.2475786,26.4291998 Z" id="path872" fill="#000000"></path>
            <path d="M27.1221488,23.154108 C27.2471409,22.9721584 27.2471409,22.4263098 27.1846448,22.2443602 L26.8096683,22.2443602 C26.7471722,22.2443602 26.6846762,22.1837105 26.62218,22.1837105 C26.62218,22.4263098 26.4971879,23.0328083 26.4346917,23.2754077 C26.2472034,23.3360576 25.8722269,23.2754077 25.6222425,23.2147579 C25.5597465,23.3967073 25.4972503,23.6393068 25.4347543,23.7606065 C25.6847386,23.8212564 26.0597152,23.8212564 26.3721957,23.7606065 C26.3721957,24.1245055 26.3096995,24.4277548 26.1222112,24.6703541 C26.4346917,24.6703541 26.7471722,24.6097043 26.8721643,24.4884047 L26.9346605,24.4884047 C27.0596526,24.2458052 27.1221488,23.9425561 27.1221488,23.6999566 C27.2471409,23.6999566 27.3721331,23.6999566 27.4346292,23.6393068 C27.4971252,23.5786569 27.6221175,23.518007 27.6846135,23.5786569 C27.8096057,23.5786569 27.934598,23.5786569 28.1220862,23.518007 C28.1220862,23.3967073 28.1220862,23.2754077 28.1845823,23.154108 C28.1845823,23.0934582 28.2470785,22.9721584 28.2470785,22.9115086 C27.8721018,22.9721584 27.3096371,23.154108 27.1221488,23.154108 L27.1221488,23.154108 L27.1221488,23.154108 Z" id="path920" stroke="#000000" stroke-width="0.520829688" fill="#EF072D"></path>
            <path d="M11.6231179,2.59380979 C11.1231491,2.59380979 10.0607156,2.59380979 9.81073129,2.71510951 C9.56074683,2.83640909 9.49825083,2.89705895 9.87322729,2.95770881 C10.2482039,3.01835867 10.9356608,3.20030826 11.3106374,3.44290756 C11.6856141,3.68550701 11.9980945,4.04940604 11.8731022,4.59525479 C11.5606217,6.23280063 12.4355671,7.87034646 13.747985,8.47684493 C13.8729773,8.5374948 13.8729773,8.59814466 13.8729773,8.78009424 C13.8729773,9.02269355 13.747985,9.38659272 13.685489,9.5078923 C13.6229928,9.62919202 13.5604968,9.75049174 13.8104811,9.68984188 C13.685489,9.99309119 13.3105124,10.5389398 13.1855202,10.6602395 C12.1230867,10.5389398 11.3106374,10.6602395 11.2481413,11.7519367 C11.2481413,11.8732365 11.2481413,11.9945361 11.4356296,11.7519367 C11.6231179,11.5093373 11.8106062,11.266738 12.2480788,11.1454383 C11.9980945,11.5093373 11.8731022,11.8732365 11.9355984,12.1158358 C11.9980945,12.3584352 12.0605905,12.4797349 12.1230867,12.1764856 C12.2480788,11.8732365 12.4355671,11.630637 12.6855514,11.4486874 C12.7480476,11.3880376 12.8105436,11.3880376 12.7480476,11.5699872 C12.6855514,11.7519367 12.7480476,12.1158358 12.8730397,12.2371355 C12.9980319,12.3584352 13.060528,12.2977854 12.9980319,12.1158358 C12.9355359,11.8732365 12.9980319,11.4486874 13.3105124,11.3273877 C13.685489,11.1454383 14.0604654,11.2060881 14.1854577,11.5093373 C14.3104499,11.7519367 14.4979382,11.5093373 14.3104499,11.2060881 C14.1229616,10.9028388 13.9354733,10.7208892 13.685489,10.6602395 C13.9354733,10.2356905 14.2479537,9.75049174 14.3104499,9.62919202 C14.3729459,9.5078923 14.4979382,9.5078923 14.5604342,9.56854216 C14.6229303,9.62919202 14.6854264,9.62919202 14.8104187,9.44724258 C14.8729147,9.26529299 15.060403,8.78009424 15.2478913,8.5374948 C15.3728834,8.5374948 15.4978756,8.47684493 15.5603717,8.41619507 C15.810356,8.78009424 16.0603405,9.26529299 16.1228365,9.32594286 C16.1853327,9.44724258 16.2478287,9.44724258 16.1853327,9.68984188 C16.1228365,9.93244133 15.8728522,10.5389398 15.8728522,10.6602395 C15.1228991,10.6602395 14.7479225,10.7208892 14.4979382,11.1454383 C14.3729459,11.3273877 14.5604342,11.3880376 14.7479225,11.3273877 C14.9354108,11.2060881 15.1853951,11.1454383 15.3103873,11.1454383 C15.4353796,11.1454383 15.4978756,11.2060881 15.3728834,11.266738 C14.8729147,11.5093373 14.6229303,11.7519367 14.6229303,12.1764856 C14.6229303,12.2977854 14.6854264,12.4190851 14.8104187,12.1764856 C14.9979068,11.8732365 15.2478913,11.630637 15.6228677,11.5699872 C15.6228677,11.9338862 15.6853639,12.4190851 15.8728522,12.4797349 C16.0603405,12.6010345 16.1228365,12.4797349 15.9978443,12.2977854 C15.8728522,11.9945361 15.9978443,11.6912869 16.1853327,11.5093373 C16.4978131,11.1454383 17.2477662,11.630637 17.4352545,11.7519367 C17.5602466,11.8732365 17.6852388,11.9338862 17.6227428,11.630637 C17.4977505,11.2060881 16.8727896,10.9634887 16.372821,10.9028388 C16.4978131,10.2356905 16.9352857,8.84074411 17.122774,8.35554521 C17.4352545,8.5374948 17.6852388,8.11294591 18.1852076,8.29489535 C19.0601528,8.59814466 20.3725708,9.38659272 20.6225551,9.56854216 C20.8725396,9.75049174 20.9350356,9.68984188 21.0600279,9.62919202 C21.18502,9.5078923 21.3725083,9.62919202 21.4975005,9.62919202 C21.6224926,9.62919202 21.8099809,9.68984188 21.6224926,9.32594286 C21.4350043,8.96204368 20.9350356,8.29489535 20.1225865,7.74904674 C20.6225551,7.8096966 21.247516,7.8096966 21.247516,7.68839688 C21.247516,7.5670973 20.4975629,7.32449785 20.1850825,7.32449785 C20.4975629,7.26384799 20.9350356,7.0818984 21.1225239,6.8392991 C21.247516,6.71799938 21.1225239,6.65734951 20.6850513,6.65734951 C19.3101373,6.65734951 18.6226802,6.65734951 17.9352233,6.23280063 C16.8102936,5.62630215 16.1853327,4.95915382 15.6228677,4.65590451 C15.3103873,4.53460493 15.1228991,4.17070576 15.060403,3.8674566 C14.6854264,2.89705895 14.6854264,2.47251006 13.8729773,2.1692609 C13.060528,1.80536173 12.0605905,2.1692609 11.6231179,2.59380979 L11.6231179,2.59380979 L11.6231179,2.59380979 Z" id="path924" fill="#000000"></path>
            <path d="M14.3729459,2.65445965 C14.1854577,2.47251006 13.9354733,2.35121034 13.747985,2.29056048 C13.6229928,2.22991062 13.5604968,2.4118602 13.685489,2.47251006 C13.6229928,2.59380979 13.6229928,2.77575923 13.685489,2.83640909 C13.8104811,2.89705895 13.8104811,3.01835867 13.685489,3.01835867 C13.4980007,3.07900854 13.5604968,3.50355742 13.8104811,3.3822577 C13.8729773,3.32160798 13.9354733,3.3822577 13.9354733,3.44290756 C13.9354733,3.50355742 13.9354733,3.56420729 13.9979694,3.62485715 C14.0604654,3.68550701 14.0604654,3.74615687 14.0604654,3.80680673 C14.0604654,3.8674566 14.0604654,3.8674566 14.1229616,3.8674566 C14.1854577,3.8674566 14.1854577,4.04940604 14.0604654,4.1100559 C14.2479537,4.1100559 14.3104499,4.04940604 14.3104499,4.23135562 C14.3729459,4.35265535 14.5604342,4.41330521 14.5604342,4.59525465 C14.5604342,4.77720423 14.4979382,4.77720423 14.3104499,4.77720423 C14.1229616,4.71655437 13.9979694,4.83785409 13.9354733,4.89850396 C13.8729773,4.95915382 13.8729773,5.08045354 13.9979694,5.08045354 C14.1229616,5.08045354 14.1854577,5.1411034 14.0604654,5.20175312 C13.9354733,5.26240298 13.6229928,5.20175312 13.5604968,5.38370271 C13.4980007,5.50500243 13.5604968,5.62630215 13.685489,5.56565229 C13.8104811,5.50500243 14.0604654,5.38370271 14.1854577,5.38370271 C14.3104499,5.32305284 14.3729459,5.32305284 14.435442,5.44435257 C14.4979382,5.56565229 14.435442,5.68695202 14.3104499,5.62630215 C14.1854577,5.50500243 14.1229616,5.62630215 13.9979694,5.68695202 C13.8729773,5.74760188 13.8104811,5.80825159 13.685489,5.80825159 C13.5604968,5.80825159 13.4355045,5.80825159 13.4980007,6.1115009 C13.5604968,6.96059882 14.2479537,7.5670973 15.4978756,7.5670973 C16.7477974,7.5670973 17.3727583,7.50644744 17.5602466,7.5670973 C17.122774,7.32449785 16.8727896,7.20319813 16.7477974,7.26384799 C16.6228053,7.32449785 16.4978131,7.32449785 16.5603091,7.20319813 C16.6228053,7.0818984 16.5603091,7.0818984 16.4978131,7.02124854 C16.435317,6.96059882 16.372821,6.89994896 16.2478287,7.02124854 C16.1228365,7.14254826 15.810356,7.32449785 15.6853639,7.32449785 C15.5603717,7.32449785 15.3728834,7.32449785 15.4978756,7.20319813 C15.6228677,7.0818984 15.9978443,7.02124854 16.0603405,6.96059882 C16.1853327,6.89994896 16.1853327,6.8392991 16.1853327,6.8392991 C16.1853327,6.8392991 16.1853327,6.65734951 16.372821,6.77864924 C16.7477974,6.96059882 17.3102623,7.26384799 17.4977505,7.26384799 C17.6852388,7.26384799 17.747735,7.20319813 17.6227428,7.0818984 C17.4977505,7.02124854 17.4352545,6.89994896 17.4977505,6.8392991 C17.5602466,6.77864924 17.5602466,6.71799938 17.810231,6.89994896 C18.0602154,7.02124854 18.4351919,7.20319813 18.6226802,7.26384799 C18.8101685,7.32449785 18.9351606,7.32449785 18.6851763,7.0818984 C18.3726959,6.89994896 17.4352545,6.29345049 17.18527,6.1115009 C16.9352857,5.92955132 17.0602779,6.17215077 17.0602779,6.23280063 C17.0602779,6.29345049 16.8727896,6.41475007 16.7477974,6.29345049 C16.6228053,6.23280063 16.5603091,6.1115009 16.6853014,6.05085104 C16.8102936,5.99020118 16.8727896,5.99020118 16.6228053,5.74760188 C16.372821,5.56565229 16.3103248,5.56565229 16.372821,5.74760188 C16.435317,5.92955132 16.435317,6.05085104 16.1853327,5.99020118 C15.9353482,5.92955132 15.8728522,5.80825174 15.9978443,5.68695202 C16.1228365,5.62630215 16.3103248,5.56565229 16.0603405,5.38370271 C15.810356,5.20175327 15.8728522,5.38370271 15.810356,5.50500243 C15.74786,5.62630215 15.5603717,5.62630215 15.4353796,5.50500243 C15.3103873,5.44435257 15.3103873,5.32305284 15.3728834,5.26240298 C15.4353796,5.20175327 15.4353796,5.1411034 15.5603717,5.20175327 C15.6853639,5.26240298 15.810356,5.20175327 15.6228677,5.08045354 C15.4353796,4.89850396 15.3728834,4.95915382 15.3728834,5.08045354 C15.4353796,5.20175327 15.2478913,5.32305284 14.9979068,5.1411034 C14.8729147,5.01980368 14.8729147,4.89850396 14.9979068,4.89850396 C15.1228991,4.89850396 15.1228991,4.83785409 15.060403,4.71655437 C14.6854264,3.74615687 14.8729147,3.20030826 14.3729459,2.65445965 L14.3729459,2.65445965 L14.3729459,2.65445965 Z" id="path932" stroke="#000000" stroke-width="0.520829688" fill="#FFFFFF"></path>
            <path d="M29.8719768,13.2681829 C29.8719768,23.154108 28.2470785,33.8284811 14.9979068,38.9230683 C1.81123147,33.8284811 0.186333012,23.154108 0.12383701,13.2681829 L29.8719768,13.2681829 L29.8719768,13.2681829 L29.8719768,13.2681829 Z" id="path1048" stroke="#000000" stroke-width="1.04165938"></path>
            <path d="M29.8719768,13.2681829 C29.8719768,9.5078923 29.6844885,5.92955132 29.7469846,2.71510951 C24.8097934,0.592364781 18.3101997,0.107166032 14.9979068,0.107166032 C11.6856141,0.107166032 5.18602038,0.531714919 0.248829164,2.71510951 C0.373821318,5.86890146 0.12383701,9.5078923 0.12383701,13.2681829 L29.8719768,13.2681829 L29.8719768,13.2681829 L29.8719768,13.2681829 Z" id="path3682" stroke="#000000" stroke-width="1.04165938"></path>
        </g>
    </g>
</svg>