<?xml version="1.0" ?><svg height="120px" version="1.1" viewBox="0 0 180 120" width="180px" xmlns="http://www.w3.org/2000/svg" xmlns:sketch="http://www.bohemiancoding.com/sketch/ns" xmlns:xlink="http://www.w3.org/1999/xlink"><title/><defs/><g fill="none" fill-rule="evenodd" id="Europe" stroke="none" stroke-width="1"><rect d="M0,0 L0,120 L180,120 L180,0 L0,0 Z M0,0" fill="#346DA6" height="120" id="Oval-1-copy-5" width="180" x="0" y="0"/><path d="M89.9999998,27.1445312 L85.2977184,29.771176 L86.195774,24.2078536 L82.3915478,20.267887 L87.6488597,19.4562084 L90.0000001,14.3945313 L92.3511419,19.4562097 L97.6084534,20.267891 L93.8042257,24.2078547 L94.7022815,29.7711761 L89.9999998,27.1445312 Z M106.427734,31.5463293 L101.042117,31.4699297 L104.601517,27.100979 L103.276944,21.7867547 L108.235749,23.7124764 L112.802734,20.5045056 L112.308044,26.0636186 L116.455168,29.395211 L111.190629,30.9052058 L109.186707,36.1722113 L106.427734,31.5463293 Z M118.453671,43.5722655 L113.827789,40.8132926 L119.094795,38.8093704 L120.604793,33.5448306 L123.936383,37.691957 L129.495495,37.1972657 L126.287523,41.7642534 L128.213242,46.7230595 L122.89902,45.3984834 L118.53007,48.9578833 L118.453671,43.5722655 Z M122.855469,59.9999998 L120.228824,55.2977184 L125.792146,56.195774 L129.732113,52.3915478 L130.543792,57.6488597 L135.605469,60.0000001 L130.54379,62.3511419 L129.732109,67.6084534 L125.792145,63.8042257 L120.228824,64.7022815 L122.855469,59.9999998 Z M118.453671,76.4277342 L118.53007,71.0421166 L122.899021,74.6015168 L128.213245,73.2769436 L126.287524,78.2357486 L129.495494,82.8027345 L123.936381,82.3080437 L120.604789,86.4551684 L119.094794,81.1906287 L113.827789,79.1867072 L118.453671,76.4277342 Z M106.427735,88.4536705 L109.186707,83.8277887 L111.19063,89.094795 L116.455169,90.6047931 L112.308043,93.9363833 L112.802734,99.4954945 L108.235747,96.2875233 L103.276941,98.2132424 L104.601517,92.8990199 L101.042117,88.5300702 L106.427735,88.4536705 Z M90.0000002,92.8554688 L94.7022816,90.228824 L93.804226,95.7921464 L97.6084522,99.732113 L92.3511403,100.543792 L89.9999999,105.605469 L87.6488581,100.54379 L82.3915466,99.732109 L86.1957743,95.7921453 L85.2977185,90.2288239 L90.0000002,92.8554688 Z M73.5722658,88.4536707 L78.9578834,88.5300703 L75.3984832,92.899021 L76.7230564,98.2132453 L71.7642514,96.2875236 L67.1972655,99.4954944 L67.6919563,93.9363814 L63.5448316,90.604789 L68.8093713,89.0947942 L70.8132928,83.8277887 L73.5722658,88.4536707 Z M61.5463295,76.4277345 L66.1722113,79.1867074 L60.905205,81.1906296 L59.3952069,86.4551694 L56.0636167,82.308043 L50.5045055,82.8027343 L53.7124767,78.2357466 L51.7867576,73.2769405 L57.1009801,74.6015166 L61.4699298,71.0421167 L61.5463295,76.4277345 Z M57.1445312,60.0000002 L59.771176,64.7022816 L54.2078536,63.804226 L50.267887,67.6084522 L49.4562084,62.3511403 L44.3945312,59.9999999 L49.4562097,57.6488581 L50.267891,52.3915466 L54.2078547,56.1957743 L59.7711761,55.2977185 L57.1445312,60.0000002 Z M61.5463293,43.5722658 L61.4699297,48.9578834 L57.100979,45.3984832 L51.7867547,46.7230564 L53.7124764,41.7642514 L50.5045056,37.1972655 L56.0636186,37.6919563 L59.395211,33.5448316 L60.9052058,38.8093713 L66.1722113,40.8132928 L61.5463293,43.5722658 Z M73.5722655,31.5463295 L70.8132926,36.1722113 L68.8093704,30.905205 L63.5448306,29.3952069 L67.691957,26.0636167 L67.1972657,20.5045055 L71.7642534,23.7124767 L76.7230595,21.7867576 L75.3984834,27.1009801 L78.9578833,31.4699298 L73.5722655,31.5463295 Z M73.5722655,31.5463295" fill="#E5B731" id="Star-2"/></g></svg>