<?xml version="1.0" ?><svg height="120px" version="1.1" viewBox="0 0 180 120" width="180px" xmlns="http://www.w3.org/2000/svg" xmlns:sketch="http://www.bohemiancoding.com/sketch/ns" xmlns:xlink="http://www.w3.org/1999/xlink"><title/><defs/><g fill="none" fill-rule="evenodd" id="Africa,-Middle-East-and-India" stroke="none" stroke-width="1"><g id="Africa,-Middle-Eest-and-India" transform="translate(-400.000000, -1.000000)"><g id="Botswana" transform="translate(400.000000, 0.000000)"><rect d="M0,0.991735537 L0,120 L180,120 L180,0.991735537 L0,0.991735537 Z M0,0.991735537" fill="#FFFFFF" height="119.008264" id="Rectangle-3-copy-4" width="180" x="0" y="0.991735537"/><rect d="M0.00549314351,76 L0.00549314351,121 L180.005493,121 L180.005493,76 L0.00549314351,76 Z M0.00549314351,76" fill="#4086CD" height="45" id="Rectangle-3-copy-2" width="180" x="0.00549314351" y="76"/><rect d="M0.00549331208,51 L0.00549331208,71 L180.005493,71 L180.005493,51 L0.00549331208,51 Z M0.00549331208,51" fill="#262626" height="20" id="Rectangle-3-copy-3" width="180" x="0.00549331208" y="51"/><rect d="M0.00274665604,0.991735537 L0.00274665604,45.9917355 L180.002747,45.9917355 L180.002747,0.991735537 L0.00274665604,0.991735537 Z M0.00274665604,0.991735537" fill="#4086CD" height="45" id="Rectangle-3" width="180" x="0.00274665604" y="0.991735537"/></g></g></g></svg>