<?xml version="1.0" ?><svg height="120px" version="1.1" viewBox="0 0 180 120" width="180px" xmlns="http://www.w3.org/2000/svg" xmlns:sketch="http://www.bohemiancoding.com/sketch/ns" xmlns:xlink="http://www.w3.org/1999/xlink"><title/><defs/><g fill="none" fill-rule="evenodd" id="Africa,-Middle-East-and-India" stroke="none" stroke-width="1"><g id="Africa,-Middle-Eest-and-India" transform="translate(-1000.000000, -1001.000000)"><g id="Zimbabwe" transform="translate(1000.000000, 1001.000000)"><rect d="M-2.84217094e-14,0 L-2.84217094e-14,120 L179.994476,120 L179.994476,0 L-2.84217094e-14,0 Z M-2.84217094e-14,0" fill="#479951" height="120" id="Rectangle-3-copy-3" width="179.994476" x="-2.84217094e-14" y="0"/><rect d="M0,86 L0,103 L179.994476,103 L179.994476,86 L0,86 Z M0,86" fill="#CA4638" height="17" id="Rectangle-3-copy-4" width="179.994476" x="0" y="86"/><rect d="M0.00552366097,69 L0.00552366097,86 L180,86 L180,69 L0.00552366097,69 Z M0.00552366097,69" fill="#E5B731" height="17" id="Rectangle-3-copy-2" width="179.994476" x="0.00552366097" y="69"/><rect d="M0,51 L0,69 L180,69 L180,51 L0,51 Z M0,51" fill="#262626" height="18" id="Rectangle-3-copy-5" width="180" x="0" y="51"/><rect d="M0.00552383048,34 L0.00552383048,51 L180.005524,51 L180.005524,34 L0.00552383048,34 Z M0.00552383048,34" fill="#CA4638" height="17" id="Rectangle-3-copy-3" width="180" x="0.00552383048" y="34"/><rect d="M0,17 L0,34 L180,34 L180,17 L0,17 Z M0,17" fill="#E5B731" height="17" id="Rectangle-3-copy-4" width="180" x="0" y="17"/><polygon d="M0,0 L5,0 L98.0820312,60 L5,120 L0,120 L0,0 Z M0,0" fill="#262626" id="Triangle-28" points="0 0 5 0 98.0820312 60 5 120 0 120 "/><polygon d="M0,0 L94,60 L0,120 L0,0 Z M0,0" fill="#FFFFFF" id="Triangle-28-copy" points="0 0 94 60 0 120 "/><polygon d="M33.9999994,72.5 L17.5420142,80.8434598 L20.6852089,63.1717299 L7.37041734,50.6565417 L25.7710091,48.0782687 L34.0000003,32 L42.2289966,48.0782727 L60.629587,50.6565546 L47.3147899,63.1717333 L50.4579852,80.8434601 L33.9999994,72.5 Z M33.9999994,72.5" fill="#CA4638" id="Star-2" points="33.9999994 72.5 17.5420142 80.8434598 20.6852089 63.1717299 7.37041734 50.6565417 25.7710091 48.0782687 34.0000003 32 42.2289966 48.0782727 60.629587 50.6565546 47.3147899 63.1717333 50.4579852 80.8434601 "/><g id="bird" transform="translate(21.000000, 38.000000)"><path d="M32.4527884,23.2048323 C31.7284899,22.4810158 19.0745731,13.1139269 16.4756202,11.2405043 C13.8766666,9.36708972 13.1523689,8.51553472 13.1523689,8.51553472 C13.1523689,8.51553472 10.809051,4.30034993 9.99954088,3.06559559 C9.19003156,1.83084124 7.69882837,0.0851571087 5.7389632,0.0851571087 C3.77909722,0.0851571087 2.58621805,1.23475515 2.01811339,3.27848233 C1.70564283,3.36363863 0.0297877317,4.38566711 0.0866233902,5.43580754 C0.56951722,5.37892407 3.60875766,4.52736907 4.65967244,7.96202276 C5.71067012,11.3966765 5.76742207,17.0167673 4.68804841,19.7986204 C3.60867395,22.5804734 1.93290256,24.6807462 1.93290256,27.1219821 C1.93290256,27.4625993 2.16007778,28.1438417 2.72818244,28.1438417 C2.92698168,29.2225928 4.51762515,36.9148445 4.51762515,36.9148445 L27.183985,36.9148445 L30.7841731,23.006086" fill="#E5B731" id="Shape"/><g id="Group" stroke="#000000"><path d="M10.1699641,15.3705408 C11.7605247,18.8334673 12.158289,19.0606634 16.1347737,20.4231482 C20.1112584,21.7854641 31.3450379,23.0771019 32.4527884,23.2048323 C31.7284899,22.4810158 19.0745731,13.1139269 16.4756202,11.2405043 C13.8766666,9.36708972 13.1523689,8.51553472 13.1523689,8.51553472 C13.1523689,8.51553472 10.809051,4.30034993 9.99954088,3.06559559 C9.19003156,1.83084124 7.69882837,0.0851571087 5.7389632,0.0851571087 C3.77909722,0.0851571087 2.58621805,1.23475515 2.01811339,3.27848233 C1.70564283,3.36363863 0.0297877317,4.38566711 0.0866233902,5.43580754 C0.56951722,5.37892407 3.60875766,4.52736907 4.65967244,7.96202276 C5.71067012,11.3966765 5.76742207,17.0167673 4.68804841,19.7986204 C3.60867395,22.5804734 1.93290256,24.6807462 1.93290256,27.1219821 C1.93290256,27.4625993 2.16007778,28.1438417 2.72818244,28.1438417 C2.92698168,29.2225928 4.51762515,36.9148445 4.51762515,36.9148445 L27.183985,36.9148445 L30.7841731,23.006086" id="Shape"/><path d="M2.72818244,28.1438417 C2.72818244,28.1438417 7.55686478,27.8600999 8.86349817,27.8600999 C10.1699641,27.8600999 22.332251,27.8750769 29.1180539,29.4429599" id="Shape"/><path d="M4.43341156,28.0482128 C4.43341156,28.0482128 3.94960339,27.4625993 4.26199024,26.2988688 C4.5743779,25.1351304 7.98292295,22.1260893 7.98292295,17.8684832" id="Shape"/><path d="M7.35798263,27.8600999 C7.35798263,27.8600999 6.96038415,25.9582436 11.3061743,24.3402899 C12.5275944,23.971231 16.0211032,22.0126602 16.1347737,20.4231482" id="Shape"/><path d="M10.844167,24.5207534 C10.844167,24.5207534 21.5034359,24.5673171 29.9392138,26.2704271" id="Shape"/><path d="M13.516016,23.249908 C13.516016,23.249908 17.1786152,23.3751449 17.7750967,23.2048323 C18.3715773,23.0345197 19.4274034,22.5917825 19.8474685,21.344223" id="Shape"/><path d="M15.6874136,23.2933186 C15.6874136,23.2933186 17.6466148,22.2754406 18.0303983,20.9518782" id="Shape"/><path d="M9.77236566,36.5516426 C9.77236566,36.5516426 8.93439666,30.7471067 8.7639742,27.496898 L10.9511812,29.5832074 L13.2650414,27.5609321 L15.2543643,29.682665 L17.554412,27.7322421 L19.5432359,29.9664067 L21.8209828,28.030623 L23.6333911,30.1367193 L25.9049807,28.49515 L28.6054536,31.0599578" id="Shape"/><path d="M28.1311317,33.255826 C20.0175601,32.0945891 9.15990739,32.1699323 9.15990739,32.1699323" id="Shape"/><path d="M5.38779812,12.1071971 C5.38779812,12.1071971 11.9877007,8.95544863 13.1523689,8.51553472" id="Shape"/></g><g id="Group" stroke="#000000" transform="translate(4.431005, 2.043732)"><path d="M4.82926829,27.8421417 L6.9656175,30.2562178 L8.89586431,27.8604422 L10.8482278,30.3590587 L12.9563702,28.0454365 L14.8973548,30.5772724 L17.0864317,28.3340674 L18.8748428,30.9265735 L21.0525407,28.8602071 L23.3414634,31.3695652" id="Shape"/><ellipse cx="9.65410097" cy="24.1422431" d="M9.65410097,24.9920036 C10.071379,24.9920036 10.4096496,24.6115529 10.4096496,24.1422431 C10.4096496,23.6729334 10.071379,23.2924827 9.65410097,23.2924827 C9.23682294,23.2924827 8.89855229,23.6729334 8.89855229,24.1422431 C8.89855229,24.6115529 9.23682294,24.9920036 9.65410097,24.9920036 Z M9.65410097,24.9920036" id="Oval" rx="0.755548674" ry="0.849760424"/><ellipse cx="12.8438151" cy="24.3828535" d="M12.8438151,25.232614 C13.2610931,25.232614 13.5993637,24.8521633 13.5993637,24.3828535 C13.5993637,23.9135438 13.2610931,23.5330931 12.8438151,23.5330931 C12.426537,23.5330931 12.0882664,23.9135438 12.0882664,24.3828535 C12.0882664,24.8521633 12.426537,25.232614 12.8438151,25.232614 Z M12.8438151,25.232614" id="Oval" rx="0.755548674" ry="0.849760424"/><ellipse cx="0.971039442" cy="1.43088868" d="M0.971039442,2.08878844 C1.29410358,2.08878844 1.55599878,1.7942367 1.55599878,1.43088868 C1.55599878,1.06754065 1.29410358,0.772988914 0.971039442,0.772988914 C0.647975304,0.772988914 0.386080104,1.06754065 0.386080104,1.43088868 C0.386080104,1.7942367 0.647975304,2.08878844 0.971039442,2.08878844 Z M0.971039442,2.08878844" id="Oval" rx="0.584959337" ry="0.657899764"/></g></g></g></g></g></svg>