<?xml version="1.0" ?><svg height="120px" version="1.1" viewBox="0 0 180 120" width="180px" xmlns="http://www.w3.org/2000/svg" xmlns:sketch="http://www.bohemiancoding.com/sketch/ns" xmlns:xlink="http://www.w3.org/1999/xlink"><title/><defs/><g fill="none" fill-rule="evenodd" id="Africa,-Middle-East-and-India" stroke="none" stroke-width="1"><g id="Africa,-Middle-Eest-and-India" transform="translate(-400.000000, -1001.000000)"><g id="Sao-tome-principe" transform="translate(400.000000, 1001.000000)"><rect d="M0,0 L0,120 L180,120 L180,0 L0,0 Z M0,0" fill="#57BB63" height="120" id="Rectangle-3-copy-3" width="180" x="0" y="0"/><rect d="M-2.84217094e-14,35 L-2.84217094e-14,85 L180,85 L180,35 L-2.84217094e-14,35 Z M-2.84217094e-14,35" fill="#E5B731" height="50" id="Rectangle-3-copy-2" width="180" x="-2.84225816e-14" y="35"/><path d="M94.6057665,55.2234961 L98.8085972,41.9908849 L103.011421,55.2234961 L116.617188,55.2234961 L105.611477,63.4005288 L109.814308,76.6331385 L98.8085972,68.4560988 L87.8028867,76.6331385 L92.0057105,63.4005288 L81,55.2234961 L94.6057665,55.2234961 Z M94.6057665,55.2234961" fill="#262626" id="Shape"/><path d="M124,55.2234961 L137.605766,55.2234961 L141.808597,41.9908849 L146.011421,55.2234961 L159.617188,55.2234961 L148.611477,63.4005288 L152.814308,76.6331385 L141.808597,68.4560988 L130.802887,76.6331385 L135.005711,63.4005288 L124,55.2234961 L124,55.2234961 L124,55.2234961 L124,55.2234961 Z M124,55.2234961" fill="#262626" id="Shape"/><polygon d="M0,0 L55,60 L0,120 L0,0 Z M0,0" fill="#CA4638" id="Triangle-18" points="0 0 55 60 0 120 "/></g></g></g></svg>