<?xml version="1.0" ?><svg height="120px" version="1.1" viewBox="0 0 180 120" width="180px" xmlns="http://www.w3.org/2000/svg" xmlns:sketch="http://www.bohemiancoding.com/sketch/ns" xmlns:xlink="http://www.w3.org/1999/xlink"><title/><defs/><g fill="none" fill-rule="evenodd" id="Ameria" stroke="none" stroke-width="1"><g id="Group" transform="translate(-800.000000, -200.000000)"><g id="Colombia" transform="translate(800.000000, 200.000000)"><rect d="M-1.42108547e-14,0 L-1.42108547e-14,120 L180,120 L180,0 L-1.42108547e-14,0 Z M-1.42108547e-14,0" fill="#CA4638" height="120" id="Oval-15-copy" width="180" x="-1.59877022e-14" y="0"/><rect d="M-1.42108547e-14,0 L-1.42108547e-14,90 L180,90 L180,0 L-1.42108547e-14,0 Z M-1.42108547e-14,0" fill="#346DA6" height="90" id="Oval-15-copy" width="180" x="-1.59877022e-14" y="0"/><rect d="M-1.42108547e-14,0 L-1.42108547e-14,60 L180,60 L180,0 L-1.42108547e-14,0 Z M-1.42108547e-14,0" fill="#E5B731" height="60" id="Oval-15-copy" width="180" x="-1.59877022e-14" y="0"/></g></g></g></svg>