<?xml version="1.0" ?><svg height="120px" version="1.1" viewBox="0 0 180 120" width="180px" xmlns="http://www.w3.org/2000/svg" xmlns:sketch="http://www.bohemiancoding.com/sketch/ns" xmlns:xlink="http://www.w3.org/1999/xlink"><title/><defs/><g fill="none" fill-rule="evenodd" id="Africa,-Middle-East-and-India" stroke="none" stroke-width="1"><g id="Africa,-Middle-Eest-and-India" transform="translate(-200.000000, -801.000000)"><g id="Senegal" transform="translate(200.000000, 801.000000)"><rect d="M0,-1.42108547e-14 L0,120 L180,120 L180,-1.42108547e-14 L0,-1.42108547e-14 Z M0,-1.42108547e-14" fill="#CA4638" height="120" id="Rectangle-3" width="180" x="0" y="-1.42112908e-14"/><rect d="M0,0 L0,120 L120,120 L120,0 L0,0 Z M0,0" fill="#E5B731" height="120" id="Rectangle-3-copy-3" width="120" x="0" y="0"/><rect d="M0.00552366097,0 L0.00552366097,120 L60.0055237,120 L60.0055237,0 L0.00552366097,0 Z M0.00552366097,0" fill="#479951" height="120" id="Rectangle-3-copy-2" width="60" x="0.00552366097" y="0"/><path d="M67.1647692,54.8734983 L84.6108866,54.8734983 L90.0000044,38.2814123 L95.3891134,54.8734983 L112.835231,54.8734983 L98.7230587,65.1265034 L104.112177,81.7185877 L90.0000044,71.4655737 L75.8878323,81.7185877 L81.2769413,65.1265034 L67.1647692,54.8734983 L67.1647692,54.8734983 L67.1647692,54.8734983 L67.1647692,54.8734983 Z M67.1647692,54.8734983" fill="#479951" id="Shape"/></g></g></g></svg>