<?xml version="1.0" encoding="UTF-8" standalone="no"?>
<svg width="180px" height="120px" viewBox="0 0 180 120" version="1.1" xmlns="http://www.w3.org/2000/svg" xmlns:xlink="http://www.w3.org/1999/xlink">
    <!-- Generator: Sketch 40.2 (33826) - http://www.bohemiancoding.com/sketch -->
    <title>icon-flag-nc</title>
    <desc>Created with Sketch.</desc>
    <defs></defs>
    <g id="Page-1" stroke="none" stroke-width="1" fill="none" fill-rule="evenodd">
        <rect id="Rectangle-path" fill="#009543" x="0" y="0" width="180" height="120"></rect>
        <rect id="Rectangle-path" fill="#ED4135" x="0" y="0" width="180" height="80"></rect>
        <rect id="Rectangle-path" fill="#0035AD" x="0" y="0" width="180" height="40"></rect>
        <circle id="Oval" stroke="#000000" stroke-width="5" fill="#FAE600" cx="60" cy="60" r="29.496"></circle>
        <path d="M65,64.9 L65,63.9 L55,63.9 L55,64.9 L65,64.9 Z M65,57.5 L65,56.5 L55,56.5 L55,57.5 L65,57.5 Z M59.5,81 L60.5,81 L60.5,30.6 L59.5,30.6 L59.5,81 Z" id="Shape" fill="#000000"></path>
        <path d="M48.124,87.0838 C60.1622,91.9998 71.4456,87.3858 71.4456,87.3858 C71.4456,87.3858 67.1862,82.7762 65.0028,80.9764 C62.8722,79.2208 56.6046,79.2902 54.4658,80.9764 C52.681,82.384 47.5618,87.5704 48.124,87.0838 L48.124,87.0838 Z" id="Shape" fill="#000000"></path>
        <ellipse id="Oval" fill="#000000" cx="60" cy="73.6" rx="3.3" ry="4.8"></ellipse>
        <ellipse id="Oval" fill="#000000" cx="60" cy="60.7" rx="4" ry="2.532"></ellipse>
        <circle id="Oval" fill="#000000" cx="60" cy="49" r="4"></circle>
        <path d="M64.8,34.1 C64.7988,34.09732 65.1466,34.67416 64.4174,35.9872 C60.9322,42.2638 57.4348,42.3994 56.771,42.94 C56.0394,43.5356 55.7306,43.4948 55.7306,43.4948 C55.7828,42.9572 55.8314,40.759 55.8696,40.5472 C56.3986,37.6146 60.8288,37.655 64.296,34.6521 C64.8376,34.183 64.7988,34.09732 64.7988,34.09732 L64.8,34.1 Z" id="Shape" fill="#000000"></path>
        <path d="M53.1,47.6 C53.1,47.6 53.882872,49.845948 54,52.1 C54.187032,55.699314 57.636062,55.8 60,55.8 L60,53.8 C58.228298,53.8 56.689466,53.536684 55.4,50.9 C54.76391,49.599328 53.1,47.6 53.1,47.6 L53.1,47.6 Z" id="Shape" fill="#000000"></path>
        <path d="M53,76.6 C53,76.6 54.259276,75.046914 55.73238,71.405078 C56.50096,69.50498 58.3223,68.4 60,68.4 L60,65.6 C56.194486,65.6 54.36994,67.01104 54.177438,69.072664 C53.78195,73.308178 53,76.6 53,76.6 L53,76.6 Z" id="Shape" fill="#000000"></path>
        <path d="M60,47.6 C60,47.6 60.782872,49.845948 60.9,52.1 C61.087032,55.699314 64.536062,55.8 66.9,55.8 L66.9,53.8 C65.128298,53.8 63.589466,53.536684 62.3,50.9 C61.66391,49.599328 60,47.6 60,47.6 L60,47.6 Z" id="Shape" fill="#000000" transform="translate(63.450000, 51.700000) scale(-1, 1) translate(-63.450000, -51.700000) "></path>
        <path d="M60,76.6 C60,76.6 61.259276,75.046914 62.73238,71.405078 C63.50096,69.50498 65.3223,68.4 67,68.4 L67,65.6 C63.194486,65.6 61.36994,67.01104 61.177438,69.072664 C60.78195,73.308178 60,76.6 60,76.6 L60,76.6 Z" id="Shape" fill="#000000" transform="translate(63.500000, 71.100000) scale(-1, 1) translate(-63.500000, -71.100000) "></path>
    </g>
</svg>