<?xml version="1.0" ?><svg height="120px" version="1.1" viewBox="0 0 180 120" width="180px" xmlns="http://www.w3.org/2000/svg" xmlns:sketch="http://www.bohemiancoding.com/sketch/ns" xmlns:xlink="http://www.w3.org/1999/xlink"><title/><defs/><g fill="none" fill-rule="evenodd" id="Africa,-Middle-East-and-India" stroke="none" stroke-width="1"><g id="Africa,-Middle-Eest-and-India" transform="translate(-201.000000, -1201.000000)"><g id="Kenya" transform="translate(200.000000, 1201.000000)"><rect d="M0,0 L0,120 L180,120 L180,0 L0,0 Z M0,0" fill="#FFFFFF" height="120" id="Rectangle-3-copy-4" width="180" x="0" y="0"/><rect d="M0.00552366097,80 L0.00552366097,120 L180,120 L180,80 L0.00552366097,80 Z M0.00552366097,80" fill="#479951" height="40" id="Rectangle-3-copy-2" width="179.994476" x="0.00552366097" y="80"/><rect d="M0.00552383048,45 L0.00552383048,75 L180.005524,75 L180.005524,45 L0.00552383048,45 Z M0.00552383048,45" fill="#CA4638" height="30" id="Rectangle-3-copy-3" width="180" x="0.00552383048" y="45"/><rect d="M0.00276191524,0 L0.00276191524,40 L179.997238,40 L179.997238,0 L0.00276191524,0 Z M0.00276191524,0" fill="#262626" height="40" id="Rectangle-3" width="179.994476" x="0.00276191524" y="-1.4537178e-19"/><g id="Group" transform="translate(68.000000, 22.000000)"><path d="M24.3333333,75 L25.6666667,75 L25.6666667,13.5403052 C27,12.2246127 27,10.2510741 27,8.27753541 C27,6.96184297 27,1.69907321 25,-4 C23,1.69907321 23,6.96184297 23,8.27753541 C23,10.2510741 23,12.2246127 24.3333333,13.5403052 C24.3333333,13.5403052 23,12.2246127 24.3333333,13.5403052 L24.3333333,75 L24.3333333,75 Z M24.3333333,75" fill="#000000" id="spearshape" stroke="#000000" transform="translate(25.000000, 35.500000) rotate(30.000000) translate(-25.000000, -35.500000) "/><path d="M24.3333333,75 L25.6666667,75 L25.6666667,13.5403052 C27,12.2246127 27,10.2510741 27,8.27753541 C27,6.96184297 27,1.69907321 25,-4 C23,1.69907321 23,6.96184297 23,8.27753541 C23,10.2510741 23,12.2246127 24.3333333,13.5403052 C24.3333333,13.5403052 23,12.2246127 24.3333333,13.5403052 L24.3333333,75 L24.3333333,75 Z M24.3333333,75" fill="#FFFFFF" id="spearshape" transform="translate(25.000000, 35.500000) rotate(30.000000) translate(-25.000000, -35.500000) "/><path d="M21.3333333,75 L22.6666667,75 L22.6666667,13.5403052 C24,12.2246127 24,10.2510741 24,8.27753541 C24,6.96184297 24,1.69907321 22,-4 C20,1.69907321 20,6.96184297 20,8.27753541 C20,10.2510741 20,12.2246127 21.3333333,13.5403052 C21.3333333,13.5403052 20,12.2246127 21.3333333,13.5403052 L21.3333333,75 L21.3333333,75 Z M21.3333333,75" fill="#000000" id="spearshape" stroke="#000000" transform="translate(22.000000, 35.500000) rotate(-30.000000) translate(-22.000000, -35.500000) "/><path d="M21.3333333,75 L22.6666667,75 L22.6666667,13.5403052 C24,12.2246127 24,10.2510741 24,8.27753541 C24,6.96184297 24,1.69907321 22,-4 C20,1.69907321 20,6.96184297 20,8.27753541 C20,10.2510741 20,12.2246127 21.3333333,13.5403052 C21.3333333,13.5403052 20,12.2246127 21.3333333,13.5403052 L21.3333333,75 L21.3333333,75 Z M21.3333333,75" fill="#FFFFFF" id="spearshape" transform="translate(22.000000, 35.500000) rotate(-30.000000) translate(-22.000000, -35.500000) "/><path d="M11,54.25 C12.9736842,59.5 19.5526316,70 23.5,70 C27.4473684,70 34.0263158,59.5 36,54.25 L36,22.75 C34.0263158,17.5 27.4473684,7 23.5,7 C19.5526316,7 12.9736842,17.5 11,22.75 L11,54.25 Z M11,54.25" fill="#CA4638" id="Shape"/><path d="M24,35 C22.3431457,35 21,36.7908609 21,39 C21,40.5867107 21.6929031,41.9576398 22.6972714,42.6042032 L22.6972714,42.6042032 C21.9355786,44.2278338 20,49.0385955 20,56 C20,64.6666667 23,70 23,70 L23,42.7723924 C23.3127789,42.9197944 23.6493646,43 24,43 L24,70 C24,70 27,64.6666667 27,56 C27,49.48193 25.3031045,44.8492995 24.4617328,42.952915 L24.4617328,42.952915 C25.8993716,42.6568025 27,40.9997784 27,39 C27,36.7908609 25.6568543,35 24,35 C24.0001355,34.9997591 27,29.666471 27,21 C27,12.3333333 24,7 24,7 L24,35 C24,35 24,35 24,35 Z M23,7 C23,7 20,12.3333333 20,21 C20,29.6666667 23,35 23,35 L23,7 Z M23,7" fill="#FFFFFF" id="Oval"/><path d="M35.5,54 C37.6,48.6666667 39,43.3333333 39,38 C39,32.6666667 37.6,27.3333333 35.5,22 C33.4,27.3333333 32,32.6666667 32,38 C32,43.3333333 33.4,48.6666667 35.5,54 Z M10.5,54 C12.6,48.6666667 14,43.3333333 14,38 C14,32.6666667 12.6,27.3333333 10.5,22 C8.4,27.3333333 7,32.6666667 7,38 C7,43.3333333 8.4,48.6666667 10.5,54 Z M10.5,54" fill="#000000" id="deco_r"/></g></g></g></g></svg>