<?xml version="1.0" ?><svg height="120px" version="1.1" viewBox="0 0 180 120" width="180px" xmlns="http://www.w3.org/2000/svg" xmlns:sketch="http://www.bohemiancoding.com/sketch/ns" xmlns:xlink="http://www.w3.org/1999/xlink"><title/><defs/><g fill="none" fill-rule="evenodd" id="Ameria" stroke="none" stroke-width="1"><g id="Group" transform="translate(-400.000000, -400.000000)"><g id="St.Vincent-and-Grenadines" transform="translate(400.000000, 400.000000)"><rect d="M-1.42108547e-14,0 L-1.42108547e-14,120 L180,120 L180,0 L-1.42108547e-14,0 Z M-1.42108547e-14,0" fill="#57BB63" height="120" id="Oval-15-copy" width="180" x="-1.59877022e-14" y="0"/><rect d="M-1.42108547e-14,0 L-1.42108547e-14,120 L130,120 L130,0 L-1.42108547e-14,0 Z M-1.42108547e-14,0" fill="#E5B731" height="120" id="Oval-15-copy" width="130" x="-1.15466738e-14" y="0"/><rect d="M-3.55271368e-15,0 L-3.55271368e-15,120 L50,120 L50,0 L-3.55271368e-15,0 Z M-3.55271368e-15,0" fill="#346DA6" height="120" id="Oval-15-copy" width="50" x="-4.44102838e-15" y="0"/><path d="M75.8578644,71.5 L90,92.7132034 L104.142136,71.5 L90,50.2867966 L75.8578644,71.5 Z M90.8578644,48.5 L105,69.7132034 L119.142136,48.5 L105,27.2867966 L90.8578644,48.5 Z M60.8578644,48.5 L75,69.7132034 L89.1421356,48.5 L75,27.2867966 L60.8578644,48.5 Z M60.8578644,48.5" fill="#57BB63" id="Rectangle-60"/></g></g></g></svg>