<?xml version="1.0" ?><svg height="120px" version="1.1" viewBox="0 0 180 120" width="180px" xmlns="http://www.w3.org/2000/svg" xmlns:sketch="http://www.bohemiancoding.com/sketch/ns" xmlns:xlink="http://www.w3.org/1999/xlink"><title/><defs/><g fill="none" fill-rule="evenodd" id="Page-1" stroke="none" stroke-width="1"><g id="paraguay"><rect d="M0,0 L0,120 L180,120 L180,0 L0,0 Z M0,0" fill="#FFFFFF" height="120" id="Rectangle-326" width="180" x="0" y="0"/><rect d="M0,0 L0,40 L180,40 L180,0 L0,0 Z M0,0" fill="#CA4638" height="40" id="Rectangle-1" width="180" x="0" y="0"/><rect d="M0,80 L0,120 L180,120 L180,80 L0,80 Z M0,80" fill="#346DA6" height="40" id="Rectangle-1-copy" width="180" x="0" y="80"/><g id="Flag_of_Paraguay" transform="translate(72.000000, 41.500000)"><g fill="#009B3A" id="g5320" stroke="#000000" stroke-width="0.1" transform="translate(9.000000, 9.000000)"><path d="M12.157324,1 C12.157324,1 18.7742043,3.96914011 17.6187815,10.1045174 C16.46335,16.2398688 12.7794858,16.1988373 11.3349503,16.8768401 C9.89043028,17.55485 8.89388992,18.5252704 8.32390873,18.3895535 C7.75392698,18.2538317 7.00053447,17.795704 7.00053447,17.795704 C7.00053447,17.795704 6.9402395,18.8033743 8.10046933,18.9867268 C9.26071731,19.1700866 10.7858126,17.3964247 11.5183664,17.1992322 C12.2509064,17.0020325 16.7484826,16.4935847 17.8427702,10.2507616 C19.1199224,3.58694069 12.1981669,1.19552924 12.157324,1 C12.157324,1 12.1981669,1.19552924 12.157324,1 L12.157324,1 L12.157324,1 L12.157324,1 L12.157324,1 Z M12.157324,1" id="path774-1"/><path d="M15.8488812,1.98205909 C16.0465403,2.53384023 16.0508617,2.98933109 15.858537,2.99981583 C15.6662122,3.01030057 15.3499566,2.57181505 15.15189,2.02005613 C15.0235767,1.66261079 14.9714682,1.32852935 15.0152174,1.14381255 C15.0589667,0.959095741 15.1919174,0.951847827 15.3639264,1.12480239 C15.5359354,1.29775697 15.720832,1.62459936 15.8488812,1.98205909 C15.8488812,1.98205909 15.720832,1.62459936 15.8488812,1.98205909 L15.8488812,1.98205909 L15.8488812,1.98205909 L15.8488812,1.98205909 L15.8488812,1.98205909 Z M15.8488812,1.98205909" id="path780-7"/><path d="M14.7142982,2.91452236 C14.8757001,3.27021713 14.9840227,3.6154869 14.9983792,3.82000825 C15.0127358,4.02452961 14.9309399,4.05715574 14.7838657,3.90557178 C14.6367916,3.75398781 14.4468373,3.44127868 14.2857018,3.08547764 C14.1242999,2.72978287 14.0159773,2.3845131 14.0016208,2.17999175 C13.9872642,1.97547039 14.0690601,1.94284426 14.2161343,2.09442822 C14.3632084,2.24601219 14.5531627,2.55872132 14.7142982,2.91452236 C14.7142982,2.91452236 14.5531627,2.55872132 14.7142982,2.91452236 L14.7142982,2.91452236 L14.7142982,2.91452236 L14.7142982,2.91452236 L14.7142982,2.91452236 Z M14.7142982,2.91452236" id="path778-4"/><path d="M15.0243301,2.16541623 C15.5764482,2.37061766 16.0131352,2.68676454 15.999698,2.87155005 C15.9862609,3.05633556 15.5277879,3.03978521 14.9756699,2.8345838 C14.4235519,2.62938236 13.9868648,2.31323547 14.000302,2.12844995 C14.0137391,1.94366443 14.4722121,1.96021479 15.0243301,2.16541623 C15.0243301,2.16541623 14.4722121,1.96021479 15.0243301,2.16541623 L15.0243301,2.16541623 L15.0243301,2.16541623 L15.0243301,2.16541623 L15.0243301,2.16541623 Z M15.0243301,2.16541623" id="path779-0"/><path d="M14.5609282,2.32937361 C14.738163,2.49706328 14.8904241,2.68473027 14.9602432,2.82154295 C15.0300624,2.95835563 15.0068074,3.02348 14.8992555,2.99233601 C14.7917036,2.96119201 14.6162329,2.83852229 14.4390718,2.67062639 C14.261837,2.50293672 14.1095759,2.31526973 14.0397568,2.17845705 C13.9699376,2.04164437 13.9931926,1.97652 14.1007445,2.00766399 C14.2082964,2.03880799 14.3837671,2.16147771 14.5609282,2.32937361 C14.5609282,2.32937361 14.3837671,2.16147771 14.5609282,2.32937361 L14.5609282,2.32937361 L14.5609282,2.32937361 L14.5609282,2.32937361 L14.5609282,2.32937361 Z M14.5609282,2.32937361" id="path777-9"/><path d="M14.607096,2.39431722 C14.8767814,2.66422493 15.0474219,2.930253 14.9882928,2.98860186 C14.9291637,3.04695073 14.6626414,2.87553922 14.392904,2.60568278 C14.1232186,2.33577507 13.9525781,2.069747 14.0117072,2.01139814 C14.0708363,1.95304927 14.3373586,2.12446078 14.607096,2.39431722 C14.607096,2.39431722 14.3373586,2.12446078 14.607096,2.39431722 L14.607096,2.39431722 L14.607096,2.39431722 L14.607096,2.39431722 L14.607096,2.39431722 Z M14.607096,2.39431722" id="path776-4"/><path d="M15.1213057,3.30208109 C15.1258022,3.30666463 14.8201595,3.46920955 14.7509619,3.49346261 C14.6817618,3.5176971 14.5879589,3.40273441 14.3889492,3.50328871 C14.1899402,3.60383187 14.0533309,3.78722639 14.009889,3.89485432 C13.9664453,4.00248163 14.0662722,4.04758181 14.3068021,3.93249288 C14.5473369,3.81740457 14.6106425,3.63505397 14.7266143,3.56361101 C14.8425829,3.49217548 15.0371093,3.38703889 15.1478295,3.3482382 C15.1957598,3.24520185 15.3514551,3.02431667 15.4319333,2.89754582 C15.5124095,2.77078425 15.8281717,2.5615618 15.9431176,2.31799658 C16.0434575,2.11650679 16.0057801,1.94490495 15.8714828,2.01660719 C15.7371831,2.08831191 15.5635495,2.29084501 15.4826885,2.43622165 C15.4018269,2.58160571 15.4712722,2.76670877 15.3814446,2.90292391 C15.3107057,3.00163601 15.1396286,3.30183295 15.1213057,3.30209471 C15.1213057,3.30209471 15.1396286,3.30183295 15.1213057,3.30209471 L15.1213057,3.30208109 L15.1213057,3.30208109 L15.1213057,3.30208109 L15.1213057,3.30208109 Z M15.1213057,3.30208109" id="path781-8"/><path d="M17.9990139,4.5810236 C18.0102116,5.11609901 17.9254153,5.59514116 17.7765766,5.83764393 C17.627738,6.08014669 17.4374776,6.04925459 17.2774866,5.75660797 C17.1174957,5.46396135 17.0120896,4.95403652 17.0009861,4.4189764 C16.9897884,3.88390099 17.0745847,3.40485884 17.2234234,3.16235607 C17.372262,2.91985331 17.5625224,2.95074541 17.7225134,3.24339203 C17.8825043,3.53603865 17.9879104,4.04596348 17.9990139,4.5810236 C17.9990139,4.5810236 17.9879104,4.04596348 17.9990139,4.5810236 L17.9990139,4.5810236 L17.9990139,4.5810236 L17.9990139,4.5810236 L17.9990139,4.5810236 Z M17.9990139,4.5810236" id="path790-8"/><path d="M16.8534138,3.48386355 C16.9797827,4.01965953 17.0291785,4.5179213 16.982986,4.79087382 C16.9367934,5.06382633 16.802034,5.06997928 16.6294932,4.80701388 C16.4569524,4.54404847 16.2728574,4.0519369 16.1465862,3.51613645 C16.0202173,2.98034047 15.9708215,2.4820787 16.017014,2.20912618 C16.0632066,1.93617367 16.197966,1.93002072 16.3705068,2.19298612 C16.5430476,2.45595153 16.7271426,2.9480631 16.8534138,3.48386355 C16.8534138,3.48386355 16.7271426,2.9480631 16.8534138,3.48386355 L16.8534138,3.48386355 L16.8534138,3.48386355 L16.8534138,3.48386355 L16.8534138,3.48386355 Z M16.8534138,3.48386355" id="path791-2"/><path d="M16.6400727,4.61100739 C17.1734254,4.93970047 17.6398645,5.31793641 17.8633699,5.60298051 C18.0868754,5.88802461 18.0334185,6.03647871 17.7231721,5.99232074 C17.4129257,5.94816277 16.8931252,5.71811583 16.3599273,5.38899261 C15.8265746,5.06029953 15.3601355,4.68206359 15.1366301,4.39701949 C14.9131246,4.11197539 14.9665815,3.96352129 15.2768279,4.00767926 C15.5870743,4.05183723 16.1068748,4.28188417 16.6400727,4.61100739 C16.6400727,4.61100739 16.1068748,4.28188417 16.6400727,4.61100739 L16.6400727,4.61100739 L16.6400727,4.61100739 L16.6400727,4.61100739 L16.6400727,4.61100739 Z M16.6400727,4.61100739" id="path792-4"/><path d="M16.2104157,4.19221496 C16.5598197,4.71689694 16.8425292,5.26042905 16.9519592,5.61789269 C17.0613892,5.97535634 16.9808976,6.0923888 16.7408309,5.92486733 C16.5007641,5.75734586 16.1376313,5.33074697 15.7883381,4.80590392 C15.2489221,3.99538488 14.9062399,3.2014031 15.0227329,3.03202551 C15.1392259,2.86264792 15.6708286,3.38194467 16.2104157,4.19221496 C16.2104157,4.19221496 15.6708286,3.38194467 16.2104157,4.19221496 L16.2104157,4.19221496 L16.2104157,4.19221496 L16.2104157,4.19221496 L16.2104157,4.19221496 Z M16.2104157,4.19221496" id="path793-5"/><path d="M16.6703552,4.32819515 C16.8382834,4.86004068 16.9610482,5.38481599 16.9922892,5.70434698 C17.0235302,6.02387797 16.9584869,6.08947479 16.821722,5.8763657 C16.684957,5.66325662 16.4973107,5.203915 16.3296448,4.67180485 C16.1617166,4.13995932 16.0389518,3.61518401 16.0077108,3.29565302 C15.9764698,2.97612203 16.0415131,2.91052521 16.178278,3.1236343 C16.315043,3.33674338 16.5026893,3.796085 16.6703552,4.32819515 C16.6703552,4.32819515 16.5026893,3.796085 16.6703552,4.32819515 L16.6703552,4.32819515 L16.6703552,4.32819515 L16.6703552,4.32819515 L16.6703552,4.32819515 Z M16.6703552,4.32819515" id="path794-5"/><path d="M17.5633392,5.46004066 C17.5674511,5.46826758 17.1453288,5.56283483 17.0534809,5.566931 C16.9616331,5.57101405 16.8810605,5.372546 16.6077627,5.4268116 C16.3344672,5.4810772 16.112884,5.67616278 16.0277675,5.80624031 C15.9426511,5.93631986 16.0513423,6.0409266 16.3797574,5.98421094 C16.7081664,5.92749276 16.8397839,5.7027372 17.0028624,5.65337687 C17.1659365,5.60402608 17.4351151,5.54151806 17.5820742,5.53497253 C17.671312,5.41313504 17.9273865,5.1744178 18.0634896,5.0336485 C18.1995905,4.89288635 18.647982,4.73820557 18.8609539,4.45089178 C19.0435536,4.21544671 19.0484545,3.9626576 18.8629255,4.00459474 C18.6773471,4.04653487 18.4047861,4.25231283 18.2626884,4.41860061 C18.1205791,4.58489614 18.1505355,4.86980768 18.0001757,5.01963626 C17.8843239,5.12582126 17.5858718,5.46745848 17.5633814,5.46004066 C17.5633814,5.46004066 17.5858718,5.46745848 17.5633814,5.46004066 L17.5633392,5.46004066 L17.5633392,5.46004066 L17.5633392,5.46004066 L17.5633392,5.46004066 Z M17.5633392,5.46004066" id="path795-1"/><path d="M18.8923975,7.64591874 C18.7818141,8.17920864 18.6047674,8.6442723 18.4279879,8.86582297 C18.2512084,9.08737363 18.1015718,9.03172903 18.0354774,8.71986222 C17.9693831,8.40799542 17.9968793,7.8873192 18.1076025,7.35408126 C18.2181859,6.82079136 18.3952326,6.35572768 18.5720121,6.13417703 C18.7487916,5.91262639 18.8984282,5.96827096 18.9645226,6.28013778 C19.0306169,6.5920046 19.0031207,7.1126808 18.8923975,7.64591874 C18.8923975,7.64591874 19.0031207,7.1126808 18.8923975,7.64591874 L18.8923975,7.64591874 L18.8923975,7.64591874 L18.8923975,7.64591874 L18.8923975,7.64591874 Z M18.8923975,7.64591874" id="path797-7"/><path d="M17.9952398,7.54441997 C18.0198275,8.07985391 17.9479945,8.56645541 17.8068439,8.82062597 C17.6656932,9.07479653 17.476711,9.05784599 17.3112018,8.77616993 C17.1456925,8.49449387 17.0288502,7.99096931 17.0047602,7.45558001 C16.9801725,6.92014608 17.0520055,6.43354456 17.1931561,6.17937402 C17.3343068,5.92520348 17.523289,5.94215402 17.6887982,6.22383007 C17.8543075,6.50550612 17.9711498,7.00903067 17.9952398,7.54441997 C17.9952398,7.54441997 17.9711498,7.00903067 17.9952398,7.54441997 L17.9952398,7.54441997 L17.9952398,7.54441997 L17.9952398,7.54441997 L17.9952398,7.54441997 Z M17.9952398,7.54441997" id="path798-1"/><path d="M17.164687,6.70691713 C17.5169679,7.04810987 17.8112747,7.41959867 17.936538,7.68118588 C18.0618012,7.94277315 17.9989479,8.05462908 17.7716986,7.97453995 C17.5444493,7.89445081 17.1874054,7.63461121 16.835313,7.29308287 C16.4830321,6.95189014 16.1887253,6.58040133 16.063462,6.31881413 C15.9381988,6.05722686 16.0010521,5.94537091 16.2283014,6.02546006 C16.4555507,6.10554919 16.8125946,6.3653888 17.164687,6.70691713 C17.164687,6.70691713 16.8125946,6.3653888 17.164687,6.70691713 L17.164687,6.70691713 L17.164687,6.70691713 L17.164687,6.70691713 L17.164687,6.70691713 Z M17.164687,6.70691713" id="path799-1"/><path d="M16.6601351,7.27728412 C16.8293512,7.80714644 16.9552029,8.33930593 16.9902639,8.67322303 C17.0253249,9.00714005 16.9642661,9.0920606 16.830097,8.89598301 C16.695928,8.69990541 16.5090418,8.25263279 16.3398649,7.72271586 C16.1706488,7.19285354 16.0447971,6.66069405 16.0097361,6.32677698 C15.9746751,5.99285991 16.0357339,5.90793941 16.169903,6.104017 C16.304072,6.3000946 16.4909582,6.7473672 16.6601351,7.27728412 C16.6601351,7.27728412 16.4909582,6.7473672 16.6601351,7.27728412 L16.6601351,7.27728412 L16.6601351,7.27728412 L16.6601351,7.27728412 L16.6601351,7.27728412 Z M16.6601351,7.27728412" id="path800-5"/><path d="M17.7609349,7.39517515 C17.9133528,7.92922837 18.0044573,8.44332061 17.9998319,8.74324345 C17.9952065,9.04316635 17.8955563,9.08319859 17.7385262,8.84821723 C17.5814961,8.61323593 17.3910242,8.13906229 17.2390651,7.60482487 C17.0866472,7.07077164 16.9955427,6.55667941 17.0001681,6.25675654 C17.0047935,5.95683365 17.1044437,5.91680141 17.2614738,6.15178276 C17.4185039,6.38676411 17.6089758,6.86093772 17.7609349,7.39517515 C17.7609349,7.39517515 17.6089758,6.86093772 17.7609349,7.39517515 L17.7609349,7.39517515 L17.7609349,7.39517515 L17.7609349,7.39517515 L17.7609349,7.39517515 Z M17.7609349,7.39517515" id="path801-2"/><path d="M17.4854594,7.81022426 C17.4878118,7.81644721 17.0903153,7.82082626 17.0063756,7.81043381 C16.9224357,7.80010426 16.8802971,7.65280631 16.6239699,7.65088046 C16.3676422,7.64899476 16.1362655,7.75075936 16.0387917,7.82759046 C15.9413206,7.90442326 16.0236071,7.99152461 16.3302953,7.99964721 C16.6369851,8.00777677 16.7913894,7.87281121 16.9469895,7.86234371 C17.1025855,7.85188836 17.3564651,7.84757216 17.4907674,7.86401986 C17.5906975,7.79341691 17.8601532,7.66668741 18.0055392,7.58982661 C18.150916,7.51297106 18.5817001,7.47121971 18.8196372,7.30508201 C19.0219498,7.1700937 19.0657978,6.99784485 18.8909555,7.0000204 C18.716107,7.00219945 18.4368282,7.10403215 18.2820318,7.19749606 C18.1272267,7.29096001 18.1099839,7.49016601 17.9502587,7.57118761 C17.8286341,7.62727921 17.5046996,7.81836611 17.4854594,7.81007761 C17.4854594,7.81007761 17.5046996,7.81836611 17.4854594,7.81007761 L17.4854594,7.81022426 L17.4854594,7.81022426 L17.4854594,7.81022426 L17.4854594,7.81022426 Z M17.4854594,7.81022426" id="path802-7"/><path d="M17.6378276,10.8061163 C17.4661201,11.3307268 17.2811859,11.7571413 17.1526881,11.9247338 C17.0241903,12.0923263 16.9716507,11.9756354 17.0148605,11.6186174 C17.0580703,11.2615995 17.1904648,10.718494 17.3621724,10.1938836 C17.5338799,9.66927323 17.7188141,9.24285863 17.8473119,9.07526618 C17.9758097,8.90767373 18.0283493,9.02436458 17.9851395,9.38138258 C17.9419297,9.7384005 17.8095352,10.281506 17.6378276,10.8061163 C17.6378276,10.8061163 17.8095352,10.281506 17.6378276,10.8061163 L17.6378276,10.8061163 L17.6378276,10.8061163 L17.6378276,10.8061163 L17.6378276,10.8061163 Z M17.6378276,10.8061163" id="path804-6"/><path d="M18.7166315,9.67840603 C18.5556688,10.2104747 18.3656327,10.6681355 18.2181081,10.8789919 C18.0705835,11.0898484 17.9879829,11.0218663 18.0014211,10.7006541 C18.0148592,10.3794418 18.1222946,9.85379905 18.2832574,9.3217304 C18.5320842,8.49922364 18.8308123,7.9122947 18.9504853,8.01078794 C19.0701582,8.10928118 18.9654583,8.85589922 18.7166315,9.67840603 C18.7166315,9.67840603 18.9654583,8.85589922 18.7166315,9.67840603 L18.7166315,9.67840603 L18.7166315,9.67840603 L18.7166315,9.67840603 L18.7166315,9.67840603 Z M18.7166315,9.67840603" id="path805-1"/><path d="M16.7320699,9.84123685 C16.8902846,10.1939379 16.9922583,10.5501204 16.9995785,10.7756136 C17.0068987,11.0011067 16.9184533,11.0616529 16.7675588,10.934445 C16.6166643,10.807237 16.4262452,10.5116009 16.2680305,10.1588997 C16.0234518,9.61367109 15.9290603,9.10056469 16.0572012,9.01284453 C16.1853422,8.92512433 16.4874911,9.29600824 16.7320699,9.84123685 C16.7320699,9.84123685 16.4874911,9.29600824 16.7320699,9.84123685 L16.7320699,9.84123685 L16.7320699,9.84123685 L16.7320699,9.84123685 L16.7320699,9.84123685 Z M16.7320699,9.84123685" id="path806-4"/><path d="M17.9519677,9.41843852 C18.0283618,9.95354318 18.0128083,10.4635458 17.9111661,10.7563333 C17.8095239,11.0491209 17.6372348,11.080212 17.4591984,10.8378948 C17.2811621,10.5955777 17.1244264,10.1166663 17.0480323,9.5815616 C16.9716382,9.04645694 16.9871916,8.5364543 17.0888339,8.24366672 C17.1904761,7.95087914 17.3627652,7.91978804 17.5408016,8.16210518 C17.718838,8.40442232 17.8755736,8.88333386 17.9519677,9.41843852 C17.9519677,9.41843852 17.8755736,8.88333386 17.9519677,9.41843852 L17.9519677,9.41843852 L17.9519677,9.41843852 L17.9519677,9.41843852 L17.9519677,9.41843852 Z M17.9519677,9.41843852" id="path807-2"/><path d="M17.9466082,9.52139546 C17.8665583,10.0570786 17.7073281,10.5482026 17.5289638,10.8095631 C17.3505995,11.0709237 17.1802343,11.0627621 17.0821133,10.7881561 C16.9839923,10.5135501 16.973042,10.0142733 17.0533918,9.47860454 C17.1334417,8.94292142 17.2926719,8.45179742 17.4710362,8.19043689 C17.6494005,7.92907629 17.8197657,7.93723791 17.9178867,8.21184393 C18.0160077,8.48644994 18.026958,8.98572668 17.9466082,9.52139546 C17.9466082,9.52139546 18.026958,8.98572668 17.9466082,9.52139546 L17.9466082,9.52139546 L17.9466082,9.52139546 L17.9466082,9.52139546 L17.9466082,9.52139546 Z M17.9466082,9.52139546" id="path808-3"/><path d="M17.3330336,11.9053915 C17.3322807,11.9174122 16.9846404,11.6840525 16.9164783,11.6157281 C16.8483188,11.5473941 16.8801884,11.2723098 16.6582771,11.1138176 C16.4363663,10.9553222 16.187908,10.98769 16.0674546,11.0588346 C15.9470006,11.1299792 15.978019,11.3273853 16.240827,11.5268779 C16.5036311,11.7263736 16.7006025,11.591221 16.8407197,11.6677155 C16.9808321,11.7442196 17.2035086,11.890672 17.3125655,12 C17.4322556,11.940892 17.7254067,11.8893608 17.8875207,11.84718 C18.0496242,11.8050056 18.4434878,11.9951413 18.7275654,11.8577459 C18.9661889,11.7515507 19.084403,11.4862699 18.931415,11.3840719 C18.7784207,11.2818708 18.4883122,11.2852843 18.3102948,11.3498858 C18.1322715,11.4144905 18.0246512,11.741559 17.8481396,11.7821032 C17.7163352,11.8034647 17.3459048,11.9310694 17.3330336,11.9053724 C17.3330336,11.9053724 17.3459048,11.9310694 17.3330336,11.9053724 L17.3330336,11.9053915 L17.3330336,11.9053915 L17.3330336,11.9053915 L17.3330336,11.9053915 Z M17.3330336,11.9053915" id="path809-2"/><path d="M17.6895581,13.3192572 C17.1582951,13.6577942 16.630889,13.9098515 16.3063194,13.9803331 C15.9817497,14.0508148 15.9094183,13.928993 16.1166144,13.6608286 C16.3238103,13.3926642 16.778997,13.0189737 17.3104419,12.6807428 C17.8417049,12.3422058 18.369111,12.0901485 18.6936806,12.0196669 C19.0182503,11.9491852 19.0905817,12.071007 18.8833856,12.3391714 C18.6761897,12.6073358 18.221003,12.9810263 17.6895581,13.3192572 C17.6895581,13.3192572 18.221003,12.9810263 17.6895581,13.3192572 L17.6895581,13.3192572 L17.6895581,13.3192572 L17.6895581,13.3192572 L17.6895581,13.3192572 Z M17.6895581,13.3192572" id="path811-2"/><path d="M17.2137916,12.803505 C16.8649875,13.3282341 16.5017344,13.7553992 16.2610203,13.9239099 C16.0203063,14.0924208 15.9387507,13.976642 16.0471094,13.6202355 C16.1554681,13.2638292 16.4372566,12.7210145 16.7862084,12.196495 C17.1350125,11.6717659 17.4982656,11.2446008 17.7389797,11.0760901 C17.9796937,10.9075792 18.0612493,11.023358 17.9528906,11.3797645 C17.8445319,11.7361708 17.5627434,12.2789855 17.2137916,12.803505 C17.2137916,12.803505 17.5627434,12.2789855 17.2137916,12.803505 L17.2137916,12.803505 L17.2137916,12.803505 L17.2137916,12.803505 L17.2137916,12.803505 Z M17.2137916,12.803505" id="path812-1"/><path d="M16.9721739,12.3744403 C17.03097,12.9081187 16.9951632,13.4255794 16.878265,13.7315595 C16.7613669,14.0375394 16.5811741,14.085456 16.4056822,13.857228 C16.2301902,13.6289999 16.0861162,13.1593728 16.0278261,12.6255597 C15.96903,12.0918813 16.0048368,11.5744206 16.121735,11.2684405 C16.2386331,10.9624606 16.4188259,10.914544 16.5943178,11.142772 C16.7698098,11.3710001 16.9138838,11.8406272 16.9721739,12.3744403 C16.9721739,12.3744403 16.9138838,11.8406272 16.9721739,12.3744403 L16.9721739,12.3744403 L16.9721739,12.3744403 L16.9721739,12.3744403 L16.9721739,12.3744403 Z M16.9721739,12.3744403" id="path813-6"/><path d="M16.8586054,13.0188109 C16.6661814,14.123331 16.3496354,15.0102991 16.1515802,14.9999097 C15.9535249,14.9895202 15.9489599,14.0857076 16.1413839,12.9811875 C16.2658604,12.2666883 16.4492323,11.6100492 16.6224252,11.2586199 C16.795618,10.9071907 16.9323196,10.9143617 16.9810359,11.2774317 C17.0297522,11.6405017 16.983082,12.3043117 16.8586054,13.0188109 C16.8586054,13.0188109 16.983082,12.3043117 16.8586054,13.0188109 L16.8586054,13.0188109 L16.8586054,13.0188109 L16.8586054,13.0188109 L16.8586054,13.0188109 Z M16.8586054,13.0188109" id="path814-8"/><path d="M16.7144041,12.6190517 C16.5530944,13.1531976 16.363119,13.6241644 16.2160764,13.8544531 C16.0690338,14.0847419 15.9872768,14.0393448 16.0016182,13.7353714 C16.0159596,13.4313979 16.1242192,12.915057 16.2855959,12.3809483 C16.4469056,11.8468024 16.636881,11.3758356 16.7839236,11.1455469 C16.9309662,10.9152581 17.0127232,10.9606552 16.9983818,11.2646286 C16.9840404,11.5686021 16.8757808,12.084943 16.7144041,12.6190517 C16.7144041,12.6190517 16.8757808,12.084943 16.7144041,12.6190517 L16.7144041,12.6190517 L16.7144041,12.6190517 L16.7144041,12.6190517 L16.7144041,12.6190517 Z M16.7144041,12.6190517" id="path815-5"/><path d="M16.6247105,14.3895984 C16.6204634,14.4005387 16.2098531,14.0182754 16.1353434,13.9221357 C16.0608447,13.825996 16.1773901,13.5827001 15.9178085,13.3297447 C15.6582239,13.0767891 15.3117457,12.9905532 15.1290112,13.000807 C14.9462792,13.0110635 14.9359224,13.2109484 15.2402041,13.5215899 C15.5444889,13.8322313 15.8483085,13.7978015 16.0184925,13.935385 C16.1886617,14.0729713 16.4524935,14.3149865 16.5716977,14.4688121 C16.75019,14.4694633 17.1625419,14.5587193 17.3942181,14.5952139 C17.6258789,14.6317113 18.1108724,14.9950841 18.5337363,14.9994418 C18.8864921,15.0117496 19.1178407,14.8181895 18.9370025,14.6504389 C18.7561513,14.4826774 18.3607383,14.3497093 18.1014689,14.3268086 C17.8421923,14.3038861 17.6087977,14.5604423 17.3579785,14.5156529 C17.1730539,14.4738617 16.6353746,14.4197628 16.6247105,14.3895984 C16.6247105,14.3895984 16.6353746,14.4197628 16.6247105,14.3895984 L16.6247105,14.3895984 L16.6247105,14.3895984 L16.6247105,14.3895984 L16.6247105,14.3895984 Z M16.6247105,14.3895984" id="path816-7"/><path d="M15.4636624,16.9137116 C14.9280105,17.0140464 14.4398554,17.0278736 14.1831957,16.9499814 C13.9265359,16.8720892 13.9403932,16.7143202 14.2195445,16.5361415 C14.4986958,16.3579629 15.0006996,16.1864644 15.5363376,16.0862884 C16.0719895,15.9859536 16.5601446,15.9721264 16.8168043,16.0500186 C17.0734641,16.1279108 17.0596068,16.2856798 16.7804555,16.4638585 C16.5013042,16.6420371 15.9993004,16.8135356 15.4636624,16.9137116 C15.4636624,16.9137116 15.9993004,16.8135356 15.4636624,16.9137116 L15.4636624,16.9137116 L15.4636624,16.9137116 L15.4636624,16.9137116 L15.4636624,16.9137116 Z M15.4636624,16.9137116" id="path818-6"/><path d="M15.5603393,15.5100427 C15.0248752,15.8173443 14.5185853,16.004089 14.2321842,15.999932 C13.9457832,15.995775 13.9227819,15.8013478 14.1718449,15.4898893 C14.4209079,15.1784307 14.9041966,14.7972588 15.4396607,14.4899573 C15.9751248,14.1826557 16.4814147,13.995911 16.7678158,14.000068 C17.0542168,14.004225 17.0772181,14.1986522 16.8281551,14.5101107 C16.5790921,14.8215693 16.0958034,15.2027412 15.5603393,15.5100427 C15.5603393,15.5100427 16.0958034,15.2027412 15.5603393,15.5100427 L15.5603393,15.5100427 L15.5603393,15.5100427 L15.5603393,15.5100427 L15.5603393,15.5100427 Z M15.5603393,15.5100427" id="path819-1"/><path d="M15.4808434,13.5735107 C14.9969401,14.4003982 14.389563,15.038057 14.123781,14.9982316 C13.857999,14.9584061 14.0343222,14.2561572 14.5177399,13.429197 C14.8308491,12.8935757 15.2121905,12.4122014 15.5179637,12.1665963 C15.8237367,11.9209912 16.0074282,11.948516 15.9997695,12.2387912 C15.9921109,12.5290666 15.7942671,13.0379366 15.4808434,13.5735107 C15.4808434,13.5735107 15.7942671,13.0379366 15.4808434,13.5735107 L15.4808434,13.5735107 L15.4808434,13.5735107 L15.4808434,13.5735107 L15.4808434,13.5735107 Z M15.4808434,13.5735107" id="path820-8"/><path d="M15.2525387,14.7264928 C14.9069127,15.2562111 14.5393865,15.7025401 14.2884035,15.8973519 C14.0374205,16.0921636 13.941111,16.0058616 14.035754,15.670955 C14.1303969,15.3360483 14.4016137,14.8034174 14.7472397,14.273699 C15.2815311,13.4548253 15.8277749,12.8923584 15.9673094,13.017394 C16.1068438,13.1424295 15.7868301,13.9076191 15.2525387,14.7264928 C15.2525387,14.7264928 15.7868301,13.9076191 15.2525387,14.7264928 L15.2525387,14.7264928 L15.2525387,14.7264928 L15.2525387,14.7264928 L15.2525387,14.7264928 Z M15.2525387,14.7264928" id="path821-9"/><path d="M15.7261748,15.8795462 C15.1963163,16.3980774 14.6635796,16.8048538 14.3287296,16.9465796 C13.9938796,17.0883054 13.9078147,16.9434376 14.1029688,16.5665706 C14.298123,16.1897035 14.7448321,15.6381223 15.2747514,15.1196935 C16.0935118,14.3186864 16.8580876,13.8395134 16.9827116,14.0492851 C17.1073355,14.2590568 16.5448414,15.0783811 15.7261748,15.8795462 C15.7261748,15.8795462 16.5448414,15.0783811 15.7261748,15.8795462 L15.7261748,15.8795462 L15.7261748,15.8795462 L15.7261748,15.8795462 L15.7261748,15.8795462 Z M15.7261748,15.8795462" id="path822-2"/><path d="M13.6172731,16.1792319 C13.6108753,16.1867796 13.4814575,15.5947467 13.4670982,15.4627236 C13.4527389,15.3306977 13.6093351,15.1755913 13.5313765,14.7909375 C13.4534159,14.4062783 13.2637038,14.1237821 13.1446629,14.0259905 C13.0256185,13.9281964 12.9509685,14.1057281 13.0375388,14.5696033 C13.1241088,15.0334731 13.3279568,15.1801015 13.3886924,15.4063286 C13.4494199,15.632553 13.5337951,16.0096541 13.5567606,16.2208907 C13.6693956,16.3262508 13.8997431,16.6501332 14.0338071,16.8195853 C14.1678606,16.989027 14.3507349,17.6073584 14.6166436,17.8594651 C14.8355092,18.0777408 15.0477499,18.0356734 14.9905516,17.7754823 C14.9333513,17.5152749 14.7286201,17.1611391 14.5724791,16.9879891 C14.4163296,16.8148235 14.1813415,16.9135402 14.0379976,16.7252399 C13.9353027,16.5783521 13.6137391,16.2131963 13.6172731,16.1792319 C13.6172731,16.1792319 13.6137391,16.2131963 13.6172731,16.1792319 L13.6172731,16.1792319 L13.6172731,16.1792319 L13.6172731,16.1792319 L13.6172731,16.1792319 Z M13.6172731,16.1792319" id="path823-7"/><path d="M12.9983779,17.9993839 C11.8931978,18.0129472 10.999106,17.8009225 11.0000007,17.5254895 C11.0008953,17.2500563 11.8964387,17.0152233 13.0016221,17.0006161 C14.1068022,16.9870528 15.000894,17.1990775 14.9999993,17.4745105 C14.9991047,17.7499437 14.1035613,17.9847767 12.9983779,17.9993839 C12.9983779,17.9993839 14.1035613,17.9847767 12.9983779,17.9993839 L12.9983779,17.9993839 L12.9983779,17.9993839 L12.9983779,17.9993839 L12.9983779,17.9993839 Z M12.9983779,17.9993839" id="path832-9"/><path d="M12.3182025,15.8203205 C11.7949834,16.6290655 11.2284595,17.1415444 11.0524697,16.9653056 C10.87648,16.7890668 11.1575891,15.9907692 11.6805263,15.1817418 C12.0191799,14.6578164 12.3930595,14.2344305 12.6611966,14.0712184 C12.9293338,13.9080062 13.0509468,14.0297913 12.9801823,14.3906555 C12.9094179,14.7515197 12.6570387,15.296578 12.3182025,15.8203205 C12.3182025,15.8203205 12.6570387,15.296578 12.3182025,15.8203205 L12.3182025,15.8203205 L12.3182025,15.8203205 L12.3182025,15.8203205 L12.3182025,15.8203205 Z M12.3182025,15.8203205" id="path833-5"/><path d="M12.6628901,17.5519959 C11.8393397,18.0124226 11.0989416,18.1385611 11.0089977,17.8337624 C10.9190537,17.5289637 11.5136098,16.9086013 12.3371099,16.4480041 C13.1606603,15.9875774 13.9010584,15.8614389 13.9910023,16.1662376 C14.0809463,16.4710363 13.4863902,17.0913987 12.6628901,17.5519959 C12.6628901,17.5519959 13.4863902,17.0913987 12.6628901,17.5519959 L12.6628901,17.5519959 L12.6628901,17.5519959 L12.6628901,17.5519959 L12.6628901,17.5519959 Z M12.6628901,17.5519959" id="path831-4"/><path d="M14.2479542,1.4234137 C14.7829017,1.69627872 15.1055005,1.9517538 14.9684988,1.99403327 C14.8314971,2.03631274 14.2867748,1.84938624 13.7518273,1.57652122 C13.4057769,1.40000849 13.1332938,1.22231293 13.0370197,1.11037075 C12.9407456,0.998428559 13.0353069,0.969246429 13.2850832,1.03381698 C13.5348595,1.09838754 13.9019038,1.24690097 14.2479542,1.4234137 C14.2479542,1.4234137 13.9019038,1.24690097 14.2479542,1.4234137 L14.2479542,1.4234137 L14.2479542,1.4234137 L14.2479542,1.4234137 L14.2479542,1.4234137 Z M14.2479542,1.4234137" id="path839-3"/><path d="M12.9615805,2.07632783 C13.3185796,2.17114836 13.6557843,2.3395239 13.8461729,2.51802902 C14.0365615,2.69653414 14.0512094,2.85804965 13.8845989,2.94173422 C13.7179884,3.0254188 13.3954316,3.01855875 13.0384325,2.92373819 C12.4865598,2.77715833 12.0219747,2.46863263 12.0007526,2.23462673 C11.9795305,2.00062084 12.4097078,1.929748 12.9615805,2.07632783 C12.9615805,2.07632783 12.4097078,1.929748 12.9615805,2.07632783 L12.9615805,2.07632783 L12.9615805,2.07632783 L12.9615805,2.07632783 L12.9615805,2.07632783 Z M12.9615805,2.07632783" id="path840-1"/><path d="M13.1058379,1.3382844 C13.4610824,1.50728052 13.7691765,1.69427405 13.9140642,1.82882635 C14.0589519,1.96337864 14.0186212,2.02504799 13.8082644,1.99060416 C13.5979075,1.95616032 13.2494827,1.83083614 12.8942382,1.66184001 C12.3450779,1.40059466 11.9472637,1.11638309 12.0056953,1.02703568 C12.0641269,0.937688265 12.5566775,1.07703906 13.1058379,1.3382844 C13.1058379,1.3382844 12.5566775,1.07703906 13.1058379,1.3382844 L13.1058379,1.3382844 L13.1058379,1.3382844 L13.1058379,1.3382844 L13.1058379,1.3382844 Z M13.1058379,1.3382844" id="path841-2"/><path d="M5,16.5852557 C5,16.5852557 6.43506578,16.9525687 7.68262886,17.4937049 C8.9302024,18.0348408 10.8257298,19.8921219 11.3351971,19.9973543 C11.9066934,20.0283867 12.6992041,19.7955953 13,18.8108365 C12.1199004,19.0909851 11.5920997,19.516545 10.7519433,18.9656569 C10.4550906,18.831472 9.48301065,17.7751907 8.41741938,17.2098372 C7.35181286,16.6444787 5.20267192,16 5.20267192,16 L5,16.5852557 L5,16.5852557 L5,16.5852557 L5,16.5852557 Z M5,16.5852557" id="path673-3"/><path d="M6.3750954,2 C6.37004247,1.98589163 8,1 8,1 L6.20817233,1.53447302 L6,1.90218527 L6.3750954,2 L6.3750954,2 L6.3750954,2 L6.3750954,2 Z M6.3750954,2" id="path655-3"/><path d="M9,4 C8.14703438,3.83922468 6.8351985,3.54181598 6,3.47245922 C6.57730837,2.80945174 7.37277075,1.6882363 7.86299775,1 C7.53927472,1.65642891 7.03112445,2.5220179 6.8305452,3.15036006 C7.41851205,3.47943755 8.34272385,3.73711296 9,4 C9,4 8.34272385,3.73711296 9,4 L9,4 L9,4 L9,4 L9,4 Z M9,4" id="path656-4"/><path d="M6.4187006,2 C6.4109594,1.99002403 8,1 8,1 L6.16346093,1.67104355 L6,1.98117209 L6.4187006,2 L6.4187006,2 L6.4187006,2 L6.4187006,2 Z M6.4187006,2" id="path657-1"/><path d="M9,3 C8.14683983,2.83636517 6.83378985,2.53462339 6,2.4623479 C6.56338292,1.80232868 7.33587202,0.685521155 7.8119877,0 C7.50126368,0.654359827 7.0105056,1.51693258 6.82201598,2.14368897 C7.41409852,2.47443589 8.34003997,2.73509857 9,3 C9,3 8.34003997,2.73509857 9,3 L9,3 L9,3 L9,3 L9,3 Z M9,3" id="path658-1"/><path d="M6.35509001,3 C6.35126575,2.98253845 8,2 8,2 L6.22868425,2.42312815 L6,2.83778496 L6.35509001,3 L6.35509001,3 L6.35509001,3 L6.35509001,3 Z M6.35509001,3" id="path659-3"/><path d="M9,4 C8.14560022,3.92541083 6.82488472,3.75848621 6,3.77715566 C6.47554186,3.02398313 7.1031366,1.7699661 7.490277,1 C7.26151057,1.71872852 6.88047383,2.67531492 6.76823025,3.35139759 C7.3862382,3.63006147 8.32311878,3.79779324 9,4 C9,4 8.32311878,3.79779324 9,4 L9,4 L9,4 L9,4 L9,4 Z M9,4" id="path660-8"/><path d="M6.49160924,2.91796083 C6.47940475,2.90504709 8,1 8,1 L6.08869544,2.49131621 L6,3 L6.49160924,2.91796083 L6.49160924,2.91796083 L6.49160924,2.91796083 L6.49160924,2.91796083 Z M6.49160924,2.91796083" id="path661-7"/><path d="M8,3.99998564 C7.1446001,3.98268101 5.81770537,3.90252966 5,3.97973333 C5.40474261,3.16661574 5.91555759,1.82430401 6.23098131,1 C6.06827453,1.76014889 5.77566701,2.77722862 5.72487733,3.48505276 C6.36378479,3.73020245 7.30947395,3.83813732 8,4 C8,4 7.30947395,3.83813732 8,4 L8,3.99998564 L8,3.99998564 L8,3.99998564 L8,3.99998564 Z M8,3.99998564" id="path662-4"/><path d="M5.45307507,2 C5.44323157,1.99085142 7,1 7,1 L5.12820221,1.69775279 L5,1.99662056 L5.45307507,1.999995 L5.45307507,2 L5.45307507,2 L5.45307507,2 L5.45307507,2 Z M5.45307507,2" id="path663-2"/><path d="M8,2.94799527 C7.1466815,2.95135309 5.83267101,2.90336746 5,3 C5.55236997,2.17969399 6.30669525,0.829307415 6.77165765,0 C6.47120697,0.761676585 5.9942053,1.78260665 5.8152714,2.48942547 C6.41060647,2.7184289 7.33792213,2.80326205 8,2.94799527 C8,2.94799527 7.33792213,2.80326205 8,2.94799527 L8,2.94799527 L8,2.94799527 L8,2.94799527 L8,2.94799527 Z M8,2.94799527" id="path638-7"/><path d="M5.59379556,2.99308438 C5.5843126,2.97557038 8,1 8,1 L5.28030538,2.41428651 L5,3 L5.59379556,2.99307011 L5.59379556,2.99308438 L5.59379556,2.99308438 L5.59379556,2.99308438 L5.59379556,2.99308438 Z M5.59379556,2.99308438" id="path639-7"/><path d="M7,3.54412832 C6.14508272,3.66327958 4.82117678,3.79787495 4,4 C4.4389882,3.17045421 5.00628812,1.82593382 5.35640601,1 C5.16174382,1.74135803 4.82636195,2.74516376 4.74584494,3.41955005 C5.37464472,3.54918356 6.31607342,3.50107355 7,3.54412832 C7,3.54412832 6.31607342,3.50107355 7,3.54412832 L7,3.54412832 L7,3.54412832 L7,3.54412832 L7,3.54412832 Z M7,3.54412832" id="path640-9"/><path d="M4.47889959,3.81895488 C4.46747477,3.80312745 6,1 6,1 L4.1017253,3.29644293 L4,4 L4.47889959,3.81895488 L4.47889959,3.81895488 L4.47889959,3.81895488 L4.47889959,3.81895488 Z M4.47889959,3.81895488" id="path641-3"/><path d="M7,3.68297859 C6.14570616,3.76231419 4.82564138,3.83414262 4,4 C4.48302246,3.17362932 5.12295204,1.82709331 5.51766716,1 C5.28192142,1.74834406 4.89154361,2.75803643 4.7728104,3.44357199 C5.38861181,3.60736968 6.3245569,3.60496452 7,3.68297859 C7,3.68297859 6.3245569,3.60496452 7,3.68297859 L7,3.68297859 L7,3.68297859 L7,3.68297859 L7,3.68297859 Z M7,3.68297859" id="path642-1"/><path d="M4.59858566,3.99655639 C4.58879306,3.97880847 7,2 7,2 L4.27539856,3.41072946 L4,4 L4.59858566,3.99655367 L4.59858566,3.99655639 L4.59858566,3.99655639 L4.59858566,3.99655639 L4.59858566,3.99655639 Z M4.59858566,3.99655639" id="path643-9"/><path d="M7,3.35923709 C6.14452826,3.53139347 4.81719127,3.74957786 4,4 C4.3996844,3.16622128 4.90214994,1.82438897 5.21244804,1 C5.05446152,1.73205898 4.76817916,2.72802131 4.72177847,3.38755799 C5.3621819,3.4716993 6.30850097,3.36273117 7,3.35923421 C7,3.35923421 6.30850097,3.36273117 7,3.35923421 L7,3.35923709 L7,3.35923709 L7,3.35923709 L7,3.35923709 Z M7,3.35923709" id="path644-8"/><path d="M4.54641175,3.74428463 C4.53084469,3.73305272 6,1 6,1 L4.03252843,3.37300933 L4,4 L4.546395,3.74428463 L4.54641175,3.74428463 L4.54641175,3.74428463 L4.54641175,3.74428463 L4.54641175,3.74428463 Z M4.54641175,3.74428463" id="path645-6"/><path d="M7,3.25888036 C6.14326943,3.45981645 4.80813066,3.72336508 4,4 C4.31032691,3.163927 4.66539786,1.82355414 4.88518138,1 C4.81057049,1.72701198 4.63589684,2.71872265 4.66705832,3.3701964 C5.3338413,3.42964756 6.29128478,3.2876398 7,3.25888036 C7,3.25888036 6.29128478,3.2876398 7,3.25888036 L7,3.25888036 L7,3.25888036 L7,3.25888036 L7,3.25888036 Z M7,3.25888036" id="path622-5"/><path d="M4.49915098,4.82876727 C4.48647703,4.81234387 6,2 6,2 L4.08096017,4.28638384 L4,5 L4.49915098,4.82876727 L4.49915098,4.82876727 L4.49915098,4.82876727 L4.49915098,4.82876727 Z M4.49915098,4.82876727" id="path623-0"/><path d="M6,3.12420481 C5.14270327,3.36374969 3.80407138,3.68818718 3,4 C3.27029455,3.16084619 3.55932525,1.82242738 3.73855432,1 C3.70129938,1.72023725 3.57663249,2.70623454 3.64254653,3.34689237 C4.32114332,3.37320809 5.28356995,3.18686929 6,3.12420481 C6,3.12420481 5.28356995,3.18686929 6,3.12420481 L6,3.12420481 L6,3.12420481 L6,3.12420481 L6,3.12420481 Z M6,3.12420481" id="path624-2"/><path d="M4.59339513,4.74934337 C4.57543163,4.73779484 6,2 6,2 L4,4.36782538 L4.00906807,5 L4.59339513,4.74934337 L4.59339513,4.74934337 L4.59339513,4.74934337 L4.59339513,4.74934337 Z M4.59339513,4.74934337" id="path625-8"/><path d="M6,3.32969013 C5.14377756,3.51032282 3.81179568,3.74186267 3,4 C3.3464521,3.16554607 3.76111004,1.82414479 4.01748394,1 C3.9091667,1.73057274 3.6893735,2.72528369 3.68918222,3.38244788 C4.34529937,3.45932172 5.2982448,3.34062078 6,3.32969013 C6,3.32969013 5.2982448,3.34062078 6,3.32969013 L6,3.32969013 L6,3.32969013 L6,3.32969013 L6,3.32969013 Z M6,3.32969013" id="path626-6"/><path d="M3.64684352,4.95827075 C3.63407798,4.94288851 6,3 6,3 L3.22591567,4.44998582 L3,5 L3.64684352,4.95827075 L3.64684352,4.95827075 L3.64684352,4.95827075 L3.64684352,4.95827075 Z M3.64684352,4.95827075" id="path627-0"/><path d="M6,3.58720537 C5.14449365,3.6940048 3.81693842,3.80912903 3,4 C3.39718216,3.17143805 3.89552163,1.82629502 4.20328607,1 C4.04763448,1.74352358 3.76447254,2.74915769 3.72024463,3.42700205 C4.36138684,3.56723358 5.30801869,3.53330603 6,3.58720537 C6,3.58720537 5.30801869,3.53330603 6,3.58720537 L6,3.58720537 L6,3.58720537 L6,3.58720537 L6,3.58720537 Z M6,3.58720537" id="path628-2"/><path d="M3.54816053,4.77847105 C3.53247145,4.76513041 5,2 5,2 L3.03067665,4.33795878 L3,5 L3.54817687,4.77847105 L3.54816053,4.77847105 L3.54816053,4.77847105 L3.54816053,4.77847105 L3.54816053,4.77847105 Z M3.54816053,4.77847105" id="path629-4"/><path d="M6,3.59364237 C5.14260469,3.98145707 3.8033797,4.52191694 3,5 C3.2634382,3.87566579 3.54115967,2.09458067 3.71344387,1 C3.68258662,1.94831391 3.5664838,3.25285791 3.63834651,4.08789935 C4.31897213,4.06428489 5.28224999,3.7372753 6,3.59364237 C6,3.59364237 5.28224999,3.7372753 6,3.59364237 L6,3.59364237 L6,3.59364237 L6,3.59364237 L6,3.59364237 Z M6,3.59364237" id="path551-8"/><path d="M3.52567619,5.77150459 C3.51139171,5.75858908 5,3 5,3 L3.05376317,5.34510343 L3,6 L3.52567619,5.77150459 L3.52567619,5.77150459 L3.52567619,5.77150459 L3.52567619,5.77150459 Z M3.52567619,5.77150459" id="path553-6"/><path d="M6,4.41950974 C5.14202649,4.85725106 3.79920206,5.47643013 3,6 C3.2222375,4.87168128 3.43199885,3.09312727 3.56254566,2 C3.57014579,2.9395535 3.50549095,4.23671406 3.61311985,5.05777147 C4.30590633,4.99130486 5.27431226,4.60698025 6,4.41950974 C6,4.41950974 5.27431226,4.60698025 6,4.41950974 L6,4.41950974 L6,4.41950974 L6,4.41950974 L6,4.41950974 Z M6,4.41950974" id="path560-5"/><path d="M3.66364092,5.70364194 C3.64354555,5.69488715 5,3 5,3 L3,5.4146857 L3.05072599,6 L3.66364092,5.70364194 L3.66364092,5.70364194 L3.66364092,5.70364194 L3.66364092,5.70364194 Z M3.66364092,5.70364194" id="path561-0"/><path d="M5,5.39468032 C4.14193992,5.83954252 2.79859462,6.46994872 2,7 C2.21625892,5.87111639 2.41616163,4.09292252 2.54065341,3 C2.55381766,3.93830396 2.49664309,5.23441483 2.60945808,6.05347911 C3.30400751,5.98089895 4.27315949,5.58840352 5,5.39468032 C5,5.39468032 4.27315949,5.58840352 5,5.39468032 L5,5.39468032 L5,5.39468032 L5,5.39468032 L5,5.39468032 Z M5,5.39468032" id="path562-9"/><path d="M2.7311941,5.81308838 C2.71327143,5.79762358 5,3 5,3 L2.13941446,5.30246413 L2,6 L2.7311941,5.81308838 L2.7311941,5.81308838 L2.7311941,5.81308838 L2.7311941,5.81308838 Z M2.7311941,5.81308838" id="path563-0"/><path d="M5,4.62671579 C4.20653716,5.29176131 2.95126684,6.26934481 2.23574007,7 C2.23462332,5.85354675 2.08827304,4.08650797 2,3 C2.19910242,3.89967877 2.39671821,5.16321785 2.67460594,5.92060315 C3.37372872,5.65907083 4.29166249,5.01378154 5,4.62671579 C5,4.62671579 4.29166249,5.01378154 5,4.62671579 L5,4.62671579 L5,4.62671579 L5,4.62671579 L5,4.62671579 Z M5,4.62671579" id="path564-0"/><path d="M2.75954788,6.46212933 C2.73653867,6.45935353 3,3 3,3 L2,6.36594353 L2.27903401,7 L2.75954788,6.46212933 L2.75954788,6.46212933 L2.75954788,6.46212933 L2.75954788,6.46212933 Z M2.75954788,6.46212933" id="path565-6"/><path d="M5,4.64325103 C4.20219116,5.30355482 2.94032863,6.27366687 2.22035988,7 C2.22377496,5.85392511 2.08414827,4.08664813 2,3 C2.19595767,3.90050655 2.38898031,5.16475301 2.6644572,5.923465 C3.36612553,5.66600126 4.28859959,5.0261562 5,4.64325103 C5,4.64325103 4.28859959,5.0261562 5,4.64325103 L5,4.64325103 L5,4.64325103 L5,4.64325103 L5,4.64325103 Z M5,4.64325103" id="path566-1"/><path d="M2.42209649,7.5557492 C2.40931691,7.54709333 3,4 3,4 L2,7.26994073 L2.07890463,8 L2.42209649,7.5557492 L2.42209649,7.5557492 L2.42209649,7.5557492 L2.42209649,7.5557492 Z M2.42209649,7.5557492" id="path567-3"/><path d="M4,5.28426981 C3.30899874,6.04750255 2.20884275,7.1798958 1.59796027,8 C1.48965153,6.84571007 1.18543213,5.08364998 1,4 C1.27316229,4.8824501 1.57895118,6.13147187 1.91359034,6.861353 C2.55279123,6.51556578 3.36380073,5.75755121 4,5.28426981 C4,5.28426981 3.36380073,5.75755121 4,5.28426981 L4,5.28426981 L4,5.28426981 L4,5.28426981 L4,5.28426981 Z M4,5.28426981" id="path568-8"/><path d="M2.81269608,7.4631642 C2.78809017,7.4601954 3,4 3,4 L2,7.36488253 L2.31055569,8 L2.81269608,7.4631642 L2.81269608,7.4631642 L2.81269608,7.4631642 L2.81269608,7.4631642 Z M2.81269608,7.4631642" id="path569-9"/><path d="M4,5.60013727 C3.22851773,6.27280165 2.00651869,7.26240387 1.31344244,8 C1.28932649,6.85293687 1.10911725,5.08628803 1,4 C1.21498914,4.89833871 1.43581107,6.16075399 1.72586884,6.91600313 C2.41214012,6.64793407 3.30713774,5.99389637 4,5.60013727 C4,5.60013727 3.30713774,5.99389637 4,5.60013727 L4,5.60013727 L4,5.60013727 L4,5.60013727 L4,5.60013727 Z M4,5.60013727" id="path570-3"/><path d="M2.66630436,7.61825013 C2.64610715,7.60575193 4,4 4,4 L2,7.20584567 L2.05230984,8 L2.66630436,7.61825013 L2.66630436,7.61825013 L2.66630436,7.61825013 L2.66630436,7.61825013 Z M2.66630436,7.61825013" id="path571-4"/><path d="M4,5.27513105 C3.30967809,6.04098047 2.21055084,7.1775104 1.60036147,8 C1.49134191,6.84550053 1.1860785,5.08357666 1,4 C1.27365266,4.88199193 1.58016124,6.1306252 1.9151754,6.8597688 C2.55397871,6.5117358 3.36427936,5.75071151 4,5.27513105 C4,5.27513105 3.36427936,5.75071151 4,5.27513105 L4,5.27513105 L4,5.27513105 L4,5.27513105 L4,5.27513105 Z M4,5.27513105" id="path572-4"/><path d="M3,7.42141893 C2.96973085,7.42112393 2.79634825,4 2.79634825,4 L2,7.407684 L2.45654843,8 L3,7.42141893 L3,7.42141893 L3,7.42141893 L3,7.42141893 Z M3,7.42141893" id="path573-6"/><path d="M4,5.25057659 C3.33908435,6.0234668 2.28447602,7.171097 1.70432043,8 C1.5645381,6.84494173 1.21396439,5.08337076 1,4 C1.29490982,4.88075695 1.63246124,6.1283506 1.98376922,6.85552313 C2.60536802,6.5014466 3.38498163,5.73233897 4,5.25057659 C4,5.25057659 3.38498163,5.73233897 4,5.25057659 L4,5.25057659 L4,5.25057659 L4,5.25057659 L4,5.25057659 Z M4,5.25057659" id="path574-0"/><path d="M1.62509342,7.50839647 C1.60616561,7.50265033 2,4 2,4 L1,7.3184966 L1.19929525,8 L1.62509342,7.50839647 L1.62509342,7.50839647 L1.62509342,7.50839647 L1.62509342,7.50839647 Z M1.62509342,7.50839647" id="path575-6"/><path d="M4,5.9565876 C3.41212517,6.81376753 2.46809459,8.0943034 1.96253201,9 C1.74634029,7.83821173 1.28322473,6.0809169 1,5 C1.34770254,5.86596977 1.76236856,7.1010948 2.1541307,7.8046552 C2.73301346,7.3782444 3.43640786,6.51236693 4,5.9565876 C4,5.9565876 3.43640786,6.51236693 4,5.9565876 L4,5.9565876 L4,5.9565876 L4,5.9565876 L4,5.9565876 Z M4,5.9565876" id="path576-6"/><path d="M2,8.42804293 C1.96972939,8.42717127 1.66518546,5 1.66518546,5 L1,8.40089293 L1.47903791,9 L2,8.42804293 L2,8.42804293 L2,8.42804293 L2,8.42804293 Z M2,8.42804293" id="path577-1"/><path d="M4,5.79331352 C3.45855909,6.69730713 2.5848322,8.05165053 2.12669633,9 C1.86192369,7.83447787 1.32725816,6.07955033 1,5 C1.38126832,5.85775135 1.84495982,7.0859568 2.26244566,7.77640387 C2.81416895,7.3098226 3.46910247,6.3901978 4,5.79331352 C4,5.79331352 3.46910247,6.3901978 4,5.79331352 L4,5.79331352 L4,5.79331352 L4,5.79331352 L4,5.79331352 Z M4,5.79331352" id="path578-8"/><path d="M2.64457676,8.5189456 C2.62503594,8.51253207 3,5 3,5 L2,8.30768407 L2.21084785,9 L2.64457676,8.5189456 L2.64457676,8.5189456 L2.64457676,8.5189456 L2.64457676,8.5189456 Z M2.64457676,8.5189456" id="path579-4"/><path d="M4,6.3274776 C3.53974275,7.3650322 2.78892869,8.9299704 2.4137095,10 C2.06400515,8.8238192 1.40424566,7.07566353 1,6 C1.43995239,6.83432513 1.98935878,8.0427728 2.45181105,8.69580553 C2.95605171,8.1146086 3.52625877,7.0416438 4,6.3274776 C4,6.3274776 3.52625877,7.0416438 4,6.3274776 L4,6.3274776 L4,6.3274776 L4,6.3274776 L4,6.3274776 Z M4,6.3274776" id="path580-9"/><path d="M2,9.32587187 C1.97995217,9.33131693 1,6 1,6 L1.33796212,9.5056632 L1.7885288,10 L2,9.32587187 L2,9.32587187 L2,9.32587187 L2,9.32587187 Z M2,9.32587187" id="path581-6"/><path d="M4,6.32749647 C3.53297483,7.365045 2.77191153,8.9299784 2.38977738,10 C2.04715485,8.8238198 1.3978274,7.07566487 1,6 C1.43506029,6.83432407 1.97731657,8.04277353 2.43602191,8.69580973 C2.94421818,8.11461587 3.52149185,7.04165793 4,6.32749647 C4,6.32749647 3.52149185,7.04165793 4,6.32749647 L4,6.32749647 L4,6.32749647 L4,6.32749647 L4,6.32749647 Z M4,6.32749647" id="path582-3"/><path d="M3,9.41445807 C2.96970428,9.41446773 2.47372076,6 2.47372076,6 L2,9.414824 L2.51185339,10 L3,9.41445807 L3,9.41445807 L3,9.41445807 L3,9.41445807 Z M3,9.41445807" id="path583-7"/><path d="M4,6.4122268 C3.51896558,7.42548373 2.73669273,8.95211267 2.34025179,10 C2.01228584,8.82575893 1.38454095,7.07637513 1,6 C1.42493325,6.83858653 1.95239933,8.05063007 2.40334558,8.710468 C2.91973743,8.15012413 3.51162904,7.1050568 4,6.4122268 C4,6.4122268 3.51162904,7.1050568 4,6.4122268 L4,6.4122268 L4,6.4122268 L4,6.4122268 L4,6.4122268 Z M4,6.4122268" id="path584-8"/><path d="M3,9.37437647 C2.96969526,9.3767026 2.04657977,6 2.04657977,6 L2,9.4559242 L2.58508327,10 L3,9.37437647 L3,9.37437647 L3,9.37437647 L3,9.37437647 Z M3,9.37437647" id="path585-8"/><path d="M3,7.65244927 C2.47736657,8.59682847 1.63211755,10.0148575 1.19319096,11 C0.908742168,9.8312548 0.345093511,8.07837933 0,7 C0.394864657,7.8506704 0.878412582,9.07289987 1.30631698,9.75203047 C1.84703984,9.25079273 2.48234287,8.28479627 3,7.65244927 C3,7.65244927 2.48234287,8.28479627 3,7.65244927 L3,7.65244927 L3,7.65244927 L3,7.65244927 L3,7.65244927 Z M3,7.65244927" id="path586-2"/><path d="M1.69642115,10.5042339 C1.67532308,10.4987393 2,7 2,7 L1,10.3227663 L1.24159568,11 L1.69642115,10.5042339 L1.69642115,10.5042339 L1.69642115,10.5042339 L1.69642115,10.5042339 Z M1.69642115,10.5042339" id="path587-9"/><path d="M3,8.1704114 C2.55808982,9.253002 1.83505588,10.8889466 1.47857741,12 C1.10967607,10.8202252 0.421641611,9.07435693 0,8 C0.453215675,8.82642547 1.02199108,10.0282143 1.49461119,10.6686339 C1.98811611,10.0487879 2.53917739,8.9241196 3,8.1704114 C3,8.1704114 2.53917739,8.9241196 3,8.1704114 L3,8.1704114 L3,8.1704114 L3,8.1704114 L3,8.1704114 Z M3,8.1704114" id="path588-1"/><path d="M2,11.3110085 C1.9813752,11.3173575 1,8 1,8 L1.38490888,11.5209047 L1.81568106,12 L2,11.3110085 L2,11.3110085 L2,11.3110085 L2,11.3110085 Z M2,11.3110085" id="path589-3"/><path d="M3,8 C2.68861477,9.13393713 2.16319493,10.8623192 1.94002358,12 C1.43457259,10.9927291 0.545419534,9.54031207 0,8.64607287 C0.547564124,9.29932947 1.2541491,10.27355 1.79906577,10.7471598 C2.21623076,10.0333176 2.63107758,8.83059993 3,8 C3,8 2.63107758,8.83059993 3,8 L3,8 L3,8 L3,8 L3,8 Z M3,8" id="path590-5"/><path d="M3,11.2967797 C2.9829511,11.3040065 2,8 2,8 L2.43701719,11.5354987 L2.84581874,12 L3,11.2967797 L3,11.2967797 L3,11.2967797 L3,11.2967797 Z M3,11.2967797" id="path591-9"/><path d="M3,8 C2.6949475,9.13407373 2.17911442,10.8633154 1.96240735,12 C1.45033441,11.0025665 0.551423712,9.5663722 0,8.6820958 C0.552141565,9.32617333 1.26540986,10.2881119 1.81383632,10.7531844 C2.22729578,10.036439 2.6355348,8.83249587 3,8 C3,8 2.6355348,8.83249587 3,8 L3,8 L3,8 L3,8 L3,8 Z M3,8" id="path592-8"/><path d="M2,11.2381509 C1.98734103,11.2489803 1,8 1,8 L1.58233859,11.5956145 L1.92986588,12 L2,11.2381509 L2,11.2381509 L2,11.2381509 L2,11.2381509 Z M2,11.2381509" id="path593-4"/><path d="M3,8 C2.79903428,9.135896 2.44078204,10.8764218 2.33038091,12 C1.70941849,11.1318182 0.650126202,9.908822 0,9.15546927 C0.627377286,9.67895147 1.45053808,10.4794471 2.05661821,10.8323312 C2.40920165,10.0774295 2.70881861,8.85739627 3,8 C3,8 2.70881861,8.85739627 3,8 L3,8 L3,8 L3,8 L3,8 Z M3,8" id="path594-0"/><path d="M3,11.3514167 C2.97469589,11.3552859 2,8 2,8 L2.16489371,11.4794679 L2.68842823,12 L3,11.3514167 L3,11.3514167 L3,11.3514167 L3,11.3514167 Z M3,11.3514167" id="path595-7"/><path d="M3,9 C2.88932028,10.137518 2.6677567,11.8880511 2.64956753,13 C1.9341503,12.2465547 0.735739854,11.2128279 0,10.5757066 C0.692638074,10.9921265 1.61112119,11.6493007 2.26721436,11.9025904 C2.56699049,11.1138177 2.77238226,9.8795064 3,9 C3,9 2.77238226,9.8795064 3,9 L3,9 L3,9 L3,9 L3,9 Z M3,9" id="path596-6"/><path d="M2.94386451,11.3191975 C2.92934443,11.3340323 1,9 1,9 L2.46476139,11.8089067 L3,12 L2.94386451,11.3191975 L2.94386451,11.3191975 L2.94386451,11.3191975 L2.94386451,11.3191975 Z M2.94386451,11.3191975" id="path597-3"/><path d="M3,9 C2.88534883,10.1374525 2.65777616,11.8875695 2.63553278,13 C1.92426704,12.2417984 0.73197864,11.2002198 0,10.5582791 C0.689768718,10.9791365 1.6040609,11.6422563 2.25795116,11.8996773 C2.56005031,11.1123105 2.76958703,9.87859147 3,9 C3,9 2.76958703,9.87859147 3,9 L3,9 L3,9 L3,9 L3,9 Z M3,9" id="path598-6"/><path d="M2,12.2199115 C1.98874356,12.2318525 1,9 1,9 L1.62822076,12.6143217 L1.95640463,13 L2,12.2199115 L2,12.2199115 L2,12.2199115 L2,12.2199115 Z M2,12.2199115" id="path599-1"/><path d="M4,9 C3.92848591,10.1381607 3.76622052,11.8926805 3.78803217,13 C3.03164204,12.2922111 1.77288266,11.3337932 1,10.7429192 C1.72095069,11.1167386 2.68078394,11.716887 3.35857146,11.9305451 C3.63543935,11.128297 3.79995911,9.8883056 4,9 C4,9 3.79995911,9.8883056 4,9 L4,9 L4,9 L4,9 L4,9 Z M4,9" id="path600-5"/><path d="M2.97078775,13.3446765 C2.95461409,13.3579387 1,11 1,11 L2.43715052,13.7827816 L3,14 L2.97078775,13.3446765 L2.97078775,13.3446765 L2.97078775,13.3446765 L2.97078775,13.3446765 Z M2.97078775,13.3446765" id="path601-4"/><path d="M4,10 C3.93483848,11.1382643 3.78219471,12.8934105 3.81049359,14 C3.04745712,13.2994033 1.77890628,12.3528502 1,11.7692558 C1.72554126,12.1363684 2.69208408,12.7275347 3.3733913,12.9349518 C3.64654016,12.1305783 3.80443177,10.8896892 4,10 C4,10 3.80443177,10.8896892 4,10 L4,10 L4,10 L4,10 L4,10 Z M4,10" id="path602-2"/><path d="M3,14.2620183 C2.98646564,14.2713812 2,11 2,11 L2.55340795,14.5711433 L2.9131338,15 L3,14.2620183 L3,14.2620183 L3,14.2620183 L3,14.2620183 Z M3,14.2620183" id="path603-0"/><path d="M3.82861484,11 C3.86620034,12.1398289 3.87218529,13.9046613 4,15 C3.17696204,14.4103766 1.82830842,13.6468768 1,13.175697 C1.75566813,13.4392602 2.77153971,13.8918114 3.46877034,14.0029021 C3.66840343,13.1657727 3.71393549,11.9110734 3.82861484,11 C3.82861484,11 3.71393549,11.9110734 3.82861484,11 L3.82861484,11 L3.82861484,11 L3.82861484,11 L3.82861484,11 Z M3.82861484,11" id="path604-9"/><path d="M3.7691115,13.1704527 C3.7563465,13.1944104 1,11 1,11 L3.34755617,13.9614384 L4,14 L3.7691115,13.1704527 L3.7691115,13.1704527 L3.7691115,13.1704527 L3.7691115,13.1704527 Z M3.7691115,13.1704527" id="path605-7"/><path d="M3.63714581,11 C3.72962422,12.1402679 3.82217095,13.9078235 4,15 C3.1725816,14.4416001 1.82671283,13.7296103 1,13.2900639 C1.7460386,13.5244937 2.75378851,13.9380373 3.43564238,14.0220249 C3.58816518,13.1756737 3.5706746,11.9170875 3.63714581,11 C3.63714581,11 3.5706746,11.9170875 3.63714581,11 L3.63714581,11 L3.63714581,11 L3.63714581,11 L3.63714581,11 Z M3.63714581,11" id="path606-3"/><path d="M3.93962236,13.3300887 C3.9253678,13.344266 2,11 2,11 L3.46910921,13.7977453 L4,14 L3.93962236,13.3300887 L3.93962236,13.3300887 L3.93962236,13.3300887 L3.93962236,13.3300887 Z M3.93962236,13.3300887" id="path607-7"/><path d="M3.49007175,11 C3.62471831,12.140979 3.78375515,13.9129263 4,15 C3.16921622,14.4919108 1.82548074,13.8629019 1,13.4743131 C1.73863915,13.6617994 2.7401533,14.0125109 3.41019786,14.0528285 C3.52652971,13.1916301 3.46062704,11.9267817 3.49007175,11 C3.49007175,11 3.46062704,11.9267817 3.49007175,11 L3.49007175,11 L3.49007175,11 L3.49007175,11 L3.49007175,11 Z M3.49007175,11" id="path608-2"/><path d="M4.77544205,15.1819475 C4.7622951,15.205215 2,13 2,13 L4.34106383,15.949643 L5,16 L4.77544205,15.1819475 L4.77544205,15.1819475 L4.77544205,15.1819475 L4.77544205,15.1819475 Z M4.77544205,15.1819475" id="path609-6"/><path d="M3.26863367,11 C3.46676897,12.1421129 3.72591419,13.9210805 4,15 C3.16414948,14.5723457 1.82363559,14.0760147 1,13.7689059 C1.72750188,13.8813425 2.71962534,14.1315815 3.37188431,14.1020835 C3.43373292,13.2171376 3.29493615,11.9422788 3.26863367,11 C3.26863367,11 3.29493615,11.9422788 3.26863367,11 L3.26863367,11 L3.26863367,11 L3.26863367,11 L3.26863367,11 Z M3.26863367,11" id="path610-0"/><path d="M4.94724412,14.3377625 C4.93252764,14.3514633 3,12 3,12 L4.46129153,14.7898754 L5,15 L4.94724412,14.3377625 L4.94724412,14.3377625 L4.94724412,14.3377625 L4.94724412,14.3377625 Z M4.94724412,14.3377625" id="path611-1"/><path d="M3.9697914,12 C4.25361201,13.1437853 4.64785137,14.9331002 5,16 C4.15731132,15.6908912 2.82113932,15.3901057 2,15.2030841 C2.71246815,15.2048634 3.69192042,15.3070717 4.32017485,15.1746746 C4.30849509,14.2547375 4.07133046,12.9651239 3.9697914,12.0000025 C3.9697914,12.0000025 4.07133046,12.9651239 3.9697914,12.0000025 L3.9697914,12 L3.9697914,12 L3.9697914,12 L3.9697914,12 Z M3.9697914,12" id="path612-6"/><path d="M4.62449795,14.4531035 C4.62058992,14.4696694 2,14 2,14 L4.49584196,15 L5,14.8470822 L4.62449795,14.4531035 L4.62449795,14.4531035 L4.62449795,14.4531035 L4.62449795,14.4531035 Z M4.62449795,14.4531035" id="path613-5"/><path d="M3.98217053,12 C4.26244195,13.1437127 4.65108774,14.9325802 5,16 C4.15759741,15.685738 2.82124564,15.3764481 2,15.1842045 C2.71309238,15.1908371 3.69306867,15.2994396 4.32231692,15.1715313 C4.31368117,14.2531146 4.08059574,12.9641421 3.98217053,12.0000123 C3.98217053,12.0000123 4.08059574,12.9641421 3.98217053,12.0000123 L3.98217053,12 L3.98217053,12 L3.98217053,12 L3.98217053,12 Z M3.98217053,12" id="path614-7"/><path d="M5.6983292,15.3284954 C5.68990321,15.3488427 3,14 3,14 L5.42013685,16 L6,15.9446085 L5.6983292,15.3284954 L5.6983292,15.3284954 L5.6983292,15.3284954 L5.6983292,15.3284954 Z M5.6983292,15.3284954" id="path615-5"/><path d="M4.33909154,13.0000055 C4.80373938,14.1430377 5.48310965,15.9455561 6,16.9864905 C5.14288243,16.8989711 3.81587608,16.9630113 3,17 C3.6807463,16.7960369 4.6334497,16.6223811 5.21105113,16.2989949 C5.04419624,15.3170617 4.59941654,14.0043543 4.33909154,13 C4.33909154,13 4.59941654,14.0043543 4.33909154,13 L4.33909154,13.0000055 L4.33909154,13.0000055 L4.33909154,13.0000055 L4.33909154,13.0000055 Z M4.33909154,13.0000055" id="path616-4"/><path d="M5.64116545,14.5197219 C5.63623393,14.5342639 3,14 3,14 L5.47875535,15 L6,14.8865893 L5.64116545,14.5197219 L5.64116545,14.5197219 L5.64116545,14.5197219 L5.64116545,14.5197219 Z M5.64116545,14.5197219" id="path617-1"/><path d="M4.32035378,13 C4.79037436,14.1335278 5.47821353,15.9216642 6,16.9528904 C5.14245465,16.875313 3.81571854,16.9538603 3,17 C3.67980104,16.7891655 4.63171432,16.6054772 5.20780928,16.2768285 C5.03634196,15.3004546 4.58539752,13.9976629 4.32035378,13 C4.32035378,13 4.58539752,13.9976629 4.32035378,13 L4.32035378,13 L4.32035378,13 L4.32035378,13 L4.32035378,13 Z M4.32035378,13" id="path618-2"/><path d="M5.73127148,16.140616 C5.72082393,16.1664188 3,14 3,14 L5.38635328,16.9920253 L6,17 L5.73127148,16.1406225 L5.73127148,16.140616 L5.73127148,16.140616 L5.73127148,16.140616 L5.73127148,16.140616 Z M5.73127148,16.140616" id="path619-0"/><path d="M4.02443021,13 C4.57929771,13.9957135 5.40091652,15.5751937 6,16.4656656 C5.13568413,16.5322666 3.81324965,16.8232865 3,17 C3.66491667,16.689547 4.60428075,16.3603531 5.15660876,15.955364 C4.91233418,15.0595976 4.3639782,13.9006297 4.02443021,13 C4.02443021,13 4.3639782,13.9006297 4.02443021,13 L4.02443021,13 L4.02443021,13 L4.02443021,13 L4.02443021,13 Z M4.02443021,13" id="path620-0"/><path d="M5.57453032,16.0805986 C5.57376361,16.108439 3,16 3,16 L5.54708642,17 L6,16.6261604 L5.57453032,16.0805986 L5.57453032,16.0805986 L5.57453032,16.0805986 L5.57453032,16.0805986 Z M5.57453032,16.0805986" id="path621-1"/><path d="M8.43257428,2 C8.43292828,1.97395194 11,1 11,1 L8.44562697,1.13910991 L8,1.67352142 L8.43257428,2 L8.43257428,2 L8.43257428,2 L8.43257428,2 Z M8.43257428,2" id="path664-4"/><path d="M8.91292807,3 C8.37217027,2.77663858 7.55504107,2.40247831 7,2.23758765 C7.58984767,1.91712163 8.462808,1.34865795 9,1 C8.58669473,1.35364022 7.98572,1.80804603 7.66536167,2.16258487 C7.97482607,2.44991894 8.536546,2.74294335 8.91292807,3 C8.91292807,3 8.536546,2.74294335 8.91292807,3 L8.91292807,3 L8.91292807,3 L8.91292807,3 L8.91292807,3 Z M8.91292807,3" id="path665-6"/><path d="M7.48375338,2 C7.48088298,1.9842705 10,1 10,1 L7.39314955,1.48072799 L7,1.87110446 L7.48375338,2 L7.48375338,2 L7.48375338,2 L7.48375338,2 Z M7.48375338,2" id="path666-0"/><path d="M9,3 C8.14782585,2.93102513 6.84089993,2.7905998 6,2.78338451 C6.63352463,2.30140497 7.52170755,1.49505457 8.06887492,1 C7.69270417,1.46523725 7.11433792,2.08263694 6.86496533,2.52269791 C7.4363409,2.71973315 8.35355707,2.85164461 9,3 C9,3 8.35355707,2.85164461 9,3 L9,3 L9,3 L9,3 L9,3 Z M9,3" id="path667-7"/><path d="M6.40621785,2.47822155 C6.40835258,2.46374263 9,2.10350378 9,2.10350378 L6.47266125,2 L6,2.26587191 L6.40621785,2.47822155 L6.40621785,2.47822155 L6.40621785,2.47822155 L6.40621785,2.47822155 Z M6.40621785,2.47822155" id="path668-1"/><path d="M8,2 C7.4336046,1.92113464 6.57296727,1.78373571 6,1.73480517 C6.54432933,1.54024191 7.33766173,1.20544452 7.826004,1 C7.461406,1.20054077 6.92346667,1.46238698 6.6513372,1.65783807 C6.9962476,1.78230975 7.5925416,1.89457899 8,2 C8,2 7.5925416,1.89457899 8,2 L8,2 L8,2 L8,2 L8,2 Z M8,2" id="path669-7"/><path d="M6.36939987,1.99999714 C6.3646976,1.99003728 8,1 8,1 L6.2140146,1.6717901 L6,1.98160103 L6.36939987,2 L6.36939987,1.99999714 L6.36939987,1.99999714 L6.36939987,1.99999714 L6.36939987,1.99999714 Z M6.36939987,1.99999714" id="path670-7"/><path d="M8,3 C7.43206453,2.80008401 6.56188987,2.46142203 6,2.32047816 C6.4350822,1.97548371 7.04821187,1.37088835 7.42589427,1 C7.1632276,1.37058917 6.76174633,1.84974805 6.5844412,2.21727566 C6.9615998,2.49089731 7.57148967,2.75945093 8,3 C8,3 7.57148967,2.75945093 8,3 L8,3 L8,3 L8,3 L8,3 Z M8,3" id="path671-7"/><path d="M6.36455327,2 C6.36013013,1.98011903 8,1 8,1 L6.2189814,1.34429791 L6,1.79219216 L6.36455327,2 L6.36455327,2 L6.36455327,2 L6.36455327,2 Z M6.36455327,2" id="path672-7"/><path d="M5.54518616,16.0000031 C5.54617028,16.0302816 3,16.0295995 3,16.0295995 L5.57717444,17 L6,16.573285 L5.54518616,16 L5.54518616,16.0000031 L5.54518616,16.0000031 L5.54518616,16.0000031 L5.54518616,16.0000031 Z M5.54518616,16.0000031" id="path1609-3"/><path d="M5.61220321,15.4940799 C5.6090703,15.5094064 3,15 3,15 L5.50845359,16 L6,15.8713826 L5.61220321,15.4940799 L5.61220321,15.4940799 L5.61220321,15.4940799 L5.61220321,15.4940799 Z M5.61220321,15.4940799" id="path1610-3"/><path d="M6.56104444,16.1672388 C6.5610406,16.1924625 4,16 4,16 L6.56091136,17 L7,16.6775459 L6.56104444,16.1672388 L6.56104444,16.1672388 L6.56104444,16.1672388 L6.56104444,16.1672388 Z M6.56104444,16.1672388" id="path1611-5"/><path d="M4.59862745,14 C5.27557827,14.9060893 6.28969438,16.3498795 7,17.148817 C6.12594196,17.3091811 4.80969522,17.738296 4,18 C4.64349768,17.6247637 5.56480663,17.2009461 6.08293408,16.746312 C5.73389582,15.9029665 5.04537545,14.8375307 4.59862745,14 C4.59862745,14 5.04537545,14.8375307 4.59862745,14 L4.59862745,14 L4.59862745,14 L4.59862745,14 L4.59862745,14 Z M4.59862745,14" id="path1612-9"/><path d="M6.63959674,16.1713834 C6.63478606,16.1964819 4,15 4,15 L6.480364,17 L7,16.8514319 L6.63959674,16.1713834 L6.63959674,16.1713834 L6.63959674,16.1713834 L6.63959674,16.1713834 Z M6.63959674,16.1713834" id="path1613-9"/><path d="M5.24963965,14 C6.02665038,14.7890307 7.19853284,16.0556027 8,16.7349885 C7.1179586,17.0178087 5.80678369,17.6272917 5,18 C5.62594735,17.5401504 6.532454,16.9927475 7.0225505,16.4732727 C6.58764518,15.6983938 5.78424926,14.7551128 5.24963965,14 C5.24963965,14 5.78424926,14.7551128 5.24963965,14 L5.24963965,14 L5.24963965,14 L5.24963965,14 L5.24963965,14 Z M5.24963965,14" id="path1614-8"/><path d="M6.49479094,16 C6.49885078,16.0302746 4,16.7324928 4,16.7324928 L6.6288535,17 L7,16.4527916 L6.49479094,16 L6.49479094,16 L6.49479094,16 L6.49479094,16 Z M6.49479094,16" id="path1615-1"/><path d="M6.52141858,16 C6.5238622,16.0302915 4,16.3020404 4,16.3020404 L6.60154738,17 L7,16.5265845 L6.52141858,16 L6.52141858,16 L6.52141858,16 L6.52141858,16 Z M6.52141858,16" id="path1616-8"/><path d="M6.58835542,16.4040698 C6.58665682,16.4221177 4,16 4,16 L6.53290372,17 L7,16.8180001 L6.58835542,16.4040698 L6.58835542,16.4040698 L6.58835542,16.4040698 L6.58835542,16.4040698 Z M6.58835542,16.4040698" id="path1617-2"/><path d="M7.5374723,16 C7.5389294,16.0302737 5,16.0750073 5,16.0750073 L7.58508128,17 L8,16.565502 L7.5374723,16 L7.5374723,16 L7.5374723,16 L7.5374723,16 Z M7.5374723,16" id="path1618-6"/><path d="M6.35710358,14 C7.10330034,14.8386084 8.22660324,16.1802391 9,16.9102619 C8.12041476,17.1412197 6.80768088,17.6743083 6,18 C6.63135186,17.5759877 7.54241568,17.0809283 8.04114486,16.5889184 C7.63267908,15.7850367 6.8646567,14.7900195 6.35710358,14 C6.35710358,14 6.8646567,14.7900195 6.35710358,14 L6.35710358,14 L6.35710358,14 L6.35710358,14 L6.35710358,14 Z M6.35710358,14" id="path1619-6"/><path d="M7.61504786,16.5226259 C7.611737,16.5370902 5,16 5,16 L7.5055361,17 L8,16.8883119 L7.61504786,16.5226259 L7.61504786,16.5226259 L7.61504786,16.5226259 L7.61504786,16.5226259 Z M7.61504786,16.5226259" id="path1620-0"/><path d="M6,14 C6.8486664,14.7256423 8.13390972,15.8962372 9,16.5108786 C8.11801068,16.8600196 6.81996942,17.5671819 6.02110998,18 C6.62912046,17.4943293 7.51784496,16.879997 7.98288762,16.3254115 C7.48485888,15.5876057 6.59856924,14.7104847 6,14 C6,14 6.59856924,14.7104847 6,14 L6,14 L6,14 L6,14 L6,14 Z M6,14" id="path1621-3"/><path d="M8.46947964,17 C8.47509018,17.0301724 6,18 6,18 L8.65480296,17.9956892 L9,17.4044412 L8.46947964,17.0000063 L8.46947964,17 L8.46947964,17 L8.46947964,17 L8.46947964,17 Z M8.46947964,17" id="path1622-8"/></g><path d="M36.9991534,18.5 C37.0010582,25.1087785 33.4754755,31.2163566 27.7509044,34.5212957 C22.0263333,37.8262348 14.9728209,37.8262348 9.24824982,34.5212957 C3.52367871,31.2163566 -0.00190398804,25.1087785 7.71419802e-07,18.5 C-0.00190398803,11.8912215 3.52367871,5.78364342 9.24824982,2.47870432 C14.9728209,-0.826234773 22.0263333,-0.826234773 27.7509044,2.47870432 C33.4754755,5.78364342 37.0010582,11.8912215 36.9991534,18.5 C36.9991534,18.5 37.0010582,11.8912215 36.9991534,18.5 L36.9991534,18.5 L36.9991534,18.5 L36.9991534,18.5 L36.9991534,18.5 Z M36.9991534,18.5" id="path5487" stroke="#000000"/><path d="M20.8333309,22 L18.5000049,20.3333303 L16.1666691,22 L17.0416777,19.3333463 L15,17.6666588 L17.6249988,17.6666588 L18.5000049,15 L19.3750062,17.6666588 L22,17.6666588 L19.9583321,19.3333463 L20.8333309,22 L20.8333309,22 L20.8333309,22 L20.8333309,22 Z M20.8333309,22" fill="#FEDF00" id="path4809" stroke="#000000" stroke-width="0.1"/><g fill="#000000" id="text5478" transform="translate(19.000000, 17.000000) rotate(-12.000000) translate(-19.000000, -17.000000) translate(4.000000, 4.000000)"><path d="M4,19.2318664 L1.54889551,20 L1.12155439,18.831443 C1.04231539,18.6147579 1.00181544,18.4428603 1.00005449,18.3157501 C0.99829973,18.1886422 1.03893004,18.0729763 1.12194552,17.9687521 C1.20496699,17.8645309 1.32450126,17.7879679 1.48054884,17.7390627 C1.616538,17.6964487 1.74366519,17.6865115 1.86193077,17.7092514 C1.98020082,17.7319947 2.08715653,17.7807081 2.18279823,17.8553916 C2.24369856,17.9030139 2.30602199,17.974915 2.3697687,18.071095 C2.36930104,17.9780863 2.3771332,17.9077765 2.39326521,17.8601655 C2.40389692,17.8280836 2.43313205,17.7772311 2.48097065,17.7076078 C2.52881246,17.637988 2.56754813,17.5893335 2.59717775,17.5616443 L3.18380677,17 L3.47360628,17.7924519 L2.8615404,18.4017458 C2.78192538,18.4796013 2.73441902,18.5416427 2.71902128,18.58787 C2.69961454,18.6503075 2.70160811,18.7135127 2.72500198,18.777486 L2.74764255,18.8393962 L3.74246327,18.5276367 L4,19.2318664 L4,19.2318664 L4,19.2318664 L4,19.2318664 Z M3,18.7857928 L2.83529736,18.3802364 C2.81747906,18.3363553 2.76600491,18.2562142 2.68087476,18.1398128 C2.63972499,18.0804271 2.57954082,18.0394273 2.50032207,18.0168134 C2.42110981,17.9942024 2.3407465,17.9943972 2.25923189,18.0173978 C2.13866685,18.0514232 2.05905251,18.1093901 2.02038864,18.1912988 C1.98173223,18.2732099 1.99804459,18.4019292 2.06932575,18.5774569 L2.24092693,19 L3,18.7857928 L3,18.7857928 L3,18.7857928 L3,18.7857928 Z M3,18.7857928" id="path5506"/><path d="M0.25483105,18 L0,15.3991955 L0.586110393,15.3240278 L0.745642226,16.9522085 L1.18194806,16.8962528 L1.0339613,15.385901 L1.59385593,15.3140953 L1.74184267,16.8244471 L2.28301172,16.755043 L2.11886188,15.0797308 L2.7405509,15 L3,17.647936 L0.25483105,18 L0.25483105,18 L0.25483105,18 L0.25483105,18 Z M0.25483105,18" id="path5508"/><path d="M0,14.6866751 L0.143344384,13.0065791 C0.174566837,12.6406645 0.275454584,12.374934 0.446007929,12.209387 C0.616566193,12.0438461 0.844929608,11.9764625 1.13109903,12.0072359 C1.42522112,12.0388709 1.64661425,12.1628805 1.79527905,12.379265 C1.94394603,12.5956556 2.00089238,12.9076323 1.96611827,13.3151963 L1.9189079,13.8685346 L3,13.9848026 L2.91338419,15 L0,14.6866751 L0,14.6866751 L0,14.6866751 L0,14.6866751 Z M1.96005414,14 L1.99127126,13.6954127 C2.01583472,13.4557699 1.98855534,13.283483 1.90943304,13.1785516 C1.83031541,13.0736255 1.72127148,13.0149402 1.58230089,13.0024958 C1.44725016,12.9904075 1.32843614,13.0222313 1.22585846,13.0979675 C1.12328678,13.1737092 1.06009384,13.3277424 1.03627937,13.5600677 L1,13.9140475 L1.96005414,14 L1.96005414,14 L1.96005414,14 L1.96005414,14 Z M1.96005414,14" id="path5510"/><path d="M1.52381625,9.78333479 L1.77225796,9 L3.23724984,9.49668697 C3.38251982,9.54594194 3.51226781,9.61584284 3.62649415,9.70639087 C3.74072005,9.79694392 3.83031504,9.90857429 3.89527944,10.041282 C3.9602428,10.1739948 3.99487474,10.3018596 3.99917537,10.4248765 C4.00556115,10.5959503 3.97485933,10.788357 3.90706981,11.0020972 C3.86786093,11.1257224 3.81669893,11.2577693 3.75358369,11.3982383 C3.69046764,11.5387095 3.61847294,11.6496178 3.53759932,11.7309633 C3.45672538,11.8123104 3.35755588,11.8781768 3.2400905,11.9285625 C3.12262535,11.9789494 3.01051958,12.0026818 2.90377282,11.9997597 C2.73193867,11.9952449 2.58567851,11.9725287 2.46499188,11.9316111 L1,11.434924 L1.24844169,10.6515889 L2.74863363,11.1602102 C2.8827295,11.2056749 2.99967525,11.2027774 3.09947134,11.1515179 C3.19926798,11.1002605 3.2707857,11.0064654 3.3140247,10.8701309 C3.35689739,10.7349556 3.35336206,10.6163542 3.30341865,10.5143264 C3.2534754,10.4123026 3.16033867,10.3381795 3.02400818,10.2919559 C3.02400818,10.2919559 3.16033867,10.3381795 3.02400818,10.2919559 L1.52381625,9.78333479 L1.52381625,9.78333479 L1.52381625,9.78333479 L1.52381625,9.78333479 Z M1.52381625,9.78333479" id="path5512"/><path d="M2,7.67606634 L2.73535875,6.41486028 C2.85791964,6.20466198 3.00199108,6.07490154 3.16757353,6.025578 C3.33315752,5.97626088 3.48973468,5.99826021 3.6373055,6.09157656 C3.76107512,6.169848 3.84381761,6.2771337 3.88553315,6.4134354 C3.91334366,6.50430768 3.91432438,6.61213842 3.88847528,6.73692708 C4.01599568,6.60314874 4.14532385,6.52717026 4.27646014,6.50899002 C4.40759576,6.49081572 4.53980879,6.52387152 4.67309954,6.60815748 C4.781635,6.67679514 4.86390242,6.76478178 4.91990199,6.87211686 C4.97589965,6.97945722 5.00253571,7.0946904 4.99981026,7.21781682 C4.99827526,7.29420306 4.97140735,7.39392246 4.91920653,7.51697598 C4.84979595,7.6807203 4.80063832,7.7873796 4.77173357,7.8369534 L4.09360789,9 L2,7.67606634 L2,7.67606634 L2,7.67606634 L2,7.67606634 Z M3.6145368,8 L3.87896721,7.60444821 C3.97382292,7.46256111 4.01292341,7.34900671 3.99626884,7.26378511 C3.97961586,7.17856922 3.92044603,7.10791832 3.81875927,7.05183092 C3.72444284,6.99981502 3.63218918,6.98695012 3.54199797,7.01323692 C3.45180915,7.03953032 3.36062897,7.12161222 3.26845727,7.25948351 L3,7.66105861 L3.6145368,8 L3.6145368,8 L3.6145368,8 L3.6145368,8 Z M4.59664103,8 L4.87842137,7.5887017 C4.97356749,7.4498233 5.01286835,7.33693981 4.99632401,7.25004941 C4.97977866,7.16316291 4.92463216,7.09449221 4.83088428,7.04403621 C4.74383201,6.99718871 4.65454175,6.98771991 4.56301319,7.01562981 C4.47148442,7.04354481 4.37733367,7.12812831 4.28056051,7.26937971 L4,7.6788978 L4.59664103,8 L4.59664103,8 L4.59664103,8 L4.59664103,8 Z M4.59664103,8" id="path5514"/><path d="M3,5.74452409 L3.49852044,5 L4.79756291,6.7000688 L5.57560697,5.53808566 L6,6.09349275 L4.7234355,8 L3,5.74452409 L3,5.74452409 L3,5.74452409 L3,5.74452409 Z M3,5.74452409" id="path5516"/><path d="M6,3.58769886 L6.56492911,3 L8,5.41230114 L7.43507087,6 L6,3.58769886 L6,3.58769886 L6,3.58769886 L6,3.58769886 Z M6,3.58769886" id="path5518"/><path d="M9.14261821,3.45606552 L9.94029901,3.29248144 C9.99929423,3.50461403 10.0145661,3.69998486 9.98611463,3.87859393 C9.95765956,4.05720654 9.88806676,4.2176754 9.77733736,4.3600017 C9.66660436,4.50233036 9.49801216,4.6339911 9.27156144,4.7549851 C8.99682819,4.90177608 8.75054274,4.9826672 8.53270509,4.99765847 C8.31486632,5.01265033 8.08772079,4.95565205 7.85126912,4.82666361 C7.61481692,4.69767636 7.41078587,4.47987509 7.23917545,4.17325805 C7.01036252,3.76443946 6.94572407,3.39082029 7.04526032,3.05240053 C7.1447971,2.71398551 7.39802815,2.43606601 7.80495302,2.21864084 C8.12336604,2.04851467 8.40887304,1.97767055 8.66147469,2.00610967 C8.91407454,2.03455589 9.15754929,2.15541388 9.39189953,2.36868541 L8.78611479,2.88713584 C8.71985739,2.82478644 8.66376676,2.78326492 8.61784216,2.76257128 C8.54147251,2.72751024 8.46287626,2.71114467 8.38205267,2.71347458 C8.30122854,2.71580982 8.22173349,2.73785824 8.14356752,2.77962044 C7.96654322,2.87420778 7.86987527,3.01631587 7.85356299,3.2059453 C7.84012562,3.34735501 7.89532472,3.52868782 8.01916104,3.74994315 C8.17254069,4.02398932 8.32020744,4.18910855 8.46216024,4.24530083 C8.60411184,4.30149607 8.75210544,4.28844205 8.90613991,4.20613997 C9.05557464,4.1262973 9.14556931,4.02495913 9.17612454,3.90212545 C9.20667676,3.77929472 9.19550836,3.63060847 9.14261821,3.45606552 C9.14261821,3.45606552 9.19550836,3.63060847 9.14261821,3.45606552 L9.14261821,3.45606552 L9.14261821,3.45606552 L9.14261821,3.45606552 L9.14261821,3.45606552 Z M9.14261821,3.45606552" id="path5520"/><path d="M11.8426992,3.07576171 L10.8727741,3.32803713 L10.8703006,3.77363665 L10,4 L10.2422265,1.2415199 L11.1707978,1 L13,3.21970649 L12.1090228,3.4514476 L11.8426992,3.07576171 L11.8426992,3.07576171 L11.8426992,3.07576171 L11.8426992,3.07576171 Z M12,2.83778459 L11.0286371,2 L11,3 L12,2.83778459 L12,2.83778459 L12,2.83778459 L12,2.83778459 Z M12,2.83778459" id="path5522"/><path d="M14.1226419,0 L15.5875199,0.0519954473 C15.8762852,0.0622479573 16.1080424,0.106709987 16.282792,0.185382777 C16.4575362,0.264060522 16.6001369,0.373133376 16.7105944,0.512601338 C16.8210459,0.652074875 16.8986561,0.812524275 16.9434249,0.993950145 C16.9881876,1.17537973 17.006388,1.36660153 16.9980255,1.56761553 C16.984916,1.88254087 16.9359351,2.12539693 16.8510819,2.29618371 C16.7662233,2.46697173 16.6524284,2.60854855 16.5096977,2.72091418 C16.3669609,2.83328042 16.2157012,2.90608817 16.0559172,2.93933681 C15.8374714,2.9852665 15.6404581,3.00511543 15.464878,2.99888302 L14,2.94688757 L14.1226419,0 L14.1226419,0 L14.1226419,0 L14.1226419,0 Z M15.0673353,1 L15,1.9936414 L15.2427812,1.99893346 C15.449836,2.0034475 15.5979912,1.99363261 15.6872474,1.96948878 C15.7764988,1.94534571 15.8481139,1.90135456 15.9020927,1.83751531 C15.9560668,1.77367721 15.9879865,1.66898182 15.9978526,1.52342877 C16.0109077,1.33073883 15.964437,1.19762453 15.8584404,1.12408546 C15.752439,1.05054908 15.5711225,1.01098326 15.3144913,1.00538764 C15.3144913,1.00538764 15.5711225,1.01098326 15.3144913,1.00538764 L15.0673353,1 L15.0673353,1 L15.0673353,1 L15.0673353,1 Z M15.0673353,1" id="path5524"/><path d="M17.7119198,1 L20,1.52586737 L19.8480006,2.05207532 L18.4155948,1.7228666 L18.302445,2.11458045 L19.6311901,2.41996465 L19.4859897,2.92263626 L18.1572446,2.61725207 L18.0168999,3.10311178 L19.4907705,3.44184977 L19.3295445,4 L17,3.46460336 L17.7119198,1 L17.7119198,1 L17.7119198,1 L17.7119198,1 Z M17.7119198,1" id="path5526"/><path d="M20.0601667,1 L20.7392507,1.32365423 L19.9401485,2.96021159 L21,3.46534169 L20.7389355,4 L19,3.17121517 L20.0601667,1 L20.0601667,1 L20.0601667,1 L20.0601667,1 Z M20.0601667,1" id="path5528"/><path d="M23.7111369,3 L24.667308,4.10202331 C24.8755546,4.34204052 24.9860085,4.58390192 24.9986707,4.82761019 C25.0113265,5.07131846 24.9336164,5.30780779 24.7655405,5.53707818 C24.5927903,5.772717 24.4012757,5.89175056 24.1909968,5.89417819 C23.9807131,5.89660514 23.7595961,5.76415138 23.5276452,5.49681689 L23.2127309,5.1338666 L22.5777664,6 L22,5.33410273 L23.7111369,3 L23.7111369,3 L23.7111369,3 L23.7111369,3 Z M24,5.59153027 L24.1987431,5.7761008 C24.3551085,5.92131806 24.4898856,5.99586726 24.6030742,5.99974765 C24.7162576,6.00362804 24.8118011,5.96275606 24.8897056,5.8771317 C24.9654096,5.79391973 25.0021422,5.69787401 24.9999036,5.58899455 C24.9976574,5.48011584 24.9207401,5.35528501 24.7691493,5.21450054 L24.5381786,5 L24,5.59153027 L24,5.59153027 L24,5.59153027 L24,5.59153027 Z M24,5.59153027" id="path5530"/><path d="M25.3355373,7.96462674 L24.8414033,7.21839084 L24.4433803,7.36146318 L24,6.6918753 L26.5269335,6 L27,6.7144197 L25.5283685,9 L25.0744547,8.31450456 L25.3355373,7.96462674 L25.3355373,7.96462674 L25.3355373,7.96462674 L25.3355373,7.96462674 Z M25.3543577,8 L26,7 L25,7.3929193 L25.3543577,8 L25.3543577,8 L25.3543577,8 L25.3543577,8 Z M25.3543577,8" id="path5532"/><path d="M26,8.88759044 L28.344423,8 L28.8434395,9.10601156 C28.9359694,9.311099 28.9875009,9.47511038 28.9980333,9.59804618 C29.0085594,9.72097952 28.976832,9.83532854 28.90285,9.94109366 C28.8288628,10.0468563 28.7172414,10.1279926 28.5679857,10.1845024 C28.4379148,10.2337445 28.3142485,10.2508351 28.1969851,10.2357743 C28.0797175,10.2207105 27.9717172,10.1798439 27.8729847,10.1131734 C27.8101113,10.0706558 27.7441636,10.004721 27.6751404,9.91536788 C27.6820442,10.0053702 27.6792561,10.0738884 27.6667758,10.1209225 C27.6585993,10.1526014 27.6335264,10.2035437 27.5915565,10.2737486 C27.5495827,10.3439505 27.515064,10.3933229 27.4879995,10.4218668 L26.9530888,11 L26.6146827,10.2499628 L27.1711737,9.62421128 C27.2436565,9.54416996 27.2858269,9.48132374 27.2976847,9.43567214 C27.3123408,9.37409366 27.3060098,9.31303022 27.2786922,9.2524808 L27.2522545,9.1938845 L26.3007319,9.55412756 L26,8.88759044 L26,8.88759044 L26,8.88759044 L26,8.88759044 Z M28,9.2535977 L28.1891144,9.6468737 C28.2095746,9.6894264 28.2651505,9.7661143 28.355843,9.8769386 C28.3999176,9.933602 28.4609094,9.9709997 28.5388176,9.9891311 C28.6167194,10.0072605 28.6940025,10.00271 28.7706677,9.9754789 C28.8840581,9.9351973 28.9562487,9.8733919 28.9872388,9.7900629 C29.0182208,9.7067324 28.9927887,9.5799606 28.9109416,9.4097482 L28.713907,9 L28,9.2535977 L28,9.2535977 L28,9.2535977 L28,9.2535977 Z M28,9.2535977" id="path5534"/><path d="M26.7702086,12.8954895 L26.6085085,11.9255647 L26.1450915,11.8703008 L26,11 L28.845194,11.5620224 L29,12.4905938 L26.5001434,14 L26.3516043,13.1090226 L26.7702086,12.8954895 L26.7702086,12.8954895 L26.7702086,12.8954895 L26.7702086,12.8954895 Z M28.1001005,13 L29,12.2179851 L28,12 L28.1001005,13 L28.1001005,13 L28.1001005,13 L28.1001005,13 Z M28.1001005,13" id="path5536"/><path d="M28.100184,16.5640866 L28.7017421,16.6012549 L28.6175433,18 L27.3848421,17.9238356 C27.2208218,17.6449427 27.1124627,17.4005796 27.0597651,17.1907454 C27.0070682,16.9809063 26.9892197,16.7347815 27.0062199,16.4523702 C27.0271496,16.1046807 27.1027217,15.8248839 27.2329373,15.6129788 C27.3631524,15.401072 27.5475985,15.241989 27.786275,15.1357297 C28.0249503,15.0294694 28.2941849,14.9856011 28.5939786,15.0041246 C28.9095484,15.0236224 29.1800597,15.1065224 29.4055143,15.2528249 C29.6309647,15.3991264 29.7965173,15.6032336 29.9021728,15.8651471 C29.9835783,16.0694026 30.0141784,16.3393801 29.9939734,16.6750805 C29.9744842,16.9987878 29.9309824,17.2391164 29.8634681,17.3960669 C29.7959477,17.5530121 29.6981881,17.680681 29.5701894,17.7790741 C29.4421852,17.877461 29.2832243,17.9475306 29.0933056,17.989283 L28.9920292,17.1065611 C29.1033271,17.077334 29.1904907,17.0215477 29.2535201,16.9392017 C29.3165445,16.8568513 29.3520676,16.7490704 29.3600889,16.6158586 C29.3720346,16.4173683 29.3135122,16.2549728 29.1845209,16.1286715 C29.0555259,16.0023674 28.8437629,15.930117 28.5492311,15.91192 C28.2362885,15.8925833 28.0091701,15.9383852 27.8678765,16.0493261 C27.726581,16.1602643 27.6495187,16.3223051 27.6366887,16.5354488 C27.6305936,16.6366895 27.6392434,16.734163 27.6626383,16.8278699 C27.6860319,16.9215725 27.7290055,17.0298579 27.7915577,17.1527264 L28.0637377,17.1695435 L28.100184,16.5640866 L28.100184,16.5640866 L28.100184,16.5640866 L28.100184,16.5640866 Z M28.100184,16.5640866" id="path5538"/><path d="M28.5029514,20.2061105 L28.267205,21 L26.7848608,20.5279351 C26.6378699,20.4811217 26.506118,20.4132107 26.389605,20.3242017 C26.273092,20.2351871 26.1809711,20.1244651 26.1132421,19.9920356 C26.0455142,19.8596009 26.0083787,19.7314643 26.0018359,19.6076256 C25.99233,19.4354172 26.0197393,19.2410032 26.084065,19.0243832 C26.1212703,18.8990924 26.1703456,18.7650872 26.2312907,18.6223672 C26.2922365,18.479645 26.3626448,18.3665318 26.4425154,18.2830272 C26.522387,18.1995212 26.6209376,18.1312566 26.7381687,18.0782334 C26.8553987,18.0252089 26.9677198,17.9991384 27.0751308,18.0000217 C27.2480314,18.0012534 27.3955397,18.0213138 27.5176558,18.060203 L29,18.532268 L28.7642541,19.3261575 L27.2462926,18.8427501 C27.1106087,18.7995392 26.9930443,18.804715 26.8936003,18.8582777 C26.7941552,18.9118376 26.7239183,19.007703 26.6828888,19.1458741 C26.6422067,19.282871 26.6479004,19.4022762 26.6999693,19.5040902 C26.7520381,19.6059002 26.8470448,19.678771 26.9849899,19.7227029 C26.9849899,19.7227029 26.8470448,19.678771 26.9849899,19.7227029 L28.5029514,20.2061105 L28.5029514,20.2061105 L28.5029514,20.2061105 L28.5029514,20.2061105 Z M28.5029514,20.2061105" id="path5540"/><path d="M24.8096422,21.8820033 L25.2440212,21.0665271 L24.9537823,20.7317161 L25.3435446,20 L27,22.2192921 L26.5841411,23 L24,22.5222869 L24.3990226,21.7731866 L24.8096422,21.8820033 L24.8096422,21.8820033 L24.8096422,21.8820033 L24.8096422,21.8820033 Z M25,22.6905578 L26,23 L25.3025963,22 L25,22.6905578 L25,22.6905578 L25,22.6905578 L25,22.6905578 Z M25,22.6905578" id="path5542"/><path d="M26,23.9962412 L25.4197524,24.6281477 L24.4645801,24.421411 L24.7368369,25.3718625 L24.1600498,26 L23.761254,24.2880397 L23,23.570349 L23.5237227,23 L24.2849767,23.7176907 L26,23.9962412 L26,23.9962412 L26,23.9962412 L26,23.9962412 Z M26,23.9962412" id="path5544"/></g><path d="M32.9993136,18 C33.000858,23.3584691 30.1422774,28.3105594 25.5007333,30.9902398 C20.8591891,33.6699201 15.1401251,33.6699201 10.498581,30.9902398 C5.8570368,28.3105594 2.99845622,23.3584691 3.00000063,18 C2.99845623,12.6415309 5.8570368,7.68944063 10.498581,5.00976026 C15.1401251,2.33007991 20.8591891,2.33007991 25.5007333,5.00976026 C30.1422774,7.68944063 33.000858,12.6415309 32.9993136,18 C32.9993136,18 33.000858,12.6415309 32.9993136,18 L32.9993136,18 L32.9993136,18 L32.9993136,18 L32.9993136,18 Z M32.9993136,18" id="path5494" stroke="#000000" stroke-width="0.2"/><path d="M29.9994738,18.5 C30.0006578,22.6081596 27.8090794,26.4047622 24.2505622,28.4591838 C20.692045,30.5136054 16.3074292,30.5136054 12.748912,28.4591838 C9.19039488,26.4047622 6.99881644,22.6081596 7.00000048,18.5 C6.99881644,14.3918404 9.19039488,10.5952378 12.748912,8.5408162 C16.3074292,6.4863946 20.692045,6.4863946 24.2505622,8.5408162 C27.8090794,10.5952378 30.0006578,14.3918404 29.9994738,18.5 C29.9994738,18.5 30.0006578,14.3918404 29.9994738,18.5 L29.9994738,18.5 L29.9994738,18.5 L29.9994738,18.5 L29.9994738,18.5 Z M29.9994738,18.5" id="path5496" stroke="#000000" stroke-width="0.2"/></g></g></g></svg>