<?xml version="1.0" ?><svg height="120px" version="1.1" viewBox="0 0 180 120" width="180px" xmlns="http://www.w3.org/2000/svg" xmlns:sketch="http://www.bohemiancoding.com/sketch/ns" xmlns:xlink="http://www.w3.org/1999/xlink"><title/><defs/><g fill="none" fill-rule="evenodd" id="Page-1" stroke="none" stroke-width="1"><g id="libya"><rect d="M0,0 L0,120 L180,120 L180,0 L0,0 Z M0,0" fill="#1C1C1C" height="120" id="Rectangle-326" width="180" x="0" y="0"/><rect d="M0,0 L0,40 L180,40 L180,0 L0,0 Z M0,0" fill="#BF3126" height="40" id="Rectangle-1" width="180" x="0" y="0"/><rect d="M0,80 L0,120 L180,120 L180,80 L0,80 Z M0,80" fill="#57BB63" height="40" id="Rectangle-1-copy" width="180" x="0" y="80"/><path d="M95.4167093,73.0596807 C92.6304666,74.708086 89.2986535,75.6666667 85.7188991,75.6666667 C75.9330208,75.6666667 68,68.5032233 68,59.6666667 C68,50.8301102 75.9330208,43.6666667 85.7188991,43.6666667 C89.2986535,43.6666667 92.6304666,44.6252474 95.4167093,46.2736525 C93.9838023,45.878978 92.4628144,45.6666667 90.8869113,45.6666667 C82.3242679,45.6666667 75.3828746,51.9346798 75.3828746,59.6666667 C75.3828746,67.3986533 82.3242679,73.6666667 90.8869113,73.6666667 C92.4628144,73.6666667 93.9838023,73.4543553 95.4167093,73.0596807 L95.4167093,73.0596807 L95.4167093,73.0596807 L95.4167093,73.0596807 L95.4167093,73.0596807 Z M100.484648,65.3333333 L94.409286,68.4235033 L95.5695767,61.8784185 L90.6545048,57.2431636 L97.4469679,56.2882477 L100.484648,50.3333333 L103.522331,56.2882491 L110.314793,57.2431684 L105.39972,61.8784197 L106.560011,68.423504 L100.484648,65.3333333 L100.484648,65.3333333 L100.484648,65.3333333 L100.484648,65.3333333 Z M100.484648,65.3333333" fill="#FFFFFF" id="Oval-23"/></g></g></svg>