<?xml version="1.0" ?><svg height="120px" version="1.1" viewBox="0 0 180 120" width="180px" xmlns="http://www.w3.org/2000/svg" xmlns:sketch="http://www.bohemiancoding.com/sketch/ns" xmlns:xlink="http://www.w3.org/1999/xlink"><title/><defs/><g fill="none" fill-rule="evenodd" id="Page-1" stroke="none" stroke-width="1"><g id="maldives"><rect d="M0,0 L0,120 L180,120 L180,0 L0,0 Z M0,0" fill="#CA4638" height="120" id="Rectangle-326" width="180" x="0" y="0"/><rect d="M32,32 L32,90 L149,90 L149,32 L32,32 Z M32,32" fill="#57BB63" height="58" id="Rectangle-301" width="117" x="32" y="32"/><path d="M105,75.7519733 C101.9975,77.388678 98.458009,78.3333333 94.6681628,78.3333333 C83.8057359,78.3333333 75,70.572936 75,61 C75,51.4270639 83.8057359,43.6666667 94.6681628,43.6666667 C98.458009,43.6666667 101.9975,44.6113222 105,46.2480265 C103.519525,45.8693507 101.956872,45.6666667 100.341671,45.6666667 C90.9414941,45.6666667 83.3211458,52.5316334 83.3211458,61 C83.3211458,69.4683667 90.9414941,76.3333333 100.341671,76.3333333 C101.956872,76.3333333 103.519525,76.1306493 105,75.7519733 C105,75.7519733 103.519525,76.1306493 105,75.7519733 L105,75.7519733 L105,75.7519733 Z M105,75.7519733" fill="#FFFFFF" id="Oval-23"/></g></g></svg>