<?xml version="1.0" ?><svg height="120px" version="1.1" viewBox="0 0 180 120" width="180px" xmlns="http://www.w3.org/2000/svg" xmlns:sketch="http://www.bohemiancoding.com/sketch/ns" xmlns:xlink="http://www.w3.org/1999/xlink"><title/><defs/><g fill="none" fill-rule="evenodd" id="Asia-Pacific" stroke="none" stroke-width="1"><g id="LA" transform="translate(0.000000, -601.000000)"><g transform="translate(0.000000, 601.000000)"><rect d="M0,0 L0,120 L180,120 L180,0 L0,0 Z M0,0" fill="#346DA6" height="120" id="1024-copy" transform="translate(90.000000, 60.000000) scale(1, -1) translate(-90.000000, -60.000000) " width="180" x="0" y="0"/><rect d="M0,30 L0,90 L180,90 L180,30 L0,30 Z M0,30" fill="#CA4638" height="60" id="1024" width="180" x="0" y="30"/><circle cx="90" cy="60" d="M90,82 C102.150265,82 112,72.1502651 112,60 C112,47.8497349 102.150265,38 90,38 C77.8497349,38 68,47.8497349 68,60 C68,72.1502651 77.8497349,82 90,82 Z M90,82" fill="#FFFFFF" id="Oval-127" r="22"/></g></g></g></svg>