<?xml version="1.0" ?><svg height="120px" version="1.1" viewBox="0 0 180 120" width="180px" xmlns="http://www.w3.org/2000/svg" xmlns:sketch="http://www.bohemiancoding.com/sketch/ns" xmlns:xlink="http://www.w3.org/1999/xlink"><title/><defs/><g fill="none" fill-rule="evenodd" id="Page-1" stroke="none" stroke-width="1"><g id="belarus"><rect d="M0,0 L0,120 L180,120 L180,0 L0,0 Z M0,0" fill="#479951" height="120" id="Oval-1-copy-5" width="180" x="0" y="0"/><rect d="M0,0 L0,90 L180,90 L180,0 L0,0 Z M0,0" fill="#CA4638" height="90" id="Oval-1-copy-5" width="180" x="0" y="0"/><rect d="M0,0 L0,120 L30,120 L30,0 L0,0 Z M0,0" fill="#FFFFFF" height="120" id="Oval-1-copy-6" width="30" x="0" y="0"/><g fill="#CA4638" id="top"><g id="right" transform="translate(15.000000, 0.000000)"><path d="M8.57968739,0 L8.57968739,1.96412876 L9.79920991,1.96412876 L9.79920991,3.92825752 L11.0187324,3.92825752 L11.0187324,5.89238628 L12.2382549,5.89238628 L12.2382549,7.85651504 L13.4577775,7.85651504 L13.4577775,9.8206438 L12.2382549,9.8206438 L12.2382549,11.7847726 L11.0187324,11.7847726 L11.0187324,13.7489013 L9.79920991,13.7489013 L9.79920991,15.7130301 L8.57968739,15.7130301 L8.57968739,17.6771588 L7.36016488,17.6771588 L7.36016488,19.6412876 L6.14064236,19.6412876 L6.14064236,17.6771588 L4.92111985,17.6771588 L4.92111985,15.7130301 L3.70159733,15.7130301 L3.70159733,13.7489013 L2.48207482,13.7489013 L2.48207482,11.7847726 L1.2625523,11.7847726 L1.2625523,9.8206438 L0.0430297852,9.8206438 L0.0430297852,7.85651504 L1.2625523,7.85651504 L1.2625523,5.89238628 L2.48207482,5.89238628 L2.48207482,3.92825752 L3.70159733,3.92825752 L3.70159733,1.96412876 L4.92111985,1.96412876 L4.92111985,0 L8.57968739,0 Z M6.14064236,3.92825752 L7.36016488,3.92825752 L7.36016488,5.89238628 L8.57968739,5.89238628 L8.57968739,7.85651504 L9.79920991,7.85651504 L9.79920991,9.8206438 L8.57968739,9.8206438 L8.57968739,11.7847726 L7.36016488,11.7847726 L7.36016488,13.7489013 L6.14064236,13.7489013 L6.14064236,11.7847726 L4.92111985,11.7847726 L4.92111985,9.8206438 L3.70159733,9.8206438 L3.70159733,7.85651504 L4.92111985,7.85651504 L4.92111985,5.89238628 L6.14064236,5.89238628 L6.14064236,5.89238628 L6.14064236,3.92825752 L6.14064236,3.92825752 Z M6.14064236,7.85651504 L7.36016488,7.85651504 L7.36016488,9.8206438 L6.14064236,9.8206438 L6.14064236,9.8206438 L6.14064236,7.85651504 L6.14064236,7.85651504 Z M0.0430297852,1.96412876 L1.2625523,1.96412876 L1.2625523,3.92825752 L0.0430297852,3.92825752 L0.0430297852,3.92825752 L0.0430297852,1.96412876 L0.0430297852,1.96412876 Z M0.0430297852,13.7489013 L1.2625523,13.7489013 L1.2625523,15.7130301 L0.0430297852,15.7130301 L0.0430297852,15.7130301 L0.0430297852,13.7489013 L0.0430297852,13.7489013 Z M13.4577775,0 L14.189491,0 L14.189491,3.92825752 L13.4577775,3.92825752 L13.4577775,3.92825752 L13.4577775,0 L13.4577775,0 Z M13.4577775,13.7489013 L14.189491,13.7489013 L14.189491,17.6771588 L13.4577775,17.6771588 L13.4577775,17.6771588 L13.4577775,13.7489013 L13.4577775,13.7489013 Z M2.48207482,17.6771588 L3.70159733,17.6771588 L3.70159733,19.6412876 L4.92111985,19.6412876 L4.92111985,21.6054164 L6.14064236,21.6054164 L6.14064236,23.5695451 L4.92111985,23.5695451 L4.92111985,25.5336739 L3.70159733,25.5336739 L3.70159733,27.4978026 L2.48207482,27.4978026 L2.48207482,25.5336739 L1.2625523,25.5336739 L1.2625523,23.5695451 L0.0430297852,23.5695451 L0.0430297852,21.6054164 L1.2625523,21.6054164 L1.2625523,19.6412876 L2.48207482,19.6412876 L2.48207482,19.6412876 L2.48207482,17.6771588 L2.48207482,17.6771588 Z M2.48207482,21.6054164 L3.70159733,21.6054164 L3.70159733,23.5695451 L2.48207482,23.5695451 L2.48207482,23.5695451 L2.48207482,21.6054164 L2.48207482,21.6054164 Z M9.79920991,17.6771588 L11.0187324,17.6771588 L11.0187324,19.6412876 L12.2382549,19.6412876 L12.2382549,21.6054164 L13.4577775,21.6054164 L13.4577775,23.5695451 L12.2382549,23.5695451 L12.2382549,25.5336739 L11.0187324,25.5336739 L11.0187324,27.4978026 L9.79920991,27.4978026 L9.79920991,25.5336739 L8.57968739,25.5336739 L8.57968739,23.5695451 L7.36016488,23.5695451 L7.36016488,21.6054164 L8.57968739,21.6054164 L8.57968739,19.6412876 L9.79920991,19.6412876 L9.79920991,19.6412876 L9.79920991,17.6771588 L9.79920991,17.6771588 Z M9.79920991,21.6054164 L11.0187324,21.6054164 L11.0187324,23.5695451 L9.79920991,23.5695451 L9.79920991,23.5695451 L9.79920991,21.6054164 L9.79920991,21.6054164 Z M0.0430297852,29.4619314 L1.2625523,29.4619314 L1.2625523,31.4260602 L0.0430297852,31.4260602 L0.0430297852,31.4260602 L0.0430297852,29.4619314 L0.0430297852,29.4619314 Z M13.4577775,27.4978026 L14.189491,27.4978026 L14.189491,31.4260602 L13.4577775,31.4260602 L13.4577775,31.4260602 L13.4577775,27.4978026 L13.4577775,27.4978026 Z M13.4577775,27.4978026" id="Shape"/><path d="M0.0430297852,35.2305207 L1.2625523,35.2305207 L1.2625523,33.266392 L2.48207482,33.266392 L2.48207482,31.3022632 L3.70159733,31.3022632 L3.70159733,29.3381345 L4.92111985,29.3381345 L4.92111985,27.3740057 L6.14064236,27.3740057 L6.14064236,25.4098769 L7.36016488,25.4098769 L7.36016488,27.3740057 L8.57968739,27.3740057 L8.57968739,29.3381345 L9.79920991,29.3381345 L9.79920991,31.3022632 L11.0187324,31.3022632 L11.0187324,33.266392 L12.2382549,33.266392 L12.2382549,35.2305207 L13.4577775,35.2305207 L13.4577775,37.1946495 L14.189491,37.1946495 L14.189491,45.0511646 L13.4577775,45.0511646 L13.4577775,47.0152933 L12.2382549,47.0152933 L12.2382549,48.9794221 L11.0187324,48.9794221 L11.0187324,50.9435508 L9.79920991,50.9435508 L9.79920991,52.9076796 L8.57968739,52.9076796 L8.57968739,54.8718084 L7.36016488,54.8718084 L7.36016488,59.9785431 L4.92111985,59.9785431 L4.92111985,58.8000659 L3.70159733,58.8000659 L3.70159733,56.8359371 L2.48207482,56.8359371 L2.48207482,54.8718084 L1.2625523,54.8718084 L1.2625523,52.9076796 L0.0430297852,52.9076796 L0.0430297852,47.0152933 L1.2625523,47.0152933 L1.2625523,48.9794221 L2.48207482,48.9794221 L2.48207482,50.9435508 L3.70159733,50.9435508 L3.70159733,52.9076796 L4.92111985,52.9076796 L4.92111985,50.9435508 L6.14064236,50.9435508 L6.14064236,48.9794221 L7.36016488,48.9794221 L7.36016488,47.0152933 L8.57968739,47.0152933 L8.57968739,45.0511646 L9.79920991,45.0511646 L9.79920991,43.0870358 L11.0187324,43.0870358 L11.0187324,41.122907 L9.79920991,41.122907 L9.79920991,39.1587783 L8.57968739,39.1587783 L8.57968739,37.1946495 L4.92111985,37.1946495 L4.92111985,39.1587783 L7.36016488,39.1587783 L7.36016488,41.122907 L6.14064236,41.122907 L6.14064236,43.0870358 L4.92111985,43.0870358 L4.92111985,45.0511646 L3.70159733,45.0511646 L3.70159733,43.0870358 L2.48207482,43.0870358 L2.48207482,41.122907 L1.2625523,41.122907 L1.2625523,39.1587783 L0.0430297852,39.1587783 L0.0430297852,39.1587783 L0.0430297852,35.2305207 L0.0430297852,35.2305207 Z M0.0430297852,43.0870358 L1.2625523,43.0870358 L1.2625523,45.0511646 L0.0430297852,45.0511646 L0.0430297852,45.0511646 L0.0430297852,43.0870358 L0.0430297852,43.0870358 Z M13.4577775,48.9794221 L14.189491,48.9794221 L14.189491,50.9435508 L13.4577775,50.9435508 L13.4577775,50.9435508 L13.4577775,48.9794221 L13.4577775,48.9794221 Z M11.0187324,52.9076796 L12.2382549,52.9076796 L12.2382549,54.8718084 L13.4577775,54.8718084 L13.4577775,56.8359371 L14.189491,56.8359371 L14.189491,59.9785431 L13.4577775,59.9785431 L13.4577775,58.8000659 L12.2382549,58.8000659 L12.2382549,56.8359371 L11.0187324,56.8359371 L11.0187324,56.8359371 L11.0187324,52.9076796 L11.0187324,52.9076796 Z M8.57968739,58.8000659 L9.79920991,58.8000659 L9.79920991,59.9785431 L8.57968739,59.9785431 L8.57968739,59.9785431 L8.57968739,58.8000659 L8.57968739,58.8000659 Z M8.57968739,58.8000659" id="Shape"/></g><g id="left" transform="translate(7.500000, 30.000000) scale(-1, 1) translate(-7.500000, -30.000000) "><path d="M8.57968739,0 L8.57968739,1.96412876 L9.79920991,1.96412876 L9.79920991,3.92825752 L11.0187324,3.92825752 L11.0187324,5.89238628 L12.2382549,5.89238628 L12.2382549,7.85651504 L13.4577775,7.85651504 L13.4577775,9.8206438 L12.2382549,9.8206438 L12.2382549,11.7847726 L11.0187324,11.7847726 L11.0187324,13.7489013 L9.79920991,13.7489013 L9.79920991,15.7130301 L8.57968739,15.7130301 L8.57968739,17.6771588 L7.36016488,17.6771588 L7.36016488,19.6412876 L6.14064236,19.6412876 L6.14064236,17.6771588 L4.92111985,17.6771588 L4.92111985,15.7130301 L3.70159733,15.7130301 L3.70159733,13.7489013 L2.48207482,13.7489013 L2.48207482,11.7847726 L1.2625523,11.7847726 L1.2625523,9.8206438 L0.0430297852,9.8206438 L0.0430297852,7.85651504 L1.2625523,7.85651504 L1.2625523,5.89238628 L2.48207482,5.89238628 L2.48207482,3.92825752 L3.70159733,3.92825752 L3.70159733,1.96412876 L4.92111985,1.96412876 L4.92111985,0 L8.57968739,0 Z M6.14064236,3.92825752 L7.36016488,3.92825752 L7.36016488,5.89238628 L8.57968739,5.89238628 L8.57968739,7.85651504 L9.79920991,7.85651504 L9.79920991,9.8206438 L8.57968739,9.8206438 L8.57968739,11.7847726 L7.36016488,11.7847726 L7.36016488,13.7489013 L6.14064236,13.7489013 L6.14064236,11.7847726 L4.92111985,11.7847726 L4.92111985,9.8206438 L3.70159733,9.8206438 L3.70159733,7.85651504 L4.92111985,7.85651504 L4.92111985,5.89238628 L6.14064236,5.89238628 L6.14064236,5.89238628 L6.14064236,3.92825752 L6.14064236,3.92825752 Z M6.14064236,7.85651504 L7.36016488,7.85651504 L7.36016488,9.8206438 L6.14064236,9.8206438 L6.14064236,9.8206438 L6.14064236,7.85651504 L6.14064236,7.85651504 Z M0.0430297852,1.96412876 L1.2625523,1.96412876 L1.2625523,3.92825752 L0.0430297852,3.92825752 L0.0430297852,3.92825752 L0.0430297852,1.96412876 L0.0430297852,1.96412876 Z M0.0430297852,13.7489013 L1.2625523,13.7489013 L1.2625523,15.7130301 L0.0430297852,15.7130301 L0.0430297852,15.7130301 L0.0430297852,13.7489013 L0.0430297852,13.7489013 Z M13.4577775,0 L14.189491,0 L14.189491,3.92825752 L13.4577775,3.92825752 L13.4577775,3.92825752 L13.4577775,0 L13.4577775,0 Z M13.4577775,13.7489013 L14.189491,13.7489013 L14.189491,17.6771588 L13.4577775,17.6771588 L13.4577775,17.6771588 L13.4577775,13.7489013 L13.4577775,13.7489013 Z M2.48207482,17.6771588 L3.70159733,17.6771588 L3.70159733,19.6412876 L4.92111985,19.6412876 L4.92111985,21.6054164 L6.14064236,21.6054164 L6.14064236,23.5695451 L4.92111985,23.5695451 L4.92111985,25.5336739 L3.70159733,25.5336739 L3.70159733,27.4978026 L2.48207482,27.4978026 L2.48207482,25.5336739 L1.2625523,25.5336739 L1.2625523,23.5695451 L0.0430297852,23.5695451 L0.0430297852,21.6054164 L1.2625523,21.6054164 L1.2625523,19.6412876 L2.48207482,19.6412876 L2.48207482,19.6412876 L2.48207482,17.6771588 L2.48207482,17.6771588 Z M2.48207482,21.6054164 L3.70159733,21.6054164 L3.70159733,23.5695451 L2.48207482,23.5695451 L2.48207482,23.5695451 L2.48207482,21.6054164 L2.48207482,21.6054164 Z M9.79920991,17.6771588 L11.0187324,17.6771588 L11.0187324,19.6412876 L12.2382549,19.6412876 L12.2382549,21.6054164 L13.4577775,21.6054164 L13.4577775,23.5695451 L12.2382549,23.5695451 L12.2382549,25.5336739 L11.0187324,25.5336739 L11.0187324,27.4978026 L9.79920991,27.4978026 L9.79920991,25.5336739 L8.57968739,25.5336739 L8.57968739,23.5695451 L7.36016488,23.5695451 L7.36016488,21.6054164 L8.57968739,21.6054164 L8.57968739,19.6412876 L9.79920991,19.6412876 L9.79920991,19.6412876 L9.79920991,17.6771588 L9.79920991,17.6771588 Z M9.79920991,21.6054164 L11.0187324,21.6054164 L11.0187324,23.5695451 L9.79920991,23.5695451 L9.79920991,23.5695451 L9.79920991,21.6054164 L9.79920991,21.6054164 Z M0.0430297852,29.4619314 L1.2625523,29.4619314 L1.2625523,31.4260602 L0.0430297852,31.4260602 L0.0430297852,31.4260602 L0.0430297852,29.4619314 L0.0430297852,29.4619314 Z M13.4577775,27.4978026 L14.189491,27.4978026 L14.189491,31.4260602 L13.4577775,31.4260602 L13.4577775,31.4260602 L13.4577775,27.4978026 L13.4577775,27.4978026 Z M13.4577775,27.4978026" id="Shape"/><path d="M0.0430297852,35.2305207 L1.2625523,35.2305207 L1.2625523,33.266392 L2.48207482,33.266392 L2.48207482,31.3022632 L3.70159733,31.3022632 L3.70159733,29.3381345 L4.92111985,29.3381345 L4.92111985,27.3740057 L6.14064236,27.3740057 L6.14064236,25.4098769 L7.36016488,25.4098769 L7.36016488,27.3740057 L8.57968739,27.3740057 L8.57968739,29.3381345 L9.79920991,29.3381345 L9.79920991,31.3022632 L11.0187324,31.3022632 L11.0187324,33.266392 L12.2382549,33.266392 L12.2382549,35.2305207 L13.4577775,35.2305207 L13.4577775,37.1946495 L14.189491,37.1946495 L14.189491,45.0511646 L13.4577775,45.0511646 L13.4577775,47.0152933 L12.2382549,47.0152933 L12.2382549,48.9794221 L11.0187324,48.9794221 L11.0187324,50.9435508 L9.79920991,50.9435508 L9.79920991,52.9076796 L8.57968739,52.9076796 L8.57968739,54.8718084 L7.36016488,54.8718084 L7.36016488,59.9785431 L4.92111985,59.9785431 L4.92111985,58.8000659 L3.70159733,58.8000659 L3.70159733,56.8359371 L2.48207482,56.8359371 L2.48207482,54.8718084 L1.2625523,54.8718084 L1.2625523,52.9076796 L0.0430297852,52.9076796 L0.0430297852,47.0152933 L1.2625523,47.0152933 L1.2625523,48.9794221 L2.48207482,48.9794221 L2.48207482,50.9435508 L3.70159733,50.9435508 L3.70159733,52.9076796 L4.92111985,52.9076796 L4.92111985,50.9435508 L6.14064236,50.9435508 L6.14064236,48.9794221 L7.36016488,48.9794221 L7.36016488,47.0152933 L8.57968739,47.0152933 L8.57968739,45.0511646 L9.79920991,45.0511646 L9.79920991,43.0870358 L11.0187324,43.0870358 L11.0187324,41.122907 L9.79920991,41.122907 L9.79920991,39.1587783 L8.57968739,39.1587783 L8.57968739,37.1946495 L4.92111985,37.1946495 L4.92111985,39.1587783 L7.36016488,39.1587783 L7.36016488,41.122907 L6.14064236,41.122907 L6.14064236,43.0870358 L4.92111985,43.0870358 L4.92111985,45.0511646 L3.70159733,45.0511646 L3.70159733,43.0870358 L2.48207482,43.0870358 L2.48207482,41.122907 L1.2625523,41.122907 L1.2625523,39.1587783 L0.0430297852,39.1587783 L0.0430297852,39.1587783 L0.0430297852,35.2305207 L0.0430297852,35.2305207 Z M0.0430297852,43.0870358 L1.2625523,43.0870358 L1.2625523,45.0511646 L0.0430297852,45.0511646 L0.0430297852,45.0511646 L0.0430297852,43.0870358 L0.0430297852,43.0870358 Z M13.4577775,48.9794221 L14.189491,48.9794221 L14.189491,50.9435508 L13.4577775,50.9435508 L13.4577775,50.9435508 L13.4577775,48.9794221 L13.4577775,48.9794221 Z M11.0187324,52.9076796 L12.2382549,52.9076796 L12.2382549,54.8718084 L13.4577775,54.8718084 L13.4577775,56.8359371 L14.189491,56.8359371 L14.189491,59.9785431 L13.4577775,59.9785431 L13.4577775,58.8000659 L12.2382549,58.8000659 L12.2382549,56.8359371 L11.0187324,56.8359371 L11.0187324,56.8359371 L11.0187324,52.9076796 L11.0187324,52.9076796 Z M8.57968739,58.8000659 L9.79920991,58.8000659 L9.79920991,59.9785431 L8.57968739,59.9785431 L8.57968739,59.9785431 L8.57968739,58.8000659 L8.57968739,58.8000659 Z M8.57968739,58.8000659" id="Shape"/></g></g><g fill="#CA4638" id="bottom" transform="translate(15.000000, 90.000000) scale(1, -1) translate(-15.000000, -90.000000) translate(0.000000, 60.000000)"><g id="right" transform="translate(15.000000, 0.000000)"><path d="M8.57968739,0 L8.57968739,1.96412876 L9.79920991,1.96412876 L9.79920991,3.92825752 L11.0187324,3.92825752 L11.0187324,5.89238628 L12.2382549,5.89238628 L12.2382549,7.85651504 L13.4577775,7.85651504 L13.4577775,9.8206438 L12.2382549,9.8206438 L12.2382549,11.7847726 L11.0187324,11.7847726 L11.0187324,13.7489013 L9.79920991,13.7489013 L9.79920991,15.7130301 L8.57968739,15.7130301 L8.57968739,17.6771588 L7.36016488,17.6771588 L7.36016488,19.6412876 L6.14064236,19.6412876 L6.14064236,17.6771588 L4.92111985,17.6771588 L4.92111985,15.7130301 L3.70159733,15.7130301 L3.70159733,13.7489013 L2.48207482,13.7489013 L2.48207482,11.7847726 L1.2625523,11.7847726 L1.2625523,9.8206438 L0.0430297852,9.8206438 L0.0430297852,7.85651504 L1.2625523,7.85651504 L1.2625523,5.89238628 L2.48207482,5.89238628 L2.48207482,3.92825752 L3.70159733,3.92825752 L3.70159733,1.96412876 L4.92111985,1.96412876 L4.92111985,0 L8.57968739,0 Z M6.14064236,3.92825752 L7.36016488,3.92825752 L7.36016488,5.89238628 L8.57968739,5.89238628 L8.57968739,7.85651504 L9.79920991,7.85651504 L9.79920991,9.8206438 L8.57968739,9.8206438 L8.57968739,11.7847726 L7.36016488,11.7847726 L7.36016488,13.7489013 L6.14064236,13.7489013 L6.14064236,11.7847726 L4.92111985,11.7847726 L4.92111985,9.8206438 L3.70159733,9.8206438 L3.70159733,7.85651504 L4.92111985,7.85651504 L4.92111985,5.89238628 L6.14064236,5.89238628 L6.14064236,5.89238628 L6.14064236,3.92825752 L6.14064236,3.92825752 Z M6.14064236,7.85651504 L7.36016488,7.85651504 L7.36016488,9.8206438 L6.14064236,9.8206438 L6.14064236,9.8206438 L6.14064236,7.85651504 L6.14064236,7.85651504 Z M0.0430297852,1.96412876 L1.2625523,1.96412876 L1.2625523,3.92825752 L0.0430297852,3.92825752 L0.0430297852,3.92825752 L0.0430297852,1.96412876 L0.0430297852,1.96412876 Z M0.0430297852,13.7489013 L1.2625523,13.7489013 L1.2625523,15.7130301 L0.0430297852,15.7130301 L0.0430297852,15.7130301 L0.0430297852,13.7489013 L0.0430297852,13.7489013 Z M13.4577775,0 L14.189491,0 L14.189491,3.92825752 L13.4577775,3.92825752 L13.4577775,3.92825752 L13.4577775,0 L13.4577775,0 Z M13.4577775,13.7489013 L14.189491,13.7489013 L14.189491,17.6771588 L13.4577775,17.6771588 L13.4577775,17.6771588 L13.4577775,13.7489013 L13.4577775,13.7489013 Z M2.48207482,17.6771588 L3.70159733,17.6771588 L3.70159733,19.6412876 L4.92111985,19.6412876 L4.92111985,21.6054164 L6.14064236,21.6054164 L6.14064236,23.5695451 L4.92111985,23.5695451 L4.92111985,25.5336739 L3.70159733,25.5336739 L3.70159733,27.4978026 L2.48207482,27.4978026 L2.48207482,25.5336739 L1.2625523,25.5336739 L1.2625523,23.5695451 L0.0430297852,23.5695451 L0.0430297852,21.6054164 L1.2625523,21.6054164 L1.2625523,19.6412876 L2.48207482,19.6412876 L2.48207482,19.6412876 L2.48207482,17.6771588 L2.48207482,17.6771588 Z M2.48207482,21.6054164 L3.70159733,21.6054164 L3.70159733,23.5695451 L2.48207482,23.5695451 L2.48207482,23.5695451 L2.48207482,21.6054164 L2.48207482,21.6054164 Z M9.79920991,17.6771588 L11.0187324,17.6771588 L11.0187324,19.6412876 L12.2382549,19.6412876 L12.2382549,21.6054164 L13.4577775,21.6054164 L13.4577775,23.5695451 L12.2382549,23.5695451 L12.2382549,25.5336739 L11.0187324,25.5336739 L11.0187324,27.4978026 L9.79920991,27.4978026 L9.79920991,25.5336739 L8.57968739,25.5336739 L8.57968739,23.5695451 L7.36016488,23.5695451 L7.36016488,21.6054164 L8.57968739,21.6054164 L8.57968739,19.6412876 L9.79920991,19.6412876 L9.79920991,19.6412876 L9.79920991,17.6771588 L9.79920991,17.6771588 Z M9.79920991,21.6054164 L11.0187324,21.6054164 L11.0187324,23.5695451 L9.79920991,23.5695451 L9.79920991,23.5695451 L9.79920991,21.6054164 L9.79920991,21.6054164 Z M0.0430297852,29.4619314 L1.2625523,29.4619314 L1.2625523,31.4260602 L0.0430297852,31.4260602 L0.0430297852,31.4260602 L0.0430297852,29.4619314 L0.0430297852,29.4619314 Z M13.4577775,27.4978026 L14.189491,27.4978026 L14.189491,31.4260602 L13.4577775,31.4260602 L13.4577775,31.4260602 L13.4577775,27.4978026 L13.4577775,27.4978026 Z M13.4577775,27.4978026" id="Shape"/><path d="M0.0430297852,35.2305207 L1.2625523,35.2305207 L1.2625523,33.266392 L2.48207482,33.266392 L2.48207482,31.3022632 L3.70159733,31.3022632 L3.70159733,29.3381345 L4.92111985,29.3381345 L4.92111985,27.3740057 L6.14064236,27.3740057 L6.14064236,25.4098769 L7.36016488,25.4098769 L7.36016488,27.3740057 L8.57968739,27.3740057 L8.57968739,29.3381345 L9.79920991,29.3381345 L9.79920991,31.3022632 L11.0187324,31.3022632 L11.0187324,33.266392 L12.2382549,33.266392 L12.2382549,35.2305207 L13.4577775,35.2305207 L13.4577775,37.1946495 L14.189491,37.1946495 L14.189491,45.0511646 L13.4577775,45.0511646 L13.4577775,47.0152933 L12.2382549,47.0152933 L12.2382549,48.9794221 L11.0187324,48.9794221 L11.0187324,50.9435508 L9.79920991,50.9435508 L9.79920991,52.9076796 L8.57968739,52.9076796 L8.57968739,54.8718084 L7.36016488,54.8718084 L7.36016488,59.9785431 L4.92111985,59.9785431 L4.92111985,58.8000659 L3.70159733,58.8000659 L3.70159733,56.8359371 L2.48207482,56.8359371 L2.48207482,54.8718084 L1.2625523,54.8718084 L1.2625523,52.9076796 L0.0430297852,52.9076796 L0.0430297852,47.0152933 L1.2625523,47.0152933 L1.2625523,48.9794221 L2.48207482,48.9794221 L2.48207482,50.9435508 L3.70159733,50.9435508 L3.70159733,52.9076796 L4.92111985,52.9076796 L4.92111985,50.9435508 L6.14064236,50.9435508 L6.14064236,48.9794221 L7.36016488,48.9794221 L7.36016488,47.0152933 L8.57968739,47.0152933 L8.57968739,45.0511646 L9.79920991,45.0511646 L9.79920991,43.0870358 L11.0187324,43.0870358 L11.0187324,41.122907 L9.79920991,41.122907 L9.79920991,39.1587783 L8.57968739,39.1587783 L8.57968739,37.1946495 L4.92111985,37.1946495 L4.92111985,39.1587783 L7.36016488,39.1587783 L7.36016488,41.122907 L6.14064236,41.122907 L6.14064236,43.0870358 L4.92111985,43.0870358 L4.92111985,45.0511646 L3.70159733,45.0511646 L3.70159733,43.0870358 L2.48207482,43.0870358 L2.48207482,41.122907 L1.2625523,41.122907 L1.2625523,39.1587783 L0.0430297852,39.1587783 L0.0430297852,39.1587783 L0.0430297852,35.2305207 L0.0430297852,35.2305207 Z M0.0430297852,43.0870358 L1.2625523,43.0870358 L1.2625523,45.0511646 L0.0430297852,45.0511646 L0.0430297852,45.0511646 L0.0430297852,43.0870358 L0.0430297852,43.0870358 Z M13.4577775,48.9794221 L14.189491,48.9794221 L14.189491,50.9435508 L13.4577775,50.9435508 L13.4577775,50.9435508 L13.4577775,48.9794221 L13.4577775,48.9794221 Z M11.0187324,52.9076796 L12.2382549,52.9076796 L12.2382549,54.8718084 L13.4577775,54.8718084 L13.4577775,56.8359371 L14.189491,56.8359371 L14.189491,59.9785431 L13.4577775,59.9785431 L13.4577775,58.8000659 L12.2382549,58.8000659 L12.2382549,56.8359371 L11.0187324,56.8359371 L11.0187324,56.8359371 L11.0187324,52.9076796 L11.0187324,52.9076796 Z M8.57968739,58.8000659 L9.79920991,58.8000659 L9.79920991,59.9785431 L8.57968739,59.9785431 L8.57968739,59.9785431 L8.57968739,58.8000659 L8.57968739,58.8000659 Z M8.57968739,58.8000659" id="Shape"/></g><g id="left" transform="translate(7.500000, 30.000000) scale(-1, 1) translate(-7.500000, -30.000000) "><path d="M8.57968739,0 L8.57968739,1.96412876 L9.79920991,1.96412876 L9.79920991,3.92825752 L11.0187324,3.92825752 L11.0187324,5.89238628 L12.2382549,5.89238628 L12.2382549,7.85651504 L13.4577775,7.85651504 L13.4577775,9.8206438 L12.2382549,9.8206438 L12.2382549,11.7847726 L11.0187324,11.7847726 L11.0187324,13.7489013 L9.79920991,13.7489013 L9.79920991,15.7130301 L8.57968739,15.7130301 L8.57968739,17.6771588 L7.36016488,17.6771588 L7.36016488,19.6412876 L6.14064236,19.6412876 L6.14064236,17.6771588 L4.92111985,17.6771588 L4.92111985,15.7130301 L3.70159733,15.7130301 L3.70159733,13.7489013 L2.48207482,13.7489013 L2.48207482,11.7847726 L1.2625523,11.7847726 L1.2625523,9.8206438 L0.0430297852,9.8206438 L0.0430297852,7.85651504 L1.2625523,7.85651504 L1.2625523,5.89238628 L2.48207482,5.89238628 L2.48207482,3.92825752 L3.70159733,3.92825752 L3.70159733,1.96412876 L4.92111985,1.96412876 L4.92111985,0 L8.57968739,0 Z M6.14064236,3.92825752 L7.36016488,3.92825752 L7.36016488,5.89238628 L8.57968739,5.89238628 L8.57968739,7.85651504 L9.79920991,7.85651504 L9.79920991,9.8206438 L8.57968739,9.8206438 L8.57968739,11.7847726 L7.36016488,11.7847726 L7.36016488,13.7489013 L6.14064236,13.7489013 L6.14064236,11.7847726 L4.92111985,11.7847726 L4.92111985,9.8206438 L3.70159733,9.8206438 L3.70159733,7.85651504 L4.92111985,7.85651504 L4.92111985,5.89238628 L6.14064236,5.89238628 L6.14064236,5.89238628 L6.14064236,3.92825752 L6.14064236,3.92825752 Z M6.14064236,7.85651504 L7.36016488,7.85651504 L7.36016488,9.8206438 L6.14064236,9.8206438 L6.14064236,9.8206438 L6.14064236,7.85651504 L6.14064236,7.85651504 Z M0.0430297852,1.96412876 L1.2625523,1.96412876 L1.2625523,3.92825752 L0.0430297852,3.92825752 L0.0430297852,3.92825752 L0.0430297852,1.96412876 L0.0430297852,1.96412876 Z M0.0430297852,13.7489013 L1.2625523,13.7489013 L1.2625523,15.7130301 L0.0430297852,15.7130301 L0.0430297852,15.7130301 L0.0430297852,13.7489013 L0.0430297852,13.7489013 Z M13.4577775,0 L14.189491,0 L14.189491,3.92825752 L13.4577775,3.92825752 L13.4577775,3.92825752 L13.4577775,0 L13.4577775,0 Z M13.4577775,13.7489013 L14.189491,13.7489013 L14.189491,17.6771588 L13.4577775,17.6771588 L13.4577775,17.6771588 L13.4577775,13.7489013 L13.4577775,13.7489013 Z M2.48207482,17.6771588 L3.70159733,17.6771588 L3.70159733,19.6412876 L4.92111985,19.6412876 L4.92111985,21.6054164 L6.14064236,21.6054164 L6.14064236,23.5695451 L4.92111985,23.5695451 L4.92111985,25.5336739 L3.70159733,25.5336739 L3.70159733,27.4978026 L2.48207482,27.4978026 L2.48207482,25.5336739 L1.2625523,25.5336739 L1.2625523,23.5695451 L0.0430297852,23.5695451 L0.0430297852,21.6054164 L1.2625523,21.6054164 L1.2625523,19.6412876 L2.48207482,19.6412876 L2.48207482,19.6412876 L2.48207482,17.6771588 L2.48207482,17.6771588 Z M2.48207482,21.6054164 L3.70159733,21.6054164 L3.70159733,23.5695451 L2.48207482,23.5695451 L2.48207482,23.5695451 L2.48207482,21.6054164 L2.48207482,21.6054164 Z M9.79920991,17.6771588 L11.0187324,17.6771588 L11.0187324,19.6412876 L12.2382549,19.6412876 L12.2382549,21.6054164 L13.4577775,21.6054164 L13.4577775,23.5695451 L12.2382549,23.5695451 L12.2382549,25.5336739 L11.0187324,25.5336739 L11.0187324,27.4978026 L9.79920991,27.4978026 L9.79920991,25.5336739 L8.57968739,25.5336739 L8.57968739,23.5695451 L7.36016488,23.5695451 L7.36016488,21.6054164 L8.57968739,21.6054164 L8.57968739,19.6412876 L9.79920991,19.6412876 L9.79920991,19.6412876 L9.79920991,17.6771588 L9.79920991,17.6771588 Z M9.79920991,21.6054164 L11.0187324,21.6054164 L11.0187324,23.5695451 L9.79920991,23.5695451 L9.79920991,23.5695451 L9.79920991,21.6054164 L9.79920991,21.6054164 Z M0.0430297852,29.4619314 L1.2625523,29.4619314 L1.2625523,31.4260602 L0.0430297852,31.4260602 L0.0430297852,31.4260602 L0.0430297852,29.4619314 L0.0430297852,29.4619314 Z M13.4577775,27.4978026 L14.189491,27.4978026 L14.189491,31.4260602 L13.4577775,31.4260602 L13.4577775,31.4260602 L13.4577775,27.4978026 L13.4577775,27.4978026 Z M13.4577775,27.4978026" id="Shape"/><path d="M0.0430297852,35.2305207 L1.2625523,35.2305207 L1.2625523,33.266392 L2.48207482,33.266392 L2.48207482,31.3022632 L3.70159733,31.3022632 L3.70159733,29.3381345 L4.92111985,29.3381345 L4.92111985,27.3740057 L6.14064236,27.3740057 L6.14064236,25.4098769 L7.36016488,25.4098769 L7.36016488,27.3740057 L8.57968739,27.3740057 L8.57968739,29.3381345 L9.79920991,29.3381345 L9.79920991,31.3022632 L11.0187324,31.3022632 L11.0187324,33.266392 L12.2382549,33.266392 L12.2382549,35.2305207 L13.4577775,35.2305207 L13.4577775,37.1946495 L14.189491,37.1946495 L14.189491,45.0511646 L13.4577775,45.0511646 L13.4577775,47.0152933 L12.2382549,47.0152933 L12.2382549,48.9794221 L11.0187324,48.9794221 L11.0187324,50.9435508 L9.79920991,50.9435508 L9.79920991,52.9076796 L8.57968739,52.9076796 L8.57968739,54.8718084 L7.36016488,54.8718084 L7.36016488,59.9785431 L4.92111985,59.9785431 L4.92111985,58.8000659 L3.70159733,58.8000659 L3.70159733,56.8359371 L2.48207482,56.8359371 L2.48207482,54.8718084 L1.2625523,54.8718084 L1.2625523,52.9076796 L0.0430297852,52.9076796 L0.0430297852,47.0152933 L1.2625523,47.0152933 L1.2625523,48.9794221 L2.48207482,48.9794221 L2.48207482,50.9435508 L3.70159733,50.9435508 L3.70159733,52.9076796 L4.92111985,52.9076796 L4.92111985,50.9435508 L6.14064236,50.9435508 L6.14064236,48.9794221 L7.36016488,48.9794221 L7.36016488,47.0152933 L8.57968739,47.0152933 L8.57968739,45.0511646 L9.79920991,45.0511646 L9.79920991,43.0870358 L11.0187324,43.0870358 L11.0187324,41.122907 L9.79920991,41.122907 L9.79920991,39.1587783 L8.57968739,39.1587783 L8.57968739,37.1946495 L4.92111985,37.1946495 L4.92111985,39.1587783 L7.36016488,39.1587783 L7.36016488,41.122907 L6.14064236,41.122907 L6.14064236,43.0870358 L4.92111985,43.0870358 L4.92111985,45.0511646 L3.70159733,45.0511646 L3.70159733,43.0870358 L2.48207482,43.0870358 L2.48207482,41.122907 L1.2625523,41.122907 L1.2625523,39.1587783 L0.0430297852,39.1587783 L0.0430297852,39.1587783 L0.0430297852,35.2305207 L0.0430297852,35.2305207 Z M0.0430297852,43.0870358 L1.2625523,43.0870358 L1.2625523,45.0511646 L0.0430297852,45.0511646 L0.0430297852,45.0511646 L0.0430297852,43.0870358 L0.0430297852,43.0870358 Z M13.4577775,48.9794221 L14.189491,48.9794221 L14.189491,50.9435508 L13.4577775,50.9435508 L13.4577775,50.9435508 L13.4577775,48.9794221 L13.4577775,48.9794221 Z M11.0187324,52.9076796 L12.2382549,52.9076796 L12.2382549,54.8718084 L13.4577775,54.8718084 L13.4577775,56.8359371 L14.189491,56.8359371 L14.189491,59.9785431 L13.4577775,59.9785431 L13.4577775,58.8000659 L12.2382549,58.8000659 L12.2382549,56.8359371 L11.0187324,56.8359371 L11.0187324,56.8359371 L11.0187324,52.9076796 L11.0187324,52.9076796 Z M8.57968739,58.8000659 L9.79920991,58.8000659 L9.79920991,59.9785431 L8.57968739,59.9785431 L8.57968739,59.9785431 L8.57968739,58.8000659 L8.57968739,58.8000659 Z M8.57968739,58.8000659" id="Shape"/></g></g></g></g></svg>