<?xml version="1.0" ?><svg height="120px" version="1.1" viewBox="0 0 180 120" width="180px" xmlns="http://www.w3.org/2000/svg" xmlns:sketch="http://www.bohemiancoding.com/sketch/ns" xmlns:xlink="http://www.w3.org/1999/xlink"><title/><defs/><g fill="none" fill-rule="evenodd" id="Page-1" stroke="none" stroke-width="1"><g id="rectangle_eritrea"><rect fill="#CA4638" height="120" id="rect962-copy" width="180" x="0" y="0"/><path d="M0,120 L180,120 L180,60 L0,120 Z" fill="#4086CD" id="Rectangle-4"/><path d="M0,0 L180,60 L180,0 L0,0 Z" fill="#57BB63" id="Rectangle-4"/><path d="M36.5127385,83 L45.2192574,82.9650983 C45.2974923,81.5759439 44.1529129,80.2911663 42.410412,79.7852329 C50.9348211,79.6093879 58.3402906,76.4212133 59.6859503,74.3755415 C58.3542722,73.7984731 56.8145206,74.7272347 55.7168831,74.5134917 C58.3229776,73.3108229 66.1309463,68.2647902 64.8615236,62.8550988 C63.8747476,65.859781 60.8854615,68.3458975 59.6123786,69.0133839 C62.5290863,64.5912918 66.5118079,59.9873703 63.0564319,56.4222383 C63.2308824,58.4885165 61.7413976,60.7625582 61.0835507,60.9334153 C62.7754461,56.2610186 64.389774,50.3945907 60.7239978,46.5272942 C61.2053979,47.925091 61.0109722,51.8681771 60.3481283,52.0453535 C60.1440505,48.8681495 59.6010575,42.1853128 56.2498884,42.2803837 C57.3142318,43.2264319 57.7799846,45.808616 57.8036233,48.4167308 C57.0399071,46.6300094 56.171984,45.2847342 54.3156241,43.9653865 C52.8138217,41.0896804 50.1418081,38.7069424 47.4694608,37 C47.7694204,39.0932056 48.0177797,40.744635 50.9448087,42.9156248 C49.4187066,42.8208872 47.8929333,39.9322173 46.2619599,39.852105 C44.9645724,39.789611 43.9465034,41.0258565 41.8264723,40.3144926 C42.0611788,41.0132244 43.0502848,41.3227016 43.2590227,41.839604 C42.8049215,42.1527375 41.7269286,41.7907387 40.8307084,41.3246964 C42.0635088,43.0013883 43.9738023,43.9873244 45.5954557,43.6545795 C47.5240587,43.2842714 49.5918252,43.4800627 51.5640421,44.6006277 C51.0603319,44.8589131 49.0997683,44.8572499 47.8416668,44.7000199 C48.9852449,45.8561514 49.7522925,46.6223651 51.7408209,46.609733 C53.5169481,46.5981007 54.4481248,45.6636847 54.9042238,46.2424163 C56.0181762,47.5604341 56.7679092,48.8777869 57.6997518,50.4294925 C55.6413103,50.6565308 56.2618722,48.1049288 53.9693868,46.7998748 C52.6813209,49.4618396 55.4508786,52.6174357 57.3362048,53.9291375 C57.3615076,55.9299319 57.6544772,57.6039674 58.5044181,59.1274156 C59.0773738,60.2014433 59.8181222,61.3007336 59.538802,63.7246894 C58.4102037,62.9039609 57.3072418,60.1359579 57.7130692,57.9387072 C56.3004907,58.3233105 55.7481761,60.8034426 56.414016,62.0519887 C56.9113988,63.0023581 57.243319,64.8213232 56.669699,65.6344058 C56.1107266,66.3919753 56.052133,66.3072084 56.0594568,67.9330418 C56.079432,68.9060142 55.5351088,70.0564979 54.6485424,70.8586098 C54.8336464,70.1731735 55.0447175,68.9937708 54.8396383,68.2564777 C54.1388436,69.4435263 52.3806938,70.6717926 51.8270489,71.9479277 C51.28339,73.2270542 51.1455601,75.4425882 48.5144966,75.9535062 C45.1297013,76.6243173 43.9614848,77.2100298 41.7835244,78.0998984 C41.5418246,76.4481374 42.2652583,73.0036722 43.6485416,73.2001268 C44.9991952,73.4401306 49.0941085,71.791361 47.6292621,68.3468957 C47.3399544,69.432559 46.3748209,70.4919581 45.3314508,70.5388286 C46.4587172,69.0785377 48.4705506,67.5663901 47.4907679,65.1194965 C46.9461109,66.1596174 46.0895089,67.4078302 44.7904557,68.1102183 C46.1830574,65.4455938 44.9522548,64.648468 43.2986408,66.843059 C42.6740832,67.689715 42.2968851,69.3863501 41.900044,71.5410548 C41.250519,69.7885718 41.2934653,67.4816248 40.5237556,65.6084766 C39.7197536,63.5827496 41.5907627,63.0478988 42.4713373,63.2104467 C44.6273246,63.7851903 48.2305149,63.784857 47.9628464,60.2283691 C47.0316713,61.4313712 45.3986984,61.8030107 43.6352243,61.3698737 C45.6157631,59.9258729 47.1794888,57.2097249 44.9725621,55.79165 C44.8989872,57.2954884 43.7334344,58.9814878 42.1773663,59.7580055 C41.8131533,58.4891831 41.8131533,57.1425763 42.1254322,55.6663303 C41.2565126,56.5794683 40.6219673,58.4795423 40.1172607,60.6395632 C40.0793065,58.5044733 40.4838052,56.9660648 40.7837648,55.8175776 C41.2385336,54.139889 42.368796,55.2315334 44.0989809,55.3551916 C45.7652446,55.4495959 48.0593957,54.5301418 47.6209386,52.2740534 C47.0519802,53.1665834 45.8840975,53.5139553 44.690912,53.4195509 C46.1274614,52.5506221 48.6303519,51.0065625 47.2577238,48.6314704 C46.6811062,49.5309797 46.4943381,50.3005148 44.8254106,50.5764201 C45.2625342,49.5725308 45.3351127,48.1531276 46.630504,47.5906862 C44.3197074,47.1312899 42.9966834,48.6454324 42.3241857,51.0168665 C42.0515234,49.3727514 41.7269286,48.7674274 41.6623399,47.564757 C42.9114552,46.179589 43.0422935,43.4697587 40.3379872,42.8637681 C40.1775183,44.2615666 40.2251262,44.5946449 40.5327434,45.7328265 C39.2633208,44.9799115 37.4742102,44.5643945 36.2830241,45.6291147 C37.0900204,46.4987085 38.3391357,47.2642556 40.2644106,46.3158809 C39.8096418,47.8014328 38.6267777,47.5471387 37.0014641,46.9807043 C37.9948979,48.8438802 39.2486732,49.1749669 40.6322871,48.9602274 C41.3567205,50.8672808 41.3886811,52.3162694 39.2716427,55.0935832 C39.3695207,53.3676942 39.2466754,52.0819184 37.8733813,50.686448 C36.696509,49.5356342 35.7400312,50.7356466 37.5790798,53.2942296 C36.4634649,52.4738344 35.2007018,50.808778 34.8205061,49.1440515 C34.4526313,51.2006907 34.7838855,53.6246497 35.9241355,54.9835553 C35.3848061,55.5589605 34.7715663,54.9223895 33.8643604,53.5146186 C34.2076017,58.0198145 36.1325428,58.889075 38.7196635,57.8848573 C38.7932385,60.3576768 38.7932385,62.6473403 38.9403884,65.6344058 C37.4319298,63.4677339 35.5196368,61.8515411 34.4526313,61.4476596 C34.1217075,62.6596391 35.3724885,64.2386004 36.0712871,65.1201598 C35.0046104,64.8997708 32.6871561,63.1369837 32.6871561,63.1369837 C32.4541119,65.1447607 35.053884,67.0056101 36.7334651,67.8379709 C34.7595809,67.7522074 33.8886634,67.0056101 32.6135811,65.7813301 C32.6382179,71.3515795 38.6580724,70.384255 39.7863369,69.527295 C39.9334885,72.2697021 40.1432277,75.4399268 40.2903793,78.1823388 C38.5884931,77.8858254 38.7223257,77.3749041 37.2661334,77.2402786 C33.2244876,77.0830469 30.0184723,72.3960217 28.956791,68.9482318 C28.6521682,69.5156594 28.893868,70.1093495 28.6152154,70.8064215 C27.9590293,69.114106 27.1207384,66.9284892 25.9964679,65.911306 C26.282778,66.8979071 26.3130746,67.9004649 26.2135309,69.744361 C25.8276771,68.5496697 25.4687901,68.1833496 25.4428214,66.7808982 C25.4674582,65.7042124 26.4831956,64.9097432 26.4269337,63.3952691 C26.3853176,62.2896627 25.37524,59.8932944 25.2267565,58.0380977 C24.7376972,59.9474808 24.430746,61.9602424 23.6816773,63.1423032 C24.0538816,61.1032807 23.9345624,59.6961764 24.5642464,58.3239738 C25.2916758,56.8793064 25.9102416,55.5895442 25.4258439,54.1315781 C24.9614197,54.6946878 25.121221,55.2062691 23.9543707,56.5744838 C23.7009195,55.0866005 25.4631304,52.7051924 27.1733385,51.7478435 C28.3795091,51.1132657 29.8999516,48.8435485 28.9095153,47.2878567 C27.7752588,48.1012709 27.2658905,49.2002279 25.663548,51.0780323 C26.8064618,46.6170456 29.7761049,45.4499434 33.3313567,45.4346532 C34.1180457,45.4309936 35.7040766,45.1474473 36.1491899,44.1079913 C35.147102,44.4942561 33.96224,44.5434531 32.9078826,44.3327032 C33.6752623,43.207817 35.291256,43.3540781 36.7970508,43.3474304 C37.9782492,43.3417776 39.8222932,43.1818878 40.5677016,41.5022045 C39.1268244,42.1254785 36.8796153,42.2551211 35.4647068,41.8136748 C37.7149102,40.649564 41.2395317,40.5242443 43.0472873,38.9964732 C40.9868479,37.4610577 35.8309175,39.3541507 32.5742983,41.58431 C33.4845002,40.7532775 34.9230441,39.2790246 35.7167263,38.0889863 C33.935607,37.2363458 29.4312028,42.2188879 27.8794625,45.1793592 C26.4056266,46.0103901 25.8160255,47.3131193 25.2437358,48.222271 C26.0290944,45.5726034 26.1123232,43.6499266 26.7675095,41.4679661 C21.7153198,43.2044923 23.8153103,52.5250262 22.7163753,54.7548538 C22.8457148,52.293 22.7409777,49.1304212 21.7258719,47.4996032 C20.1697383,48.6849886 20.0441621,55.6616774 21.505147,61.4699325 C20.977569,59.9155688 19.9818052,58.4645837 19.6623368,56.5728206 C17.3592636,60.7668778 21.0124258,65.7148481 24.0671973,69.6233609 C21.7674536,68.4273397 19.4936114,65.8547931 18,63.6980985 C18.4122561,71.2046519 26.2631367,72.764335 27.4819554,74.6092259 C25.8276771,73.8403574 22.6650727,72.3189007 21.3230733,73.9131539 C23.5077586,74.4167609 25.2503952,74.9988155 26.6546502,75.9179379 C28.6921185,78.4579076 32.5503259,79.5688318 39.2696448,79.8493884 C37.5008432,80.3370403 36.4867698,81.7072448 36.5127385,83 Z" fill="#E5B731" id="Shape"/></g></g></svg>