<?xml version="1.0" ?><svg height="120px" version="1.1" viewBox="0 0 180 120" width="180px" xmlns="http://www.w3.org/2000/svg" xmlns:sketch="http://www.bohemiancoding.com/sketch/ns" xmlns:xlink="http://www.w3.org/1999/xlink"><title/><defs/><g fill="none" fill-rule="evenodd" id="Europe" stroke="none" stroke-width="1"><g id="Macedonia"><rect d="M0,0 L0,120 L180,120 L180,0 L0,0 Z M0,0" fill="#E5B731" height="120" id="Oval-1-copy-5" width="180" x="0" y="0"/><path d="M71.0655014,58.36955 L0,52.5284143 L0,22.6425884 L72.3544592,52.750258 C72.8563353,51.4604144 73.4881914,50.2355141 74.2339391,49.0916455 L11.3266602,0 L70,0 L83.2795549,41.5445694 C85.6550777,40.5496474 88.2633503,40 91,40 C92.8414841,40 94.6248402,40.2488752 96.318268,40.7148252 L110,0 L167.67334,0 L106.687122,47.5924862 C107.699641,48.8709064 108.559203,50.275997 109.238165,51.780115 L180.200195,22.6425884 L180.200195,52.5284143 L110.915376,58.1478328 C110.971378,58.7577103 111,59.3755127 111,60 C111,60.5464843 110.978082,61.0878493 110.935077,61.6232641 L180.200195,67.2410847 L180.200195,97.1269105 L109.324886,68.0249919 C108.657597,69.5465591 107.806356,70.9691257 106.799299,72.2645537 L167.67334,119.769499 L110,119.769499 L96.389126,79.2655368 C94.6746131,79.7441287 92.8671876,80 91,80 C88.23839,80 85.6075096,79.4402805 83.2146134,78.4280963 L70,119.769499 L11.3266602,119.769499 L74.1349954,70.7550673 C73.3944795,69.596279 72.7701172,68.3560923 72.2783233,67.0509222 L0,97.1269105 L0,67.2410847 L71.0483324,61.4013601 C71.0162883,60.9383994 71,60.4711019 71,60 C71,59.4510708 71.0221146,58.9073067 71.0655014,58.36955 L71.0655014,58.36955 Z M91,77 C100.388841,77 108,69.3888412 108,60 C108,50.6111588 100.388841,43 91,43 C81.6111588,43 74,50.6111588 74,60 C74,69.3888412 81.6111588,77 91,77 Z M91,77" fill="#CA4638" id="Oval-4"/><g id="Group"/></g></g></svg>