<?xml version="1.0" encoding="UTF-8" standalone="no"?>
<svg width="180px" height="120px" viewBox="0 0 180 120" version="1.1" xmlns="http://www.w3.org/2000/svg" xmlns:xlink="http://www.w3.org/1999/xlink">
    <!-- Generator: Sketch 40.3 (33839) - http://www.bohemiancoding.com/sketch -->
    <title>icon-flag-aq</title>
    <desc>Created with Sketch.</desc>
    <defs></defs>
    <g id="Page-1" stroke="none" stroke-width="1" fill="none" fill-rule="evenodd">
        <rect id="Rectangle" fill="#FFFFFF" x="0" y="0" width="180" height="120"></rect>
        <path d="M54.4427282,38.9103134 L64.6053217,44.763 L72.4710075,42.9809104 L72.7511072,41.3850896 L73.3916559,41.6644925 L73.2718055,41.1455373 L73.6717556,40.8665821 L75.5530025,40.1882239 L75.5530025,38.3528507 L76.1931022,37.6749403 L76.2774913,37.3507612 L68.8575411,24.5313582 C62.9323541,28.043597 57.9641746,32.9994179 54.4427282,38.9103134 Z M78.4745686,28.2194328 L78.4745686,26.1051045 L79.395217,26.1051045 L80.4756658,24.5092836 L81.7967132,24.1103284 L81.9565137,22.6340597 L83.7978105,20.3997313 L84.5981596,20.7986866 L88.3602045,19.4424179 L88.7606035,19.0434627 L88.9886334,18.816 C81.9686334,18.9480896 75.3750673,20.8457015 69.6343691,24.0816716 L76.599606,36.1157015 L76.9937207,34.6027164 L76.5933217,33.4058507 L78.4745686,28.897791 L78.4745686,28.2194328 Z M49.9583042,49.7133134 C49.1750125,52.7952537 48.7449875,56.0151045 48.7090773,59.3285373 L53.8698254,59.3285373 L53.7804988,58.6998806 L54.8609476,58.9394328 L55.381197,53.9124179 L55.5414464,53.7530149 L56.5819451,53.1145075 L55.2613466,53.2340597 L54.7406484,52.037194 L57.1421446,49.3645075 L54.980798,48.9655522 L53.3800998,50.5613731 L52.7395511,48.726 L51.7789526,50.0424179 L51.538803,49.1249552 L50.3385037,49.5239104 L49.9583042,49.7133134 Z M68.8577207,95.0210597 L75.14201,84.1632985 L73.7917855,83.4356866 L73.6719352,84.4727015 L70.7501895,83.1562836 L70.5899401,83.2758358 L69.1490424,83.8346418 L68.8689426,82.7573284 L65.3869975,81.0419552 L61.6649027,79.8450896 L61.0046035,76.863 L54.4429077,80.6421045 C57.9639052,86.5525522 62.9320848,91.5083731 68.8577207,95.0210597 Z M89.3266833,84.3900448 L89.000798,84.2337761 L83.6775561,83.0369104 L83.2771571,83.6749701 L81.3963591,83.8348209 L80.8761097,83.8348209 L80.0753117,85.1512388 L77.7941147,83.5554179 L76.5933666,83.9543731 L76.753616,85.0316866 L75.9326185,84.5888507 L69.634414,95.4703433 C75.4671322,98.7582537 82.1805486,100.663925 89.3266833,100.740493 L89.3266833,84.3900448 Z M53.9922344,79.8671194 L60.8784688,75.9012985 L59.5435062,73.4614478 L60.1840549,70.269806 L59.3787681,70.0024925 L58.9833067,70.9083134 L57.6627082,71.1877164 L58.4630574,70.110403 L59.3549776,69.9944328 L58.9833067,69.8708507 L58.5829077,68.5145821 L60.5844539,68.2750299 L59.6638055,68.2750299 L59.7836559,66.2802537 L56.8619102,67.1977164 L56.7420599,66.399806 L56.3416608,67.8760746 L54.7409626,68.5145821 L53.6600648,67.4771194 L53.2601147,66.399806 L52.8597157,64.2854776 L53.7803641,63.6071194 L54.1803142,64.1260746 L54.4608628,63.4875672 L53.9967232,60.2238358 L48.7089426,60.2238358 C48.7861496,67.352194 50.6961247,74.0489104 53.9922344,79.8671194 Z M106.490738,23.4318806 L108.892234,23.5912836 L109.077621,23.6212836 C107.499367,22.7794925 105.860065,22.038 104.167796,21.4044179 L104.209541,21.4371045 L104.489641,21.7165075 L106.490738,23.4318806 Z M90.2244389,100.740582 C94.8721197,100.690433 99.3362095,99.867 103.495062,98.3929701 L102.488678,97.7983433 L99.2868329,98.5962537 L96.4849377,96.8405821 L96.4849377,97.5189403 L95.8044389,96.6014776 L96.6052369,95.8035672 L96.4849377,93.4098358 L97.405586,93.4098358 L97.9657855,91.8140149 L98.6063342,91.5346119 L98.0860848,90.7367015 L98.8864339,90.4572985 L98.7661347,89.2604328 L97.9657855,88.8614776 L99.0062843,88.7419254 L98.3661845,85.8292388 L96.7650374,84.2334179 L95.8044389,84.6323731 L96.2048379,85.9492388 L92.8831421,85.9492388 L90.2244389,84.8132687 L90.2244389,100.740582 Z M94.6039152,20.0008209 L95.284414,19.3224627 L95.5645137,19.4424627 L99.1667581,20.2403731 L99.2866085,20.1203731 L99.5357357,19.9779851 C96.6121945,19.2642537 93.5674564,18.8639552 90.4383292,18.8142537 L90.4814214,19.0435075 L94.6039152,20.0008209 Z" id="Combined-Shape" fill="#062B5F"></path>
        <path d="M89.3266833,0.677328358 C78.8727681,0.755238806 69.0544638,3.54568657 60.545985,8.37926866 L69.1855362,23.3062836 C75.1506733,19.9422537 82.0171571,17.9931493 89.3266833,17.9161343 L89.3266833,17.144194 L89.2808978,16.9288209 L89.3266833,16.9288209 L89.3266833,0.677328358 L89.3266833,0.677328358 Z M119.781112,8.8299403 L111.280713,23.5160597 L112.21393,23.1923284 L112.37418,24.389194 L113.174529,24.9081493 L113.815077,23.7112836 L114.615426,23.7112836 L115.109641,26.4211343 C115.311636,26.5738209 115.512733,26.7269552 115.711586,26.8832239 L115.816175,26.9029254 L115.809441,26.9620299 C116.102559,27.1939701 116.392085,27.4303881 116.678918,27.6699403 L117.416873,27.3018806 L118.897721,26.7833731 L123.020214,28.2193433 L123.820564,27.9802388 L124.101112,29.416209 L125.181561,29.5760597 L124.901461,28.8977015 L125.82211,28.8977015 L126.102209,30.3739701 L127.182658,29.1771045 L129.704005,30.7729254 L130.384504,33.6851642 L129.304055,33.9645672 L129.584155,36.1984478 L129.642958,36.2987463 L140.848743,29.8451642 C135.729292,21.1863582 128.46196,13.9366567 119.781112,8.8299403 L119.781112,8.8299403 Z M137.34386,59.3283582 L149.021865,59.3283582 C148.943761,48.9004478 146.145905,39.1065672 141.300269,30.6192537 L130.068,37.0880597 L132.785955,43.9383582 L131.305107,45.2552239 L131.185257,46.8510448 L130.105706,48.1777612 C130.133985,48.2749254 130.161815,48.3720896 130.189197,48.4692537 L131.305107,49.2447761 L130.784858,49.6437313 L131.985606,50.840597 L133.826454,51.1195522 L134.387102,51.9179104 L134.907352,52.9549254 L136.22795,53.5137313 L137.829097,52.4364179 L138.909546,52.5559701 L137.588948,54.431194 L138.909546,57.9022388 L137.308399,59.2186567 L137.34386,59.3283582 L137.34386,59.3283582 Z M90.2244389,118.87491 C100.678354,118.797 110.496658,116.006552 119.005137,111.17297 L111.485985,98.1816269 L109.692718,99.2343134 L108.091571,98.715806 L105.169825,99.2343134 L104.590324,98.9455075 C100.114115,100.635806 95.2747631,101.582821 90.2244389,101.636104 L90.2244389,118.87491 L90.2244389,118.87491 Z M119.005047,8.37944776 C110.496569,3.54586567 100.678713,0.75541791 90.2243491,0.677507463 L90.2243491,17.6852687 L90.2683392,17.9167612 C93.8544239,17.9579552 97.3332269,18.4500448 100.651781,19.3388507 L101.167541,19.0433284 L101.212429,19.4906418 C104.437616,20.4027313 107.504798,21.6927313 110.365496,23.3064627 L119.005047,8.37944776 L119.005047,8.37944776 Z M89.3266833,118.87491 L89.3266833,101.636104 C82.0171571,101.55909 75.1506733,99.6099851 69.1855362,96.2459552 L60.545985,111.17297 C69.0544638,116.006552 78.8727681,118.797 89.3266833,118.87491 L89.3266833,118.87491 Z M140.848788,89.7070299 L130.713576,83.8700149 L130.624698,84.0737463 L132.505945,85.0315075 L129.70405,85.2710597 L130.384549,86.7468806 L129.023551,88.0637463 L126.902603,88.4627015 L126.222105,89.6595672 L127.823252,90.4574776 L124.781207,93.2501642 L125.701855,94.7264328 L123.300359,94.2074776 L120.618763,95.8032985 L117.016968,97.5191194 L116.21617,98.7159851 L115.69592,98.3170299 L116.21617,97.1201642 L113.815122,98.0376269 L113.294873,97.1201642 L112.259761,97.7273284 L119.781157,110.722254 C128.461556,105.615537 135.729337,98.3662836 140.848788,89.7070299 L140.848788,89.7070299 Z M149.021731,60.2238806 L137.631905,60.2238806 L137.988763,61.3329851 L137.588813,63.208209 L138.389162,64.2855224 L140.510559,64.6844776 L138.389162,67.5967164 L138.789561,68.1156716 L139.30981,68.6740299 L138.389162,70.1104478 L139.30981,70.668806 L134.627117,74.4989552 L135.707566,77.1720896 L135.427466,78.7679104 L133.826319,79.2864179 L133.426369,80.6426866 L131.585072,81.4410448 L131.063925,83.0373134 L141.300584,88.9329851 C146.146219,80.4456716 148.943626,70.651791 149.021731,60.2238806 L149.021731,60.2238806 Z M59.77001,110.722299 L68.4091122,95.7966269 C62.3474663,92.2051343 57.2657207,87.1360299 53.6652718,81.0894627 L38.7023791,89.7070746 C43.8218304,98.3658806 51.0891621,105.615582 59.77001,110.722299 L59.77001,110.722299 Z M53.2148678,80.3148358 C49.8424489,74.3649851 47.8884838,67.5151343 47.8112768,60.223791 L30.5294813,60.223791 C30.607586,70.6521493 33.4049925,80.4455821 38.2506284,88.9328955 L53.2148678,80.3148358 L53.2148678,80.3148358 Z M30.5291671,59.3283134 L47.8109626,59.3283134 C47.8554015,55.1377164 48.5174963,51.0926418 49.7151022,47.280403 L49.6580948,47.2499552 L49.9381945,46.571597 L49.2576958,46.731 L49.1373965,45.3747313 L50.3646284,45.3747313 C50.4602394,45.1154776 50.5594414,44.8580149 50.65999,44.601 L49.2576958,42.1830896 L48.4573466,42.4624925 L47.9370973,41.5445821 L47.6565486,42.3424925 L46.8561995,41.7841343 L47.6565486,41.2656269 L46.4562494,40.8666716 L46.7363491,40.1883134 L45.7757506,39.669806 L45.535601,37.5550299 L44.5750025,37.2756269 L45.135202,36.8766716 L44.0547531,34.0839851 L44.0695661,33.9707015 L38.2507631,30.619209 C33.4051272,39.1065224 30.6077207,48.900403 30.5291671,59.3283134 L30.5291671,59.3283134 Z M38.7025137,29.8454328 L44.1972269,33.0097612 L44.5747332,30.373791 L45.3755312,30.373791 L45.1353815,32.0891642 L46.9174264,34.5764776 L51.731192,37.3490149 L51.9390224,36.9966269 L52.7321895,37.9252836 L53.6654065,38.462597 C57.2658554,32.4160299 62.3471521,27.3469254 68.408798,23.7558806 L59.7701446,8.82976119 C51.0892968,13.9364776 43.8219651,21.1861791 38.7025137,29.8454328 L38.7025137,29.8454328 Z" id="Combined-Shape" fill="#062B5F"></path>
        <path d="M95.0998402,6.70264636e-07 C104.003072,0.748313035 112.364056,3.42875444 119.752141,7.63233735 L124.164382,6.70264636e-07 L95.0998402,6.70264636e-07 Z M60.24741,7.63251713 C67.6354952,3.42893422 75.9964785,0.748043373 84.8997106,0.000180445007 L55.8351688,0.000180445007 L60.24741,7.63251713 Z M84.8998006,119.999641 C75.9965685,119.251329 67.6355852,116.570887 60.2475,112.367304 L55.8352588,119.999641 L84.8998006,119.999641 Z M119.752231,112.367125 C112.364146,116.570708 104.003162,119.251598 95.0999302,119.999461 L124.164472,119.999461 L119.752231,112.367125 Z M179.99964,60.4492578 L150.29385,60.4492578 C150.21555,71.0797877 147.367056,81.063578 142.432816,89.7152375 L179.99964,111.377195 L179.99964,60.4492578 Z M142.432636,30.2845841 C147.367326,38.9357941 150.21582,48.9195844 150.29412,59.5505638 L179.99946,59.5505638 L179.99946,8.62217708 L142.432636,30.2845841 Z M59.4694515,111.914901 C50.6305692,106.709973 43.231234,99.3198829 38.0197944,90.4920441 L-0.000179551122,112.415574 L-0.000179551122,119.999821 L54.7957609,119.999821 L59.4694515,111.914901 Z M141.979846,90.4920441 C136.768407,99.3198829 129.369072,106.709973 120.530189,111.914901 L125.20388,119.999821 L179.99982,119.999821 L179.99982,112.415574 L141.979846,90.4920441 Z M38.0197944,29.5075977 C43.231234,20.6797589 50.6305692,13.2896687 59.4694515,8.08474049 L54.7957609,-0.000179104478 L-0.000179551122,-0.000179104478 L-0.000179551122,7.58406783 L38.0197944,29.5075977 Z M120.530189,8.08474049 C129.369072,13.2896687 136.768407,20.6797589 141.979846,29.5075977 L179.99982,7.58406783 L179.99982,-0.000179104478 L125.20388,-0.000179104478 L120.530189,8.08474049 Z M4.48517806e-07,59.550384 L29.705791,59.550384 C29.7840909,48.9198541 32.6325852,38.9360638 37.5668253,30.2844043 L4.48517806e-07,8.62244675 L4.48517806e-07,59.550384 Z M37.5670053,89.7150577 C32.6323152,81.0638477 29.7838209,71.0800574 29.705521,60.449078 L0.000180448158,60.449078 L0.000180448158,111.377465 L37.5670053,89.7150577 Z" id="Combined-Shape" fill="#062B5F"></path>
    </g>
</svg>