<?xml version="1.0" encoding="UTF-8"?>
<svg width="24px" height="16px" viewBox="0 0 24 16" version="1.1" xmlns="http://www.w3.org/2000/svg" xmlns:xlink="http://www.w3.org/1999/xlink">
    <!-- Generator: Sketch 41.2 (35397) - http://www.bohemiancoding.com/sketch -->
    <title>icon-flag-1918</title>
    <desc>Created with Sketch.</desc>
    <defs></defs>
    <g id="Page-1" stroke="none" stroke-width="1" fill="none" fill-rule="evenodd">
        <rect id="Rectangle-1-Copy" fill="#D4D4D4" x="0" y="0" width="24" height="16"></rect>
        <path d="M6.59409795,9.93709953 L7.39134913,9.93709953 L7.39134913,5.39208636 L6.69630964,5.39208636 L5.388,6.71402422 L5.85135966,7.19782622 L6.59409795,6.42783149 L6.59409795,9.93709953 Z M8.37939547,9.50781043 C8.68603054,9.8144455 9.12213375,10.0120548 9.680891,10.0120548 C10.9960147,10.0120548 11.6842401,8.97630964 11.6842401,7.668 C11.6842401,6.40057504 11.1459252,5.31713112 9.81035914,5.31713112 C8.79505635,5.31713112 8.13408741,6.0053565 8.13408741,6.84349236 C8.13408741,7.81109637 8.84275513,8.31534071 9.66044866,8.31534071 C10.1919494,8.31534071 10.6689373,7.98144918 10.8801748,7.67481411 L10.8801748,7.81109637 C10.8801748,8.55383465 10.5053986,9.30338705 9.680891,9.30338705 C9.2516019,9.30338705 8.9858515,9.15347657 8.74735756,8.90816851 L8.37939547,9.50781043 Z M10.8665466,7.09561453 C10.6416809,7.42269194 10.2600906,7.62711532 9.87168615,7.62711532 C9.38107004,7.62711532 8.94496682,7.37499315 8.94496682,6.81623591 C8.94496682,6.45508794 9.25841601,6.02579884 9.85124381,6.02579884 C10.5530974,6.02579884 10.8256619,6.60499842 10.8665466,7.09561453 Z M13.2787425,9.93709953 L14.0759937,9.93709953 L14.0759937,5.39208636 L13.3809542,5.39208636 L12.0726445,6.71402422 L12.5360042,7.19782622 L13.2787425,6.42783149 L13.2787425,9.93709953 Z M14.8459884,8.77188626 C14.8459884,9.58957978 15.6568678,10.0188689 16.5904013,10.0188689 C17.5171206,10.0188689 18.328,9.58276567 18.328,8.77188626 C18.328,8.19268668 17.8578262,7.7770258 17.3058831,7.59304476 C17.8169415,7.42950606 18.2598589,7.09561453 18.2598589,6.51641496 C18.2598589,5.67827909 17.3876524,5.32394523 16.5904013,5.32394523 C15.7795219,5.32394523 14.9209437,5.67827909 14.9209437,6.51641496 C14.9209437,7.09561453 15.3570469,7.42950606 15.8681053,7.59304476 C15.3161622,7.7770258 14.8459884,8.19268668 14.8459884,8.77188626 Z M17.4489795,6.63906898 C17.4489795,7.06835808 16.8697799,7.23189679 16.5904013,7.27959558 C16.3110226,7.23189679 15.725009,7.06835808 15.725009,6.63906898 C15.725009,6.25747867 16.092971,6.03261295 16.5904013,6.03261295 C17.0742033,6.03261295 17.4489795,6.25747867 17.4489795,6.63906898 Z M17.5239347,8.66967457 C17.5239347,9.0648931 17.0946456,9.31020116 16.5904013,9.31020116 C16.0725287,9.31020116 15.6500537,9.0648931 15.6500537,8.66967457 C15.6500537,8.19950079 16.3042085,7.9882633 16.5904013,7.95419273 C16.8697799,7.9882633 17.5239347,8.19950079 17.5239347,8.66967457 Z" id="1918" fill="#000000"></path>
    </g>
</svg>