<?xml version="1.0" encoding="UTF-8" standalone="no"?>
<svg width="180px" height="120px" viewBox="0 0 180 120" version="1.1" xmlns="http://www.w3.org/2000/svg" xmlns:xlink="http://www.w3.org/1999/xlink">
    <!-- Generator: Sketch 40.3 (33839) - http://www.bohemiancoding.com/sketch -->
    <title>icon-flag-sv</title>
    <desc>Created with Sketch.</desc>
    <defs></defs>
    <g id="Page-1" stroke="none" stroke-width="1" fill="none" fill-rule="evenodd">
        <g id="icon-flag-sv">
            <rect id="Rectangle-57" fill="#FFFFFF" transform="translate(90.000000, 60.000000) scale(-1, 1) translate(-90.000000, -60.000000) " x="0" y="0" width="180" height="120"></rect>
            <rect id="Rectangle-57" fill="#4086CD" x="0" y="0" width="180" height="40"></rect>
            <rect id="Rectangle-57" fill="#4086CD" x="0" y="80" width="180" height="40"></rect>
            <path d="M70.2778929,53.9801415 L70.4397425,53.9388784 C70.379426,54.0177901 70.2601841,54.1760814 70.2317034,54.4569667 C70.1201497,54.6598903 70.0107493,54.8637543 69.9051844,55.0655347 C69.772026,55.0946103 69.6299348,55.1247613 69.5638229,55.1359264 C69.4898298,55.1525867 69.3750228,55.2060338 69.2653751,55.2726212 C69.2482462,55.1217237 69.2311899,55 69.2311899,55 C69.1880528,55.0117605 69.1009097,55.1019616 69.0009658,55.2285166 C68.9507497,55.0982214 68.9127475,55 68.9127475,55 C68.9456637,55.197951 68.5073998,55.8861573 68.4825688,56.0465826 C68.4692673,56.1151482 68.4532291,56.1867954 68.4388396,56.2652653 C68.4148242,56.3476699 68.4,56.431561 68.4,56.5037642 C68.4000414,56.5501365 68.4000739,56.5994466 68.4000994,56.6483007 C68.4000335,56.6550601 68.4,56.6618695 68.4,56.6687299 C68.4,56.6791722 68.4000388,56.6895552 68.400124,56.6998777 C68.4001389,56.7342603 68.4001506,56.767796 68.4001597,56.7992456 C68.3999323,56.8252571 68.399956,56.8508752 68.4001784,56.8760222 C68.4001929,56.950034 68.4001929,56.9999981 68.4001929,56.9999981 L68.4002122,57 C68.4008923,56.9978391 68.4016825,56.9956722 68.4025807,56.9935001 C68.4073204,57.1462259 68.4169315,57.2735958 68.4169315,57.3540302 C68.4169315,57.5510005 68.4169315,57.3540302 68.4169315,57.3540302 C68.4169315,57.5510005 68.4409428,58 68.4409428,58 C68.5385704,57.9334861 68.6307214,57.7860497 68.7136852,57.6168864 C68.7313816,57.7165399 68.740206,57.8193282 68.7490766,57.8933162 C68.6150712,58.5690875 68.5059099,59.3476713 68.4471616,60.2309902 C68.3969973,60.4657931 68.3975267,60.7609738 68.4017634,60.9079821 C68.4000002,60.9640898 68.4,61 68.4,61 C68.4,61 68.4018696,60.9979695 68.4053042,60.9945726 C68.4055065,60.9981401 68.4056248,61 68.4056248,61 C68.4056248,61 68.4071978,60.999509 68.410204,60.9985576 C68.4035119,61.2199793 68.4,61.4472151 68.4,61.6802901 C68.4,61.8988513 68.4150438,62.1331841 68.4409177,62.3750885 C68.4040963,62.5470737 68.3848759,62.7483682 68.4145185,62.9241654 C68.4581886,63.1831839 68.4332338,63.2757561 68.4332338,63.5069945 C68.4332338,63.6180057 68.4879174,63.9145827 68.5589524,64.2190906 C68.5488063,64.2477577 68.5369588,64.2763887 68.5227379,64.3094365 C68.4825219,64.2323774 68.4433176,64.1627212 68.4107037,64.1100759 C68.3619747,64.0353042 68.2883643,63.992025 68.2133168,63.95967 C68.168751,63.7144594 68.1287642,63.4980604 68.1104051,63.4080709 C68.0570379,63.1457759 67.9275746,62.9863757 67.8741951,62.8551094 C67.8208138,62.7240698 67.8208138,62.7522037 67.7447387,62.3680023 C67.6610265,61.9744323 67.447512,61.9744323 67.3943133,61.8433905 C67.3409285,61.7121351 67.0513302,61.5808687 66.8913725,61.4871071 C66.7390415,61.3935722 66.6322807,61 66.6322807,61 C66.6322807,61 66.6322807,61.6462806 66.6019603,62.0398527 C66.5790786,62.433209 66.7619197,62.6580102 66.8684978,62.7517719 C66.9292791,62.8103631 67.0073114,62.993505 67.0674687,63.1887909 C67.0665631,63.1880067 67.0656625,63.1872174 67.064767,63.1864231 C66.9244856,63.0619998 66.6024206,63 66.6024206,63 C66.5776221,63.1242084 66.7509625,63.807899 66.7757515,63.9856445 C66.8086145,64.1720696 67.0317213,64.5451226 67.1224209,64.6337834 C67.2050636,64.7315293 67.3207406,64.8826096 67.5188701,65.095702 C67.6890862,65.2789252 68.0508797,65.4803346 68.5109641,65.5450474 C68.5823585,65.7916851 68.5959251,66 68.5959251,66 C68.6198507,65.7989715 68.5932875,65.6689086 68.603877,65.5560839 C68.672419,65.5627359 68.7428971,65.566298 68.815027,65.566298 C68.9627684,65.566298 69.067348,65.6010062 69.1405621,65.6507853 C69.1434764,65.6629252 69.1461711,65.674384 69.1486353,65.6851407 C69.1959627,65.8867702 69.2542132,66.1205343 69.3211776,66.3732902 C69.2289255,66.7872527 69.4653459,67.1021734 69.5084502,67.1711498 C69.5187539,67.1876383 69.5290508,67.2090296 69.5389405,67.2353886 C69.5035368,67.1755089 69.4683014,67.1366495 69.4371429,67.1276906 C69.3345098,67.1057237 69.2316924,66.8698289 69.0996831,66.5896604 C68.9748288,66.3094936 68.6961349,66.2580265 68.3658453,66.2063845 C68.1895985,66.1768913 67.5,66 67.5,66 C67.7493364,66.1842476 67.8521386,66.869659 68.0355558,67.1793377 C68.0720186,67.247908 68.2186712,67.3704763 68.3317112,67.4958922 C68.2470208,67.4473257 68.1331283,67.370887 67.9737949,67.2480935 C67.4429646,66.8549251 66.6,67.046825 66.6,67.046825 C66.6843664,67.1137753 67.2995553,67.7178083 67.3839101,68.0533994 C67.4764936,68.3791578 67.7968547,68.9831952 67.8812114,69.0503621 C67.9740086,69.1175333 68.2353094,69.4816899 68.4122554,69.6831859 C68.5892053,69.8844522 69.288749,69.7791347 69.5247535,69.7791347 C69.7607579,69.7791347 70.2243108,70.1243286 70.1990047,69.9516168 L70.1989853,69.9516035 C70.1654369,69.7791237 70.1989853,69.9516035 70.1989853,69.9516035 C70.1654369,69.7791237 69.7860445,69.2134711 69.7269958,68.87788 C69.7153434,68.8135546 69.6708721,68.7279623 69.6060813,68.631484 C69.8118508,68.735635 70.0823555,68.9187714 70.1707148,68.9796685 C70.292059,69.2677511 70.4156899,69.5212985 70.5376872,69.7169903 C70.6603069,69.9146111 70.8835303,70.1783209 71.1806274,70.480567 C71.2146958,70.598589 71.2557668,70.7079575 71.296074,70.766993 C71.4258377,70.9574472 71.7013952,71.1559791 71.9686398,71.2553469 C71.9931691,71.2644425 72.0183107,71.2743756 72.04384,71.284967 C72.3880967,71.5834145 72.7708475,71.8936975 73.1750666,72.1982664 C72.948649,72.1665638 72.8405867,72.1463069 72.7593299,72.1286569 C72.6933338,72.076535 72.6426774,72.0385137 72.6161589,72.0223373 C72.6161589,72.0223373 72.7750112,72.1192375 72.6161589,72.0223373 C72.4573138,71.9351361 72.1632968,71.8094136 71.9726373,71.7319047 C71.7740307,71.6640835 71.2575544,71.2089385 71.0510005,71.2089385 C70.8444467,71.2089385 70.4551805,71.1895496 70.2804337,71.0250826 C70.0977343,70.8506825 70.2565793,71.6350202 70.4551824,71.8576249 C70.5568825,71.9680569 70.6321264,72.0563987 70.6886661,72.127335 C70.4969959,72.1470267 70.3334017,72.1512461 70.2553048,72.1177497 C70.0424515,72.0313436 70.4937296,72.3334733 70.7662235,72.4075368 C71.1578414,72.5124594 71.1069144,72.6974662 71.5326014,72.7960754 C71.9838599,72.900998 72.4607095,73.0304607 72.7246861,72.9935781 C72.9290221,72.962719 73.0824115,72.8948267 73.3717633,72.8763116 C73.3815629,72.875445 73.3923011,72.8744406 73.4039002,72.8733021 C73.5281456,72.9007029 73.6607433,72.9409768 73.8,73 C73.8,73 73.7293477,72.9392892 73.6222671,72.8479926 C73.7359197,72.8332703 73.8688407,72.8139543 74.0017619,72.7909655 C74.5085872,73.1358033 75.0298892,73.4560027 75.5368325,73.7218409 C75.6589126,73.7870835 75.9196342,73.9068675 76.2591928,74.0485344 C76.4642933,74.0249785 76.7771625,74.0066671 76.9618204,74.001481 C76.8018537,73.9427637 76.6424708,73.8821352 76.4877171,73.8207065 C76.5595447,73.8390974 76.62339,73.8526269 76.6687301,73.8585843 C76.8662187,73.8959147 76.6687301,73.8585843 76.6687301,73.8585843 C76.8662187,73.8959147 77.3432213,74.0784622 77.3956107,73.9612503 C77.4480001,73.8440384 77.0164511,73.5324047 76.8978468,73.3459765 C76.7794373,73.1593312 76.70036,73.122003 76.5898511,73.0195669 C76.4793442,72.9262303 76.1632457,72.6744815 75.9578547,72.4504994 C75.8404135,72.317435 75.6866234,72.1975726 75.536392,72.1163793 C75.3867014,72.0806128 75.12012,72.0215124 74.9281013,72.004632 C74.8036992,72.0129715 74.7004915,72.0313386 74.7000018,72.0494792 C74.6997932,72.0577375 74.7023505,72.067174 74.7079871,72.0778912 C74.7504942,72.155586 74.7987262,72.2373573 74.849345,72.3196641 C74.9098053,72.4867364 75.0231638,72.7359521 75.2863277,73.0659903 C75.4333914,73.2497872 75.5923741,73.3917116 75.7320511,73.4932239 C75.6504966,73.4537885 75.5739045,73.4148438 75.5033796,73.3766933 C75.1515306,73.1828067 74.7743163,72.9480961 74.4104006,72.7041816 C74.5810411,72.6578915 74.7014397,72.6051901 74.699987,72.5494997 C74.6964936,72.4155742 74.3975586,72.3562938 73.8008208,72.2785917 C73.5641751,72.1065725 73.3452334,71.9390521 73.157543,71.7871101 C73.3207581,71.8089546 73.4316413,71.7861333 73.8,72 C73.8,72 73.1842039,71.3052311 73.0625626,71.2141391 C73.0625626,71.2141391 73.1842039,71.3052311 73.0625626,71.2141391 C72.949212,71.1230528 72.6574282,70.9079501 72.5033456,70.7671837 C72.3737743,70.6514527 72.2440013,70.3949591 71.8469911,70.2955913 C71.6921763,70.2579142 71.3360226,70.1859486 71.1816528,70.0611203 C70.8486902,69.67119 70.5435532,69.1729095 70.2214664,68.3911095 C70.1712146,68.2697702 70.1217696,68.1461932 70.0731771,68.0208076 C70.0768962,67.7376378 70.0959926,67.5004234 70.0961445,67.46329 C70.0961445,67.3046897 70.1257411,67.2043904 70.1257411,66.9371181 C70.1257411,66.678411 70.0217074,66.4780087 70.0514822,66.3024858 C70.0738125,66.1273518 70.1257411,66.0103456 70.0961445,65.6929333 C70.0738125,65.3757133 69.9993771,65 69.9993771,65 C69.9697736,65.3170081 69.7613513,65.3170081 69.6573176,65.6344205 C69.5829141,65.8850824 69.5605724,65.868465 69.4269003,66.102023 C69.2821328,65.6110359 69.1520732,65.1239933 69.0390327,64.6625646 C69.0902324,64.5214237 69.1721463,64.3256923 69.1842241,64.2178874 C69.2316099,63.8352732 69.3735987,63.4125903 69.2519176,63 C69.2519176,63 69.1489075,63.0523861 69.0561705,63.1087251 C69.0878678,63.0341507 69.1203419,62.9678619 69.1499256,62.9239522 C69.2372659,62.7943363 69.2372659,62.350376 69.280788,62.220984 C69.3182202,62.0913681 69.2995034,61.2219855 69.2372659,61 C69.2372659,61 69.0627261,61.1942032 68.9753916,61.3513775 C68.8881994,61.5087671 68.7384722,61.5735761 68.6949558,61.7677815 C68.6614375,61.9170025 68.6022825,61.9516952 68.5483847,62.0475621 C68.5447363,61.9993846 68.5423416,61.9555615 68.5412306,61.9163743 C68.5348207,61.6413991 68.5377306,61.3132144 68.5523442,60.9511499 C68.5783189,60.9421296 68.6067103,60.9320822 68.6366414,60.9211998 C68.7084155,60.8889122 68.797521,60.7811725 68.8590822,60.6752456 C68.8839892,60.6540638 68.9160605,60.6308247 68.9599026,60.6045982 C69.0835652,60.5350183 69.0938991,60.3757957 69.1909253,60.0863536 C69.2184827,60.049191 69.2420412,60.0143919 69.2574215,59.9842354 C69.305698,59.9028021 69.3059019,59.7278947 69.2921532,59.5733276 C69.3111441,59.2811043 69.2896939,59 69.2896939,59 C69.2896939,59 69.275562,59.022437 69.2524774,59.0578076 C69.2549274,59.022648 69.2574215,59 69.2574215,59 C68.8651037,59.2210286 68.7778097,59.6050968 68.6261264,59.8609451 C68.6930742,59.1526899 68.8019011,58.3970076 68.965027,57.6945965 C69.0778489,57.5168191 69.2022895,57.3329922 69.2599782,57.2252703 C69.3252592,57.1051691 69.2991384,56.9260135 69.2629945,56.7594637 C69.3504121,56.5438431 69.4539322,56.3093402 69.5682772,56.0638523 C69.6522658,55.9606924 69.7272725,55.8466862 69.8566743,55.7760927 C70.0324237,55.68001 70.1413448,55.3359116 70.2,55 C70.2,55 70.1505585,55.0112013 70.0784557,55.0272768 C70.1295507,54.9278259 70.1811822,54.8283303 70.2330573,54.7292283 C70.2398738,54.7968936 70.2515553,54.8694736 70.2691419,54.9472686 C70.2691419,54.9472686 70.1135726,54.2591034 70.2691419,54.9472686 L70.2691486,54.9472686 C70.3080987,55.1392872 70.5902661,54.7552499 70.6534357,54.6193136 C70.7216002,54.4751613 70.8238499,54.2591219 70.8238499,54.2591219 C70.8238499,54.2591219 70.9479238,54.0118755 71.007698,53.8650323 C71.0375448,53.854999 71.0611409,53.8436536 71.0754741,53.8308409 C71.1734339,53.7432784 71.3416512,53.6304993 71.4396094,53.5866539 C71.5375692,53.5492129 71.7057865,53.3488728 71.7338229,53.2611675 C71.7546832,53.1736036 71.9299169,53.0044429 72,53.0044429 C72,53.0044429 71.7338229,52.9793822 71.4397708,53.0482985 C71.3351081,53.0710891 71.2136693,53.1030623 71.0968471,53.1429893 C71.096816,53.1424662 71.0967848,53.1419442 71.0967533,53.1414233 C71.4753683,52.4675228 71.7519406,52 71.7519406,52 C71.5471941,52.2776883 71.3165425,52.6240764 71.0765845,53.0093264 C71.0721667,52.9999072 71.0673124,52.997328 71.0621922,53.0029416 C71.0270699,53.0397847 70.9351699,53.1249735 70.8624691,53.1881417 C70.8688536,53.1638047 70.8780472,53.1418283 70.8921368,53.1230997 C70.9583081,53.0230173 71.1426091,52.7768391 71.0910003,52.6153478 C71.0395715,52.4538582 70.9437354,52 70.9437354,52 C70.9437354,52 70.7596076,52.1845919 70.6344563,52.32316 C70.5019356,52.4538529 70.4798202,52.5616296 70.428225,52.723121 C70.3767962,52.8846105 70.2735872,52.9923855 70.2219767,53.123082 C70.170373,53.2537749 70.2219767,53.523043 70.2512885,53.6845343 C70.2641031,53.7781015 70.2620681,53.8691465 70.2580893,53.9291809 C70.2226975,53.9726662 70.2,54 70.2,54 L70.2529817,53.9864925 C70.2519734,53.9952314 70.2512885,54 70.2512885,54 C70.2512885,54 70.2610329,53.9927941 70.2778929,53.9801415 L70.2778929,53.9801415 Z M68.3571854,60.7911515 C68.4096172,60.9349946 68.3229019,61.058285 68.3326941,60.9707325 L68.3326978,60.9707325 C68.3408212,60.8421292 68.3326978,60.9707325 68.3326978,60.9707325 C68.339697,60.8599267 68.431157,60.6370579 68.3888904,60.5098651 C68.4193796,60.0800093 68.3769985,59.6617528 68.3811207,59.4829626 C68.3922732,59.2346726 68.3310674,59.0414071 68.314338,58.9127753 C68.303192,58.7749495 68.370103,58.7933461 68.308765,58.4346345 C68.264155,58.1679692 68.1416125,58.0851296 68.1304536,57.9472954 C68.1137216,57.8184559 68.0133569,57.791073 67.9131181,57.4599562 C67.8517839,57.285083 67.7403926,57 67.7403926,57 C67.7403926,57 67.6121409,57.4505248 67.5286301,57.7908399 C67.4505589,58.1311549 67.5509351,58.5264646 67.6065653,58.6461101 C67.6289568,58.6940681 67.6459534,58.7969024 67.6593519,58.9206713 C67.6164771,58.8107349 67.5749666,58.6521242 67.4964828,58.5670252 C67.3910345,58.4611043 67.1555677,58.393024 67.0580537,58.2570324 C66.9688672,58.1286068 66.7008957,58 66.7008957,58 C66.6440116,58.0907819 66.6196434,58.6577966 66.6033818,58.8089185 C66.5790042,58.96003 66.6927686,59.3002851 66.7413328,59.3984519 C66.798215,59.4892337 66.8630296,59.6403452 66.9849211,59.8519953 C67.1066311,60.0710147 67.4800321,60.3885752 68.0240965,60.5396972 C68.0929756,60.5591425 68.148982,60.5830804 68.194321,60.60973 C68.2619638,60.7941015 68.3140735,61 68.3140735,61 C68.331597,60.9321716 68.3457805,60.8621982 68.3571854,60.7911515 L68.3571854,60.7911515 Z M78.0586535,74.7055408 C78.439717,74.8228487 78.8146846,74.9211187 79.1453259,74.9794738 C79.1803184,74.9932829 79.2,75 79.2,75 C80.4582404,75.2093658 82.4078451,76.2466214 82.5239801,76.3371852 C82.640327,76.4367257 82.8982038,77 83.0147502,77 L83.7,76.9999996 C83.7,76.9999996 82.7569808,75.9284288 82.4071346,75.7377866 C82.0578443,75.54691 79.4294062,74.702549 78.9136567,74.6025732 C78.8786453,74.5964991 78.8372074,74.587993 78.7900829,74.5772579 C78.7415829,74.5206711 78.695153,74.4628514 78.6550413,74.4068846 C78.905019,74.3094393 79.2,74.1996039 79.2,74.1996039 C79.2,74.1996039 78.8995615,74.1167916 78.4867987,74.0578482 C78.4202917,73.9058186 78.3426896,73.8029047 78.3481731,73.5789885 C78.3481731,73.3982671 78.3275602,73.2080549 78.1627201,72.8371005 C78.0460086,72.5834773 78.0116378,72.0406665 77.7574276,71.8234838 C77.544459,71.6513771 77.4002477,71.3889244 77.1529242,71.2530559 C76.8645015,71.0902251 76.5073374,70.9364555 76.5004665,71.0268204 C76.4867086,71.1808007 76.7820086,72.4568889 76.7615477,72.4116001 C76.9674712,72.8731238 77.2148057,73.1174647 77.3727637,73.3437002 C77.5032173,73.5248597 77.5032173,73.3618057 77.812427,73.8957932 C77.8343219,73.9351699 77.8540016,73.9705625 77.871634,74.0022732 C77.6370765,73.9947995 77.396019,74.0049011 77.1709668,74.0453409 C76.5580801,74.1596109 78.0586535,74.7055408 78.0586535,74.7055408 Z M71.379628,69 C71.4320085,68.7680964 71.4542793,68.5942272 71.536592,68.5216968 C71.611245,68.4419233 71.8731526,68.137501 71.9253487,67.942038 C71.9777292,67.7391599 71.9253487,67.5870348 71.9253487,67.4854956 C71.9253487,67.3839647 72,67.0362012 72,67.0362012 C72,67.0362012 71.8729682,66.6086676 71.7682107,66.5288891 C71.6636272,66.4563671 71.4019074,66.1011885 71.3495218,66 C71.3495218,66 71.3792748,66.2028947 71.2971413,66.3044173 C71.2223108,66.4057745 71.1925561,66.6594205 71.1925561,66.8044646 C71.1925561,66.9565881 71.2447591,67.3117766 71.1925561,67.4854789 C71.1401756,67.6811089 71.0655243,67.8406658 71.1177273,68.0651377 C71.1628031,68.2464386 71.3796384,68.9999666 71.3796384,68.9999666 L71.379628,69 L71.379628,69 Z" id="Combined-Shape" fill="#1F601A"></path>
            <path d="M88.2778929,53.9801415 L88.4397425,53.9388784 C88.379426,54.0177901 88.2601841,54.1760814 88.2317034,54.4569667 C88.1201497,54.6598903 88.0107493,54.8637543 87.9051844,55.0655347 C87.772026,55.0946103 87.6299348,55.1247613 87.5638229,55.1359264 C87.4898298,55.1525867 87.3750228,55.2060338 87.2653751,55.2726212 C87.2482462,55.1217237 87.2311899,55 87.2311899,55 C87.1880528,55.0117605 87.1009097,55.1019616 87.0009658,55.2285166 C86.9507497,55.0982214 86.9127475,55 86.9127475,55 C86.9456637,55.197951 86.5073998,55.8861573 86.4825688,56.0465826 C86.4692673,56.1151482 86.4532291,56.1867954 86.4388396,56.2652653 C86.4148242,56.3476699 86.4,56.431561 86.4,56.5037642 C86.4000414,56.5501365 86.4000739,56.5994466 86.4000994,56.6483007 C86.4000335,56.6550601 86.4,56.6618695 86.4,56.6687299 C86.4,56.6791722 86.4000388,56.6895552 86.400124,56.6998777 C86.4001389,56.7342603 86.4001506,56.767796 86.4001597,56.7992456 C86.3999323,56.8252571 86.399956,56.8508752 86.4001784,56.8760222 C86.4001929,56.950034 86.4001929,56.9999981 86.4001929,56.9999981 L86.4002122,57 C86.4008923,56.9978391 86.4016825,56.9956722 86.4025807,56.9935001 C86.4073204,57.1462259 86.4169315,57.2735958 86.4169315,57.3540302 C86.4169315,57.5510005 86.4169315,57.3540302 86.4169315,57.3540302 C86.4169315,57.5510005 86.4409428,58 86.4409428,58 C86.5385704,57.9334861 86.6307214,57.7860497 86.7136852,57.6168864 C86.7313816,57.7165399 86.740206,57.8193282 86.7490766,57.8933162 C86.6150712,58.5690875 86.5059099,59.3476713 86.4471616,60.2309902 C86.3969973,60.4657931 86.3975267,60.7609738 86.4017634,60.9079821 C86.4000002,60.9640898 86.4,61 86.4,61 C86.4,61 86.4018696,60.9979695 86.4053042,60.9945726 C86.4055065,60.9981401 86.4056248,61 86.4056248,61 C86.4056248,61 86.4071978,60.999509 86.410204,60.9985576 C86.4035119,61.2199793 86.4,61.4472151 86.4,61.6802901 C86.4,61.8988513 86.4150438,62.1331841 86.4409177,62.3750885 C86.4040963,62.5470737 86.3848759,62.7483682 86.4145185,62.9241654 C86.4581886,63.1831839 86.4332338,63.2757561 86.4332338,63.5069945 C86.4332338,63.6180057 86.4879174,63.9145827 86.5589524,64.2190906 C86.5488063,64.2477577 86.5369588,64.2763887 86.5227379,64.3094365 C86.4825219,64.2323774 86.4433176,64.1627212 86.4107037,64.1100759 C86.3619747,64.0353042 86.2883643,63.992025 86.2133168,63.95967 C86.168751,63.7144594 86.1287642,63.4980604 86.1104051,63.4080709 C86.0570379,63.1457759 85.9275746,62.9863757 85.8741951,62.8551094 C85.8208138,62.7240698 85.8208138,62.7522037 85.7447387,62.3680023 C85.6610265,61.9744323 85.447512,61.9744323 85.3943133,61.8433905 C85.3409285,61.7121351 85.0513302,61.5808687 84.8913725,61.4871071 C84.7390415,61.3935722 84.6322807,61 84.6322807,61 C84.6322807,61 84.6322807,61.6462806 84.6019603,62.0398527 C84.5790786,62.433209 84.7619197,62.6580102 84.8684978,62.7517719 C84.9292791,62.8103631 85.0073114,62.993505 85.0674687,63.1887909 C85.0665631,63.1880067 85.0656625,63.1872174 85.064767,63.1864231 C84.9244856,63.0619998 84.6024206,63 84.6024206,63 C84.5776221,63.1242084 84.7509625,63.807899 84.7757515,63.9856445 C84.8086145,64.1720696 85.0317213,64.5451226 85.1224209,64.6337834 C85.2050636,64.7315293 85.3207406,64.8826096 85.5188701,65.095702 C85.6890862,65.2789252 86.0508797,65.4803346 86.5109641,65.5450474 C86.5823585,65.7916851 86.5959251,66 86.5959251,66 C86.6198507,65.7989715 86.5932875,65.6689086 86.603877,65.5560839 C86.672419,65.5627359 86.7428971,65.566298 86.815027,65.566298 C86.9627684,65.566298 87.067348,65.6010062 87.1405621,65.6507853 C87.1434764,65.6629252 87.1461711,65.674384 87.1486353,65.6851407 C87.1959627,65.8867702 87.2542132,66.1205343 87.3211776,66.3732902 C87.2289255,66.7872527 87.4653459,67.1021734 87.5084502,67.1711498 C87.5187539,67.1876383 87.5290508,67.2090296 87.5389405,67.2353886 C87.5035368,67.1755089 87.4683014,67.1366495 87.4371429,67.1276906 C87.3345098,67.1057237 87.2316924,66.8698289 87.0996831,66.5896604 C86.9748288,66.3094936 86.6961349,66.2580265 86.3658453,66.2063845 C86.1895985,66.1768913 85.5,66 85.5,66 C85.7493364,66.1842476 85.8521386,66.869659 86.0355558,67.1793377 C86.0720186,67.247908 86.2186712,67.3704763 86.3317112,67.4958922 C86.2470208,67.4473257 86.1331283,67.370887 85.9737949,67.2480935 C85.4429646,66.8549251 84.6,67.046825 84.6,67.046825 C84.6843664,67.1137753 85.2995553,67.7178083 85.3839101,68.0533994 C85.4764936,68.3791578 85.7968547,68.9831952 85.8812114,69.0503621 C85.9740086,69.1175333 86.2353094,69.4816899 86.4122554,69.6831859 C86.5892053,69.8844522 87.288749,69.7791347 87.5247535,69.7791347 C87.7607579,69.7791347 88.2243108,70.1243286 88.1990047,69.9516168 L88.1989853,69.9516035 C88.1654369,69.7791237 88.1989853,69.9516035 88.1989853,69.9516035 C88.1654369,69.7791237 87.7860445,69.2134711 87.7269958,68.87788 C87.7153434,68.8135546 87.6708721,68.7279623 87.6060813,68.631484 C87.8118508,68.735635 88.0823555,68.9187714 88.1707148,68.9796685 C88.292059,69.2677511 88.4156899,69.5212985 88.5376872,69.7169903 C88.6603069,69.9146111 88.8835303,70.1783209 89.1806274,70.480567 C89.2146958,70.598589 89.2557668,70.7079575 89.296074,70.766993 C89.4258377,70.9574472 89.7013952,71.1559791 89.9686398,71.2553469 C89.9931691,71.2644425 90.0183107,71.2743756 90.04384,71.284967 C90.3880967,71.5834145 90.7708475,71.8936975 91.1750666,72.1982664 C90.948649,72.1665638 90.8405867,72.1463069 90.7593299,72.1286569 C90.6933338,72.076535 90.6426774,72.0385137 90.6161589,72.0223373 C90.6161589,72.0223373 90.7750112,72.1192375 90.6161589,72.0223373 C90.4573138,71.9351361 90.1632968,71.8094136 89.9726373,71.7319047 C89.7740307,71.6640835 89.2575544,71.2089385 89.0510005,71.2089385 C88.8444467,71.2089385 88.4551805,71.1895496 88.2804337,71.0250826 C88.0977343,70.8506825 88.2565793,71.6350202 88.4551824,71.8576249 C88.5568825,71.9680569 88.6321264,72.0563987 88.6886661,72.127335 C88.4969959,72.1470267 88.3334017,72.1512461 88.2553048,72.1177497 C88.0424515,72.0313436 88.4937296,72.3334733 88.7662235,72.4075368 C89.1578414,72.5124594 89.1069144,72.6974662 89.5326014,72.7960754 C89.9838599,72.900998 90.4607095,73.0304607 90.7246861,72.9935781 C90.9290221,72.962719 91.0824115,72.8948267 91.3717633,72.8763116 C91.3815629,72.875445 91.3923011,72.8744406 91.4039002,72.8733021 C91.5281456,72.9007029 91.6607433,72.9409768 91.8,73 C91.8,73 91.7293477,72.9392892 91.6222671,72.8479926 C91.7359197,72.8332703 91.8688407,72.8139543 92.0017619,72.7909655 C92.5085872,73.1358033 93.0298892,73.4560027 93.5368325,73.7218409 C93.6589126,73.7870835 93.9196342,73.9068675 94.2591928,74.0485344 C94.4642933,74.0249785 94.7771625,74.0066671 94.9618204,74.001481 C94.8018537,73.9427637 94.6424708,73.8821352 94.4877171,73.8207065 C94.5595447,73.8390974 94.62339,73.8526269 94.6687301,73.8585843 C94.8662187,73.8959147 94.6687301,73.8585843 94.6687301,73.8585843 C94.8662187,73.8959147 95.3432213,74.0784622 95.3956107,73.9612503 C95.4480001,73.8440384 95.0164511,73.5324047 94.8978468,73.3459765 C94.7794373,73.1593312 94.70036,73.122003 94.5898511,73.0195669 C94.4793442,72.9262303 94.1632457,72.6744815 93.9578547,72.4504994 C93.8404135,72.317435 93.6866234,72.1975726 93.536392,72.1163793 C93.3867014,72.0806128 93.12012,72.0215124 92.9281013,72.004632 C92.8036992,72.0129715 92.7004915,72.0313386 92.7000018,72.0494792 C92.6997932,72.0577375 92.7023505,72.067174 92.7079871,72.0778912 C92.7504942,72.155586 92.7987262,72.2373573 92.849345,72.3196641 C92.9098053,72.4867364 93.0231638,72.7359521 93.2863277,73.0659903 C93.4333914,73.2497872 93.5923741,73.3917116 93.7320511,73.4932239 C93.6504966,73.4537885 93.5739045,73.4148438 93.5033796,73.3766933 C93.1515306,73.1828067 92.7743163,72.9480961 92.4104006,72.7041816 C92.5810411,72.6578915 92.7014397,72.6051901 92.699987,72.5494997 C92.6964936,72.4155742 92.3975586,72.3562938 91.8008208,72.2785917 C91.5641751,72.1065725 91.3452334,71.9390521 91.157543,71.7871101 C91.3207581,71.8089546 91.4316413,71.7861333 91.8,72 C91.8,72 91.1842039,71.3052311 91.0625626,71.2141391 C91.0625626,71.2141391 91.1842039,71.3052311 91.0625626,71.2141391 C90.949212,71.1230528 90.6574282,70.9079501 90.5033456,70.7671837 C90.3737743,70.6514527 90.2440013,70.3949591 89.8469911,70.2955913 C89.6921763,70.2579142 89.3360226,70.1859486 89.1816528,70.0611203 C88.8486902,69.67119 88.5435532,69.1729095 88.2214664,68.3911095 C88.1712146,68.2697702 88.1217696,68.1461932 88.0731771,68.0208076 C88.0768962,67.7376378 88.0959926,67.5004234 88.0961445,67.46329 C88.0961445,67.3046897 88.1257411,67.2043904 88.1257411,66.9371181 C88.1257411,66.678411 88.0217074,66.4780087 88.0514822,66.3024858 C88.0738125,66.1273518 88.1257411,66.0103456 88.0961445,65.6929333 C88.0738125,65.3757133 87.9993771,65 87.9993771,65 C87.9697736,65.3170081 87.7613513,65.3170081 87.6573176,65.6344205 C87.5829141,65.8850824 87.5605724,65.868465 87.4269003,66.102023 C87.2821328,65.6110359 87.1520732,65.1239933 87.0390327,64.6625646 C87.0902324,64.5214237 87.1721463,64.3256923 87.1842241,64.2178874 C87.2316099,63.8352732 87.3735987,63.4125903 87.2519176,63 C87.2519176,63 87.1489075,63.0523861 87.0561705,63.1087251 C87.0878678,63.0341507 87.1203419,62.9678619 87.1499256,62.9239522 C87.2372659,62.7943363 87.2372659,62.350376 87.280788,62.220984 C87.3182202,62.0913681 87.2995034,61.2219855 87.2372659,61 C87.2372659,61 87.0627261,61.1942032 86.9753916,61.3513775 C86.8881994,61.5087671 86.7384722,61.5735761 86.6949558,61.7677815 C86.6614375,61.9170025 86.6022825,61.9516952 86.5483847,62.0475621 C86.5447363,61.9993846 86.5423416,61.9555615 86.5412306,61.9163743 C86.5348207,61.6413991 86.5377306,61.3132144 86.5523442,60.9511499 C86.5783189,60.9421296 86.6067103,60.9320822 86.6366414,60.9211998 C86.7084155,60.8889122 86.797521,60.7811725 86.8590822,60.6752456 C86.8839892,60.6540638 86.9160605,60.6308247 86.9599026,60.6045982 C87.0835652,60.5350183 87.0938991,60.3757957 87.1909253,60.0863536 C87.2184827,60.049191 87.2420412,60.0143919 87.2574215,59.9842354 C87.305698,59.9028021 87.3059019,59.7278947 87.2921532,59.5733276 C87.3111441,59.2811043 87.2896939,59 87.2896939,59 C87.2896939,59 87.275562,59.022437 87.2524774,59.0578076 C87.2549274,59.022648 87.2574215,59 87.2574215,59 C86.8651037,59.2210286 86.7778097,59.6050968 86.6261264,59.8609451 C86.6930742,59.1526899 86.8019011,58.3970076 86.965027,57.6945965 C87.0778489,57.5168191 87.2022895,57.3329922 87.2599782,57.2252703 C87.3252592,57.1051691 87.2991384,56.9260135 87.2629945,56.7594637 C87.3504121,56.5438431 87.4539322,56.3093402 87.5682772,56.0638523 C87.6522658,55.9606924 87.7272725,55.8466862 87.8566743,55.7760927 C88.0324237,55.68001 88.1413448,55.3359116 88.2,55 C88.2,55 88.1505585,55.0112013 88.0784557,55.0272768 C88.1295507,54.9278259 88.1811822,54.8283303 88.2330573,54.7292283 C88.2398738,54.7968936 88.2515553,54.8694736 88.2691419,54.9472686 C88.2691419,54.9472686 88.1135726,54.2591034 88.2691419,54.9472686 L88.2691486,54.9472686 C88.3080987,55.1392872 88.5902661,54.7552499 88.6534357,54.6193136 C88.7216002,54.4751613 88.8238499,54.2591219 88.8238499,54.2591219 C88.8238499,54.2591219 88.9479238,54.0118755 89.007698,53.8650323 C89.0375448,53.854999 89.0611409,53.8436536 89.0754741,53.8308409 C89.1734339,53.7432784 89.3416512,53.6304993 89.4396094,53.5866539 C89.5375692,53.5492129 89.7057865,53.3488728 89.7338229,53.2611675 C89.7546832,53.1736036 89.9299169,53.0044429 90,53.0044429 C90,53.0044429 89.7338229,52.9793822 89.4397708,53.0482985 C89.3351081,53.0710891 89.2136693,53.1030623 89.0968471,53.1429893 C89.096816,53.1424662 89.0967848,53.1419442 89.0967533,53.1414233 C89.4753683,52.4675228 89.7519406,52 89.7519406,52 C89.5471941,52.2776883 89.3165425,52.6240764 89.0765845,53.0093264 C89.0721667,52.9999072 89.0673124,52.997328 89.0621922,53.0029416 C89.0270699,53.0397847 88.9351699,53.1249735 88.8624691,53.1881417 C88.8688536,53.1638047 88.8780472,53.1418283 88.8921368,53.1230997 C88.9583081,53.0230173 89.1426091,52.7768391 89.0910003,52.6153478 C89.0395715,52.4538582 88.9437354,52 88.9437354,52 C88.9437354,52 88.7596076,52.1845919 88.6344563,52.32316 C88.5019356,52.4538529 88.4798202,52.5616296 88.428225,52.723121 C88.3767962,52.8846105 88.2735872,52.9923855 88.2219767,53.123082 C88.170373,53.2537749 88.2219767,53.523043 88.2512885,53.6845343 C88.2641031,53.7781015 88.2620681,53.8691465 88.2580893,53.9291809 C88.2226975,53.9726662 88.2,54 88.2,54 L88.2529817,53.9864925 C88.2519734,53.9952314 88.2512885,54 88.2512885,54 C88.2512885,54 88.2610329,53.9927941 88.2778929,53.9801415 L88.2778929,53.9801415 Z M86.3571854,60.7911515 C86.4096172,60.9349946 86.3229019,61.058285 86.3326941,60.9707325 L86.3326978,60.9707325 C86.3408212,60.8421292 86.3326978,60.9707325 86.3326978,60.9707325 C86.339697,60.8599267 86.431157,60.6370579 86.3888904,60.5098651 C86.4193796,60.0800093 86.3769985,59.6617528 86.3811207,59.4829626 C86.3922732,59.2346726 86.3310674,59.0414071 86.314338,58.9127753 C86.303192,58.7749495 86.370103,58.7933461 86.308765,58.4346345 C86.264155,58.1679692 86.1416125,58.0851296 86.1304536,57.9472954 C86.1137216,57.8184559 86.0133569,57.791073 85.9131181,57.4599562 C85.8517839,57.285083 85.7403926,57 85.7403926,57 C85.7403926,57 85.6121409,57.4505248 85.5286301,57.7908399 C85.4505589,58.1311549 85.5509351,58.5264646 85.6065653,58.6461101 C85.6289568,58.6940681 85.6459534,58.7969024 85.6593519,58.9206713 C85.6164771,58.8107349 85.5749666,58.6521242 85.4964828,58.5670252 C85.3910345,58.4611043 85.1555677,58.393024 85.0580537,58.2570324 C84.9688672,58.1286068 84.7008957,58 84.7008957,58 C84.6440116,58.0907819 84.6196434,58.6577966 84.6033818,58.8089185 C84.5790042,58.96003 84.6927686,59.3002851 84.7413328,59.3984519 C84.798215,59.4892337 84.8630296,59.6403452 84.9849211,59.8519953 C85.1066311,60.0710147 85.4800321,60.3885752 86.0240965,60.5396972 C86.0929756,60.5591425 86.148982,60.5830804 86.194321,60.60973 C86.2619638,60.7941015 86.3140735,61 86.3140735,61 C86.331597,60.9321716 86.3457805,60.8621982 86.3571854,60.7911515 L86.3571854,60.7911515 Z M96.0586535,74.7055408 C96.439717,74.8228487 96.8146846,74.9211187 97.1453259,74.9794738 C97.1803184,74.9932829 97.2,75 97.2,75 C98.4582404,75.2093658 100.407845,76.2466214 100.52398,76.3371852 C100.640327,76.4367257 100.898204,77 101.01475,77 L101.7,76.9999996 C101.7,76.9999996 100.756981,75.9284288 100.407135,75.7377866 C100.057844,75.54691 97.4294062,74.702549 96.9136567,74.6025732 C96.8786453,74.5964991 96.8372074,74.587993 96.7900829,74.5772579 C96.7415829,74.5206711 96.695153,74.4628514 96.6550413,74.4068846 C96.905019,74.3094393 97.2,74.1996039 97.2,74.1996039 C97.2,74.1996039 96.8995615,74.1167916 96.4867987,74.0578482 C96.4202917,73.9058186 96.3426896,73.8029047 96.3481731,73.5789885 C96.3481731,73.3982671 96.3275602,73.2080549 96.1627201,72.8371005 C96.0460086,72.5834773 96.0116378,72.0406665 95.7574276,71.8234838 C95.544459,71.6513771 95.4002477,71.3889244 95.1529242,71.2530559 C94.8645015,71.0902251 94.5073374,70.9364555 94.5004665,71.0268204 C94.4867086,71.1808007 94.7820086,72.4568889 94.7615477,72.4116001 C94.9674712,72.8731238 95.2148057,73.1174647 95.3727637,73.3437002 C95.5032173,73.5248597 95.5032173,73.3618057 95.812427,73.8957932 C95.8343219,73.9351699 95.8540016,73.9705625 95.871634,74.0022732 C95.6370765,73.9947995 95.396019,74.0049011 95.1709668,74.0453409 C94.5580801,74.1596109 96.0586535,74.7055408 96.0586535,74.7055408 Z M89.379628,69 C89.4320085,68.7680964 89.4542793,68.5942272 89.536592,68.5216968 C89.611245,68.4419233 89.8731526,68.137501 89.9253487,67.942038 C89.9777292,67.7391599 89.9253487,67.5870348 89.9253487,67.4854956 C89.9253487,67.3839647 90,67.0362012 90,67.0362012 C90,67.0362012 89.8729682,66.6086676 89.7682107,66.5288891 C89.6636272,66.4563671 89.4019074,66.1011885 89.3495218,66 C89.3495218,66 89.3792748,66.2028947 89.2971413,66.3044173 C89.2223108,66.4057745 89.1925561,66.6594205 89.1925561,66.8044646 C89.1925561,66.9565881 89.2447591,67.3117766 89.1925561,67.4854789 C89.1401756,67.6811089 89.0655243,67.8406658 89.1177273,68.0651377 C89.1628031,68.2464386 89.3796384,68.9999666 89.3796384,68.9999666 L89.379628,69 L89.379628,69 Z" id="Combined-Shape-Copy" fill="#1F601A" transform="translate(93.150000, 64.500000) scale(-1, 1) translate(-93.150000, -64.500000) "></path>
            <path d="M83.4551299,64.4852814 C80.7058987,61.4305801 78.7203428,59.2244069 75.8183766,56 C73.7095454,58.3431458 73.7095454,62.1421356 75.8183766,64.4852814 C77.9272078,66.8284271 81.3462987,66.8284271 83.4551299,64.4852814" id="Oval" fill="#4C57B4" transform="translate(78.845942, 61.121320) rotate(-30.000000) translate(-78.845942, -61.121320) "></path>
            <path d="M83.7,65 C83.7,60.68 83.7,57.56 83.7,53 C80.7176624,53 78.3,55.6862915 78.3,59 C78.3,62.3137085 80.7176624,65 83.7,65 Z" id="Oval-Copy" fill="#4C57B4" transform="translate(81.000000, 59.000000) rotate(-45.000000) translate(-81.000000, -59.000000) "></path>
            <path d="M92.8054566,65.3598147 C90.0562255,62.3051134 88.0706696,60.0989403 85.1687034,56.8745333 C83.0598722,59.2176791 83.0598722,63.016669 85.1687034,65.3598147 C87.2775346,67.7029605 90.6966255,67.7029605 92.8054566,65.3598147" id="Oval-Copy-3" fill="#4C57B4" transform="translate(88.196268, 61.995854) scale(-1, 1) rotate(-30.000000) translate(-88.196268, -61.995854) "></path>
            <path d="M89.3202425,65.6233935 C89.3202425,61.3033935 89.3202425,58.1833935 89.3202425,53.6233935 C86.3379048,53.6233935 83.9202425,56.309685 83.9202425,59.6233935 C83.9202425,62.937102 86.3379048,65.6233935 89.3202425,65.6233935 Z" id="Oval-Copy-2" fill="#4C57B4" transform="translate(86.620242, 59.623393) scale(-1, 1) rotate(-45.000000) translate(-86.620242, -59.623393) "></path>
            <polygon id="Triangle" stroke="#FFC02B" fill="#99EBFA" points="83.7 53 90 67 77.4 67"></polygon>
        </g>
    </g>
</svg>