<?xml version="1.0" ?><svg height="120px" version="1.1" viewBox="0 0 180 120" width="180px" xmlns="http://www.w3.org/2000/svg" xmlns:sketch="http://www.bohemiancoding.com/sketch/ns" xmlns:xlink="http://www.w3.org/1999/xlink"><title/><defs/><g fill="none" fill-rule="evenodd" id="Asia-Pacific" stroke="none" stroke-width="1"><g id="Korea" transform="translate(-800.000000, -401.000000)"><g transform="translate(800.000000, 401.000000)"><rect d="M0,0 L0,120 L180,120 L180,0 L0,0 Z M0,0" fill="#FFFFFF" height="120" id="Rectangle-129" width="180" x="0" y="0"/><path d="M26,86 L26,106 L59,106 L59,86 L26,86 Z M26,91 L26,93.5 L59,93.5 L59,91 L26,91 Z M26,98.5 L26,101 L59,101 L59,98.5 L26,98.5 Z M41.2307692,93.5 L41.2307692,98.5 L43.7692308,98.5 L43.7692308,93.5 L41.2307692,93.5 Z M41.2307692,93.5" fill="#262626" id="Rectangle-61" transform="translate(42.500000, 96.000000) rotate(40.000000) translate(-42.500000, -96.000000) "/><path d="M120.406274,85.7014716 L120.406274,105.868164 L153.177149,105.868164 L153.177149,85.7014716 L120.406274,85.7014716 Z M120.406274,90.7431447 L120.406274,93.2639813 L153.177149,93.2639813 L153.177149,90.7431447 L120.406274,90.7431447 Z M120.406274,98.3056544 L120.406274,100.826491 L153.177149,100.826491 L153.177149,98.3056544 L120.406274,98.3056544 Z M135.531294,85.7014716 L135.531294,90.7431447 L138.05213,90.7431447 L138.05213,85.7014716 L135.531294,85.7014716 Z M135.531294,93.2639813 L135.531294,98.3056544 L138.05213,98.3056544 L138.05213,93.2639813 L135.531294,93.2639813 Z M135.531294,100.826491 L135.531294,105.868164 L138.05213,105.868164 L138.05213,100.826491 L135.531294,100.826491 Z M135.531294,100.826491" fill="#262626" id="Rectangle-61" transform="translate(136.791712, 95.784818) rotate(-40.000000) translate(-136.791712, -95.784818) "/><path d="M25.8228506,14 L25.8228506,34.1666925 L58.5937258,34.1666925 L58.5937258,14 L25.8228506,14 Z M25.8228506,19.0416731 L25.8228506,21.5625097 L58.5937258,21.5625097 L58.5937258,19.0416731 L25.8228506,19.0416731 Z M25.8228506,26.6041828 L25.8228506,29.1250193 L58.5937258,29.1250193 L58.5937258,26.6041828 L25.8228506,26.6041828 Z M25.8228506,26.6041828" fill="#262626" id="Rectangle-61" transform="translate(42.208288, 24.083346) rotate(-40.000000) translate(-42.208288, -24.083346) "/><path d="M120,14 L120,34 L153,34 L153,14 L120,14 Z M120,19 L120,21.5 L153,21.5 L153,19 L120,19 Z M120,26.5 L120,29 L153,29 L153,26.5 L120,26.5 Z M135.230769,14 L135.230769,19 L137.769231,19 L137.769231,14 L135.230769,14 Z M135.230769,29 L135.230769,34 L137.769231,34 L137.769231,29 L135.230769,29 Z M135.230769,29" fill="#262626" id="Rectangle-61" transform="translate(136.500000, 24.000000) rotate(40.000000) translate(-136.500000, -24.000000) "/><circle cx="90" cy="60" d="M90,89 C106.016259,89 119,76.0162585 119,60 C119,43.9837415 106.016259,31 90,31 C73.9837415,31 61,43.9837415 61,60 C61,76.0162585 73.9837415,89 90,89 Z M90,89" fill="#CA4638" id="Oval-107" r="29"/><path d="M90.0084591,60 L89.9915409,60 L89.9915409,60 C89.7280198,67.7766125 83.3407854,74 75.5,74 C67.6592146,74 61.2719802,67.7766125 61.0084591,60 L61,60 C61,76.0162585 73.9837415,89 90,89 C106.016259,89 119,76.0162585 119,60 L118.991541,60 C118.997165,59.8340257 119,59.6673439 119,59.5 C119,51.4918707 112.508129,45 104.5,45 C96.4918707,45 90,51.4918707 90,59.5 C90,59.6673439 90.0028348,59.8340257 90.0084591,60 Z M90.0084591,60" fill="#346DA6" id="Oval-104"/></g></g></g></svg>