<?xml version="1.0" ?><svg height="120px" version="1.1" viewBox="0 0 180 120" width="180px" xmlns="http://www.w3.org/2000/svg" xmlns:sketch="http://www.bohemiancoding.com/sketch/ns" xmlns:xlink="http://www.w3.org/1999/xlink"><title/><defs/><g fill="none" fill-rule="evenodd" id="Page-1" stroke="none" stroke-width="1"><g id="jersey"><rect d="M0,0 L0,120 L180,120 L180,0 L0,0 Z M0,0" fill="#FFFFFF" height="120" id="Rectangle-326" width="180" x="0" y="0"/><path d="M30.1533203,-30.1533203 L40.1533203,-30.1533203 L149.84668,139.84668 L149.84668,149.84668 L139.84668,149.84668 L30.1533203,-20.1533203 L30.1533203,-30.1533203 Z M30.1533203,-30.1533203" fill="#CA4638" id="Path-988" transform="translate(90.000000, 59.846680) rotate(-90.000000) translate(-90.000000, -59.846680) "/><path d="M30.1533203,-30.1533203 L40.1533203,-30.1533203 L149.84668,139.84668 L149.84668,149.84668 L139.84668,149.84668 L30.1533203,-20.1533203 L30.1533203,-30.1533203 Z M30.1533203,-30.1533203" fill="#CA4638" id="Path-988" transform="translate(90.000000, 59.846680) scale(-1, 1) rotate(-90.000000) translate(-90.000000, -59.846680) "/><g id="Jersey-badge" stroke="#000000" transform="translate(74.770270, 2.000000)"><g id="Group"><path d="M26.2069817,14.3845454 C28.9073803,25.2106081 27.4262681,38.581408 15.229981,46 C3.03283825,38.581408 1.55172607,25.2106081 4.25298035,14.3845454 C7.12792944,11.7965995 20.1952577,10.2007588 26.2069817,14.3845454 C26.2069817,14.3845454 20.1952577,10.2007588 26.2069817,14.3845454 L26.2069817,14.3845454 L26.2069817,14.3845454 L26.2069817,14.3845454 L26.2069817,14.3845454 Z M26.2069817,14.3845454" fill="#CA4638" id="shield" stroke-width="0.1"/><path d="M26.2703149,14.9189189 C26.7498774,11.5601694 28.4517706,8.20149615 30.4594595,5.66293747 C28.3648872,5.62382995 27.4262053,6.61973779 27.4049103,7.65467693 C26.8810543,6.32685063 24.8299238,6.40491319 24.1970375,7.12744955 C26.4883753,8.513899 24.7208936,10.9743189 22.648468,10.4666834 C21.6748624,10.2283028 21.1603762,9.62072582 20.9780913,8.73863386 C21.2021143,8.72521684 21.4244337,8.65180445 21.6118293,8.51565234 C22.0947991,8.16498054 22.1689055,7.53018844 21.7770783,7.09787111 C21.3852509,6.66555379 20.6765547,6.59930732 20.1927332,6.94997912 C19.7097635,7.30065086 19.635657,7.93544303 20.0283361,8.36776035 C20.1561059,8.50978243 20.3205029,8.6105624 20.497677,8.67177752 C19.842644,9.62865405 18.668014,9.91589999 17.8264372,9.70503953 C16.7352834,9.431668 16.2770159,8.55293031 16.2770159,7.77184701 C16.2770159,5.74100006 18.4584716,5.42859725 19.1135046,5.78010758 C19.0700629,4.41319664 16.669695,3.31962671 15.9277785,4.45221269 C16.7565784,3.12439402 16.7131367,1.24974084 15.2293039,0 C13.7463228,1.24974084 13.7020293,3.12439402 14.5316809,4.45221269 C13.7897645,3.31962671 11.3893966,4.41319664 11.3459549,5.78010758 C12.0001361,5.42859725 14.1824436,5.74100006 14.1824436,7.77184701 C14.1824436,8.55293031 13.724176,9.431668 12.6330223,9.70503953 C11.7914454,9.91589999 10.6168154,9.62865405 9.96093063,8.67177752 C10.1389565,8.6105624 10.3025018,8.50978243 10.4311234,8.36776035 C10.8229506,7.93544303 10.7488442,7.30065086 10.2658745,6.94997912 C9.78290479,6.59930732 9.07335672,6.66555379 8.6815294,7.09787111 C8.28970215,7.53018844 8.36380864,8.16498054 8.84677831,8.51565234 C9.03502579,8.65180445 9.25734515,8.72521684 9.48136814,8.73863386 C9.29908325,9.62072582 8.78374525,10.2283028 7.81099146,10.4666834 C5.73856591,10.9743189 3.9710842,8.513899 6.26157016,7.12744955 C5.62953572,6.40491319 3.57840513,6.32685063 3.05454911,7.65467693 C3.03240235,6.61973779 2.0945723,5.62382995 0,5.66293747 C2.00683706,8.20149615 3.70873029,11.5601694 4.1891446,14.9189189 C6.63295427,13.5519089 10.7786571,12.4974541 15.2293039,12.4974541 C19.6808024,12.4974541 23.8265052,13.5519089 26.2703149,14.9189189 C26.2703149,14.9189189 23.8265052,13.5519089 26.2703149,14.9189189 L26.2703149,14.9189189 L26.2703149,14.9189189 Z M26.2703149,14.9189189" fill="#E5B731" id="crown" stroke-width="0.1"/><g id="leopard" transform="translate(3.108108, 14.918919)"><g id="body" stroke-width="0.1" transform="translate(0.621622, 0.621622)"><path d="M2.0885688,4.93452495 C2.65838821,5.07680876 2.68113766,5.78749118 3.98435584,6.11962708 C3.69077967,6.04059221 3.52828364,6.19876719 3.25095708,6.05637813 C3.78827729,6.46765414 4.39059592,6.94386293 5.66131489,6.95796503 C6.3697976,6.96585801 5.88014288,7.32177804 5.41648753,7.11614001 C5.89747579,7.59855793 6.84970254,7.20317307 7.45202114,8.08108108 C7.56576838,7.40091812 6.32863195,6.32526506 6.89845135,5.55028133 C5.14132758,5.47756082 4.99724777,4.53145762 3.98435584,3.7786794 C3.1599593,3.16660641 3.08629443,2.54443042 2.72230332,1.37953427 C2.55655737,0.852073843 1.92065623,0.523200374 1.56858149,0.648119671 C1.26092234,0.757358283 1.14825842,1.0165632 1.4125853,1.21051962 C1.67691218,1.40458128 2.01490393,1.43089115 2.08748549,1.92257015 C1.74407721,1.52297572 1.22950644,1.3782714 0.982512471,1.62821524 C0.831932814,1.78039157 0.892597999,2.13546968 1.21650676,2.16767297 C1.74407721,2.22029273 1.3649198,2.7201804 1.96507181,3.20922841 C1.43316813,2.62809583 0.972762709,2.57547607 0.687853,2.8911946 C0.517773817,3.08031001 0.687853,3.41739216 1.05401072,3.38129501 C1.58374779,3.32888573 2.19798279,4.63438186 2.99096343,4.96493916 C2.55114084,4.71183814 2.26731443,4.88695669 2.0885688,4.93452495 C2.0885688,4.93452495 2.26731443,4.88695669 2.0885688,4.93452495 L2.0885688,4.93452495 L2.0885688,4.93452495 Z M2.0885688,4.93452495" fill="#F9DD16" id="arm" transform="translate(4.040541, 4.351351) rotate(9.000000) translate(-4.040541, -4.351351) "/><path d="M20.7404319,9.59435632 C21.4245673,9.57390901 21.7570287,9.36997864 21.9641906,8.9959555 C21.8138312,9.14551045 21.944978,9.43113962 21.8948582,9.49908628 C22.3968916,9.30872715 22.6357961,8.84640055 22.4603767,8.53362889 C22.5731463,8.71032633 22.8997604,8.80559637 23,8.81916762 C22.648326,8.51996721 22.8997604,7.84004848 22.3342419,7.48656316 C22.5230265,7.47290147 22.8872304,7.70406477 22.98747,7.97612269 C22.8997604,7.36415063 22.8112154,6.96977069 22.3467718,6.62985655 C22.3968916,6.69101759 22.660856,6.74539301 22.7736255,6.62985655 C22.4729067,6.42583573 22.3843617,6.08592162 22.4102569,5.86832955 C22.4453408,5.56388159 22.2590621,5.50109203 21.9073882,5.59636208 C21.590798,5.68204178 20.8657315,5.73234581 20.4388778,5.73234581 C19.5601104,5.73234581 18.7941127,5.73234581 18.0657048,5.18841086 C19.1583167,5.67787994 20.5516473,4.64447592 20.5516473,3.78776933 C20.5516473,2.8357927 19.4715655,2.06069445 17.2871771,2.57748693 C15.1027888,3.09418894 12.4414269,2.87659687 12.4414269,2.08792738 C12.4414269,1.29916743 14.3493209,1.19041663 15.3291632,1.3536333 C16.3081701,1.5167595 17.0106828,1.62560078 18.8442325,0.918449154 C18.3923189,1.10880829 16.9355031,1.16318369 15.7810768,0.809698353 C14.6258152,0.456122544 11.7881987,0.456122544 11.7631388,2.11516032 C11.7380789,3.77410763 14.784528,3.62301458 17.4133119,3.20303021 C18.9444721,2.9582052 19.7480597,3.12142188 19.7480597,3.66535683 C19.7480597,4.18205883 18.3421991,4.39965091 17.2621172,4.26366717 C16.1828706,4.12777391 15.0777289,4.15491637 13.7971677,4.56286758 C12.7279451,4.90341501 11.9895133,4.56286758 10.8091918,4.78045965 C10.2369906,4.88577241 8.85034256,4.78045965 8.16620719,3.55651555 C7.74520077,3.8829489 6.47716962,4.56621515 6.26416046,5.2325626 C5.96260626,5.84444418 6.16392082,6.45306866 6.56487931,7.05137904 C7.07108935,7.8044014 6.31428026,7.69049353 5.77465697,7.71772646 C5.03455445,7.75500212 4.04385289,7.6325896 3.52678354,6.99700362 C3.06902261,6.43379752 2.4592316,5.98241836 1.97223412,6.39986941 C1.72163508,6.61474729 1.96221016,6.8975717 2.16018341,6.81840619 C2.35648599,6.74014546 2.58870777,6.8975717 2.79837564,6.99700362 C2.46340826,6.84102495 2.09502766,6.96208029 1.95135087,7.10114022 C1.75337762,7.29339927 1.99395271,7.66063679 2.23369246,7.53089584 C2.42164175,7.42911158 2.80756427,7.36125543 3.05816332,7.61006135 C2.78668102,7.55351454 2.50433943,7.56545726 2.36901594,7.72315496 C2.23369246,7.88085265 2.33810873,8.11047788 2.63047428,8.09636384 C3.09992983,8.07374508 3.22021737,8.43003515 3.69050825,8.35684095 C3.40148401,8.39764512 3.2377593,8.56077132 3.16257959,8.68318385 C3.60196325,8.46559179 4.08729007,9.0521404 4.65698523,8.91434715 C4.43478741,9.01341716 4.07643077,9.25000896 4.07977209,9.43113962 C4.4180808,9.00952674 6.69101417,9.75748252 6.74113396,8.83282931 C6.80378373,9.02318843 6.79125376,9.30872715 6.61583444,9.55355215 C6.90652933,9.36310251 7.84627576,9.29515591 8.13446464,8.56077132 C8.15952457,8.77836344 8.12193468,9.06399261 7.94651535,9.13193921 C8.24806954,9.23869955 8.64485136,8.99550315 9.05082181,8.34326977 C9.21204056,8.08451162 9.25046573,7.91251887 9.22289986,7.71799786 C9.62552897,7.73446431 9.91705919,7.62498971 10.2311433,7.3369177 C10.5577574,7.03780779 10.9094314,7.58174275 11.4615847,7.20093399 C12.0145732,6.82021574 12.4915467,7.14655857 12.7922656,6.95619944 C13.0938197,6.76584032 13.5081435,7.02414604 13.8347576,6.80664449 C14.1613716,6.58905237 14.6675818,6.91313337 15.2080404,6.45080677 C16.0584064,6.78818761 17.0507787,7.41336901 19.4849307,6.92896651 C20.8799321,6.65129914 21.3176451,7.16012981 21.3176451,7.85371017 C21.3176451,8.32960802 21.0603634,8.37104556 20.8657315,8.38407394 C20.0897097,8.43573505 19.756413,8.0694023 19.4498469,8.18683869 C19.2443557,8.2660947 19.1190561,8.62799416 19.4164337,8.75239712 C19.1708466,8.88810943 19.2025892,9.14261525 19.3278887,9.23589486 C19.4531882,9.32917446 19.7764609,9.24439951 19.9961528,9.13411059 C19.7138112,9.27262766 19.4214457,9.52143358 19.5885116,9.78154885 C19.6895866,9.9394275 19.9451976,10.0732398 20.184102,9.73640184 C20.4238418,9.39703062 20.8623901,9.11429665 21.1413904,9.15917214 C20.8782614,9.2271188 20.8782614,9.59435632 20.7404319,9.59435632 L20.7404319,9.59435632 L20.7404319,9.59435632 L20.7404319,9.59435632 Z M20.7404319,9.59435632" fill="#F9DD16" id="Shape"/><path d="M14.0674812,9.41758852 C13.8395451,9.45876187 13.9072137,9.84301641 13.5991438,9.87049575 C14.3354843,9.87049575 14.7094419,9.69201687 15.0575788,9.4038945 C14.8973112,9.49993529 14.830533,9.74697562 14.8171774,9.88409851 C15.2053811,9.54110865 16.1287004,9.51372062 16.6103936,9.60976141 C17.0920867,9.7058022 17.1722205,9.4725472 17.3458437,9.15694549 C17.5203572,8.84134372 17.2790655,8.66295615 17.0386641,8.41600714 C16.7973724,8.16896682 16.7439498,7.82597702 16.7973724,7.2496409 C15.5125606,5.49333581 13.2109401,6.344009 13.1842288,7.11242669 C14.0140588,8.10031405 14.1209038,7.99057925 14.8171774,8.1277934 C15.5125606,8.26500761 15.9390505,8.26464246 15.4724937,8.66295615 C15.3122261,8.8001703 14.6426638,8.73571709 14.1209038,8.75899694 C12.9536216,8.81103426 12.4193963,7.93224267 12.074821,8.38871037 C11.7907912,8.76410941 12.0837248,8.92989844 12.6624688,8.90990516 C12.2617998,8.91282654 11.7302457,8.89064223 11.821064,9.27325345 C11.9742086,9.91796837 12.575212,9.15338503 12.8093807,9.41868406 C12.6090463,9.37020715 12.2974148,9.4957358 12.28584,9.68973452 C12.2751555,9.88382462 12.7310277,10.1347906 13.2323091,9.72679971 C13.5065447,9.50313055 13.8564623,9.41941441 14.0674812,9.41758852 C14.0674812,9.41758852 13.8564623,9.41941441 14.0674812,9.41758852 L14.0674812,9.41758852 L14.0674812,9.41758852 L14.0674812,9.41758852 L14.0674812,9.41758852 Z M14.0674812,9.41758852" fill="#F9DD16" id="leg"/><path d="M8.83783902,6.21621622 C8.59789307,7.16886397 8.74335253,7.63910028 8.77878496,8.08108108" id="Shape"/><path d="M15.5405405,6.47767928 C15.1381381,6.26433874 14.7691977,6.13392255 14.2972973,6.27515496" id="Shape"/></g><g id="head" stroke-width="0.1" transform="translate(4.972973, 1.243243)"><path d="M0.615654205,0.917467495 C0.0922487997,0.474812014 -0.0842917408,0.462644112 0.0363028537,1.34103858 C0.0878974484,1.71645039 0.213465016,2.24581819 0.339654205,2.48648649 C0.344627178,2.120809 0.409897448,1.1101046 0.615654205,0.917467495 C0.615654205,0.917467495 0.409897448,1.1101046 0.615654205,0.917467495 L0.615654205,0.917467495 L0.615654205,0.917467495 L0.615654205,0.917467495 L0.615654205,0.917467495 Z M0.615654205,0.917467495" fill="#F9DD16" id="left-ear"/><path d="M4.35135135,0.917467495 C4.87475676,0.474812014 5.0512973,0.462644112 4.9307027,1.34103858 C4.87910811,1.71645039 4.75291892,2.24581819 4.62672973,2.48648649 C4.62237838,2.120809 4.55710811,1.1101046 4.35135135,0.917467495 C4.35135135,0.917467495 4.55710811,1.1101046 4.35135135,0.917467495 L4.35135135,0.917467495 L4.35135135,0.917467495 L4.35135135,0.917467495 L4.35135135,0.917467495 Z M4.35135135,0.917467495" fill="#F9DD16" id="right-ear"/><path d="M2.79790682,0 C4.73986055,0 4.98245239,0.892318667 4.97269995,2.0043456 C4.96416657,3.20611757 4.30465812,2.79355295 3.92918935,4.3361651 C3.78290281,4.93931858 3.29162387,4.97297297 2.79790682,4.97297297 C2.30297072,4.97297297 1.81291083,4.93931858 1.66540524,4.3361651 C1.29115553,2.79355295 0.630428017,3.20611757 0.621894638,2.0043456 C0.612142199,0.892318667 0.854734031,0 2.79790682,0 C2.79790682,0 0.854734031,0 2.79790682,0 L2.79790682,0 L2.79790682,0 L2.79790682,0 L2.79790682,0 Z M2.79790682,0" fill="#F9DD16" id="Shape"/><path d="M3.10810811,1.88306346 C3.24016274,1.69353403 3.35034331,3.06688879 3.72972973,2.19257425 M3.72972973,1.91377993 C3.59985718,2.08554167 3.35661449,1.8549218 3.2031264,1.86520031 C3.0496383,1.87547883 2.88507961,2.07574309 2.88507961,2.07574309 C2.75974476,2.17410093 2.74492418,2.01311693 2.8399583,2.47766455 C3.01625348,3.33066669 3.2242267,3.72972973 2.49838639,3.72972973 C1.75739573,3.72972973 1.98189662,3.33066669 2.15681449,2.47766455 C2.25322592,2.01311693 2.24083016,2.1899253 2.11549531,2.09156746 C2.11549531,2.09156746 1.98018825,1.89786589 1.79020302,1.8758921 C1.5571877,1.84894142 1.41742404,2.07884931 1.24324324,1.93287049 M1.86486486,2.21781312 C2.27199409,3.05814223 2.3467551,1.63476149 2.48648649,1.89783375" id="Shape"/><path d="M2.79733053,4.97297297 C3.28806813,4.97297297 3.57242076,4.96251735 3.49559969,4.12439464 C3.46349536,3.7880024 3.83154857,3.65403102 3.70198467,3.10810811 C3.83957465,3.77852264 2.79733053,3.71453423 2.79733053,3.41062412 C2.79733053,3.71453423 1.75508641,3.77852264 1.89267639,3.10810811 C1.76311249,3.65403102 2.13001911,3.7880024 2.09906136,4.12439464 C2.02224029,4.96251735 2.30659293,4.97297297 2.79733053,4.97297297 C2.79733053,4.97297297 2.30659293,4.97297297 2.79733053,4.97297297 L2.79733053,4.97297297 L2.79733053,4.97297297 L2.79733053,4.97297297 L2.79733053,4.97297297 Z M2.79733053,4.97297297" fill="#CA4638" id="Shape"/><g fill="#000000" id="Group" transform="translate(0.621622, 3.108108)"><path d="M1.86486486,0.233108108 L0,0" id="Shape"/><path d="M1.86486486,0.0777027027 L0,0.0777027027" id="Shape"/><path d="M0,0.85472973 L1.86486486,0.621621622" id="Shape"/></g><g fill="#000000" id="Group-copy" transform="translate(3.418919, 3.729730) scale(-1, 1) translate(-3.418919, -3.729730) translate(2.486486, 3.108108)"><path d="M1.86486486,0.233108108 L0,0" id="Shape"/><path d="M1.86486486,0.0777027027 L0,0.0777027027" id="Shape"/><path d="M0,0.85472973 L1.86486486,0.621621622" id="Shape"/></g><path d="M2.96762162,4.35135135 C3.33313514,4.35135135 3.48108108,4.44719597 3.48108108,5.04047194 C3.48108108,6.29739932 3.46491892,6.83783784 3.01486486,6.83783784 C2.56356757,6.83783784 2.59464865,6.32432069 2.59464865,5.40150902 C2.59464865,4.92005178 2.59464865,4.67932315 2.48648649,4.71942597 C2.48648649,4.40530584 2.64189189,4.35135135 2.96762162,4.35135135 C2.96762162,4.35135135 2.64189189,4.35135135 2.96762162,4.35135135 L2.96762162,4.35135135 L2.96762162,4.35135135 L2.96762162,4.35135135 L2.96762162,4.35135135 Z M2.96762162,4.35135135" fill="#0051BA" id="Shape"/></g><g fill="#0051BA" id="claws-and-tongue"><path d="M1.8747135,1.86486486 C2.08980406,1.26693002 2.68941406,1.82731175 2.92853709,1.58844646 C3.0943611,1.42297267 3.19289421,0.9843385 3.00904585,0.778225025 C2.55723551,0.272372488 1.76776903,1.08739524 1.8747135,1.86486486 C1.8747135,1.86486486 1.76776903,1.08739524 1.8747135,1.86486486 L1.8747135,1.86486486 L1.8747135,1.86486486 Z M1.8747135,1.86486486" id="Shape" stroke-width="0.1" transform="translate(2.486486, 1.243243) rotate(16.000000) translate(-2.486486, -1.243243) "/><path d="M1.25309187,3.10810811 C1.46818244,2.51017326 2.06779244,3.07055499 2.30691547,2.83168971 C2.47273948,2.66621591 2.57127259,2.22758174 2.38742423,2.02146827 C1.93561388,1.51561573 1.14614741,2.33063848 1.25309187,3.10810811 C1.25309187,3.10810811 1.14614741,2.33063848 1.25309187,3.10810811 L1.25309187,3.10810811 L1.25309187,3.10810811 Z M1.25309187,3.10810811" id="Shape" stroke-width="0.1" transform="translate(1.864865, 2.486486) rotate(16.000000) translate(-1.864865, -2.486486) "/><path d="M0.631470255,3.72972973 C0.846560817,3.13179488 1.44617082,3.69217661 1.68529385,3.45331133 C1.85111786,3.28783753 1.94965096,2.84920336 1.76580261,2.64308989 C1.31399226,2.13723735 0.524525785,2.9522601 0.631470255,3.72972973 C0.631470255,3.72972973 0.524525785,2.9522601 0.631470255,3.72972973 L0.631470255,3.72972973 L0.631470255,3.72972973 Z M0.631470255,3.72972973" id="Shape" stroke-width="0.5" transform="translate(1.243243, 3.108108) rotate(7.000000) translate(-1.243243, -3.108108) "/></g><g fill="#0051BA" id="claws-and-tongue-copy" transform="translate(0.621622, 6.216216)"><path d="M0.631470255,1.24324324 C0.846560817,0.94427582 1.44617082,1.22446668 1.68529385,1.10503404 C1.85111786,1.02229714 1.94965096,0.80298006 1.76580261,0.699923323 C1.31399226,0.446997055 0.524525785,0.854508429 0.631470255,1.24324324 C0.631470255,1.24324324 0.524525785,0.854508429 0.631470255,1.24324324 L0.631470255,1.24324324 L0.631470255,1.24324324 Z M0.631470255,1.24324324" id="Shape" stroke-width="0.1" transform="translate(1.243243, 0.932432) rotate(-12.000000) translate(-1.243243, -0.932432) "/><path d="M0.631470255,3.10810811 C0.846560817,2.51017326 1.44617082,3.07055499 1.68529385,2.83168971 C1.85111786,2.66621591 1.94965096,2.22758174 1.76580261,2.02146827 C1.31399226,1.51561573 0.524525785,2.33063848 0.631470255,3.10810811 C0.631470255,3.10810811 0.524525785,2.33063848 0.631470255,3.10810811 L0.631470255,3.10810811 L0.631470255,3.10810811 Z M0.631470255,3.10810811" id="Shape" stroke-width="0.5" transform="translate(1.243243, 2.486486) rotate(-18.000000) translate(-1.243243, -2.486486) "/><path d="M1.8747135,2.48648649 C2.08980406,2.18751907 2.68941406,2.46770993 2.92853709,2.34827729 C3.0943611,2.26554039 3.19289421,2.0462233 3.00904585,1.94316657 C2.55723551,1.6902403 1.76776903,2.09775167 1.8747135,2.48648649 C1.8747135,2.48648649 1.76776903,2.09775167 1.8747135,2.48648649 L1.8747135,2.48648649 L1.8747135,2.48648649 Z M1.8747135,2.48648649" id="Shape" stroke-width="0.1" transform="translate(2.486486, 2.175676) rotate(-17.000000) translate(-2.486486, -2.175676) "/></g><g fill="#0051BA" id="claws-and-tongue-copy-2" transform="translate(11.810811, 8.081081)"><path d="M0.631470255,1.24324324 C0.846560817,0.94427582 1.44617082,1.22446668 1.68529385,1.10503404 C1.85111786,1.02229714 1.94965096,0.80298006 1.76580261,0.699923323 C1.31399226,0.446997055 0.524525785,0.854508429 0.631470255,1.24324324 C0.631470255,1.24324324 0.524525785,0.854508429 0.631470255,1.24324324 L0.631470255,1.24324324 L0.631470255,1.24324324 Z M0.631470255,1.24324324" id="Shape" stroke-width="0.1" transform="translate(1.243243, 0.932432) rotate(-12.000000) translate(-1.243243, -0.932432) "/><path d="M0.631470255,3.10810811 C0.846560817,2.51017326 1.44617082,3.07055499 1.68529385,2.83168971 C1.85111786,2.66621591 1.94965096,2.22758174 1.76580261,2.02146827 C1.31399226,1.51561573 0.524525785,2.33063848 0.631470255,3.10810811 C0.631470255,3.10810811 0.524525785,2.33063848 0.631470255,3.10810811 L0.631470255,3.10810811 L0.631470255,3.10810811 Z M0.631470255,3.10810811" id="Shape" stroke-width="0.5" transform="translate(1.243243, 2.486486) rotate(-18.000000) translate(-1.243243, -2.486486) "/><path d="M1.25309187,2.48648649 C1.46818244,2.18751907 2.06779244,2.46770993 2.30691547,2.34827729 C2.47273948,2.26554039 2.57127259,2.0462233 2.38742423,1.94316657 C1.93561388,1.6902403 1.14614741,2.09775167 1.25309187,2.48648649 C1.25309187,2.48648649 1.14614741,2.09775167 1.25309187,2.48648649 L1.25309187,2.48648649 L1.25309187,2.48648649 Z M1.25309187,2.48648649" id="Shape" stroke-width="0.1" transform="translate(1.864865, 2.175676) rotate(-17.000000) translate(-1.864865, -2.175676) "/></g><g fill="#0051BA" id="claws-and-tongue-copy-3" transform="translate(18.648649, 8.081081)"><path d="M0.631470255,1.24324324 C0.846560817,0.94427582 1.44617082,1.22446668 1.68529385,1.10503404 C1.85111786,1.02229714 1.94965096,0.80298006 1.76580261,0.699923323 C1.31399226,0.446997055 0.524525785,0.854508429 0.631470255,1.24324324 C0.631470255,1.24324324 0.524525785,0.854508429 0.631470255,1.24324324 L0.631470255,1.24324324 L0.631470255,1.24324324 Z M0.631470255,1.24324324" id="Shape" stroke-width="0.1" transform="translate(1.243243, 0.932432) rotate(-12.000000) translate(-1.243243, -0.932432) "/><path d="M0.631470255,1.86486486 C0.846560817,1.56589744 1.44617082,1.84608831 1.68529385,1.72665566 C1.85111786,1.64391877 1.94965096,1.42460168 1.76580261,1.32154495 C1.31399226,1.06861868 0.524525785,1.47613005 0.631470255,1.86486486 C0.631470255,1.86486486 0.524525785,1.47613005 0.631470255,1.86486486 L0.631470255,1.86486486 L0.631470255,1.86486486 Z M0.631470255,1.86486486" id="Shape" stroke-width="0.5" transform="translate(1.243243, 1.554054) rotate(-18.000000) translate(-1.243243, -1.554054) "/><path d="M1.25309187,2.48648649 C1.46818244,2.18751907 2.06779244,2.46770993 2.30691547,2.34827729 C2.47273948,2.26554039 2.57127259,2.0462233 2.38742423,1.94316657 C1.93561388,1.6902403 1.14614741,2.09775167 1.25309187,2.48648649 C1.25309187,2.48648649 1.14614741,2.09775167 1.25309187,2.48648649 L1.25309187,2.48648649 L1.25309187,2.48648649 Z M1.25309187,2.48648649" id="Shape" stroke-width="0.1" transform="translate(1.864865, 2.175676) rotate(-17.000000) translate(-1.864865, -2.175676) "/></g></g><g id="leopard-copy" transform="translate(4.972973, 24.864865)"><g id="body" stroke-width="0.1" transform="translate(0.621622, 0.621622)"><path d="M1.82185113,4.21570773 C2.28806702,4.33427757 2.30668019,4.92651292 3.37294961,5.20329283 C3.13275094,5.13743044 2.99979963,5.26924293 2.77289609,5.15058538 C3.21252172,5.49331539 3.70532786,5.89015604 4.74500702,5.90190779 C5.32467469,5.90848526 4.92404811,6.20508528 4.54469373,6.03372027 C4.93822958,6.43573518 5.71732419,6.10624784 6.21013034,6.83783784 C6.30319625,6.27103535 5.29099369,5.37465784 5.75720958,4.72883804 C4.31956286,4.66823762 4.20167938,3.87981829 3.37294961,3.2525031 C2.69844336,2.74244228 2.6381721,2.22396229 2.3403612,1.2532155 C2.20475087,0.813665144 1.68446812,0.539603917 1.39640697,0.643703331 C1.14468584,0.73473551 1.05250628,0.950739605 1.26877372,1.11236995 C1.48504117,1.274088 1.76157987,1.2960129 1.82096478,1.70574539 C1.53999437,1.37275005 1.11898193,1.2521631 0.916895951,1.46044964 C0.793694412,1.58726324 0.843329568,1.88316167 1.10834582,1.90999775 C1.53999437,1.95384754 1.22977467,2.3704206 1.72080814,2.77796061 C1.28561422,2.29368346 0.908918874,2.24983367 0.675810927,2.51293245 C0.536655236,2.67052861 0.675810927,2.9514304 0.975394524,2.92134944 C1.40881576,2.87767505 1.91137167,3.96558849 2.560174,4.24105291 C2.20031916,4.03013539 1.96809756,4.17606751 1.82185113,4.21570773 C1.82185113,4.21570773 1.96809756,4.17606751 1.82185113,4.21570773 L1.82185113,4.21570773 L1.82185113,4.21570773 Z M1.82185113,4.21570773" fill="#F9DD16" id="arm" transform="translate(3.418919, 3.729730) rotate(9.000000) translate(-3.418919, -3.729730) "/><path d="M17.3429916,7.79980936 C17.9265189,7.78345151 18.2100889,7.62030722 18.3867858,7.32108872 C18.2585381,7.44073267 18.3703986,7.66923606 18.3276493,7.72359332 C18.7558543,7.57130604 18.9596257,7.20144471 18.8100033,6.9512274 C18.9061892,7.0925854 19.1847717,7.16880144 19.2702703,7.17965837 C18.970313,6.94029805 19.1847717,6.39636309 18.7024177,6.11357485 C18.8634399,6.10264549 19.1740845,6.28757614 19.259583,6.50522247 C19.1847717,6.01564485 19.1092481,5.70014086 18.713105,5.42820958 C18.7558543,5.47713839 18.9810003,5.52063871 19.0771861,5.42820958 C18.8206907,5.26499291 18.745167,4.99306162 18.7672541,4.81898796 C18.7971786,4.5754296 18.6382939,4.52519795 18.3383366,4.60141398 C18.0683039,4.66995775 17.4498648,4.71020098 17.0857837,4.71020098 C16.3362468,4.71020098 15.6828958,4.71020098 15.0616067,4.27505302 C15.9935403,4.66662827 17.1819695,3.83990506 17.1819695,3.15453979 C17.1819695,2.39295848 16.2607231,1.77287988 14.3975684,2.18631387 C12.5344136,2.59967548 10.2644285,2.42560182 10.2644285,1.79466623 C10.2644285,1.16365826 11.8917499,1.07665762 12.7274978,1.20723096 C13.5625331,1.33773192 14.161735,1.42480494 15.725645,0.859083648 C15.3401893,1.01137096 14.0976112,1.05487128 13.1129534,0.772083009 C12.1275833,0.48922236 9.70726332,0.48922236 9.68588868,1.81645258 C9.66451403,3.14361042 12.2629559,3.02273599 14.505154,2.68674849 C15.8111436,2.49088849 16.4965565,2.62146182 16.4965565,3.05660978 C16.4965565,3.46997139 15.2974401,3.64404505 14.3761938,3.53525806 C13.4556599,3.42654345 12.513039,3.44825742 11.4207957,3.77461839 C10.5088117,4.04705633 9.87897281,3.77461839 8.87222799,3.94869205 C8.38417402,4.03294225 7.20144484,3.94869205 6.61791756,2.96953676 C6.2588239,3.23068344 5.17726789,3.77729645 4.99558358,4.31037441 C4.7383756,4.79987967 4.91008509,5.28677925 5.25207908,5.76542753 C5.68384649,6.36784546 5.03833283,6.27671915 4.57806592,6.29850549 C3.94680201,6.32832599 3.10179186,6.23039603 2.66076211,5.72192721 C2.27031897,5.27136234 1.75020311,4.91025902 1.33482291,5.24421987 C1.12107666,5.41612213 1.32627306,5.6423817 1.49513259,5.57904929 C1.66256715,5.51644068 1.86063866,5.6423817 2.03947303,5.72192721 C1.75376555,5.59714426 1.43955857,5.69398857 1.31701072,5.80523648 C1.14815119,5.95904376 1.35334758,6.25283377 1.55783149,6.149041 C1.71814117,6.06761361 2.04731039,6.01332869 2.26105663,6.21237341 C2.0294982,6.16713598 1.78867743,6.17669012 1.67325446,6.30284826 C1.55783149,6.42900644 1.64689242,6.61270663 1.89626304,6.60141537 C2.29668101,6.5833204 2.3992792,6.86835244 2.80040966,6.80979711 C2.55388899,6.84244045 2.41424144,6.97294139 2.35011757,7.07087141 C2.72488598,6.89679772 3.13884121,7.36603663 3.62475767,7.25580204 C3.435236,7.33505805 3.12957887,7.52433146 3.13242882,7.66923606 C3.42098625,7.33194572 5.35966469,7.93031036 5.40241394,7.19058778 C5.45585049,7.34287507 5.44516318,7.57130604 5.29554081,7.76716602 C5.54348646,7.61480637 6.34503486,7.56044904 6.59084308,6.97294139 C6.61221766,7.14701509 6.58015572,7.37551841 6.43053339,7.42987568 C6.68774133,7.515284 7.0261729,7.32072682 7.37244182,6.79894011 C7.50995192,6.59193359 7.54272636,6.45433944 7.51921427,6.29872262 C7.86263324,6.31189578 8.11129133,6.22431607 8.37918663,5.99385849 C8.65776922,5.75457055 8.95772645,6.18971851 9.42868067,5.88507151 C9.90034739,5.58049689 10.3071777,5.84157119 10.5636732,5.68928388 C10.8208812,5.53699657 11.174275,5.74364118 11.4528576,5.56963991 C11.7314402,5.39556625 12.1632077,5.65483105 12.624187,5.28496976 C13.3494993,5.5548744 14.1959344,6.05501951 16.2721229,5.66749753 C17.461977,5.44536361 17.8353205,5.85242817 17.8353205,6.40729251 C17.8353205,6.78801076 17.6158744,6.82116072 17.4498648,6.83158345 C16.7879639,6.8729124 16.5036814,6.57984615 16.2421985,6.67379525 C16.0669266,6.73720009 15.9600535,7.02671968 16.2136989,7.12624205 C16.0042276,7.23481187 16.0313022,7.43841651 16.1381753,7.5130402 C16.2450484,7.58766388 16.5207811,7.51984391 16.7081653,7.4316128 C16.4673445,7.54242643 16.2179739,7.74147116 16.3604714,7.94956341 C16.4466824,8.0758663 16.6647035,8.18291619 16.8684749,7.91344583 C17.0729589,7.64194879 17.4470148,7.41576164 17.6849856,7.45166209 C17.4605521,7.50601935 17.4605521,7.79980936 17.3429916,7.79980936 L17.3429916,7.79980936 L17.3429916,7.79980936 L17.3429916,7.79980936 Z M17.3429916,7.79980936" fill="#F9DD16" id="Shape"/><path d="M12.3227557,7.64078325 C12.1454721,7.67509441 12.1981031,7.99530644 11.9584932,8.01820592 C12.5312025,8.01820592 12.8220585,7.86947356 13.0928316,7.62937152 C12.968179,7.70940556 12.9162404,7.91527246 12.9058527,8.02954156 C13.2077889,7.74371671 13.9259262,7.72089331 14.3005764,7.80092728 C14.6752266,7.88096131 14.7375529,7.68658216 14.8725931,7.4235807 C15.0083259,7.16057925 14.8206545,7.01192291 14.6336757,6.80613209 C14.4460044,6.60026512 14.4044535,6.31444026 14.4460044,5.8341602 C13.4467063,4.37057264 11.656557,5.07946696 11.6357816,5.71981504 C12.2812048,6.54305455 12.3643066,6.45160885 12.9058527,6.56595397 C13.4467063,6.68029915 13.7784206,6.67999481 13.4155432,7.01192291 C13.2908906,7.12626809 12.7701199,7.072557 12.3643066,7.09195688 C11.4564204,7.13532133 11.0409119,6.40299499 10.7729088,6.78338478 C10.5519968,7.09621729 10.7798339,7.23437481 11.2299683,7.21771373 C10.9183368,7.22014825 10.5049058,7.20166129 10.5755423,7.52050401 C10.6946548,8.05776648 11.1621018,7.42061364 11.3442331,7.64169617 C11.1884174,7.60129878 10.9460374,7.70590595 10.9370347,7.86757158 C10.9287245,8.0293133 11.2832918,8.23845156 11.6731773,7.89845922 C11.8864717,7.71206827 12.1586298,7.6423048 12.3227557,7.64078325 C12.3227557,7.64078325 12.1586298,7.6423048 12.3227557,7.64078325 L12.3227557,7.64078325 L12.3227557,7.64078325 L12.3227557,7.64078325 L12.3227557,7.64078325 Z M12.3227557,7.64078325" fill="#F9DD16" id="leg"/><path d="M7.59459577,4.97297297 C7.35464983,5.60807149 7.50010929,5.92156236 7.53554172,6.21621622" id="Shape"/><path d="M13.0540541,5.23443607 C12.6516516,5.02109552 12.2827113,4.89067931 11.8108108,5.03191174" id="Shape"/></g><g id="head" stroke-width="0.1" transform="translate(4.351351, 1.243243)"><path d="M0.615654205,0.818852204 C0.0922487997,0.52374855 -0.0842917408,0.515636615 0.0363028537,1.10123293 C0.0878974484,1.35150747 0.213465016,1.70441933 0.339654205,1.86486486 C0.344627178,1.62107987 0.409897448,0.947276943 0.615654205,0.818852204 C0.615654205,0.818852204 0.409897448,0.947276943 0.615654205,0.818852204 L0.615654205,0.818852204 L0.615654205,0.818852204 L0.615654205,0.818852204 L0.615654205,0.818852204 Z M0.615654205,0.818852204" fill="#F9DD16" id="left-ear"/><path d="M3.10810811,0.818852204 C3.63151351,0.52374855 3.80805405,0.515636615 3.68745946,1.10123293 C3.63586486,1.35150747 3.50967568,1.70441933 3.38348649,1.86486486 C3.37913514,1.62107987 3.31386486,0.947276943 3.10810811,0.818852204 C3.10810811,0.818852204 3.31386486,0.947276943 3.10810811,0.818852204 L3.10810811,0.818852204 L3.10810811,0.818852204 L3.10810811,0.818852204 L3.10810811,0.818852204 Z M3.10810811,0.818852204" fill="#F9DD16" id="right-ear"/><path d="M2.17611105,0 C3.56322086,0 3.73650074,0.780778837 3.72953471,1.7538024 C3.72343944,2.80535287 3.25236198,2.44435883 2.98417,3.79414447 C2.87967962,4.32190376 2.52876609,4.35135135 2.17611105,4.35135135 C1.82258526,4.35135135 1.47254248,4.32190376 1.36718135,3.79414447 C1.09986012,2.44435883 0.627911904,2.80535287 0.621816631,1.7538024 C0.614850606,0.780778837 0.788130488,0 2.17611105,0 C2.17611105,0 0.788130488,0 2.17611105,0 L2.17611105,0 L2.17611105,0 L2.17611105,0 L2.17611105,0 Z M2.17611105,0" fill="#F9DD16" id="Shape"/><path d="M2.48648649,1.26144184 C2.61854112,1.07191241 2.72872168,2.44526717 3.10810811,1.57095263 M3.10810811,1.29215831 C3.01070369,1.46392005 2.82827168,1.23330018 2.71315561,1.24357869 C2.59803954,1.25385721 2.47462052,1.45412147 2.47462052,1.45412147 C2.38061938,1.55247931 2.36950395,1.39149531 2.44077954,1.85604293 C2.57300092,2.70904507 2.72898083,3.10810811 2.18460061,3.10810811 C1.62885761,3.10810811 1.79723328,2.70904507 1.92842168,1.85604293 C2.00073025,1.39149531 1.99143343,1.56830368 1.89743229,1.46994584 C1.89743229,1.46994584 1.795952,1.27624427 1.65346308,1.25427048 C1.47870159,1.2273198 1.37387884,1.45722768 1.24324324,1.31124887 M1.24324324,1.5961915 C1.65037247,2.43652061 1.72513347,1.01313987 1.86486486,1.27621213" id="Shape"/><path d="M2.17570891,4.35135135 C2.66644651,4.35135135 2.95079914,4.34089573 2.87397807,3.50277302 C2.84187374,3.16638078 3.20992694,3.0324094 3.08036305,2.48648649 C3.21795302,3.15690102 2.17570891,3.0929126 2.17570891,2.7890025 C2.17570891,3.0929126 1.13346478,3.15690102 1.27105477,2.48648649 C1.14149087,3.0324094 1.50839749,3.16638078 1.47743974,3.50277302 C1.40061867,4.34089573 1.6849713,4.35135135 2.17570891,4.35135135 C2.17570891,4.35135135 1.6849713,4.35135135 2.17570891,4.35135135 L2.17570891,4.35135135 L2.17570891,4.35135135 L2.17570891,4.35135135 L2.17570891,4.35135135 Z M2.17570891,4.35135135" fill="#CA4638" id="Shape"/><g fill="#000000" id="Group" transform="translate(0.621622, 2.486486)"><path d="M1.24324324,0.266409267 L0,0" id="Shape"/><path d="M1.24324324,0.0888030889 L0,0.0888030889" id="Shape"/><path d="M0,0.888030889 L1.24324324,0.621621622" id="Shape"/></g><g fill="#000000" id="Group-copy" transform="translate(2.486486, 3.108108) scale(-1, 1) translate(-2.486486, -3.108108) translate(1.864865, 2.486486)"><path d="M1.24324324,0.266409267 L0,0" id="Shape"/><path d="M1.24324324,0.0888030889 L0,0.0888030889" id="Shape"/><path d="M0,0.888030889 L1.24324324,0.621621622" id="Shape"/></g><path d="M2.10543243,3.72972973 C2.28818919,3.72972973 2.36216216,3.8016132 2.36216216,4.24657017 C2.36216216,5.18926568 2.35408108,5.59459459 2.12905405,5.59459459 C1.90340541,5.59459459 1.91894595,5.20945673 1.91894595,4.51734798 C1.91894595,4.15625504 1.91894595,3.97570858 1.86486486,4.00578569 C1.86486486,3.77019559 1.94256757,3.72972973 2.10543243,3.72972973 C2.10543243,3.72972973 1.94256757,3.72972973 2.10543243,3.72972973 L2.10543243,3.72972973 L2.10543243,3.72972973 L2.10543243,3.72972973 L2.10543243,3.72972973 Z M2.10543243,3.72972973" fill="#0051BA" id="Shape"/></g><g fill="#0051BA" id="claws-and-tongue"><path d="M1.8747135,1.24324324 C2.08980406,0.94427582 2.68941406,1.22446668 2.92853709,1.10503404 C3.0943611,1.02229714 3.19289421,0.80298006 3.00904585,0.699923323 C2.55723551,0.446997055 1.76776903,0.854508429 1.8747135,1.24324324 C1.8747135,1.24324324 1.76776903,0.854508429 1.8747135,1.24324324 L1.8747135,1.24324324 L1.8747135,1.24324324 Z M1.8747135,1.24324324" id="Shape" stroke-width="0.1" transform="translate(2.486486, 0.932432) rotate(16.000000) translate(-2.486486, -0.932432) "/><path d="M1.25309187,2.48648649 C1.46818244,2.18751907 2.06779244,2.46770993 2.30691547,2.34827729 C2.47273948,2.26554039 2.57127259,2.0462233 2.38742423,1.94316657 C1.93561388,1.6902403 1.14614741,2.09775167 1.25309187,2.48648649 C1.25309187,2.48648649 1.14614741,2.09775167 1.25309187,2.48648649 L1.25309187,2.48648649 L1.25309187,2.48648649 Z M1.25309187,2.48648649" id="Shape" stroke-width="0.1" transform="translate(1.864865, 2.175676) rotate(16.000000) translate(-1.864865, -2.175676) "/><path d="M0.631470255,3.10810811 C0.846560817,2.80914069 1.44617082,3.08933155 1.68529385,2.96989891 C1.85111786,2.88716201 1.94965096,2.66784492 1.76580261,2.56478819 C1.31399226,2.31186192 0.524525785,2.71937329 0.631470255,3.10810811 C0.631470255,3.10810811 0.524525785,2.71937329 0.631470255,3.10810811 L0.631470255,3.10810811 L0.631470255,3.10810811 Z M0.631470255,3.10810811" id="Shape" stroke-width="0.5" transform="translate(1.243243, 2.797297) rotate(7.000000) translate(-1.243243, -2.797297) "/></g><g fill="#0051BA" id="claws-and-tongue-copy" transform="translate(0.621622, 4.972973)"><path d="M0.631470255,1.24324324 C0.846560817,0.94427582 1.44617082,1.22446668 1.68529385,1.10503404 C1.85111786,1.02229714 1.94965096,0.80298006 1.76580261,0.699923323 C1.31399226,0.446997055 0.524525785,0.854508429 0.631470255,1.24324324 C0.631470255,1.24324324 0.524525785,0.854508429 0.631470255,1.24324324 L0.631470255,1.24324324 L0.631470255,1.24324324 Z M0.631470255,1.24324324" id="Shape" stroke-width="0.1" transform="translate(1.243243, 0.932432) rotate(-12.000000) translate(-1.243243, -0.932432) "/><path d="M0.631470255,2.48648649 C0.846560817,2.18751907 1.44617082,2.46770993 1.68529385,2.34827729 C1.85111786,2.26554039 1.94965096,2.0462233 1.76580261,1.94316657 C1.31399226,1.6902403 0.524525785,2.09775167 0.631470255,2.48648649 C0.631470255,2.48648649 0.524525785,2.09775167 0.631470255,2.48648649 L0.631470255,2.48648649 L0.631470255,2.48648649 Z M0.631470255,2.48648649" id="Shape" stroke-width="0.5" transform="translate(1.243243, 2.175676) rotate(-18.000000) translate(-1.243243, -2.175676) "/><path d="M1.25309187,3.10810811 C1.46818244,2.80914069 2.06779244,3.08933155 2.30691547,2.96989891 C2.47273948,2.88716201 2.57127259,2.66784492 2.38742423,2.56478819 C1.93561388,2.31186192 1.14614741,2.71937329 1.25309187,3.10810811 C1.25309187,3.10810811 1.14614741,2.71937329 1.25309187,3.10810811 L1.25309187,3.10810811 L1.25309187,3.10810811 Z M1.25309187,3.10810811" id="Shape" stroke-width="0.1" transform="translate(1.864865, 2.797297) rotate(-17.000000) translate(-1.864865, -2.797297) "/></g><g fill="#0051BA" id="claws-and-tongue-copy-2" transform="translate(9.945946, 6.837838)"><path d="M0.631470255,1.24324324 C0.846560817,0.94427582 1.44617082,1.22446668 1.68529385,1.10503404 C1.85111786,1.02229714 1.94965096,0.80298006 1.76580261,0.699923323 C1.31399226,0.446997055 0.524525785,0.854508429 0.631470255,1.24324324 C0.631470255,1.24324324 0.524525785,0.854508429 0.631470255,1.24324324 L0.631470255,1.24324324 L0.631470255,1.24324324 Z M0.631470255,1.24324324" id="Shape" stroke-width="0.1" transform="translate(1.243243, 0.932432) rotate(-12.000000) translate(-1.243243, -0.932432) "/><path d="M0.631470255,2.48648649 C0.846560817,2.18751907 1.44617082,2.46770993 1.68529385,2.34827729 C1.85111786,2.26554039 1.94965096,2.0462233 1.76580261,1.94316657 C1.31399226,1.6902403 0.524525785,2.09775167 0.631470255,2.48648649 C0.631470255,2.48648649 0.524525785,2.09775167 0.631470255,2.48648649 L0.631470255,2.48648649 L0.631470255,2.48648649 Z M0.631470255,2.48648649" id="Shape" stroke-width="0.5" transform="translate(1.243243, 2.175676) rotate(-18.000000) translate(-1.243243, -2.175676) "/><path d="M1.25309187,2.48648649 C1.46818244,2.18751907 2.06779244,2.46770993 2.30691547,2.34827729 C2.47273948,2.26554039 2.57127259,2.0462233 2.38742423,1.94316657 C1.93561388,1.6902403 1.14614741,2.09775167 1.25309187,2.48648649 C1.25309187,2.48648649 1.14614741,2.09775167 1.25309187,2.48648649 L1.25309187,2.48648649 L1.25309187,2.48648649 Z M1.25309187,2.48648649" id="Shape" stroke-width="0.1" transform="translate(1.864865, 2.175676) rotate(-17.000000) translate(-1.864865, -2.175676) "/></g><g fill="#0051BA" id="claws-and-tongue-copy-3" transform="translate(15.540541, 6.837838)"><path d="M0.631470255,1.24324324 C0.846560817,0.94427582 1.44617082,1.22446668 1.68529385,1.10503404 C1.85111786,1.02229714 1.94965096,0.80298006 1.76580261,0.699923323 C1.31399226,0.446997055 0.524525785,0.854508429 0.631470255,1.24324324 C0.631470255,1.24324324 0.524525785,0.854508429 0.631470255,1.24324324 L0.631470255,1.24324324 L0.631470255,1.24324324 Z M0.631470255,1.24324324" id="Shape" stroke-width="0.1" transform="translate(1.243243, 0.932432) rotate(-12.000000) translate(-1.243243, -0.932432) "/><path d="M0.631470255,3.10810811 C0.846560817,2.51017326 1.44617082,3.07055499 1.68529385,2.83168971 C1.85111786,2.66621591 1.94965096,2.22758174 1.76580261,2.02146827 C1.31399226,1.51561573 0.524525785,2.33063848 0.631470255,3.10810811 C0.631470255,3.10810811 0.524525785,2.33063848 0.631470255,3.10810811 L0.631470255,3.10810811 L0.631470255,3.10810811 Z M0.631470255,3.10810811" id="Shape" stroke-width="0.5" transform="translate(1.243243, 2.486486) rotate(-18.000000) translate(-1.243243, -2.486486) "/><path d="M1.25309187,3.10810811 C1.46818244,2.51017326 2.06779244,3.07055499 2.30691547,2.83168971 C2.47273948,2.66621591 2.57127259,2.22758174 2.38742423,2.02146827 C1.93561388,1.51561573 1.14614741,2.33063848 1.25309187,3.10810811 C1.25309187,3.10810811 1.14614741,2.33063848 1.25309187,3.10810811 L1.25309187,3.10810811 L1.25309187,3.10810811 Z M1.25309187,3.10810811" id="Shape" stroke-width="0.1" transform="translate(1.864865, 2.486486) rotate(-17.000000) translate(-1.864865, -2.486486) "/></g></g><g id="leopard-copy-2" transform="translate(7.459459, 33.567568)"><g id="body" stroke-width="0.1" transform="translate(0.621622, 0.621622)"><path d="M1.42177463,3.4968905 C1.73258522,3.59174638 1.74499401,4.06553467 2.45584029,4.28695859 C2.29570783,4.23426868 2.20707363,4.33971867 2.0558046,4.24479263 C2.34888835,4.51897663 2.67742579,4.83644916 3.37054522,4.84585056 C3.75699033,4.85111253 3.48990594,5.08839255 3.23700303,4.95130055 C3.49936026,5.27291249 4.01875667,5.0093226 4.3472941,5.59459459 C4.40933804,5.14115262 3.73453633,4.4240506 4.04534693,3.90739476 C3.08691578,3.85891442 3.00832679,3.22817896 2.45584029,2.72632681 C2.00616945,2.31827814 1.96598861,1.90349415 1.767448,1.12689672 C1.67704112,0.775256438 1.33018595,0.556007458 1.13814518,0.639286989 C0.970331105,0.712112735 0.908878058,0.884916012 1.05305636,1.01422029 C1.19723465,1.14359472 1.38159379,1.16113464 1.42118373,1.48892064 C1.23387012,1.22252436 0.95319516,1.12605481 0.818471175,1.29268403 C0.73633682,1.39413492 0.76942692,1.63085366 0.946104422,1.65232252 C1.23387012,1.68740236 1.02705699,2.02066081 1.35441263,2.34669282 C1.06428335,1.95927109 0.813153121,1.92419126 0.657747827,2.13467028 C0.564977365,2.26074721 0.657747827,2.48546865 0.857470223,2.46140388 C1.14641771,2.42646436 1.48145498,3.29679512 1.91398988,3.51716665 C1.67408665,3.34843263 1.51927224,3.46517833 1.42177463,3.4968905 C1.42177463,3.4968905 1.51927224,3.46517833 1.42177463,3.4968905 L1.42177463,3.4968905 L1.42177463,3.4968905 Z M1.42177463,3.4968905" fill="#F9DD16" id="arm" transform="translate(2.486486, 3.108108) rotate(9.000000) translate(-2.486486, -3.108108) "/><path d="M12.346518,6.00526244 C12.7489506,5.99299404 12.9445161,5.87063582 13.066376,5.64622194 C12.9779293,5.73595493 13.0550745,5.90733243 13.0255923,5.94810041 C13.320906,5.83388493 13.4614381,5.55648897 13.3582502,5.36882598 C13.4245852,5.47484444 13.6167112,5.53200646 13.6756757,5.5401492 C13.4688086,5.36062895 13.6167112,4.95267774 13.2840532,4.74058654 C13.395103,4.73238952 13.6093406,4.8710875 13.6683051,5.03432227 C13.6167112,4.66713904 13.5646259,4.43051105 13.2914238,4.22656259 C13.320906,4.2632592 13.4761792,4.29588444 13.5425142,4.22656259 C13.3656208,4.10415009 13.3135355,3.90020162 13.328768,3.76964638 C13.3494056,3.58697761 13.2398299,3.54930387 13.0329628,3.60646589 C12.8467334,3.65787372 12.4202236,3.68805614 12.1691332,3.68805614 C11.6522112,3.68805614 11.2016243,3.68805614 10.7731491,3.36169517 C11.415862,3.65537661 12.2354682,3.0353342 12.2354682,2.52131025 C12.2354682,1.95012427 11.600126,1.48506532 10.3151916,1.79514081 C9.03025733,2.10516201 7.46475033,1.97460677 7.46475033,1.50140508 C7.46475033,1.0281491 8.58704092,0.962898624 9.16341875,1.06082863 C9.73930518,1.15870435 10.1525479,1.22400911 11.2311066,0.799718143 C10.9652751,0.913933626 10.1083246,0.946558865 9.42925026,0.734467659 C8.74968462,0.522322175 7.08049847,0.522322175 7.06575733,1.51774484 C7.0510162,2.51311323 8.8430451,2.4224574 10.3893886,2.17046678 C11.290071,2.02357177 11.7627697,2.12150177 11.7627697,2.44786274 C11.7627697,2.75788395 10.9357928,2.88843919 10.3004505,2.80684895 C9.66559957,2.72531299 9.01551619,2.74159847 8.26224493,2.9863692 C7.63329048,3.19069765 7.19891882,2.9863692 6.50461204,3.11692444 C6.1680231,3.18011209 5.35234778,3.11692444 4.9499152,2.38255798 C4.70226438,2.57841799 3.95636369,2.98837774 3.83106417,3.38818621 C3.65367935,3.75531516 3.77209969,4.12048985 4.00795761,4.47947605 C4.30572824,4.93128948 3.86054641,4.86294476 3.54312095,4.87928452 C3.10776653,4.90164992 2.52500091,4.82820241 2.22084246,4.44685081 C1.95157133,4.10892716 1.59287074,3.83809967 1.30640163,4.08857031 C1.15899043,4.21749701 1.30050518,4.38719168 1.41696004,4.33969237 C1.53243215,4.29273591 1.66903319,4.38719168 1.79236723,4.44685081 C1.59532759,4.3532636 1.37863312,4.42589683 1.29411737,4.50933276 C1.17766252,4.62468823 1.31917727,4.84503074 1.46020065,4.76718615 C1.57075905,4.70611562 1.79777231,4.66540192 1.94518351,4.81468546 C1.78548804,4.78075739 1.61940475,4.787923 1.5398027,4.88254162 C1.46020065,4.97716025 1.52162199,5.11493538 1.69360172,5.10646694 C1.96975204,5.09289571 2.04050942,5.30666974 2.31715111,5.26275324 C2.14713686,5.28723574 2.05082821,5.38511145 2.00660485,5.45855896 C2.26506582,5.32800371 2.55055218,5.67993288 2.88566698,5.59725694 C2.75496238,5.65669893 2.54416436,5.79865401 2.54612985,5.90733243 C2.74513498,5.65436468 4.08215458,6.10313816 4.11163682,5.54834623 C4.14848962,5.66256171 4.14111907,5.83388493 4.03793122,5.98077994 C4.20892822,5.86651017 4.76172023,5.82574219 4.93124312,5.38511145 C4.94598423,5.5156667 4.92387255,5.68704421 4.82068471,5.72781219 C4.99806952,5.7918684 5.23147059,5.64595052 5.47027675,5.2546105 C5.56511129,5.09935561 5.58771434,4.99615997 5.57149911,4.87944738 C5.80833977,4.88932724 5.97982814,4.82364248 6.16458351,4.65079928 C6.35670942,4.47133331 6.56357651,4.79769428 6.88837251,4.56920904 C7.21365989,4.34077807 7.49423254,4.5365838 7.67112604,4.42236831 C7.8485108,4.30815283 8.09223067,4.46313629 8.28435664,4.33263533 C8.47648254,4.20208009 8.77425315,4.39652869 9.09217003,4.11913272 C9.59238535,4.32156121 10.1761337,4.69667004 11.6079879,4.40602855 C12.4285769,4.23942812 12.6860551,4.54472654 12.6860551,4.96087477 C12.6860551,5.24641347 12.5347129,5.27127597 12.4202236,5.279093 C11.9637402,5.31008969 11.7676833,5.09029003 11.5873503,5.16075186 C11.4664731,5.20830545 11.3927675,5.42544515 11.5676955,5.50008692 C11.4232325,5.58151431 11.4419045,5.7342178 11.5156102,5.79018556 C11.5893158,5.84615332 11.7794762,5.79528835 11.9087067,5.72911502 C11.7426235,5.81222524 11.5706437,5.96150879 11.6689178,6.11757794 C11.7283737,6.21230514 11.8787331,6.29259256 12.0192651,6.09048977 C12.1602885,5.88686701 12.4182581,5.71722662 12.5823759,5.74415195 C12.4275942,5.78491992 12.4275942,6.00526244 12.346518,6.00526244 L12.346518,6.00526244 L12.346518,6.00526244 L12.346518,6.00526244 Z M12.346518,6.00526244" fill="#F9DD16" id="Shape"/><path d="M8.09154366,5.86397793 C7.96491249,5.89142686 8.00250612,6.14759652 7.83135616,6.16591609 C8.24043422,6.16591609 8.44818849,6.04693018 8.64159779,5.85484858 C8.55256026,5.91887578 8.51546126,6.08356932 8.50804152,6.17498458 C8.72371022,5.9463247 9.23666542,5.92806599 9.50427266,5.99209319 C9.77187996,6.0561204 9.81639876,5.90061707 9.91285609,5.6902159 C10.0098081,5.47981472 9.87575709,5.36088968 9.74220082,5.196257 C9.60814979,5.03156346 9.57847066,4.80290358 9.60814979,4.41867951 C8.89436549,3.24780946 7.61568746,3.81492492 7.60084786,4.32720338 C8.06186446,4.98579496 8.12122279,4.91263841 8.50804152,5.00411453 C8.89436549,5.09559066 9.13130428,5.09534721 8.87210609,5.36088968 C8.78306856,5.4523658 8.41108949,5.40939698 8.12122279,5.42491688 C7.4727327,5.45960842 7.17594088,4.87374736 6.98451014,5.17805916 C6.82671585,5.42832517 6.9894567,5.53885122 7.31098116,5.52552236 C7.08838728,5.52746995 6.79307946,5.5126804 6.84353407,5.76775455 C6.92861436,6.19756452 7.26250518,5.68784226 7.39259889,5.86470828 C7.28130196,5.83239037 7.10817344,5.91607611 7.10174295,6.04540862 C7.09580708,6.17480199 7.34906947,6.34211262 7.62755912,6.07011874 C7.77991224,5.92100596 7.97431085,5.86519518 8.09154366,5.86397793 C8.09154366,5.86397793 7.97431085,5.86519518 8.09154366,5.86397793 L8.09154366,5.86397793 L8.09154366,5.86397793 L8.09154366,5.86397793 L8.09154366,5.86397793 Z M8.09154366,5.86397793" fill="#F9DD16" id="leg"/><path d="M5.72973088,3.72972973 C5.48978493,4.36482824 5.63524439,4.67831912 5.67067682,4.97297297" id="Shape"/><path d="M8.7027027,3.86046128 C8.5015015,3.75379101 8.31703131,3.6885829 8.08108108,3.75919911" id="Shape"/></g><g id="head" stroke-width="0.1" transform="translate(2.486486, 0.621622)"><path d="M1.23727583,0.818852203 C0.713870421,0.52374855 0.537329881,0.515636615 0.657924475,1.10123293 C0.70951907,1.35150747 0.835086638,1.70441933 0.961275827,1.86486486 C0.9662488,1.62107987 1.03151907,0.947276941 1.23727583,0.818852203 C1.23727583,0.818852203 1.03151907,0.947276941 1.23727583,0.818852203 L1.23727583,0.818852203 L1.23727583,0.818852203 L1.23727583,0.818852203 L1.23727583,0.818852203 Z M1.23727583,0.818852203" fill="#F9DD16" id="left-ear"/><path d="M2.48648649,0.818852203 C3.00989189,0.52374855 3.18643243,0.515636615 3.06583784,1.10123293 C3.01424324,1.35150747 2.88805405,1.70441933 2.76186486,1.86486486 C2.75751351,1.62107987 2.69224324,0.947276941 2.48648649,0.818852203 C2.48648649,0.818852203 2.69224324,0.947276941 2.48648649,0.818852203 L2.48648649,0.818852203 L2.48648649,0.818852203 L2.48648649,0.818852203 L2.48648649,0.818852203 Z M2.48648649,0.818852203" fill="#F9DD16" id="right-ear"/><path d="M1.55431528,0.621621622 C2.38658116,0.621621622 2.49054909,1.06778096 2.48636948,1.62379442 C2.48271232,2.2246804 2.20006583,2.0183981 2.03915065,2.78970418 C1.97645642,3.09128092 1.7659083,3.10810811 1.55431528,3.10810811 C1.3421998,3.10810811 1.13217414,3.09128092 1.06895746,2.78970418 C0.908564723,2.0183981 0.625395791,2.2246804 0.621738627,1.62379442 C0.617559012,1.06778096 0.721526941,0.621621622 1.55431528,0.621621622 C1.55431528,0.621621622 0.721526941,0.621621622 1.55431528,0.621621622 L1.55431528,0.621621622 L1.55431528,0.621621622 L1.55431528,0.621621622 L1.55431528,0.621621622 Z M1.55431528,0.621621622" fill="#F9DD16" id="Shape"/><path d="M1.86486486,1.87148254 C1.92145971,1.80256274 1.96867995,2.30196447 2.13127413,1.98403192 M2.48648649,1.89747491 C2.42155021,2.01198274 2.29992887,1.85823616 2.22318482,1.86508849 C2.14644077,1.87194085 2.06416143,2.00545035 2.06416143,2.00545035 C2.001494,2.07102224 1.99408371,1.96369958 2.04160077,2.27339799 C2.12974836,2.84206608 2.23373497,3.10810811 1.87081482,3.10810811 C1.50031949,3.10810811 1.61256993,2.84206608 1.70002887,2.27339799 C1.74823458,1.96369958 1.7420367,2.08157182 1.67936927,2.01599993 C1.67936927,2.01599993 1.61171574,1.88686555 1.51672313,1.87221635 C1.40021548,1.85424923 1.33033364,2.00752116 1.24324324,1.91020195 M1.24324324,1.99320969 C1.65037247,2.29878391 1.72513347,1.78119091 1.86486486,1.87685355" id="Shape"/><path d="M2.48650864,3.72972973 C2.81366704,3.72972973 3.00323547,3.72275931 2.95202142,3.16401084 C2.93061853,2.93974935 3.17598733,2.85043509 3.0896114,2.48648649 C3.18133806,2.9334295 2.48650864,2.89077057 2.48650864,2.68816383 C2.48650864,2.89077057 1.79167923,2.9334295 1.88340588,2.48648649 C1.79702995,2.85043509 2.04163436,2.93974935 2.02099586,3.16401084 C1.96978181,3.72275931 2.15935024,3.72972973 2.48650864,3.72972973 C2.48650864,3.72972973 2.15935024,3.72972973 2.48650864,3.72972973 L2.48650864,3.72972973 L2.48650864,3.72972973 L2.48650864,3.72972973 L2.48650864,3.72972973 Z M2.48650864,3.72972973" fill="#CA4638" id="Shape"/><g fill="#000000" id="Group" transform="translate(1.243243, 2.486486)"><path d="M1.24324324,0.248648649 L0,0" id="Shape"/><path d="M1.24324324,0.0621621622 L0,0.0621621622" id="Shape"/><path d="M0,0.87027027 L1.24324324,0.621621622" id="Shape"/></g><g fill="#000000" id="Group-copy" transform="translate(2.486486, 3.108108) scale(-1, 1) translate(-2.486486, -3.108108) translate(1.864865, 2.486486)"><path d="M1.24324324,0.248648649 L0,0" id="Shape"/><path d="M1.24324324,0.0621621622 L0,0.0621621622" id="Shape"/><path d="M0,0.87027027 L1.24324324,0.621621622" id="Shape"/></g><path d="M2.10543243,3.10810811 C2.28818919,3.10810811 2.36216216,3.15603042 2.36216216,3.4526684 C2.36216216,4.08113208 2.35408108,4.35135135 2.12905405,4.35135135 C1.90340541,4.35135135 1.91894595,4.09459277 1.91894595,3.63318694 C1.91894595,3.39245832 1.91894595,3.27209401 1.86486486,3.29214542 C1.86486486,3.13508536 1.94256757,3.10810811 2.10543243,3.10810811 C2.10543243,3.10810811 1.94256757,3.10810811 2.10543243,3.10810811 L2.10543243,3.10810811 L2.10543243,3.10810811 L2.10543243,3.10810811 L2.10543243,3.10810811 Z M2.10543243,3.10810811" fill="#0051BA" id="Shape"/></g><g fill="#0051BA" id="claws-and-tongue"><path d="M1.24816756,1.24324324 C1.35571284,0.94427582 1.65551785,1.22446668 1.77507935,1.10503404 C1.85799136,1.02229714 1.90725792,0.802980061 1.81533374,0.699923324 C1.58942856,0.446997056 1.19469532,0.85450843 1.24816756,1.24324324 C1.24816756,1.24324324 1.19469532,0.85450843 1.24816756,1.24324324 L1.24816756,1.24324324 L1.24816756,1.24324324 Z M1.24816756,1.24324324" id="Shape" stroke-width="0.1" transform="translate(1.554054, 0.932432) rotate(16.000000) translate(-1.554054, -0.932432) "/><path d="M1.24816756,1.86486487 C1.35571284,1.56589744 1.65551785,1.84608831 1.77507935,1.72665566 C1.85799136,1.64391877 1.90725792,1.42460168 1.81533374,1.32154495 C1.58942856,1.06861868 1.19469532,1.47613005 1.24816756,1.86486487 C1.24816756,1.86486487 1.19469532,1.47613005 1.24816756,1.86486487 L1.24816756,1.86486487 L1.24816756,1.86486487 Z M1.24816756,1.86486487" id="Shape" stroke-width="0.1" transform="translate(1.554054, 1.554054) rotate(16.000000) translate(-1.554054, -1.554054) "/><path d="M0.626545938,3.10810811 C0.734091219,2.80914069 1.03389622,3.08933155 1.15345774,2.96989891 C1.23636974,2.88716201 1.2856363,2.66784492 1.19371211,2.56478819 C0.967806943,2.31186192 0.573073703,2.71937329 0.626545938,3.10810811 C0.626545938,3.10810811 0.573073703,2.71937329 0.626545938,3.10810811 L0.626545938,3.10810811 L0.626545938,3.10810811 Z M0.626545938,3.10810811" id="Shape" stroke-width="0.5" transform="translate(0.932432, 2.797297) rotate(7.000000) translate(-0.932432, -2.797297) "/></g><g fill="#0051BA" id="claws-and-tongue-copy" transform="translate(0.621622, 3.729730)"><path d="M0.626545938,1.24324324 C0.734091219,0.94427582 1.03389622,1.22446668 1.15345774,1.10503404 C1.23636974,1.02229714 1.2856363,0.80298006 1.19371211,0.699923323 C0.967806943,0.446997055 0.573073703,0.854508429 0.626545938,1.24324324 C0.626545938,1.24324324 0.573073703,0.854508429 0.626545938,1.24324324 L0.626545938,1.24324324 L0.626545938,1.24324324 Z M0.626545938,1.24324324" id="Shape" stroke-width="0.1" transform="translate(0.932432, 0.932432) rotate(-12.000000) translate(-0.932432, -0.932432) "/><path d="M0.626545938,1.86486486 C0.73409122,1.56589744 1.03389622,1.8460883 1.15345774,1.72665566 C1.23636974,1.64391876 1.2856363,1.42460168 1.19371211,1.32154495 C0.967806943,1.06861868 0.573073703,1.47613005 0.626545938,1.86486486 C0.626545938,1.86486486 0.573073703,1.47613005 0.626545938,1.86486486 L0.626545938,1.86486486 L0.626545938,1.86486486 Z M0.626545938,1.86486486" id="Shape" stroke-width="0.5" transform="translate(0.932432, 1.554054) rotate(-18.000000) translate(-0.932432, -1.554054) "/><path d="M1.24816756,2.48648649 C1.35571284,2.18751907 1.65551785,2.46770993 1.77507935,2.34827729 C1.85799136,2.26554039 1.90725792,2.0462233 1.81533374,1.94316657 C1.58942856,1.6902403 1.19469533,2.09775167 1.24816756,2.48648649 C1.24816756,2.48648649 1.19469533,2.09775167 1.24816756,2.48648649 L1.24816756,2.48648649 L1.24816756,2.48648649 Z M1.24816756,2.48648649" id="Shape" stroke-width="0.1" transform="translate(1.554054, 2.175676) rotate(-17.000000) translate(-1.554054, -2.175676) "/></g><g fill="#0051BA" id="claws-and-tongue-copy-2" transform="translate(6.837838, 4.972973)"><path d="M0.626545938,1.24324324 C0.734091219,0.94427582 1.03389622,1.22446668 1.15345774,1.10503404 C1.23636974,1.02229714 1.2856363,0.80298006 1.19371211,0.699923323 C0.967806943,0.446997055 0.573073703,0.854508429 0.626545938,1.24324324 C0.626545938,1.24324324 0.573073703,0.854508429 0.626545938,1.24324324 L0.626545938,1.24324324 L0.626545938,1.24324324 Z M0.626545938,1.24324324" id="Shape" stroke-width="0.1" transform="translate(0.932432, 0.932432) rotate(-12.000000) translate(-0.932432, -0.932432) "/><path d="M0.626545938,1.86486486 C0.73409122,1.56589744 1.03389622,1.8460883 1.15345774,1.72665566 C1.23636974,1.64391876 1.2856363,1.42460168 1.19371211,1.32154495 C0.967806943,1.06861868 0.573073703,1.47613005 0.626545938,1.86486486 C0.626545938,1.86486486 0.573073703,1.47613005 0.626545938,1.86486486 L0.626545938,1.86486486 L0.626545938,1.86486486 Z M0.626545938,1.86486486" id="Shape" stroke-width="0.5" transform="translate(0.932432, 1.554054) rotate(-18.000000) translate(-0.932432, -1.554054) "/><path d="M1.24816756,2.48648649 C1.35571284,2.18751907 1.65551785,2.46770993 1.77507935,2.34827729 C1.85799136,2.26554039 1.90725792,2.0462233 1.81533374,1.94316657 C1.58942856,1.6902403 1.19469533,2.09775167 1.24816756,2.48648649 C1.24816756,2.48648649 1.19469533,2.09775167 1.24816756,2.48648649 L1.24816756,2.48648649 L1.24816756,2.48648649 Z M1.24816756,2.48648649" id="Shape" stroke-width="0.1" transform="translate(1.554054, 2.175676) rotate(-17.000000) translate(-1.554054, -2.175676) "/></g><g fill="#0051BA" id="claws-and-tongue-copy-3" transform="translate(11.189189, 4.972973)"><path d="M0.626545938,1.24324324 C0.734091219,0.94427582 1.03389622,1.22446668 1.15345774,1.10503404 C1.23636974,1.02229714 1.2856363,0.80298006 1.19371211,0.699923323 C0.967806943,0.446997055 0.573073703,0.854508429 0.626545938,1.24324324 C0.626545938,1.24324324 0.573073703,0.854508429 0.626545938,1.24324324 L0.626545938,1.24324324 L0.626545938,1.24324324 Z M0.626545938,1.24324324" id="Shape" stroke-width="0.1" transform="translate(0.932432, 0.932432) rotate(-12.000000) translate(-0.932432, -0.932432) "/><path d="M0.626545938,1.86486486 C0.73409122,1.56589744 1.03389622,1.8460883 1.15345774,1.72665566 C1.23636974,1.64391876 1.2856363,1.42460168 1.19371211,1.32154495 C0.967806943,1.06861868 0.573073703,1.47613005 0.626545938,1.86486486 C0.626545938,1.86486486 0.573073703,1.47613005 0.626545938,1.86486486 L0.626545938,1.86486486 L0.626545938,1.86486486 Z M0.626545938,1.86486486" id="Shape" stroke-width="0.5" transform="translate(0.932432, 1.554054) rotate(-18.000000) translate(-0.932432, -1.554054) "/><path d="M1.24816756,2.48648649 C1.35571284,2.18751907 1.65551785,2.46770993 1.77507935,2.34827729 C1.85799136,2.26554039 1.90725792,2.0462233 1.81533374,1.94316657 C1.58942856,1.6902403 1.19469533,2.09775167 1.24816756,2.48648649 C1.24816756,2.48648649 1.19469533,2.09775167 1.24816756,2.48648649 L1.24816756,2.48648649 L1.24816756,2.48648649 Z M1.24816756,2.48648649" id="Shape" stroke-width="0.1" transform="translate(1.554054, 2.175676) rotate(-17.000000) translate(-1.554054, -2.175676) "/></g></g></g></g></g></g></svg>