<?xml version="1.0" ?><svg height="120px" version="1.1" viewBox="0 0 180 120" width="180px" xmlns="http://www.w3.org/2000/svg" xmlns:sketch="http://www.bohemiancoding.com/sketch/ns" xmlns:xlink="http://www.w3.org/1999/xlink"><title/><defs/><g fill="none" fill-rule="evenodd" id="Page-1" stroke="none" stroke-width="1"><g id="syria"><rect d="M0,0 L0,120 L180,120 L180,0 L0,0 Z M0,0" fill="#FFFFFF" height="120" id="Rectangle-326" width="180" x="0" y="0"/><rect d="M0,0 L0,40 L180,40 L180,0 L0,0 Z M0,0" fill="#CA4638" height="40" id="Rectangle-1" width="180" x="0" y="0"/><rect d="M0,80 L0,120 L180,120 L180,80 L0,80 Z M0,80" fill="#1C1C1C" height="40" id="Rectangle-1-copy" width="180" x="0" y="80"/><path d="M45.9999997,67.1458977 L38.9465775,70.8541023 L40.293661,62.9999999 L34.5873217,57.437694 L42.4732896,56.2917949 L46.0000001,49.1458977 L49.5267128,56.2917967 L57.4126801,57.4376997 L51.7063385,63.0000013 L53.0534222,70.8541023 L45.9999997,67.1458977 L45.9999997,67.1458977 L45.9999997,67.1458977 L45.9999997,67.1458977 Z M133.333333,67.1458977 L126.279911,70.8541023 L127.626994,62.9999999 L121.920655,57.437694 L129.806623,56.2917949 L133.333333,49.1458977 L136.860046,56.2917967 L144.746013,57.4376997 L139.039672,63.0000013 L140.386755,70.8541023 L133.333333,67.1458977 L133.333333,67.1458977 L133.333333,67.1458977 L133.333333,67.1458977 Z M133.333333,67.1458977" fill="#479951" id="Star-7"/></g></g></svg>