<?xml version="1.0" encoding="UTF-8" standalone="no"?>
<svg width="180px" height="120px" viewBox="0 0 180 120" version="1.1" xmlns="http://www.w3.org/2000/svg" xmlns:xlink="http://www.w3.org/1999/xlink">
    <!-- Generator: Sketch 39.1 (31720) - http://www.bohemiancoding.com/sketch -->
    <title>icon-flag-fk</title>
    <desc>Created with Sketch.</desc>
    <defs></defs>
    <g id="Page-1" stroke="none" stroke-width="1" fill="none" fill-rule="evenodd">
        <rect id="Rectangle-326" fill="#346DA6" x="0" y="0" width="180" height="120"></rect>
        <path d="M161.884353,108.753533 C161.147346,109.905601 160.428953,110.805806 159.920898,110.938184 C158.673864,111.263038 155.627071,110.285343 153.079124,108.527374 C149.352332,110.051206 144.354899,111.185534 137.897863,110.974746 C131.061957,110.751447 125.775802,109.78304 121.784119,108.422627 C121.346149,108.965822 120.856704,109.485503 120.311824,109.966099 C116.846891,113.021905 113.89167,111.757364 112.872572,111.652154 C111.853474,111.546607 109,103.327088 109,103.327088 C109,103.327088 109.034088,103.397591 109.105599,103.51644 C109.028794,103.234364 108.970558,102.894985 109.015959,102.600381 C109.115853,101.954256 110.312661,100.231257 111.210108,100.015883 C111.225987,100.012073 111.242146,100.008971 111.258572,100.006553 C110.802115,98.8491514 111.088964,98.6756338 111.088964,98.6756338 C111.880519,98.0705721 112.484935,97.4181491 113.003847,96.6840563 C112.996033,96.6071784 112.999866,96.5477205 113.017707,96.5100242 C113.210871,96.1018742 113.983528,93.7551753 114.080265,93.3470254 C114.080265,93.3470254 113.983528,93.7551753 114.080265,93.3470254 C114.466593,92.9388755 115.142514,91 116.205072,91 C117.267321,91 121.227343,93.5511004 121.227343,93.5511004 L121.246133,93.7322466 L124.694108,95.9505966 C124.694108,95.9505966 125,97.8474086 125,100.060187 C125,100.890229 124.82793,102.06118 124.430061,103.361798 C127.801426,104.682691 132.028314,105.597848 137.094605,105.384152 C141.754395,105.187606 145.831421,104.317203 149.217329,103.156251 C148.268536,100.174436 148,96.8930759 148,96.7599856 L153.390244,92 C153.390244,92 153.384572,92.0595673 153.375386,92.1683327 C153.441946,91.7709542 153.48175,91.5187286 153.48175,91.4838337 C153.48175,91.2709296 156.021894,90.8451213 157.291965,91.0580254 C158.182797,91.207357 159.594322,93.9752286 160.39443,95.6515455 C160.399219,95.6137388 160.401621,95.5772282 160.401621,95.5420647 C161.606508,96.9650837 161.995927,98.2690569 163,98.8789222 C163,99.2696667 162.993305,99.6471925 162.919185,100.055626 C164.903155,100.426076 165,102.02721 165,102.637264 C165,102.754434 164.992866,102.860631 164.98127,102.955855 C164.993647,102.943997 165,102.937791 165,102.937791 C165,102.937791 164.992268,102.954454 164.977369,102.986261 C164.924333,103.3794 164.796468,103.575886 164.796468,103.575886 L161.845097,109 C161.845097,109 161.867187,108.903781 161.884353,108.753533 L161.884353,108.753533 Z M160.038783,105.937991 C159.503674,106.057111 158.971666,106.084968 158.469678,105.975976 C158.328463,105.945319 158.190151,105.904608 158.054743,105.854649 C158.938405,105.242357 159.664126,104.647532 160.241303,104.117687 C160.237007,104.307316 160.229153,104.509302 160.216844,104.723462 C160.189571,105.199408 160.125624,105.600221 160.038783,105.937991 L160.038783,105.937991 Z M114.443334,106.168681 C114.992362,106.1346 115.588864,106.036172 116.235432,105.856171 C116.248384,105.852565 116.261296,105.848901 116.274167,105.845178 C115.367279,105.262965 114.597538,104.657507 113.95446,104.043302 C113.968862,104.133982 113.98488,104.227349 114.00266,104.32338 C114.113472,104.921372 114.278904,105.578338 114.443334,106.168681 L114.443334,106.168681 Z M116.060442,98.1454096 C116.632795,97.6417862 117.252339,97.2244498 117.750386,97.2244498 C118.335228,97.2244498 119.297424,98.0438265 120.158466,98.9191568 C120.086335,99.6292357 119.977471,100.348726 119.818584,101.043439 C118.185282,100.018358 116.931007,98.9823128 116.060442,98.1454096 L116.060442,98.1454096 Z M157.910529,98.6458751 C157.308557,98.0599356 156.418683,97.3564161 155.492866,97.232246 C154.803459,97.1398026 154.054221,97.6494449 153.427085,98.2557482 C153.44745,98.3690374 153.469731,98.4783104 153.494068,98.5828968 C153.646485,99.2383049 153.897587,100.095291 154.247374,100.994012 C155.721483,100.21203 156.949305,99.4053677 157.910529,98.6458751 L157.910529,98.6458751 Z" id="Combined-Shape" fill="#A43907"></path>
        <path d="M118.401077,43.6375533 C118.440864,43.6375533 118.734132,43.3638472 119.002693,43.1224583 C119.37778,42.9377891 119.724632,42.678263 120.105816,42.5041463 C120.389778,42.3425608 120.950966,42.2172496 121.208618,42.0919384 C121.546485,41.9181515 121.822105,41.7179833 122.111202,41.3704096 C122.145855,40.9093962 122.211631,40.5783107 122.211631,40.0308986 C122.610463,39.8422722 122.964373,39.6592519 123.314433,39.5154737 C123.816261,39.3766421 123.925033,39.1794418 124.417556,39.1032658 C124.734567,38.9944429 125.258535,39.0000489 125.720896,39.0000489 C126.219836,39.0000489 126.534602,39.348612 126.982846,39.4310535 C127.514193,39.6417743 127.762219,39.787531 128.186077,40.1525824 C128.42544,40.4503614 128.57432,40.6924099 128.982456,40.916651 C129.305564,41.0795556 129.608137,41.3262209 129.985149,41.4317461 C130.399061,41.6675291 130.766447,41.8040523 131.087951,42.1532749 C131.382502,42.3590491 131.504109,42.6647425 131.789997,42.874474 C132.121126,43.1445526 132.435249,43.3875904 132.792689,43.5960028 C133.222323,43.8789423 133.648107,44.09395 134.344056,44.0322837 C134.712405,44.0108489 135.108991,43.9692983 135.547288,44.0497613 C136.037885,44.0497613 136.516611,44.0411874 136.951058,44.1529782 C137.462512,44.1529782 137.876423,44.22091 138.354828,44.2558653 C138.803072,44.3383069 139.259979,44.3590821 139.758598,44.3590821 C140.193366,44.4705432 140.671771,44.4619692 141.162368,44.4619692 L142.566139,44.4619692 L143.969909,44.4619692 C144.480721,44.4619692 144.99795,44.4824148 145.373679,44.5651861 C145.879678,44.5651861 146.314766,44.5186891 146.777449,44.4619692 C147.321952,44.4619692 147.737147,44.3640286 148.281649,44.3590821 L149.986388,44.3590821 C150.424043,44.4768087 150.983305,44.5576015 151.289728,44.7712901 C151.691126,44.8837404 151.891023,45.070718 152.292421,45.1834981 C152.599806,45.3384883 153.06666,45.5838344 153.295114,45.9046971 C153.578114,46.195551 153.868815,46.612046 154.097268,47.0384339 C154.376418,47.4341535 154.482623,47.886593 154.698884,48.3779449 C154.813432,48.8488512 154.893326,49.296674 154.899423,49.8206727 C155.008195,50.2675061 154.999852,50.7591878 154.999852,51.2634006 C154.885305,51.7333177 154.860278,52.2563271 154.698884,52.7061284 C154.681558,53.2090221 154.579203,53.6640997 154.498345,54.0459692 C154.409146,54.4677404 154.304224,54.7391381 154.297807,55.2825931 L154.297807,56.7253209 C154.262512,57.1985357 154.157269,57.5461094 154.097268,58.0648319 C153.854697,58.514963 153.622393,59.0412701 153.395544,59.6107766 C153.061847,59.8393047 152.77243,60.1644544 152.593389,60.4351926 C152.379374,60.5651205 152.255522,60.7623208 152.292421,60.8474005 C152.693177,60.9845833 152.593389,61.2586192 152.593389,61.7747035 C152.645369,62.172072 152.684514,62.664743 152.793928,63.1145443 C152.830506,63.6065557 152.937674,63.9073026 153.094575,64.2479513 C153.25276,64.4510874 153.283563,64.3511682 152.894037,64.3511682 C152.604299,64.57442 152.311031,64.4576827 152.192312,64.0418473 C151.958404,63.7645138 151.881397,63.4288116 151.791235,62.9084403 C151.735726,62.4312684 151.658077,61.9662978 151.490267,61.6718164 C151.438929,61.0910979 151.281706,61.0970337 150.688112,61.0535045 C150.405754,60.8074988 150.032913,60.7441836 149.484881,60.7441836 C148.939095,60.7441836 148.893212,60.6894424 148.883265,61.2596085 L148.883265,62.7023363 C148.788931,63.1204801 148.581976,63.4594799 148.482188,63.8357433 C148.183144,64.0510808 148.027526,64.4125047 147.680033,64.6601592 C147.514469,65.1280977 147.273822,65.20955 146.777449,65.2784712 C146.603863,65.0654421 146.320863,64.7874491 146.175833,64.5572721 C146.456587,64.0942802 146.701726,64.0243697 146.877879,63.5267522 C147.090931,63.1165229 147.216067,62.8504014 147.379065,62.4962323 C147.16505,62.1724018 146.972854,62.0263153 146.777449,61.5685996 C146.612526,61.3192962 146.384073,60.7827663 146.276263,60.4351926 C145.947059,60.3224125 145.428546,60.3042753 145.17314,60.1258717 C144.686714,60.0147404 144.550669,60.5380797 143.97023,60.5380797 L142.566459,60.5380797 C141.945592,60.5380797 141.790616,60.8787283 141.262798,60.8474005 C141.107822,60.8968655 140.731772,60.8256359 140.159675,60.8474005 C139.74063,60.9908489 139.235914,60.9502876 138.755905,60.9502876 C138.247339,60.9440221 137.831182,60.8289336 137.452565,60.7441836 C136.991807,60.6201915 136.533617,60.4945505 136.048795,60.4351926 C135.460013,60.4351926 135.240865,60.4813598 134.845563,60.7441836 C134.532723,60.9265444 134.079345,61.3433691 133.74244,61.5685996 C133.599978,61.9105673 133.525859,62.4893073 133.341363,62.9084403 C133.234837,63.3104255 133.061572,63.5653349 132.940286,63.9389602 C132.804561,64.2875233 132.676217,64.6463091 132.639638,65.1755841 C132.605627,65.8700721 132.451293,65.7849923 132.038023,65.587792 C131.86572,65.3002358 131.591062,64.9839898 131.436407,64.6601592 C131.527532,64.1358307 131.630207,63.8749855 131.636945,63.3206483 C131.539403,62.9206417 131.311592,62.9335026 131.03533,63.2174314 C131.03533,63.7569292 131.060678,64.1730943 130.834791,64.4540553 C130.721848,64.8797837 130.54024,65.0637933 130.233175,65.2784712 C130.083012,65.6610002 129.749637,65.8361061 129.431021,66 C129.380004,65.9825224 129.431021,65.8618279 129.431021,65.587792 C129.190695,65.1165559 129.413694,64.725453 129.413694,64.1450642 C129.419791,63.6246929 129.38963,63.2797572 129.543322,62.8052234 C129.543322,62.3056274 129.307489,61.8304341 129.230482,61.4657124 C129.044062,61.0828537 128.936573,60.8935678 128.428328,60.7441836 C128.071209,60.6046925 127.556547,60.4160661 127.325205,60.1258717 C127.034184,59.7548845 126.848405,59.6022027 126.422942,59.4046727 C125.961543,59.240449 125.737581,59.0900755 125.420249,58.8892478 C125.110297,58.5532159 124.85842,58.4074592 124.718203,57.9619448 C124.509002,57.6450393 124.473065,57.0564064 124.317126,56.622104 C124.283115,56.1696646 124.151241,55.7492125 124.016479,55.3854802 C123.956798,54.9330407 123.884284,54.6019553 123.71551,54.1488563 C123.659681,53.7251065 123.535186,53.2819005 123.414863,52.8093453 C123.414863,52.3051325 123.423205,51.8131211 123.314433,51.3666175 L123.314433,49.9238896 C123.242239,49.5073947 123.215608,48.8976567 123.113895,48.5840488 C123.113895,48.023446 123.053252,47.7068703 122.913356,47.347425 C122.68394,46.9833629 122.66533,46.8201285 122.31174,46.729113 C122.056334,47.0493162 121.635364,47.1799036 121.108509,47.2445379 C120.74048,47.1620963 120.221005,47.1083443 119.804847,46.935217 C119.402808,46.8379359 119.127829,46.6816267 118.802154,46.523009 C118.624076,46.2535899 118.411345,45.948556 118.200539,45.6985931 C118.138291,45.1604144 118.018931,44.8834107 118,44.3590821 C118,43.9656709 118.009626,44.174413 118.401077,43.6375533 C118.401077,43.6375533 118.009626,44.174413 118.401077,43.6375533 L118.401077,43.6375533 L118.401077,43.6375533 L118.401077,43.6375533 L118.401077,43.6375533 L118.401077,43.6375533 Z" id="path1019" fill="#D0D0D0"></path>
        <path d="M122.152606,63.0004817 L122.44304,63.0004817 C121.532643,63.0004817 122.076713,62.9416185 123.604444,64.1252458 C124.244449,63.6088407 124.236892,63.5391594 124.766177,64.4065163 C125.071724,64.9003307 125.161416,64.356244 125.637149,63.8442934 C125.866473,64.8659673 126.013332,65.9372772 126.798882,64.9690574 C127.696136,64.9690574 128.635445,64.8968307 129.122019,65.250328 C129.710114,66.3082744 129.517587,65.0708748 129.993319,65.5315985 C131.272014,65.6801883 131.247702,64.4695158 132.640402,64.1564274 C133.506116,65.204192 133.885256,64.3979255 134.963868,63.875475 C135.764859,64.0924733 136.519854,65.2694188 136.672299,64.1252458 C137.328074,63.0892538 137.38524,63.1773894 137.834032,64.1252458 C138.471737,64.6814233 138.740486,63.847157 139.28587,63.5630228 C140.258033,64.1137913 141.34223,64.1901544 142.770741,63.8442934 C143.012549,64.7810134 143.622328,64.3746984 144.222578,64.1252458 C145.507187,64.6480145 145.955322,64.8080587 147.417016,64.1252458 C148.141128,63.2967067 147.731105,64.1484729 148.287987,64.6877869 C149.37087,64.3622894 149.071894,64.2932445 150.32102,64.4065163 C151.576389,64.4065163 151.677909,64.3772438 152.063291,63.5630228 C152.694097,64.1739272 152.922107,64.6142875 153.805563,63.8442934 C155.159166,63.8827931 154.7406,64.0097467 155.548162,63.5630228 C156.145456,64.844013 156.285744,63.9184292 157,64.4065163 C156.529524,65.5618256 155.806727,66.103685 154.967296,66.6563626 C154.40877,67.5523557 154.059527,68.5199391 152.934591,68.9065271 C152.113887,69.7172481 151.239302,70.187199 150.32102,70.8751028 C149.062038,71.1799186 147.676238,71.1563733 146.255283,71.1563733 L142.189874,71.1563733 L138.124137,71.1563733 L134.058728,71.1563733 C133.191371,71.5760519 131.772716,71.7761867 130.573857,71.9998668 C129.235039,71.9998668 127.717492,72.0151394 126.798882,71.7185963 C126.17629,71.1159645 125.084208,70.4423788 124.475744,69.7500205 C123.860052,69.2692515 123.84231,68.3309406 123.314011,67.7814448 C122.828094,66.9767692 122.677949,65.7177335 122.152606,64.9690574 L122.152606,63.0004817 C122.152606,63.0004817 122.152606,63.6565676 122.152606,63.0004817 L122.152606,63.0004817 L122.152606,63.0004817 L122.152606,63.0004817 L122.152606,63.0004817 L122.152606,63.0004817 Z" id="path993" fill-opacity="0.996081" fill="#005120"></path>
        <path d="M137.186804,105 C137.186804,105 111.859479,98.1150355 112.000587,71.9204967 L112.000587,35.0003239 L161.626108,35 L161.999404,71.7213221 C162.140512,97.9158609 137.186804,105 137.186804,105 Z M160.999386,70.5763814 L160.81281,36 L113.18655,36 C113.18655,36 113.213889,51.6517487 113.18655,62.4701443 C113.16572,70.7129043 112.974775,77.6492767 114.215681,81.5186958 C117.931607,93.105781 125.715918,98.0611452 128.502778,99.8764882 C132.384031,99.4493287 133.685803,96.6110527 136.868676,96.502836 C140.088822,96.3933519 141.38384,99.4879183 145.372322,99.8877593 C152.330387,95.3356108 161.084344,86.4494159 160.999386,70.5763814 Z M118.760603,89.758092 C118.760603,89.758092 119.063668,89.4179508 121.390984,88.9908957 C123.71862,88.5635195 126.14977,91.4366691 128.880248,91.9202367 C131.611046,92.4038044 134.953637,88.9908957 137.288644,88.9908957 C139.559876,88.9908957 142.652494,92.5743053 145.648328,91.9202367 C148.644162,91.2661681 149.812627,87.5873936 152.635082,87.7203266 C155.457537,87.8529384 155.904854,88.5262275 155.904854,88.5262275 L158.55106,82.9514509 C158.55106,82.9514509 156.590428,81.3469308 153.752911,81.1867049 C150.915394,81.026479 149.779938,84.4397087 146.373251,84.4397087 C141.831108,84.4397087 140.674821,81.026479 137.288644,81.026479 C133.881957,81.026479 132.746501,84.4397087 129.339814,84.4397087 C125.933127,84.4397087 123.922124,80.9738195 121.521098,81.0001493 C119.119752,81.026479 115.971607,84.6265854 115.878348,84.4397087 C116.064867,84.3465914 118.760603,89.758092 118.760603,89.758092 Z M120.957171,67 C124.367433,67 125.50408,70.3334379 128.914342,70.3334379 C132.324604,70.3334379 133.461252,67 136.871514,67 C140.281776,67 142.240992,70.0461915 145.23997,70.1898147 C148.238947,70.3334379 150.512562,67 153.922824,67 C157.333086,67 159.642161,70.3723227 160.615513,70.3334379 C160.615513,70.3334379 160.242188,74.7779172 160.242188,77 C158.429583,76.9347737 156.196439,73.6668757 153.922824,73.6668757 C150.96074,73.6668757 149.375915,77 145.965653,77 C143.327271,77 139.145129,73.6668757 136.871514,73.6668757 C134.543039,73.6668757 131.187957,77 128.914342,77 C126.641048,77 123.230786,73.6668757 120.957171,73.6668757 C118.683877,73.6668757 114.572119,76.7914641 113.969308,77 L113.387277,70.3334379 C113.387277,70.3334379 117.546909,67 120.957171,67 Z" id="Combined-Shape" fill="#FFFFFF"></path>
        <path d="M155.688924,84.7980587 L155.494125,85.2978137 L155.494125,86.5794599 C155.494125,86.5794599 155.719238,87.6795885 155.810729,88 L148,87.9680323 C148,87.9680323 148.024561,86.639503 148.038922,85.9063448 C147.545476,85.9648159 147.175598,86 147,86 L147,85.4616911 C147,85.4616911 155.590929,84 155.874132,84 C155.895126,84 155.913008,84.0042266 155.928123,84.0120532 C155.975113,84.0041669 156,84 156,84 L155.97552,84.0628019 C156.066617,84.2463609 155.874132,84.7690883 155.874132,84.7690883 C155.874132,84.7690883 155.808672,84.7793717 155.688924,84.7980587 L155.688924,84.7980587 L155.688924,84.7980587 Z M151.814587,88.8825967 C151.015648,90.7974822 147.472711,97.7554687 138.0947,97.9940695 C127.216225,98.2708459 126.2702,88.7677645 126.2702,88.7677645 L124.283775,88.0297998 L124,86 L129.006249,87.9364311 L129.120636,73.7257179 L126.113443,75 C126.113443,75 125.936066,74.4442604 126.024907,73.9997452 C125.936066,74.2221939 126.024907,73.9997452 126.024907,73.9997452 C125.977341,74.118847 127.583335,73.5371519 129.126711,72.970948 L129.142576,71 L130,71.0958498 C130,71.0958498 130,71.6854249 129.999105,72.6506881 C130.981869,72.2903761 131.785448,72 131.881681,72 C132.147898,72 131.881681,72.5557396 131.881681,72.5557396 L129.998359,73.3537874 C129.993221,77.6569732 129.972,86.7735884 129.884341,88.666157 C130.256578,89.1533249 130.847675,89.8742954 131.47285,90.4287406 C132.373072,91.2265916 133.626844,92.1626598 137.010108,92.4606447 C137.024397,91.0627319 137.072354,86.4612125 137.122036,81.7027314 L134,82 L134,81.5334862 L137.126362,81.2884156 C137.148814,79.1382794 137.171428,76.9741739 137.191271,75.0760131 C135.529277,75.5692429 134.066339,76 134.02633,76 C133.932415,76 134.119921,75.0357538 134.119921,75.0357538 L137.20001,74.2400381 C137.207016,73.5698815 137.213583,72.9418501 137.219562,72.3701043 C136.280253,72.7203043 135.53376,73 135.53376,73 L135,72.3333333 C135.072249,72.3333333 136.069778,71.9481292 137.228758,71.4907451 C137.244527,69.9829877 137.25437,69.0422745 137.25437,69.0422745 C137.25437,69.0422745 138,68.9471569 138,69.0422745 C138,69.0597495 137.99721,69.8725422 137.992141,71.1884198 C139.478602,70.5979263 140.960417,70 140.960417,70 C140.960417,70 141.049479,71 140.960417,71 C140.91356,71 139.403708,71.5574222 137.988641,72.0837057 C137.9863,72.6739722 137.98363,73.3312888 137.98066,74.0383634 L142,73 L142,73.6428308 C142,73.6428308 139.982634,74.2462857 137.977244,74.8425321 C137.968929,76.7769512 137.958652,79.0064684 137.946949,81.2240911 L140.805676,81 L141,81.3334862 L137.944821,81.6243889 C137.918801,86.4790421 137.886088,91.1877957 137.85233,92.5189191 C138.139995,92.5337522 138.441155,92.544427 138.756625,92.5505876 C141.257048,92.5994165 143.466706,91.3847139 145.008167,90.2287728 L145.089702,82.5296721 C143.529109,82.780158 142.095669,83 142.095669,83 L142,82.29407 C142.095669,82.4118599 142,82.29407 142,82.29407 C142.044511,82.3488733 143.521402,82.0725537 145.097838,81.7613664 L145.158179,76.0635238 L142.09176,77 L142,76.2760707 C142.183205,76.5864278 142,76.2760707 142,76.2760707 C142.078157,76.408472 143.524218,76.013671 145.163962,75.5173902 L145.222392,70 L146,70 C146,70.063626 145.975576,72.3071547 145.942915,75.2787591 C147.928265,74.6640005 149.927814,74 149.974307,74 C150.066067,74 149.882547,74.6207142 149.882547,74.6207142 L145.936901,75.825704 C145.917062,77.6292833 145.894693,79.6561047 145.873127,81.6072499 C147.42422,81.297034 148.860299,81 148.904331,81 C149,81 149,81.70593 149,81.8233151 C149,81.8786061 147.478703,82.1412596 145.864314,82.4044196 C145.829467,85.5557422 145.797997,88.3944016 145.784531,89.6085531 C146.41063,89.0771232 146.861558,88.617115 147.093601,88.3816794 L147,88 L156,88.1251075 L155.908063,89 L151.814587,88.8825967 L151.814587,88.8825967 L151.814587,88.8825967 Z" id="Combined-Shape" fill="#DD8B59"></path>
        <path d="M121.548733,84.7864922 L118,83 C118.184102,83.190367 118,83 118,83 C118.184102,83.190367 118.091893,83.5714286 118.091893,83.6664482 C118.091893,83.7164122 119.938292,84.6293988 121.695986,85.4872039 C121.970788,86.7901609 122.222243,87.9585743 122.222243,87.9585743 C122.222243,87.9585743 123,88.0517821 123,87.9585743 C123,87.9219156 122.792308,87.0006363 122.540858,85.8986898 C123.790663,86.5062583 124.815898,87 124.815898,87 L125,86.5239187 L122.382564,85.2062573 C122.033606,83.6822179 121.666539,82.0932078 121.666539,82.0932078 L121,82 C121,82.1301322 121.265323,83.4324845 121.548733,84.7864922 L121.548733,84.7864922 L121.548733,84.7864922 Z" id="Path" fill="#DD8B59"></path>
        <path d="M126,82.2220948 C126.388982,82.2220948 133,81 133,81 L132.902671,82.2220948 L126.388982,83 L126,82.2220948 L126,82.2220948 Z" id="Path" fill="#DD8B59"></path>
        <path d="M127,74.3067167 C127.176458,74.3067167 129.118708,75.2019241 129.913224,74.9578275 C130.70774,74.7137309 130.178063,74.1440789 130.35452,74.1440789 C130.531282,74.1440789 131.149036,74.5508133 131.502255,74.2252578 C131.855475,73.8999823 132.120313,72.923596 131.943855,73.0047749 C131.767094,73.0862337 127.088077,74.6322721 127,74.3067167 C127,74.3067167 127.088077,74.6322721 127,74.3067167 L127,74.3067167 Z M143,73.7426464 C143,73.7426464 143.508688,74.9728327 144.017026,74.7679192 C144.525364,74.5630057 145.034053,74.1528261 145.034053,74.1528261 C145.034053,74.1528261 145.440933,75.1780989 146.152536,74.9728327 C146.86449,74.7679192 147.27137,73.6400133 147.27137,73.6400133 C147.27137,73.6400133 147.982974,73.8452795 148.288047,73.7426464 C148.593469,73.6400133 149,72 149,72 L143,73.7426464 L143,73.7426464 Z M143.009862,83.0182603 C142.920462,83.2032538 143.456555,83.6662152 143.902941,83.6662152 C144.349327,83.6662152 144.528127,83.0182603 144.61722,83.2032538 C144.70662,83.3885657 144.70662,84.2215141 145.867593,83.9438646 C147.028565,83.6662152 147.028565,82.8332668 147.028565,82.8332668 C147.028565,82.8332668 146.671272,83.1109163 147.474951,83.2032538 C148.27863,83.2959098 149.082309,82 148.993217,82 C148.903817,82 143.188662,83.1109163 143.009862,83.0182603 C143.009862,83.0182603 143.188662,83.1109163 143.009862,83.0182603 L143.009862,83.0182603 Z M142.73275,76.96 C142.73275,76.96 141.763717,77.9865596 142.054394,79.3865596 C142.34507,80.7868807 142.73275,82 142.829754,82 C142.926757,82 143.99246,80.1334404 145.155167,80.04 C146.317873,79.9465596 148.449613,81.0668807 148.449613,81.0668807 C148.449613,81.0668807 148.158937,78.8265596 148.25594,77.8 C148.35261,76.7731193 150,75 150,75 L142.73275,76.96 L142.73275,76.96 Z M126,82.8204652 C126.09241,82.8204652 126,83.8751762 126.73833,83.6409304 C127.476977,83.4062814 127.66148,82.8204652 127.66148,82.8204652 C127.66148,82.8204652 127.845983,84.109422 128.861543,83.9925007 C129.876786,83.8751762 130.430613,82.4688948 130.430613,82.4688948 C130.430613,82.4688948 130.523023,83.5236059 131.16926,83.1720355 C131.815497,82.8204652 132,82 132,82 L126.184503,83.054711 L126,82.8204652 L126,82.8204652 Z M126.664435,76.6765152 C126.664435,76.6765152 125.760065,76.9412122 126.061522,78.5293939 C126.362979,80.1175756 127.066493,81 127.166748,81 C127.267349,81 128.071119,79.5001518 129.276946,79.2354548 C130.483119,78.9704543 132.593317,80.0295457 132.593317,80.0295457 C132.593317,80.0295457 132.392115,78.6177274 132.693918,77.2942426 C132.995374,75.9704543 134,75 134,75 C134,75 126.965892,76.6765152 126.664435,76.6765152 L126.664435,76.6765152 Z M135,72.8070572 C135.397106,72.9134623 136.091956,73.97605 136.488721,73.7636055 C136.885827,73.5511611 137.481315,72.9134623 137.481315,72.9134623 C137.481315,72.9134623 137.381953,74.18886 138.176165,73.97605 C138.970035,73.7636055 139.069397,72.9134623 139.069397,72.9134623 C139.069397,72.9134623 139.664885,73.2323117 140.161012,72.9134623 C140.65748,72.5946128 141.153606,71 140.955224,71 C140.756842,71 135.198724,72.9134623 135,72.8070572 C135,72.8070572 135.198724,72.9134623 135,72.8070572 L135,72.8070572 Z M134.750962,75.5751881 C134.750962,75.7500752 133.757845,77.1500753 134.055746,78.4624812 C134.353646,79.7748871 134.949449,81 135.048863,81 C135.148277,81 136.637782,79.6 137.9288,79.3375188 C139.219477,79.0750376 141.106297,80.2125564 141.007224,80.2125564 C140.90781,80.2125564 140.510495,78.8998495 140.510495,77.9375188 C140.510495,76.9748871 142,74 142,74 L134.750962,75.5751881 L134.750962,75.5751881 Z M135,81.906407 C135,81.9971724 135.287435,82.6319068 135.958228,82.6319068 C136.62869,82.6319068 136.724612,81.9971724 136.724612,81.9971724 C136.724612,81.9971724 136.62869,83.0851103 137.68284,82.9946568 C138.736659,82.9038913 139.120016,81.906407 139.120016,81.906407 C139.120016,81.906407 139.215938,82.4506878 140.078244,82.1787034 C140.94055,81.906407 142.090291,81 141.994369,81 C141.898777,81 135.095922,82.1787034 135,81.906407 C135,81.906407 135.095922,82.1787034 135,81.906407 L135,81.906407 Z" id="Combined-Shape" fill="#FECF3E"></path>
        <path d="M139,77.5 C139,77.7761424 138.776142,78 138.5,78 C138.223858,78 138,77.7761424 138,77.5 C138,77.2238576 138.223858,77 138.5,77 C138.776142,77 139,77.2238576 139,77.5 C139,77.5 139,77.2238576 139,77.5 L139,77.5 L139,77.5 L139,77.5 L139,77.5 L139,77.5 Z" id="path771" fill-opacity="0.996081" fill="#BE0F17"></path>
        <path d="M138,75.5 C138,75.7761424 137.776142,76 137.5,76 C137.223858,76 137,75.7761424 137,75.5 C137,75.2238576 137.223858,75 137.5,75 C137.776142,75 138,75.2238576 138,75.5 C138,75.5 138,75.2238576 138,75.5 L138,75.5 L138,75.5 L138,75.5 L138,75.5 L138,75.5 Z" id="path772" fill-opacity="0.996081" fill="#BE0F17"></path>
        <path d="M137,77.5 C137,77.7761424 136.776142,78 136.5,78 C136.223858,78 136,77.7761424 136,77.5 C136,77.2238576 136.223858,77 136.5,77 C136.776142,77 137,77.2238576 137,77.5 C137,77.5 137,77.2238576 137,77.5 L137,77.5 L137,77.5 L137,77.5 L137,77.5 L137,77.5 Z" id="path773" fill-opacity="0.996081" fill="#BE0F17" transform="translate(136.500000, 77.500000) rotate(-87.726790) translate(-136.500000, -77.500000) "></path>
        <path d="M137.5,79 C137.223858,79 137,78.7761424 137,78.5 C137,78.2238576 137.223858,78 137.5,78 C137.776142,78 138,78.2238576 138,78.5 C138,78.7761424 137.776142,79 137.5,79 L137.5,79 L137.5,79 L137.5,79 L137.5,79 Z" id="path774" fill-opacity="0.996081" fill="#BE0F17" transform="translate(137.500000, 78.500000) rotate(-87.726790) translate(-137.500000, -78.500000) "></path>
        <path d="M128.998418,71 C128.741408,71.1951318 124.457722,72.3645812 125.057509,72.2670153 C125.657001,72.1697847 129.084186,73.2416683 128.998418,72.9493059 C128.91265,72.6569435 128.998418,71.1951318 128.998418,71 C128.998418,71 128.998418,71.1951318 128.998418,71 L128.998418,71 L128.998418,71 L128.998418,71 L128.998418,71 L128.998418,71 Z" id="path776" fill-opacity="0.99607801" fill="#FF0000"></path>
        <path d="M137.81075,69 C137.623332,69 134.908661,70.203053 135.002371,70.203053 C135.09608,70.203053 138.091556,71.1871639 137.997847,70.9682218 C137.904137,70.7496558 137.904137,69.328037 137.81075,69 C137.81075,69 137.904137,69.328037 137.81075,69 L137.81075,69 L137.81075,69 L137.81075,69 L137.81075,69 L137.81075,69 Z" id="path777" fill-opacity="0.99607801" fill="#FF0000"></path>
        <path d="M146,70 C145.804415,70.115595 142.483165,71.0391637 143.069248,71.1547587 C143.655331,71.2703538 145.902207,72.1939224 145.902207,71.9631296 C145.902207,71.7319395 145.902207,70.115595 146,70 C146,70 145.902207,70.115595 146,70 L146,70 L146,70 L146,70 L146,70 L146,70 Z" id="path778" fill-opacity="0.99607801" fill="#FF0000"></path>
        <rect id="rect962-copy" fill="#346DA6" x="0" y="0" width="89.5027624" height="60"></rect>
        <polygon id="White_Diagonal" fill="#FFFFFF" points="45 23.291796 10.062306 0 0 0 0 6.708204 34.9376946 29.9999997 0 53.291796 0 60 10.0623036 60 45 36.7082031 79.9376964 60 90 60 90 53.291796 55.0623054 29.9999997 90 6.708204 90 0 79.937694 0 45 23.291796 45 23.291796 45 23.291796"></polygon>
        <path d="M57.7419355,32.6666667 L90,54.7936508 L90,60 L50,32.6666667 L57.7419355,32.6666667 L57.7419355,32.6666667 L57.7419355,32.6666667 L57.7419355,32.6666667 L57.7419355,32.6666667 L57.7419355,32.6666667 L57.7419355,32.6666667 Z M47.7348066,33.0000001 L39.7790055,33.0000001 L0,60 L7.9558011,60 L47.7348066,33.0000001 L47.7348066,33.0000001 L47.7348066,33.0000001 L47.7348066,33.0000001 L47.7348066,33.0000001 L47.7348066,33.0000001 L47.7348066,33.0000001 Z M43.7569061,26.0416668 L50.9668508,26.0416668 L89.5027624,2.01327737e-07 L82.2928177,2.01327737e-07 L43.7569061,26.0416668 L43.7569061,26.0416668 L43.7569061,26.0416668 L43.7569061,26.0416668 L43.7569061,26.0416668 L43.7569061,26.0416668 L43.7569061,26.0416668 Z M29.3579908,25.0000002 L0,5.24353318 L0,2.01327737e-07 L37.1798356,25.0000002 L29.3579908,25.0000002 L29.3579908,25.0000002 L29.3579908,25.0000002 L29.3579908,25.0000002 L29.3579908,25.0000002 L29.3579908,25.0000002 L29.3579908,25.0000002 Z" id="Path" fill="#CA4638"></path>
        <polygon id="Rectangle-3" fill="#FFFFFF" points="36 22 36 0 53 0 53 22 90 22 90 39 53 39 53 60 36 60 36 39 0 39 0 22"></polygon>
        <polygon id="Rectangle-3" fill="#CA4638" points="38 24 38 0 51 0 51 24 90 24 90 37 51 37 51 60 38 60 38 37 0 37 0 24"></polygon>
    </g>
</svg>