<?xml version="1.0" ?><svg height="120px" version="1.1" viewBox="0 0 180 120" width="180px" xmlns="http://www.w3.org/2000/svg" xmlns:sketch="http://www.bohemiancoding.com/sketch/ns" xmlns:xlink="http://www.w3.org/1999/xlink"><title/><defs/><g fill="none" fill-rule="evenodd" id="Ameria" stroke="none" stroke-width="1"><g id="Group" transform="translate(0.000000, -600.000000)"><g id="Honduras" transform="translate(0.000000, 600.000000)"><rect d="M-1.42108547e-14,0 L-1.42108547e-14,120 L180,120 L180,0 L-1.42108547e-14,0 Z M-1.42108547e-14,0" fill="#4086CD" height="120" id="Oval-15-copy" width="180" x="-1.59877022e-14" y="0"/><rect d="M-1.42108547e-14,0 L-1.42108547e-14,80 L180,80 L180,0 L-1.42108547e-14,0 Z M-1.42108547e-14,0" fill="#FFFFFF" height="80" id="Oval-15-copy" width="180" x="-1.59877022e-14" y="0"/><rect d="M-1.42108547e-14,0 L-1.42108547e-14,40 L180,40 L180,0 L-1.42108547e-14,0 Z M-1.42108547e-14,0" fill="#4086CD" height="40" id="Oval-15-copy" width="180" x="-1.59877022e-14" y="0"/><path d="M63.4999998,51.75 L58.5038258,53.7586107 L59.4580099,49.5043054 L55.4160196,46.4913897 L61.0019135,45.8706943 L63.5000001,42 L65.9980882,45.8706953 L71.5839818,46.4913928 L67.5419898,49.5043062 L68.4961741,53.7586108 L63.4999998,51.75 Z M117.5,51.75 L112.503826,53.7586107 L113.45801,49.5043054 L109.41602,46.4913897 L115.001913,45.8706943 L117.5,42 L119.998088,45.8706953 L125.583982,46.4913928 L121.54199,49.5043062 L122.496174,53.7586108 L117.5,51.75 Z M63.4999998,75.75 L58.5038258,77.7586107 L59.4580099,73.5043054 L55.4160196,70.4913897 L61.0019135,69.8706943 L63.5000001,66 L65.9980882,69.8706953 L71.5839818,70.4913928 L67.5419898,73.5043062 L68.4961741,77.7586108 L63.4999998,75.75 Z M117.5,75.75 L112.503826,77.7586107 L113.45801,73.5043054 L109.41602,70.4913897 L115.001913,69.8706943 L117.5,66 L119.998088,69.8706953 L125.583982,70.4913928 L121.54199,73.5043062 L122.496174,77.7586108 L117.5,75.75 Z M90.4999998,63.75 L85.5038258,65.7586107 L86.4580099,61.5043054 L82.4160196,58.4913897 L88.0019135,57.8706943 L90.5000001,54 L92.9980882,57.8706953 L98.5839818,58.4913928 L94.5419898,61.5043062 L95.4961741,65.7586108 L90.4999998,63.75 Z M90.4999998,63.75" fill="#4086CD" id="Star"/></g></g></g></svg>