<?xml version="1.0" encoding="UTF-8" standalone="no"?>
<svg width="180px" height="120px" viewBox="0 0 180 120" version="1.1" xmlns="http://www.w3.org/2000/svg" xmlns:xlink="http://www.w3.org/1999/xlink">
    <!-- Generator: Sketch 40.2 (33826) - http://www.bohemiancoding.com/sketch -->
    <title>icon-flag-ni</title>
    <desc>Created with Sketch.</desc>
    <defs></defs>
    <g id="Page-1" stroke="none" stroke-width="1" fill="none" fill-rule="evenodd">
        <rect id="Rectangle-1" fill="#4086CD" x="0" y="0" width="180" height="40"></rect>
        <rect id="Rectangle-1-Copy" fill="#FFFFFF" x="0" y="40" width="180" height="40"></rect>
        <rect id="Rectangle-1" fill="#4086CD" x="0" y="80" width="180" height="40"></rect>
        <rect id="rect5081-7" fill="#C8A400" transform="translate(106.489291, 63.582745) rotate(14.748927) translate(-106.489291, -63.582745) " x="105.989291" y="63.0827451" width="0.349957248" height="1"></rect>
        <path d="M84.8600866,75 L84,77 L84.2798365,77 L84.5449766,76.3791887 L84.5461431,76.3791887 L85.4550254,76.3791887 L85.7201637,77 L86,77 L85.1399154,75 L84.8600791,75 L84.8600866,75 L84.8600866,75 L84.8600866,75 L84.8600866,75 L84.8600866,75 L84.8600866,75 Z M85.4999985,75 L86,76 L85,76 L85.4999985,75 L85.4999985,75 L85.4999985,75 L85.4999985,75 L85.4999985,75 L85.4999985,75 Z" id="path3225-4-7" fill="#C8A400" transform="translate(85.000000, 76.000000) rotate(18.000000) translate(-85.000000, -76.000000) "></path>
        <polygon id="path4160-4-5" fill="#C8A400" transform="translate(105.500000, 68.000000) rotate(-8.000000) translate(-105.500000, -68.000000) " points="104 67.5612459 105.967509 69 107 67.2044206 106.720454 67 105.89455 68.4363051 105.873396 68.4730943 105.848499 68.4548891 104.185436 67.2387619 104 67.5612459 104 67.5612459"></polygon>
        <polygon id="path4156-0" fill="#C8A400" transform="translate(76.000000, 68.500000) rotate(13.000000) translate(-76.000000, -68.500000) " points="75.8169158 67 74 68.2636766 74.242633 68.4566562 75.7738054 67.3917178 74.9705321 69.0355923 75.2487902 69.2569082 77.4440305 68.76127 75.9404512 69.8070204 76.1830842 70 78 68.7363234 77.6314459 68.4431911 75.4005632 68.93889 76.2358441 67.3331958 75.8169158 67 75.8169158 67"></polygon>
        <polygon id="path3761-7" fill="#C8A400" transform="translate(77.000000, 71.000000) rotate(50.000000) translate(-77.000000, -71.000000) " points="76 72 78 72 78 71.7158352 76.3327284 71.7158352 76.298659 71.7158352 76.298659 71.6905279 76.298659 71.132321 76.298659 71.1070137 76.3327284 71.1070137 77.8318232 71.1070137 77.8318232 70.824295 76.3327284 70.824295 76.298659 70.824295 76.298659 70.7989877 76.298659 70.3101952 76.298659 70.2856109 76.3327284 70.2856109 77.9362087 70.2856109 77.9362087 70 76 70 76 72 76 72"></polygon>
        <polygon id="path3799-5" fill="#C8A400" transform="translate(80.500000, 74.000000) rotate(9.000000) translate(-80.500000, -74.000000) " points="80.7312371 73 80 74.8846262 80.2687629 75 81 73.1153738 80.7312371 73 80.7312371 73"></polygon>
        <path d="M82.6105174,74 C82.3079574,74.0000019 82.0332728,74.0379109 81.7823315,74.1156906 C81.5323615,74.1931703 81.3394868,74.3064939 81.2036076,74.4562545 C81.0677695,74.6059696 81,74.7815314 81,74.9848156 C81,75.1710829 81.0613362,75.3450243 81.1825116,75.5068691 C81.3032058,75.6680635 81.4762495,75.7892792 81.7052907,75.8734635 C81.9330994,75.9571978 82.2323078,76 82.6040989,76 C82.9610981,76 83.2582844,75.945417 83.502907,75.8358641 C83.7375832,75.7307595 83.9027056,75.5789094 84,75.3796095 L83.6203023,75.3253796 C83.4254671,75.7029446 83.0090688,75.7296299 82.5646599,75.7324656 C81.8773688,75.7268084 81.4053779,75.4771339 81.3916221,74.9840926 C81.4031151,74.4410722 82.0046694,74.2762371 82.6004302,74.2675344 C83.0183959,74.2672937 83.3949884,74.3106506 83.5652732,74.5842372 L83.936718,74.5350687 C83.8429279,74.3688691 83.6888818,74.238938 83.4689709,74.1460593 C83.2380748,74.0485468 82.9537404,74.0000019 82.6105174,74 C82.6105174,74 82.9537404,74.0000019 82.6105174,74 L82.6105174,74 L82.6105174,74 L82.6105174,74 L82.6105174,74 L82.6105174,74 L82.6105174,74 Z" id="path3805-0" fill="#C8A400" transform="translate(82.500000, 75.000000) rotate(30.000000) translate(-82.500000, -75.000000) "></path>
        <path d="M92.0736783,75 C91.8719715,75.000002 91.6888486,75.0379109 91.5215541,75.1156907 C91.3549077,75.1931703 91.2263246,75.3064938 91.1357384,75.4562545 C91.0451795,75.6059697 91,75.7815315 91,75.9848157 C91,76.1710829 91.0408907,76.3450243 91.1216743,76.506869 C91.202137,76.6680634 91.3174996,76.7892791 91.4701938,76.8734633 C91.6220662,76.9571977 91.8215385,77 92.0693992,77 C92.3073989,77 92.5055231,76.9454168 92.6686047,76.835864 C92.8250556,76.7307593 92.9351372,76.5789093 93,76.3796096 L92.7468684,76.3253797 C92.6169781,76.7029446 92.3393793,76.7296298 92.0431067,76.7324656 C91.5849126,76.7268082 91.2702518,76.4771338 91.2610813,75.9840926 C91.2687432,75.4410722 91.6697795,75.2762371 92.0669534,75.2675344 C92.3455973,75.2672933 92.5966591,75.3106506 92.7101822,75.5842372 L92.957812,75.5350686 C92.8952853,75.3688692 92.792588,75.2389381 92.6459807,75.1460594 C92.4920499,75.0485468 92.3024935,75.000002 92.0736783,75 C92.0736783,75 92.3024935,75.000002 92.0736783,75 L92.0736783,75 L92.0736783,75 L92.0736783,75 L92.0736783,75 L92.0736783,75 L92.0736783,75 Z" id="path3881-4" fill="#C8A400" transform="translate(92.000000, 76.000000) rotate(-16.000000) translate(-92.000000, -76.000000) "></path>
        <polygon id="path3919-6" fill="#C8A400" transform="translate(95.000000, 76.000000) rotate(-24.000000) translate(-95.000000, -76.000000) " points="94 75 94 77 96 77 96 76.7158353 94.3327283 76.7158353 94.298659 76.7158353 94.298659 76.6905279 94.298659 76.132321 94.298659 76.1070137 94.3327283 76.1070137 95.8318232 76.1070137 95.8318232 75.824295 94.3327283 75.824295 94.298659 75.824295 94.298659 75.7989877 94.298659 75.3101951 94.298659 75.2856109 94.3327283 75.2856109 95.9362087 75.2856109 95.9362087 75 94 75 94 75"></polygon>
        <polygon id="path3953-0" fill="#C8A400" transform="translate(97.500000, 74.500000) rotate(-6.000000) translate(-97.500000, -74.500000) " points="96 73.9675033 96.9303481 76 97.20777 75.8703125 96.4701497 74.2588677 96.4318028 74.1750971 96.5244394 74.2156466 98.6367284 75.2023151 99 75.0324967 98.0696519 73 97.7915246 73.1300192 98.5288071 74.7407309 98.5664786 74.8230293 98.4748852 74.7828849 96.3625612 73.7980161 96 73.9675033 96 73.9675033"></polygon>
        <polygon id="path4168-1" fill="#C8A400" transform="translate(99.000000, 73.500000) rotate(-8.000000) translate(-99.000000, -73.500000) " points="98 73.471416 98.1503801 73.7791029 98.8359764 73.1714861 98.8619979 73.1484245 98.874974 73.1749744 99.7669418 75 100 74.7934504 99.1080323 72.9684248 99.0950562 72.9418749 99.1216411 72.9183128 99.8106331 72.3076866 99.6602508 72 98 73.471416 98 73.471416"></polygon>
        <path d="M104.29013,68 L103,70 L103.419755,70 L103.817465,69.3791887 L103.819214,69.3791887 L105.182538,69.3791887 L105.580245,70 L106,70 L104.709873,68 L104.290118,68 L104.29013,68 L104.29013,68 L104.29013,68 L104.29013,68 L104.29013,68 L104.29013,68 Z M104.499999,68 L105,69 L104,69 L104.499999,68 L104.499999,68 L104.499999,68 L104.499999,68 L104.499999,68 L104.499999,68 Z" id="path4213-3-0" fill="#C8A400" transform="translate(104.500000, 69.000000) rotate(-55.000000) translate(-104.500000, -69.000000) "></path>
        <path d="M79.0921772,71.0000024 L78,72.8638897 L78.2980431,73.0088426 L78.2987499,73.0091908 L78.7148191,72.2991381 L78.7283031,72.2761283 L78.7614987,72.2922742 L79.5683053,72.6846655 C79.6188147,72.7092309 79.6679418,72.7314479 79.7160088,72.7522758 C79.745304,72.8824109 79.8929891,73.5391342 79.9571107,73.8157377 L80.3359766,74 L80.0808462,72.8781837 C80.4513929,72.9655971 80.7284077,72.8830138 80.9191861,72.5695031 C80.9217515,72.5651018 80.9237357,72.5604253 80.9261755,72.5560056 C80.9300079,72.5500711 80.9340601,72.5441177 80.9376779,72.5379452 C80.9969671,72.4367567 81.0136133,72.3270898 80.9890694,72.2081145 C80.9645804,72.0894168 80.9026944,71.986515 80.800626,71.8951196 C80.698513,71.8036996 80.5249515,71.6968371 80.2814491,71.5784103 L80.1984588,71.5380474 L79.0921667,71 L79.0921772,71.0000024 L79.0921772,71.0000024 L79.0921772,71.0000024 L79.0921772,71.0000024 L79.0921772,71.0000024 L79.0921772,71.0000024 Z M79.4030925,71 L79.4411838,71.013669 L80.3643488,71.344969 C80.739228,71.4795031 81.1325958,71.6623468 80.9568046,71.8837219 C80.7810074,72.1050969 80.2676414,71.9611625 79.9695304,71.8555505 L79.0380882,71.521279 L79,71.50761 L79.0159086,71.4875729 L79.3876283,71.0194798 L79.4030925,71 L79.4030925,71 L79.4030925,71 L79.4030925,71 L79.4030925,71 L79.4030925,71 Z" id="path4162-1-8" fill="#C8A400" transform="translate(79.500000, 72.500000) rotate(13.000000) translate(-79.500000, -72.500000) "></path>
        <path d="M101,71.3314999 L102.786458,73 L103.068877,72.7760138 L103.069562,72.7754836 L102.389006,72.1398629 L102.366953,72.1192639 L102.398409,72.0943174 L103.162923,71.4879846 C103.210783,71.4500259 103.255365,71.4125127 103.297905,71.3754867 C103.462182,71.3944878 104.291133,71.4905156 104.640993,71.5291899 L105,71.244464 L103.582919,71.0830648 C103.824717,70.7717443 103.831222,70.4866476 103.533386,70.19947 C103.529161,70.1955428 103.524397,70.1920549 103.520103,70.188237 C103.514547,70.1825966 103.509054,70.1767465 103.503136,70.1712204 C103.40615,70.0806429 103.283202,70.0264523 103.133851,70.0070126 C102.984848,69.9876207 102.840445,70.0083623 102.69454,70.0702896 C102.548593,70.1322503 102.357681,70.2547392 102.126943,70.437737 L102.048305,70.5001057 L101,71.331508 L101,71.3314999 L101,71.3314999 L101,71.3314999 L101,71.3314999 L101,71.3314999 L101,71.3314999 Z M102,71.2907517 L102.034556,71.2577802 L102.872011,70.4587218 C103.212083,70.1342402 103.632624,69.8167775 103.907905,70.1260875 C104.183186,70.4354033 103.779071,70.9020178 103.510739,71.1608101 L102.665773,71.9670327 L102.631221,72 L102.606303,71.9720066 L102.024228,71.3179644 L102,71.2907517 L102,71.2907517 L102,71.2907517 L102,71.2907517 L102,71.2907517 L102,71.2907517 Z" id="path5862-3" fill="#C8A400" transform="translate(103.000000, 71.500000) rotate(-7.000000) translate(-103.000000, -71.500000) "></path>
        <path d="M73.8600864,65 L73,67 L73.2798363,67 L73.5449764,66.3791887 L73.5461429,66.3791887 L74.4550254,66.3791887 L74.7201635,67 L75,67 L74.1399154,65 L73.8600789,65 L73.8600864,65 L73.8600864,65 L73.8600864,65 L73.8600864,65 L73.8600864,65 L73.8600864,65 Z M74.4999987,65 L75,66 L74,66 L74.4999987,65 L74.4999987,65 L74.4999987,65 L74.4999987,65 L74.4999987,65 L74.4999987,65 Z" id="path4378-8-1" fill="#C8A400" transform="translate(74.000000, 66.000000) rotate(68.000000) translate(-74.000000, -66.000000) "></path>
        <polygon id="path3540-4" fill="#C8A400" transform="translate(96.500000, 45.000000) rotate(-3.000000) translate(-96.500000, -45.000000) " points="97 44.1422204 96.2271502 46 96 45.8577796 96.7728498 44 97 44.1422204 97 44.1422204"></polygon>
        <path d="M86,42.0636824 L86.1684195,44 L87.4339394,43.9430993 C87.6507239,43.9333522 87.8408935,43.9131425 88.0039182,43.883739 C88.1671531,43.854293 88.304553,43.816015 88.4155208,43.7689494 C88.5264582,43.7218941 88.6269135,43.6590953 88.7186322,43.5803296 C88.8093092,43.5024583 88.8820652,43.404677 88.9354197,43.2873621 C88.9883813,43.1708854 89.0092115,43.0391893 88.996268,42.8903672 C88.9810887,42.7158551 88.9206455,42.5627741 88.8162332,42.4325178 C88.7119976,42.3024794 88.5635977,42.1996296 88.3705281,42.1222511 C88.2235844,42.0626848 88.0498157,42.0251457 87.845609,42.0088126 L87.8446647,42.0088564 C87.7005358,41.9970834 87.487093,41.9968213 87.2066211,42.0094324 L86.0000091,42.0636846 L86,42.0636824 L86,42.0636824 L86,42.0636824 L86,42.0636824 L86,42.0636824 L86,42.0636824 Z M86,42.0306754 L86.0410329,42.0292702 L86.7421264,42.0052693 C87.0069064,41.996205 87.2012937,41.9985341 87.3313323,42.0146015 C87.7436608,42.0830167 87.9770908,42.2581407 87.9977249,42.4387636 C88.0183589,42.6193864 87.8970712,42.7465963 87.697673,42.8429025 C87.6217208,42.8788225 87.5189256,42.9074914 87.3911601,42.9296129 C87.2613875,42.952081 87.0848992,42.9568546 86.864212,42.9742053 L86.1517671,42.9985948 L86.1107314,43 L86.1088278,42.9833476 L86.001954,42.0478187 L86,42.0306754 L86,42.0306754 L86,42.0306754 L86,42.0306754 L86,42.0306754 L86,42.0306754 Z" id="path4150-6" fill="#C8A400" transform="translate(87.500000, 43.000000) rotate(-3.000000) translate(-87.500000, -43.000000) "></path>
        <polygon id="path4040-2-5" fill="#C8A400" points="89 42 89 44 91 44 91 43.7158352 89.3327283 43.7158352 89.298659 43.7158352 89.298659 43.6905279 89.298659 43.132321 89.298659 43.1070137 89.3327283 43.1070137 90.8318232 43.1070137 90.8318232 42.824295 89.3327283 42.824295 89.298659 42.824295 89.298659 42.7989877 89.298659 42.3101952 89.298659 42.2856109 89.3327283 42.2856109 90.9362087 42.2856109 90.9362087 42 89 42 89 42"></polygon>
        <polygon id="path4164-2" fill="#C8A400" points="93.8212063 43 93 45.1441982 93.2920545 45.2589119 93.9431338 43.5589035 93.9769792 43.4705287 94.0133114 43.5686309 94.7963704 45.8497872 95.1787937 46 96 43.8558018 95.7071969 43.7407952 95.0564124 45.4400289 95.0231644 45.5268519 94.9872834 45.42982 94.2028836 43.1499199 93.8212063 43 93.8212063 43"></polygon>
        <path d="M98.0736783,44 C97.8719716,44.0000019 97.6888485,44.0379109 97.5215543,44.1156905 C97.3549077,44.1931703 97.2263245,44.3064938 97.1357384,44.4562545 C97.0451796,44.6059696 97,44.7815314 97,44.9848156 C97,45.1710829 97.0408907,45.3450243 97.1216744,45.5068691 C97.2021372,45.6680635 97.3174997,45.7892792 97.4701938,45.8734635 C97.6220662,45.9571977 97.8215385,46 98.0693993,46 C98.3073988,46 98.5055229,45.945417 98.6686047,45.8358641 C98.8250555,45.7307595 98.9351371,45.5789094 99,45.3796095 L98.7468682,45.3253796 C98.6169781,45.7029447 98.3393792,45.7296299 98.0431066,45.7324657 C97.5849126,45.7268084 97.2702519,45.4771339 97.2610814,44.9840925 C97.2687434,44.4410722 97.6697796,44.276237 98.0669535,44.2675343 C98.3455972,44.2672937 98.596659,44.3106506 98.7101822,44.5842372 L98.957812,44.5350687 C98.8952853,44.3688691 98.7925879,44.238938 98.6459806,44.1460593 C98.4920499,44.0485468 98.3024936,44.0000019 98.0736783,44 C98.0736783,44 98.3024936,44.0000019 98.0736783,44 L98.0736783,44 L98.0736783,44 L98.0736783,44 L98.0736783,44 L98.0736783,44 L98.0736783,44 Z" id="path3546-3" fill="#C8A400" transform="translate(98.000000, 45.000000) rotate(32.000000) translate(-98.000000, -45.000000) "></path>
        <path d="M99.8600864,46 L99,48 L99.2798363,48 L99.5449764,47.3791887 L99.5461429,47.3791887 L100.455025,47.3791887 L100.720163,48 L101,48 L100.139915,46 L99.8600789,46 L99.8600864,46 L99.8600864,46 L99.8600864,46 L99.8600864,46 L99.8600864,46 L99.8600864,46 Z M100.499999,46 L101,47 L100,47 L100.499999,46 L100.499999,46 L100.499999,46 L100.499999,46 L100.499999,46 L100.499999,46 Z" id="path4340-6-4" fill="#C8A400" transform="translate(100.000000, 47.000000) rotate(40.000000) translate(-100.000000, -47.000000) "></path>
        <path d="M103.860086,50 L103,52 L103.279836,52 L103.544976,51.3791887 L103.546143,51.3791887 L104.455025,51.3791887 L104.720163,52 L105,52 L104.139915,50 L103.860079,50 L103.860086,50 L103.860086,50 L103.860086,50 L103.860086,50 L103.860086,50 L103.860086,50 Z M104.499999,50 L105,51 L104,51 L104.499999,50 L104.499999,50 L104.499999,50 L104.499999,50 L104.499999,50 L104.499999,50 Z" id="path4300-8-9" fill="#C8A400" transform="translate(104.000000, 51.000000) rotate(62.000000) translate(-104.000000, -51.000000) "></path>
        <path d="M105.892539,54.0685176 C105.808017,53.7903379 105.6977,53.5610719 105.563034,53.3794548 C105.428838,53.1984675 105.273466,53.0835903 105.093611,53.0324209 C104.913002,52.9810377 104.739182,52.990526 104.570241,53.0623537 C104.399673,53.1348614 104.262771,53.2571821 104.159941,53.4293545 C104.057505,53.6008733 104.005228,53.811531 104.000407,54.0648034 C103.995562,54.3188398 104.033962,54.5823765 104.11736,54.8568453 C104.178981,55.0596605 104.261557,55.2471444 104.365465,55.42074 C104.41124,55.497209 104.461538,55.570448 104.515607,55.6411435 L104.373951,55.7013667 L104.464687,56 L104.731002,55.8867815 L105.353027,55.6223361 L105.007556,54.4876423 L104.802313,54.5748982 L105.045558,55.3754795 L105.056418,55.4112266 L105.034383,55.4205946 L104.764923,55.5351519 L104.755478,55.5391664 L104.744932,55.5301948 C104.53818,55.3165251 104.415543,55.0283922 104.327373,54.7431753 C104.16762,54.1634934 104.158691,53.6026809 104.681339,53.3741966 C105.195728,53.1721879 105.520722,53.6622178 105.683162,54.1608935 C105.788989,54.5182768 105.841264,54.8822386 105.6153,55.1425114 L105.744702,55.3952748 C105.836655,55.3022286 105.905632,55.2005909 105.946246,55.0875892 C105.989439,54.9673706 106.006608,54.8181561 105.99773,54.6393509 C105.988876,54.4608955 105.953946,54.2708631 105.892766,54.0692624 L105.892487,54.0685204 L105.892539,54.0685176 L105.892539,54.0685176 L105.892539,54.0685176 L105.892539,54.0685176 L105.892539,54.0685176 L105.892539,54.0685176 Z" id="path4152-4" fill="#C8A400"></path>
        <path d="M107.464957,55.0000002 L105.939595,55.1922834 C105.656499,55.227971 105.444329,55.2860863 105.302836,55.3633883 C105.161594,55.4405468 105.071234,55.5493682 105.027659,55.6940818 C104.984544,55.8372786 104.990708,56.0127284 105.054102,56.2262258 C105.054595,56.2278859 105.055057,56.2294499 105.05558,56.2311219 C105.120311,56.4444524 105.216105,56.6086033 105.338919,56.730882 C105.463031,56.8544565 105.609757,56.9333916 105.785332,56.9706126 C105.961225,57.007905 106.191549,57.0102385 106.474638,56.9745525 L108,56.7822679 L107.924302,56.5301079 L106.435781,56.7177473 C105.76756,56.801982 105.542486,56.5740663 105.427712,56.184211 C105.427188,56.1825469 105.426757,56.1809671 105.426234,56.1793155 C105.307106,55.7900104 105.383919,55.5240371 106.05214,55.439801 L107.540661,55.2521614 L107.464966,55 L107.464957,55.0000002 L107.464957,55.0000002 L107.464957,55.0000002 L107.464957,55.0000002 L107.464957,55.0000002 L107.464957,55.0000002 Z" id="path3670-4" fill="#C8A400"></path>
        <path d="M106.860086,58 L106,60 L106.279836,60 L106.544976,59.3791887 L106.546143,59.3791887 L107.455025,59.3791887 L107.720163,60 L108,60 L107.139915,58 L106.860079,58 L106.860086,58 L106.860086,58 L106.860086,58 L106.860086,58 L106.860086,58 L106.860086,58 Z M107.499999,58 L108,59 L107,59 L107.499999,58 L107.499999,58 L107.499999,58 L107.499999,58 L107.499999,58 L107.499999,58 Z" id="path4258-1-1" fill="#C8A400" transform="translate(107.000000, 59.000000) rotate(86.000000) translate(-107.000000, -59.000000) "></path>
        <polygon id="path4040-9" fill="#C8A400" points="73 55.6028275 75.4444719 56 76 54.344365 75.6526827 54.2879337 75.1895721 55.6681305 75.180113 55.6963336 75.1491825 55.6913089 74.4669201 55.5804567 74.4359895 55.5754306 74.4454487 55.5472272 74.8618474 54.3062507 74.5162927 54.2501065 74.0998996 55.491083 74.0904377 55.5192862 74.05951 55.5142598 73.4620847 55.4171925 73.4320412 55.4123108 73.4415031 55.3841079 73.8868913 54.0567188 73.5378057 54 73 55.6028275 73 55.6028275"></polygon>
        <path d="M73,53.1721196 L74.9033227,54 L75,53.6523284 L74.2747267,53.3368598 L74.2513342,53.3266836 L74.2620739,53.288053 L74.4909187,52.465062 C74.6974153,51.7224537 74.6553257,51.2439105 74.2003044,51.0358149 C74.1068437,50.9951659 74.0130714,50.9891111 73.9184051,51.0176887 C73.823352,51.0463934 73.7417911,51.1020937 73.6715455,51.1842484 C73.6010542,51.2666942 73.5362455,51.3810983 73.4781363,51.5274995 C73.4361354,51.6303878 73.3846415,51.7888332 73.3257542,52.0006179 C73.3257542,52.0006179 73.3846415,51.7888332 73.3257542,52.0006179 L73,53.1721196 L73,53.1721196 L73,53.1721196 L73,53.1721196 L73,53.1721196 L73,53.1721196 Z M73,52.7069142 L73.0113972,52.6644114 L73.253454,51.7616902 C73.3656352,51.3433374 73.5325988,50.8943414 73.8159529,51.0221472 C74.0992998,51.149953 73.9933024,51.7131823 73.9057114,52.0455393 L73.6611758,52.9574962 L73.6497786,53 L73.6242254,52.9884748 L73.0248219,52.7181117 L73,52.7069142 L73,52.7069142 L73,52.7069142 L73,52.7069142 L73,52.7069142 L73,52.7069142 Z" id="path4162-9" fill="#C8A400"></path>
        <path d="M74,51.1181132 L75.1929057,51.8052115 C75.4143019,51.9327319 75.608663,51.9964709 75.773215,51.9998607 C75.9374713,52.0032426 76.0964427,51.9450788 76.2567093,51.8234256 C76.4152919,51.7030463 76.5701942,51.5214332 76.7213724,51.2681113 C76.7225499,51.2661402 76.7236726,51.2642782 76.7248254,51.262292 C76.8749576,51.0083639 76.9597652,50.7863761 76.9885802,50.591254 C77.0176991,50.3940636 76.9912637,50.2290979 76.9077513,50.0897767 C76.8240884,49.9501993 76.6723954,49.814619 76.4510019,49.6870988 L75.2580934,49 L75.0800991,49.299678 L76.2441926,49.9701837 C76.766776,50.2711846 76.7105041,50.6326549 76.4338,51.0946657 C76.4326499,51.0966503 76.4314724,51.0985074 76.430347,51.1004853 C76.1570465,51.5644543 75.8646794,51.7899413 75.3421014,51.488941 L74.177997,50.8184353 L74,51.1181132 L74,51.1181132 L74,51.1181132 L74,51.1181132 L74,51.1181132 L74,51.1181132 Z" id="path4002-2" fill="#C8A400"></path>
        <path d="M77,47 L77,48.996464 L78.0107439,48.996464 C78.4243141,49.0177915 79,48.9572101 79,48.4053201 C79,47.9624156 78.6411164,47.9101739 78.6411164,47.9101739 C78.6411164,47.9101739 78.8681949,47.8378005 78.8681949,47.5487208 C78.8681926,47.4594682 78.834455,47.3244188 78.7657605,47.2417988 C78.697561,47.1597892 78.6042063,47.1001852 78.4835232,47.0606301 C78.3633765,47.0212538 78.2004241,47.0000021 77.9942694,47 C77.9942694,47 78.2004241,47.0000021 77.9942694,47 L77,47 L77,47 L77,47 L77,47 L77,47 L77,47 Z M77,47 L77.0259445,47 L77.5634448,47 C77.7402479,47 77.9987484,47.0143145 77.9999955,47.436196 C78.0012408,47.8580775 77.7432746,47.8718049 77.5634448,47.8723924 L77.0259445,47.8723924 L77,47.8723924 L77,47.8308809 L77,47.0403254 L77,47 L77,47 L77,47 L77,47 L77,47 L77,47 Z M77,48 L77.023614,48 L77.5128329,48 C77.8514875,48 78,48.1307828 78,48.5 C78,48.8692171 77.8451598,49 77.5128329,49 L77.023614,49 L77,49 L77,48.959069 L77,48.0397614 L77,48 L77,48 L77,48 L77,48 L77,48 L77,48 Z" id="path4078-0-3" fill="#C8A400" transform="translate(78.000000, 48.000000) rotate(-50.000000) translate(-78.000000, -48.000000) "></path>
        <polygon id="path4158-7" fill="#C8A400" transform="translate(81.000000, 46.000000) rotate(6.000000) translate(-81.000000, -46.000000) " points="80 45.2068099 81.6735123 47 82 46.7931901 80.3264877 45 80 45.2068099 80 45.2068099"></polygon>
        <path d="M83.0736783,44 C82.8719716,44.0000018 82.6888485,44.0379109 82.5215543,44.1156905 C82.3549077,44.1931703 82.2263246,44.3064938 82.1357384,44.4562545 C82.0451796,44.6059696 82,44.7815314 82,44.9848156 C82,45.1710829 82.0408907,45.3450243 82.1216744,45.5068691 C82.2021372,45.6680635 82.3174997,45.7892792 82.4701938,45.8734635 C82.6220662,45.9571977 82.8215385,46 83.0693993,46 C83.3073987,46 83.505523,45.945417 83.6686047,45.8358641 C83.8250555,45.7307595 83.9351371,45.5789094 84,45.3796095 L83.7468682,45.3253796 C83.6169781,45.7029447 83.3393792,45.7296299 83.0431066,45.7324657 C82.5849125,45.7268084 82.2702519,45.4771339 82.2610814,44.9840926 C82.2687434,44.4410722 82.6697796,44.276237 83.0669535,44.2675343 C83.3455973,44.2672937 83.5966589,44.3106506 83.7101822,44.5842372 L83.9578121,44.5350687 C83.8952853,44.3688691 83.7925878,44.238938 83.6459806,44.1460593 C83.4920499,44.0485467 83.3024936,44.0000018 83.0736783,44 C83.0736783,44 83.3024936,44.0000018 83.0736783,44 L83.0736783,44 L83.0736783,44 L83.0736783,44 L83.0736783,44 L83.0736783,44 L83.0736783,44 Z" id="path4116-8" fill="#C8A400" transform="translate(83.000000, 45.000000) rotate(-25.000000) translate(-83.000000, -45.000000) "></path>
        <polygon id="path4485-1" fill="#C8A400" points="78 46.2414756 79.6158766 48 81 46.6554708 80.7704116 46.4056163 79.6632313 47.4811211 79.6348737 47.5086686 79.614429 47.4864174 78.2485856 46 78 46.2414756 78 46.2414756"></polygon>
        <path d="M72,57.8829767 L74.7871446,58 L74.8142667,57.7448255 L74.814582,57.7442092 L73.752818,57.6996279 L73.7184062,57.6981813 L73.7214331,57.66976 L73.79486,56.9789983 C73.7994602,56.9357539 73.8019101,56.8942651 73.8032123,56.8539825 C73.9455478,56.7893182 74.6639067,56.4630968 74.9655189,56.3243728 L75,56 L73.7743088,56.5592215 C73.6961902,56.2736693 73.4594982,56.110723 72.9871925,56.0861598 C72.9806217,56.0858922 72.9739973,56.0861201 72.9674674,56.0859556 C72.9584183,56.0853374 72.9492337,56.0845745 72.9400049,56.0841861 C72.788699,56.0778357 72.6482805,56.1038072 72.5170467,56.1613809 C72.3861155,56.2188222 72.2927428,56.2966734 72.2331291,56.3983229 C72.1735092,56.5000113 72.1306569,56.6562773 72.1084976,56.8647562 L72.1009399,56.93581 L72.0002554,57.8829811 L72,57.8829767 L72,57.8829767 L72,57.8829767 L72,57.8829767 L72,57.8829767 L72,57.8829767 Z M72.0000257,56.9716828 L72.0030834,56.9502996 L72.0778451,56.4320507 C72.1081998,56.2216 72.2006155,55.9881216 72.5997738,56.0004695 C72.9989289,56.0128206 73.0159199,56.2887841 72.9937759,56.4557219 L72.9183479,56.9786178 L72.9152581,57 L72.879126,56.9988835 L72.0351182,56.9727677 L72,56.9716825 L72.0000257,56.9716828 L72.0000257,56.9716828 L72.0000257,56.9716828 L72.0000257,56.9716828 L72.0000257,56.9716828 L72.0000257,56.9716828 Z" id="path5882-4" fill="#C8A400"></path>
        <path d="M102.759268,47.0000049 L101,48.2580859 L101.21135,48.4803323 L101.211839,48.4808635 L101.882037,48.001595 L101.903758,47.9860642 L101.927296,48.0108188 L102.499423,48.6124446 C102.535239,48.6501089 102.570767,48.6852921 102.6059,48.7189288 C102.579024,48.8410538 102.443258,49.4573039 102.387822,49.717484 L102.656485,50 L102.885803,48.9463926 C103.186725,49.1424008 103.472514,49.1609247 103.774856,48.9516091 C103.778998,48.948634 103.782725,48.9452318 103.786758,48.9422 C103.792683,48.9383096 103.798814,48.9344744 103.804642,48.9303083 C103.900148,48.8620072 103.960372,48.7725173 103.986979,48.6615926 C104.013521,48.5509261 103.99957,48.4417801 103.94436,48.329538 C103.889117,48.2172602 103.775271,48.0684105 103.602599,47.8868345 L103.543747,47.8249493 L102.75925,47 L102.759268,47.0000049 L102.759268,47.0000049 L102.759268,47.0000049 L102.759268,47.0000049 L102.759268,47.0000049 L102.759268,47.0000049 Z M102.383503,47 L102.399457,47.0177127 L102.786112,47.4470108 C102.943126,47.62134 103.094166,47.8347444 102.926917,47.9610295 C102.759665,48.0873133 102.531385,47.8780554 102.406073,47.7404289 L102.015952,47.3072809 L102,47.2895688 L102.015136,47.2781379 L102.368788,47.0111133 L102.383503,47 L102.383503,47 L102.383503,47 L102.383503,47 L102.383503,47 L102.383503,47 Z" id="path5884-6" fill="#C8A400"></path>
        <rect id="rect5026-8" fill="#C8A400" transform="translate(72.860667, 62.582745) rotate(165.251073) translate(-72.860667, -62.582745) " x="72.3606668" y="62.082745" width="0.349957248" height="1"></rect>
        <polygon id="Path" fill="#E5B731" points="90.4999988 44.6220326 83.82437 55.5034691 77 66.6220326 90.3541926 66.6206843 104 66.6220326 97.3221695 55.7412949 90.5000009 44.6220326 90.4999988 44.6220326 90.4999988 44.6220326"></polygon>
        <polygon id="rect4263-2" fill="#70D8F3" points="84.1235521 55.7410141 81 61 100 61 97.0193692 55.9807273 90.5000004 45"></polygon>
        <path d="M83.3125,65 L86.625,65 L90.25,65 L94.5,65 L102,65 L100.879966,63.1210839 C99.9556226,63.0068056 99.1105816,62.5301944 98.4233212,61.8705338 C97.6373923,61.1161372 97.056395,60.1175868 96.7800096,59.1231781 C96.7800096,59.1231781 96.7767796,59.1200957 96.7766554,59.1200397 C96.7753244,59.1177979 96.7629216,59.1005533 96.7100117,59.069494 C96.6541906,59.0366973 96.5613447,59 96.4067284,59 C96.2521122,59 96.1582542,59.033755 96.1033819,59.0663163 C96.0513581,59.0971347 96.0413583,59.1178204 96.0400923,59.1200397 C96.0400923,59.1212726 96.0371168,59.1218891 96.0366139,59.1231781 C95.7695603,60.0852201 95.215912,61.0513597 94.4690576,61.7963665 C93.7106962,61.05136 93.1499432,60.0852785 92.8787524,59.1231793 L92.8752233,59.1200408 C92.8739395,59.1178215 92.8614179,59.1005543 92.8076083,59.0694947 C92.7509095,59.0366977 92.6567106,59 92.4998411,59 L92.500098,59 C92.3432284,59 92.2480026,59.0337553 92.1923307,59.066317 C92.1395487,59.0971972 92.1293408,59.117799 92.1279903,59.1200408 C92.1276062,59.1213298 92.1252295,59.1218903 92.1245873,59.1231793 C91.912807,59.8751997 91.5233777,60.6296531 91.0015475,61.279061 C90.4796915,60.6296531 90.0908546,59.8751997 89.8787833,59.1231793 L89.8753802,59.1200408 C89.8739676,59.1178215 89.8614464,59.1005543 89.8077014,59.0694947 C89.7509385,59.0366977 89.6567401,59 89.4999358,59 C89.3431312,59 89.2479057,59.0337553 89.1921702,59.066317 C89.1394525,59.0971972 89.1292435,59.117799 89.1279585,59.1200408 C89.1275732,59.1213298 89.1251971,59.1218903 89.1245555,59.1231793 C88.9108338,59.8819224 88.5163489,60.6431423 87.9874867,61.2964519 C87.4602843,60.6431561 87.0670373,59.8819568 86.8539844,59.1232342 C86.8533449,59.1220012 86.8509761,59.1213847 86.850592,59.1200957 C86.8492476,59.117854 86.8390699,59.0972524 86.7865163,59.0663724 C86.7310183,59.0338167 86.6361529,59.0000616 86.4797726,59.0000616 L86.4797723,59 C86.3233918,59 86.2294866,59.0366973 86.1729644,59.069494 C86.1193866,59.1005533 86.1069042,59.1178204 86.1055601,59.1200397 L86.1021677,59.1231781 C85.8963726,59.8552151 85.5235992,60.5895576 85.0240745,61.2270674 C84.5296379,60.5895588 84.160131,59.8552151 83.9566619,59.1231769 C83.9563456,59.1218879 83.9536206,59.1213274 83.9533037,59.1200384 C83.9520357,59.1177967 83.9418989,59.0971953 83.8898803,59.0663157 C83.8348205,59.0337547 83.7408579,59 83.5861327,59 L83.5861324,59 C83.4313442,59 83.338395,59.0366969 83.282448,59.0694933 C83.2294157,59.1005523 83.2170606,59.1178191 83.21573,59.1200384 C83.2156648,59.1200384 83.2123721,59.1231769 83.2123721,59.1231769 C82.9356792,60.1175193 82.2890071,61.122891 81.6173719,61.9232239 C81.241781,62.370785 80.6862271,62.8212571 80.1202361,63.1463876 L80,63.1463876 L80,63.2134732 C79.5934762,63.4335536 79.1877541,63.5844445 78.8454403,63.6187817 L78,65 L83.3125,65 L83.3125,65 L83.3125,65 Z" id="Combined-Shape" fill="#97C924"></path>
        <path d="M90.5000011,52 C88.3807598,52 86.4428687,52.8079542 84.9542604,54.1440969 L82.1465983,59.2098515 C82.0505868,59.7425053 82,60.2919427 82,60.8536356 C82,60.9024489 82.0005967,60.9513744 82.0013511,61 L83.0734781,61 C83.0726112,60.951319 83.072127,60.9025326 83.072127,60.8536356 C83.072127,56.5806247 86.397664,53.1167319 90.5000011,53.1167319 C94.6023382,53.1167319 97.9278741,56.5806247 97.9278741,60.8536356 C97.9278741,60.9025326 97.9273985,60.951319 97.9265338,61 L98.9986597,61 C98.9994163,60.9513744 99,60.9024489 99,60.8536356 C99,60.2924631 98.949915,59.7434502 98.8540773,59.2112588 L96.0450662,54.1433933 C94.556553,52.8076369 92.6188998,52 90.5000011,52 L90.5000011,52 L90.5000011,52 L90.5000011,52 L90.5000011,52 L90.5000011,52 L90.5000011,52 Z" id="path4467-0" fill="#FF0000"></path>
        <path d="M90.5003446,52 C88.2062382,52 86.1242219,52.8410231 84.5949579,54.2083897 L82.2490389,57.9705485 C82.0864967,58.5781567 82,59.2134343 82,59.8675476 C82,59.9117433 82.0005922,59.9559773 82.0013759,60 L82.9376796,60 C82.9367969,59.9559461 82.9363037,59.9117969 82.9363037,59.8675476 C82.9363037,56.0006856 86.322804,52.8660352 90.5003446,52.8660352 C94.6778851,52.8660352 98.0643842,56.0006856 98.0643842,59.8675476 C98.0643842,59.9117969 98.0638999,59.9559461 98.0630194,60 L98.9986351,60 C98.9994276,59.9559773 99,59.9117433 99,59.8675476 C99,59.2132197 98.9135822,58.5777009 98.7509633,57.9699116 L96.4050422,54.2083897 C94.8759657,52.8411272 92.7943523,52 90.5003446,52 L90.5003446,52 L90.5003446,52 L90.5003446,52 L90.5003446,52 L90.5003446,52 L90.5003446,52 Z" id="path4464-3" fill="#FF6600"></path>
        <path d="M90.5003515,53 C87.9768927,53 85.7104783,54.017594 84.1536466,55.6333793 L82.4233005,58.4061765 C82.1483631,59.1797529 82,60.0064264 82,60.8651212 C82,60.9101502 82.0005876,60.9551508 82.0014017,61 L82.7961414,61 C82.7952421,60.9551391 82.7947398,60.9101811 82.7947398,60.8651212 C82.7947398,56.9274226 86.2446228,53.7353489 90.5003515,53.7353489 C94.7560802,53.7353489 98.2059622,56.9274226 98.2059622,60.8651212 C98.2059622,60.9101811 98.2054688,60.9551391 98.2045717,61 L98.9986095,61 C98.9994169,60.9551508 99,60.9101502 99,60.8651212 C99,60.0061376 98.85107,59.1793289 98.5759975,58.4055281 L96.8463522,55.6327308 C95.2897275,54.0173048 93.0234856,53 90.5003493,53 L90.5003493,53 L90.5003515,53 L90.5003515,53 L90.5003515,53 L90.5003515,53 L90.5003515,53 L90.5003515,53 Z" id="path4459-6" fill="#FFFF00"></path>
        <path d="M90.0000011,53 C87.2278483,53 84.7851481,54.3861343 83.3496893,56.4913295 L82.813981,57.404294 C82.2930344,58.4479739 82,59.621666 82,60.8625929 C82,60.9084907 82.0005463,60.9542891 82.0013443,61 L82.6109898,61 C82.6101273,60.9542982 82.6096455,60.9084974 82.6096455,60.8625929 C82.6096455,56.8510829 85.9183851,53.5991743 90.0000011,53.5991743 C94.0816171,53.5991743 97.3903556,56.8510829 97.3903556,60.8625929 C97.3903556,60.9084974 97.3898824,60.9542982 97.389022,61 L97.9986665,61 C97.9994623,60.9542891 98,60.9084907 98,60.8625929 C98,59.6237662 97.7080004,58.4519318 97.1887066,57.4095789 L96.646951,56.4860446 C95.2110214,54.3837506 92.7698844,53 90.0000011,53 L90.0000011,53 L90.0000011,53 L90.0000011,53 L90.0000011,53 L90.0000011,53 L90.0000011,53 Z" id="path4451-4" fill="#00FF00"></path>
        <path d="M90.0003432,53 C85.5821784,53 82,56.5189532 82,60.859968 C82,60.9067689 82.0005416,60.9533935 82.0013704,61 L82.4679886,61 C82.4671093,60.9534252 82.4666182,60.9067495 82.4666182,60.859968 C82.4666182,56.7718264 85.8395457,53.4577968 90.0003432,53.4577968 C94.1611406,53.4577968 97.5340671,56.7718264 97.5340671,60.859968 C97.5340671,60.9067495 97.5335847,60.9534252 97.5327076,61 L97.9986406,61 C97.9994738,60.9533935 98,60.9067689 98,60.859968 C98,56.5189532 94.4185079,53 90.0003432,53 L90.0003432,53 L90.0003432,53 L90.0003432,53 L90.0003432,53 L90.0003432,53 L90.0003432,53 Z" id="path4366-9" fill="#00CCFF"></path>
        <path d="M89.9999905,53 C85.5818568,53 82,56.5179462 82,60.8572532 C82,60.9049899 82.0005344,60.9524658 82.0013975,61 L82.3186301,61 C82.3177334,60.9525222 82.3172326,60.9049414 82.3172326,60.8572532 C82.3172326,56.6898633 85.7568945,53.3115724 89.9999905,53.3115724 C94.2430865,53.3115724 97.6827474,56.6898633 97.6827474,60.8572532 C97.6827474,60.9049414 97.6822554,60.9525222 97.681361,61 L97.9985914,61 C97.9994634,60.9524658 98,60.9049899 98,60.8572532 C98,56.5179462 94.4181421,53 90.0000084,53 L90.0000084,53 L89.9999905,53 L89.9999905,53 L89.9999905,53 L89.9999905,53 L89.9999905,53 L89.9999905,53 Z" id="path4495-2" fill="#0000FF"></path>
        <path d="M90.5003251,53 C86.3580907,53 83,56.5166274 83,60.8544182 C83,60.90303 83.0004962,60.9515983 83.0013367,61 L83.1530542,61 C83.1521966,60.9515793 83.1517175,60.9030537 83.1517175,60.8544182 C83.1517175,56.6042531 86.4417661,53.1588801 90.5003251,53.1588801 C94.5588841,53.1588801 97.8489316,56.6042531 97.8489316,60.8544182 C97.8489316,60.9030537 97.848461,60.9515793 97.8476056,61 L97.9986526,61 C97.9994867,60.9515983 98,60.90303 98,60.8544182 C98,56.5166274 94.6425766,53 90.5003422,53 L90.5003422,53 L90.5003251,53 L90.5003251,53 L90.5003251,53 L90.5003251,53 L90.5003251,53 L90.5003251,53 Z" id="path4436-9" fill="#800080"></path>
    </g>
</svg>