<?xml version="1.0" ?><svg height="120px" version="1.1" viewBox="0 0 180 120" width="180px" xmlns="http://www.w3.org/2000/svg" xmlns:sketch="http://www.bohemiancoding.com/sketch/ns" xmlns:xlink="http://www.w3.org/1999/xlink"><title/><defs/><g fill="none" fill-rule="evenodd" id="Africa,-Middle-East-and-India" stroke="none" stroke-width="1"><g id="Africa,-Middle-Eest-and-India" transform="translate(-200.000000, -201.000000)"><g id="Angola" transform="translate(200.000000, 201.000000)"><rect d="M0.00276191524,-1.42108547e-14 L0.00276191524,120 L179.997238,120 L179.997238,-1.42108547e-14 L0.00276191524,-1.42108547e-14 Z M0.00276191524,-1.42108547e-14" fill="#CA4638" height="120" id="Rectangle-3" width="179.994476" x="0.00276191524" y="-1.42112908e-14"/><rect d="M0.00552366097,60 L0.00552366097,120 L180,120 L180,60 L0.00552366097,60 Z M0.00552366097,60" fill="#262626" height="60" id="Rectangle-3-copy-2" width="179.994476" x="0.00552366097" y="60"/><path d="M106.454902,84.2759609 L107.354631,83.2185358 C96.5200011,75.4753202 70.8788183,57.666939 70.560117,51.179053 C65.4976041,61.0616059 71.9154978,66.9683151 76.0482382,69.3181354 C86.5686238,75.2998839 93.5491421,79.2418741 104.526662,86.5421647 L106.179219,84.5999632 C104.293528,83.2712629 91.5538465,74.2826771 85.0948921,69.4155059 C82.5400699,67.4903092 77.7920484,63.1970933 77.7920484,63.1970933 L78.0457981,62.8603561 C78.0457981,62.8603561 82.8654135,67.0201481 85.4386996,68.9592582 C91.9048741,73.8318702 104.653473,82.9839312 106.454902,84.2759609 L106.454902,84.2759609 Z M104.3419,79.112447 C105.246928,78.2371689 106.101478,77.3101288 106.901144,76.3357412 L104.949177,74.7338049 C106.206652,73.2026489 107.317329,71.5464175 108.259625,69.7866911 L110.482998,70.9751157 C111.498507,69.0752408 112.324877,67.0801848 112.950224,65.0187077 L110.539082,64.2872965 L110.539082,64.2872967 C111.107272,62.410923 111.49858,60.4579354 111.693575,58.4477635 L111.693575,58.4477635 L114.208,58.6954134 C114.419161,56.5515435 114.419161,54.3921193 114.208,52.2482494 L111.690314,52.4962171 C111.49238,50.4852005 111.09674,48.5339067 110.52316,46.6611962 L110.52316,46.6611962 L112.950224,45.924955 C112.324877,43.8634737 111.498507,41.8684177 110.482998,39.9685471 L108.223047,41.1765149 C107.273721,39.4252645 106.15546,37.7788805 104.890179,36.2582738 L106.901144,34.6079174 C105.534501,32.9426644 104.007559,31.4157215 102.342302,30.0490795 L100.66818,32.0890053 L100.668186,32.0890102 C99.1370799,30.8467338 97.4819869,29.7499061 95.7245381,28.8191671 L95.7245381,28.8191671 L96.9816766,26.4672253 C95.0818017,25.4517257 93.0867583,24.6253471 91.0252686,24 L90.2458144,26.5695176 C88.4418155,26.0269284 86.5676388,25.6458399 84.6407225,25.4428914 C84.6407225,25.4428914 99.8901749,27.0490084 84.6407225,25.4428914 L84.0398846,31.0717942 C96.4352682,32.3718001 106.144396,42.7469651 106.144396,55.4847884 C106.144401,63.0281311 102.752598,69.7841041 97.411898,74.3097905 L104.341899,79.1124462 L104.3419,79.112447 Z M94.0315736,85.8697965 C93.0480395,86.2759589 92.0447798,86.6343909 91.0252686,86.9436509 L90.2963474,84.5407779 C88.4196342,85.1101677 86.4661921,85.5025851 84.4554745,85.6985769 L84.7019869,88.2014388 C82.5581128,88.412588 80.3986801,88.412588 78.2548103,88.2014388 L78.5018853,85.6928471 L78.5018853,85.6928471 C76.4916478,85.4891288 74.5437677,85.0819616 72.6741147,84.4956609 L72.6741147,84.4956609 L71.9315243,86.9436509 C69.8700473,86.3183157 67.8749912,85.4919337 65.9751206,84.4764248 L67.2100146,82.1661036 C65.4732647,81.2157118 63.8358365,80.1030077 62.3148496,78.8542219 L65.9198772,74.458618 C70.1777564,77.9566754 75.5419448,80.1507585 81.4784175,80.1507669 C84.2912989,80.1507669 86.9946943,79.6791329 89.5137868,78.8106821 L92.6973943,80.6931655 L94.0315736,85.8697965 L94.0315736,85.8697965 Z M70.6525575,40.569326 L78.9235071,40.569326 L81.4784091,32.7032602 L84.033307,40.569326 L92.3042565,40.569326 L85.6138818,45.430126 L88.1687838,53.2961909 L81.4784091,48.4353866 L74.7880344,53.2961909 L77.3429322,45.430126 L70.6525575,40.569326 Z M104.916009,87.038343 L107.99063,83.4326492 C109.608992,84.9987533 111.788179,86.5425779 113.368703,87.9452836 C114.949227,89.3479809 116.160192,90.5140956 117.140397,92.1075853 C118.576994,94.4430065 116.963792,97.0879879 114.726833,95.5354732 C113.517125,94.6958982 112.757016,92.4294236 110.903825,90.5538858 C109.531233,89.3854015 108.449775,88.1604426 104.999857,87.5694078 C104.834224,87.5410356 104.785773,87.1910781 104.916009,87.038343 C104.916009,87.038343 104.785773,87.1910781 104.916009,87.038343 Z M112.394215,89.0493915 C112.262765,89.1253753 112.100737,89.1253753 111.969282,89.0493915 C111.837831,88.9734076 111.75696,88.8330055 111.757188,88.6811769 C111.75696,88.5293441 111.837831,88.388942 111.969282,88.3129581 C112.100737,88.2369785 112.262765,88.2369785 112.394215,88.3129581 C112.52567,88.388942 112.606541,88.5293441 112.606313,88.6811769 C112.606541,88.8330055 112.52567,88.9734076 112.394215,89.0493915 Z M109.477921,85.9550174 C109.478149,86.106846 109.397278,86.2472481 109.265823,86.323232 C109.134372,86.3992159 108.972344,86.3992159 108.840889,86.323232 C108.709439,86.2472481 108.628568,86.106846 108.628796,85.9550174 C108.628568,85.8031846 108.709439,85.6627825 108.840889,85.5867987 C108.972344,85.510819 109.134372,85.510819 109.265823,85.5867987 C109.397278,85.6627825 109.478149,85.8031846 109.477921,85.9550174 Z M115.354799,91.4744273 C115.355027,91.6262559 115.274156,91.766658 115.142701,91.8426419 C115.01125,91.9186258 114.849222,91.9186258 114.717767,91.8426419 C114.586317,91.766658 114.505446,91.6262559 114.505674,91.4744273 C114.505446,91.3225945 114.586317,91.1821924 114.717767,91.1062085 C114.849222,91.0302289 115.01125,91.0302289 115.142701,91.1062085 C115.274156,91.1821924 115.355027,91.3225945 115.354799,91.4744273 Z M115.354799,91.4744273" fill="#F9D616" id="Shape"/></g></g></g></svg>