<?xml version="1.0" encoding="UTF-8" standalone="no"?>
<svg width="180px" height="120px" viewBox="0 0 180 120" version="1.1" xmlns="http://www.w3.org/2000/svg" xmlns:xlink="http://www.w3.org/1999/xlink">
    <!-- Generator: Sketch 40.3 (33839) - http://www.bohemiancoding.com/sketch -->
    <title>icon-flag-tc</title>
    <desc>Created with Sketch.</desc>
    <defs></defs>
    <g id="Page-1" stroke="none" stroke-width="1" fill="none" fill-rule="evenodd">
        <g id="Group">
            <rect id="Rectangle-path" fill="#00247D" x="0" y="0" width="180" height="120"></rect>
            <path d="M151.341,25.64835 L151.341,38.424555 C151.341,48.91371 147.220905,58.515555 134.99805,64.351755 C122.77485,58.515405 118.65465,48.913605 118.65465,38.424405 L118.65465,25.6482 L151.3407,25.6482 L151.341,25.64835 Z" id="Shape" fill="#FFFFFF"></path>
            <path d="M150.2415,26.95035 L150.2415,38.86695 C150.2415,48.650385 146.398605,57.60615 134.99805,63.04965 C123.59751,57.60606 119.7546,48.65031 119.7546,38.8668 L119.7546,26.9502 L150.2415,26.9502 L150.2415,26.95035 Z" id="Shape" fill="#FDC300"></path>
            <path d="M127.90005,32.17305 C127.679439,32.0075415 127.440078,31.9064115 127.109474,31.8972225 C127.182594,31.088058 126.594506,30.7386645 126.171408,30.5915325 C125.748933,30.4444005 125.601443,30.278892 125.528322,29.947875 C125.454578,29.616858 125.233965,29.414598 124.847739,29.3042805 C124.461513,29.1939 124.130285,28.807755 123.983418,28.6238085 C123.836553,28.439925 123.780931,28.4766765 123.670938,28.789317 C123.560319,29.1019575 123.119097,29.690424 123.523448,29.7088635 C123.229715,29.947875 123.064101,30.223764 123.247839,30.5915325 C123.045351,30.757041 122.898486,30.9961155 123.174093,31.088058 C123.450327,31.179999 123.523448,31.253565 123.542196,31.3271325 C123.294086,31.3271325 123.229715,31.8236565 123.817803,31.9339755 C123.689061,31.9523505 123.634065,32.3569335 123.873425,32.3569335 C123.542196,32.3569335 123.265964,32.8535205 122.843489,32.8535205 C122.420391,32.8535205 122.199779,32.9454 122.181656,33.129348 C122.162907,33.3132315 121.942295,33.533868 121.832303,33.625872 C122.144783,33.6626235 122.346645,33.625872 122.51226,33.4971165 C122.677875,33.3683595 122.953482,33.331608 123.137846,33.47874 C123.321585,33.625872 123.707811,33.6993765 123.891549,33.6626235 C123.487199,33.9385125 123.192843,34.306281 123.15597,34.6556745 C123.119097,35.0051295 122.880362,35.4096495 122.604129,35.52003 C122.32852,35.6303475 121.961044,35.924613 121.832303,36.274005 C122.181656,37.138299 122.67725,37.351809 123.174093,37.5796335 C124.057164,37.9842795 124.60838,38.2784805 124.976478,38.6830635 C125.343956,39.0876465 125.491446,38.7933825 126.042663,39.4921665 C126.594503,40.191015 127.109471,41.5150815 127.660683,41.7357765 C128.212523,41.956413 128.91123,41.8093425 129.315573,41.1104955 C129.720548,40.41171 129.978032,33.3500355 127.900035,32.1730455 L127.90005,32.17305 Z" id="Shape" stroke="#000000" stroke-width="0.2604" fill="#FF9E3D"></path>
            <path d="M128.83815,29.23065 C128.323182,29.782365 127.660724,30.33408 127.771341,31.327125 C127.88196,32.3201745 127.991952,33.938505 127.072635,34.49016 C126.153316,35.041875 125.712094,36.4395 126.815151,37.248615 C127.918207,38.057844 127.955079,39.050895 128.138818,39.97038 C128.323182,40.8898635 128.801277,41.625405 129.536856,41.0001825 C130.271811,41.1105 130.676785,40.8162975 130.676785,40.227831 C130.676785,39.639363 130.713658,39.3083475 131.264874,39.1243995 C131.816715,38.940516 131.963581,38.7565695 132.221065,38.260107 C132.478549,37.7635815 132.625414,37.5428835 132.478549,37.248618 C132.331683,36.9544155 132.276061,36.3475725 132.386679,35.9061765 C132.497298,35.4648405 132.239814,35.225766 132.092323,34.94994 C131.945457,34.674114 131.890461,34.4350395 131.963581,34.067208 C132.037326,33.699378 131.853588,33.460365 131.596104,33.2764185 C131.33862,33.092535 131.228001,32.90865 131.283622,32.614386 C131.33862,32.3201835 131.099259,32.1362985 130.823652,31.9156005 C130.548043,31.6949025 130.345557,31.4007 130.345557,30.9593655 C130.345557,30.517968 129.499984,29.488104 128.838147,29.2306455 L128.83815,29.23065 Z" id="Shape" stroke="#000000" stroke-width="0.2604" fill="#FF927F"></path>
            <path d="M129.04005,41.2392 C130.271849,40.926558 130.161855,38.9037 129.978117,38.05779 C129.793754,37.2118095 129.321282,36.00018 129.68376,35.04183 C130.198728,33.681012 129.058173,32.3937 129.35253,31.878795 C129.646887,31.3638315 129.610014,31.0880055 129.573142,30.922497 C129.536893,30.7569885 129.260661,30.6282945 129.242538,30.9776865 C129.223788,31.32708 129.131919,31.455774 128.911308,31.676472 C128.690697,31.89717 128.745693,32.3752575 128.911308,32.908596 C129.076923,33.441873 129.426276,34.2511005 128.874435,35.317656 C128.323219,36.384273 128.550081,36.859551 128.764442,37.358946 C129.095046,38.1312975 129.886248,40.816251 129.04005,41.239206 L129.04005,41.2392 Z" id="Shape" stroke="#000000" stroke-width="0.2604" fill="#FF9EE1"></path>
            <path id="Shape" stroke="#000000" stroke-width="0.2604" fill="#FF9E3D"></path>
            <path id="Shape" stroke="#000000" stroke-width="0.2604" fill="#FF9E3D"></path>
            <path id="Shape" stroke="#000000" stroke-width="0.2604" fill="#FF9E3D"></path>
            <path id="Shape" stroke="#000000" stroke-width="0.2604" fill="#FF9E3D"></path>
            <path id="Shape" stroke="#000000" stroke-width="0.2604" fill="#FF9E3D"></path>
            <path d="M123.8916,33.66255 C124.167208,33.4051005 124.820292,33.2304045 124.967158,32.963766" id="Shape" stroke="#000000" stroke-width="0.2604" fill="#FF9E3D"></path>
            <path d="M124.5903,29.5617 C125.049646,29.708895 124.859659,29.993034 125.086519,30.1686045 C125.491494,30.4812465 125.123392,30.8306385 125.454622,30.922581 C125.785227,31.014522 125.779602,31.0704 125.693356,31.4374815 C125.592114,31.86969 126.005838,31.8880035 125.858971,32.1730815" id="Shape" stroke="#000000" stroke-width="0.2604" fill="#FF9E3D"></path>
            <path d="M127.10955,31.8972 C126.925812,31.8972 126.383346,31.9155765 126.15336,32.402913" id="Shape" stroke="#000000" stroke-width="0.2604" fill="#FF9E3D"></path>
            <path d="M123.18345,37.2027 C123.395311,37.2395145 123.500929,37.1190705 123.560301,37.00044 C123.624672,36.871683 123.652171,36.7797405 123.845284,36.770553 C124.038397,36.761298 124.332753,36.7061745 124.397124,36.5590425 C124.461495,36.411972 124.691481,36.5498475 124.884594,36.163647 C125.077707,35.7775035 125.206449,35.3177295 125.720793,35.152221" id="Shape" stroke="#000000" stroke-width="0.2604" fill="#FF9E3D"></path>
            <path d="M137.77125,45.23835 C137.979362,45.540741 137.76375,45.8676315 138.116853,45.998388 C138.530577,46.1515215 138.16935,46.6956735 138.657444,46.8874335 C139.089918,47.0575665 138.660564,47.57778 139.12804,47.811417 C139.546138,48.0206145 139.058044,48.508764 139.616134,48.787716 C140.1736,49.066605 139.511142,49.694199 139.929865,49.9382745 C140.347965,50.1823485 139.790499,50.8099425 140.278593,51.054018 C140.766688,51.298029 140.069232,51.7861785 140.522328,52.1348835 C140.975426,52.483527 140.417959,53.00649 140.871057,53.3203185 C141.324153,53.634147 140.592949,54.0531675 141.045421,54.5058165 C141.394149,54.8544585 140.919804,55.1959125 141.184788,55.7261265 C141.359151,56.07477 141.010423,57.4694565 140.034234,57.3299565 C139.685505,57.9227355 138.326214,58.4457 137.838114,58.271379 C137.35002,58.620021 135.781374,59.1081705 134.978919,58.341132 C134.177719,59.1081705 132.608439,58.620021 132.120339,58.271379 C131.632245,58.4457 130.272954,57.9227355 129.924219,57.3299565 C128.948029,57.4694625 128.5993,56.0747685 128.773665,55.7261265 C129.038649,55.1959125 128.564302,54.8544585 128.913031,54.5058165 C129.365503,54.0531675 128.634298,53.634147 129.087396,53.3203185 C129.540492,53.00649 128.983027,52.483527 129.436123,52.1348835 C129.889221,51.7861785 129.191765,51.298029 129.679858,51.054018 C130.167954,50.8099425 129.610488,50.1823485 130.028587,49.9382745 C130.447311,49.694199 129.784852,49.066605 130.342317,48.787716 C130.900408,48.508764 130.412313,48.0206145 130.830412,47.811417 C131.297883,47.57778 130.868535,47.0575665 131.301007,46.8874335 C131.789103,46.6956735 131.427874,46.1515215 131.8416,45.998388 C132.200326,45.865569 131.971591,45.5303025 132.197828,45.2239125 C133.235887,45.632307 136.449443,45.9253845 137.771228,45.2383425 L137.77125,45.23835 Z" id="Shape" stroke="#000000" stroke-width="0.2604" fill="#00A728"></path>
            <path d="M133.1316,45.33585 C132.747874,45.71937 133.201596,45.9983205 132.81787,46.4515305 C132.434143,46.9048665 132.782872,47.148879 132.469141,47.567274 C132.15541,47.9856705 132.608508,48.194931 132.259779,48.648141 C131.911675,49.101414 132.329775,49.380366 131.946049,49.7638845 C131.562948,50.1474045 132.016044,50.4961095 131.632318,50.914506 C131.249217,51.332901 131.702314,51.61179 131.318587,51.99531 C130.935486,52.3788915 131.388583,52.797288 131.004858,53.1807435 C130.621756,53.5643265 131.074852,54.052413 130.656129,54.505749 C130.238029,54.958959 130.726125,55.307601 130.377396,55.656306 C130.028668,56.004948 130.342398,56.3535915 130.098663,56.5976655 C129.854304,56.841741 129.819931,57.181758 129.9243,57.3298905" id="Shape" stroke="#000000" stroke-width="0.2604" fill="#00A728"></path>
            <path d="M133.86345,45.47535 C133.515346,45.928623 134.037813,46.1378205 133.724083,46.5213405 C133.410352,46.904922 133.86345,47.0443665 133.619715,47.4976395 C133.37598,47.9509125 133.794078,48.055479 133.480348,48.508752 C133.166617,48.962025 133.654713,49.3106685 133.305984,49.76394 C132.957255,50.217213 133.480348,50.4612255 133.166617,50.9145615 C132.852886,51.3677715 133.305984,51.6118455 133.027251,51.9605505 C132.747894,52.309194 133.235988,52.657836 132.887884,53.0762325 C132.539157,53.4946905 133.027251,53.808456 132.747894,54.191976 C132.469161,54.5754945 132.852886,54.993891 132.608527,55.3076565 C132.364792,55.621485 132.782892,56.074758 132.434163,56.493153 C132.085435,56.9115495 132.504159,57.1905015 132.294796,57.469452 C132.085435,57.748341 131.920444,58.1580495 132.120432,58.2713685" id="Shape" stroke="#000000" stroke-width="0.2604" fill="#00A728"></path>
            <path id="Shape" stroke="#000000" stroke-width="0.2604" fill="#00A728"></path>
            <path d="M136.827,45.33585 C137.210727,45.71937 136.757005,45.9983205 137.140731,46.4515305 C137.524457,46.9048665 137.175729,47.148879 137.48946,47.567274 C137.80319,47.9856705 137.350093,48.194931 137.698821,48.648141 C138.046924,49.101414 137.628825,49.380366 138.012552,49.7638845 C138.395653,50.1474045 137.942556,50.4961095 138.326283,50.914506 C138.709383,51.332901 138.256287,51.61179 138.640013,51.99531 C139.023114,52.3788915 138.570017,52.797288 138.953744,53.1807435 C139.336845,53.5643265 138.883747,54.052413 139.302471,54.505749 C139.720571,54.958959 139.232476,55.307601 139.581204,55.656306 C139.929933,56.004948 139.616202,56.3535915 139.859937,56.5976655 C140.104297,56.841741 140.139295,57.181758 140.034301,57.3298905" id="Shape" stroke="#000000" stroke-width="0.2604" fill="#00A728"></path>
            <path d="M136.09515,45.47535 C136.443253,45.928623 135.920786,46.1378205 136.234517,46.5213405 C136.548246,46.904922 136.09515,47.0443665 136.338885,47.4976395 C136.583244,47.9509125 136.164521,48.055479 136.478252,48.508752 C136.791981,48.962025 136.303887,49.3106685 136.652615,49.76394 C137.001344,50.217213 136.478252,50.4612255 136.791981,50.9145615 C137.105712,51.3677715 136.652615,51.6118455 136.931348,51.9605505 C137.210706,52.309194 136.722611,52.657836 137.07134,53.0762325 C137.419443,53.4946905 136.931348,53.808456 137.210706,54.191976 C137.489439,54.5754945 137.105712,54.993891 137.350073,55.3076565 C137.593808,55.621485 137.175708,56.074758 137.524436,56.493153 C137.873165,56.9115495 137.454441,57.1905015 137.663802,57.469452 C137.873165,57.748341 138.03878,58.1580495 137.838167,58.2713685" id="Shape" stroke="#000000" stroke-width="0.2604" fill="#00A728"></path>
            <path d="M132.61725,47.06175 C132.61785,47.21832 132.61413,47.374266 132.469134,47.567337 C132.155403,47.9857335 132.6085,48.194994 132.259771,48.648204 C131.911668,49.101477 132.329768,49.380429 131.946042,49.7639475 C131.56294,50.1474675 132.016036,50.4961725 131.632311,50.914569 C131.24921,51.332964 131.702307,51.611853 131.31858,51.995373 C130.935478,52.3789545 131.388576,52.797351 131.00485,53.1808065 C130.621749,53.5643895 131.074845,54.052476 130.656121,54.505812 C130.238022,54.959022 130.726117,55.307664 130.377388,55.656369 C130.028661,56.005011 130.34239,56.3536545 130.098656,56.5977285 C130.516755,56.283963 130.516755,55.7958765 130.830486,55.551801 C131.144216,55.307664 130.726118,54.959022 130.900482,54.784701 C131.074845,54.6103785 130.935478,53.878155 131.24921,53.5295115 C131.56294,53.1808065 131.284208,52.4835225 131.56294,52.239447 C131.841673,51.995373 131.632311,51.263211 131.98104,51.0191355 C132.329768,50.7750615 131.98104,50.182344 132.259771,49.8685155 C132.53913,49.55475 132.259771,49.0666005 132.53913,48.683082 C132.817863,48.299562 132.551625,47.9513565 132.747867,47.6370915 C132.835361,47.497647 132.835361,46.486533 132.61725,47.06175 L132.61725,47.06175 Z" id="Shape" stroke="#000000" stroke-width="0.2604" fill="#FCC300"></path>
            <path d="M133.6197,47.49765 C133.375965,47.950923 133.794063,48.0554895 133.480334,48.5087625 C133.166603,48.9620355 133.654698,49.310679 133.305969,49.7639505 C132.95724,50.2172235 133.480334,50.461236 133.166603,50.914572 C132.852872,51.367782 133.305969,51.611856 133.027236,51.960561 C132.747879,52.3092045 133.235973,52.6578465 132.887869,53.076243 C132.539142,53.494701 133.027236,53.8084665 132.747879,54.1919865 C132.469146,54.575505 132.852871,54.9939015 132.608512,55.307667 C132.364778,55.6214955 132.782877,56.0747685 132.434148,56.4931635 C132.08542,56.91156 132.504144,57.190512 132.294781,57.4694625 C132.713506,57.3299565 132.556641,56.754678 132.713506,56.632671 C132.870371,56.5106025 132.66101,55.7086875 132.904744,55.4994885 C133.149103,55.290291 132.747879,54.644946 132.974739,54.3663075 C133.358466,53.8956585 133.027236,53.58183 133.253472,53.215749 C133.480334,52.8496065 133.167228,52.3796445 133.340967,52.134882 C133.637199,51.716487 133.209724,51.339342 133.427836,51.0365775 C133.741567,50.6007435 133.367215,50.2418505 133.584702,49.9557105 C133.91593,49.5198765 133.549704,49.0840425 133.689694,48.857406 C133.829061,48.6307695 134.055297,47.654532 133.6197,47.49765 L133.6197,47.49765 Z" id="Shape" stroke="#000000" stroke-width="0.2604" fill="#FCC300"></path>
            <path d="M134.979,47.8782 C134.735266,48.48573 135.153364,48.728742 135.013998,49.2147045 C134.874631,49.7007285 135.188363,50.0652465 134.979,50.5917105 C134.770263,51.1182375 135.258359,51.5231955 134.979,52.2117255 C134.700268,52.90026 135.158989,53.071644 134.979,53.7507405 C134.770263,54.5405925 135.327729,54.958989 134.979,55.5168855 C134.630898,56.0747265 135.378351,56.259423 135.013998,56.841765 C134.839635,57.1207155 135.031497,57.8355015 135.31023,56.981271 C135.589587,56.1270405 135.101493,56.022474 135.345228,55.673769 C135.589587,55.325064 135.258359,54.401142 135.362727,53.912994 C135.467721,53.4248445 135.118992,52.762374 135.345228,52.239414 C135.57209,51.716451 134.996499,51.15861 135.223361,50.705274 C135.450222,50.2520625 135.118992,49.69416 135.327729,49.328079 C135.537092,48.961998 135.170864,48.4738485 135.258359,48.264651 C135.345228,48.055452 135.170863,47.282601 134.979,47.878194 L134.979,47.8782 Z" id="Shape" stroke="#000000" stroke-width="0.2604" fill="#FCC300"></path>
            <path d="M137.5938,45.64965 C137.5938,41.709765 137.036334,40.350015 134.978955,40.350015 C132.922215,40.350015 132.36474,41.709771 132.36474,45.64965 L137.593785,45.64965 L137.5938,45.64965 Z" id="Shape" stroke="#000000" stroke-width="0.2604" fill="#EF072D"></path>
            <path d="M132.3648,45.64965 C132.3648,41.709765 132.922266,40.350015 134.979015,40.350015 C134.037824,40.350015 133.46286,41.082114 133.30599,41.5702635 C133.149124,42.058413 133.235994,42.0235365 133.445357,41.8317765 C133.654719,41.640018 133.549725,42.058413 133.375986,42.2850495 C133.201622,42.511686 133.027257,43.156719 133.270992,42.94752 C133.515352,42.7383225 133.706591,42.982398 133.445357,43.348479 C133.184122,43.7145585 132.957261,44.568789 133.218495,44.2724625 C133.480354,43.976073 133.532226,44.4642225 133.375986,44.7082965 C133.218495,44.952372 133.235994,45.1615065 133.375986,45.0569385 C133.515352,44.952372 133.497853,45.457896 133.358487,45.649656 L132.364798,45.649656 L132.3648,45.64965 Z" id="Shape" stroke="#000000" stroke-width="0.2604" fill="#000000"></path>
            <path d="M137.1933,45.423 C137.1933,42.33735 136.810199,41.413365 136.043371,41.099595 C135.609022,40.9216485 135.596524,40.9601505 135.80401,41.2390395 C136.011498,41.5179285 135.979624,41.9189475 135.787762,41.639997 C135.596524,41.361108 135.532777,41.3087925 135.452782,41.430861 C135.372787,41.5528665 135.675894,42.1281465 135.899629,42.6511725 C136.079619,43.071819 135.963376,43.2787035 135.692143,42.860307 C135.420909,42.441912 135.420909,42.8209305 135.65902,43.1741355 C135.964626,43.6274085 135.955251,45.0046005 135.955251,45.5798805 L137.1933,45.422997 L137.1933,45.423 Z" id="Shape" stroke="#000000" stroke-width="0.2604" fill="#000000"></path>
            <path d="M134.979,46.2249 C135.798326,46.2249 136.69515,46.078893 137.29761,45.844944 C138.012565,45.5673675 138.050688,45.3234795 137.803203,45.01209 C137.628839,44.7928905 137.245113,44.92446 136.879511,45.085155 C136.513284,45.2458515 135.502096,45.348168 134.979011,45.348168 C134.456544,45.348168 133.445351,45.2458515 133.079126,45.085155 C132.713525,44.92446 132.329798,44.7928905 132.155433,45.01209 C131.90795,45.3234795 131.946072,45.5673675 132.661028,45.844944 C133.262865,46.078893 134.160309,46.2249 134.979008,46.2249 L134.979,46.2249 Z" id="Shape" stroke="#000000" stroke-width="0.2604" fill="#EF072D"></path>
            <path d="M142.92825,41.00895 C142.92825,41.00895 143.464896,41.9354235 143.858488,42.610755 C144.25203,43.285995 144.570963,43.4398365 144.855981,43.239546 C145.140948,43.039167 144.899029,42.488802 144.670722,42.2276475 C144.442363,41.966403 143.186879,40.7408895 143.186879,40.7408895 L142.92825,41.008953 L142.92825,41.00895 Z" id="Shape" stroke="#000000" stroke-width="0.2976" fill="#B95A1E"></path>
            <path d="M142.80075,41.0802 C142.80075,41.0802 143.013385,42.142428 143.170659,42.917565 C143.327911,43.692597 143.579863,43.9498725 143.91193,43.861386 C144.243978,43.772799 144.190128,43.1688465 144.057571,42.84231 C143.924994,42.51567 143.129392,40.918545 143.129392,40.918545 L142.80075,41.080206 L142.80075,41.0802 Z" id="Shape" stroke="#000000" stroke-width="0.2976" fill="#B95A1E"></path>
            <path d="M142.57485,41.11365 C142.57485,41.11365 142.57365,42.1992855 142.57485,42.991965 C142.57605,43.7845395 142.771835,44.0913825 143.114088,44.0775495 C143.456342,44.0636145 143.522607,43.461033 143.457246,43.112586 C143.391886,42.764034 142.928165,41.027481 142.928165,41.027481 L142.57485,41.1136455 L142.57485,41.11365 Z" id="Shape" stroke="#000000" stroke-width="0.2976" fill="#B95A1E"></path>
            <path d="M142.2222,41.00895 C142.2222,41.00895 141.685554,41.9354235 141.291961,42.610755 C140.89842,43.285995 140.579487,43.4398365 140.294469,43.239546 C140.009502,43.039167 140.251421,42.488802 140.479728,42.2276475 C140.708087,41.966403 141.963572,40.7408895 141.963572,40.7408895 L142.2222,41.008953 L142.2222,41.00895 Z" id="Shape" stroke="#000000" stroke-width="0.2976" fill="#B95A1E"></path>
            <path d="M142.34985,41.0802 C142.34985,41.0802 142.137214,42.142428 141.979941,42.917565 C141.822688,43.692597 141.570737,43.9498725 141.238669,43.861386 C140.906622,43.772799 140.960472,43.1688465 141.093028,42.84231 C141.225606,42.51567 142.021208,40.918545 142.021208,40.918545 L142.34985,41.080206 L142.34985,41.0802 Z" id="Shape" stroke="#000000" stroke-width="0.2976" fill="#B95A1E"></path>
            <path d="M142.5756,41.11365 C142.5756,41.11365 142.5768,42.1992855 142.5756,42.991965 C142.5744,43.7845395 142.378615,44.0913825 142.036362,44.0775495 C141.694108,44.0636145 141.627843,43.461033 141.693204,43.112586 C141.758564,42.764034 142.222285,41.027481 142.222285,41.027481 L142.5756,41.1136455 L142.5756,41.11365 Z" id="Shape" stroke="#000000" stroke-width="0.2976" fill="#B95A1E"></path>
            <path d="M143.1696,32.76 C143.1696,32.76 144.043586,31.831686 145.57308,30.903375 C147.10248,29.975064 148.209,29.260995 148.41348,29.418072 C148.41348,29.6037405 147.102489,30.53205 146.01003,31.274697 C144.917566,32.0173455 143.60658,33.131322 143.60658,33.131322 L143.169588,32.759997 L143.1696,32.76 Z" id="Shape" stroke="#000000" stroke-width="0.2976" fill="#B95A1E"></path>
            <path d="M143.271,33.50265 C143.271,33.50265 144.134922,32.9574465 145.791645,32.2030125 C147.42243,31.5331785 149.724495,31.6460235 149.724495,31.8316875 C149.506079,32.0173485 147.539595,32.0173485 146.228595,32.574336 C144.977208,33.105987 143.707995,33.873975 143.707995,33.873975 L143.271003,33.50265 L143.271,33.50265 Z" id="Shape" stroke="#000000" stroke-width="0.2976" fill="#B95A1E"></path>
            <path d="M143.2803,34.78155 C143.2803,34.78155 144.040933,34.41405 145.800945,33.853236 C147.548775,33.2962485 149.869215,33.6675735 149.869215,33.853236 C149.650799,34.038897 147.76731,33.9260505 146.456325,34.2245625 C145.099789,34.5154485 143.71731,35.152875 143.71731,35.152875 L143.280318,34.78155 L143.2803,34.78155 Z" id="Shape" stroke="#000000" stroke-width="0.2976" fill="#B95A1E"></path>
            <path d="M143.3634,36.08025 C143.3634,36.08025 144.240012,35.336451 146.10714,35.151936 C147.985815,34.966275 149.51535,36.08025 149.51535,36.265908 C149.296935,36.451575 147.548865,35.448765 146.23788,35.592189 C144.848968,35.7352815 143.800395,36.451575 143.800395,36.451575 L143.363403,36.08025 L143.3634,36.08025 Z" id="Shape" stroke="#000000" stroke-width="0.2976" fill="#B95A1E"></path>
            <path d="M142.92825,31.9956 C142.92825,31.9956 144.336744,31.067286 144.336744,30.32463 C144.336744,29.58198 143.715793,28.8393315 143.539728,28.468005 C143.891859,28.468005 144.688862,29.5819785 144.688862,30.32463 C144.688862,31.136208 143.365242,32.36691 143.365242,32.36691 L142.92825,31.995585 L142.92825,31.9956 Z" id="Shape" stroke="#000000" stroke-width="0.2976" fill="#B95A1E"></path>
            <path d="M142.92825,31.9956 C142.92825,31.9956 142.752184,31.4386125 142.752184,30.32463 C142.752184,29.024988 143.529171,28.19838 143.808549,27.91101 C143.88129,28.198383 143.104314,29.2106505 143.104314,30.32463 C143.104314,31.1362095 143.365242,32.36691 143.365242,32.36691 L142.92825,31.995585 L142.92825,31.9956 Z" id="Shape" stroke="#000000" stroke-width="0.2976" fill="#B95A1E"></path>
            <path d="M141.98085,32.76 C141.98085,32.76 141.106865,31.831686 139.57737,30.903375 C138.04797,29.975064 136.94145,29.260995 136.73697,29.418072 C136.73697,29.6037405 138.047961,30.53205 139.14042,31.274697 C140.232883,32.0173455 141.54387,33.131322 141.54387,33.131322 L141.980862,32.759997 L141.98085,32.76 Z" id="Shape" stroke="#000000" stroke-width="0.2976" fill="#B95A1E"></path>
            <path d="M141.87945,33.50265 C141.87945,33.50265 141.015528,32.9574465 139.358805,32.2030125 C137.72802,31.5331785 135.425955,31.6460235 135.425955,31.8316875 C135.644371,32.0173485 137.610855,32.0173485 138.921855,32.574336 C140.173242,33.105987 141.442455,33.873975 141.442455,33.873975 L141.879447,33.50265 L141.87945,33.50265 Z" id="Shape" stroke="#000000" stroke-width="0.2976" fill="#B95A1E"></path>
            <path d="M141.87015,34.78155 C141.87015,34.78155 141.109517,34.41405 139.349505,33.853236 C137.601675,33.2962485 135.281235,33.6675735 135.281235,33.853236 C135.499651,34.038897 137.38314,33.9260505 138.694125,34.2245625 C140.050661,34.5154485 141.43314,35.152875 141.43314,35.152875 L141.870132,34.78155 L141.87015,34.78155 Z" id="Shape" stroke="#000000" stroke-width="0.2976" fill="#B95A1E"></path>
            <path d="M141.78705,36.08025 C141.78705,36.08025 140.910438,35.336451 139.04331,35.151936 C137.164635,34.966275 135.6351,36.08025 135.6351,36.265908 C135.853515,36.451575 137.601585,35.448765 138.91257,35.592189 C140.301481,35.7352815 141.350055,36.451575 141.350055,36.451575 L141.787047,36.08025 L141.78705,36.08025 Z" id="Shape" stroke="#000000" stroke-width="0.2976" fill="#B95A1E"></path>
            <path d="M142.2222,31.9956 C142.2222,31.9956 140.813706,31.067286 140.813706,30.32463 C140.813706,29.58198 141.434656,28.8393315 141.610722,28.468005 C141.258591,28.468005 140.461589,29.5819785 140.461589,30.32463 C140.461589,31.136208 141.785208,32.36691 141.785208,32.36691 L142.2222,31.995585 L142.2222,31.9956 Z" id="Shape" stroke="#000000" stroke-width="0.2976" fill="#B95A1E"></path>
            <path d="M142.2222,31.9956 C142.2222,31.9956 142.398265,31.4386125 142.398265,30.32463 C142.398265,29.024988 141.621279,28.19838 141.341901,27.91101 C141.26916,28.198383 142.046136,29.2106505 142.046136,30.32463 C142.046136,31.1362095 141.785208,32.36691 141.785208,32.36691 L142.2222,31.995585 L142.2222,31.9956 Z" id="Shape" stroke="#000000" stroke-width="0.2976" fill="#B95A1E"></path>
            <path d="M147.15375,45.3633 C146.606532,44.081433 146.449507,41.83572 146.449507,41.464395 C146.449507,40.418718 146.776934,35.33271 146.801629,33.295245 C146.826324,31.25778 145.569209,30.13899 144.336769,30.13899 C143.280405,30.13899 142.576159,30.881643 142.576159,31.995615 L143.104347,31.995615 C143.104347,31.252965 143.632534,30.6959775 144.336777,30.6959775 C145.393143,30.6959775 146.204997,31.57353 146.273457,33.2952525 C146.349033,35.2851825 146.061625,40.4522625 146.097391,41.8357275 C146.133157,43.2192885 146.606538,44.4527475 147.153756,45.3633075 L147.15375,45.3633 Z" id="Shape" stroke="#FDC301" stroke-width="0.7501" fill="#B95A1E"></path>
            <path d="M137.99685,45.3633 C138.544068,44.081433 138.701092,41.83572 138.701092,41.464395 C138.701092,40.418718 138.373666,35.33271 138.348971,33.295245 C138.324276,31.25778 139.581391,30.13899 140.81383,30.13899 C141.870195,30.13899 142.57444,30.881643 142.57444,31.995615 L142.046253,31.995615 C142.046253,31.252965 141.518065,30.6959775 140.813823,30.6959775 C139.757457,30.6959775 138.945603,31.57353 138.877143,33.2952525 C138.801567,35.2851825 139.088975,40.4522625 139.053209,41.8357275 C139.017443,43.2192885 138.544062,44.4527475 137.996844,45.3633075 L137.99685,45.3633 Z" id="Shape" stroke="#FDC301" stroke-width="0.7501" fill="#B95A1E"></path>
            <path d="M142.57605,41.0931 C143.560114,41.07849 143.668636,40.721787 143.668636,40.721787 C143.668636,40.721787 143.887135,39.9791385 143.777892,39.793461 C143.66863,39.607803 142.57605,39.607803 142.57605,39.607803 L142.57605,41.0931 L142.57605,41.0931 Z" id="Shape" stroke="#000000" stroke-width="0.2976" fill="#B95A1E"></path>
            <path d="M142.57605,40.35045 C143.632416,40.35045 143.808481,39.979137 143.808481,39.979137 C143.808481,39.979137 144.160573,39.2364885 143.984537,39.050811 C143.808471,38.865153 142.57605,38.865153 142.57605,38.865153 L142.57605,40.35045 L142.57605,40.35045 Z" id="Shape" stroke="#000000" stroke-width="0.2976" fill="#B95A1E"></path>
            <path d="M142.57605,39.6078 C143.456359,39.6078 143.984547,39.2364765 143.984547,39.2364765 C143.984547,39.2364765 144.336639,38.493828 144.160602,38.3081505 C143.984536,38.1224925 142.576047,38.122503 142.576047,38.122503 L142.576047,39.6078 L142.57605,39.6078 Z" id="Shape" stroke="#000000" stroke-width="0.2976" fill="#B95A1E"></path>
            <path d="M142.57605,38.67945 C144.16179,38.66484 144.160605,38.2025445 144.160605,38.2025445 C144.160605,38.2025445 144.512697,37.459896 144.336661,37.274217 C144.160596,37.0885605 142.576052,37.194153 142.576052,37.194153 L142.576052,38.67945 L142.57605,38.67945 Z" id="Shape" stroke="#000000" stroke-width="0.2976" fill="#B95A1E"></path>
            <path d="M142.57605,37.9368 C144.16179,37.92219 144.33666,37.565487 144.33666,37.565487 C144.33666,37.565487 144.688752,36.8228385 144.512716,36.637161 C144.336649,36.451503 142.576051,36.451503 142.576051,36.451503 L142.576051,37.9368 L142.57605,37.9368 Z" id="Shape" stroke="#000000" stroke-width="0.2976" fill="#B95A1E"></path>
            <path d="M142.57605,37.0086 C144.16179,36.99399 144.51273,36.6372765 144.51273,36.6372765 C144.51273,36.6372765 144.864822,35.894628 144.688786,35.708961 C144.512721,35.523303 142.576051,35.523303 142.576051,35.523303 L142.576051,37.0086 L142.57605,37.0086 Z" id="Shape" stroke="#000000" stroke-width="0.2976" fill="#B95A1E"></path>
            <path d="M142.57605,36.08025 C144.16179,36.06564 144.688785,35.7089265 144.688785,35.7089265 C144.688785,35.7089265 144.864821,34.966278 144.688785,34.780611 C144.51272,34.594953 142.57605,34.594953 142.57605,34.594953 L142.57605,36.08025 L142.57605,36.08025 Z" id="Shape" stroke="#000000" stroke-width="0.2976" fill="#B95A1E"></path>
            <path d="M142.57605,35.1519 C144.16179,35.13729 144.688785,34.7805765 144.688785,34.7805765 C144.688785,34.7805765 144.688785,34.037928 144.512728,33.852261 C144.336663,33.666603 142.576048,33.666603 142.576048,33.666603 L142.576048,35.1519 L142.57605,35.1519 Z" id="Shape" stroke="#000000" stroke-width="0.2976" fill="#B95A1E"></path>
            <path d="M142.57605,34.22355 C144.16179,34.20894 144.512715,33.8522265 144.512715,33.8522265 C144.512715,33.8522265 144.512715,33.109578 144.336658,32.923911 C144.160593,32.738253 142.576048,32.738253 142.576048,32.738253 L142.576048,34.22355 L142.57605,34.22355 Z" id="Shape" stroke="#000000" stroke-width="0.2976" fill="#B95A1E"></path>
            <path d="M142.57605,31.89465 C143.809674,31.89615 144.342645,32.9676465 144.339645,32.945796 L143.984532,33.29526 C143.795865,33.480927 142.576045,33.480927 142.591191,33.4799745 L142.576045,31.8946545 L142.57605,31.89465 Z" id="Shape" stroke="#000000" stroke-width="0.2976" fill="#B95A1E"></path>
            <path d="M142.5744,41.0931 C141.590336,41.07849 141.481813,40.721787 141.481813,40.721787 C141.481813,40.721787 141.263314,39.9791385 141.372558,39.793461 C141.48182,39.607803 142.5744,39.607803 142.5744,39.607803 L142.5744,41.0931 L142.5744,41.0931 Z" id="Shape" stroke="#000000" stroke-width="0.2976" fill="#B95A1E"></path>
            <path d="M142.5744,40.35045 C141.518034,40.35045 141.341968,39.979137 141.341968,39.979137 C141.341968,39.979137 140.989876,39.2364885 141.165913,39.050811 C141.341979,38.865153 142.5744,38.865153 142.5744,38.865153 L142.5744,40.35045 L142.5744,40.35045 Z" id="Shape" stroke="#000000" stroke-width="0.2976" fill="#B95A1E"></path>
            <path d="M142.5744,39.6078 C141.69409,39.6078 141.165903,39.2364765 141.165903,39.2364765 C141.165903,39.2364765 140.813811,38.493828 140.989848,38.3081505 C141.165913,38.1224925 142.574403,38.122503 142.574403,38.122503 L142.574403,39.6078 L142.5744,39.6078 Z" id="Shape" stroke="#000000" stroke-width="0.2976" fill="#B95A1E"></path>
            <path d="M142.5744,38.67945 C140.98866,38.66484 140.989845,38.2025445 140.989845,38.2025445 C140.989845,38.2025445 140.637753,37.459896 140.813788,37.274217 C140.989854,37.0885605 142.574398,37.194153 142.574398,37.194153 L142.574398,38.67945 L142.5744,38.67945 Z" id="Shape" stroke="#000000" stroke-width="0.2976" fill="#B95A1E"></path>
            <path d="M142.5744,37.9368 C140.98866,37.92219 140.81379,37.565487 140.81379,37.565487 C140.81379,37.565487 140.461698,36.8228385 140.637733,36.637161 C140.8138,36.451503 142.574399,36.451503 142.574399,36.451503 L142.574399,37.9368 L142.5744,37.9368 Z" id="Shape" stroke="#000000" stroke-width="0.2976" fill="#B95A1E"></path>
            <path d="M142.5744,37.0086 C140.98866,36.99399 140.63772,36.6372765 140.63772,36.6372765 C140.63772,36.6372765 140.285628,35.894628 140.461663,35.708961 C140.637729,35.523303 142.574398,35.523303 142.574398,35.523303 L142.574398,37.0086 L142.5744,37.0086 Z" id="Shape" stroke="#000000" stroke-width="0.2976" fill="#B95A1E"></path>
            <path d="M142.5744,36.08025 C140.98866,36.06564 140.461665,35.7089265 140.461665,35.7089265 C140.461665,35.7089265 140.285629,34.966278 140.461665,34.780611 C140.63773,34.594953 142.5744,34.594953 142.5744,34.594953 L142.5744,36.08025 L142.5744,36.08025 Z" id="Shape" stroke="#000000" stroke-width="0.2976" fill="#B95A1E"></path>
            <path d="M142.5744,35.1519 C140.98866,35.13729 140.461665,34.7805765 140.461665,34.7805765 C140.461665,34.7805765 140.461665,34.037928 140.637722,33.852261 C140.813787,33.666603 142.574401,33.666603 142.574401,33.666603 L142.574401,35.1519 L142.5744,35.1519 Z" id="Shape" stroke="#000000" stroke-width="0.2976" fill="#B95A1E"></path>
            <path d="M142.5744,34.22355 C140.98866,34.20894 140.637735,33.8522265 140.637735,33.8522265 C140.637735,33.8522265 140.637735,33.109578 140.813792,32.923911 C140.989857,32.738253 142.574401,32.738253 142.574401,32.738253 L142.574401,34.22355 L142.5744,34.22355 Z" id="Shape" stroke="#000000" stroke-width="0.2976" fill="#B95A1E"></path>
            <path d="M142.5744,31.89465 C141.340776,31.89615 140.807805,32.9676465 140.810805,32.945796 L141.165918,33.29526 C141.354585,33.480927 142.574404,33.480927 142.559259,33.4799745 L142.574404,31.8946545 L142.5744,31.89465 Z" id="Shape" stroke="#000000" stroke-width="0.2976" fill="#B95A1E"></path>
            <g id="Group-2">
                <polygon id="path28" fill="#FFFFFF" points="0.005634 18.8001034 19.0044453 18.8001034 0.005634 6.95034312 0.005634 0.212244196 10.8799537 0.212244196 37.4407918 16.6315197 37.4407918 0.212244196 52.3773575 0.212244196 52.3773575 16.6315197 78.9381957 0.212244196 89.8750115 0.212244196 89.8750115 6.95034312 70.813704 18.7226539 89.8750115 18.7226539 89.8750115 37.310513 70.813704 37.310513 89.8750115 49.0828239 89.8750115 55.8983722 78.9381957 55.8983722 52.3773575 39.4790966 52.3773575 55.8983722 37.4407918 55.8983722 37.4407918 39.4790966 10.8799537 55.8983722 0.005634 55.8983722 0.005634 49.0828239 19.0044453 37.310513 0.005634 37.310513"></polygon>
                <polygon id="path32" fill="#CF142B" points="82.8129533 0.212244196 52.81483 18.8001034 60.0018804 18.8001034 89.8750115 0.212244196"></polygon>
                <polygon id="path36" fill="#CF142B" points="89.8750115 55.9758216 59.9393842 37.3879625 67.1264346 37.3879625 89.8125153 51.5612049 89.8125153 55.9758216"></polygon>
                <polygon id="path40" fill="#CF142B" points="30.0662533 18.8001034 0.005634 0.212244196 0.005634 4.62686073 22.8167068 18.8001034"></polygon>
                <polygon id="path44" fill="#CF142B" points="30.0037572 37.3879625 0.005634 55.9758216 7.19268435 55.9758216 37.1908075 37.3879625"></polygon>
                <polygon id="path48" fill="#CF142B" points="0.005634 22.5951246 40.6280925 22.5951246 40.6280925 0.134794783 49.3775451 0.134794783 49.3775451 22.5951246 89.8750115 22.5951246 89.8750115 33.5154918 49.3775451 33.5154918 49.3775451 55.9758216 40.6280925 55.9758216 40.6280925 33.5154918 0.005634 33.5154918"></polygon>
            </g>
        </g>
    </g>
</svg>