<?xml version="1.0" ?><svg height="120px" version="1.1" viewBox="0 0 180 120" width="180px" xmlns="http://www.w3.org/2000/svg" xmlns:sketch="http://www.bohemiancoding.com/sketch/ns" xmlns:xlink="http://www.w3.org/1999/xlink"><title/><defs/><g fill="none" fill-rule="evenodd" id="Ameria" stroke="none" stroke-width="1"><g id="Group"><g id="US"><g id="Group"><rect d="M0,0 L0,120 L180,120 L180,0 L0,0 Z M0,0" fill="#CA4638" height="120" id="Oval-1" width="180" x="0" y="0"/><rect d="M0,9 L0,18 L180,18 L180,9 L0,9 Z M0,9" fill="#FFFFFF" height="9" id="Rectangle-1" width="180" x="0" y="9"/><rect d="M0,27 L0,36 L180,36 L180,27 L0,27 Z M0,27" fill="#FFFFFF" height="9" id="Rectangle-1" width="180" x="0" y="27"/><rect d="M0,45 L0,54 L180,54 L180,45 L0,45 Z M0,45" fill="#FFFFFF" height="9" id="Rectangle-1" width="180" x="0" y="45"/><rect d="M0,64 L0,73 L180,73 L180,64 L0,64 Z M0,64" fill="#FFFFFF" height="9" id="Rectangle-1" width="180" x="0" y="64"/><rect d="M0,83 L0,92 L180,92 L180,83 L0,83 Z M0,83" fill="#FFFFFF" height="9" id="Rectangle-1" width="180" x="0" y="83"/><rect d="M0,102 L0,111 L180,111 L180,102 L0,102 Z M0,102" fill="#FFFFFF" height="9" id="Rectangle-1" width="180" x="0" y="102"/><rect d="M0,0 L0,64 L90,64 L90,0 L0,0 Z M0,0" fill="#346DA6" height="64" id="Oval-38-copy-3" width="90" x="0" y="0"/></g><g fill="#FFFFFF" id="stars" transform="translate(2.000000, 4.000000)"><g id="Group"><polygon d="M2.99999969,4.97507751 L1.1458981,5.99999995 L1.49999991,3.82917957 L2.00118423e-16,2.29179608 L2.07294915,1.97507736 L2.99999979,-2.86400883e-16 L3.927051,1.97507785 L6,2.29179766 L4.49999948,3.82917998 L4.85410135,6 L2.99999969,4.97507751 Z M2.99999969,4.97507751" id="Star-1" points="2.99999969 4.97507751 1.1458981 5.99999995 1.49999991 3.82917957 2.00118423e-16 2.29179608 2.07294915 1.97507736 2.99999979 -2.86400883e-16 3.927051 1.97507785 6 2.29179766 4.49999948 3.82917998 4.85410135 6 "/><polygon d="M2.99999969,17.9750775 L1.1458981,19 L1.49999991,16.8291796 L2.00118423e-16,15.2917961 L2.07294915,14.9750774 L2.99999979,13 L3.927051,14.9750778 L6,15.2917977 L4.49999948,16.82918 L4.85410135,19 L2.99999969,17.9750775 Z M2.99999969,17.9750775" id="Star-1" points="2.99999969 17.9750775 1.1458981 19 1.49999991 16.8291796 2.00118423e-16 15.2917961 2.07294915 14.9750774 2.99999979 13 3.927051 14.9750778 6 15.2917977 4.49999948 16.82918 4.85410135 19 "/><polygon d="M2.99999969,29.9750775 L1.1458981,31 L1.49999991,28.8291796 L2.00118423e-16,27.2917961 L2.07294915,26.9750774 L2.99999979,25 L3.927051,26.9750778 L6,27.2917977 L4.49999948,28.82918 L4.85410135,31 L2.99999969,29.9750775 Z M2.99999969,29.9750775" id="Star-1" points="2.99999969 29.9750775 1.1458981 31 1.49999991 28.8291796 2.00118423e-16 27.2917961 2.07294915 26.9750774 2.99999979 25 3.927051 26.9750778 6 27.2917977 4.49999948 28.82918 4.85410135 31 "/><polygon d="M2.99999969,42.9750775 L1.1458981,44 L1.49999991,41.8291796 L2.00118423e-16,40.2917961 L2.07294915,39.9750774 L2.99999979,38 L3.927051,39.9750778 L6,40.2917977 L4.49999948,41.82918 L4.85410135,44 L2.99999969,42.9750775 Z M2.99999969,42.9750775" id="Star-1" points="2.99999969 42.9750775 1.1458981 44 1.49999991 41.8291796 2.00118423e-16 40.2917961 2.07294915 39.9750774 2.99999979 38 3.927051 39.9750778 6 40.2917977 4.49999948 41.82918 4.85410135 44 "/><polygon d="M2.99999969,55.9750775 L1.1458981,57 L1.49999991,54.8291796 L2.00118423e-16,53.2917961 L2.07294915,52.9750774 L2.99999979,51 L3.927051,52.9750778 L6,53.2917977 L4.49999948,54.82918 L4.85410135,57 L2.99999969,55.9750775 Z M2.99999969,55.9750775" id="Star-1" points="2.99999969 55.9750775 1.1458981 57 1.49999991 54.8291796 2.00118423e-16 53.2917961 2.07294915 52.9750774 2.99999979 51 3.927051 52.9750778 6 53.2917977 4.49999948 54.82918 4.85410135 57 "/><polygon d="M10.9999997,23.9750775 L9.1458981,25 L9.49999991,22.8291796 L8,21.2917961 L10.0729492,20.9750774 L10.9999998,19 L11.927051,20.9750778 L14,21.2917977 L12.4999995,22.82918 L12.8541013,25 L10.9999997,23.9750775 Z M10.9999997,23.9750775" id="Star-1" points="10.9999997 23.9750775 9.1458981 25 9.49999991 22.8291796 8 21.2917961 10.0729492 20.9750774 10.9999998 19 11.927051 20.9750778 14 21.2917977 12.4999995 22.82918 12.8541013 25 "/><polygon d="M10.9999997,36.9750775 L9.1458981,38 L9.49999991,35.8291796 L8,34.2917961 L10.0729492,33.9750774 L10.9999998,32 L11.927051,33.9750778 L14,34.2917977 L12.4999995,35.82918 L12.8541013,38 L10.9999997,36.9750775 Z M10.9999997,36.9750775" id="Path" points="10.9999997 36.9750775 9.1458981 38 9.49999991 35.8291796 8 34.2917961 10.0729492 33.9750774 10.9999998 32 11.927051 33.9750778 14 34.2917977 12.4999995 35.82918 12.8541013 38 "/><polygon d="M10.9999997,10.9750775 L9.1458981,12 L9.49999991,9.82917957 L8,8.29179608 L10.0729492,7.97507736 L10.9999998,6 L11.927051,7.97507785 L14,8.29179766 L12.4999995,9.82917998 L12.8541013,12 L10.9999997,10.9750775 Z M10.9999997,10.9750775" id="Path" points="10.9999997 10.9750775 9.1458981 12 9.49999991 9.82917957 8 8.29179608 10.0729492 7.97507736 10.9999998 6 11.927051 7.97507785 14 8.29179766 12.4999995 9.82917998 12.8541013 12 "/><polygon d="M10.9999997,48.9750775 L9.1458981,50 L9.49999991,47.8291796 L8,46.2917961 L10.0729492,45.9750774 L10.9999998,44 L11.927051,45.9750778 L14,46.2917977 L12.4999995,47.82918 L12.8541013,50 L10.9999997,48.9750775 Z M10.9999997,48.9750775" id="Star-1" points="10.9999997 48.9750775 9.1458981 50 9.49999991 47.8291796 8 46.2917961 10.0729492 45.9750774 10.9999998 44 11.927051 45.9750778 14 46.2917977 12.4999995 47.82918 12.8541013 50 "/><polygon d="M18.9999997,4.97507751 L17.1458981,5.99999995 L17.4999999,3.82917957 L16,2.29179608 L18.0729492,1.97507736 L18.9999998,-2.86400883e-16 L19.927051,1.97507785 L22,2.29179766 L20.4999995,3.82917998 L20.8541013,6 L18.9999997,4.97507751 Z M18.9999997,4.97507751" id="Star-1" points="18.9999997 4.97507751 17.1458981 5.99999995 17.4999999 3.82917957 16 2.29179608 18.0729492 1.97507736 18.9999998 -2.86400883e-16 19.927051 1.97507785 22 2.29179766 20.4999995 3.82917998 20.8541013 6 "/><polygon d="M18.9999997,17.9750775 L17.1458981,19 L17.4999999,16.8291796 L16,15.2917961 L18.0729492,14.9750774 L18.9999998,13 L19.927051,14.9750778 L22,15.2917977 L20.4999995,16.82918 L20.8541013,19 L18.9999997,17.9750775 Z M18.9999997,17.9750775" id="Star-1" points="18.9999997 17.9750775 17.1458981 19 17.4999999 16.8291796 16 15.2917961 18.0729492 14.9750774 18.9999998 13 19.927051 14.9750778 22 15.2917977 20.4999995 16.82918 20.8541013 19 "/><polygon d="M18.9999997,29.9750775 L17.1458981,31 L17.4999999,28.8291796 L16,27.2917961 L18.0729492,26.9750774 L18.9999998,25 L19.927051,26.9750778 L22,27.2917977 L20.4999995,28.82918 L20.8541013,31 L18.9999997,29.9750775 Z M18.9999997,29.9750775" id="Star-1" points="18.9999997 29.9750775 17.1458981 31 17.4999999 28.8291796 16 27.2917961 18.0729492 26.9750774 18.9999998 25 19.927051 26.9750778 22 27.2917977 20.4999995 28.82918 20.8541013 31 "/><polygon d="M18.9999997,42.9750775 L17.1458981,44 L17.4999999,41.8291796 L16,40.2917961 L18.0729492,39.9750774 L18.9999998,38 L19.927051,39.9750778 L22,40.2917977 L20.4999995,41.82918 L20.8541013,44 L18.9999997,42.9750775 Z M18.9999997,42.9750775" id="Star-1" points="18.9999997 42.9750775 17.1458981 44 17.4999999 41.8291796 16 40.2917961 18.0729492 39.9750774 18.9999998 38 19.927051 39.9750778 22 40.2917977 20.4999995 41.82918 20.8541013 44 "/><polygon d="M18.9999997,55.9750775 L17.1458981,57 L17.4999999,54.8291796 L16,53.2917961 L18.0729492,52.9750774 L18.9999998,51 L19.927051,52.9750778 L22,53.2917977 L20.4999995,54.82918 L20.8541013,57 L18.9999997,55.9750775 Z M18.9999997,55.9750775" id="Star-1" points="18.9999997 55.9750775 17.1458981 57 17.4999999 54.8291796 16 53.2917961 18.0729492 52.9750774 18.9999998 51 19.927051 52.9750778 22 53.2917977 20.4999995 54.82918 20.8541013 57 "/><polygon d="M26.9999997,23.9750775 L25.1458981,25 L25.4999999,22.8291796 L24,21.2917961 L26.0729492,20.9750774 L26.9999998,19 L27.927051,20.9750778 L30,21.2917977 L28.4999995,22.82918 L28.8541013,25 L26.9999997,23.9750775 Z M26.9999997,23.9750775" id="Star-1" points="26.9999997 23.9750775 25.1458981 25 25.4999999 22.8291796 24 21.2917961 26.0729492 20.9750774 26.9999998 19 27.927051 20.9750778 30 21.2917977 28.4999995 22.82918 28.8541013 25 "/><polygon d="M26.9999997,36.9750775 L25.1458981,38 L25.4999999,35.8291796 L24,34.2917961 L26.0729492,33.9750774 L26.9999998,32 L27.927051,33.9750778 L30,34.2917977 L28.4999995,35.82918 L28.8541013,38 L26.9999997,36.9750775 Z M26.9999997,36.9750775" id="Path" points="26.9999997 36.9750775 25.1458981 38 25.4999999 35.8291796 24 34.2917961 26.0729492 33.9750774 26.9999998 32 27.927051 33.9750778 30 34.2917977 28.4999995 35.82918 28.8541013 38 "/><polygon d="M26.9999997,10.9750775 L25.1458981,12 L25.4999999,9.82917957 L24,8.29179608 L26.0729492,7.97507736 L26.9999998,6 L27.927051,7.97507785 L30,8.29179766 L28.4999995,9.82917998 L28.8541013,12 L26.9999997,10.9750775 Z M26.9999997,10.9750775" id="Path" points="26.9999997 10.9750775 25.1458981 12 25.4999999 9.82917957 24 8.29179608 26.0729492 7.97507736 26.9999998 6 27.927051 7.97507785 30 8.29179766 28.4999995 9.82917998 28.8541013 12 "/><polygon d="M26.9999997,48.9750775 L25.1458981,50 L25.4999999,47.8291796 L24,46.2917961 L26.0729492,45.9750774 L26.9999998,44 L27.927051,45.9750778 L30,46.2917977 L28.4999995,47.82918 L28.8541013,50 L26.9999997,48.9750775 Z M26.9999997,48.9750775" id="Star-1" points="26.9999997 48.9750775 25.1458981 50 25.4999999 47.8291796 24 46.2917961 26.0729492 45.9750774 26.9999998 44 27.927051 45.9750778 30 46.2917977 28.4999995 47.82918 28.8541013 50 "/><polygon d="M34.9999997,4.97507751 L33.1458981,5.99999995 L33.4999999,3.82917957 L32,2.29179608 L34.0729492,1.97507736 L34.9999998,-2.86400883e-16 L35.927051,1.97507785 L38,2.29179766 L36.4999995,3.82917998 L36.8541013,6 L34.9999997,4.97507751 Z M34.9999997,4.97507751" id="Star-1" points="34.9999997 4.97507751 33.1458981 5.99999995 33.4999999 3.82917957 32 2.29179608 34.0729492 1.97507736 34.9999998 -2.86400883e-16 35.927051 1.97507785 38 2.29179766 36.4999995 3.82917998 36.8541013 6 "/><polygon d="M34.9999997,17.9750775 L33.1458981,19 L33.4999999,16.8291796 L32,15.2917961 L34.0729492,14.9750774 L34.9999998,13 L35.927051,14.9750778 L38,15.2917977 L36.4999995,16.82918 L36.8541013,19 L34.9999997,17.9750775 Z M34.9999997,17.9750775" id="Star-1" points="34.9999997 17.9750775 33.1458981 19 33.4999999 16.8291796 32 15.2917961 34.0729492 14.9750774 34.9999998 13 35.927051 14.9750778 38 15.2917977 36.4999995 16.82918 36.8541013 19 "/><polygon d="M34.9999997,29.9750775 L33.1458981,31 L33.4999999,28.8291796 L32,27.2917961 L34.0729492,26.9750774 L34.9999998,25 L35.927051,26.9750778 L38,27.2917977 L36.4999995,28.82918 L36.8541013,31 L34.9999997,29.9750775 Z M34.9999997,29.9750775" id="Star-1" points="34.9999997 29.9750775 33.1458981 31 33.4999999 28.8291796 32 27.2917961 34.0729492 26.9750774 34.9999998 25 35.927051 26.9750778 38 27.2917977 36.4999995 28.82918 36.8541013 31 "/><polygon d="M34.9999997,42.9750775 L33.1458981,44 L33.4999999,41.8291796 L32,40.2917961 L34.0729492,39.9750774 L34.9999998,38 L35.927051,39.9750778 L38,40.2917977 L36.4999995,41.82918 L36.8541013,44 L34.9999997,42.9750775 Z M34.9999997,42.9750775" id="Star-1" points="34.9999997 42.9750775 33.1458981 44 33.4999999 41.8291796 32 40.2917961 34.0729492 39.9750774 34.9999998 38 35.927051 39.9750778 38 40.2917977 36.4999995 41.82918 36.8541013 44 "/><polygon d="M34.9999997,55.9750775 L33.1458981,57 L33.4999999,54.8291796 L32,53.2917961 L34.0729492,52.9750774 L34.9999998,51 L35.927051,52.9750778 L38,53.2917977 L36.4999995,54.82918 L36.8541013,57 L34.9999997,55.9750775 Z M34.9999997,55.9750775" id="Star-1" points="34.9999997 55.9750775 33.1458981 57 33.4999999 54.8291796 32 53.2917961 34.0729492 52.9750774 34.9999998 51 35.927051 52.9750778 38 53.2917977 36.4999995 54.82918 36.8541013 57 "/><polygon d="M42.9999997,23.9750775 L41.1458981,25 L41.4999999,22.8291796 L40,21.2917961 L42.0729492,20.9750774 L42.9999998,19 L43.927051,20.9750778 L46,21.2917977 L44.4999995,22.82918 L44.8541013,25 L42.9999997,23.9750775 Z M42.9999997,23.9750775" id="Star-1" points="42.9999997 23.9750775 41.1458981 25 41.4999999 22.8291796 40 21.2917961 42.0729492 20.9750774 42.9999998 19 43.927051 20.9750778 46 21.2917977 44.4999995 22.82918 44.8541013 25 "/><polygon d="M42.9999997,36.9750775 L41.1458981,38 L41.4999999,35.8291796 L40,34.2917961 L42.0729492,33.9750774 L42.9999998,32 L43.927051,33.9750778 L46,34.2917977 L44.4999995,35.82918 L44.8541013,38 L42.9999997,36.9750775 Z M42.9999997,36.9750775" id="Path" points="42.9999997 36.9750775 41.1458981 38 41.4999999 35.8291796 40 34.2917961 42.0729492 33.9750774 42.9999998 32 43.927051 33.9750778 46 34.2917977 44.4999995 35.82918 44.8541013 38 "/><polygon d="M42.9999997,10.9750775 L41.1458981,12 L41.4999999,9.82917957 L40,8.29179608 L42.0729492,7.97507736 L42.9999998,6 L43.927051,7.97507785 L46,8.29179766 L44.4999995,9.82917998 L44.8541013,12 L42.9999997,10.9750775 Z M42.9999997,10.9750775" id="Path" points="42.9999997 10.9750775 41.1458981 12 41.4999999 9.82917957 40 8.29179608 42.0729492 7.97507736 42.9999998 6 43.927051 7.97507785 46 8.29179766 44.4999995 9.82917998 44.8541013 12 "/><polygon d="M42.9999997,48.9750775 L41.1458981,50 L41.4999999,47.8291796 L40,46.2917961 L42.0729492,45.9750774 L42.9999998,44 L43.927051,45.9750778 L46,46.2917977 L44.4999995,47.82918 L44.8541013,50 L42.9999997,48.9750775 Z M42.9999997,48.9750775" id="Star-1" points="42.9999997 48.9750775 41.1458981 50 41.4999999 47.8291796 40 46.2917961 42.0729492 45.9750774 42.9999998 44 43.927051 45.9750778 46 46.2917977 44.4999995 47.82918 44.8541013 50 "/><polygon d="M50.9999997,4.97507751 L49.1458981,5.99999995 L49.4999999,3.82917957 L48,2.29179608 L50.0729492,1.97507736 L50.9999998,-2.86400883e-16 L51.927051,1.97507785 L54,2.29179766 L52.4999995,3.82917998 L52.8541013,6 L50.9999997,4.97507751 Z M50.9999997,4.97507751" id="Star-1" points="50.9999997 4.97507751 49.1458981 5.99999995 49.4999999 3.82917957 48 2.29179608 50.0729492 1.97507736 50.9999998 -2.86400883e-16 51.927051 1.97507785 54 2.29179766 52.4999995 3.82917998 52.8541013 6 "/><polygon d="M50.9999997,17.9750775 L49.1458981,19 L49.4999999,16.8291796 L48,15.2917961 L50.0729492,14.9750774 L50.9999998,13 L51.927051,14.9750778 L54,15.2917977 L52.4999995,16.82918 L52.8541013,19 L50.9999997,17.9750775 Z M50.9999997,17.9750775" id="Star-1" points="50.9999997 17.9750775 49.1458981 19 49.4999999 16.8291796 48 15.2917961 50.0729492 14.9750774 50.9999998 13 51.927051 14.9750778 54 15.2917977 52.4999995 16.82918 52.8541013 19 "/><polygon d="M50.9999997,29.9750775 L49.1458981,31 L49.4999999,28.8291796 L48,27.2917961 L50.0729492,26.9750774 L50.9999998,25 L51.927051,26.9750778 L54,27.2917977 L52.4999995,28.82918 L52.8541013,31 L50.9999997,29.9750775 Z M50.9999997,29.9750775" id="Star-1" points="50.9999997 29.9750775 49.1458981 31 49.4999999 28.8291796 48 27.2917961 50.0729492 26.9750774 50.9999998 25 51.927051 26.9750778 54 27.2917977 52.4999995 28.82918 52.8541013 31 "/><polygon d="M50.9999997,42.9750775 L49.1458981,44 L49.4999999,41.8291796 L48,40.2917961 L50.0729492,39.9750774 L50.9999998,38 L51.927051,39.9750778 L54,40.2917977 L52.4999995,41.82918 L52.8541013,44 L50.9999997,42.9750775 Z M50.9999997,42.9750775" id="Star-1" points="50.9999997 42.9750775 49.1458981 44 49.4999999 41.8291796 48 40.2917961 50.0729492 39.9750774 50.9999998 38 51.927051 39.9750778 54 40.2917977 52.4999995 41.82918 52.8541013 44 "/><polygon d="M50.9999997,55.9750775 L49.1458981,57 L49.4999999,54.8291796 L48,53.2917961 L50.0729492,52.9750774 L50.9999998,51 L51.927051,52.9750778 L54,53.2917977 L52.4999995,54.82918 L52.8541013,57 L50.9999997,55.9750775 Z M50.9999997,55.9750775" id="Star-1" points="50.9999997 55.9750775 49.1458981 57 49.4999999 54.8291796 48 53.2917961 50.0729492 52.9750774 50.9999998 51 51.927051 52.9750778 54 53.2917977 52.4999995 54.82918 52.8541013 57 "/><polygon d="M58.9999997,23.9750775 L57.1458981,25 L57.4999999,22.8291796 L56,21.2917961 L58.0729492,20.9750774 L58.9999998,19 L59.927051,20.9750778 L62,21.2917977 L60.4999995,22.82918 L60.8541013,25 L58.9999997,23.9750775 Z M58.9999997,23.9750775" id="Star-1" points="58.9999997 23.9750775 57.1458981 25 57.4999999 22.8291796 56 21.2917961 58.0729492 20.9750774 58.9999998 19 59.927051 20.9750778 62 21.2917977 60.4999995 22.82918 60.8541013 25 "/><polygon d="M58.9999997,36.9750775 L57.1458981,38 L57.4999999,35.8291796 L56,34.2917961 L58.0729492,33.9750774 L58.9999998,32 L59.927051,33.9750778 L62,34.2917977 L60.4999995,35.82918 L60.8541013,38 L58.9999997,36.9750775 Z M58.9999997,36.9750775" id="Path" points="58.9999997 36.9750775 57.1458981 38 57.4999999 35.8291796 56 34.2917961 58.0729492 33.9750774 58.9999998 32 59.927051 33.9750778 62 34.2917977 60.4999995 35.82918 60.8541013 38 "/><polygon d="M58.9999997,10.9750775 L57.1458981,12 L57.4999999,9.82917957 L56,8.29179608 L58.0729492,7.97507736 L58.9999998,6 L59.927051,7.97507785 L62,8.29179766 L60.4999995,9.82917998 L60.8541013,12 L58.9999997,10.9750775 Z M58.9999997,10.9750775" id="Path" points="58.9999997 10.9750775 57.1458981 12 57.4999999 9.82917957 56 8.29179608 58.0729492 7.97507736 58.9999998 6 59.927051 7.97507785 62 8.29179766 60.4999995 9.82917998 60.8541013 12 "/><polygon d="M58.9999997,48.9750775 L57.1458981,50 L57.4999999,47.8291796 L56,46.2917961 L58.0729492,45.9750774 L58.9999998,44 L59.927051,45.9750778 L62,46.2917977 L60.4999995,47.82918 L60.8541013,50 L58.9999997,48.9750775 Z M58.9999997,48.9750775" id="Star-1" points="58.9999997 48.9750775 57.1458981 50 57.4999999 47.8291796 56 46.2917961 58.0729492 45.9750774 58.9999998 44 59.927051 45.9750778 62 46.2917977 60.4999995 47.82918 60.8541013 50 "/><polygon d="M66.9999997,4.97507751 L65.1458981,5.99999995 L65.4999999,3.82917957 L64,2.29179608 L66.0729492,1.97507736 L66.9999998,-2.86400883e-16 L67.927051,1.97507785 L70,2.29179766 L68.4999995,3.82917998 L68.8541013,6 L66.9999997,4.97507751 Z M66.9999997,4.97507751" id="Star-1" points="66.9999997 4.97507751 65.1458981 5.99999995 65.4999999 3.82917957 64 2.29179608 66.0729492 1.97507736 66.9999998 -2.86400883e-16 67.927051 1.97507785 70 2.29179766 68.4999995 3.82917998 68.8541013 6 "/><polygon d="M66.9999997,17.9750775 L65.1458981,19 L65.4999999,16.8291796 L64,15.2917961 L66.0729492,14.9750774 L66.9999998,13 L67.927051,14.9750778 L70,15.2917977 L68.4999995,16.82918 L68.8541013,19 L66.9999997,17.9750775 Z M66.9999997,17.9750775" id="Star-1" points="66.9999997 17.9750775 65.1458981 19 65.4999999 16.8291796 64 15.2917961 66.0729492 14.9750774 66.9999998 13 67.927051 14.9750778 70 15.2917977 68.4999995 16.82918 68.8541013 19 "/><polygon d="M66.9999997,29.9750775 L65.1458981,31 L65.4999999,28.8291796 L64,27.2917961 L66.0729492,26.9750774 L66.9999998,25 L67.927051,26.9750778 L70,27.2917977 L68.4999995,28.82918 L68.8541013,31 L66.9999997,29.9750775 Z M66.9999997,29.9750775" id="Star-1" points="66.9999997 29.9750775 65.1458981 31 65.4999999 28.8291796 64 27.2917961 66.0729492 26.9750774 66.9999998 25 67.927051 26.9750778 70 27.2917977 68.4999995 28.82918 68.8541013 31 "/><polygon d="M66.9999997,42.9750775 L65.1458981,44 L65.4999999,41.8291796 L64,40.2917961 L66.0729492,39.9750774 L66.9999998,38 L67.927051,39.9750778 L70,40.2917977 L68.4999995,41.82918 L68.8541013,44 L66.9999997,42.9750775 Z M66.9999997,42.9750775" id="Star-1" points="66.9999997 42.9750775 65.1458981 44 65.4999999 41.8291796 64 40.2917961 66.0729492 39.9750774 66.9999998 38 67.927051 39.9750778 70 40.2917977 68.4999995 41.82918 68.8541013 44 "/><polygon d="M66.9999997,55.9750775 L65.1458981,57 L65.4999999,54.8291796 L64,53.2917961 L66.0729492,52.9750774 L66.9999998,51 L67.927051,52.9750778 L70,53.2917977 L68.4999995,54.82918 L68.8541013,57 L66.9999997,55.9750775 Z M66.9999997,55.9750775" id="Star-1" points="66.9999997 55.9750775 65.1458981 57 65.4999999 54.8291796 64 53.2917961 66.0729492 52.9750774 66.9999998 51 67.927051 52.9750778 70 53.2917977 68.4999995 54.82918 68.8541013 57 "/><polygon d="M74.9999997,23.9750775 L73.1458981,25 L73.4999999,22.8291796 L72,21.2917961 L74.0729492,20.9750774 L74.9999998,19 L75.927051,20.9750778 L78,21.2917977 L76.4999995,22.82918 L76.8541013,25 L74.9999997,23.9750775 Z M74.9999997,23.9750775" id="Star-1" points="74.9999997 23.9750775 73.1458981 25 73.4999999 22.8291796 72 21.2917961 74.0729492 20.9750774 74.9999998 19 75.927051 20.9750778 78 21.2917977 76.4999995 22.82918 76.8541013 25 "/><polygon d="M74.9999997,36.9750775 L73.1458981,38 L73.4999999,35.8291796 L72,34.2917961 L74.0729492,33.9750774 L74.9999998,32 L75.927051,33.9750778 L78,34.2917977 L76.4999995,35.82918 L76.8541013,38 L74.9999997,36.9750775 Z M74.9999997,36.9750775" id="Path" points="74.9999997 36.9750775 73.1458981 38 73.4999999 35.8291796 72 34.2917961 74.0729492 33.9750774 74.9999998 32 75.927051 33.9750778 78 34.2917977 76.4999995 35.82918 76.8541013 38 "/><polygon d="M74.9999997,10.9750775 L73.1458981,12 L73.4999999,9.82917957 L72,8.29179608 L74.0729492,7.97507736 L74.9999998,6 L75.927051,7.97507785 L78,8.29179766 L76.4999995,9.82917998 L76.8541013,12 L74.9999997,10.9750775 Z M74.9999997,10.9750775" id="Path" points="74.9999997 10.9750775 73.1458981 12 73.4999999 9.82917957 72 8.29179608 74.0729492 7.97507736 74.9999998 6 75.927051 7.97507785 78 8.29179766 76.4999995 9.82917998 76.8541013 12 "/><polygon d="M74.9999997,48.9750775 L73.1458981,50 L73.4999999,47.8291796 L72,46.2917961 L74.0729492,45.9750774 L74.9999998,44 L75.927051,45.9750778 L78,46.2917977 L76.4999995,47.82918 L76.8541013,50 L74.9999997,48.9750775 Z M74.9999997,48.9750775" id="Star-1" points="74.9999997 48.9750775 73.1458981 50 73.4999999 47.8291796 72 46.2917961 74.0729492 45.9750774 74.9999998 44 75.927051 45.9750778 78 46.2917977 76.4999995 47.82918 76.8541013 50 "/><polygon d="M82.9999997,4.97507751 L81.1458981,5.99999995 L81.4999999,3.82917957 L80,2.29179608 L82.0729492,1.97507736 L82.9999998,-2.86400883e-16 L83.927051,1.97507785 L86,2.29179766 L84.4999995,3.82917998 L84.8541013,6 L82.9999997,4.97507751 Z M82.9999997,4.97507751" id="Star-1" points="82.9999997 4.97507751 81.1458981 5.99999995 81.4999999 3.82917957 80 2.29179608 82.0729492 1.97507736 82.9999998 -2.86400883e-16 83.927051 1.97507785 86 2.29179766 84.4999995 3.82917998 84.8541013 6 "/><polygon d="M82.9999997,17.9750775 L81.1458981,19 L81.4999999,16.8291796 L80,15.2917961 L82.0729492,14.9750774 L82.9999998,13 L83.927051,14.9750778 L86,15.2917977 L84.4999995,16.82918 L84.8541013,19 L82.9999997,17.9750775 Z M82.9999997,17.9750775" id="Star-1" points="82.9999997 17.9750775 81.1458981 19 81.4999999 16.8291796 80 15.2917961 82.0729492 14.9750774 82.9999998 13 83.927051 14.9750778 86 15.2917977 84.4999995 16.82918 84.8541013 19 "/><polygon d="M82.9999997,29.9750775 L81.1458981,31 L81.4999999,28.8291796 L80,27.2917961 L82.0729492,26.9750774 L82.9999998,25 L83.927051,26.9750778 L86,27.2917977 L84.4999995,28.82918 L84.8541013,31 L82.9999997,29.9750775 Z M82.9999997,29.9750775" id="Star-1" points="82.9999997 29.9750775 81.1458981 31 81.4999999 28.8291796 80 27.2917961 82.0729492 26.9750774 82.9999998 25 83.927051 26.9750778 86 27.2917977 84.4999995 28.82918 84.8541013 31 "/><polygon d="M82.9999997,42.9750775 L81.1458981,44 L81.4999999,41.8291796 L80,40.2917961 L82.0729492,39.9750774 L82.9999998,38 L83.927051,39.9750778 L86,40.2917977 L84.4999995,41.82918 L84.8541013,44 L82.9999997,42.9750775 Z M82.9999997,42.9750775" id="Star-1" points="82.9999997 42.9750775 81.1458981 44 81.4999999 41.8291796 80 40.2917961 82.0729492 39.9750774 82.9999998 38 83.927051 39.9750778 86 40.2917977 84.4999995 41.82918 84.8541013 44 "/><polygon d="M82.9999997,55.9750775 L81.1458981,57 L81.4999999,54.8291796 L80,53.2917961 L82.0729492,52.9750774 L82.9999998,51 L83.927051,52.9750778 L86,53.2917977 L84.4999995,54.82918 L84.8541013,57 L82.9999997,55.9750775 Z M82.9999997,55.9750775" id="Star-1" points="82.9999997 55.9750775 81.1458981 57 81.4999999 54.8291796 80 53.2917961 82.0729492 52.9750774 82.9999998 51 83.927051 52.9750778 86 53.2917977 84.4999995 54.82918 84.8541013 57 "/></g></g></g></g></g></svg>