<?xml version="1.0" ?><svg height="120px" version="1.1" viewBox="0 0 180 120" width="180px" xmlns="http://www.w3.org/2000/svg" xmlns:sketch="http://www.bohemiancoding.com/sketch/ns" xmlns:xlink="http://www.w3.org/1999/xlink"><title/><defs/><g fill="none" fill-rule="evenodd" id="Africa,-Middle-East-and-India" stroke="none" stroke-width="1"><g id="Africa,-Middle-Eest-and-India" transform="translate(0.000000, -201.000000)"><g id="Algeria" transform="translate(0.000000, 201.000000)"><rect d="M-2.84217094e-14,0 L-2.84217094e-14,120 L180,120 L180,0 L-2.84217094e-14,0 Z M-2.84217094e-14,0" fill="#FFFFFF" height="120" id="Rectangle-3-copy-2" width="180" x="-2.84225816e-14" y="0"/><rect d="M0.00276191524,-1.42108547e-14 L0.00276191524,120 L90.0027619,120 L90.0027619,-1.42108547e-14 L0.00276191524,-1.42108547e-14 Z M0.00276191524,-1.42108547e-14" fill="#57BB63" height="120" id="Rectangle-3" width="90" x="0.00276191524" y="-1.42112908e-14"/><path d="M112.110576,84.4977574 C106.259194,89.7822833 98.5053662,93 90,93 C71.7746024,93 57,78.2253976 57,60 C57,41.7746024 71.7746024,27 90,27 C100.367606,27 109.618549,31.7809998 115.668353,39.2585237 C110.714424,34.7447313 104.172122,32 97,32 C81.5360262,32 69,44.7598839 69,60.5 C69,76.2401161 81.5360262,89 97,89 C102.56539,89 107.751541,87.3472938 112.110576,84.4977574 Z M102.551449,62.0905828 L101.049601,70.3286381 L95.3202384,63.8834954 L86.8965424,64.7107528 L91.1013844,57.5456161 L87.3971026,49.8188348 L95.7252015,51.8356805 L101.85953,46.2330118 L102.80173,54.6446253 L110.297231,58.9087659 L102.551449,62.0905828 Z M102.551449,62.0905828" fill="#CA4638" id="Star-1"/></g></g></g></svg>