<?xml version="1.0" encoding="UTF-8" standalone="no"?>
<svg width="180px" height="120px" viewBox="0 0 180 120" version="1.1" xmlns="http://www.w3.org/2000/svg" xmlns:xlink="http://www.w3.org/1999/xlink">
    <!-- Generator: Sketch 40.2 (33826) - http://www.bohemiancoding.com/sketch -->
    <title>icon-flag-pt</title>
    <desc>Created with Sketch.</desc>
    <defs></defs>
    <g id="Page-1" stroke="none" stroke-width="1" fill="none" fill-rule="evenodd">
        <rect id="10" fill="#CA4638" x="0" y="0" width="180" height="120"></rect>
        <rect id="9" fill="#479951" opacity="0.900000036" x="0" y="0" width="60" height="120"></rect>
        <path d="M90.8,59.2 C90.8,69 85.9,77.7 81.8,81.6 C76.1,87.1 68.6,90.6 59.8,90.7 C50,90.9 40.7,84.5 38.2,81.7 C33.3,76.2 29.4,69.2 29.3,59.8 C29.9,49.2 34.1,41.7 40.1,36.7 C46.2,31.6 54.2,29.1 60.9,29.3 C68.6,29.5 77.7,33.3 84,40.9 C88.1,45.7 89.9,51.1 90.8,59.2 C90.8,59.2 89.9,51.1 90.8,59.2 L90.8,59.2 L90.8,59.2 L90.8,59.2 Z M59.9,25.8 C78.8,25.8 94.3,41.2 94.3,60 C94.3,78.8 78.8,94.2 59.9,94.2 C41,94.2 25.6,78.9 25.6,60 C25.6,41.1 41,25.8 59.9,25.8 L59.9,25.8 L59.9,25.8 Z" id="8" fill="#FFFF00"></path>
        <path d="M40.2,63.9 C40.2,69.3 42.4,74.2 46,77.8 C49.6,81.4 54.5,83.6 59.9,83.6 C65.3,83.6 70.3,81.4 73.8,77.8 C77.4,74.2 79.6,69.3 79.6,63.9 L79.6,37.3 L40.2,37.3 M71.7,45.2 L71.7,62.1 L71.7,63.9 L71.7,63.9 C71.7,64.4 71.7,64.9 71.6,65.4 C71.3,68.1 70,70.4 68.2,72.2 C66.1,74.3 63.1,75.6 59.9,75.6 C56.7,75.6 53.8,74.2 51.6,72.1 C49.4,69.9 48.1,66.9 48.1,63.8 L48.1,45.1 L71.7,45.2" id="7" fill="#FF0000"></path>
        <path d="M65.1,57.1 L65.1,60.8 L65.1,60.8 L65.1,60.8 C65.1,61.6 65.4,62.3 65.9,62.8 C66.4,63.3 67,63.6 67.7,63.6 C68.4,63.6 69.1,63.3 69.5,62.8 C70,62.3 70.3,61.6 70.3,60.8 L70.3,57.1 L65.1,57.1 L65.1,57.1 Z" id="6" fill="#003399"></path>
        <path d="M50.4,57.1 L50.4,60.8 L50.4,60.8 L50.4,60.8 C50.4,61.6 50.7,62.3 51.2,62.8 C51.7,63.3 52.3,63.6 53,63.6 C53.7,63.6 54.4,63.3 54.8,62.8 C55.3,62.3 55.6,61.6 55.6,60.8 L55.6,57.1 L50.4,57.1 L50.4,57.1 Z" id="5" fill="#003399"></path>
        <path d="M57.8,57.1 L57.8,60.8 L57.8,60.8 L57.8,60.8 C57.8,61.6 58.1,62.3 58.6,62.8 C59.1,63.3 59.7,63.6 60.4,63.6 C61.1,63.6 61.8,63.3 62.2,62.8 C62.7,62.3 63,61.6 63,60.8 L63,57.1 L57.8,57.1 L57.8,57.1 Z" id="4" fill="#003399"></path>
        <path d="M57.6,49.2 L57.6,52.9 L57.6,52.9 L57.6,52.9 C57.6,53.7 57.9,54.4 58.4,54.9 C58.9,55.4 59.5,55.7 60.2,55.7 C60.9,55.7 61.6,55.4 62,54.9 C62.5,54.4 62.8,53.7 62.8,52.9 L62.8,49.2 L57.6,49.2 L57.6,49.2 Z" id="3" fill="#003399"></path>
        <path d="M57.6,65.6 L57.6,69.3 L57.6,69.3 L57.6,69.3 C57.6,70.1 57.9,70.8 58.4,71.3 C58.9,71.8 59.5,72.1 60.2,72.1 C60.9,72.1 61.6,71.8 62,71.3 C62.5,70.8 62.8,70.1 62.8,69.3 L62.8,65.6 L57.6,65.6 L57.6,65.6 Z" id="2" fill="#003399"></path>
        <path d="M71.1103152,72.7810888 L71.4087774,72.9887147 L72.8,71.2 L73.8,71.9 L72.6,73.8 L72,73.4 L73.38,74.36 L72.9,74 L73.6,73.1 L73.88,73.26 L73.8,73.2 C73.7,73.1 73.6,73 73.7,72.9 L73.8,72.8 L74.1,72.3 L74.4,72.5 L74.2,72.7 L74.4,72.9 L74.6,72.6 L74.9,72.8 L74.7,73.1 L74.9,73.3 L75.1,73 L75.5,73.3 L75.3,74.1 C75.2,74.1 75.1,74.2 75,74.1 L74.6709677,73.8532258 L74.1154728,74.8716332 L74.3,75 C74.4,75 74.4,75.2 74.3,75.3 C74.2258694,75.3741306 74.1517389,75.4482611 74.0776083,75.4409172 C74.0151699,75.542566 73.9978175,75.4508316 73.946675,75.3629044 L74,75.4 C74.0205188,75.4205188 74.0410375,75.4326171 74.0615563,75.4380229 C73.9743708,75.5223449 73.8871854,75.5871854 73.8,75.5 L73.7,75.5 L72.7,77.4 L71.5,76.6 L72.7,77.5 C72.8,77.6 72.8,77.8 72.7,77.9 C72.7,78 72.5,78.1 72.4,78 L67.6,74.6 C67.5,74.5 67.5,74.5 67.5,74.4 C67.5,74.3 67.6,74.3 67.6,74.2 C67.6,74.1 67.8,74 67.9,74.1 L69.1,75 L67.9,74.2 L69.3,72.6 L69.2,72.6 C69.1,72.6 69.1,72.4 69.2,72.3 C69.2498026,72.2501974 69.2996051,72.2003949 69.3494077,72.1752973 C69.3046124,72.1187064 69.3214765,71.9785235 69.4,71.9 C69.5,71.8 69.6,71.7 69.7,71.8 L70.62,72.44 L69.9,71.9 L70.6,71 L71.48,71.56 L70.6,70.9 C70.5,70.9 70.5,70.9 70.7,70.9 L70.7,70.8 L71.1,70.2 L71.4,70.4 L71.2,70.6 L71.4,70.8 L71.6,70.5 L71.9,70.7 L71.7,71 L72,71.3 L72.2,71 L72.5,71.2 L72.1,71.8 C72,71.8 71.9,71.9 71.8,71.8 L71.6903226,71.7177419 L71.1103152,72.7810888 L71.1103152,72.7810888 Z M46.5979532,73.797076 L47.9833333,72.8333333 L46.9,73.5 L45.7,71.7 L46.8,70.9 L48.1912226,72.6887147 L48.4877193,72.4824561 L47.8,71.5 L48.4,71 L48.9,70.7 L49.6,71.7 L49,72.1 L48.75,72.3 L49.9,71.5 C50,71.5 50.1,71.5 50.2,71.6 C50.3,71.7 50.2,71.8 50.2,71.9 L50.1120952,71.9611512 C50.2180487,71.9677341 50.3590244,72.0590244 50.5,72.2 C50.6,72.3 50.6,72.4 50.5,72.5 L50.4,72.5 L51.8,74.1 L50.6,74.9 L51.8,74 C51.9,73.9 52,74 52.1,74.1 C52.2,74.2 52.2,74.4 52.1,74.6 L47.3,78 C47.2,78.1 47.1,78 47,77.9 C46.9,77.7 46.9,77.6 47,77.5 L48.2,76.6 L47,77.4 L46,75.5 L45.9,75.5 C45.8,75.5 45.7,75.5 45.6,75.4 C45.5,75.3 45.5,75.2 45.6,75.1 C45.5,75.1 45.4,75.1 45.3,75 C45.2,74.9 45.2,74.8 45.3,74.7 L45.4815789,74.5736842 L44.8114754,73.6163934 L44.7,73.7 L44.6,73.7 L44.5,73.6 L44.1,73 L44.4,72.8 L44.6,73 L44.9,72.9 L44.7,72.6 L45,72.4 L45.2,72.6 L45.4,72.4 L45.4,72.3 L45.3,72.1 L45.6,71.9 L46,72.5 L46,72.6 C46,72.7 46,72.7 45.9,72.8 L46.5979532,73.797076 L46.5979532,73.797076 Z M45.3,74.7 C45.2,74.7 45.2,74.7 45.3,74.7 C45.2,74.7 45.3,74.7 45.3,74.7 L45.3,74.7 Z M45.6,71.7 L46.9,70.8 C47,70.7 47,70.6 47,70.5 L46.5,70 L46.2,70.2 L46.4,70.5 L46.2,70.7 L46,70.4 L45.7,70.6 L45.9,70.9 L45.7,71.1 L45.5,70.9 L45,71.1 L45.4,71.7 C45.4,71.7 45.5,71.7 45.6,71.7 L45.6,71.7 Z M47.4,71.3 L47.5,71.4 C47.6,71.5 47.7,71.5 47.8,71.4 L49,70.5 C49.1,70.4 49.1,70.3 49,70.2 L48.6,69.6 L48.3,69.8 L48.5,70.1 L48.3,70.3 L48,70.2 L47.7,70.4 L47.9,70.7 L47.7,70.9 L47.5,70.7 L47.2,70.9 L47.4,71.3 L47.4,71.3 Z M67.8,74.3 C67.7,74.2 67.8,74.2 67.8,74.3 L67.8,74.3 Z M69.7,71.8 C69.7,71.8 69.6,71.7 69.7,71.8 L69.7,71.8 Z M74,72 C74.1,72.1 74.2,72.1 74.3,72 L74.7,71.4 L74.4,71.2 L74.2,71.5 L74,71.3 L74.2,71 L73.9,70.8 L73.7,71.1 L73.5,70.9 L73.7,70.7 L73.4,70.5 L73,71.1 C72.9,71.2 73,71.3 73.1,71.4 L74,72 L74,72 Z M78.6,60.1 L77.1,60.1 L78.6,60.1 L78.3,58 L78.4,58 C78.5,58 78.6,57.9 78.6,57.8 C78.6,57.7 78.5,57.6 78.4,57.6 L73,57.6 C72.9,57.6 72.8,57.7 72.8,57.8 C72.8,57.9 72.9,58 73,58 L72.8,60.1 L74.2,60.1 L72.7,60.1 C72.6,60.1 72.5,60.2 72.5,60.4 C72.5,60.5 72.6,60.7 72.7,60.7 L78.6,60.7 C78.7,60.7 78.8,60.6 78.8,60.4 C78.8,60.3 78.7,60.1 78.6,60.1 L78.6,60.1 Z M72.8,57.5 L78.4,57.5 C78.5,57.5 78.6,57.4 78.6,57.3 C78.6,57.2 78.5,57.1 78.4,57.1 L72.8,57.1 C72.7,57.1 72.6,57.2 72.6,57.3 C72.6,57.4 72.7,57.5 72.8,57.5 L72.8,57.5 Z M74.9,54.7 L76.4,54.7 C76.5,54.7 76.6,54.6 76.6,54.5 L76.6,53.8 L76.2,53.8 L76.2,54.1 L75.9,54.1 L75.9,53.8 L75.5,53.8 L75.5,54.1 L75.2,54.1 L75.2,53.8 L74.8,53.8 L74.8,54.5 C74.7,54.6 74.8,54.7 74.9,54.7 L74.9,54.7 Z M76.3,54.8 L75,54.8 L74.9,57 L76.4,57 L76.3,54.8 L76.3,54.8 Z M78.2,55.8 L76.8,55.8 L76.8,57 L78.2,57 L78.2,55.8 L78.2,55.8 Z M77,54.9 L76.6,54.9 L76.6,55.6 C76.6,55.7 76.7,55.8 76.8,55.8 L78.3,55.8 C78.4,55.8 78.5,55.7 78.5,55.6 L78.5,54.9 L78.1,54.9 L78.1,55.2 L77.8,55.2 L77.8,54.9 L77.4,54.9 L77.4,55.2 L77,55.2 L77,54.9 L77,54.9 Z M73.1,55.8 L74.6,55.8 C74.7,55.8 74.8,55.7 74.8,55.6 L74.8,54.9 L74.4,54.9 L74.4,55.2 L74,55.2 L74,54.9 L73.6,54.9 L73.6,55.2 L73.3,55.2 L73.3,54.9 L72.9,54.9 L72.9,55.6 C72.9,55.7 73,55.8 73.1,55.8 L73.1,55.8 Z M73.1,55.8 L73.1,57 L74.5,57 L74.5,55.8 L73.1,55.8 L73.1,55.8 Z M47.1,44.6 L45.6,44.6 L47.1,44.6 L46.8,42.5 L46.9,42.5 C47,42.5 47.1,42.4 47.1,42.3 C47.1,42.2 47,42.1 46.9,42.1 L41.5,42.1 C41.4,42.1 41.3,42.2 41.3,42.3 C41.3,42.4 41.4,42.5 41.5,42.5 L41.6,42.5 L41.4,44.6 L42.8,44.6 L41.3,44.6 C41.2,44.6 41.1,44.7 41.1,44.9 C41.1,45 41.2,45.2 41.3,45.2 L47.2,45.2 C47.3,45.2 47.4,45.1 47.4,44.9 C47.3,44.8 47.2,44.6 47.1,44.6 L47.1,44.6 Z M41.4,42 L47,42 C47.1,42 47.2,41.9 47.2,41.8 C47.2,41.7 47.1,41.6 47,41.6 L41.4,41.6 C41.3,41.6 41.2,41.7 41.2,41.8 C41.1,41.9 41.2,42 41.4,42 L41.4,42 Z M43.4,39.2 L44.9,39.2 C45,39.2 45.1,39.1 45.1,39 L45.1,38.3 L44.7,38.3 L44.7,38.6 L44.4,38.6 L44.4,38.3 L44,38.3 L44,38.6 L43.7,38.6 L43.7,38.3 L43.3,38.3 L43.3,39 C43.2,39.1 43.3,39.2 43.4,39.2 L43.4,39.2 Z M44.8,39.3 L43.5,39.3 L43.4,41.5 L44.9,41.5 L44.8,39.3 L44.8,39.3 Z M46.7,40.3 L45.3,40.3 L45.3,41.5 L46.7,41.5 L46.7,40.3 L46.7,40.3 Z M45.5,39.4 L45.1,39.4 L45.1,40.1 C45.1,40.2 45.2,40.3 45.3,40.3 L46.8,40.3 C46.9,40.3 47,40.2 47,40.1 L47,39.4 L46.6,39.4 L46.6,39.7 L46.3,39.7 L46.3,39.4 L45.9,39.4 L45.9,39.7 L45.6,39.7 L45.6,39.4 L45.5,39.4 L45.5,39.4 Z M41.6,40.3 L43.1,40.3 C43.2,40.3 43.3,40.2 43.3,40.1 L43.3,39.4 L42.9,39.4 L42.9,39.7 L42.6,39.7 L42.6,39.4 L42.2,39.4 L42.2,39.7 L41.9,39.7 L41.9,39.4 L41.5,39.4 L41.5,40.1 C41.4,40.2 41.5,40.3 41.6,40.3 L41.6,40.3 Z M41.7,40.3 L41.6,41.5 L43,41.5 L43,40.3 L41.7,40.3 L41.7,40.3 Z M62.9,44.4 L61.4,44.4 L62.9,44.4 L62.6,42.3 L62.7,42.3 C62.8,42.3 62.9,42.2 62.9,42.1 C62.9,42 62.8,41.9 62.7,41.9 L57.3,41.9 C57.2,41.9 57.1,42 57.1,42.1 C57.1,42.2 57.2,42.3 57.3,42.3 L57.4,42.3 L57.2,44.4 L58.6,44.4 L57,44.4 C56.9,44.4 56.8,44.5 56.8,44.7 C56.8,44.8 56.9,45 57,45 L62.9,45 C63,45 63.1,44.9 63.1,44.7 C63.1,44.5 63,44.4 62.9,44.4 L62.9,44.4 Z M57.1,41.8 L62.7,41.8 C62.8,41.8 62.9,41.7 62.9,41.6 C62.9,41.5 62.8,41.4 62.7,41.4 L57.1,41.4 C57,41.4 56.9,41.5 56.9,41.6 C56.9,41.7 57,41.8 57.1,41.8 L57.1,41.8 Z M59.2,39 L60.7,39 C60.8,39 60.9,38.9 60.9,38.8 L60.9,38.1 L60.5,38.1 L60.5,38.4 L60.2,38.4 L60.2,38.1 L59.8,38.1 L59.8,38.4 L59.5,38.4 L59.5,38.1 L59.1,38.1 L59.1,38.8 C59,38.9 59.1,39 59.2,39 L59.2,39 Z M60.6,39 L59.3,39 L59.2,41.3 L60.7,41.3 L60.6,39 L60.6,39 Z M62.4,40.1 L61.1,40.1 L61,41.3 L62.5,41.3 L62.4,40.1 L62.4,40.1 Z M61.2,39.2 L60.8,39.2 L60.8,39.9 C60.8,40 60.9,40.1 61,40.1 L62.5,40.1 C62.6,40.1 62.7,40 62.7,39.9 L62.7,39.2 L62.3,39.2 L62.3,39.5 L62,39.5 L62,39.2 L61.6,39.2 L61.6,39.5 L61.3,39.5 L61.3,39.2 L61.2,39.2 L61.2,39.2 Z M57.3,40.1 L58.8,40.1 C58.9,40.1 59,40 59,39.9 L59,39.2 L58.6,39.2 L58.6,39.5 L58.3,39.5 L58.3,39.2 L57.9,39.2 L57.9,39.5 L57.6,39.5 L57.6,39.2 L57.2,39.2 L57.2,39.9 C57.1,40 57.2,40.1 57.3,40.1 L57.3,40.1 Z M57.4,40.1 L57.4,41.3 L58.8,41.3 L58.7,40.1 L57.4,40.1 L57.4,40.1 Z M78.6,44.4 L77.1,44.4 L78.6,44.4 L78.3,42.3 L78.4,42.3 C78.5,42.3 78.6,42.2 78.6,42.1 C78.6,42 78.5,41.9 78.4,41.9 L73,41.9 C72.9,41.9 72.8,42 72.8,42.1 C72.8,42.2 72.9,42.3 73,42.3 L73.1,42.3 L72.9,44.4 L74.3,44.4 L72.8,44.4 C72.7,44.4 72.6,44.5 72.6,44.7 C72.6,44.8 72.7,45 72.8,45 L78.7,45 C78.8,45 78.9,44.9 78.9,44.7 C78.8,44.5 78.7,44.4 78.6,44.4 L78.6,44.4 Z M72.9,41.8 L78.5,41.8 C78.6,41.8 78.7,41.7 78.7,41.6 C78.7,41.5 78.6,41.4 78.5,41.4 L72.9,41.4 C72.8,41.4 72.7,41.5 72.7,41.6 C72.6,41.7 72.7,41.8 72.9,41.8 L72.9,41.8 Z M74.9,39 L76.4,39 C76.5,39 76.6,38.9 76.6,38.8 L76.6,38.1 L76.2,38.1 L76.2,38.4 L75.9,38.4 L75.9,38.1 L75.5,38.1 L75.5,38.4 L75.2,38.4 L75.2,38.1 L74.8,38.1 L74.8,38.8 C74.7,38.9 74.8,39 74.9,39 L74.9,39 Z M76.3,39 L75,39 L74.9,41.3 L76.4,41.3 L76.3,39 L76.3,39 Z M78.2,40.1 L76.8,40.1 L76.8,41.3 L78.2,41.3 L78.2,40.1 L78.2,40.1 Z M77,39.2 L76.6,39.2 L76.6,39.9 C76.6,40 76.7,40.1 76.8,40.1 L78.3,40.1 C78.4,40.1 78.5,40 78.5,39.9 L78.5,39.2 L78.1,39.2 L78.1,39.5 L77.8,39.5 L77.8,39.2 L77.4,39.2 L77.4,39.5 L77,39.5 L77,39.2 L77,39.2 Z M73.1,40.1 L74.6,40.1 C74.7,40.1 74.8,40 74.8,39.9 L74.8,39.2 L74.4,39.2 L74.4,39.5 L74,39.5 L74,39.2 L73.6,39.2 L73.6,39.5 L73.3,39.5 L73.3,39.2 L72.9,39.2 L72.9,39.9 C72.9,40 73,40.1 73.1,40.1 L73.1,40.1 Z M73.2,40.1 L73.1,41.3 L74.5,41.3 L74.5,40.1 L73.2,40.1 L73.2,40.1 Z M47.1,60.1 L45.6,60.1 L47.1,60.1 L46.8,58 L46.9,58 C47,58 47.1,57.9 47.1,57.8 C47.1,57.7 47,57.6 46.9,57.6 L41.5,57.6 C41.4,57.6 41.3,57.7 41.3,57.8 C41.3,57.9 41.4,58 41.5,58 L41.6,58 L41.4,60.1 L42.8,60.1 L41.3,60.1 C41.2,60.1 41.1,60.2 41.1,60.4 C41.1,60.5 41.2,60.7 41.3,60.7 L47.2,60.7 C47.3,60.7 47.4,60.6 47.4,60.4 C47.3,60.3 47.2,60.1 47.1,60.1 L47.1,60.1 Z M41.4,57.5 L47,57.5 C47.1,57.5 47.2,57.4 47.2,57.3 C47.2,57.2 47.1,57.1 47,57.1 L41.4,57.1 C41.3,57.1 41.2,57.2 41.2,57.3 C41.1,57.4 41.2,57.5 41.4,57.5 L41.4,57.5 Z M43.4,54.7 L44.9,54.7 C45,54.7 45.1,54.6 45.1,54.5 L45.1,53.8 L44.7,53.8 L44.7,54.1 L44.4,54.1 L44.4,53.8 L44,53.8 L44,54.1 L43.7,54.1 L43.7,53.8 L43.3,53.8 L43.3,54.5 C43.2,54.6 43.3,54.7 43.4,54.7 L43.4,54.7 Z M44.8,54.8 L43.5,54.8 L43.4,57 L44.9,57 L44.8,54.8 L44.8,54.8 Z M46.7,55.8 L45.3,55.8 L45.3,57 L46.7,57 L46.7,55.8 L46.7,55.8 Z M45.5,54.9 L45.1,54.9 L45.1,55.6 C45.1,55.7 45.2,55.8 45.3,55.8 L46.8,55.8 C46.9,55.8 47,55.7 47,55.6 L47,54.9 L46.6,54.9 L46.6,55.2 L46.3,55.2 L46.3,54.9 L45.9,54.9 L45.9,55.2 L45.6,55.2 L45.6,54.9 L45.5,54.9 L45.5,54.9 Z M41.6,55.8 L43.1,55.8 C43.2,55.8 43.3,55.7 43.3,55.6 L43.3,54.9 L42.9,54.9 L42.9,55.2 L42.6,55.2 L42.6,54.9 L42.2,54.9 L42.2,55.2 L41.9,55.2 L41.9,54.9 L41.5,54.9 L41.5,55.6 C41.4,55.7 41.5,55.8 41.6,55.8 L41.6,55.8 Z M41.7,55.8 L41.6,55.8 L41.6,57 L43,57 L43,55.8 L41.7,55.8 L41.7,55.8 Z" id="1" fill="#FFFF00"></path>
    </g>
</svg>