<?xml version="1.0" ?><svg height="120px" version="1.1" viewBox="0 0 180 120" width="180px" xmlns="http://www.w3.org/2000/svg" xmlns:sketch="http://www.bohemiancoding.com/sketch/ns" xmlns:xlink="http://www.w3.org/1999/xlink"><title/><defs/><g fill="none" fill-rule="evenodd" id="Africa,-Middle-East-and-India" stroke="none" stroke-width="1"><g id="Africa,-Middle-Eest-and-India" transform="translate(-600.000000, -601.000000)"><g id="Niger" transform="translate(600.000000, 601.000000)"><rect d="M0.00552383048,0 L0.00552383048,120 L180.005524,120 L180.005524,0 L0.00552383048,0 Z M0.00552383048,0" fill="#FFFFFF" height="120" id="Rectangle-3-copy-3" width="180" x="0.00552383048" y="0"/><rect d="M0.00552366097,80 L0.00552366097,120 L180.005524,120 L180.005524,80 L0.00552366097,80 Z M0.00552366097,80" fill="#479951" height="40" id="Rectangle-3-copy-2" width="180" x="0.00552366097" y="80"/><rect d="M0.00276191524,-3.55271368e-15 L0.00276191524,40 L180.002762,40 L180.002762,-3.55271368e-15 L0.00276191524,-3.55271368e-15 Z M0.00276191524,-3.55271368e-15" fill="#CE6F2D" height="40" id="Rectangle-3" width="180" x="0.00276191524" y="-4.73709694e-15"/><circle cx="90.7027619" cy="60.5" d="M90.7027619,79 C100.92003,79 109.202762,70.7172684 109.202762,60.5 C109.202762,50.2827316 100.92003,42 90.7027619,42 C80.4854935,42 72.2027619,50.2827316 72.2027619,60.5 C72.2027619,70.7172684 80.4854935,79 90.7027619,79 Z M90.7027619,79" fill="#CE6F2D" id="Shape" r="18.5"/></g></g></g></svg>