<?xml version="1.0" ?><svg height="120px" version="1.1" viewBox="0 0 180 120" width="180px" xmlns="http://www.w3.org/2000/svg" xmlns:sketch="http://www.bohemiancoding.com/sketch/ns" xmlns:xlink="http://www.w3.org/1999/xlink"><title/><defs/><g fill="none" fill-rule="evenodd" id="Africa,-Middle-East-and-India" stroke="none" stroke-width="1"><g id="Africa,-Middle-Eest-and-India" transform="translate(-1000.000000, -601.000000)"><g id="Qatar" transform="translate(1000.000000, 601.000000)"><rect d="M0.00184127683,-2.13162821e-14 L0.00184127683,120 L180.001841,120 L180.001841,-2.13162821e-14 L0.00184127683,-2.13162821e-14 Z M0.00184127683,-2.13162821e-14" fill="#FFFFFF" height="120" id="Rectangle-3" width="180" x="0.00184127683" y="-1.89478063e-14"/><rect d="M60,5.68434189e-14 L60,120 L180,120 L180,5.68434189e-14 L60,5.68434189e-14 Z M60,5.68434189e-14" fill="#6F3D99" height="120" id="Rectangle-3-copy-3" width="120" x="60" y="5.68434189e-14"/><path d="M61,0 L61,7 L45.6099854,0 L61,0 Z M61,7 L61,22 L45.6099854,14.5 L61,7 Z M61,22 L61,37 L45.6099854,29.5 L61,22 Z M61,37 L61,52 L45.6099854,44.5 L61,37 Z M61,52 L61,67 L45.6099854,59.5 L61,52 Z M61,67 L61,82 L45.6099854,74.5 L61,67 Z M61,82 L61,97 L45.6099854,89.5 L61,82 Z M61,97 L61,112 L45.6099854,104.5 L61,97 Z M61,112 L61,120 L45.6099854,120 L61,112 Z M61,112" fill="#6F3D99" id="Triangle-49-copy"/></g></g></g></svg>