<?xml version="1.0" ?><svg height="120px" version="1.1" viewBox="0 0 180 120" width="180px" xmlns="http://www.w3.org/2000/svg" xmlns:sketch="http://www.bohemiancoding.com/sketch/ns" xmlns:xlink="http://www.w3.org/1999/xlink"><title/><defs/><g fill="none" fill-rule="evenodd" id="Ameria" stroke="none" stroke-width="1"><g id="Group" transform="translate(-600.000000, -400.000000)"><g id="Peru" transform="translate(600.000000, 400.000000)"><rect d="M-1.42108547e-14,0 L-1.42108547e-14,120 L180,120 L180,0 L-1.42108547e-14,0 Z M-1.42108547e-14,0" fill="#CA4638" height="120" id="Oval-15-copy" width="180" x="-1.59877022e-14" y="0"/><rect d="M-1.42108547e-14,0 L-1.42108547e-14,120 L120,120 L120,0 L-1.42108547e-14,0 Z M-1.42108547e-14,0" fill="#FFFFFF" height="120" id="Oval-15-copy" width="120" x="-1.06584681e-14" y="0"/><rect d="M-7.10542736e-15,0 L-7.10542736e-15,120 L60,120 L60,0 L-7.10542736e-15,0 Z M-7.10542736e-15,0" fill="#CA4638" height="120" id="Oval-15-copy" width="60" x="-5.32923406e-15" y="0"/></g></g></g></svg>