<?xml version="1.0" ?><svg height="120px" version="1.1" viewBox="0 0 180 120" width="180px" xmlns="http://www.w3.org/2000/svg" xmlns:sketch="http://www.bohemiancoding.com/sketch/ns" xmlns:xlink="http://www.w3.org/1999/xlink"><title/><defs/><g fill="none" fill-rule="evenodd" id="Africa,-Middle-East-and-India" stroke="none" stroke-width="1"><g id="Africa,-Middle-Eest-and-India" transform="translate(-600.000000, -1401.000000)"><g id="Seychelles" transform="translate(600.000000, 1401.000000)"><rect d="M0,0 L0,120 L180,120 L180,0 L0,0 Z M0,0" fill="#CA4638" height="120" id="Rectangle-196" width="180" x="0" y="0"/><path d="M0,0 L0,120 L120,0 L0,0 Z M0,0" fill="#E5B731" id="Rectangle-196"/><path d="M0,0 L60,0 L0,120 L0,0 Z M0,0" fill="#346DA6" id="Path"/><path d="M0,120 L180,120 L180,40 L0,120 Z M0,120" fill="#FFFFFF" id="Rectangle-196"/><path d="M180,80 L180,120 L0,120 L180,80 Z M180,80" fill="#479951" id="Triangle-17-copy-4"/></g></g></g></svg>