<?xml version="1.0" ?><svg height="120px" version="1.1" viewBox="0 0 180 120" width="180px" xmlns="http://www.w3.org/2000/svg" xmlns:sketch="http://www.bohemiancoding.com/sketch/ns" xmlns:xlink="http://www.w3.org/1999/xlink"><title/><defs/><g fill="none" fill-rule="evenodd" id="Page-1" stroke="none" stroke-width="1"><g id="rectangle_turkmenistan"><rect fill="#57BB63" height="120" id="Oval-15-copy-2" width="180" x="0" y="0"/><rect fill="#CA4638" height="120" id="Oval-15-copy-2" width="30" x="15" y="0"/><g id="Group" transform="translate(15.000000, 0.000000)"><path d="M2.70903989,103.965808 C2.85954843,104.694422 3.36971817,105.244315 3.49130015,106 C3.73469009,105.212111 3.95909698,104.551625 3.79152628,103.689707 C3.67163922,103.073227 3.21491583,102.633544 3.16203445,102 C2.66406811,102.508323 2.55683642,103.229368 2.70903989,103.965808 L2.70903989,103.965808 Z M2.58282514,106.663143 C3.00519822,107.249886 3.59231714,107.699931 4.24067904,108 C4.11299536,107.486071 4.3525435,107.099107 4.61841933,106.691078 C4.93875846,106.199931 5.09491673,105.717486 4.83378666,105.151923 C4.71209169,105.445924 4.54858879,105.690124 4.35672429,105.941536 C4.07299534,106.333766 3.88644158,106.682491 3.84271274,107.185544 C3.51457699,106.93917 3.37039613,106.571211 3.19491582,106.215158 C2.92745807,105.705121 2.49581945,105.278774 2,105 C2.13175148,105.572088 2.23322045,106.177034 2.58282514,106.663143 L2.58282514,106.663143 Z M4.95163983,109.611911 C4.8613573,110.013548 4.78350415,110.411798 4.80090529,110.83164 C4.52180911,110.456111 4.15118747,110.173441 3.82056584,109.870872 C3.37028314,109.416032 2.84542413,109.095258 2.47728836,108.516088 C2.53220364,109.368473 2.82429418,110.063364 3.37887071,110.581993 C3.96508568,111.129975 4.67209167,111.42464 5.24949308,112 C5.16305236,111.224809 5.39107506,110.603726 5.58553843,109.891194 C5.74757241,109.210274 5.59073618,108.518911 5.22101849,108 C5.22655521,108.575219 5.08124441,109.06915 4.95163983,109.611911 L4.95163983,109.611911 Z M6.26723368,111.491705 C6.38870266,112.106171 6.72610395,112.606061 6.95649954,113.154169 C6.33525631,112.90275 5.78712045,112.463024 5.22553826,112.049252 C4.55661139,111.573988 3.83028336,111.2714 3.22474635,110.64381 C3.52610242,112.09983 4.27299544,112.943891 5.36565132,113.374327 C6.11277032,113.668805 6.74237514,113.521935 7.64892925,114 C7.5449744,113.199145 7.36181047,112.334734 7.07164084,111.612623 C6.84644299,111.090319 6.59672536,110.575241 6.45762925,110 C6.25616022,110.472462 6.16079295,110.953181 6.26723368,111.491705 L6.26723368,111.491705 Z M8.55322347,113.400286 C8.76712187,113.80636 9.04949489,114.148074 9.39966455,114.417663 C8.51774322,114.479895 7.80802537,113.860579 6.94825095,113.833658 C6.41717725,113.817129 5.91299622,113.999819 5.37141404,113.944974 C6.01412621,114.425552 6.68700789,114.845149 7.46949414,114.957342 C8.48666976,115.103093 9.42474931,114.81948 10.5468967,114.930421 C10.0224897,114.52034 9.7601167,113.971395 9.43322389,113.381128 C9.00757397,112.643984 8.60587886,112.118579 7.77796886,112 C8.1102854,112.413963 8.30373182,112.926721 8.55322347,113.400286 L8.55322347,113.400286 Z M11.6853154,115.206952 C10.1316423,115.539929 8.64282803,115.970933 7.05604761,115.990738 C8.83220665,116.771532 10.5057668,116.91273 12.2673495,116.106574 C13.2193274,115.670869 13.9492712,115.437628 14.6682546,115.502599 C15.7189896,115.597776 16.9959394,116.120538 18.4091604,118 L18.9646409,117.439481 C16.9389902,115.163922 14.2888194,114.648712 11.6853154,115.206952 L11.6853154,115.206952 Z M28.2753798,103.965808 C28.1248712,104.694422 27.6148145,105.244315 27.4931195,106 C27.2497296,105.212111 27.0254357,104.551625 27.1930064,103.689707 C27.3127804,103.073227 27.7695038,102.633544 27.8223852,102 C28.3203515,102.508323 28.4275832,103.229368 28.2753798,103.965808 L28.2753798,103.965808 Z M28.4015945,106.663143 C27.9792214,107.249886 27.3921025,107.699931 26.7438536,108 C26.8714243,107.486071 26.6318762,107.099107 26.3660003,106.691078 C26.0456612,106.199931 25.8895029,105.717486 26.150633,105.151923 C26.272328,105.445924 26.4359439,105.690124 26.6276954,105.941536 C26.9114243,106.333766 27.0980911,106.682491 27.1417069,107.185544 C27.4698427,106.93917 27.6141365,106.571211 27.7895038,106.215158 C28.0569616,105.705121 28.4886002,105.278774 28.9844197,105 C28.8526682,105.572088 28.7513122,106.177034 28.4015945,106.663143 L28.4015945,106.663143 Z M26.0327798,109.611911 C26.1230624,110.013548 26.2010285,110.411798 26.1835144,110.83164 C26.4627235,110.456111 26.8332322,110.173441 27.1638538,109.870872 C27.6142495,109.416032 28.1389955,109.095258 28.5071313,108.516088 C28.452216,109.368473 28.1601255,110.063364 27.6055489,110.581993 C27.019334,111.129975 26.312328,111.42464 25.7349266,112 C25.8214803,111.224809 25.5933446,110.603726 25.3988812,109.891194 C25.2369602,109.210274 25.3936835,108.518911 25.7634012,108 C25.7579774,108.575219 25.9031752,109.06915 26.0327798,109.611911 L26.0327798,109.611911 Z M24.717186,111.491705 C24.595717,112.106171 24.2583157,112.606061 24.0279201,113.154169 C24.6491634,112.90275 25.1972992,112.463024 25.7588814,112.049252 C26.4278083,111.573988 27.1541363,111.2714 27.7597863,110.64381 C27.4583172,112.09983 26.7114242,112.943891 25.6187683,113.374327 C24.8716493,113.668805 24.2420445,113.521935 23.3354904,114 C23.4394453,113.199145 23.6226092,112.334734 23.9127788,111.612623 C24.1379767,111.090319 24.3878073,110.575241 24.5267904,110 C24.7282594,110.472462 24.8236267,110.953181 24.717186,111.491705 L24.717186,111.491705 Z M22.4311962,113.400286 C22.2172978,113.80636 21.9349248,114.148074 21.5848681,114.417663 C22.4666764,114.479895 23.1765073,113.860579 24.0361687,113.833658 C24.5672424,113.817129 25.0714234,113.999819 25.6131186,113.944974 C24.9702934,114.425552 24.2974118,114.845149 23.5149255,114.957342 C22.4977499,115.103093 21.5596704,114.81948 20.4375229,114.930421 C20.96193,114.52034 21.224303,113.971395 21.5511958,113.381128 C21.9768457,112.643984 22.3785408,112.118579 23.2065638,112 C22.8741343,112.413963 22.6806878,112.926721 22.4311962,113.400286 L22.4311962,113.400286 Z M19.2991043,115.206952 C20.8527774,115.539929 22.3415916,115.970933 23.928372,115.990738 C22.152213,116.771532 20.4786529,116.91273 18.7170701,116.106574 C17.7650923,115.670869 17.0351484,115.437628 16.316165,115.502599 C15.2654301,115.597776 13.9884803,116.120538 12.5752593,118 L12.0197788,117.439481 C14.0454295,115.163922 16.6956002,114.648712 19.2991043,115.206952 L19.2991043,115.206952 Z" fill="#FAAE29" id="_155640120"/><g transform="translate(18.000000, 16.000000)"/><g id="Group-copy-2" transform="translate(6.000000, 26.500000) scale(-1, 1) translate(-6.000000, -26.500000) translate(0.000000, 16.000000)"/><g transform="translate(4.000000, 62.000000)"><path d="M1.27075881,6.77494644 L2.40046626,6.0752048 L2.40046626,6.53482744 L1.59234825,7.03540836 L2.40046626,7.53589846 L2.40046626,7.9955211 L1.27075881,7.29577945 L0.777058963,7.66785493 L0.339611651,7.6183599 L0.156697766,7.36598066 L0.600012478,7.03540836 L0.156697766,6.70483605 L0.339704785,6.45245681 L0.777058963,6.40296179 L1.27075881,6.77494644 L1.27075881,6.77494644 Z" fill="#28AE66" id="_155856128"/><path d="M2.40046626,3.94437569 L2.40046626,4.40399833 L1.59234825,4.90448843 L2.40046626,5.40497853 L2.40046626,5.86469199 L1.27075881,5.16495035 L0.777058963,5.536935 L0.339611651,5.48743998 L0.156697766,5.23506074 L0.600012478,4.90448843 L0.156697766,4.57400695 L0.339704785,4.32162771 L0.777058963,4.27204186 L1.27075881,4.64402652 L2.40046626,3.94437569 Z" fill="#28AE66" id="_155855984"/><path d="M1.27075881,9.42669938 L2.40046626,10.126441 L2.40046626,9.66681838 L1.59234825,9.16623746 L2.40046626,8.66574736 L2.40046626,8.20612472 L1.27075881,8.90586637 L0.777058963,8.53379089 L0.339611651,8.58328592 L0.156697766,8.83566516 L0.600012478,9.16623746 L0.156697766,9.49680977 L0.339704785,9.749189 L0.777058963,9.79868403 L1.27075881,9.42669938 L1.27075881,9.42669938 Z" fill="#28AE66" id="_155855840"/><path d="M20.594903,6.77494644 L19.4651956,6.0752048 L19.4651956,6.53482744 L20.2732204,7.03540836 L19.4651956,7.53589846 L19.4651956,7.9955211 L20.594903,7.29577945 L21.0885097,7.66785493 L21.525957,7.6183599 L21.7088709,7.36598066 L21.2655562,7.03540836 L21.7088709,6.70483605 L21.525957,6.45245681 L21.0885097,6.40296179 L20.594903,6.77494644 L20.594903,6.77494644 Z" fill="#28AE66" id="_155855696"/><path d="M20.594903,4.64402652 L19.4651956,3.94437569 L19.4651956,4.40399833 L20.2732204,4.90448843 L19.4651956,5.40497853 L19.4651956,5.86469199 L20.594903,5.16495035 L21.0885097,5.536935 L21.525957,5.48743998 L21.7088709,5.23506074 L21.2655562,4.90448843 L21.7088709,4.57400695 L21.525957,4.32162771 L21.0885097,4.27204186 L20.594903,4.64402652 L20.594903,4.64402652 Z" fill="#28AE66" id="_155855552"/><path d="M20.594903,9.42669938 L19.4651956,10.126441 L19.4651956,9.66681838 L20.2732204,9.16623746 L19.4651956,8.66574736 L19.4651956,8.20612472 L20.594903,8.90586637 L21.0885097,8.53379089 L21.525957,8.58328592 L21.7088709,8.83566516 L21.2655562,9.16623746 L21.7088709,9.49680977 L21.525957,9.749189 L21.0885097,9.79868403 L20.594903,9.42669938 L20.594903,9.42669938 Z" fill="#28AE66" id="_155855408"/><path d="M17.4541673,0.640741439 L17.4541673,1.20562048 L18.0333635,1.20562048 L18.0333635,1.78911693 L17.5170323,1.78911693 L17.5170323,1.39742507 L16.8557856,1.39742507 L16.8557856,0.640741439 L17.4541673,0.640741439 C17.4541673,0.640741439 17.3972628,0.640741439 17.4541673,0.640741439 L17.4541673,0.640741439 L17.4541673,0.640741439 Z" fill="#28AE66" id="_155855264"/><path d="M19.4030756,2.03849922 L19.4030756,2.60328745 L19.9822719,2.60328745 L19.9822719,3.18687471 L19.4658475,3.18687471 L19.4658475,2.79518285 L18.8046939,2.79518285 L18.8046939,2.03849922 L19.4030756,2.03849922 C19.4030756,2.03849922 19.3461712,2.03849922 19.4030756,2.03849922 L19.4030756,2.03849922 L19.4030756,2.03849922 Z" fill="#28AE66" id="_155855120"/><path d="M4.41149454,0.640741439 L4.41149454,1.20562048 L3.83229828,1.20562048 L3.83229828,1.78911693 L4.34872267,1.78911693 L4.34872267,1.39742507 L5.00987627,1.39742507 L5.00987627,0.640741439 L4.41149454,0.640741439 L4.41149454,0.640741439 Z" fill="#28AE66" id="_155854976"/><path d="M17.4541673,13.4299845 L17.4541673,12.8651962 L18.0333635,12.8651962 L18.0333635,12.2816998 L17.5170323,12.2816998 L17.5170323,12.6733916 L16.8557856,12.6733916 L16.8557856,13.4299845 L17.4541673,13.4299845 C17.4541673,13.4299845 17.3972628,13.4299845 17.4541673,13.4299845 L17.4541673,13.4299845 L17.4541673,13.4299845 Z" fill="#28AE66" id="_155786880"/><path d="M4.41158767,13.4299845 L4.41158767,12.8651962 L3.83229828,12.8651962 L3.83229828,12.2816998 L4.34872267,12.2816998 L4.34872267,12.6733916 L5.0099694,12.6733916 L5.0099694,13.4299845 L4.41158767,13.4299845 L4.41158767,13.4299845 Z" fill="#28AE66" id="_155786736"/><path d="M19.4030756,12.0322267 L19.4030756,11.4674384 L19.9822719,11.4674384 L19.9822719,10.883942 L19.4658475,10.883942 L19.4658475,11.2756339 L18.8046939,11.2756339 L18.8046939,12.0322267 L19.4030756,12.0322267 C19.4030756,12.0322267 19.3461712,12.0322267 19.4030756,12.0322267 L19.4030756,12.0322267 L19.4030756,12.0322267 Z" fill="#28AE66" id="_155786592"/><path d="M2.46267934,2.03849922 L2.46267934,2.60328745 L1.88348308,2.60328745 L1.88348308,3.18687471 L2.39990746,3.18687471 L2.39990746,2.79518285 L3.06106107,2.79518285 L3.06106107,2.03849922 L2.46267934,2.03849922 L2.46267934,2.03849922 Z" fill="#28AE66" id="_155786448"/><path d="M2.46277247,12.0322267 L2.46277247,11.4674384 L1.88348308,11.4674384 L1.88348308,10.883942 L2.39990746,10.883942 L2.39990746,11.2756339 L3.0611542,11.2756339 L3.0611542,12.0322267 L2.46277247,12.0322267 L2.46277247,12.0322267 Z" fill="#28AE66" id="_155786304"/><path d="M12.8727519,0.167042227 C12.91401,0.206093351 13.3783728,0.645645534 13.3783728,0.645645534 C13.3783728,0.645645534 13.8426425,0.206093351 13.8839006,0.167042227 C13.9230166,0.202279055 14.2386455,0.487443075 14.2818594,0.526494198 C14.2371554,0.568723902 13.8509314,0.9343514 13.8509314,0.9343514 L14.3400677,1.39742507 L13.703315,1.39742507 L13.3783728,1.08973855 L13.0533374,1.39742507 L12.4165848,1.39742507 L12.9057211,0.9343514 C12.9057211,0.9343514 12.5194971,0.568723902 12.4747931,0.526494198 C12.518007,0.487443075 12.8336359,0.202279055 12.8727519,0.167042227 C12.8727519,0.167042227 12.8336359,0.202279055 12.8727519,0.167042227 L12.8727519,0.167042227 L12.8727519,0.167042227 Z" fill="#28AE66" id="_155786160"/><path d="M10.4273497,0.167042227 C10.4686078,0.206093351 10.9328775,0.645645534 10.9328775,0.645645534 C10.9328775,0.645645534 11.3971472,0.206093351 11.4384984,0.167042227 C11.4776144,0.202279055 11.7931502,0.487443075 11.836364,0.526494198 C11.7917532,0.568723902 11.4055292,0.9343514 11.4055292,0.9343514 L11.8946655,1.39742507 L11.2578197,1.39742507 L10.9328775,1.08973855 L10.6079352,1.39742507 L9.97108945,1.39742507 L10.4602258,0.9343514 C10.4602258,0.9343514 10.0740018,0.568723902 10.0293909,0.526494198 C10.0726048,0.487443075 10.3882337,0.202279055 10.4273497,0.167042227 C10.4273497,0.167042227 10.3882337,0.202279055 10.4273497,0.167042227 L10.4273497,0.167042227 L10.4273497,0.167042227 Z" fill="#28AE66" id="_155786016"/><path d="M8.99309621,0.167042227 C8.95174501,0.206093351 8.48747529,0.645645534 8.48747529,0.645645534 C8.48747529,0.645645534 8.02320558,0.206093351 7.98194751,0.167042227 C7.9428315,0.202279055 7.62720261,0.487443075 7.58398873,0.526494198 C7.62869274,0.568723902 8.01491671,0.9343514 8.01491671,0.9343514 L7.52578039,1.39742507 L8.16253306,1.39742507 L8.48747529,1.08973855 L8.81251066,1.39742507 L9.44926333,1.39742507 L8.96012701,0.9343514 C8.96012701,0.9343514 9.34635098,0.568723902 9.39105499,0.526494198 C9.34784112,0.487443075 9.03221222,0.202279055 8.99309621,0.167042227 C8.99309621,0.167042227 9.03221222,0.202279055 8.99309621,0.167042227 L8.99309621,0.167042227 L8.99309621,0.167042227 Z" fill="#28AE66" id="_155785872"/><path d="M12.8727519,13.9037745 C12.91401,13.8646325 13.3783728,13.4250804 13.3783728,13.4250804 C13.3783728,13.4250804 13.8426425,13.8646325 13.8839006,13.9037745 C13.9230166,13.8684468 14.2386455,13.5832828 14.2818594,13.5443225 C14.2371554,13.502002 13.8509314,13.1364653 13.8509314,13.1364653 L14.3400677,12.6733916 L13.703315,12.6733916 L13.3783728,12.9809873 L13.0533374,12.6733916 L12.4165848,12.6733916 L12.9057211,13.1364653 C12.9057211,13.1364653 12.5194971,13.502002 12.4747931,13.5443225 C12.518007,13.5832828 12.8336359,13.8684468 12.8727519,13.9037745 C12.8727519,13.9037745 12.8336359,13.8684468 12.8727519,13.9037745 L12.8727519,13.9037745 L12.8727519,13.9037745 Z" fill="#28AE66" id="_155785728"/><path d="M10.4273497,13.9037745 C10.4686078,13.8646325 10.9328775,13.4250804 10.9328775,13.4250804 C10.9328775,13.4250804 11.3971472,13.8646325 11.4384984,13.9037745 C11.4776144,13.8684468 11.7931502,13.5832828 11.836364,13.5443225 C11.7917532,13.502002 11.4055292,13.1364653 11.4055292,13.1364653 L11.8946655,12.6733916 L11.2578197,12.6733916 L10.9328775,12.9809873 L10.6079352,12.6733916 L9.97108945,12.6733916 L10.4602258,13.1364653 C10.4602258,13.1364653 10.0740018,13.502002 10.0293909,13.5443225 C10.0726048,13.5832828 10.3882337,13.8684468 10.4273497,13.9037745 C10.4273497,13.9037745 10.3882337,13.8684468 10.4273497,13.9037745 L10.4273497,13.9037745 L10.4273497,13.9037745 Z" fill="#28AE66" id="_155785584"/><path d="M8.99309621,13.9037745 C8.95174501,13.8646325 8.48747529,13.4250804 8.48747529,13.4250804 C8.48747529,13.4250804 8.02320558,13.8646325 7.98194751,13.9037745 C7.9428315,13.8684468 7.62720261,13.5832828 7.58398873,13.5443225 C7.62869274,13.502002 8.01491671,13.1364653 8.01491671,13.1364653 L7.52578039,12.6733916 L8.16253306,12.6733916 L8.48747529,12.9809873 L8.81251066,12.6733916 L9.44926333,12.6733916 L8.96012701,13.1364653 C8.96012701,13.1364653 9.34635098,13.502002 9.39105499,13.5443225 C9.34784112,13.5832828 9.03221222,13.8684468 8.99309621,13.9037745 C8.99309621,13.9037745 9.03221222,13.8684468 8.99309621,13.9037745 L8.99309621,13.9037745 L8.99309621,13.9037745 Z" fill="#28AE66" id="_155785440"/><path d="M17.450442,1.4622681 L17.450442,2.85993507 L19.3986052,2.85993507 L19.3986052,11.2108816 L17.450442,11.2108816 L17.450442,12.6085486 L4.41512674,12.6085486 L4.41512674,11.2108816 L2.46696347,11.2108816 L2.46696347,2.85993507 L4.41512674,2.85993507 L4.41512674,1.4622681 L17.450442,1.4622681 L17.450442,1.4622681 Z" fill="#CA3745" id="_155785296" stroke="#262626" stroke-width="0.1"/><path d="M18.7819694,4.99121825 L18.7819694,9.07950764 C18.7552401,9.09885157 14.7345805,11.9945378 14.7170715,12.0071613 L7.14849722,12.0071613 C7.13108129,11.9945378 3.11042174,9.09885157 3.08369247,9.07950764 L3.08369247,4.99121825 C3.11042174,4.97196514 7.13108129,2.07618809 7.14849722,2.06365541 L14.7170715,2.06365541 C14.7345805,2.07618809 18.7552401,4.97196514 18.7819694,4.99121825 Z" fill="#28AE66" id="_155785008"/><path d="M15.4992984,2.96564555 L15.4992984,3.68064438 L16.6792047,3.68064438 L16.6792047,10.3901723 L15.4992984,10.3901723 L15.4992984,11.1050803 L6.36645654,11.1050803 L6.36645654,10.3901723 L5.18655022,10.3901723 L5.18655022,3.68064438 L6.36645654,3.68064438 L6.36645654,2.96564555 L15.4992984,2.96564555 L15.4992984,2.96564555 Z" fill="#CA3745" id="_155819672"/><path d="M14.4249122,2.96564555 C14.4432594,2.98063028 16.3676737,4.55702425 16.3910502,4.57609573 L16.3910502,9.49463017 C16.3676737,9.51370165 14.4432594,11.0900956 14.4249122,11.1050803 L7.44065652,11.1050803 C7.42240238,11.0900956 5.49798812,9.51379246 5.47461165,9.49463017 L5.47461165,4.57609573 C5.49798812,4.55702425 7.42240238,2.98063028 7.44065652,2.96564555 L14.4249122,2.96564555 C14.4249122,2.96564555 14.4008838,2.96564555 14.4249122,2.96564555 L14.4249122,2.96564555 L14.4249122,2.96564555 Z" fill="#28AE66" id="_155819528"/><path d="M16.0400306,4.73566044 L16.0400306,9.33515628 C16.0166541,9.35422776 14.3153874,10.7478988 14.2971332,10.7628835 L7.5685286,10.7628835 C7.55027446,10.7478988 5.84882142,9.35422776 5.82553809,9.33515628 L5.82553809,4.73566044 C5.84882142,4.71658896 7.55027446,3.32282711 7.5685286,3.30793319 L14.2971332,3.30793319 C14.3153874,3.32282711 16.0166541,4.71658896 16.0400306,4.73566044 Z" fill="#CA3745" id="_155819384"/><path d="M13.4452425,2.90080252 L12.4935129,2.90080252 L12.4935129,2.7329735 L12.9694243,2.33310816 L13.4452425,2.7329735 L13.4452425,2.90080252 L13.4452425,2.90080252 Z" fill="#CA3745" id="_155819240"/><path d="M12.4269226,2.90080252 L11.4751929,2.90080252 L11.4751929,2.7329735 L11.9511043,2.33310816 L12.4269226,2.7329735 L12.4269226,2.90080252 L12.4269226,2.90080252 Z" fill="#FAAE29" id="_155819168"/><path d="M11.4086957,2.90080252 L10.456873,2.90080252 L10.456873,2.7329735 L10.9327843,2.33310816 L11.4086957,2.7329735 L11.4086957,2.90080252 L11.4086957,2.90080252 Z" fill="#CA3745" id="_155819096"/><path d="M10.3903758,2.90080252 L9.43864613,2.90080252 L9.43864613,2.7329735 L9.91446438,2.33310816 L10.3903758,2.7329735 L10.3903758,2.90080252 L10.3903758,2.90080252 Z" fill="#FAAE29" id="_155819024"/><path d="M9.37214892,2.90080252 L8.42032615,2.90080252 L8.42032615,2.7329735 L8.89623754,2.33310816 L9.37214892,2.7329735 L9.37214892,2.90080252 L9.37214892,2.90080252 Z" fill="#CA3745" id="_155818952"/><path d="M3.67220206,9.02129422 L4.08217504,8.55722157 L5.11995988,8.55722157 L5.11995988,9.48536688 L4.08217504,9.48536688 L3.67220206,9.02129422 Z" fill="#FAAE29" id="_155818808"/><path d="M3.67220206,8.02830588 L4.08226817,7.56423322 L5.11995988,7.56423322 L5.11995988,8.49237854 L4.08226817,8.49237854 L3.67220206,8.02830588 Z" fill="#CA3745" id="_155818736"/><path d="M3.67220206,7.03540836 L4.08226817,6.5713357 L5.11995988,6.5713357 L5.11995988,7.4993902 L4.08226817,7.4993902 L3.67220206,7.03540836 Z" fill="#FAAE29" id="_155818664"/><path d="M3.67220206,6.04242001 L4.08226817,5.57834736 L5.11995988,5.57834736 L5.11995988,6.50649267 L4.08226817,6.50649267 L3.67220206,6.04242001 Z" fill="#CA3745" id="_155818592"/><path d="M3.67220206,5.04943167 L4.08217504,4.58544983 L5.11995988,4.58544983 L5.11995988,5.51350433 L4.08217504,5.51350433 L3.67220206,5.04943167 Z" fill="#FAAE29" id="_155818520"/><path d="M13.4452425,11.1699234 L12.4935129,11.1699234 L12.4935129,11.3378432 L12.9694243,11.7376177 L13.4452425,11.3378432 L13.4452425,11.1699234 L13.4452425,11.1699234 Z" fill="#CA3745" id="_155818376"/><path d="M12.4269226,11.1699234 L11.4751929,11.1699234 L11.4751929,11.3378432 L11.9511043,11.7376177 L12.4269226,11.3378432 L12.4269226,11.1699234 L12.4269226,11.1699234 Z" fill="#FAAE29" id="_155818304"/><path d="M11.4086957,11.1699234 L10.456873,11.1699234 L10.456873,11.3378432 L10.9327843,11.7376177 L11.4086957,11.3378432 L11.4086957,11.1699234 L11.4086957,11.1699234 Z" fill="#CA3745" id="_155818232"/><path d="M10.3903758,11.1699234 L9.43864613,11.1699234 L9.43864613,11.3378432 L9.91446438,11.7376177 L10.3903758,11.3378432 L10.3903758,11.1699234 L10.3903758,11.1699234 Z" fill="#FAAE29" id="_155818160"/><path d="M9.37214892,11.1699234 L8.42032615,11.1699234 L8.42032615,11.3378432 L8.89623754,11.7376177 L9.37214892,11.3378432 L9.37214892,11.1699234 L9.37214892,11.1699234 Z" fill="#CA3745" id="_155818088"/><path d="M17.7834868,9.48536688 L18.1934598,9.02129422 L17.7834868,8.55722157 L16.7457019,8.55722157 L16.7457019,9.48536688 L17.7834868,9.48536688 L17.7834868,9.48536688 Z" fill="#FAAE29" id="_155817944"/><path d="M17.7833937,8.49237854 L18.1934598,8.02830588 L17.7833937,7.56423322 L16.7457019,7.56423322 L16.7457019,8.49237854 L17.7833937,8.49237854 L17.7833937,8.49237854 Z" fill="#CA3745" id="_155817872"/><path d="M17.7833937,7.4993902 L18.1934598,7.03540836 L17.7833937,6.5713357 L16.7457019,6.5713357 L16.7457019,7.4993902 L17.7833937,7.4993902 L17.7833937,7.4993902 Z" fill="#FAAE29" id="_155817800"/><path d="M17.7833937,6.50649267 L18.1934598,6.04242001 L17.7833937,5.57834736 L16.7457019,5.57834736 L16.7457019,6.50649267 L17.7833937,6.50649267 L17.7833937,6.50649267 Z" fill="#CA3745" id="_155802624"/><path d="M17.7834868,5.51350433 L18.1934598,5.04943167 L17.7834868,4.58544983 L16.7457019,4.58544983 L16.7457019,5.51350433 L17.7834868,5.51350433 L17.7834868,5.51350433 Z" fill="#FAAE29" id="_155802552"/><path d="M8.2676806,9.5671926 L8.57082964,9.4394137 L8.95416648,9.73829102 L8.97493521,9.72212567 L9.33741018,9.4394137 L9.64065235,9.5671926 L9.69643922,9.91256801 L9.31468565,10.2400525 L9.86920157,10.7628835 L9.33564065,10.7628835 L8.95416648,10.4047938 L8.57259917,10.7628835 L8.03903825,10.7628835 L8.59364731,10.2400525 L8.2118006,9.91256801 L8.2676806,9.5671926 L8.2676806,9.5671926 Z" fill="#28AE66" id="_155802336"/><path d="M10.2464847,9.5671926 L10.5496338,9.4394137 L10.9328775,9.73829102 L10.9536462,9.72212567 L11.3162143,9.4394137 L11.6193634,9.5671926 L11.6752434,9.91256801 L11.2934898,10.2400525 L11.8480057,10.7628835 L11.3144448,10.7628835 L10.9328775,10.4047938 L10.5514033,10.7628835 L10.0177493,10.7628835 L10.5723583,10.2400525 L10.1906047,9.91256801 L10.2464847,9.5671926 L10.2464847,9.5671926 Z" fill="#28AE66" id="_155802120"/><path d="M13.5981675,9.5671926 L13.2950185,9.4394137 L12.9117748,9.73829102 L12.8909129,9.72212567 L12.5284379,9.4394137 L12.2252889,9.5671926 L12.1694089,9.91256801 L12.5511624,10.2400525 L11.9966465,10.7628835 L12.5302074,10.7628835 L12.9117748,10.4047938 L13.2932489,10.7628835 L13.8268098,10.7628835 L13.2722939,10.2400525 L13.6540475,9.91256801 L13.5981675,9.5671926 L13.5981675,9.5671926 Z" fill="#28AE66" id="_155801904"/><path d="M8.2676806,4.50353329 L8.57082964,4.6313122 L8.95416648,4.3325257 L8.97493521,4.34869104 L9.33741018,4.6313122 L9.64065235,4.50353329 L9.69643922,4.1582487 L9.31468565,3.83076416 L9.86920157,3.30793319 L9.33564065,3.30793319 L8.95416648,3.6659321 L8.57259917,3.30793319 L8.03903825,3.30793319 L8.59364731,3.83076416 L8.2118006,4.15815789 L8.2676806,4.50353329 L8.2676806,4.50353329 Z" fill="#28AE66" id="_155801688"/><path d="M10.2464847,4.50353329 L10.5496338,4.6313122 L10.9328775,4.3325257 L10.9536462,4.34869104 L11.3162143,4.6313122 L11.6193634,4.50353329 L11.6752434,4.1582487 L11.2934898,3.83076416 L11.8480057,3.30793319 L11.3144448,3.30793319 L10.9328775,3.6659321 L10.5514033,3.30793319 L10.0177493,3.30793319 L10.5723583,3.83076416 L10.1906047,4.15815789 L10.2464847,4.50353329 L10.2464847,4.50353329 Z" fill="#28AE66" id="_155801472"/><path d="M13.5981675,4.50353329 L13.2950185,4.6313122 L12.9117748,4.3325257 L12.8909129,4.34869104 L12.5284379,4.6313122 L12.2252889,4.50353329 L12.1694089,4.1582487 L12.5511624,3.83076416 L11.9966465,3.30793319 L12.5302074,3.30793319 L12.9117748,3.6659321 L13.2932489,3.30793319 L13.8268098,3.30793319 L13.2722939,3.83076416 L13.6540475,4.15815789 L13.5981675,4.50353329 L13.5981675,4.50353329 Z" fill="#28AE66" id="_155801256"/><path d="M16.0400306,5.18284121 L15.7373472,5.42722859 L16.0400306,5.67152516 L16.0400306,6.07665786 L15.5745502,5.70258442 C15.5745502,5.70258442 15.261529,5.97912087 15.2404809,5.99773826 C15.2136585,5.99446887 14.9120927,5.95750652 14.88229,5.95387386 C14.868972,5.92998911 14.7748141,5.76070702 14.7560943,5.72683245 C14.787294,5.69649971 15.0643657,5.42722859 15.0643657,5.42722859 C15.0643657,5.42722859 14.787294,5.15786665 14.7560943,5.12753392 C14.7748141,5.09365934 14.868972,4.92428644 14.88229,4.9004925 C14.9120927,4.89685984 15.2136585,4.85980668 15.2404809,4.85653729 C15.261529,4.87515468 15.5745502,5.15178194 15.5745502,5.15178194 L16.0400306,4.77779932 L16.0400306,5.18284121 L16.0400306,5.18284121 Z" fill="#28AE66" id="_155801040"/><path d="M16.0400306,6.79111179 L15.7373472,7.03549917 L16.0400306,7.27970492 L16.0400306,7.68492844 L15.5745502,7.310855 C15.5745502,7.310855 15.261529,7.58739145 15.2404809,7.60600885 C15.2136585,7.60273945 14.9120927,7.56568629 14.88229,7.56214444 C14.868972,7.53825969 14.7748141,7.36888679 14.7560943,7.33510303 C14.787294,7.30477029 15.0643657,7.03549917 15.0643657,7.03549917 C15.0643657,7.03549917 14.787294,6.76604642 14.7560943,6.73571369 C14.7748141,6.70192992 14.868972,6.53255703 14.88229,6.50867227 C14.9120927,6.50513042 15.2136585,6.46807726 15.2404809,6.46480787 C15.261529,6.48342526 15.5745502,6.75996171 15.5745502,6.75996171 L16.0400306,6.3860699 L16.0400306,6.79111179 L16.0400306,6.79111179 Z" fill="#28AE66" id="_155800824"/><path d="M16.0400306,8.8879755 L15.7373472,8.64358812 L16.0400306,8.39929156 L16.0400306,7.99415885 L15.5745502,8.36823229 C15.5745502,8.36823229 15.261529,8.09160503 15.2404809,8.07298763 C15.2136585,8.07625703 14.9120927,8.11331019 14.88229,8.11685203 C14.868972,8.14073679 14.7748141,8.31010969 14.7560943,8.34389345 C14.787294,8.374317 15.0643657,8.64358812 15.0643657,8.64358812 C15.0643657,8.64358812 14.787294,8.91295006 14.7560943,8.94328279 C14.7748141,8.97706655 14.868972,9.14643945 14.88229,9.17032421 C14.9120927,9.17395687 15.2136585,9.21091921 15.2404809,9.21418861 C15.261529,9.19557121 15.5745502,8.91903477 15.5745502,8.91903477 L16.0400306,9.29301739 L16.0400306,8.8879755 L16.0400306,8.8879755 Z" fill="#28AE66" id="_155768192"/><path d="M5.82591062,5.18284121 L6.12850085,5.42722859 L5.82591062,5.67152516 L5.82591062,6.07665786 L6.29139107,5.70258442 C6.29139107,5.70258442 6.60441223,5.97912087 6.62546037,5.99773826 C6.65218964,5.99446887 6.95384854,5.95750652 6.98365121,5.95387386 C6.99696927,5.92998911 7.09103395,5.76070702 7.10984689,5.72683245 C7.07864722,5.69649971 6.80157552,5.42722859 6.80157552,5.42722859 C6.80157552,5.42722859 7.07864722,5.15786665 7.10984689,5.12753392 C7.09103395,5.09365934 6.99696927,4.92428644 6.98365121,4.9004925 C6.95384854,4.89685984 6.65218964,4.85980668 6.62546037,4.85653729 C6.60441223,4.87515468 6.29139107,5.15178194 6.29139107,5.15178194 L5.82591062,4.77779932 L5.82591062,5.18284121 L5.82591062,5.18284121 Z" fill="#28AE66" id="_155767976"/><path d="M5.82591062,6.79111179 L6.12850085,7.03549917 L5.82591062,7.27970492 L5.82591062,7.68492844 L6.29139107,7.310855 C6.29139107,7.310855 6.60441223,7.58739145 6.62546037,7.60600885 C6.65218964,7.60273945 6.95384854,7.56568629 6.98365121,7.56214444 C6.99696927,7.53825969 7.09103395,7.36888679 7.10984689,7.33510303 C7.07864722,7.30477029 6.80157552,7.03549917 6.80157552,7.03549917 C6.80157552,7.03549917 7.07864722,6.76604642 7.10984689,6.73571369 C7.09103395,6.70192992 6.99696927,6.53255703 6.98365121,6.50867227 C6.95384854,6.50513042 6.65218964,6.46807726 6.62546037,6.46480787 C6.60441223,6.48342526 6.29139107,6.75996171 6.29139107,6.75996171 L5.82591062,6.3860699 L5.82591062,6.79111179 L5.82591062,6.79111179 Z" fill="#28AE66" id="_155767760"/><path d="M5.82591062,8.8879755 L6.12850085,8.64358812 L5.82591062,8.39929156 L5.82591062,7.99415885 L6.29139107,8.36823229 C6.29139107,8.36823229 6.60441223,8.09160503 6.62546037,8.07298763 C6.65218964,8.07625703 6.95384854,8.11331019 6.98365121,8.11685203 C6.99696927,8.14073679 7.09103395,8.31010969 7.10984689,8.34389345 C7.07864722,8.374317 6.80157552,8.64358812 6.80157552,8.64358812 C6.80157552,8.64358812 7.07864722,8.91295006 7.10984689,8.94328279 C7.09103395,8.97706655 6.99696927,9.14643945 6.98365121,9.17032421 C6.95384854,9.17395687 6.65218964,9.21091921 6.62546037,9.21418861 C6.60441223,9.19557121 6.29139107,8.91903477 6.29139107,8.91903477 L5.82591062,9.29301739 L5.82591062,8.8879755 L5.82591062,8.8879755 Z" fill="#28AE66" id="_155767544"/><g id="_155767400-+-_155767256" transform="translate(8.000000, 5.000000)"><path d="M1.30695558,0.98929232 L1.90254331,0.98929232 L1.90254331,0.36011515 L2.8995357,0.36011515 L2.8995357,1.00863625 L3.8927003,2.00298689 L5.43151842,2.00298689 L5.43151842,2.52850352 L4.61035143,2.52850352 L4.61035143,3.06561289 L4.04199229,3.06561289 L4.04199229,3.7565919 L2.98120128,3.7565919 L2.98120128,3.06561289 L1.95665378,2.00298684 L0.48449503,2.00298684 L0.48449503,1.56307139 L1.30695558,1.56307139 L1.30695558,0.98929232 Z" fill="#FAAE29" id="_155767400"/><path d="M4.5587062,1.56307139 L5.3811668,1.56307139 L5.3811668,2.00298684 L3.9089149,2.00298684 L2.88525391,3.06756602 L2.88525391,3.77697764 L1.86853027,3.77697764 L1.86853027,3.14398203 L1.2263794,3.14398203 L1.2263794,2.56799326 L0.44885254,2.56799326 L0.44885254,2.00298689 L1.99462891,2.00298689 L2.9661261,1.00863625 L2.9661261,0.36011515 L3.9631185,0.36011515 L3.9631185,0.98929232 L4.5587062,0.98929232 L4.5587062,1.56307139 Z" fill="#FFFFFF" id="_155767256"/></g><path d="M10.0232441,7.06782987 L10.0232441,7.50502082 L10.8995357,7.99088946 L10.8995357,7.06782987 L10.0232441,7.06782987 L10.0232441,7.06782987 Z" fill="#CA3745" id="_155767112"/><path d="M10.8995357,6.07992726 L10.0232441,6.56570507 L10.0232441,7.00289603 L10.8995357,7.00289603 L10.8995357,6.07992726 L10.8995357,6.07992726 Z" fill="#28AE66" id="_155767040"/><path d="M11.8424177,7.00289603 L11.8424177,6.56570507 L10.9661261,6.07992726 L10.9661261,7.00289603 L11.8424177,7.00289603 L11.8424177,7.00289603 Z" fill="#CA3745" id="_155766968"/><path d="M10.9661261,7.99088946 L11.8424177,7.50502082 L11.8424177,7.06782987 L10.9661261,7.06782987 L10.9661261,7.99088946 L10.9661261,7.99088946 Z" fill="#28AE66" id="_155766896"/></g><g transform="translate(4.000000, 33.000000)"><path d="M13.9358619,13.9926387 L13.9358619,15 L8.06413807,15 L8.06413807,13.9926387 L5.37612567,13.9926387 L5.37612567,12.9851737 L2.68811327,12.9851737 L2.68811327,11.9777087 L0,11.9777087 L0,3.02239502 L2.68811327,3.02239502 L2.68811327,2.01493002 L5.37612567,2.01493002 L5.37612567,1.00746501 L8.06413807,1.00746501 L8.06413807,0 L13.9358619,0 L13.9358619,1.00746501 L16.6238743,1.00746501 L16.6238743,2.01493002 L19.3119876,2.01493002 L19.3119876,3.02239502 L22,3.02239502 L22,11.9777087 L19.3119876,11.9777087 L19.3119876,12.9851737 L16.6238743,12.9851737 L16.6238743,13.9926387 L13.9358619,13.9926387 L13.9358619,13.9926387 Z" fill="#CA4638" id="_155914328" stroke="#262626" stroke-width="0.1"/><path d="M0,8.0571388 L0,6.9428612 L0.780277164,6.9428612 L0.780277164,4.25451225 L1.44607351,4.724491 L1.44768026,4.16666667 L2.08244627,4.61510023 L2.10383611,4.59992067 L2.71721229,4.16666667 L2.71881904,4.724491 L3.38461538,4.25451225 L3.38461538,10.7454878 L2.71881904,10.275509 L2.71721229,10.8333333 L2.08244627,10.3848998 L1.44768026,10.8333333 L1.44607351,10.275509 L0.780277164,10.7454878 L0.780277164,8.0571388 L0,8.0571388 L0,8.0571388 Z" fill="#28AE66" id="_155914040"/><path d="M4.10126188,11.8683961 L3.38461538,12.360478 L3.38461538,3.47285529 L4.10126188,3.96504306 L4.10282811,3.33333333 L4.65384615,3.86825565 L5.2048642,3.33333333 L5.20643043,3.96504306 L5.92307692,3.47285529 L5.92307692,12.360478 L5.20643043,11.8683961 L5.2048642,12.5 L4.65384615,11.9651835 L4.10282811,12.5 L4.10126188,11.8683961 L4.10126188,11.8683961 Z" fill="#FAAE29" id="_155913968"/><path d="M6.63291661,12.6353932 L5.92307692,13.167755 L5.92307692,2.66557831 L6.63291661,3.19794013 L6.63435727,2.5 L7.25734502,3.0526763 L7.88033276,2.5 L7.88187634,3.19794013 L8.59171601,2.66557831 L8.59171601,13.167755 L7.88187634,12.6353932 L7.88033276,13.3333333 L7.25734502,12.780657 L6.63435727,13.3333333 L6.63291661,12.6353932 L6.63291661,12.6353932 Z" fill="#28AE66" id="_155913896"/><path d="M11.2782133,1.60157651 L11.2781065,1.60157651 L11.2779998,1.60157651 L9.98795544,0.833333333 L9.98795544,1.84410674 L9,1.00998871 L9,13.156678 L9.98795544,12.3225599 L9.98795544,13.3333333 L11.2779998,12.5650902 L11.2781065,12.5650902 L11.2782133,12.5650902 L12.5682575,13.3333333 L12.5682575,12.3225599 L13.556213,13.156678 L13.556213,1.00998871 L12.5682575,1.84410674 L12.5682575,0.833333333 L11.2782133,1.60157651 L11.2782133,1.60157651 Z" fill="#FAAE29" id="_155913824"/><path d="M22,8.0571388 L22,6.9428612 L21.2196997,6.9428612 L21.2196997,4.25451225 L20.553984,4.724491 L20.5523772,4.16666667 L19.9175924,4.61510023 L19.8961015,4.59992067 L19.2827071,4.16666667 L19.2811003,4.724491 L18.6153846,4.25451225 L18.6153846,10.7454878 L19.2811003,10.275509 L19.2827071,10.8333333 L19.9175924,10.3848998 L20.5523772,10.8333333 L20.553984,10.275509 L21.2196997,10.7454878 L21.2196997,8.0571388 L22,8.0571388 L22,8.0571388 Z" fill="#28AE66" id="_155913752"/><path d="M17.8987658,11.8683961 L18.6153846,12.360478 L18.6153846,3.47285529 L17.8987658,3.96504306 L17.8971996,3.33333333 L17.3462028,3.86825565 L16.7951081,3.33333333 L16.7936398,3.96504306 L16.0769231,3.47285529 L16.0769231,12.360478 L16.7936398,11.8683961 L16.7951081,12.5 L17.3462028,11.9651835 L17.8971996,12.5 L17.8987658,11.8683961 L17.8987658,11.8683961 Z" fill="#FAAE29" id="_155913680"/><path d="M15.4017097,12.6353932 L16.0769231,13.167755 L16.0769231,2.66557831 L15.4017097,3.19794013 L15.4002415,2.5 L14.8076434,3.0526763 L14.2150453,2.5 L14.213577,3.19794013 L13.5384615,2.66557831 L13.5384615,13.167755 L14.213577,12.6353932 L14.2150453,13.3333333 L14.8076434,12.780657 L15.4002415,13.3333333 L15.4017097,12.6353932 L15.4017097,12.6353932 Z" fill="#28AE66" id="_155913608"/><path d="M10.1622794,4.20525517 L10.1622794,4.52811037 L10.5553033,4.95091612 L10.5553033,3.89850247 L10.0075766,3.39104356 L10.9691858,2.5 L11.930795,3.39104356 L11.3831599,3.89850247 L11.3831599,4.95091612 L11.7760922,4.52811037 L11.7760922,4.20525517 L12.2384623,4.68280943 L11.578391,5.44882854 L11.7996956,5.83333333 L10.138859,5.83333333 L10.3600721,5.44882854 L9.70000076,4.68280943 L10.1622794,4.20525517 L10.1622794,4.20525517 Z" fill="#CA3745" id="_155913464"/><path d="M2.85222175,8.32385899 L2.85222175,7.84588173 L1.69230769,7.84588173 L1.69230769,7.15401603 L2.85222175,7.15401603 L2.85222175,6.67603877 L6.34778544,6.67603877 L8.81554463,5 L13.1844554,5 L15.6522146,6.67603877 L19.1477782,6.67603877 L19.1477782,7.15401603 L20.3076923,7.15401603 L20.3076923,7.84588173 L19.1477782,7.84588173 L19.1477782,8.32385899 L15.6522146,8.32385899 L13.1844554,10 L8.81554463,10 L6.34778544,8.32385899 L2.85222175,8.32385899 L2.85222175,8.32385899 Z" fill="#CA3745" id="_155913176"/><path d="M4.23076923,7.51891228 L6.73082927,7.51891228 L6.73082927,7.26485797 L8.9124259,5.83333333 L13.0875741,5.83333333 L15.2691707,7.26485797 L15.2691707,7.51891228 L17.7692308,7.51891228 L17.7692308,8.31432327 L15.2691707,8.31432327 L15.2691707,8.56847536 L13.0875741,10 L8.9124259,10 L6.73082927,8.56847536 L6.73082927,8.31432327 L4.23076923,8.31432327 L4.23076923,7.51891228 L4.23076923,7.51891228 Z" fill="#CA3745" id="_155882776"/><path d="M12.1335549,5.83333333 L11.4988345,6.2916028 L12.9350424,7.32857091 L13.7482927,6.74138749 L13.4201657,6.504361 L13.1678333,6.68655573 L12.9303942,6.51521787 L13.4201657,6.16159404 L14.2230761,6.74138749 L13.1724815,7.5 L14.2230761,8.25861251 L13.4201657,8.83840596 L12.9303942,8.48478213 L13.1678333,8.31335304 L13.4201657,8.49554777 L13.7482927,8.25861251 L12.9350424,7.67142909 L11.4989294,8.7083972 L12.1335549,9.16666667 L11.6588664,9.16666667 L11.2614902,8.87982629 L10.864209,9.16666667 L10.3894256,9.16666667 L11.024146,8.7083972 L9.58793811,7.67142909 L8.77478262,8.25861251 L9.10300451,8.49554777 L9.35524208,8.31335304 L9.59258634,8.48478213 L9.10300451,8.83840596 L8.29999924,8.25861251 L9.35059385,7.5 L8.29999924,6.74138749 L9.10300451,6.16159404 L9.59258634,6.51521787 L9.35524208,6.68655573 L9.10300451,6.504361 L8.77478262,6.74138749 L9.58793811,7.32857091 L11.024146,6.2916028 L10.3894256,5.83333333 L10.864209,5.83333333 L11.2614902,6.12017371 L11.6588664,5.83333333 L12.1335549,5.83333333 L12.1335549,5.83333333 Z M11.2435136,6.67847036 L9.99230693,7.50003666 L11.2614538,8.33333333 L12.5307684,7.50003666 L11.2614538,6.66666667 L11.2435136,6.67847036 L11.2435136,6.67847036 Z" fill="#FAAE29" id="_155882632"/><path d="M2.11538462,5.83333333 C2.15455508,5.90022712 2.28318123,6.1201604 2.28318123,6.1201604 C2.28318123,6.1201604 2.46442308,5.93048014 2.53846154,5.85320629 C2.52958768,6.18572341 2.45581812,6.44841904 2.32755052,6.57626246 C2.26740548,6.6362362 2.19605606,6.66666667 2.11538462,6.66666667 C2.03462353,6.66666667 1.96327412,6.6362362 1.90321871,6.57635118 C1.77495111,6.44841904 1.70118155,6.18572341 1.69230769,5.85320629 C1.76625652,5.93056886 1.94749837,6.1201604 1.94749837,6.1201604 C2.00343057,6.02452181 2.05945241,5.92888321 2.11538462,5.83333333 C2.11538462,5.83333333 2.05945241,5.92888321 2.11538462,5.83333333 L2.11538462,5.83333333 L2.11538462,5.83333333 Z" fill="#FFFFFF" id="_155882056"/><path d="M4.96620265,4.71230498 L4.59443185,4.47486184 L5.07686829,4.16666667 L5.5594143,4.47486184 L5.1876435,4.71230498 L5.1876435,5.49253354 L5.57771248,5.20235242 L5.57771248,4.96572439 L5.92307692,5.20381963 L5.07686829,5.83333333 L4.23076923,5.20381963 L4.57613368,4.96572439 L4.57613368,5.20235242 L4.96620265,5.49253354 L4.96620265,4.71230498 L4.96620265,4.71230498 Z" fill="#CA3745" id="_155881912"/><path d="M7.50466419,3.87897165 L7.13289339,3.6415285 L7.6154394,3.33333333 L8.09787584,3.6415285 L7.72610504,3.87897165 L7.72610504,4.65920021 L8.11617402,4.3691006 L8.11617402,4.13239106 L8.46153846,4.37056781 L7.6154394,5 L6.76923077,4.37056781 L7.11459521,4.13239106 L7.11459521,4.3691006 L7.50466419,4.65920021 L7.50466419,3.87897165 L7.50466419,3.87897165 Z" fill="#FFFFFF" id="_155881768"/><path d="M4.96620265,10.2876402 L4.59443185,10.5250717 L5.07686829,10.8333333 L5.5594143,10.5250717 L5.1876435,10.2876402 L5.1876435,9.50744979 L5.57771248,9.79761672 L5.57771248,10.0342332 L5.92307692,9.79614958 L5.07686829,9.16666667 L4.23076923,9.79614958 L4.57613368,10.0342332 L4.57613368,9.79761672 L4.96620265,9.50744979 L4.96620265,10.2876402 L4.96620265,10.2876402 Z" fill="#CA3745" id="_155881624"/><path d="M17.0337973,4.71230498 L17.4055681,4.47486184 L16.9230221,4.16666667 L16.4405857,4.47486184 L16.8123565,4.71230498 L16.8123565,5.49253354 L16.4222875,5.20235242 L16.4222875,4.96572439 L16.0769231,5.20381963 L16.9230221,5.83333333 L17.7692308,5.20381963 L17.4238663,4.96572439 L17.4238663,5.20235242 L17.0337973,5.49253354 L17.0337973,4.71230498 L17.0337973,4.71230498 Z" fill="#CA3745" id="_155881480"/><path d="M17.0337973,10.2876402 L17.4055681,10.5250717 L16.9230221,10.8333333 L16.4405857,10.5250717 L16.8123565,10.2876402 L16.8123565,9.50744979 L16.4222875,9.79761672 L16.4222875,10.0342332 L16.0769231,9.79614958 L16.9230221,9.16666667 L17.7692308,9.79614958 L17.4238663,10.0342332 L17.4238663,9.79761672 L17.0337973,9.50744979 L17.0337973,10.2876402 L17.0337973,10.2876402 Z" fill="#CA3745" id="_155881336"/><path d="M7.50466419,11.1210283 L7.13289339,11.3584715 L7.6154394,11.6666667 L8.09787584,11.3584715 L7.72610504,11.1210283 L7.72610504,10.3407998 L8.11617402,10.6308994 L8.11617402,10.8676089 L8.46153846,10.6294322 L7.6154394,10 L6.76923077,10.6294322 L7.11459521,10.8676089 L7.11459521,10.6308994 L7.50466419,10.3407998 L7.50466419,11.1210283 L7.50466419,11.1210283 Z" fill="#FFFFFF" id="_155881192"/><path d="M14.4953358,3.87897165 L14.8671066,3.6415285 L14.3846702,3.33333333 L13.9021242,3.6415285 L14.273895,3.87897165 L14.273895,4.65920021 L13.883826,4.3691006 L13.883826,4.13239106 L13.5384615,4.37056781 L14.3846702,5 L15.2307692,4.37056781 L14.8854048,4.13239106 L14.8854048,4.3691006 L14.4953358,4.65920021 L14.4953358,3.87897165 L14.4953358,3.87897165 Z" fill="#FFFFFF" id="_155881048"/><path d="M14.4953358,11.1210283 L14.8671066,11.3584715 L14.3846702,11.6666667 L13.9021242,11.3584715 L14.273895,11.1210283 L14.273895,10.3407998 L13.883826,10.6308994 L13.883826,10.8676089 L13.5384615,10.6294322 L14.3846702,10 L15.2307692,10.6294322 L14.8854048,10.8676089 L14.8854048,10.6308994 L14.4953358,10.3407998 L14.4953358,11.1210283 L14.4953358,11.1210283 Z" fill="#FFFFFF" id="_155880904"/><path d="M1.89306571,8.42085788 C1.95565684,8.36279282 2.03047219,8.33333333 2.11542281,8.33333333 C2.20029607,8.33333333 2.27511142,8.36279282 2.33777991,8.42085788 C2.53359961,8.60231122 2.54017593,8.93042154 2.53824172,9.16666667 C2.53824172,9.16666667 2.31186146,8.9466456 2.27101088,8.90693934 C2.24253927,8.95219594 2.11542281,9.15407167 2.11542281,9.15407167 C2.11542281,9.15407167 1.98830635,8.95219594 1.95975737,8.90693934 C1.91890679,8.9466456 1.69252653,9.16666667 1.69252653,9.16666667 C1.69059232,8.9304927 1.69724601,8.60224006 1.89306571,8.42085788 C1.89306571,8.42085788 1.69724601,8.60224006 1.89306571,8.42085788 L1.89306571,8.42085788 L1.89306571,8.42085788 Z" fill="#383739" id="_155856944"/><path d="M2.11538462,9.16666667 C2.15455508,9.09968416 2.28318123,8.8798396 2.28318123,8.8798396 C2.28318123,8.8798396 2.46442308,9.06943114 2.53846154,9.14670499 C2.52958768,8.81418787 2.45581812,8.55149225 2.32755052,8.42364882 C2.26740548,8.36367508 2.19605606,8.33333333 2.11538462,8.33333333 C2.03462353,8.33333333 1.96327412,8.36367508 1.90321871,8.42364882 C1.77495111,8.55149225 1.70118155,8.81418787 1.69230769,9.14670499 C1.76625652,9.06934242 1.94749837,8.8798396 1.94749837,8.8798396 C2.00343057,8.97538947 2.05945241,9.07102807 2.11538462,9.16666667 C2.11538462,9.16666667 2.05945241,9.07102807 2.11538462,9.16666667 L2.11538462,9.16666667 L2.11538462,9.16666667 Z" fill="#FFFFFF" id="_155856872"/><path d="M19.8846154,5.83333333 C19.8454449,5.90022712 19.7167291,6.1201604 19.7167291,6.1201604 C19.7167291,6.1201604 19.5354873,5.93048014 19.4615385,5.85320629 C19.4704123,6.18572341 19.5441819,6.44841904 19.6724495,6.57626246 C19.7325049,6.6362362 19.8039439,6.66666667 19.8846154,6.66666667 C19.9652868,6.66666667 20.0367259,6.6362362 20.0967813,6.57635118 C20.2249593,6.44841904 20.2988184,6.18572341 20.3076923,5.85320629 C20.2337435,5.93056886 20.0525016,6.1201604 20.0525016,6.1201604 C19.9964798,6.02452181 19.9405476,5.92888321 19.8846154,5.83333333 C19.8846154,5.83333333 19.9405476,5.92888321 19.8846154,5.83333333 L19.8846154,5.83333333 L19.8846154,5.83333333 Z" fill="#FFFFFF" id="_155856728"/><path d="M20.1070107,8.42085788 C20.0444196,8.36279282 19.9695268,8.33333333 19.8846536,8.33333333 C19.799703,8.33333333 19.7248876,8.36279282 19.6622965,8.42085788 C19.4664768,8.60231122 19.4598231,8.93042154 19.4617573,9.16666667 C19.4617573,9.16666667 19.6881376,8.9466456 19.7289881,8.90693934 C19.7575371,8.95219594 19.8846536,9.15407167 19.8846536,9.15407167 C19.8846536,9.15407167 20.01177,8.95219594 20.0402417,8.90693934 C20.0811696,8.9466456 20.3074725,9.16666667 20.3074725,9.16666667 C20.3094067,8.9304927 20.3028304,8.60224006 20.1070107,8.42085788 C20.1070107,8.42085788 20.3028304,8.60224006 20.1070107,8.42085788 L20.1070107,8.42085788 L20.1070107,8.42085788 Z" fill="#383739" id="_155856656"/><path d="M19.8846154,9.16666667 C19.8454449,9.09968416 19.7167291,8.8798396 19.7167291,8.8798396 C19.7167291,8.8798396 19.5354873,9.06943114 19.4615385,9.14670499 C19.4704123,8.81418787 19.5441819,8.55149225 19.6724495,8.42364882 C19.7325049,8.36367508 19.8039439,8.33333333 19.8846154,8.33333333 C19.9652868,8.33333333 20.0367259,8.36367508 20.0967813,8.42364882 C20.2249593,8.55149225 20.2988184,8.81418787 20.3076923,9.14670499 C20.2337435,9.06934242 20.0525016,8.8798396 20.0525016,8.8798396 C19.9964798,8.97538947 19.9405476,9.07102807 19.8846154,9.16666667 C19.8846154,9.16666667 19.9405476,9.07102807 19.8846154,9.16666667 L19.8846154,9.16666667 L19.8846154,9.16666667 Z" fill="#FFFFFF" id="_155856584"/><path d="M10.1622794,11.6281932 L10.1622794,11.305338 L10.5553033,10.8824172 L10.5553033,11.9348309 L10.0075766,12.4422898 L10.9691858,13.3333333 L11.930795,12.4422898 L11.3831599,11.9348309 L11.3831599,10.8824172 L11.7760922,11.305338 L11.7760922,11.6281932 L12.2384623,11.1505239 L11.578391,10.3845048 L11.7996956,10 L10.138859,10 L10.3600721,10.3845048 L9.70000076,11.1505239 L10.1622794,11.6281932 L10.1622794,11.6281932 Z" fill="#CA3745" id="_155856440"/></g><g transform="translate(4.000000, 91.000000)"><path d="M20.1534328,4.86227977 L21.8225279,4.86227977 L21.8225279,9.10592386 L20.1534328,9.10592386 L20.1534328,10.6397774 L18.5067269,10.6397774 L18.5067269,12.3308959 L12.564497,12.3308959 L11.4063693,13.0119158 L12.0175124,13.3712179 L14.1986368,13.3712179 L14.4949164,13.0443041 L12.5713111,13.0443041 L12.9909521,12.6307906 L15.5840184,12.6307906 L14.4515541,13.7847313 L11.9002572,13.7847313 L10.9961087,13.2530959 L10.0919602,13.7847313 L7.54084024,13.7847313 L6.40828741,12.6307906 L9.00144225,12.6307906 L9.42099476,13.0443041 L7.49730094,13.0443041 L7.79366908,13.3712179 L9.97479345,13.3712179 L10.5859366,13.0119158 L9.42772034,12.3308959 L3.48557898,12.3308959 L3.48557898,10.6397774 L1.8387845,10.6397774 L1.8387845,9.10592386 L0.169777904,9.10592386 L0.169777904,4.86227977 L1.8387845,4.86227977 L1.8387845,3.32842625 L3.48557898,3.32842625 L3.48557898,1.63730771 L9.42772034,1.63730771 L10.5859366,0.95637443 L9.97479345,0.596985761 L7.79366908,0.596985761 L7.49730094,0.92398615 L9.42099476,0.92398615 L9.00144225,1.33741302 L6.40828741,1.33741302 L7.54084024,0.183558891 L10.0919602,0.183558891 L10.9961087,0.715194323 L11.9002572,0.183558891 L14.4515541,0.183558891 L15.5840184,1.33741302 L12.9909521,1.33741302 L12.5713111,0.92398615 L14.4949164,0.92398615 L14.1986368,0.596985761 L12.0175124,0.596985761 L11.4063693,0.95637443 L12.564497,1.63730771 L18.5067269,1.63730771 L18.5067269,3.32842625 L20.1534328,3.32842625 L20.1534328,4.86227977 L20.1534328,4.86227977 Z" fill="#CA4638" id="_155766728" stroke="#262626" stroke-width="0.1"/><path d="M17.8224873,9.97027526 L17.8224873,11.6613072 L12.7600699,11.6613072 L10.9961087,12.6985116 L9.23223595,11.6613072 L4.16973009,11.6613072 L4.16973009,9.97027526 L2.52293562,9.97027526 L2.52293562,8.43633514 L0.853929019,8.43633514 L0.853929019,5.53186849 L2.52293562,5.53186849 L2.52293562,3.99792837 L4.16973009,3.99792837 L4.16973009,2.30689643 L9.223475,2.30689643 L9.23223595,2.30689643 L10.9961087,1.26977867 L12.7600699,2.30689643 L17.8224873,2.30689643 L17.8224873,3.99792837 L19.4692817,3.99792837 L19.4692817,5.53186849 L21.1382883,5.53186849 L21.1382883,8.43633514 L19.4692817,8.43633514 L19.4692817,9.97027526 L17.8224873,9.97027526 L17.8224873,9.97027526 Z" fill="#FAAE29" id="_155766584"/><path d="M17.3890411,9.54611003 L17.3890411,11.2372286 L12.6398058,11.2372286 L10.9961087,12.203681 L9.35241151,11.2372286 L4.60326473,11.2372286 L4.60326473,9.54611003 L2.95638176,9.54611003 L2.95638176,8.01216991 L1.28737517,8.01216991 L1.28737517,5.95603372 L2.95638176,5.95603372 L2.95638176,4.4220936 L4.60326473,4.4220936 L4.60326473,2.73106166 L9.34365055,2.73106166 L9.35241151,2.73106166 L10.9961087,1.76460924 L12.6398058,2.73106166 L17.3890411,2.73106166 L17.3890411,4.4220936 L19.0358356,4.4220936 L19.0358356,5.95603372 L20.7048422,5.95603372 L20.7048422,8.01216991 L19.0358356,8.01216991 L19.0358356,9.54611003 L17.3890411,9.54611003 L17.3890411,9.54611003 Z" fill="#28AE66" id="_155766440"/><g id="Path-+-_155748144" transform="translate(4.000000, 2.000000)"><path d="M4.14428436,3.69943887 L4.22705073,6.31079093 L2.86580403,7.03717032 L1.58750076,6.31079093 L1.58750076,3.69943887 L2.86580406,2.91727057 L4.14428436,3.69943887 Z" fill="#CA4638" id="Path"/><path d="M4.52392576,4.53529904 L5.5673828,4.53529898 L5.5673828,5.43859861 L4.52392576,5.43859863 L4.52392576,6.28479013 L1.24007128,6.28479013 L1.24007128,5.43859861 L0.53192137,5.43859861 L0.53192137,4.53529898 L1.24007128,4.53529898 L1.24007128,3.76135764 L4.52392576,3.7613577 L4.52392576,4.53529904 Z" fill="#E5B731" id="_155748144"/><path d="M12.1442844,3.69943887 L12.2270507,6.31079093 L10.865804,7.03717032 L9.58750076,6.31079093 L9.58750076,3.69943887 L10.8658041,2.91727057 L12.1442844,3.69943887 Z" fill="#CA4638" id="Path"/><path d="M12.5239258,4.53529904 L13.5673828,4.53529898 L13.5673828,5.43859861 L12.5239258,5.43859863 L12.5239258,6.28479013 L9.24007128,6.28479013 L9.24007128,5.43859861 L8.53192137,5.43859861 L8.53192137,4.53529898 L9.24007128,4.53529898 L9.24007128,3.76135764 L12.5239258,3.7613577 L12.5239258,4.53529904 Z" fill="#E5B731" id="_155748144"/><path d="M1.2882123,7.01118381 L3.62588347,8.5284968 L1.2882123,8.5284968 L1.2882123,7.01118381 L1.2882123,7.01118381 Z" fill="#CA3745" id="_155766296"/><path d="M1.2882123,2.95701982 C1.37909617,2.89795884 3.46659334,1.54302025 3.62588347,1.43970684 L1.2882123,1.43970684 L1.2882123,2.95701982 C1.2882123,2.95701982 1.2882123,2.85197441 1.2882123,2.95701982 L1.2882123,2.95701982 L1.2882123,2.95701982 Z" fill="#CA3745" id="_155734224"/><path d="M12.7040935,7.01118381 C12.6131212,7.07024479 10.525624,8.4250968 10.3664224,8.5284968 L12.7040935,8.5284968 L12.7040935,7.01118381 C12.7040935,7.01118381 12.7040935,7.11614262 12.7040935,7.01118381 L12.7040935,7.01118381 L12.7040935,7.01118381 Z" fill="#CA3745" id="_155734080"/><path d="M12.7040935,2.95693322 C12.6131212,2.89795884 10.525624,1.54302025 10.3664224,1.43962024 L12.7040935,1.43962024 L12.7040935,2.95693322 C12.7040935,2.95693322 12.7040935,2.85197441 12.7040935,2.95693322 L12.7040935,2.95693322 L12.7040935,2.95693322 Z" fill="#CA3745" id="_155733936"/><path d="M8.24428474,1.19943887 L8.32705111,3.81079093 L6.96580441,4.53717032 L5.68750114,3.81079093 L5.68750114,1.19943887 L6.96580444,0.41727057 L8.24428474,1.19943887 Z" fill="#E5B731" id="Path"/><path d="M8.62392615,2.03529904 L9.66738318,2.03529898 L9.66738318,2.93859861 L8.62392615,2.93859863 L8.62392615,3.78479013 L5.34007166,3.78479013 L5.34007166,2.93859861 L4.63192175,2.93859861 L4.63192175,2.03529898 L5.34007166,2.03529898 L5.34007166,1.26135764 L8.62392615,1.2613577 L8.62392615,2.03529904 Z" fill="#CA4638" id="_155748144"/><path d="M8.24428474,6.19943887 L8.32705111,8.81079093 L6.96580441,9.53717032 L5.68750114,8.81079093 L5.68750114,6.19943887 L6.96580444,5.41727057 L8.24428474,6.19943887 Z" fill="#E5B731" id="Path"/><path d="M8.62392615,7.03529904 L9.66738318,7.03529898 L9.66738318,7.93859861 L8.62392615,7.93859863 L8.62392615,8.78479013 L5.34007166,8.78479013 L5.34007166,7.93859861 L4.63192175,7.93859861 L4.63192175,7.03529898 L5.34007166,7.03529898 L5.34007166,6.26135764 L8.62392615,6.2613577 L8.62392615,7.03529904 Z" fill="#CA4638" id="_155748144"/></g></g><path d="M6.77907293,25.3378619 L5.15141434,24.0404612 L1.75298938,26.6956565 L5.15141434,29.3508518 L6.77907293,28.0534511 L5.42128021,28.0534511 L5.60612775,27.1491872 L7.44940975,27.1491872 L11.398338,30.2964206 L11.398338,31.370018 L9.8974375,31.370018 L9.8974375,30.1705312 L8.63851226,31.173861 L10.7187684,32.8319799 L9.73240193,33.6182534 L12.8621151,36.1125078 L12.8621151,37.391313 L8.12820994,33.6182534 L9.11457643,32.8319799 L7.03432026,31.173861 L8.82008986,29.7507356 L7.43209833,28.644555 L5.15814656,30.4570323 L0.375,26.6956565 L5.15814656,22.9341161 L7.43209833,24.746758 L8.82008986,23.6405775 L7.03432026,22.217452 L9.11457643,20.5593332 L8.12820994,19.7730597 L12.8621151,16 L12.8621151,17.2788052 L9.73240193,19.7730597 L10.7187684,20.5593332 L8.63851226,22.217452 L9.8974375,23.2207818 L9.8974375,22.021295 L11.398338,22.021295 L11.398338,23.0948924 L7.44940975,26.2421258 L5.60612775,26.2421258 L5.42128021,25.3378619 L6.77907293,25.3378619 Z M10.3826685,26.0269687 L9.53017707,26.7599244 L10.3826685,27.4907408 L11.6779478,27.4907408 L11.6779478,28.7502924 L12.7020147,29.6262517 L12.7020147,23.8914578 L11.6779478,24.7675817 L11.6779478,26.0269687 L10.3826685,26.0269687 Z" fill="#FAAE29" id="_155619648" transform="translate(6.375000, 26.500000) scale(-1, 1) translate(-6.375000, -26.500000) "/><path d="M6.77907293,53.3378619 L5.15141434,52.0404612 L1.75298938,54.6956565 L5.15141434,57.3508518 L6.77907293,56.0534511 L5.42128021,56.0534511 L5.60612775,55.1491872 L7.44940975,55.1491872 L11.398338,58.2964206 L11.398338,59.370018 L9.8974375,59.370018 L9.8974375,58.1705312 L8.63851226,59.173861 L10.7187684,60.8319799 L9.73240193,61.6182534 L12.8621151,64.1125078 L12.8621151,65.391313 L8.12820994,61.6182534 L9.11457643,60.8319799 L7.03432026,59.173861 L8.82008986,57.7507356 L7.43209833,56.644555 L5.15814656,58.4570323 L0.375,54.6956565 L5.15814656,50.9341161 L7.43209833,52.746758 L8.82008986,51.6405775 L7.03432026,50.217452 L9.11457643,48.5593332 L8.12820994,47.7730597 L12.8621151,44 L12.8621151,45.2788052 L9.73240193,47.7730597 L10.7187684,48.5593332 L8.63851226,50.217452 L9.8974375,51.2207818 L9.8974375,50.021295 L11.398338,50.021295 L11.398338,51.0948925 L7.44940975,54.2421258 L5.60612775,54.2421258 L5.42128021,53.3378619 L6.77907293,53.3378619 Z M10.3826685,54.0269687 L9.53017707,54.7599244 L10.3826685,55.4907408 L11.6779478,55.4907408 L11.6779478,56.7502924 L12.7020147,57.6262517 L12.7020147,51.8914578 L11.6779478,52.7675817 L11.6779478,54.0269687 L10.3826685,54.0269687 Z" fill="#FAAE29" id="_155619648" transform="translate(6.375000, 54.500000) scale(-1, 1) translate(-6.375000, -54.500000) "/><path d="M6.77907293,82.3378619 L5.15141434,81.0404612 L1.75298938,83.6956565 L5.15141434,86.3508518 L6.77907293,85.0534511 L5.42128021,85.0534511 L5.60612775,84.1491872 L7.44940975,84.1491872 L11.398338,87.2964206 L11.398338,88.370018 L9.8974375,88.370018 L9.8974375,87.1705312 L8.63851226,88.173861 L10.7187684,89.8319799 L9.73240193,90.6182534 L12.8621151,93.1125078 L12.8621151,94.391313 L8.12820994,90.6182534 L9.11457643,89.8319799 L7.03432026,88.173861 L8.82008986,86.7507356 L7.43209833,85.644555 L5.15814656,87.4570323 L0.375,83.6956565 L5.15814656,79.9341161 L7.43209833,81.746758 L8.82008986,80.6405775 L7.03432026,79.217452 L9.11457643,77.5593332 L8.12820994,76.7730597 L12.8621151,73 L12.8621151,74.2788052 L9.73240193,76.7730597 L10.7187684,77.5593332 L8.63851226,79.217452 L9.8974375,80.2207818 L9.8974375,79.021295 L11.398338,79.021295 L11.398338,80.0948925 L7.44940975,83.2421258 L5.60612775,83.2421258 L5.42128021,82.3378619 L6.77907293,82.3378619 Z M10.3826685,83.0269687 L9.53017707,83.7599244 L10.3826685,84.4907408 L11.6779478,84.4907408 L11.6779478,85.7502924 L12.7020147,86.6262517 L12.7020147,80.8914578 L11.6779478,81.7675817 L11.6779478,83.0269687 L10.3826685,83.0269687 Z" fill="#FAAE29" id="_155619648" transform="translate(6.375000, 83.500000) scale(-1, 1) translate(-6.375000, -83.500000) "/><g fill="#FAAE29"><path d="M24.0290729,25.3378619 L22.4014143,24.0404612 L19.0029894,26.6956565 L22.4014143,29.3508518 L24.0290729,28.0534511 L22.6712802,28.0534511 L22.8561277,27.1491872 L24.6994098,27.1491872 L28.648338,30.2964206 L28.648338,31.370018 L27.1474375,31.370018 L27.1474375,30.1705312 L25.8885123,31.173861 L27.9687684,32.8319799 L26.9824019,33.6182534 L30.1121151,36.1125078 L30.1121151,37.391313 L25.3782099,33.6182534 L26.3645764,32.8319799 L24.2843203,31.173861 L26.0700899,29.7507356 L24.6820983,28.644555 L22.4081466,30.4570323 L17.625,26.6956565 L22.4081466,22.9341161 L24.6820983,24.746758 L26.0700899,23.6405775 L24.2843203,22.217452 L26.3645764,20.5593332 L25.3782099,19.7730597 L30.1121151,16 L30.1121151,17.2788052 L26.9824019,19.7730597 L27.9687684,20.5593332 L25.8885123,22.217452 L27.1474375,23.2207818 L27.1474375,22.021295 L28.648338,22.021295 L28.648338,23.0948924 L24.6994098,26.2421258 L22.8561277,26.2421258 L22.6712802,25.3378619 L24.0290729,25.3378619 Z M27.6326685,26.0269687 L26.7801771,26.7599244 L27.6326685,27.4907408 L28.9279478,27.4907408 L28.9279478,28.7502924 L29.9520147,29.6262517 L29.9520147,23.8914578 L28.9279478,24.7675817 L28.9279478,26.0269687 L27.6326685,26.0269687 Z" id="_155619648"/><path d="M24.0290729,53.3378619 L22.4014143,52.0404612 L19.0029894,54.6956565 L22.4014143,57.3508518 L24.0290729,56.0534511 L22.6712802,56.0534511 L22.8561277,55.1491872 L24.6994098,55.1491872 L28.648338,58.2964206 L28.648338,59.370018 L27.1474375,59.370018 L27.1474375,58.1705312 L25.8885123,59.173861 L27.9687684,60.8319799 L26.9824019,61.6182534 L30.1121151,64.1125078 L30.1121151,65.391313 L25.3782099,61.6182534 L26.3645764,60.8319799 L24.2843203,59.173861 L26.0700899,57.7507356 L24.6820983,56.644555 L22.4081466,58.4570323 L17.625,54.6956565 L22.4081466,50.9341161 L24.6820983,52.746758 L26.0700899,51.6405775 L24.2843203,50.217452 L26.3645764,48.5593332 L25.3782099,47.7730597 L30.1121151,44 L30.1121151,45.2788052 L26.9824019,47.7730597 L27.9687684,48.5593332 L25.8885123,50.217452 L27.1474375,51.2207818 L27.1474375,50.021295 L28.648338,50.021295 L28.648338,51.0948925 L24.6994098,54.2421258 L22.8561277,54.2421258 L22.6712802,53.3378619 L24.0290729,53.3378619 Z M27.6326685,54.0269687 L26.7801771,54.7599244 L27.6326685,55.4907408 L28.9279478,55.4907408 L28.9279478,56.7502924 L29.9520147,57.6262517 L29.9520147,51.8914578 L28.9279478,52.7675817 L28.9279478,54.0269687 L27.6326685,54.0269687 Z" id="_155619648"/><path d="M24.0290729,82.3378619 L22.4014143,81.0404612 L19.0029894,83.6956565 L22.4014143,86.3508518 L24.0290729,85.0534511 L22.6712802,85.0534511 L22.8561277,84.1491872 L24.6994098,84.1491872 L28.648338,87.2964206 L28.648338,88.370018 L27.1474375,88.370018 L27.1474375,87.1705312 L25.8885123,88.173861 L27.9687684,89.8319799 L26.9824019,90.6182534 L30.1121151,93.1125078 L30.1121151,94.391313 L25.3782099,90.6182534 L26.3645764,89.8319799 L24.2843203,88.173861 L26.0700899,86.7507356 L24.6820983,85.644555 L22.4081466,87.4570323 L17.625,83.6956565 L22.4081466,79.9341161 L24.6820983,81.746758 L26.0700899,80.6405775 L24.2843203,79.217452 L26.3645764,77.5593332 L25.3782099,76.7730597 L30.1121151,73 L30.1121151,74.2788052 L26.9824019,76.7730597 L27.9687684,77.5593332 L25.8885123,79.217452 L27.1474375,80.2207818 L27.1474375,79.021295 L28.648338,79.021295 L28.648338,80.0948925 L24.6994098,83.2421258 L22.8561277,83.2421258 L22.6712802,82.3378619 L24.0290729,82.3378619 Z M27.6326685,83.0269687 L26.7801771,83.7599244 L27.6326685,84.4907408 L28.9279478,84.4907408 L28.9279478,85.7502924 L29.9520147,86.6262517 L29.9520147,80.8914578 L28.9279478,81.7675817 L28.9279478,83.0269687 L27.6326685,83.0269687 Z" id="_155619648"/><path d="M27.0639605,7.65662268 L29.9953098,10.3373653 L29.9953098,11.7117832 L25.5614436,7.65662268 L26.4852934,6.81156175 L24.5368856,5.02947012 L26.2094716,3.49994168 L24.9094522,2.31105522 L22.7796255,4.25904622 L18.2999992,0.216796875 L19.5906504,0.216796875 L22.7733199,3.07015976 L24.2978161,1.67575618 L23.0260815,1.67575618 L23.1992132,0.703883057 L24.9256664,0.703883057 L28.6243081,4.08642599 L28.6243081,5.24029318 L27.218536,5.24029318 L27.218536,3.95112427 L26.0394026,5.02947012 L27.9878103,6.81156175 L27.0639605,7.65662268 Z M29.9705944,3.87219078 L29.9705944,0 L26.2390988,0 L26.2377406,0.00133339903 L27.2410158,0.988270913 L28.7653964,0.988270913 L28.7653964,2.68924361 L29.9705944,3.87219078 Z" id="_155603288"/><path d="M8.46396111,7.65662268 L11.3953103,10.3373653 L11.3953103,11.7117832 L6.96144421,7.65662268 L7.88529393,6.81156175 L5.93688622,5.02947012 L7.60947218,3.49994168 L6.30945276,2.31105522 L4.17962604,4.25904622 L-0.300000191,0.216796875 L0.990651019,0.216796875 L4.17332052,3.07015976 L5.69781668,1.67575618 L4.42608205,1.67575618 L4.5992138,0.703883057 L6.32566697,0.703883057 L10.0243087,4.08642599 L10.0243087,5.24029318 L8.61853659,5.24029318 L8.61853659,3.95112427 L7.43940312,5.02947012 L9.38781083,6.81156175 L8.46396111,7.65662268 Z M11.3705949,3.87219078 L11.3705949,0 L7.63909935,0 L7.63774112,0.00133339903 L8.64101632,0.988270913 L10.165397,0.988270913 L10.165397,2.68924361 L11.3705949,3.87219078 Z" id="_155603288" transform="translate(5.700000, 6.000000) scale(-1, 1) translate(-5.700000, -6.000000) "/></g><path d="M83.9899629,19.6554981 C87.6635935,23.3634571 89.9325033,28.4655373 89.9325033,34.0975501 C89.9325033,45.430654 80.7452086,54.6179489 69.4121043,54.6179489 C61.9385688,54.6179489 55.3981704,50.6227156 51.810187,44.6515267 C55.5288738,48.4049641 60.6869537,50.7298733 66.3880459,50.7298733 C77.7211496,50.7298733 86.9084444,41.5425784 86.9084444,30.2094747 C86.9084444,26.3499065 85.84291,22.7392073 83.9899629,19.6554981 L83.9899629,19.6554981 L83.9899629,19.6554981 Z M53.0575658,32.1918589 L51.8297193,34.8984869 L50.4735569,32.4858922 L47.5742588,32.4041787 L49.6148264,30.1739205 L49.0508084,27.4167911 L51.6681111,28.4510108 L54.2188283,26.8287255 L53.7958409,29.6981656 L55.9362876,31.4526671 L53.0575658,32.1918589 L53.0575658,32.1918589 Z M61.7314336,40.4000184 L60.5035871,43.1066464 L59.1474247,40.6940517 L56.2481266,40.6123382 L58.2886941,38.38208 L57.7246761,35.6249506 L60.3419789,36.6591703 L62.8926961,35.036885 L62.4697087,37.9063251 L64.6101555,39.6608266 L61.7314336,40.4000184 L61.7314336,40.4000184 Z M68.609868,19.6636155 L67.3820216,22.3702435 L66.0258589,19.9576488 L63.126561,19.8759353 L65.1671286,17.6456771 L64.6031105,14.8885477 L67.220413,15.9227674 L69.7711304,14.3004821 L69.3481433,17.1699222 L71.4885897,18.9244237 L68.609868,19.6636155 L68.609868,19.6636155 Z M77.2837357,27.871775 L76.0558893,30.578403 L74.6997266,28.1658083 L71.8004286,28.0840948 L73.8409964,25.8538366 L73.2769782,23.0967072 L75.8942813,24.1309269 L78.4449981,22.5086416 L78.0220111,25.3780817 L80.1624574,27.1325832 L77.2837357,27.871775 L77.2837357,27.871775 Z M65.1538007,30.2904069 L63.9259543,32.997035 L62.5697919,30.5844402 L59.6704938,30.5027268 L61.7110614,28.2724685 L61.1470434,25.5153391 L63.7643464,26.5495588 L66.3150631,24.9272735 L65.8920761,27.7967137 L68.0325225,29.5512151 L65.1538007,30.2904069 L65.1538007,30.2904069 Z" fill="#FFFFFF" id="Oval-148"/><g stroke="#262626" stroke-width="0.1" transform="translate(4.000000, 6.000000)"><path d="M8.37714125,14 L5.46793972,12.3873829 L3.93896845,12.3873829 L2.02518019,11.2516045 L2.02518019,9.69489068 L0,8.47101382 L0,5.52898618 L2.02518019,4.30510932 L2.02518019,2.74839551 L3.93896845,1.61261712 L5.46793972,1.61261712 L8.37714125,0 L14.6227651,0 L17.5320603,1.61261712 L19.0610315,1.61261712 L20.9748198,2.74839551 L20.9748198,4.30510932 L23,5.52898618 L22.9999064,8.47101382 L20.9748198,9.69489068 L20.9748198,11.2516045 L19.0610315,12.3873829 L17.5320603,12.3873829 L14.6227651,14 L8.37714125,14 Z" fill="#383739" id="_155960456"/><path d="M14.623319,14 L17.5496211,12.3720865 L19.0864947,12.3720865 L20.962887,11.2544035 L20.962887,9.68338921 L22.9999058,8.44790336 L23,5.55209664 L20.962887,4.31670392 L20.962887,2.74559653 L19.0864947,1.62791347 L17.5497153,1.62791347 L14.6234132,0 L8.3765868,0 L5.45028471,1.62791347 L3.91350535,1.62791347 L2.03701884,2.74559653 L2.03701884,4.31670392 L0,5.55209664 L0,8.44790336 L2.03701884,9.68338921 L2.03701884,11.2544035 L3.91341119,12.3720865 L5.45028471,12.3720865 L8.3765868,14 L14.623319,14 Z" fill="#28AE66" id="_155960384"/><path d="M17.8281492,11.4492119 L19.1091427,10.6661442 L19.1091427,9.17284206 L21,7.99588964 L21,7 L11,7 L11,13 L13.6956187,13 L16.4119508,11.4492119 L17.8281492,11.4492119 Z" fill="#FAAE29" id="_155960240"/><path d="M2.89076989,3.33385575 L2.89076989,4.82724665 L1,6.00411036 L1,7 L11,7 L11,1 L8.30438127,1 L5.58796179,2.55078807 L4.17185083,2.55078807 L2.89076989,3.33385575 Z" fill="#FAAE29" id="_155960168"/><path d="M2.89084076,10.6661442 L4.17182311,11.4492119 L5.58800909,11.4492119 L8.30431743,13 L11,13 L11,7 L1.0000874,7 L1,7.99588964 L2.89084076,9.17284206 L2.89084076,10.6661442 Z" fill="#FFFFFF" id="_155960096"/><path d="M19.1091427,4.82724665 L19.1091427,3.33385575 L17.8281492,2.55078807 L16.4119508,2.55078807 L13.6956187,1 L11,1 L11,7 L21,7 L21,6.00411036 L19.1091427,4.82724665 Z" fill="#FFFFFF" id="_155960024"/><path d="M18.5437401,3 L18,3.64233261 L18.4555783,4 L19,3.35665947 L18.5437401,3 L18.5437401,3 Z M17.2902057,3 L17.2902057,3.96520071 L16,5.54569119 L16.3312819,6 L17.6573589,4.37553089 L19,4.37553089 L17.2902057,3 L17.2902057,3 Z" fill="#CA3745" id="_155959880"/><path d="M16.5436264,3 L16,3.64233261 L16.4555783,4 L17,3.35665947 L16.5436264,3 L16.5436264,3 Z M15.2902057,3 L15.2902057,3.96520071 L14,5.54569119 L14.3311764,6 L15.6573589,4.3756679 L17,4.3756679 L15.2902057,3 L15.2902057,3 Z" fill="#CA3745" id="_155959736"/><path d="M18.5436783,4 L18,4.64233261 L18.4556401,5 L19,4.35665947 L18.5436783,4 L18.5436783,4 Z M17.2902057,4 L17.2902057,4.96520071 L16,6.54569119 L16.3311764,7 L17.6572534,5.3756679 L19,5.3756679 L17.2902057,4 L17.2902057,4 Z" fill="#CA3745" id="_155959592"/><path d="M18.5437401,13 L18,12.3576674 L18.4555783,12 L19,12.6433405 L18.5437401,13 L18.5437401,13 Z M17.2902057,13 L17.2902057,12.0347993 L16,10.4543088 L16.3312819,10 L17.6573589,11.6243321 L19,11.6243321 L17.2902057,13 L17.2902057,13 Z" fill="#CA3745" id="_155959448"/><path d="M16.5436264,13 L16,12.3577599 L16.4555783,12 L17,12.6432479 L16.5436264,13 L16.5436264,13 Z M15.2902057,13 L15.2902057,12.0347993 L14,10.4543088 L14.3311764,10 L15.6573589,11.6243321 L17,11.6243321 L15.2902057,13 L15.2902057,13 Z" fill="#CA3745" id="_155959304"/><path d="M18.5436783,11 L18,10.3577599 L18.4556401,10 L19,10.6433919 L18.5436783,11 L18.5436783,11 Z M17.2902057,11 L17.2902057,10.0347993 L16,8.45430881 L16.3311764,8 L17.6572534,9.6243321 L19,9.6243321 L17.2902057,11 L17.2902057,11 Z" fill="#CA3745" id="_155959160"/><path d="M4.45637355,13 L5,12.3576674 L4.54442172,12 L4,12.6433405 L4.45637355,13 L4.45637355,13 Z M5.70979427,13 L5.70979427,12.0347993 L7,10.4543088 L6.66882363,10 L5.34274662,11.6243321 L4,11.6243321 L5.70979427,13 L5.70979427,13 Z" fill="#CA3745" id="_155917160"/><path d="M6.45632171,13 L7,12.3577599 L6.54435988,12 L6,12.6432479 L6.45632171,13 L6.45632171,13 Z M7.70979427,13 L7.70979427,12.0347993 L9,10.4543088 L8.66882363,10 L7.34274662,11.6243321 L6,11.6243321 L7.70979427,13 L7.70979427,13 Z" fill="#CA3745" id="_155917016"/><path d="M4.45632171,11 L5,10.3577599 L4.54435988,10 L4,10.6433919 L4.45632171,11 L4.45632171,11 Z M5.70979427,11 L5.70979427,10.0347993 L7,8.45430881 L6.66871813,8 L5.34264111,9.6243321 L4,9.6243321 L5.70979427,11 L5.70979427,11 Z" fill="#CA3745" id="_155916872"/><path d="M4.45632171,3 L5,3.64233261 L4.54447347,4 L4,3.35665947 L4.45632171,3 L4.45632171,3 Z M5.70979427,3 L5.70979427,3.96520071 L7,5.54569119 L6.66871813,6 L5.34264111,4.37553089 L4,4.37553089 L5.70979427,3 L5.70979427,3 Z" fill="#CA3745" id="_155916728"/><path d="M6.45625994,3 L7,3.64233261 L6.54442172,4 L6,3.35665947 L6.45625994,3 L6.45625994,3 Z M7.70979427,3 L7.70979427,3.96520071 L9,5.54569119 L8.66871813,6 L7.34264111,4.3756679 L6,4.3756679 L7.70979427,3 L7.70979427,3 Z" fill="#CA3745" id="_155916584"/><path d="M4.45637355,4 L5,4.64233261 L4.54442172,5 L4,4.35665947 L4.45637355,4 L4.45637355,4 Z M5.70979427,4 L5.70979427,4.96520071 L7,6.54569119 L6.66882363,7 L5.34274662,5.3756679 L4,5.3756679 L5.70979427,4 L5.70979427,4 Z" fill="#CA3745" id="_155916440"/><path d="M5,5.97479061 L4.3624554,5.97479061 L4.21974202,5.82081116 L4.21974202,5.41275735 L4.57881255,5.19829187 L3.99048577,5 L3.9763974,5.00882948 L3.21672308,5.48430086 L3.21672308,5.61212196 L2,7 L3.21672308,8.38787804 L3.21672308,8.51578166 L3.99048577,9 L4.57881255,8.80170813 L4.21974202,8.58724265 L4.21974202,8.17918884 L4.3624554,8.02520939 L5,8.02520939 L5,5.97479061 Z" fill="#383739" id="_155916224"/><path d="M3.26129363,8.53562591 L3.26138989,8.4140285 L2,7 L3.26138989,5.58588617 L3.26129363,5.46437409 L4.01629877,5 L4.47542351,5.15206076 L4.17915811,5.32596638 L4.17915811,5.80271354 L4.36588809,6.00068265 L5,6.00068265 L5,7.99931735 L4.36588809,7.99931735 L4.17915811,8.19728646 L4.17915811,8.67403362 L4.47542351,8.84793924 L4.01629877,9 L3.26129363,8.53562591 Z" fill="#CA3745" id="_155916152"/><path d="M19.7386101,8.53562591 L19.7386101,8.4140285 L21,7 L19.7386101,5.58588617 L19.7386101,5.46437409 L18.983605,5 L18.5244802,5.15206076 L18.8208419,5.32596638 L18.8208419,5.80271354 L18.6340157,6.00068265 L18,6.00068265 L18,7.99931735 L18.6340157,7.99931735 L18.8208419,8.19728646 L18.8208419,8.67403362 L18.5244802,8.84793924 L18.983605,9 L19.7386101,8.53562591 Z" fill="#CA3745" id="_155916008"/><path d="M13,1 L13,3.02741865 L11.3036314,4 L9.71592566,2.2712086 L9.19806976,2.2712086 L8.21119263,2.75907902 L8,2.27447705 L9.09172125,1.74106624 L10.6971324,1.74106624 L11.5138982,1 L13,1 L13,1 Z M13,1.22062028 L13,3.02741865 L14.6963686,4 L16.2840743,2.2712086 L16.8019302,2.2712086 L17.7888074,2.75907902 L18,2.27447705 L16.9082788,1.74106624 L15.3029833,1.74106624 L14.4862175,1 L13.0001157,1 L13.0001157,1.22062028 L13,1.22062028 L13,1.22062028 Z" fill="#CA3745" id="_155915936"/><path d="M13,14 L13,11.9725813 L11.3036314,11 L9.71592566,12.7287914 L9.19806976,12.7287914 L8.21119263,12.240812 L8,12.725523 L9.09172125,13.2589338 L10.6971324,13.2589338 L11.5138982,14 L13,14 L13,14 Z M13,13.7793797 L13,11.9725813 L14.6963686,11 L16.2840743,12.7287914 L16.8019302,12.7287914 L17.7888074,12.240812 L18,12.725523 L16.9082788,13.2589338 L15.3029833,13.2589338 L14.4862175,14 L13.0001157,14 L13.0001157,13.7793797 L13,13.7793797 L13,13.7793797 Z" fill="#CA3745" id="_155915864"/><path d="M11,12 L11.2905474,12.5 L11,13 L11,12 L11,12 Z M10.1389704,12.4614327 L10.1497367,12.4614327 L10.9110168,13 L10.999908,13 L10.999908,12.5798625 L10.6005419,12.2854291 L11,11.9909958 L11,11.2018186 L8.14904146,9.51514748 L6.04151117,9.51514748 L6.04151117,7.82040364 L4.95337662,7 L3.31211083,7 L2.89958591,7.44967842 L2.48706099,7 L2,7.00008871 L2.66861612,7.78624972 L2.66861612,7.91390552 L2.93344921,8.13568419 L3.35894893,7.81632291 L3.1092071,7.81818585 L3.1092071,7.73834553 L3.66574306,7.19143934 L4.88868667,7.19143934 L5.84909769,7.91550233 L5.84909769,9.70667554 L8.09613005,9.70667554 L10.8074945,11.3107563 L10.8074945,11.7933466 L10.3542048,12.0845864 L10.1851644,12.0845864 L9.705649,11.7751608 L9.66874904,11.6603682 L9.43492664,11.9680195 L10.044282,12.4614327 L10.1389704,12.4614327 L10.1389704,12.4614327 Z M3.50007081,7 L4,7.35210543 L3,7.35210543 L3.50007081,7 L3.50007081,7 Z M11.290364,2 L11,2.5001032 L11.290364,3 L11.290364,2 L11.290364,2 Z M18,7 L18.5,7.35210543 L19,7 L18,7 L18,7 Z M11.0889832,1 L11.000092,1 L11.000092,1.41996008 L11.3996421,1.71457086 L11,2.00918164 L11,2.79818141 L13.8509585,4.48485252 L15.9584888,4.48485252 L15.9584888,6.17959636 L17.0466234,7 L18.6876131,7 L19.10023,6.55041029 L19.512847,6.99991129 L20,6.99991129 L19.3313839,6.21375028 L19.3313839,6.08609448 L19.0665508,5.86431581 L18.6410511,6.18367709 L18.8907929,6.18172544 L18.8907929,6.26165447 L18.3342569,6.80847194 L17.1113133,6.80847194 L16.1509943,6.08440896 L16.1509943,4.29332446 L13.9038699,4.29332446 L11.1925055,2.68924373 L11.1925055,2.20656465 L11.6457952,1.91541362 L11.8148356,1.91541362 L12.294351,2.22483921 L12.331251,2.33963185 L12.5650734,2.03198048 L11.955718,1.5384786 L11.8502633,1.5384786 L11.0889832,1 Z" fill="#FAAE29" id="_155915720"/><path d="M11.2903669,13 L11,12.5 L11.2903669,12 L11.2903669,13 L11.2903669,13 Z M4,7 L3.5,7.35210543 L3,7 L4,7 L4,7 Z M11.8610296,12.4614327 L11.8502633,12.4614327 L11.0889832,13 L11.000092,13 L11.000092,12.8899978 L11.000092,12.5800399 L11.3996421,12.2854291 L11,11.9908184 L11,11.2018186 L13.8509585,9.51514748 L15.9584888,9.51514748 L15.9584888,7.82040364 L17.0466234,7 L18.6877051,7 L19.10023,7.44967842 L19.512755,7 L20,7.00008871 L19.3313839,7.78624972 L19.3313839,7.91390552 L19.0665508,8.13568419 L18.6410511,7.81632291 L18.8907929,7.81818585 L18.8907929,7.73834553 L18.3342569,7.19143934 L17.1113133,7.19143934 L16.1509943,7.91550233 L16.1509943,9.70667554 L13.9038699,9.70667554 L11.1925055,11.3107563 L11.1925055,11.7933466 L11.6457952,12.0845864 L11.8148356,12.0845864 L12.294351,11.7751608 L12.331251,11.6603682 L12.5650734,11.9680195 L11.955718,12.4614327 L11.8610296,12.4614327 L11.8610296,12.4614327 Z M18.4999292,7 L18,7.35210543 L19,7.35210543 L18.4999292,7 L18.4999292,7 Z M10.1496534,1.5384786 L10.9109257,1 L10.999908,1 L10.999908,1.41996008 L10.6002699,1.71457086 L10.999908,2.00918164 L11,2.79818141 L8.14897859,4.48485252 L6.04156187,4.48485252 L6.04156187,6.17959636 L4.95334642,7 L3.31191338,7 L2.89939268,6.55041029 L2.48677995,6.99991129 L2,6.99991129 L2.66870131,6.21375028 L2.66870131,6.08609448 L2.93353169,5.86431581 L3.35893503,6.18367709 L3.10919575,6.18172544 L3.10919575,6.26165447 L3.66581805,6.80847194 L4.88865714,6.80847194 L5.84905834,6.08440896 L5.84905834,4.29332446 L8.09606773,4.29332446 L10.8074965,2.68924373 L10.8074965,2.20656465 L10.3542114,1.91541362 L10.1850807,1.91541362 L9.70557021,2.22483921 L9.66867063,2.33963185 L9.43494264,2.03198048 L10.0442918,1.5384786 L10.1496534,1.5384786 L10.1496534,1.5384786 Z M11,3 L11.2905503,2.5 L11,2 L11,3 L11,3 Z" fill="#FFFFFF" id="_155915648"/><path d="M12,3 L9.13895774,4.62396836 L7.05775189,4.62396836 L7.05775189,6.23486933 L6,7 L12,7 L12,3 Z" fill="#28AE66" id="_155915576"/><path d="M11,11 L13.860945,9.3760827 L15.9422153,9.3760827 L15.9422153,7.76514712 L17,7 L11,7 L11,11 Z" fill="#28AE66" id="_155915504"/><path d="M17,7 L15.9422153,6.23485288 L15.9422153,4.6239173 L13.860945,4.6239173 L11,3 L11,7 L17,7 Z" fill="#CA3745" id="_155915432"/><path d="M6,7 L7.05782845,7.76513067 L7.05782845,9.37603164 L9.13890911,9.37603164 L12,11 L12,7 L6,7 Z" fill="#CA3745" id="_155915360"/><path d="M8.45632171,4 L9,4.64224014 L8.54435988,5 L8,4.35675209 L8.45632171,4 L8.45632171,4 Z M9.70979427,4 L9.70979427,4.96506371 L11,6.54555419 L10.6687181,7 L9.34264111,5.37553089 L8,5.37553089 L9.70979427,4 L9.70979427,4 Z" fill="#CA3745" id="_155915216"/><path d="M15.5436264,10 L15,9.35766739 L15.4555783,9 L16,9.64334053 L15.5436264,10 L15.5436264,10 Z M14.2902057,10 L14.2902057,9.03493629 L13,7.45444581 L13.3312819,7 L14.6573589,8.62446911 L16,8.62446911 L14.2902057,10 L14.2902057,10 Z" fill="#CA3745" id="_155915072"/><path d="M8.45637355,10 L9,9.35766739 L8.54442172,9 L8,9.64334053 L8.45637355,10 L8.45637355,10 Z M9.70979427,10 L9.70979427,9.03493629 L11,7.45444581 L10.6688236,7 L9.34274662,8.62446911 L8,8.62446911 L9.70979427,10 L9.70979427,10 Z" fill="#28AE66" id="_155914928"/><path d="M15.5436264,4 L15,4.64224014 L15.4555783,5 L16,4.35675209 L15.5436264,4 L15.5436264,4 Z M14.2902057,4 L14.2902057,4.96506371 L13,6.54555419 L13.3312819,7 L14.6573589,5.37553089 L16,5.37553089 L14.2902057,4 L14.2902057,4 Z" fill="#28AE66" id="_155914784"/><path d="M15,7.00004533 L12,9 L9,7.00004533 L12,5 L15,7.00004533 Z" fill="#383739" id="_155914712"/><path d="M12,5 L9,7 L12,7 L12,5 L12,5 Z M12,7 L15,7 L12,5 L12,7 L12,7 Z M9,7 L12,9 L12,7 L9,7 L9,7 Z M12,9 L15,7 L12,7 L12,9 L12,9 Z" fill="#FFFFFF" id="_155914640"/><path d="M10.1911199,6 L10.1911199,6.48207615 L9,6.48207615 L9,7 L11,7 L11,6 L10.1911199,6 L10.1911199,6 Z M11,7 L13,7 L13,6.48207615 L11.8088801,6.48207615 L11.8088801,6 L11,6 L11,7 L11,7 Z M9,8 L9,8.51792385 L10.1911199,8.51792385 L10.1911199,9 L11,9 L11,8 L9,8 L9,8 Z M11,9 L11.8088801,9 L11.8088801,8.51792385 L13,8.51792385 L13,8 L11,8 L11,9 L11,9 Z" fill="#CA3745" id="_155914496"/></g></g></g></g></svg>