<?xml version="1.0" ?><svg height="120px" version="1.1" viewBox="0 0 180 120" width="180px" xmlns="http://www.w3.org/2000/svg" xmlns:sketch="http://www.bohemiancoding.com/sketch/ns" xmlns:xlink="http://www.w3.org/1999/xlink"><title/><defs/><g fill="none" fill-rule="evenodd" id="Page-1" stroke="none" stroke-width="1"><g id="zambia"><rect d="M0,0 L0,120 L180,120 L180,0 L0,0 Z M0,0" fill="#57BB63" height="120" id="Rectangle-325" width="180" x="0" y="0"/><g id="Rectangle-+-Rectangle-+-Rectangle" transform="translate(90.000000, 53.333333)"><rect d="M60,0 L60,66.6666667 L90,66.6666667 L90,0 L60,0 Z M60,0" fill="#E5B731" height="66.6666667" id="Rectangle" width="30" x="60" y="0"/><rect d="M30,0 L30,66.6666667 L60,66.6666667 L60,0 L30,0 Z M30,0" fill="#1C1C1C" height="66.6666667" id="Rectangle" width="30" x="30" y="0"/><rect d="M0,0 L0,66.6666667 L30,66.6666667 L30,0 L0,0 Z M0,0" fill="#CA4638" height="66.6666667" id="Rectangle" width="30" x="0" y="0"/></g><g fill="#E5B731" id="Group" stroke="#000000" stroke-width="0.1" transform="translate(102.280298, 16.200000)"><path d="M48.7862065,4.60705465 C48.7862065,4.60705465 56.8174365,1.45945535 57.5955886,0.810434987 C57.9494774,1.19982853 54.3760367,5.15871262 47.4417631,6.61895333 C53.7391937,5.25605633 59.1169857,0.9726714 60.213746,1.10247547 C60.5321769,1.16737751 60.4612516,5.28849801 46.0265719,8.85797647 C56.0034623,6.45667583 61.8057043,2.04351763 61.7349563,2.53026423 C61.8057043,2.62760794 60.7444019,6.00238492 52.005749,8.6308156 C54.4469621,8.11154513 61.0628327,4.41234855 60.9920849,5.1262616 C61.2043099,5.41830209 54.5884485,13.2061925 42.6302624,10.6752194 C52.1826935,12.9466571 58.3739274,7.46262653 59.2584628,7.5599796 C59.4354072,7.59242593 57.4893921,12.3625351 45.4606355,12.6545961 C51.2275969,12.1029998 49.5645453,12.6220788 49.5645453,12.6220788 C49.5645453,12.6220788 46.168049,15.0558024 42.0641486,13.4010115 C45.2836911,14.2123113 45.6373932,14.2446689 45.7081504,14.5042051 C45.4959161,14.8286247 42.8424781,15.3155039 40.2952459,14.0498507 C42.3471121,14.8286247 44.1869214,14.9585595 44.2222113,15.2506205 C44.1869214,15.3478625 42.8779361,16.0293945 41.7104371,15.5426816 C40.5429289,15.0558024 29.7875317,8.9877768 29.7875317,8.9877768 L48.1140735,4.37990687 L48.7862065,4.60705465 L48.7862065,4.60705465 L48.7862065,4.60705465 L48.7862065,4.60705465 Z M48.7862065,4.60705465" id="Shape"/><path d="M27.2413547,21.0212791 C25.6298232,21.0212791 25.5853537,22.3365987 25.5853537,22.3365987 C25.5853537,22.3365987 25.4523465,22.4315779 25.5410709,23.069098 C25.8071131,22.6349743 25.9403071,22.4993758 25.9403071,22.4993758 C26.1177745,22.5265637 26.8569479,22.7299526 28.0249791,21.8892023 C26.9603243,22.9061621 27.5962895,23.2859184 27.5962895,23.2859184 C27.5962895,23.2859184 27.3449179,24.0860503 28.1580049,24.2488274 C27.9067827,23.9232723 28.0546193,23.6384943 28.0546193,23.6384943 C28.0546193,23.6384943 29.1930103,23.5300845 29.1191061,22.2553768 C29.1635569,23.4079183 29.8436275,23.6926954 29.8436275,23.6926954 C29.8436275,23.6926954 29.8436275,24.3300493 30.5828011,24.3844176 C30.1837609,24.0588624 30.2723079,23.5571062 30.2723079,23.5571062 C30.2723079,23.5571062 31.2334089,22.9197514 30.4201537,21.8348424 C30.908105,21.5770777 31.3073319,20.8585019 31.3073319,20.8585019 C31.3073319,20.8585019 30.6420813,20.6007447 30.3315881,20.3839243 C30.1835741,20.0989801 30.3167774,18.5394943 30.3167774,18.5394943 L29.9175412,16.5188559 L28.7789727,19.6651823 C28.8232461,19.2176188 28.8528957,21.0212791 27.2413547,21.0212791 L27.2413547,21.0212791 L27.2413547,21.0212791 L27.2413547,21.0212791 L27.2413547,21.0212791 Z M27.2413547,21.0212791" id="Shape"/><path d="M35.2006042,16.4835818 C35.2358848,16.5161075 36.4035611,17.716869 37.5356207,17.6518259 C37.9600613,17.3273989 36.651076,16.6135166 36.651076,16.4512233 C37.110984,16.8406859 39.0568311,18.3657156 40.2952459,17.8141118 C40.7904345,17.1651139 39.4107105,17.2625145 37.8893228,15.5101559 C38.9506251,16.1591622 41.6042406,17.5869425 42.8424781,17.0353453 C43.373302,16.5161075 40.0828435,14.8935081 38.9860831,13.6280211 L36.1558875,12.2976508 L32.2994832,15.1857363 L35.2006042,16.4835818 L35.2006042,16.4835818 L35.2006042,16.4835818 L35.2006042,16.4835818 Z M35.2006042,16.4835818" id="Shape"/><path d="M30.8490021,6.61893651 C30.8490021,6.61893651 32.1579968,5.90504681 37.3941249,6.26199213 C37.9602388,6.32687549 40.9673882,5.32095837 41.9226621,5.02890855 C43.4438725,4.76930975 48.2908405,3.79580723 49.599994,2.88720674 C50.5198193,2.78987237 49.3521335,4.44480891 48.1848214,4.83419311 C46.9463879,5.35340285 42.453318,6.78119067 40.861173,6.5864911 C42.7717395,6.61895333 41.7104371,8.04672433 38.5261752,7.365281 C40.0475629,8.14407087 39.4814491,8.27387027 39.4814491,8.27387027 C39.4814491,8.27387027 36.7927305,8.40366967 36.0851396,7.85202567 C37.8895002,8.46857727 37.1464419,8.69571573 37.1464419,8.69571573 C37.1464419,8.69571573 35.3068101,8.85796053 34.4575459,8.50101527 C35.7665407,8.85796053 35.0943983,9.0851214 35.0943983,9.0851214 C35.0943983,9.0851214 34.033096,9.2473672 33.1485606,8.955322 C32.2641933,8.66327687 30.91975,6.61893651 30.8490021,6.61893651 L30.8490021,6.61893651 L30.8490021,6.61893651 L30.8490021,6.61893651 L30.8490021,6.61893651 Z M30.8490021,6.61893651" id="Shape"/><path d="M32.9485129,17.1562097 L33.1408004,20.3295569 C33.1408004,20.3295569 33.0372466,20.4923349 32.9485129,20.5873142 C32.8597699,20.6821337 30.4940673,20.2481688 30.8193713,21.9026329 C30.8193713,22.5807657 30.8341914,22.7569733 31.3369721,23.1367306 C31.2037781,22.6891745 31.2482383,22.3773758 31.2482383,22.3773758 C31.2482383,22.3773758 31.9134889,22.7435429 32.5641061,21.7400219 C32.1205964,22.7299526 32.4309029,23.0825295 32.5344659,23.1097089 C32.6380197,23.2860771 32.3571667,24.0860503 33.2441767,24.0724601 C32.9042301,23.7740845 33.0668774,23.3401186 33.0668774,23.3401186 C33.0668774,23.3401186 33.9983477,23.2046881 33.6730344,21.6586339 C34.0131585,21.346668 34.1461749,21.6450427 34.1461749,21.6450427 C34.1461749,21.6450427 34.2495606,22.5671746 35.0628251,22.3773758 C35.4325893,22.5671746 35.0037316,23.0689308 35.0037316,23.0689308 C35.0037316,23.0689308 35.5950592,23.0825295 35.7725359,22.6213767 C35.9500126,22.1603901 36.1569427,21.3330778 35.1810215,20.9940912 C35.0628251,20.6687032 35.5656058,20.6415144 35.5656058,20.6415144 C35.5656058,20.6415144 36.1865735,20.8313131 36.3638728,21.1160995 C36.5413495,21.4008766 36.4822467,20.3703266 35.713433,20.2617581 C34.767152,20.2345786 34.7080585,20.0583701 34.7080585,20.0177507 C34.7080585,19.9769811 34.5454018,17.7123417 34.4714882,17.0613892 C34.4714882,17.0613892 34.5454018,17.7123417 34.4714882,17.0613892 L32.9485129,17.1562097 L32.9485129,17.1562097 L32.9485129,17.1562097 L32.9485129,17.1562097 Z M32.9485129,17.1562097" id="Shape"/><path d="M36.2395037,19.8604767 C36.2511394,19.7150149 34.6253201,17.7071626 35.0377701,17.4476273 C35.4500428,17.52545 36.126238,18.4386861 36.6740018,18.1422565 C36.5079927,17.7862889 36.0186313,17.9867625 35.4629299,17.0754725 C34.9074058,16.0452484 34.8262549,14.4987085 32.8804078,12.8117104 C34.1401797,14.5969198 36.997905,15.6433237 37.118931,15.1227907 C37.2399476,14.6022577 34.6025623,12.6338891 34.7376986,12.159472 C35.2621725,13.1337076 37.9103156,15.3045033 39.8614482,15.1247367 C39.9951744,14.706791 38.2636721,13.8632924 37.8180519,13.0756226 C36.5716901,12.3076821 33.2362297,9.67064987 33.1693759,9.05907 C31.9556519,7.43543867 31.1979603,6.94426193 30.8451267,6.75725907 C30.7087577,6.60993801 30.6745417,6.46909779 30.6478992,6.37955913 C29.8944379,4.75038077 30.8924071,4.22134979 31.4765161,4.14312183 C31.9572394,4.09412313 32.0967835,4.1601271 32.4427346,4.00648203 C32.0330954,3.85950461 31.6236429,3.72205237 31.2141811,3.57507493 C31.7481895,3.93434272 33.1122248,3.61804102 32.8165517,4.65285962 C33.4145936,4.44416455 34.6870657,3.05561585 31.3743631,2.74224641 C30.2963076,1.60788957 25.8639095,0.9559743 24.7544582,5.90684165 C24.8430144,5.97625321 24.8894077,6.03328949 25.1713253,6.22639219 C23.7716546,5.60413763 19.9958783,5.12429119 18.6351954,4.9226373 C14.9592655,3.94987252 11.1416624,1.60563901 10.7746904,1.89393479 C10.2838629,2.09374901 12.9956848,4.40778206 12.8547307,4.45900331 C10.5033626,3.20151937 8.35530127,2.31061519 6.35655206,1.49990939 C4.95042845,1.01781333 3.54205427,-0.104618346 3.38675631,0.108904682 C2.86925829,1.09216585 5.64110751,3.56375677 6.15670049,3.85449921 C6.6724522,4.13261611 10.7275968,5.85790739 10.6678029,5.87944739 C4.55998901,3.33671171 3.53594695,2.87573916 3.22945059,2.58256873 C2.69111855,2.47135745 1.37975191,0.847368447 1.01429275,0.951800027 C0.814217047,1.13208761 1.2154984,3.69811799 4.1300387,4.84997504 C4.60509359,5.16753743 10.3774713,7.0668334 10.3209458,7.21574387 C10.3068261,7.2529556 3.70951087,4.71829395 3.45324588,4.62767389 C2.1812687,4.17019392 0.620510153,2.56662804 0.328721807,2.74695298 C0.0502313741,2.91058081 1.04821923,4.64623868 2.33352234,5.19061267 C3.00722415,5.46329741 5.59139909,6.63723702 7.91962653,7.38440607 C8.06821953,7.43369147 3.73465923,5.87712026 1.6511358,5.0785516 C0.706442313,4.59765087 0.261569211,3.99822687 0.117673461,4.12719982 C-0.0951772013,4.2561541 0.461551527,6.82012533 7.15699493,8.26688047 C7.33339773,8.33574387 9.51380733,7.79311427 9.40604193,7.8650836 C9.37908187,7.88308153 7.24086333,8.31003327 7.03267253,8.29544293 C6.84738887,8.26948587 5.67598651,8.42263693 5.65479763,8.4783154 C5.58402173,8.65175233 6.07921025,9.56980887 9.53622887,9.37835907 C9.978179,9.35399047 12.3765381,8.57727373 12.1750429,8.74435587 C12.0742907,8.827945 8.90913513,9.771276 8.6680824,9.7898856 C8.458715,9.8170184 7.3467984,9.92366507 7.30569067,10.0321383 C7.25548727,10.1800795 8.1287138,10.8334693 9.9852202,10.9381539 C11.6289693,11.0182486 14.7523821,10.0169437 14.6897307,10.0818598 C14.6270605,10.1467675 11.6786684,11.0734265 11.6015143,11.1298988 C11.4948322,11.1852364 10.4151799,11.238952 10.3772845,11.3150041 C10.2893073,11.5041594 11.9346906,12.9154341 16.8008491,11.4093389 C16.3120014,12.0149786 13.9532933,12.4292058 13.9566831,12.538259 C13.9457479,12.6173843 14.4763383,13.0875926 15.3009771,13.2558747 C15.7132684,13.340012 16.2777854,13.3228555 16.7934344,13.2481061 C17.7196191,13.078045 18.6957084,12.7419739 19.9358883,11.6907177 C20.084089,12.0206414 16.8378946,13.5273791 16.9903163,13.6710638 C17.6942093,14.2697528 20.0324009,13.5938845 20.1855229,13.51541 C20.3388225,13.4367693 24.688118,11.1873404 24.6731205,10.9269945 C24.7406933,11.2606358 19.0658274,14.0888489 19.1270408,14.2048685 C19.4913327,14.738014 21.4299425,14.1768701 21.5225516,14.127848 C21.6150019,14.0789763 23.9965798,12.8989294 24.0618461,12.86414 C24.1269535,12.8293516 21.2628781,14.4016253 21.5179757,14.6409299 C21.3946619,15.6619333 25.99094,13.9362703 26.3511697,13.7213885 C26.5312891,13.6139472 24.1431744,14.6844563 24.1368243,15.1930119 C24.9058247,16.3855293 27.3681985,16.0072261 27.7480109,15.7449341 C27.9380104,15.6137134 27.5244957,16.6308235 27.6576897,16.5384339 C27.7040923,16.5193405 28.1932855,15.9887752 28.3813427,15.6048092 C28.3213527,15.9379733 28.0514442,16.4628673 27.8939051,17.0651143 C27.7361977,17.6673548 27.6910278,18.3469398 27.4745819,19.0689231 C27.4249949,19.3860597 28.9919074,18.4488845 28.7643301,16.2085102 C28.8984111,17.3738397 28.2694964,19.5528878 28.4340767,19.6661507 C28.7632748,19.8926775 29.6733881,18.5809159 29.7652969,17.6938909 C30.0355695,18.1419306 30.6027386,19.0771755 31.0906991,19.2923747 C31.0376009,18.6145687 31.1000469,18.6456414 30.8804165,17.9794785 C31.0070736,17.0950505 31.0247232,15.8709851 31.0554093,14.4888359 C32.3813439,16.8185174 32.9102254,17.8023006 32.5397609,19.5863829 C32.9340384,19.7371825 33.5638309,18.3411182 33.5130299,17.6225331 C34.0193405,19.6192251 36.2047461,19.9185701 36.2395037,19.8604767 C36.2395037,19.8604767 36.2047461,19.9185701 36.2395037,19.8604767 L36.2395037,19.8604767 L36.2395037,19.8604767 L36.2395037,19.8604767 L36.2395037,19.8604767 Z M36.2395037,19.8604767" id="Shape"/><path d="M14.1547044,5.06960539 C14.1547044,5.06960539 13.2522113,5.69501822 12.1291352,5.65824351 C12.4099042,6.6883322 14.7363013,5.89737436 14.7363013,5.89737436 C14.7363013,5.89737436 13.613216,7.0378348 12.8110175,7.22177187 C13.2923385,7.5896618 15.317917,7.46091107 15.6589188,7.27696567 C15.9997619,7.09301273 16.6014925,6.37562859 16.6014925,6.37562859 C16.6014925,6.37562859 14.5156998,8.58296833 14.2148812,8.5645884 C14.1747633,8.82210753 16.4009218,8.7301306 16.8622399,8.34385333 C17.3233899,7.95756013 18.4866585,7.3873374 18.4866585,7.3873374 C18.4866585,7.3873374 15.4382332,9.3371514 15.297802,9.3371514 C16.4409743,9.61308127 18.7272909,9.0060446 20.1913408,8.17829527 C18.0253311,9.50270953 17.8249285,9.74182447 16.7218087,10.1832956 C17.7046123,10.3856517 18.2058054,10.9926884 21.5350837,9.66825173 C23.440346,8.8405192 24.5231735,7.33214453 24.5231735,7.33214453 C23.3399673,8.78532447 21.4747575,10.0178496 19.4093039,11.2318351 C19.2888103,11.4525394 21.6151701,12.3537981 24.5833316,9.52110433" id="Shape"/><path d="M30.2790221,11.2133927 C30.2790221,11.2133927 30.4795928,12.0779243 31.2817446,12.7401939 C32.0840832,13.4023059 32.1442413,14.0461341 32.1442413,14.0461341" id="Shape"/><path d="M29.8780303,5.58466982 C29.8780303,5.58466982 30.1587059,6.35722536 30.9809633,6.85389027 C31.8233451,7.35053933 33.0869924,8.91407607 33.1871937,9.18998913 C33.2842199,9.5239404 33.7686505,11.9308403 33.7286167,12.1882717" id="Shape"/><path d="M24.7639833,6.78030073 C24.8241321,7.07460953 23.5805998,8.5645884 25.2852821,10.3120622 C23.7409592,12.04103 23.7411366,12.261893 23.7411366,12.261893 C23.7411366,12.261893 24.6034372,12.7033007 26.1477601,11.4892665 C28.6946467,14.3589011 27.8459242,15.6721243 27.8459242,15.6721243" id="Shape"/><path d="M27.643047,13.6463057 C27.643047,13.6463057 27.4084191,13.338065 27.8266964,12.1869774 C28.2033337,12.6031433 28.6221432,12.6919741 28.8057927,12.8604159 C28.9892553,13.0288558 30.9123446,13.2841897 31.0345939,14.4629424" id="Shape"/><path d="M29.9037857,2.84188738 C29.9037857,2.75529219 29.5165587,1.99318354 28.0719141,2.94581468 C28.8461907,2.98909827 29.6109421,3.39614143 29.9037857,2.84188738 C29.9037857,2.84188738 29.6109421,3.39614143 29.9037857,2.84188738 L29.9037857,2.84188738 L29.9037857,2.84188738 L29.9037857,2.84188738 L29.9037857,2.84188738 Z M29.9037857,2.84188738" id="Shape"/><path d="M43.6915648,6.32689137 C43.7623033,6.35932931 48.0078677,7.2030352 49.4230682,6.78119067 C47.6187076,8.9877768 44.0099863,7.4950804 44.0099863,7.4950804 C45.7788796,7.98182513 45.8498049,7.94938713 46.415732,8.40366967 C46.5926765,8.82551513 43.1609089,8.6308156 42.0286813,8.04672433 C45.1774945,8.955322 45.2482425,8.8904228 45.3544297,9.2473672 C45.4961029,9.73411187 40.1890494,9.11756027 39.7291321,8.46857727 C41.1443233,9.47452147 41.9226621,9.66922853 42.701001,10.123511 C41.7457271,10.5129186 39.9768151,10.9022374 36.7218145,8.79307627 C41.0026595,12.3625351 44.859073,12.1353658 45.4606355,12.7843637 C43.9747057,14.7962661 38.2077443,11.5837685 35.5543063,9.9612494 C32.9008777,8.33876947 41.3565483,13.8877245 42.1350645,13.7903154 C41.7457271,14.3419117 38.9508026,13.8551988 38.7738488,13.5956635" id="Shape"/><path d="M44.7883251,10.0586118 C44.2931273,10.123511 42.8071975,10.123511 42.5949725,10.0910572" id="Shape"/><path d="M12.9112841,4.48099529 C12.9112841,4.48099529 16.1401837,6.04452082 17.5038549,5.93415747 C17.1429155,6.24686109 16.6013244,6.37562859 16.6013244,6.37562859 C16.9423355,6.50439516 17.8849092,6.96426113 19.3089159,6.6699374 C18.9679141,6.982641 18.5267016,7.33215947 18.5267016,7.33215947 C18.5267016,7.33215947 19.7501283,7.75521987 21.1339145,7.09301273 C20.712817,7.57125853 20.4720071,7.920777 20.4720071,7.920777 L21.4347051,7.975955" id="Shape"/></g></g></g></svg>