<?xml version="1.0" ?><svg height="120px" version="1.1" viewBox="0 0 180 120" width="180px" xmlns="http://www.w3.org/2000/svg" xmlns:sketch="http://www.bohemiancoding.com/sketch/ns" xmlns:xlink="http://www.w3.org/1999/xlink"><title/><defs/><g fill="none" fill-rule="evenodd" id="Asia-Pacific" stroke="none" stroke-width="1"><g id="Papua-New-Guinea" transform="translate(-400.000000, -201.000000)"><g transform="translate(400.000000, 201.000000)"><rect d="M0,120 L0,0 L180,0 L180,120 L0,120 Z M0,120" fill="#CA4638" height="120" id="Oval-15-copy" width="180" x="0" y="0"/><path d="M134.622803,49.6457104 C134.562285,49.9559839 134.446002,50.1669623 134.226924,50.1669623 C133.420446,50.1669623 130.194976,47.8212061 129.901812,48.1876068 C129.608647,48.5540075 131.074689,51.6330049 130.781526,51.7796982 C130.48836,51.9263893 129.535191,50.9732197 129.535191,51.7796982 C129.535191,52.5861745 132.614188,56.0317936 132.98081,56.6181227 C132.687644,56.9847422 132.321025,56.4716504 131.514546,56.5448854 C131.294618,57.1314355 134.813472,61.4565472 134.520309,61.5300033 C134.227143,61.6034594 132.687425,60.8702181 132.247569,60.7969809 C132.320804,61.3833099 133.273973,62.4829519 133.71383,63.7292871 C127.115978,61.7499317 123.743818,57.424599 122.57072,56.3249571 C121.98417,56.3249571 122.717411,58.0843842 122.277554,58.0843842 C121.837697,58.0843842 119.931579,56.4716504 118.905393,55.3720085 C118.538992,55.2987712 119.125322,56.9847422 118.685465,57.7912207 C118.319064,57.7912207 114.873226,54.9323705 112.600705,52.4397022 C110.328186,49.9470339 110.768043,45.2553027 110.548114,45.6951595 C110.328186,46.1350162 108.275375,48.9206292 107.469117,49.5071771 C107.175951,49.5071771 107.908974,46.2082513 107.249189,46.5014169 C106.589404,46.7945804 104.536592,49.1405576 103.876807,49.5804143 C103.510185,49.360486 104.610048,46.6478892 103.876807,46.9412737 C103.143566,47.2346582 100.944501,49.8003427 100.577881,49.7271055 C100.064787,48.920848 101.017738,47.6745149 100.871265,47.0147298 C99.9915519,47.3811305 98.6719816,49.1405576 98.3785971,48.8473919 C98.1586688,47.9676784 98.8184539,47.3813493 98.5985255,46.7948014 C97.792047,46.8680365 95.4462909,48.9206292 95.2263625,48.6274635 C95.0064341,48.3343001 95.8861476,47.3078932 95.8129126,46.4281797 C95.0798902,46.8680365 93.1003159,49.360486 93.0270786,48.7007008 C92.9538436,48.0409156 96.2527694,41.8831397 97.2789552,40.7100416 C98.3051411,39.5369436 100.797809,36.0913267 104.316664,36.1647828 C107.835518,36.2382389 110.772881,39.4542506 112.014157,37.8509726 C113.773584,35.5784537 112.014157,37.8509726 112.014157,37.8509726 C113.773584,35.5784537 108.275375,33.9654989 107.689045,33.5990982 C107.102716,33.2326975 107.02926,32.6461474 106.222782,32.2062907 C105.416305,31.7664339 101.824214,30.4468636 102.044142,30.2269352 C102.264071,30.0070068 105.70969,30.7400292 106.589404,30.666792 C107.469117,30.5935569 109.814873,29.7138434 110.841278,30.0070068 C111.867685,30.3001724 112.014157,30.8134853 112.747398,31.5465055 C113.48064,32.2795279 115.679702,33.7457894 116.632653,33.7457894 C117.585602,33.7457894 117.952224,32.352763 118.245608,30.9599576 C118.538992,29.56715 116.779344,26.2682242 119.051865,22.1628246 C121.324384,18.0574214 127.4826,14.3920949 127.922457,14.8319517 C128.362314,15.2718084 126.089574,18.4242619 126.456193,18.4974981 C127.042743,18.3510258 127.629291,18.2043335 127.775764,18.4242619 C127.959184,18.9373549 126.89605,20.6967819 127.189216,20.4768536 C127.482379,20.2569252 128.692206,20.3668894 128.802171,20.6967819 C128.948862,21.283111 127.299399,22.6394094 127.409144,23.1892312 C127.849001,23.3357013 128.655477,23.1157751 129.095334,23.702323 C129.022099,24.3621082 127.189216,25.2418196 127.262672,25.534983 C127.336128,25.8281486 128.472278,26.3779696 128.435549,26.6346249 C128.325806,27.6243027 124.989932,29.9335507 125.356551,30.2264953 C131.66124,26.4144777 138.698948,30.2264953 138.185635,30.1532603 C137.892251,30.2264953 134.886709,31.3995934 135.839879,31.3995934 C136.793048,31.3995934 142.43773,35.9448544 141.924418,35.9448544 C141.411105,35.9448544 139.651896,36.3114739 140.604847,36.3114739 C141.557796,36.3114739 146.02982,43.2759472 145.589963,43.1292539 C145.150106,42.9825628 143.830536,42.3962337 144.490321,42.8360905 C145.150106,43.2759472 147.34939,49.5071771 146.689605,49.2872487 C146.02982,49.0673203 143.390679,46.574652 143.610607,47.3811305 C143.830536,48.1876068 144.783487,50.020711 143.977229,49.7273265 C143.170972,49.433942 142.217802,48.0411345 142.584203,49.1407764 C142.950603,50.2404183 145.370035,51.2668252 145.883129,58.597697 C145.896128,58.7834318 145.905881,58.9663431 145.912482,59.1464715 C147.728749,61.8507436 149,64.8054413 149,67.760139 C149,78.7565583 138.443437,79.196415 135.657606,76.8506589 C138.150053,77.1440433 146.800716,77.436988 146.800716,67.760139 C146.800716,65.9049335 146.364209,64.1143957 145.646168,62.4195202 C144.645832,67.0046458 141.118504,69.0620164 138.112398,69.8872819 C134.373615,70.9136866 130.927998,68.0546176 130.561598,67.4680697 C137.012977,69.8140447 141.411324,66.9549757 143.610607,61.6032383 C143.831044,60.8537536 143.965312,60.1153161 144.028248,59.3930932 C141.216517,55.0236461 136.956555,51.5495559 134.622803,49.6457104 Z M134.679587,48.1895256 C134.672499,47.659781 134.67487,47.2166592 134.813472,47.1612021 C135.180094,47.0145088 137.89269,48.7007008 138.479019,48.7007008 C139.065349,48.7007008 138.992111,47.4543655 139.21204,47.6010589 C139.379509,47.71276 143.117624,51.4375726 143.920337,56.5097408 C140.658494,52.6170664 136.672297,49.5312656 134.679587,48.1895256 Z M134.679587,48.1895256" fill="#FCD116" id="path3348"/><path d="M0,0 L0,120 L180,120 L0,0 Z M0,0" fill="#262626" id="Oval-15-copy-2"/><path d="M52.5,60 L54.1836817,65.8063997 L60,65.8063997 L55.4079587,69.3550682 L57.0918408,75 L52.5,71.4515328 L47.9081592,74.8385322 L49.5918408,69.3550682 L45,65.8063997 L50.6631835,65.8063997 L52.5,60 Z M35.5,92 L37.1836817,97.8063997 L43,97.8063997 L38.4079587,101.355068 L40.0918408,107 L35.5,103.451533 L30.9081592,106.838532 L32.5918408,101.355068 L28,97.8063997 L33.6631835,97.8063997 L35.5,92 Z M42.5,80 L43.2857181,82.7096532 L46,82.7096532 L43.8570474,84.3656985 L44.6428591,87 L42.5,85.3440486 L40.3571409,86.9246483 L41.1428591,84.3656985 L39,82.7096532 L41.642819,82.7096532 L42.5,80 Z M35.5,39 L37.1836817,44.8063997 L43,44.8063997 L38.4079587,48.3550682 L40.0918408,54 L35.5,50.4515328 L30.9081592,53.8385322 L32.5918408,48.3550682 L28,44.8063997 L33.6631835,44.8063997 L35.5,39 Z M17.5,61 L19.1836817,66.8063997 L25,66.8063997 L20.4079587,70.3550682 L22.0918408,76 L17.5,72.4515328 L12.9081592,75.8385322 L14.5918408,70.3550682 L10,66.8063997 L15.6631835,66.8063997 L17.5,61 Z M17.5,61" fill="#FFFFFF" id="polygon5131"/></g></g></g></svg>