<?xml version="1.0" ?><svg height="120px" version="1.1" viewBox="0 0 180 120" width="180px" xmlns="http://www.w3.org/2000/svg" xmlns:sketch="http://www.bohemiancoding.com/sketch/ns" xmlns:xlink="http://www.w3.org/1999/xlink"><title/><defs/><g fill="none" fill-rule="evenodd" id="Page-1" stroke="none" stroke-width="1"><g id="rectangle_south_africa"><rect fill="#FFFFFF" height="120" id="Rectangle-57" width="180" x="0" y="0"/><path d="M11,0 L0,0 L0,27.3333333 L71,60 L0,92.6666667 L0,120 L11,120 L104.177734,79.3333333 L180,79.3333333 L180,40.6666667 L104.177734,40.6666667 L11,0 Z" fill="#479951" id="Rectangle-57"/><path d="M0,27.3333333 L71,60 L0,92.6666667 L0,27.3333333 Z" fill="#E5B731" id="Triangle-17-copy"/><path d="M0,33.3333333 L60,60 L0,86.6666667 L0,33.3333333 Z" fill="#262626" id="Triangle-17"/><path d="M104.640015,36.6666667 L180,36.6666667 L180,0 L20,0 L104.640015,36.6666667 Z" fill="#CA4638" id="Triangle-17-copy-2"/><path d="M104.640015,83.3333333 L180,83.3333333 L180,120 L20,120 L104.640015,83.3333333 Z" fill="#346DA6" id="Triangle-17-copy-4"/></g></g></svg>