<?xml version="1.0" encoding="UTF-8" standalone="no"?>
<svg width="180px" height="120px" viewBox="0 0 180 120" version="1.1" xmlns="http://www.w3.org/2000/svg" xmlns:xlink="http://www.w3.org/1999/xlink">
    <!-- Generator: Sketch 40.2 (33826) - http://www.bohemiancoding.com/sketch -->
    <title>icon-flag-cx</title>
    <desc>Created with Sketch.</desc>
    <defs></defs>
    <g id="Page-1" stroke="none" stroke-width="1" fill="none" fill-rule="evenodd">
        <g id="icon-flag-cx">
            <rect id="Rectangle-path" fill="#0021AD" x="0" y="0" width="180" height="120"></rect>
            <polygon id="Shape" fill="#1C8A42" points="0 0 180 0 180 120"></polygon>
            <ellipse id="Oval" fill="#FFC639" cx="90" cy="60" rx="16.2576" ry="16.2576"></ellipse>
            <path d="M80.0712,52.6974 C81.183348,54.223206 82.86876,56.78142 84.22416,56.11362 C85.281894,56.117256 85.827996,56.1916338 85.971312,56.895576 C88.465932,57.320124 92.658852,56.267826 95.267772,52.869696 C95.267772,52.869696 95.4873,52.8987246 95.4111006,51.60696 C95.4256086,51.044532 96.1803486,51.157014 96.1984926,51.340254 C96.3037206,51.61965 96.2855766,51.828306 96.4270926,51.83556 C96.7482126,51.7285176 97.1872866,51.008244 97.5555846,50.551044 C97.6553694,50.34966 97.600941,50.137386 97.6245264,49.883388 C97.8186564,49.406226 98.3030724,49.509654 98.4046644,49.7600178 C98.4971916,49.9214886 98.499006,50.0448678 98.5897224,50.2063278 C99.0813924,50.5347198 99.9685764,50.2280988 100.037516,50.2280988 C100.124602,49.8271488 100.382234,49.8652368 100.382234,49.8652368 C100.710626,49.7926662 100.5818,49.821693 100.79771,49.9341804 C100.607216,52.0950804 101.222258,52.1912004 101.171462,53.2996404 C101.193233,54.5369784 100.79771,54.8889504 100.79771,55.3606404 C100.922897,55.9375764 102.74801,55.9575384 102.105806,56.4455904 C101.54156,56.7467664 102.107624,57.3109944 101.258528,57.5305404 C98.7874884,58.7842044 98.3139084,59.8601004 98.3139084,59.8601004 C98.3139084,59.8601004 97.6934304,61.0321344 97.6244724,61.0321344 C97.2108144,61.8140904 96.6864924,61.3877424 96.3943884,61.7687304 C96.2492454,62.2477104 96.0859584,63.3090624 96.3762444,63.8606904 C96.5213874,64.6190664 96.3581022,65.0327244 96.1766784,65.7910104 C96.0133932,67.3730664 95.3856504,67.6126104 95.3130744,68.1677304 C95.0227884,68.7610104 95.3747604,71.5477704 95.0989824,71.5477704 C93.2593824,71.5840566 91.8496224,71.1957984 91.1220624,71.0506644 C91.8314424,67.9935444 91.5556824,65.3084844 91.5556824,65.0327244 C91.3742604,62.8464444 88.2809424,63.3780924 87.8073624,63.0878244 C87.4154664,63.0043656 87.1687404,62.6850564 87.0308424,62.5471764 C86.5936044,62.5000038 86.4303084,62.400219 85.9930704,62.3548644 C85.7753604,62.463723 85.9059846,62.5762104 85.4197524,62.7267984 C84.1860324,62.8755702 83.6417484,61.6509204 83.6417484,61.6509204 C83.70162,61.2390804 80.8677684,61.7343774 79.3273284,61.3769604 C78.6959604,61.7289324 78.4201824,62.7703404 77.9031144,62.8936944 C77.8886064,63.2166324 77.0522184,62.6288064 76.8834864,62.3113044 C76.8490146,61.3878324 77.6890224,60.9796284 77.6890224,60.9796284 C78.3566784,60.5097204 78.7521924,60.4335264 79.0733304,60.1087704 C79.2348012,59.3050344 79.1531586,58.7099544 79.4960604,58.1057304 C79.7863464,57.6448944 80.2145124,57.8608044 80.5047984,57.6539664 C80.8168464,57.4471464 80.9492904,56.0936904 80.6608278,55.7236464 C80.6608278,55.7236464 79.4125998,54.5969724 79.3436598,54.5280324 C78.9372558,53.3632704 79.8190038,52.6121124 80.0711838,52.6974324 L80.0712,52.6974 L80.0712,52.6974 Z" id="Shape" fill="#1C8A42"></path>
            <path d="M158.0274,17.5599 C157.290804,14.64498 150.69762,8.36712 145.74294,4.3722 C144.560034,3.566286 143.78904,4.046346 143.943174,5.19534 C144.560034,6.22422 145.02267,7.35534 145.63953,8.38422 C145.811887,9.07002 146.136654,9.55008 146.309004,10.2357 C146.309004,10.2357 146.359804,11.418804 146.463217,11.521656 C148.005367,13.21965 148.212187,14.659416 148.212187,14.659416 C149.103007,16.374096 149.892217,17.625456 151.452547,19.031616 C153.201517,20.129256 151.915183,23.540076 151.965997,25.358076 C151.965997,26.506512 151.144117,26.37045 150.423865,26.232552 C144.748825,21.020112 139.124545,21.003732 134.169685,19.494252 C132.231985,19.289232 132.197605,20.214522 132.832555,20.727972 C136.296115,24.432732 139.552675,26.952732 143.839735,29.060892 C144.560005,29.507202 145.280275,29.953512 146.000635,30.39984 C146.822515,31.08564 147.646195,31.77144 148.468075,32.45724 C150.371215,33.69096 150.527275,34.82298 150.527275,34.92468 C150.578075,37.23966 149.342551,39.03948 148.983325,39.75966 C148.333813,42.21432 147.029425,42.64074 147.029425,42.64074 C136.432105,49.79088 130.876765,51.64146 113.697025,49.4298 C113.439391,49.293729 111.793885,49.5676854 113.697025,50.25348 C118.069405,51.710346 128.810005,54.04716 139.201225,49.126806 C141.695845,47.377836 143.364985,47.951154 145.172005,46.904346 C148.140205,45.073746 152.378305,42.794946 153.149425,42.539166 C155.464405,41.303646 161.945125,39.915666 163.438225,38.680146 C165.150907,38.5422606 166.928965,38.317284 167.048665,36.844146 C167.611093,36.479466 168.434773,36.7461756 169.046125,35.545122 C170.405017,35.309268 170.176417,34.823034 170.176417,34.823034 C169.833517,33.863274 168.563509,33.46776 167.656417,32.765634 C166.317469,32.319324 165.392197,32.181426 164.414257,32.6622204 C164.105827,32.8001058 163.797397,32.9361804 163.488967,33.0740604 C163.488967,33.0740604 162.048427,32.8672404 162.048427,32.7656304 C158.848027,32.5896444 159.160147,21.9832704 158.027947,17.5595904 L158.0274,17.5599 L158.0274,17.5599 Z" id="Shape" fill="#FFC639"></path>
            <path d="M165.5334,34.9218 C165.440847,35.1795456 165.027502,35.2822417 164.610168,35.1511778 C164.192835,35.020114 163.929549,34.7049216 164.022102,34.447176 C164.114655,34.1894304 164.528,34.0867345 164.945334,34.2177982 C165.362667,34.348862 165.625953,34.6640544 165.5334,34.9218 L165.5334,34.9218 L165.5334,34.9218 Z" id="Shape" fill="#1C8A42"></path>
            <polygon id="s" fill="#FFFFFF" points="33.8688 34.3692 31.57362 32.22072 29.2509 34.33932 29.49984 31.20642 26.39502 30.71088 29.00052 28.951506 27.451512 26.216046 30.451752 27.155592 31.624938 24.238872 32.76072 27.170532 35.77284 26.269236 34.18875 28.984716 36.77139 30.777336 33.66045 31.23297 33.86898 34.36929"></polygon>
            <polygon id="Shape" fill="#FFFFFF" points="42.0102 60.3954 39.53484 58.745358 37.12446 60.484896 37.972566 57.682656 35.527806 55.987866 38.527866 55.9076958 39.42576 53.1184158 40.43277 55.8722358 43.43283 55.8442692 41.05503 57.6266832 42.010344 60.3954432"></polygon>
            <polygon id="s" fill="#FFFFFF" points="34.32267 82.800144 32.02749 80.651664 29.70477 82.770264 29.95371 79.637364 26.84889 79.141824 29.45439 77.38245 27.905382 74.64699 30.905622 75.586536 32.078808 72.669816 33.21459 75.601476 36.22671 74.70018 34.64262 77.41566 37.22526 79.20828 34.11432 79.663914 34.32285 82.800234"></polygon>
            <polygon id="s" fill="#FFFFFF" points="13.69701 56.549304 11.40183 54.400824 9.07911 56.519424 9.32805 53.386524 6.22323 52.890984 8.82873 51.13161 7.279722 48.39615 10.279962 49.335696 11.453148 46.418976 12.58893 49.350636 15.60105 48.44934 14.01696 51.16482 16.5996 52.95744 13.48866 53.413074 13.69719 56.549394"></polygon>
            <polygon id="s" fill="#FFFFFF" points="53.38575 49.674024 51.09057 47.525544 48.76785 49.644144 49.01679 46.511244 45.91197 46.015704 48.51747 44.25633 46.968462 41.52087 49.968702 42.460416 51.141888 39.543696 52.27767 42.475356 55.28979 41.57406 53.7057 44.28954 56.28834 46.08216 53.1774 46.537794 53.38593 49.674114"></polygon>
        </g>
    </g>
</svg>