<?xml version="1.0" ?><svg height="120px" version="1.1" viewBox="0 0 180 120" width="180px" xmlns="http://www.w3.org/2000/svg" xmlns:sketch="http://www.bohemiancoding.com/sketch/ns" xmlns:xlink="http://www.w3.org/1999/xlink"><title/><defs/><g fill="none" fill-rule="evenodd" id="Asia-Pacific" stroke="none" stroke-width="1"><g id="Taiwan" transform="translate(-200.000000, -801.000000)"><g transform="translate(200.000000, 801.000000)"><rect d="M0,0 L0,120 L180,120 L180,0 L0,0 Z M0,0" fill="#CA4638" height="120" id="Rectangle-126" width="180" x="0" y="0"/><rect d="M0,0 L0,60 L90,60 L90,0 L0,0 Z M0,0" fill="#346DA6" height="60" id="Oval-17-copy" width="90" x="0" y="0"/><g fill="#FFFFFF" id="taiwan" transform="translate(20.000000, 6.000000)"><path d="M22.000203,9.99918802 L22,10 L27,10 L24.5,0 L22.000203,9.99918802 C20.9360587,10.1983542 19.8902513,10.4449782 18.8985495,10.8044928 L12,3.66987298 L14.7352835,13.2317641 C15.9545362,12.1900463 17.3615611,11.3616862 18.8985495,10.8044928 L22.000203,9.99918802 Z M31.4629453,12.5974086 L33.1650635,13.580127 L36,3.66987298 L28.8349365,11.080127 L28.9406349,11.141152 C29.8367032,11.536194 30.6816905,12.02583 31.4629453,12.5974086 L31.4629453,12.5974086 Z M10.1338534,21.5915366 L0.5,24 L10.3246548,26.4561637 C10.1121196,25.5047653 10,24.5154761 10,23.5 C10,22.852175 10.0456307,22.2150076 10.1338534,21.5915366 L10.1338534,21.5915366 Z M44.830127,11.5 L37.419873,18.6650635 L34.919873,14.3349365 L44.830127,11.5 Z M47.5,24 L37.5,26.5 L37.5,21.5 L47.5,24 Z M44.830127,35.5 L34.919873,32.6650635 L37.419873,28.3349365 L44.830127,35.5 Z M36,44.330127 L28.8349365,36.919873 L33.1650635,34.419873 L36,44.330127 Z M24.5,48 L22,38 L27,38 L24.5,48 Z M12,44.330127 L14.8349365,34.419873 L19.1650635,36.919873 L12,44.330127 Z M3.16987298,35.5 L10.580127,28.3349365 L13.080127,32.6650635 L3.16987298,35.5 Z M3.16987298,11.5 L13.080127,14.3349365 L10.580127,18.6650635 L3.16987298,11.5 Z M24,36 C30.6274173,36 36,30.6274173 36,24 C36,17.3725827 30.6274173,12 24,12 C17.3725827,12 12,17.3725827 12,24 C12,30.6274173 17.3725827,36 24,36 Z M24,36" id="Triangle-43"/></g></g></g></g></svg>