<?xml version="1.0" ?><svg height="120px" version="1.1" viewBox="0 0 180 120" width="180px" xmlns="http://www.w3.org/2000/svg" xmlns:sketch="http://www.bohemiancoding.com/sketch/ns" xmlns:xlink="http://www.w3.org/1999/xlink"><title/><defs/><g fill="none" fill-rule="evenodd" id="Page-1" stroke="none" stroke-width="1"><g id="vanuatu"><g id="Group"><rect d="M0,0 L0,60 L180,60 L180,0 L0,0 Z M0,0" fill="#CA4638" height="60" id="Rectangle" width="180" x="0" y="0"/><rect d="M0,60 L0,120 L180,120 L180,60 L0,60 Z M0,60" fill="#57BB63" height="60" id="Rectangle" width="180" x="0" y="60"/><path d="M0,0 L104.666667,60 L0,120 L0,0 L0,0 L0,0 L0,0 Z M0,0" fill="#1C1C1C" id="Shape"/><rect d="M0,49.3333333 L0,70.6666667 L180,70.6666667 L180,49.3333333 L0,49.3333333 Z M0,49.3333333" fill="#1C1C1C" height="21.3333333" id="Rectangle" width="180" x="0" y="49.3333333"/><path d="M0,8.66666667 L90,60 L0,111.333333 L0,8.66666667 L0,8.66666667 L0,8.66666667 L0,8.66666667 Z M0,8.66666667" fill="#E5B731" id="Shape"/><rect d="M0,56.6666667 L0,62.6666667 L180,62.6666667 L180,56.6666667 L0,56.6666667 Z M0,56.6666667" fill="#E5B731" height="6" id="Rectangle" width="180" x="0" y="56.6666667"/><path d="M0,16 L77.3333333,60.3333618 L0,104.666667 L0,16 L0,16 L0,16 L0,16 Z M0,16" fill="#1C1C1C" id="Shape"/></g><g fill="#E5B731" id="Shape-+-Group-+-frond" transform="translate(6.315789, 45.684211)"><path d="M11.2332727,23.8234475 L11.2332727,29.2902961 C15.9892425,29.2902961 25.3229151,25.6458425 25.3229151,13.9118806 C25.3229151,2.17791868 15.3669079,0 12.3888927,0 C9.411046,0 0.210526316,2.13347823 0.210526316,11.7339619 C0.210526316,21.3344457 9.2332842,22.2234229 11.0110705,22.2234229 C12.7888568,22.2234229 19.4559342,20.6232301 18.7004465,13.4228673 C18.7004465,15.4674647 16.3892065,19.7788616 11.5443559,19.7788616 C6.6996736,19.7788616 3.67738636,16.1785119 3.67738636,12.6229393 C3.67738636,9.06703 6.61079267,4.31122857 11.7221177,4.31122857 C16.8334427,4.31122857 20.5669454,8.8446594 20.5669454,13.4228673 C20.5669454,18.0009069 16.9669323,23.8234475 11.2332727,23.8234475 L11.2332727,23.8234475 L11.2332727,23.8234475 L11.2332727,23.8234475 L11.2332727,23.8234475 Z M11.2332727,23.8234475" id="Shape"/><g id="Group" transform="translate(11.791527, 12.238407) scale(-1, 1) translate(-11.791527, -12.238407) translate(6.791527, 7.238407)"><g id="frond"><path d="M0.122547905,0.789000333 L0.405855769,0.804276739 C0.405855769,0.804276739 2.65599018,0.376481306 8.706288,0.0722998972 C7.93952193,0.107018998 3.88938098,0.275087503 0.122547905,0.789000333 C0.122547905,0.789000333 3.88938098,0.275087503 0.122547905,0.789000333 L0.122547905,0.789000333 L0.122547905,0.789000333 L0.122547905,0.789000333 L0.122547905,0.789000333 Z M0.122547905,0.789000333" id="Shape" stroke="#FDCE12"/><path d="M0.7058288,0.715381817 C0.7058288,0.715381817 0.00589172622,0.595934078 0.622502959,0.543161046 C1.23928253,0.490373984 0.95597466,0.683440239 0.95597466,0.683440239 L1.22261736,0.651498667 C1.22261736,0.651498667 0.805819813,0.505650389 1.27261286,0.47509758 C1.73923758,0.444544771 1.50592522,0.615376778 1.50592522,0.615376778 L1.78923309,0.584823967 C1.78923309,0.584823967 1.48926005,0.443156007 1.9392196,0.416755462 C2.38934749,0.390368946 2.10603962,0.550104866 2.10603962,0.550104866 L2.43934299,0.518149265 C2.43934299,0.518149265 2.18936546,0.383425126 2.73931602,0.351483553 C3.28943491,0.319527952 2.80597669,0.479263872 2.80597669,0.479263872 L3.1726104,0.445933535 C3.1726104,0.445933535 3.00595871,0.32230548 3.47275177,0.294530199 C3.93937649,0.266754918 3.53941244,0.411200406 3.53941244,0.411200406 L3.87271581,0.382036362 C3.87271581,0.382036362 3.7727248,0.266754918 4.22268435,0.240368402 C4.67281223,0.213967857 4.25601469,0.350094788 4.25601469,0.350094788 L4.60615156,0.32230548 C4.60615156,0.32230548 4.52282571,0.207024037 5.08944144,0.184803812 C5.65605717,0.162583588 4.98945043,0.293141435 4.98945043,0.293141435 L5.37274931,0.265366154 C5.37274931,0.265366154 5.48940549,0.130642015 5.97286371,0.118129111 C6.45615359,0.105630234 5.75621651,0.237590874 5.75621651,0.237590874 L6.10618505,0.213967857 C6.10618505,0.213967857 6.28950191,0.0986864139 6.82278727,0.0847987739 C7.356241,0.0709111333 6.48948393,0.190358868 6.48948393,0.190358868 L6.83945247,0.168138644 C6.83945247,0.168138644 7.22291967,0.0528572009 7.72287473,0.0403583246 C8.22299813,0.0278594483 7.20625453,0.148695947 7.20625453,0.148695947 L7.53955787,0.129253251 C7.53955787,0.129253251 8.0895084,0.0250678923 8.53963633,0.0181240721 C8.98959587,0.0111802519 8.03951293,0.104241471 8.03951293,0.104241471 L8.45631047,0.08341001 C8.45631047,0.08341001 9.17291273,-0.0249276131 9.4230586,0.00840272383 C9.67303613,0.0417470886 8.42298013,0.09035383 8.42298013,0.09035383 L8.0061826,0.109796527 C8.0061826,0.109796527 9.5230496,0.0500796728 9.70636647,0.0806324817 C9.88968327,0.111185291 7.62288373,0.130642015 7.62288373,0.130642015 L7.25625,0.151473476 C7.25625,0.151473476 8.77294867,0.116740347 8.5896318,0.148695947 C8.406315,0.18063752 6.90628147,0.1736937 6.90628147,0.1736937 L6.5561446,0.194525161 C6.5561446,0.194525161 8.07284327,0.163972352 7.87286127,0.193136397 C7.6728792,0.222300441 6.18951089,0.219522913 6.18951089,0.219522913 L5.82287719,0.244534694 C5.82287719,0.244534694 7.30624553,0.212579093 7.08959833,0.25008975 C6.8727828,0.287586379 5.18943245,0.286197615 5.18943245,0.286197615 L4.77280324,0.318139188 C4.77280324,0.318139188 6.33949741,0.273698739 6.20617606,0.308417839 C6.07285471,0.343150968 4.28934502,0.361204901 4.28934502,0.361204901 L3.88938098,0.394535238 C3.88938098,0.394535238 5.57273133,0.347317261 5.07277627,0.390368946 C4.57282122,0.433434659 3.35609559,0.444544771 3.35609559,0.444544771 L2.87263737,0.493151512 C2.87263737,0.493151512 4.53949088,0.409811642 4.30601019,0.457043647 C4.07269783,0.504261624 2.43934299,0.536217226 2.43934299,0.536217226 L2.10603962,0.569547561 C2.10603962,0.569547561 3.60607311,0.497317804 3.4560866,0.537605989 C3.30610008,0.577880144 1.70590724,0.620931833 1.70590724,0.620931833 L1.43926455,0.651498667 C1.43926455,0.651498667 3.20594074,0.563992506 3.05595422,0.608432956 C2.90596771,0.652887433 1.22261736,0.684829006 1.22261736,0.684829006 L1.00597017,0.712604283 C1.00597017,0.712604283 2.63932501,0.6348335 2.65599018,0.672330128 C2.67265535,0.709826756 0.73915914,0.747337417 0.73915914,0.747337417 L0.7058288,0.715381817 L0.7058288,0.715381817 L0.7058288,0.715381817 L0.7058288,0.715381817 Z M0.7058288,0.715381817" id="Shape"/></g></g><g id="frond" transform="translate(6.947369, 7.157895)"><path d="M0.121553539,9.39117967 L0.402562613,9.57300907 C0.402562613,9.57300907 2.6344392,4.48111797 8.63564427,0.860558987 C7.8750998,1.27380762 3.85782214,3.27426497 0.121553539,9.39117967 C0.121553539,9.39117967 3.85782214,3.27426497 0.121553539,9.39117967 L0.121553539,9.39117967 L0.121553539,9.39117967 L0.121553539,9.39117967 L0.121553539,9.39117967 Z M0.121553539,9.39117967" id="Shape" stroke="#FDCE12"/><path d="M0.700101633,8.5149256 C0.700101633,8.5149256 0.00584392015,7.09318333 0.617451905,6.46504537 C1.22922686,5.83674047 0.948217787,8.13473687 0.948217787,8.13473687 L1.21269691,7.75454807 C1.21269691,7.75454807 0.799281307,6.01856987 1.26228675,5.65491107 C1.72512523,5.29125227 1.49370599,7.32460253 1.49370599,7.32460253 L1.77471507,6.96094373 C1.77471507,6.96094373 1.47717605,5.27472232 1.92348457,4.96048639 C2.36996007,4.64641742 2.088951,6.5476951 2.088951,6.5476951 L2.41954991,6.16733938 C2.41954991,6.16733938 2.17160073,4.56376769 2.71708893,4.18357895 C3.2627441,3.80322323 2.78320871,5.70450091 2.78320871,5.70450091 L3.14686751,5.30778221 C3.14686751,5.30778221 2.98156806,3.83628312 3.4445735,3.50568421 C3.90741198,3.1750853 3.51069329,4.89436661 3.51069329,4.89436661 L3.84129219,4.54723775 C3.84129219,4.54723775 3.74211252,3.1750853 4.18842105,2.86101633 C4.63489655,2.5467804 4.22148095,4.167049 4.22148095,4.167049 L4.56877677,3.83628312 C4.56877677,3.83628312 4.48612704,2.46413067 5.04814519,2.19965154 C5.61016334,1.93517241 4.94896552,3.48915427 4.94896552,3.48915427 L5.32915427,3.15855535 C5.32915427,3.15855535 5.44486389,1.55498367 5.92439927,1.40604719 C6.40376769,1.25727768 5.70950998,2.82795644 5.70950998,2.82795644 L6.05663884,2.5467804 C6.05663884,2.5467804 6.23846824,1.17462795 6.76742647,1.00932849 C7.29655173,0.84402904 6.43682759,2.26577133 6.43682759,2.26577133 L6.78395647,2.00129219 C6.78395647,2.00129219 7.16431213,0.629139746 7.66021053,0.480370236 C8.15627587,0.331600726 7.1477822,1.76987296 7.1477822,1.76987296 L7.47838113,1.53845372 C7.47838113,1.53845372 8.02386933,0.298373866 8.4703448,0.215724138 C8.91665333,0.13307441 7.97427947,1.24074773 7.97427947,1.24074773 L8.38769507,0.992798547 C8.38769507,0.992798547 9.09848273,-0.296704174 9.34659893,0.100014519 C9.59454807,0.496900181 8.3546352,1.07544827 8.3546352,1.07544827 L7.9412196,1.30686751 C7.9412196,1.30686751 9.4457786,0.596079855 9.627608,0.95973866 C9.8094374,1.32339746 7.56103087,1.55498367 7.56103087,1.55498367 L7.19737207,1.80293285 C7.19737207,1.80293285 8.70176407,1.38951724 8.51993467,1.76987296 C8.33810527,2.15006171 6.8502432,2.06741198 6.8502432,2.06741198 L6.50294737,2.31536116 C6.50294737,2.31536116 8.0073394,1.95170236 7.80898007,2.29883121 C7.61062067,2.64596007 6.13928857,2.61290018 6.13928857,2.61290018 L5.77562977,2.91060617 C5.77562977,2.91060617 7.24696187,2.53025045 7.0320726,2.97672595 C6.81701633,3.42303448 5.14732487,3.40650454 5.14732487,3.40650454 L4.73407623,3.78669329 C4.73407623,3.78669329 6.28805807,3.25773503 6.15581851,3.67098367 C6.02357895,4.08439927 4.25454083,4.29928857 4.25454083,4.29928857 L3.85782214,4.69600726 C3.85782214,4.69600726 5.52751361,4.13398911 5.03161525,4.64641742 C4.53571688,5.15901271 3.32886389,5.29125227 3.32886389,5.29125227 L2.84932849,5.86980036 C2.84932849,5.86980036 4.50265699,4.87783666 4.27107078,5.44002178 C4.03965154,6.00203993 2.41954991,6.38239565 2.41954991,6.38239565 L2.088951,6.77911433 C2.088951,6.77911433 3.57681307,5.9193902 3.42804356,6.39892559 C3.27927405,6.878294 1.69206533,7.39072233 1.69206533,7.39072233 L1.42758621,7.75454807 C1.42758621,7.75454807 3.17992741,6.71299453 3.03115789,7.2419528 C2.88238839,7.77107807 1.21269691,8.1512668 1.21269691,8.1512668 L0.99780762,8.48186567 C0.99780762,8.48186567 2.61790925,7.55618873 2.6344392,8.00249727 C2.65096915,8.4488058 0.733161527,8.89528133 0.733161527,8.89528133 L0.700101633,8.5149256 L0.700101633,8.5149256 L0.700101633,8.5149256 L0.700101633,8.5149256 Z M0.700101633,8.5149256" id="Shape"/></g></g></g></g></svg>