<?xml version="1.0" ?><svg height="120px" version="1.1" viewBox="0 0 180 120" width="180px" xmlns="http://www.w3.org/2000/svg" xmlns:sketch="http://www.bohemiancoding.com/sketch/ns" xmlns:xlink="http://www.w3.org/1999/xlink"><title/><defs/><g fill="none" fill-rule="evenodd" id="Africa,-Middle-East-and-India" stroke="none" stroke-width="1"><g id="Africa,-Middle-Eest-and-India" transform="translate(-1000.000000, -201.000000)"><g id="Cape-verde" transform="translate(1000.000000, 201.000000)"><rect d="M0.00549331208,0 L0.00549331208,120 L180.005493,120 L180.005493,0 L0.00549331208,0 Z M0.00549331208,0" fill="#FFFFFF" height="120" id="Rectangle-3-copy-3" width="180" x="0.00549331208" y="0"/><rect d="M0.00549314351,90 L0.00549314351,120 L180.005493,120 L180.005493,90 L0.00549314351,90 Z M0.00549314351,90" fill="#4086CD" height="30" id="Rectangle-3-copy-2" width="180" x="0.00549314351" y="90"/><rect d="M0,70 L0,80 L180,80 L180,70 L0,70 Z M0,70" fill="#CA4638" height="10" id="Rectangle-3-copy-4" width="180" x="0" y="70"/><rect d="M0.00274665604,-7.10542736e-15 L0.00274665604,60 L180.002747,60 L180.002747,-7.10542736e-15 L0.00274665604,-7.10542736e-15 Z M0.00274665604,-7.10542736e-15" fill="#4086CD" height="60" id="Rectangle-3" width="180" x="0.00274665604" y="-7.10564542e-15"/><path d="M58.258494,40.5665861 L60.2724822,34.3314448 L62.2864671,40.5665861 L68.8063236,40.5665861 L63.5324088,44.4195638 L65.546397,50.6547045 L60.2724822,46.8017235 L54.9985674,50.6547045 L57.0125523,44.4195638 L51.7386375,40.5665861 L58.258494,40.5665861 Z M77.7183258,45.6130898 L83.0126006,41.752547 L80.9770245,47.9806729 L86.2516992,51.8129484 L79.720289,51.8301435 L77.684716,58.0582708 L75.6827547,51.8412144 L69.1513426,51.8584122 L74.4456143,47.997868 L72.4436511,41.7808143 L77.7183258,45.6130898 Z M90.5144377,61.192591 L97.0667661,61.1812429 L91.7591498,65.023421 L93.7738962,71.224173 L88.4797675,67.3990175 L83.1721528,71.2411986 L85.2068262,65.034771 L79.9126942,61.2096165 L86.465021,61.1982655 L88.4996912,54.991839 L90.5144377,61.192591 Z M91.7591498,81.3542498 L97.0667651,85.196431 L90.5144377,85.1850798 L88.4996912,91.3858318 L86.465021,85.1794052 L79.9126932,85.1680574 L85.2068252,81.342903 L83.1721518,75.1364753 L88.4797675,78.9786532 L93.7738962,75.1534978 L91.7591498,81.3542498 Z M80.9770245,98.3969978 L83.0125979,104.625126 L77.7183258,100.764581 L72.4436511,104.596856 L74.4456143,98.3798028 L69.1513399,94.5192605 L75.682752,94.5364583 L77.6847133,88.3194019 L79.720289,94.5475273 L86.2516992,94.5647223 L80.9770245,98.3969978 Z M62.2864671,105.811085 L60.2724789,112.046226 L58.258494,105.811085 L51.7386375,105.811085 L57.0125523,101.958107 L54.9985641,95.7229663 L60.2724789,99.5759472 L65.5463937,95.7229663 L63.5324088,101.958107 L68.8063236,105.811085 L62.2864671,105.811085 Z M42.8266353,100.764581 L37.5323604,104.625124 L39.5679366,98.3969978 L34.2932619,94.5647223 L40.824672,94.5475273 L42.8602451,88.3193999 L44.8622064,94.5364563 L51.3936185,94.5192586 L46.0993467,98.3798028 L48.10131,104.596856 L42.8266353,100.764581 Z M30.0305234,85.1850798 L23.478195,85.1964279 L28.7858113,81.3542498 L26.7710648,75.1534978 L32.0651936,78.9786532 L37.3728082,75.1364722 L35.3381349,81.3428998 L40.6322668,85.1680542 L34.0799401,85.1794052 L32.0452699,91.3858318 L30.0305234,85.1850798 Z M28.7858113,65.023421 L23.478196,61.1812397 L30.0305234,61.192591 L32.0452699,54.991839 L34.0799401,61.1982655 L40.6322678,61.2096134 L35.3381359,65.0347678 L37.3728093,71.2411954 L32.0651936,67.3990175 L26.7710648,71.224173 L28.7858113,65.023421 Z M39.5679366,47.9806729 L37.5323631,41.752545 L42.8266353,45.6130898 L48.10131,41.7808143 L46.0993467,47.997868 L51.3936212,51.8584102 L44.8622091,51.8412125 L42.8602478,58.0582689 L40.824672,51.8301435 L34.2932619,51.8129484 L39.5679366,47.9806729 Z M39.5679366,47.9806729" fill="#F9D616" id="Shape-copy"/></g></g></g></svg>