<?xml version="1.0" ?><svg height="120px" version="1.1" viewBox="0 0 180 120" width="180px" xmlns="http://www.w3.org/2000/svg" xmlns:sketch="http://www.bohemiancoding.com/sketch/ns" xmlns:xlink="http://www.w3.org/1999/xlink"><title/><defs/><g fill="none" fill-rule="evenodd" id="Ameria" stroke="none" stroke-width="1"><g id="Group" transform="translate(-400.000000, -200.000000)"><g id="Trinidad-and-tobago" transform="translate(400.000000, 199.000000)"><rect d="M0,1 L0,121 L180,121 L180,1 L0,1 Z M0,1" fill="#262626" height="120" id="Rectangle-3-copy-4" width="180" x="0" y="1"/><polygon d="M0,1 L142,121 L0,121 L0,1 Z M0,1" fill="#FFFFFF" id="Triangle-35" points="0 1 142 121 0 121 "/><polygon d="M0,6 L136,121 L0,121 L0,6 Z M0,6" fill="#CA4638" id="Triangle-35-copy" points="0 6 136 121 0 121 "/><polygon d="M37,1 L180.001757,121 L37,121 L37,1 Z M37,1" fill="#FFFFFF" id="Triangle-35" points="37 1 180.001757 121 37 121 " transform="translate(108.500879, 61.000000) scale(-1, -1) translate(-108.500879, -61.000000) "/><polygon d="M42,1 L180,116 L42,116 L42,1 Z M42,1" fill="#CA4638" id="Triangle-35-copy" points="42 1 180 116 42 116 " transform="translate(111.000000, 58.500000) scale(-1, -1) translate(-111.000000, -58.500000) "/></g></g></g></svg>