<?xml version="1.0" encoding="UTF-8" standalone="no"?>
<svg width="180px" height="120px" viewBox="0 0 180 120" version="1.1" xmlns="http://www.w3.org/2000/svg" xmlns:xlink="http://www.w3.org/1999/xlink">
    <!-- Generator: Sketch 40.2 (33826) - http://www.bohemiancoding.com/sketch -->
    <title>icon-flag-gu</title>
    <desc>Created with Sketch.</desc>
    <defs></defs>
    <g id="Page-1" stroke="none" stroke-width="1" fill="none" fill-rule="evenodd">
        <rect id="Rectangle-path" fill="#C62139" x="0" y="0" width="180" height="120"></rect>
        <rect id="Rectangle-path" fill="#00297B" x="4.3902439" y="5.45454545" width="171.219512" height="109.090909"></rect>
        <path d="M90.0599366,34.120817 C90.0599366,34.120817 71.4001895,45.9196985 71.4001895,59.8321612 C71.4001895,73.7468516 90.0599366,85.8796303 90.0599366,85.8796303 C90.0599366,85.8796303 108.600019,74.7474345 108.600019,59.8321612 C108.600019,44.9180028 90.0599366,34.120817 90.0599366,34.120817" id="Shape" fill="#C62139"></path>
        <path d="M105.791947,64.4344054 C106.201258,62.9541192 106.433792,61.4170689 106.433792,59.8321612 C106.433792,46.4761987 90.0599366,36.5705252 90.0599366,36.5705252 C90.0599366,36.5705252 73.4467497,46.8112108 73.4467497,59.8321612 C73.4467497,61.3959233 73.6833635,62.9196156 74.1008358,64.3954506 L105.791947,64.4344054" id="Shape" fill="#66AFEB"></path>
        <path d="M89.9239551,83.3186259 C89.9239551,83.3186259 102.7663,75.4297018 105.786509,64.3954506 L74.0885971,64.3954506 C77.1550405,75.2171204 89.9239551,83.3186259 89.9239551,83.3186259" id="Shape" fill="#007BDE"></path>
        <path d="M106.353561,61.3914699 C103.544129,63.2479508 87.7332482,62.3564385 87.7332482,62.3564385 L86.849351,64.4344054 L105.790587,64.4344054 C105.869457,64.1494784 105.941532,63.8645493 106.006803,63.5762839 L106.353561,61.3914699" id="Shape" fill="#9C8431"></path>
        <path d="M89.0876505,74.5259485 C88.8469586,72.971091 81.4521411,71.3060481 77.5276359,71.4429475 C78.7528526,73.2259678 80.1412509,74.8576222 81.5378099,76.307856 C83.5313394,74.3233825 89.166521,75.0390405 89.0876505,74.5259485" id="Shape" fill="#FFF100"></path>
        <path d="M104.055431,68.7450415 C103.115778,68.7762067 101.410537,68.9153317 100.242434,69.4796195 C98.5575906,70.2954477 94.7853882,71.1869579 93.0991847,70.7406453 C91.414339,70.2954477 88.7653678,71.7056139 89.0876505,72.0016712 C89.6220673,72.4969561 93.5003379,71.9282127 93.5003379,75.1191758 C93.5003379,77.7903679 89.0074199,76.6039133 87.2409857,77.7169116 C86.1762279,78.385823 85.4337551,79.1126091 85.0122071,79.5800672 C87.7699643,81.9474124 89.9293933,83.3186259 89.9293933,83.3186259 C89.9293933,83.3186259 95.0491974,80.1732945 99.5829096,75.080221 L101.715141,72.4557734 C102.574563,71.2882409 103.371429,70.0494756 104.055431,68.7450415" id="Shape" fill="#FFF100"></path>
        <path d="M89.0373355,48.1746304 C89.0373355,48.1746304 86.4781158,46.7833841 82.9874018,47.4500698 C79.4966856,48.1178684 78.7433365,50.1479758 78.7433365,50.1479758 L79.9168781,49.6482397 L79.946796,50.0934373 L81.0006729,49.4812901 L81.0305885,49.9264877 L81.9335226,49.1485036 L82.0817475,49.6482397 L82.8949302,48.9804412 L82.9561238,49.342165 L84.2792504,48.5630681 L84.2792504,49.0639149 L85.3331273,48.6176045 L85.2433782,49.0917416 L87.2301094,48.7589552 C87.2301094,48.7589552 82.5345735,50.2047378 81.9335226,53.6828535 L82.835099,52.6833813 L82.9262082,53.15418 L83.4973412,52.0979458 L83.6482839,52.5153188 L84.1595834,51.5414477 L84.3091683,52.1246576 L85.0910776,51.0673106 L85.1522713,51.6805728 L86.0538453,50.5397499 L86.0538453,51.0940223 L87.017973,50.1201491 L86.9880551,50.8458246 C86.9880551,50.8458246 87.9209071,50.1201491 88.2200725,50.1201491 L87.1077221,51.456859 L87.4694412,51.5681595 C87.4694412,51.5681595 86.6861719,52.1524821 86.6263383,52.2637826 C86.5665048,52.3739681 87.1389979,52.2637826 87.1389979,52.2637826 C87.1389979,52.2637826 86.4454799,52.9304684 86.415562,53.1263554 C86.3856464,53.3222424 86.8670279,53.1263554 86.8670279,53.1263554 C86.8670279,53.1263554 86.2347036,53.8765149 86.1449545,54.1569906 C86.0538453,54.4352386 86.4753932,54.211527 86.4753932,54.211527 C86.4753932,54.211527 86.085121,55.1019243 86.0538453,55.3523498 C86.0239273,55.6005476 86.5053111,55.2955857 86.5053111,55.2955857 L86.7772811,56.825957 L87.2586626,54.9917388 L87.559188,55.4091118 L87.559188,54.1002265 L87.8297956,54.3217146 L87.7998823,53.4613675 L88.1602412,53.7941539 L87.9807407,52.7368069 L88.3710152,53.1519543 L88.3111817,52.2637826 L88.7014563,52.6266193 L88.7014563,51.456859 L89.0631754,51.7607081 L89.1230089,50.9571229 L89.5445569,51.1507843 C89.5445569,51.1507843 89.6043904,50.1769132 90.0871343,50.2047378 C90.567158,50.2303367 91.169569,50.7044739 90.9288771,50.9259599 L91.3504274,50.818 L91.2606783,51.7607081 L91.6509529,51.5392221 L91.5911193,52.2348452 L91.9215604,52.0957202 L91.8018956,52.9850047 L92.1935303,52.7657443 L92.2220858,53.8475775 L92.6721939,53.5437284 L92.642276,54.8214486 L93.0937442,54.4897771 L93.0937442,55.5460113 L93.5152968,55.2699868 L93.9681228,56.2983964 L93.8770159,54.768025 L94.2088171,55.0173378 L93.6050436,53.9332768 L94.057872,53.8765149 L93.575128,53.1519543 L94.0265962,53.1831174 L93.3657142,52.4585568 L93.8158223,52.3761959 L92.8217742,51.7072845 L93.364354,51.5136231 L92.3403928,50.9003609 L92.7320274,50.7612359 L92.0113118,50.0656127 L92.7633032,50.3438628 L93.002635,49.8986631 L93.9055691,50.5675745 L93.9055691,49.8986631 L94.6874783,50.9003609 L94.7785899,50.2870987 L95.3809986,51.0673106 L95.5006656,50.7066995 L95.9222159,51.4846836 L96.1316321,50.9025865 L96.5531801,51.7373347 L96.6728472,51.1507843 L97.0644818,52.0701212 L97.4262009,51.7072845 L97.6070593,52.6544439 L97.9660582,52.2916072 L98.2964992,53.1263554 L98.7180495,52.8202807 L99.0797686,53.7674422 C99.0797686,53.7674422 100.072452,48.702191 91.5557633,48.6176045 L89.0278193,48.1746304" id="Shape" fill="#009270"></path>
        <path d="M85.1250736,43.6658795 L85.6050949,44.2201519 L85.3644054,44.3893293 L86.1775903,44.8067024 L85.9967296,45.1116642 L86.8099169,45.3899122 L86.5080314,45.613626 L87.2314649,46.0009488 L86.7500834,46.1422995 L87.6217418,46.5307351 L87.5020771,46.8913461 L88.2540661,47.0594086 L87.923625,47.3087192 L88.7952858,47.9509187 L89.7893291,48.5897799 L90.4814893,48.3682918 L90.2095216,47.1417695 C90.2095216,47.1417695 87.351132,43.5245288 85.1250736,43.6636538" id="Shape" fill="#009270"></path>
        <path d="M87.7427667,40.1599392 L88.0745678,40.8811613 L87.6217418,40.96575 L88.6457008,41.9117965 L87.8325181,41.9396211 L88.8265615,42.6619582 L88.3438175,42.8033067 L89.2481141,43.6380549 L88.7653678,43.8595409 L89.6982199,44.7221136 L89.0672534,44.9436018 L90.1211303,45.835112 L89.5187216,45.8640493 L90.1496881,46.613096 L89.5785551,46.7811585 C89.5785551,46.7811585 90.2707153,47.9765177 90.2394349,48.4784794 L91.4129812,48.5330158 C91.4129812,48.5330158 91.5938372,45.3053257 91.4442569,44.8879505 L91.1423713,45.0827247 L91.2321228,43.9140794 L90.7806546,44.1656156 L90.6922632,42.7743693 L90.2394349,43.2184562 L90.1211303,41.8550346 L89.7893291,42.3291717 L89.457528,40.9924618 L89.097169,41.4098348 L88.7653678,40.5483748 L88.4947603,40.8811613 L87.7427667,40.1577136" id="Shape" fill="#009270"></path>
        <path d="M90.7820147,48.284818 C91.1138159,46.3370737 93.3113211,43.4989298 97.4343593,43.3876315 L96.5001471,43.8328291 L97.0427269,44.0554301 L95.9589321,44.4182667 L96.5001471,44.7221136 L95.2069385,44.8067024 L95.8678229,45.2240754 L94.906413,45.3353759 L94.1530616,45.4745009 L94.6942766,45.9464103 L93.6104864,46.0565979 L94.3040043,46.39161 C94.3040043,46.39161 92.5878852,46.9481081 92.4682182,47.1161706 C92.4682182,47.1161706 98.2475443,45.7527489 99.6617802,48.2825924 L98.5467096,47.8373927 L98.6378212,48.3115298 L97.8559096,47.7828563 L97.9755767,48.1724047 L97.1637518,47.7828563 L97.2834189,48.2547678 L96.4403136,47.8095681 L96.6211743,48.2291689 L95.5373795,47.7550317 L95.7182379,48.2002293 L94.7853882,47.9219814 L94.8764974,48.3938907 L93.9422876,48.3393544 L94.0333945,48.8958525 L91.1437315,48.8390905 L90.7820147,48.2825924" id="Shape" fill="#009270"></path>
        <path d="M89.8994777,49.9632169 L90.5018864,49.9264877 C90.2203979,55.2332575 90.4842002,62.8417059 91.2633985,65.6587021 C92.5865251,70.4434753 96.4443963,72.2865982 97.3622894,72.7451538 C97.8831073,73.003369 97.6832096,74.079636 96.6388535,74.0061797 C95.597213,73.9316084 91.9569188,71.4451731 90.7004239,66.9931842 C89.0169384,61.0197308 89.8342037,50.5853837 89.8994777,49.9632169" id="Shape" fill="#7B4800"></path>
        <ellipse id="Oval" fill="#7B4800" cx="90.8730263" cy="48.8134958" rx="0.680291074" ry="0.631024042"></ellipse>
        <ellipse id="Oval" fill="#7B4800" cx="89.78935" cy="48.5898554" rx="0.636813825" ry="0.590695438"></ellipse>
        <ellipse id="Oval" fill="#7B4800" cx="89.78935" cy="49.6204992" rx="0.594731568" ry="0.5516608"></ellipse>
        <ellipse id="Oval" fill="#7B4800" cx="90.6012354" cy="49.3420809" rx="0.636813825" ry="0.590695438"></ellipse>
        <polygon id="Shape" fill="#000000" points="84.1038302 68.0149169 84.7837516 68.0149169 84.7837516 61.2256352 84.1038302 61.2256352"></polygon>
        <path d="M86.312214,69.2948627 C86.312214,69.2948627 86.0334481,69.3404966 85.5901383,69.3928073 L85.5901383,68.8630189 L85.1386724,68.8630189 L85.1386724,69.438439 C84.6763233,69.4818473 84.1160712,69.5174615 83.5286169,69.5174615 C82.904451,69.5174615 82.2748446,69.4751682 81.7553845,69.426196 L81.7553845,68.8774897 L81.2576816,68.8774897 L81.2576816,69.3738852 C80.8279729,69.3238001 80.5505648,69.280394 80.5505648,69.280394 C80.5505648,69.280394 80.414581,69.9760172 83.4851048,69.9760172 C86.5542637,69.9760172 86.3135742,69.2948627 86.3135742,69.2948627" id="Shape" fill="#7B4800"></path>
        <path d="M83.3980735,67.994882 C85.8865834,67.994882 87.9739424,67.6253663 87.9739424,67.6253663 C87.9739424,67.6253663 88.2935025,69.1078782 83.3980735,69.1078782 C78.5026422,69.1078782 78.9037977,67.8479673 78.9037977,67.8479673 C78.9037977,67.8479673 80.9109215,67.994882 83.3980735,67.994882" id="Shape" fill="#7B4800"></path>
        <path d="M81.3107168,61.612958 C81.3107168,61.612958 85.1631475,62.9496658 86.6888898,67.6253663 C86.6888898,67.6253663 83.1573816,66.9586828 81.1502532,67.6999376 L80.0270243,67.6999376 C80.0270243,67.6976192 81.9539197,65.102204 81.3107168,61.612958" id="Shape" fill="#FFFFFF"></path>
        <path d="M81.8560122,58.0936598 L81.1420949,58.0936598 C81.0863417,57.8087328 80.951718,57.6083945 80.7382215,57.4982068 C80.6185567,57.4347658 80.4866509,57.4047156 80.3411486,57.4047156 C80.0596625,57.4047156 79.8312093,57.5282592 79.6517087,57.7831338 C79.4708503,58.0346722 79.3811012,58.4175437 79.3811012,58.9239567 C79.3811012,59.4370487 79.4790087,59.7976597 79.6734683,60.0135817 C79.8679232,60.2239374 80.0895781,60.3307845 80.3384307,60.3307845 C80.5818405,60.3307845 80.7803781,60.2473107 80.936759,60.0781355 C81.0917822,59.9111858 81.1869718,59.6896977 81.2250457,59.4147882 L80.4200191,59.4147882 L80.4200191,58.7213907 L81.8668908,58.7213907 L81.8668908,60.9540641 L81.3868671,60.9540641 L81.3134371,60.4342931 C81.1733729,60.6324079 81.0482677,60.7715308 80.936759,60.8538939 C80.745022,60.9952446 80.5097706,61.0653625 80.2296423,61.0653625 C79.7700157,61.0653625 79.3919798,60.8739267 79.0996128,60.4910573 C78.7936492,60.1081857 78.6399862,59.5828506 78.6399862,58.9172777 C78.6399862,58.2439151 78.7950093,57.7018857 79.1050532,57.2956429 C79.4123769,56.889398 79.8216885,56.686832 80.3316324,56.686832 C80.7722174,56.686832 81.1271382,56.8215058 81.3950255,57.0897385 C81.661555,57.3568562 81.8165781,57.6918682 81.8560122,58.0936598" id="Shape" fill="#C62139"></path>
        <path d="M85.2542568,59.35246 L85.2542568,56.7936812 L85.9912915,56.7936812 L85.9912915,59.35246 C85.9912915,59.637387 86.0212094,59.8455171 86.0769603,59.9779653 C86.1653516,60.2105815 86.3557285,60.3285589 86.6521759,60.3285589 C86.9445406,60.3285589 87.13628,60.2105815 87.2246666,59.9779653 C87.2817823,59.8455171 87.3076175,59.637387 87.3076175,59.35246 L87.3076175,56.7936812 L88.0460123,56.7936812 L88.0460123,59.35246 C88.0460123,59.7932063 87.988899,60.1371231 87.8746724,60.3853208 C87.6598181,60.8349718 87.2532245,61.0609112 86.6508158,61.0609112 C86.0497626,61.0609112 85.6404533,60.8371974 85.4255967,60.3853208 C85.3113724,60.1393487 85.2542568,59.7932063 85.2542568,59.35246" id="Shape" fill="#C62139"></path>
        <path d="M93.0515387,56.7920896 L91.809124,60.9570424 L92.5720102,60.9570424 L92.8117745,60.1011379 L94.0905171,60.1011379 L94.3157502,60.9570424 L95.1004331,60.9570424 L93.865284,56.7920896 L93.0515387,56.7920896 L93.0515387,56.7920896 Z M93.4511458,57.7423459 L93.8870808,59.3800215 L93.0079452,59.3800215 L93.4511458,57.7423459 L93.4511458,57.7423459 Z" id="Shape" fill="#C62139"></path>
        <path d="M99.6848975,60.0647774 L100.311784,56.7936812 L101.354782,56.7936812 L101.354782,60.9540641 L100.678941,60.9540641 L100.678941,58.1415192 C100.678941,58.0591583 100.680294,57.9456322 100.681673,57.7998303 C100.683026,57.6540262 100.684405,57.5416151 100.684405,57.4637054 L100.02624,60.9540641 L99.3218462,60.9540641 L98.6691202,57.4637054 C98.6691202,57.5416151 98.6704733,57.6540262 98.671852,57.7998303 C98.6732052,57.9456322 98.6745839,58.0591583 98.6745839,58.1415192 L98.6745839,60.9540641 L97.9987428,60.9540641 L97.9987428,56.7936812 L99.0539798,56.7936812 L99.6849463,60.0647774" id="Shape" fill="#C62139"></path>
    </g>
</svg>