<?xml version="1.0" ?><svg height="120px" version="1.1" viewBox="0 0 180 120" width="180px" xmlns="http://www.w3.org/2000/svg" xmlns:sketch="http://www.bohemiancoding.com/sketch/ns" xmlns:xlink="http://www.w3.org/1999/xlink"><title/><defs/><g fill="none" fill-rule="evenodd" id="Page-1" stroke="none" stroke-width="1"><g id="rectangle_andorra"><rect fill="#F1C40F" height="120" id="Rectangle-3-copy-3" width="180" x="0" y="0"/><rect fill="#CA4738" height="120" id="Rectangle-3-copy-2" width="60" x="120" y="0"/><rect fill="#346DA6" height="120" id="Rectangle-3" width="60" x="0" y="0"/><g id="Flag_of_Andorra" transform="translate(62.000000, 30.000000)"><path d="M27.8362402,1.91953103 C29.2316056,1.91953103 30.0452005,1.46844356 31.2615262,0.789259168 C32.1100076,0.313568276 32.6514032,0.0600323465 33.6258226,0.0600323465 C34.6234747,0.0600323465 35.2351704,0.358615747 35.7455791,1.20514054 C36.033934,1.68413664 36.2734075,2.62159196 36.146573,3.15946916 C35.9061991,4.17953627 35.758092,4.62293633 35.3471249,5.56458816 C35.151562,6.0173468 34.9667732,6.28837437 34.9667732,6.78382228 C34.9667732,7.97152688 36.5993951,8.37955372 37.7094724,8.39654401 C37.9514275,8.40025773 39.98636,8.43332844 41.238634,7.17827546 C40.5592134,7.14867708 39.7989322,6.62786444 39.7989322,5.9552162 C39.7989322,5.19405136 40.3392154,4.67890215 41.0716815,4.45908683 C41.2108696,4.41973993 41.4479159,4.54138295 41.5739101,4.47579859 C41.7528447,4.38393963 41.6691312,4.18454979 41.8282169,4.05986152 C42.1927862,3.77117519 42.4297819,3.59094817 42.8971202,3.59094817 C43.2019927,3.59094817 43.3806647,3.63348888 43.6258949,3.807384 C43.7551566,3.89924296 43.8027155,4.01293861 43.9618031,4.01293861 C44.2965521,4.01293861 44.462291,3.8029461 44.7970401,3.8029461 C45.0688155,3.8029461 45.2345525,3.83906206 45.4731313,3.96042656 C45.672018,4.06216402 45.6675838,4.39658486 45.892965,4.39658486 C46.0056585,4.39658486 46.6017332,4.15606553 46.9132571,4.15606553 C47.5595843,4.15606553 47.9046236,4.38769049 48.3222402,4.87327846 C48.4349843,5.00452146 48.5070364,5.27007128 48.6216244,5.27007128 C48.8523908,5.27007128 49.3841245,5.41720903 49.7155498,5.74531653 C49.8580635,5.88638233 49.9212416,5.95317366 50.0306094,6.12376356 C50.1068819,6.24520233 50.2237938,6.54142752 50.3585514,6.59273261 C50.516476,6.65287637 50.6489058,6.64132669 50.856554,6.77310818 C51.330281,7.07371556 51.6946946,7.63881436 51.6776424,8.18636581 C51.6719402,8.36997231 51.5872775,8.62601501 51.5367662,8.80091283 C50.9851329,10.7105654 49.6723181,11.3165337 48.3465758,12.9570341 C47.783118,13.6559012 47.3384235,14.2136283 47.3384235,15.1093413 C47.3384235,15.3259257 47.6077717,15.7224586 47.7271164,15.9029455 C47.6542221,15.4821063 47.8485676,14.9650817 48.2979608,14.9410353 C48.9135694,14.9080575 49.3890352,15.3713817 49.4719046,15.9751032 C49.4884485,16.1161876 49.4354199,16.3599007 49.374729,16.5041603 C49.7061543,16.2876316 50.1430364,16.1412738 50.5407554,16.095335 C50.7562141,16.0723471 50.8808334,16.0659037 51.0995145,16.0713072 C52.0833857,16.095335 53.1692342,16.6432578 53.828172,17.1972897 C55.8444767,18.8926975 56.0881707,21.3738364 55.9780657,22.0628251 C55.7334208,23.5940306 55.887337,26.3648399 51.9340106,27.46945 C52.6651036,27.7741982 53.162476,28.3186115 53.162476,28.9879545 C53.162476,29.7163458 52.5990726,30.3397129 51.8632827,30.3397129 C51.4423367,30.3397129 51.150658,30.2379754 50.855708,29.9460025 C50.0337249,30.7596608 49.8746374,31.5897895 49.8746374,32.7413781 C49.8746374,33.4304225 50.0072285,33.8372609 50.2989053,34.460628 C50.6071035,35.1201483 50.8291609,35.5072854 51.38602,35.983032 C51.6809699,35.5433828 51.9925444,35.22183 52.5261276,35.22183 C53.0431875,35.22183 53.4807037,35.3859023 53.6927823,35.851789 C53.7557559,35.9928734 53.6994036,36.1077203 53.772328,36.2454994 C53.8651218,36.4226812 54.0209363,36.4620838 54.1170521,36.6392656 C54.2661646,36.9115558 54.1204284,37.1444991 54.2495907,37.4266679 C54.3324601,37.6104229 54.514771,37.6366604 54.5943148,37.8203783 C54.7202546,38.1025842 54.7534043,38.2961249 54.7534043,38.6078178 C54.7534043,39.48058 53.9513132,40.1040028 53.069684,40.1040028 C52.8045562,40.1040028 52.6587187,39.9989787 52.3935365,40.0252533 C52.8973463,40.5239507 53.281817,40.7404794 53.6662858,41.3376276 C54.2230942,42.2005671 54.3622804,42.8141114 54.4882202,43.831189 C54.5114435,44.0214987 54.5147804,44.1363457 54.5147804,44.3299421 C54.5147804,45.6357617 54.3092949,46.4166278 53.7193444,47.5846683 C53.1558847,48.7034833 52.6753001,49.3236195 51.6511534,50.051955 C50.0536301,51.1904713 48.8902973,51.518616 46.958025,51.8893385 C45.7184234,52.1255684 45.0091281,52.2305925 43.7496757,52.3092864 C42.138906,52.4110238 41.220854,52.414329 39.6133556,52.5192974 C37.5054218,52.6603818 36.0437609,52.9556414 34.5490028,54.4354304 C35.2549743,54.9472373 35.7421596,55.4492213 35.7421596,56.3121608 C35.7421596,57.1979953 35.1886788,57.831241 34.3368717,58.1101602 C34.1380357,58.175726 33.9922001,58.1166592 33.8065597,58.2151286 C33.584506,58.3299755 33.5944286,58.5825644 33.3823481,58.713826 C33.0078,58.950056 32.7161738,59.002568 32.268737,59.002568 C31.479896,59.002568 30.9429365,58.8188501 30.3861319,58.2675849 C29.7398571,58.7991488 29.5210765,59.2782006 28.7952561,59.6850391 C28.5565741,59.8162449 28.4339619,60 28.1589077,60 C27.7247172,60 27.5258306,59.7276726 27.1778352,59.475028 C26.6243543,59.0747257 26.32935,58.8089716 25.8785856,58.2938781 C25.2190664,58.6843019 24.8146942,59.002568 24.0490841,59.002568 C23.5784164,59.002568 23.2801446,58.9369465 22.8824238,58.6875885 C22.6736145,58.5596322 22.6404686,58.3693224 22.4316594,58.2413661 C22.2129276,58.1068735 22.0306148,58.1560804 21.7953091,58.0576481 C20.9103523,57.6803338 20.3369757,57.0306735 20.3369757,56.0759308 C20.3369757,55.2392659 20.8706095,54.7077206 21.6362215,54.3566252 C20.1679111,52.9031851 18.7228785,52.6505404 16.6513656,52.5192974 C15.0505691,52.4176157 14.1391159,52.414329 12.5415363,52.3092864 C11.2721652,52.2240193 10.5661936,52.0960443 9.30674503,51.8893385 C8.35549459,51.7351446 7.79209117,51.6859192 6.92038077,51.2856169 C3.92089704,49.9010478 2.00846984,48.0013667 1.61739847,44.74989 C1.58425257,44.4710079 1.59092451,44.3102408 1.59092451,44.028072 C1.59092451,42.3350596 2.26369385,41.3015674 3.47347519,40.1040028 C3.16190071,40.0317895 2.95314212,40.1335084 2.65149209,40.0252533 C1.89579703,39.752926 1.35229503,39.2345272 1.35229503,38.4372093 C1.35229503,38.1419311 1.36555639,37.945048 1.5113826,37.6891725 C1.6140972,37.508704 1.80965633,37.4725881 1.85605421,37.2691689 C1.91569846,37.0001653 1.83616592,36.809874 1.96214886,36.5604789 C2.04496203,36.3931571 2.2007746,36.3603463 2.28032213,36.1929874 C2.5421243,35.6549431 2.87027267,35.22183 3.47347519,35.22183 C3.99048449,35.22183 4.32196039,35.4908707 4.58708634,35.9305199 C5.09089992,35.7008818 5.23008607,35.3267984 5.51511345,34.8543942 C5.98905239,34.0702042 6.20451107,33.5222814 6.20451107,32.6101723 C6.20451107,31.97364 6.14153929,31.5996123 5.93938137,30.9958908 C5.7935439,30.5628334 5.73384526,30.2675552 5.40907507,29.9460025 C5.11407073,30.2379754 4.82239017,30.3397129 4.40150042,30.3397129 C3.5596159,30.3397129 2.91667056,29.6244311 2.91667056,28.7910715 C2.91667056,28.1709353 3.22486686,27.7116405 3.79165034,27.4524226 C3.33756218,27.0652854 2.9431689,27.032419 2.43940971,26.7174952 C1.67374144,26.2384434 1.40534048,25.7331727 0.901530644,24.9850801 C0.573378524,24.4962055 0.487235943,24.1550071 0.318175149,23.5939749 C0.116017222,22.9180957 0,22.5145067 0,21.8091035 C0,21.6253855 0.00337630148,21.5171119 0.0264758308,21.3366435 C0.215438046,19.9126718 0.473967078,19.0202454 1.37877086,17.8981437 C1.91567782,17.2320873 2.2803015,16.8219622 3.0757375,16.4807453 C3.75182874,16.1920032 4.15620087,15.9819922 4.8919945,15.9819922 C5.11404822,15.9819922 5.24331555,15.9819922 5.46209988,16.0082853 C5.80011831,16.0509374 6.01557886,16.0804615 6.31052881,16.2445339 C6.42322225,16.3068687 6.62870208,16.4938733 6.62870208,16.3626117 C6.62870208,16.2117231 6.54916205,16.1329736 6.54916205,15.9820107 C6.54916205,15.3783449 6.98667632,14.8271354 7.59653016,14.8271354 C8.03732132,14.8271354 8.21630469,15.2109859 8.43176337,15.588356 C8.57095327,15.3586436 8.64384575,15.2011631 8.64384575,14.9321038 C8.64384575,13.9346719 8.103615,13.4261517 7.4772398,12.648535 C6.11169841,10.9588092 4.40148167,10.1680831 4.40148167,8.00264789 C4.40148167,7.35629281 4.71633116,6.91660647 5.27646333,6.58526803 C5.43887281,6.49006672 5.65718446,6.58526803 5.81627016,6.48453327 C5.95213253,6.39919189 5.9365659,6.22550103 6.02275538,6.08772187 C6.15861963,5.87447985 6.2789135,5.78284371 6.46787571,5.61875282 C6.77939955,5.3497678 7.05297188,5.43033704 7.39764349,5.19410706 C7.56998117,5.07597351 7.61067498,4.92255957 7.74326609,4.76506054 C8.12773305,4.3057286 8.47282857,4.08396358 9.07935675,4.08396358 C9.38428179,4.08396358 9.55535336,4.08582045 9.83705132,4.1966751 C9.93317088,4.23279107 10.1127395,4.37621508 10.1360697,4.348455 C10.1968188,4.27635305 10.3613966,4.10366489 10.5569051,4.01180593 C10.8121103,3.89042286 10.9156165,3.84344426 11.2006964,3.84344426 C11.5254665,3.84344426 11.738288,4.02381982 12.0630619,4.02381982 C12.1824029,4.02381982 12.2099048,3.90583482 12.3060187,3.84344426 C12.5943736,3.64990354 12.7603226,3.54049723 13.1116474,3.54049723 C13.4497183,3.54049723 13.6364615,3.65099908 13.9214889,3.83143036 C14.1899424,3.99878933 14.2285804,4.22289399 14.5036833,4.38039302 C14.6561196,4.46900248 14.7853888,4.42961843 14.9544496,4.48541713 C15.7100884,4.73475656 16.2801975,5.23345397 16.2801975,6.02089341 C16.2801975,6.44743317 16.1774266,6.75257129 15.8559277,7.03145338 C15.6007206,7.25455535 15.3587654,7.21520844 15.0339952,7.32019542 C16.0879622,8.15355506 17.0050107,8.36026093 18.3506525,8.36026093 C19.5836046,8.36026093 21.0914534,7.86135926 21.0914534,6.64086248 C21.0914534,6.07320121 20.7744918,5.76824877 20.5491068,5.24656341 C20.1447403,4.31805817 19.9253764,3.77180652 19.9253764,2.76130225 C19.9253764,1.96069766 20.0134678,1.47501685 20.4841336,0.825375133 C20.9679933,0.156069246 21.5592137,0 22.3911231,0 C24.6514838,-5.57058582e-05 25.5758701,1.91953103 27.8362402,1.91953103 Z" fill="#C7B37F" id="path2526" stroke="#703D29"/><path d="M29,12 L44,12 L44,27 L29,27 L29,12 L29,12 Z" fill="#FEDF00" id="path3008" stroke="#703D29" stroke-width="0.79748672"/><path d="M43.9419657,39.6443343 C43.8994239,39.9201757 43.8035075,40.3934817 43.5475783,40.8784218 C43.2782028,41.3140052 43.377453,41.3021842 42.7677815,41.9990616 C42.4676655,42.342094 41.9992754,42.6360124 41.6321379,42.8384817 C41.2634611,43.0417539 40.9907501,43.1414946 40.3844105,43.3044485 C39.1957533,43.623839 38.361712,43.6437647 37.3617053,43.6028861 C36.5815492,43.5710087 35.9858875,43.4726687 35.4926565,43.4047121 C34.7891731,43.3078099 34.2652016,43.2501056 33.4650321,43.2159499 C33.0760319,43.1993296 32.7083801,43.1954826 32.3448882,43.2159499 C31.9061571,43.2407123 31.4728716,43.310331 31.0120736,43.4047121 C30.0195587,43.6079843 29,44 29,44 L29.010304,28.0042951 L44,28 L44,38.9326667 C44,38.9326667 43.9693342,39.4666835 43.9419585,39.6440915 L43.9419657,39.6443343 Z" fill="#FEDF00" id="path3010" stroke="#703D29" stroke-width="0.79748672"/><path d="M32.4655103,37.0002808 C32.4655103,37.0002808 32.3981304,37.0310463 32.3563154,37.0496494 C32.3014596,37.1070911 32.2740133,37.1407348 32.2126379,37.1922446 C32.1311799,37.2605498 32.0712483,37.2805219 31.982754,37.3403154 C31.9403726,37.3689222 31.9056454,37.3781535 31.8735591,37.4170974 C31.8271795,37.4733983 31.859012,37.5275231 31.8275823,37.5925991 C31.7932689,37.6636773 31.7597279,37.6972859 31.7068932,37.757132 C31.6395611,37.8334401 31.5875154,37.8641529 31.5114918,37.9326337 C31.4345874,38.0019744 31.4034427,38.0601357 31.3103434,38.1081354 C31.2857182,38.1207715 31.2738709,38.1331444 31.2471253,38.141042 C31.2074859,38.1528006 31.1828847,38.1391114 31.1436775,38.1519231 C31.0723105,38.1754929 31.0498407,38.2506603 31,38.2780737 C31.0205902,38.316298 31.0196523,38.3434481 31.0402297,38.3822691 C31.0692594,38.4390263 31.1699063,38.5955738 31.1896543,38.6345528 C31.2281037,38.6880984 31.2393294,38.7573338 31.287355,38.7716723 C31.386251,38.8011741 31.4452577,38.7985591 31.5287331,38.79361 C31.6744115,38.8255162 31.7642226,38.8213042 31.9022946,38.8758676 C32.0150076,38.9204275 32.0609366,38.9767811 32.1724082,39.023956 C32.2596134,39.0608464 32.314368,39.0835213 32.4080393,39.100738 C32.479147,39.1137251 32.5198586,39.1239042 32.5919465,39.1172351 C32.6378516,39.1130231 32.6612446,39.0962276 32.7068885,39.0898218 C32.7158632,39.0880668 32.7217666,39.0898218 32.7298769,39.0898218 L32.724139,39.1556349 C32.7232194,39.1556349 32.7250585,39.160549 32.724139,39.1610755 L32.724139,39.1719566 L32.7356332,39.1719566 L33.1149417,39.3310138 C33.1013694,39.3516528 33.0870798,39.3760475 33.0804591,39.3968269 C33.0624178,39.4530752 33.0594937,39.5176774 33.0689649,39.5448977 C33.184683,39.8761923 33.282152,40.0834072 33.3390786,40.1043094 C33.4522551,40.1457981 33.4872912,40.2561009 33.5517213,40.367562 C33.5289775,40.3907458 33.5099118,40.4028028 33.4885032,40.4224063 C33.3754131,40.5259874 33.2766384,40.5995402 33.1839069,40.7405032 C33.0468207,40.9489817 32.954262,40.9517721 33.1264359,41.2286261 C33.2274046,41.3909125 33.2761823,41.4215727 33.4080438,41.6509183 C33.4745465,41.7665915 33.5114382,41.8568345 33.5517213,41.9964461 C33.5898121,42.1284058 33.6028291,42.2052054 33.6091923,42.3419563 L33.7873523,42.4077695 L33.9080414,42.2926052 L34.0229834,42.0841969 L34.0287213,41.9251397 C33.9848392,41.8895831 33.9721515,41.8420748 33.9827445,41.7880378 C33.9955261,41.7233479 34.0773353,41.7369142 34.1149278,41.6783492 C34.1669901,41.5973552 34.0539589,41.5494608 33.9942387,41.4863855 C33.8828682,41.368852 33.7311613,41.3402101 33.6953896,41.1628129 C33.6857712,41.1148659 33.7096607,41.0879264 33.7643547,41.0366623 C33.9216303,40.8892584 33.9721515,40.8657938 34.126422,40.7185654 C34.1709275,40.7434867 34.2387047,40.7524724 34.3045821,40.7405032 C34.3559179,40.7312016 34.4018947,40.762476 34.5632015,40.8063163 C34.6752948,40.8367834 34.7237893,40.8214095 34.7873384,40.8117569 L34.8563036,40.7952597 C34.8655725,40.8323608 34.8768093,40.8682158 34.879292,40.9159171 C34.8890575,41.1020191 34.8508397,41.4414921 34.9080275,41.5301731 C34.9321524,41.5675725 34.9422434,41.588352 34.9597514,41.6288928 C34.9778846,41.6711186 34.9990615,41.6984442 34.9999811,41.7440746 C35.0020408,41.8661536 35.0086431,41.9442343 34.9999811,42.0731403 C34.9918708,42.1944296 34.9810313,42.2560131 34.9597514,42.3802683 C34.9461423,42.4594372 34.9292338,42.5055064 34.879292,42.5667389 C34.8271801,42.630604 34.7698562,42.6399933 34.7011319,42.6873963 L34.6838998,42.8628981 L34.8907954,42.9451557 L35.1264265,43 L35.2528626,42.9506489 C35.2528626,42.9060013 35.2602005,42.8806237 35.2815981,42.8409603 C35.3050426,42.7976992 35.3242297,42.7639853 35.3678046,42.7477163 C35.4344599,42.7227424 35.5074766,42.7703911 35.5344705,42.7312191 C35.5637963,42.6887477 35.5453946,42.6719873 35.5402084,42.5995928 C35.5318774,42.4833932 35.5064523,42.4260567 35.4884845,42.3089093 C35.4582943,42.1139796 35.4498916,42.0129257 35.459749,41.8262796 C35.4654685,41.7180828 35.4667927,41.6584473 35.4884845,41.5520582 C35.5201074,41.3971955 35.5777825,41.3219403 35.6149207,41.1681482 C35.6563752,40.9965953 35.6636009,40.8862573 35.6838859,40.7348871 C36.2667613,40.8143543 36.7519048,40.8045964 37.4022686,40.669074 C37.4333691,40.6625804 37.540199,40.6251985 37.540199,40.6251985 C37.6872272,40.7461017 37.8539409,40.8470678 38.0401966,40.9103888 C38.0390931,40.9282198 38.0372909,41.0587931 38.0401966,41.0803973 C38.0469092,41.1308716 38.0325828,41.1648663 38.063185,41.206548 C38.082589,41.2329785 38.0992363,41.2485982 38.1321502,41.2558991 C38.180435,41.2666047 38.2157838,41.2599356 38.2528393,41.2284857 C38.294463,41.1931221 38.2867334,41.1487202 38.2988161,41.0968594 C38.3047011,41.0721663 38.3001034,40.9978062 38.2988161,40.976202 C38.3662493,40.9858546 38.3891457,40.9870831 38.4597348,40.9870831 C38.5255092,40.9870831 38.5571027,40.9895401 38.6206536,40.9816425 C38.6215732,40.9958582 38.6243134,41.0463851 38.6263915,41.0639177 C38.6313202,41.1067928 38.6124697,41.1402083 38.6321294,41.179082 C38.6525192,41.2193771 38.6780235,41.2421222 38.724083,41.2503883 C38.7619661,41.2572329 38.7891181,41.2535473 38.8217837,41.2338911 C38.8761301,41.2014058 38.8701881,41.1464211 38.8792547,41.0858203 C38.8819397,41.0665152 38.8813328,40.9643907 38.8792547,40.9487008 C38.9181713,40.9369422 39.0313993,40.897507 39.068909,40.8828877 C39.0679894,40.9254644 39.0617734,40.973587 39.0516769,41.0254828 C39.0388218,41.0914715 39.0296724,41.1270106 39.0057001,41.1900157 C38.9678189,41.2896305 38.9244885,41.3402627 38.8677697,41.4313306 C38.7984716,41.5425636 38.7624166,41.60427 38.6781154,41.705552 C38.6393018,41.7522355 38.6123429,41.7732255 38.5746676,41.8207338 C38.5277308,41.8799481 38.5117383,41.9201204 38.4654727,41.9797734 C38.4058537,42.0566783 38.3716176,42.1068367 38.2930598,42.166244 C38.1654944,42.2627524 38.0815794,42.1855316 37.9080041,42.3143323 L37.8677744,42.4953097 L38.132141,42.5885538 L38.3677721,42.6324292 L38.4482314,42.5885538 C38.4460613,42.5357102 38.4540981,42.4983634 38.4884611,42.4569275 C38.5277382,42.4095771 38.5696727,42.3953088 38.6321386,42.3856211 C38.698588,42.3752665 38.769475,42.3915882 38.8217929,42.3472389 C38.8861714,42.2926754 38.8859158,42.1868128 38.9367349,42.089462 C39.0945769,41.7869848 39.2348208,41.6396862 39.4884564,41.4039172 C39.6011179,41.2992129 39.6976232,41.2709044 39.7930527,41.1516335 C39.8383876,41.0950342 39.8886752,41.0692881 39.8907534,40.9980695 C39.8922246,40.9484376 39.8642799,40.9252187 39.8505237,40.8774121 C39.8314764,40.8112304 39.8160411,40.7019103 39.8160411,40.7019103 C40.0959128,40.8325889 39.9945873,40.8153195 40.045925,40.9487008 C40.0874053,41.0566169 40.0399481,41.1311349 40.0574192,41.24486 C40.0778587,41.3775217 40.1431476,41.4403514 40.1551199,41.5739257 C40.1694095,41.7327197 40.128823,41.8232259 40.0976489,41.9797734 C40.0702725,42.1174721 40.0737502,42.203854 40.0114424,42.3307769 C39.9521361,42.45168 39.9064425,42.5197747 39.7987998,42.6049983 C39.7599862,42.6357111 39.7310557,42.6489264 39.6896049,42.6763046 L39.6666165,42.857282 L39.8735121,42.9230951 L40.1723612,42.9998771 L40.2413264,42.9395572 C40.2713916,42.8246913 40.2312667,42.6558587 40.3160387,42.6433981 C40.3907161,42.632517 40.4434404,42.6434156 40.4597162,42.5885538 C40.4664656,42.5654929 40.4705483,42.5313578 40.4769483,42.4788652 C40.5176249,42.1478865 40.5544633,41.8390913 40.5918903,41.6891075 C40.634211,41.5192745 40.6313292,41.4823665 40.6666026,41.3545486 C40.6988452,41.2379979 40.6509153,41.3049869 40.7413149,41.0583894 C40.8763358,40.6903272 40.7030327,40.6415728 40.5459135,40.41672 C40.4609392,40.2950798 40.43156,40.2510113 40.4194773,40.1534675 C40.4016383,40.0101001 40.4497668,39.8911451 40.4424657,39.6708378 C40.4349255,39.4392106 40.4383278,39.291912 40.4424657,39.1662703 C40.4636849,39.1569687 40.4832471,39.1450873 40.5056838,39.1333638 C40.720971,39.0205688 40.8066129,38.9866268 40.9424633,38.7000851 C40.9836383,38.613124 41.0012217,38.5256891 40.9999343,38.4423257 C40.9990148,38.3840416 40.9880171,38.3278635 40.9827022,38.2613308 C40.9771114,38.1913056 40.947587,38.1494485 40.9252312,38.096798 C40.9014244,38.0409533 40.8655662,37.9987627 40.8217834,37.9487272 C40.679728,37.7864407 40.4946346,37.7500768 40.3217858,37.6909503 C40.0489521,37.597636 39.8610983,37.6146772 39.5631687,37.5922305 C39.255663,37.5690468 39.0838404,37.5645539 38.7758161,37.5813494 C38.4067751,37.6014093 38.2005728,37.6724348 37.8332918,37.7129757 C37.480968,37.7518844 37.285653,37.7779289 36.9309972,37.7842821 C36.5153302,37.7916531 36.1179988,37.703446 35.8677839,37.7239446 C35.4170274,37.7607999 35.4093051,37.8575365 34.7298582,37.9104151 C34.3754654,37.9380391 34.022965,37.9433217 34.022965,37.9433217 L33.6264152,37.8226643 C33.7839482,37.7689432 33.8224713,37.7370019 33.8965288,37.6416869 C33.9465203,37.5774357 33.939427,37.5226266 33.9999766,37.4552163 C34.0490375,37.4004949 34.0814475,37.3459841 34.1436541,37.2851903 C34.0866245,37.2414728 34.025422,37.219149 33.9712411,37.2084083 C33.9043247,37.1950702 33.8657961,37.2010372 33.7988281,37.2084083 C33.7079523,37.2182364 33.656769,37.2302232 33.5746913,37.2687458 C33.5086061,37.2998096 33.4599277,37.3314701 33.4195196,37.3729411 C33.4195196,37.3729411 33.1830848,37.2275029 33.0172226,37.1590572 C32.8115096,37.0740617 32.7228645,37.0341526 32.4655011,37 L32.4655103,37.0002808 Z M33,39 L33.0115741,39 C33.0092963,39.0017647 33.0080556,39.0038824 33.0057963,39.0054706 L33.0000185,39 L33,39 Z" fill="#D52B1E" id="path3018"/><path d="M46,39.3400037 C46,39.3433248 45.9983179,39.7806926 45.9604089,40.0572278 C45.8498553,40.862239 45.7201052,41.3254558 45.3501094,42.0510933 C44.9893165,42.7587415 44.7010485,43.1302781 44.1295141,43.6863928 C43.5528773,44.2474892 43.1532147,44.5045408 42.4293675,44.8626823 C41.7244515,45.2114326 41.2803514,45.3223197 40.5112724,45.4938166 C39.7427205,45.6651474 39.293148,45.702528 38.5059789,45.7376761 C37.784182,45.769909 37.3746866,45.7397057 36.6538877,45.6907013 C35.8824968,45.6379884 35.4545954,45.5319168 34.6843071,45.4651631 C34.0481313,45.4099593 33.6888112,45.3591837 33.0502187,45.360752 C32.3937435,45.3625971 32.0175912,45.3664717 31.3712143,45.4794806 C30.7688057,45.5847773 30.4270506,45.6686714 29.8599849,45.8954643 C29.0753913,46.2092694 28.1889219,46.7561405 28.0000047,47 C27.8110875,46.7561405 26.9245676,46.2092141 26.1400282,45.8954643 C25.5729625,45.6686714 25.2312092,45.5847773 24.6288007,45.4794806 C23.9824219,45.3665086 23.6062714,45.3624126 22.9497981,45.360752 C22.3111496,45.358907 21.9518276,45.4099593 21.3157097,45.4651631 C20.5453654,45.5319168 20.1175182,45.6379884 19.3461216,45.6907013 C18.6252742,45.7399086 18.215833,45.7699275 17.4940361,45.7376761 C16.7068632,45.7025465 16.2572926,45.6651474 15.4887407,45.4938166 C14.7196617,45.3223197 14.2755579,45.2114326 13.5706456,44.8626823 C12.8467965,44.5045408 12.4471396,44.2474892 11.8705009,43.6863928 C11.2989627,43.1302781 11.0106424,42.7587415 10.6499037,42.0510933 C10.279906,41.3254558 10.1501578,40.862239 10.0395519,40.0572278 C10.0015569,39.7806926 10,39.3434355 10,39.3400037 L10,39.3399484 L10,10 L45.9874926,10 L45.9874926,39.3399484 L45.9999776,39.3400037 L46,39.3400037 Z" id="path2992" stroke="#703D29" stroke-width="0.98686868"/><path d="M31,12.4000015 L33,12.4000015 L33,26.6000015 L31,26.6000015 L31,12.4000015 L31,12.4000015 Z" fill="#D52B1E" id="path4023"/><path d="M12,12 L27,12 L27,27 L12,27 L12,12 L12,12 Z" fill="#D52B1E" id="path2994" stroke="#703D29" stroke-width="0.79748672"/><path d="M26.9999805,23.3457875 C26.9999805,23.3457875 26.9906287,23.865987 26.8333664,24.2839532 C26.6515652,24.7668866 26.6501956,24.7668866 26.4835308,25.001397 C26.2590172,25.3174314 25.9853326,25.5484459 25.7413108,25.6912639 C25.3597823,25.9145767 24.9720583,26.0262331 24.582419,25.9947698 C23.5126189,25.9084366 23.0163456,24.8519244 22.7737987,23.994218 C22.5162888,23.0836824 21.7853631,22.5882027 21.3196216,22.9180789 C21.0469813,23.1112416 21.0316307,23.4352262 21.2590433,23.7459369 C21.5014227,24.0770198 22.0576761,24.2426055 22.0576761,24.2426055 L21.4862903,24.90486 C21.4862903,24.90486 20.2584894,24.7592559 20.0183563,23.5928796 C19.9275094,23.1513471 20.1628749,22.326985 20.9712667,22.0805495 C22.0032369,21.7658992 22.6635486,22.4361925 22.9815842,23.0018389 C23.4190871,23.7797426 23.6069182,25.2083837 24.8187159,24.9876085 C25.4779833,24.8675052 25.7881809,23.994218 25.7881809,23.5941218 L26.2688347,23.1250301 L26.9807898,23.3320168 L27,23.3458585 L26.9999805,23.3457875 Z" fill="#FFFFFF" id="path2998" transform="translate(23.500000, 24.000000) scale(-1, 1) translate(-23.500000, -24.000000) "/><path d="M18.9999805,23.3457875 C18.9999805,23.3457875 18.9906287,23.865987 18.8333664,24.2839532 C18.6515652,24.7668866 18.6501956,24.7668866 18.4835308,25.001397 C18.2590172,25.3174314 17.9853326,25.5484459 17.7413108,25.6912639 C17.3597823,25.9145767 16.9720583,26.0262331 16.582419,25.9947698 C15.5126189,25.9084366 15.0163456,24.8519244 14.7737987,23.994218 C14.5162888,23.0836824 13.7853631,22.5882027 13.3196216,22.9180789 C13.0469813,23.1112416 13.0316307,23.4352262 13.2590433,23.7459369 C13.5014227,24.0770198 14.0576761,24.2426055 14.0576761,24.2426055 L13.4862903,24.90486 C13.4862903,24.90486 12.2584894,24.7592559 12.0183563,23.5928796 C11.9275094,23.1513471 12.1628749,22.326985 12.9712667,22.0805495 C14.0032369,21.7658992 14.6635486,22.4361925 14.9815842,23.0018389 C15.4190871,23.7797426 15.6069182,25.2083837 16.8187159,24.9876085 C17.4779833,24.8675052 17.7881809,23.994218 17.7881809,23.5941218 L18.2688347,23.1250301 L18.9807898,23.3320168 L19,23.3458585 L18.9999805,23.3457875 Z" fill="#FFFFFF" id="path2998"/><path d="M21.1410503,16.9070137 L23.1682277,14.7777065 C23.1682277,14.7777065 23.4741844,14.5382008 23.4714809,14.1556245 L23.0534986,14.2187563 L22.9598743,14.0099752 L22.9390484,13.8001517 L23.5008075,13.6850807 C23.5097189,13.5965097 23.5021263,13.5295007 23.5181404,13.4317855 C23.5331184,13.3414588 23.5539367,13.2930309 23.5767767,13.2042587 L22.9615247,13.2442739 C22.9927843,13.1397553 22.9856589,13.0841767 23.0201063,12.9870101 C23.0491183,12.905279 23.0571743,12.8740423 23.1148478,12.785325 C23.2290965,12.7686825 23.3330094,12.7436456 23.474192,12.7297463 C23.6112919,12.7163958 23.6895953,12.7226138 23.8271173,12.7142011 C24.1626606,12.1067682 25.5584135,11.5486409 26.5502409,12.5488369 C27.2679739,13.2727307 27.1131153,14.600601 26.1826824,14.9518309 C25.6553839,15.1509008 25.2306173,15.0331963 24.8899343,14.7488107 L25.2612608,14.041852 C25.7739262,14.3391126 26.1986928,13.969448 26.1694284,13.5855183 C26.1323585,13.100234 25.8079628,12.7997363 25.3491615,12.7608184 C24.9244457,12.7247902 24.6195535,12.9607113 24.426308,13.3296079 C24.3084006,13.5546474 24.3629542,13.7197373 24.3237742,13.969448 C24.2812557,14.2407207 24.3051601,14.392076 24.2226194,14.6661652 C24.1626606,14.8651802 24.00504,15.1113246 23.7761716,15.3231964 L21.6981503,17.5059243 L13.6079345,26 L13,25.4544369 L21.1410579,16.9069954 L21.1410503,16.9070137 Z" fill="#FEDF00" id="path3000"/><path d="M15,17.7906287 C15,17.7906287 15.5012276,20.2743698 17.20467,24 C18.0708657,23.6823351 18.5822351,23.4801053 19.4999972,23.4801053 C20.417815,23.4801053 20.9291844,23.6534159 21.7953244,24 C23.4987668,20.2743698 24,17.7906287 24,17.7906287 L19.4999972,12 L15,17.7906287 L15,17.7906287 Z" fill="#FFFFFF" id="path3002"/><path d="M23,14 L20,18.0576965 C20,18.0576965 20.4001206,20.0304808 21.6192048,23 C22.0911442,22.8870096 22.4959842,22.7885345 22.9983448,22.7525463 L22.9999501,14 L23,14 Z" fill="#FEDF00" id="path3006" transform="translate(21.500000, 18.500000) scale(-1, 1) translate(-21.500000, -18.500000) "/><path d="M19,14 L16,18.0576965 C16,18.0576965 16.4001206,20.0304808 17.6192048,23 C18.0911442,22.8870096 18.4959842,22.7885345 18.9983448,22.7525463 L18.9999501,14 L19,14 Z" fill="#FEDF00" id="path3006"/><path d="M32.4655103,30.0002808 C32.4655103,30.0002808 32.3981304,30.0310463 32.3563154,30.0496494 C32.3014596,30.1070911 32.2740133,30.1407348 32.2126379,30.1922446 C32.1311799,30.2605498 32.0712483,30.2805219 31.982754,30.3403154 C31.9403726,30.3689222 31.9056454,30.3781535 31.8735591,30.4170974 C31.8271795,30.4733983 31.859012,30.5275231 31.8275823,30.5925991 C31.7932689,30.6636773 31.7597279,30.6972859 31.7068932,30.757132 C31.6395611,30.8334401 31.5875154,30.8641529 31.5114918,30.9326337 C31.4345874,31.0019744 31.4034427,31.0601357 31.3103434,31.1081354 C31.2857182,31.1207715 31.2738709,31.1331444 31.2471253,31.141042 C31.2074859,31.1528006 31.1828847,31.1391114 31.1436775,31.1519231 C31.0723105,31.1754929 31.0498407,31.2506603 31,31.2780737 C31.0205902,31.316298 31.0196523,31.3434481 31.0402297,31.3822691 C31.0692594,31.4390263 31.1699063,31.5955738 31.1896543,31.6345528 C31.2281037,31.6880984 31.2393294,31.7573338 31.287355,31.7716723 C31.386251,31.8011741 31.4452577,31.7985591 31.5287331,31.79361 C31.6744115,31.8255162 31.7642226,31.8213042 31.9022946,31.8758676 C32.0150076,31.9204275 32.0609366,31.9767811 32.1724082,32.023956 C32.2596134,32.0608464 32.314368,32.0835213 32.4080393,32.100738 C32.479147,32.1137251 32.5198586,32.1239042 32.5919465,32.1172351 C32.6378516,32.1130231 32.6612446,32.0962276 32.7068885,32.0898218 C32.7158632,32.0880668 32.7217666,32.0898218 32.7298769,32.0898218 L32.724139,32.1556349 C32.7232194,32.1556349 32.7250585,32.160549 32.724139,32.1610755 L32.724139,32.1719566 L32.7356332,32.1719566 L33.1149417,32.3310138 C33.1013694,32.3516528 33.0870798,32.3760475 33.0804591,32.3968269 C33.0624178,32.4530752 33.0594937,32.5176774 33.0689649,32.5448977 C33.184683,32.8761923 33.282152,33.0834072 33.3390786,33.1043094 C33.4522551,33.1457981 33.4872912,33.2561009 33.5517213,33.367562 C33.5289775,33.3907458 33.5099118,33.4028028 33.4885032,33.4224063 C33.3754131,33.5259874 33.2766384,33.5995402 33.1839069,33.7405032 C33.0468207,33.9489817 32.954262,33.9517721 33.1264359,34.2286261 C33.2274046,34.3909125 33.2761823,34.4215727 33.4080438,34.6509183 C33.4745465,34.7665915 33.5114382,34.8568345 33.5517213,34.9964461 C33.5898121,35.1284058 33.6028291,35.2052054 33.6091923,35.3419563 L33.7873523,35.4077695 L33.9080414,35.2926052 L34.0229834,35.0841969 L34.0287213,34.9251397 C33.9848392,34.8895831 33.9721515,34.8420748 33.9827445,34.7880378 C33.9955261,34.7233479 34.0773353,34.7369142 34.1149278,34.6783492 C34.1669901,34.5973552 34.0539589,34.5494608 33.9942387,34.4863855 C33.8828682,34.368852 33.7311613,34.3402101 33.6953896,34.1628129 C33.6857712,34.1148659 33.7096607,34.0879264 33.7643547,34.0366623 C33.9216303,33.8892584 33.9721515,33.8657938 34.126422,33.7185654 C34.1709275,33.7434867 34.2387047,33.7524724 34.3045821,33.7405032 C34.3559179,33.7312016 34.4018947,33.762476 34.5632015,33.8063163 C34.6752948,33.8367834 34.7237893,33.8214095 34.7873384,33.8117569 L34.8563036,33.7952597 C34.8655725,33.8323608 34.8768093,33.8682158 34.879292,33.9159171 C34.8890575,34.1020191 34.8508397,34.4414921 34.9080275,34.5301731 C34.9321524,34.5675725 34.9422434,34.588352 34.9597514,34.6288928 C34.9778846,34.6711186 34.9990615,34.6984442 34.9999811,34.7440746 C35.0020408,34.8661536 35.0086431,34.9442343 34.9999811,35.0731403 C34.9918708,35.1944296 34.9810313,35.2560131 34.9597514,35.3802683 C34.9461423,35.4594372 34.9292338,35.5055064 34.879292,35.5667389 C34.8271801,35.630604 34.7698562,35.6399933 34.7011319,35.6873963 L34.6838998,35.8628981 L34.8907954,35.9451557 L35.1264265,36 L35.2528626,35.9506489 C35.2528626,35.9060013 35.2602005,35.8806237 35.2815981,35.8409603 C35.3050426,35.7976992 35.3242297,35.7639853 35.3678046,35.7477163 C35.4344599,35.7227424 35.5074766,35.7703911 35.5344705,35.7312191 C35.5637963,35.6887477 35.5453946,35.6719873 35.5402084,35.5995928 C35.5318774,35.4833932 35.5064523,35.4260567 35.4884845,35.3089093 C35.4582943,35.1139796 35.4498916,35.0129257 35.459749,34.8262796 C35.4654685,34.7180828 35.4667927,34.6584473 35.4884845,34.5520582 C35.5201074,34.3971955 35.5777825,34.3219403 35.6149207,34.1681482 C35.6563752,33.9965953 35.6636009,33.8862573 35.6838859,33.7348871 C36.2667613,33.8143543 36.7519048,33.8045964 37.4022686,33.669074 C37.4333691,33.6625804 37.540199,33.6251985 37.540199,33.6251985 C37.6872272,33.7461017 37.8539409,33.8470678 38.0401966,33.9103888 C38.0390931,33.9282198 38.0372909,34.0587931 38.0401966,34.0803973 C38.0469092,34.1308716 38.0325828,34.1648663 38.063185,34.206548 C38.082589,34.2329785 38.0992363,34.2485982 38.1321502,34.2558991 C38.180435,34.2666047 38.2157838,34.2599356 38.2528393,34.2284857 C38.294463,34.1931221 38.2867334,34.1487202 38.2988161,34.0968594 C38.3047011,34.0721663 38.3001034,33.9978062 38.2988161,33.976202 C38.3662493,33.9858546 38.3891457,33.9870831 38.4597348,33.9870831 C38.5255092,33.9870831 38.5571027,33.9895401 38.6206536,33.9816425 C38.6215732,33.9958582 38.6243134,34.0463851 38.6263915,34.0639177 C38.6313202,34.1067928 38.6124697,34.1402083 38.6321294,34.179082 C38.6525192,34.2193771 38.6780235,34.2421222 38.724083,34.2503883 C38.7619661,34.2572329 38.7891181,34.2535473 38.8217837,34.2338911 C38.8761301,34.2014058 38.8701881,34.1464211 38.8792547,34.0858203 C38.8819397,34.0665152 38.8813328,33.9643907 38.8792547,33.9487008 C38.9181713,33.9369422 39.0313993,33.897507 39.068909,33.8828877 C39.0679894,33.9254644 39.0617734,33.973587 39.0516769,34.0254828 C39.0388218,34.0914715 39.0296724,34.1270106 39.0057001,34.1900157 C38.9678189,34.2896305 38.9244885,34.3402627 38.8677697,34.4313306 C38.7984716,34.5425636 38.7624166,34.60427 38.6781154,34.705552 C38.6393018,34.7522355 38.6123429,34.7732255 38.5746676,34.8207338 C38.5277308,34.8799481 38.5117383,34.9201204 38.4654727,34.9797734 C38.4058537,35.0566783 38.3716176,35.1068367 38.2930598,35.166244 C38.1654944,35.2627524 38.0815794,35.1855316 37.9080041,35.3143323 L37.8677744,35.4953097 L38.132141,35.5885538 L38.3677721,35.6324292 L38.4482314,35.5885538 C38.4460613,35.5357102 38.4540981,35.4983634 38.4884611,35.4569275 C38.5277382,35.4095771 38.5696727,35.3953088 38.6321386,35.3856211 C38.698588,35.3752665 38.769475,35.3915882 38.8217929,35.3472389 C38.8861714,35.2926754 38.8859158,35.1868128 38.9367349,35.089462 C39.0945769,34.7869848 39.2348208,34.6396862 39.4884564,34.4039172 C39.6011179,34.2992129 39.6976232,34.2709044 39.7930527,34.1516335 C39.8383876,34.0950342 39.8886752,34.0692881 39.8907534,33.9980695 C39.8922246,33.9484376 39.8642799,33.9252187 39.8505237,33.8774121 C39.8314764,33.8112304 39.8160411,33.7019103 39.8160411,33.7019103 C40.0959128,33.8325889 39.9945873,33.8153195 40.045925,33.9487008 C40.0874053,34.0566169 40.0399481,34.1311349 40.0574192,34.24486 C40.0778587,34.3775217 40.1431476,34.4403514 40.1551199,34.5739257 C40.1694095,34.7327197 40.128823,34.8232259 40.0976489,34.9797734 C40.0702725,35.1174721 40.0737502,35.203854 40.0114424,35.3307769 C39.9521361,35.45168 39.9064425,35.5197747 39.7987998,35.6049983 C39.7599862,35.6357111 39.7310557,35.6489264 39.6896049,35.6763046 L39.6666165,35.857282 L39.8735121,35.9230951 L40.1723612,35.9998771 L40.2413264,35.9395572 C40.2713916,35.8246913 40.2312667,35.6558587 40.3160387,35.6433981 C40.3907161,35.632517 40.4434404,35.6434156 40.4597162,35.5885538 C40.4664656,35.5654929 40.4705483,35.5313578 40.4769483,35.4788652 C40.5176249,35.1478865 40.5544633,34.8390913 40.5918903,34.6891075 C40.634211,34.5192745 40.6313292,34.4823665 40.6666026,34.3545486 C40.6988452,34.2379979 40.6509153,34.3049869 40.7413149,34.0583894 C40.8763358,33.6903272 40.7030327,33.6415728 40.5459135,33.41672 C40.4609392,33.2950798 40.43156,33.2510113 40.4194773,33.1534675 C40.4016383,33.0101001 40.4497668,32.8911451 40.4424657,32.6708378 C40.4349255,32.4392106 40.4383278,32.291912 40.4424657,32.1662703 C40.4636849,32.1569687 40.4832471,32.1450873 40.5056838,32.1333638 C40.720971,32.0205688 40.8066129,31.9866268 40.9424633,31.7000851 C40.9836383,31.613124 41.0012217,31.5256891 40.9999343,31.4423257 C40.9990148,31.3840416 40.9880171,31.3278635 40.9827022,31.2613308 C40.9771114,31.1913056 40.947587,31.1494485 40.9252312,31.096798 C40.9014244,31.0409533 40.8655662,30.9987627 40.8217834,30.9487272 C40.679728,30.7864407 40.4946346,30.7500768 40.3217858,30.6909503 C40.0489521,30.597636 39.8610983,30.6146772 39.5631687,30.5922305 C39.255663,30.5690468 39.0838404,30.5645539 38.7758161,30.5813494 C38.4067751,30.6014093 38.2005728,30.6724348 37.8332918,30.7129757 C37.480968,30.7518844 37.285653,30.7779289 36.9309972,30.7842821 C36.5153302,30.7916531 36.1179988,30.703446 35.8677839,30.7239446 C35.4170274,30.7607999 35.4093051,30.8575365 34.7298582,30.9104151 C34.3754654,30.9380391 34.022965,30.9433217 34.022965,30.9433217 L33.6264152,30.8226643 C33.7839482,30.7689432 33.8224713,30.7370019 33.8965288,30.6416869 C33.9465203,30.5774357 33.939427,30.5226266 33.9999766,30.4552163 C34.0490375,30.4004949 34.0814475,30.3459841 34.1436541,30.2851903 C34.0866245,30.2414728 34.025422,30.219149 33.9712411,30.2084083 C33.9043247,30.1950702 33.8657961,30.2010372 33.7988281,30.2084083 C33.7079523,30.2182364 33.656769,30.2302232 33.5746913,30.2687458 C33.5086061,30.2998096 33.4599277,30.3314701 33.4195196,30.3729411 C33.4195196,30.3729411 33.1830848,30.2275029 33.0172226,30.1590572 C32.8115096,30.0740617 32.7228645,30.0341526 32.4655011,30 L32.4655103,30.0002808 Z M33,32 L33.0115741,32 C33.0092963,32.0017647 33.0080556,32.0038824 33.0057963,32.0054706 L33.0000185,32 L33,32 Z" fill="#D52B1E" id="path3018"/><path d="M12.058138,39.6443343 C12.1007091,39.9202318 12.1966933,40.3935377 12.4527948,40.8784778 C12.722359,41.3140052 12.6230369,41.3021842 13.2331787,41.999099 C13.5335009,42.34215 14.0021638,42.6360685 14.3696066,42.8384817 C14.7384857,43.0417539 15.0114353,43.1415506 15.618188,43.3044485 C16.807613,43.6238576 17.6422277,43.6437647 18.6429218,43.6029422 C19.4236634,43.5710274 20.0197383,43.4727247 20.5133046,43.4047121 C21.2172716,43.3078099 21.7416015,43.2501243 22.5422736,43.2160059 C22.9315886,43.1993856 23.2994439,43.1954453 23.6631875,43.2160059 C24.1022201,43.2407684 24.5358582,43.310387 24.9969675,43.4047121 C25.9901154,43.6079843 26.9975363,44 26.9975363,44 L27,28.0042951 L12,28 L12,38.9326667 C12,38.9326667 12.0307726,39.4667395 12.0580851,39.6440915 L12.058138,39.6443343 Z" fill="#FEDF00" id="path3116" stroke="#703D29" stroke-width="0.79748672"/><path d="M14.0002935,42.4325395 C14.2868905,42.5878018 14.5807591,42.6873728 14.8439334,42.8046428 C15.2750653,42.9968855 15.477471,43.0428258 16,43.2000015 L15.9989049,28.4000015 L14,28.4000015 L14,42.392597 L14.0002146,42.3905732 L14.0002935,42.4325947 L14.0002935,42.4325395 Z" fill="#D52B1E" id="path3118"/><path d="M21.9975283,43.0683494 L22,28.4000015 L20,28.4000015 L20,43.2000015 C20,43.2000015 21.3686618,43.1022636 21.9972921,43.0683494 L21.9975283,43.0683494 Z" fill="#D52B1E" id="path3120"/><path d="M24.9961188,28.4000015 L23,28.4000015 L23,42.9117065 C23.6505,42.969814 24.3193635,43.0497684 25,43.2000015 L24.9960574,28.4000015 L24.9961188,28.4000015 Z" fill="#D52B1E" id="path3122"/><path d="M35.5,12.4000015 L37.5,12.4000015 L37.5,26.6000015 L35.5,26.6000015 L35.5,12.4000015 L35.5,12.4000015 Z" fill="#D52B1E" id="path4023"/><path d="M40,12.4000015 L42,12.4000015 L42,26.6000015 L40,26.6000015 L40,12.4000015 L40,12.4000015 Z" fill="#D52B1E" id="path4023"/><path d="M19,28.4000015 L19,43.1938971 C18.9803125,43.1956922 17.6698963,43.2187414 17,43.1616928 L17.000436,28.4025865 L18.9998866,28.4000733 L19,28.4000015 Z" fill="#D52B1E" id="path3134"/></g></g></g></svg>