<?xml version="1.0" ?><svg height="120px" version="1.1" viewBox="0 0 180 120" width="180px" xmlns="http://www.w3.org/2000/svg" xmlns:sketch="http://www.bohemiancoding.com/sketch/ns" xmlns:xlink="http://www.w3.org/1999/xlink"><title/><defs/><g fill="none" fill-rule="evenodd" id="Africa,-Middle-East-and-India" stroke="none" stroke-width="1"><g id="Africa,-Middle-Eest-and-India" transform="translate(-600.000000, -1201.000000)"><g id="Liberia" transform="translate(600.000000, 1201.000000)"><rect d="M0.00552366097,0 L0.00552366097,120 L180,120 L180,0 L0.00552366097,0 Z M0.00552366097,0" fill="#FFFFFF" height="120" id="Rectangle-3-copy-2" width="179.994476" x="0.00552366097" y="0"/><rect d="M0,-8.8817842e-16 L0,11 L180,11 L180,-8.8817842e-16 L0,-8.8817842e-16 Z M0,-8.8817842e-16" fill="#CA4638" height="11" id="Rectangle-3" width="180" x="0" y="-1.30270166e-15"/><rect d="M0,22 L0,33 L180,33 L180,22 L0,22 Z M0,22" fill="#CA4638" height="11" id="Rectangle-3-copy" width="180" x="0" y="22"/><rect d="M0,44 L0,55 L180,55 L180,44 L0,44 Z M0,44" fill="#CA4638" height="11" id="Rectangle-3" width="180" x="0" y="44"/><rect d="M0,65 L0,76 L180,76 L180,65 L0,65 Z M0,65" fill="#CA4638" height="11" id="Rectangle-3-copy" width="180" x="0" y="65"/><rect d="M0,87 L0,98 L180,98 L180,87 L0,87 Z M0,87" fill="#CA4638" height="11" id="Rectangle-3-copy" width="180" x="0" y="87"/><rect d="M0,109 L0,120 L180,120 L180,109 L0,109 Z M0,109" fill="#CA4638" height="11" id="Rectangle-3-copy-2" width="180" x="0" y="109"/><rect d="M0,0 L0,55 L55,55 L55,0 L0,0 Z M0,0" fill="#346DA6" height="55" id="Rectangle-21-copy" width="55" x="0" y="0"/><polygon d="M27.4999996,36.5 L17.8015441,41.7532895 L19.6537838,30.6266448 L11.8075674,22.7467115 L22.6507732,21.1233544 L27.5000002,11 L32.3492301,21.1233569 L43.1924352,22.7467196 L35.3462155,30.6266469 L37.1984556,41.7532897 L27.4999996,36.5 Z M27.4999996,36.5" fill="#FFFFFF" id="Star-1" points="27.4999996 36.5 17.8015441 41.7532895 19.6537838 30.6266448 11.8075674 22.7467115 22.6507732 21.1233544 27.5000002 11 32.3492301 21.1233569 43.1924352 22.7467196 35.3462155 30.6266469 37.1984556 41.7532897 "/></g></g></g></svg>