<?xml version="1.0" encoding="UTF-8" standalone="no"?>
<svg width="180px" height="120px" viewBox="0 0 180 120" version="1.1" xmlns="http://www.w3.org/2000/svg" xmlns:xlink="http://www.w3.org/1999/xlink">
    <!-- Generator: Sketch 40.2 (33826) - http://www.bohemiancoding.com/sketch -->
    <title>icon-flag-hr</title>
    <desc>Created with Sketch.</desc>
    <defs></defs>
    <g id="Page-1" stroke="none" stroke-width="1" fill="none" fill-rule="evenodd">
        <rect id="Rectangle-1" fill="#FFFFFF" x="0" y="0" width="180" height="120"></rect>
        <rect id="Rectangle-1_1_" fill="#CA4638" x="0" y="0" width="180" height="40"></rect>
        <rect id="Rectangle-1_2_" fill="#346DA6" x="0" y="80" width="180" height="40"></rect>
        <path d="M90,94 L90,94 C103.2,94 114,83.1 114,69.9 L114,41 L66,41 L66,69.9 C66,83.1 76.8,94 90,94 C90,94 76.8,94 90,94 L90,94 L90,94 L90,94 Z" id="Shape" stroke="#CA4638" fill="#FFFFFF"></path>
        <path d="M114,41 L120,27.6 L115.4,20.3 L108,23 L102.8,17.1 L96,21 L90,16 L83.9,20.9 L77.1,17 L71.9,22.9 L64.5,20.2 L60,27.6 L65.9,41 C73.2,37.7 81.4,35.8 90,35.8 C98.6,35.8 106.7,37.7 114,41 C114,41 106.7,37.7 114,41 L114,41 L114,41 L114,41 Z" id="Shape_1_" fill="#CA4638"></path>
        <path d="M114.1,41 L120,27.6 L115.5,20.3 L108.1,23.1 L102.9,17.1 L96.1,21.1 L90,16 L83.9,21 L77.1,17 L71.9,23 L64.5,20.2 L60,27.6 L65.9,41 C73.3,37.6 81.5,35.8 90,35.8 C98.6,35.8 106.8,37.6 114.1,41 C114.1,41 106.8,37.6 114.1,41 L114.1,41 L114.1,41 L114.1,41 Z" id="Shape_2_" fill="#FFFFFF"></path>
        <path d="M114.4,40 L120,27.5 L115.8,21 L108.4,23.7 L105,36.8 C108.2,37.6 111.4,38.7 114.4,40 C114.4,40 111.4,38.7 114.4,40 L114.4,40 L114.4,40 L114.4,40 Z" id="Shape_4_" fill="#4086CD"></path>
        <path d="M117,32.5 C113.8,31 110.4,30 107,29 L106,32.8 C109.3,33.7 115.6,36 115.6,36 L117,32.5 L117,32.5 Z" id="Shape_5_" fill="#CA4638"></path>
        <path d="M83.9,21.8 L83.9,21.8 L77.1,18 L72,23.8 L75.4,37 C78.5,36.2 81.7,35.7 85,35.4 L83.9,21.8 L83.9,21.8 L83.9,21.8 L83.9,21.8 Z" id="Shape_6_" fill="#346DA6"></path>
        <path d="M71.6,23.7 L71.6,23.7 L64.2,21 L60,27.5 L61.6,31 L65.6,39.9 C68.6,38.6 71.7,37.5 75,36.7 L71.6,23.7 L71.6,23.7 L71.6,23.7 L71.6,23.7 Z" id="Shape_7_" fill="#4086CD"></path>
        <path d="M76,42 L67,42 L67,52 L76,52 L76,42 L76,42 Z M76,62 L85,62 L85,52 L76,52 L76,62 L76,62 Z M67,70.3 C67,71.2 67.1,72.1 67.2,73 L76,73 L76,63 L67,63 L67,70.3 L67,70.3 Z M95,63 L86,63 L86,73 L95,73 L95,63 L95,63 Z M95,82 L104,82 L104,72 L95,72 L95,82 L95,82 Z M105,89 C107.3,87.3 109.4,85.3 111,83 L105,83 L105,89 L105,89 Z M76,82 L85,82 L85,72 L76,72 L76,82 L76,82 Z M71,83 C72.6,85.3 74.7,87.3 77,89 L77,83 L71,83 L71,83 Z M92.1,93 C93.1,92.9 94.1,92.8 95,92.6 L95,83 L86,83 L86,92.6 C87,92.8 87.9,92.9 88.9,93 L92.1,93 C92.1,93 91,93 92.1,93 L92.1,93 L92.1,93 Z M113.8,73 C113.9,72.1 114,71.2 114,70.3 L114,63 L105,63 L105,73 L113.8,73 L113.8,73 L113.8,73 Z M95,62 L104,62 L104,52 L95,52 L95,62 L95,62 Z M95,42 L86,42 L86,52 L95,52 L95,42 L95,42 Z M114,52 L114,42 L105,42 L105,52 L114,52 L114,52 Z" id="Shape_8_" fill="#CA4638"></path>
        <path d="M74.8,34 C77.8,33.2 80.9,32.6 84,32.3 L83.7,29 C80.4,29.3 77.1,29.9 74,30.7 L74.8,34 L74.8,34 L74.8,34 L74.8,34 Z" id="Shape_9_" fill="#CA4638"></path>
        <path d="M72.9,27 C76.8,26.1 80.9,25.5 85,25.2 L84.7,22 C80.4,22.3 76.1,23 72,23.9 L72.9,27 L72.9,27 L72.9,27 Z" id="Shape_10_" fill="#CA4638"></path>
        <path d="M105.3,33 C109,33.8 112.6,34.9 116,36.2 L115.6,37 C112.2,35.7 108.7,34.7 105,33.9 L105.3,33 L105.3,33 L105.3,33 Z M116.6,33 L117,32.3 C113.5,31 109.9,29.9 106.2,29 L106,29.8 C109.7,30.6 113.2,31.7 116.6,33 C116.6,33 113.2,31.7 116.6,33 L116.6,33 L116.6,33 L116.6,33 Z" id="Shape_11_" fill="#FFFFFF"></path>
        <path d="M108,23.8 L108,23.8 L102.9,18 L96.2,21.8 L95,35.4 C98.3,35.7 101.5,36.2 104.6,37 L108,23.8 L108,23.8 L108,23.8 L108,23.8 Z" id="Shape_12_" fill="#346DA6"></path>
        <polygon id="Shape_14_" fill="#E5B731" points="114.7 23 114.7 23 113.8 23.8 112.7 23.4 112.7 23.4 112.7 23.5 112.9 24.6 112.1 25.4 112.1 25.4 112.1 25.4 113.2 25.8 113.4 26.9 113.4 27 113.4 27 114.2 26.2 115.3 26.6 115.3 26.6 115.3 26.5 115.1 25.4 115.9 24.6 115.9 24.6 115.9 24.6 114.8 24.2 114.7 23 114.7 23"></polygon>
        <path d="M97,21.8 L97,21.8 L90.5,17 L84,21.8 L85.2,35 C86.9,34.9 88.7,34.8 90.5,34.8 C92.3,34.8 94,34.9 95.8,35 L97,21.8 L97,21.8 L97,21.8 L97,21.8 Z" id="Shape" fill="#4086CD"></path>
        <path d="M99,32 L99.2,32" id="Shape_20_"></path>
    </g>
</svg>