<?xml version="1.0" ?><svg height="120px" version="1.1" viewBox="0 0 180 120" width="180px" xmlns="http://www.w3.org/2000/svg" xmlns:sketch="http://www.bohemiancoding.com/sketch/ns" xmlns:xlink="http://www.w3.org/1999/xlink"><title/><defs/><g fill="none" fill-rule="evenodd" id="Africa,-Middle-East-and-India" stroke="none" stroke-width="1"><g id="Africa,-Middle-Eest-and-India" transform="translate(-800.000000, -401.000000)"><g id="Ghana" transform="translate(800.000000, 401.000000)"><rect d="M0.00552366097,0 L0.00552366097,120 L180,120 L180,0 L0.00552366097,0 Z M0.00552366097,0" fill="#479951" height="120" id="Rectangle-3-copy-2" width="179.994476" x="0.00552366097" y="0"/><rect d="M0.00552383048,0 L0.00552383048,80 L180.005524,80 L180.005524,0 L0.00552383048,0 Z M0.00552383048,0" fill="#E5B731" height="80" id="Rectangle-3-copy-3" width="180" x="0.00552383048" y="0"/><rect d="M0.00276191524,-3.55271368e-15 L0.00276191524,40 L179.997238,40 L179.997238,-3.55271368e-15 L0.00276191524,-3.55271368e-15 Z M0.00276191524,-3.55271368e-15" fill="#CA4638" height="40" id="Rectangle-3" width="179.994476" x="0.00276191524" y="-4.73709694e-15"/><path d="M72.6516663,56.1053049 L85.9057941,56.1053049 L90.0000034,43.5 L94.0942059,56.1053049 L107.348334,56.1053049 L96.6270639,63.8946965 L100.721273,76.5 L90.0000034,68.7106017 L79.2787335,76.5 L83.3729361,63.8946965 L72.6516663,56.1053049 L72.6516663,56.1053049 L72.6516663,56.1053049 L72.6516663,56.1053049 Z M72.6516663,56.1053049" fill="#262626" id="Shape"/></g></g></g></svg>