<?xml version="1.0" ?><svg height="120px" version="1.1" viewBox="0 0 180 120" width="180px" xmlns="http://www.w3.org/2000/svg" xmlns:sketch="http://www.bohemiancoding.com/sketch/ns" xmlns:xlink="http://www.w3.org/1999/xlink"><title/><defs/><g fill="none" fill-rule="evenodd" id="Page-1" stroke="none" stroke-width="1"><g id="rectangle_tuvalu"><rect fill="#4BB7C0" height="120" id="rect962-copy" width="180" x="0" y="0"/><path d="M166.456804,8.92307692 L168.140486,14.7294764 L173.956804,14.7294764 L169.364762,18.2781449 L171.048645,23.9230769 L166.456804,20.3746094 L161.864963,23.7616094 L163.548645,18.2781449 L158.956804,14.7294764 L164.619987,14.7294764 L166.456804,8.92307692 L166.456804,8.92307692 Z M149.44979,31.0349777 L153.562548,26.9222197 L152.824772,32.6785708 L158.007026,35.4794559 L152.250959,36.2172323 L151.399008,41.8591249 L148.712156,36.7911871 L142.955947,37.5288214 L146.960422,33.5243462 L144.153503,28.1197761 L149.44979,31.0349777 Z M123.153503,36.1197761 L128.44979,39.0349777 L132.562548,34.9222197 L131.824772,40.6785708 L137.007026,43.4794559 L131.250959,44.2172323 L130.399008,49.8591249 L127.712156,44.7911871 L121.955947,45.5288214 L125.960422,41.5243462 L123.153503,36.1197761 L123.153503,36.1197761 Z M161.456804,50.9230769 L163.140486,56.7294764 L168.956804,56.7294764 L164.364762,60.2781449 L166.048645,65.9230769 L161.456804,62.3746094 L156.864963,65.7616094 L158.548645,60.2781449 L153.956804,56.7294764 L159.619987,56.7294764 L161.456804,50.9230769 L161.456804,50.9230769 Z M139.94979,67.5349777 L144.062548,63.4222197 L143.324772,69.1785708 L148.507026,71.9794559 L142.750959,72.7172323 L141.899008,78.3591249 L139.212156,73.2911871 L133.455947,74.0288214 L137.460422,70.0243462 L134.653503,64.6197761 L139.94979,67.5349777 Z M125.653503,83.6197761 L130.94979,86.5349777 L135.062548,82.4222197 L134.324772,88.1785708 L139.507026,90.9794559 L133.750959,91.7172323 L132.899008,97.3591249 L130.212156,92.2911871 L124.455947,93.0288214 L128.460422,89.0243462 L125.653503,83.6197761 L125.653503,83.6197761 Z M104.153503,68.6197761 L109.44979,71.5349777 L113.562548,67.4222197 L112.824772,73.1785708 L118.007026,75.9794559 L112.250959,76.7172323 L111.399008,82.3591249 L108.712156,77.2911871 L102.955947,78.0288214 L106.960422,74.0243462 L104.153503,68.6197761 L104.153503,68.6197761 Z M107.153503,89.1197761 L112.44979,92.0349777 L116.562548,87.9222197 L115.824772,93.6785708 L121.007026,96.4794559 L115.250959,97.2172323 L114.399008,102.859125 L111.712156,97.7911871 L105.955947,98.5288214 L109.960422,94.5243462 L107.153503,89.1197761 L107.153503,89.1197761 Z M94.4568038,95.4230769 L96.1404856,101.229476 L101.956804,101.229476 L97.3647624,104.778145 L99.0486447,110.423077 L94.4568038,106.874609 L89.8649629,110.261609 L91.5486447,104.778145 L86.9568038,101.229476 L92.6199869,101.229476 L94.4568038,95.4230769 L94.4568038,95.4230769 Z" fill="#E5B731" id="Star7"/><rect fill="#346DA6" height="60" id="rect962-copy" width="90" x="0" y="0"/><path d="M0,6.70820397 L0,0 L10.062306,0 L36,17.291796 L36,0 L54,0 L54,17.291796 L79.937694,0 L90,0 L90,6.70820397 L68.5623053,21 L90,21 L90,39 L68.562306,39 L90,53.291796 L90,60 L79.9376964,60 L54,42.7082029 L54,60 L36,60 L36,42.7082029 L10.0623036,60 L0,60 L0,53.291796 L21.437694,39 L0,39 L0,21 L21.4376947,21 L0,6.70820397 Z" fill="#FFFFFF" id="White_Diagonal"/><path d="M59,39.0000002 L65,39.0000002 L90,56.0000002 L90,60.0000002 L59,39.0000002 L59,39.0000002 L59,39.0000002 L59,39.0000002 Z M6,60.0000002 L36,39.0000002 L30,39.0000002 L0,60.0000002 L6,60.0000002 L6,60.0000002 L6,60.0000002 L6,60.0000002 Z M84,2.01000001e-07 L54,21.0000002 L60,21.0000002 L90,2.01000001e-07 L84,2.01000001e-07 L84,2.01000001e-07 L84,2.01000001e-07 L84,2.01000001e-07 Z M31,21.0000002 L25,21.0000002 L0,4.0000002 L0,2.01000001e-07 L31,21.0000002 L31,21.0000002 L31,21.0000002 L31,21.0000002 Z M51,0 L51,24 L90,24.0000002 L90,36.0000002 L51,36 L51,60 L39,60.0000002 L39,36.0000002 L0,36.0000002 L0,24.0000002 L39,24 L39,2.01e-07 L51,0 L51,0 L51,0 L51,0 Z" fill="#CA4638" id="Red_Diagonals-copy"/></g></g></svg>