<?xml version="1.0" encoding="UTF-8" standalone="no"?>
<svg width="180px" height="120px" viewBox="0 0 180 120" version="1.1" xmlns="http://www.w3.org/2000/svg" xmlns:xlink="http://www.w3.org/1999/xlink">
    <!-- Generator: Sketch 40.2 (33826) - http://www.bohemiancoding.com/sketch -->
    <title>icon-flag-gs</title>
    <desc>Created with Sketch.</desc>
    <defs>
        <linearGradient x1="104.431233%" y1="71.0037846%" x2="107.424122%" y2="-14.9787433%" id="linearGradient-1">
            <stop stop-color="#474747" offset="0%"></stop>
            <stop stop-color="#FF5500" offset="100%"></stop>
        </linearGradient>
        <linearGradient x1="219.855232%" y1="-10.0901888%" x2="220.435895%" y2="99.9800728%" id="linearGradient-2">
            <stop stop-color="#B50000" offset="0%"></stop>
            <stop stop-color="#FFC500" offset="100%"></stop>
        </linearGradient>
        <linearGradient x1="60.1463293%" y1="29.7324006%" x2="117.271794%" y2="27.3854172%" id="linearGradient-3">
            <stop stop-color="#D5DFFF" offset="0%"></stop>
            <stop stop-color="#FFFFFF" offset="100%"></stop>
        </linearGradient>
        <linearGradient x1="451.109487%" y1="43.4166416%" x2="564.836494%" y2="43.4166416%" id="linearGradient-4">
            <stop stop-color="#474747" offset="0%"></stop>
            <stop stop-color="#FF5500" offset="100%"></stop>
        </linearGradient>
        <linearGradient x1="133.333194%" y1="70.6947923%" x2="37.5142012%" y2="-25.0017658%" id="linearGradient-5">
            <stop stop-color="#D5DFFF" offset="0%"></stop>
            <stop stop-color="#FFFFFF" offset="100%"></stop>
        </linearGradient>
        <linearGradient x1="240.730491%" y1="80.3262085%" x2="205.269571%" y2="9.34850357%" id="linearGradient-6">
            <stop stop-color="#D5DFFF" offset="0%"></stop>
            <stop stop-color="#FFFFFF" offset="100%"></stop>
        </linearGradient>
    </defs>
    <g id="Page-1" stroke="none" stroke-width="1" fill="none" fill-rule="evenodd">
        <rect id="Rectangle-path" fill="#00247D" x="0" y="0" width="180" height="120"></rect>
        <polygon id="White_Diagonal" fill="#FFFFFF" points="17.6354082 16.5052023 0 5.36026672 0 0 8.48192331 0 30.3458512 13.8172065 30.3458512 13.8172065 30.3458512 0 45.5187768 0 45.5187768 13.8172065 67.3827047 0 75.864628 0 75.864628 5.36026672 58.2292201 16.5052023 75.864628 16.5052023 75.864628 30.6525186 56.9855379 30.6525186 75.864628 42.5834162 75.864628 47.9436829 67.3827068 47.9436829 45.5187768 34.1264756 45.5187768 47.9436829 30.3458512 47.9436829 30.3458512 34.1264756 8.48192129 47.9436829 0 47.9436829 0 42.5834162 18.8790901 30.6525186 0 30.6525186 0 16.5052023"></polygon>
        <path d="M49.7334784,31.1633939 L54.7911203,31.1633939 L75.864628,44.7474374 L75.864628,47.9436829 L49.7334784,31.1633939 L49.7334784,31.1633939 Z M5.05764187,47.9436829 L30.3458512,31.1633939 L25.2882093,31.1633939 L0,47.9436829 L5.05764187,47.9436829 L5.05764187,47.9436829 Z M70.8069862,1.60873219e-07 L45.5187768,16.7802891 L50.5764187,16.7802891 L75.864628,1.60873219e-07 L70.8069862,1.60873219e-07 L70.8069862,1.60873219e-07 Z M26.1311497,16.7802891 L21.0735078,16.7802891 L0,3.19624568 L0,1.60873219e-07 L26.1311497,16.7802891 L26.1311497,16.7802891 Z M42.9899559,0 L42.9899559,19.1774731 L75.864628,19.1774733 L75.864628,28.7662098 L42.9899559,28.7662097 L42.9899559,47.9436829 L32.8746722,47.9436829 L32.8746722,28.7662098 L0,28.7662098 L0,19.1774733 L32.8746722,19.1774731 L32.8746722,1.60873218e-07 L42.9899559,0 L42.9899559,0 Z" id="Red_Diagonals-copy" fill="#CA4638"></path>
        <path d="M135.188443,78.1093309 C135.188443,78.1093309 134.661082,79.2639237 134.360408,79.2639237 C134.059734,79.2639237 132.968806,78.7649933 132.968806,78.7649933 C132.968806,78.7649933 132.178552,79.826853 131.764535,79.8882398 C131.350517,79.9509326 130.259589,79.7328138 130.259589,79.7328138 C130.259589,79.7328138 129.206443,79.7328138 129.168662,79.6074282 C129.130881,79.4833486 129.206443,79.2338834 129.206443,79.2338834 C129.206443,79.2338834 127.701812,80.2317442 127.3632,80.1690514 C127.024587,80.1076647 125.896035,78.9217254 125.896035,78.9217254 L125.707917,79.5460414 L123.563685,79.4833486 L121.682661,78.4841817 C121.682661,78.4841817 120.629357,79.9195862 120.591733,79.8882398 C120.554109,79.8568934 118.74849,80.2317442 118.74849,80.2317442 L118.635619,79.9509326 L117.43182,79.357963 C117.43182,79.357963 118.372254,78.2660629 118.372254,78.2347165 C118.372254,78.2033701 117.92077,78.0779845 117.92077,78.0779845 L117.243702,78.5468745 L115.851785,79.2952701 L114.459868,78.7649933 L115.061846,77.8285193 L115.137094,77.1415104 L116.228021,75.7687987 L129.582679,65 L136.166027,75.0817899 L135.188443,78.1093309 L135.188443,78.1093309 Z" id="Shape" stroke="#000000" stroke-width="0.621" fill="#6A4C2D"></path>
        <path d="M144.913003,78.4581941 L148.38886,78.353706 L146.909102,77.7476754 L160.154509,77.3336415 L158.282773,76.741978 L156.625129,74.8781725 L149.761571,74.4497716 C149.761571,74.4497716 149.24523,74.1245525 148.406176,74.286509 C148.371543,73.8437409 147.729265,73.2664445 147.729265,73.2664445 L143.504084,73 L140.865708,74.494179 L142.647714,78.2805644 L144.913003,78.4581941 L144.913003,78.4581941 Z" id="Shape" stroke="#000000" stroke-width="0.621" fill="#FFFFFF"></path>
        <path d="M131.359605,46.2552755 L131.70908,45.2678635 C131.70908,45.2678635 132.321448,44.4110615 132.321448,44.0322924 C132.321448,43.6548294 132.777969,43.2055308 132.777969,43.2055308 C132.777969,43.2055308 134.177442,42.871169 134.474968,43.5829938 C135.981487,41.6943725 137.749326,43.4954851 137.749326,43.4954851 L138.238905,43.0161462 L139.236955,42 C139.236955,42 140.655318,43.1036549 140.672635,43.2917334 C140.689951,43.481118 140.916637,43.3505079 140.916637,43.3505079 L142.45779,43.2486321 C142.45779,43.2486321 143.188223,43.7240527 143.035525,44.6278742 C143.578627,44.8943187 144.068207,46.4577211 144.068207,46.4577211 L131.359605,46.2552755 L131.359605,46.2552755 Z" id="Shape" stroke="#000000" stroke-width="0.621" fill="url(#linearGradient-1)"></path>
        <path d="M144.798702,57.5872508 C145.064744,57.4527224 145.902224,57.2319914 145.7999,56.2158452 C145.697576,55.199699 144.636559,55.0808439 144.044655,55.1148025 C143.451178,55.1487611 142.920669,55.5719377 142.920669,55.5719377 L140.960777,54.5388122 C140.960777,54.5388122 141.94151,49.4058371 142.982063,49.0845364 C143.970667,48.4928729 144.145405,48.2368772 144.145405,48.1023488 C144.145405,47.9665144 143.778614,47.6269282 143.778614,47.6269282 L137.387319,47 L131.343925,47.5929696 C131.343925,47.5929696 130.87481,48.1859393 130.936204,48.4236496 C130.997599,48.6600538 131.018063,48.9147434 132.099546,49.6095888 C133.29752,50.3736576 134.120832,54.7595432 134.120832,54.7595432 C134.120832,54.7595432 132.426982,55.4530825 132.324658,55.368186 C132.222334,55.2845956 131.71229,55.199699 131.446249,55.2336576 C131.181781,55.2676163 130.303372,55.6398549 130.303372,56.6050632 C130.303372,57.5715776 131.181781,58.1305886 131.181781,58.1305886 C131.181781,58.1305886 136.959134,57.5715776 137.817079,58.8920452 C138.654559,57.2999087 144.145405,57.8589197 144.798702,57.5872508 L144.798702,57.5872508 Z" id="Shape" stroke="#000000" stroke-width="0.621" fill="#656263"></path>
        <path d="M150.947971,52.0741148 C150.947971,52.0741148 151.012513,51.5164099 151.491073,51.2512715 C151.971208,50.9861331 155.168429,50.8529109 155.936644,51.2512715 C156.703284,51.6496322 156.991365,53.6127012 156.991365,53.6127012 C156.991365,53.6127012 157.471499,54.3023223 157.502983,54.8064771 C157.534468,55.3106319 157.59901,55.6554424 157.59901,55.6554424 C157.59901,55.6554424 160.157102,58.4152328 160.188586,60.9085787 C160.476667,62.6065094 160.412124,67.1425965 159.614,68.8666492 C159.580941,71.0164906 158.494736,72.4218548 158.494736,72.4218548 C158.494736,72.4218548 158.749758,72.7927873 158.718274,73.191148 C158.685215,73.5895086 158.430193,73.9604412 158.430193,73.9604412 L162.170517,75.4990276 L160.796232,75.0745449 C160.796232,75.0745449 162.203576,76.0567325 162.170517,76.0306105 C162.139033,76.0031824 160.604178,75.4193554 160.604178,75.4193554 L161.531388,76.1886486 C161.499904,76.1625266 159.261376,75.3396833 159.261376,75.3396833 C159.261376,75.3396833 160.316097,76.1625266 160.253129,76.1364046 C160.188586,76.1102826 158.557704,75.4729056 158.557704,75.4729056 C158.557704,75.4729056 159.580941,76.375421 159.549457,76.3218709 C159.517973,76.2683208 158.079144,75.7915941 158.079144,75.7915941 L158.142113,76.2421988 C158.142113,76.2421988 156.991365,76.1886486 156.991365,75.4729056 C156.415204,75.2077672 156.032671,74.8355285 156.032671,74.8355285 L153.378552,74.464596 L150.37181,67.0093742 L151.075482,54.4081165 L151.267535,53.7720455 L150.947971,52.0741148 L150.947971,52.0741148 Z" id="Shape" stroke-opacity="0.97854" stroke="#000000" stroke-width="0.77625" fill="#000000"></path>
        <path d="M148.548671,93.2869605 C148.548671,93.2869605 147.009093,90.6003118 146.242453,90.5624349 C145.5498,89.4666165 148.649421,80.5106853 154.645589,80 C157.941985,80.2246493 154.916353,83.1529266 152.748665,82.2517173 C153.019429,83.0392959 154.102486,84.1664606 154.102486,84.1664606 C154.102486,84.1664606 149.812762,85.705047 148.548671,93.2869605 L148.548671,93.2869605 Z" id="Shape" stroke="#000000" stroke-width="0.61679583" fill="#FFBB00"></path>
        <path d="M128.409364,93.3666327 C128.409364,93.3666327 129.684474,90.3077453 130.457411,90.2698683 C131.231923,90.2319914 128.409364,80.0757538 122.266479,80 C118.944265,80.2272615 121.993354,83.171212 124.177728,82.2647783 C123.90476,83.0588874 122.812573,84.1912766 122.812573,84.1912766 C122.812573,84.1912766 127.135827,85.7390057 128.409364,93.3666327 L128.409364,93.3666327 Z" id="Shape" stroke="#000000" stroke-width="0.621" fill="#FFBB00"></path>
        <path d="M134.349081,74.0010323 C134.333339,73.9762164 132.823671,74.3941686 133.801255,75.7577375 C133.875243,75.2300729 134.555302,74.9100783 134.555302,74.9100783 C134.555302,74.9100783 133.519472,75.9301428 134.615122,76.7895569 C134.74893,75.9784685 135.370743,75.7211667 135.370743,75.7211667 C135.370743,75.7211667 134.600954,77.6006454 135.384911,77.9807206 C135.474641,77.2310189 136.050802,76.9005755 136.050802,76.9005755 C136.050802,76.9005755 135.355001,78.5828329 135.976814,78.9629082 C136.050802,78.3255311 136.568717,78.0421073 136.568717,78.0421073 C136.568717,78.0421073 136.258598,79.7870576 137.072465,79.9098311 C137.088207,79.2946577 137.68011,78.6938515 137.68011,78.6938515 C137.68011,78.6938515 137.412494,80.117501 138.686031,80.1801939 C138.701773,79.6394683 138.937904,79.025601 138.937904,79.025601 C138.937904,79.025601 139.51564,80.5354532 140.359416,80.2899063 C140.345248,79.8484443 140.373584,79.01254 140.359416,79.01254 C140.343674,79.01254 140.8915,80.4492506 141.898994,80.1801939 C141.751018,79.7739966 141.95724,79.2946577 141.95724,79.2946577 C141.95724,79.2946577 142.490897,80.1919488 143.45274,79.8967701 C143.616458,79.6264073 143.408662,79.0987426 143.408662,79.0987426 C143.408662,79.0987426 144.814432,80.3029673 145.244192,79.5780815 C145.673951,78.8531957 144.118631,78.6076489 144.118631,78.6076489 L145.170204,78.6076489 C145.170204,78.6076489 144.830174,77.8710082 143.408662,77.7103578 C143.896667,77.5261976 144.400415,77.6620321 144.400415,77.6620321 C144.400415,77.6620321 144.104463,76.7399251 142.653041,76.6419676 C143.216608,76.4826233 143.838422,76.5936419 143.838422,76.5936419 C143.838422,76.5936419 143.644794,75.7211667 142.04697,75.4756198 C142.298844,75.2418278 142.978903,75.3162756 142.978903,75.3162756 C142.978903,75.3162756 142.342922,74.4934322 141.617211,74.5417579 C140.8915,74.5913898 134.333339,73.9892774 134.349081,74.0010323 L134.349081,74.0010323 Z" id="Shape" stroke="#000000" stroke-width="0.621" fill="#00713D"></path>
        <path id="Shape" stroke="#3EC26D" stroke-width="0.77625"></path>
        <path d="M140.865708,78 C140.865708,78 141.605586,78.4297071 141.591419,78.7483956" id="Shape" stroke="#3EC26D" stroke-width="0.77625"></path>
        <path d="M140.865708,78 C140.865708,78 141.459185,78.3069336 141.487521,78.7862725" id="Shape" stroke="#3EC26D" stroke-width="0.77625"></path>
        <path id="Shape" stroke="#3EC26D" stroke-width="0.77625"></path>
        <path id="Shape" stroke="#3EC26D" stroke-width="0.77625"></path>
        <path d="M135.58454,76 C135.58454,76 136.280341,76.3683203 136.222095,76.88423" id="Shape" stroke="#3EC26D" stroke-width="0.77625"></path>
        <path id="Shape" stroke="#3EC26D" stroke-width="0.77625"></path>
        <path id="Shape" stroke="#3EC26D" stroke-width="0.77625"></path>
        <path id="Shape" stroke="#3EC26D" stroke-width="0.77625"></path>
        <path id="Shape" stroke="#3EC26D" stroke-width="0.77625"></path>
        <path d="M137.697007,77 C137.697007,77 138.347156,77.1227734 138.436886,77.5276646" id="Shape" stroke="#3EC26D" stroke-width="0.77625"></path>
        <path d="M137.697007,77 C137.697007,77 138.37864,77.0365708 138.452628,77.6386832" id="Shape" stroke="#3EC26D" stroke-width="0.77625"></path>
        <path id="Shape" stroke="#3EC26D" stroke-width="0.77625"></path>
        <path id="Shape" stroke="#3EC26D" stroke-width="0.77625"></path>
        <path id="Shape" stroke="#3EC26D" stroke-width="0.77625"></path>
        <path id="Shape" stroke="#3EC26D" stroke-width="0.77625"></path>
        <path id="Shape" stroke="#3EC26D" stroke-width="0.77625"></path>
        <path id="Shape" stroke="#3EC26D" stroke-width="0.77625"></path>
        <path id="Shape" stroke="#3EC26D" stroke-width="0.77625"></path>
        <path id="Shape" stroke="#3EC26D" stroke-width="0.77625"></path>
        <path id="Shape" stroke="#3EC26D" stroke-width="0.77625"></path>
        <path id="Shape" stroke="#3EC26D" stroke-width="0.77625"></path>
        <path id="Shape" stroke="#3EC26D" stroke-width="0.77625"></path>
        <path id="Shape" stroke="#3EC26D" stroke-width="0.77625"></path>
        <path id="Shape" stroke="#3EC26D" stroke-width="0.77625"></path>
        <path d="M129.247138,58.4349315 C130.879595,58.4101156 132.512051,58.3866058 134.144507,58.3617898 C134.144507,58.3617898 137.37951,58.3617898 137.728984,59.2329589 C138.341352,58.0718355 141.138724,58.1449772 141.138724,58.1449772 C142.829427,58.0966514 144.520129,58.0483257 146.209257,58 C146.239167,61.3854125 146.267502,64.7708251 146.297412,68.1562376 C145.307234,72.0967429 141.867584,74.878737 138.078459,76.0633701 C133.560475,74.853921 130.704857,71.6866273 129.772925,68.083096 C129.596613,64.8674765 129.421876,61.6505509 129.247138,58.4349315 L129.247138,58.4349315 Z" id="Shape" stroke="#000000" stroke-width="0.621" fill="#FFFFFF"></path>
        <path d="M131.359605,58.3435044 L138.492353,74.113362 L144.935597,58 C142.93635,58.1071002 138.6482,57.7387799 138.116117,59.2512443 C137.291231,57.8981242 132.779543,58.4440742 131.359605,58.3435044 L131.359605,58.3435044 Z" id="Shape" stroke="#000000" stroke-width="0.621" fill="#006B00"></path>
        <path d="M135.830178,66.665599 C136.105665,66.7844541 136.097794,62.3855076 136.458288,62.2496731 C136.560612,61.8852711 136.612561,61.7259268 136.741646,61.3393211 C136.431527,60.883492 135.043073,60.9056957 134.528306,61.2936075 C134.759715,61.9074748 134.862039,62.1125326 134.862039,62.1125326 C135.55784,63.0463944 135.419309,66.7648626 135.830178,66.665599 L135.830178,66.665599 Z" id="Shape" stroke="#006B00" stroke-width="0.5" fill="#FFC900"></path>
        <path d="M134.040424,33.1188723 C134.040424,33.1188723 134.545746,32.643713 134.567785,32.529821 C134.591398,32.4157984 136.858261,32.3397834 138.208934,30.2496307 C138.964555,29.1475431 138.208934,29.7935404 138.208934,29.7935404 L138.163282,29.2614351 C138.163282,29.2614351 139.103085,28.5204842 138.759907,28.1213399 C138.415155,27.7223785 138.530073,28.6345068 137.980673,28.6154377 C137.431274,28.5963687 137.728799,27.6273727 137.728799,27.6273727 C137.728799,27.6273727 137.683147,27.5133501 137.522578,27.4563519 C137.292743,27.4753557 137.362008,27.8173842 137.155787,27.8553787 C136.949565,27.8933862 136.766957,27.0573121 136.766957,27.0573121 C136.766957,27.0573121 136.423779,26.6772891 136.124679,27.8743824 C136.285248,29.1475431 137.270704,28.9004289 137.270704,29.7366206 C137.270704,30.5726555 136.400166,31.2186528 136.148292,31.2377219 C135.896418,31.2566603 135.987723,30.534648 135.987723,30.534648 C135.987723,30.534648 135.850766,30.1925802 135.759462,30.1925802 C135.668158,30.1925802 136.263209,30.1165652 136.171905,29.1665077 C135.965684,28.0264125 135.805114,29.4325604 135.438323,29.3754838 C135.071532,29.3185378 135.347019,28.3304727 135.483975,28.2164502 C135.620932,28.1024276 135.323406,27.6273988 134.522133,28.843509 C134.452867,29.4325604 134.361563,28.6914789 134.200994,28.7294864 C133.927081,29.2045152 133.972733,29.5465829 134.361563,29.9836042 C134.934576,30.4206254 135.301367,30.8576466 135.277754,31.0856918 C135.255715,31.3137369 134.956615,31.8267732 134.545746,31.8267732 C134.133303,31.8267732 134.567785,31.1997143 134.545746,30.9906077 C134.522133,30.7816316 133.835777,30.0216117 133.835777,30.0216117 C133.835777,30.0216117 133.354068,29.3754838 133.399721,29.3565453 C133.445373,29.3374762 133.354068,29.2425227 133.125808,29.9075891 C132.895973,30.5726555 132.620486,29.4705679 132.620486,29.4705679 C132.620486,29.4705679 132.300922,30.2875337 132.987277,30.7816316 C132.461491,30.7246856 132.415839,30.8956541 132.415839,30.8956541 C132.415839,31.1236993 133.125808,31.2186528 133.217112,31.6176665 C133.308416,32.0168108 132.48353,32.2447254 132.48353,32.2447254 C132.48353,32.2447254 132.828282,32.6437391 133.788551,31.8647807 C133.812164,32.3587479 133.423334,32.7008157 133.423334,32.7008157 C133.742898,32.8211075 133.994772,32.8084384 134.040424,33.1188984 L134.040424,33.1188723 Z" id="Shape" stroke="#000000" stroke-width="0.77625" fill="#CDAD56"></path>
        <path d="M131.099696,32.464673 C131.099696,32.464673 130.671511,31.9374002 130.65262,31.8335653 C130.632155,31.7298609 128.546326,31.9646977 127.559611,29.8537781 C126.917648,28.8509541 127.559611,29.43883 127.559611,29.43883 L127.598494,28.9546585 C127.598494,28.9546585 126.915444,28.2613804 127.207146,27.8982844 C127.498847,27.5351885 127.378735,28.3650847 127.754026,28.3667827 C128.220465,28.3495421 127.967962,27.4676631 127.967962,27.4676631 C127.967962,27.4676631 128.006687,27.3639587 128.143014,27.3121065 C128.336957,27.329347 128.417241,27.8495669 128.591979,27.8841785 C128.766716,27.9187902 129.128784,27.2720092 129.242128,27.1389959 C129.402697,27.119966 129.3964,26.6031943 129.649848,27.692443 C129.514466,28.8509541 128.357421,28.6261742 128.357421,29.3869778 C128.357421,30.1476507 129.095726,30.7355266 129.309819,30.7528977 C129.523911,30.7701382 129.446775,30.1131697 129.446775,30.1131697 C129.446775,30.1131697 129.563266,29.8019259 129.640403,29.8019259 C129.719113,29.8019259 128.960344,29.9227402 129.039054,29.0582323 C129.213792,28.2488418 129.601048,29.1103457 129.912741,29.0583629 C130.224435,29.0065107 129.876534,28.2024752 129.966264,28.0797018 C129.986729,27.9569283 130.444824,27.4296555 130.62271,28.5932605 C130.680956,29.1292841 131.033579,28.1319458 131.168961,28.1665575 C131.403519,28.5987461 131.066638,29.1760425 130.736053,29.5737501 C130.249622,29.9713271 130.029233,30.4070423 130.049698,30.6145816 C130.068588,30.8219904 130.183505,31.0798147 130.534554,31.0798147 C130.884029,31.0798147 130.65262,30.718286 130.671511,30.5281178 C130.690401,30.3379496 131.274433,29.7222538 131.274433,29.7222538 C131.389351,29.5703543 131.293324,29.286408 131.414538,29.1551449 C131.605018,29.1568429 131.683728,28.937418 131.877356,29.5425343 C132.072558,30.1476507 132.305541,29.1448267 132.305541,29.1448267 C132.305541,29.1448267 132.57788,29.8883898 131.993848,30.3379496 C132.440923,30.2860974 132.480279,30.4416539 132.480279,30.4416539 C132.480279,30.6491933 132.26776,30.7355266 132.18905,31.0986225 C132.110339,31.4617184 132.422033,31.6692578 132.422033,31.6692578 C132.422033,31.6692578 132.130804,32.0323538 131.313789,31.3234024 C131.293324,31.7729622 131.625482,32.0842059 131.625482,32.0842059 C131.35157,32.1937878 131.139051,32.1821635 131.099696,32.464673 L131.099696,32.464673 Z" id="Shape" stroke="#000000" stroke-width="0.6824169" fill="#CDAD56"></path>
        <path d="M143.099574,60.4411019 C142.672963,60.1198011 142.622588,60.4006127 142.413218,60.3287772 C142.30932,60.2935125 142.229036,60.2138404 142.139306,60.1406987 C142.062169,60.0740876 141.969291,60.0466595 141.866967,60.0113948 C141.827612,60.1067401 141.789831,60.2007794 141.750476,60.2961247 C141.71112,60.39147 141.859096,60.5495082 141.855948,60.6918732 C141.826038,60.9034614 141.72214,61.079785 141.401001,61.1516205 C141.492305,61.001419 141.544254,60.9948885 141.515918,60.8107283 C141.503324,60.7193013 141.193205,60.5560387 141.230986,60.4698361 C141.287658,60.3300833 141.385259,60.169433 141.312845,60.0296802 C141.182186,60.1041279 141.009022,60.0649449 140.878363,60.1106584 C140.766594,60.1511475 140.760297,60.3222467 140.606024,60.3927761 C140.448603,60.4541629 140.100703,60.4241226 139.809474,60.286982 C139.98736,60.1759635 140.133761,60.2504112 140.311647,60.1393926 C140.399803,60.0832303 140.396654,59.8442139 140.48481,59.7880516 C140.57454,59.7318893 140.787059,59.6731148 140.875214,59.6169524 C140.79493,59.5411986 140.799652,59.4223435 140.719368,59.3465896 C140.640657,59.2708358 140.28646,59.286509 140.206175,59.2120613 C140.045606,59.0605536 140.07709,58.8620263 139.91652,58.7118248 C140.330538,58.8345982 140.270718,59.0017791 140.374616,58.9887181 C140.569818,58.9103521 140.76502,58.895985 140.867343,58.9312497 C140.971241,58.9678205 141.166443,59.1794088 141.268767,59.2146735 C141.308122,59.1193281 141.364794,58.9991669 141.402575,58.9038216 C141.44193,58.8084762 141.229412,58.6439076 141.267193,58.5485622 C141.345903,58.3591776 141.537957,58.1906907 141.615093,58 C141.643429,58.1841602 141.679636,58.33828 141.707972,58.5211341 C141.72214,58.6125611 141.939381,58.6608869 141.953549,58.7523139 C141.967717,58.845047 141.840206,59.0566353 141.852799,59.1493685 C141.972439,59.1297769 142.144028,59.142838 142.262094,59.1232464 C142.381734,59.1036549 142.460444,58.8750873 142.57851,58.8554958 C142.816216,58.8163128 142.987805,58.8280677 143.228659,58.8659446 C143.050773,59.0030852 142.913817,58.9939425 142.802048,59.1193281 C142.713892,59.1754905 142.836681,59.3596506 142.580084,59.4889546 C142.484058,59.5359742 142.23061,59.4798119 142.14088,59.5359742 C142.221164,59.611728 142.301449,59.6861758 142.381734,59.7619296 C142.460444,59.8376834 142.819364,59.8729481 142.899649,59.948702 C143.058644,60.0989035 143.143652,60.2791454 143.099574,60.4411019 L143.099574,60.4411019 Z" id="Shape" fill="#FFC900"></path>
        <path d="M132.544924,60.4411019 C132.971535,60.1198011 133.02191,60.4006127 133.232854,60.3287772 C133.335178,60.2922064 133.415463,60.2125343 133.505193,60.1406987 C133.582329,60.0740876 133.675207,60.0466595 133.777531,60.0100887 C133.816886,60.105434 133.856242,60.2007794 133.894023,60.2961247 C133.933378,60.39147 133.786976,60.5482021 133.790125,60.6905671 C133.818461,60.9034614 133.922358,61.0784789 134.243497,61.1516205 C134.152193,61.001419 134.100244,60.9935824 134.12858,60.8107283 C134.142748,60.7193013 134.451293,60.5560387 134.413512,60.46853 C134.356841,60.3300833 134.259239,60.1681269 134.331653,60.0283741 C134.463887,60.1041279 134.635476,60.0649449 134.767709,60.1093523 C134.877904,60.1511475 134.885775,60.3222467 135.038474,60.3927761 C135.197469,60.4541629 135.545369,60.4241226 135.835024,60.286982 C135.657138,60.1746574 135.510737,60.2504112 135.332851,60.1380865 C135.244695,60.0832303 135.249418,59.8429078 135.159688,59.7880516 C135.071532,59.7318893 134.859014,59.6718087 134.769284,59.6156463 C134.849568,59.5411986 134.844846,59.4210374 134.925131,59.3452835 C135.005415,59.2708358 135.359613,59.286509 135.438323,59.2107552 C135.598893,59.0605536 135.568983,58.8620263 135.727978,58.7105187 C135.313961,58.8332921 135.375355,59.000473 135.271457,58.9887181 C135.074681,58.9103521 134.879478,58.8946789 134.777155,58.9312497 C134.674831,58.9665144 134.478055,59.1781027 134.375731,59.2146735 C134.336376,59.1193281 134.281278,58.9991669 134.241923,58.9038216 C134.202568,58.8084762 134.416661,58.6439076 134.377305,58.5485622 C134.300169,58.3578715 134.106541,58.1906907 134.029405,58 C134.001069,58.1828541 133.964862,58.3369739 133.936526,58.5211341 C133.922358,58.6125611 133.705117,58.6608869 133.690949,58.7523139 C133.678356,58.8437409 133.805867,59.0566353 133.791699,59.1480624 C133.672059,59.1284708 133.50047,59.1415318 133.382404,59.1232464 C133.264338,59.1023488 133.185628,58.8737812 133.065988,58.8541897 C132.828282,58.8150067 132.658267,58.8267616 132.415839,58.8646385 C132.593725,59.0030852 132.730681,58.9926364 132.84245,59.1193281 C132.930606,59.1754905 132.807817,59.3596506 133.064414,59.4889546 C133.160441,59.5359742 133.415463,59.4798119 133.503618,59.5359742 C133.423334,59.6104219 133.343049,59.6861758 133.264338,59.7619296 C133.184054,59.8376834 132.825134,59.8729481 132.746423,59.9473959 C132.585854,60.0989035 132.500846,60.2791454 132.544924,60.4411019 L132.544924,60.4411019 Z" id="Shape" fill="#FFC900"></path>
        <path d="M142.767756,61.5506847 C142.3805,61.8001499 139.885376,62.3238962 139.858615,64.1223966 C139.833427,65.920897 140.296245,66.3310125 139.833427,66.3767261 C138.932979,66.3767261 138.803894,64.3731679 138.829081,63.4850195 C138.855843,62.5968712 138.88103,62.7340117 138.88103,62.7340117 C138.88103,62.7340117 139.498121,62.8698462 139.447746,63.3034716 C139.395797,63.7357908 140.064836,62.2324691 139.833427,61.8236597 C140.244296,62.1645519 140.785825,62.0287175 140.785825,62.0052076 C140.785825,61.9830039 140.47728,61.7100289 140.348194,61.5049711 C140.219109,61.2999134 140.811012,61.6186019 140.811012,61.6186019 C140.811012,61.6186019 140.8362,61.2764036 140.321433,61.2999134 C139.652393,61.2999134 140.425331,61.1170593 140.425331,61.1170593 C140.425331,61.1170593 140.811012,61.4135441 141.069183,61.0948556 C140.785825,60.8440843 140.373382,60.7069437 140.373382,60.7069437 C140.373382,60.7069437 140.012887,60.13879 139.524882,60.0251593 C138.958166,59.9102224 139.035303,60.2289109 138.391451,60.1845035 C138.26394,60.3882552 138.26394,60.411765 138.520536,60.4796822 C138.082905,60.7304535 138.314314,61.23069 138.314314,61.23069 C138.314314,61.23069 139.010115,60.9812248 138.983354,61.3900343 C138.958166,61.8001499 138.572485,61.7322326 138.314314,61.4814613 C138.082905,61.3678306 138.005769,61.5950921 138.005769,61.5950921 L138.366263,61.9137806 C138.366263,61.9137806 137.672036,61.8915769 137.491002,62.2781827 C137.876684,62.2559789 138.082905,62.347406 138.082905,62.347406 C138.082905,62.347406 137.284781,62.6425847 137.207644,62.801929 C137.130508,62.9612732 137.105321,62.620381 137.080133,62.620381 C137.053372,62.620381 136.307196,62.3918134 136.307196,62.3918134 L136.049025,63.3766132 C136.049025,63.3766132 136.565366,63.8037081 136.84715,63.6665675 C137.130508,63.530733 137.645275,63.1206175 137.95382,63.2342482 C137.053372,63.8037081 136.152923,64.6226331 135.663344,64.7375699 C135.535833,64.6461429 135.098202,64.2817408 134.917168,64.4632888 C134.737708,64.6461429 134.866793,64.8734044 135.098202,64.8512007 C135.329611,64.8276909 134.352026,65.0327486 134.556674,65.374947 C134.762895,65.7158392 134.737708,65.6936355 134.917168,65.6022085 C135.098202,65.5107814 134.762895,65.4885777 135.431935,65.3292335 C136.100974,65.1698892 136.075787,65.0105449 136.075787,65.0105449 C136.075787,65.0105449 135.946702,65.2600101 135.586208,65.3292335 C135.225713,65.3971507 134.94393,65.3971507 135.021066,65.4885777 C135.098202,65.5786987 135.252475,65.7380429 135.200526,65.82947 C135.148577,65.920897 135.946702,65.3514372 136.152923,65.8072662 C136.692878,65.7837564 137.053372,65.2378064 136.796775,64.9191179 C136.821963,65.2600101 137.080133,65.374947 136.924286,65.5342912 C136.770014,65.6936355 138.134854,65.0105449 137.465815,64.6004294 C137.645275,64.9413216 137.672036,65.2156027 137.672036,65.2156027 C137.672036,65.2156027 137.980582,65.1920929 138.057718,65.1006659 C138.134854,65.0105449 137.903445,65.3514372 138.005769,65.4193544 C138.108093,65.4885777 138.597672,65.8751835 138.391451,66.1481585 C138.26394,65.9888142 138.237178,65.7380429 138.082905,65.7615527 C137.928633,65.7837564 137.284781,66.1716683 136.899099,66.193872 C136.513418,66.2160757 137.361917,67.3785052 137.361917,67.3785052 C137.361917,67.3785052 136.770014,67.3092818 136.692878,67.3549954 C136.615741,67.4007089 136.23006,66.9448798 136.152923,67.2191609 C136.023838,67.5600531 136.282009,67.4229126 136.282009,67.4229126 C136.282009,67.4229126 135.946702,67.2870781 135.767242,67.4464224 C135.586208,67.6057667 135.406748,67.7651109 135.535833,67.8330281 C135.663344,67.9009454 136.23006,67.9009454 136.307196,67.8787417 C136.384332,67.8565379 135.663344,67.9244552 135.612969,67.9923724 C135.56102,68.0602896 135.458696,68.3110609 135.612969,68.402488 C135.767242,68.493915 136.152923,68.3567744 136.178111,68.2888572 C136.204872,68.2196339 136.23006,68.5383224 136.23006,68.5383224 C136.23006,68.5383224 136.899099,68.5840359 136.899099,68.0158822 C136.899099,67.4464224 136.951048,68.4246917 136.951048,68.4246917 C136.951048,68.4246917 137.620088,68.5161187 137.645275,67.9466589 C137.672036,67.3785052 137.722411,68.3345707 137.722411,68.3345707 C137.722411,68.3345707 138.160042,68.2196339 138.160042,68.129513 C138.160042,68.0380859 138.134854,69.2671265 137.826309,69.6093248 C137.33673,69.3350437 137.028184,69.7908728 137.028184,69.7908728 C137.028184,69.7908728 137.053372,70.4504536 137.001423,70.6097978 C136.951048,70.7691421 137.33673,70.5196769 137.361917,70.4504536 C137.388679,70.3825363 137.851496,70.2009884 137.876684,70.1552749 C137.903445,70.1095613 138.030956,69.8822998 138.030956,69.8822998 C138.030956,69.8822998 137.928633,70.2009884 137.749173,70.2467019 C137.568139,70.2911093 137.388679,70.4504536 137.465815,70.5875941 C137.542951,70.7247347 137.826309,70.8148556 137.928633,70.9519962 C138.030956,71.0878306 138.391451,70.1552749 138.391451,70.1552749 L138.418212,70.3603326 C138.418212,70.3603326 138.88103,70.2689056 138.932979,70.0873576 C138.983354,69.9045036 138.4434,69.7451593 138.88103,69.4499806 C139.318661,69.1534958 138.88103,69.7229556 138.88103,69.7229556 C138.88103,69.7229556 139.035303,70.1552749 139.137626,70.1552749 C139.241524,70.1552749 139.498121,69.3350437 139.241524,69.1312921 C138.983354,68.9262343 139.627206,69.3807573 139.627206,69.3807573 C139.627206,69.3807573 139.9877,68.5383224 139.602019,68.4246917 C139.214763,68.3110609 139.035303,68.2653474 139.035303,68.2653474 C139.035303,68.2653474 139.241524,68.0380859 139.137626,68.0158822 C139.035303,67.9923724 139.679155,68.5161187 139.781479,68.3789782 C139.885376,68.2431437 140.039649,67.8330281 139.293473,67.6057667 C138.545723,67.3785052 139.266712,66.739822 139.266712,66.739822 C139.266712,66.739822 139.731104,67.1956511 140.064836,66.9448798 C140.398569,66.6954146 140.039649,66.6954146 140.039649,66.6954146 C140.039649,66.6954146 140.990472,66.193872 141.017234,65.9431007 C140.8362,65.920897 140.527654,65.9666105 140.527654,65.9666105 C140.527654,65.9666105 141.069183,65.6701257 140.940097,65.1920929 C140.733876,65.4428642 140.450518,65.4428642 140.450518,65.4428642 C140.450518,65.4428642 140.91491,65.0562584 140.8362,64.6918564 C140.554416,64.8734044 140.579603,65.0105449 140.398569,64.9648314 C140.219109,64.9191179 139.910564,63.4850195 140.631552,63.3935925 C141.350966,63.3034716 140.965285,64.1001929 140.990472,64.1001929 C141.017234,64.1001929 142.071955,63.7357908 140.990472,63.1441273 C141.248643,63.074904 141.788597,63.4850195 141.788597,63.4850195 C141.788597,63.4850195 141.557188,62.4832404 140.398569,63.0984138 C140.681927,62.8476425 140.862961,62.6882982 141.09437,62.7340117 C141.325779,62.7797252 142.149091,62.7105019 142.149091,62.5067502 C141.944444,62.3696097 141.506813,62.5746675 141.27383,62.5067502 C141.042421,62.4375269 142.922029,62.3238962 142.767756,61.5506847 L142.767756,61.5506847 Z" id="Shape" stroke="#006B00" stroke-width="0.5" fill="#FFC900"></path>
        <path id="Shape" stroke="#006B00" stroke-width="0.5"></path>
        <path id="Shape" stroke="#006B00" stroke-width="0.5"></path>
        <path d="M137.697007,64.7740219 C137.697007,64.7740219 138.648545,64.8424273 139.266372,64" id="Shape" stroke="#006B00" stroke-width="0.5"></path>
        <path id="Shape" stroke="#006B00" stroke-width="0.5"></path>
        <path id="Shape" stroke="#006B00" stroke-width="0.5" fill="#E80000"></path>
        <path d="M137.816603,67.934683 C137.816603,67.934683 137.61066,67.0245938 137.739269,66.796328 C137.816603,66.5004003 138.151154,66.3866392 138.408372,66" id="Shape" stroke="#006B00" stroke-width="0.5"></path>
        <path id="Shape" stroke="#006B00" stroke-width="0.5"></path>
        <path d="M138.649385,66 C138.649385,66 138.725878,66.7286662 137.697007,66.4557881" id="Shape" stroke="#006B00" stroke-width="0.5"></path>
        <path id="Shape" stroke="#006B00" stroke-width="0.5"></path>
        <path d="M138.75324,61.8457529 C138.75324,61.8457529 139.293734,61.6635864 139.397126,61.5721314 C139.499676,61.4814199 139.680401,61.2992533 139.731677,61.1624425 C139.782952,61.0263753 139.371068,60.8211591 139.57701,60.5253058 C139.705619,60.388718 139.885503,60.3659658 140.194837,60.5253058 C140.50333,60.6843483 139.911561,60.0245336 139.603068,60.0017814 C139.293734,59.9789548 139.087792,60.1838736 139.011299,60.1382948 C138.933965,60.0927903 139.036516,60.3204613 138.907907,60.3204613 C138.779298,60.3204613 139.165125,60.5025535 139.139908,60.6166864 C139.11385,60.7304476 139.550952,61.1170868 139.525734,61.2085418 C139.499676,61.2992533 138.881849,61.8227033 138.75324,61.8457529 L138.75324,61.8457529 Z" id="Shape" fill="#006B00"></path>
        <path id="Shape" stroke="#FFC900" stroke-width="0.5" fill="#FFC900"></path>
        <path id="Shape" stroke="#006B00" stroke-width="0.5" fill="#E80000"></path>
        <path id="Shape" stroke="#006B00" stroke-width="0.5" fill="#E80000"></path>
        <path id="Shape" stroke="#006B00" stroke-width="0.5" fill="#E80000"></path>
        <path id="Shape" stroke="#006B00" stroke-width="0.5" fill="#E80000"></path>
        <path id="Shape" stroke="#006B00" stroke-width="0.5" fill="#E80000"></path>
        <path id="Shape" stroke="#006B00" stroke-width="0.5" fill="#E80000"></path>
        <path id="Shape" stroke="#006B00" stroke-width="0.5" fill="#E80000"></path>
        <path id="Shape" stroke="#006B00" stroke-width="0.5" fill="#E80000"></path>
        <path id="Shape" stroke="#006B00" stroke-width="0.5" fill="#E80000"></path>
        <path id="Shape" stroke="#006B00" stroke-width="0.5" fill="#FFC900"></path>
        <path id="Shape"></path>
        <path id="Shape" stroke="#006B00" stroke-width="0.5" fill="#E80000"></path>
        <path id="Shape" stroke="#006B00" stroke-width="0.5" fill="#E80000"></path>
        <path id="Shape" stroke="#006B00" stroke-width="0.5" fill="#FFC900"></path>
        <path d="M134.581771,61.5947487 C134.581771,61.5947487 135.690016,61.3322225 136.27877,61.7266649 C136.865951,62.1198011 136.865951,61.7632357 136.865951,61.7632357 C136.865951,61.7632357 137.72547,62.0257619 137.974195,61.9695996 C138.22292,61.9134373 137.793161,61.9891911 138.131616,61.819398 C138.471646,61.6509111 137.453131,61.8572749 137.363401,61.5007095 C137.204406,61.2760602 137.38544,60.9939425 137.024946,61.0879817 C136.776221,60.8254555 137.182367,60.6386832 137.092637,60.3565654 C136.843912,60.506767 136.706956,60.3004031 136.503882,60.675254 C136.030045,60.6008062 136.436191,60.0561623 135.916702,60 C135.916702,60.3944424 135.532594,60.4127278 135.508981,60.6386832 C135.283869,60.7692932 134.288968,61.2577748 134.581771,61.5947487 L134.581771,61.5947487 Z" id="Shape" fill="url(#linearGradient-2)"></path>
        <path d="M121.853503,91.5081328 C122.572288,91.3644618 126.466885,92.2225698 127.968681,93.5574045 C127.649117,91.1789955 126.8554,89.3569853 126.8554,89.3569853 C126.8554,89.3569853 124.534541,88.807117 124.215921,89.0722554 C123.748695,89.4797587 122.345287,90.7035749 121.853503,91.5081328 L121.853503,91.5081328 Z" id="Shape" stroke="#000000" stroke-width="0.621" fill="#C01500"></path>
        <path d="M120.313542,80 C120.040574,80.0378769 119.767449,80.1893846 119.494481,80.5668476 C119.17586,81.208143 118.948387,82.8316259 118.493283,83.209089 C118.038179,83.586552 117.628569,83.6244289 117.628569,83.9653212 C117.628569,84.3049073 117.674221,85.0977103 118.902892,85.3994195 C120.131564,85.4372964 122.088465,83.7759366 122.088465,83.7759366 C122.088465,83.7759366 123.089663,82.8695028 123.499115,81.8886213 C121.132762,82.5677936 119.448986,80.7549261 120.313542,80 L120.313542,80 Z" id="Shape" stroke="#000000" stroke-width="0.621" fill="#C01500"></path>
        <path d="M155.458146,90.499564 C154.745028,90.357199 150.806353,91.2100826 149.315576,92.5370808 C149.631992,90.1730388 150.420672,88.3601713 150.420672,88.3601713 C150.696159,88.2987846 152.698554,87.8142213 153.014971,88.0780536 C153.477789,88.4829448 154.97014,89.7002304 155.458146,90.499564 L155.458146,90.499564 Z" id="Shape" stroke="#000000" stroke-width="0.61679583" fill="#C01500"></path>
        <path d="M155.645292,80 C155.916056,80.0378769 156.012083,80.3330556 156.234046,80.7092126 C156.548888,81.3465896 156.87475,82.2765332 157.326548,82.651384 C157.778347,83.027541 158.184493,83.5826337 158.184493,83.9209137 C158.184493,84.2591938 158.09004,84.7150229 156.870027,85.015426 C155.651588,85.0533029 153.88375,83.7537329 153.88375,83.7537329 C153.88375,83.7537329 152.890423,82.8538296 152.484277,81.8768664 C154.832999,82.5534265 156.353686,80.8137006 155.645292,80 L155.645292,80 Z" id="Shape" stroke="#000000" stroke-width="0.61679583" fill="#C01500"></path>
        <path d="M119.741036,89.046662 C119.741036,89.046662 122.198379,90.4428835 122.244031,91.0854849 C128.843121,82.9667641 145.680877,80.4368474 155.281987,90.5186373 C156.557097,89.1211098 157.876286,88.669199 157.876286,88.669199 C147.774577,77.7188523 127.659315,79.0785029 119.741036,89.046662 L119.741036,89.046662 Z" id="Shape" stroke="#000000" stroke-width="0.621" fill="#FFBB00"></path>
        <path d="M144.670513,58.0195915 L145.632355,58 L143.914892,59.8050309 L145.975533,61.8007525 L141.921941,66.0377426 L145.747273,69.8567805 C145.326958,70.7122763 144.838953,71.4907122 144.188804,72.1947004 L141.991206,70.1793873 L145.975533,66.0573341 L142.701175,62.9788552 L144.670513,58.0195915 L144.670513,58.0195915 Z" id="Shape" stroke="#000000" stroke-width="0.621" fill="#1E5AA6"></path>
        <path d="M130.391589,58 L129.360481,58.0195915 L131.284167,59.7475625 L129.247138,61.8569148 L133.483339,65.6772588 L129.979146,69.5720506 C130.39946,70.4275464 131.002383,71.3770815 131.650958,72.0797635 L133.735212,69.8946574 L129.45336,65.9423972 L132.590761,62.6366568 L130.391589,58 L130.391589,58 Z" id="Shape" stroke="#000000" stroke-width="0.621" fill="#1E5AA6"></path>
        <path d="M136.039548,69.0378769 L134.528306,70.7096856 L139.932571,75.8975168 C140.886542,75.4978501 141.635867,75.042021 142.452882,74.4921527 L139.635045,71.793749 L140.78107,69 L142.429269,70.5764633 L137.276878,76.0307391 C136.41421,75.7264177 135.460239,75.2509971 134.597571,74.6619457 L137.32253,71.793749 L136.039548,69.0378769 L136.039548,69.0378769 Z" id="Shape" stroke="#000000" stroke-width="0.621" fill="#1E5AA6"></path>
        <polygon id="Shape" stroke="#000000" stroke-width="0.621" fill="#1E5AA6" points="133.472073 66.3604837 134.457528 67.3870787 133.81525 66 133.472073 66.3604837"></polygon>
        <path d="M140.865708,67.2159796 C140.886172,67.1963881 141.660684,66.3408922 141.660684,66.3408922 L141.36001,66 L140.865708,67.2159796 L140.865708,67.2159796 Z" id="Shape" stroke="#000000" stroke-width="0.60143229" fill="#1E5AA6"></path>
        <path d="M152.484277,52.6948455 C152.484277,52.6948455 153.4351,52.0195915 154.11201,52" id="Shape" stroke="#FFF700" stroke-width="0.621"></path>
        <path d="M152.484277,52.8254555 C152.506316,52.8071701 158.159306,52.1502016 158.338766,52" id="Shape" stroke="#FFF700" stroke-width="0.621"></path>
        <path id="Shape" stroke="#FFF700" stroke-width="0.621"></path>
        <path id="Shape" stroke="#FFF700" stroke-width="0.621"></path>
        <path id="Shape" stroke="#FFF700" stroke-width="0.621"></path>
        <path id="Shape" stroke="#FFF700" stroke-width="0.621"></path>
        <path d="M152.484277,53 C152.506316,53 158.92752,53.4688901 159.560353,54.1441441" id="Shape" stroke="#FFF700" stroke-width="0.621"></path>
        <path d="M159.922421,55.1202982 C159.900383,55.1020128 157.729546,52.9626201 152.484277,53.0004971" id="Shape" stroke="#FFF700" stroke-width="0.621"></path>
        <path d="M152.484277,53 C152.484277,53 156.123852,53.2063639 157.276174,54.2564687" id="Shape" stroke="#FFF700" stroke-width="0.621"></path>
        <path d="M152.484277,53.0204751 C152.484277,53.0204751 154.834573,52.6456242 157.299787,55.1037054" id="Shape" stroke="#FFF700" stroke-width="0.621"></path>
        <path d="M150.486198,55 C150.486198,55 153.747962,55.1071002 153.747962,55.3722386 C153.747962,55.6373771 151.317381,56.1415318 151.285897,57.2556356 C151.254412,58.3697393 153.140317,58.4494115 153.267828,59.8547756 C153.395339,61.2614459 151.797515,61.4730342 151.47795,61.8452728 C151.156811,62.0307391 150.390171,64.0199302 150.486198,65.187584 C150.582224,66.3552379 150.997816,70.307498 151.732972,71.1042193 C152.309133,71.4751519 153.171801,72.6689278 154.099011,72.2979952 C155.026221,71.9257566 154.387091,70.5739425 154.291064,70.2017039 C154.195038,69.8307713 154.675172,69.2208224 154.675172,68.6631175 C154.675172,68.1054126 154.322549,67.6548079 154.355607,67.5228917 C154.387091,67.3896695 156.945183,68.0270465 156.784614,70.1220318 C156.625619,72.2183231 155.602382,71.580946 155.602382,71.580946 C155.602382,71.580946 155.921947,74.1552701 155.122248,74.5000807 C153.683419,75.1361516 152.628698,74.3668584 152.628698,74.3668584 L152.76408,74.8906047 L151.670004,74.4204086 C151.670004,74.4204086 150.26266,72.7485999 149.943095,72.0054287 C149.62353,71.2635636 149.239423,67.9473744 149.366934,67.2303252 C149.494445,66.5145821 149.590472,62.3219995 149.527503,62.1104112 C149.462961,61.8975168 149.207939,58.3958613 149.366934,57.8655845 C149.527503,57.3353077 150.517682,55 150.486198,55 L150.486198,55 Z" id="Shape" stroke="#000000" stroke-width="0.621" fill="url(#linearGradient-3)"></path>
        <path d="M147.203109,54.6352893 C147.203109,54.6352893 149.473121,52.8054425 150.784438,53.0170308 C151.455052,53.0170308 150.815922,53.4153914 150.815922,53.4153914 C150.815922,53.4153914 151.96667,53.4950636 152.127239,53.9195462 C152.158724,54.1050125 151.582563,54.1585626 151.582563,54.1585626 C151.582563,54.1585626 152.062697,54.2382348 152.094181,54.5830453 C152.127239,54.9278558 147.234593,54.6614113 147.203109,54.6352893 L147.203109,54.6352893 Z" id="Shape" stroke="#000000" stroke-width="0.621" fill="#FF7000"></path>
        <path d="M147.203109,54.1141037 C147.203109,54.1141037 149.63369,53.8489653 150.656927,53" id="Shape" stroke="#000000" stroke-width="0.621"></path>
        <path id="Shape" stroke="#000000" stroke-width="0.621"></path>
        <path d="M156.709211,75.7530669 C156.709211,75.7530669 158.244066,75.4605004 158.659658,75.0098957 C158.916254,74.8505515 160.259056,76.6817044 156.709211,75.7530669 L156.709211,75.7530669 Z" id="Shape" stroke="#000000" stroke-width="0.77625" fill="#FFFFFF"></path>
        <path d="M156.356623,65 C156.356623,65 156.548677,65.9821876 156.005574,66.6443805 C155.717494,66.909519 154.853252,67.3614297 154.853252,67.6801183 C154.853252,67.9975007 155.172817,68.4219833 155.109848,68.794222 C155.045306,69.1651545 154.566746,69.5373932 154.59823,69.8547756 C154.59823,70.1734641 155.141333,71.8713948 155.07679,71.8975168" id="Shape" stroke="#FFFFFF" stroke-width="0.77625"></path>
        <path d="M152.89993,62 C152.89993,62 151.68464,62.3448105 151.428043,63.3531201" id="Shape" stroke="#FFFFFF" stroke-width="0.77625"></path>
        <path d="M152.484277,53.3916084 C152.484277,53.3916084 152.901443,54.3463678 154.244244,53.4438524 C153.380003,52.4629709 152.484277,53.4177304 152.484277,53.3916084 L152.484277,53.3916084 Z" id="Shape" stroke="#000000" stroke-width="0.621" fill="#C75B00"></path>
        <path id="Shape" fill="#000000"></path>
        <path d="M141.383623,51 C141.383623,51 143.930695,53.286982 145.578894,53.2621661 C145.877994,53.9335018 144.82957,54.5578178 144.41083,54.8556087 C143.571775,54.6322655 142.813006,54.8960978 140.865708,52.9082129 C140.986922,51.6399893 141.413533,51.0496318 141.383623,51 L141.383623,51 Z" id="Shape" stroke="#000000" stroke-width="0.621" fill="#FFFFFF"></path>
        <path d="M145.090642,46.1896103 C145.419652,45.3445633 146.079246,44.6732276 146.647536,44.5987799 C146.497986,43.9522602 147.847084,41.0945122 151.771591,40 C152.010871,41.4667509 150.093483,42.9086858 150.093483,42.9086858 C150.093483,42.9086858 155.875558,42.0884547 157.043622,40.8698629 C156.923982,41.4171191 155.755918,44.8221231 149.583439,44.7973072 C151.921141,46.6376028 148.835689,48.1043537 147.5165,47.6563612 C149.943933,46.1151626 146.82857,45.1956678 145.090642,46.1896103 L145.090642,46.1896103 Z" id="Shape" stroke="#000000" stroke-width="0.621" fill="#FFFFFF"></path>
        <path d="M147.203109,44.5624226 C148.371173,43.9407188 148.789913,43.9407188 149.750182,44.0647983 C149.060677,44.1392461 149.060677,44.164062 149.060677,44.164062 C149.060677,44.164062 149.000857,44.2385097 149.419597,44.5624226 C148.941037,44.4618529 148.520723,44.2385097 147.203109,44.5624226 L147.203109,44.5624226 Z" id="Shape" stroke="#CCCCCC" stroke-width="0.621" fill="#CCCCCD"></path>
        <path d="M146.146875,44.71491 C146.146875,44.71491 148.454668,43.6961516 149.742372,43" id="Shape" stroke="#000000" stroke-width="0.621"></path>
        <path d="M144.698826,55.5833628 C144.698826,55.5833628 147.875583,56.3043303 148.234503,52.5257815 C147.544999,50.8853192 146.586304,47.3549295 148.055043,46.3361711 C146.705944,45.5655718 145.23878,46.360987 145.23878,46.360987 C145.14905,46.5346984 143.949502,47.9518175 145.56779,50.4373268 C141.733013,49.5922797 143.291482,52.6002292 143.291482,52.6002292 C143.441032,52.1274208 145.47806,51.6807344 145.988104,54.091796 C146.197474,54.6886839 144.609096,55.6081787 144.698826,55.5833628 L144.698826,55.5833628 Z" id="Shape" stroke="#000000" stroke-width="0.621" fill="#0000FF"></path>
        <path d="M147.802883,51.9958345 C147.802883,51.9958345 151.1591,50.5042677 151.067796,47 C148.221623,47.0496318 147.203109,50.105907 147.203109,50.105907 L147.802883,51.9958345 L147.802883,51.9958345 Z" id="Shape" stroke="#000000" stroke-width="0.621" fill="#0000FF"></path>
        <path d="M133.305891,52 C133.305891,52 130.820213,53.7893577 129.411294,53.2172857 C128.36287,53.7397259 127.134671,52.8202311 127.134671,52.8202311 C127.134671,52.8202311 128.57224,57.2191777 133.726205,54.0375168 C133.636475,53.0683902 133.365711,52.0744477 133.305891,52 L133.305891,52 Z" id="Shape" stroke="#000000" stroke-width="0.621" fill="#FFFFFF"></path>
        <path d="M129.20173,52.6503037 C129.4111,51.7308089 130.280064,51.2828165 130.969568,52.1526794 C131.898352,52.302881 132.827136,49.146036 129.53074,49.6671701 C130.459524,45.5411986 127.673958,44 127.673958,44 C127.673958,44 126.685354,48.573964 127.134634,49.419011 C127.584071,50.2640581 126.475669,47.8529965 122.910397,47.1816609 C122.85042,50.6376028 126.895039,52.2532492 126.895039,52.2532492 C126.895039,52.2532492 128.033665,53.1231121 129.20173,52.6503037 L129.20173,52.6503037 Z" id="Shape" stroke="#000000" stroke-width="0.621" fill="#0000FF"></path>
        <path d="M129.442606,50 C129.442606,50 127.885712,51.0945122 128.244632,52.586079" id="Shape" stroke="#000000" stroke-width="0.621"></path>
        <path d="M127.217523,50 C127.217523,50 126.857973,51.0683902 127.636893,52.5847729" id="Shape" stroke="#000000" stroke-width="0.621"></path>
        <path d="M127.134671,53.3599568 C127.134671,53.3599568 127.85377,52.3908302 129.411452,53.6329318" id="Shape" stroke="#000000" stroke-width="0.621"></path>
        <path d="M127.814813,46.1896103 C127.814813,46.1647944 125.448145,46.1896103 126.856119,48.1788014 C125.807537,48.4517764 123.470779,47.1848589 125.088595,45.4934588 C119.78571,45.3941951 117.628569,43.2822306 117.628569,41.3426713 C119.186565,42.6853427 122.901544,42.1380865 124.219788,42.9583177 C122.601972,41.7162161 122.931454,40 122.931454,40 C122.931454,40 127.455421,41.1193281 128.26425,44.4498845 C127.994588,45.0964042 127.87479,46.2392422 127.814813,46.1896103 L127.814813,46.1896103 Z" id="Shape" stroke="#000000" stroke-width="0.621" fill="#FFFFFF"></path>
        <path d="M123.96597,43 C124.839028,43.7366407 127.08212,43.9573717 128.220747,44.7776028" id="Shape" stroke="#000000" stroke-width="0.621"></path>
        <path d="M125.022204,45.035196 C125.022204,45.035196 126.8793,44.8366687 127.417523,45.3826187 C126.690867,45.3826187 126.448596,45.2337232 125.39907,45.5576362 C125.695022,45.4322505 125.614265,45.2089073 125.775779,45.2089073 C125.937293,45.2089073 125.102961,45.035196 125.022204,45.035196 L125.022204,45.035196 Z" id="Shape" stroke="#CCCCCC" stroke-width="0.58859001" fill="#CCCCCD"></path>
        <path d="M133.67388,32.6239892 C133.67388,32.6239892 134.692394,31.8782058 135.800638,32.5494109 C135.300039,33.7911207 133.49442,33.3200102 133.49442,33.3200102 C133.49442,33.3200102 133.55424,33.9414528 133.37478,34.2396356 C133.735274,34.4651991 134.0328,35.209154 134.0328,35.209154 C134.0328,35.209154 135.890368,34.8362623 136.280772,35.5074673 C136.992316,35.4259667 137.508657,35.5074673 137.508657,35.5074673 C137.508657,35.5074673 138.947485,35.209154 139.455955,35.209154 C139.965999,35.209154 141.582714,35.5570992 141.732264,35.8056501 C141.883388,36.054201 142.421768,37.7197404 142.782262,37.6947939 C143.141182,37.669978 141.913298,38.0925015 141.582714,37.669978 C141.253704,37.2473238 141.343434,38.2168422 141.343434,38.2168422 C141.343434,38.2168422 142.361948,39.1116517 142.481588,39.3104402 C142.601228,39.5089675 141.853478,41.1246138 142.421768,42.243942 C141.922743,42.2818189 141.883388,42.7154443 141.883388,42.7154443 C141.855052,43.2078441 141.104154,43.3371481 141.104154,43.3371481 L140.924694,42.6658124 L140.414649,42.9152776 L140.624019,42.3928374 C140.624019,42.3928374 141.313524,41.0005343 141.373344,40.5538479 C141.433164,40.1058554 140.743659,39.3104402 140.205279,39.3104402 C139.665325,39.3104402 139.276495,40.7275593 139.276495,40.7275593 C139.276495,40.7275593 139.007305,41.7959495 139.097035,41.8952131 C139.186765,41.9944768 138.736541,41.5477904 138.736541,41.5477904 C138.736541,41.5477904 138.497261,42.1943101 138.317801,42.3928374 C138.138341,42.5913647 137.747937,42.6658124 137.747937,42.6658124 C137.747937,42.6658124 137.478747,42.0192927 137.568477,41.7711336 C137.658207,41.5229745 139.037215,40.5538479 138.917575,39.8576963 C138.796361,39.1615448 138.917575,39.3352561 138.886091,39.3104402 C138.856181,39.2856243 138.168251,38.7885224 138.138341,38.5151556 C138.108431,38.2416582 137.239467,38.8631008 136.101312,38.6641817 C135.751838,39.1693814 135.710908,40.4284623 135.710908,40.4284623 C135.710908,40.4284623 135.591268,41.9448449 135.830548,42.1198624 C136.071402,42.2935738 135.232348,42.6658124 135.232348,42.6658124 L134.632574,43.3371481 C134.632574,43.3371481 134.423204,42.9152776 134.423204,42.9400935 C134.423204,42.9649095 134.00289,43.1882526 134.00289,43.1882526 L134.243744,42.6906283 C134.228002,42.3144714 134.826202,41.2865703 134.826202,40.4167073 C134.826202,39.5468444 134.901764,38.6145499 134.901764,38.6145499 C134.901764,38.6145499 133.79352,38.5647874 133.82343,39.5089675 C133.85334,40.4545843 133.55424,40.5042161 133.61406,40.7771911 C133.67388,41.0501661 133.97298,41.8207654 133.88325,42.0454147 C133.79352,42.2687579 133.4346,42.3432056 133.4346,42.3432056 L133.34487,42.4672852 C133.34487,42.4672852 132.236626,42.8904617 132.266536,43.0641731 C132.296446,43.2378845 132.236626,42.5665488 132.236626,42.5665488 L132.175231,41.8455813 C132.175231,41.8455813 132.834826,41.4981586 132.834826,40.6282956 C132.834826,39.7584327 132.683701,39.6343531 132.713611,39.4358259 C132.743521,39.2359925 132.894646,38.515025 132.864736,38.4405773 C132.834826,38.3659989 132.236626,38.6393658 132.055591,38.6393658 C131.876131,38.6393658 132.386176,38.117448 132.445996,37.7445563 C132.505816,37.3716646 131.846221,38.0925015 131.307841,37.669978 C131.558141,37.2110142 131.935951,37.0733512 131.995771,36.7254061 C132.055591,36.3774609 131.577031,37.0237194 131.156717,36.7751685 C131.19135,36.4415904 131.606941,36.1537259 131.606941,36.1537259 C131.606941,36.1537259 131.265338,36.1189836 131.126807,36.1537259 C130.857617,36.0791475 131.427481,35.7310718 131.457391,35.2339699 C131.487301,34.736868 131.126807,34.5379489 131.126807,34.513133 C131.126807,34.4883171 130.528607,34.065663 130.438877,33.8916904 C130.349147,33.7177178 130.349147,33.5187987 130.349147,33.5187987 C130.349147,33.5187987 129.358969,34.1154254 128.190905,32.8477243 C129.261368,32.0897941 130.408967,32.6488051 130.408967,32.6488051 C130.408967,32.6488051 130.708067,31.9527842 132.085501,32.0025466 C133.46451,32.052309 133.7337,32.6985676 133.67388,32.6239892 L133.67388,32.6239892 Z" id="Shape" stroke="#000000" stroke-width="0.621" fill="#923F00"></path>
        <path d="M141.997503,46 C142.021116,46 144.541427,46.0626928 144.566615,47.1807149 C144.591802,48.2974308 143.793677,48.0087826 143.76849,48.0087826 C143.743303,48.0087826 141.921941,47.8220102 141.921941,47.8220102 L141.997503,46 L141.997503,46 Z" id="Shape" stroke="#000000" stroke-width="0.621" fill="#0000FF"></path>
        <path d="M138.75324,46.0000217 C138.75324,46.0000217 141.896939,45.9804302 141.722201,47.1180438 C141.547464,48.2569634 140.749339,48.0297019 140.749339,48.0297019 L139.227078,47.9252139 L138.75324,46.0000217 L138.75324,46.0000217 Z" id="Shape" stroke="#000000" stroke-width="0.621" fill="#FFFEFF"></path>
        <path d="M137.722194,45 L139.543556,45.1240795 C139.543556,45.1240795 140.64078,45.2481591 140.59198,46.118022 C140.541605,46.987885 139.467994,47.0087826 139.467994,47.0087826 L137.697007,46.9251922 L137.722194,45 L137.722194,45 Z" id="Shape" stroke="#000000" stroke-width="0.621" fill="#0000FF"></path>
        <path d="M132.874571,46 C132.849384,46 130.329073,46.0626928 130.303886,47.1807149 C130.280272,48.2974308 131.078397,48.0087826 131.103584,48.0087826 C131.128772,48.0087826 132.950133,47.8220102 132.950133,47.8220102 L132.874571,46 L132.874571,46 Z" id="Shape" stroke="#000000" stroke-width="0.621" fill="#FFFFFF"></path>
        <path d="M135.391823,46.0000217 C135.391823,46.0000217 132.248125,45.9804302 132.422862,47.1180438 C132.5976,48.2569634 133.395725,48.0297019 133.395725,48.0297019 L134.917986,47.9252139 L135.391823,46.0000217 L135.391823,46.0000217 Z" id="Shape" stroke="#000000" stroke-width="0.621" fill="#0000FF"></path>
        <path d="M137.399772,45 L135.578411,45.1240795 C135.578411,45.1240795 134.479612,45.2481591 134.529987,46.118022 C134.580361,46.987885 135.652399,47.0087826 135.652399,47.0087826 L137.423386,46.9251922 L137.399772,45 L137.399772,45 Z" id="Shape" stroke="#000000" stroke-width="0.621" fill="#FFFFFF"></path>
        <path d="M141.921941,58.4429763 C141.921941,58.4429763 143.231684,56.841697 143.784232,57.0127962 C144.265941,57.1460185 143.899149,58.3855079 143.669315,58.5004447 L141.921941,58.4429763 L141.921941,58.4429763 Z" id="Shape" stroke="#000000" stroke-width="0.621" fill="#5E0043"></path>
        <path d="M133.158248,58.4923344 C132.745805,58.0156077 132.147605,56.7003644 131.596631,57.0621543 C131.113349,57.1953765 131.481714,58.4348659 131.711549,58.5498028 L133.158248,58.4923344 L133.158248,58.4923344 Z" id="Shape" stroke="#000000" stroke-width="0.621" fill="#5E0043"></path>
        <path d="M133.472073,55.3552593 C133.472073,55.3552593 136.023868,56.6600538 136.861348,56.6940124 C137.698828,56.727971 140.352947,55 140.352947,55" id="Shape" stroke="#000000" stroke-width="0.621"></path>
        <polygon id="Shape" stroke="#000000" stroke-width="0.621" fill="#5E0043" points="134.528306 49.5080731 135.017886 49 137.468931 50.0331255 139.959332 49.117549 140.448912 49.5420317 137.672004 51.1681269 134.528306 49.5080731"></polygon>
        <path d="M132.129394,49.5603171 C132.327745,49.7679871 133.911401,51.365348 134.197907,52.6871218 C134.482839,54.0088955 134.034189,50.8742542 134.034189,50.8742542 C134.034189,50.8742542 135.994081,51.6709756 136.055475,52.1790487 C136.11687,52.6871218 136.992131,52.14509 137.034634,52.0575813 L131.359605,49 L132.129394,49.5603171 L132.129394,49.5603171 Z" id="Shape" stroke="#474747" stroke-width="0.77625" fill="#474747"></path>
        <path d="M142.411767,50 C142.411767,50 140.349552,52.2530234 140.595128,54.7084924 C140.170092,53.5330019 140.513269,51.5921365 140.513269,51.5921365 L140.064619,51.8298468 C140.064619,51.8298468 139.595505,53.4899006 139.002027,53.7432841 C138.902852,53.5460629 138.921743,53.4729213 138.921743,53.4729213 C138.921743,53.4729213 138.28891,54.1494813 138.166122,54.2173986 C138.043333,54.2853158 138.207051,56.5043806 138.207051,56.5043806 C138.207051,56.5043806 138.419569,58.1134964 138.663572,58.0965171 C138.384937,58.2088417 138.043333,58.3851653 138.043333,58.3851653 L137.789885,54.0907068 L138.369195,53.6074496 C138.369195,53.6074496 139.14528,52.8290137 139.206675,52.066251 C138.869794,52.3039613 138.491983,52.3718785 138.491983,52.3718785 C138.491983,52.3718785 138.389659,53.455942 138.084263,53.6074496 C137.777292,53.7602634 137.76942,54.0436872 137.76942,54.0436872 L137.697007,52.6265681 L142.411767,50 L142.411767,50 Z" id="Shape" stroke="#474747" stroke-width="0.77625" fill="#474747"></path>
        <path id="Shape" stroke="#000000" stroke-width="0.77625"></path>
        <path d="M132.415839,56 C132.415839,56 133.354068,56.4584413 133.701969,57.8468261 C136.763808,57.6600538 137.724077,58.5586509 137.724077,58.5586509 C137.724077,58.5586509 140.234943,57.559484 141.399858,57.7449503 C141.807579,57.0344316 142.97092,56.1188551 142.97092,56.1188551" id="Shape" stroke="#000000" stroke-width="0.621"></path>
        <path d="M130.549489,48.9334315 L136.852628,52.3554149 L142.529231,49.1881211 C142.529231,49.1881211 143.713037,48.6460894 143.610713,48.2568715 C143.509964,47.8663474 143.100669,48.0191612 142.896022,48.0870784 C142.692949,48.1549956 136.954951,51.5260411 136.954951,51.5260411 L130.850163,48.3234826 C130.850163,48.3234826 130.401513,48.2059336 130.319654,48.4423378 C130.237795,48.680048 130.488094,48.8145764 130.549489,48.9334315 L130.549489,48.9334315 Z" id="Shape" stroke="#000000" stroke-width="0.621" fill="#B4B6B9"></path>
        <path d="M142.627434,48.6817845 C142.627434,48.6817845 141.013868,48.1136307 141.013868,48.6060306 C141.013868,49.0971244 141.05952,49.1480624 141.319265,49.4641387 C141.577436,49.7789089 141.120915,49.9813545 141.120915,49.9813545 C141.120915,49.9813545 141.05952,49.8429078 140.968216,49.6274012 C140.876912,49.4132008 140.009522,49.2616931 139.93396,49.0096157 C139.858398,48.7562322 140.116568,48.3526471 139.598653,48.3030153 C139.082312,48.2520774 138.580139,48.4793389 138.473093,48.9717388 C138.366046,49.4641387 137.697007,50.612201 137.697007,50.612201 L137.788311,48 C138.924891,48.0666111 141.034333,48.272975 142.657344,48.428401 C142.170913,48.3657081 142.839953,48.454523 142.825785,48.5929696 C142.780133,48.7066004 142.611692,48.7183553 142.627434,48.6817845 L142.627434,48.6817845 Z" id="Shape" stroke="#474747" stroke-width="0.77625" fill="#474747"></path>
        <path d="M135.984636,48.0020783 C135.696555,48.0020783 134.249856,48.1405249 133.884639,48.3181546 C133.519422,48.4944782 134.478116,48.7713715 134.356902,49.011694 C134.235688,49.2520165 134.219946,49.7313554 133.763425,49.6307856 C133.306904,49.5289098 131.770474,48.8980632 131.724822,48.6838628 C131.67917,48.4696623 131.359605,48.4566013 131.359605,48.4566013 C131.359605,48.4566013 135.772117,47.9642014 135.984636,48.0020783 L135.984636,48.0020783 Z" id="Shape" stroke="#474747" stroke-width="0.77625" fill="#474747"></path>
        <path id="Shape" stroke="#000000" stroke-width="0.621"></path>
        <path d="M134.21831,43 C134.21831,43 132.450472,45.3810212 132.415839,45.4541629" id="Shape" stroke="#000000" stroke-width="0.621"></path>
        <path d="M137.697007,43 C137.697007,43 138.466796,43.871169 138.37864,44.118022 C138.693482,44.3217737 139.044531,45.1354743 139.044531,45.1354743" id="Shape" stroke="#000000" stroke-width="0.621" fill="url(#linearGradient-4)"></path>
        <path d="M140.36485,43 C140.36485,43 138.702484,44.9460898 138.754433,45.0910669" id="Shape" stroke="#000000" stroke-width="0.621"></path>
        <path d="M132.181267,34.2879317 C132.12799,34.3961849 131.903423,34.4493846 131.679678,34.4067458 C131.455932,34.364107 131.317748,34.241786 131.371029,34.133526 C131.424306,34.0252728 131.648873,33.972073 131.872618,34.0147118 C132.096364,34.0573506 132.234548,34.1796716 132.181267,34.2879317 L132.181267,34.2879317" id="Shape" fill="#000000"></path>
        <path d="M132.427261,34.2879325 C132.373984,34.1796793 132.512164,34.0573515 132.73591,34.0147127 C132.959656,33.9720739 133.184219,34.0252668 133.2375,34.1335268 C133.290777,34.24178 133.152597,34.3641078 132.928851,34.4067467 C132.705105,34.4493855 132.480542,34.3961925 132.427261,34.2879325 L132.427261,34.2879325" id="Shape" fill="#000000"></path>
        <path d="M152.013773,74 C152.013773,74 151.396682,74.0966514 151.417147,74.1436711 C151.436038,74.1919968 149.624121,74.2403225 149.58634,74.1919968 C149.546985,74.1436711 149.315576,74.4479925 149.315576,74.4479925 L149.605231,74.3043214 C149.605231,74.3043214 150.047584,74.6870089 150.182966,74.6556625 C150.318348,74.624316 150.12472,74.7993335 150.164076,74.831986 C150.201857,74.8633324 150.337239,74.7679871 150.337239,74.7679871 L153.331387,74.7261919 L152.013773,74 L152.013773,74 Z" id="Shape" stroke="#000000" stroke-width="0.621" fill="#FF7000"></path>
        <path d="M153.475294,75.0028772 L151.028971,75.0616517 C151.028971,75.0616517 150.413454,75.5253174 150.374099,75.636336 C150.336318,75.7486606 150.778671,75.780007 150.778671,75.780007 L150.914053,76.1640006 L151.222598,76.0686552 C151.222598,76.0686552 153.302131,76.3246509 155.211648,75.9720038 C156.175065,75.6924983 156.343505,75.3568304 155.668169,75.1530788 C154.994407,74.9493271 153.494184,75.0107138 153.475294,75.0028772 L153.475294,75.0028772 Z" id="Shape" stroke="#000000" stroke-width="0.77625" fill="#FF7000"></path>
        <path d="M145.122188,78.9238861 L149.525255,78.7606235 L148.705091,78.1833271 L160.613993,77.7849664 L160.203124,77 L146.869561,77.4440742 L148.473682,78.065778 L144.871888,78.1545929 L144.978935,78.4654448 L144.034408,78.4354045 C144.034408,78.4354045 145.085981,78.7749906 145.122188,78.9238861 L145.122188,78.9238861 Z" id="Shape" stroke="#000000" stroke-width="0.621" fill="url(#linearGradient-5)"></path>
        <path d="M149.750243,59.1156795 C149.399194,58.9707023 147.861191,58.7969909 146.146875,59.7256284 L146.217715,63.0052468 C146.217715,63.0052468 148.734877,61.8728577 149.959613,62.1340778 C149.888774,61.1179316 149.888774,59.8131371 149.750243,59.1156795 L149.750243,59.1156795 Z" id="Shape" stroke="#000000" stroke-width="0.621" fill="url(#linearGradient-6)"></path>
        <path d="M125.898965,69 L115.516102,77.5523462" id="Shape" stroke="#000000" stroke-width="0.621"></path>
        <path d="M130.280567,69 L121.853503,78.2080086" id="Shape" stroke="#000000" stroke-width="0.621"></path>
        <path d="M129.933324,67 L118.684803,78.2990756" id="Shape" stroke="#000000" stroke-width="0.621"></path>
        <path d="M117.628569,78.0605536 L118.719497,77" id="Shape" stroke="#000000" stroke-width="0.621"></path>
        <path d="M131.498697,72 L127.134671,76.9945284" id="Shape" stroke="#000000" stroke-width="0.621"></path>
        <path id="Shape" stroke="#000000" stroke-width="0.621"></path>
        <path d="M133.873743,74 L129.247138,78.807756" id="Shape" stroke="#000000" stroke-width="0.621"></path>
        <path d="M133.472073,78.559957 L135.353254,76" id="Shape" stroke="#000000" stroke-width="0.621"></path>
        <path d="M133.617023,75 L131.359605,77.1224133" id="Shape" stroke="#000000" stroke-width="0.621"></path>
        <path d="M132.902332,73 L131.359605,74.559484" id="Shape" stroke="#000000" stroke-width="0.621"></path>
        <path d="M130.706408,71 C130.706408,71 126.004084,76.7115776 126.079331,77.1804676" id="Shape" stroke="#000000" stroke-width="0.621"></path>
        <path d="M130.140688,70 C130.028919,70.0613867 126.078438,74.4002526 126.078438,74.4002526" id="Shape" stroke="#000000" stroke-width="0.621"></path>
        <path d="M125.737053,76 L125.022204,76.7183553" id="Shape" stroke="#000000" stroke-width="0.621"></path>
        <path d="M125.056898,78 L123.96597,79.1859393" id="Shape" stroke="#000000" stroke-width="0.621"></path>
        <path d="M125.0999,56.042192 C125.0999,56.042192 124.78128,56.8728719 125.0999,57.2882119 C125.418363,57.7035519 127.420759,61.0641485 127.420759,61.0641485 C127.420759,61.0641485 128.786544,59.6666209 129.287143,59.628744 C129.787742,59.5921732 129.559481,63.2544791 129.559481,63.2544791 C129.559481,63.2544791 128.740892,63.8957744 128.240293,63.8578975 C127.739379,63.8200206 129.468177,65.293302 129.422525,66.5393219 C129.376873,67.7853417 127.147791,73.9775643 126.328572,74.0898889 C125.50951,74.2035197 126.692687,72.9574998 126.647192,72.6179137 C126.601697,72.2783275 126.374066,72.5042829 126.192088,72.1268199 C126.010109,71.7493568 126.465213,71.1825092 126.374066,70.8050461 C126.283077,70.4275831 125.873468,70.5033369 125.827973,70.2395046 C125.782478,69.9743662 126.101098,69.8999185 126.055604,69.5969032 C126.010109,69.2951939 125.50951,69.3709478 125.555005,69.1058094 C125.600499,68.8419771 125.645994,68.9556078 125.600499,68.464514 C125.555005,67.9734202 125.464015,68.8041001 124.963416,68.8419771 C124.462817,68.879854 124.053208,69.8241647 124.053208,69.8241647 C124.053208,69.8241647 123.05201,70.9944307 122.050812,70.46546 C122.6424,71.5234014 122.187454,71.9766183 121.959823,72.0131891 C121.732349,72.051066 122.141802,72.843869 121.595708,72.881746 C121.049614,72.9196229 122.005317,74.6567366 121.368234,74.8082442 C122.050812,75.0720765 121.504719,75.4116627 121.504719,75.4116627 C121.504719,75.4116627 119.92736,75.5213751 120.276047,77.2245302 C115.634173,75.8648795 113.358809,73.5243474 113.404303,71.1459384 C113.449845,68.7662232 114.360007,66.6150757 116.589876,65.8222727 C117.226959,63.8578975 118.319146,61.7433208 118.319146,61.7433208 C118.319146,61.7433208 118.137167,60.8747639 118.273651,60.3092224 C118.410293,59.7423748 119.047376,59.1768333 119.047376,59.1768333 C119.047376,59.1768333 118.956229,57.8171826 119.001881,57.1380104 C119.047376,56.457532 119.365839,56.1558228 119.411333,55.7783597 C119.456828,55.4008967 119.274849,53.4743984 119.729954,53.1348123 C120.185058,52.7952261 121.049614,52.8331031 121.504719,52.6071477 C121.959823,52.3798862 122.551411,51.9645462 123.142999,52.0024231 C123.734588,52.0403 124.235187,52.3798862 124.235187,52.3798862 C124.235187,52.3798862 126.465213,52.3798862 126.601697,53.0969354 C126.738181,53.8152906 126.146593,54.0791229 126.146593,54.0791229 C126.146593,54.0791229 126.465213,55.0991874 125.0999,56.042192 L125.0999,56.042192 Z" id="Shape" stroke="#2B2B2B" stroke-width="0.621" fill="#8A9396"></path>
        <path d="M122.868296,53.0925518 C122.963513,53.2020087 122.82013,53.3650429 122.548027,53.4566975 C122.275925,53.5483521 121.978162,53.5339191 121.882941,53.4244576 C121.787724,53.3150007 121.931107,53.1519665 122.203209,53.0603119 C122.475312,52.9686573 122.773075,52.9830903 122.868296,53.0925518 L122.868296,53.0925518" id="Shape" stroke="#2B2B2B" stroke-width="0.620998018" fill="#CECFCF"></path>
        <path id="Shape" fill="#000000"></path>
        <path id="Shape" stroke="#2B2B2B" stroke-width="0.5"></path>
        <path d="M126.078438,54 C126.078438,54 127.156772,55.1833271 127.017612,56.6553023" id="Shape" stroke="#2B2B2B" stroke-width="0.5"></path>
        <path d="M126.078438,53 C126.113228,53 126.982821,53.6347649 126.948031,54.0670841" id="Shape" stroke="#2B2B2B" stroke-width="0.5"></path>
        <path d="M126.078438,53 C126.078438,53 126.669868,53.3461166 126.808871,53.6922333" id="Shape" stroke="#2B2B2B" stroke-width="0.5"></path>
        <path d="M125.834696,53 C125.834696,53 123.712818,55.8577479 123.991138,57.6471056" id="Shape" stroke="#000000" stroke-width="0.621"></path>
        <path d="M126.24911,53 C126.24911,53 123.43143,54.3857726 122.909737,58.9166353" id="Shape" stroke="#2B2B2B" stroke-width="0.5"></path>
        <path d="M126.135328,54 L125.022204,54.6922333" id="Shape" stroke="#000000" stroke-width="0.621"></path>
        <path d="M121.853503,59.1765493 C121.853503,59.1765493 123.418741,53.779742 126.20163,53" id="Shape" stroke="#2B2B2B" stroke-width="0.5"></path>
        <path d="M127.060649,60.5022609 C127.060649,60.5022609 128.556936,58.944083 128.904836,59.0015514 C129.252737,59.0590199 129.147265,62.6090011 129.147265,62.6090011 C129.147265,62.6090011 128.034298,63.3012343 127.791869,63.2725001 C127.547709,63.2437659 129.043367,64.946921 129.008734,65.5816858 C128.974101,66.2164507 128.939469,66.2164507 128.939469,66.2164507 C128.939469,66.2164507 128.939469,65.8415998 128.591568,65.2355692 C128.243668,64.6295386 128.451464,63.9359992 126.191055,62.4065555 C125.634414,61.4544082 127.304179,62.9838519 127.651765,62.7526721 C127.999665,62.5227984 127.025859,60.5309952 127.060649,60.5022609 L127.060649,60.5022609 Z" id="Shape" stroke="#2B2B2B" stroke-width="0.621" fill="#2B2B2B"></path>
        <path d="M124.853415,52 C124.853415,52 124.224675,52.142365 124.13888,52.3552593 C124.053086,52.5694598 123.681572,52.7823542 123.48149,52.7105187 C123.281408,52.6399893 122.909737,52.3787691 122.909737,52.3787691" id="Shape" stroke="#2B2B2B" stroke-width="0.621"></path>
        <path d="M121.493557,54 C121.493557,54 120.55029,54.7823542 121.007756,54.8776995 C121.465064,54.9717388 121.951023,54.2612201 121.951023,54.2612201 C121.951023,54.2612201 121.951023,55.4706692 122.351187,55.2799785 C122.751352,55.0905939 123.923194,54.4035851 123.923194,54.4035851 C123.923194,54.4035851 124.323358,54.3787691 124.409153,54.4035851 C124.494947,54.4270949 125.495358,55.1376135 126.152748,54.8776995 C125.781235,55.6835636 125.35242,55.7789089 125.35242,55.7789089 C125.35242,55.7789089 124.666379,56.5142435 123.780413,56.3470626 C122.89429,56.1811879 122.665557,55.8729481 122.665557,55.8729481 C122.665557,55.8729481 121.922372,55.9212739 121.69364,55.6365439 C121.465064,55.351814 121.37927,55.1859393 121.37927,55.1859393 C121.37927,55.1859393 120.950612,55.5411986 120.836167,55.3753238 C120.721879,55.2094491 120.836167,54.2364042 121.493557,54 L121.493557,54 Z" id="Shape" stroke="#2B2B2B" stroke-width="0.77625" fill="#2B2B2B"></path>
        <path d="M126.724263,53.1270695 C126.724263,53.1270695 124.980667,52.6999747 124.380421,53.4117995 C123.780174,54.1223181 123.923112,54.5259032 124.237482,54.5964326" id="Shape" stroke="#2B2B2B" stroke-width="0.621"></path>
        <path d="M126.735859,53.3088275 C126.735859,53.4793911 126.58869,53.6176549 126.407148,53.6176549 C126.225607,53.6176549 126.078438,53.4793911 126.078438,53.3088275 C126.078438,53.1382638 126.225607,53 126.407148,53 C126.58869,53 126.735859,53.1382638 126.735859,53.3088275 L126.735859,53.3088275 Z" id="Shape" fill="#000000"></path>
        <path d="M121.145177,56.0940613 C121.145177,56.0940613 121.856248,57.0018012 122.70396,57.2512664 C123.551673,57.5007316 122.115993,57.7162382 121.26828,57.2408176 C120.653079,56.5485843 120.817112,56.0496539 120.817112,56.0496539 C120.817112,56.0496539 120.981144,55.9125134 121.145177,56.0940613 L121.145177,56.0940613 Z" id="Shape" stroke="#2B2B2B" stroke-width="0.621" fill="#2B2B2B"></path>
        <path d="M127.763065,61.9609299 C127.763065,61.9609299 125.766809,59.6582747 125.192537,59.532889 C124.618265,59.4088095 125.63001,59.3069336 126.245369,59.7941091 C126.86057,60.2812846 126.081336,59 126.081336,59 L127.763065,61.9609299 L127.763065,61.9609299 Z" id="Shape" stroke="#2B2B2B" stroke-width="0.621" fill="#2B2B2B"></path>
        <path d="M121.072287,75.0115096 C121.837825,74.8417165 125.17405,76.5997278 125.92605,77.0424959 C126.67805,77.4839579 128.250844,77.2005341 128.250844,77.2005341 C128.250844,77.2005341 127.525133,77.56363 127.074594,77.6550571 C126.623425,77.745178 128.414562,77.745178 128.414562,77.745178 C128.414562,77.745178 124.148609,78.7208351 119.814335,76.8269893 C119.417791,75.3524018 120.744064,75.0232645 121.072287,75.0115096 L121.072287,75.0115096 Z" id="Shape" stroke="#2B2B2B" stroke-width="0.77625" fill="#2B2B2B"></path>
        <path d="M125.818224,62.9396538 C125.818224,62.9396538 125.257648,62.8495328 124.970512,62.5765578 C124.683376,62.3048889 124.273137,61.6348594 123.849359,61.3514355 C123.425424,61.0680117 121.306222,60.1041096 120.540526,60.1720268 C119.77483,60.239944 119.542319,60.1041096 119.446607,60.0244374 C119.350895,59.9447653 119.036525,60.058396 119.091151,60.3875334 C119.145933,60.7166707 118.503183,61.4428626 118.735694,61.7824487 C118.968047,62.1233409 120.061966,63.5065014 120.280781,63.5522149 C120.499439,63.5979284 120.362798,64.3580789 120.362798,64.3580789 C120.362798,64.3580789 121.333456,65.1743917 121.579663,65.2201053 C121.825712,65.2658188 122.071761,65.4134081 122.044527,65.6054049 C122.017136,65.7987078 120.977999,66.854037 120.977999,66.854037 C120.977999,66.854037 119.856847,67.3412125 119.843151,67.6141875 C119.829455,67.8858564 120.116591,68.452704 121.005391,68.634252 C121.894032,68.8158 124.286832,68.6682106 124.409936,68.4984176 C124.532881,68.3286245 124.724305,67.3072539 124.642289,67.205378 C124.560273,67.1035022 123.972305,66.7965686 123.671473,66.8422821 C123.370799,66.8879956 123.097359,67.0917473 123.124593,67.1374608 C123.151984,67.1831743 122.700815,67.3751711 122.700815,67.1936231 C122.700815,67.0120752 123.589457,66.1957624 123.671473,66.2636796 C123.753647,66.3315968 125.011441,66.4334726 125.243952,66.9559129 C125.476306,67.477047 125.476306,67.8518978 126.132594,67.7957355 C126.788883,67.7382671 127.704758,67.2393367 127.786617,66.1957624 C127.868476,65.152188 127.048785,64.4481999 126.843665,64.346324 C126.638545,64.2444482 125.954866,63.9035559 125.900241,63.7455178 C125.845458,63.5861735 125.708817,63.0650394 125.818224,62.9396538 L125.818224,62.9396538 Z" id="Shape" stroke="#2B2B2B" stroke-width="0.621" fill="#2B2B2B"></path>
        <path d="M113.991445,67.4429922 C113.991445,67.4429922 116.110804,66.9884692 116.657685,67.0002241 C117.204566,67.0106729 119.269143,67.8047821 119.870806,68.2932636 C120.472312,68.7804391 121.702872,69.9376442 122.509655,69.8357684 C123.316281,69.7338925 123.548792,69.5980581 123.548792,69.5980581 L123.234264,70.0969885 C123.234264,70.0969885 122.577976,70.2445778 122.249911,70.1766606 C121.921688,70.1087434 121.279095,69.9376442 120.636502,69.4165101 C119.99391,68.8940699 118.011349,67.4873996 116.32962,67.5892755 C114.647733,67.6924574 113.677075,69.065169 113.677075,69.065169 C113.677075,69.065169 113.690771,68.3951395 113.759091,68.2475501 C113.827412,68.0999608 113.403635,68.5649326 113.403635,68.5649326 L113.991445,67.4429922 L113.991445,67.4429922 Z" id="Shape" stroke="#2B2B2B" stroke-width="0.621" fill="#2B2B2B"></path>
        <path d="M122.129487,68.8737812 C122.143183,68.88423 122.66283,68.9978608 123.537776,68.9978608 C124.41288,68.9978608 124.877744,68.6804784 124.877744,68.6804784 L124.823119,68.3970546 L124.95976,68 C124.95976,68 125.629744,68.5668476 125.616049,68.6804784 C125.602353,68.7941091 125.342608,68.8398226 125.342608,68.8398226 L125.246896,68.5668476 L125.014543,68.805864 C125.014543,68.805864 123.742896,69.6443805 123.045678,69.520301 C122.348303,69.3949153 121.70571,69.0213706 121.883438,68.9299436 C122.061167,68.8398226 122.156879,68.8737812 122.129487,68.8737812 L122.129487,68.8737812 Z" id="Shape" stroke="#2B2B2B" stroke-width="0.621" fill="#2B2B2B"></path>
        <path d="M118.733716,70.2825023 C118.733716,70.2825023 117.96802,70.2707474 117.626259,70.4065819 C117.284498,70.5424163 117.161394,70.7135155 116.928883,70.6900057 C116.69653,70.667802 116.518802,70.4183368 116.587122,70.3164609 C116.682834,70.1571167 117.134003,69.953365 117.995411,70.0095273 C118.856819,70.0669957 118.733716,70.2825023 118.733716,70.2825023 L118.733716,70.2825023 Z" id="Shape" stroke="#2B2B2B" stroke-width="0.621" fill="#2B2B2B"></path>
        <path d="M121.37649,71.631759 C121.37649,71.5978004 121.321708,70.7018155 120.89793,70.3387195 C120.473996,69.9756236 119.954506,69.9756236 119.721995,70.020031 C119.489642,70.0657445 120.583403,70.4627991 120.692811,70.7240192 C120.802218,70.9852393 121.157675,71.7114312 121.061963,71.8929791 C120.966251,72.073221 120.788523,71.3822938 120.118539,71.188991 C119.448555,70.9956881 118.518826,71.09887 118.71025,71.3483352 C118.901674,71.5978004 119.653675,71.3705389 120.036522,71.9034279 C120.41937,72.4363169 120.706506,73.0044707 120.706506,73.0044707 L120.82961,72.6178649 L121.171371,72.5394989 L121.2123,71.8015521 L121.37649,71.631759 L121.37649,71.631759 Z" id="Shape" stroke="#2B2B2B" stroke-width="0.621" fill="#2B2B2B"></path>
        <path d="M121.41102,74.6487577 L120.713645,73.4915526 C120.713645,73.4915526 120.494829,72.7549119 119.907019,72.5498541 C119.319052,72.3461025 118.53966,72.3800611 118.525964,72.6295263 C118.512269,72.8789915 119.783916,73.1963739 119.865932,73.3335145 C119.947949,73.4693489 119.907019,73.6966104 119.797612,73.7070592 C119.688204,73.7188141 119.127628,73.5372661 118.840492,73.5934285 C118.553356,73.6508969 118.389323,73.9565244 117.965388,73.8664035 C117.54161,73.7749764 117.185996,72.6530361 117.350186,72.5394053 C117.514219,72.4257746 117.035659,72.743157 116.939947,72.4479783 C116.844235,72.1527996 117.076746,71.2346109 116.912556,71.1209802 C116.748523,71.0073494 115.955593,70.6102949 115.941898,70.5306228 C115.928202,70.4522567 115.982827,66.0167394 120.4539,69.6921062 C118.53966,67.8087093 117.78766,68.012461 117.432203,68.0020122 C117.172458,68.0020122 115.435946,68.1260917 114.998473,69.9637751 C114.560843,71.8014586 114.041353,70.6560084 114.041353,70.6560084 C114.041353,70.6560084 113.945641,71.4501175 114.410506,71.677379 C114.87537,71.9033344 114.19169,72.5616091 114.19169,72.5616091 C114.19169,72.5616091 113.357705,70.871515 113.480761,70.1335682 C113.316681,70.7239256 113.330361,72.1867582 114.383114,73.7867313 C115.613675,74.8642643 116.775914,75.8634312 119.865932,76.9853715 C121.493036,74.9217327 121.41102,74.6722675 121.41102,74.6487577 L121.41102,74.6487577 Z" id="Shape" stroke="#2B2B2B" stroke-width="0.77625" fill="#2B2B2B"></path>
        <path d="M117.877677,74.5477333 C117.877677,74.5477333 118.780014,74.6378542 119.026063,75.02446 C119.27227,75.4097596 119.381677,76.000117 119.381677,76.000117 C119.532014,75.7506518 119.600335,75.5351453 119.901167,75.3535973 C120.201998,75.1720493 120.420814,75.1485395 120.407118,75.0127051 C120.393422,74.8768706 119.449998,74.0488029 118.971438,74.0030894 C118.492878,73.9573758 117.658861,74.4341025 117.658861,74.4341025 C117.658861,74.4341025 117.508524,74.6156505 117.877677,74.5477333 L117.877677,74.5477333 Z" id="Shape" stroke="#2B2B2B" stroke-width="0.77625" fill="#8A9396"></path>
        <path d="M120.79727,77 C120.79727,77 123.135917,77.88423 126.987695,77.9416985" id="Shape" stroke="#8A9396" stroke-width="0.621"></path>
        <path d="M127.788188,68 C127.788188,68 127.588263,69.6287073 126.078438,72.8417146" id="Shape" stroke="#2B2B2B" stroke-width="0.621"></path>
        <path d="M127.789447,69 C127.789447,69 127.336232,70.16896 126.078438,71.0453534" id="Shape" stroke="#2B2B2B" stroke-width="0.621"></path>
    </g>
</svg>