<?xml version="1.0" ?><svg height="120px" version="1.1" viewBox="0 0 180 120" width="180px" xmlns="http://www.w3.org/2000/svg" xmlns:sketch="http://www.bohemiancoding.com/sketch/ns" xmlns:xlink="http://www.w3.org/1999/xlink"><title/><defs/><g fill="none" fill-rule="evenodd" id="Asia-Pacific" stroke="none" stroke-width="1"><g id="Australia" transform="translate(-1000.000000, -1.000000)"><g transform="translate(1000.000000, 0.000000)"><rect d="M0,1 L0,121 L180,121 L180,1 L0,1 Z M0,1" fill="#346DA6" height="120" id="rect962-copy" width="180" x="0" y="1"/><path d="M21.4376947,22 L0,7.70820397 L0,1 L10.062306,1 L36,18.291796 L36,18.291796 L36,1 L54,1 L54,18.291796 L79.937694,1 L90,1 L90,7.70820397 L68.5623053,22 L90,22 L90,40 L68.562306,40 L90,54.291796 L90,61 L79.9376964,61 L54,43.7082029 L54,62 L36,62 L36,43.7082029 L10.0623036,61 L0,61 L0,54.291796 L21.437694,40 L0,40 L0,22 L21.4376947,22 Z M21.4376947,22" fill="#FFFFFF" id="White_Diagonal"/><path d="M59,40 L65,40 L90,57 L90,61 L59,40 Z M6,61 L36,40 L30,40 L0,61 L6,61 Z M84,1 L54,22 L60,22 L90,1 L84,1 Z M31,22 L25,22 L0,5 L0,1 L31,22 Z M51,0.999999799 L51,24.9999998 L90,25 L90,37 L51,36.9999998 L51,60.9999998 L39,61 L39,37 L0,37 L0,25 L39,24.9999998 L39,1 L51,0.999999799 Z M51,0.999999799" fill="#CA4638" id="Red_Diagonals-copy"/><path d="M128.977964,10.6772361 L135.019377,8.56512078 L131.444444,13.532403 L137,16.5758744 L130.564168,17.092738 L131.450419,23 L127,18.6772361 L122.549581,23 L123.435832,17.092738 L117,16.5758744 L122.555556,13.532403 L118.980623,8.56512078 L125.022036,10.6772361 L127,5 L128.977964,10.6772361 Z M128.977964,10.6772361" fill="#FFFFFF" id="Star7"/><path d="M153,43 L154.977964,48.6772361 L161.019377,46.5651208 L157.444444,51.532403 L163,54.5758744 L156.564168,55.092738 L157.450419,61 L153,56.6772361 L148.549581,61 L149.435832,55.092738 L143,54.5758744 L148.555556,51.532403 L144.980623,46.5651208 L151.022036,48.6772361 L153,43 L153,43 Z M153,43" fill="#FFFFFF" id="Star7"/><path d="M106,33 L107.977964,38.6772361 L114.019377,36.5651208 L110.444444,41.532403 L116,44.5758744 L109.564168,45.092738 L110.450419,51 L106,46.6772361 L101.549581,51 L102.435832,45.092738 L96,44.5758744 L101.555556,41.532403 L97.9806227,36.5651208 L104.022036,38.6772361 L106,33 L106,33 Z M106,33" fill="#FFFFFF" id="Star7"/><path d="M127,93 L128.977964,98.6772361 L135.019377,96.5651208 L131.444444,101.532403 L137,104.575874 L130.564168,105.092738 L131.450419,111 L127,106.677236 L122.549581,111 L123.435832,105.092738 L117,104.575874 L122.555556,101.532403 L118.980623,96.5651208 L125.022036,98.6772361 L127,93 L127,93 Z M127,93" fill="#FFFFFF" id="Star7"/><path d="M53,73 L57.1537242,84.9852761 L69.8406924,80.5263661 L62.3333332,91.0128508 L74,97.437957 L60.4847521,98.5291135 L62.3458794,111 L53,101.874165 L43.6541206,111 L45.5152479,98.5291135 L32,97.437957 L43.6666668,91.0128508 L36.1593076,80.5263661 L48.8462758,84.9852761 L53,73 L53,73 Z M53,73" fill="#FFFFFF" id="Star7"/><path d="M133.5,68 L134.7347,71.4838398 L139,71.4838398 L135.632503,73.6130409 L136.86735,77 L133.5,74.8709197 L130.13265,76.9031193 L131.36735,73.6130409 L128,71.4838398 L132.153001,71.4838398 L133.5,68 L133.5,68 Z M133.5,68" fill="#FFFFFF" id="polygon5131"/></g></g></g></svg>