<?xml version="1.0" encoding="UTF-8" standalone="no"?>
<svg width="180px" height="120px" viewBox="0 0 180 120" version="1.1" xmlns="http://www.w3.org/2000/svg" xmlns:xlink="http://www.w3.org/1999/xlink">
    <!-- Generator: Sketch 40.3 (33839) - http://www.bohemiancoding.com/sketch -->
    <title>icon-flag-tk</title>
    <desc>Created with Sketch.</desc>
    <defs></defs>
    <g id="Page-1" stroke="none" stroke-width="1" fill="none" fill-rule="evenodd">
        <g id="Group">
            <rect id="Rectangle-path" fill="#00247D" x="0" y="0" width="180" height="120"></rect>
            <path d="M32.937609,89.72654 C31.144173,89.711556 49.799952,79.783404 65.414523,67.066563 C85.878891,50.399945 129.9541,23.715633 142.91161,19.37954 C144.26594,18.926325 140.134,21.686848 139.59761,22.581081 C125.76346,38.955124 136.80511,69.85346 154.09487,85.38591 C159.29387,89.36223 159.02761,89.570992 168.66561,89.96054 L168.66561,90.86054 L32.937609,89.72654 L32.937609,89.72654 Z" id="Shape" fill="#FED100"></path>
            <path d="M31.812503,91.53246 C31.812503,91.53246 30.49616,92.47275 30.500008,93.17307 C30.504308,93.95032 31.976565,94.97775 31.976565,94.97775 L165.85107,96.45431 L168.312,94.81369 L164.8667,92.68089 L31.812503,91.53246 L31.812503,91.53246 Z" id="Shape" fill="#FED100"></path>
            <path d="M36.3009879,77.9096487 L37.5403549,81.7240281 L34.2956928,79.3666432 L31.0509879,81.7240593 L32.2903386,77.9097302 L29.0456336,75.5523141 L33.0562565,75.5523141 L34.2956235,71.7379347 L35.5349741,75.5522637 L39.54565,75.5522638 L36.3009879,77.9096487 L36.3009879,77.9096487 Z M15.2188611,44.7392032 L16.2811756,48.0086713 L13.5000367,45.9880556 L10.7188611,48.0086979 L11.7811616,44.7392731 L8.99998597,42.7186307 L12.4376627,42.7186307 L13.4999773,39.4491626 L14.5622778,42.7185875 L18,42.7185875 L15.2188611,44.7392032 L15.2188611,44.7392032 Z M53.5528432,39.2183777 L54.4381054,41.9429344 L52.1204896,40.259088 L49.8028432,41.9429566 L50.6880937,39.2184359 L48.3704473,37.5345672 L51.2351779,37.5345672 L52.1204401,34.8100105 L53.0056905,37.5345313 L55.870459,37.5345312 L53.5528432,39.2183777 L53.5528432,39.2183777 Z M35.3579278,21.7959575 L38.79565,21.7959575 L36.0145111,23.8165732 L37.0768256,27.0860413 L34.2956867,25.0654256 L31.5145111,27.0860679 L32.5768116,23.8166431 L29.795636,21.7960007 L33.2333127,21.7960007 L34.2956273,18.5265326 L35.3579278,21.7959575 L35.3579278,21.7959575 Z" id="Combined-Shape" fill="#FFFFFF"></path>
        </g>
    </g>
</svg>