<?xml version="1.0" ?><svg height="120px" version="1.1" viewBox="0 0 180 120" width="180px" xmlns="http://www.w3.org/2000/svg" xmlns:sketch="http://www.bohemiancoding.com/sketch/ns" xmlns:xlink="http://www.w3.org/1999/xlink"><title/><defs/><g fill="none" fill-rule="evenodd" id="Africa,-Middle-East-and-India" stroke="none" stroke-width="1"><g id="Africa,-Middle-Eest-and-India" transform="translate(-1000.000000, -801.000000)"><g id="Kuwait" transform="translate(1000.000000, 801.000000)"><rect d="M-2.84217094e-14,0 L-2.84217094e-14,120 L180,120 L180,0 L-2.84217094e-14,0 Z M-2.84217094e-14,0" fill="#FFFFFF" height="120" id="Rectangle-3-copy-2" width="180" x="-2.84225816e-14" y="0"/><rect d="M0,80 L0,120 L180,120 L180,80 L0,80 Z M0,80" fill="#CA4638" height="40" id="Rectangle-3-copy-3" width="180" x="0" y="80"/><rect d="M0,0 L0,40 L180,40 L180,0 L0,0 Z M0,0" fill="#479951" height="40" id="Rectangle-3-copy-3" width="180" x="0" y="0"/><polygon d="M0,0 L50,40 L50,80 L0,120 L0,0 Z M0,0" fill="#262626" id="Triangle-15-copy" points="0 0 50 40 50 80 0 120 "/></g></g></g></svg>