<?xml version="1.0" ?><svg height="120px" version="1.1" viewBox="0 0 180 120" width="180px" xmlns="http://www.w3.org/2000/svg" xmlns:sketch="http://www.bohemiancoding.com/sketch/ns" xmlns:xlink="http://www.w3.org/1999/xlink"><title/><defs/><g fill="none" fill-rule="evenodd" id="Asia-Pacific" stroke="none" stroke-width="1"><g id="MM" transform="translate(-400.000000, -1001.000000)"><g transform="translate(400.000000, 1001.000000)"><g id="bg"><rect d="M0.00552366097,0 L0.00552366097,120 L180,120 L180,0 L0.00552366097,0 Z M0.00552366097,0" fill="#CA4638" height="120" id="Rectangle-3-copy-2" width="179.994476" x="0.00552366097" y="0"/><rect d="M0.00552366097,0 L0.00552366097,120 L180,120 L180,0 L0.00552366097,0 Z M0.00552366097,0" fill="#CA4638" height="120" id="Rectangle-3-copy-3" width="179.994476" x="0.00552366097" y="0"/><rect d="M0.00552383048,0 L0.00552383048,80 L180.005524,80 L180.005524,0 L0.00552383048,0 Z M0.00552383048,0" fill="#57BB63" height="80" id="Rectangle-3-copy-3" width="180" x="0.00552383048" y="0"/><rect d="M0.00276191524,-3.55271368e-15 L0.00276191524,40 L179.997238,40 L179.997238,-3.55271368e-15 L0.00276191524,-3.55271368e-15 Z M0.00276191524,-3.55271368e-15" fill="#E5B731" height="40" id="Rectangle-3" width="179.994476" x="0.00276191524" y="-4.73709694e-15"/></g><polygon d="M90.4999963,85.5573299 L68.6358716,96.7454591 L72.8115469,73.0486234 L55.1230959,56.2664317 L79.567937,52.8091068 L90.4999976,31.2490164 L101.432065,52.8091121 L125.876904,56.2664489 L108.188446,73.0486279 L112.364122,96.7454596 L90.4999963,85.5573299 Z M90.4999963,85.5573299" fill="#FFFFFF" id="Star-67-copy" points="90.4999963 85.5573299 68.6358716 96.7454591 72.8115469 73.0486234 55.1230959 56.2664317 79.567937 52.8091068 90.4999976 31.2490164 101.432065 52.8091121 125.876904 56.2664489 108.188446 73.0486279 112.364122 96.7454596 "/></g></g></g></svg>