<?xml version="1.0" ?><svg height="120px" version="1.1" viewBox="0 0 180 120" width="180px" xmlns="http://www.w3.org/2000/svg" xmlns:sketch="http://www.bohemiancoding.com/sketch/ns" xmlns:xlink="http://www.w3.org/1999/xlink"><title/><defs/><g fill="none" fill-rule="evenodd" id="Asia-Pacific" stroke="none" stroke-width="1"><g id="Solomon-Islands" transform="translate(-400.000000, -1.000000)"><g transform="translate(400.000000, 1.000000)"><rect d="M0,0 L0,120 L180,120 L180,0 L0,0 Z M0,0" fill="#E5B731" height="120" id="Rectangle-122" width="180" x="0" y="0"/><path d="M0,113 L174,0 L0,0 L0,113 Z M0,113" fill="#4086CD" id="Oval-26"/><path d="M5,120 L180,120 L180,5 L5,120 Z M5,120" fill="#57BB63" id="Oval-26-copy-2"/><path d="M20.9291357,23.2894404 L14.4467976,26.64525 L15.6848137,19.5375318 L10.4404913,14.5038179 L17.6879676,13.4668148 L20.9291361,7 L24.1703065,13.4668164 L31.4177823,14.5038231 L26.1734577,19.5375331 L27.411474,26.6452502 L20.9291357,23.2894404 Z M20.9291357,56.6009515 L14.4467976,59.9567612 L15.6848137,52.8490429 L10.4404913,47.815329 L17.6879676,46.778326 L20.9291361,40.3115112 L24.1703065,46.7783276 L31.4177823,47.8153342 L26.1734577,52.8490443 L27.411474,59.9567613 L20.9291357,56.6009515 Z M58.5113534,23.2894404 L52.0290153,26.64525 L53.2670314,19.5375318 L48.022709,14.5038179 L55.2701853,13.4668148 L58.5113538,7 L61.7525243,13.4668164 L69,14.5038231 L63.7556754,19.5375331 L64.9936918,26.6452502 L58.5113534,23.2894404 Z M58.5113534,56.6009515 L52.0290153,59.9567612 L53.2670314,52.8490429 L48.022709,47.815329 L55.2701853,46.778326 L58.5113538,40.3115112 L61.7525243,46.7783276 L69,47.8153342 L63.7556754,52.8490443 L64.9936918,59.9567613 L58.5113534,56.6009515 Z M40.0964864,41.2264079 L33.6141483,44.5822176 L34.8521644,37.4744993 L29.607842,32.4407854 L36.8553182,31.4037824 L40.0964867,24.9369675 L43.3376572,31.403784 L50.5851329,32.4407906 L45.3408084,37.4745007 L46.5788247,44.5822177 L40.0964864,41.2264079 Z M40.0964864,41.2264079" fill="#FFFFFF" id="Star-22"/></g></g></g></svg>