<?xml version="1.0" ?><svg height="120px" version="1.1" viewBox="0 0 180 120" width="180px" xmlns="http://www.w3.org/2000/svg" xmlns:sketch="http://www.bohemiancoding.com/sketch/ns" xmlns:xlink="http://www.w3.org/1999/xlink"><title/><defs/><g fill="none" fill-rule="evenodd" id="Europe" stroke="none" stroke-width="1"><g id="Moldova"><rect d="M0,0 L0,120 L180,120 L180,0 L0,0 Z M0,0" fill="#E5B731" height="120" id="Oval-1-copy-5" width="180" x="0" y="0"/><rect d="M120,0 L120,120 L180,120 L180,0 L120,0 Z M120,0" fill="#CA4738" height="120" id="Oval-1-copy-4" width="60" x="120" y="0"/><rect d="M0,0 L0,120 L60,120 L60,0 L0,0 Z M0,0" fill="#346DA6" height="120" id="Oval-1-copy-5" width="60" x="0" y="0"/><g id="Layer_x0020_1" transform="translate(64.000000, 27.000000)"><path d="M19.9784163,17.2760033 L18.3814037,16.9098845 L15.0357496,15.1362909 L12.9216715,15.0200975 L12.7765877,10.9032339 L8.72340469,7.62910118 L4.59037104,12.1119741 L4,13.4306595 L4.1895907,54.2145427 L6.86469585,50.9622237 L7.42583197,51.1014365 L10.1883147,48.0979468 L12.5355086,42.1501601 L13.2282019,39.6815985 L16.3916831,43.4392491 L15.1961054,45.6589815 L16.2825976,45.5778654 L16.377502,46.5085087 L17.3756349,46.0831971 L17.6450762,47.3657091 L19.8464228,45.1240534 L22.9084544,46.6400484 L17.0985575,57.04155 L15.0292045,58.5794683 L18.7599306,59.9858469 L22.5877428,55.5036317 L22.0335882,58.4479286 L20.8958258,61.3045324 L25.5537792,64 L30.6131674,60.9965102 L28.1271075,55.752461 L28.9365224,55.378669 L32.2167251,60.1546562 L35.7892771,58.3744856 L31.1455049,52.9177805 L28.0911093,46.3550458 L31.3124058,45.2851896 L33.5072073,47.4018825 L33.8344639,46.0251004 L34.9940434,46.5885287 L34.8478688,45.4397487 L36.0139934,45.695155 L34.5926086,43.431576 L38.2011588,40.393009 L40.4821379,47.5553455 L43.8430639,51.4160356 L44.5564835,51.3283425 L47,54.3603325 L46.977092,12.33888 L42.4642225,7.5704564 L38.0844373,11.1594074 L38.2666102,15.0266745 L36.2987067,15.1001175 L33.3686686,16.6095355 L31.7280218,17.1510406 L30.955696,17.3055998 L29.9499272,16.2061471 L28.6005388,13.4964294 L28.5132704,10.8226658 L29.3445023,9.07954558 L29.1906917,7.43135317 L29.9357461,7.44604177 L29.4612239,6.33244862 L30.117919,6.06914999 L29.1339672,5.19726103 L29.4764959,4.79453032 L25.75886,3.19040371 L22.9226355,3 L22.1568549,3.33674163 L21.785964,4.03269624 L22.5364726,6.16429704 L21.7346938,6.96997768 L22.5288366,8.53003849 L22.5582897,11.9508379 L21.9245026,14.8370381 L20.6482016,17.0195009 L19.9784163,17.2760033 Z M19.9784163,17.2760033" fill="#B07F55" id="path2778"/><path d="M19.4965621,0 C19.0682292,0 18.6942109,0.103502236 18.4760261,0.264313207 C18.8227532,0.359949683 19.074826,0.66271748 19.074826,1.0309103 L19.074826,1.96505516 L18.6938202,1.96505516 L18.0885687,1.96505516 C17.7022945,1.96505516 17.3823229,1.72970605 17.2789622,1.40458939 C17.1091538,1.61121754 17,1.96542514 17,2.37094359 C17,2.77658888 17.1091594,3.13092334 17.2789622,3.33729779 C17.3800804,3.00880903 17.6996491,2.77021467 18.0885687,2.77021467 L18.6938202,2.77021467 L19.074826,2.77021467 L19.074826,3.13116647 L19.074826,6.04300921 L19.074826,7.26055821 C19.074826,7.61351846 18.8417399,7.90641521 18.5170355,8.0142906 C18.987561,8.07496932 19.3924201,8.6730123 19.5034268,9 C19.6146957,8.67363598 20.0195604,8.0749672 20.4899519,8.0142906 C20.1616869,7.90828624 19.9250401,7.61588632 19.9250401,7.26055821 L19.9250401,5.16045004 L19.9250401,3.13106076 L19.9250401,2.77010896 L20.3061798,2.77010896 L20.9115652,2.77010896 C21.2979734,2.77010896 21.6178111,3.00545808 21.7211717,3.33081787 C21.8908462,3.12418972 22,2.76972841 22,2.36433682 C22,1.95869152 21.8909723,1.60448391 21.7211717,1.39798261 C21.6200535,1.72634452 21.3003509,1.96481203 20.9115652,1.96481203 L20.3061798,1.96481203 L19.9250401,1.96481203 L19.9250401,1.03079402 C19.9250401,0.664852789 20.1734182,0.361956028 20.5169864,0.264070078 C20.2990584,0.103509635 19.9247833,1.05708369e-05 19.4965844,1.05708369e-05 L19.4965844,1.05708369e-05 L19.4965621,0 L19.4965621,0 Z M19.4965621,0" fill="#000000" id="rect2244"/><path d="M18.9968963,0.000120364955 C18.8026897,0.000120364955 18.631558,0.042258825 18.4873033,0.0963987809 C18.6799054,0.29081624 18.8073864,0.572721555 18.8073864,0.894628093 L18.8073864,1.89234417 C18.8073864,1.90661274 18.803826,1.92021406 18.8014142,1.93368215 L18.8014142,2.09183545 L18.6650845,2.09183545 C18.6534848,2.09463576 18.6416556,2.09863622 18.629596,2.09876956 L18.5525318,2.09876956 L18.29757,2.09876956 L17.7702988,2.09876956 C17.4962683,2.09876956 17.2564661,1.9531484 17.0888934,1.73406183 C17.0407715,1.90327953 17,2.09650023 17,2.32586089 C17,2.55134902 17.0362927,2.75004547 17.0829219,2.91753577 C17.2503682,2.69391053 17.4930487,2.54615552 17.7702978,2.54615552 L18.297569,2.54615552 L18.4102403,2.54615552 L18.6294861,2.54615552 L18.8073857,2.54615552 C18.8062372,2.56682451 18.8014135,2.58682738 18.8014135,2.60789605 L18.8014135,2.71110778 C18.8038254,2.72457588 18.8072708,2.7381772 18.8073857,2.75231254 L18.8073857,3.13782814 L18.8073857,6.24783007 L18.8073857,7.54823674 C18.8073857,7.85960951 18.6691112,8.10457325 18.4873026,8.2981891 C18.6173117,8.39126674 18.7292927,8.5084806 18.8250735,8.64235994 C18.910407,8.76130233 18.9442891,8.87771571 19.0028661,9 C19.061554,8.87798667 19.0953204,8.76130233 19.1806587,8.64235994 C19.2749499,8.51087412 19.3853186,8.39780265 19.5125759,8.30512129 C19.3291628,8.11203608 19.1924928,7.86094175 19.1924928,7.54823674 L19.1924928,5.30521023 L19.1924928,3.13771523 L19.1924928,3.08264158 L19.1924928,2.75233512 L19.1924928,2.55271287 L19.334793,2.55271287 C19.3463927,2.5500459 19.3581071,2.54604544 19.3702815,2.54604544 L19.7021986,2.54604544 L20.2295865,2.54604544 C20.5035003,2.54604544 20.7433122,2.6916666 20.9109919,2.91061769 C20.958999,2.74153547 21,2.54843896 21,2.31894282 C21,2.09357888 20.9635926,1.89475824 20.9169633,1.72726794 C20.749517,1.95089318 20.5068365,2.09864819 20.2295874,2.09864819 L19.7021996,2.09864819 L19.3702825,2.09864819 C19.3581081,2.09864819 19.3462789,2.09451439 19.334794,2.09171408 L19.1984642,2.09171408 L19.1984642,1.93356078 C19.1960524,1.92022591 19.1926069,1.90649137 19.1924921,1.8922228 L19.1924921,0.894642206 C19.1924921,0.576472728 19.3180185,0.298168991 19.5066047,0.103345084 C19.3608622,0.0477385296 19.1945536,0.0001333487 18.9970116,0.0001333487 L18.9968968,0 L18.9968968,0.0001333487 L18.9968968,0.0001333487 L18.9968963,0.000120364955 L18.9968963,0.000120364955 Z M18.9968963,0.000120364955" fill="#F5D402" id="path2303"/><path d="M16.213366,45.1656913 L13.3189513,49.4791514 L11.915087,49.4374543 L10.46833,50.1013168 L10,51.6364301 L10.2127749,52.3408925 L11.7867466,54 L13.0633962,53.2944404 L14.0856166,52.2168983 L14.3400459,51.2622531 L18,46.6174104 L17.8300052,45.4553767 L17.0216856,45.9535479 L16.7233504,45 L16.213366,45.1656913 Z M16.213366,45.1656913" fill="#D10429" id="path2516"/><path d="M34,46.478618 L37.7133216,51.534187 L38.0815225,52.5202948 L39.7141315,54 L40.2032663,53.876057 L42,51.7798985 L41.5918478,50.3425948 L39.9171278,49.3151727 L38.6527197,49.4380285 L35.8356053,45.2054844 L35.3464705,45 L35.1434742,45.8219377 L34.3260899,45.5751389 L34,46.478618 Z M34,46.478618" fill="#D10429" id="path2750"/><rect d="M13,54 L13,56 L15,56 L15,54 L13,54 Z M13,54" fill="#000000" height="2" id="rect2290" transform="translate(14.000000, 55.000000) rotate(28.599335) translate(-14.000000, -55.000000) " width="2" x="13" y="54"/><path d="M3.71995523,31.0001173 L3,31.3441204 L11.1346277,50 L12,50 L3.71997596,31.0001282 L3.71997596,31 L3.71997596,31.0001282 L3.71997596,31.0001282 L3.71995523,31.0001173 L3.71995523,31.0001173 Z M13.5438066,53.0000732 L13,53.8572098 L13.3392254,55 L14,54.5357909 L13.5439122,53 L13.5437988,53 L13.5437988,53 L13.5438066,53.0000732 L13.5438066,53.0000732 Z M13.5438066,53.0000732" fill="#000000" id="rect2273"/><rect d="M13,54 L13,55 L14,55 L14,54 L13,54 Z M13,54" fill="#F5D402" height="1" id="rect2288" transform="translate(13.500000, 54.500000) rotate(28.599335) translate(-13.500000, -54.500000) " width="1" x="13" y="54"/><path d="M13,31 L13.0418871,41.4010732 L13.7914462,42.631996 L18.5412257,45.3061084 L24.6247795,48.1509328 L25.4162257,49 L30.6675485,46.0709428 L36.832672,43.0992076 L38,41.2730392 L38,31.042678 L13,31 Z M13,31" fill="#0B45BB" id="path2754"/><path d="M13.3590955,18.9802635 L13.2871993,30.8195249 L13.7124917,31.3078569 L17.2260335,31.7421524 L21.0274051,31.1653293 C21.0274051,31.1653293 23.2348159,31.5187594 24.7570608,31.7626693 C24.7585824,31.7705583 24.8028366,32 24.8028366,32 C24.8028366,32 25.3550597,31.9126945 25.5290351,31.8845575 C25.7000904,31.9120377 26.2487599,32 26.2487599,32 L26.2945357,31.7626693 C27.8166732,31.5187705 30.0241914,31.1653293 30.0241914,31.1653293 L33.825563,31.7421524 L37.3391048,31.3078569 L37.7643972,30.8195249 L37.6923732,18.9802635 L38,18.0508008 L33.7929183,18.0844606 L25.5292724,18.1728181 L17.2589702,18.0844606 L13.0518885,18.0508008 C12.8372477,17.7369061 13.3590955,18.9802635 13.3590955,18.9802635 Z M13.3590955,18.9802635" fill="#D10429" id="path2355"/><path d="M29.9582052,19.1182773 L30.4930342,21.008503 L31.3247433,23.4315293 L31.4437177,25.7362782 L30.4930342,27.3910548 L28.7695729,28.0996131 L27.8188894,28.3947536 L26.6891883,27.8044726 L25.4405128,28.5727222 L24.0739748,27.7458867 L22.9442737,28.5141363 L22.2304271,28.0410272 L20.9828635,27.8641639 L19.5562823,26.3862506 L19.2594022,23.7277752 L20.9828635,19 L18.8424357,20.7133625 L17,23.1949747 L17,26.4448365 L18.3076068,28.6313082 L20.6859834,30.1678075 L21.3397868,30.3457761 L20.2100857,32.4139705 L22.1714958,33.0042515 L23.1822225,34.0090557 L23.7170515,36.0175588 L23.598077,40.3319162 L23.0032049,41.3367204 L21.6955981,42.2232473 L21.6366669,43.0500829 L23.0632481,43.9366098 L24.3108117,44.9403087 L26.1543593,45 L27.7588462,43.8769185 L29.1253843,43.1086688 L28.7695729,41.9270014 L27.3429917,40.8050253 L27.0449997,37.3771948 L27.4608542,33.9504698 L29.5423507,32.6505251 L30.6120086,32.2956932 L29.4834195,30.1678075 L31.2068808,29.5775265 L33.1082478,27.9227499 L34,24.6131967 L33.465171,22.6046937 L32.1575643,20.9499171 L29.9582052,19.1182773 Z M29.9582052,19.1182773" fill="#F5D402" id="path2762"/><path d="M14,30.9078872 L15.9035971,30.1076569 L17.2309353,29 L18.1535971,30.0454807 L20,30.845711 L18.5,31.7691422 L17.1726619,33 L16.0190647,32.0777202 L14,30.9078872 Z M14,30.9078872" fill="#F5D402" id="path2756"/><path d="M33.7118705,30 L32.8464029,30.9841727 L31,31.7841727 L32.7309353,32.9536691 L33.8273381,34 L35.0392086,32.9536691 L37,31.9073381 L34.9809353,31.0463309 L33.7118705,30 Z M33.7118705,30" fill="#F5D402" id="path2758"/><path d="M25.0005197,20 L24.4444829,21.8921469 L22.8335354,21.0085945 L23.5558635,22.8382204 L22,23.5318504 L23.5558635,24.1617796 L22.8886194,25.9914055 L24.3893989,25.1078531 L25.0005197,27 L25.6116404,25.1078531 L27.1113806,25.8651837 L26.4441365,24.1617796 L28,23.5318504 L26.5002598,22.7745197 L27.1675039,20.9460735 L25.6116404,21.8296259 L25.0005197,20 Z M25.0005197,20" fill="#F5D402" id="path2760"/><path d="M21.9435028,34 L23,35.036729 L22.019774,36 L21,34.999307 L21.9435028,34 Z M21.9435028,34" fill="#F5D402" id="path2764"/><path d="M29.0190476,34 L28,35.0360481 L28.9102041,36 L30,35.070761 L29.0190476,34 Z M29.0190476,34" fill="#F5D402" id="path2766"/><path d="M30,36 L28.4371712,36.3373266 L28.0315605,37.1517444 L28,39.3995376 L28.6557569,40.6637243 L29.5300994,41 L29.4061952,38.0512821 L30,36 Z M30,36" fill="#F5D402" id="path2768"/><path d="M21,36 L21.5715983,38.5427533 L21.5715983,41 L22.3654189,40.4858914 L22.9049317,39.3710988 L23,37.4290295 L22.5876411,36.2575887 L21,36 Z M21,36" fill="#F5D402" id="path2770"/><path d="M35,38.736583 L33.4110712,38 L31.8764736,38.3151157 L31.0820092,39.2102413 L31,40.657804 L32.1235264,41.9212211 L32.3972322,42 L32.3695541,40.6312161 L33.5750897,39.0526834 L35,38.736583 Z M35,38.736583" fill="#F5D402" id="path2772"/><path d="M18.2352941,38.2925379 L18.0752301,37.5547669 L17.2458984,37 L16.5506202,37.3084596 L16.202481,38.1383081 L16.3905562,38.87723 L15.6682673,38.7851525 L15.080032,39.430846 L15,40.2917706 L15.4011605,40.8465375 L15.962385,41.0617687 L16.2835134,41.0306925 L16.0164066,41.7995396 L16.2294918,42.5683867 L16.8987595,43 L17.6470588,42.7847688 L18.0482193,41.9226933 L18.6894758,42.4153079 L19.4647859,42.2300019 L19.9729892,41.3380012 L19.6258503,40.5081527 L19.2517007,40.1686169 L19.7859144,39.8313831 L20,38.8162287 L19.2777111,37.8620756 L18.582433,37.9852292 L18.2352941,38.2925379 Z M18.2352941,38.2925379" fill="#F5D402" id="path2774"/><path d="M17,25.3154566 C17,29.9768519 21.1994539,31.0766007 21.1994539,31.0766007 L21.0234332,31.407879 L20.0013574,33.3417595 L22.6579062,34.2479317 C22.6579062,34.2479317 23.6605488,37.3160669 23.6605488,38.8324377 C23.6605488,40.0271609 23.5151897,41.2877891 22.9249072,41.8075957 C22.1323549,42.5055457 21.5964192,42.5571713 21.5964192,43.3764465 C21.5964192,44.0598397 22.1022809,44.1967869 22.9249072,44.6477261 C23.9789159,45.2253716 23.9298254,46 25.4965225,46 C27.0635722,46 27.0208384,45.2253938 28.0749753,44.6477261 C28.8975588,44.1967979 29.4033565,44.0598619 29.4033565,43.3764465 C29.4033565,42.5571602 28.8674635,42.5055235 28.0749753,41.8075957 C27.4846928,41.2877447 27.3393337,40.0270499 27.3393337,38.8324377 C27.3393337,37.3161778 27.2313239,35.2317365 28.3419763,34.2479317 C29.263104,33.4320516 30.9984182,33.3417595 30.9985251,33.3417595 L29.9761929,31.407879 L29.8005461,31.0766007 C32.4591549,29.818077 33.9664769,27.8918158 34,25.3154566 C33.9664761,22.2092547 29.7897558,19.8687484 29.6702079,19 C29.2587238,20.5031677 31.0766852,22.5795095 31.0766852,25.0383004 C31.0766852,28.2197168 28.8173474,28.3719419 28.8173474,28.3719419 C28.2886444,28.3719419 28.0745052,28.7640326 27.8666905,28.7640326 C27.4218954,28.7158076 27.2125637,28.1283373 26.7728112,28.1283373 C26.3598101,28.1283373 26.0427144,28.791027 25.4967789,28.791027 C24.9509183,28.791027 24.640254,28.1283373 24.2271567,28.1283373 C23.7876606,28.1283373 23.5782007,28.7158131 23.1333842,28.7640326 C22.9255589,28.7640326 22.7113022,28.3719419 22.1825992,28.3719419 C22.1825992,28.3719419 19.923475,28.2196724 19.923475,25.0383004 C19.923475,22.5795095 21.7414792,20.5030567 21.3297387,19 C21.2102121,19.8686929 17,21.674813 17,25.3154566 Z M34.4251035,33 C35.9689582,31.8485048 38,30.9444459 38,30.9444459 C38,30.9444459 36.0533067,30.4439318 34.4251035,29 C33.493777,30.2137847 31,30.8147013 31,30.8147013 C31.8895938,31.2627776 33.7135351,31.9947586 34.4251035,33 Z M17.575255,29 C15.9469729,30.4440027 14,30.9444459 14,30.9444459 C14,30.9444459 16.0311147,31.8484643 17.575255,33 C18.2866897,31.9949004 21,30.8148026 21,30.8148026 C19.1725755,30.0254119 18.5065678,30.2136936 17.575255,29 Z M25.9965878,19 L25.2378121,21.1542856 L23.1718188,20.1719305 L24.1540214,22.2380751 L22,23.0034234 L24.1540214,23.768905 L23.1718188,25.8281584 L25.2378121,24.8459367 L25.9965878,27 L26.7620545,24.8459367 L28.8280478,25.8281584 L27.8459786,23.768905 L30,23.0034234 L27.8459786,22.2380751 L28.8280478,20.1719305 L26.7620545,21.1542856 L25.9965878,19 L25.9965878,19 L25.9965878,19 L25.9965878,19 Z M19.716373,24.7061437 C19.716373,27.0936211 20.9663293,28.5019241 22.635291,28.5019241 C22.953672,28.5019241 23.3018113,28.9401685 23.6017183,28.9401685 C24.0907099,28.9401685 24.4160091,28.3873349 24.713744,28.3873349 C25.092152,28.3873349 25.3473021,28.9941331 26.0043193,28.9941331 C26.6614777,28.9941331 26.9231551,28.3873349 27.3017369,28.3873349 C27.5993414,28.3873349 27.9246407,28.9401685 28.413654,28.9401685 C28.7136913,28.9401685 29.0617003,28.5019241 29.3800813,28.5019241 C31.0490429,28.5019241 32.2991079,27.0936211 32.2991079,24.7061437 C32.2991079,22.7590791 30.6938985,20.3850984 30.8692986,20 C30.8692986,20 34,22.2875797 34,24.9824941 C34,29.3237845 30.8692985,29.5731882 29.6778813,30.3965507 L30.6508576,32.6280416 L28.4931651,33.5046632 C28.4931651,33.5046632 27.3876558,36.8223065 27.3876558,38.4600533 C27.3876558,40.3891961 27.4580787,41.2066313 28.1422997,41.7300156 C28.8637208,42.2821965 29.4064836,42.4011002 29.4064836,42.9638572 C29.4064836,43.4542409 28.8447689,43.6548107 28.1157996,43.9818622 C27.2866297,44.3541277 27.2040125,45 26.0043736,45 C24.8045936,45 24.7286774,44.3541277 23.899464,43.9818622 C23.1706034,43.6546779 22.6087801,43.4542409 22.6087801,42.9638572 C22.6087801,42.4010891 23.1513908,42.2821854 23.872964,41.7300156 C24.5571872,41.206576 24.6274775,40.3891961 24.6274775,38.4600533 C24.6274775,36.8223065 24.6132392,34.4008661 23.5220769,33.5046632 C22.7039305,32.8325277 21.4249592,32.6280419 21.4249592,32.6280419 L22.3372303,30.3965507 C18.0152202,28.5019237 18.2847798,27.3349402 18.0152202,24.9824941 C17.7456608,22.630048 21.1459217,20 21.1459217,20 C21.3216693,20.3850652 19.716373,22.7590791 19.716373,24.7061437 Z M25.5032903,21 L25.9813412,22.3480563 L27.2694574,21.7305086 L26.6586073,23.0251787 L28,23.5033666 L26.6586073,23.9814238 L27.2694574,25.2695568 L25.9813412,24.6586987 L25.4966008,26 L25.0185498,24.6586987 L23.7304337,25.2695568 L24.3412838,23.9814238 L23,23.5033666 L24.3412838,23.0251787 L23.7304337,21.7305086 L25.0185498,22.3480563 L25.5032903,21 L25.5032903,21 L25.5032903,21 L25.5032903,21 Z M17.6223178,30.0000441 C18.5414236,30.9625229 20,31.3304964 20,31.3304964 C19.999729,31.3304964 18.4817348,32.0582988 17.6643133,32.9169422 L17.6643133,32.968016 C17.656182,32.9611978 17.644798,32.9558671 17.6361247,32.9488013 C17.6199977,32.9660323 17.602651,32.9825202 17.587201,33 L17.587201,32.9104957 C16.7222993,32.2112 15,31.4264893 15,31.4264893 C15,31.4264893 16.6510216,30.9058327 17.622312,30 L17.622312,30.000124 L17.622312,30.000124 L17.6223178,30.0000441 L17.6223178,30.0000441 Z M34.3775953,30.0000609 C35.3490463,30.9057705 37,31.4264661 37,31.4264661 C37,31.4264661 35.277548,32.2111884 34.4123633,32.9104944 C34.4124989,32.9155771 34.4123633,33 34.4123633,33 C34.3969128,32.9826449 34.3795655,32.9661567 34.3635733,32.9488006 C34.3551707,32.9559907 34.3436511,32.9610735 34.3356545,32.9680156 C34.3356545,32.9680156 34.335519,32.918676 34.3356545,32.916941 C33.5180205,32.0583374 32,31.3304719 32,31.3304719 C32,31.3304719 33.4584214,30.9625349 34.3775368,30 C34.3775368,30 33.4584214,30.9625349 34.3775368,30 L34.3775953,30.0000609 L34.3775953,30.0000609 Z M22,34 L21,34.9999365 L22,36 L23,34.9999365 L22,34 L22,34 L22,34 L22,34 Z M28.9999365,34 L28,34.9999365 L28.9999365,36 L30,34.9999365 L28.9999365,34 L28.9999365,34 L28.9999365,34 L28.9999365,34 Z M22.5030299,35 L23,35.4967885 L22.5030299,36 L22,35.4967885 L22.5030299,35 L22.5030299,35 L22.5030299,35 L22.5030299,35 Z M29.4968493,35 L30,35.4967885 L29.4968493,36 L29,35.4967885 L29.4968493,35 L29.4968493,35 L29.4968493,35 L29.4968493,35 Z M22.000036,36.000044 C22.1691088,36.5112032 22.5708728,38.0945885 22.5708728,39.9933339 C22.5708728,41.307655 22.4665987,42 22.4665987,42 C22.4665987,42 23.6662694,41.5683058 23.9050865,40.0805515 C24.0170179,39.3831299 24.1418316,36.8137449 23.5646077,36.3758948 L22,36 L22,36 L22.000036,36.000044 L22.000036,36.000044 Z M29.999991,36 L28.4352769,36.3760186 C27.8581884,36.813815 27.9829872,39.3830884 28.0949134,40.0805938 C28.3337732,41.5682162 29.5332432,42 29.5332432,42 C29.5332432,42 29.428974,41.3075381 29.428974,39.9933781 C29.428974,38.0946746 29.8308271,36.5111369 30,36.0001762 L30,36.0000461 L30,36.0000461 L29.999991,36 L29.999991,36 Z M17.6253297,37.0014208 C17.5440639,37.0048434 17.4607318,37.0139704 17.3789517,37.0339984 C16.7248196,37.1952441 16.3295816,37.8498436 16.4937972,38.4926588 C16.5189516,38.5910268 16.5602294,38.6819165 16.6069221,38.7673476 C16.5115949,38.7361641 16.4121372,38.7155018 16.3074001,38.7084033 C16.2653479,38.7056146 16.2222637,38.707009 16.1809838,38.7084033 C15.5619425,38.7288124 15.0460219,39.2070911 15.002882,39.8269493 C14.9568316,40.4880098 15.4681596,41.0572212 16.1411203,41.1024052 C16.2414779,41.1089968 16.339127,41.1054474 16.4338055,41.0892213 C16.3758866,41.167307 16.3258377,41.2505852 16.2875229,41.3442696 C16.0357279,41.9591908 16.340668,42.6667339 16.966414,42.9142265 C17.592041,43.1614185 18.3053894,42.8552823 18.5570206,42.2404801 C18.595461,42.1465489 18.6170026,42.0549037 18.6302897,41.9591908 C18.6879497,42.0377831 18.7572193,42.1097899 18.836553,42.1749365 C19.353948,42.6000956 20.1278014,42.532781 20.5604019,42.024595 C20.9931771,41.5162801 20.9245464,40.7621255 20.4072825,40.3370093 C20.328983,40.2726141 20.2421713,40.2220316 20.1544499,40.180078 C20.2484861,40.1504154 20.3398095,40.1095985 20.4272688,40.0558488 C20.9987142,39.703832 21.1715688,38.9559774 20.8133437,38.3943433 C20.5670967,38.0083472 20.1344526,37.8099668 19.7017539,37.8383652 C19.5050359,37.8512947 19.3079357,37.9115075 19.1292819,38.0215375 C19.0420825,38.0752851 18.964553,38.1349913 18.8964465,38.2045811 C18.8965755,38.1079882 18.8881908,38.0086048 18.8631665,37.9103698 C18.7195925,37.3478019 18.1934277,36.9770139 17.6251058,37.0011085 L17.6252348,37.0012352 L17.6252348,37.001362 L17.6252348,37.001362 L17.6253297,37.0014208 L17.6253297,37.0014208 Z M22,37.000098 L22.7627358,37.1950125 C23.0448354,37.6704911 22.9969191,38.4392004 22.9969191,39.5085728 C22.9969191,40.5868357 22.3339832,41 22.3339832,41 C22.3339832,38.4082331 22.1151613,37.7850902 22,37.000118 L22,37 L22,37 L22,37.000098 L22,37.000098 Z M29,37 C28.8846505,37.7851053 28.6661146,38.4081566 28.6661146,41 C28.6661146,41 28.0030797,40.5868035 28.0030797,39.5085288 C28.0030797,38.439025 27.9551608,37.6705127 28.2373615,37.1950001 L29,37.0000799 L29,37.0000799 L29,37 L29,37 Z M17.9635322,37.0010491 C18.4285542,36.9781785 18.8560466,37.3311994 18.9737929,37.8679652 C19.0018031,37.9958561 19.004794,38.1217263 18.9947324,38.245419 C18.9865742,38.3479496 18.9626434,38.4411407 18.9316423,38.5343384 C18.7763664,38.4694596 18.6083004,38.4378765 18.4334423,38.4378765 C18.0005162,38.4378765 17.6128559,38.6558471 17.3459466,39 C17.2759216,38.9290539 17.2150073,38.8506335 17.1636055,38.7591483 C17.1060897,38.6573962 17.0574128,38.545999 17.0302142,38.4220032 C16.8956026,37.808374 17.2235608,37.1869729 17.7598316,37.0330617 C17.8267287,37.0136134 17.8968953,37.0041237 17.963378,37.0008555 L17.963378,37.0010111 L17.9635139,37.0010111 L17.9635139,37.0010111 L17.9635322,37.0010491 L17.9635322,37.0010491 Z M33.4279282,38 C31.9480152,38 30.8650006,39.1421882 31.0136436,40.5441813 C31.1388678,41.7264591 32.0983132,42.7169909 33.2830091,43 C33.0806912,42.6686763 32.9461781,42.2992935 32.9047608,41.9079495 C32.7563247,40.5058529 33.8391428,39.36988 35.3192524,39.36988 C35.5524781,39.36988 35.7785044,39.3987548 36,39.4520998 C35.478198,38.5953964 34.4957786,38.0000725 33.4278662,38.0000725 L33.4279884,38.0001949 L33.4278662,38.0001949 L33.4278662,38.0000725 L33.4278662,38.0000725 L33.4279282,38 L33.4279282,38 Z M19.9897214,38.0005906 C20.3258308,38.0113536 20.6480122,38.1782535 20.8397912,38.4715784 C21.1467819,38.9409282 20.9994687,39.5621831 20.5100805,39.8564769 C20.4077996,39.9179219 20.29842,39.9586579 20.1873217,39.9830396 C20.094842,40.0034751 20.0007988,40.0015683 19.9088844,39.997072 C19.9093106,39.9827662 19.9088844,39.9694155 19.9088844,39.9548375 C19.9088844,39.3575524 19.5344193,38.8412088 19,38.6121572 C19.0377869,38.5245542 19.0822515,38.4410347 19.1464592,38.366103 C19.2154997,38.2859932 19.2986075,38.2136557 19.3959102,38.1551961 C19.5794503,38.0448413 19.787707,37.9940283 19.9895651,38.0005571 L19.9897071,38.0005571 L19.9897071,38.0005571 L19.9897214,38.0005906 L19.9897214,38.0005906 Z M32.7888428,38 C33.223004,38 33.6401136,38.1657476 34,38.4419814 C32.6464393,38.7683275 31.6722982,40.259004 31.8140232,42 C31.3826054,41.554453 31.0670589,40.9544354 31.0106113,40.2910342 C30.9008083,38.9990663 31.6535017,38.0000846 32.7889591,38.0000846 L32.7888446,38.0000846 L32.7888446,38.0000846 L32.7888428,38 L32.7888428,38 Z M17.3257452,39.0023589 C17.469511,39.0103651 17.5983525,39.042526 17.7233637,39.0862203 C17.8233954,39.1216379 17.9157182,39.1670969 18,39.2193449 C17.7598939,39.4683488 17.6196464,39.7828982 17.6196464,40.1225513 C17.6196464,40.3890646 17.7079487,40.636035 17.8615968,40.8508472 C17.7572084,40.9037696 17.6476222,40.9455648 17.5246396,40.9699895 C17.405171,40.9934652 17.281682,41.0049992 17.1526702,40.9979437 C16.473053,40.9602191 15.9564809,40.4841958 16.002899,39.9336597 C16.0494803,39.3831351 16.6461422,38.9646435 17.3257594,39.0023623 C17.3257594,39.0023623 16.6461422,38.9646435 17.3257594,39.0023623 L17.3257452,39.0023589 L17.3257452,39.0023589 Z M19.0000713,39 C19.5530483,39 20,39.4524692 20,40.0037077 C20,40.5546737 19.5530483,41 19.0000713,41 C18.4468209,41 18,40.5546737 18,40.0037077 C18,39.4524692 18.4469517,39 19.0000713,39 C19.0000713,39 18.4469517,39 19.0000713,39 L19.0000713,39 L19.0000713,39 Z M20.0696832,40.0000498 C20.1677658,40.0108235 20.2625078,40.0338709 20.3566938,40.0704204 C20.4546374,40.1086061 20.5516034,40.1552473 20.6366135,40.2252138 C21.0705455,40.5811602 21.1215963,41.2142245 20.7587632,41.6396697 C20.3956475,42.0650341 19.7497026,42.1221666 19.3158178,41.7663588 C19.224275,41.6912148 19.157777,41.6010695 19.1004479,41.5058795 C19.0549544,41.4301905 19.0254606,41.3495966 19,41.2666806 C19.5776376,41.1031695 20.0100383,40.6038839 20.0697232,40.0001364 L20.0697232,40 L20.0697232,40 L20.0696832,40.0000498 L20.0696832,40.0000498 Z M17.4500499,41 C17.711716,41.4248756 18.1585948,41.7066806 18.6623825,41.7066806 C18.7681619,41.7066806 18.8709566,41.6917938 18.970484,41.6681231 C18.9915311,41.7689077 19.0044316,41.8707359 18.9985924,41.9755399 C18.9922104,42.0892754 18.9764589,42.2018235 18.9354511,42.3136229 C18.7294638,42.8751533 18.144486,43.1462448 17.6321792,42.9204151 C17.1199873,42.6945853 16.8655182,42.0534088 17.0716435,41.491601 C17.1133307,41.3783118 17.171041,41.2796107 17.239887,41.1920744 C17.3004484,41.1149605 17.3730999,41.0537809 17.4500936,41.0000366 L17.4502294,41.0000366 L17.4500936,41.0000366 L17.4500936,41.0000366 L17.4500499,41 L17.4500499,41 Z M24.4840371,43 C23.5774373,43 23,43.2066581 23,43.5038451 C23,43.8011823 23.5775997,44 24.4840371,44 C24.7256555,44 25,43.8480749 25,43.5038451 C25,43.1596152 24.7255163,43 24.4840371,43 L24.4840371,43 L24.4840371,43 L24.4840371,43 Z M27.515963,43 C27.2743445,43 27.0000001,43.1596152 27.0000001,43.5038451 C26.9998631,43.8480749 27.2743561,44 27.515963,44 C28.4227018,44 29,43.8011823 29,43.5038451 C29,43.2065079 28.4225395,43 27.515963,43 L27.515963,43 L27.515963,43 L27.515963,43 Z M27.515963,43" fill="#000000" id="path2169"/><path d="M50.522862,29.0917849 L50.522862,29.0917849 C50.6148008,29.2889693 50.296564,29.7856189 50.296564,29.7856189 C50.296564,29.7856189 50.4189273,29.5428445 50.296564,29.7856189 C50.1744517,30.0287793 50.3765107,30.3719813 50.3765107,30.3719813 C50.3765107,30.3719813 48.9723015,30.2479244 48.7530781,30.3922229 C48.5544997,30.522549 48.8371516,31.5076293 48.7063992,32.3396508 C48.524197,33.4992843 48.0727583,33.4018853 48.0543187,33.6266582 C48.0363954,33.8450072 48.2273611,34.1859868 48.2273611,34.1859868 C48.2273611,34.1859868 47.9640528,34.2699574 47.9079586,34.3814814 C47.817696,34.5607779 47.9708849,34.8915742 47.8614086,35.1091382 C47.2505853,36.3231709 46.3485703,38.1149196 45.7522564,39.300647 C45.6689569,39.4661115 45.4451034,39.529312 45.332926,39.7521058 C45.2295111,39.9576621 45.3130682,40.2573667 45.3130682,40.2573667 C45.3130682,40.2573667 44.9178437,40.2812648 44.7807744,40.5539423 C44.6350695,40.8434637 44.7208144,41.234453 44.7208144,41.234453 C44.7208144,41.234453 44.4709128,41.2668394 44.3480254,41.5107837 C44.2168844,41.7715796 44.4390621,41.9083075 44.3816808,42.0229662 C43.5798885,43.6159142 42.6356447,45.4936846 42.0595281,46.6388337 C41.847543,47.0598642 41.1058406,47.1442273 40.6754072,48.0000319 C40.2577472,48.8300743 40.8550328,49.4420552 40.8550328,49.4420552 C40.8550328,49.4420552 40.2347986,49.4988626 40.0699989,49.8262556 C39.9021096,50.1599156 40.0349254,50.666614 40.4825058,50.897634 C40.9300797,51.1285214 41.4191729,50.9416432 41.5871387,50.6079799 C41.7518074,50.2805891 41.4206686,49.7387635 41.4206686,49.7387635 C41.4206686,49.7387635 42.2606285,49.8612613 42.6781465,49.0310863 C43.1087,48.1753148 42.7457149,47.525155 42.9575691,47.1038922 C43.5338385,45.9587431 44.4782679,44.0810834 45.2797218,42.4880248 C45.3374895,42.3733661 45.5743633,42.4726149 45.7055043,42.2118268 C45.8281297,41.9678814 45.7055043,41.746923 45.7055043,41.746923 C45.7055043,41.746923 46.0722342,41.5849856 46.2179391,41.2953426 C46.3551394,41.0227934 46.1446969,40.6822119 46.1446969,40.6822119 C46.1446969,40.6822119 46.4336613,40.5779996 46.5372138,40.3723129 C46.6492711,40.1495191 46.5668712,39.9313028 46.6501663,39.765584 C47.2466768,38.5801882 48.1488118,36.7882184 48.7594277,35.5744068 C48.8690285,35.3565775 49.2214455,35.2820107 49.3117114,35.1025815 C49.3678033,34.9911846 49.2785724,34.7253026 49.2785724,34.7253026 C49.2785724,34.7253026 49.6669626,34.6863861 49.8307251,34.5432529 C49.9993896,34.3960764 49.6569075,34.0804389 50.4762333,33.2495009 C51.063977,32.653475 52.0121075,32.3028429 51.9997707,32.0635524 C51.986102,31.798975 51.0616844,30.722588 51.0616844,30.722588 C51.0616844,30.722588 51.4517449,30.6892872 51.5739882,30.44639 C51.6962314,30.2033623 51.6139615,29.9206298 51.6139615,29.9206298 L51.9997751,29.8532443 L51.9997751,28.0001306 L50.522862,29.0917849 Z M37.7299217,54.2225901 C37.6684685,54.3439786 37.65732,54.5098604 37.7299217,54.6545943 C37.7299217,54.6545943 37.2389731,54.4995597 37.0705196,54.5837387 C36.9118505,54.6631081 37.0705196,57 37.0705196,57 C37.0705196,57 39.0293643,55.7518173 38.9996657,55.5757975 C38.9681229,55.3886399 38.5576623,55.0726646 38.5576623,55.0726646 C38.7163313,55.0469859 38.8400527,54.9464744 38.901499,54.8248068 C38.9659427,54.6968262 38.9745082,54.3310213 38.5296557,54.1019746 C38.3629749,54.0161516 38.2146428,53.9907485 38.0945935,54.0028315 C37.894968,54.0230738 37.7703027,54.1425441 37.7299217,54.2225901 Z M37.7299217,54.2225901" fill="#000000" id="path2206"/><path d="M22.1600912,3.28076087 C21.7896747,3.5255375 21.8197257,3.84386882 21.6901472,3.95563732 C21.3846577,4.21880262 20.8612321,4.20948218 20.6092132,4.20948218 C18.9777768,4.20948218 18.9174103,5.94714072 18.9174103,5.94714072 C18.9174103,5.94714072 19.3345337,5.31888839 20.0720839,5.31888839 C21.2983601,5.31888839 22.2271001,5.98379745 22.2271001,6.23439661 C22.2271001,6.33580297 22.100639,6.35458639 22.092961,6.35458639 C21.292015,6.35458639 20.0830226,5.89560418 19.4410232,5.87345443 L19.4410232,6.12741991 C20.8745061,6.68393042 22.3278174,7.38677914 22.3278174,10.484454 C22.3278174,12.4351668 22.0932364,14.4253544 21.1127773,15.9909686 C20.765516,16.5454031 20.271106,17.0198024 19.6760998,17.4412287 C19.4113357,17.3615795 18.1662776,16.9765446 17.2928368,16.4923095 C15.7551446,15.63961 14.9578228,14.7912748 13.1304158,14.7080487 L13.1304158,13.3246765 C13.1304158,12.5855548 13.3990905,11.9197027 13.3990905,11.2129943 C12.6287243,11.0074622 10.4907054,8.40502051 8.5183308,7.2500538 C5.61611454,9.12126873 3.36911661,12.1928464 3.36911661,13.6053861 C3.36911661,13.6053861 3.45628885,43.9571173 3.36911661,54.5297832 C3.36911661,55.1391315 3,56 3,56 C4.05946426,55.5538361 6.00157856,52.9087946 6.410374,51.9035032 L6.410374,52.3847667 C8.01041542,51.6584743 9.18205332,49.7500434 9.70662456,48.762735 C9.71599226,48.9054583 9.74032292,49.2636811 9.74032292,49.2636811 C11.16973,48.0163872 12.9895361,40.6432631 12.9895361,40.6432631 L12.895598,39.0928905 C11.5328366,41.7011224 11.6370456,45.1127967 10.2035627,46.3502219 L10.2035627,20.4284399 L11.3381876,21.4774717 L13.0567588,19.8803872 L13.0567588,18.664125 L11.5328364,20.0807218 L11.5328364,16.4119783 C11.7624712,16.06619 11.9146982,15.8080687 12.0295818,15.6034467 C12.276269,16.0314741 13.0734367,17.343408 14.0099979,18.149571 C14.1640425,17.5258473 15.1782209,16.9331991 15.1782209,16.9331991 C15.1782209,16.9331991 15.5416093,17.9133363 16.0978179,18.1560405 C16.2935021,17.8129716 17.4607998,17.0534875 17.4607998,17.0534875 C17.4607998,17.0534875 16.4620986,17.2045005 16.0576103,17.5815068 C15.7102278,17.5040594 15.6212314,16.1379355 15.6212314,16.1379355 C15.6212314,16.1379355 14.1515066,16.8504994 13.8960507,17.3607769 C13.6157984,17.2852726 13.1795516,16.1874983 13.0096333,15.7368277 C13.2660806,15.7089826 13.6280369,15.676735 14.1039625,15.676735 C14.5230356,15.676735 15.0593387,15.8743721 15.6211653,16.1377896 C16.2384012,16.4271179 16.884124,16.7933673 17.4607998,17.0534294 C18.1994186,17.3862677 19.3167377,17.4538793 19.6425843,17.4677393 C19.269436,17.7288322 18.8593407,17.9671284 18.4142152,18.189503 C18.4142152,18.189503 20.1728838,18.173314 21.4084132,17.5612507 C21.8492205,17.2790498 22.3065514,16.9978796 22.6973691,16.6658198 C22.5278363,17.134912 22.2638543,17.6890833 21.8512804,18.1626821 C23.665799,18.0098598 24.5692028,16.9784383 24.8254297,16.6323759 C24.945777,16.9424285 25.1601991,17.4400083 25.4967861,17.8685949 C25.8335054,17.4400412 26.0544267,16.9424614 26.1749063,16.6323759 C26.4313535,16.9784273 27.334537,18.0098269 29.1489454,18.1626821 C28.7365037,17.6890613 28.4725107,17.13489 28.3031101,16.6658198 C28.6938176,16.997759 29.1514129,17.2790498 29.592066,17.5612507 C30.8274852,18.1733184 32.5863741,18.189503 32.5863741,18.189503 C32.1408852,17.9671284 31.7240152,17.7281852 31.3511752,17.4677393 C31.6647393,17.4556951 32.7951231,17.388997 33.5396794,17.0534294 C34.11619,16.7933782 34.7618797,16.4271179 35.3789834,16.1377896 C35.9409202,15.8743612 36.4773554,15.676735 36.8964065,15.676735 C37.3723431,15.676735 37.7341673,15.7089826 37.9906146,15.7368277 C37.8208284,16.1875202 37.3847028,17.2852265 37.1043183,17.3607769 C36.8486532,16.8505103 35.3789173,16.1379355 35.3789173,16.1379355 C35.3789173,16.1379355 35.2899242,17.5039827 34.9426706,17.5815068 C34.5381713,17.2045005 33.5394811,17.0534875 33.5394811,17.0534875 C33.5394811,17.0534875 34.7067127,17.8129387 34.9022427,18.1560405 C35.4585834,17.9133363 35.8153403,16.9331991 35.8153403,16.9331991 C35.8153403,16.9331991 36.8361613,17.5259679 36.9901728,18.149571 C37.9268222,17.3432435 38.7237254,16.0318579 38.970589,15.6034467 C39.0897687,15.8146807 39.2490237,16.0830216 39.4673344,16.4119783 L39.4673344,20.0807218 L37.9435221,18.664125 L37.9435221,19.8803872 L39.6620933,21.4774717 L40.7967182,20.4284399 L40.7967182,46.3502219 C39.3629048,45.1127967 38.1046829,39.0928905 38.1046829,39.0928905 C38.1046829,39.0928905 37.4599649,37.2537958 37.6010194,40.6432625 C37.7420738,44.0327292 39.8305113,48.0163872 41.2599183,49.2636811 C41.2599183,49.2636811 41.2841178,48.9054583 41.2934856,48.762735 C41.8180789,49.7499886 42.9899151,51.6584305 44.5897362,52.3847667 L44.5897362,51.9035032 C44.9985316,52.9088933 46.9406129,55.5539348 48,56 C48,56 47.6308834,55.1391424 47.6308834,54.5297832 C47.5437111,43.9562401 47.6308834,13.6053861 47.6308834,13.6053861 C47.6308834,12.1926271 45.3838855,9.12126873 42.4816692,7.2500538 C40.5097352,8.40502051 38.3713528,11.0073964 37.6010196,11.2129943 C37.6010196,11.9197356 37.86943,12.5855109 37.86943,13.3246765 L37.86943,14.7013599 C36.0460988,14.7864479 35.2434894,15.6404434 33.7071192,16.4924191 C32.8279832,16.9800205 31.5696181,17.3663582 31.3173568,17.4413384 C30.7226371,17.0208221 30.234473,16.5456443 29.8875091,15.9910783 C29.0518303,14.6566109 28.6992374,13.0182972 28.6992374,11.3534478 C28.6992374,10.6496889 29.4913377,9.85746269 29.4913377,9.28836773 C29.4913377,8.42815713 29.4108014,7.91190357 29.4108014,7.91190357 C29.6918359,7.9499792 30.1828641,8.44639229 30.1828641,8.44639229 C30.1828641,8.44639229 30.1659505,7.01850124 29.7127879,6.76915211 C29.7127879,6.76915211 29.8961124,6.58149333 30.5587444,6.56193137 C30.3725557,6.09245544 29.4511081,5.51950073 29.4511081,5.51950073 C29.4971662,5.43739096 29.582262,5.36641528 29.6927171,5.30567892 C29.9241806,5.17824112 30.2494434,5.09419271 30.4982127,5.04496983 C30.233052,4.99031698 29.9275625,4.90652295 29.5920109,4.79760541 C28.8259408,4.5491993 27.9240022,4.18450702 27.0811852,3.78198473 C25.5427219,3.04727108 24.3706434,3.00000001 23.724458,3.00000001 C23.2554228,2.99998543 22.5649209,3.01280706 22.1600912,3.28076087 Z M24.078213,3.0070015 C25.5558596,3.0070015 26.5951193,3.67109262 27.9932561,4.28253488 C28.3596834,4.44272411 28.69604,4.57252009 28.9964439,4.67291602 C28.8082419,4.83727016 28.6618746,5.0025 28.6201699,5.14162968 C28.6201699,5.14162968 29.2468238,5.25603683 29.5311091,5.77305288 C29.5311091,5.77305288 28.9352842,5.83965102 28.8379227,6.18298778 C29.1715928,6.20783634 29.5032157,6.62244022 29.5047539,7.02265697 L28.6596973,6.7621893 L28.8644079,8.71478913 C28.8644079,8.71478913 28.105328,9.84561825 28.105328,10.7259114 C28.105328,13.4889619 28.8113075,14.5511233 29.3134647,15.405359 C29.5098559,15.7396098 29.6695254,16.1241921 30,16.4141773 C28.5533341,15.6548591 27.4781108,14.7055991 27.4781108,13.8239176 L27.4781108,10.485147 L27.1018369,10.485147 L27.1018369,13.8239176 C27.1018369,14.4632862 27.2602281,14.7610886 27.2602281,14.7610886 C27.4873292,15.4684415 27.9463735,16.5602272 28.2307888,17 C26.8998128,16.2908743 26.2237632,15.4028067 26.2237632,15.0735644 L26.2237632,10.4851043 L25.8474892,10.4851043 L25.8474892,15.1384944 L25.9200316,15.4573564 C25.758694,15.6963801 25.5490005,15.9794238 25.4050705,16.0756655 C25.2615197,15.9795519 25.0582173,15.6960063 24.8966305,15.4573564 L24.9693018,15.1384944 L24.9693018,10.4851043 L24.5930278,10.4851043 L24.5930278,15.0735644 C24.5930278,15.4027746 23.9168591,16.2908957 22.5861106,17 C22.8703959,16.5603019 23.329451,15.4684842 23.5564221,14.7610886 C23.5564221,14.7610886 23.7149433,14.4632862 23.7149433,13.8239176 L23.7149433,10.485147 L23.3386694,10.485147 L23.3386694,13.8239176 C23.3386694,14.7045846 22.2674108,15.6552008 20.823388,16.4141773 C21.150537,16.1239465 21.3078992,15.7377303 21.5032722,15.405359 C22.0523987,14.4712209 22.7312322,13.2844537 22.7312322,9.9058494 C22.7312322,8.63779151 22.5409829,7.77575991 22.2097392,7.17227371 C22.1090488,6.97323326 21.9733005,6.44334867 22.7444044,6.44334867 C23.143838,6.44334867 24.0582652,7.13973394 24.0582652,7.13973394 C24.0582652,7.13973394 24.0206508,6.58399481 23.5564763,6.26765313 C23.4794558,6.21518155 23.3518957,6.0499453 23.3518957,5.89656945 C23.3518957,5.78166038 23.5518725,5.49798663 23.7082164,5.42798394 C23.8156878,5.37992717 22.1370863,5.09158657 22.1370863,4.34104667 C22.1370863,4.18476606 22.236753,4.08070714 22.5857748,4.08070714 C23.0429126,4.08070714 23.7866538,4.62093996 24.4477546,4.62093996 C24.9363605,4.62093996 25.1290471,4.50376688 25.6294603,4.50376688 C26.2410246,4.50376688 27.5166796,5.64527528 27.9531166,5.60362608 C27.4652799,5.30165872 26.6771692,4.15871929 25.4841979,4.15871929 C25.0701839,4.15871929 24.6953073,4.24991395 24.3088834,4.24991395 C23.8136264,4.24991395 23.3259088,3.80075405 22.7906153,3.80075405 C22.4318682,3.80075405 22.0311563,3.82043062 21.971914,3.72910995 C21.8681538,3.56955081 21.9615507,3.47697212 22.0577629,3.34515774 C22.2394437,3.09629845 22.749801,3.02414922 23.2529007,3.00687014 C23.4037417,3.0016987 23.5544636,2.99904992 23.6950681,3.00031125 C23.8356324,3.00170393 23.9657511,3.0070015 24.078213,3.0070015 Z M11.9666357,11.7579231 L12,12.5799762 L12,15 C11.3432222,14.7763061 10.5178753,13.7085084 10.1177764,13.1435896 L10.1177764,12.812101 C10.1177764,12.5002697 10.3031629,12.2724637 10.4392185,12.1491128 L10.0440329,12.0099663 C9.89330329,12.1799532 9.72920777,12.4325512 9.72920777,12.7590358 L9.72920777,12.951378 L9.60197851,13.0841061 L9.53498942,13.1570865 L8.55027342,14.2043783 L7.39152538,12.4674135 L7.39152538,12.0431532 C7.39152538,11.7571475 7.61365722,11.4383758 7.80020884,11.2211001 L7.41151933,11.0818231 C7.21536094,11.333268 7.00958479,11.6722193 7.00958479,11.9900881 L7.00958479,12.3346853 C6.73695694,12.6138811 5.67650793,13.6939497 5.67650793,13.6939497 L5,12.2552725 C5.81191503,11.1421877 7.12843835,9.89573298 8.36940452,9 L11.9666357,11.7579231 Z M46,12.255169 C45.8555433,12.5622457 45.32355,13.6938435 45.32355,13.6938435 C45.32355,13.6938435 44.2635743,12.6137878 43.9910669,12.3346904 L43.9910669,11.9899633 C43.9910669,11.6722148 43.7853594,11.333275 43.5892451,11.0817001 L43.2007965,11.2209768 C43.3871749,11.4381215 43.6093653,11.7570232 43.6093653,12.0430284 L43.6093653,12.4672878 L42.4506127,14.2042493 L41.4663048,13.1569595 L41.3993345,13.0839793 L41.2720091,12.9513819 L41.2720091,12.7589096 C41.2720091,12.4324256 41.1079596,12.1798281 40.9574042,12.0098415 L40.5620767,12.1489877 C40.6983578,12.2724581 40.8836923,12.5000134 40.8836923,12.8121052 L40.8836923,13.1435932 C40.4834309,13.708413 39.6586782,14.7761216 39.0018868,15 C39.0018868,15 38.9976414,12.9910331 39.0018868,12.5799809 C39.0061323,12.1689287 39.0353714,11.7579293 39.0353714,11.7579293 L42.6315154,9.00655274 C43.8694116,9.89376291 45.1861809,11.144262 46,12.255169 Z M4.34274463,13 L5,14.1170621 L5,16.1305837 L4,17 L4,14.0101192 C4,13.7238953 4.12804285,13.3789538 4.34274463,13.0000439 C4.34274463,13.0000439 4.12804285,13.3789538 4.34274463,13.0000439 L4.34274463,13 L4.34274463,13 Z M46.6571147,13.0000439 C46.8722267,13.3789538 47,13.7238953 47,14.0101192 L47,17 L46,16.1305837 L46,14.1170621 L46.6571147,13 L46.6571147,13 L46.6571147,13.0000439 L46.6571147,13.0000439 Z M7,13 L8,14.6837143 L8,15.9621192 L7,17 L7,13.0001353 L7,13.0000021 L7,13.0000021 L7,13 L7,13 Z M44,13 L44,17 L43,15.9622195 L43,14.6837713 L44,13 L44,13.0001332 L44,13 L44,13 L44,13 L44,13 Z M7,13 L7,17 L6,15.8826718 L6,14.258936 L7,13.0001589 L7,13.0000145 L7,13.0000145 L7,13 L7,13 Z M44,13.0001589 L45,14.258936 L45,15.8826718 L44,17 L44,13 L44,13.0001444 L44,13.0001444 L44,13.0001589 L44,13.0001589 Z M10,13 C10.201212,13.2367691 11.1240825,14.292939 12,14.5968596 C11.6897392,14.9070128 10.8770341,15.6657355 10,16 L10,13 L10,13 L10,13 L10,13 Z M41,13 L41,16 C40.1231157,15.6658414 39.3106148,14.9069454 39,14.5968596 C39.8762307,14.2930835 40.7990059,13.2367787 41,13 C41,13 40.7990059,13.2367787 41,13 L41,13 L41,13 Z M10,14.0000209 L10,17 L9,16.0466207 L9,14.9851666 L10,14 L10,14 L10,14.0000209 L10,14.0000209 Z M41,14 L42,14.9851666 L42,16.0466207 L41,17 L41,14.0000209 L41,14.0000209 L41,14 L41,14 Z M5,17 L5,20 L4,19.1655891 L4,17.8343691 L5,17.0000732 L5,17.0000732 L5,17 L5,17 Z M46,17.0000732 L47,17.8343691 L47,19.1655891 L46,20 L46,17 L46,17 L46,17.0000732 L46,17.0000732 Z M6,17.0002939 L6.57143003,17.5503341 L7,17.9596683 L7,19.0406255 L6.57143003,19.4499598 L6,20 L6,17 L6,17.0002479 L6,17.0002479 L6,17.0002939 L6,17.0002939 Z M8,17.0000105 L8,20 L7.4284826,19.4498462 L7,19.0340691 L7,17.9658155 L7.4284826,17.5500383 L8,17 L8,17 L8,17.0000105 L8,17.0000105 Z M9,17 L10,17.9658155 L10,19.0340691 L9.56512036,19.4561647 L9,20 L9,17.0000105 L9,17.0000105 L9,17 L9,17 Z M11,17.0001152 L11,20 L10.4286922,19.451133 L10,19.0361156 L10,18.0341397 C10.3449225,17.817781 10.6916587,17.4202122 10.9998777,17 L10.9998777,17.0001237 L10.9999981,17.0001237 L10.9999981,17.0001237 L11,17.0001152 L11,17.0001152 Z M40,17.0001362 C40.3084545,17.4199979 40.6551956,17.817959 41,18.0340642 L41,19.0362043 L40.5715174,19.451112 L40,20 L40,17 L40,17.0001237 L40,17.0001237 L40,17.0001362 L40,17.0001362 Z M41.9998879,17.0000105 L41.9998879,20 L41.4346453,19.4561647 L41,19.0340691 L41,17.9658155 L42,17 L41.9998796,17 L41.9998796,17 L41.9998879,17.0000105 L41.9998879,17.0000105 Z M43,17.000105 L43.5713776,17.5501452 L44,17.9659238 L44,19.0341812 L43.5713776,19.4499598 L43,20 L43,17 L43,17.000124 L43,17.000124 L43,17.000105 L43,17.000105 Z M45,17 L45,20 L44.4285001,19.4498443 L44,19.0405101 L44,17.9595529 L44.4285001,17.5502187 L45,17.000063 L45,17.000063 L45,17 L45,17 Z M7.9443548,21.0459384 L8.88888281,20.00712 L8.88888281,45.5161279 C9.00000002,45.516128 8.95477825,46.7818692 9,47.6068179 C8.57997174,48.10922 7,50 7,50 L7,20 L7.9443548,21.0459384 Z M43,50 C43,50 41.3917886,47.7211486 41,45.5161455 L41,20.0066239 L41.9999855,21.0454632 L42.999971,20 L43,50 Z M5.99990291,20 L5.99990291,49.7532196 C5.99990291,50.5934145 4.65226467,52.5523588 4,53 L4,20.0071844 L4.99402884,21.0646013 L6,20.0003869 L6,20.0003869 L5.99990291,20 L5.99990291,20 Z M44,20.0003869 L45.0059223,21.0646013 L46,20.0071844 L46,53 C45.3478738,52.5523588 44,50.5932377 44,49.7532196 L44,20 L44,20 L44,20.0003869 L44,20.0003869 Z M14.4602163,46.5165785 C14.4602163,46.5165785 14.7442482,46.5513797 15.0660948,46.5487596 C14.8681379,46.823796 13.3560692,48.9281208 12.8821001,49.7217693 C12.4385707,50.4643138 12.1256287,50.1337695 11.4436944,50.1337695 C10.8783404,50.1337695 9.59665701,51.0044172 9.38611331,51.3567168 C9.16492771,51.7269277 9,52.1768519 9,52.5474536 C9,52.9548387 9.44611881,53.5128955 9.44611881,53.5128955 C9.4941243,53.3179315 9.57916451,53.2489585 9.57916451,53.2489585 C9.57916451,53.2489585 10.7515225,54.6605228 10.9242623,54.845021 C11.0587284,54.988712 11.658543,55.0821439 11.869917,54.8966615 C12.3987565,54.4318993 12.9106825,54.1068466 13.3814175,53.4356724 C13.6237668,53.0897832 13.6422207,52.6933814 13.9207022,52.3220299 C14.8522952,51.0799674 16.7061723,48.7012398 17.1302097,48.1578837 C17.1585998,48.3091891 17.1828609,48.4351696 17.2098317,48.5890941 C17.690269,47.6515856 20,45.8601684 20,45.8601684 L19.3606989,45.4545364 L17.5161744,47.3147259 C17.5161744,47.3147259 17.3229921,46.5345108 17.2098208,46.2590942 C17.2098208,46.2590942 16.6763378,46.6491384 16.3844393,46.6583686 C16.3844393,46.6583686 16.297204,46.1288683 16.231257,45.7828523 C15.8638599,46.0195951 15.2524309,45.9695789 15.2524309,45.9695789 L16.4243519,44.2189055 L15.9716556,44 L14.4602163,46.5165785 Z M34.5755408,44.2188433 C34.5755408,44.2188433 35.2108395,45.7238646 35.7474553,45.9695091 C35.7474553,45.9695091 35.1360297,46.0196518 34.7686347,45.7829101 C34.7028213,46.1287978 34.6154532,46.6582958 34.6154532,46.6582958 C34.3235563,46.6490654 33.7898141,46.2591499 33.7898141,46.2591499 C33.6767745,46.5343118 33.4834621,47.314777 33.4834621,47.314777 C33.0315441,47.0235203 31.6391665,45.4544899 31.6391665,45.4544899 L31,45.860004 C31,45.860004 33.3095214,47.6514345 33.789825,48.589129 C33.8170535,48.4350785 33.8413145,48.3090985 33.8697044,48.1579205 C34.2936193,48.7012637 36.1475407,51.079886 37.0791941,52.3220487 C37.357674,52.6933774 37.3759967,53.089788 37.6186068,53.4355807 C38.0891098,54.1067731 38.6011641,54.4318349 39.1300989,54.8965634 C39.3412205,55.0821697 39.9410209,54.9887424 40.0756173,54.8450478 C40.2482797,54.6604448 41.4207076,53.2489923 41.4207076,53.2489923 C41.4207076,53.2489923 41.5057495,53.3178456 41.5538837,53.5128013 C41.5538837,53.5128013 42,52.9547469 42,52.5473636 C42,52.1767741 41.8348219,51.7269892 41.6137686,51.3567376 C41.4032917,51.0043656 40.1217247,50.13369 39.556199,50.13369 C38.8743231,50.13369 38.5613828,50.4643596 38.1180198,49.7218183 C37.6439004,48.9281311 36.1316872,46.8238259 35.933928,46.5488224 C36.255893,46.5515665 36.5398031,46.5166415 36.5398031,46.5166415 C36.1160194,46.1343295 35.0283111,44 35.0283111,44 L34.5755408,44.2188433 Z M16.0695164,47.0281483 L16.8764046,46.4531261 L17,47.1092828 C17,47.1092828 14.6698936,50.4153689 13.6877509,51.7893628 C13.4435926,52.1308138 13.2385257,53 13.2385257,53 C13.2385257,53 12.8808626,52.824103 12.8808626,52.5063787 C12.8808626,52.194292 12.9199583,51.8232216 12.9199583,51.8232216 C12.9199583,51.8232216 12.6528428,52.141079 12.1910072,52.141079 C12.1910072,51.7575571 12.9046997,51.3415302 12.9328143,50.795384 C12.388621,51.2146958 11.9160756,50.9994689 11.2865133,51.20119 C10.6009461,51.4206117 10.4100059,51.7199806 10.1997283,51.7084502 C10.0758873,51.7015033 9.96377056,51.4794623 10.0110625,51.3431505 C10.092912,51.1070823 10.940788,50.4536778 11.5335012,50.3354551 C11.675505,50.3071429 12.7924121,50.5880365 13.0173931,50.227188 C13.9443423,48.7406645 15.449152,46.3274913 15.5943699,46.0949966 C15.689966,46.0712721 15.7778676,46.0459751 15.8479886,46.0002297 L16.0695164,47.0281483 Z M35.1516644,46.0002297 C35.2220372,46.0461046 35.3099408,46.0712699 35.4055387,46.0949936 C35.5508203,46.3275142 37.0554657,48.7406885 37.9825085,50.227054 C38.2074995,50.5880253 39.3242754,50.3070063 39.466076,50.3353176 C40.0591934,50.4536698 40.9069325,51.1070536 40.9889377,51.3429811 C41.0362305,51.4792997 40.9241141,51.7013223 40.8001442,51.7082692 C40.590038,51.7198037 40.3990984,51.420573 39.7133622,51.2010251 C39.083791,50.9993104 38.6114177,51.2145249 38.0670657,50.795232 C38.0951898,51.3412721 38.8088708,51.757541 38.8088708,52.1411063 C38.3471646,52.1411063 38.0800498,51.8232589 38.0800498,51.8232589 C38.0800498,51.8232589 38.1190194,52.1941844 38.1190194,52.5062612 C38.1190194,52.8239754 37.7612291,53 37.7612291,53 C37.7612291,53 37.5561628,52.1307414 37.3121333,51.7891792 C36.3300787,50.4153399 34.3454254,47.6001899 34,47.1092477 C34.0698678,46.7307205 34.123595,46.4531117 34.123595,46.4531117 L34.9303529,47.0281157 C35.160512,46.7602059 35.1516815,46 35.1516815,46 L35.1516815,46.0001311 L35.1516815,46.0002621 L35.1516815,46.0002621 L35.1516644,46.0002297 L35.1516644,46.0002297 Z M14,58.6969018 C14,58.6969018 15.747387,59.4204607 17.8934315,60.5064399 C18.2065169,60.6648799 18.5289167,60.8350467 18.8550751,61.0077341 C19.1251936,60.6906084 19.4096672,60.3382915 19.6898781,59.9726032 C20.9729681,58.2994506 22.2277862,56.3602556 22.2277862,56.3602556 C22.3151489,56.8638247 21.637602,58.4191751 20.4913574,60.3374371 C20.2658934,60.7143504 20.030852,61.1084266 19.7700589,61.5088361 C20.0608773,61.6706832 20.3493726,61.8341642 20.6382514,62.003701 C22.7639138,63.250395 24.7603795,64.6834577 25.4999452,66 C26.239752,64.6834577 28.2359767,63.2502882 30.3619678,62.003701 C30.6507151,61.8341642 30.9392104,61.6706832 31.2300288,61.5088361 C30.9692357,61.1084586 30.7341943,60.7145106 30.5088618,60.3374371 C29.3625295,58.4191751 28.6850965,56.8638247 28.772433,56.3602556 C28.772433,56.3602556 30.027251,58.2994506 31.3103411,59.9726032 C31.5904205,60.3381634 31.8749051,60.6906084 32.1450126,61.0077341 C32.4710395,60.8350467 32.7937023,60.6649974 33.1067877,60.5064399 C35.2528322,59.4203753 37,58.6969018 37,58.6969018 C32.9837276,57.1384541 28.4584491,47 28.4584491,47 L27.790736,47.1887076 C27.790736,47.1887076 31.4000226,55.9488882 34.929753,58.5993813 C34.1270464,58.8348894 33.1875164,59.1729589 32.2182678,59.5758569 C31.0404856,58.231119 29.8221582,56.4173089 28.8324179,54.8046061 C27.7638666,53.0633142 26.8890992,50.0076161 26.8890992,50.0076161 C26.3936483,51.1805103 27.449521,57.0720022 29.580531,60.7999091 C27.8182409,61.6938911 26.2501294,62.6626343 25.4999343,63.4555287 C24.7499035,62.6627197 23.1818467,61.6939445 21.4196663,60.7999091 C23.5505885,57.0725362 24.6064065,51.1808307 24.1109885,50.0076161 C24.1109885,50.0076161 23.2363197,53.0633142 22.1675602,54.8046061 C21.1779623,56.4173089 19.9597116,58.2312258 18.7817103,59.5758569 C17.8126918,59.1729589 16.8730193,58.8348894 16.0702251,58.5993813 C19.6000651,55.9493154 23.2094613,47.1887076 23.2094613,47.1887076 L22.5414873,47 C19.1828226,55.5096043 14,58.6969018 14,58.6969018 Z M10.8075377,52.0017747 C10.857709,52.0076254 10.9103901,52.0364288 10.9478106,52.0830096 C11.0222321,52.1754949 11.0157522,52.3111792 10.936731,52.3847779 L10.3327852,52.9536395 C10.2537635,53.0272231 10.126868,53.0114707 10.0524412,52.9187606 C9.97781084,52.8262754 9.98408181,52.6905911 10.0633118,52.6167827 L10.6672576,52.0479211 C10.7065595,52.0110169 10.7573591,51.9950397 10.8075304,52.0013403 L10.8075304,52.0017903 L10.8075304,52.0017903 L10.8075377,52.0017747 L10.8075377,52.0017747 Z M40.1926073,52.0014367 C40.2427662,51.9949101 40.2935533,52.0106639 40.3330543,52.0477987 L40.9368508,52.6167334 C41.0156441,52.6905513 41.0223311,52.8262587 40.9477187,52.9187502 C40.8728962,53.0114722 40.7460285,53.0272266 40.667444,52.9536336 L40.0632228,52.3844702 C39.9842207,52.3108772 39.9777425,52.1754022 40.052355,52.082663 C40.0897662,52.0363011 40.1424343,52.0074942 40.1925932,52.0014177 L40.1923842,52.0014177 L40.1925932,52.0014177 L40.1925932,52.0014177 L40.1926073,52.0014367 L40.1926073,52.0014367 Z M11.5469867,52.0006351 C11.6707364,51.9952286 11.8006938,52.0244983 11.8939406,52.0823838 C12.0428582,52.1752291 12.0332023,52.3067546 11.876015,52.3806741 L10.6666086,52.9529306 C10.5092418,53.0269448 10.2553742,53.012123 10.1061209,52.9193724 C9.95720334,52.8265272 9.96668708,52.6902425 10.1240465,52.6163231 L11.333453,52.0487309 C11.3923984,52.0209523 11.4727147,52.0038939 11.5470013,52.0006312 C11.5470013,52.0006312 11.4727147,52.0038939 11.5470013,52.0006312 L11.5469867,52.0006351 L11.5469867,52.0006351 Z M40.355229,52.001613 C40.3864243,51.9988192 40.4219286,52.0002161 40.4529503,52.001613 C40.5274057,52.0048726 40.6072048,52.0219153 40.6664931,52.0495751 L41.8760437,52.6166399 C42.0332313,52.6903985 42.0428767,52.8267434 41.8937951,52.9194945 C41.7447208,53.0120643 41.4908451,53.0269669 41.3334824,52.9529284 L40.1239318,52.3812036 C39.9667442,52.307445 39.9570987,52.1761307 40.1063525,52.0831904 C40.1761545,52.0397922 40.2619787,52.0101769 40.3552231,52.0015176 L40.3552231,52.0016108 L40.3552231,52.0016108 L40.355229,52.001613 L40.355229,52.001613 Z M11.5382994,52.0006383 C11.6618813,51.9952316 11.8006253,52.0243161 11.8938754,52.0823899 C12.0427981,52.1752385 12.0333141,52.306674 11.8759492,52.3806041 L10.6577156,52.9529757 C10.5003434,53.0268986 10.2554271,53.0121702 10.1061687,52.9193232 C9.95708536,52.8265693 9.96672995,52.6902798 10.124267,52.6163577 L11.3335405,52.0487453 C11.3924879,52.0210589 11.4638439,52.0039998 11.538136,52.0006439 L11.5383083,52.0006439 L11.5383083,52.0006439 L11.5382994,52.0006383 L11.5382994,52.0006383 Z M39.3643337,52.0016241 C39.3962149,51.9987372 39.4310275,52.0003204 39.4620464,52.0016241 C39.536323,52.0048836 39.6074962,52.0220191 39.6664363,52.0496784 L40.8758797,52.6167335 C41.0332284,52.6904908 41.0430482,52.8267387 40.8934574,52.9194016 C40.7447319,53.012159 40.4995019,53.0268721 40.3421532,52.953021 L39.1241011,52.3811167 C38.9667524,52.3073594 38.9571078,52.1760474 39.1061776,52.0832899 C39.1761456,52.0398925 39.2686916,52.0102778 39.3643352,52.001524 L39.3643352,52.0016171 L39.3643352,52.0016171 L39.3643337,52.0016241 L39.3643337,52.0016241 Z M12.545795,53.0007378 C12.6700036,52.995306 12.8002647,53.0197486 12.8935517,53.0779998 C13.0429747,53.1712779 13.0333081,53.3081978 12.8757587,53.3824618 L11.6633786,53.9527949 C11.5056478,54.0270597 11.2601734,54.0121696 11.1107357,53.9188932 C10.9613127,53.8256151 10.9620002,53.6934765 11.1195461,53.6192124 L12.3409067,53.0442884 C12.3998159,53.0163803 12.4713345,53.0040188 12.545793,53.0007409 C12.545793,53.0007409 12.4713345,53.0040188 12.545793,53.0007409 L12.545795,53.0007378 L12.545795,53.0007378 Z M39.4541272,53.0014739 C39.5287519,53.0047494 39.6000933,53.0171018 39.6590001,53.0449894 L40.8804567,53.6194908 C41.0381772,53.6936076 41.0385136,53.8257497 40.8892665,53.9189513 C40.7398532,54.0121608 40.4942046,54.0270407 40.3366596,53.9528281 L39.1243585,53.3829143 C38.9664771,53.3087975 38.9571461,53.1718855 39.1065667,53.078676 C39.1766999,53.0350671 39.2628978,53.0087705 39.3561787,53.0014708 C39.3872773,52.9989472 39.4232076,53.0001638 39.4541272,53.0014739 Z M39.4541272,53.0014739" fill="#000000" id="rect2205"/><path d="M50.9850331,28 L50,28.5785531 L50.4999254,28.7925683 L51,29 L50.9850244,28 L50.9847307,28 L50.9850244,28 L50.9850244,28 L50.9850331,28 L50.9850331,28 Z M50.4155619,29.0013301 C50.2565837,29.0130137 50.1164187,29.1032834 50.0449592,29.2525304 C49.9306529,29.4914833 50.0416934,29.7973491 50.2943319,29.9343546 C50.5471,30.0713601 50.840503,29.986652 50.9550637,29.7478298 C51.0693701,29.5088769 50.9581988,29.2031523 50.7055584,29.0660055 C50.61072,29.0145419 50.5111767,28.9943738 50.4156836,29.0013289 L50.4155529,29.0013289 L50.4155529,29.0013289 L50.4155619,29.0013301 L50.4155619,29.0013301 Z M48.9307068,30.2285558 C48.8355922,30.3204766 48.6527694,31.5634006 48.5079689,31.9885458 C48.2394618,32.3209098 48,32.7890994 48,32.7890994 L48.2394618,32.9085227 L48.4280223,33 L48.8223084,32.1542203 C48.8223084,32.1542203 49.9806331,30.9025364 49.999101,30.7713576 C50.0182561,30.6360249 49.7249504,30 49.7249504,30 C49.3278145,30.1142081 49.02914,30.1333082 48.9307068,30.2285558 Z M50.579721,30.9548747 C50.5854749,31.0990206 49.6864475,31.9546053 49.3753125,32.7675926 C49.1116075,33.4570717 49,33.84193 49,33.84193 C49,33.84193 49.2116835,34.1408808 49.3585925,33.9165306 C49.5055016,33.6921804 49.3338398,33.4258397 49.4201485,33.2003057 C49.5136205,32.9559701 49.5382638,32.6565638 49.9579822,32.2156066 C50.4030977,31.7480505 51.0048423,31.3392006 50.9999706,31.215876 C50.9954109,31.101951 50.3277584,30.0000447 50.3277337,30 C50.3277089,29.9999553 50.5746195,30.8293836 50.579721,30.9548747 Z M48.4628335,30.887124 C48.342835,30.9671958 48.1790874,32.1974243 47.7042475,32.9269997 C47.3014491,33.5456072 47.0556935,33.8621136 47.0556935,33.8621136 C47.0556935,33.8621136 46.6894127,33.8665769 46.7845649,33.6158552 C46.879717,33.3651336 47.1960915,33.3474597 47.3278213,33.145069 C47.4705515,32.9258317 47.6982913,32.7299082 47.8083289,32.1311608 C47.9249574,31.4962322 47.9020274,30.7690946 48.0046625,30.7005476 C48.0995099,30.637273 49.3834071,30.529731 49.3834578,30.5297247 C49.3835086,30.5297184 48.5673566,30.8174893 48.4628335,30.887124 Z M47.457145,34.0022253 C47.3232266,34.0162203 47.2258404,34.0988182 47.1716739,34.2020361 C47.0910125,34.3559834 47.1347519,34.561666 46.4944794,35.7819234 C46.213899,36.3168717 46.1008172,36.532055 45.7973415,37.1101162 C45.4889753,37.6982918 45.0406456,38.548022 45.0406456,38.548022 C45.0406456,38.548022 44.8883305,38.8195536 45.1734094,38.9606357 C45.4584883,39.1015909 45.5849565,38.818686 45.5849565,38.818686 C45.5849565,38.818686 46.0332862,37.9688394 46.3416524,37.3807802 C46.6451281,36.802846 46.7580791,36.5811666 47.0387903,36.0461337 C47.6788101,34.8258551 47.874356,34.7428034 47.9548812,34.5889726 C48.0415889,34.423779 48.0208776,34.2013485 47.7359283,34.0601499 C47.6290223,34.0074179 47.5374306,33.9939223 47.4572757,34.0022941 L47.4572757,34.0021691 L47.457147,34.0022941 L47.457147,34.0022941 L47.457145,34.0022253 L47.457145,34.0022253 Z M45.2689493,39.0026556 C45.1554293,39.0155723 45.0656733,39.0782096 45.0238477,39.1850801 C44.9402011,39.3993543 45.0834589,39.7137769 45.3462082,39.8882464 C45.6088195,40.0623563 45.8931714,40.0292692 45.9768111,39.8151687 C46.0604577,39.6010743 45.9102742,39.2864719 45.647518,39.1120024 C45.5162123,39.0247707 45.3827222,38.9895592 45.2692022,39.0026526 L45.2690664,39.0026526 L45.2689306,39.0026526 L45.2689306,39.0026526 L45.2689493,39.0026556 L45.2689493,39.0026556 Z M44.3730781,40.00084 C44.2181454,39.9915908 44.0827756,40.0588576 44.0269923,40.1960552 C43.9377881,40.4153683 44.076848,40.7303966 44.3385329,40.897729 C44.6001109,41.0647767 44.8838167,41.0228695 44.9730189,40.8035563 C45.0622231,40.5841009 44.9230515,40.2693455 44.6614783,40.1020249 C44.5633321,40.0395235 44.4661892,40.0064509 44.3730781,40.0008447 C44.3730781,40.0008447 44.4661892,40.0064509 44.3730781,40.0008447 L44.3730781,40.00084 L44.3730781,40.00084 Z M44.2688674,41.0025884 C44.1555705,41.0156809 44.0657482,41.0781351 44.0238171,41.1853546 C43.940235,41.3992633 44.0835178,41.7138349 44.3459288,41.8880926 C44.6083375,42.0625451 44.8923321,42.0291016 44.9761829,41.8152004 C45.059765,41.6011269 44.9164822,41.2865553 44.6540712,41.1122826 C44.522729,41.0248826 44.3824262,40.9896745 44.2691316,41.0025899 L44.2688602,41.0025899 L44.2688602,41.0025899 L44.2688674,41.0025884 L44.2688674,41.0025884 Z M43.6576697,41.0026802 C43.5066247,41.0226564 43.4343203,41.1799266 43.4343203,41.1799266 C43.4343203,41.1799266 41.8834741,44.3219482 41.336246,45.4276778 C41.1613402,45.7808886 40.4252769,46.0008926 40.1371371,46.5832859 C39.8469146,47.1690942 40.0517259,47.7174559 40.4304572,47.9160003 C40.8090588,48.1146201 41.3650359,47.9702041 41.6551014,47.3842719 C41.9432308,46.8020294 41.6843957,46.056513 41.8590482,45.7034854 C42.4063706,44.5975403 43.9575411,41.4556265 43.9575411,41.4556265 C43.9575411,41.4556265 44.1103129,41.1791402 43.8362802,41.0354837 C43.7678029,40.9996024 43.7082274,40.9960398 43.6577953,41.0027837 L43.6576717,41.0027837 L43.6576717,41.0027837 L43.6576697,41.0026802 L43.6576697,41.0026802 Z M40.3999196,49.0003481 C40.2428808,49.0052611 40.1032206,49.0891596 40.0378459,49.2342797 C39.9331597,49.4666967 40.0528813,49.7763443 40.3078123,49.9232221 C40.5628518,50.0702386 40.8583249,49.9995621 40.9630111,49.7672677 C41.0676974,49.5348507 40.9421842,49.2250751 40.6872551,49.0781973 C40.5915834,49.0230213 40.4940259,48.9973222 40.3999196,49.0002201 L40.3999196,49.0003461 L40.3999196,49.0003461 L40.3999196,49.0003481 L40.3999196,49.0003481 Z M38.2592764,54.0005464 C38.1479988,54.0057272 38.0559906,54.0547303 38.0188441,54.1566209 C37.9440893,54.3599706 38.0984162,54.6816089 38.3637155,54.8694232 C38.6288594,55.0570182 38.9062671,55.0395289 38.9811785,54.8359636 C39.0559333,54.6321752 38.9012945,54.3107562 38.6363071,54.1231612 C38.5035772,54.0292577 38.3708605,53.995151 38.2592632,54.0005464 C38.2592632,54.0005464 38.3708605,53.995151 38.2592632,54.0005464 L38.2592764,54.0005464 L38.2592764,54.0005464 Z M37.0000256,56 L38,54.8305211 L37.5676235,54.1949456 L37,54 L37.0000256,56 Z M37.0000256,56" fill="#F5D402" id="path2220"/><path d="M7.32239134,47.9320338 L6.06814974,48.229153 C6.06814974,48.229153 7.75910879,49.8828289 9.19324207,49.9913156 C10.4094144,50.083008 11,49.4183888 11,49.4183888 L10.7563905,48.0076884 C10.0338403,46.56999 10.0122776,47.0239055 8.82156064,46.5699907 C7.61822963,46.1110869 6,46 6,46 C6.6485087,47.7029759 7.32239134,47.9320338 7.32239134,47.9320338 Z M7.32239134,47.9320338" fill="#000000" id="path2280"/><path d="M10.0912747,45.279301 C9.80746651,46.2802588 10.2761405,47.4178295 10.2761405,47.4178295 L11.1468724,49 C12.3590262,48.547917 12.5678881,47.9887395 12.8670425,47.4389472 C13.1661969,46.8891549 12.8670424,44.8862411 12.8670424,44.8862411 C12.8670424,44.8862411 12.1775744,45.4672302 12.0559764,45.6206709 C12.2577431,44.5828953 11.4111463,43.4143741 11.4111463,43.4143741 C10.7511935,44.3468596 10.3748219,44.2785201 10.0912747,45.279301 Z M10.0912747,45.279301" fill="#000000" id="path2282"/><path d="M5.68817669,42.9446626 C5.68817669,42.9446626 4.21635569,42.29414 4,41.5840419 C4,41.5840419 4.9058606,41.1684691 5.30980829,41.2547052 C4.86539592,41.0649282 4.21635569,39.1589197 4.21635569,39.1589197 C4.21635569,39.1589197 4.98069267,38.8013503 5.79269004,39.1589197 C6.60465657,39.5167737 7.46864409,41.195721 7.46864409,41.195721 L8,42.5052944 C6.65550246,43.2298746 5.68817669,42.9446626 5.68817669,42.9446626 Z M5.68817669,42.9446626" fill="#000000" id="path2284"/><path d="M8.99492835,38.7456395 C9.16729673,38.4567167 9.81950402,38.006951 9.81950402,38.006951 C9.81950402,38.006951 10.2139077,40.0281101 9.83669057,41.2765175 C9.45972702,42.5248088 8.31148183,43 8.31148183,43 L7.04498615,40.3274121 C7.04498615,40.3274121 6.85644018,39.3372427 7.25134674,38.5531946 C7.64638169,37.7691232 8.57091176,37.0633023 8.57091176,37.0633023 C8.48265745,36.6576368 9.12536845,38.3162777 8.99492835,38.7456395 Z M8.99492835,38.7456395" fill="#000000" id="path2286"/><path d="M3.40022791,34.4858288 L4.56207298,35.478146 L5,36.5984691 C3.96292706,37.1806831 3.73455751,37.0513331 2.73463521,36.7050649 C1.73471291,36.3585594 1,35.2128823 1,35.2128823 C1,35.2128823 1.69879568,34.960004 1.96480278,35.0548074 C1.57728627,34.8912466 1.1742405,34.181768 1.1742405,34.181768 C2.73463525,33.6384361 3.40022791,34.4858288 3.40022791,34.4858288 Z M3.40022791,34.4858288" fill="#000000" id="path2293"/><path d="M5.4726808,33.416513 L6.37742876,32.5903818 C6.37742876,32.5903818 7.14412815,34.1431128 6.97586554,35.2453652 C6.80760293,36.3478205 5.70437833,37 5.70437833,37 L4.32862117,34.814671 C4.85763352,36.2110149 3.88026037,33.9190301 4.0124286,33.2244001 C4.14460895,32.5298411 4.85760931,32.0364147 4.85760931,32.0364147 C4.7977422,31.7328812 5.4726808,33.416513 5.4726808,33.416513 Z M5.4726808,33.416513" fill="#000000" id="path2295"/><path d="M1.0481026,29.0634198 L1.59212123,29.8840108 C0.958367784,29.4496636 0,29.412219 0,29.412219 C0,29.412219 0.341056763,30.8366795 1.15623573,31.4865764 C1.97137171,32.1364509 3.2281964,31.9845962 3.2281964,31.9845962 C3.2281964,31.9845962 4.05463789,30.8419474 3.99713239,29.6109046 C3.93963333,28.3798617 2.99819587,27.0603133 2.99819587,27.0603133 C2.99819587,27.0603133 2.62693018,27.8602009 2.59418503,28.4572065 C2.35391067,27.8415958 0.894596961,27.0001563 0.894596961,27.0001563 L1.0481026,29.0634198 Z M1.0481026,29.0634198" fill="#000000" id="path2297"/><path d="M1.2168278,29.3276972 C1.45884354,29.8083455 1.99920319,30 1.99920319,30 C1.99920319,30 2.02499659,29.1530894 1.7830781,28.6725301 C1.54106236,28.1918818 1.00080508,28 1.00080508,28 C1.00080508,28 0.974911015,28.8471675 1.2168278,29.3276972 Z M1.2168278,29.3276972" fill="#097754" id="path2299"/><path d="M2.32657659,30.5363565 C2.8119329,31.009761 3,31.9960911 3,31.9960911 C3,31.9960911 2.44261943,32.0680348 1.95725183,31.5946317 C1.47176001,31.1210548 1,30 1,30 C1,30 1.84097184,30.0629506 2.32657659,30.5363565 Z M2.32657659,30.5363565" fill="#097754" id="path2301"/><path d="M3.00333147,29.4263325 C3.04492412,30.1663672 3.56698373,31 3.56698373,31 C3.56698373,31 4.03899044,30.1116393 3.9974051,29.3714597 C3.95598634,28.631425 3.44997201,28.2095806 3.32347719,28 C3.32347719,28 2.96173153,28.6864792 3.00333147,29.4263325 Z M3.00333147,29.4263325" fill="#097754" id="path2304"/><path d="M3.34226007,34.7696659 C4.00808838,34.9918017 5,35 5,35 C5,35 4.50488992,34.5664812 3.83904977,34.3442496 C3.17322146,34.1221138 2.24399997,34.1397477 2.24399997,34.1397477 C2.79315367,34.4548027 2.67643175,34.5474344 3.34226007,34.7696659 Z M3.34226007,34.7696659" fill="#097754" id="path2306"/><path d="M2.67354308,35.7836948 C3.1091498,36.0189491 4,35.9996147 4,35.9996147 C4,35.9996147 3.65817305,35.4870081 3.22277901,35.2517537 C2.78727863,35.0163743 2,35 2,35 C2,35 2.23814904,35.5485655 2.67354308,35.7836948 Z M2.67354308,35.7836948" fill="#097754" id="path2308"/><path d="M5.00328546,32.9535754 C5.05118138,33.4536447 5.63407729,34 5.63407729,34 C5.63407729,34 6.04399922,33.373624 5.99610822,32.8736287 C5.94840604,32.3735593 5.44326855,32 5.44326855,32 C5.44326855,32 4.95557507,32.4537187 5.00328546,32.9535754 Z M5.00328546,32.9535754" fill="#097754" id="path2310"/><path d="M6.00978552,34.6296965 C5.93630893,35.3055664 6.30072432,36 6.30072432,36 C6.30072432,36 6.91874024,35.4058645 6.99221482,34.7300332 C7.06569141,34.053932 6.59487429,33.2965976 6.59487429,33.2965976 C6.30232486,33.9630024 6.0832601,33.9537399 6.00978552,34.6296965 Z M6.00978552,34.6296965" fill="#097754" id="path2312"/><path d="M6.04305313,41.3830082 C6.31728025,41.5472197 6.62350843,41.4663851 7.08904913,41.5601895 C7.55446183,41.6541141 8,42 8,42 C8,42 7.08904913,40.7102524 6.64308669,40.4748004 C6.19712422,40.2393485 5,40 5,40 C5,40 5.0668527,40.4748004 5.2880109,40.8481678 C5.50916908,41.2215352 5.768826,41.2187966 6.04305313,41.3830082 Z M6.04305313,41.3830082" fill="#097754" id="path2320"/><path d="M6.61560166,42.123944 C7.34362139,42.2154196 8,42.7554299 8,42.7554299 C8,42.7554299 7.01608793,43.0749325 6.28822124,42.9835728 C5.56007034,42.8920971 5.00362201,42.3868622 5.00362201,42.3868622 C4.93240505,41.7961169 5.89867789,42.0338493 6.61560166,42.123944 Z M6.61560166,42.123944" fill="#097754" id="path2322"/><path d="M8.00367286,39.7297012 C7.94807276,40.3871523 8.54212536,41 8.54212536,41 C8.54212536,41 8.51295485,40.5783172 8.61516166,40.3006156 C8.71748175,40.023034 8.93494443,39.726551 8.93494443,39.726551 C8.93494443,39.726551 9.02761096,39.3880246 8.99175065,39.1165835 C8.94163423,38.737304 8.72339719,38.3145511 8.72339719,38.3145511 C8.36353873,39.0220961 8.05230636,39.1556364 8.00367286,39.7297012 Z M8.00367286,39.7297012" fill="#097754" id="path2324"/><path d="M9.04956385,40.1342455 C8.88692195,41.0372529 9.17663496,42 9.17663496,42 C9.17663496,42 9.73601249,41.4021821 9.89865439,40.4993355 C10.0612963,39.5963281 9.82708849,38.3881683 9.82708849,38.3881683 C9.43837864,39.2611451 9.21208712,39.2311886 9.04956385,40.1342455 Z M9.04956385,40.1342455" fill="#097754" id="path2326"/><path d="M11.9710106,45.2043938 C12.0334595,45.7150796 11.9755731,45.8918359 11.9755731,45.8918359 C11.9755731,45.8918359 11.7214977,46.1892146 11.6076301,46.3640452 C11.4612497,46.5887822 11.4397702,47 11.4397702,47 C11.4397702,47 10.9296236,46.0971047 11.008234,45.4370829 C11.086842,44.7771377 11.6629503,44.0828357 11.6629503,44.0828357 C11.5641866,43.6362508 11.9628239,45.1373274 11.9710106,45.2043938 Z M11.9710106,45.2043938" fill="#097754" id="path2328"/><path d="M11.1204087,46.614997 L11,48 C11,48 11.4487318,47.9366532 11.698797,47.2524842 C11.9486838,46.5683201 11.9999041,45.2634556 11.9999041,45.2634556 C11.8136011,44.2193003 11.1204087,46.614997 11.1204087,46.614997 Z M11.1204087,46.614997" fill="#097754" id="path2330"/><path d="M8.97757692,48.2688864 C9.72721127,48.4281357 10,48.7756589 10,48.7756589 C10,48.7756589 9.15712265,49.1169709 8.40761411,48.9576127 C7.65797976,48.7983634 7.00163036,48.1382354 7.00163036,48.1382354 C6.94860121,47.8301697 8.23384266,48.1106657 8.97757692,48.2688864 Z M8.97757692,48.2688864" fill="#097754" id="path2333"/><path d="M8.49569898,47.6287884 C9.73124445,48.2159643 11,47.9307395 11,47.9307395 L9.2654176,46.4333795 L7.00205481,46.0308879 C6.97099849,45.7877459 7.26513171,47.0439782 8.49569898,47.6287884 Z M8.49569898,47.6287884" fill="#097754" id="path2335"/><path d="M11.0001129,48.3099593 L11.0310607,48.6838355 C11.7174882,48.6896036 11.8197187,48.6278322 11.9956707,48.8235263 C12.1128574,48.9539913 12.3916189,49.0677809 12.6717838,48.9519935 C12.9521744,48.8362149 13.0778207,48.5315537 12.9498583,48.2779668 C12.8218959,48.0243799 12.5613195,47.9693187 12.3102624,48.0141064 C12.1562149,48.0415837 12.0547891,48.152856 11.9240494,48.2139996 C11.6754164,48.3305151 11,48.3099593 11,48.3099593 L11.0001159,48.3099593 L11.0001159,48.3099593 L11.0001129,48.3099593 L11.0001129,48.3099593 Z M11.0001129,48.3099593" fill="#000000" id="path2350"/><path d="M12.9547541,49.292948 L12.9549444,49.2931381 C13.0693118,49.5433764 12.9583697,49.8405936 12.7079356,49.9548696 C12.4575111,50.0693419 12.1598792,49.9584825 12.0455182,49.7078674 C12.044757,49.7063462 12.0432347,49.7025431 12.0422831,49.7010218 L12.0451375,49.7071067 C11.9305799,49.4566753 12.0417121,49.1592648 12.2921463,49.0449889 C12.5425708,48.9307065 12.8402027,49.0417562 12.9543703,49.291991 C12.9553218,49.2937024 12.9568441,49.2973154 12.9576054,49.2990268 L12.9545606,49.2925615 L12.9545606,49.2929418 L12.9547509,49.2929418 L12.9547509,49.2929418 L12.9547541,49.292948 L12.9547541,49.292948 Z M12.9547541,49.292948" fill="#F5D402" id="path2348"/><path d="M11.5511935,48.0000104 L12,48.2596073 C11.5186395,48.8808188 11.3683561,48.9342888 11.4896719,49.2141581 C11.5704951,49.4005017 11.5156782,49.7218004 11.1702768,49.9021081 C10.8250258,50.0824263 10.3519192,50.0063423 10.1234615,49.733841 C9.89516203,49.4613397 10.0111801,49.192897 10.2463318,48.994877 C10.3906951,48.8731906 10.6026451,48.8511907 10.7726929,48.7715372 C11.0962941,48.6199834 11.5510339,48 11.5510339,48 L11.5511896,48 L11.5511896,48 L11.5511935,48.0000104 L11.5511935,48.0000104 Z M11.5511935,48.0000104" fill="#000000" id="path2357"/><path d="M10.0828558,49.7757568 L10.0830461,49.7763276 C10.235132,50.0059738 10.5465398,50.0691362 10.7760948,49.9173113 C11.0058433,49.7654832 11.0692272,49.4542172 10.9173315,49.2247643 C10.915999,49.223052 10.9140956,49.2198175 10.9131439,49.2181051 L10.9167605,49.2236227 C10.7648648,48.9941698 10.4534602,48.9308141 10.2239052,49.082639 C9.99415672,49.2344671 9.93077284,49.5453465 10.0826685,49.7749927 C10.0838106,49.7765148 10.0859044,49.7801298 10.0870464,49.7816519 L10.0830492,49.7755636 L10.0828588,49.7755636 L10.0828588,49.7757538 L10.0828588,49.7757538 L10.0828558,49.7757568 L10.0828558,49.7757568 Z M10.0828558,49.7757568" fill="#F5D402" id="path2359"/><path d="M8.0001109,42.3100117 L8.03094444,42.6839277 C8.71752237,42.6895915 8.81964,42.6279184 8.99560032,42.8235267 C9.11267492,42.9538991 9.39156745,43.0678074 9.67174566,42.9520076 C9.95226736,42.8362168 10.0779197,42.5316208 9.94971565,42.2780069 C9.82174719,42.0242865 9.56127607,41.969326 9.31020703,42.0141185 C9.15603443,42.0417035 9.05472157,42.1528828 8.92409344,42.2140329 C8.67534057,42.3304543 8,42.3100028 8,42.3100028 L8.00011592,42.3100028 L8.00011592,42.3100028 L8.0001109,42.3100117 L8.0001109,42.3100117 Z M8.0001109,42.3100117" fill="#000000" id="path2361"/><path d="M10.9546718,43.2925491 L10.9548621,43.2931197 C11.0694208,43.5434146 10.9582874,43.8408924 10.7078507,43.955001 C10.4576009,44.0693092 10.1597888,43.9582344 10.04562,43.7079428 C10.0448588,43.706231 10.0433365,43.7028075 10.0423849,43.7009055 L10.045049,43.7069918 C9.93068038,43.4566969 10.0416236,43.1592191 10.2924309,43.0449172 C10.5426807,42.930799 10.8402995,43.0416839 10.9546616,43.2919754 C10.9554228,43.2936872 10.9569452,43.2974911 10.9578967,43.2992029 L10.9546616,43.2925459 L10.9544713,43.2925459 L10.9546616,43.2925459 L10.9546616,43.2925459 L10.9546718,43.2925491 L10.9546718,43.2925491 Z M10.9546718,43.2925491" fill="#F5D402" id="path2363"/><path d="M8.64551165,43 L9,43.330757 C8.45997814,43.9187352 8.31606998,43.9553707 8.37458366,44.2642171 C8.41369004,44.4700779 8.30748408,44.7996539 7.96707213,44.9435798 C7.6269353,45.0875058 7.21857816,44.9463176 7.06299822,44.6309473 C6.90770412,44.3157099 7.05905947,44.0494927 7.30410365,43.8725738 C7.45447893,43.7641045 7.64789684,43.7684072 7.81361216,43.7072671 C8.12941693,43.5907156 8.64552356,43 8.64552356,43 L8.6453829,43 L8.64552356,43 L8.64552356,43 L8.64551165,43 L8.64551165,43 Z M8.64551165,43" fill="#000000" id="path2365"/><path d="M7.04530503,44.7076122 L7.04568557,44.7081827 C7.16003682,44.9584703 7.45762005,45.0691617 7.70800907,44.9550565 C7.95822089,44.8405616 8.0693277,44.5434821 7.95498289,44.2931945 C7.95422182,44.2914828 7.95250945,44.2878691 7.95174828,44.2861574 L7.95441197,44.2920533 C7.84006073,44.0417657 7.5426708,43.9306878 7.29208847,44.0450024 C7.04169945,44.1593073 6.93076985,44.45677 7.04493745,44.7068644 C7.04588879,44.7087663 7.04760114,44.71238 7.04855257,44.7140917 L7.04531795,44.7076251 L7.04531795,44.7076251 L7.04530503,44.7076122 L7.04530503,44.7076122 Z M7.04530503,44.7076122" fill="#F5D402" id="path2367"/><path d="M6,37.3100736 L6.03094805,37.6839506 C6.71749712,37.6896139 6.81961046,37.6279471 6.99568115,37.8237482 C7.1128686,37.9539028 7.39152369,38.0677902 7.67191584,37.9520115 C7.95207246,37.8362327 8.07783723,37.531775 7.94987415,37.2778768 C7.82167554,37.0242894 7.56133313,36.9693346 7.31015688,37.0141135 C7.15599076,37.0416957 7.05468215,37.1528634 6.92394174,37.2140071 C6.67530728,37.3305229 6.00000491,37.3098605 6.00000491,37.3098605 L6.00000491,37.3100702 L6.00000491,37.3100702 L6,37.3100736 L6,37.3100736 Z M6,37.3100736" fill="#000000" id="path2370"/><path d="M7.95471039,37.2927832 L7.95490066,37.2929733 C8.06944591,37.5432411 7.95813539,37.8408798 7.70774121,37.954976 C7.45734365,38.0692718 7.15974382,37.9583992 7.04558844,37.7079447 C7.04482734,37.7064233 7.04311491,37.7028099 7.04235372,37.7009081 L7.0450175,37.7068036 C6.93066236,37.4565359 7.04178278,37.1592836 7.29217695,37.0449942 C7.54257451,36.9306983 7.84017434,37.0417611 7.95415251,37.2920254 C7.95510389,37.293737 7.9568163,37.2973504 7.95776776,37.299062 L7.95453303,37.2925959 L7.95472331,37.2927861 L7.95472331,37.2927861 L7.95471039,37.2927832 L7.95471039,37.2927832 Z M7.95471039,37.2927832" fill="#F5D402" id="path2374"/><path d="M5.64561702,37.0001325 L6,37.330769 C5.4599209,37.9187685 5.31627144,37.9555268 5.37451737,38.2643954 C5.4136279,38.4701312 5.30741068,38.7997191 4.96709367,38.9436503 C4.62692078,39.08746 4.21837743,38.9462578 4.06292393,38.6310065 C3.9077444,38.3156252 4.05912544,38.0493983 4.30405492,37.8726055 C4.45444614,37.7638717 4.64774162,37.768435 4.81374846,37.7070278 C5.1295867,37.5904721 5.64561702,37 5.64561702,37 L5.64561702,37.0001304 L5.64561702,37.0001304 L5.64561702,37.0001325 L5.64561702,37.0001325 Z M5.64561702,37.0001325" fill="#000000" id="path2376"/><path d="M5.04522648,38.707726 L5.04560704,38.7079162 C5.15977546,38.9584033 5.45737441,39.0690974 5.70777936,38.9551665 C5.95837764,38.8406687 6.0693143,38.5433887 5.95494611,38.2930948 C5.95399471,38.2913831 5.95247251,38.2877693 5.95152102,38.2860575 L5.95437515,38.2921438 C5.84001663,38.04185 5.54241446,37.9305761 5.29200951,38.0450867 C5.04178177,38.1592045 4.93066789,38.4566713 5.04501997,38.7069652 C5.04578109,38.7086769 5.04749357,38.7122907 5.04825479,38.7140025 L5.04521024,38.707726 L5.04521024,38.707726 L5.04522648,38.707726 L5.04522648,38.707726 Z M5.04522648,38.707726" fill="#F5D402" id="path2378"/><path d="M3.0001109,31.3101112 L3.03094297,31.6838729 C3.71748819,31.6896409 3.81971872,31.6278708 3.99555289,31.8234542 C4.11285744,31.9539165 4.39161893,32.0677037 4.67178378,31.9521318 C4.95217436,31.8361426 5.07782066,31.5317009 4.9498583,31.2780128 C4.82189593,31.0243247 4.56131945,30.9692647 4.31014461,31.014158 C4.15621489,31.0417395 4.05478909,31.1530112 3.92404941,31.2140469 C3.67541635,31.3304535 3,31.3100046 3,31.3100046 L3,31.3101095 L3.00011591,31.3101095 L3.00011591,31.3101095 L3.0001109,31.3101112 L3.0001109,31.3101112 Z M3.0001109,31.3101112" fill="#000000" id="path2380"/><path d="M4.95452025,31.2925455 L4.9549008,31.2929259 C5.06944569,31.5435957 4.95813552,31.8408665 4.70774211,31.9549698 C4.45734531,32.0692727 4.15993971,31.9583932 4.04539804,31.7081002 C4.04463694,31.7063885 4.04311478,31.7027749 4.04216333,31.700873 L4.04501736,31.706959 C3.93066257,31.4566757 4.04178265,31.1594049 4.29217606,31.0449152 C4.54257285,30.9308022 4.83997845,31.0416819 4.9543268,31.2919618 C4.9550879,31.2936736 4.95680032,31.2972872 4.95756152,31.2989989 L4.95451706,31.2925324 L4.95451706,31.2925324 L4.95452025,31.2925455 L4.95452025,31.2925455 Z M4.95452025,31.2925455" fill="#F5D402" id="path2382"/><path d="M3.64573791,31.0001304 L4,31.3308658 C3.46001834,31.9188057 3.31609788,31.9554388 3.3746214,32.2643975 C3.41373437,32.4701124 3.30736997,32.7996669 2.96717235,32.9435835 C2.62683537,33.0875001 2.21840954,32.9463211 2.0630774,32.6309714 C1.90761424,32.3157545 2.059138,32.0492898 2.30393751,31.8726473 C2.45448102,31.7641851 2.64778853,31.7684874 2.81366275,31.7070864 C3.1293777,31.590675 3.64558306,31.0001304 3.64558306,31.0001304 L3.64558306,31 L3.64558306,31.0001304 L3.64572375,31.0001304 L3.64572375,31.0001304 L3.64573791,31.0001304 L3.64573791,31.0001304 Z M3.64573791,31.0001304" fill="#000000" id="path2384"/><path d="M2.04531518,32.707369 L2.04569577,32.7079396 C2.15987478,32.9582333 2.45750132,33.0693138 2.70775226,32.9549965 C2.95837378,32.8406888 3.06932073,32.5436054 2.95494193,32.2931185 C2.95418074,32.2914067 2.95265838,32.2877929 2.95170681,32.2860812 L2.95456121,32.2919772 C2.84019208,32.0416836 2.54256231,31.9307962 2.29213414,32.0449203 C2.04170597,32.159418 1.93075902,32.4568912 2.04494447,32.7069916 C2.04589596,32.7087034 2.0474183,32.7123171 2.04817959,32.7140289 L2.0453252,32.7073719 L2.0453252,32.7073719 L2.04531518,32.707369 L2.04531518,32.707369 Z M2.04531518,32.707369" fill="#F5D402" id="path2386"/><path d="M7.95029412,41.9914193 C7.64683282,42.120107 7.19671773,40.7701852 6.86624444,40.0306827 C6.52719074,39.2717397 5.83879651,38.1020993 6.03434297,38.0107096 C6.2488898,37.9106557 6.531487,38.5248542 6.878395,39.3014197 C7.225303,40.0777502 8.23444039,41.8702259 7.95014889,41.9910483 L7.95014889,41.9913405 L7.95029183,41.9913405 L7.95029183,41.9913405 L7.95029412,41.9914193 L7.95029412,41.9914193 Z M7.95029412,41.9914193" fill="#F5D402" id="path2340"/><path d="M4.95485047,35.9869191 C4.76148905,36.1203353 4.54981219,35.2069567 4.33923086,34.4426859 C4.12308701,33.6586472 3.91259826,33.1048189 4.03724975,33.0103887 C4.17411412,32.9070062 4.37613178,33.5940028 4.55309107,34.2357318 C4.72448784,34.8575268 5.1360916,35.8618727 4.95485047,35.9868425 C4.95485047,35.9868425 5.1360916,35.8618727 4.95485047,35.9868425 L4.95485047,35.9869191 L4.95485047,35.9869191 Z M4.95485047,35.9869191" fill="#F5D402" id="path2342"/><path d="M10.981583,49.9987018 C10.7742852,50.0591806 9.86929411,47.9947989 9.13753064,46.2479567 C8.40600947,44.5013442 7.86110589,43.0881414 8.03135205,43.0037557 C8.21824355,42.9107316 8.81053371,44.5605864 9.54249735,46.3075434 C10.2742714,48.0543856 11.1369748,49.9532369 10.9816884,49.9987018 L10.9815639,49.9987018 L10.9815639,49.9987018 L10.981583,49.9987018 L10.981583,49.9987018 Z M10.981583,49.9987018" fill="#F5D402" id="path2337"/><path d="M24.9998633,5.50013509 C24.9999978,5.77546533 24.5508351,6 23.9999316,6 C23.4491763,6 23,5.77546533 23,5.50004503 C23,5.22462474 23.4491649,5 23.9999316,5 C24.5508237,5 25,5.22462474 25,5.50004503 L24.9998654,5.50013368 L24.9998654,5.50013368 L24.9998633,5.50013509 L24.9998633,5.50013509 Z M24.9998633,5.50013509" fill="#000000" id="path2193"/><path d="M20.0167914,4.02742678 L21.2811294,4 C21.410433,4.45361685 22,5.21168874 22,6 C22,6 21.4016498,4.54373492 19.7313419,4.54373492 C19.3115933,4.54373492 19.0349559,4.73880373 19.0349559,4.73880373 C18.7781479,4.65169015 20.0167914,4.02742678 20.0167914,4.02742678 Z M20.0167914,4.02742678" fill="#CC092F" id="path2192"/><path d="M21.0004201,5.11071324 C20.988691,5.07106539 21.225361,4.91123071 21.359787,5.06661294 C21.4523633,5.17374928 21.4633084,5.41695104 21.4633084,5.41695104 C21.1415398,5.34210397 21.0014025,5.11403417 21.0004201,5.11071324 Z M21.0004201,5.11071324" fill="#000000" id="path2194"/><path d="M21.5397163,7 C21.1655478,6.85350549 20,6 20,6 C20,6 21.0660933,6.49234618 21.999846,6.36878023 C19.8517712,5.76001345 21.6134707,6.80267256 21.5397163,7 Z M21.5397163,7" fill="#D10429" id="path2196"/><path d="M24,5.50014766 C24.0000969,5.7755082 23.7754097,6 23.4999508,6 C23.2244918,6 23,5.7755082 23,5.50004922 C23,5.22468868 23.2244918,5 23.4999508,5 C23.7753113,5 24,5.22468868 24,5.50004922 L23.9999031,5.50014611 L24,5.50014611 L24,5.50014611 L24,5.50014766 L24,5.50014766 Z M24,5.50014766" fill="#F5D402" id="path2191"/><path d="M25,5.5 C25,5.77526581 24.7756775,6 24.5,6 C24.2245194,6 24,5.77526581 24,5.5 C24,5.22451939 24.2247342,5 24.5,5 C24.7754806,5 25,5.22451939 25,5.5 C25,5.5 25,5.22451939 25,5.5 L25,5.5 L25,5.5 Z M25,5.5" fill="#000000" id="path2189"/><path d="M12.8321064,19.8260142 L12.8321064,37.7997724 L12.8321064,40.5228524 C12.8321064,41.0680956 12.9974104,41.423191 13.2599075,41.77022 C13.522275,42.1440231 14.0814595,42.6604234 14.6616486,43.0445488 C16.4538902,44.2306209 19.4501389,45.4811799 21.717115,46.5320059 C23.6062257,47.4076503 24.3745915,47.7608858 25.3566743,49 C26.338811,47.7609959 27.1137103,47.4078593 29.0028211,46.5320059 C31.2694732,45.4811578 34.2659379,44.2305109 36.0581795,43.0445488 C36.6386601,42.6604674 37.1977151,42.1440781 37.4599206,41.77022 C37.7224177,41.423191 37.8810909,41.0680956 37.8810909,40.5228524 L37.8810909,37.7997724 L37.8810909,19.8260142 C37.8810909,18.957908 39,18.102369 39,18.102369 L37.808628,18.102369 L37.111062,18.102369 L25.3560911,18.102369 L13.6022001,18.102369 L12.9045045,18.102369 L12.9045045,18.102369 C12.246528,18.102369 8.79386739,13.5895772 8.4457971,13.0482531 L12.8321064,19.8260142 Z M13.4525218,19 L25.1639274,19 L36.875333,19 C36.875333,19 37,19.4014411 37,20.0606942 L37,37.9396168 L37,40.6483289 C37,41.0976062 36.5417543,42.150189 33.8985487,43.4901504 C29.5292314,45.7051752 26.1709577,46.7395102 25.1645407,48 C24.1579623,46.7394008 20.7997423,45.7052847 16.4305327,43.4901504 C13.7872087,42.150189 13.3289738,41.0976828 13.3289738,40.6483289 L13.3289738,37.9396168 L13.3289738,20.0606942 C13.3289738,19.401452 13.001119,19 13.001119,19 L13.4525218,19 Z M13.4525218,19" fill="#F5D402" id="rect2189"/></g></g></g></svg>