<?xml version="1.0" encoding="UTF-8" standalone="no"?>
<svg width="180px" height="120px" viewBox="0 0 180 120" version="1.1" xmlns="http://www.w3.org/2000/svg" xmlns:xlink="http://www.w3.org/1999/xlink">
    <!-- Generator: Sketch 40.2 (33826) - http://www.bohemiancoding.com/sketch -->
    <title>icon-flag-es</title>
    <desc>Created with Sketch.</desc>
    <defs></defs>
    <g id="Page-1" stroke="none" stroke-width="1" fill="none" fill-rule="evenodd">
        <g id="icon-flag-es">
            <rect id="Oval-1-copy-4" fill="#CA4638" x="0" y="0" width="180" height="120"></rect>
            <rect id="Oval-1-copy-5" fill="#E5B731" x="0" y="0" width="180" height="90"></rect>
            <rect id="Oval-1-copy-5_1_" fill="#CA4638" x="0" y="0" width="180" height="30"></rect>
            <path d="M20.2,52 C20.2,52 20,52 20,51.9 L19.6,51.5 L19.4,51.3 L19.2,51 C19.2,51 19,50.6 19.1,50.2 C19.2,49.9 19.4,49.7 19.5,49.6 C19.7,49.5 20,49.4 20,49.4 C20,49.4 20.3,49.3 20.4,49.2 C20.5,49.2 20.8,49.1 20.8,49.1 C20.8,49.1 20.9,49 21,49 C21.1,49 21.2,49 21.3,48.9 C21.4,48.9 21.5,48.8 21.7,48.8 L22.2,48.8 L22.7,48.8 L23.4,48.8 L23.8,48.8 C23.9,48.8 24.2,48.9 24.3,49 C24.4,49 24.8,49.2 25,49.3 C25.2,49.4 25.5,49.4 25.7,49.5 C25.9,49.6 26,49.8 26.1,49.9 C26.2,50 26.2,50.2 26.2,50.3 L26.2,50.7 C26.2,50.8 26,51 26,51 L25.8,51.4 L25.6,51.6 C25.6,51.6 25.4,51.8 25.3,51.8 C25.2,51.8 23.7,51.5 22.8,51.5 C21.6,51.7 20.2,52 20.2,52 L20.2,52 L20.2,52 L20.2,52 L20.2,52 L20.2,52 Z" id="path556" fill="#B50027"></path>
            <path d="M27,85.4 C26.6,85.4 26.2,85.3 25.9,85.2 C25.6,85.1 25.2,85 24.8,85 C24.4,85 24,85.1 23.7,85.2 C23.4,85.3 23,85.4 22.6,85.4 C22.2,85.4 21.8,85.3 21.5,85.2 C21.2,85.1 20.8,85 20.4,85 C20,85 19.6,85.1 19.3,85.2 C19,85.3 18.6,85.4 18.2,85.4 L18.2,86 C18.6,86 19,85.9 19.3,85.8 C19.6,85.7 20,85.6 20.4,85.6 C20.8,85.6 21.2,85.7 21.5,85.8 C21.8,85.9 22.2,86 22.6,86 C23,86 23.4,85.9 23.7,85.8 C24,85.7 24.4,85.6 24.8,85.6 C25.2,85.6 25.6,85.7 25.9,85.8 C26.2,85.9 26.6,86 27,86 L27,85.4" id="path655" fill="#005BBF"></path>
            <path d="M27,85.4 C26.6,85.4 26.2,85.3 25.9,85.2 C25.6,85.1 25.2,85 24.8,85 C24.4,85 24,85.1 23.7,85.2 C23.4,85.3 23,85.4 22.6,85.4 C22.2,85.4 21.8,85.3 21.5,85.2 C21.2,85.1 20.8,85 20.4,85 C20,85 19.6,85.1 19.3,85.2 C19,85.3 18.6,85.4 18.2,85.4 L18.2,86 C18.6,86 19,85.9 19.3,85.8 C19.6,85.7 20,85.6 20.4,85.6 C20.8,85.6 21.2,85.7 21.5,85.8 C21.8,85.9 22.2,86 22.6,86 C23,86 23.4,85.9 23.7,85.8 C24,85.7 24.4,85.6 24.8,85.6 C25.2,85.6 25.6,85.7 25.9,85.8 C26.2,85.9 26.6,86 27,86 L27,85.4 L27,85.4 L27,85.4 L27,85.4 L27,85.4 Z" id="path656" fill="#0044AD"></path>
            <path d="M27,85.4 C26.6,85.4 26.2,85.3 25.9,85.2 C25.6,85.1 25.2,85 24.8,85 C24.4,85 24,85.1 23.7,85.2 C23.4,85.3 23,85.4 22.6,85.4 C22.2,85.4 21.8,85.3 21.5,85.2 C21.2,85.1 20.8,85 20.4,85 C20,85 19.6,85.1 19.3,85.2 C19,85.3 18.6,85.4 18.2,85.4 L18.2,86 C18.6,86 19,85.9 19.3,85.8 C19.6,85.7 20,85.6 20.4,85.6 C20.8,85.6 21.2,85.7 21.5,85.8 C21.8,85.9 22.2,86 22.6,86 C23,86 23.4,85.9 23.7,85.8 C24,85.7 24.4,85.6 24.8,85.6 C25.2,85.6 25.6,85.7 25.9,85.8 C26.2,85.9 26.6,86 27,86 L27,85.4" id="path657" fill="#CCCCCC"></path>
            <path d="M27,85.4 C26.6,85.4 26.2,85.3 25.9,85.2 C25.6,85.1 25.2,85 24.8,85 C24.4,85 24,85.1 23.7,85.2 C23.4,85.3 23,85.4 22.6,85.4 C22.2,85.4 21.8,85.3 21.5,85.2 C21.2,85.1 20.8,85 20.4,85 C20,85 19.6,85.1 19.3,85.2 C19,85.3 18.6,85.4 18.2,85.4 L18.2,86 C18.6,86 19,85.9 19.3,85.8 C19.6,85.7 20,85.6 20.4,85.6 C20.8,85.6 21.2,85.7 21.5,85.8 C21.8,85.9 22.2,86 22.6,86 C23,86 23.4,85.9 23.7,85.8 C24,85.7 24.4,85.6 24.8,85.6 C25.2,85.6 25.6,85.7 25.9,85.8 C26.2,85.9 26.6,86 27,86 L27,85.4" id="path658"></path>
            <path d="M27,86.4 C26.6,86.4 26.2,86.3 25.9,86.2 C25.6,86.1 25.2,86 24.8,86 C24.4,86 24,86.1 23.7,86.2 C23.4,86.3 23,86.4 22.6,86.4 C22.2,86.4 21.8,86.3 21.5,86.2 C21.2,86.1 20.8,86 20.4,86 C20,86 19.6,86.1 19.3,86.2 C19,86.3 18.6,86.4 18.2,86.4 L18.2,87 C18.6,87 19,86.9 19.3,86.8 C19.6,86.7 20,86.6 20.4,86.6 C20.8,86.6 21.2,86.7 21.5,86.8 C21.8,86.9 22.2,87 22.6,87 C23,87 23.4,86.9 23.7,86.8 C24,86.7 24.4,86.6 24.8,86.6 C25.2,86.6 25.6,86.7 25.9,86.8 C26.2,86.9 26.6,87 27,87 L27,86.4" id="path659" fill="#005BBF"></path>
            <path d="M27,86.4 C26.6,86.4 26.2,86.3 25.9,86.2 C25.6,86.1 25.2,86 24.8,86 C24.4,86 24,86.1 23.7,86.2 C23.4,86.3 23,86.4 22.6,86.4 C22.2,86.4 21.8,86.3 21.5,86.2 C21.2,86.1 20.8,86 20.4,86 C20,86 19.6,86.1 19.3,86.2 C19,86.3 18.6,86.4 18.2,86.4 L18.2,87 C18.6,87 19,86.9 19.3,86.8 C19.6,86.7 20,86.6 20.4,86.6 C20.8,86.6 21.2,86.7 21.5,86.8 C21.8,86.9 22.2,87 22.6,87 C23,87 23.4,86.9 23.7,86.8 C24,86.7 24.4,86.6 24.8,86.6 C25.2,86.6 25.6,86.7 25.9,86.8 C26.2,86.9 26.6,87 27,87 L27,86.4" id="path660" fill="#0044AD"></path>
            <path d="M27,88 C26.6,88 26.2,87.9 25.9,87.8 C25.6,87.7 25.2,87.6 24.8,87.6 C24.4,87.6 24,87.7 23.7,87.8 C23.4,87.9 23,88 22.6,88 C22.2,88 21.8,87.9 21.5,87.8 C21.2,87.7 20.8,87.6 20.4,87.6 C20,87.6 19.6,87.7 19.3,87.8 C18.8,87.9 18.4,88 18,88 L18,87.4 C18.4,87.4 18.8,87.3 19.1,87.2 C19.4,87.1 19.8,87 20.2,87 C20.6,87 21,87.1 21.3,87.2 C21.6,87.3 22,87.4 22.4,87.4 C22.8,87.4 23.2,87.3 23.5,87.2 C23.8,87.1 24.2,87 24.6,87 C25,87 25.4,87.1 25.7,87.2 C26,87.3 26.4,87.4 26.8,87.4 L27,88" id="path661" fill="#CCCCCC"></path>
            <path d="M27,88 C26.6,88 26.2,87.9 25.9,87.8 C25.6,87.7 25.2,87.6 24.8,87.6 C24.4,87.6 24,87.7 23.7,87.8 C23.4,87.9 23,88 22.6,88 C22.2,88 21.8,87.9 21.5,87.8 C21.2,87.7 20.8,87.6 20.4,87.6 C20,87.6 19.6,87.7 19.3,87.8 C18.8,87.9 18.4,88 18,88 L18,87.4 C18.4,87.4 18.8,87.3 19.1,87.2 C19.4,87.1 19.8,87 20.2,87 C20.6,87 21,87.1 21.3,87.2 C21.6,87.3 22,87.4 22.4,87.4 C22.8,87.4 23.2,87.3 23.5,87.2 C23.8,87.1 24.2,87 24.6,87 C25,87 25.4,87.1 25.7,87.2 C26,87.3 26.4,87.4 26.8,87.4 L27,88" id="path662"></path>
            <path d="M27,88 C26.6,88 26.2,87.9 25.9,87.8 C25.6,87.7 25.2,87.6 24.8,87.6 C24.4,87.6 24,87.7 23.7,87.8 C23.4,87.9 23,88 22.6,88 C22.2,88 21.8,87.9 21.5,87.8 C21.2,87.7 20.8,87.6 20.4,87.6 C20,87.6 19.6,87.7 19.3,87.8 C18.8,87.9 18.4,88 18,88 L18,87.4 C18.4,87.4 18.8,87.3 19.1,87.2 C19.4,87.1 19.8,87 20.2,87 C20.6,87 21,87.1 21.3,87.2 C21.6,87.3 22,87.4 22.4,87.4 C22.8,87.4 23.2,87.3 23.5,87.2 C23.8,87.1 24.2,87 24.6,87 C25,87 25.4,87.1 25.7,87.2 C26,87.3 26.4,87.4 26.8,87.4 L27,88" id="path663" fill="#005BBF"></path>
            <path d="M27,88 C26.6,88 26.2,87.9 25.9,87.8 C25.6,87.7 25.2,87.6 24.8,87.6 C24.4,87.6 24,87.7 23.7,87.8 C23.4,87.9 23,88 22.6,88 C22.2,88 21.8,87.9 21.5,87.8 C21.2,87.7 20.8,87.6 20.4,87.6 C20,87.6 19.6,87.7 19.3,87.8 C18.8,87.9 18.4,88 18,88 L18,87.4 C18.4,87.4 18.8,87.3 19.1,87.2 C19.4,87.1 19.8,87 20.2,87 C20.6,87 21,87.1 21.3,87.2 C21.6,87.3 22,87.4 22.4,87.4 C22.8,87.4 23.2,87.3 23.5,87.2 C23.8,87.1 24.2,87 24.6,87 C25,87 25.4,87.1 25.7,87.2 C26,87.3 26.4,87.4 26.8,87.4 L27,88 L27,88 L27,88 L27,88 L27,88 Z" id="path664" fill="#0044AD"></path>
            <path d="M19.8,82 L19.8,82.2 C19.8,82.7 19.4,83 18.9,83 L25.9,83 C25.4,83 25,82.6 25,82.2 L25,82 L24.9,82 L19.8,82 C19.9,82 19.9,82 19.8,82" id="path665" fill="#DEAD00"></path>
            <path d="M19.8,82 L19.8,82.2 C19.8,82.7 19.4,83 18.9,83 L25.9,83 C25.4,83 25,82.6 25,82.2 L25,82 L24.9,82 L19.8,82 C19.9,82 19.9,82 19.8,82 L19.8,82 L19.8,82 L19.8,82 L19.8,82 Z" id="path666" fill="#DEAD00"></path>
            <path d="M19.3,82 L24.6,82 C24.8,82 24.9,82.1 24.9,82.2 C24.9,82.3 24.8,82.4 24.6,82.4 L19.3,82.4 C19.1,82.4 19,82.3 19,82.2 C19,82.1 19.1,82 19.3,82" id="path667" fill="#DEAD00"></path>
            <path d="M19.3,82 L24.6,82 C24.8,82 24.9,82.1 24.9,82.2 C24.9,82.3 24.8,82.4 24.6,82.4 L19.3,82.4 C19.1,82.4 19,82.3 19,82.2 C19,82.1 19.1,82 19.3,82 C19.3,82 19.1,82 19.3,82 L19.3,82 L19.3,82 L19.3,82 Z" id="path668" fill="#DEAD00"></path>
            <polygon id="path669" fill="#DEAD00" points="19 85 26 85 26 83 19 83 19 85 19 85 19 85"></polygon>
            <polygon id="path670" fill-opacity="0" fill="#000000" points="19 85 26 85 26 83 19 83 19 85 19 85 19 85"></polygon>
            <path d="M18.2,75 C17.4,75.4 16.9,75.9 17,76.1 C17,76.3 17.3,76.5 17.6,76.7 C18.1,77.1 18.5,77.7 18.2,78 C18.7,77.6 18.9,77.1 18.9,76.5 C19,75.9 18.7,75.4 18.2,75" id="path671" fill="#CE1126"></path>
            <path d="M18.2,75 C17.4,75.4 16.9,75.9 17,76.1 C17,76.3 17.3,76.5 17.6,76.7 C18.1,77.1 18.5,77.7 18.2,78 C18.7,77.6 18.9,77.1 18.9,76.5 C19,75.9 18.7,75.4 18.2,75 C18.2,75 18.7,75.4 18.2,75 L18.2,75 L18.2,75 L18.2,75 Z" id="path672" fill="#B50027"></path>
            <polygon id="path673" fill="#B2B2B2" points="20 82 25 82 25 57 20 57 20 82 20 82 20 82"></polygon>
            <path d="M23,57 L23,82 M24,57 L24,82" id="path674"></path>
            <polygon id="path675" points="20 82 25 82 25 57 20 57 20 82 20 82 20 82"></polygon>
            <path d="M30,65.8 C28.9,65.3 27,65 24.8,64.9 C24.1,64.9 23.2,65 22.4,65.1 C19.3,65.6 17,66.8 17.2,67.9 L17.2,68 C17.2,68 16.1,65.4 16,65.3 C15.8,64.2 18.4,62.8 21.8,62.2 C22.9,62 23.9,62 24.8,62 C27,62 28.9,62.3 30,62.7 L30,65.8" id="path676" fill="#B50027"></path>
            <path d="M30,65.8 C28.9,65.3 27,65 24.8,64.9 C24.1,64.9 23.2,65 22.4,65.1 C19.3,65.6 17,66.8 17.2,67.9 L17.2,68 C17.2,68 16.1,65.4 16,65.3 C15.8,64.2 18.4,62.8 21.8,62.2 C22.9,62 23.9,62 24.8,62 C27,62 28.9,62.3 30,62.7 L30,65.8" id="path677"></path>
            <path d="M20,70 C18.3,69.9 17.2,69.4 17,68.7 C16.9,68.1 17.5,67.5 18.5,67 C19,67 19.5,67.1 20,67.1 L20,70" id="path678" fill="#CE1126"></path>
            <path d="M20,70 C18.3,69.9 17.2,69.4 17,68.7 C16.9,68.1 17.5,67.5 18.5,67 C19,67 19.5,67.1 20,67.1 L20,70" id="path679" fill="#B50027"></path>
            <path d="M25,67 C25.9,67.1 26.6,67.3 26.9,67.5 L26.9,67.5 C27.1,67.8 26.3,68.3 24.9,68.9 L25,67" id="path680" fill="#CE1126"></path>
            <path d="M25,67 C25.9,67.1 26.6,67.3 26.9,67.5 L26.9,67.5 C27.1,67.8 26.3,68.3 24.9,68.9 L25,67" id="path681" fill="#B50027"></path>
            <path d="M16,73.6 C15.9,73.2 17.2,72.5 19,71.8 C19.8,71.5 20.5,71.2 21.4,70.8 C24,69.7 25.9,68.4 25.6,68 L25.6,68 C25.7,68.1 25.9,70.4 25.9,70.4 C26.1,70.8 24.4,72.1 22,73.2 C21.2,73.6 19.7,74.1 18.9,74.4 C17.6,74.9 16.2,75.7 16.3,76 L16,73.6" id="path682" fill="#B50027"></path>
            <path d="M16,73.6 C15.9,73.2 17.2,72.5 19,71.8 C19.8,71.5 20.5,71.2 21.4,70.8 C24,69.7 25.9,68.4 25.6,68 L25.6,68 C25.7,68.1 25.9,70.4 25.9,70.4 C26.1,70.8 24.4,72.1 22,73.2 C21.2,73.6 19.7,74.1 18.9,74.4 C17.6,74.9 16.2,75.7 16.3,76 L16,73.6 L16,73.6 L16,73.6 L16,73.6 L16,73.6 L16,73.6 Z" id="path683"></path>
            <path d="M19,65.1 C19.7,64.9 20.1,64.7 19.9,64.2 C19.8,63.9 19.4,63.9 18.9,64 L18,64.4 L18.8,66 C18.9,66 19,65.9 19.1,65.9 C19.2,65.9 19.3,65.9 19.4,65.8 L19,65.1 L19,65.1 L19,65.1 L19,65.1 L19,65.1 L19,65.1 Z M18,64.1 L18.3,64 C18.5,63.9 18.8,64 19,64.3 C19.1,64.5 19.1,64.7 18.8,64.9 C18.7,64.9 18.6,65 18.5,65 L18,64.1 L18,64.1 L18,64.1 Z" id="path684" fill="#DEAD00"></path>
            <path d="M21.6,63 C21.5,63 21.4,63 21.3,63.1 L21,63.1 L21.5,65 L23,64.7 C23,64.7 23,64.6 22.9,64.6 L22.9,64.5 C22.6,64.6 22.3,64.6 22,64.7 L21.6,63" id="path685" fill="#DEAD00"></path>
            <path d="M23.2,65 C23.4,64.3 23.7,63.7 24,63 L23.9,63 L23.8,63 C23.7,63.5 23.5,64 23.3,64.4 C23.1,64 22.8,63.5 22.6,63.1 L22.3,63.1 L22,63.1 C22.3,63.7 22.7,64.3 23,65 L23.1,65 L23.2,65" id="path686" fill="#DEAD00"></path>
            <path d="M26.8,63.5 C26.9,63.4 26.9,63.3 27,63.2 C26.9,63.1 26.6,63 26.3,63 C25.6,62.9 25.2,63.2 25.2,63.5 C25.1,64.2 26.5,64.1 26.4,64.6 C26.4,64.8 26.1,64.9 25.8,64.9 C25.5,64.9 25.3,64.7 25.2,64.5 L25.1,64.5 C25.1,64.6 25,64.7 24.9,64.8 C25.1,64.9 25.4,65 25.6,65 C26.3,65.1 26.8,64.8 26.9,64.5 C27,63.9 25.6,63.8 25.7,63.4 C25.7,63.2 25.9,63.1 26.2,63.2 C26.5,63.2 26.7,63.3 26.8,63.5 L26.8,63.5" id="path687" fill="#DEAD00"></path>
            <path d="M63,85.4 C63.4,85.4 63.8,85.3 64.1,85.2 C64.4,85.1 64.8,85 65.2,85 C65.6,85 66,85.1 66.3,85.2 C66.6,85.3 67,85.4 67.4,85.4 C67.8,85.4 68.2,85.3 68.5,85.2 C68.8,85.1 69.2,85 69.6,85 C70,85 70.4,85.1 70.7,85.2 C71,85.3 71.4,85.4 71.8,85.4 L71.8,86 C71.4,86 70.9,85.9 70.7,85.8 C70.4,85.7 70,85.6 69.6,85.6 C69.2,85.6 68.8,85.7 68.5,85.8 C68.4,85.9 68,86 67.5,86 C67.1,86 66.7,85.9 66.4,85.8 C66.1,85.7 65.7,85.6 65.3,85.6 C64.9,85.6 64.5,85.7 64.2,85.8 C63.8,85.9 63.5,86 63,86 L63,85.4" id="path797" fill="#005BBF"></path>
            <path d="M63,85.4 C63.4,85.4 63.8,85.3 64.1,85.2 C64.4,85.1 64.8,85 65.2,85 C65.6,85 66,85.1 66.3,85.2 C66.6,85.3 67,85.4 67.4,85.4 C67.8,85.4 68.2,85.3 68.5,85.2 C68.8,85.1 69.2,85 69.6,85 C70,85 70.4,85.1 70.7,85.2 C71,85.3 71.4,85.4 71.8,85.4 L71.8,86 C71.4,86 70.9,85.9 70.7,85.8 C70.4,85.7 70,85.6 69.6,85.6 C69.2,85.6 68.8,85.7 68.5,85.8 C68.4,85.9 68,86 67.5,86 C67.1,86 66.7,85.9 66.4,85.8 C66.1,85.7 65.7,85.6 65.3,85.6 C64.9,85.6 64.5,85.7 64.2,85.8 C63.8,85.9 63.5,86 63,86 L63,85.4 L63,85.4 L63,85.4 L63,85.4 L63,85.4 Z" id="path798" fill="#0044AD"></path>
            <path d="M63,85.4 C63.4,85.4 63.8,85.3 64.1,85.2 C64.4,85.1 64.8,85 65.2,85 C65.6,85 66,85.1 66.3,85.2 C66.6,85.3 67,85.4 67.4,85.4 C67.8,85.4 68.2,85.3 68.5,85.2 C68.8,85.1 69.2,85 69.6,85 C70,85 70.4,85.1 70.7,85.2 C71,85.3 71.4,85.4 71.8,85.4 L71.8,86 C71.4,86 70.9,85.9 70.7,85.8 C70.4,85.7 70,85.6 69.6,85.6 C69.2,85.6 68.8,85.7 68.5,85.8 C68.4,85.9 68,86 67.5,86 C67.1,86 66.7,85.9 66.4,85.8 C66.1,85.7 65.7,85.6 65.3,85.6 C64.9,85.6 64.5,85.7 64.2,85.8 C63.8,85.9 63.5,86 63,86 L63,85.4" id="path799" fill="#CCCCCC"></path>
            <path d="M63,85.4 C63.4,85.4 63.8,85.3 64.1,85.2 C64.4,85.1 64.8,85 65.2,85 C65.6,85 66,85.1 66.3,85.2 C66.6,85.3 67,85.4 67.4,85.4 C67.8,85.4 68.2,85.3 68.5,85.2 C68.8,85.1 69.2,85 69.6,85 C70,85 70.4,85.1 70.7,85.2 C71,85.3 71.4,85.4 71.8,85.4 L71.8,86 C71.4,86 70.9,85.9 70.7,85.8 C70.4,85.7 70,85.6 69.6,85.6 C69.2,85.6 68.8,85.7 68.5,85.8 C68.4,85.9 68,86 67.5,86 C67.1,86 66.7,85.9 66.4,85.8 C66.1,85.7 65.7,85.6 65.3,85.6 C64.9,85.6 64.5,85.7 64.2,85.8 C63.8,85.9 63.5,86 63,86 L63,85.4" id="path800"></path>
            <path d="M63,86.4 C63.4,86.4 63.8,86.3 64.1,86.2 C64.4,86.1 64.8,86 65.2,86 C65.6,86 66,86.1 66.3,86.2 C66.6,86.3 67,86.4 67.4,86.4 C67.8,86.4 68.2,86.3 68.5,86.2 C68.8,86.1 69.2,86 69.6,86 C70,86 70.4,86.1 70.7,86.2 C71,86.3 71.4,86.4 71.8,86.4 L71.8,87 C71.4,87 70.9,86.9 70.7,86.8 C70.4,86.7 70,86.6 69.6,86.6 C69.2,86.6 68.8,86.7 68.5,86.8 C68.4,86.9 68,87 67.5,87 C67.1,87 66.7,86.9 66.4,86.8 C66.1,86.7 65.7,86.6 65.3,86.6 C64.9,86.6 64.5,86.7 64.2,86.8 C63.8,86.9 63.5,87 63,87 L63,86.4" id="path801" fill="#005BBF"></path>
            <path d="M63,86.4 C63.4,86.4 63.8,86.3 64.1,86.2 C64.4,86.1 64.8,86 65.2,86 C65.6,86 66,86.1 66.3,86.2 C66.6,86.3 67,86.4 67.4,86.4 C67.8,86.4 68.2,86.3 68.5,86.2 C68.8,86.1 69.2,86 69.6,86 C70,86 70.4,86.1 70.7,86.2 C71,86.3 71.4,86.4 71.8,86.4 L71.8,87 C71.4,87 70.9,86.9 70.7,86.8 C70.4,86.7 70,86.6 69.6,86.6 C69.2,86.6 68.8,86.7 68.5,86.8 C68.4,86.9 68,87 67.5,87 C67.1,87 66.7,86.9 66.4,86.8 C66.1,86.7 65.7,86.6 65.3,86.6 C64.9,86.6 64.5,86.7 64.2,86.8 C63.8,86.9 63.5,87 63,87 L63,86.4" id="path802" fill="#0044AD"></path>
            <path d="M63,88 C63.4,88 63.8,87.9 64.1,87.8 C64.4,87.7 64.8,87.6 65.2,87.6 C65.6,87.6 66,87.7 66.3,87.8 C66.6,87.9 67,88 67.4,88 C67.8,88 68.2,87.9 68.5,87.8 C68.8,87.7 69.2,87.6 69.6,87.6 C70,87.6 70.4,87.7 70.7,87.8 C71,87.9 71.4,88 71.8,88 L71.8,87.4 C71.4,87.4 70.9,87.3 70.7,87.2 C70.4,87.1 70,87 69.6,87 C69.2,87 68.8,87.1 68.5,87.2 C68.2,87.3 67.8,87.4 67.4,87.4 C67,87.4 66.6,87.3 66.3,87.2 C66,87.1 65.6,87 65.2,87 C64.8,87 64.4,87.1 64.1,87.2 C63.8,87.3 63.4,87.4 63,87.4 L63,88" id="path803" fill="#CCCCCC"></path>
            <path d="M63,88 C63.4,88 63.8,87.9 64.1,87.8 C64.4,87.7 64.8,87.6 65.2,87.6 C65.6,87.6 66,87.7 66.3,87.8 C66.6,87.9 67,88 67.4,88 C67.8,88 68.2,87.9 68.5,87.8 C68.8,87.7 69.2,87.6 69.6,87.6 C70,87.6 70.4,87.7 70.7,87.8 C71,87.9 71.4,88 71.8,88 L71.8,87.4 C71.4,87.4 70.9,87.3 70.7,87.2 C70.4,87.1 70,87 69.6,87 C69.2,87 68.8,87.1 68.5,87.2 C68.2,87.3 67.8,87.4 67.4,87.4 C67,87.4 66.6,87.3 66.3,87.2 C66,87.1 65.6,87 65.2,87 C64.8,87 64.4,87.1 64.1,87.2 C63.8,87.3 63.4,87.4 63,87.4 L63,88" id="path804"></path>
            <path d="M63,88 C63.4,88 63.8,87.9 64.1,87.8 C64.4,87.7 64.8,87.6 65.2,87.6 C65.6,87.6 66,87.7 66.3,87.8 C66.6,87.9 67,88 67.4,88 C67.8,88 68.2,87.9 68.5,87.8 C68.8,87.7 69.2,87.6 69.6,87.6 C70,87.6 70.4,87.7 70.7,87.8 C71,87.9 71.4,88 71.8,88 L71.8,87.4 C71.4,87.4 70.9,87.3 70.7,87.2 C70.4,87.1 70,87 69.6,87 C69.2,87 68.8,87.1 68.5,87.2 C68.2,87.3 67.8,87.4 67.4,87.4 C67,87.4 66.6,87.3 66.3,87.2 C66,87.1 65.6,87 65.2,87 C64.8,87 64.4,87.1 64.1,87.2 C63.8,87.3 63.4,87.4 63,87.4 L63,88" id="path805" fill="#005BBF"></path>
            <path d="M63,88 C63.4,88 63.8,87.9 64.1,87.8 C64.4,87.7 64.8,87.6 65.2,87.6 C65.6,87.6 66,87.7 66.3,87.8 C66.6,87.9 67,88 67.4,88 C67.8,88 68.2,87.9 68.5,87.8 C68.8,87.7 69.2,87.6 69.6,87.6 C70,87.6 70.4,87.7 70.7,87.8 C71,87.9 71.4,88 71.8,88 L71.8,87.4 C71.4,87.4 70.9,87.3 70.7,87.2 C70.4,87.1 70,87 69.6,87 C69.2,87 68.8,87.1 68.5,87.2 C68.2,87.3 67.8,87.4 67.4,87.4 C67,87.4 66.6,87.3 66.3,87.2 C66,87.1 65.6,87 65.2,87 C64.8,87 64.4,87.1 64.1,87.2 C63.8,87.3 63.4,87.4 63,87.4 L63,88 L63,88 L63,88 L63,88 L63,88 Z" id="path806" fill="#0044AD"></path>
            <path d="M70.2,82 L70.2,82.2 C70.2,82.7 70.6,83 71.1,83 L64.1,83 C64.6,83 65,82.6 65,82.2 L65,82 L65.1,82 L70.2,82 C70.1,82 70.1,82 70.2,82" id="path807" fill="#DEAD00"></path>
            <path d="M70.2,82 L70.2,82.2 C70.2,82.7 70.6,83 71.1,83 L64.1,83 C64.6,83 65,82.6 65,82.2 L65,82 L65.1,82 L70.2,82 C70.1,82 70.1,82 70.2,82 L70.2,82 L70.2,82 L70.2,82 L70.2,82 L70.2,82 Z" id="path808" fill="#DEAD00"></path>
            <path d="M65.3,82 L70.6,82 C70.8,82 70.9,82.1 70.9,82.2 C70.9,82.3 70.8,82.4 70.6,82.4 L65.3,82.4 C65.1,82.4 65,82.3 65,82.2 C65,82.1 65.1,82 65.3,82" id="path809" fill="#DEAD00"></path>
            <path d="M65.3,82 L70.6,82 C70.8,82 70.9,82.1 70.9,82.2 C70.9,82.3 70.8,82.4 70.6,82.4 L65.3,82.4 C65.1,82.4 65,82.3 65,82.2 C65,82.1 65.1,82 65.3,82 C65.3,82 65.1,82 65.3,82 L65.3,82 L65.3,82 L65.3,82 Z" id="path810" fill="#DEAD00"></path>
            <polygon id="path811" fill="#DEAD00" points="64 85 71 85 71 83 64 83 64 85 64 85 64 85"></polygon>
            <polygon id="path812" fill="#DEAD00" points="64 85 71 85 71 83 64 83 64 85 64 85 64 85"></polygon>
            <path d="M71.8,75 C72.6,75.4 73.1,75.9 73,76.1 C73,76.3 72.7,76.5 72.4,76.7 C71.9,77.1 71.5,77.7 71.8,78 C71.3,77.6 71.1,77.1 71.1,76.5 C71,75.9 71.3,75.4 71.8,75" id="path813" fill="#CE1126"></path>
            <path d="M71.8,75 C72.6,75.4 73.1,75.9 73,76.1 C73,76.3 72.7,76.5 72.4,76.7 C71.9,77.1 71.5,77.7 71.8,78 C71.3,77.6 71.1,77.1 71.1,76.5 C71,75.9 71.3,75.4 71.8,75 C71.8,75 71.3,75.4 71.8,75 L71.8,75 L71.8,75 L71.8,75 Z" id="path814" fill="#B50027"></path>
            <polygon id="path815" fill="#B2B2B2" points="65 82 70 82 70 57 65 57 65 82 65 82 65 82"></polygon>
            <path d="M69,57 L69,82 M70,57 L70,82" id="path816"></path>
            <polygon id="path817" points="65 82 70 82 70 57 65 57 65 82 65 82 65 82"></polygon>
            <path d="M60,65.8 C61.1,65.3 63,65 65.2,64.9 C65.9,64.9 66.8,65 67.6,65.1 C70.7,65.6 73,66.8 72.8,67.9 L72.8,68 C72.8,68 73.9,65.4 74,65.3 C74.2,64.2 71.6,62.8 68.2,62.2 C67.1,62 66.1,62 65.2,62 C63,62 61.1,62.3 60,62.7 L60,65.8" id="path818" fill="#CE1126"></path>
            <path d="M60,65.8 C61.1,65.3 63,65 65.2,64.9 C65.9,64.9 66.8,65 67.6,65.1 C70.7,65.6 73,66.8 72.8,67.9 L72.8,68 C72.8,68 73.9,65.4 74,65.3 C74.2,64.2 71.6,62.8 68.2,62.2 C67.1,62 66.1,62 65.2,62 C63,62 61.1,62.3 60,62.7 L60,65.8" id="path819" fill="#B50027"></path>
            <path d="M70,70 C71.7,69.9 72.8,69.4 73,68.7 C73.1,68.1 72.5,67.5 71.5,67 C71,67 70.5,67.1 70,67.1 L70,70" id="path820" fill="#CE1126"></path>
            <path d="M70,70 C71.7,69.9 72.8,69.4 73,68.7 C73.1,68.1 72.5,67.5 71.5,67 C71,67 70.5,67.1 70,67.1 L70,70" id="path821" fill="#B50027"></path>
            <path d="M65,67 C64.1,67.1 63.4,67.3 63.1,67.5 L63.1,67.5 C62.9,67.8 63.7,68.3 65.1,68.9 L65,67" id="path822" fill="#CE1126"></path>
            <path d="M65,67 C64.1,67.1 63.4,67.3 63.1,67.5 L63.1,67.5 C62.9,67.8 63.7,68.3 65.1,68.9 L65,67" id="path823" fill="#B50027"></path>
            <path d="M73,73.6 C73.1,73.2 71.8,72.5 70,71.8 C69.2,71.5 68.5,71.2 67.6,70.8 C65,69.7 63.1,68.4 63.4,68 L63.4,68 C63.3,68.1 63.1,70.4 63.1,70.4 C62.9,70.8 64.6,72.1 67,73.2 C67.8,73.6 69.4,74.1 70.1,74.4 C71.4,74.9 72.8,75.7 72.7,76 L73,73.6" id="path824" fill="#B50027"></path>
            <path d="M73,73.6 C73.1,73.2 71.8,72.5 70,71.8 C69.2,71.5 68.5,71.2 67.6,70.8 C65,69.7 63.1,68.4 63.4,68 L63.4,68 C63.3,68.1 63.1,70.4 63.1,70.4 C62.9,70.8 64.6,72.1 67,73.2 C67.8,73.6 69.4,74.1 70.1,74.4 C71.4,74.9 72.8,75.7 72.7,76 L73,73.6 L73,73.6 L73,73.6 L73,73.6 L73,73.6 L73,73.6 Z" id="path825"></path>
            <path d="M63.4,65 C63.6,64.3 63.8,63.7 64,63 L63.9,63 L63.8,63 C63.7,63.5 63.6,63.9 63.4,64.4 C63.1,64 62.9,63.6 62.6,63.2 C62.5,63.2 62.4,63.2 62.3,63.3 L62,63.3 C62.4,63.9 62.8,64.4 63.1,65 L63.2,65 L63.4,65" id="path826" fill="#DEAD00"></path>
            <path d="M65.8,63 L65.4,63 L65,63 L65,65 L67,65 L67,64.9 L67,64.8 L65.8,64.8 L65.8,63" id="path827" fill="#DEAD00"></path>
            <path d="M67.3,63.3 C67.5,63.3 67.8,63.4 68,63.4 L68,63.3 L68,63.2 L66,63 L66,63.1 L66,63.2 L66.7,63.2 L66.5,65 L66.8,65 L67.1,65 L67.3,63.3" id="path828" fill="#DEAD00"></path>
            <path d="M68,64.7 L68.3,64.7 C68.4,64.7 68.5,64.7 68.6,64.8 L68.8,64 L68.8,64 C68.9,64.1 68.9,64.2 69,64.3 L69.3,64.9 L69.6,64.9 C69.7,64.9 69.8,64.9 69.9,65 L69.8,64.8 C69.7,64.5 69.5,64.3 69.4,64 C69.7,64 70,63.9 70.1,63.7 C70.1,63.5 70.1,63.4 69.9,63.3 C69.8,63.2 69.5,63.2 69.3,63.1 L68.5,63 L68,64.7 M69.3,63 C69.6,63.1 70,63.1 70,63.4 L70,63.6 C69.9,64 69.6,64.1 69,64 L69.3,63" id="path829" fill="#DEAD00"></path>
            <path d="M71.4,65.2 C71.4,65.4 71.4,65.6 71.3,65.7 C71.4,65.7 71.5,65.8 71.6,65.8 C71.7,65.8 71.8,65.9 71.8,65.9 L72,64 L71.9,64 C71.9,64 71.8,64 71.8,63.9 L70,65.1 C70,65.1 70.1,65.1 70.1,65.2 C70.1,65.2 70.2,65.2 70.2,65.3 C70.3,65.2 70.5,65.1 70.7,65 L71.4,65.2 L71.4,65.2 L71.4,65.2 L71.4,65.2 L71.4,65.2 L71.4,65.2 Z M71,64.6 L72,64 L71.9,65 L71,64.6 L71,64.6 L71,64.6 Z" id="path830" fill="#DEAD00"></path>
            <path d="M45.4,39 C47.5,39 49.3,39.3 50.5,39.7 C51.2,40 52.1,40.2 53.1,40.3 C53.9,40.4 54.6,40.4 55.2,40.4 C56,40.4 57.3,40.6 58.5,41.1 C59.5,41.5 60.4,42 60.9,42.5 L60.5,43 L60.4,44.2 L59,45.6 L58.3,46.1 L56.7,47.3 L56,47.3 L55.7,48 L45.5,46.9 L35.3,48 L35,47.3 L34.2,47.2 L32.6,46 L32,45.6 L30.7,44.2 L30.5,43 L30,42.6 C30.6,42.1 31.4,41.6 32.4,41.2 C33.6,40.7 34.9,40.5 35.7,40.5 C36.3,40.5 37.1,40.5 37.8,40.4 C38.8,40.3 39.7,40.1 40.4,39.8 C41.7,39.3 43.4,39 45.4,39 C45.4,39 43.4,39 45.4,39 L45.4,39 L45.4,39 L45.4,39 Z" id="path833" fill="#B50027"></path>
            <path d="M45,52 C41.5,52 38.4,51.6 36,51 C38.4,50.4 41.5,50 45,50 C48.5,50 51.6,50.4 54,51 C51.6,51.6 48.5,52 45,52" id="path840" fill="#B50027"></path>
            <path d="M43,34.5 C43,33.7 43.7,33 44.5,33 C45.3,33 46,33.7 46,34.5 C46,35.3 45.3,36 44.5,36 C43.7,36 43,35.3 43,34.5" id="path952" fill="#0044AD"></path>
            <path d="M45.5,89 C41.5,89 37.5,88 34.1,86.4 C31.6,85.2 30,82.8 30,80 L30,70 L61,70 L61,80 C61,82.8 59.4,85.2 56.9,86.4 C53.5,88 49.6,89 45.5,89" id="path960" fill="#B2B2B2"></path>
            <g id="g6398" transform="translate(54.000000, 74.000000)">
                <polyline id="path33928" points="2 0.3 1.3 0 0 1.4 0.4 2 2 0.3"></polyline>
                <polyline id="path33926" points="2.6 1 3 1.6 1.7 3 1 2.7 2.6 1"></polyline>
            </g>
            <path d="M45.5,89 C41.5,89 37.5,88 34.1,86.4 C31.6,85.2 30,82.8 30,80 L30,70 L61,70 L61,80 C61,82.8 59.4,85.2 56.9,86.4 C53.5,88 49.6,89 45.5,89 L45.5,89 L45.5,89 L45.5,89 L45.5,89 Z" id="path961"></path>
            <polygon id="path962" fill="#B2B2B2" points="45 70 60 70 60 53 45 53 45 70 45 70 45 70"></polygon>
            <polygon id="path963" points="45 70 60 70 60 53 45 53 45 70 45 70 45 70"></polygon>
            <path d="M45,80.5 C45,84.6 41.7,88 37.5,88 C33.3,88 30,84.6 30,80.5 L30,70 L45,70 L45,80.5" id="path966" fill="#B50027"></path>
            <path d="M33,85.2 C33.5,85.4 34.2,85.9 35,86 L35,69 L33,69 L33,85.2 L33,85.2 L33,85.2 L33,85.2 L33,85.2 Z" id="path968" fill="#DEAD00"></path>
            <path d="M30,80.2 C30.1,82.3 31,83.9 32,85 L32,70 L30,70 L30,80.2 L30,80.2 L30,80.2 L30,80.2 L30,80.2 Z" id="path970" fill="#DEAD00"></path>
            <path d="M36,87 C36.8,87.1 37.4,87.1 38,87 L38,69 L36,69 L36,87 L36,87 L36,87 L36,87 L36,87 Z" id="path972" fill="#DEAD00"></path>
            <path d="M40,86 C40.8,85.9 41.6,85.4 42,85.2 L42,69 L40,69 L40,86 L40,86 L40,86 L40,86 L40,86 Z" id="path974" fill="#DEAD00"></path>
            <polygon id="path964" fill="#B50027" points="30 70 45 70 45 53 30 53 30 70 30 70 30 70"></polygon>
            <path d="M43.1,84 C43.9,83.3 44.7,81.8 45,80.1 L45,69 L43,69 L43.1,84 L43.1,84 L43.1,84 L43.1,84 L43.1,84 Z" id="path976" fill="#DEAD00"></path>
            <path d="M45,80.5 C45,84.6 41.7,88 37.5,88 C33.3,88 30,84.6 30,80.5 L30,70 L45,70 L45,80.5" id="path977"></path>
            <path d="M60,70 L60,80.5 C60,84.6 56.6,88 52.5,88 C48.4,88 45,84.6 45,80.5 L45,70 L60,70" id="path978" fill="#CE1126"></path>
            <path d="M60,70 L60,80.5 C60,84.6 56.6,88 52.5,88 C48.4,88 45,84.6 45,80.5 L45,70 L60,70" id="path979" fill="#B50027"></path>
            <path d="M47.9,71 C47.4,71 47,71.4 47,71.9 C47,72.3 47.3,72.6 47.6,72.7 L47.6,74.1 L47,74.3 L47,75.8 L47.6,76 L47.6,75.5 L47.6,75.5 L47.6,74.6 L48.2,74.6 L48.2,72.8 L48.3,72.8 L50.1,74.8 L49.8,75.3 L50.8,76.4 L51.4,76.2 L52.8,77.8 C52.8,77.8 52.8,77.9 52.7,77.9 L51.8,77.9 L51.6,77.3 L50,77.3 L49.8,77.9 L48.7,77.9 C48.6,77.6 48.4,77.4 48.1,77.3 L48.1,75.4 L47.5,75.4 L47.5,75.9 L47.5,75.9 L47.5,77.3 C47.2,77.4 46.9,77.6 46.9,77.9 L46.9,77.9 L46.9,78.1 C46.9,78.5 47.2,78.8 47.5,78.9 L47.5,79.8 L46.9,80 L47,81.5 L47.6,81.6 C47.7,82 47.8,82.4 48,82.8 L48,82.9 C47.7,83.3 47.7,83.8 48.1,84.1 C48.3,84.3 48.7,84.4 49,84.3 C49.3,84.6 49.5,84.9 49.8,85.1 L49.7,85.7 C50.1,86 50.6,86.2 51.1,86.4 L51.5,86 C51.9,86.1 52.2,86.2 52.6,86.3 C52.7,86.7 53,87 53.5,87 C53.9,87 54.3,86.7 54.4,86.3 C54.8,86.2 55.1,86.2 55.5,86 L55.5,86 C55.7,85.9 55.8,85.9 55.9,85.8 L55.6,85.3 C55.9,85.2 56.1,85 56.4,84.9 L56.7,85.4 C56.4,85.6 56.2,85.7 55.9,85.8 C55.8,85.9 55.6,85.9 55.5,86 L55.9,86.4 C56.4,86.2 56.8,86 57.3,85.7 L57.2,85.1 C57.5,84.9 57.8,84.6 58,84.3 C58.3,84.4 58.6,84.3 58.9,84.1 C59.3,83.8 59.3,83.2 59,82.9 L58.9,82.8 C59.1,82.4 59.2,82 59.3,81.6 L59.9,81.5 L60,80 L59.4,79.8 L59.4,79 C59.8,78.9 60,78.6 60,78.2 L60,78 L60,78 C59.9,77.7 59.7,77.4 59.4,77.4 L59.4,76 L60,75.8 L60,74.3 L59.4,74.1 L59.4,72.7 C59.8,72.6 60,72.3 60,71.9 C60,71.4 59.6,71 59.1,71 C58.7,71 58.4,71.3 58.2,71.6 L56.7,71.6 L56.7,72.1 L55.8,72.1 L55.8,71.6 L54.4,71.6 C54.3,71.2 53.9,71 53.5,71 C53.1,71 52.8,71.3 52.6,71.6 L51.2,71.6 L51.2,72.1 L50.3,72.1 L50.3,71.6 L48.8,71.6 C48.7,71.3 48.3,71 47.9,71 L47.9,71 L47.9,71 L47.9,71 L47.9,71 Z" id="path33894" fill="#DEAD00"></path>
            <polygon id="path33892" fill="#C8B100" points="49.2 71 49 71.4 51 71.4 50.8 71 49.2 71 49.2 71 49.2 71"></polygon>
            <polygon id="path33890" fill="#C8B100" points="54.2 71 54 71.4 56 71.4 55.8 71 54.2 71 54.2 71 54.2 71"></polygon>
            <path d="M47.5,71 C47.8,71 48,71.2 48,71.5 C48,71.8 47.8,72 47.5,72 C47.2,72 47,71.8 47,71.5 C47,71.2 47.2,71 47.5,71 C47.5,71 47.2,71 47.5,71 L47.5,71 L47.5,71 L47.5,71 Z" id="path33888" fill="#C8B100"></path>
            <path d="M48.1,72 L49.2,72 L49.4,72.5 L51.1,72.5 L51.3,72 L52.3,72 C52.4,72.3 52.6,72.5 53,72.5 L53,73.1 L52.4,73.3 L52.4,74.8 L53,75 L53,77 L52.9,77 L51.4,75.5 L51.8,75 L50.7,73.9 L50,74.1 L48,72.2 C48,72.1 48.1,72.1 48.1,72 C48.1,72 48.1,72.1 48.1,72 L48.1,72 L48.1,72 L48.1,72 Z" id="path33886" fill="#B50027"></path>
            <path d="M54,72 L54.8,72 L55,72.6 L56.4,72.6 L56.5,72 L57.4,72 L57.4,72.1 L55.8,74.3 L55.4,74 L54.5,75.2 L54.8,75.7 L55.1,75.3 L55.6,74.6 L56,75 L55.2,76.1 L55.7,76.3 L56.6,75.1 L56.3,74.6 L57.9,72.5 C57.9,72.5 58,72.5 58,72.6 L58,74 L57.5,74.2 L57.5,75.8 L58,76 L58,77.5 C57.8,77.6 57.6,77.8 57.5,78.1 L56.6,78.1 L56.4,77.5 L55,77.5 L54.8,78 L54,78 C54,77.9 54,77.8 53.9,77.8 L55.1,76.2 L55.4,75.8 L55,75.4 L53.5,77.4 L53.4,77.4 L53.4,74.7 L53,74.7 L53,73.8 L53.5,73.8 L53.5,75.2 L54,75 L54,73.4 L53.5,73.2 L53.5,72.5 C53.8,72.5 53.9,72.3 54,72 C54,72 53.9,72.3 54,72 L54,72 L54,72 L54,72 Z" id="path33884" fill="#B50027"></path>
            <polygon id="path33882" fill="#C8B100" points="48 74 48 76 49 75.8 49 74.2 48 74 48 74 48 74"></polygon>
            <polygon id="path33880" fill="#B50027" points="58 74 59 74 59 75 58 75 58 74 58 74 58 74"></polygon>
            <polygon id="path33878" fill="#B50027" points="50.4 75 51 75.7 50.6 76 50 75.3 50.4 75 50.4 75 50.4 75"></polygon>
            <path d="M47.5,78 C47.7,78 47.9,78.1 47.9,78.3 L47.9,78.3 C47.9,78.4 48,78.4 48,78.5 C48,78.8 47.8,79 47.5,79 C47.2,79 47,78.8 47,78.5 C47,78.4 47,78.4 47.1,78.3 L47.1,78.3 C47.1,78.1 47.3,78 47.5,78 C47.5,78 47.3,78 47.5,78 L47.5,78 L47.5,78 L47.5,78 Z" id="path33876" fill="#C8B100"></path>
            <path d="M58.5,78 C58.7,78 58.9,78.1 58.9,78.3 L58.9,78.3 L58.9,78.5 C58.9,78.8 58.7,79 58.4,79 C58.1,79 57.9,78.8 57.9,78.5 C57.9,78.4 57.9,78.3 58,78.3 C58.1,78.1 58.3,78 58.5,78 C58.5,78 58.3,78 58.5,78 L58.5,78 L58.5,78 L58.5,78 Z" id="path33874" fill="#C8B100"></path>
            <path d="M49.6,78 L50.5,78 L50.5,78.1 L50.5,78.1 L50.5,78.6 L51.9,78.6 C51.9,78.7 51.9,78.7 52,78.8 L50.7,80.4 L50.2,80 L49.2,81.2 L49.5,81.7 L48.4,83 C48.2,82.9 48.1,82.9 47.9,82.9 C47.8,82.6 47.7,82.2 47.6,81.9 C47.6,81.7 47.5,81.6 47.5,81.4 L47,81.4 L47,80.9 L47,80.5 L47.6,80.5 L47.6,80.9 L47.6,81.4 C47.6,81.6 47.6,81.7 47.7,81.9 L48.3,81.7 C48.3,81.7 48.2,80.7 48.2,80.9 C48.2,81.1 48.2,80.1 48.2,80.1 L47.6,80 L47.6,79.1 C47.9,79 48.1,78.8 48.1,78.5 L49.6,78.5 L49.6,78 L49.6,78 L49.6,78 L49.6,78 L49.6,78 L49.6,78 L49.6,78 Z" id="path33872" fill="#B50027"></path>
            <path d="M55.6,78 L56.6,78 L56.6,78.1 L56.6,78.1 L56.6,78.6 L58.3,78.6 C58.4,78.9 58.6,79.1 58.9,79.2 L58.9,80 L58.2,80.1 L58.2,80.9 C58.2,80.6 58.1,81.7 58.1,81.7 L58.8,81.9 C58.7,82.3 58.6,82.6 58.5,82.9 C58.3,82.9 58.1,82.9 58,83 L56.8,81.7 L57.2,81.2 L56,80 L55.4,80.3 L54,78.7 C54,78.6 54.1,78.6 54.1,78.5 L55.6,78.5 L55.6,78 L55.6,78 L55.6,78 L55.6,78 L55.6,78 L55.6,78 L55.6,78 Z" id="path33870" fill="#B50027"></path>
            <g id="g6352" transform="translate(46.000000, 71.000000)" fill="#DEAD00">
                <path d="M11.4,8 L11.4,6.9 C11.7,6.8 12,6.5 12,6.2 C12,5.9 11.8,5.6 11.4,5.5 L11.4,4 L10.9,4 L10.9,5.5 C10.6,5.6 10.5,5.7 10.4,6 L9,6 L9,6.4 L10.4,6.4 C10.5,6.6 10.7,6.8 10.9,6.8 L10.9,7.9 L11.4,8 L11.4,8 L11.4,8 L11.4,8 L11.4,8 L11.4,8 Z" id="path33961"></path>
                <path d="M12.3,1.7 L12.3,3.5 L11.7,3.5 L11.7,1.7 C11.7,1.7 11.6,1.7 11.6,1.6 L9.4,4 L9,3.7 L11.2,1.3 C11.2,1.3 11.2,1.2 11.1,1.2 L9.5,1.2 L9.5,0.7 L11.1,0.7 C11.2,0.4 11.6,0.1 12,0.1 C12.5,0.1 12.9,0.5 12.9,1 C13,1.3 12.7,1.6 12.3,1.7 C12.3,1.7 12.7,1.6 12.3,1.7 L12.3,1.7 L12.3,1.7 L12.3,1.7 Z" id="path33953"></path>
                <path d="M6.8,1.8 L6.8,3 L6.2,3 L6.2,1.8 C5.9,1.7 5.6,1.5 5.5,1.2 L4,1.2 L4,0.6 L5.5,0.6 C5.6,0.2 6,-7.10542736e-15 6.5,-7.10542736e-15 C7,-7.10542736e-15 7.3,0.3 7.5,0.6 L9,0.6 L9,1.2 L7.4,1.2 C7.3,1.5 7.1,1.7 6.8,1.8 C6.8,1.8 7.1,1.7 6.8,1.8 L6.8,1.8 L6.8,1.8 L6.8,1.8 Z" id="path33951"></path>
                <polyline id="path33936" points="10 9.9 9.3 10 8 9.3 8.4 9 10 9.9"></polyline>
                <polyline id="path33918" points="5 1 4.8 2 3.2 2 3 1 5 1"></polyline>
                <polyline id="path33916" points="5 1 4.8 0 3.2 0 3 1 5 1"></polyline>
                <g id="g6327" transform="translate(0.000000, 3.000000)">
                    <g id="g6309">
                        <g id="g6305" transform="translate(3.000000, 5.000000)">
                            <polyline id="path33969" points="1 2.7 1.7 3 3 1.6 2.6 1 1 2.7"></polyline>
                            <polyline id="path33967" points="0.4 2 0 1.4 1.3 0 2 0.3 0.4 2"></polyline>
                        </g>
                        <g id="g6284">
                            <g id="g6279" transform="translate(1.000000, 6.000000)">
                                <path d="M3.5,4.6 L3.2,5 C2.6,4.7 2.1,4.4 1.7,4 C1.3,4.1 0.9,4 0.6,3.8 C0.1,3.5 0.1,3 0.5,2.7 L0.6,2.7 C0.3,2.2 0.1,1.7 0.1,1.1 L0.8,1.1 C0.9,1.6 1,2 1.2,2.4 L1.8,2.4 L3.5,0.9 L4,1.2 L2.3,2.7 C2.5,3 2.5,3.3 2.3,3.6 C2.6,4 3.1,4.3 3.5,4.6 C3.5,4.6 3.1,4.3 3.5,4.6 L3.5,4.6 L3.5,4.6 L3.5,4.6 Z" id="path33846"></path>
                                <path d="M3,4.3 C3.5,4.6 4.2,4.9 4.9,5 L5,4.6 C4.4,4.5 3.9,4.3 3.5,4 L3,4.3" id="path33836"></path>
                                <path d="M2.1,5 C2.7,5.3 3.3,5.5 4,5.7 L3.5,6 C3,5.9 2.4,5.7 2,5.5 L2.1,5" id="path982"></path>
                            </g>
                            <g id="g6270">
                                <path d="M0.6,7 L0.6,5.6 C0.3,5.5 0,5.1 0,4.7 C0,4.3 0.2,4 0.6,3.8 L0.6,1.9 L1.1,1.9 L1.1,3.8 C1.4,3.9 1.5,4.1 1.6,4.4 L3,4.4 L3,5 L1.6,5 C1.5,5.3 1.3,5.5 1.1,5.6 L1.1,7 L0.6,7" id="path33844"></path>
                                <path d="M1,8 L0.1,7.9 L0,6.2 L0.9,6 L0.9,6.9 C0.9,7.3 0.9,7.7 1,8 C1,8 0.9,7.7 1,8 L1,8 L1,8 L1,8 Z" id="path33840"></path>
                                <path d="M2,6 L2.9,6.2 L2.9,7 C2.9,6.7 3,7.8 3,7.8 L2.1,8 C2,7.7 2,7.3 2,7 L2,6 L2,6 L2,6 L2,6 L2,6 L2,6 Z" id="path33838"></path>
                                <polyline id="path33945" points="1 0 0 0.2 0 1.8 1 2 1 0"></polyline>
                                <polyline id="path33943" points="2 0 3 0.2 3 1.8 2 2 2 0"></polyline>
                                <polyline id="path33924" points="3 4 3.2 3 4.8 3 5 4 3 4"></polyline>
                                <polyline id="path33922" points="3 4 3.2 5 4.8 5 5 4 3 4"></polyline>
                            </g>
                        </g>
                    </g>
                    <g id="g6298" transform="translate(4.000000, 7.000000)">
                        <path d="M3.4,4.8 C3.9,4.7 4.3,4.6 4.7,4.4 L5,4.9 C4.5,5.1 4,5.2 3.5,5.3 C3.4,5.7 3,6 2.5,6 C2.1,6 1.7,5.7 1.6,5.3 C1,5.2 0.5,5.1 0,4.9 L0.3,4.4 C0.7,4.6 1.2,4.7 1.7,4.8 C1.8,4.6 2,4.4 2.2,4.3 L2.2,2 L2.8,2 L2.8,4.3 C3.1,4.4 3.3,4.6 3.4,4.8 L3.4,4.8 L3.4,4.8 L3.4,4.8 L3.4,4.8 L3.4,4.8 Z" id="path33852"></path>
                        <path d="M6,3.3 C5.5,3.6 4.8,3.9 4.1,4 L4,3.6 C4.6,3.5 5.1,3.3 5.5,3 L6,3.3" id="path33949"></path>
                        <path d="M5.9,3 C5.3,3.3 4.7,3.5 4,3.7 L4.5,4 C5,3.9 5.6,3.7 6,3.5 L5.9,3" id="path33947"></path>
                        <polyline id="path33906" points="3 2 4 1.8 4 0.2 3 0 3 2"></polyline>
                        <polyline id="path33904" points="3 2 2 1.8 2 0.2 3 -3.55271368e-15 3 2"></polyline>
                    </g>
                </g>
                <polyline id="path33898" points="8 1 8.2 2 9.8 2 10 1 8 1"></polyline>
                <polyline id="path984" points="8 1 8.2 0 9.8 0 10 1 8 1"></polyline>
            </g>
            <polygon id="path33868" fill="#DEAD00" points="49 78 49.2 78.4 50.8 78.4 51 78 49 78 49 78 49 78"></polygon>
            <polygon id="path33866" fill="#DEAD00" points="54 78 54.2 78.4 55.8 78.4 56 78 54 78 54 78 54 78"></polygon>
            <path d="M52.9,79 L52.9,79 L53,81.3 L52.4,81.4 L52.4,82.7 L53,82.8 L53,84.5 C52.7,84.6 52.5,84.7 52.4,84.9 C52.1,84.9 51.7,84.8 51.4,84.7 L51.5,84.2 C51,84.1 50.5,83.8 50,83.6 L49.7,84 C49.8,84.1 50,84.2 50.1,84.2 C50,84.1 49.8,84 49.7,84 C49.5,83.8 49.2,83.7 49,83.5 C49.2,83.2 49.2,82.9 49,82.6 L50.2,81.5 L50.8,81.7 L51.9,80.7 L51.6,80.3 L52.9,79 L52.9,79 L52.9,79 L52.9,79 L52.9,79 Z" id="path33864" fill="#B50027"></path>
            <path d="M53.1,79 L54.8,80.6 L55.3,80.3 L55.9,80.9 L55.4,81.2 L54.8,80.6 L54.4,80.3 L54,80.7 L55.1,81.7 L55.7,81.5 L56.9,82.6 C56.7,82.9 56.7,83.2 56.9,83.5 C56.7,83.7 56.4,83.9 56.2,84 C56.1,84.1 55.9,84.2 55.8,84.2 C55.9,84.1 56.1,84 56.2,84 L55.7,83.7 C55.3,84 54.7,84.2 54.2,84.3 L54.3,84.8 C54,84.9 53.7,84.9 53.4,85 C53.3,84.8 53.1,84.6 52.8,84.6 L52.8,82.9 L53.4,82.8 L53.4,81.5 L53,81.3 L53.1,79 C53,79 53.1,79 53.1,79 L53.1,79 L53.1,79 L53.1,79 L53.1,79 Z" id="path33862" fill="#B50027"></path>
            <path d="M59,80 L59,80.4 L59,81 L58,81 L58,80.4 L58,80 L59,80 L59,80 L59,80 L59,80 L59,80 Z" id="path33860" fill="#B50027"></path>
            <polygon id="path33858" fill="#B50027" points="50.6 80 51 80.3 50.4 81 50 80.7 50.6 80 50.6 80 50.6 80"></polygon>
            <polygon id="path33856" fill="#B50027" points="53 82 54 82 54 83 53 83 53 82 53 82 53 82"></polygon>
            <path d="M50.3,84 C50.5,84.2 50.8,84.3 51,84.5 L50.7,85 C50.4,84.9 50.2,84.7 50,84.5 L50.3,84 L50.3,84 L50.3,84 L50.3,84 L50.3,84 Z" id="path32837" fill="#B50027"></path>
            <path d="M51.8,78.7 C51.8,78.7 51.8,78.6 51.7,78.6 L50.3,78.6 L50.3,78 L51.7,78 C51.7,78 51.7,77.9 51.8,77.9 L50,76 L50.4,75.7 L52.1,77.6 L52.2,77.6 L52.2,75.1 L52.8,75.1 L52.8,77.6 L52.9,77.6 L54.6,75.7 L55,76 L53.3,77.9 C53.3,78 53.4,78 53.4,78.1 L54.8,78.1 L54.8,78.6 L53.4,78.6 C53.4,78.7 53.3,78.7 53.3,78.8 L54.9,80.6 L54.5,80.9 L52.9,79 C52.9,79 52.9,79 52.8,79 L52.8,81.9 L52.2,81.9 L52.2,79 C52.2,79 52.2,79 52.1,79 L50.4,80.8 L50,80.5 L51.8,78.7" id="path33850" fill="#DEAD00"></path>
            <path d="M48.1,83.2 C48.3,83 48.6,83 48.8,83.1 C49,83.3 49,83.6 48.9,83.8 C48.7,84 48.4,84 48.2,83.9 C48,83.7 47.9,83.4 48.1,83.2 C48.1,83.2 47.9,83.4 48.1,83.2 L48.1,83.2 L48.1,83.2 L48.1,83.2 Z" id="path33842" fill="#B50027"></path>
            <path d="M47,78.5 C47,78.2 47.2,78 47.5,78 C47.8,78 48,78.2 48,78.5 C48,78.8 47.8,79 47.5,79 C47.2,79 47,78.8 47,78.5 C47,78.5 47,78.8 47,78.5 L47,78.5 L47,78.5 L47,78.5 Z" id="path33965" fill="#B50027"></path>
            <path d="M55.3,84.6 L55.6,85 C56,84.7 56.4,84.4 56.8,84 C57.1,84.1 57.4,84 57.6,83.8 C58,83.5 58,83 57.7,82.7 L57.7,82.7 C57.9,82.2 58.1,81.7 58.1,81.1 L57.6,81.1 C57.6,81.6 57.4,82 57.3,82.4 C57.2,82.4 57,82.4 56.9,82.5 L55.4,81 L55,81.3 L56.3,82.8 C56.1,83.1 56.1,83.4 56.3,83.7 C56,84 55.7,84.3 55.3,84.6 C55.3,84.6 55.7,84.3 55.3,84.6 L55.3,84.6 L55.3,84.6 L55.3,84.6 Z" id="path33963" fill="#DEAD00"></path>
            <path d="M57.9,83.2 C57.7,83 57.4,83 57.2,83.1 C57,83.3 57,83.6 57.1,83.8 C57.3,84 57.6,84 57.8,83.9 C58,83.7 58.1,83.4 57.9,83.2 C57.9,83.2 58.1,83.4 57.9,83.2 L57.9,83.2 L57.9,83.2 L57.9,83.2 Z" id="path33959" fill="#B50027"></path>
            <path d="M59,81 L59.9,80.9 L60,79.3 L59.1,79 L59.1,79.9 C59.1,80.3 59.1,80.7 59,81 C59,81 59.1,80.7 59,81 L59,81 L59,81 L59,81 Z" id="path33957" fill="#DEAD00"></path>
            <path d="M58,79 L57.1,79.2 L57.1,80 C57.1,79.7 57,80.8 57,80.8 L57.9,81 C58,80.7 58,80.3 58,80 L58,79" id="path33955" fill="#DEAD00"></path>
            <polyline id="path983" fill="#DEAD00" points="58 74 57 74.2 57 75.8 58 76 58 74"></polyline>
            <polyline id="path33938" points="59 74 60 74.2 60 75.8 59 76 59 74"></polyline>
            <polyline id="path33934" points="56.6 81 57 80.4 55.7 79 55 79.3 56.6 81"></polyline>
            <path d="M47,71.5 C47,71.2 47.2,71 47.5,71 C47.8,71 48,71.2 48,71.5 C48,71.8 47.8,72 47.5,72 C47.2,72 47,71.8 47,71.5 C47,71.5 47,71.8 47,71.5 L47,71.5 L47,71.5 L47,71.5 Z" id="path33920"></path>
            <path d="M58,78.5 C58,78.2 58.2,78 58.5,78 C58.8,78 59,78.2 59,78.5 C59,78.8 58.8,79 58.5,79 C58.2,79 58,78.8 58,78.5 C58,78.5 58,78.8 58,78.5 L58,78.5 L58,78.5 L58,78.5 Z" id="path33914" fill="#B50027"></path>
            <polyline id="path33912" points="56 77.4 55.8 77 54.2 77 54 77.4 56 77.4"></polyline>
            <polyline id="path33910" points="56 78 55.8 79 54.2 79 54 78 56 78"></polyline>
            <path d="M52,85.5 C52,85.2 52.2,85 52.5,85 C52.8,85 53,85.2 53,85.5 C53,85.8 52.8,86 52.5,86 C52.2,86 52,85.8 52,85.5 C52,85.5 52,85.8 52,85.5 L52,85.5 L52,85.5 L52,85.5 Z" id="path33908" fill="#B50027"></path>
            <path d="M58,71.5 C58,71.2 58.2,71 58.5,71 C58.8,71 59,71.2 59,71.5 C59,71.8 58.8,72 58.5,72 C58.2,72 58,71.8 58,71.5 C58,71.5 58,71.8 58,71.5 L58,71.5 L58,71.5 L58,71.5 Z" id="path33902" fill="#B50027"></path>
            <path d="M52,71.5 C52,71.2 52.2,71 52.5,71 C52.8,71 53,71.2 53,71.5 C53,71.8 52.8,72 52.5,72 C52.2,72 52,71.8 52,71.5 C52,71.5 52,71.8 52,71.5 L52,71.5 L52,71.5 L52,71.5 Z" id="path33900" fill="#B50027"></path>
            <g id="g6386" transform="translate(47.000000, 71.000000)" fill="#DEAD00">
                <path d="M1.3,1.7 L3.5,4 L4,3.7 L1.8,1.4 C1.8,1.3 1.9,1.3 1.9,1.2 L3.5,1.2 L3.5,0.7 L1.9,0.7 C1.8,0.2 1.4,0 1,0 C0.5,0 0,0.4 0,0.9 C0,1.3 0.3,1.6 0.6,1.7 L0.6,3.5 L1.2,3.5 L1.3,1.7 L1.3,1.7 L1.3,1.7 L1.3,1.7 L1.3,1.7 L1.3,1.7 Z" id="path33848"></path>
                <polyline id="path33932" points="3 3.1 3.4 3 4 3.7 3.8 4 3 3.1"></polyline>
                <polyline id="path33930" points="3.2 3 3 3.3 3.6 4 4 3.9 3.2 3"></polyline>
            </g>
            <path d="M53,73 L52,73.2 L52,74.8 L53,75 L53,73 M53,73 L54,73.2 L54,74.8 L53,75 L53,73" id="path985" fill="#DEAD00"></path>
            <path d="M52,78 C52,77.4 52.4,77 53,77 C53.6,77 54,77.4 54,78 C54,78.6 53.6,79 53,79 C52.4,79 52,78.6 52,78" id="path986" fill="#006F46"></path>
            <path d="M53,57 L53,56.8 L53,56.7 L52.2,56.7 C51.9,56.6 51.7,56.5 51.4,56.3 C51.1,56.2 51,56 50.8,56 C50.4,56 50,56.1 50,56.1 C50,56.1 50.3,56.2 50.6,56.5 C50.9,56.8 51.1,56.9 51.3,56.9 C51.5,57 52.2,56.9 52.4,56.9 C52.5,57 53,57 53,57" id="path987" fill="#DB4446"></path>
            <path d="M53,57 L53,56.8 L53,56.7 L52.2,56.7 C51.9,56.6 51.7,56.5 51.4,56.3 C51.1,56.2 51,56 50.8,56 C50.4,56 50,56.1 50,56.1 C50,56.1 50.3,56.2 50.6,56.5 C50.9,56.8 51.1,56.9 51.3,56.9 C51.5,57 52.2,56.9 52.4,56.9 C52.5,57 53,57 53,57 L53,57 L53,57 L53,57 L53,57 L53,57 Z" id="path988" fill="#B50027"></path>
            <path d="M55.7,56.3 L55.7,56.7 C55.7,56.9 55.6,57.1 55.7,57.2 C55.7,57.3 55.7,57.4 55.8,57.5 C55.8,57.6 55.9,57.8 55.9,57.8 C55.9,57.8 55.8,57.7 55.7,57.6 C55.6,57.5 55.5,57.5 55.5,57.5 L55.5,57.8 C55.5,57.9 55.6,58.1 55.7,58.2 C55.8,58.3 56,58.5 56,58.6 C56.1,58.7 56,59.1 56,59.1 C56,59.1 55.9,58.9 55.7,58.8 C55.6,58.8 55.3,58.6 55.3,58.6 C55.3,58.6 55.5,58.8 55.5,59.1 C55.5,59.3 55.4,59.6 55.4,59.6 C55.4,59.6 55.3,59.4 55.1,59.2 C55,59.1 54.8,58.9 54.8,58.9 C54.8,58.9 55,59.3 55,59.5 L55,60.3 C55,60.3 54.9,60.1 54.8,60 C54.7,59.9 54.5,59.8 54.5,59.8 C54.5,59.7 54.6,60 54.7,60.2 C54.7,60.4 54.8,60.9 55.3,61.7 C55.6,62.1 56,62.9 57,62.6 C58,62.4 57.6,61 57.4,60.4 C57.2,59.8 57.1,59.1 57.1,58.9 C57.1,58.7 57.3,58 57.3,57.8 C57.3,57.7 57.2,57.2 57.3,56.8 C57.4,56.4 57.5,56.2 57.6,56 C57.7,55.8 57.7,55.7 57.7,55.6 L57.7,55.2 C57.7,55.2 57.9,55.5 57.9,55.7 L57.9,56.2 C57.9,56.2 57.9,55.8 58.2,55.7 C58.5,55.5 58.8,55.3 58.9,55.2 C59,55.1 59,55 59,55 C59,55 59,55.6 58.8,55.8 C58.7,56 58.3,56.5 58.3,56.5 C58.3,56.5 58.5,56.4 58.7,56.4 L59,56.4 C59,56.4 58.8,56.6 58.6,56.9 C58.4,57.3 58.5,57.3 58.3,57.6 C58.1,57.9 58,57.9 57.8,58.1 C57.5,58.4 57.6,59.5 57.7,59.6 C57.7,59.8 58.3,61.1 58.3,61.4 C58.3,61.7 58.4,62.4 57.8,62.9 C57.4,63.2 56.9,63.2 56.7,63.3 C56.6,63.4 56.3,63.7 56.3,64.2 C56.3,64.8 56.5,64.8 56.7,65 C56.9,65.1 57.1,65.1 57.1,65.2 C57.1,65.3 57.2,65.4 57.2,65.4 C57.3,65.5 57.3,65.5 57.3,65.7 C57.3,65.8 57,66.1 56.9,66.3 C56.8,66.5 56.6,67 56.6,67.1 C56.6,67.2 56.6,67.4 56.7,67.5 C56.7,67.5 57,67.8 56.8,67.9 C56.7,67.9 56.6,67.8 56.5,67.8 C56.3,67.8 56.2,67.9 56.2,67.9 C56.1,67.9 56.1,67.8 56.1,67.7 C56.1,67.5 56.1,67.5 56,67.5 C55.9,67.5 55.9,67.6 55.9,67.6 C55.9,67.7 55.9,67.9 55.8,67.9 C55.7,67.9 55.6,67.8 55.5,67.7 C55.4,67.7 55.2,67.6 55.2,67.5 C55.2,67.4 55.3,67.2 55.4,67.2 C55.5,67.2 55.6,67.1 55.6,67 C55.5,66.9 55.4,66.9 55.4,67 C55.3,67.1 55.2,67 55.2,66.9 L55.2,66.6 C55.2,66.5 55.1,66.4 55.2,66.3 C55.4,66.2 55.5,66.4 55.6,66.4 C55.8,66.4 55.9,66.3 55.9,66.2 C56,66.1 56,65.9 55.8,65.7 C55.7,65.6 55.6,65.5 55.5,65.5 C55.5,65.4 55.4,65.2 55.4,65.2 L55.4,65.6 L55.4,65.9 C55.4,65.9 55.3,65.8 55.2,65.7 C55.1,65.6 55,65.3 55,65.3 L55,65.7 C55,65.8 55.1,65.9 55.1,66 C55.1,66 54.8,65.8 54.8,65.7 C54.7,65.7 54.6,65.5 54.5,65.4 C54.4,65.2 54.4,65 54.3,65 C54.3,64.9 54.2,64.6 54.3,64.5 C54.4,64.4 54.4,64.1 54.4,64.1 L54,64.1 C53.8,64.1 53.6,64 53.5,64.2 C53.4,64.4 53.5,64.7 53.6,65.1 C53.7,65.5 53.8,65.7 53.7,65.8 C53.7,65.9 53.5,66 53.5,66.1 L53.2,66.1 C53.1,66.1 53,66 52.8,66 L52.4,66 C52.3,66 52.1,65.9 52,65.9 C51.9,65.9 51.8,66 51.8,66.1 C51.9,66.3 51.7,66.3 51.6,66.3 C51.5,66.3 51.4,66.3 51.3,66.2 C51.2,66.2 51,66.2 51,66.1 C51,66 51.1,66 51.1,65.9 C51.2,65.8 51.2,65.7 51.1,65.7 L50.9,65.7 C51,65.9 50.9,66 50.8,66 C50.7,66 50.7,65.9 50.7,65.7 C50.7,65.5 50.5,65.3 50.7,65.3 C50.9,65.3 51.1,65.5 51.2,65.3 C51.2,65.2 51.2,65.1 51.1,65.1 C51,65 50.9,65 51,64.9 C51.1,64.8 51.2,64.8 51.2,64.7 C51.3,64.6 51.3,64.5 51.4,64.5 C51.6,64.6 51.4,64.7 51.6,64.9 C51.8,65.1 51.9,65.2 52.2,65.2 C52.5,65.2 52.6,65.1 52.6,65 L52.6,64.7 L52.6,64.4 C52.6,64.4 52.5,64.5 52.4,64.6 C52.4,64.7 52.3,64.9 52.3,64.9 L52.3,64.6 L52.3,64.3 C52.3,64.2 52.2,64 52.2,64 C52.2,64 52.1,64.2 52.1,64.3 C52.1,64.4 52,64.6 52,64.6 C52,64.6 51.9,64.3 52,64 L52,63.4 C52.1,63.3 52.2,62.9 52.6,62.9 L53.5,62.9 C53.6,62.9 54.1,62.8 54.1,62.8 C54.1,62.8 53.2,62.3 53,62.2 C52.8,62.1 52.5,61.7 52.4,61.5 C52.3,61.3 52.2,61 52.2,61 C52.2,61 52,61 51.9,61 C51.8,61.1 51.6,61.2 51.5,61.3 C51.4,61.4 51.3,61.6 51.3,61.6 L51.3,61.2 L51.3,60.9 C51.3,60.9 51.2,61.3 51,61.5 C50.8,61.7 50.5,61.9 50.5,61.9 L50.5,61.6 C50.5,61.5 50.6,61.3 50.6,61.3 C50.6,61.3 50.5,61.5 50.2,61.6 C50,61.6 49.6,61.6 49.6,61.8 C49.6,61.9 49.7,62.1 49.6,62.2 C49.5,62.3 49.4,62.4 49.4,62.4 C49.4,62.4 49.3,62.3 49.2,62.3 C49.1,62.3 49,62.4 49,62.4 C49,62.4 48.9,62.3 48.9,62.2 C48.9,62.1 49.1,62 49.1,61.9 C49.1,61.8 48.9,61.9 48.8,62 C48.7,62 48.5,62.1 48.5,61.9 C48.5,61.8 48.6,61.7 48.5,61.6 C48.5,61.5 48.5,61.4 48.6,61.4 C48.7,61.4 48.9,61.4 49,61.3 C49,61.2 48.9,61.1 48.7,61.1 C48.5,61.1 48.4,60.9 48.5,60.9 L48.7,60.7 C48.7,60.6 48.8,60.5 48.9,60.5 C49.1,60.6 49,60.8 49.2,60.8 C49.4,60.9 49.8,60.8 49.9,60.7 C50,60.6 50.3,60.4 50.4,60.4 C50.5,60.4 50.9,60 50.9,60 C50.9,60 50.7,59.8 50.6,59.7 C50.5,59.6 50.4,59.4 50.3,59.4 C50.2,59.4 49.8,59.2 49.7,59.2 C49.6,59.2 49.2,59 49.2,59 L49.4,58.9 C49.5,58.8 49.6,58.7 49.7,58.7 L49.8,58.7 L49.3,58.7 C49.2,58.7 49,58.5 48.9,58.5 L48.6,58.5 C48.6,58.5 48.8,58.3 49,58.3 L49.3,58.3 C49.3,58.3 49,58.2 48.9,58.1 C49,58.2 48.9,58 48.8,58 C48.7,57.9 48.7,57.8 48.6,57.8 C48.5,57.8 48.3,57.9 48.2,57.9 C48.1,57.9 48,57.8 48,57.7 L48,57.5 C48,57.4 47.8,57.2 48,57.2 L48.4,57.2 C48.4,57.1 48.3,57 48.1,56.9 C48,56.8 47.8,56.7 47.9,56.7 C48,56.6 48.1,56.6 48.1,56.5 C48.2,56.4 48.2,56.2 48.3,56.3 C48.4,56.4 48.6,56.7 48.7,56.7 C48.8,56.7 48.8,56.4 48.8,56.3 C48.8,56.2 48.8,56 48.9,56 C49,56 49.1,56.1 49.2,56.1 C49.3,56.1 49.5,56.1 49.5,56.2 C49.5,56.3 49.4,56.4 49.3,56.5 C49.2,56.6 49.2,56.8 49.2,57 C49.3,57.1 49.4,57.4 49.6,57.5 C49.7,57.6 50,57.7 50.2,57.8 C50.4,57.9 50.8,58.2 50.9,58.3 C51,58.3 51.2,58.4 51.2,58.4 C51.2,58.4 51.3,58.3 51.5,58.3 L52.3,58.3 C52.5,58.2 52.7,58.1 52.6,57.9 C52.5,57.7 52.1,57.6 52.2,57.5 C52.2,57.4 52.4,57.4 52.6,57.4 C52.8,57.4 53.2,57.4 53.2,57.1 C53.3,56.8 53.3,56.6 52.9,56.5 C52.6,56.4 52.3,56.4 52.3,56.2 C52.2,56 52.2,55.9 52.2,55.8 C52.3,55.7 52.4,55.7 52.6,55.7 C52.8,55.7 53.1,55.7 53.2,55.6 C53.3,55.5 53.3,55.4 53.4,55.3 C53.5,55.2 53.9,55.2 53.9,55.2 C53.9,55.2 54.3,55.4 54.8,55.7 C55.4,55.9 55.7,56.3 55.7,56.3" id="path989" fill="#D85AAE"></path>
            <path d="M52.1,56.4 C52.1,56.4 52,56.2 52,56.1 L52,56 C52,56 52.4,56 52.4,56.1 C52.4,56.2 52.3,56.2 52.3,56.3 C52.2,56.3 52.1,56.4 52.1,56.4" id="path991" fill="#000000"></path>
            <path d="M52.1,56.4 C52.1,56.4 52,56.2 52,56.1 L52,56 C52,56 52.4,56 52.4,56.1 C52.4,56.2 52.3,56.2 52.3,56.3 C52.2,56.3 52.1,56.4 52.1,56.4 L52.1,56.4 L52.1,56.4 L52.1,56.4 L52.1,56.4 Z" id="path992"></path>
            <path d="M53,56.1 L53,56 C53,56 53.4,56 53.6,56.1 C53.9,56.2 54.1,56.4 54,56.4 C54,56.4 53.7,56.3 53.6,56.3 L53.4,56.3 C53.3,56.3 53.2,56.3 53.2,56.2 L53.2,56.1 L53,56.1" id="path993" fill="#000000"></path>
            <path d="M53,56.1 L53,56 C53,56 53.4,56 53.6,56.1 C53.9,56.2 54.1,56.4 54,56.4 C54,56.4 53.7,56.3 53.6,56.3 L53.4,56.3 C53.3,56.3 53.2,56.3 53.2,56.2 L53.2,56.1 L53,56.1 L53,56.1 L53,56.1 L53,56.1 L53,56.1 L53,56.1 Z" id="path994"></path>
            <path d="M55.2,57.4 L55.1,57.2 C55,57.1 55,57 55,57" id="path995"></path>
            <path d="M49,55.8 C49,55.8 49.3,55.9 49.5,56 L50,56 C50,56 50.1,55.8 50.1,55.6 C50,55.1 49.4,55 49.4,55 C49.4,55 49.6,55.3 49.5,55.4 C49.2,55.7 49,55.8 49,55.8" id="path996" fill="#DB4446"></path>
            <path d="M49,55.8 C49,55.8 49.3,55.9 49.5,56 L50,56 C50,56 50.1,55.8 50.1,55.6 C50,55.1 49.4,55 49.4,55 C49.4,55 49.6,55.3 49.5,55.4 C49.2,55.7 49,55.8 49,55.8 L49,55.8 L49,55.8 L49,55.8 L49,55.8 Z" id="path997" fill="#B50027"></path>
            <path d="M48,56.4 C48,56.4 47.9,56 47.5,56 C47.2,56.1 47,56.4 47,56.4 C47,56.4 47.4,56.4 47.4,56.5 C47.5,56.6 47.6,57 47.6,57 L47.9,56.7 C47.9,56.6 48,56.4 48,56.4" id="path998" fill="#DB4446"></path>
            <path d="M48,56.4 C48,56.4 47.9,56 47.5,56 C47.2,56.1 47,56.4 47,56.4 C47,56.4 47.4,56.4 47.4,56.5 C47.5,56.6 47.6,57 47.6,57 L47.9,56.7 C47.9,56.6 48,56.4 48,56.4 L48,56.4 L48,56.4 L48,56.4 L48,56.4 Z" id="path999" fill="#B50027"></path>
            <path d="M47.7,57 C47.7,57 47.3,57.1 47.1,57.3 C47,57.5 47,58 47,58 C47,58 47.2,57.7 47.5,57.7 C47.7,57.7 48,57.8 48,57.8 C48,57.8 47.9,57.5 47.9,57.4 C47.9,57.3 47.7,57 47.7,57" id="path1000" fill="#DB4446"></path>
            <path d="M47.7,57 C47.7,57 47.3,57.1 47.1,57.3 C47,57.5 47,58 47,58 C47,58 47.2,57.7 47.5,57.7 C47.7,57.7 48,57.8 48,57.8 C48,57.8 47.9,57.5 47.9,57.4 C47.9,57.3 47.7,57 47.7,57 L47.7,57 L47.7,57 L47.7,57 L47.7,57 Z" id="path1001" fill="#B50027"></path>
            <polyline id="path1002" fill="#000000" points="52 57.2 52.1 57 52.2 57.1 52 57.2"></polyline>
            <polyline id="path1003" points="52 57.2 52.1 57 52.2 57.1 52 57.2"></polyline>
            <polyline id="path1004" fill="#000000" points="52 57.2 52.2 57 52.4 57.1 52 57.2"></polyline>
            <polyline id="path1005" points="52 57.2 52.2 57 52.4 57.1 52 57.2"></polyline>
            <polyline id="path1006" fill="#000000" points="52 56 52.4 56.1 52 56.2 52 56"></polyline>
            <polyline id="path1007" points="52 56 52.4 56.1 52 56.2 52 56"></polyline>
            <polyline id="path1008" fill="#000000" points="53 56 53.2 56 53 56.2 53 56"></polyline>
            <polyline id="path1009" points="53 56 53.2 56 53 56.2 53 56"></polyline>
            <path d="M50.5,58 C50.5,58 50.2,58.1 50.1,58.3 C50,58.5 50,58.7 50,58.7 C50,58.7 50.2,58.5 50.5,58.6 C50.8,58.7 50.8,58.7 51,58.7 C51.1,58.7 51.4,58.6 51.4,58.6 C51.4,58.6 51.2,59 51.2,59.2 C51.2,59.4 51.3,59.6 51.3,59.7 C51.3,60 51.1,60.4 51.1,60.4 C51.1,60.4 51.2,60.3 51.5,60.3 C51.7,60.2 52,60.1 52.1,60 C52.2,59.9 52.4,59.6 52.4,59.6 C52.4,59.6 52.3,60 52.4,60.2 C52.5,60.4 52.5,60.9 52.5,60.9 L52.8,60.6 C52.9,60.6 53,60.4 53.1,60.3 C53.1,60.2 53.2,59.9 53.2,59.9 C53.2,59.9 53.2,60.3 53.3,60.5 C53.4,60.7 53.5,61.2 53.5,61.2 C53.5,61.2 53.6,60.8 53.7,60.7 C53.8,60.6 53.9,60.4 53.9,60.3 L53.9,59.9 L54,60 M50,60 C50,60 50.2,59.6 50.3,59.5 C50.4,59.4 50.6,59.2 50.7,59.2 C50.8,59.2 51,59 51,59 M52,61 C52,61 52.4,60.7 52.5,60.6 C52.8,60.4 53,60 53,60" id="path1010"></path>
            <path d="M49,60.1 C49,60.1 48.8,60 48.5,60 C48.2,60 48,60.3 48,60.3 L48.4,60.3 C48.6,60.3 48.7,60.4 48.7,60.4 C48.7,60.4 48.8,60.3 48.9,60.3 C48.9,60.2 49,60.1 49,60.1" id="path1011" fill="#DB4446"></path>
            <path d="M49,60.1 C49,60.1 48.8,60 48.5,60 C48.2,60 48,60.3 48,60.3 L48.4,60.3 C48.6,60.3 48.7,60.4 48.7,60.4 C48.7,60.4 48.8,60.3 48.9,60.3 C48.9,60.2 49,60.1 49,60.1 L49,60.1 L49,60.1 L49,60.1 L49,60.1 L49,60.1 Z" id="path1012" fill="#B50027"></path>
            <path d="M48.9,61 C48.9,61 48.6,61 48.3,61.1 C48,61.2 48,61.4 48,61.4 C48,61.4 48.3,61.3 48.5,61.3 C48.7,61.3 49,61.4 49,61.4 C49,61.4 49,61.3 49.1,61.2 C49,61.1 48.9,61 48.9,61" id="path1013" fill="#DB4446"></path>
            <path d="M48.9,61 C48.9,61 48.6,61 48.3,61.1 C48,61.2 48,61.4 48,61.4 C48,61.4 48.3,61.3 48.5,61.3 C48.7,61.3 49,61.4 49,61.4 C49,61.4 49,61.3 49.1,61.2 C49,61.1 48.9,61 48.9,61 L48.9,61 L48.9,61 L48.9,61 L48.9,61 Z" id="path1014" fill="#B50027"></path>
            <path d="M48,62 C48,62 48,62.4 48.1,62.7 C48.2,63 48.4,63 48.4,63 C48.4,63 48.3,62.7 48.3,62.6 C48.3,62.4 48.4,62.2 48.4,62.2 C48.4,62.2 48.3,62 48.2,62 L48,62" id="path1015" fill="#DB4446"></path>
            <path d="M48,62 C48,62 48,62.4 48.1,62.7 C48.2,63 48.4,63 48.4,63 C48.4,63 48.3,62.7 48.3,62.6 C48.3,62.4 48.4,62.2 48.4,62.2 C48.4,62.2 48.3,62 48.2,62 L48,62 L48,62 L48,62 L48,62 L48,62 Z" id="path1016" fill="#B50027"></path>
            <path d="M54,62 C54,62 55,62.5 55,63 C55,63.4 54.4,64 54.4,64" id="path1017"></path>
            <path d="M51,64.1 C51,64.1 50.8,63.9 50.5,64 C50.2,64 50,64.2 50,64.2 C50,64.2 50.3,64.2 50.4,64.3 C50.5,64.4 50.6,64.5 50.6,64.5 C50.6,64.5 50.7,64.4 50.8,64.4 C50.9,64.3 51,64.1 51,64.1" id="path1018" fill="#DB4446"></path>
            <path d="M51,64.1 C51,64.1 50.8,63.9 50.5,64 C50.2,64 50,64.2 50,64.2 C50,64.2 50.3,64.2 50.4,64.3 C50.5,64.4 50.6,64.5 50.6,64.5 C50.6,64.5 50.7,64.4 50.8,64.4 C50.9,64.3 51,64.1 51,64.1 L51,64.1 L51,64.1 L51,64.1 L51,64.1 Z" id="path1019" fill="#B50027"></path>
            <path d="M50.8,65 C50.8,65 50.4,65 50.2,65.1 C50,65.2 50,65.4 50,65.4 C50,65.4 50.3,65.3 50.5,65.3 C50.7,65.3 51,65.4 51,65.4 C51,65.4 51,65.3 50.9,65.2 C50.9,65.1 50.8,65 50.8,65" id="path1020" fill="#DB4446"></path>
            <path d="M50.8,65 C50.8,65 50.4,65 50.2,65.1 C50,65.2 50,65.4 50,65.4 C50,65.4 50.3,65.3 50.5,65.3 C50.7,65.3 51,65.4 51,65.4 C51,65.4 51,65.3 50.9,65.2 C50.9,65.1 50.8,65 50.8,65 L50.8,65 L50.8,65 L50.8,65 L50.8,65 Z" id="path1021" fill="#B50027"></path>
            <path d="M51.1,66 C51.1,66 51,66.3 51.1,66.6 C51.2,66.9 51.3,67 51.3,67 C51.3,67 51.2,66.8 51.3,66.6 C51.3,66.4 51.4,66.2 51.4,66.2 L51.1,66" id="path1022" fill="#DB4446"></path>
            <path d="M51.1,66 C51.1,66 51,66.3 51.1,66.6 C51.2,66.9 51.3,67 51.3,67 C51.3,67 51.2,66.8 51.3,66.6 C51.3,66.4 51.4,66.2 51.4,66.2 L51.1,66 L51.1,66 L51.1,66 L51.1,66 L51.1,66 L51.1,66 Z" id="path1023" fill="#B50027"></path>
            <path d="M54.9,67 L54.3,67 C54.1,67.1 53.9,67.3 53.9,67.3 C53.9,67.3 54.2,67.1 54.5,67.2 C54.7,67.2 54.9,67.3 54.9,67.3 L54.9,67.1 C55,67.1 54.9,67 54.9,67" id="path1024" fill="#B50027"></path>
            <path d="M54.9,67 L54.3,67 C54.1,67.1 53.9,67.3 53.9,67.3 C53.9,67.3 54.2,67.1 54.5,67.2 C54.7,67.2 54.9,67.3 54.9,67.3 L54.9,67.1 C55,67.1 54.9,67 54.9,67 L54.9,67 L54.9,67 L54.9,67 L54.9,67 Z" id="path1025" fill="#B50027"></path>
            <path d="M54.2,67 C54.2,67 53.9,67.3 54,67.5 C54.1,67.7 54.3,68 54.3,68 C54.3,68 54.3,67.6 54.4,67.6 C54.6,67.5 54.9,67.4 54.9,67.4 C54.9,67.4 54.6,67.2 54.5,67.2 C54.6,67.1 54.2,67 54.2,67" id="path1026" fill="#B50027"></path>
            <path d="M54.2,67 C54.2,67 53.9,67.3 54,67.5 C54.1,67.7 54.3,68 54.3,68 C54.3,68 54.3,67.6 54.4,67.6 C54.6,67.5 54.9,67.4 54.9,67.4 C54.9,67.4 54.6,67.2 54.5,67.2 C54.6,67.1 54.2,67 54.2,67 L54.2,67 L54.2,67 L54.2,67 L54.2,67 Z" id="path1027" fill="#B50027"></path>
            <path d="M56,67.1 C56,67.1 55.9,67.5 56.1,67.7 C56.2,67.9 56.3,68 56.3,68 C56.3,68 56.2,67.6 56.2,67.4 C56.2,67.2 56.3,67.1 56.3,67.1 L56.2,67 L56,67.1" id="path1028" fill="#B50027"></path>
            <path d="M56,67.1 C56,67.1 55.9,67.5 56.1,67.7 C56.2,67.9 56.3,68 56.3,68 C56.3,68 56.2,67.6 56.2,67.4 C56.2,67.2 56.3,67.1 56.3,67.1 L56.2,67 L56,67.1 L56,67.1 L56,67.1 L56,67.1 L56,67.1 Z" id="path1029" fill="#B50027"></path>
            <path d="M45.1,84.6 C45.7,84.8 46,85.3 46,85.8 C46,86.5 45.4,87 44.5,87 C43.7,87 43,86.5 43,85.8 C43,85.3 43.3,84.7 43.9,84.6 C43.9,84.6 43.9,84.5 43.8,84.5 C43.7,84.4 43.6,84.3 43.6,84.3 L44,84.3 C44.1,84.4 44.2,84.4 44.2,84.4 C44.2,84.4 44.3,84.3 44.3,84.2 C44.4,84.1 44.5,84 44.5,84 C44.5,84 44.6,84.1 44.7,84.2 C44.7,84.3 44.8,84.4 44.8,84.4 C44.8,84.4 44.9,84.3 45,84.3 C45.1,84.3 45.2,84.2 45.2,84.2 C45.2,84.2 45.2,84.3 45.1,84.4 C45.1,84.4 45.1,84.6 45.1,84.6" id="path1030" fill="#F6CB7E"></path>
            <path d="M46,87.9 C46,87.9 44.6,87.2 44,87.1 C43.2,87 42.4,87.1 42,87.1 C42,87.1 42.4,87.3 42.6,87.5 C42.8,87.6 43.4,87.9 43.8,88 C45,88.1 46,87.9 46,87.9" id="path1032" fill="#058E6E"></path>
            <path d="M45,88 C45,88 45.9,87.2 46.8,87.1 C47.9,87 48.6,87.2 49,87.3 C49,87.3 48.7,87.5 48.5,87.6 C48.3,87.6 47.8,88 47,88 C46.3,88 45.4,87.9 45.3,87.9 C45.2,88 45,88 45,88" id="path1034" fill="#058E6E"></path>
            <path d="M45.5,87 C45.2,86.7 45,86.4 45,86 C45,85.6 45.2,85.3 45.5,85 C45.8,85.2 46,85.6 46,86 C46,86.4 45.8,86.7 45.5,87" id="path1036" fill="#B50027"></path>
            <path d="M45,89 C45,89 45.1,88.4 45.1,87.9 L45.1,87 L45.2,87 L45.3,87 C45.3,87 45.4,87.5 45.4,87.9 L45.4,88.8 C45.4,88.8 45.3,88.8 45.2,88.9 C45.1,88.9 45,89 45,89" id="path1038" fill="#058E6E"></path>
            <polygon id="path6420" fill="#DEAD00" points="34.3 61 34.3 65.6 33 65.6 33 68 42 68 42 65.6 40.8 65.6 40.8 61 34.3 61 34.3 61 34.3 61"></polygon>
            <path d="M33,68 L42,68" id="path6418" fill="#9F7E00"></path>
            <polygon id="path5975" fill="#DEAD00" points="33 61 33 59 34 59 34.3 59.2 34.3 60.2 35.1 60.2 35.1 59.2 35.4 59 36.3 59 36.6 59.2 36.6 60.2 37.5 60.2 37.5 59.3 37.7 59.1 38.6 59.1 38.9 59.3 38.9 60.2 39.7 60.2 39.7 59.3 40 59.1 41.1 59.1 41.1 61.1 33 61 33 61 33 61"></polygon>
            <path d="M42,69 C42,66.8 43.6,65 45.5,65 C47.4,65 49,66.8 49,69 C49,71.2 47.4,73 45.5,73 C43.6,73 42,71.2 42,69" id="path1154" fill-opacity="0.9412" fill="#005BBF"></path>
            <path d="M42,69 C42,66.8 43.6,65 45.5,65 C47.4,65 49,66.8 49,69 C49,71.2 47.4,73 45.5,73 C43.6,73 42,71.2 42,69 C42,69 42,71.2 42,69 L42,69 L42,69 L42,69 Z" id="path1155" fill="#0044AD"></path>
            <path d="M43,67 C43,67 42.6,67.5 42.6,68 C42.6,68.5 42.8,68.9 42.8,68.9 C42.7,68.7 42.6,68.6 42.4,68.6 C42.2,68.6 42,68.8 42,69.1 C42,69.2 42,69.3 42.1,69.4 L42.2,69.7 C42.2,69.6 42.3,69.5 42.5,69.5 C42.7,69.5 42.8,69.7 42.8,69.9 L42.8,70 L42.5,70 L42.5,70.4 L42.8,70.4 L42.6,71 L42.9,70.9 L43,71 L43.2,70.7 L43.5,70.8 L43.3,70.2 L43.6,70.2 L43.6,69.8 L43.3,69.8 L43.3,69.7 C43.3,69.5 43.4,69.3 43.6,69.3 C43.7,69.3 43.8,69.4 43.9,69.5 L44,69.2 C44,69.1 44.1,69 44.1,68.9 C44.1,68.6 43.9,68.4 43.7,68.4 C43.5,68.4 43.4,68.5 43.3,68.7 C43.3,68.7 43.5,68.3 43.5,67.8 C43.4,67.5 43,67 43,67" id="path1156" fill="#C8B100"></path>
            <path d="M43,67 C43,67 42.6,67.5 42.6,68 C42.6,68.5 42.8,68.9 42.8,68.9 C42.7,68.7 42.6,68.6 42.4,68.6 C42.2,68.6 42,68.8 42,69.1 C42,69.2 42,69.3 42.1,69.4 L42.2,69.7 C42.2,69.6 42.3,69.5 42.5,69.5 C42.7,69.5 42.8,69.7 42.8,69.9 L42.8,70 L42.5,70 L42.5,70.4 L42.8,70.4 L42.6,71 L42.9,70.9 L43,71 L43.2,70.7 L43.5,70.8 L43.3,70.2 L43.6,70.2 L43.6,69.8 L43.3,69.8 L43.3,69.7 C43.3,69.5 43.4,69.3 43.6,69.3 C43.7,69.3 43.8,69.4 43.9,69.5 L44,69.2 C44,69.1 44.1,69 44.1,68.9 C44.1,68.6 43.9,68.4 43.7,68.4 C43.5,68.4 43.4,68.5 43.3,68.7 C43.3,68.7 43.5,68.3 43.5,67.8 C43.4,67.5 43,67 43,67 L43,67 L43,67 L43,67 L43,67 L43,67 Z" id="path1157" fill="#DEAD00"></path>
            <polygon id="path1158" fill="#C8B100" points="43 69.4 45 69.4 45 69 43 69 43 69.4 43 69.4 43 69.4"></polygon>
            <polygon id="path1159" fill="#DEAD00" points="43 69.4 45 69.4 45 69 43 69 43 69.4 43 69.4 43 69.4"></polygon>
            <path d="M46,67 C46,67 45.6,67.5 45.6,68 C45.6,68.5 45.8,68.9 45.8,68.9 C45.7,68.7 45.6,68.6 45.4,68.6 C45.2,68.6 45,68.8 45,69.1 C45,69.2 45,69.3 45.1,69.4 L45.2,69.7 C45.2,69.6 45.3,69.5 45.5,69.5 C45.7,69.5 45.8,69.7 45.8,69.9 L45.8,70 L45.5,70 L45.5,70.4 L45.8,70.4 L45.6,71 L45.9,70.9 L46,71 L46.2,70.7 L46.5,70.8 L46.3,70.2 L46.6,70.2 L46.6,69.8 L46.3,69.8 L46.3,69.7 C46.3,69.5 46.4,69.3 46.6,69.3 C46.7,69.3 46.8,69.4 46.9,69.5 L47,69.2 C47,69.1 47.1,69 47.1,68.9 C47.1,68.6 46.9,68.4 46.7,68.4 C46.5,68.4 46.4,68.5 46.3,68.7 C46.3,68.7 46.5,68.3 46.5,67.8 C46.4,67.5 46,67 46,67" id="path1160" fill="#C8B100"></path>
            <path d="M46,67 C46,67 45.6,67.5 45.6,68 C45.6,68.5 45.8,68.9 45.8,68.9 C45.7,68.7 45.6,68.6 45.4,68.6 C45.2,68.6 45,68.8 45,69.1 C45,69.2 45,69.3 45.1,69.4 L45.2,69.7 C45.2,69.6 45.3,69.5 45.5,69.5 C45.7,69.5 45.8,69.7 45.8,69.9 L45.8,70 L45.5,70 L45.5,70.4 L45.8,70.4 L45.6,71 L45.9,70.9 L46,71 L46.2,70.7 L46.5,70.8 L46.3,70.2 L46.6,70.2 L46.6,69.8 L46.3,69.8 L46.3,69.7 C46.3,69.5 46.4,69.3 46.6,69.3 C46.7,69.3 46.8,69.4 46.9,69.5 L47,69.2 C47,69.1 47.1,69 47.1,68.9 C47.1,68.6 46.9,68.4 46.7,68.4 C46.5,68.4 46.4,68.5 46.3,68.7 C46.3,68.7 46.5,68.3 46.5,67.8 C46.4,67.5 46,67 46,67 L46,67 L46,67 L46,67 L46,67 L46,67 Z" id="path1161" fill="#DEAD00"></path>
            <polygon id="path1162" fill="#C8B100" points="46 69.4 48 69.4 48 69 46 69 46 69.4 46 69.4 46 69.4"></polygon>
            <polygon id="path1163" fill="#DEAD00" points="46 69.4 48 69.4 48 69 46 69 46 69.4 46 69.4 46 69.4"></polygon>
            <path d="M45,70 C45,70 44.6,70.5 44.6,71 C44.6,71.5 44.8,71.9 44.8,71.9 C44.7,71.7 44.6,71.6 44.4,71.6 C44.2,71.6 44,71.8 44,72.1 C44,72.2 44,72.3 44.1,72.4 L44.2,72.7 C44.2,72.6 44.3,72.5 44.5,72.5 C44.7,72.5 44.8,72.7 44.8,72.9 L44.8,73 L44.5,73 L44.5,73.4 L44.8,73.4 L44.6,74 L44.9,73.9 L45,74 L45.2,73.7 L45.5,73.8 L45.3,73.2 L45.6,73.2 L45.6,72.8 L45.3,72.8 L45.3,72.7 C45.3,72.5 45.4,72.3 45.6,72.3 C45.7,72.3 45.8,72.4 45.9,72.5 L46,72.2 C46,72.1 46.1,72 46.1,71.9 C46.1,71.6 45.9,71.4 45.7,71.4 C45.5,71.4 45.4,71.5 45.3,71.7 C45.3,71.7 45.5,71.3 45.5,70.8 C45.5,70.3 45,70 45,70" id="path1164" fill="#C8B100"></path>
            <path d="M45,70 C45,70 44.6,70.5 44.6,71 C44.6,71.5 44.8,71.9 44.8,71.9 C44.7,71.7 44.6,71.6 44.4,71.6 C44.2,71.6 44,71.8 44,72.1 C44,72.2 44,72.3 44.1,72.4 L44.2,72.7 C44.2,72.6 44.3,72.5 44.5,72.5 C44.7,72.5 44.8,72.7 44.8,72.9 L44.8,73 L44.5,73 L44.5,73.4 L44.8,73.4 L44.6,74 L44.9,73.9 L45,74 L45.2,73.7 L45.5,73.8 L45.3,73.2 L45.6,73.2 L45.6,72.8 L45.3,72.8 L45.3,72.7 C45.3,72.5 45.4,72.3 45.6,72.3 C45.7,72.3 45.8,72.4 45.9,72.5 L46,72.2 C46,72.1 46.1,72 46.1,71.9 C46.1,71.6 45.9,71.4 45.7,71.4 C45.5,71.4 45.4,71.5 45.3,71.7 C45.3,71.7 45.5,71.3 45.5,70.8 C45.5,70.3 45,70 45,70 L45,70 L45,70 L45,70 L45,70 L45,70 Z" id="path1165" fill="#DEAD00"></path>
            <polygon id="path1166" fill="#C8B100" points="44 72.4 46 72.4 46 72 44 72 44 72.4 44 72.4 44 72.4"></polygon>
            <polygon id="path1167" fill="#DEAD00" points="44 72.4 46 72.4 46 72 44 72 44 72.4 44 72.4 44 72.4"></polygon>
            <path d="M55.8,54.7 L55.7,54.7 L55.6,54.8 C55.5,54.9 55.4,54.9 55.3,54.8 L55.2,54.7 L55,54.7 C54.9,54.7 54.9,54.6 54.9,54.5 C54.9,54.5 54.9,54.5 54.9,54.4 L54.9,54.3 L54.8,54.3 L54.8,54.4 C54.7,54.5 54.6,54.5 54.5,54.4 C54.5,54.4 54.4,54.3 54.5,54.3 C54.5,54.3 54.5,54.3 54.4,54.3 C54.2,54.3 54.1,54 54.1,53.9 L54,54 C54,54 54.1,54.2 54,54.4 C54,54.6 53.9,54.8 53.9,54.8 C54.2,54.9 54.6,55 55,55.3 C55.4,55.5 55.7,55.8 55.9,56 C55.9,56 56.1,55.9 56.3,55.8 C56.5,55.7 56.8,55.7 56.8,55.7 L56.9,55.6 C56.8,55.6 56.3,55.6 56.3,55.5 L56.3,55.4 L56.2,55.4 C56.1,55.4 56.1,55.3 56.2,55.2 L56.3,55.2 L56.3,55.1 L56.2,55.1 C56.2,55.1 56.2,55.1 56.1,55.1 C56,55.2 55.9,55.2 55.8,55.1 C55.8,55.1 55.7,55 55.8,55 L55.6,55 C55.5,55 55.5,54.8 55.6,54.8 C55.7,54.8 55.8,54.8 55.8,54.7 L55.8,54.7" id="path1168" fill="#9F7E00"></path>
            <path d="M55.8,54.7 L55.7,54.7 L55.6,54.8 C55.5,54.9 55.4,54.9 55.3,54.8 L55.2,54.7 L55,54.7 C54.9,54.7 54.9,54.6 54.9,54.5 C54.9,54.5 54.9,54.5 54.9,54.4 L54.9,54.3 L54.8,54.3 L54.8,54.4 C54.7,54.5 54.6,54.5 54.5,54.4 C54.5,54.4 54.4,54.3 54.5,54.3 C54.5,54.3 54.5,54.3 54.4,54.3 C54.2,54.3 54.1,54 54.1,53.9 L54,54 C54,54 54.1,54.2 54,54.4 C54,54.6 53.9,54.8 53.9,54.8 C54.2,54.9 54.6,55 55,55.3 C55.4,55.5 55.7,55.8 55.9,56 C55.9,56 56.1,55.9 56.3,55.8 C56.5,55.7 56.8,55.7 56.8,55.7 L56.9,55.6 C56.8,55.6 56.3,55.6 56.3,55.5 L56.3,55.4 L56.2,55.4 C56.1,55.4 56.1,55.3 56.2,55.2 L56.3,55.2 L56.3,55.1 L56.2,55.1 C56.2,55.1 56.2,55.1 56.1,55.1 C56,55.2 55.9,55.2 55.8,55.1 C55.8,55.1 55.7,55 55.8,55 L55.6,55 C55.5,55 55.5,54.8 55.6,54.8 C55.7,54.8 55.8,54.8 55.8,54.7 L55.8,54.7 L55.8,54.7 L55.8,54.7 L55.8,54.7 L55.8,54.7 L55.8,54.7 Z" id="path1169" fill="#DEAD00"></path>
            <path d="M54,55 L54.1,55 L54.1,55.1 L54,55.1 C54,55.1 54,55.1 54,55" id="path1170" fill="#9F7E00"></path>
            <path d="M54,55 L54.1,55 L54.1,55.1 L54,55.1 C54,55.1 54,55.1 54,55 C54,55 54,55.1 54,55 L54,55 L54,55 L54,55 Z" id="path1171" fill="#9F7E00"></path>
            <path d="M54.2,55.1 L54,55 L54,55 C54,55 54.1,55 54.2,55.1 L54.2,55.1 L54.4,55.1 L54.4,55.1 C54.4,55.1 54.4,55.1 54.3,55.1 L54.2,55.1" id="path1172" fill="#9F7E00"></path>
            <path d="M54.2,55.1 L54,55 L54,55 C54,55 54.1,55 54.2,55.1 L54.2,55.1 L54.4,55.1 L54.4,55.1 C54.4,55.1 54.4,55.1 54.3,55.1 L54.2,55.1" id="path1173" fill="#9F7E00"></path>
            <path d="M54.2,55.1 L54.1,55.1 L54.1,55.1 C54,55 54.1,55 54.2,55.1 L54.2,55.1 L54.4,55.1 L54.4,55.1 L54.3,55.1 L54.2,55.1" id="path1174" fill="#9F7E00"></path>
            <path d="M54.2,55.1 L54.1,55.1 L54.1,55.1 C54,55 54.1,55 54.2,55.1 L54.2,55.1 L54.4,55.1 L54.4,55.1 L54.3,55.1 L54.2,55.1" id="path1175" fill="#9F7E00"></path>
            <path d="M54,55 L54.1,55 L54.1,55.1 L54,55.1 C54,55.1 54,55.1 54,55" id="path1176" fill="#9F7E00"></path>
            <path d="M54,55 L54.1,55 L54.1,55.1 L54,55.1 C54,55.1 54,55.1 54,55 C54,55 54,55.1 54,55 L54,55 L54,55 L54,55 Z" id="path1177" fill="#9F7E00"></path>
            <path d="M55.1,56.1 L55.1,56 L55,56 L55,56.1 C55.1,56.2 55.1,56.2 55.1,56.1" id="path1178" fill="#9F7E00"></path>
            <path d="M55.1,56.1 L55.1,56 L55,56 L55,56.1 C55.1,56.2 55.1,56.2 55.1,56.1 C55.1,56.1 55.1,56.2 55.1,56.1 L55.1,56.1 L55.1,56.1 L55.1,56.1 Z" id="path1179" fill="#9F7E00"></path>
            <path d="M55.1,56.1 L55.1,56.1 C55.1,56.2 55.1,56.2 55.1,56.1 L55.1,56.1 L55.1,56.1 L55.1,56.1 C55,56 55,56 55.1,56.1 C55,56 55,56 55.1,56.1 L55.1,56.1" id="path1180" fill="#9F7E00"></path>
            <path d="M55.1,56.1 L55.1,56.1 C55.1,56.2 55.1,56.2 55.1,56.1 L55.1,56.1 L55.1,56.1 L55.1,56.1 C55,56 55,56 55.1,56.1 C55,56 55,56 55.1,56.1 L55.1,56.1" id="path1181" fill="#9F7E00"></path>
            <path d="M55.1,56.1 L55.1,56 L55,56 L55,56.1 C55.1,56.2 55.1,56.2 55.1,56.1" id="path1182" fill="#9F7E00"></path>
            <path d="M55.1,56.1 L55.1,56 L55,56 L55,56.1 C55.1,56.2 55.1,56.2 55.1,56.1 C55.1,56.1 55.1,56.2 55.1,56.1 L55.1,56.1 L55.1,56.1 L55.1,56.1 Z" id="path1183" fill="#9F7E00"></path>
            <polyline id="path1184" fill="#9F7E00" points="54.3 54 54 54 54 54.3 54 54.4 54.1 54.4 54.4 54.2 54.3 54"></polyline>
            <polyline id="path1185" fill="#DEAD00" points="54.3 54 54 54 54 54.3 54 54.4 54.1 54.4 54.4 54.2 54.3 54"></polyline>
            <polyline id="path1186" fill="#9F7E00" points="54 54.1 54 54.3 54.3 54.3 54.4 54.3 54.4 54.2 54.2 54 54 54.1"></polyline>
            <polyline id="path1187" fill="#DEAD00" points="54 54.1 54 54.3 54.3 54.3 54.4 54.3 54.4 54.2 54.2 54 54 54.1"></polyline>
            <polyline id="path1188" fill="#9F7E00" points="54.4 54.3 54.2 54.4 54 54.1 54 54 54.1 54 54.4 54 54.4 54.3"></polyline>
            <polyline id="path1189" fill="#DEAD00" points="54.4 54.3 54.2 54.4 54 54.1 54 54 54.1 54 54.4 54 54.4 54.3"></polyline>
            <path d="M54,54 C54,54 54.1,53.9 54.1,54 L54.1,54.1 L54,54.1 C54,54.1 54,54.1 54,54" id="path1190" fill="#9F7E00"></path>
            <path d="M54,54 C54,54 54.1,53.9 54.1,54 L54.1,54.1 L54,54.1 C54,54.1 54,54.1 54,54 C54,54 54,54.1 54,54 L54,54 L54,54 L54,54 Z" id="path1191" fill="#DEAD00"></path>
            <path d="M53.2,54.4 C53.2,54.4 53.2,54.3 53.1,54.2 C53.1,54.1 53,54.1 53,54.1 C53,54.1 53.2,54 53.3,54.1 C53.5,54.1 53.3,54.3 53.2,54.4 C53.3,54.3 53.3,54.4 53.2,54.4" id="path1192" fill="#C8B100"></path>
            <path d="M53.2,54.4 C53.2,54.4 53.2,54.3 53.1,54.2 C53.1,54.1 53,54.1 53,54.1 C53,54.1 53.2,54 53.3,54.1 C53.5,54.1 53.3,54.3 53.2,54.4 C53.3,54.3 53.3,54.4 53.2,54.4 L53.2,54.4 L53.2,54.4 L53.2,54.4 L53.2,54.4 L53.2,54.4 Z" id="path1193" fill="#DEAD00"></path>
            <polyline id="path1194" fill="#9F7E00" points="54.4 54.2 54.3 54.4 54 54.1 54 54.1 54 54 54.3 54 54.4 54.2"></polyline>
            <polyline id="path1195" fill="#DEAD00" points="54.4 54.2 54.3 54.4 54 54.1 54 54.1 54 54 54.3 54 54.4 54.2"></polyline>
            <path d="M54,54.1 L54.1,54 C54.1,54 54.2,54.1 54.1,54.1 C54.1,54.1 54.1,54.2 54,54.1 L54,54.1" id="path1196" fill="#9F7E00"></path>
            <path d="M54,54.1 L54.1,54 C54.1,54 54.2,54.1 54.1,54.1 C54.1,54.1 54.1,54.2 54,54.1 L54,54.1 L54,54.1 L54,54.1 L54,54.1 L54,54.1 Z" id="path1197" fill="#DEAD00"></path>
            <polyline id="path1198" fill="#9F7E00" points="55.3 54 55.1 54 55 54.3 55 54.4 55.1 54.4 55.4 54.2 55.3 54"></polyline>
            <polyline id="path1199" fill="#DEAD00" points="55.3 54 55.1 54 55 54.3 55 54.4 55.1 54.4 55.4 54.2 55.3 54"></polyline>
            <polyline id="path1200" fill="#9F7E00" points="55 54.1 55 54.3 55.3 54.4 55.4 54.4 55.4 54.3 55.2 54 55 54.1"></polyline>
            <polyline id="path1201" fill="#DEAD00" points="55 54.1 55 54.3 55.3 54.4 55.4 54.4 55.4 54.3 55.2 54 55 54.1"></polyline>
            <polyline id="path1202" fill="#9F7E00" points="55.3 55.3 55.1 55.4 55 55.1 55 55 55.1 55 55.4 55.1 55.3 55.3"></polyline>
            <polyline id="path1203" fill="#DEAD00" points="55.3 55.3 55.1 55.4 55 55.1 55 55 55.1 55 55.4 55.1 55.3 55.3"></polyline>
            <path d="M55,55 L55.1,55 L55.1,55.1 L55,55.1 C55,55.1 55,55.1 55,55" id="path1204" fill="#9F7E00"></path>
            <path d="M55,55 L55.1,55 L55.1,55.1 L55,55.1 C55,55.1 55,55.1 55,55 C55,55 55,55.1 55,55 L55,55 L55,55 L55,55 Z" id="path1205" fill="#9F7E00"></path>
            <polyline id="path1206" fill="#9F7E00" points="56.3 55.1 56.3 55.3 56 55.4 55.9 55.4 55.9 55.3 56 55 56.3 55.1"></polyline>
            <polyline id="path1207" fill="#DEAD00" points="56.3 55.1 56.3 55.3 56 55.4 55.9 55.4 55.9 55.3 56 55 56.3 55.1"></polyline>
            <polyline id="path1208" fill="#9F7E00" points="56.3 55.3 56.1 55.3 56 55.1 56 55 56.1 55 56.4 55.1 56.3 55.3"></polyline>
            <polyline id="path1209" fill="#DEAD00" points="56.3 55.3 56.1 55.3 56 55.1 56 55 56.1 55 56.4 55.1 56.3 55.3"></polyline>
            <polyline id="path1210" fill="#9F7E00" points="55.1 55.1 55 55.2 55.3 55.3 55.4 55.3 55.4 55.2 55.3 55 55.1 55.1"></polyline>
            <polyline id="path1211" fill="#DEAD00" points="55.1 55.1 55 55.2 55.3 55.3 55.4 55.3 55.4 55.2 55.3 55 55.1 55.1"></polyline>
            <path d="M56.1,55.1 L56.1,55 L56,55 L56,55.1 C56,55.2 56.1,55.2 56.1,55.1" id="path1212" fill="#9F7E00"></path>
            <path d="M56.1,55.1 L56.1,55 L56,55 L56,55.1 C56,55.2 56.1,55.2 56.1,55.1 C56.1,55.1 56.1,55.2 56.1,55.1 L56.1,55.1 L56.1,55.1 L56.1,55.1 Z" id="path1213" fill="#DEAD00"></path>
            <path d="M56,56.2 L56.2,56.2 C56.3,56.2 56.3,56.3 56.3,56.3 C56.3,56.3 56.3,56.1 56.2,56 C56.2,55.9 56,56.1 56,56.2 C56,56.1 56,56.2 56,56.2" id="path1214" fill="#9F7E00"></path>
            <path d="M56,56.2 L56.2,56.2 C56.3,56.2 56.3,56.3 56.3,56.3 C56.3,56.3 56.3,56.1 56.2,56 C56.2,55.9 56,56.1 56,56.2 C56,56.1 56,56.2 56,56.2 L56,56.2 L56,56.2 L56,56.2 L56,56.2 Z" id="path1215" fill="#DEAD00"></path>
            <polyline id="path1216" fill="#9F7E00" points="56.1 56 56 56.2 56.3 56.4 56.3 56.4 56.3 56.4 56.3 56.1 56.1 56"></polyline>
            <polyline id="path1217" fill="#DEAD00" points="56.1 56 56 56.2 56.3 56.4 56.3 56.4 56.3 56.4 56.3 56.1 56.1 56"></polyline>
            <path d="M56.1,56.1 C56.1,56.1 56.2,56 56.1,56 L56,56 C56,56 55.9,56.1 56,56.1 C56,56.2 56.1,56.2 56.1,56.1" id="path1218" fill="#9F7E00"></path>
            <path d="M56.1,56.1 C56.1,56.1 56.2,56 56.1,56 L56,56 C56,56 55.9,56.1 56,56.1 C56,56.2 56.1,56.2 56.1,56.1 C56.1,56.1 56.1,56.2 56.1,56.1 L56.1,56.1 L56.1,56.1 L56.1,56.1 Z" id="path1219" fill="#DEAD00"></path>
            <path d="M30.2,57 C30.2,57 30,57 30,56.9 L29.6,56.5 L29.4,56.3 L29.2,56 C29.2,56 29,55.6 29.1,55.2 C29.2,54.9 29.4,54.7 29.5,54.6 C29.7,54.5 30,54.4 30,54.4 C30,54.4 30.3,54.3 30.4,54.2 C30.5,54.2 30.8,54.1 30.8,54.1 C30.8,54.1 30.9,54 31,54 C31.1,54 31.2,54 31.3,53.9 C31.4,53.9 31.5,53.8 31.7,53.8 L32.2,53.8 L32.7,53.8 L33.4,53.8 L33.8,53.8 C33.9,53.8 34.2,53.9 34.3,54 C34.4,54 34.8,54.2 35,54.3 C35.2,54.4 35.5,54.4 35.7,54.5 C35.9,54.6 36,54.8 36.1,54.9 C36.2,55 36.2,55.2 36.2,55.3 L36.2,55.7 C36.2,55.8 36,56 36,56 L35.8,56.4 L35.6,56.6 C35.6,56.6 35.4,56.8 35.3,56.8 C35.2,56.8 33.7,56.5 32.8,56.5 C31.6,56.7 30.2,57 30.2,57 L30.2,57 L30.2,57 L30.2,57 L30.2,57 L30.2,57 Z" id="path556_1_" fill="#B50027"></path>
            <path d="M65.2,51.5 C65.2,51.5 65,51.5 65,51.4 C64.9,51.3 64.6,51 64.6,51 L64.4,50.8 L64.2,50.5 C64.2,50.5 64,50.1 64.1,49.7 C64.2,49.4 64.4,49.2 64.5,49.1 C64.6,49.2 65,49 65,49 C65,49 65.3,48.9 65.4,48.8 C65.5,48.8 65.8,48.7 65.8,48.7 C65.8,48.7 65.9,48.6 66,48.6 C66.1,48.6 66.2,48.6 66.3,48.5 C66.4,48.5 66.5,48.4 66.7,48.4 L67.2,48.4 L67.7,48.4 L68.4,48.4 L68.8,48.4 C68.9,48.4 69.2,48.5 69.3,48.6 C69.4,48.6 69.8,48.8 70,48.9 C70.2,49 70.5,49 70.7,49.1 C70.9,49.2 71,49.4 71.1,49.5 C71.2,49.6 71.2,49.8 71.2,49.9 L71.2,50.3 C71.2,50.4 71,50.6 71,50.6 L70.8,51 L70.6,51.2 C70.6,51.2 70.4,51.4 70.3,51.4 C70.2,51.4 68.7,51.1 67.8,51.1 C66.6,51.2 65.2,51.5 65.2,51.5 L65.2,51.5 L65.2,51.5 L65.2,51.5 L65.2,51.5 L65.2,51.5 Z" id="path556_2_" fill="#B50027"></path>
        </g>
    </g>
</svg>