<?xml version="1.0" ?><svg height="120px" version="1.1" viewBox="0 0 180 120" width="180px" xmlns="http://www.w3.org/2000/svg" xmlns:sketch="http://www.bohemiancoding.com/sketch/ns" xmlns:xlink="http://www.w3.org/1999/xlink"><title/><defs/><g fill="none" fill-rule="evenodd" id="Ameria" stroke="none" stroke-width="1"><g id="Group" transform="translate(-200.000000, 0.000000)"><g id="CA" transform="translate(200.000000, 0.000000)"><rect d="M-1.42108547e-14,0 L-1.42108547e-14,120 L180,120 L180,0 L-1.42108547e-14,0 Z M-1.42108547e-14,0" fill="#CA4638" height="120" id="Oval-15-copy" width="180" x="-1.59877022e-14" y="0"/><rect d="M1.42108547e-14,0 L1.42108547e-14,120 L135,120 L135,0 L1.42108547e-14,0 Z M1.42108547e-14,0" fill="#FFFFFF" height="120" id="Oval-15-copy" width="135" x="1.47574261e-14" y="0"/><rect d="M-3.55271368e-15,0 L-3.55271368e-15,120 L45,120 L45,0 L-3.55271368e-15,0 Z M-3.55271368e-15,0" fill="#CA4638" height="120" id="Oval-15-copy" width="45" x="-3.99692555e-15" y="0"/><path d="M89.9985383,20.0625 L83.5397876,32.1088882 C82.8069048,33.4181301 81.4938005,33.2966955 80.1806943,32.5654429 L75.5047309,30.1441384 L78.989799,48.6471379 C79.7226818,52.0275312 77.371266,52.0275312 76.2108306,50.5659081 L68.0503651,41.4303874 L66.7255279,46.069622 C66.572751,46.6788531 65.9010172,47.3187373 64.8932583,47.1663562 L54.5742565,44.9967628 L57.2846086,54.8505688 C57.8648225,57.043151 58.317403,57.9509551 56.6988586,58.5292378 L53.0208333,60.2578985 L70.7843271,74.6866851 C71.4874165,75.232251 71.8426455,76.2140371 71.5923412,77.1029761 L70.037657,82.2049546 C76.1538905,81.4999322 81.6341306,80.4392433 87.7534615,79.785996 C88.2936731,79.728327 89.1980522,80.6198351 89.1943431,81.2458658 L88.383951,99.9375 L91.3576942,99.9375 L90.8895921,81.2859515 C90.8858623,80.6599208 91.7063231,79.728327 92.2465347,79.785996 C98.3658656,80.4392452 103.846113,81.4999322 109.962345,82.2049546 L108.407664,77.1029761 C108.15736,76.2140371 108.512587,75.232251 109.215677,74.6866851 L126.979167,60.2578985 L123.301145,58.5292378 C121.682597,57.9509551 122.135177,57.043151 122.715391,54.8505688 L125.425749,44.9967628 L115.106742,47.1663562 C114.098983,47.3187373 113.427249,46.6788531 113.274468,46.069622 L111.949633,41.4303874 L103.789171,50.5659081 C102.628732,52.0275312 100.277314,52.0275312 101.010197,48.6471379 L104.49526,30.1441384 L99.8193057,32.5654429 C98.5061673,33.2966955 97.1930952,33.4181301 96.4602105,32.1088882" fill="#CA4638" id="Shape"/></g></g></g></svg>