<?xml version="1.0" ?><svg height="120px" version="1.1" viewBox="0 0 180 120" width="180px" xmlns="http://www.w3.org/2000/svg" xmlns:sketch="http://www.bohemiancoding.com/sketch/ns" xmlns:xlink="http://www.w3.org/1999/xlink"><title/><defs/><g fill="none" fill-rule="evenodd" id="Page-1" stroke="none" stroke-width="1"><g id="burundi" transform="translate(-1.000000, 0.000000)"><rect d="M2,0 L2,120 L182,120 L182,0 L2,0 Z M2,0" fill="#FFFFFF" height="120" id="Rectangle-57" width="180" x="2" y="0"/><path d="M91,53 L172,0 L10,0 L91,53 L91,53 L91,53 L91,53 Z M91,67 L172,120 L10,120 L91,67 L91,67 L91,67 L91,67 Z M91,67" fill="#CA4638" id="Triangle-3"/><path d="M144.58296,-30.5 L37.4545383,-30.5 L90.8167867,49.5 L144.58296,-30.5 Z M90.8167867,69.5 L146.469973,149.5 L35.469973,149.5 L90.8167867,69.5 L90.8167867,69.5 L90.8167867,69.5 L90.8167867,69.5 Z M90.8167867,69.5" fill="#57BB63" id="Triangle-3-copy" transform="translate(90.969973, 59.500000) rotate(-90.000000) translate(-90.969973, -59.500000) "/><circle cx="92" cy="59" d="M92,84 C105.807119,84 117,72.8071194 117,59 C117,45.1928806 105.807119,34 92,34 C78.1928806,34 67,45.1928806 67,59 C67,72.8071194 78.1928806,84 92,84 Z M92,84" fill="#FFFFFF" id="Oval-22" r="25"/><path d="M82.0513893,63.132966 L79.5856611,59.9174958 L77.119933,63.132966 L72.1884766,63.132966 L74.6542047,66.3484363 L72.1884766,69.5639065 L77.119933,69.5639065 L79.5856611,72.7793767 L82.0513893,69.5639065 L86.9828457,69.5639065 L84.5171175,66.3484363 L86.9828457,63.132966 L82.0513893,63.132966 L82.0513893,63.132966 L82.0513893,63.132966 L82.0513893,63.132966 Z M82.0513893,63.132966" fill="#CA4638" id="Triangle-7" stroke="#57BB63" stroke-width="0.1"/><path d="M106.462098,63.132966 L103.99637,59.9174958 L101.530642,63.132966 L96.5991856,63.132966 L99.0649137,66.3484363 L96.5991856,69.5639065 L101.530642,69.5639065 L103.99637,72.7793767 L106.462098,69.5639065 L111.393555,69.5639065 L108.927827,66.3484363 L111.393555,63.132966 L106.462098,63.132966 L106.462098,63.132966 L106.462098,63.132966 L106.462098,63.132966 Z M106.462098,63.132966" fill="#CA4638" id="Triangle-7" stroke="#57BB63" stroke-width="0.1"/><path d="M95.3663215,45.7694268 L92.9005933,42.5539566 L90.4348651,45.7694268 L85.5034088,45.7694268 L87.9691369,48.9848971 L85.5034088,52.2003673 L90.4348651,52.2003673 L92.9005933,55.4158375 L95.3663215,52.2003673 L100.297778,52.2003673 L97.8320497,48.9848971 L100.297778,45.7694268 L95.3663215,45.7694268 L95.3663215,45.7694268 L95.3663215,45.7694268 L95.3663215,45.7694268 Z M95.3663215,45.7694268" fill="#CA4638" id="Triangle-7" stroke="#57BB63" stroke-width="0.1"/></g></g></svg>