<?xml version="1.0" ?><svg height="120px" version="1.1" viewBox="0 0 180 120" width="180px" xmlns="http://www.w3.org/2000/svg" xmlns:sketch="http://www.bohemiancoding.com/sketch/ns" xmlns:xlink="http://www.w3.org/1999/xlink"><title/><defs/><g fill="none" fill-rule="evenodd" id="Africa,-Middle-East-and-India" stroke="none" stroke-width="1"><g id="Africa,-Middle-Eest-and-India" transform="translate(-400.000000, -401.000000)"><g id="Uganda" transform="translate(400.000000, 401.000000)"><rect d="M0.00549314351,0 L0.00549314351,120 L180.005493,120 L180.005493,0 L0.00549314351,0 Z M0.00549314351,0" fill="#E5B731" height="120" id="Rectangle-3-copy-2" width="180" x="0.00549314351" y="0"/><rect d="M-2.84217094e-14,100 L-2.84217094e-14,120 L180,120 L180,100 L-2.84217094e-14,100 Z M-2.84217094e-14,100" fill="#CA4638" height="20" id="Rectangle-3-copy-3" width="180" x="-2.84225816e-14" y="100"/><rect d="M0,60 L0,80 L180,80 L180,60 L0,60 Z M0,60" fill="#262626" height="20" id="Rectangle-3-copy-5" width="180" x="0" y="60"/><rect d="M0.00549331208,40 L0.00549331208,60 L180.005493,60 L180.005493,40 L0.00549331208,40 Z M0.00549331208,40" fill="#CA4638" height="20" id="Rectangle-3-copy-3" width="180" x="0.00549331208" y="40"/><rect d="M0.00274665604,0 L0.00274665604,20 L180.002747,20 L180.002747,0 L0.00274665604,0 Z M0.00274665604,0" fill="#262626" height="20" id="Rectangle-3" width="180" x="0.00274665604" y="-7.26858902e-20"/><ellipse cx="89.5027624" cy="60" d="M89.5027624,80 C100.487432,80 109.392265,71.0456955 109.392265,60 C109.392265,48.9543045 100.487432,40 89.5027624,40 C78.5180928,40 69.6132597,48.9543045 69.6132597,60 C69.6132597,71.0456955 78.5180928,80 89.5027624,80 Z M89.5027624,80" fill="#FFFFFF" id="Oval" rx="19.8895028" ry="20"/><g id="Group" transform="translate(80.552486, 41.000000)"><path d="M4.58601713,3.32297477 L3.29368674,0.911207614 C3.79237482,0.405952273 4.63136732,0.01539 5.9688753,0.01539 C5.9688753,0.107287386 5.83282257,2.65689739 5.83282257,2.65689739 L5.83282257,2.65689739 L4.58601713,3.32297477 L4.58601713,3.32297477 Z M4.58601713,3.32297477" fill="#D90000" id="Shape" stroke="#000000"/><path d="M5.83282257,2.67987227 L6.01422549,0.01539 C6.01422549,0.01539 8.68941405,-0.145255 10.1403007,1.62323261 C10.1629747,1.60025989 8.71209021,3.69038511 8.71209021,3.69038511 L8.71209021,3.69038511 L5.83282257,2.67987227 L5.83282257,2.67987227 Z M5.83282257,2.67987227" fill="#FCDC04" id="Shape" stroke="#000000"/><path d="M8.75744041,3.66741239 L10.0722743,1.60025989 C10.9564444,2.54202727 11.3190798,3.2081025 11.4551325,4.21879239 C11.4778087,4.24176727 9.36950718,4.74702477 9.36950718,4.72404989 C9.36950718,4.701075 8.78011657,3.69038511 8.75744041,3.66741239 C8.75744041,3.66741239 8.78011657,3.69038511 8.75744041,3.66741239 L8.75744041,3.66741239 L8.75744041,3.66741239 Z M8.75744041,3.66741239" fill="#D90000" id="Shape" stroke="#000000"/><path d="M5.24343197,37.7998911 C5.24343197,37.7998911 7.71454144,34.9286414 12.5207077,35.5489439 C11.7952643,34.3544614 9.46020758,34.4923064 9.46020758,34.4923064 C9.46020758,34.4923064 8.73476638,28.9108016 9.30148082,28.6351116 C9.86819313,28.3594216 12.2712762,28.6580865 12.2712762,28.6580865 C12.5885614,28.6580865 13.1327723,27.7852416 12.7021106,27.2340365 C12.2712762,26.6826543 11.0017946,24.5695542 11.5231589,24.1560192 C12.0446957,23.7426591 14.8784384,24.3857594 14.8784384,24.3857594 L6.87572155,14.0036995 C6.87572155,14.0036995 6.05957782,10.098962 7.69186527,8.21542727 C9.66428879,6.56163489 9.46020758,4.7699975 9.39218122,4.79297239 C9.12007577,2.97836011 6.39970963,1.6690075 4.56334096,3.3459475 C3.47508966,4.67810227 4.20053299,5.68879 4.20053299,5.68879 C4.20053299,5.68879 1.34411413,6.4697375 1.23073544,6.974995 C1.11735888,7.48042739 4.44996227,6.88327466 4.44996227,6.88327466 L4.13250663,9.20314227 C4.13250663,9.20314227 -2.35129937,15.1750323 2.61359361,20.3431769 C2.65894594,20.320202 2.77232249,20.1134345 2.77232249,20.1134345 C2.77232249,20.1134345 4.51798863,22.2956342 6.35418469,22.7779168 C8.0771768,24.5695542 7.91862052,24.2938642 7.91862052,24.2938642 C7.91862052,24.2938642 8.25857972,27.1191642 7.94129669,27.6703693 C7.51046235,27.5325243 3.1124543,27.3718815 2.45486685,27.6244217 C1.86547624,27.8082165 -0.401554144,27.6933442 0.1651603,31.4374389 C0.595822021,30.426749 0.981306156,29.5309292 0.981306156,29.5309292 C0.981306156,29.5309292 0.913279795,30.8860567 1.45749069,31.3685164 C1.36678816,29.9442915 1.9788528,28.9797241 1.9788528,28.9797241 C1.9788528,28.9797241 2.09223149,30.5416191 2.43219069,30.7711866 C2.77232249,31.000929 2.77232249,28.2445493 4.65404349,28.4742917 C6.53558974,28.7040341 7.89594649,28.6351116 7.89594649,28.6351116 C7.89594649,28.6351116 8.53068729,34.0328216 8.32660608,34.538254 C6.96624933,34.2166164 3.72452107,34.676099 3.52044199,35.5029962 C5.42466227,35.388124 6.3090071,35.6176915 6.3090071,35.6176915 C6.3090071,35.6176915 4.76742005,36.9959687 5.24343197,37.7998911 C5.24343197,37.7998911 4.76742005,36.9959687 5.24343197,37.7998911 L5.24343197,37.7998911 L5.24343197,37.7998911 Z M5.24343197,37.7998911" fill="#000000" id="Shape" stroke="#000000"/><path d="M6.00764917,8.34713398 C6.00764917,8.34713398 1.28976038,13.6157692 3.32518958,17.6474785 C3.43354759,17.0852253 3.38629227,16.7320175 3.45431863,16.7549924 C3.34094207,16.6860699 4.03938114,17.2400818 3.98623994,17.1322244 C4.00112723,16.8407515 3.77350679,16.2160639 3.77350679,16.2160639 C3.98623994,16.269903 4.19914783,16.3239191 4.41188311,16.3777582 C4.28777261,16.1441597 4.1634895,15.9107339 4.03938114,15.6771332 C4.34091381,15.7130864 4.64227174,15.7488625 4.94380442,15.7848135 C4.94380442,15.7848135 4.62461626,14.922492 4.73106914,14.922492 C4.83735154,14.922492 5.47572573,14.9763333 5.47572573,14.9763333 C4.1340644,12.5368585 5.39973788,10.5109188 6.00764917,8.34713398 C6.00764917,8.34713398 5.39973788,10.5109188 6.00764917,8.34713398 L6.00764917,8.34713398 L6.00764917,8.34713398 Z M6.00764917,8.34713398" fill="#9CA69C" id="Shape" stroke="#9CA69C"/><path d="M7.64651507,3.82823011 C7.64651507,3.82823011 7.89594649,5.64284239 6.92107174,6.17107477 C6.76234499,6.28594489 6.15027822,6.49271239 6.24098074,6.86029977 C6.3543573,7.36555727 6.62629013,7.27365989 7.01177427,7.1817625 C8.03182447,6.99796989 9.2107783,4.79297239 7.64651507,3.82823011 C7.64651507,3.82823011 9.2107783,4.79297239 7.64651507,3.82823011 L7.64651507,3.82823011 L7.64651507,3.82823011 Z M7.64651507,3.82823011" fill="#9CA69C" id="Shape" stroke="#9CA69C"/><ellipse cx="5.5406472" cy="5.39772727" d="M5.5406472,5.78636364 C5.7524944,5.78636364 5.92423047,5.61236522 5.92423047,5.39772727 C5.92423047,5.18308933 5.7524944,5.00909091 5.5406472,5.00909091 C5.3288,5.00909091 5.15706393,5.18308933 5.15706393,5.39772727 C5.15706393,5.61236522 5.3288,5.78636364 5.5406472,5.78636364 Z M5.5406472,5.78636364" fill="#FFFFFF" id="Oval" rx="0.383583268" ry="0.388636364"/><path d="M4.38193591,6.9060725 C4.13250663,7.11284 2.81767482,8.49111727 4.10983047,8.99637477 C5.44751105,8.62878739 5.08470308,8.37624716 5.37948469,8.07758227 C5.38710095,7.45745466 4.71445359,7.29663477 4.38193591,6.9060725 C4.38193591,6.9060725 4.71445359,7.29663477 4.38193591,6.9060725 L4.38193591,6.9060725 L4.38193591,6.9060725 Z M4.38193591,6.9060725" fill="#D90000" id="Shape" stroke="#000000"/><path d="M7.23835691,19.9298168 C7.17033054,20.2284817 6.87572155,21.3308919 7.2837071,22.1807619 C8.4173086,21.6984793 8.93867285,21.8361494 9.32415485,22.0888667 C8.39480718,21.3308919 8.03199921,21.0092543 7.23835691,19.9298168 C7.23835691,19.9298168 8.03199921,21.0092543 7.23835691,19.9298168 L7.23835691,19.9298168 L7.23835691,19.9298168 Z M7.23835691,19.9298168" fill="#9CA69C" id="Shape" stroke="#9CA69C"/><path d="M9.18810213,25.1437342 L9.25612849,27.7163191 C9.25612849,27.7163191 10.1403007,27.877139 10.5482863,27.7163191 C10.9564444,27.5554992 10.5256101,25.9246817 9.18810213,25.1437342 C9.18810213,25.1437342 10.5256101,25.9246817 9.18810213,25.1437342 L9.18810213,25.1437342 L9.18810213,25.1437342 Z M9.18810213,25.1437342" fill="#FFFFFF" id="Shape" stroke="#FFFFFF"/><path d="M15.6038818,25.4653718 C15.6038818,25.4653718 13.9715922,21.4687369 9.80016677,20.4580492 C5.62874349,19.4473593 6.17278177,14.9454669 6.51291358,14.6697769 C6.69431863,14.2792147 6.83037135,13.6820598 8.03182447,14.2564147 C9.23345233,14.8305947 14.7650619,17.6557219 15.5585316,17.7935669 C16.3519991,17.9314119 15.6719081,25.5572692 15.6038818,25.4653718 C15.6038818,25.4653718 15.6719081,25.5572692 15.6038818,25.4653718 L15.6038818,25.4653718 L15.6038818,25.4653718 Z M15.6038818,25.4653718" fill="#9CA69C" id="Shape" stroke="#000000"/><path d="M11.6365354,20.4350743 C11.5685091,20.4810219 17.2134952,23.8114045 15.5131792,26.6826543 C17.1229674,25.6030419 16.6014305,23.7196842 16.6014305,23.7196842 C16.6014305,23.7196842 17.9162624,27.1880867 14.7197117,28.8878289 C15.0598435,29.1864916 15.2865987,29.1173942 15.2865987,29.1173942 L14.7423857,29.6687764 C14.7423857,29.6687764 14.4929564,30.0821365 16.6467807,29.0254968 C16.0572197,29.5079565 16.0120399,29.8523941 16.0120399,29.8523941 C16.0120399,29.8523941 16.1705962,30.3118767 17.5763032,29.0714466 C16.4427017,30.3118767 16.1932724,30.9549792 16.1932724,30.9320065 C19.2537703,30.6563165 25.9189814,20.5729193 14.0849709,17.5867994 C14.7198843,18.2530495 14.6290092,18.1611543 14.6290092,18.1611543 L14.6290092,18.1611543 L11.6365354,20.4350743 L11.6365354,20.4350743 Z M11.6365354,20.4350743" fill="#D90000" id="Shape" stroke="#000000"/><path d="M11.8859669,19.4473593 C12.6567604,19.9985644 12.9286932,20.182357 13.0193957,20.4580492 C12.3166286,20.2974042 11.6818878,20.3431769 11.6818878,20.3431769 C11.6818878,20.3431769 10.1629747,18.8731793 9.8908693,18.758307 C9.68679021,18.758307 8.50801113,18.0003344 8.50801113,18.0003344 C7.91862052,17.7016695 7.37458224,15.634517 9.5509101,16.2316719 C11.7950917,17.3111073 12.1125495,17.4031795 12.1125495,17.4031795 C13.0043358,17.6864113 13.8959496,17.96982 14.787738,18.2530495 C15.3016565,18.8349461 15.8154045,19.4168427 16.3293251,19.9987393 C16.3293251,19.9987393 13.5862828,18.620462 13.246151,18.5974893 C13.9942684,19.2176169 14.4251027,20.0674869 14.4251027,20.0674869 C13.5559904,19.8147697 12.8004294,19.5852043 11.8859669,19.4473593 C11.8859669,19.4473593 12.8004294,19.5852043 11.8859669,19.4473593 L11.8859669,19.4473593 L11.8859669,19.4473593 Z M11.8859669,19.4473593" fill="#FFFFFF" id="Shape" stroke="#000000"/><path d="M1.20805927,7.11284 C1.20805927,7.11284 3.83789763,6.4697375 4.15518279,6.56163489" fill="#000000" id="Shape" stroke="#FFFFFF"/></g></g></g></g></svg>