<?xml version="1.0" ?><svg height="120px" version="1.1" viewBox="0 0 180 120" width="180px" xmlns="http://www.w3.org/2000/svg" xmlns:sketch="http://www.bohemiancoding.com/sketch/ns" xmlns:xlink="http://www.w3.org/1999/xlink"><title/><defs/><g fill="none" fill-rule="evenodd" id="Ameria" stroke="none" stroke-width="1"><g id="Group" transform="translate(-200.000000, -600.000000)"><g id="Argentina" transform="translate(200.000000, 600.000000)"><rect d="M-1.42108547e-14,0 L-1.42108547e-14,120 L180,120 L180,0 L-1.42108547e-14,0 Z M-1.42108547e-14,0" fill="#4086CD" height="120" id="Oval-15-copy" width="180" x="-1.59877022e-14" y="0"/><rect d="M-1.42108547e-14,0 L-1.42108547e-14,80 L180,80 L180,0 L-1.42108547e-14,0 Z M-1.42108547e-14,0" fill="#FFFFFF" height="80" id="Oval-15-copy" width="180" x="-1.59877022e-14" y="0"/><rect d="M-1.42108547e-14,0 L-1.42108547e-14,40 L180,40 L180,0 L-1.42108547e-14,0 Z M-1.42108547e-14,0" fill="#4086CD" height="40" id="Oval-15-copy" width="180" x="-1.59877022e-14" y="0"/><g id="sun" transform="translate(71.812155, 41.817680)"><path d="M17.9149363,19.8815243 C17.9149363,19.8815243 24.8845981,35.4933402 24.9547792,35.6458141 C25.0249603,35.7982879 25.0759118,35.9471543 25.2714658,35.8641522 C25.4669702,35.7810739 25.3453923,35.4797591 25.3453923,35.4797591 L20.0301728,19.0887764 M18.0664664,24.0627412 C17.9404567,26.6354566 20.0493831,28.0504255 19.7736163,30.3478534 C19.4983587,32.6455542 21.1800158,33.944492 21.5699732,34.837921 C21.9602942,35.7314592 21.1481224,36.2657428 21.4979676,36.3928805 C21.8483074,36.5201 22.6144174,35.814171 22.3646891,34.5439135 C22.1149425,33.2736561 20.8298797,32.8965548 21.1319394,30.0904127 C21.4337808,27.2843251 19.6023668,26.630763 20.0482194,24.0710916 M17.4918289,19.5170544 C17.4918289,19.5170544 18.1056977,36.6029594 18.1136507,36.770621 C18.1216038,36.9382826 18.1130789,37.0953959 18.3254865,37.0916935 C18.5378768,37.0879018 18.5380262,36.7629837 18.5380262,36.7629837 L19.7500106,19.5744129 M17.2291274,18.9960449 C17.2291274,18.9960449 11.1182016,34.963561 11.0600118,35.1210018 C11.0018221,35.2784426 10.9325858,35.4197352 11.1295547,35.4993214 C11.3265425,35.5788187 11.4536356,35.2797883 11.4536356,35.2797883 L19.2853828,19.9311856 M17.1876644,18.4391437 C17.1876644,18.4391437 5.54017587,30.9547737 5.42724489,31.0789521 C5.31431391,31.2031304 5.19719003,31.3081982 5.35000285,31.4557751 C5.50286656,31.6032766 5.732724,31.3736304 5.732724,31.3736304 L18.7438814,20.0764779 M17.3703157,17.8849763 C17.3703157,17.8849763 1.75849977,24.8546382 1.60602592,24.9248193 C1.45355207,24.9950004 1.30468569,25.0459519 1.38768776,25.2415058 C1.47076612,25.4370103 1.77208091,25.3154323 1.77208091,25.3154323 L18.1630636,20.0002128 M17.7347856,17.4618689 C17.7347856,17.4618689 0.648880593,18.0757377 0.481218993,18.0836908 C0.313557393,18.0916438 0.156444127,18.0831189 0.160146508,18.2955265 C0.163938159,18.5079168 0.488856275,18.5080662 0.488856275,18.5080662 L17.6774271,19.7200506 M18.2557951,17.1991674 C18.2557951,17.1991674 2.28827902,11.0882416 2.13083819,11.0300519 C1.97339736,10.9718621 1.83210479,10.9026258 1.75251859,11.0995947 C1.67302133,11.2965825 1.97205166,11.4236756 1.97205166,11.4236756 L17.3206544,19.2554229 M18.8126963,17.1577044 C18.8126963,17.1577044 6.29706626,5.5102159 6.17288793,5.39728492 C6.0487096,5.28435394 5.94364178,5.16723006 5.79606491,5.32004288 C5.64856341,5.47290659 5.87820957,5.70276403 5.87820957,5.70276403 L17.1753621,18.7139214 M19.3668637,17.3403557 C19.3668637,17.3403557 12.3972018,1.7285398 12.3270207,1.57606595 C12.2568396,1.4235921 12.2058881,1.27472572 12.0103342,1.35772779 C11.8148297,1.44080615 11.9364077,1.74212094 11.9364077,1.74212094 L17.2516272,18.1331036 M19.7899711,17.7048256 C19.7899711,17.7048256 19.1761023,0.618920623 19.1681492,0.451259023 C19.1601962,0.283597423 19.1687211,0.126484157 18.9563135,0.130186538 C18.7439232,0.133978189 18.7437738,0.458896305 18.7437738,0.458896305 L17.5317894,17.6474671 M20.0526726,18.2258351 C20.0526726,18.2258351 26.1635984,2.25831905 26.2217881,2.10087822 C26.2799779,1.94343739 26.3492142,1.80214482 26.1522453,1.72255862 C25.9552575,1.64306136 25.8281644,1.94209169 25.8281644,1.94209169 L17.9964171,17.2906945 M20.0941356,18.7827363 C20.0941356,18.7827363 31.7416241,6.26710629 31.8545551,6.14292796 C31.9674861,6.01874963 32.0846099,5.91368181 31.9317971,5.76610494 C31.7789334,5.61860344 31.549076,5.8482496 31.549076,5.8482496 L18.5379186,17.1454021 M19.9114843,19.3369037 C19.9114843,19.3369037 35.5233002,12.3672419 35.6757741,12.2970608 C35.8282479,12.2268797 35.9771143,12.1759282 35.8941122,11.9803742 C35.8110339,11.7848698 35.5097191,11.9064477 35.5097191,11.9064477 L19.1187364,17.2216672 M19.5470144,19.7600111 C19.5470144,19.7600111 36.6329194,19.1461423 36.800581,19.1381893 C36.9682426,19.1302362 37.1253558,19.1387611 37.1216535,18.9263535 C37.1178618,18.7139632 36.7929437,18.7138138 36.7929437,18.7138138 L19.6043729,17.5018294 M19.0260049,20.0227126 C19.0260049,20.0227126 34.993521,26.1336384 35.1509618,26.1918282 C35.3084026,26.2500179 35.4496952,26.3192542 35.5292814,26.1222853 C35.6087786,25.9252975 35.3097483,25.7982044 35.3097483,25.7982044 L19.9611455,17.9664572 M18.4691037,20.0641756 C18.4691037,20.0641756 30.9847337,31.7116641 31.108912,31.8245951 C31.2330904,31.9375261 31.3381582,32.05465 31.4857351,31.9018372 C31.6332366,31.7489734 31.4035904,31.519116 31.4035904,31.519116 L20.1064379,18.5079586 M16.0660138,23.4505755 C14.9854234,25.7887516 16.4107293,27.8907056 15.2944111,29.9175397 C14.1784629,31.9448174 15.2510775,33.7791313 15.2779553,34.7535849 C15.3051293,35.7282759 14.3519506,35.9194102 14.6286948,36.1683445 C14.9058669,36.4175399 15.8806375,36.0500038 16.1249402,34.7786918 C16.369226,33.5073729 15.3190011,32.6763377 16.6502653,30.1876815 C17.9813068,27.6989943 16.5280779,26.4069622 17.900335,24.2006955 M14.3797085,22.0597597 C12.4714217,23.7898419 12.9621237,26.2816122 11.1426003,27.7111425 C9.323244,29.1412258 9.59386743,31.2488246 9.2378592,32.1563158 C8.88203095,33.0641414 7.92994318,32.8676448 8.08742121,33.2049226 C8.24519107,33.542608 9.28607985,33.5851624 10.0077029,32.5103701 C10.729313,31.435565 10.0872873,30.2602375 12.2851178,28.4895838 C14.4827555,26.7188144 13.6498885,24.9616709 15.7751149,23.4669753 M13.3980414,20.2123596 C10.9806085,21.101607 10.5021459,23.5957564 8.27960176,24.2395883 C6.05700531,24.8839956 5.51840257,26.9395045 4.8483653,27.6475527 C4.17836965,28.3559783 3.36921816,27.8171315 3.38888276,28.1888423 C3.40866525,28.5610404 4.35781936,28.9904199 5.42952083,28.2642146 C6.5012152,27.5379926 6.3462247,26.2077409 9.04731628,25.3893412 C11.7482724,24.570762 11.634289,22.6295693 14.1646875,22.0398355 M13.1890988,18.0365064 C10.6163834,17.9104967 9.20141447,20.0194231 6.90398656,19.7436564 C4.60628577,19.4683988 3.30734803,21.1500558 2.413919,21.5400132 C1.52038082,21.9303342 0.986097165,21.1181625 0.85895954,21.4680076 C0.73174005,21.8183474 1.43766905,22.5844574 2.70792646,22.3347291 C3.97818388,22.0849825 4.35528515,20.7999197 7.16142729,21.1019794 C9.96751485,21.4038209 10.621077,19.5724068 13.1807484,20.0182594 M13.8012645,16.0360538 C11.4630884,14.9554635 9.36113437,16.3807693 7.33430034,15.2644512 C5.30702258,14.1485029 3.47270865,15.2211175 2.49825508,15.2479953 C1.52356407,15.2751694 1.3324298,14.3219906 1.08349553,14.5987349 C0.834300088,14.875907 1.20183619,15.8506775 2.47314825,16.0949802 C3.74446712,16.339266 4.57550233,15.2890411 7.06415847,16.6203053 C9.55284575,17.9513468 10.8448778,16.4981179 13.0511445,17.870375 M15.1920803,14.3497485 C13.4619981,12.4414617 10.9702278,12.9321637 9.5406975,11.1126404 C8.11061421,9.29328403 6.00301541,9.56390746 5.09552418,9.20789923 C4.18769863,8.85207098 4.3841952,7.89998321 4.04691742,8.05746124 C3.70923203,8.2152311 3.66667761,9.25611988 4.74146987,9.97774289 C5.81627497,10.699353 6.99160248,10.0573273 8.76225617,12.2551579 C10.5330256,14.4527956 12.2901691,13.6199285 13.7848647,15.7451549 M17.0394804,13.3680814 C16.150233,10.9506485 13.6560836,10.472186 13.0122517,8.24964179 C12.3678444,6.02704534 10.3123355,5.4884426 9.60428731,4.81840533 C8.89586173,4.14840968 9.43470853,3.33925819 9.06299771,3.35892279 C8.69079964,3.37870528 8.26142007,4.32785939 8.98762535,5.39956086 C9.71384738,6.47125523 11.0440991,6.31626473 11.8624988,9.01735631 C12.681078,11.7183124 14.6222707,11.604329 15.2120045,14.1347275 M19.2153336,13.1591388 C19.3413433,10.5864234 17.2324169,9.1714545 17.5081836,6.87402659 C17.7834412,4.5763258 16.1017842,3.27738806 15.7118268,2.38395903 C15.3215058,1.49042085 16.1336775,0.956137195 15.7838324,0.82899957 C15.4334926,0.70178008 14.6673826,1.40770908 14.9171109,2.67796649 C15.1668575,3.94822391 16.4519203,4.32532518 16.1498606,7.13146732 C15.8480191,9.93755488 17.6794332,10.591117 17.2335806,13.1507885 M21.2157862,13.7713046 C22.2963765,11.4331285 20.8710707,9.3311744 21.9873888,7.30434037 C23.1033371,5.27706261 22.0307225,3.44274868 22.0038447,2.46829511 C21.9766706,1.49360411 22.9298494,1.30246983 22.6531051,1.05353556 C22.375933,0.804340118 21.4011625,1.17187622 21.1568598,2.44318828 C20.912574,3.71450715 21.9627989,4.54554236 20.6315347,7.0341985 C19.3004932,9.52288578 20.7537221,10.8149178 19.381465,13.0211846 M22.9020915,15.1621203 C24.8103783,13.4320381 24.3196763,10.9402679 26.1391996,9.51073753 C27.958556,8.08065424 27.6879325,5.97305544 28.0439408,5.06556421 C28.399769,4.15773866 29.3518568,4.35423523 29.1943788,4.01695745 C29.0366089,3.67927206 27.9957201,3.63671764 27.2740971,4.7115099 C26.552487,5.786315 27.1945127,6.96164251 24.9966821,8.7322962 C22.7990444,10.5030656 23.6319115,12.2602091 21.5066851,13.7549048 M23.8837586,17.0095205 C26.3011915,16.1202731 26.779654,13.6261237 29.0021982,12.9822917 C31.2247947,12.3378844 31.7633974,10.2823755 32.4334347,9.57432734 C33.1034303,8.86590176 33.9125818,9.40474856 33.8929172,9.03303774 C33.8731347,8.66083967 32.9239806,8.2314601 31.8522791,8.95766538 C30.7805848,9.68388741 30.9355753,11.0141392 28.2344837,11.8325389 C25.5335276,12.6511181 25.647511,14.5923107 23.1171125,15.1820445 M24.0927012,19.1853736 C26.6654166,19.3113833 28.0803855,17.2024569 30.3778134,17.4782237 C32.6755142,17.7534813 33.9744519,16.0718242 34.867881,15.6818668 C35.7614191,15.2915458 36.2957028,16.1037176 36.4228404,15.7538724 C36.5500599,15.4035326 35.8441309,14.6374226 34.5738735,14.887151 C33.3036161,15.1368975 32.9265148,16.4219603 30.1203727,16.1199006 C27.3142851,15.8180592 26.660723,17.6494732 24.1010515,17.2036206 M23.4805354,21.1858262 C25.8187115,22.2664166 27.9206656,20.8411107 29.9474996,21.9574289 C31.9747774,23.0733771 33.8090913,22.0007625 34.7835449,21.9738847 C35.7582359,21.9467107 35.9493702,22.8998894 36.1983044,22.6231452 C36.4474999,22.3459731 36.0799638,21.3712025 34.8086517,21.1268999 C33.5373329,20.882614 32.7062976,21.9328389 30.2176415,20.6015747 C27.7289542,19.2705332 26.4369222,20.7237621 24.2306554,19.351505 M22.0897197,22.8721315 C23.8198019,24.7804183 26.3115721,24.2897163 27.7411025,26.1092397 C29.1711858,27.928596 31.2787846,27.6579726 32.1862758,28.0139808 C33.0941013,28.3698091 32.8976048,29.3218968 33.2348825,29.1644188 C33.5725679,29.0066489 33.6151224,27.9657601 32.5403301,27.2441371 C31.465525,26.522527 30.2901975,27.1645527 28.5195438,24.9667222 C26.7487744,22.7690845 24.9916309,23.6019515 23.4969352,21.4767251 M20.2423195,23.8537986 C21.1315669,26.2712315 23.6257163,26.7496941 24.2695483,28.9722382 C24.9139556,31.1948347 26.9694645,31.7334374 27.6775127,32.4034747 C28.3859382,33.0734704 27.8470914,33.8826218 28.2188023,33.8629572 C28.5910003,33.8431747 29.0203799,32.8940206 28.2941746,31.8223192 C27.5679526,30.7506248 26.2377008,30.9056153 25.4193011,28.2045237 C24.6007219,25.5035676 22.6595293,25.617551 22.0697955,23.0871525" fill="#F6B40E" id="ray1" stroke="#85340A"/><path d="M18.8032637,24.7411364 C18.9566749,26.8430535 20.6938148,27.7738235 20.3527055,29.6893637 C21.1016909,28.1745524 19.2957741,27.0002713 19.3984115,24.7629593 M18.371902,19.8696067 L23.1932072,30.4036403 L19.1532271,19.5454978 M16.4604576,24.4029651 C15.815306,26.4092975 17.0772815,27.9230365 16.0434365,29.5713126 C17.3053419,28.4473789 16.0708186,26.6820961 17.0040941,24.6461452 M14.334115,23.1397522 C12.9563133,24.7345101 13.5265028,26.6210073 11.9308107,27.7342981 C13.5315567,27.1927774 13.0849229,25.0854592 14.7395169,23.5760164 M12.9166242,21.2440149 C11.0417419,22.2065151 10.8637181,24.1692416 8.96717208,24.60371 C10.6542152,24.7012707 11.0295188,22.5800874 13.1290789,21.8003782 M12.3062993,18.8472372 C10.2043822,19.0006484 9.27361214,20.7377883 7.35807196,20.396679 C8.87288327,21.1456644 10.0471644,19.3397476 12.2844763,19.442385 M12.6444706,16.5044311 C10.6381382,15.8592796 9.12439919,17.121255 7.47612307,16.08741 C8.60005679,17.3493154 10.3653396,16.1147921 12.4012905,17.0480676 M13.9076835,14.3780885 C12.3129256,13.0002868 10.4264284,13.5704764 9.31313763,11.9747842 C9.85465833,13.5755302 11.9619765,13.1288964 13.4714193,14.7834904 M15.8034208,12.9605977 C14.8409206,11.0857154 12.8781941,10.9076916 12.4437257,9.01114558 C12.3461649,10.6981887 14.4673482,11.0734923 15.2470575,13.1730524 M18.2001985,12.3502728 C18.0467873,10.2483557 16.3096474,9.31758565 16.6507567,7.40204547 C15.9017713,8.91685678 17.7076881,10.0911379 17.6050507,12.3284499 M20.5430046,12.6884441 C21.1881561,10.6821117 19.9261807,9.16837269 20.9600257,7.52009657 C19.6981203,8.64403029 20.9326436,10.4093131 19.9993681,12.445264 M22.6693472,13.951657 C24.0471489,12.3568991 23.4769593,10.4704019 25.0726515,9.35711114 C23.4719055,9.89863183 23.9185393,12.00595 22.2639453,13.5153928 M24.086838,15.8473943 C25.9617203,14.8848941 26.139744,12.9221676 28.0362901,12.4876992 C26.349247,12.3901384 25.9739434,14.5113218 23.8743833,15.291031 M24.6971629,18.244172 C26.79908,18.0907608 27.72985,16.3536209 29.6453902,16.6947302 C28.1305789,15.9457448 26.9562978,17.7516616 24.7189858,17.6490242 M24.3589916,20.5869781 C26.365324,21.2321296 27.879063,19.9701542 29.5273391,21.0039992 C28.4034054,19.7420938 26.6381226,20.9766171 24.6021717,20.0433416 M23.0957787,22.7133207 C24.6905366,24.0911224 26.5770338,23.5209328 27.6903246,25.116625 C27.1488039,23.515879 25.0414857,23.9625128 23.5320429,22.3079188 M21.2000414,24.1308115 C22.1625416,26.0056938 24.1252681,26.1837175 24.5597365,28.0802636 C24.6572972,26.3932205 22.5361139,26.0179169 21.7564047,23.9183568 M17.8854132,19.7245704 L18.4095311,31.2976491 L18.7312585,19.7167514 M17.4737879,19.3900417 L13.4342789,30.247906 L18.2554478,19.7133424 M17.2323445,18.943486 L9.41954946,27.4974958 L17.8359764,19.5360601 M17.177829,18.4158755 L6.64379535,23.2371807 L17.5019379,19.1972006 M17.3228653,17.9293867 L5.74978663,18.4535046 L17.3306843,18.775232 M17.657394,17.5177614 L6.79952973,13.4782524 L17.3340933,18.2994213 M18.1039497,17.276318 L9.54993992,9.46352297 L17.5113756,17.8799499 M18.6315602,17.2218025 L13.8102549,6.68776886 L17.8502351,17.5459114 M19.118049,17.3668388 L18.5939311,5.79376014 L18.2722037,17.3746578 M19.5296743,17.7013675 L23.5691833,6.84350323 L18.7480144,17.3780668 M19.7711177,18.1479232 L27.5839127,9.59391342 L19.1674858,17.5553491 M19.8256332,18.6755337 L30.3596668,13.8542285 L19.5015243,17.8942086 M19.6805969,19.1620225 L31.2536756,18.6379046 L19.6727779,18.3161772 M19.3460682,19.5736478 L30.2039325,23.6131568 L19.6693689,18.7919879 M18.8995125,19.8150912 L27.4535223,27.6278862 L19.4920866,19.2114593" fill="#85340A" id="ray2"/><circle cx="18.500927" cy="17.7586929" d="M18.500927,24.6312858 C22.2965554,24.6312858 25.3735199,21.5543213 25.3735199,17.7586929 C25.3735199,13.9630645 22.2965554,10.8861 18.500927,10.8861 C14.7052986,10.8861 11.6283341,13.9630645 11.6283341,17.7586929 C11.6283341,21.5543213 14.7052986,24.6312858 18.500927,24.6312858 Z M18.500927,24.6312858" fill="#F6B40E" id="Oval" r="6.87259288" stroke="#85340A" stroke-width="1.5"/><path d="M20.9758324,16.3291624 C20.5065672,16.3291698 20.0571692,16.5324925 19.7929092,16.9554101 C20.321553,17.4311079 21.4892852,17.4828416 22.2823623,16.9012888 C21.9388811,16.5313099 21.4449985,16.32915 20.9757334,16.32915 L20.9757334,16.32915 L20.9758324,16.3291624 L20.9758324,16.3291624 Z M20.9681131,16.3294315 C21.424884,16.3196195 21.8517923,16.5679851 21.911369,16.814529 C21.3827251,17.5029561 20.538038,17.4431757 20.0093941,16.9426718 C20.2406742,16.5045845 20.6128552,16.3370469 20.9681131,16.3294023 C20.9681131,16.3294023 20.6128552,16.3370469 20.9681131,16.3294023 L20.9681131,16.3294315 L20.9681131,16.3294315 Z M20.9681131,16.3294315" fill="#843511" id="loweyecontour"/><g fill="#85340A" id="Group" transform="translate(20.906260, 16.452856) scale(-1, 1) translate(-20.906260, -16.452856) translate(19.050675, 15.834327)"><path d="M1.83579232,0.18308441 C2.52277946,0.18308441 2.68159281,0.341848282 2.99879892,0.606157843 C3.31630193,0.870467403 3.4746452,0.817471889 3.52744279,0.870467403 C3.57999296,0.923462918 3.52744279,1.08178145 3.4218971,1.02878594 C3.31635141,0.975790421 3.10439409,0.870467403 2.78770755,0.606058878 C2.47020454,0.341427683 2.153518,0.341749318 1.83608922,0.341749318 C0.884470887,0.341749318 0.355827024,1.13460378 0.250330818,1.08168249 C0.14478513,1.02868697 0.778974681,0.182960704 1.83608922,0.182960704 C1.83608922,0.182960704 0.778974681,0.182960704 1.83608922,0.182960704 L1.83579232,0.18308441 L1.83579232,0.18308441 Z M1.83579232,0.18308441" id="uppalpebra"/></g><g fill="#85340A" id="Group" transform="translate(20.782555, 17.071384) scale(-1, 1) translate(-20.782555, -17.071384) translate(18.555852, 15.092093)"><path d="M0.180610296,1.24200505 C1.39653819,0.18484103 2.92935055,0.0260524167 3.77549742,0.819277992 C3.98258073,1.09655191 4.11526745,1.39302495 4.16972269,1.7024376 C4.27615906,2.30438945 4.08800271,2.9547597 3.61633769,3.6213354 C3.66955587,3.62108799 3.7755469,3.67388557 3.82831975,3.72688109 C4.24810261,2.92427862 4.39654943,2.09987921 4.25881552,1.31575838 C4.22274294,1.11090177 4.16640738,0.909261505 4.09314887,0.713138517 C2.93014227,-0.238207662 1.34440861,-0.344025502 0.181327789,1.24202979 C0.181327789,1.24202979 1.34440861,-0.344025502 0.181327789,1.24202979 L0.180610296,1.24200505 L0.180610296,1.24200505 Z M0.180610296,1.24200505" id="eyebrow_nose"/></g><g fill="#85340A" id="Group" transform="translate(20.287732, 16.329150)"><circle cx="0.628424866" cy="0.531934433" d="M0.628424866,1.00770649 C0.891186528,1.00770649 1.10419692,0.794696096 1.10419692,0.531934433 C1.10419692,0.269172771 0.891186528,0.0561623797 0.628424866,0.0561623797 C0.365663203,0.0561623797 0.152652812,0.269172771 0.152652812,0.531934433 C0.152652812,0.794696096 0.365663203,1.00770649 0.628424866,1.00770649 Z M0.628424866,1.00770649" id="pupil" r="0.475772054"/></g><g fill="#85340A" id="Group" transform="translate(20.782555, 17.442501) scale(-1, 1) translate(-20.782555, -17.442501) translate(19.298086, 17.071384)"><path d="M0.0717492957,0.108861 C0.970520559,0.796243994 1.86919286,0.743322703 2.39783672,0.426042369 C2.92648058,0.108861 2.92648058,0.00331531228 2.82091015,0.00331531228 C2.71536447,0.00331531228 2.60981878,0.108861 2.1867206,0.32024927 C1.76364717,0.532008657 1.12953184,0.532008657 0.0723430829,0.108935224 C0.0723430829,0.108935224 1.12953184,0.532008657 0.0723430829,0.108935224 L0.0717492957,0.108861 L0.0717492957,0.108861 Z M0.0717492957,0.108861" id="lowpalpebra"/></g><path d="M17.4579644,18.8032637 C17.2319764,18.8445022 17.0713841,19.0450514 17.0713841,19.2748792 C17.0713841,19.5374817 17.2884827,19.7464948 17.5507437,19.7464948 C17.7057889,19.7464948 17.8482558,19.6730631 17.9373239,19.545473 C18.1202896,19.6830684 18.373906,19.6976582 18.5094627,19.7001051 C18.5303195,19.7006 18.5572428,19.7001051 18.5713155,19.7001051 C18.7068747,19.697631 18.9604936,19.6830585 19.1434543,19.545473 C19.2325224,19.6730631 19.3749893,19.7464948 19.5300346,19.7464948 C19.7922906,19.7464948 20.0093941,19.5374619 20.0093941,19.2748792 C20.0093941,19.045039 19.8487796,18.8444824 19.6228138,18.8032637 C19.7497359,18.8480204 19.8315672,18.9706375 19.8315672,19.1048087 C19.8315672,19.2798275 19.6902359,19.4217921 19.5145837,19.4217921 C19.346245,19.4217921 19.207472,19.2881529 19.1976003,19.1202471 C19.1459853,19.2232618 18.9417522,19.5297377 18.5404262,19.5454978 C18.1390755,19.5297624 17.9348622,19.2232692 17.8832522,19.1202471 C17.8733557,19.2881405 17.734595,19.4217921 17.5662687,19.4217921 C17.3906042,19.4217921 17.2492853,19.2798151 17.2492853,19.1048087 C17.2492853,18.9706499 17.3311166,18.8480452 17.4580386,18.8032637 C17.4580386,18.8032637 17.3311166,18.8480452 17.4580386,18.8032637 L17.4579644,18.8032637 L17.4579644,18.8032637 Z M17.4579644,18.8032637" fill="#85340A" id="Shape"/><path d="M18.0378224,20.2877319 C17.5088569,20.2877319 17.2998191,20.7669182 16.8239728,21.0840996 C17.0883813,20.9786207 17.2964295,20.7700603 17.6667054,20.5583504 C18.0368328,20.3469572 18.3524554,20.6047401 18.5635716,20.6047401 L18.5712908,20.6047401 C18.7823822,20.6047401 19.0980296,20.3470364 19.468157,20.5583504 C19.8384576,20.7701098 20.054225,20.9786281 20.3186336,21.0840996 C19.8427873,20.7669182 19.6259807,20.2877319 19.0970399,20.2877319 C18.9914943,20.2877319 18.7824317,20.3447726 18.5712908,20.4500956 L18.5635716,20.4500956 C18.3524455,20.3445944 18.1433928,20.2877319 18.0378224,20.2877319 L18.0378224,20.2877319 L18.0378224,20.2877319 L18.0378224,20.2877319 Z M18.0378224,20.2877319" fill="#85340A" id="Shape"/><path d="M17.9527871,20.7882281 C17.7439967,20.7974813 17.4679598,20.8393804 17.0713841,20.9583234 C18.0232499,20.74695 18.2332774,21.0665659 18.6563508,21.0665659 L18.6640701,21.0665659 C19.0871435,21.0665659 19.2971463,20.7469104 20.2490367,20.9583234 C19.1915016,20.6411421 18.9812514,20.850081 18.6640701,20.850081 L18.6563508,20.850081 C18.4581125,20.850081 18.3007712,20.7727897 17.9527624,20.7882281 C17.9527624,20.7882281 18.3007712,20.7727897 17.9527624,20.7882281 L17.9527871,20.7882281 L17.9527871,20.7882281 Z M17.9527871,20.7882281" fill="#85340A" id="Shape"/><path d="M17.0249945,21.033295 C16.9635895,21.0340372 16.8966598,21.034532 16.8239728,21.0410142 C17.934355,21.1468222 17.4005897,21.7832483 18.5635716,21.7832483 L18.5712908,21.7832483 C19.7342974,21.7832483 19.2082514,21.1468073 20.3186336,21.0410142 C19.155627,20.9354685 19.523305,21.620897 18.5712908,21.620897 L18.5635716,21.620897 C17.6710351,21.620897 17.9460575,21.0217904 17.0249698,21.033295 C17.0249698,21.033295 17.9460575,21.0217904 17.0249698,21.033295 L17.0249945,21.033295 L17.0249945,21.033295 Z M17.0249945,21.033295" fill="#85340A" id="Shape"/><path d="M19.4694435,22.7238679 C19.4694435,22.1985146 19.0430795,21.7722001 18.5178252,21.7722001 C17.9924967,21.7722001 17.5662069,22.1984898 17.5662069,22.7238679 C17.6708619,22.2832282 18.0651366,21.9719105 18.5178252,21.9719105 C18.9714045,21.9719105 19.3649617,22.2833025 19.4694435,22.7238679 L19.4694435,22.7238679 L19.4694435,22.7238679 L19.4694435,22.7238679 L19.4694435,22.7238679 Z M19.4694435,22.7238679" fill="#85340A" id="Shape"/><path d="M14.3498591,16.3147155 C15.565787,15.2575515 17.0985994,15.0987629 17.9447463,15.8919885 C18.1518296,16.1692624 18.2845163,16.4657354 18.3389715,16.7751481 C18.4454079,17.3770999 18.2572516,18.0274702 17.7855865,18.6940459 C17.8388047,18.6937985 17.9447957,18.746596 17.9975686,18.7995916 C18.4173514,17.9969891 18.5657983,17.1725897 18.4280644,16.3884688 C18.3919918,16.1836122 18.3356562,15.981972 18.2623977,15.785849 C17.0993911,14.8345028 15.5136575,14.728685 14.3505766,16.3147403 C14.3505766,16.3147403 15.5136575,14.728685 14.3505766,16.3147403 L14.3498591,16.3147155 L14.3498591,16.3147155 Z M14.3498591,16.3147155" fill="#85340A" id="eyebrow_nose"/><path d="M16.1941442,16.0818624 C16.8811314,16.0818624 17.0399447,16.2406263 17.3571508,16.5049358 C17.6746538,16.7692454 17.8329971,16.7162499 17.8857947,16.7692454 C17.9383449,16.8222409 17.8857947,16.9805594 17.780249,16.9275639 C17.6747033,16.8745684 17.462746,16.7692454 17.1460594,16.5048369 C16.8285564,16.2402057 16.5118699,16.2405273 16.1944411,16.2405273 C15.2428228,16.2405273 14.7141789,17.0333818 14.6086827,16.9804605 C14.503137,16.927465 15.1373266,16.0817387 16.1944411,16.0817387 C16.1944411,16.0817387 15.1373266,16.0817387 16.1944411,16.0817387 L16.1941442,16.0818624 L16.1941442,16.0818624 Z M16.1941442,16.0818624" fill="#85340A" id="uppalpebra"/><g fill="#843511" id="Group" transform="translate(14.844682, 16.329150)"><path d="M1.35334016,0.0148446819 C0.884075028,0.0148521042 0.434677026,0.218174763 0.170416948,0.641092327 C0.69906081,1.11679016 1.86679297,1.16852387 2.6598701,0.586971091 C2.3163889,0.216992137 1.82250633,0.0148323113 1.3532412,0.0148323113 L1.3532412,0.0148323113 L1.35334016,0.0148446819 L1.35334016,0.0148446819 Z M1.34562093,0.123087154 C1.80239179,0.114798873 2.2293001,0.324593814 2.28887676,0.532849855 C1.76023289,1.11436553 0.915545754,1.06386887 0.386901892,0.641092327 C0.618182035,0.27103915 0.99036295,0.129519849 1.34562093,0.123062413 C1.34562093,0.123062413 0.99036295,0.129519849 1.34562093,0.123062413 L1.34562093,0.123087154 L1.34562093,0.123087154 Z M1.34562093,0.123087154" id="loweyecontour"/></g><circle cx="16.3100994" cy="16.8049221" d="M16.3100994,17.2806942 C16.572861,17.2806942 16.7858714,17.0676838 16.7858714,16.8049221 C16.7858714,16.5421604 16.572861,16.32915 16.3100994,16.32915 C16.0473377,16.32915 15.8343273,16.5421604 15.8343273,16.8049221 C15.8343273,17.0676838 16.0473377,17.2806942 16.3100994,17.2806942 Z M16.3100994,17.2806942" fill="#85340A" id="pupil" r="0.475772054"/><path d="M14.8446819,17.1769298 C15.7434531,17.8643128 16.6421254,17.8113915 17.1707693,17.4941112 C17.6994131,17.1769298 17.6994131,17.0713841 17.5938427,17.0713841 C17.488297,17.0713841 17.3827513,17.1769298 16.9596532,17.3883181 C16.5365797,17.6000775 15.9024644,17.6000775 14.8452757,17.1770041 C14.8452757,17.1770041 15.9024644,17.6000775 14.8452757,17.1770041 L14.8446819,17.1769298 L14.8446819,17.1769298 Z M14.8446819,17.1769298" fill="#85340A" id="lowpalpebra"/></g></g></g></g></svg>