<?xml version="1.0" ?><svg height="120px" version="1.1" viewBox="0 0 180 120" width="180px" xmlns="http://www.w3.org/2000/svg" xmlns:sketch="http://www.bohemiancoding.com/sketch/ns" xmlns:xlink="http://www.w3.org/1999/xlink"><title/><defs/><g fill="none" fill-rule="evenodd" id="Page-1" stroke="none" stroke-width="1"><g id="rectangle_liechtenstein"><rect fill="#CA4638" height="120" id="Oval-15-copy" width="180" x="0" y="0"/><rect fill="#346DA6" height="60" id="Oval-15-copy-2" width="180" x="0" y="0"/><g id="Group" transform="translate(15.000000, 6.000000)"><path d="M19,13.8193325 C19,13.8193325 27.609762,10.5085588 31.1512384,11.0624936 C33.4519457,11.4223553 34.9999965,15.5907436 34.9999965,15.5907436 C34.9999965,15.5907436 35.0185592,21.6056675 32.3345318,22.4714263 C25.295027,24.7420866 5.82939809,25 5.82939809,25 C4.27977041,22.0511296 3,19.5465471 3,16.1550451 C3,13.3167339 5.2806053,11.0624936 8.567527,11.0624936 C12.0470405,11.0624936 19,13.8193325 19,13.8193325 Z" fill="#FFD83D" id="Shape" transform="translate(19.000000, 18.000000) scale(-1, 1) translate(-19.000000, -18.000000) "/><path d="M20,25.9189507 L4,25.7028191 L4,20.3501565 L5.43807991,20.3501565 C6.30204383,21.3689086 7.58072108,20.5951953 8.4490601,19.7506584 L10.8758207,18.9798747 C14.0874081,19.5476881 16.5099285,21.1339033 17.257302,17.1813807 C17.7846825,14.3923082 13.1606888,12.3308699 11.0555812,12 L17.8220966,13.4391659 L18.5294283,12 L20.7007963,12 L20.9665201,12.7020174 L28.9039542,12 C26.8283405,12.3314088 22.3178928,14.3621724 22.6413578,17.1267819 L23.4570627,19.2817978 C24.5989709,20.6321225 26.608682,19.5759667 29.0847456,19.1312513 L31.525424,19.9187514 C32.398743,20.7816043 33.6847537,21.5720975 34.5536725,20.5312511 L36,20.5312511 L36,26 L20,26 L20,25.9189507 Z" fill="#000000" id="Shape" stroke="#000000" stroke-width="0.2"/><path d="M17,4.5 L18.5024315,6 L20,4.5 L18.5024315,3 L17,4.5 L17,4.5 Z M20.5024445,5.00326026 L21.4975685,6 L23,4.5 L21.4975685,3 L20.1667566,4.33297265 L20,4 L19,5.99675851 L20,8 L21,5.99675851 L20.5024445,5.00326026 Z M20,0 L19,2.00324149 L20,4 L21,2.00324149 L20,0 Z" fill="#FFD83D" id="Shape" stroke="#000000" stroke-width="0.2"/><path d="M18.7209334,12.5375929 C18.6955299,12.9475439 18.6666304,13.3576054 18.6329408,13.7658642 L18.6329408,13.7658642 C15.8134233,13.0917911 12.4485141,12 9.14689279,12 C5.25873034,12 3,14.8917871 3,17.8333341 C3,21.3481926 4.26749519,23.9438725 5.80225925,27 L7.51977388,26.1666666 C5.86982983,23.3873927 4.62711891,20.6539439 4.62711891,17.6481485 C4.62711891,14.5983233 6.91829304,13.3888904 9.87005653,13.3888904 C12.8906137,13.3888904 16.1191919,14.6224732 18.5056545,15.0776094 C18.2574871,17.2699454 17.8254942,19.3474035 17,21 L18.9621928,20.1644562 C19.5544449,17.7995981 19.7424067,14.8378411 19.9170991,12.998313 C19.9445933,12.999434 19.9722306,13 20,13 C20.3866454,13 20.7476652,12.8902836 21.053624,12.7002861 C21.087352,13.0306458 21.1207579,13.4065609 21.1566686,13.8156033 L21.1566686,13.8156033 C21.1042468,13.8278503 21.0520225,13.8399367 21,13.8518525 L21.0903957,15.1481481 C21.150847,15.1386611 21.2119295,15.1285487 21.2736238,15.117848 C21.4250974,16.722629 21.6404661,18.5778762 22.0378072,20.1644562 L24,21 C23.1477121,19.2937639 22.7148844,17.1346384 22.4707545,14.8637818 C24.7210938,14.3211245 27.5041207,13.3888904 30.1299435,13.3888904 C33.081707,13.3888904 35.3728811,14.5983233 35.3728811,17.6481485 C35.3728811,20.6539439 34.1301702,23.3873927 32.4802261,26.1666666 L34.1977407,27 C35.7325048,23.9438725 37,21.3481926 37,17.8333341 C37,14.8917871 34.7412697,12 30.8531072,12 C27.9263116,12 24.9497824,12.8579655 22.3475373,13.5223435 C22.3081023,13.0158663 22.275622,12.5072065 22.2476371,12 L21.669,12.1024144 C21.8781885,11.7863498 22,11.4074002 22,11 C22,9.89543045 21.1045696,9 20,9 C18.8954304,9 18,9.89543045 18,11 C18,11.6181083 18.280398,12.1707261 18.7209334,12.5375929 Z" fill="#FFD83D" id="Shape" stroke="#000000" stroke-width="0.2"/><path d="M19.9969367,20 C17.4652873,20 15.6056192,21.2297396 15.4939501,24.3627975 C14.8750939,23.2404885 12.2571557,19.710683 9.814673,20.1830986 C8.36197984,20.4640734 7.07840784,22.5400689 7.29667637,24.918407 C6.09394296,21.3564651 2.57057877,20.7727518 0,22.8790675 C2.28242683,24.8130958 3.29774581,30.5231938 5.21978864,33 L19.9969367,33 L34.7740849,33 C36.6961257,30.5231938 37.7175732,24.8130958 40,22.8790675 C37.4294193,20.7727518 33.906057,21.3564651 32.7033236,24.918407 C32.9215902,22.5400689 31.6318936,20.4640734 30.1792005,20.1830986 C27.7367158,19.710683 25.1249061,23.2404885 24.5060499,24.3627975 C24.3943827,21.2297396 22.5285862,20 19.9969367,20 L19.9969367,20 Z" fill="#FFD83D" id="Shape" stroke="#000000" stroke-width="0.2"/><path d="M4,13 C4,13.5522848 3.55228478,14 3,14 C2.44771522,14 2,13.5522848 2,13 C2,12.4477152 2.44771522,12 3,12 C3,11.4477152 3.44771522,11 4,11 C4.55228478,11 5,11.4477152 5,12 C5,12.5522848 4.55228478,13 4,13 Z M2,22 C2.55228478,22 3,21.5522848 3,21 C3,20.4477152 2.55228478,20 2,20 C1.44771522,20 1,20.4477152 1,21 C1,21.5522848 1.44771522,22 2,22 Z M1,20 C1.55228478,20 2,19.5522848 2,19 C2,18.4477152 1.55228478,18 1,18 C0.447715223,18 0,18.4477152 0,19 C0,19.5522848 0.447715223,20 1,20 Z M1,17 C1.55228478,17 2,16.5522848 2,16 C2,15.4477152 1.55228478,15 1,15 C0.447715223,15 0,15.4477152 0,16 C0,16.5522848 0.447715223,17 1,17 Z M6,12 C6.55228478,12 7,11.5522848 7,11 C7,10.4477152 6.55228478,10 6,10 C5.44771522,10 5,10.4477152 5,11 C5,11.5522848 5.44771522,12 6,12 Z M9,11 C9.55228478,11 10,10.5522848 10,10 C10,9.44771522 9.55228478,9 9,9 C8.44771522,9 8,9.44771522 8,10 C8,10.5522848 8.44771522,11 9,11 Z M11,11 C11.5522848,11 12,10.5522848 12,10 C12,9.44771522 11.5522848,9 11,9 C10.4477152,9 10,9.44771522 10,10 C10,10.5522848 10.4477152,11 11,11 Z M16,13 C16.5522848,13 17,12.5522848 17,12 C17,11.4477152 16.5522848,11 16,11 C15.4477152,11 15,11.4477152 15,12 C15,12.5522848 15.4477152,13 16,13 Z M14,12 C14.5522848,12 15,11.5522848 15,11 C15,10.4477152 14.5522848,10 14,10 C13.4477152,10 13,10.4477152 13,11 C13,11.5522848 13.4477152,12 14,12 Z M38,22 C37.4477152,22 37,21.5522848 37,21 C37,20.4477152 37.4477152,20 38,20 C38.5522848,20 39,20.4477152 39,21 C39,21.5522848 38.5522848,22 38,22 Z M38,20 C37.4477152,20 37,19.5522848 37,19 C37,18.4477152 37.4477152,18 38,18 C38.5522848,18 39,18.4477152 39,19 C39,19.5522848 38.5522848,20 38,20 Z M38,17 C37.4477152,17 37,16.5522848 37,16 C37,15.4477152 37.4477152,15 38,15 C38.5522848,15 39,15.4477152 39,16 C39,16.5522848 38.5522848,17 38,17 Z M37,14 C36.4477152,14 36,13.5522848 36,13 C36,12.4477152 36.4477152,12 37,12 C37.5522848,12 38,12.4477152 38,13 C38,13.5522848 37.5522848,14 37,14 Z M35,12 C34.4477152,12 34,11.5522848 34,11 C34,10.4477152 34.4477152,10 35,10 C35.5522848,10 36,10.4477152 36,11 C36,11.5522848 35.5522848,12 35,12 Z M32,11 C31.4477152,11 31,10.5522848 31,10 C31,9.44771522 31.4477152,9 32,9 C32.5522848,9 33,9.44771522 33,10 C33,10.5522848 32.5522848,11 32,11 Z M30,11 C29.4477152,11 29,10.5522848 29,10 C29,9.44771522 29.4477152,9 30,9 C30.5522848,9 31,9.44771522 31,10 C31,10.5522848 30.5522848,11 30,11 Z M28,11 C27.4477152,11 27,10.5522848 27,10 C27,9.44771522 27.4477152,9 28,9 C28.5522848,9 29,9.44771522 29,10 C29,10.5522848 28.5522848,11 28,11 Z M24,12 C23.4477152,12 23,11.5522848 23,11 C23,10.4477152 23.4477152,10 24,10 C24.5522848,10 25,10.4477152 25,11 C25,11.5522848 24.5522848,12 24,12 Z M26,12 C25.4477152,12 25,11.5522848 25,11 C25,10.4477152 25.4477152,10 26,10 C26.5522848,10 27,10.4477152 27,11 C27,11.5522848 26.5522848,12 26,12 Z" fill="#FFD83D" id="Oval" stroke="#000000" stroke-width="0.2"/><path d="M19.9999996,21 C19.872463,21.0000018 19.8548446,21.1769056 19.8503722,21.3206107 C19.8357154,21.7916849 19.646464,22.2491982 19.4846165,22.4770992 C19.3228451,22.7050754 19.0846136,22.6444489 18.8639401,22.5229008 C18.6432701,22.4013563 18.5118197,22.3102608 18.2765142,22.1278626 C18.0411342,21.945545 17.8626826,22.0521435 18.1435121,22.4656489 C18.9623545,23.6712018 19.8503722,24.7016464 19.8503722,26.6679389 C19.850374,26.9221814 19.8933691,27 19.9999996,27 C20.10663,27 20.1551651,26.9221814 20.1551687,26.6679389 C20.1551687,24.7016464 21.0376481,23.6712018 21.856487,22.4656489 C22.1373165,22.0521435 21.9588685,21.945545 21.7234849,22.1278626 C21.4881794,22.3102608 21.3567326,22.4013563 21.1360591,22.5229008 C20.9153855,22.6444489 20.6771575,22.7050754 20.5153826,22.4770992 C20.3535351,22.2491982 20.1642873,21.7916849 20.1496269,21.3206107 C20.1451545,21.1769056 20.1275397,21.0000018 19.9999996,21 Z M10.9372995,22.0014718 C10.8653649,22.0172298 10.8239734,22.1262273 10.8777895,22.2792103 C11.1761837,23.1276672 11.2676545,23.5745189 11.2150127,23.7831905 C11.1623731,23.9917949 11.0179135,24.0204148 10.8248917,23.9508816 C10.631872,23.8813485 10.4052643,23.7809719 10.2297918,23.6836238 C10.0543194,23.5862087 9.87180727,23.7027406 10.1239963,23.867036 C11.4051379,24.7015847 12.2931856,25.6553332 12.6366402,26.8121121 C12.7068334,27.0485315 12.8942629,27.0763414 12.8416191,26.8121121 C12.5512505,25.3549095 12.4954159,24.1569908 12.9341901,23.4058853 C13.0990852,23.1236259 12.933001,22.8525649 12.6697013,23.3115591 C12.4942288,23.617582 12.2102334,23.7383096 11.9820304,23.4740099 C11.7539119,23.2097823 11.2826563,22.5048103 11.1422783,22.184884 C11.0896048,22.0649127 11.0246379,22.0094086 10.9703606,22.0014718 C10.9590553,21.9998201 10.9475764,21.9992214 10.9372995,22.0014718 Z M30.0296394,22.0014718 C29.9753621,22.0094086 29.9103952,22.0649127 29.8577217,22.184884 C29.7173437,22.5048103 29.2460881,23.2097823 29.0179696,23.4740099 C28.7897666,23.7383096 28.5057712,23.617582 28.3302987,23.3115591 C28.066999,22.8525649 27.9009148,23.1236259 28.0658099,23.4058853 C28.5045841,24.1569908 28.4487495,25.3549095 28.1583809,26.8121121 C28.1057371,27.0763414 28.2931666,27.0485315 28.3633598,26.8121121 C28.7068144,25.6553332 29.5948621,24.7015847 30.8760037,23.867036 C31.1281927,23.7027406 30.9456806,23.5862087 30.7702082,23.6836238 C30.5947357,23.7809719 30.368128,23.8813485 30.1751083,23.9508816 C29.9820865,24.0204148 29.8376269,23.9917949 29.7849873,23.7831905 C29.7323455,23.5745189 29.8238163,23.1276672 30.1222105,22.2792103 C30.1760266,22.1262273 30.1346351,22.0172298 30.0627005,22.0014718 C30.0524236,21.9992214 30.0409447,21.9998201 30.0296394,22.0014718 Z M3.65272067,23.0006914 C3.56741707,22.9915557 3.53795758,23.0727197 3.65272067,23.258237 C3.91352159,23.6797425 4.20123125,24.317646 4.22052615,24.5910359 C4.23989618,24.8645123 4.12525538,24.8614588 4.01851844,24.8614588 C3.69969304,24.8614629 3.54394137,24.5870161 3.2541649,24.5073335 C2.96431855,24.4275706 2.92225377,24.6073169 3.12859254,24.7841951 C4.19122739,25.6956368 5.25633438,26.7125384 5.6837172,27.6365133 C5.85758623,28.0125094 6.09263324,28.1499481 5.96216027,27.7910407 C5.56258944,26.6913887 5.46575153,25.7602169 5.55268517,25.1962682 C5.63969044,24.6323215 5.7582622,24.2525899 5.74377355,23.9278558 C5.7292884,23.6032081 5.57315062,23.6253591 5.50900782,23.9278558 C5.46554188,24.1329857 5.3813337,24.4047273 5.32337911,24.5073335 C5.26542626,24.6098594 5.03237967,24.6673312 4.81017031,24.3141743 C4.5879592,23.9610235 4.02735873,23.2810164 3.84380906,23.1101483 C3.77498055,23.0460751 3.70390353,23.006174 3.65272067,23.0006914 Z M36.3472793,23.0006914 C36.2960965,23.006174 36.2250194,23.0460751 36.1561909,23.1101483 C35.9726413,23.2810164 35.4120408,23.9610235 35.1898297,24.3141743 C34.9676203,24.6673312 34.7345737,24.6098594 34.6766209,24.5073335 C34.6186663,24.4047273 34.5344581,24.1329857 34.4909922,23.9278558 C34.4268494,23.6253591 34.2707116,23.6032081 34.2562265,23.9278558 C34.2417378,24.2525899 34.3603096,24.6323215 34.4473148,25.1962682 C34.5342485,25.7602169 34.4374106,26.6913887 34.0378397,27.7910407 C33.9073668,28.1499481 34.1424138,28.0125094 34.3162828,27.6365133 C34.7436656,26.7125384 35.8087726,25.6956368 36.8714075,24.7841951 C37.0777462,24.6073169 37.0356814,24.4275706 36.7458351,24.5073335 C36.4560586,24.5870161 36.300307,24.8614629 35.9814816,24.8614588 C35.8747446,24.8614588 35.7601038,24.8645123 35.7794738,24.5910359 C35.7987687,24.317646 36.0864784,23.6797425 36.3472793,23.258237 C36.4620424,23.0727197 36.4325829,22.9915557 36.3472793,23.0006914 Z" fill="#262626" id="Path" stroke="#000000" stroke-width="0.2"/><path d="M35,31.6818181 C35,32.7858226 28.2800007,34 19.999999,34 C11.7199993,34 5,32.7858226 5,31.6818181 C5,30.5778215 11.7199993,30 19.999999,30 C28.2800007,30 35,30.5778215 35,31.6818181 L35,31.6818181 Z" fill="#000000" id="Shape" stroke="#000000" stroke-width="0.2"/></g></g></g></svg>