<?xml version="1.0" ?><svg height="120px" version="1.1" viewBox="0 0 180 120" width="180px" xmlns="http://www.w3.org/2000/svg" xmlns:sketch="http://www.bohemiancoding.com/sketch/ns" xmlns:xlink="http://www.w3.org/1999/xlink"><title/><defs/><g fill="none" fill-rule="evenodd" id="Ameria" stroke="none" stroke-width="1"><g id="Group" transform="translate(-600.000000, 0.000000)"><g id="Guyana" transform="translate(600.000000, 0.000000)"><rect d="M0,0 L0,120 L180,120 L180,0 L0,0 Z M0,0" fill="#479951" height="120" id="Rectangle-89" width="180" x="0" y="0"/><polygon d="M0,0.251748935 L180,60.2517489 L0,120.251749 L0,0.251748935 Z M0,0.251748935" fill="#FFFFFF" id="Triangle-39" points="0 0.251748935 180 60.2517489 0 120.251749 "/><polygon d="M0,4.62587447 L165,60 L0,115.374126 L0,4.62587447 Z M0,4.62587447" fill="#E5B731" id="Triangle-39" points="0 4.62587447 165 60 0 115.374126 "/><polygon d="M0,0.251748935 L83,60.2517489 L0,120.251749 L0,0.251748935 Z M0,0.251748935" fill="#262626" id="Triangle-39" points="0 0.251748935 83 60.2517489 0 120.251749 "/><polygon d="M0,6.80778356 L74,60 L0,113.192216 L0,6.80778356 Z M0,6.80778356" fill="#CA4638" id="Triangle-39" points="0 6.80778356 74 60 0 113.192216 "/></g></g></g></svg>