<?xml version="1.0" ?><svg height="120px" version="1.1" viewBox="0 0 180 120" width="180px" xmlns="http://www.w3.org/2000/svg" xmlns:sketch="http://www.bohemiancoding.com/sketch/ns" xmlns:xlink="http://www.w3.org/1999/xlink"><title/><defs/><g fill="none" fill-rule="evenodd" id="Page-1" stroke="none" stroke-width="1"><g id="morocco"><rect d="M0,0 L0,120 L180,120 L180,0 L0,0 Z M0,0" fill="#CA4638" height="120" id="Rectangle-326" width="180" x="0" y="0"/><path d="M89.9900428,29.6666667 L82.8406661,52.8240358 L59.65,52.8449265 L78.3996884,67.1550733 L71.2503117,90.3333333 C76.0822643,86.615824 84.8322697,79.95329 90.0000001,76.0231867 L108.769603,90.322888 L101.600312,67.1655187 L120.35,52.8344812 L97.179249,52.8344812 L89.9900428,29.6666667 L89.9900428,29.6666667 L89.9900428,29.6666667 L89.9900428,29.6666667 Z M89.9900428,45.5227273 L92.2702757,52.8240358 L87.7297245,52.8344812 L89.9900428,45.5227273 L89.9900428,45.5227273 L89.9900428,45.5227273 L89.9900428,45.5227273 Z M81.3171917,57.7229109 L79.9231628,62.2666437 L73.9985401,57.7438017 L81.3171917,57.7229109 L81.3171917,57.7229109 L81.3171917,57.7229109 L81.3171917,57.7229109 Z M86.2162075,57.7229109 L93.7837927,57.7229109 L96.1237698,65.2853535 L90.0000001,69.964876 L83.8762304,65.2853535 L86.2162075,57.7229109 L86.2162075,57.7229109 L86.2162075,57.7229109 L86.2162075,57.7229109 Z M98.6828083,57.7229109 L105.991503,57.7229109 L100.086795,62.2666437 L98.6828083,57.7229109 L98.6828083,57.7229109 L98.6828083,57.7229109 L98.6828083,57.7229109 Z M82.3627133,70.194674 L86.0469325,72.983586 L80.1223098,77.506428 L82.3627133,70.194674 L82.3627133,70.194674 L82.3627133,70.194674 L82.3627133,70.194674 Z M97.6572016,70.194674 L99.8976052,77.506428 L93.9829397,72.9940313 L93.9829397,72.983586 L97.6572016,70.194674 L97.6572016,70.194674 L97.6572016,70.194674 L97.6572016,70.194674 Z M97.6572016,70.194674" fill="#57BB63" id="star"/></g></g></svg>