<?xml version="1.0" ?><svg height="120px" version="1.1" viewBox="0 0 180 120" width="180px" xmlns="http://www.w3.org/2000/svg" xmlns:sketch="http://www.bohemiancoding.com/sketch/ns" xmlns:xlink="http://www.w3.org/1999/xlink"><title/><defs/><g fill="none" fill-rule="evenodd" id="Page-1" stroke="none" stroke-width="1"><g id="rectangle_kiribati"><rect fill="#CA4638" height="70" id="rect962-copy" width="180" x="0" y="0"/><g fill="#FCD116" id="sun" stroke="#BD9C08" stroke-width="0.5" transform="translate(67.000000, 38.000000)"><path d="M35.8785623,19.3889495 C38.364744,20.0651202 42.1273855,19.8969556 43.8164973,21.8982763 C41.3303185,21.2221056 38.2665559,25.3011692 35.8785623,24.4076002 C37.98696,25.9061156 5.20820052,24.4076002 7.83749858,24.4076002 C5.3513169,23.7314295 1.58867252,23.8995969 -0.100439226,21.8982763 C2.38573961,22.5744441 5.44950219,18.4953834 7.83749858,19.3889495 C5.72909806,17.8904341 2.07127871,16.7302215 1.22382452,14.2752169 C3.33222787,15.7737036 7.62122013,12.9936129 9.52859174,14.6729305 C8.05228103,12.5328553 4.96689884,10.1841554 5.03687587,7.57158966 C6.51318658,9.71166492 11.4820498,8.56587068 12.706777,10.8284093 C12.0406142,8.30488034 10.0342369,5.0509988 10.8787956,2.59599768 C11.5449585,5.11953098 16.5493879,5.74619708 16.9887492,8.31905949 C17.2130895,5.71646553 16.3080862,1.94985649 18.0449763,-0.0514667797 C17.8206643,2.55115341 22.3406338,4.87472522 21.8580305,7.44758388 C22.9457956,5.07980198 23.547145,1.25480256 25.6710818,-0.0514667797 C24.5833166,2.31631541 28.1318769,6.056522 26.7273089,8.31905949 C28.5473277,6.47172337 30.3035948,3.04965219 32.8372653,2.59599768 C31.0172465,4.44335973 32.9579133,9.14909169 31.009281,10.8284093 C33.3420163,9.72427949 36.0948408,7.11793775 38.6791822,7.57158966 C36.3464697,8.67572237 36.5774413,13.7793875 34.1874692,14.6729305 C36.7515677,14.4452227 40.1969693,12.9689254 42.4922335,14.2752169 C39.9281605,14.5029017 38.5078575,19.3889495 35.8785623,19.3889495 L35.8785623,19.3889495 Z" id="path6046"/><path d="M10.0374219,21.8988381 L1.07086632,18.1785236 L10.7502617,17.7953925 L3.57804594,11.1866281 L12.8028021,14.1868803 L8.28999742,5.48678227 L15.9474707,11.5085447 L14.6383941,1.76646798 L19.8049819,10.0834319 L21.8575223,0.474418424 L23.9100599,10.0834319 L29.0766506,1.76646798 L27.7675711,11.5085447 L35.4250472,5.48678227 L30.9122454,14.1868803 L40.1369959,11.1866281 L32.9647801,17.7953925 L42.6441755,18.1785236 L33.6776199,21.8988381 L42.6441755,25.6191498 L1.07086632,25.6191498 L10.0374219,21.8988381 L10.0374219,21.8988381 Z" id="path4182"/><path d="M33.5982524,21.8983022 C33.5982524,28.4796505 28.3419812,33.8148873 21.858039,33.8148873 C15.3740996,33.8148873 10.1178284,28.4796505 10.1178284,21.8983022 C10.1178284,15.316951 15.3740996,9.98171424 21.858039,9.98171424 C28.3419812,9.98171424 33.5982524,15.316951 33.5982524,21.8983022 L33.5982524,21.8983022 Z" id="path1076"/></g><path d="M93.2514169,26.0171801 L102.030015,26.1979017 C100.314711,26.514776 98.7012107,27.0773145 97.170946,27.6793962 C98.1386161,27.5443559 98.9857483,27.4022501 99.9888643,27.5597839 C100.48947,27.6384011 101.077321,28.1752346 101.036586,28.4448128 L95.3741763,28.4073625 L95.3741763,28.4073625 C93.1404447,29.322303 91.0825598,30.1378099 89.1349302,30.1257434 C86.3614319,30.1085598 83.458402,28.7939485 81.9610465,26.9020779 L78.7384381,26.873791 C78.0830917,26.8369219 77.2745028,25.829491 77.7174256,25.5882924 L80.8461045,25.4937279 C81.9417689,24.5945121 83.5482544,24.4104474 85.665561,25.861013 L87.818575,25.9053363 L87.8207959,25.8966006 C87.8607074,25.865324 87.9002484,25.833873 87.9394388,25.8022575 L86.9032782,25.7917919 C84.5058481,23.9813204 81.4797813,23.290048 78.371737,22.815673 C75.4372218,22.3677834 71.2125162,21.3772144 69.1953693,19.3931352 C73.8579549,20.7323883 80.8778053,21.146733 83.9271604,21.5508222 C86.2164861,21.854196 88.1711719,22.7810075 89.0386739,24.8052057 C91.2686362,22.5867803 92.8451304,20.0897692 99.2485818,20.0642848 C103.638197,20.0468154 107.952643,19.3482402 112.304675,18.7320305 C108.871722,20.6715283 101.675033,23.18243 95.7255059,23.528147 C95.1813992,23.5602249 94.2652113,24.8247412 93.2514169,26.0171801 Z" fill="#FCD116" id="bird" stroke="#BD9C08" stroke-width="0.5"/><rect fill="#346DA6" height="50" id="rect962-copy" width="180" x="0" y="70"/><path d="M0,99.1249991 C6.0000007,99.1249991 11.9999972,104 17.9999979,104 C23.9999986,104 29.9999951,99.1249991 35.999997,99.1249991 C41.9999965,99.1249991 47.999993,104 53.9999925,104 C59.999995,104 65.9999915,99.1249991 71.999991,99.1249991 C77.9999935,99.1249991 83.99999,104 89.9999895,104 C95.999989,104 101.999985,99.1249991 107.999988,99.1249991 C113.999987,99.1249991 119.999984,104 125.999986,104 C131.999986,104 137.999982,99.1249991 143.999985,99.1249991 C149.999984,99.1249991 155.999981,104 161.99998,104 C167.999983,104 173.999985,99.1249991 180,99.1249991 L180,91 C173.999985,91 167.999983,95.8750009 161.99998,95.8750009 C155.999981,95.8750009 149.999984,91 143.999985,91 C137.999982,91 131.999986,95.8750009 125.999986,95.8750009 C119.999984,95.8750009 113.999987,91 107.999988,91 C101.999985,91 95.999989,95.8750009 89.9999895,95.8750009 C83.99999,95.8750009 77.9999935,91 71.999991,91 C65.9999915,91 59.999995,95.8750009 53.9999925,95.8750009 C47.999993,95.8750009 41.9999965,91 35.999997,91 C29.9999951,91 23.9999986,95.8750009 17.9999979,95.8750009 C11.9999972,95.8750009 6.0000007,91 0,91 L0,99.1249991 Z M0,70.1249991 C6.0000007,70.1249991 11.9999972,75 17.9999979,75 C23.9999986,75 29.9999951,70.1249991 35.999997,70.1249991 C41.9999965,70.1249991 47.999993,75 53.9999925,75 C59.999995,75 65.9999915,70.1249991 71.999991,70.1249991 C77.9999935,70.1249991 83.99999,75 89.9999895,75 C95.999989,75 101.999985,70.1249991 107.999988,70.1249991 C113.999987,70.1249991 119.999984,75 125.999986,75 C131.999986,75 137.999982,70.1249991 143.999985,70.1249991 C149.999984,70.1249991 155.999981,75 161.99998,75 C167.999983,75 173.999985,70.1249991 180,70.1249991 L180,62 C173.999985,62 167.999983,66.8750009 161.99998,66.8750009 C155.999981,66.8750009 149.999984,62 143.999985,62 C137.999982,62 131.999986,66.8750009 125.999986,66.8750009 C119.999984,66.8750009 113.999987,62 107.999988,62 C101.999985,62 95.999989,66.8750009 89.9999895,66.8750009 C83.99999,66.8750009 77.9999935,62 71.999991,62 C65.9999915,62 59.999995,66.8750009 53.9999925,66.8750009 C47.999993,66.8750009 41.9999965,62 35.999997,62 C29.9999951,62 23.9999986,66.8750009 17.9999979,66.8750009 C11.9999972,66.8750009 6.0000007,62 0,62 L0,70.1249991 Z M0,85.1249991 C6.0000007,85.1249991 11.9999972,90 17.9999979,90 C23.9999986,90 29.9999951,85.1249991 35.999997,85.1249991 C41.9999965,85.1249991 47.999993,90 53.9999925,90 C59.999995,90 65.9999915,85.1249991 71.999991,85.1249991 C77.9999935,85.1249991 83.99999,90 89.9999895,90 C95.999989,90 101.999985,85.1249991 107.999988,85.1249991 C113.999987,85.1249991 119.999984,90 125.999986,90 C131.999986,90 137.999982,85.1249991 143.999985,85.1249991 C149.999984,85.1249991 155.999981,90 161.99998,90 C167.999983,90 173.999985,85.1249991 180,85.1249991 L180,77 C173.999985,77 167.999983,81.8750009 161.99998,81.8750009 C155.999981,81.8750009 149.999984,77 143.999985,77 C137.999982,77 131.999986,81.8750009 125.999986,81.8750009 C119.999984,81.8750009 113.999987,77 107.999988,77 C101.999985,77 95.999989,81.8750009 89.9999895,81.8750009 C83.99999,81.8750009 77.9999935,77 71.999991,77 C65.9999915,77 59.999995,81.8750009 53.9999925,81.8750009 C47.999993,81.8750009 41.9999965,77 35.999997,77 C29.9999951,77 23.9999986,81.8750009 17.9999979,81.8750009 C11.9999972,81.8750009 6.0000007,77 0,77 L0,85.1249991 Z" fill="#FFFFFF" id="path6138"/></g></g></svg>