<?xml version="1.0" encoding="UTF-8" standalone="no"?>
<svg width="180px" height="120px" viewBox="0 0 180 120" version="1.1" xmlns="http://www.w3.org/2000/svg" xmlns:xlink="http://www.w3.org/1999/xlink">
    <!-- Generator: Sketch 40.2 (33826) - http://www.bohemiancoding.com/sketch -->
    <title>icon-flag-ai</title>
    <desc>Created with Sketch.</desc>
    <defs></defs>
    <g id="Page-1" stroke="none" stroke-width="1" fill="none" fill-rule="evenodd">
        <rect id="Rectangle-path" fill="#00247D" x="0.0555077393" y="0" width="179.944492" height="120"></rect>
        <polygon id="Combined-Shape" fill="#FFFFFF" points="89.1089209 46.7640277 89.8778001 45.2370001 89.8778001 45.2370001 89.8778001 39.8702282 54.8583804 22.4827056 54.8583804 22.4827056 89.8778001 5.09518303 89.8778001 -7.10542736e-15 79.8893208 -1.38008712e-17 44.7331523 17.4554198 9.57698386 1.18431837e-15 0.0555077393 5.7641157e-17 0.0555077393 5.32705521 0.0555077393 5.32705521 34.6079242 22.4827056 0.0555077393 39.638356 0.0555077393 46.1644889 0.357383716 46.7640277 5.95447214 46.7640277 44.7331523 27.5099914 83.5118325 46.7640277 89.1089209 46.7640277"></polygon>
        <polygon id="Combined-Shape" fill="#CF142B" points="89.1280314 46.7640277 89.8778001 45.2651806 89.8778001 41.538945 6.76164302 0 6.76164302 6.65621798e-16 0.0555077393 8.65308337e-16 0.0555077393 3.35152387 0.0555077393 3.35152387 86.9205084 46.7640277 89.1280314 46.7640277"></polygon>
        <polygon id="Combined-Shape" fill="#CF142B" points="3.16275318 46.7640277 89.8778001 3.42646622 89.8778001 0 83.3216186 3.90442825e-15 0.0555077393 41.6138874 0.0555077393 44.9654112 0.0555077393 44.9654112 0.955230201 46.7640277 3.16275318 46.7640277"></polygon>
        <polygon id="Combined-Shape" fill="#FFFFFF" points="52.539318 46.7640277 52.539318 29.9769408 89.8778001 29.9769408 89.8778001 14.9884704 52.539318 14.9884704 52.539318 0 37.5439436 0 37.5439436 14.9884704 0.0555077393 14.9884704 0.0555077393 29.9769408 37.5439436 29.9769408 37.5439436 46.7640277"></polygon>
        <polygon id="Combined-Shape" fill="#CF142B" points="49.5402431 46.7640277 49.5402431 26.9792467 89.8778001 26.9792467 89.8778001 17.9861645 49.5402431 17.9861645 49.5402431 0 40.5430185 0 40.5430185 17.9861645 0.0555077393 17.9861645 0.0555077393 26.9792467 40.5430185 26.9792467 40.5430185 46.7640277 49.5402431 46.7640277"></polygon>
        <path d="M126,53.6054593 C126,75.9123501 127.780431,83.833457 133.888527,89.9493524 C139.996622,96.0652779 142.310814,97.0286018 144.013868,97.9655911 C145.978487,96.8847005 148.242129,95.697221 153.778136,90.1637775 C159.253397,84.6907375 161.90158,76.8015561 161.90158,53.2243924 C157.918959,54.9287613 155.935536,55.4902744 152.45271,55.480352 C149.873206,55.7329797 145.893748,54.0807452 143.514177,53 C141.959007,53.9896078 139.703073,55.1697759 135.648894,55.302289 C130.966558,55.498566 129.482931,54.7424367 126.000105,53.6053394 L126,53.6054593 Z" id="Shape" fill="#CCCC33"></path>
        <path d="M127.052544,54.9362623 C127.052544,61.8374637 126.644394,71.2428188 128.103179,76.6845329 C129.568228,82.1496589 129.904558,82.9502231 131.006223,84.857476 L156.679204,84.666965 C158.265114,81.921362 158.34516,80.2206802 159.521217,75.83354 C160.693076,71.4621676 160.989054,61.7178482 161.023259,54.4599812 C158.441655,55.7676428 155.060903,56.6943874 151.77957,56.2877952 C149.149037,56.0966322 146.718436,55.5244953 143.887984,54 C141.432642,55.4018132 140.576676,56.0416845 136.522496,56.2053736 C133.365865,56.3537219 130.808989,56.5973266 127.052588,54.9361664 L127.052544,54.9362623 Z" id="Shape" fill="#FFFFFF"></path>
        <path d="M131.000045,85 C132.827216,88.6643363 141.441699,95.687259 143.960997,97.1410957 C146.83531,95.4823666 154.434906,88.54251 156.553018,85 L131,85 L131.000045,85 Z" id="Shape" fill="#99CCFF"></path>
        <path d="M144.042411,65.3483524 C144.854193,67.1678928 147.456843,69.1771272 148.172347,70.1618247 C147.261657,71.1464683 147.079625,71.0392303 147.199051,72.8685476 C148.782623,71.2896622 148.811039,71.1250588 149.829585,71.3645146 C152.060806,73.4862075 150.228899,78.0429423 148.384897,79.0336053 C146.541426,80.0904438 146.876033,78.9970079 144.112925,80.3215631 C145.379788,81.3538355 146.847632,80.170157 148.047141,80.4865067 C148.698986,81.2234853 147.737265,82.5665916 148.243905,83.8314836 C149.304007,83.7342234 149.176691,81.6947423 149.423433,80.9552561 C150.197862,78.2459852 154.853903,76.3564037 155.09065,73.8712403 C156.072363,73.4320602 157.053545,73.733871 158.247282,74.3725852 C157.652782,72.0443362 155.686192,72.0693969 155.159044,71.3422462 C153.904281,69.5150468 152.792099,67.4305402 150.112111,66.8897862 C148.077659,66.479285 148.229712,67.0132687 146.926014,66.1658431 C146.114232,65.5635269 143.647845,64.4244676 144.042433,65.3483479 L144.042411,65.3483524 Z" id="Shape" fill="#FF9900"></path>
        <path d="M137.615564,73.1841337 C138.924563,71.6501537 139.572971,68.5186425 140.152347,67.4557801 C141.491368,67.7631052 141.476906,67.9665752 143.118417,67.0113764 C140.913692,66.4147094 140.747708,66.4676622 140.494046,65.4976309 C141.420303,62.6265444 146.503983,62.0413046 148.284593,63.1321954 C150.126355,64.1917214 148.955516,64.4206043 151.475294,66.1299045 C151.841247,64.5802615 150.05728,63.8964875 149.790429,62.7380436 C150.16971,61.8445419 151.865159,62.0274073 152.8021,61.0096332 C152.216622,60.1618703 150.383796,61.2218984 149.582413,61.3594581 C146.70687,61.9726139 142.778562,58.9323601 140.362132,59.893854 C139.496032,59.2718684 139.317694,58.3041768 139.352654,57 C137.47015,58.588553 138.412107,60.2338075 137.983695,61.0176595 C136.87452,62.9284646 135.460018,64.8393297 136.210267,67.3499885 C136.779796,69.2558924 137.204217,68.8783328 137.026973,70.3726533 C136.847351,71.3380023 136.942683,73.9481979 137.615561,73.1841457 L137.615564,73.1841337 Z" id="Shape" fill="#FF9900"></path>
        <path d="M148.8602,74.6541427 C146.805428,74.380101 143.657659,75.4711747 142.403416,75.5484643 C141.986768,74.2974636 142.176983,74.204006 140.470003,73.3593982 C141.074612,75.4660876 141.20803,75.5740646 140.468068,76.2827194 C137.410451,77.0124841 134.25517,73.1692544 134.313802,71.1528105 C134.312602,69.1027025 135.123844,69.9391746 135.355508,67 C133.774501,67.5031495 134.08323,69.3117467 133.180879,70.1286184 C132.182244,70.2814918 131.469442,68.8041847 130.070733,68.56655 C129.612227,69.4825628 131.512306,70.4289723 132.050392,71.0113793 C134.088519,73.0393194 133.390165,77.8156952 135.503647,79.2890319 C135.393071,80.3171136 134.616246,80.9631241 133.426908,81.6092471 C135.827352,82.3227777 136.817662,80.7035103 137.743251,80.6474235 C140.033075,80.563578 142.48089,80.728706 144.347574,78.8181406 C145.764637,77.3677723 145.20601,77.2169523 146.639722,76.5885157 C147.599601,76.2356467 149.894453,74.8076906 148.860207,74.6541637 L148.8602,74.6541427 Z" id="Shape" fill="#FF9900"></path>
    </g>
</svg>