<?xml version="1.0" encoding="UTF-8" standalone="no"?>
<svg width="180px" height="120px" viewBox="0 0 180 120" version="1.1" xmlns="http://www.w3.org/2000/svg" xmlns:xlink="http://www.w3.org/1999/xlink">
    <!-- Generator: Sketch 40.2 (33826) - http://www.bohemiancoding.com/sketch -->
    <title>icon-flag-xk</title>
    <desc>Created with Sketch.</desc>
    <defs></defs>
    <g id="Page-1" stroke="none" stroke-width="1" fill="none" fill-rule="evenodd">
        <rect id="Rectangle-path" fill="#244AA5" x="0" y="0" width="180" height="120"></rect>
        <path d="M71.163,56.919 C71.163,56.919 71.4968571,56.709 71.619,56.681 C71.7411429,56.653 72.1727143,56.527 72.1727143,56.527 C72.1727143,56.527 72.4495714,56.394 72.5961429,56.394 C72.7508571,56.394 73.0521429,56.548 73.1498571,56.681 C73.2394286,56.814 73.728,57.045 73.728,57.045 C73.728,57.045 74.0618571,57.15 74.127,57.045 C74.1921429,56.94 74.3387143,56.863 74.4934286,56.863 C74.6481429,56.863 74.6725714,56.73 74.6725714,56.625 C74.6725714,56.52 74.7377143,56.387 74.8517143,56.261 C74.9738571,56.128 75.2181429,56.051 75.2181429,56.051 C75.2181429,56.051 75.552,55.918 75.5845714,55.736 C75.6171429,55.554 75.951,55.421 76.1382857,55.393 C76.3174286,55.365 76.1382857,55.288 76.6268571,55.337 C77.1154286,55.393 77.1805714,55.232 77.205,55.099 C77.2375714,54.966 77.205,54.833 77.5144286,54.861 C77.8238571,54.889 77.9704286,54.889 77.9704286,54.728 C77.9704286,54.574 78.2472857,54.49 77.7587143,54.364 C77.2701429,54.231 77.3027143,54.336 77.2701429,54.126 C77.2375714,53.916 77.2701429,53.944 76.9362857,53.916 C76.6024286,53.888 76.7815714,53.734 76.7571429,53.573 C76.7245714,53.419 76.635,53.335 76.578,53.23 C76.5128571,53.125 76.3337143,53.125 76.3337143,52.971 C76.3337143,52.817 76.3011429,52.733 76.122,52.733 C75.9428571,52.733 75.8777143,52.733 75.8777143,52.579 C75.8777143,52.425 75.9102857,52.292 76.0894286,52.292 C76.2685714,52.292 76.3662857,52.159 76.3337143,52.005 C76.3011429,51.851 76.3011429,51.508 76.3011429,51.508 L76.5454286,51.242 C76.5454286,51.242 77.2782857,50.689 77.3434286,50.584 C77.4085714,50.479 77.6528571,50.402 77.7668571,50.612 C77.889,50.822 77.946,50.878 78.0437143,50.976 C78.1332857,51.081 78.4101429,51.004 78.4671429,50.899 C78.5322857,50.794 78.5567143,50.409 78.7195714,50.199 C78.8824286,49.996 78.9964286,49.891 79.0371429,49.723 C79.0778571,49.555 79.1592857,49.415 79.3547143,49.415 C79.5501429,49.415 79.6722857,49.177 79.6722857,49.037 C79.6722857,48.897 79.7537143,48.764 79.9898571,48.729 C80.226,48.694 80.3481429,48.561 80.4295714,48.764 C80.511,48.967 80.5924286,48.967 80.7471429,49.037 C80.91,49.107 81.1461429,49.205 81.2601429,49.107 C81.3822857,49.002 81.4392857,48.834 81.6184286,48.939 C81.7894286,49.044 81.9115714,48.939 81.9522857,48.736 C81.993,48.533 82.0337143,48.26 82.0337143,48.26 C82.0337143,48.26 82.0744286,48.12 82.3512857,48.12 C82.6281429,48.12 82.4327143,47.952 82.5874286,47.847 C82.7502857,47.742 82.7502857,47.644 82.9457143,47.707 C83.1411429,47.777 83.4587143,47.623 83.304,47.455 C83.1411429,47.287 82.791,47.014 82.9864286,46.804 C83.1818571,46.601 83.2632857,46.258 83.0678571,46.223 C82.8724286,46.188 82.5874286,46.258 82.5548571,46.055 C82.5141429,45.852 82.4327143,45.712 82.677,45.677 C82.9131429,45.642 83.3121429,45.642 83.4342857,45.537 C83.5564286,45.432 83.9472857,45.369 83.9472857,45.061 C83.9472857,44.753 84.0694286,44.718 84.1101429,44.55 C84.1508571,44.382 84.1508571,44.025 83.988,43.857 C83.8251429,43.689 83.589,43.444 83.5482857,43.346 C83.5075714,43.241 83.3528571,43.073 83.1085714,43.003 C82.8724286,42.933 82.6688571,42.898 82.6688571,42.73 C82.6688571,42.562 82.8317143,42.765 82.8317143,42.317 C82.8317143,41.876 82.5141429,41.806 82.5141429,41.806 L82.0337143,41.533 C82.0337143,41.533 81.1868571,41.323 80.9588571,41.323 C80.7308571,41.323 80.4702857,41.099 80.7308571,40.959 C80.9914286,40.819 81.0565714,40.567 80.9588571,40.371 C80.8611429,40.175 80.796,40.035 80.4377143,39.951 C80.0794286,39.867 79.9817143,39.783 80.1445714,39.587 C80.3074286,39.391 80.34,39.251 80.5354286,39.391 C80.7308571,39.531 81.0565714,39.587 81.3171429,39.475 C81.5777143,39.363 81.6754286,39.279 81.8057143,39.391 C81.936,39.503 82.0988571,39.615 82.2942857,39.447 C82.4897143,39.279 82.848,39.251 83.0108571,39.335 C83.1737143,39.419 83.5645714,39.391 83.6948571,39.335 C83.8251429,39.279 84.0857143,39.083 84.0857143,38.971 C84.0857143,38.859 84.2485714,38.663 84.4114286,38.579 C84.5742857,38.495 84.7697143,38.215 84.9325714,38.215 C85.0954286,38.215 85.1605714,38.047 85.1605714,37.935 C85.1605714,37.823 85.2908571,37.599 85.3234286,37.515 C85.356,37.431 85.6817143,37.312 85.9097143,37.487 C86.1377143,37.655 86.4308571,37.711 86.4308571,37.711 C86.4308571,37.711 86.7565714,37.767 86.9194286,37.711 C87.0822857,37.655 87.3102857,37.599 87.5382857,37.739 C87.7662857,37.879 88.092,37.879 88.092,37.879 C88.092,37.879 88.1571429,37.655 88.1571429,37.543 C88.1571429,37.431 88.2222857,37.235 88.092,37.151 C87.9617143,37.067 87.7988571,36.955 88.0594286,36.787 C88.32,36.619 88.32,36.647 88.5805714,36.647 C88.8411429,36.647 89.004,36.675 89.1994286,36.675 C89.3948571,36.675 89.7205714,36.843 89.7205714,37.011 C89.7205714,37.179 89.8508571,37.291 90.0137143,37.375 C90.1765714,37.459 90.372,37.543 90.3068571,37.683 C90.2417143,37.823 90.2417143,37.935 90.4371429,37.907 C90.6325714,37.879 90.6977143,37.991 90.6977143,38.131 C90.6977143,38.271 90.7628571,38.355 90.9582857,38.411 C91.1537143,38.467 91.2514286,38.579 91.2514286,38.719 C91.2514286,38.859 91.2188571,38.943 91.284,39.083 C91.3491429,39.223 91.5445714,39.447 91.5445714,39.447 C91.5445714,39.447 91.9028571,39.839 91.4468571,39.643 C90.9908571,39.447 90.8931429,39.363 90.7302857,39.391 C90.5674286,39.419 90.4697143,39.503 90.4697143,39.503 C90.4697143,39.503 90.2417143,39.559 90.0788571,39.559 C89.916,39.559 89.7531429,39.867 90.0137143,39.923 C90.2742857,39.979 90.372,40.035 90.372,40.231 C90.372,40.427 90.2742857,40.371 90.144,40.511 C90.0137143,40.651 89.916,40.567 89.688,40.567 C89.46,40.567 89.3948571,40.735 89.3948571,40.903 C89.3948571,41.071 89.4925714,41.043 89.5902857,41.183 C89.688,41.323 89.8508571,41.351 90.0137143,41.211 C90.1765714,41.071 90.3068571,40.987 90.4045714,41.239 C90.5022857,41.491 90.6325714,41.491 90.828,41.491 C91.0234286,41.491 91.0885714,41.491 91.2514286,41.407 C91.4142857,41.323 91.6097143,41.407 91.6422857,41.631 C91.6748571,41.855 91.8377143,41.883 92.0005714,41.967 C92.1634286,42.051 92.2611429,42.107 92.2937143,42.247 C92.3262857,42.387 92.424,42.443 92.5868571,42.359 C92.7497143,42.275 93.0102857,42.219 93.108,42.331 C93.2057143,42.443 93.3685714,42.667 93.3685714,42.667 L93.4011429,42.947 L94.02,43.143 C94.02,43.143 94.0851429,43.283 94.0851429,43.395 C94.0851429,43.507 94.1828571,43.563 94.3457143,43.535 C94.5085714,43.507 94.8017143,43.535 94.8017143,43.535 C94.8017143,43.535 95.0297143,43.451 95.0297143,43.283 C95.0297143,43.115 95.1274286,43.059 95.2902857,43.059 C95.4531429,43.059 95.8114286,43.171 95.9091429,43.003 C96.0068571,42.835 96.3,42.779 96.528,42.863 C96.756,42.947 97.3422857,43.171 97.3422857,43.171 C97.3422857,43.171 97.2771429,43.199 97.4725714,43.479 C97.668,43.759 98.0262857,43.759 98.0262857,43.759 C98.0262857,43.759 98.0588571,44.011 98.124,44.123 C98.1891429,44.235 98.4822857,44.291 98.6451429,44.179 C98.808,44.067 99.036,43.927 99.2314286,43.927 C99.4268571,43.927 99.5571429,43.927 99.5571429,43.815 C99.5571429,43.703 99.3617143,43.619 99.3617143,43.451 C99.3617143,43.283 99.5571429,43.283 99.5897143,43.115 C99.6222857,42.947 99.8177143,43.115 99.948,43.199 C100.078286,43.283 100.241143,43.423 100.241143,43.535 C100.241143,43.647 100.501714,44.039 100.664571,44.095 C100.827429,44.151 101.250857,44.179 101.381143,44.039 C101.511429,43.899 101.837143,43.843 101.804571,44.179 C101.772,44.515 101.706857,44.543 101.934857,44.655 C102.162857,44.767 102.195429,45.159 102,45.271 C101.804571,45.383 101.739429,45.411 101.739429,45.607 C101.739429,45.803 101.674286,46.027 101.837143,46.139 C102,46.251 102.097714,46.335 102.097714,46.447 C102.097714,46.559 102.293143,47.063 102.293143,47.063 C102.293143,47.063 102.390857,47.567 102.358286,47.679 C102.325714,47.791 102.260571,47.987 102.553714,47.959 C102.846857,47.931 102.912,47.931 102.912,48.155 C102.912,48.379 103.009714,48.463 102.846857,48.547 C102.684,48.631 102.586286,48.911 102.749143,48.967 C102.912,49.023 103.042286,49.107 103.074857,49.219 C103.107429,49.331 103.368,49.527 103.530857,49.415 C103.693714,49.303 103.726286,49.247 103.856571,49.219 C103.986857,49.191 104.084571,49.107 103.954286,48.967 C103.824,48.827 103.791429,48.687 103.921714,48.603 C104.052,48.519 104.117143,48.239 104.117143,48.239 C104.117143,48.239 104.312571,47.987 104.540571,48.239 C104.768571,48.491 104.801143,48.407 104.964,48.407 C105.126857,48.407 105.192,48.547 105.192,48.687 C105.192,48.827 105.517714,48.799 105.517714,49.023 C105.517714,49.247 105.582857,49.779 105.582857,49.779 C105.582857,49.779 105.582857,50.087 105.778286,50.199 C105.973714,50.311 105.941143,50.339 105.843429,50.479 C105.745714,50.619 105.778286,50.843 105.778286,50.955 C105.778286,51.067 105.843429,51.123 105.680571,51.235 C105.517714,51.347 105.452571,51.487 105.550286,51.655 C105.648,51.823 105.615429,51.935 105.876,52.131 C106.136571,52.327 106.104,52.411 106.104,52.551 C106.104,52.691 106.364571,52.887 106.364571,53.027 C106.364571,53.167 106.56,53.335 106.722857,53.363 C106.885714,53.391 107.081143,53.643 107.081143,53.783 C107.081143,53.923 107.113714,54.287 107.113714,54.287 C107.113714,54.287 107.081143,54.371 107.276571,54.371 C107.472,54.371 107.602286,54.567 107.667429,54.343 C107.732571,54.119 107.928,54.091 108.058286,54.035 C108.188571,53.979 108.449143,53.867 108.579429,53.951 C108.709714,54.035 108.872571,54.035 109.002857,54.035 C109.133143,54.035 109.752,54.063 109.752,54.063 C109.752,54.063 109.914857,54.035 110.012571,54.259 C110.110286,54.483 110.403429,54.735 110.240571,54.847 C110.077714,54.959 110.077714,55.183 110.273143,55.183 C110.468571,55.183 110.664,55.183 110.664,55.323 C110.664,55.463 110.696571,55.575 110.859429,55.491 C111.022286,55.407 111.12,55.379 111.185143,55.491 C111.250286,55.603 111.380571,55.603 111.543429,55.687 C111.706286,55.771 111.771429,55.715 111.869143,55.603 C111.966857,55.491 112.357714,55.379 112.357714,55.379 C112.357714,55.379 112.878857,55.267 113.074286,55.323 C113.269714,55.379 113.530286,55.491 113.530286,55.491 C113.530286,55.491 113.660571,55.771 113.595429,55.939 C113.530286,56.107 113.465143,56.079 113.530286,56.331 C113.595429,56.583 113.465143,56.611 113.334857,56.583 C113.204571,56.555 113.074286,56.555 113.074286,56.779 C113.074286,57.003 112.944,57.059 112.944,57.255 C112.944,57.451 112.944,57.423 112.813714,57.507 C112.683429,57.591 112.650857,57.731 112.846286,57.759 C113.041714,57.787 112.976571,57.983 112.976571,58.095 C112.976571,58.207 112.944,58.459 112.944,58.459 C112.944,58.459 112.976571,58.599 112.748571,58.599 C112.520571,58.599 112.325143,58.571 112.292571,58.711 C112.26,58.851 111.999429,59.075 112.227429,59.215 C112.455429,59.355 112.390286,59.439 112.26,59.495 C112.129714,59.551 112.032,59.831 112.292571,59.915 C112.553143,59.999 112.520571,60.083 112.357714,60.195 C112.194857,60.307 111.869143,60.391 111.869143,60.559 C111.869143,60.727 111.804,60.727 111.608571,60.755 C111.413143,60.783 111.315429,61.007 111.543429,61.287 C111.771429,61.567 111.836571,61.511 111.999429,61.511 C112.162286,61.511 112.162286,61.287 112.162286,61.287 C112.162286,61.287 112.716,61.315 112.878857,61.315 C113.041714,61.315 113.269714,61.315 113.4,61.231 C113.530286,61.147 113.888571,61.007 113.888571,61.259 C113.888571,61.511 113.953714,61.483 114.116571,61.595 C114.279429,61.707 114.312,61.623 114.442286,61.791 C114.572571,61.959 114.605143,61.819 114.702857,61.623 C114.800571,61.427 114.996,61.231 115.158857,61.455 C115.321714,61.679 115.321714,61.623 115.517143,61.623 C115.712571,61.623 115.777714,61.707 115.777714,61.847 C115.777714,61.987 115.973143,61.987 116.201143,61.959 C116.429143,61.931 116.461714,62.071 116.559429,62.211 C116.657143,62.351 116.689714,62.323 116.82,62.323 C116.950286,62.323 117.080571,62.323 117.178286,62.211 C117.276,62.099 117.406286,61.959 117.536571,62.127 C117.666857,62.295 117.927429,62.267 117.992571,62.071 C118.057714,61.875 118.350857,61.707 118.513714,61.931 C118.676571,62.155 118.806857,62.155 118.969714,62.183 C119.132571,62.211 119.360571,62.211 119.458286,62.351 C119.556,62.491 119.881714,62.715 119.653714,62.883 C119.425714,63.051 119.165143,63.275 119.360571,63.331 C119.556,63.387 119.686286,63.443 119.816571,63.583 C119.946857,63.723 120.370286,63.779 120.565714,63.807 C120.761143,63.835 120.924,63.863 121.152,63.695 C121.38,63.527 121.608,63.527 121.575429,63.751 C121.542857,63.975 121.673143,64.227 121.673143,64.227 C121.673143,64.227 121.836,64.591 121.836,64.731 C121.836,64.871 121.803429,64.899 122.096571,65.067 C122.389714,65.235 122.357143,65.347 122.585143,65.179 C122.813143,65.011 122.878286,64.927 122.878286,64.787 L122.878286,64.339 C122.878286,64.339 123.204,64.283 123.334286,64.199 C123.464571,64.115 123.985714,63.863 124.116,63.975 C124.246286,64.087 124.409143,64.059 124.539429,64.003 C124.669714,63.947 124.930286,63.947 125.060571,63.947 C125.190857,63.947 125.418857,63.975 125.679429,63.779 C125.94,63.583 125.94,63.639 126.102857,63.779 C126.265714,63.919 126.265714,64.087 126.168,64.199 C126.070286,64.311 126.168,64.563 126.396,64.563 C126.624,64.563 126.689143,64.675 126.689143,64.815 C126.689143,64.955 126.721714,65.151 126.754286,65.263 C126.786857,65.375 126.786857,65.431 127.145143,65.515 C127.503429,65.599 127.438286,65.795 127.503429,65.935 C127.568571,66.075 127.568571,66.187 127.373143,66.187 C127.177714,66.187 127.112571,66.271 127.08,66.411 C127.047429,66.551 126.754286,66.607 126.754286,66.607 L126.461143,66.551 C126.461143,66.551 126.265714,66.551 126.168,66.663 C126.070286,66.775 125.874857,66.999 126.005143,67.195 C126.135429,67.391 126.135429,67.503 126.005143,67.587 C125.874857,67.671 125.809714,68.091 125.679429,68.007 C125.549143,67.923 125.386286,68.035 125.256,68.091 C125.125714,68.147 125.158286,68.539 125.418857,68.679 C125.679429,68.819 125.744571,69.015 125.744571,69.015 L126.037714,69.435 C126.037714,69.435 125.94,69.519 125.874857,69.659 C125.809714,69.799 125.614286,70.079 125.809714,70.135 C126.005143,70.191 125.907429,70.499 125.712,70.499 C125.516571,70.499 125.288571,70.415 125.256,70.639 C125.223429,70.863 125.125714,70.807 124.930286,70.779 C124.734857,70.751 124.246286,70.639 124.116,70.863 C123.985714,71.087 123.953143,71.171 123.725143,71.143 C123.497143,71.115 123.594857,71.479 123.66,71.619 C123.725143,71.759 123.953143,71.955 123.953143,71.955 C123.953143,71.955 124.148571,72.095 124.148571,72.375 C124.148571,72.655 124.018286,72.627 123.888,72.431 C123.757714,72.235 123.497143,72.263 123.464571,72.487 C123.432,72.711 123.399429,73.047 123.171429,73.047 C122.943429,73.047 122.845714,73.103 122.748,73.215 C122.650286,73.327 122.487429,73.523 122.487429,73.635 C122.487429,73.747 122.454857,73.859 122.292,73.887 C122.129143,73.915 122.096571,74.223 122.096571,74.223 C122.096571,74.223 121.705714,74.279 121.673143,74.419 C121.640571,74.559 121.705714,74.783 121.38,74.811 C121.054286,74.839 120.858857,75.035 120.761143,75.175 C120.663429,75.315 120.630857,75.427 120.761143,75.567 C120.891429,75.707 120.989143,76.155 121.152,76.239 C121.314857,76.323 121.445143,76.351 121.412571,76.575 C121.38,76.799 121.184571,76.967 121.445143,76.967 C121.705714,76.967 121.868571,77.023 121.770857,77.219 C121.673143,77.415 121.673143,77.443 121.477714,77.527 C121.282286,77.611 121.184571,77.611 121.184571,77.835 C121.184571,78.059 121.249714,78.059 121.086857,78.143 C120.924,78.227 120.924,78.339 120.924,78.507 C120.924,78.675 120.858857,78.619 120.663429,78.815 C120.468,79.011 120.207429,79.011 120.044571,78.955 C119.881714,78.899 119.849143,78.899 119.816571,78.731 C119.784,78.563 119.490857,78.563 119.328,78.591 C119.165143,78.619 118.937143,78.787 118.937143,78.787 C118.937143,78.787 118.644,78.955 118.774286,79.095 C118.904571,79.235 118.839429,79.459 118.611429,79.431 C118.383429,79.403 117.862286,79.655 117.699429,79.403 C117.536571,79.151 117.080571,78.983 117.015429,79.319 C116.950286,79.655 117.210857,79.627 117.178286,79.963 C117.145714,80.299 117.080571,80.299 116.950286,80.411 C116.82,80.523 116.82,80.607 116.787429,80.747 C116.754857,80.887 116.722286,81.195 116.950286,81.307 C117.178286,81.419 117.276,81.727 117.276,81.895 C117.276,82.063 117.276,82.231 117.504,82.231 C117.732,82.231 117.927429,82.203 117.96,82.007 C117.992571,81.811 118.448571,81.699 118.481143,82.091 C118.513714,82.483 118.513714,82.679 118.676571,82.847 C118.839429,83.015 118.969714,83.239 119.1,83.323 C119.230286,83.407 119.450143,84.121 119.450143,84.121 C119.132571,84.184 119.051143,84.569 118.847571,84.646 C118.733571,84.688 118.611429,84.653 118.505571,84.723 C118.424143,84.779 118.424143,84.884 118.310143,84.933 C118.074,85.031 118.114714,84.688 117.829714,84.814 C117.569143,84.926 117.544714,85.206 117.170143,85.087 C116.974714,85.024 116.852571,84.31 116.795571,84.142 C116.763,84.044 116.559429,83.75 116.494286,83.659 C116.274429,83.351 115.834714,83.659 115.696286,83.568 C115.476429,83.428 115.574143,83.19 115.240286,83.162 C114.564429,83.12 115.044857,83.547 114.759857,83.645 C114.214286,83.827 114.214286,83.169 113.807143,83.47 C113.652429,83.582 114.051429,83.652 113.953714,83.848 C113.872286,84.009 113.473286,84.254 113.497714,84.443 C113.530286,84.702 113.831571,84.779 113.921143,84.996 C114.165429,85.57 113.758286,85.969 113.147571,85.521 C112.805571,85.269 112.740429,84.8 112.211143,84.835 C112.089,84.842 112.048286,84.961 111.926143,84.975 C111.804,84.982 111.706286,84.87 111.576,84.905 C111.380571,84.968 111.551571,85.094 111.510857,85.199 C111.510857,85.199 111.250286,85.402 111.209571,85.458 C111.063,85.64 111.111857,85.801 110.900143,85.948 C110.721,86.074 110.582571,85.997 110.387143,86.193 C110.183571,86.396 110.167286,86.697 109.906714,86.893 C109.776429,86.991 109.686857,86.599 109.524,86.858 C109.499571,86.893 109.475143,86.928 109.458857,86.963 C109.418143,87.04 109.41,87.075 109.450714,87.159 C109.792714,87.775 109.076143,88.006 108.856286,88.44 C108.758571,88.622 109.027286,88.79 108.921429,88.93 C108.848143,89.035 108.530571,89.322 108.506143,89.385 C108.481714,89.448 108.449143,89.588 108.392143,89.637 C108.335143,89.693 108.139714,89.665 108.123429,89.749 C108.107143,89.847 108.327,89.924 108.384,89.987 C108.457286,90.064 108.351429,90.169 108.375857,90.19 C108.742286,90.533 108.522429,90.428 108.709714,90.729 C108.734143,90.771 108.848143,90.694 108.888857,90.806 C108.929571,90.911 108.799286,90.904 108.848143,91.023 C108.856286,91.058 109.116857,91.373 109.116857,91.38 C109.133143,91.485 108.620143,91.702 108.506143,91.702 C108.196714,91.709 108.774857,91.107 108.27,91.107 C108.050143,91.107 108.033857,91.576 107.976857,91.625 C107.952429,91.646 107.748857,91.625 107.7,91.625 C107.374286,91.625 107.162571,92.003 107.032286,92.038 C106.950857,92.066 106.771714,91.996 106.633286,92.017 C106.503,92.038 106.348286,92.157 106.226143,92.157 C106.144714,92.157 106.104,92.108 106.038857,92.073 C105.892286,91.996 105.623571,91.961 105.460714,91.912 C105.371143,91.884 105.200143,92.017 105.143143,91.982 C105.037286,91.919 105.216429,91.744 104.972143,91.618 C104.939571,91.604 104.760429,91.198 104.768571,91.177 C104.85,90.911 104.939571,90.624 104.898857,90.344 C104.85,90.057 104.369571,89.812 104.239286,89.581 C104.141571,89.406 104.052,88.944 103.864714,88.825 C103.661143,88.699 103.473857,88.454 103.368,88.265 C103.335429,88.209 103.433143,88.111 103.359857,88.013 C103.278429,87.908 103.123714,87.866 103.083,87.726 C103.050429,87.614 103.083,87.25 102.944571,87.173 C102.789857,87.089 101.796429,86.977 101.552143,86.956 C101.421857,86.949 101.324143,86.949 101.226429,86.858 C101.185714,86.823 101.120571,86.676 101.088,86.676 C100.990286,86.669 100.876286,86.718 100.778571,86.725 C100.705286,86.732 100.583143,86.683 100.518,86.725 C100.200429,86.928 100.119,87.187 99.8177143,87.404 C99.5082857,87.621 99.1662857,87.614 98.8568571,87.866 C98.6614286,88.027 98.5311429,88.412 98.3357143,88.594 C98.2542857,88.671 98.124,88.594 98.0914286,88.629 C97.9285714,88.818 97.7005714,88.93 97.5377143,89.105 C97.5051429,89.14 97.5132857,89.21 97.4725714,89.238 L97.1224286,89.322 C97.0328571,89.336 96.8618571,89.315 96.7885714,89.336 C96.6257143,89.385 96.6338571,89.546 96.0801429,89.651 C96.0394286,89.658 95.9661429,89.693 95.9335714,89.714 C95.8684286,89.756 95.8195714,89.819 95.7544286,89.861 C95.7137143,89.889 95.5915714,89.84 95.5182857,89.847 C95.3798571,89.868 95.2984286,89.98 95.1681429,89.994 C94.875,90.029 94.4027143,89.868 94.1747143,89.952 C94.0362857,90.001 93.6535714,90.4 93.5151429,90.442 C93.4255714,90.47 93.3604286,90.435 93.2627143,90.4 C93.2138571,90.456 93.0998571,90.89 93.0591429,90.988 C93.0591429,90.995 92.4321429,91.485 92.3832857,91.541 C92.3018571,91.625 92.2692857,91.716 92.1715714,91.807 C92.1064286,91.87 92.0005714,91.926 91.8947143,91.926 C91.7644286,91.926 91.569,91.835 91.4468571,91.814 C91.2107143,91.779 90.5022857,91.751 90.2905714,91.793 C90.0707143,91.835 90.1358571,92.423 89.5902857,92.479 C89.2727143,92.514 88.9795714,92.57 88.6538571,92.598 C88.6212857,92.598 88.4258571,92.472 88.2304286,92.521 C88.1571429,92.542 87.921,92.766 87.921,92.836 L87.921,92.962 C87.921,92.983 87.9861429,93.06 87.978,93.067 C87.8558571,93.2 87.579,93.41 87.4894286,93.564 C87.465,93.606 87.4324286,93.655 87.3917143,93.683 C87.3184286,93.732 86.9438571,93.865 86.9112857,93.928 C86.8217143,94.138 87.1718571,94.334 87.1392857,94.418 C87.0415714,94.691 86.6507143,94.95 86.5285714,95.202 C86.4797143,95.307 86.6588571,95.657 86.6507143,95.776 C86.61,96.105 86.4878571,96.525 86.5041429,96.847 C86.5041429,96.91 86.553,97.239 86.5774286,97.274 C86.6181429,97.337 86.7077143,97.372 86.7647143,97.428 C86.8217143,97.484 87.2532857,98.268 87.2695714,98.352 C87.351,98.933 86.4471429,98.73 86.9682857,99.311 C87.0497143,99.402 87.1148571,99.5 87.2044286,99.577 C87.3184286,99.682 87.9861429,100.137 87.9942857,100.186 C88.0105714,100.27 87.4568571,100.354 87.3591429,100.445 C87.0985714,100.683 86.8787143,101.124 86.6262857,101.369 C86.4715714,101.523 86.3331429,101.355 86.1295714,101.712 C86.0562857,101.845 86.1295714,102.146 86.04,102.23 C85.9097143,102.356 85.8038571,102.188 85.6735714,102.244 C85.6165714,102.265 85.584,102.419 85.527,102.461 C85.3804286,102.58 84.0775714,103.224 83.9554286,103.168 C83.8902857,103.14 83.817,102.937 83.8088571,102.874 C83.7925714,102.804 83.7111429,102.65 83.646,102.601 C83.3121429,102.335 82.7991429,102.286 82.4734286,102.608 C82.392,102.692 82.3838571,102.818 82.278,102.902 C82.0988571,103.042 81.8952857,103.168 81.7242857,103.308 C81.6917143,103.336 81.594,103.441 81.5532857,103.434 C81.423,103.42 81.1054286,103.084 81.024,102.993 C80.8774286,102.832 80.454,102.447 80.4132857,102.265 C80.4132857,101.642 79.8921429,100.991 79.6722857,100.382 L79.998,100.389 C80.3644286,100.158 80.2585714,99.591 80.9181429,99.815 C80.9995714,99.71 80.9914286,99.598 81.1461429,99.521 C81.2031429,99.493 81.309,99.465 81.3415714,99.416 C81.5614286,99.101 81.822,97.897 81.594,97.589 C81.3904286,97.309 81.1787143,97.323 81.0158571,96.861 C80.967,96.735 81.0565714,96.588 81.0158571,96.448 C80.9832857,96.336 80.7634286,95.671 80.7308571,95.622 C80.6901429,95.566 80.5517143,95.496 80.5435714,95.461 C80.5354286,95.405 80.4865714,94.684 80.511,94.628 C80.2911429,94.068 79.5501429,93.711 79.5094286,93.648 C79.4198571,93.515 79.3302857,93.34 79.2325714,93.193 C79.1185714,93.018 79.1185714,92.927 79.0534286,92.759 C79.029,92.682 78.9068571,92.619 78.8987143,92.535 C78.8824286,92.388 79.3302857,92.08 79.314,91.821 C79.3058571,91.737 79.029,91.485 79.086,91.345 C79.143,91.198 79.428,90.869 79.4198571,90.708 C79.4035714,90.491 78.972,90.022 78.915,89.791 C78.8905714,89.679 79.086,89.588 79.0371429,89.511 C78.9801429,89.413 78.5241429,89.028 78.4508571,88.916 C78.3938571,88.832 78.6218571,88.72 78.459,88.566 C78.3124286,88.426 78.4345714,88.475 78.3938571,88.356 C78.345,88.223 78.1821429,88.104 78.117,87.964 C78.06,87.845 77.6691429,86.529 77.6772857,86.452 C77.6121429,86.361 77.4981429,86.284 77.4411429,86.193 C77.3841429,86.102 77.3597143,85.927 77.3108571,85.857 C77.3027143,85.85 76.8711429,85.731 76.7897143,85.612 C76.7245714,85.514 76.7082857,85.192 76.5942857,85.031 C76.5372857,84.954 76.4477143,84.968 76.3825714,84.912 C76.3255714,84.87 76.3337143,84.793 76.293,84.744 C76.1627143,84.576 75.9021429,84.73 75.723,84.114 C75.4868571,83.96 75.267,83.827 75.0634286,83.638 C75.0227143,83.603 74.9982857,83.561 74.9494286,83.54 C74.7865714,83.477 74.5422857,83.456 74.4038571,83.344 C74.3224286,83.344 73.8908571,83.33 73.842,83.302 C73.7931429,83.274 73.7442857,83.099 73.7117143,83.092 C73.4837143,83.05 73.1091429,83.071 72.9137143,82.917 C72.759,82.791 72.7264286,82.182 72.4495714,82.266 C72.417,82.252 72.3762857,82.238 72.3355714,82.245 C72.1564286,82.028 71.5375714,82 71.2851429,81.86 C71.2118571,81.818 70.9757143,81.853 70.9757143,81.79 C71.0327143,81.671 71.0164286,81.573 71.0245714,81.454 C70.8861429,81.328 70.7965714,81.181 70.6988571,81.09 C70.4627143,81.041 70.5522857,81.02 70.4057143,80.936 C69.9985714,80.908 69.9578571,80.971 69.6972857,81.195 C69.6321429,81.251 69.5018571,81.265 69.4204286,81.307 C69.282,81.377 69.2412857,81.608 69.0458571,81.503 C68.9807143,81.468 68.94,81.412 68.8911429,81.37 C68.7771429,81.279 68.712,81.328 68.655,81.16 C68.3211429,80.992 67.401,81.573 67.1811429,81.167 C67.0264286,81.09 66.9124286,81.188 66.7821429,81.062 C66.717,80.999 66.9612857,80.299 66.2935714,80.012 C66.4482857,79.9 66.6111429,79.823 66.7577143,79.718 C66.7984286,79.641 66.7495714,79.522 66.7495714,79.445 C66.7495714,79.326 66.831,79.095 66.8065714,79.011 C66.7821429,78.927 66.6844286,78.857 66.6518571,78.759 C66.6111429,78.661 66.66,78.535 66.603,78.43 C66.5622857,78.402 66.4401429,78.332 66.3912857,78.332 C66.2202857,78.199 66.033,78.115 65.8945714,77.954 C65.862,77.919 65.8375714,77.856 65.7968571,77.828 C65.6747143,77.744 65.2757143,77.632 65.292,77.457 C65.3001429,77.401 65.3815714,77.394 65.406,77.338 C65.4304286,77.268 65.4141429,77.177 65.4711429,77.114 C65.6584286,76.876 66.0737143,76.981 66.0085714,76.54 C65.976,76.344 65.8294286,76.176 65.7887143,75.966 C65.7154286,75.917 65.7072857,75.833 65.6421429,75.784 C65.235,75.749 65.292,75.357 65.1454286,75.266 C64.7138571,74.993 64.38,75.161 64.8604286,74.622 C64.9255714,74.447 64.4451429,74.167 64.3474286,74.069 C64.1764286,73.915 64.2578571,73.593 64.1927143,73.425 C64.1601429,73.341 63.8751429,73.194 63.7855714,73.075 C63.7611429,73.04 63.6878571,72.858 63.6471429,72.837 L63.6552857,72.781 C63.7448571,72.718 63.696,72.592 63.6715714,72.508 C63.6145714,72.459 63.4924286,72.473 63.4517143,72.438 C63.0608571,72.109 62.5885714,71.962 62.0755714,71.773 C61.9371429,71.724 61.9778571,71.619 61.8638571,71.57 C61.7661429,71.528 61.074,71.241 61.0251429,71.255 C60.9437143,71.234 60.8867143,70.947 60.8297143,70.856 C60.7808571,70.772 60.5854286,70.618 60.5854286,70.611 C60.6017143,70.345 60.4225714,70.31 60.2027143,70.17 C60.219,70.135 60.1782857,70.051 60.1782857,70.009 C60.1782857,69.974 60.3248571,69.512 60.3492857,69.449 C60.39,69.351 60.5284286,69.26 60.504,69.148 C60.4714286,68.973 60.447,68.7 60.3818571,68.546 C60.162,68 59.9014286,68.07 60.0398571,67.356 C60.0724286,67.209 60.0154286,67.125 60.1375714,66.992 C60.1212857,66.985 60.1945714,66.915 60.2027143,66.901 C60.276,66.838 60.4795714,66.733 60.5202857,66.684 C60.6424286,66.53 60.7157143,66.18 60.8704286,66.068 C60.9844286,65.984 61.3101429,65.823 61.3671429,65.753 C61.416,65.697 61.4892857,65.522 61.4485714,65.452 C61.3345714,65.389 61.2205714,65.417 61.1065714,65.403 C61.0658571,65.396 60.9192857,65.298 60.8052857,65.277 C60.7727143,65.242 60.7157143,65.2 60.7157143,65.151 L60.6668571,65.109 C60.5365714,65.095 60.39,65.018 60.276,64.983 C60.1294286,64.927 59.9258571,64.92 59.7874286,64.843 C59.5268571,64.703 59.2337143,64.318 58.9812857,64.262 C58.6392857,64.192 58.4194286,64.29 58.0937143,64.304 C57.882,64.318 57.882,64.199 57.711,64.15 C57.483,64.087 57.654,64.262 57.1328571,64.108 C57.0677143,64.059 57.1654286,63.891 57.1735714,63.828 C57.0921429,63.807 56.9944286,63.849 56.8967143,63.828 C56.4651429,63.73 56.628,63.366 56.514,63.128 C56.4651429,63.072 56.286,63.086 56.2045714,63.079 C56.1801429,63.072 56.172,63.037 56.1801429,63.023 L56.2208571,62.995 C56.2941429,62.89 56.0335714,62.624 56.0417143,62.589 C56.058,62.505 56.5872857,62.428 56.6605714,62.421 C56.685,62.358 56.6117143,62.302 56.6035714,62.239 C56.5872857,62.099 56.685,61.917 56.7338571,61.791 L56.7175714,61.749 C56.571,61.672 56.5221429,61.56 56.3918571,61.469 C56.4,61.406 56.4895714,61.364 56.5058571,61.301 C56.7582857,60.65 57.1491429,61.168 57.4911429,60.566 C57.5237143,60.51 57.6214286,60.363 57.654,60.265 L57.7191429,60.251 C57.7842857,60.265 57.8738571,60.314 57.939,60.293 C57.9878571,60.23 58.0937143,60.209 58.1751429,60.188 L58.2972857,60.216 C58.9324286,60.09 58.7858571,59.873 59.1522857,59.628 C59.25,59.565 59.535,59.537 59.6652857,59.495 C59.8037143,59.551 59.9991429,59.754 60.2597143,59.845 C60.447,59.915 61.0902857,60.041 61.1961429,60.097 C61.3345714,60.167 61.359,60.335 61.4811429,60.398 C61.8475714,60.58 61.6358571,60.272 61.986,60.335 C62.3442857,60.405 62.6374286,60.678 62.9712857,60.811 C63.0282857,60.832 63.1667143,60.804 63.2318571,60.79 C63.3377143,60.769 63.9077143,60.671 63.9647143,60.692 C64.0298571,60.713 64.1275714,60.769 64.1927143,60.783 C64.2741429,60.797 64.3392857,60.636 64.3962857,60.643 C64.6405714,60.678 64.6487143,60.769 64.9744286,60.741 C64.9907143,60.741 65.1454286,59.887 65.3001429,59.845 C65.3897143,59.824 65.634,60.048 65.7072857,60.062 C65.8294286,60.09 65.6991429,59.887 65.691,59.873 C65.6584286,59.803 65.4874286,59.278 65.4955714,59.229 C65.5037143,59.201 65.6584286,59.271 65.7317143,59.25 C65.9108571,59.194 66.1551429,59.152 66.2854286,59.019 C66.3017143,59.005 66.5785714,58.634 66.5867143,58.62 C66.603,58.557 66.5134286,58.41 66.5541429,58.361 C66.5948571,58.319 66.7495714,58.263 66.8228571,58.193 C66.9287143,58.095 66.945,57.927 67.0915714,57.857 C67.6697143,57.808 67.8732857,57.388 68.3944286,57.332 C68.427,57.332 68.541,57.311 68.5654286,57.318 L68.6712857,57.479 C68.7038571,57.521 69.054,57.717 69.111,57.703 C69.1598571,57.696 69.1842857,57.619 69.2331429,57.605 C69.339,57.619 69.6321429,57.451 69.6647143,57.367 C69.6728571,57.353 69.5995714,57.269 69.6321429,57.213 C69.6565714,57.171 70.023,56.919 70.08,56.891 C70.2102857,56.891 70.3487143,56.863 70.4708571,56.905 C70.5441429,56.933 70.5522857,57.038 70.6337143,57.052 C70.7232857,57.059 70.8861429,57.024 70.9512857,57.038 C71.0245714,57.052 71.0571429,56.912 71.1467143,56.905 L71.163,56.919 Z" id="Shape" fill="#D0A650"></path>
        <polygon id="Path-2" fill="#FFFFFF" points="39.1460401 30.9508464 44.7339899 30.9508464 46.5112745 26 48.2537875 30.8704427 53.8673644 30.8704427 49.2560661 34.0345052 50.9595166 39.2539062 46.5727979 35.9394531 41.9132927 38.9944661 43.5561963 34.2838542"></polygon>
        <polygon id="Path-2-Copy" fill="#FFFFFF" points="56.0415271 24.9508464 61.6294769 24.9508464 63.4067614 20 65.1492745 24.8704427 70.7628514 24.8704427 66.1515531 28.0345052 67.8550036 33.2539062 63.4682849 29.9394531 58.8087797 32.9944661 60.4516833 28.2838542"></polygon>
        <polygon id="Path-2-Copy-2" fill="#FFFFFF" points="72.9370141 20.9508464 78.5249639 20.9508464 80.3022484 16 82.0447614 20.8704427 87.6583384 20.8704427 83.0470401 24.0345052 84.7504906 29.2539062 80.3637719 25.9394531 75.7042667 28.9944661 77.3471703 24.2838542"></polygon>
        <polygon id="Path-2-Copy-3" fill="#FFFFFF" points="91.791958 20.9508464 97.3799078 20.9508464 99.1571924 16 100.899705 20.8704427 106.513282 20.8704427 101.901984 24.0345052 103.605435 29.2539062 99.2187158 25.9394531 94.5592106 28.9944661 96.2021143 24.2838542"></polygon>
        <polygon id="Path-2-Copy-4" fill="#FFFFFF" points="111.411311 24.9508464 116.999261 24.9508464 118.776546 20 120.519059 24.8704427 126.132636 24.8704427 121.521337 28.0345052 123.224788 33.2539062 118.838069 29.9394531 114.178564 32.9944661 115.821467 28.2838542"></polygon>
        <polygon id="Path-2-Copy-5" fill="#FFFFFF" points="126 30.9508464 131.58795 30.9508464 133.365234 26 135.107747 30.8704427 140.721324 30.8704427 136.110026 34.0345052 137.813477 39.2539062 133.426758 35.9394531 128.767253 38.9944661 130.410156 34.2838542"></polygon>
    </g>
</svg>