<?xml version="1.0" ?><svg height="120px" version="1.1" viewBox="0 0 180 120" width="180px" xmlns="http://www.w3.org/2000/svg" xmlns:sketch="http://www.bohemiancoding.com/sketch/ns" xmlns:xlink="http://www.w3.org/1999/xlink"><title/><defs/><g fill="none" fill-rule="evenodd" id="Africa,-Middle-East-and-India" stroke="none" stroke-width="1"><g id="Africa,-Middle-Eest-and-India" transform="translate(-800.000000, -801.000000)"><g id="UAE" transform="translate(800.000000, 801.000000)"><rect d="M0.00276191524,0 L0.00276191524,120 L180.002762,120 L180.002762,0 L0.00276191524,0 Z M0.00276191524,0" fill="#CA4638" height="120" id="Rectangle-3" width="180" x="0.00276191524" y="0"/><rect d="M60,0 L60,120 L180,120 L180,0 L60,0 Z M60,0" fill="#FFFFFF" height="120" id="Rectangle-3-copy-2" width="120" x="60" y="0"/><rect d="M60,80 L60,120 L180,120 L180,80 L60,80 Z M60,80" fill="#262626" height="40" id="Rectangle-3-copy-3" width="120" x="60" y="80"/><rect d="M60,0 L60,40 L180,40 L180,0 L60,0 Z M60,0" fill="#479951" height="40" id="Rectangle-3-copy-3" width="120" x="60" y="0"/></g></g></g></svg>