<?xml version="1.0" ?><svg height="120px" version="1.1" viewBox="0 0 180 120" width="180px" xmlns="http://www.w3.org/2000/svg" xmlns:sketch="http://www.bohemiancoding.com/sketch/ns" xmlns:xlink="http://www.w3.org/1999/xlink"><title/><defs/><g fill="none" fill-rule="evenodd" id="Ameria" stroke="none" stroke-width="1"><g id="Group" transform="translate(0.000000, -400.000000)"><g id="Chile" transform="translate(0.000000, 400.000000)"><rect d="M-1.42108547e-14,0 L-1.42108547e-14,120 L180,120 L180,0 L-1.42108547e-14,0 Z M-1.42108547e-14,0" fill="#CA4638" height="120" id="Oval-15-copy" width="180" x="-1.59877022e-14" y="0"/><rect d="M-1.42108547e-14,0 L-1.42108547e-14,60 L180,60 L180,0 L-1.42108547e-14,0 Z M-1.42108547e-14,0" fill="#FFFFFF" height="60" id="Oval-15-copy" width="180" x="-1.59877022e-14" y="0"/><rect d="M-7.10542736e-15,0 L-7.10542736e-15,60 L60,60 L60,0 L-7.10542736e-15,0 Z M-7.10542736e-15,0" fill="#4086CD" height="60" id="Oval-15-copy" width="60" x="-5.32923406e-15" y="0"/><polygon d="M29.999998,42.254009 L18.0996565,48.6129538 L20.3724189,35.1444938 L10.744839,25.6060776 L24.0498289,23.641054 L29.9999987,11.3870459 L35.9501721,23.641057 L49.255161,25.6060874 L39.6275771,35.1444963 L41.90034,48.6129541 L29.999998,42.254009 Z M29.999998,42.254009" fill="#FFFFFF" id="Star-1" points="29.999998 42.254009 18.0996565 48.6129538 20.3724189 35.1444938 10.744839 25.6060776 24.0498289 23.641054 29.9999987 11.3870459 35.9501721 23.641057 49.255161 25.6060874 39.6275771 35.1444963 41.90034 48.6129541 "/></g></g></g></svg>