<?xml version="1.0" ?><svg height="120px" version="1.1" viewBox="0 0 180 120" width="180px" xmlns="http://www.w3.org/2000/svg" xmlns:sketch="http://www.bohemiancoding.com/sketch/ns" xmlns:xlink="http://www.w3.org/1999/xlink"><title/><defs/><g fill="none" fill-rule="evenodd" id="Asia-Pacific" stroke="none" stroke-width="1"><g id="Kazakhstan" transform="translate(-200.000000, -1.000000)"><g transform="translate(200.000000, 1.000000)"><rect d="M0,0 L0,120 L180,120 L180,0 L0,0 Z M0,0" fill="#4086CD" height="120" id="Rectangle-121" width="180" x="0" y="0"/><g id="birth" transform="translate(52.000000, 27.000000)"><circle cx="49" cy="21" d="M49,42 C60.5979803,42 70,32.5979803 70,21 C70,9.40201968 60.5979803,0 49,0 C37.4020197,0 28,9.40201968 28,21 C28,32.5979803 37.4020197,42 49,42 Z M49,42" fill="#E5B731" id="Oval" r="21"/><path d="M47.9998657,57.7867779 L47.6374524,58.5177358 L47.2347639,59.451741 L46.9931602,59.8984357 L46.791816,60.3045304 L46.6307468,60.6294093 L46.4294026,60.8324567 L45.9461795,60.426362 L45.4226814,60.060883 L44.8589238,59.7766199 L44.2549067,59.5329568 L43.6105989,59.3705252 L42.9663068,59.2080936 L42.3220146,59.0862668 L41.6374473,59.0050478 L40.2280533,58.883221 L38.8186593,58.8426115 L37.4495247,58.7613926 L36.1609247,58.598961 L35.436098,58.4771342 L34.7515307,58.3147026 L34.3891173,58.1928742 L34.026704,58.0710474 L33.7045501,57.9086158 L33.4226713,57.7461842 L32.9797233,57.4619211 L32.5367754,57.1370422 L32.0535523,56.7715632 L31.6106044,56.3654685 L30.6844334,55.4720634 L29.7582624,54.5786582 L28.8320914,53.7258688 L27.986455,52.9542951 L27.5837666,52.670032 L27.1810781,52.3857689 L26.8186647,52.2233373 L26.4562513,52.1015104 L25.7716841,51.9390789 L25.1676514,51.7360315 L24.5636187,51.5329842 L23.959586,51.248721 L23.4360878,51.0050737 L22.9126053,50.6801948 L22.4293823,50.3553159 L21.9864343,50.030437 L21.5032113,49.664958 L21.1005228,49.2994791 L20.6978344,48.8933844 L20.2951459,48.4872897 L19.5300441,47.6345003 L18.8052173,46.7410951 L17.3555482,44.8324689 L15.8253445,42.883227 L14.939433,41.9492218 L14.013262,41.0152166 L13.4897795,40.5279061 L12.966297,40.0812114 L12.4025394,39.6751167 L11.7985067,39.228422 L11.6777017,39.2690299 L11.5568952,39.3908583 L11.4360902,39.5532899 L11.3555525,39.7563372 L11.2347475,40.1218161 L11.1944787,40.2842477 L10.9125999,40.1624209 L10.6709805,40.0405925 L10.3891017,39.9187656 L10.1474824,39.8375467 L9.6239999,39.8375467 L9.34212109,39.9187656 L9.06024229,40.0405925 L9.34212109,40.4060714 L9.70453447,40.8933819 L10.0669478,41.4619082 L10.3891017,42.0710502 L10.7112556,42.7207923 L10.952875,43.3299343 L11.0334111,43.6548132 L11.1139488,43.8984763 L11.1542176,44.1827395 L11.1542176,44.4264026 L10.7112697,44.4264026 L8.97975299,44.4264026 L9.30190688,44.9137131 L9.66432026,45.4010235 L10.0670087,45.888334 L10.5099567,46.3350288 L10.9529046,46.7817235 L11.3958526,47.2284182 L11.8388005,47.5938971 L12.241489,47.8781603 L11.798541,47.9187697 L11.1945083,47.9593792 L10.5904756,48.0405981 L10.1475277,48.081206 L10.5099411,48.4060849 L10.952889,48.7309638 L11.436112,49.0964428 L11.9595946,49.4619217 L12.4830771,49.7868006 L13.0065752,50.0710637 L13.4897982,50.2334953 L13.9327462,50.3553222 L14.1340904,50.3959316 L14.2951596,50.4365411 L14.4159645,50.4771506 L14.4965022,50.5583679 L14.5367695,50.5989774 L14.5367695,50.761409 L14.4965022,50.8426279 L14.4159645,51.0862753 L14.3756957,51.3299384 L14.3354269,51.49237 L14.3354269,51.6141984 L14.3756957,51.8172457 L14.4159645,51.9796773 L14.4965022,52.0608947 L14.6173072,52.1421136 L14.7783764,52.223331 L14.9797206,52.2639405 L15.1810648,52.3451594 L15.3824091,52.4263768 L15.5837533,52.5075957 L15.7448224,52.6294225 L15.7850913,52.670032 L15.7850913,52.7512494 L15.7448224,52.7918588 L15.5837533,52.9136872 L15.4226842,53.0355141 L15.261615,53.1979457 L15.1005459,53.400993 L15.1005459,53.5634246 L15.0602786,53.7258562 L15.1005459,53.9289035 L15.1408147,54.1725666 L15.825382,54.4162297 L16.5502087,54.6598771 L16.8723626,54.7410961 L17.1945165,54.8629229 L17.4361358,54.9847513 L17.6374801,55.1065781 L16.3086206,56.1624149 L16.671034,56.4872938 L17.113982,56.7309569 L17.6777396,57.0152201 L18.2414972,57.2182674 L18.8857894,57.4213147 L19.4898221,57.5431416 L20.0133046,57.6649684 L20.4965276,57.6649684 L20.0535797,57.9898473 L19.4898221,58.3553262 L18.8857894,58.6802052 L18.4428414,59.0050841 L18.8455299,59.2893472 L19.4092875,59.5736103 L20.0535797,59.8984892 L20.8186815,60.2639682 L22.5904733,61.0355418 L24.5233654,61.8071154 L26.5368078,62.5380733 L28.509975,63.1878153 L29.3958865,63.4720785 L30.2012634,63.6751258 L30.9260902,63.8781732 L31.5703824,64 L30.281798,63.8781732 L29.0737482,63.7157416 L27.8656984,63.5126942 L26.7381832,63.2690311 L25.610668,62.9441522 L24.5234123,62.6192733 L23.4764316,62.2537944 L22.4697261,61.8476997 L20.4965588,61.0355103 L18.6442169,60.2233209 L17.7583054,59.857842 L16.8723939,59.4923631 L16.0267574,59.1674842 L15.181121,58.8426052 L15.3824653,58.7207784 L15.6240846,58.6395595 L15.9462385,58.5177326 L16.3086519,58.4365137 L17.0737537,58.1928506 L17.758321,57.9492032 L16.5502712,57.7461559 L14.8993047,57.421277 L14.0939277,57.1776138 L13.4093605,56.9745665 L13.1274817,56.8527397 L12.8858623,56.7309113 L12.6845181,56.6090844 L12.5637131,56.487256 L12.5637131,56.4466481 L12.603982,56.4060387 L12.7247869,56.3654292 L12.8455919,56.2842118 L13.1677458,56.1623834 L13.6106938,56.0405566 L14.5771398,55.7562934 L15.3825168,55.4720303 L13.4093495,55.1065514 L11.8791458,54.8628883 L11.3153882,54.7410614 L10.8724403,54.5786298 L10.7113712,54.4974109 L10.550302,54.3755841 L10.4294955,54.2943651 L10.3489593,54.1725383 L10.4697643,54.0913194 L10.8321777,54.010102 L11.3556602,53.9288831 L11.9596929,53.8070562 L12.6039851,53.7258373 L13.1677427,53.5634057 L13.4496215,53.4821883 L13.6912408,53.4009694 L13.85231,53.2791426 L14.0133791,53.1573142 L13.6912252,53.0354873 L13.3690713,52.9136605 L12.9663829,52.8324415 L12.5636944,52.7512226 L11.6375234,52.6293958 L10.7113524,52.5075689 L10.2281294,52.3857405 L9.78518143,52.3045232 L9.34223349,52.1420916 L8.89928554,51.97966 L8.49659707,51.7766127 L8.1341837,51.4923495 L7.8120298,51.2080864 L7.57041048,50.8426075 L7.65094661,50.801998 L7.81201575,50.7613885 L8.01335999,50.7613885 L8.33551388,50.801998 L9.06034063,50.8426075 L9.86571757,50.8832153 L10.7516291,50.9644343 L11.8791443,50.9644343 L12.2012982,50.9238248 L12.4429175,50.8426075 L12.6039866,50.7613885 L11.6375406,50.3552938 L10.3489562,49.7867675 L9.62412946,49.4212886 L8.85902762,49.0558097 L8.09392578,48.649715 L7.32882394,48.2436203 L6.60399719,47.7969256 L5.91942991,47.3096151 L5.27513774,46.8223046 L4.71138013,46.3349941 L4.46977641,46.050731 L4.22815709,45.8070836 L4.06708795,45.5634205 L3.9060188,45.2791574 L3.74494966,45.03551 L3.66441353,44.7512468 L3.62414468,44.5075837 L3.58387584,44.2233206 L3.86575464,44.2233206 L4.18790854,44.2639301 L4.51006243,44.3857569 L4.83221633,44.5075837 L5.47650851,44.9136784 L6.20133526,45.3197731 L6.52348915,45.5228205 L6.88590253,45.7258678 L7.2483159,45.8882994 L7.5704698,46.0101262 L7.93288317,46.0913452 L8.25503707,46.1319546 L8.61745044,46.1319546 L8.93960434,46.0101262 L7.97315827,45.2791684 L6.88590253,44.3451632 L5.63757765,43.2487106 L4.38925277,42.0304423 L3.14092789,40.7309582 L1.97313758,39.431474 L1.44965506,38.7411162 L0.926172545,38.0913741 L0.483224599,37.4416321 L0.0805361322,36.83249 L0,36.6700585 L0,36.3857953 L0.0402672856,36.2639669 L0.0805361322,36.1421401 L0.201342672,36.0609227 L0.322147651,35.9390943 L0.44295263,35.8578769 L0.604021772,35.8172675 L0.765090915,35.776658 L1.08724481,35.776658 L1.28858904,35.8172675 L1.44965819,35.8578769 L1.61072733,35.9797038 L1.73153231,36.1015306 L2.45635906,36.8324885 L3.30199547,37.6852779 L4.18790697,38.6192831 L5.15435305,39.5532883 L6.12079912,40.4060777 L7.0872452,41.2182671 L7.57046824,41.543146 L8.01341618,41.8274091 L8.49663922,42.0710565 L8.93958717,42.2334881 L8.61743327,42.0304407 L8.2550199,41.6649618 L7.77179686,41.1776513 L7.24831434,40.5685093 L6.08052403,39.1471936 L4.79193967,37.482262 L4.14764749,36.5888568 L3.54361479,35.6954516 L2.97985719,34.8020465 L2.41609958,33.9492571 L1.93287654,33.1370677 L1.53018807,32.4061098 L1.24830927,31.715752 L1.00668994,31.1472257 L0.966421098,30.9441784 L0.966421098,30.6192994 L1.00668994,30.497471 L1.08722764,30.3756442 L1.16776377,30.2538174 L1.24830146,30.1725984 L1.36910644,30.0913795 L1.65098525,30.0101621 L1.89258896,29.9289432 L2.45634657,29.9289432 L2.61741571,29.9695527 L2.73822069,30.0101621 L2.89928983,30.0913795 L3.02009481,30.2132079 L3.34224871,30.497471 L3.6644026,30.9035657 L4.38922935,31.8375709 L5.1543312,33.0152393 L6.0402427,34.2741234 L6.96641368,35.5736075 L7.44963672,36.1827495 L7.93285976,36.7918916 L8.45634228,37.3198021 L9.02009989,37.8071126 L8.33553261,36.4670127 L7.57043077,34.9238654 L7.16774231,34.071076 L6.80532893,33.2182866 L6.44291555,32.3248814 L6.12076166,31.4314762 L5.83888286,30.497471 L5.55700405,29.6040659 L5.35565982,28.7106607 L5.19459068,27.8172555 L5.11405298,26.9644661 L5.07378414,26.1522767 L5.11405298,25.746182 L5.15432183,25.3807031 L5.19459068,25.0152241 L5.27512681,24.6497452 L5.3556645,24.5279184 L5.39593335,24.4060915 L5.51673833,24.2842631 L5.59727446,24.2030458 L5.87915326,24.0812174 L6.16103207,24 L6.44291087,24 L6.6845302,24.0406095 L6.80533517,24.0812174 L6.88587287,24.1218268 L6.92614015,24.2030458 L6.966409,24.3248726 L7.36909747,25.6243567 L7.73151084,27.0050724 L8.09392422,28.4263881 L8.45633759,29.8071038 L8.81875097,31.1878194 L9.30197401,32.4873036 L9.54357772,33.0964456 L9.82545652,33.7055876 L10.1476104,34.2741139 L10.5100238,34.8426402 L10.2684045,33.6649719 L10.1073353,32.6091351 L9.94626619,31.6345141 L9.86573005,30.741109 L9.78519236,29.9695353 L9.74492351,29.2791775 L9.78519236,28.7106512 L9.82546121,28.2233407 L9.90599734,27.8172461 L10.0268039,27.4923671 L10.10734,27.3705403 L10.1878777,27.2487135 L10.2684138,27.1674945 L10.3892204,27.0862756 L10.5100254,27.0456677 L10.8724387,27.0456677 L11.1945926,27.1674945 L11.5167465,27.3299261 L11.7986253,28.6294103 L12.0805041,29.8882944 L12.402658,31.0659627 L12.7650714,32.2030152 L13.1677599,33.3400678 L13.6107078,34.4771203 L14.0939309,35.6547887 L14.6576885,36.832457 L15.0603769,37.6040306 L15.4630654,38.3756042 L15.9060133,39.1471778 L16.3489613,39.9187515 L16.8321843,40.6497093 L17.3154074,41.3806672 L17.8389055,42.111625 L18.362388,42.8425829 L19.3288341,44.0608512 L20.3355396,45.1979038 L21.3825203,46.3349563 L22.469776,47.3907931 L23.5972912,48.4466299 L24.7650815,49.4212508 L25.9731313,50.355256 L27.2214562,51.2486612 L28.0670926,51.8171875 L28.9530041,52.3451137 L29.8791751,52.8730243 L30.7650866,53.3603347 L32.1744806,54.0506926 L33.5436152,54.7004346 L34.9932843,55.2689609 L36.4429378,55.7968714 L37.8120723,56.2435661 L39.2214664,56.6090451 L40.6711355,56.933924 L42.0805295,57.2181871 L43.5704737,57.4212345 L45.0201428,57.583666 L46.5100714,57.7054929 L48,57.7867118" fill="#E5B731" id="Shape"/><path d="M51.8853211,70.4836194 L52.5871548,70.5655858 L52.9174342,70.6885376 L53,70.7295199 L53,70.7705039 L52.9174342,70.7705039 L52.8348523,70.8114878 L52.1743096,70.9344381 L51.6376236,70.9344381 L49.9037249,70.8114878 L47.798208,70.7705039 L45.5275273,70.7295199 L43.1742648,70.7705039 L42.0595859,70.8114878 L40.944923,70.8934541 L39.9541009,70.975422 L39.0045697,71.0573899 L38.2201702,71.1803402 L37.5183366,71.3442696 L37.2706231,71.4262375 L37.0229255,71.5082038 L36.8165029,71.5901717 L36.6513712,71.7131219 L36.7339371,71.3032825 L36.8990688,70.893443 L36.6100803,70.9754109 L36.3210919,71.0573788 L36.0733943,71.180329 L35.8256808,71.3032793 L35.6192582,71.4262311 L35.4541265,71.5901605 L35.330273,71.7950803 L35.28899,72 L35.1651365,71.7131156 L35.082569,71.4672055 L35.0412845,71.1803211 L35,70.9344111 L35.0412845,70.7294913 L35.082569,70.4835972 L35.123852,70.2786775 L35.2477055,70.0737578 L35.330273,69.9098283 L35.4954047,69.7049086 L35.6605363,69.5409792 L35.825668,69.3770498 L36.2797881,69.0901653 L36.7751992,68.8032809 C37.04271,68.9643505 37.3434775,69.0810934 37.6421805,69.17213 C37.9011771,69.2062425 38.2093386,69.1645675 38.5091459,69.0901621 C39.0129592,69.5306013 39.6867374,69.4763924 40.1191718,69.0081942 C40.1981047,68.9227422 40.2933779,68.7918195 40.3255944,68.6803195 C40.3938845,68.4439421 40.380729,68.1343065 40.3255944,67.8606406 L40.8210054,67.8196567 L41.3989823,67.7376888 L42.0182502,67.5737593 L42.6787929,67.4098299 L43.3393356,67.2868797 L43.9586034,67.1229502 L44.5365803,67.0409839 L45.0319914,67 L44.8255688,67.1639294 L44.3301577,67.5327786 L43.7521808,67.9835924 L43.3393356,68.2704769 L43.8760376,68.3934287 L44.3301577,68.475395 L43.9998944,68.8442442 L43.669615,69.2130933 L43.3393356,69.5819425 L43.0916381,69.9098172 L43.4219015,70.0327675 L43.7521808,70.1147353 L44.1237351,70.1967016 L44.8668597,70.1967016 L45.238414,70.1147353 L45.6099683,70.0327675 L45.8989567,69.868838 L46.2292361,70.0327675 L46.5594995,70.1557177 L46.8897788,70.2376856 L47.2200582,70.3196535 L47.9631668,70.4016198 L48.7475663,70.4835877 L51.8851963,70.4835877" fill="#E5B731" id="Shape"/><path d="M39.5294279,68 L39.705881,68.0625005 L39.882357,68.1250009 L39.9411899,68.3124998 L40,68.4999988 L39.9411899,68.6875002 L39.882357,68.8749991 L39.705881,69 L39.294119,69 L39.176476,68.8749991 L39.0588329,68.6875002 L39,68.4999988 L39.0588329,68.3124998 L39.176476,68.1250009 L39.294119,68.0625005 L39.5294279,68" fill="#E5B731" id="Shape"/><path d="M39.1213475,68 L39.2022406,68.0405061 L39.242695,68.1215168 L39.2022406,68.202529 L39.1213475,68.2430351 L39.0404544,68.202529 L39,68.1215168 L39.0404544,68.0405061 L39.1213475,68" fill="#E5B731" id="Shape"/><path d="M70.0049535,72.2297803 L69.7175133,72.351401 L69.4300731,72.3919418 L69.1837027,72.4324826 L68.978386,72.3919418 L68.7730693,72.351401 L68.5677526,72.2703211 L68.4035056,72.1892395 L68.1981889,72.0676188 L67.8696791,71.8243678 L67.5411851,71.5811169 L67.3769222,71.4594962 L67.1716055,71.3784162 L67.0073586,71.3378754 L66.8020419,71.3378754 L66.4324782,72.1081438 L65.9397214,73.0811161 L65.7754744,73.3243671 L65.6112115,73.5270709 L65.4469645,73.6486917 L65.2827175,73.770314 L65.0774008,73.851394 L64.8720842,73.851394 L64.6667675,73.770314 L64.420397,73.6486917 L64.3382735,73.5270709 L64.2561341,73.4054502 L64.1740106,73.2432934 L64.0918871,73.0405895 L64.0097637,72.6757288 L63.9686939,72.4324779 L63.7223235,72.6351818 L63.4759371,72.918964 L63.2706363,73.2432934 L63.0242499,73.608154 L62.7368098,73.9730147 L62.4493696,74.256797 L62.2851226,74.4189538 L62.0798059,74.5405761 L61.8744893,74.6216561 L61.6281029,74.7027377 L61.5049256,74.7027377 L61.2996089,74.7432784 L61.0942922,74.7027377 L60.9300453,74.6216561 L60.4372884,74.0540916 L59.9034619,73.486527 L59.5338982,74.0540916 L59.1232648,74.5405777 L58.9179481,74.7432816 L58.7126315,74.9459854 L58.5073148,75.1081423 L58.302014,75.229763 L58.1377511,75.3108446 L57.9324344,75.3513838 L57.7271178,75.3513838 L57.5628708,75.3108446 L57.3986238,75.229763 L57.2754306,75.1081423 L57.1111836,74.9054384 L57.0290601,74.6621875 L56.9469207,74.4189365 L56.7826738,74.0135288 L56.74162,73.8108249 L56.6594806,73.6486681 L56.5773571,73.5675881 L56.4952336,73.5675881 L55.3865267,75.3513445 L55.2222797,75.5135013 L54.9348395,75.6351236 L54.6063297,75.7162036 L54.2778357,75.7972851 L53.908272,75.7972851 L53.6208319,75.7162036 L53.5386925,75.6756644 L53.4155152,75.5540421 L53.3744455,75.4729621 L53.3744455,75.3108053 L53.5386925,73.5270489 L53.4155152,73.5675897 L53.2512523,73.6486697 L53.0870053,73.7297512 L52.9227583,73.891908 L52.5942485,74.2567687 L52.2246848,74.6621765 L51.8551211,75.1081155 L51.4034181,75.4729762 L51.1981014,75.635133 L50.9928006,75.7972898 L50.7464142,75.9189106 L50.5410976,75.9594514 L50.2536574,75.9999921 L50.0483407,75.9594514 L49.9662172,75.9189106 L49.8840937,75.8378306 L49.843024,75.7162083 L49.843024,75.5945875 L49.8840937,75.0675701 L49.9662172,74.5405526 L50.0072869,74.2567703 L49.9662172,74.0135194 L49.9251634,73.7702841 L49.7609005,73.4865019 L49.5145301,73.8513625 L49.1038967,74.3783958 L48.6111399,74.9054132 L48.0773292,75.4324307 L47.7898731,75.6351346 L47.502433,75.8378385 L47.2560625,75.9189185 L47.0507458,76 L46.9686223,75.9594592 L46.8454291,75.9594592 L46.7633056,75.8783792 L46.7222359,75.8378385 L46.6401124,75.7162162 L46.5990587,75.5945954 L46.5990587,75.4324386 L46.557989,75.2297347 L46.5990587,73.6891979 L45.5724752,74.3783879 L44.3405911,75.1486563 L44.0531509,75.2702786 L43.724641,75.4324354 L43.4372009,75.5135154 L43.1087069,75.594597 L42.8212667,75.6756785 L42.5338106,75.6756785 L42.2463705,75.6351377 L42,75.5540562 L42.1231932,75.2297269 L42.2463705,74.9459446 L42.3695637,74.6621623 L42.5338106,74.4189114 L42.6980735,74.1756762 L42.8623205,73.9324252 L43.0676372,73.7297214 L43.2729539,73.5270175 L43.724641,73.2026882 L44.2584676,72.8783588 L44.7922782,72.6351079 L45.4082283,72.432404 L46.0241783,72.2702472 L46.7222359,72.1486249 L47.4203095,72.0270041 L48.118383,71.9459242 L49.6377233,71.8648426 L51.1981014,71.8243018 L54.3189213,71.8243018 L55.0991183,71.7837611 L55.8382616,71.7432219 L56.5773889,71.7026811 L57.2754624,71.6215995 L57.973536,71.4999788 L58.589486,71.378358 L59.2054202,71.2162012 L59.7803005,70.972966 L60.3141271,70.7297151 L60.7658142,70.4053857 L61.2175173,70.0810564 L61.5870809,69.6351173 L61.1764476,68.8243018 L61.5049574,68.7837611 L61.8334514,68.7026811 L62.1619613,68.5405243 L62.4494014,68.3378204 L62.5725946,68.2567389 L62.6957719,68.1351181 L62.7779113,67.9729613 L62.8600348,67.851339 L62.9010886,67.6891822 L62.9010886,67.4053999 L62.8189651,67.2432431 L63.5170386,67.1216208 L64.256166,67.0405408 L65.036363,67 L65.8576297,67 L67.5411692,67.0810815 L69.2657784,67.2027023 L71.0314573,67.4054062 L72.7560665,67.567563 L74.439606,67.7297198 L76,67.8108013 L76,68.3783659 L75.9589303,68.6216011 L75.8768068,68.864852 L75.7946833,69.108103 L75.7125598,69.3108068 L75.5893666,69.4729636 L75.4251197,69.6756675 L75.1376795,69.9594498 L74.7680999,70.2027007 L74.3985362,70.3648575 L73.9879029,70.4459391 L73.5362157,70.5270191 L73.0845286,70.4864783 L72.6738952,70.4459391 L72.2222081,70.3243168 L71.8115747,70.1216129 L71.4009413,69.918909 L71.0724315,69.6351267 L70.7439375,69.3107974 L70.7439375,69.9999874 L70.6207443,70.8918813 L70.5386208,71.3378204 L70.4154276,71.7432281 L70.3333041,71.905385 L70.210111,72.0270057 L70.1279875,72.1486265 L70.0047943,72.229708 M37.0000472,68.5916482 L37.934146,69 L38.1778137,68.7958241 L38.5027197,68.5508225 L38.8682291,68.3466466 L39.1931351,68.1424706 L40.4115049,67.6524516 L41.4674297,67.1624326 L41.9954,66.9582567 L42.4421319,66.7132392 L42.8888639,66.4682376 L43.2543732,66.2232202 L44.188472,65.6106924 L45.1225551,64.9981647 L46.0160347,64.4264785 L46.8282761,63.8547922 L47.4374689,63.3647732 L47.92482,62.9155957 L48.4527745,62.4255766 L49.0213639,61.8947319 L49.2244124,61.690556 L49.4680958,61.5272216 L49.7523827,61.3638872 L50.0772887,61.2005528 L50.7676883,60.8738682 L51.4581037,60.6288666 L52.3922025,60.3838491 L53.4075081,60.1388317 L54.4634328,59.9346558 L55.6411993,59.7304799 L57.0626335,59.5671455 L58.4840676,59.3629696 L59.9461209,59.1996352 L61.3675551,58.9546336 L61.8549062,58.8729632 L62.3016539,58.7504592 L62.789005,58.6279537 L63.2763561,58.5054497 L63.7636914,57.892922 L64.5353293,57.0353926 L65.0632996,56.5045479 L65.6724924,56.0145289 L66.3629078,55.4836841 L67.1751491,54.9528394 L68.393519,54.2178188 L69.6931272,53.5644653 L71.0333388,52.8702704 L72.332947,52.2577426 L73.5513168,51.6452149 L74.6884642,51.0735287 L75.6225472,50.5835096 L76.3535817,50.0934906 L76.556646,49.4809628 L76.8409328,48.8684351 L77.2064422,48.2559073 L77.6531742,47.6433796 L78.1405253,46.9900262 L78.7497181,46.3366727 L79.3995143,45.6016521 L80.2117714,44.8257899 L80.9427902,44.1724365 L81.7144281,43.5190831 L82.1205567,43.2332399 L82.5266852,42.9473968 L82.9734171,42.7023794 L83.4201491,42.457362 L83.8668968,42.2531861 L84.3136287,42.0898517 L84.8009798,41.9673477 L85.2477118,41.8448421 L85.7350629,41.8040085 L86.1818106,41.7631733 L86.6691617,41.8040085 L87.1158936,41.8856773 L87.0752745,42.3756964 L86.9534485,42.8657154 L86.7909876,43.3557344 L86.5879391,43.886595 L86.3036365,44.4174397 L85.9381272,44.9482844 L85.4913952,45.5199706 L84.963425,46.0916569 L85.3695535,46.0508217 L85.7350629,45.9691529 L86.0193497,45.8874825 L86.3036365,45.7649786 L86.54732,45.6833082 L86.8316068,45.6016378 L87.1971162,45.5608042 L87.6032447,45.5199691 L87.6438639,45.8058122 L87.6438639,46.0916553 L87.6032447,46.3774984 L87.5220222,46.6225158 L87.4001805,46.8675333 L87.2377353,47.1125349 L87.0752745,47.3167108 L86.872226,47.5208867 L86.0193497,48.3375904 L85.1664892,49.1134525 L85.6538403,49.1542877 L86.1818106,49.3176221 L86.7097651,49.4809565 L87.1158936,49.5626253 L86.6285425,49.9301356 L86.0599689,50.2976459 L85.4913952,50.6651562 L84.841599,51.0326666 L84.191787,51.4001769 L83.5419908,51.8085287 L82.8921946,52.2577062 L82.2830018,52.7477253 L82.5672886,52.7885589 L82.932798,52.9518933 L83.0952589,52.9927285 L83.257704,53.0743988 L83.3795457,53.115234 L83.5013874,53.0743988 L82.6891303,53.5235763 L81.6738247,54.0135954 L81.1864736,54.258597 L80.7803451,54.5036144 L80.5772808,54.62612 L80.4554391,54.7486239 L80.3742165,54.8711279 L80.292994,54.9936334 L80.3335974,55.1569678 L80.4148357,55.2794718 L80.5772808,55.4019758 L80.6991225,55.5244813 L80.6585033,55.6878157 L80.5772808,55.8103197 L80.4148357,55.9328252 L80.2523748,56.0553292 L79.8868654,56.2595051 L79.3995143,56.463681 L78.9121632,56.6270154 L78.4654313,56.7903498 L78.1405253,56.9536842 L77.8968576,57.0761898 L78.7090989,57.8928935 L78.4248121,58.1787366 L78.1405253,58.3829125 L77.8968576,58.5054165 L77.6125708,58.6279204 L77.0439971,58.7095908 L76.2723592,58.7095908 L76.3535817,59.0771011 L76.4754235,59.4446114 L76.556646,59.8529633 L76.6378686,60.2613151 L75.9474532,60.7921598 L75.0945927,61.4046876 L74.1605097,62.0172153 L73.1045849,62.6297431 L72.4953921,62.9564277 L71.8861993,63.2422708 L71.236403,63.4872724 L70.5459877,63.7322898 L69.8149689,63.9773073 L69.043331,64.1406417 L68.2310739,64.3039761 L67.3782134,64.4264816 L68.8808701,64.4673152 L70.1804783,64.4673152 L71.3988482,64.3448113 L72.4953921,64.2223073 L73.5106977,64.0181314 L74.4041773,63.7731139 L75.297657,63.4464293 L76.1505175,63.1197447 L77.2876648,62.5889 L78.3842087,61.9763722 L79.4401335,61.3230188 L80.5366616,60.6696653 L79.8868654,60.3429807 L79.2370692,60.1388048 L78.9121632,60.0163008 L78.587273,59.8529664 L78.2217478,59.689632 L77.8562385,59.4854561 L78.1811444,59.2404387 L78.5466538,59.0771043 L78.9933858,58.9137699 L79.4807369,58.7912643 L80.4554391,58.5870884 L81.4707604,58.4645829 L82.3642243,58.3420789 L83.1764814,58.2604085 L83.5013874,58.1787397 L83.7856742,58.0970694 L83.9481193,58.0154006 L84.0699611,57.892895 L84.0293419,57.8520599 L83.9481193,57.7703911 L83.8262776,57.7295559 L83.6638325,57.6478871 L83.2171006,57.5662167 L82.6485112,57.4845464 L82.0799375,57.4437128 L81.5113638,57.3620424 L81.0240127,57.2395384 L80.6991225,57.1170329 L81.7956507,56.8720313 L82.8921946,56.6270139 L83.8668968,56.4228379 L84.6791381,56.218662 L85.3695535,56.0144861 L85.9787463,55.7694687 L86.2630331,55.6469647 L86.4660974,55.5244607 L86.6691617,55.4019552 L86.8316068,55.2386208 L86.7909876,55.1977872 L86.7097651,55.1161168 L86.54732,55.0752816 L86.3442557,55.0344465 L85.8163012,54.9936129 L85.2071084,54.9936129 L84.5573122,54.9527777 L83.9481193,54.9119425 L83.4201491,54.8302721 L83.0952589,54.7486033 L83.3795457,54.6260994 L83.6638325,54.5035938 L84.6385347,54.2177507 L85.4913952,53.9727333 L86.2630331,53.7685574 L86.9940519,53.5235399 L87.7656899,53.2785383 L88.5373278,52.9518537 L88.9028372,52.7476778 L89.2277432,52.5435019 L89.3495849,52.4209963 L89.4714266,52.2576619 L89.5932525,52.1351579 L89.6338717,52.0126524 L89.5932525,51.8901484 L89.4714266,51.8084796 L89.3495849,51.7676445 L88.2124375,51.7676445 L87.6844673,51.8084796 L86.9534485,51.8084796 L86.7503842,51.7676445 L86.5879391,51.6859741 L86.4254783,51.6043053 L88.0499294,50.5426 L89.5526019,49.562562 L90.8928135,48.7050326 L92.07058,47.888329 L92.5579311,47.4799771 L93.004663,47.0716253 L93.3701724,46.6632735 L93.6950784,46.2549216 L93.9387461,45.8057441 L94.1418103,45.3565666 L94.2636521,44.8665476 L94.2636521,44.3357028 L93.9793652,44.3357028 L93.6950784,44.376538 L93.3701724,44.499042 L93.0452664,44.6215475 L92.3954702,45.0298994 L91.7050548,45.4382512 L91.3395454,45.6424271 L91.0146552,45.846603 L90.6491301,46.0099374 L90.2836207,46.132443 L89.9587304,46.2141118 L89.6338245,46.254947 L89.2683151,46.254947 L88.9434091,46.132443 L89.9181113,45.3974223 L91.0146552,44.4582258 L92.2736285,43.355679 L93.5326175,42.1306393 L94.7916066,40.8239325 L95.969373,39.5172256 L96.4973433,38.8230307 L97.0252978,38.1696772 L97.4720455,37.5163238 L97.8781583,36.903796 L97.9593808,36.7404616 L98,36.6179561 L97.9593808,36.4546217 L97.9187774,36.3321177 L97.8781583,36.2096122 L97.7563323,36.1279434 L97.6344906,36.0054378 L97.5126489,35.9646042 L97.3502038,35.8829339 L97.1877429,35.8420987 L96.8628527,35.8420987 L96.7004076,35.8829339 L96.4973433,35.923769 L96.3755016,36.046273 L96.2130565,36.1687786 L95.4820219,36.9037992 L94.6291614,37.7613286 L93.7356818,38.7005251 L92.7609796,39.6397217 L91.7862931,40.497251 L90.8115909,41.3139547 L90.3242398,41.6406393 L89.8774921,41.9264824 L89.390141,42.1714999 L88.9840282,42.3756758 L89.2683151,42.1306583 L89.6338245,41.763148 L90.1211756,41.273129 L90.6491301,40.6606012 L91.8268965,39.2313857 L93.1265047,37.5572001 L93.776301,36.6588293 L94.3854938,35.7604584 L94.9946708,34.902929 L95.5226411,34.0045582 L96.0099922,33.1878545 L96.416105,32.4528339 L96.741011,31.7586389 L96.9440752,31.1869527 L96.9846944,30.9827768 L96.9846944,30.6560921 L96.9440752,30.5335866 L96.8628527,30.4110826 L96.7816301,30.2885787 L96.7004076,30.2069083 L96.5785658,30.1660731 L96.3348824,30.0435691 L96.0505956,29.9618988 L95.4820219,29.9618988 L95.3195768,30.002734 L95.1977351,30.0435691 L95.03529,30.1252395 L94.9134483,30.2477435 L94.5885423,30.5335866 L94.2636521,30.9419384 L93.5326175,31.881135 L92.7609796,33.065349 L91.9081191,34.3312301 L90.9740361,35.637937 L90.4460658,36.2504648 L89.9587304,36.8629925 L89.4307602,37.3938372 L88.8621865,37.8838563 L89.5932053,36.5363079 L90.3242398,34.9845836 L90.7303684,34.1270542 L91.0958778,33.2695249 L91.4613872,32.371154 L91.7862931,31.4727831 L92.07058,30.5335866 L92.3548668,29.6352157 L92.5579311,28.7368449 L92.7203762,27.838474 L92.8015987,26.9809446 L92.8422179,26.164241 L92.8015987,25.7558891 L92.7609796,25.3883788 L92.7203762,25.0208685 L92.6391536,24.6533582 L92.5985345,24.5308526 L92.5173119,24.4083487 L92.3954702,24.2858447 L92.3142476,24.2041743 L92.0299608,24.0816704 L91.745674,24 L91.4613872,24 L91.2177037,24.0408352 L91.1364812,24.0816704 L91.0146552,24.122504 L90.9740361,24.2041743 L90.9334169,24.3266783 L90.5273041,25.6742267 L90.161779,27.0217751 L89.7962696,28.4509907 L89.4307602,29.8393806 L89.0652508,31.2277705 L88.5778997,32.5344773 L88.3342163,33.1878308 L88.0499294,33.759517 L87.7250392,34.3720447 L87.3595141,34.9028895 L87.6031975,33.7186755 L87.7656426,32.6569702 L87.9281035,31.6769321 L88.009326,30.7785613 L88.0905486,30.0026991 L88.131152,29.3085042 L88.0905486,28.7368179 L88.0499294,28.2467989 L87.9687069,27.8384471 L87.8468652,27.5117624 L87.7656426,27.3892585 L87.6844201,27.2667545 L87.6031975,27.1850841 L87.4813558,27.144249 L87.3595141,27.1034154 L87.2376881,27.0625802 L87.1158464,27.0625802 L86.9940047,27.1034154 L86.6691144,27.1850841 L86.3442085,27.3484185 L86.0599216,28.6551254 L85.7756348,29.9210066 L85.4507288,31.1052206 L85.0852194,32.2485931 L84.6790909,33.3919655 L84.2323589,34.535338 L83.7450078,35.719552 L83.1764342,36.903766 L82.7703056,37.6796281 L82.3641771,38.4554903 L81.9174451,39.2313524 L81.4707132,40.0072146 L80.9833621,40.7422352 L80.496011,41.4772558 L79.9680407,42.2122765 L79.4400862,42.9472971 L78.465384,44.1723368 L77.4500627,45.3157092 L76.3941379,46.4590817 L75.2976097,47.520787 L74.1604624,48.5824922 L72.982696,49.5625303 L71.7643103,50.5017269 L70.5053213,51.4000977 L69.6524608,51.971784 L68.7589969,52.5434702 L67.8655173,53.0743149 L66.9720376,53.6051596 L65.5506035,54.2585131 L64.1291693,54.9118665 L62.667116,55.4427112 L61.2050627,55.9735559 L59.9866928,56.3410663 L58.7683072,56.7085766 L57.5093182,56.9944197 L56.2503449,57.2802628 L54.9913558,57.4844387 L53.6917477,57.6477731 L52.4327586,57.8111075 L51.1331662,57.8927763 L51.0113245,57.9336115 L50.8894828,57.9744467 L50.6458151,58.0969507 L50.3615283,58.3011266 L49.9553997,58.6686369 L49.4274295,59.1586559 L48.7776332,59.8120094 L48.0059953,60.6695387 L47.2749765,61.5270681 L46.422116,62.4662646 L45.9753683,62.9154421 L45.5286364,63.3646196 L45.0006661,63.7729715 L44.4727116,64.1813233 L44.0665831,64.4671664 L43.6604546,64.7121839 L43.2137226,64.9163598 L42.7669907,65.1205357 L41.7922885,65.5288875 L40.8175862,65.8963978 L39.842884,66.2639082 L38.9900236,66.5905928 L38.6245142,66.7539272 L38.258989,66.9581031 L37.9340988,67.1214375 L37.6904154,67.2847719 L37.4467477,67.5297893 L37.2436834,67.7339653 L37.1218417,67.9381412 L37.0406192,68.1423171 L37,68.4281602 L37,68.5914946" fill="#E5B731" id="Shape"/><path d="M39,68.1514646 C39,68.0677719 39.0677846,67.9999419 39.151359,68 C39.2349334,67.9999419 39.3027024,68.0677719 39.3027024,68.1514646 C39.3027024,68.2351572 39.2349334,68.3029857 39.151359,68.3029276 C39.0677846,68.3029857 39,68.2351572 39,68.1514646 Z M39,68.1514646" fill="#FEC50C" id="Shape" stroke="#00AFCA" stroke-width="0.38127393"/></g><g fill="#E5B731" id="Group" transform="translate(101.114122, 49.514864) rotate(22.500002) translate(-101.114122, -49.514864) translate(67.114122, 15.014864)"><path d="M30.5295443,9.70721651 C31.9840898,9.68973399 32.5295443,8.81560811 32.5295443,7.76665706 C32.5295443,6.36805567 30.5295443,-0.292783494 30.5295443,-0.292783494 C30.5295443,-0.292783494 28.5295443,6.36805567 28.5295443,7.76665706 C28.5295443,8.81560811 29.0749989,9.70721651 30.5295443,9.70721651 C30.5295443,9.70721651 29.0749989,9.70721651 30.5295443,9.70721651 Z M35.0534292,9.62414014 C36.4845864,9.88451918 37.1868105,9.13053109 37.3869598,8.10085223 C37.6538255,6.72794708 36.9615192,-0.192131697 36.9615192,-0.192131697 C36.9615192,-0.192131697 33.7273168,5.9647111 33.460451,7.33761625 C33.2603017,8.36729511 33.6256079,9.34659978 35.0534292,9.62414014 C35.0534292,9.62414014 33.6256079,9.34659978 35.0534292,9.62414014 Z M39.5100493,10.405788 C40.8652294,10.9344609 41.6984194,10.3283163 42.0913634,9.35574585 C42.6152887,8.05898521 43.2561152,1.1339495 43.2561152,1.1339495 C43.2561152,1.1339495 38.9065533,6.56055884 38.3826279,7.85731947 C37.989684,8.82988995 38.1614182,9.86090573 39.5100493,10.405788 C39.5100493,10.405788 38.1614182,9.86090573 39.5100493,10.405788 Z M44.102871,12.2101299 C45.3185199,13.0090077 46.2595272,12.5893388 46.8460932,11.719719 C47.6281812,10.5602259 49.6948,3.91975414 49.6948,3.91975414 C49.6948,3.91975414 44.3120309,8.32345426 43.5299429,9.48294737 C42.9433769,10.3525672 42.8969982,11.3967584 44.102871,12.2101299 C44.102871,12.2101299 42.8969982,11.3967584 44.102871,12.2101299 Z M47.8997972,14.6709807 C48.9406782,15.6871377 49.9444731,15.454732 50.6861935,14.7130116 C51.6751541,13.724051 54.970865,7.59991293 54.970865,7.59991293 C54.970865,7.59991293 48.8467269,10.8956239 47.8577664,11.8845844 C47.116046,12.6263048 46.8712783,13.6424618 47.8997972,14.6709807 C47.8997972,14.6709807 46.8712783,13.6424618 47.8997972,14.6709807 Z M51.1574108,17.8111066 C51.9852759,19.0072033 53.0149734,18.9706006 53.8845933,18.3840346 C55.0440864,17.6019467 59.4477865,12.2191775 59.4477865,12.2191775 C59.4477865,12.2191775 52.8073148,14.2857964 51.6478216,15.0678843 C50.7782018,15.6544503 50.3440393,16.6052337 51.1574108,17.8111066 C51.1574108,17.8111066 50.3440393,16.6052337 51.1574108,17.8111066 Z M53.7560085,21.5151214 C54.3404374,22.8472066 55.3582006,23.0077519 56.3237652,22.5978941 C57.6111845,22.051417 62.961057,17.6078101 62.961057,17.6078101 C62.961057,17.6078101 56.04826,18.3693976 54.7608406,18.9158747 C53.7952761,19.3257325 53.1876723,20.1762052 53.7560085,21.5151214 C53.7560085,21.5151214 53.1876723,20.1762052 53.7560085,21.5151214 Z M55.7277615,26.0385991 C56.0224632,27.4630846 56.9846066,27.8317265 58.0142854,27.6315772 C59.3871906,27.3647115 65.5440334,24.1305091 65.5440334,24.1305091 C65.5440334,24.1305091 58.6239546,23.4382028 57.2510495,23.7050685 C56.2213706,23.9052178 55.4502212,24.6107777 55.7277615,26.0385991 C55.7277615,26.0385991 55.4502212,24.6107777 55.7277615,26.0385991 Z M56.6725095,30.4635157 C56.689992,31.9180612 57.5641179,32.4635157 58.6130689,32.4635157 C60.0116703,32.4635157 66.6725095,30.4635157 66.6725095,30.4635157 C66.6725095,30.4635157 60.0116703,28.4635157 58.6130689,28.4635157 C57.5641179,28.4635157 56.6725095,29.0089703 56.6725095,30.4635157 C56.6725095,30.4635157 56.6725095,29.0089703 56.6725095,30.4635157 Z M56.7555859,34.9874006 C56.4952068,36.4185578 57.2491949,37.1207819 58.2788738,37.3209311 C59.6517789,37.5877969 66.5718577,36.8954905 66.5718577,36.8954905 C66.5718577,36.8954905 60.4150149,33.6612881 59.0421097,33.3944224 C58.0124309,33.1942731 57.0331262,33.5595792 56.7555859,34.9874006 C56.7555859,34.9874006 57.0331262,33.5595792 56.7555859,34.9874006 Z M55.973938,39.4440207 C55.4452651,40.7992008 56.0514097,41.6323908 57.0239801,42.0253347 C58.3207408,42.54926 65.2457765,43.1900866 65.2457765,43.1900866 C65.2457765,43.1900866 59.8191672,38.8405246 58.5224065,38.3165993 C57.549836,37.9236553 56.5188203,38.0953896 55.973938,39.4440207 C55.973938,39.4440207 56.5188203,38.0953896 55.973938,39.4440207 Z M54.1695961,44.0368424 C53.3707183,45.2524913 53.7903872,46.1934986 54.660007,46.7800646 C55.8195001,47.5621525 62.4599719,49.6287714 62.4599719,49.6287714 C62.4599719,49.6287714 58.0562717,44.2460023 56.8967786,43.4639143 C56.0271588,42.8773483 54.9829676,42.8309695 54.1695961,44.0368424 C54.1695961,44.0368424 54.9829676,42.8309695 54.1695961,44.0368424 Z M51.7087453,47.8337686 C50.6925883,48.8746496 50.924994,49.8784445 51.6667144,50.6201649 C52.655675,51.6091254 58.7798131,54.9048364 58.7798131,54.9048364 C58.7798131,54.9048364 55.4841021,48.7806983 54.4951416,47.7917378 C53.7534212,47.0500174 52.7372642,46.8052497 51.7087453,47.8337686 C51.7087453,47.8337686 52.7372642,46.8052497 51.7087453,47.8337686 Z M48.5686194,51.0913821 C47.3725227,51.9192473 47.4091254,52.9489448 47.9956914,53.8185646 C48.7777793,54.9780577 54.1605485,59.3817579 54.1605485,59.3817579 C54.1605485,59.3817579 52.0939296,52.7412861 51.3118417,51.581793 C50.7252757,50.7121732 49.7744923,50.2780106 48.5686194,51.0913821 C48.5686194,51.0913821 49.7744923,50.2780106 48.5686194,51.0913821 Z M44.8646046,53.6899799 C43.5325194,54.2744088 43.3719741,55.292172 43.7818319,56.2577365 C44.328309,57.5451559 48.7719159,62.8950284 48.7719159,62.8950284 C48.7719159,62.8950284 48.0103284,55.9822314 47.4638513,54.694812 C47.0539935,53.7292475 46.2035208,53.1216437 44.8646046,53.6899799 C44.8646046,53.6899799 46.2035208,53.1216437 44.8646046,53.6899799 Z M40.3411269,55.6617329 C38.9166414,55.9564346 38.5479995,56.9185779 38.7481488,57.9482568 C39.0150145,59.321162 42.2492169,65.4780047 42.2492169,65.4780047 C42.2492169,65.4780047 42.9415232,58.557926 42.6746575,57.1850208 C42.4745082,56.155342 41.7689483,55.3841926 40.3411269,55.6617329 C40.3411269,55.6617329 41.7689483,55.3841926 40.3411269,55.6617329 Z M35.9162103,56.6064809 C34.4616648,56.6239634 33.9162103,57.4980893 33.9162103,58.5470403 C33.9162103,59.9456417 35.9162103,66.6064809 35.9162103,66.6064809 C35.9162103,66.6064809 37.9162103,59.9456417 37.9162103,58.5470403 C37.9162103,57.4980893 37.3707557,56.6064809 35.9162103,56.6064809 C35.9162103,56.6064809 37.3707557,56.6064809 35.9162103,56.6064809 Z M31.3923254,56.6895572 C29.9611682,56.4291782 29.2589441,57.1831663 29.0587949,58.2128451 C28.7919291,59.5857503 29.4842355,66.5058291 29.4842355,66.5058291 C29.4842355,66.5058291 32.7184379,60.3489863 32.9853036,58.9760811 C33.1854529,57.9464023 32.8201468,56.9670976 31.3923254,56.6895572 C31.3923254,56.6895572 32.8201468,56.9670976 31.3923254,56.6895572 Z M26.9357053,55.9079093 C25.5805252,55.3792365 24.7473352,55.985381 24.3543913,56.9579515 C23.830466,58.2547122 23.1896394,65.1797479 23.1896394,65.1797479 C23.1896394,65.1797479 27.5392014,59.7531385 28.0631267,58.4563779 C28.4560707,57.4838074 28.2843364,56.4527916 26.9357053,55.9079093 C26.9357053,55.9079093 28.2843364,56.4527916 26.9357053,55.9079093 Z M22.3428836,54.1035675 C21.1272347,53.3046897 20.1862274,53.7243586 19.5996614,54.5939784 C18.8175734,55.7534715 16.7509546,62.3939432 16.7509546,62.3939432 C16.7509546,62.3939432 22.1337237,57.9902431 22.9158117,56.83075 C23.5023777,55.9611302 23.5487565,54.916939 22.3428836,54.1035675 C22.3428836,54.1035675 23.5487565,54.916939 22.3428836,54.1035675 Z M18.5459574,51.6427166 C17.5050764,50.6265597 16.5012815,50.8589654 15.7595611,51.6006858 C14.7706006,52.5896463 11.4748896,58.7137844 11.4748896,58.7137844 C11.4748896,58.7137844 17.5990277,55.4180735 18.5879882,54.4291129 C19.3297086,53.6873925 19.5744763,52.6712356 18.5459574,51.6427166 C18.5459574,51.6427166 19.5744763,52.6712356 18.5459574,51.6427166 Z M15.2883439,48.5025908 C14.4604787,47.3064941 13.4307812,47.3430968 12.5611614,47.9296627 C11.4016683,48.7117507 6.99796813,54.0945199 6.99796813,54.0945199 C6.99796813,54.0945199 13.6384399,52.027901 14.797933,51.245813 C15.6675528,50.659247 16.1017154,49.7084637 15.2883439,48.5025908 C15.2883439,48.5025908 16.1017154,49.7084637 15.2883439,48.5025908 Z M12.6897461,44.798576 C12.1053172,43.4664908 11.087554,43.3059454 10.1219895,43.7158033 C8.8345701,44.2622804 3.48469758,48.7058873 3.48469758,48.7058873 C3.48469758,48.7058873 10.3974946,47.9442998 11.684914,47.3978227 C12.6504785,46.9879649 13.2580823,46.1374922 12.6897461,44.798576 C12.6897461,44.798576 13.2580823,46.1374922 12.6897461,44.798576 Z M10.7179931,40.2750983 C10.4232914,38.8506128 9.46114806,38.4819708 8.43146919,38.6821201 C7.05856404,38.9489859 0.901721248,42.1831883 0.901721248,42.1831883 C0.901721248,42.1831883 7.82180002,42.8754946 9.19470518,42.6086289 C10.224384,42.4084796 10.9955334,41.7029197 10.7179931,40.2750983 C10.7179931,40.2750983 10.9955334,41.7029197 10.7179931,40.2750983 Z M9.77324513,35.8501817 C9.75576262,34.3956362 8.88163674,33.8501817 7.83268569,33.8501817 C6.43408429,33.8501817 -0.226754866,35.8501817 -0.226754866,35.8501817 C-0.226754866,35.8501817 6.43408429,37.8501817 7.83268569,37.8501817 C8.88163674,37.8501817 9.77324513,37.3047271 9.77324513,35.8501817 C9.77324513,35.8501817 9.77324513,37.3047271 9.77324513,35.8501817 Z M9.69016877,31.3262968 C9.95054781,29.8951396 9.19655972,29.1929155 8.16688086,28.9927662 C6.79397571,28.7259005 -0.126103069,29.4182068 -0.126103069,29.4182068 C-0.126103069,29.4182068 6.03073972,32.6524092 7.40364488,32.919275 C8.43332374,33.1194243 9.41262841,32.7541181 9.69016877,31.3262968 C9.69016877,31.3262968 9.41262841,32.7541181 9.69016877,31.3262968 Z M10.4718167,26.8696767 C11.0004895,25.5144966 10.394345,24.6813066 9.42177448,24.2883626 C8.12501384,23.7644373 1.19997813,23.1236108 1.19997813,23.1236108 C1.19997813,23.1236108 6.62658747,27.4731727 7.9233481,27.9970981 C8.89591858,28.390042 9.92693435,28.2183078 10.4718167,26.8696767 C10.4718167,26.8696767 9.92693435,28.2183078 10.4718167,26.8696767 Z M12.2761585,22.276855 C13.0750363,21.0612061 12.6553674,20.1201988 11.7857476,19.5336328 C10.6262545,18.7515448 3.98578276,16.684926 3.98578276,16.684926 C3.98578276,16.684926 8.38948289,22.0676951 9.54897599,22.8497831 C10.4185958,23.4363491 11.462787,23.4827278 12.2761585,22.276855 C12.2761585,22.276855 11.462787,23.4827278 12.2761585,22.276855 Z M14.7370094,18.4799288 C15.7531663,17.4390478 15.5207606,16.4352529 14.7790402,15.6935325 C13.7900797,14.7045719 7.66594156,11.408861 7.66594156,11.408861 C7.66594156,11.408861 10.9616525,17.5329991 11.9506131,18.5219596 C12.6923335,19.26368 13.7084904,19.5084477 14.7370094,18.4799288 C14.7370094,18.4799288 13.7084904,19.5084477 14.7370094,18.4799288 Z M17.8771352,15.2223152 C19.0732319,14.3944501 19.0366292,13.3647526 18.4500633,12.4951327 C17.6679753,11.3356396 12.2852061,6.9319395 12.2852061,6.9319395 C12.2852061,6.9319395 14.351825,13.5724112 15.133913,14.7319043 C15.7204789,15.6015242 16.6712623,16.0356867 17.8771352,15.2223152 C17.8771352,15.2223152 16.6712623,16.0356867 17.8771352,15.2223152 Z M21.58115,12.6237175 C22.9132352,12.0392886 23.0737805,11.0215254 22.6639227,10.0559608 C22.1174456,8.76854147 17.6738387,3.41866895 17.6738387,3.41866895 C17.6738387,3.41866895 18.4354262,10.331466 18.9819033,11.6188854 C19.3917611,12.5844499 20.2422338,13.1920537 21.58115,12.6237175 C21.58115,12.6237175 20.2422338,13.1920537 21.58115,12.6237175 Z M26.1046277,10.6519645 C27.5291132,10.3572628 27.8977552,9.39511943 27.6976059,8.36544057 C27.4307401,6.99253541 24.1965377,0.83569262 24.1965377,0.83569262 C24.1965377,0.83569262 23.5042314,7.7557714 23.7710971,9.12867655 C23.9712464,10.1583554 24.6768063,10.9295048 26.1046277,10.6519645 C26.1046277,10.6519645 24.6768063,10.9295048 26.1046277,10.6519645 Z M26.1046277,10.6519645" id="be"/></g><path d="M21.6736566,93.0986183 C22.1987459,91.2453759 23.5180047,90.1414172 24.7909833,89.8152854 L24.7909833,89.8152854 C24.487921,89.7470883 24.2126293,89.6529839 23.9814451,89.5327208 C22.7804535,89.3488137 21.9421842,88.1303862 21.6951438,87.5121306 C21.6859491,87.4891327 21.676432,87.4638936 21.6666667,87.4365082 L21.6666667,87.4365082 C21.6569013,87.4638936 21.6473842,87.4891327 21.6381896,87.5121306 C21.3911492,88.1303862 20.5528799,89.3488137 19.3518882,89.5327208 C19.1457221,89.6399694 18.9044783,89.7264146 18.6397432,89.7922346 C19.8933873,90.1519176 21.1710974,91.2631126 21.6736566,93.0986183 Z M21.6661879,106.707579 L21.6947757,108.185399 C22.209604,107.766746 22.9938164,106.350763 22.9940738,105.072626 C22.9940738,104.128046 22.5740511,103.637747 22.1800014,103.419645 C23.8036929,103.634704 24.5052496,102.785796 24.8473273,101.215659 C23.9408947,101.621483 22.5148381,101.660448 22.5610259,100.297352 C22.5610259,100.297352 22.6259772,96.6698429 22.6476278,95.7515355 C23.0157043,96.4402865 23.6471156,96.6239514 24.4489608,96.6239514 C25.5487372,96.6239514 25.4286483,97.6066775 25.2457092,98.4606004 C25.8239644,98.1877081 26.4131186,97.6956286 26.1983219,96.5321343 C26.6901117,96.5203629 27.0099489,96.1893983 27.2721767,95.7515696 C26.9389025,95.2547405 26.5777504,95.0167599 26.1983219,94.948042 C26.305432,94.1980148 25.9158871,93.4868161 25.2457092,93.0884302 C25.4603926,93.8515596 25.5258016,95.0628219 24.4489608,95.0628219 C23.9986404,95.0628219 23.6868603,94.6054083 23.6868603,93.8460322 C23.6868603,92.647599 24.6568228,91.6879721 25.6094355,91.6879721 C26.4061839,91.6879721 27.8091427,92.3950081 27.8091427,94.4199999 C27.8091427,95.2251652 27.6588128,95.9687438 27.4107685,96.6699112 C26.2413358,99.9758043 22.4906308,110.491608 21.6951438,112.694741 C21.6883869,112.713455 21.6817344,112.732187 21.6751849,112.750938 C21.6632163,112.715645 21.650887,112.680411 21.6381896,112.645244 C20.8427025,110.442112 17.0919975,99.9263076 15.9225648,96.6204144 C15.6745205,95.9192471 15.5241906,95.1756685 15.5241906,94.3705032 C15.5241906,92.3455114 16.9271495,91.6384754 17.7238979,91.6384754 C18.6765106,91.6384754 19.646473,92.5981023 19.646473,93.7965355 C19.646473,94.5559116 19.3346929,95.0133252 18.8843725,95.0133252 C17.8075317,95.0133252 17.8729407,93.8020629 18.0876241,93.0389335 C17.4174463,93.4373194 17.0279014,94.1485181 17.1350114,94.8985453 C16.7555829,94.9672632 16.3944308,95.2052438 16.0611566,95.7020729 C16.3233845,96.1399016 16.6432216,96.4708662 17.1350114,96.4826376 C16.9202147,97.6461319 17.5093689,98.1382114 18.0876241,98.4111037 C17.904685,97.5571808 17.7845961,96.5744547 18.8843725,96.5744547 C19.6862178,96.5744547 20.317629,96.3907898 20.6857056,95.7020388 C20.7073562,96.6203462 20.7723074,100.247855 20.7723074,100.247855 C20.8184953,101.610952 19.3924387,101.571987 18.4860061,101.166163 C18.8280838,102.7363 19.5296404,103.585207 21.1533319,103.370148 C20.7592823,103.58825 20.3392595,104.078549 20.3392595,105.023129 C20.339517,106.301267 21.1237293,107.717249 21.6385577,108.135902 L21.6661879,106.707579 Z M21.6578406,117.460861 C21.6707107,117.498094 21.6831993,117.531752 21.6951438,117.561627 C21.9421842,118.179883 22.7804535,119.39831 23.9814451,119.582218 C25.0262893,120.12575 26.9720832,120.134963 28.310637,119.633056 C28.0949239,119.114773 27.7196141,118.73331 27.1337393,118.52586 L27.1337393,118.571776 C28.0201451,117.727509 28.4674023,116.485095 28.4674023,115.334669 C28.4674023,112.584933 27.6360317,111.920274 27.6360317,107.965076 C27.6360317,106.744635 27.9947383,105.518769 28.7272104,104.383492 C26.7258382,104.92566 25.9392088,107.2173 26.5794751,108.883247 C26.1715251,109.107549 25.8759106,108.753198 25.5575665,108.561832 C25.5456225,109.480993 25.8244561,109.884462 26.0252109,110.352556 C26.0252109,110.352556 25.6788086,110.329596 25.3670285,110.168891 C25.4089613,110.759748 25.6167203,111.288141 26.0252109,111.546386 C24.3081552,111.17922 23.3923785,112.648362 23.3923785,114.393194 C23.3923785,116.150582 24.5715414,116.610957 25.3409267,116.32166 C25.3736569,116.568314 25.3702642,116.829639 25.2716463,117.113723 C25.7603471,116.961855 25.9864134,116.601001 25.8172356,115.862506 C26.1029397,115.797303 26.3250675,115.605671 26.5187151,115.357427 C26.3255515,115.065871 26.0796952,114.883693 25.8172356,114.806422 C25.9857905,114.201166 25.6910512,113.716456 25.3322673,113.612595 C25.3322673,113.612595 25.5350325,114.898239 24.812651,114.898239 C24.5266844,114.898239 24.3276827,114.662503 24.3276827,114.117674 C24.3276827,113.335745 24.6632736,112.877922 25.5054813,112.877922 C26.1899199,112.877922 26.8564682,113.635387 26.8564682,115.33443 C26.8564682,116.733148 25.799783,117.960754 24.829975,117.928681 C23.7661336,117.894049 22.7515098,116.763515 22.7515098,115.380321 C22.7515098,114.484635 22.8148878,113.873716 23.011318,113.337041 C24.5864354,109.03416 28.6322143,97.9089711 28.6322143,97.9089711 C29.1339583,96.5318852 29.3333333,95.6290342 29.3333333,94.1902252 C29.3333333,92.1325753 28.4751275,90.4686826 26.8434701,89.9124053 C27.3624875,89.8588484 27.8695338,89.7489565 28.310637,89.5835597 C28.0949239,89.0652759 27.7196141,88.6838136 27.1337393,88.4763636 L27.1337393,88.522279 C28.0201451,87.6780121 28.4674023,86.4355981 28.4674023,85.2851719 C28.4674023,82.5354358 27.6360317,81.8707769 27.6360317,77.9155789 C27.6360317,76.6951383 27.9947383,75.4692726 28.7272104,74.3339957 C26.7258382,74.8761635 25.9392088,77.1678036 26.5794751,78.8337499 C26.1715251,79.0580518 25.8759106,78.7037013 25.5575665,78.5123355 C25.5456225,79.4314959 25.8244561,79.8349657 26.0252109,80.3030589 C26.0252109,80.3030589 25.6788086,80.2800995 25.3670285,80.119394 C25.4089613,80.7102511 25.6167203,81.2386447 26.0252109,81.4968893 C24.3081552,81.1297232 23.3923785,82.598865 23.3923785,84.3436969 C23.3923785,86.101085 24.5715414,86.5614602 25.3409267,86.272163 C25.3736569,86.518817 25.3702642,86.7801426 25.2716463,87.0642262 C25.7603471,86.9123578 25.9864134,86.551504 25.8172356,85.8130093 C26.1029397,85.7478059 26.3250675,85.5561739 26.5187151,85.30793 C26.3255515,85.016374 26.0796952,84.8341967 25.8172356,84.756925 C25.9857905,84.1516692 25.6910512,83.6669595 25.3322673,83.5630981 C25.3322673,83.5630981 25.5350325,84.8487421 24.812651,84.8487421 C24.5266844,84.8487421 24.3276827,84.6130066 24.3276827,84.0681774 C24.3276827,83.2862479 24.6632736,82.8284248 25.5054813,82.8284248 C26.1899199,82.8284248 26.8564682,83.5858903 26.8564682,85.2849331 C26.8564682,86.683651 25.799783,87.9112569 24.829975,87.879184 C23.7661336,87.8445521 22.7515098,86.7140179 22.7515098,85.3308245 C22.7515098,84.4351387 22.8148878,83.8242189 23.011318,83.2875444 C24.5864354,78.984663 28.6322143,67.8594744 28.6322143,67.8594744 C29.1339583,66.4823885 29.3333333,65.5795375 29.3333333,64.1407285 C29.3333333,62.3962984 28.7165173,60.9348724 27.5345279,60.1914193 C27.8071235,60.1342434 28.0687917,60.0602457 28.310637,59.969563 C28.0949239,59.4512792 27.7196141,59.0698169 27.1337393,58.8623669 L27.1337393,58.9082822 C28.0201451,58.0640153 28.4674023,56.8216014 28.4674023,55.6711751 C28.4674023,52.9214391 27.6360317,52.2567802 27.6360317,48.3015822 C27.6360317,47.0811416 27.9947383,45.8552759 28.7272104,44.7199989 C26.7258382,45.2621668 25.9392088,47.5538068 26.5794751,49.2197532 C26.1715251,49.4440551 25.8759106,49.0897045 25.5575665,48.8983387 C25.5456225,49.8174992 25.8244561,50.2209689 26.0252109,50.6890621 C26.0252109,50.6890621 25.6788086,50.6661027 25.3670285,50.5053972 C25.4089613,51.0962544 25.6167203,51.624648 26.0252109,51.8828925 C24.3081552,51.5157265 23.3923785,52.9848683 23.3923785,54.7297002 C23.3923785,56.4870883 24.5715414,56.9474635 25.3409267,56.6581663 C25.3736569,56.9048202 25.3702642,57.1661458 25.2716463,57.4502295 C25.7603471,57.2983611 25.9864134,56.9375073 25.8172356,56.1990126 C26.1029397,56.1338091 26.3250675,55.9421772 26.5187151,55.6939332 C26.3255515,55.4023773 26.0796952,55.2202 25.8172356,55.1429283 C25.9857905,54.5376724 25.6910512,54.0529628 25.3322673,53.9491013 C25.3322673,53.9491013 25.5350325,55.2347454 24.812651,55.2347454 C24.5266844,55.2347454 24.3276827,54.9990099 24.3276827,54.4541806 C24.3276827,53.6722511 24.6632736,53.2144281 25.5054813,53.2144281 C26.1899199,53.2144281 26.8564682,53.9718935 26.8564682,55.6709363 C26.8564682,57.0696543 25.799783,58.2972601 24.829975,58.2651872 C23.7661336,58.2305554 22.7515098,57.1000211 22.7515098,55.7168278 C22.7515098,54.8211419 22.8148878,54.2102222 23.011318,53.6735477 C24.5864354,49.3706662 28.6322143,38.2454776 28.6322143,38.2454776 C29.1339583,36.8683918 29.3333333,35.9655407 29.3333333,34.5267317 C29.3333333,32.4690818 28.4751275,30.8051891 26.8434701,30.2489118 L26.8434701,30.2489118 C27.3624875,30.195355 27.8695338,30.085463 28.310637,29.9200663 C28.0949239,29.4017825 27.7196141,29.0203202 27.1337393,28.8128702 L27.1337393,28.8587855 C28.0201451,28.0145186 28.4674023,26.7721047 28.4674023,25.6216784 C28.4674023,22.8719424 27.6360317,22.2072835 27.6360317,18.2520855 C27.6360317,17.0316449 27.9947383,15.8057791 28.7272104,14.6705022 C26.7258382,15.2126701 25.9392088,17.5043101 26.5794751,19.1702565 C26.1715251,19.3945583 25.8759106,19.0402078 25.5575665,18.848842 C25.5456225,19.7680025 25.8244561,20.1714722 26.0252109,20.6395654 C26.0252109,20.6395654 25.6788086,20.616606 25.3670285,20.4559005 C25.4089613,21.0467577 25.6167203,21.5751513 26.0252109,21.8333958 C24.3081552,21.4662298 23.3923785,22.9353716 23.3923785,24.6802035 C23.3923785,26.4375916 24.5715414,26.8979668 25.3409267,26.6086696 C25.3736569,26.8553235 25.3702642,27.1166491 25.2716463,27.4007328 C25.7603471,27.2488644 25.9864134,26.8880105 25.8172356,26.1495159 C26.1029397,26.0843124 26.3250675,25.8926805 26.5187151,25.6444365 C26.3255515,25.3528806 26.0796952,25.1707033 25.8172356,25.0934316 C25.9857905,24.4881757 25.6910512,24.0034661 25.3322673,23.8996046 C25.3322673,23.8996046 25.5350325,25.1852487 24.812651,25.1852487 C24.5266844,25.1852487 24.3276827,24.9495131 24.3276827,24.4046839 C24.3276827,23.6227544 24.6632736,23.1649314 25.5054813,23.1649314 C26.1899199,23.1649314 26.8564682,23.9223968 26.8564682,25.6214396 C26.8564682,27.0201576 25.799783,28.2477634 24.829975,28.2156905 C23.7661336,28.1810587 22.7515098,27.0505244 22.7515098,25.6673311 C22.7515098,24.7716452 22.8148878,24.1607255 23.011318,23.624051 C24.5864354,19.3211695 28.6322143,8.19598094 28.6322143,8.19598094 C29.1339583,6.81889509 29.3333333,5.91604404 29.3333333,4.477235 C29.3333333,1.93904332 28.0274711,0 25.5748287,0 C24.0419223,0 22.1571142,1.24352571 21.5999658,3.67353568 L21.5999658,3.67353568 C20.9183658,1.56319392 19.1858773,0.484996655 17.7585046,0.484996655 C15.3058622,0.484996655 14,2.42403998 14,4.96223165 C14,6.40104069 14.199375,7.30389175 14.701119,8.68097759 C14.701119,8.68097759 18.7468979,19.8061662 20.3220154,24.1090476 C20.5184456,24.6457221 20.5818235,25.2566419 20.5818235,26.1523277 C20.5818235,27.5355211 19.5671997,28.6660553 18.5033583,28.7006872 C17.5335504,28.7327601 16.4768651,27.5051542 16.4768651,26.1064363 C16.4768651,24.4073935 17.1434134,23.649928 17.827852,23.649928 C18.6700598,23.649928 19.0056507,24.1077511 19.0056507,24.8896806 C19.0056507,25.4345098 18.8066489,25.6702453 18.5206823,25.6702453 C17.7983009,25.6702453 18.001066,24.3846013 18.001066,24.3846013 C17.6422821,24.4884627 17.3475429,24.9731724 17.5160977,25.5784282 C17.2536382,25.6557 17.0077819,25.8378772 16.8146183,26.1294332 C17.0082658,26.3776771 17.2303937,26.5693091 17.5160977,26.6345125 C17.3469199,27.3730072 17.5729862,27.733861 18.0616871,27.8857294 C17.9630691,27.6016458 17.9596764,27.3403202 17.9924066,27.0936662 C18.7617919,27.3829634 19.9409548,26.9225882 19.9409548,25.1652001 C19.9409548,23.4203682 19.0251781,21.9512264 17.3081225,22.3183925 C17.7166131,22.0601479 17.924372,21.5317543 17.9663048,20.9408972 C17.6545247,21.1016027 17.3081225,21.1245621 17.3081225,21.1245621 C17.5088772,20.6564689 17.7877109,20.2529991 17.7757668,19.3338387 C17.4574227,19.5252045 17.1618082,19.879555 16.7538582,19.6552531 C17.3941245,17.9893068 16.6074951,15.6976667 14.6061229,15.1554989 C15.338595,16.2907758 15.6973017,17.5166415 15.6973017,18.7370821 C15.6973017,22.6922801 14.865931,23.356939 14.865931,26.1066751 C14.865931,27.2571013 15.3131882,28.4995153 16.199594,29.3437822 L16.199594,29.2978668 C15.6137193,29.5053168 15.2384094,29.8867791 15.0226963,30.4050629 C15.433917,30.5592549 15.9024487,30.6652076 16.3845622,30.7222485 C14.821303,31.3132086 14,32.9493073 14,34.9622317 C14,36.4010407 14.199375,37.3038917 14.701119,38.6809776 C14.701119,38.6809776 18.7468979,49.8061662 20.3220154,54.1090476 C20.5184456,54.6457221 20.5818235,55.2566419 20.5818235,56.1523277 C20.5818235,57.5355211 19.5671997,58.6660553 18.5033583,58.7006872 C17.5335504,58.7327601 16.4768651,57.5051542 16.4768651,56.1064363 C16.4768651,54.4073935 17.1434134,53.649928 17.827852,53.649928 C18.6700598,53.649928 19.0056507,54.1077511 19.0056507,54.8896806 C19.0056507,55.4345098 18.8066489,55.6702453 18.5206823,55.6702453 C17.7983009,55.6702453 18.001066,54.3846013 18.001066,54.3846013 C17.6422821,54.4884627 17.3475429,54.9731724 17.5160977,55.5784282 C17.2536382,55.6557 17.0077819,55.8378772 16.8146183,56.1294332 C17.0082658,56.3776771 17.2303937,56.5693091 17.5160977,56.6345125 C17.3469199,57.3730072 17.5729862,57.733861 18.0616871,57.8857294 C17.9630691,57.6016458 17.9596764,57.3403202 17.9924066,57.0936662 C18.7617919,57.3829634 19.9409548,56.9225882 19.9409548,55.1652001 C19.9409548,53.4203682 19.0251781,51.9512264 17.3081225,52.3183925 C17.7166131,52.0601479 17.924372,51.5317543 17.9663048,50.9408972 C17.6545247,51.1016027 17.3081225,51.1245621 17.3081225,51.1245621 C17.5088772,50.6564689 17.7877109,50.2529991 17.7757668,49.3338387 C17.4574227,49.5252045 17.1618082,49.879555 16.7538582,49.6552531 C17.3941245,47.9893068 16.6074951,45.6976667 14.6061229,45.1554989 C15.338595,46.2907758 15.6973017,47.5166415 15.6973017,48.7370821 C15.6973017,52.6922801 14.865931,53.356939 14.865931,56.1066751 C14.865931,57.2571013 15.3131882,58.4995153 16.199594,59.3437822 L16.199594,59.2978668 C15.6137193,59.5053168 15.2384094,59.8867791 15.0226963,60.4050629 C15.1328424,60.4463635 15.2471002,60.4842031 15.3646294,60.518569 C14.4661873,61.3215273 14,62.6241812 14,64.1407285 C14,65.5795375 14.199375,66.4823885 14.701119,67.8594744 C14.701119,67.8594744 18.7468979,78.984663 20.3220154,83.2875444 C20.5184456,83.8242189 20.5818235,84.4351387 20.5818235,85.3308245 C20.5818235,86.7140179 19.5671997,87.8445521 18.5033583,87.879184 C17.5335504,87.9112569 16.4768651,86.683651 16.4768651,85.2849331 C16.4768651,83.5858903 17.1434134,82.8284248 17.827852,82.8284248 C18.6700598,82.8284248 19.0056507,83.2862479 19.0056507,84.0681774 C19.0056507,84.6130066 18.8066489,84.8487421 18.5206823,84.8487421 C17.7983009,84.8487421 18.001066,83.5630981 18.001066,83.5630981 C17.6422821,83.6669595 17.3475429,84.1516692 17.5160977,84.756925 C17.2536382,84.8341967 17.0077819,85.016374 16.8146183,85.30793 C17.0082658,85.5561739 17.2303937,85.7478059 17.5160977,85.8130093 C17.3469199,86.551504 17.5729862,86.9123578 18.0616871,87.0642262 C17.9630691,86.7801426 17.9596764,86.518817 17.9924066,86.272163 C18.7617919,86.5614602 19.9409548,86.101085 19.9409548,84.3436969 C19.9409548,82.598865 19.0251781,81.1297232 17.3081225,81.4968893 C17.7166131,81.2386447 17.924372,80.7102511 17.9663048,80.119394 C17.6545247,80.2800995 17.3081225,80.3030589 17.3081225,80.3030589 C17.5088772,79.8349657 17.7877109,79.4314959 17.7757668,78.5123355 C17.4574227,78.7037013 17.1618082,79.0580518 16.7538582,78.8337499 C17.3941245,77.1678036 16.6074951,74.8761635 14.6061229,74.3339957 C15.338595,75.4692726 15.6973017,76.6951383 15.6973017,77.9155789 C15.6973017,81.8707769 14.865931,82.5354358 14.865931,85.2851719 C14.865931,86.4355981 15.3131882,87.6780121 16.199594,88.522279 C15.6137193,88.6838136 15.2384094,89.0652759 15.0226963,89.5835597 C15.433917,89.7377517 15.9024487,89.8437044 16.3845622,89.9007453 C14.821303,90.4917054 14,92.1278041 14,94.1407285 C14,95.5795375 14.199375,96.4823885 14.701119,97.8594744 C14.701119,97.8594744 18.7468979,108.984663 20.3220154,113.287544 C20.5184456,113.824219 20.5818235,114.435139 20.5818235,115.330825 C20.5818235,116.714018 19.5671997,117.844552 18.5033583,117.879184 C17.5335504,117.911257 16.4768651,116.683651 16.4768651,115.284933 C16.4768651,113.58589 17.1434134,112.828425 17.827852,112.828425 C18.6700598,112.828425 19.0056507,113.286248 19.0056507,114.068177 C19.0056507,114.613007 18.8066489,114.848742 18.5206823,114.848742 C17.7983009,114.848742 18.001066,113.563098 18.001066,113.563098 C17.6422821,113.66696 17.3475429,114.151669 17.5160977,114.756925 C17.2536382,114.834197 17.0077819,115.016374 16.8146183,115.30793 C17.0082658,115.556174 17.2303937,115.747806 17.5160977,115.813009 C17.3469199,116.551504 17.5729862,116.912358 18.0616871,117.064226 C17.9630691,116.780143 17.9596764,116.518817 17.9924066,116.272163 C18.7617919,116.56146 19.9409548,116.101085 19.9409548,114.343697 C19.9409548,112.598865 19.0251781,111.129723 17.3081225,111.496889 C17.7166131,111.238645 17.924372,110.710251 17.9663048,110.119394 C17.6545247,110.280099 17.3081225,110.303059 17.3081225,110.303059 C17.5088772,109.834966 17.7877109,109.431496 17.7757668,108.512335 C17.4574227,108.703701 17.1618082,109.058052 16.7538582,108.83375 C17.3941245,107.167804 16.6074951,104.876164 14.6061229,104.333996 C15.338595,105.469273 15.6973017,106.695138 15.6973017,107.915579 C15.6973017,111.870777 14.865931,112.535436 14.865931,115.285172 C14.865931,116.435598 15.3131882,117.678012 16.199594,118.522279 C15.6137193,118.683814 15.2384094,119.065276 15.0226963,119.58356 C16.3612501,120.085466 18.307044,120.076253 19.3518882,119.532721 C20.5528799,119.348814 21.3911492,118.130386 21.6381896,117.512131 C21.6445919,117.496117 21.6511507,117.479016 21.6578406,117.460861 Z M21.6666667,82.7260066 C21.6759461,82.6990491 21.6854374,82.6721269 21.6951438,82.6452444 C22.4906308,80.4421118 26.2413358,69.9263076 27.4107685,66.6204144 C27.6588128,65.9192471 27.8091427,65.1756685 27.8091427,64.3705032 C27.8091427,62.3455114 26.4061839,61.6384754 25.6094355,61.6384754 C24.6568228,61.6384754 23.6868603,62.5981023 23.6868603,63.7965355 C23.6868603,64.5559116 23.9986404,65.0133252 24.4489608,65.0133252 C25.5258016,65.0133252 25.4603926,63.8020629 25.2457092,63.0389335 C25.9158871,63.4373194 26.305432,64.1485181 26.1983219,64.8985453 C26.5777504,64.9672632 26.9389025,65.2052438 27.2721767,65.7020729 C27.0099489,66.1399016 26.6901117,66.4708662 26.1983219,66.4826376 C26.4131186,67.6461319 25.8239644,68.1382114 25.2457092,68.4111037 C25.4286483,67.5571808 25.5487372,66.5744547 24.4489608,66.5744547 C23.6471156,66.5744547 23.0157043,66.3907898 22.6476278,65.7020388 C22.6259772,66.6203462 22.5610259,70.2478551 22.5610259,70.2478551 C22.5148381,71.6109517 23.9408947,71.5719866 24.8473273,71.1661625 C24.5052496,72.7362997 23.8036929,73.5852069 22.1800014,73.3701482 C22.5740511,73.5882505 22.9940738,74.078549 22.9940738,75.0231289 C22.9938164,76.3012665 22.209604,77.7172492 21.6947757,78.1359024 L21.6666667,76.6828304 L21.6385577,78.1359024 C21.1237293,77.7172492 20.339517,76.3012665 20.3392595,75.0231289 C20.3392595,74.078549 20.7592823,73.5882505 21.1533319,73.3701482 C19.5296404,73.5852069 18.8280838,72.7362997 18.4860061,71.1661625 C19.3924387,71.5719866 20.8184953,71.6109517 20.7723074,70.2478551 C20.7723074,70.2478551 20.7073562,66.6203462 20.6857056,65.7020388 C20.317629,66.3907898 19.6862178,66.5744547 18.8843725,66.5744547 C17.7845961,66.5744547 17.904685,67.5571808 18.0876241,68.4111037 C17.5093689,68.1382114 16.9202147,67.6461319 17.1350114,66.4826376 C16.6432216,66.4708662 16.3233845,66.1399016 16.0611566,65.7020729 C16.3944308,65.2052438 16.7555829,64.9672632 17.1350114,64.8985453 C17.0279014,64.1485181 17.4174463,63.4373194 18.0876241,63.0389335 C17.8729407,63.8020629 17.8075317,65.0133252 18.8843725,65.0133252 C19.3346929,65.0133252 19.646473,64.5559116 19.646473,63.7965355 C19.646473,62.5981023 18.6765106,61.6384754 17.7238979,61.6384754 C16.9271495,61.6384754 15.5241906,62.3455114 15.5241906,64.3705032 C15.5241906,65.1756685 15.6745205,65.9192471 15.9225648,66.6204144 C17.0919975,69.9263076 20.8427025,80.4421118 21.6381896,82.6452444 C21.647896,82.6721269 21.6573872,82.6990491 21.6666667,82.7260066 Z M21.6667628,63.0736596 C22.0997168,61.5193934 23.0898964,60.4883313 24.1467799,59.9971323 C24.0894918,59.9723623 24.034315,59.9462272 23.9814451,59.9187241 C22.8501325,59.7454869 22.0406744,58.6542884 21.7440678,58.011485 L21.7440678,58.0114849 C21.7069373,58.1438928 21.6705647,58.2526567 21.6381896,58.3336338 C21.4148117,58.8926704 20.708041,59.9424118 19.6868109,60.2743408 C20.5461242,60.8317147 21.3030085,61.768119 21.6667628,63.0736596 L21.6667628,63.0736596 Z M21.6713577,17.2618352 L21.6947757,18.472409 C22.209604,18.0537558 22.9938164,16.6377731 22.9940738,15.3596354 C22.9940738,14.4150555 22.5740511,13.924757 22.1800014,13.7066547 C23.8036929,13.9217135 24.5052496,13.0728063 24.8473273,11.5026691 C23.9408947,11.9084931 22.5148381,11.9474583 22.5610259,10.5843616 C22.5610259,10.5843616 22.6259772,6.95685275 22.6476278,6.03854531 C23.0157043,6.72729637 23.6471156,6.91096127 24.4489608,6.91096127 C25.5487372,6.91096127 25.4286483,7.89368739 25.2457092,8.74761027 C25.8239644,8.47471799 26.4131186,7.9826384 26.1983219,6.81914417 C26.6901117,6.80737275 27.0099489,6.47640811 27.2721767,6.03857943 C26.9389025,5.54175033 26.5777504,5.3037697 26.1983219,5.23505189 C26.305432,4.48502461 25.9158871,3.77382596 25.2457092,3.37544008 C25.4603926,4.13856946 25.5258016,5.34983179 24.4489608,5.34983179 C23.9986404,5.34983179 23.6868603,4.89241819 23.6868603,4.13304201 C23.6868603,2.93460883 24.6568228,1.97498199 25.6094355,1.97498199 C26.4061839,1.97498199 27.8091427,2.68201799 27.8091427,4.70700975 C27.8091427,5.51217506 27.6588128,6.25575365 27.4107685,6.95692099 C26.2413358,10.2628141 22.4906308,20.7786183 21.6951438,22.981751 C21.6547589,23.0935994 21.6180989,23.2061356 21.5849172,23.3190439 C20.6881984,20.8304222 17.0677379,10.6792309 15.9225648,7.44191765 C15.6745205,6.7407503 15.5241906,5.99717172 15.5241906,5.19200641 C15.5241906,3.16701464 16.9271495,2.45997864 17.7238979,2.45997864 C18.6765106,2.45997864 19.646473,3.41960549 19.646473,4.61803867 C19.646473,5.37741485 19.3346929,5.83482844 18.8843725,5.83482844 C17.8075317,5.83482844 17.8729407,4.62356612 18.0876241,3.86043673 C17.4174463,4.25882262 17.0279014,4.97002126 17.1350114,5.72004854 C16.7555829,5.78876636 16.3944308,6.02674699 16.0611566,6.52357609 C16.3233845,6.96140477 16.6432216,7.2923694 17.1350114,7.30414082 C16.9202147,8.46763506 17.5093689,8.95971464 18.0876241,9.23260693 C17.904685,8.37868405 17.7845961,7.39595792 18.8843725,7.39595792 C19.6862178,7.39595792 20.317629,7.21229302 20.6857056,6.52354197 C20.7073562,7.44184941 20.7723074,11.0693583 20.7723074,11.0693583 C20.8184953,12.4324549 19.3924387,12.3934898 18.4860061,11.9876657 C18.8280838,13.5578029 19.5296404,14.4067101 21.1533319,14.1916514 C20.7592823,14.4097537 20.3392595,14.9000522 20.3392595,15.8446321 C20.339517,17.1227697 21.1237293,18.5387524 21.6385577,18.9574056 L21.6713577,17.2618352 L21.6713577,17.2618352 Z M21.7526669,27.9804436 C22.0560958,28.6254585 22.8608888,29.6976373 23.9814451,29.8692274 C24.2126293,29.9894904 24.487921,30.0835948 24.7909833,30.151792 C23.4597402,30.4928508 22.0778835,31.6845688 21.6066281,33.694301 C21.064513,31.9932374 19.8410864,30.9584203 18.6397411,30.6137384 C18.904477,30.5479182 19.1457216,30.4614728 19.3518882,30.354224 C20.5528799,30.1703169 21.3911492,28.9518894 21.6381896,28.3336338 C21.6730604,28.2464142 21.7125689,28.1269586 21.7526669,27.9804436 L21.7526669,27.9804436 Z M21.5929676,53.3413832 C21.6240029,53.2375866 21.6579976,53.1341262 21.6951438,53.0312477 C22.4906308,50.828115 26.2413358,40.3123108 27.4107685,37.0064177 C27.6588128,36.3052504 27.8091427,35.5616718 27.8091427,34.7565065 C27.8091427,32.7315147 26.4061839,32.0244787 25.6094355,32.0244787 C24.6568228,32.0244787 23.6868603,32.9841055 23.6868603,34.1825387 C23.6868603,34.9419149 23.9986404,35.3993285 24.4489608,35.3993285 C25.5258016,35.3993285 25.4603926,34.1880662 25.2457092,33.4249368 C25.9158871,33.8233227 26.305432,34.5345213 26.1983219,35.2845486 C26.5777504,35.3532664 26.9389025,35.591247 27.2721767,36.0880761 C27.0099489,36.5259048 26.6901117,36.8568695 26.1983219,36.8686409 C26.4131186,38.0321351 25.8239644,38.5242147 25.2457092,38.797107 C25.4286483,37.9431841 25.5487372,36.960458 24.4489608,36.960458 C23.6471156,36.960458 23.0157043,36.7767931 22.6476278,36.088042 C22.6259772,37.0063495 22.5610259,40.6338583 22.5610259,40.6338583 C22.5148381,41.996955 23.9408947,41.9579898 24.8473273,41.5521658 C24.5052496,43.122303 23.8036929,43.9712102 22.1800014,43.7561514 C22.5740511,43.9742537 22.9940738,44.4645522 22.9940738,45.4091321 C22.9938164,46.6872698 22.209604,48.1032525 21.6947757,48.5219057 L21.6708789,47.2865836 L21.6385577,48.9574056 C21.1237293,48.5387524 20.339517,47.1227697 20.3392595,45.8446321 C20.3392595,44.9000522 20.7592823,44.4097537 21.1533319,44.1916514 C19.5296404,44.4067101 18.8280838,43.5578029 18.4860061,41.9876657 C19.3924387,42.3934898 20.8184953,42.4324549 20.7723074,41.0693583 C20.7723074,41.0693583 20.7073562,37.4418494 20.6857056,36.523542 C20.317629,37.212293 19.6862178,37.3959579 18.8843725,37.3959579 C17.7845961,37.3959579 17.904685,38.378684 18.0876241,39.2326069 C17.5093689,38.9597146 16.9202147,38.4676351 17.1350114,37.3041408 C16.6432216,37.2923694 16.3233845,36.9614048 16.0611566,36.5235761 C16.3944308,36.026747 16.7555829,35.7887664 17.1350114,35.7200485 C17.0279014,34.9700213 17.4174463,34.2588226 18.0876241,33.8604367 C17.8729407,34.6235661 17.8075317,35.8348284 18.8843725,35.8348284 C19.3346929,35.8348284 19.646473,35.3774148 19.646473,34.6180387 C19.646473,33.4196055 18.6765106,32.4599786 17.7238979,32.4599786 C16.9271495,32.4599786 15.5241906,33.1670146 15.5241906,35.1920064 C15.5241906,35.9971717 15.6745205,36.7407503 15.9225648,37.4419176 C17.0711967,40.6890086 20.710091,50.8918052 21.5929676,53.3413832 L21.5929676,53.3413832 Z M21.5929676,53.3413832" fill="#E5B731" id="orn"/></g></g></g></svg>