<?xml version="1.0" ?><svg height="120px" version="1.1" viewBox="0 0 180 120" width="180px" xmlns="http://www.w3.org/2000/svg" xmlns:sketch="http://www.bohemiancoding.com/sketch/ns" xmlns:xlink="http://www.w3.org/1999/xlink"><title/><defs/><g fill="none" fill-rule="evenodd" id="Page-1" stroke="none" stroke-width="1"><g id="rectangle_north_korea"><rect fill="#FFFFFF" height="120" id="Rectangle-3" width="180" x="-6.89573744e-16" y="0"/><rect fill="#346DA6" height="26.6666667" id="Rectangle-3-copy-2" width="180" x="1.09984844e-15" y="93.3333333"/><rect fill="#CA4638" height="56.6666667" id="Rectangle-3-copy-3" width="180" x="0" y="33.3333333"/><rect fill="#346DA6" height="30" id="Rectangle-3" width="180" x="-6.89573744e-16" y="0"/><path d="M49.3070971,55.7535198 C49.7578304,57.2567143 50,58.8500762 50,60.5 C50,69.6126988 42.6126988,77 33.5,77 C24.3873012,77 17,69.6126988 17,60.5 C17,51.3873012 24.3873012,44 33.5,44 C40.9545939,44 47.254557,48.9435593 49.3003768,55.7311656 L38.623345,54.2062431 L33.8367336,44.6734694 L29.0501252,54.2062407 L18.3469388,55.7348933 L26.0918363,63.1551218 L24.2635147,73.6326531 L33.8367331,68.6858332 L43.4099519,73.6326531 L41.58163,63.1551238 L49.3070971,55.7535198 L49.3070971,55.7535198 L49.3070971,55.7535198 L49.3070971,55.7535198 Z" fill="#FFFFFF" id="Oval-159"/></g></g></svg>