<?xml version="1.0" ?><svg height="120px" version="1.1" viewBox="0 0 180 120" width="180px" xmlns="http://www.w3.org/2000/svg" xmlns:sketch="http://www.bohemiancoding.com/sketch/ns" xmlns:xlink="http://www.w3.org/1999/xlink"><title/><defs/><g fill="none" fill-rule="evenodd" id="Africa,-Middle-East-and-India" stroke="none" stroke-width="1"><g id="Africa,-Middle-Eest-and-India" transform="translate(0.000000, -1201.000000)"><g id="Israel" transform="translate(0.000000, 1201.000000)"><rect d="M0.00552366097,0 L0.00552366097,120 L180,120 L180,0 L0.00552366097,0 Z M0.00552366097,0" fill="#FFFFFF" height="120" id="Rectangle-3-copy-2" width="179.994476" x="0.00552366097" y="0"/><rect d="M0,90 L0,105 L180,105 L180,90 L0,90 Z M0,90" fill="#4086CD" height="15" id="Rectangle-3-copy-5" width="180" x="0" y="90"/><rect d="M0,15 L0,30 L180,30 L180,15 L0,15 Z M0,15" fill="#4086CD" height="15" id="Rectangle-3-copy-4" width="180" x="0" y="15"/><path d="M93.2617443,33.7216797 L70.507608,72.3590955 L116.015881,72.3590955 L93.2617443,33.7216797 Z M93.2617443,39.6109856 L75.8615224,69.1572447 L110.661966,69.1572447 L93.2617443,39.6109856 Z M93.2617443,39.6109856" fill="#4086CD" id="triangle"/><path d="M93.2617443,46.2141467 L70.507608,84.8515625 L116.015881,84.8515625 L93.2617443,46.2141467 Z M93.2617443,52.1034526 L75.8615224,81.6497117 L110.661966,81.6497117 L93.2617443,52.1034526 Z M93.2617443,52.1034526" fill="#4086CD" id="triangle-copy" transform="translate(93.261744, 65.532855) rotate(-180.000000) translate(-93.261744, -65.532855) "/></g></g></g></svg>