<?xml version="1.0" ?><svg height="120px" version="1.1" viewBox="0 0 180 120" width="180px" xmlns="http://www.w3.org/2000/svg" xmlns:sketch="http://www.bohemiancoding.com/sketch/ns" xmlns:xlink="http://www.w3.org/1999/xlink"><title/><defs/><g fill="none" fill-rule="evenodd" id="Asia-Pacific" stroke="none" stroke-width="1"><g id="Kyrgystan" transform="translate(-600.000000, -801.000000)"><g transform="translate(600.000000, 801.000000)"><rect d="M0,0 L0,120 L180,120 L180,0 L0,0 Z M0,0" fill="#CA4638" height="120" id="Rectangle-126" width="180" x="0" y="0"/><g id="Group" transform="translate(35.000000, 18.000000)"><path d="M43.3056223,20.7763434 C44.815747,22.8511218 42.1011351,23.9921982 39.0468114,21.3769366 C35.3582955,18.2186486 35.335574,11.3355231 31.3295108,7.87720579 C36.280994,8.52567105 37.63907,16.561569 41.7837407,19.388441 C41.8871935,19.459001 41.9860747,19.5292451 42.0804907,19.5990961 C38.9580666,15.8969339 39.9996396,9.11707891 36.5917916,5.08399509 C41.3808716,6.4990593 41.465136,14.6484719 45.1165587,18.0889098 C48.3037715,21.0919605 46.0296032,22.8389456 43.3056223,20.7763434 L43.3056223,20.7763434 Z M33.0991004,32.0304757 C35.68569,32.7829597 34.1739509,35.3763952 30.1102818,35.0514561 C25.2698148,34.6644026 21.205633,29.1091925 15.9319118,28.6660599 C20.3189042,26.2802705 26.1409931,31.9831915 31.1556958,31.8340026 C31.307062,31.8294995 31.452748,31.8285522 31.5928258,31.8309397 C31.5593004,31.823249 31.5256232,31.8153221 31.4917957,31.8071559 C26.7714713,30.6676519 23.6263526,24.5450576 18.486881,23.2823889 C23.1930819,21.6122493 28.0513578,28.1557332 33.0276595,28.7928535 C37.3895332,29.351308 36.5514196,32.1221429 33.0991004,32.0304757 L33.0991004,32.0304757 Z M68.6943777,63.2236566 C67.184253,61.1488782 69.8988649,60.0078018 72.9531886,62.6230634 C76.6417045,65.7813514 76.664426,72.6644769 80.6704892,76.1227942 C75.719006,75.4743289 74.36093,67.438431 70.2162593,64.611559 C70.1128065,64.540999 70.0139253,64.4707549 69.9195093,64.4009039 C73.0419334,68.1030661 72.0003604,74.8829211 75.4082084,78.9160049 C70.6191284,77.5009407 70.534864,69.3515281 66.8834413,65.9110902 C63.6962285,62.9080395 65.9703968,61.1610544 68.6943777,63.2236566 L68.6943777,63.2236566 Z M55.8930439,0 C57.1012691,5.15254237 53.0738516,10.7344633 54.2015285,15.4576271 C55.3292054,20.180791 59.2760746,20.180791 57.5845592,15.4576271 C55.8930439,10.7344633 59.5177196,3.43502825 55.8930439,0 Z M62.3804881,0.100229139 C62.7678029,5.37834324 57.9167647,10.2615145 58.2916925,15.1029359 C58.6666202,19.9443573 62.5648969,20.5617837 61.6330725,15.6321585 C60.7012481,10.7025334 65.4231813,4.05999071 62.3804881,0.100229139 Z M68.8339401,2.43191183 C68.3908075,7.70563297 62.8355974,11.7698148 62.4485439,16.6102818 C62.0614905,21.4507489 65.8151862,22.6703986 65.6659974,17.6556958 C65.5168085,12.6409931 71.2197295,6.81890425 68.8339401,2.43191183 Z M75.2176111,4.98688095 C73.9549424,10.1263526 67.8323481,13.2714713 66.6928441,17.9917957 C65.55334,22.7121201 69.0700262,24.5039612 69.7071465,19.5276595 C70.3442668,14.5513578 76.8877507,9.6930819 75.2176111,4.98688095 Z M80.4974306,7.75147132 C78.4463169,12.6301426 71.9070969,14.7787549 70.0432006,19.2627066 C68.1793044,23.7466582 71.3723886,26.0665697 72.78013,21.2512021 C74.1878714,16.4358345 81.4107959,12.6609985 80.4974306,7.75147132 Z M85.641885,11.7068562 C82.8528316,16.2045981 76.0580033,17.303798 73.5156101,21.4409671 C70.9732169,25.5781363 73.7640748,28.3689943 75.907774,23.8331311 C78.0514732,19.2972679 85.7759861,16.6988208 85.641885,11.7068562 Z M89.6227942,16.8295108 C86.1644769,20.835574 79.2813514,20.8582955 76.1230634,24.5468114 C72.9647754,28.2353272 75.2846869,31.4284114 78.111559,27.2837407 C80.938431,23.13907 88.9743289,21.780994 89.6227942,16.8295108 Z M93.4160049,23.0917916 C89.3735788,26.5075335 82.5716416,25.4532173 78.8752264,28.6022563 C75.1788112,31.7512953 76.9706523,35.2679815 80.4110902,31.6165587 C83.8515281,27.965136 92.0009407,27.8808716 93.4160049,23.0917916 Z M96.0019856,28.4626172 C91.4749888,31.2039309 84.9217261,29.0985376 80.7782017,31.63056 C76.6346772,34.1625824 77.8543269,37.916278 81.8236156,34.8480134 C85.7929044,31.7797488 93.8551661,32.9713709 96.0019856,28.4626172 Z M97.3663076,34.9082333 C92.4662097,36.9076185 86.3229846,33.8029899 81.8343782,35.6556489 C77.3457719,37.5083078 77.9631983,41.4065845 82.3636008,38.9970289 C86.7640034,36.5874733 94.5405945,39.0256401 97.3663076,34.9082333 Z M97.5,41.3930439 C92.3474576,42.6012691 86.7655367,38.5738516 82.0423729,39.7015285 C77.319209,40.8292054 77.319209,44.7760746 82.0423729,43.0845592 C86.7655367,41.3930439 94.0649718,45.0177196 97.5,41.3930439 Z M97.3997709,47.8804881 C92.1216568,48.2678029 87.2384855,43.4167647 82.3970641,43.7916925 C77.5556427,44.1666202 76.9382163,48.0648969 81.8678415,47.1330725 C86.7974666,46.2012481 93.4400093,50.9231813 97.3997709,47.8804881 Z M96.0680882,54.3339401 C90.794367,53.8908075 86.7301852,48.3355974 81.8897182,47.9485439 C77.0492511,47.5614905 75.8296014,51.3151862 80.8443042,51.1659974 C85.8590069,51.0168085 91.6810958,56.7197295 96.0680882,54.3339401 Z M93.513119,60.7176111 C88.3736474,59.4549424 85.2285287,53.3323481 80.5082043,52.1928441 C75.7878799,51.05334 73.9960388,54.5700262 78.9723405,55.2071465 C83.9486422,55.8442668 88.8069181,62.3877507 93.513119,60.7176111 Z M89.7485287,65.9974306 C84.8698574,63.9463169 82.7212451,57.4070969 78.2372934,55.5432006 C73.7533418,53.6793044 71.4334303,56.8723886 76.2487979,58.28013 C81.0641655,59.6878714 84.8390015,66.9107959 89.7485287,65.9974306 Z M85.7931438,71.141885 C81.2954019,68.3528316 80.196202,61.5580033 76.0590329,59.0156101 C71.9218637,56.4732169 69.1310057,59.2640748 73.6668689,61.407774 C78.2027321,63.5514732 80.8011792,71.2759861 85.7931438,71.141885 Z M69.0373828,81.5019856 C66.2960691,76.9749888 68.4014624,70.4217261 65.86944,66.2782017 C63.3374176,62.1346772 59.583722,63.3543269 62.6519866,67.3236156 C65.7202512,71.2929044 64.5286291,79.3551661 69.0373828,81.5019856 Z M62.5917667,82.8663076 C60.5923815,77.9662097 63.6970101,71.8229846 61.8443511,67.3343782 C59.9916922,62.8457719 56.0934155,63.4631983 58.5029711,67.8636008 C60.9125267,72.2640034 58.4743599,80.0405945 62.5917667,82.8663076 Z M56.1069561,84 C54.8987309,78.8474576 58.9261484,73.2655367 57.7984715,68.5423729 C56.6707946,63.819209 52.7239254,63.819209 54.4154408,68.5423729 C56.1069561,73.2655367 52.4822804,80.5649718 56.1069561,84 Z M49.6195119,82.8997709 C49.2321971,77.6216568 54.0832353,72.7384855 53.7083075,67.8970641 C53.3333798,63.0556427 49.4351031,62.4382163 50.3669275,67.3678415 C51.2987519,72.2974666 46.5768187,78.9400093 49.6195119,82.8997709 Z M43.1660599,81.5680882 C43.6091925,76.294367 49.1644026,72.2301852 49.5514561,67.3897182 C49.9385095,62.5492511 46.1848138,61.3296014 46.3340026,66.3443042 C46.4831915,71.3590069 40.7802705,77.1810958 43.1660599,81.5680882 Z M36.7823889,79.013119 C38.0450576,73.8736474 44.1676519,70.7285287 45.3071559,66.0082043 C46.44666,61.2878799 42.9299738,59.4960388 42.2928535,64.4723405 C41.6557332,69.4486422 35.1122493,74.3069181 36.7823889,79.013119 Z M31.5025694,76.2485287 C33.5536831,71.3698574 40.0929031,69.2212451 41.9567994,64.7372934 C43.8206956,60.2533418 40.6276114,57.9334303 39.21987,62.7487979 C37.8121286,67.5641655 30.5892041,71.3390015 31.5025694,76.2485287 Z M26.358115,71.2931438 C29.1471684,66.7954019 35.9419967,65.696202 38.4843899,61.5590329 C41.0267831,57.4218637 38.2359252,54.6310057 36.092226,59.1668689 C33.9485268,63.7027321 26.2240139,66.3011792 26.358115,71.2931438 Z M22.3772058,66.1704892 C25.8355231,62.164426 32.7186486,62.1417045 35.8769366,58.4531886 C39.0352246,54.7646728 36.7153131,51.5715886 33.888441,55.7162593 C31.061569,59.86093 23.0256711,61.219006 22.3772058,66.1704892 Z M18.5839951,60.9082084 C22.6264212,57.4924665 29.4283584,58.5467827 33.1247736,55.3977437 C36.8211888,52.2487047 35.0293477,48.7320185 31.5889098,52.3834413 C28.1484719,56.034864 19.9990593,56.1191284 18.5839951,60.9082084 Z M15.9980144,54.5373828 C20.5250112,51.7960691 27.0782739,53.9014624 31.2217983,51.36944 C35.3653228,48.8374176 34.1456731,45.083722 30.1763844,48.1519866 C26.2070956,51.2202512 18.1448339,50.0286291 15.9980144,54.5373828 Z M14.6336924,48.0917667 C19.5337903,46.0923815 25.6770154,49.1970101 30.1656218,47.3443511 C34.6542281,45.4916922 34.0368017,41.5934155 29.6363992,44.0029711 C25.2359966,46.4125267 17.4594055,43.9743599 14.6336924,48.0917667 Z M14.5,41.6069561 C19.6525424,40.3987309 25.2344633,44.4261484 29.9576271,43.2984715 C34.680791,42.1707946 34.680791,38.2239254 29.9576271,39.9154408 C25.2344633,41.6069561 17.9350282,37.9822804 14.5,41.6069561 Z M14.6002291,35.1195119 C19.8783432,34.7321971 24.7615145,39.5832353 29.6029359,39.2083075 C34.4443573,38.8333798 35.0617837,34.9351031 30.1321585,35.8669275 C25.2025334,36.7987519 18.5599907,32.0768187 14.6002291,35.1195119 Z M22.2514713,17.0025694 C27.1301426,19.0536831 29.2787549,25.5929031 33.7627066,27.4567994 C38.2466582,29.3206956 40.5665697,26.1276114 35.7512021,24.71987 C30.9358345,23.3121286 27.1609985,16.0892041 22.2514713,17.0025694 Z M26.2068562,11.858115 C30.7045981,14.6471684 31.803798,21.4419967 35.9409671,23.9843899 C40.0781363,26.5267831 42.8689943,23.7359252 38.3331311,21.592226 C33.7972679,19.4485268 31.1988208,11.7240139 26.2068562,11.858115 Z M42.9626172,2.49801436 C45.7039309,7.02501122 43.5985376,13.5782739 46.13056,17.7217983 C48.6625824,21.8653228 52.416278,20.6456731 49.3480134,16.6763844 C46.2797488,12.7070956 47.4713709,4.64483394 42.9626172,2.49801436 Z M49.4082333,0.13369239 C51.4076185,5.03379034 48.3029899,11.1770154 50.1556489,15.6656218 C52.0083078,20.1542281 55.9065845,19.5368017 53.4970289,15.1363992 C51.0874733,10.7359966 53.5256401,2.95940552 49.4082333,0.13369239 Z M49.4082333,0.13369239" fill="#E5B731" id="r1"/><circle cx="56.5" cy="41.5" d="M57,66 C70.2548347,66 81,55.2548347 81,42 C81,28.7451653 70.2548347,18 57,18 C43.7451653,18 33,28.7451653 33,42 C33,55.2548347 43.7451653,66 57,66 Z M57,66" fill="#CA4638" id="Path" r="23.5"/><circle cx="56" cy="39" d="M56,58 C66.4934108,58 75,49.4934108 75,39 C75,28.5065892 66.4934108,20 56,20 C45.5065892,20 37,28.5065892 37,39 C37,49.4934108 45.5065892,58 56,58 Z M56,58" fill="#E5B731" id="Path" r="19"/><path d="M43.0197119,52.8749638 C43.5260884,38.4471061 53.7331053,26.530673 67.2123571,23.6594537 C67.3750981,23.7786029 67.5358725,23.9002791 67.6946225,24.0244247 C54.6313849,27.5290979 45,39.6213443 45,54 C45,54.1658131 45.0012808,54.3313221 45.003833,54.4965175 C44.3060444,54.0004784 43.6431997,53.4584896 43.0197119,52.8749638 Z M43.0197119,52.8749638" fill="#CA4638" id="Oval-80"/><path d="M13.0197119,52.8749638 C13.5260884,38.4471061 23.7331053,26.530673 37.2123571,23.6594537 C37.3750981,23.7786029 37.5358725,23.9002791 37.6946225,24.0244247 C24.6313849,27.5290979 15,39.6213443 15,54 C15,54.1658131 15.0012808,54.3313221 15.003833,54.4965175 C14.3060444,54.0004784 13.6431997,53.4584896 13.0197119,52.8749638 Z M13.0197119,52.8749638" fill="#CA4638" id="Oval-80" transform="translate(41.000000, 51.500000) scale(-1, 1) translate(-41.000000, -51.500000) "/><path d="M46.0186951,56.095679 C46.006266,55.7320099 46,55.3667487 46,55 C46,40.611068 55.6451567,28.5118147 68.7226361,25.0169236 C68.8825176,25.1649548 69.0399358,25.315735 69.1948199,25.4691917 C56.9008524,29.4677887 48,41.1774008 48,55 C48,55.749572 48.0261745,56.4929304 48.0776453,57.2291825 C47.3666062,56.8939595 46.6791995,56.5150063 46.0186951,56.095679 Z M46.0186951,56.095679" fill="#CA4638" id="Oval-80-copy"/><path d="M12.0186951,56.095679 C12.006266,55.7320099 12,55.3667487 12,55 C12,40.611068 21.6451567,28.5118147 34.7226361,25.0169236 C34.8825176,25.1649548 35.0399358,25.315735 35.1948199,25.4691917 C22.9008524,29.4677887 14,41.1774008 14,55 C14,55.749572 14.0261745,56.4929304 14.0776453,57.2291825 C13.3666062,56.8939595 12.6791995,56.5150063 12.0186951,56.095679 Z M12.0186951,56.095679" fill="#CA4638" id="Oval-80-copy-2" transform="translate(38.500000, 52.000000) scale(-1, 1) translate(-38.500000, -52.000000) "/><path d="M50.0643218,58.0295669 C50.021661,57.3586348 50,56.6818885 50,56 C50,42.4864363 58.507304,30.9924347 70.3753911,26.7488852 C70.5386846,26.942625 70.6983224,27.1396999 70.8541942,27.3399972 C59.7870595,31.9908365 52,43.0711272 52,56 C52,56.8721683 52.0354367,57.7359242 52.1049264,58.5898616 C51.4100449,58.4412778 50.7290879,58.2537375 50.0643218,58.0295669 Z M50.0643218,58.0295669" fill="#CA4638" id="Oval-80-copy-2"/><path d="M13.0643218,58.0295669 C13.021661,57.3586348 13,56.6818885 13,56 C13,42.4864363 21.507304,30.9924347 33.3753911,26.7488852 C33.5386846,26.942625 33.6983224,27.1396999 33.8541942,27.3399972 C22.7870595,31.9908365 15,43.0711272 15,56 C15,56.8721683 15.0354367,57.7359242 15.1049264,58.5898616 C14.4100449,58.4412778 13.7290879,58.2537375 13.0643218,58.0295669 Z M13.0643218,58.0295669" fill="#CA4638" id="Oval-80-copy-3" transform="translate(37.000000, 52.500000) scale(-1, 1) translate(-37.000000, -52.500000) "/></g></g></g></g></svg>