<?xml version="1.0" ?><svg height="120px" version="1.1" viewBox="0 0 180 120" width="180px" xmlns="http://www.w3.org/2000/svg" xmlns:sketch="http://www.bohemiancoding.com/sketch/ns" xmlns:xlink="http://www.w3.org/1999/xlink"><title/><defs/><g fill="none" fill-rule="evenodd" id="Page-1" stroke="none" stroke-width="1"><g id="cuba"><rect d="M0,0 L0,120 L180,120 L180,0 L0,0 Z M0,0" fill="#FFFFFF" height="120" id="Rectangle-57" width="180" x="0" y="0"/><rect d="M0,96 L0,120 L180,120 L180,96 L0,96 Z M0,96" fill="#346DA6" height="24" id="Rectangle-42" width="180" x="0" y="96"/><rect d="M0,48 L0,72 L180,72 L180,48 L0,48 Z M0,48" fill="#346DA6" height="24" id="Rectangle-42" width="180" x="0" y="48"/><rect d="M0,0 L0,24 L180,24 L180,0 L0,0 Z M0,0" fill="#346DA6" height="24" id="Rectangle-42" width="180" x="0" y="0"/><path d="M90,60 L0,120 L0,0 L90,60 Z M90,60" fill="#CA4638" id="Path-2085"/><path d="M36.5000003,67 L27.8788064,71.3262387 L29.5253075,62.1631192 L22.5506141,55.6737624 L32.1894045,54.3368801 L36.5000008,46 L40.8105996,54.3368821 L50.4493894,55.6737691 L43.4746931,62.163121 L45.1211946,71.3262387 L36.5000003,67 Z M36.5000003,67" fill="#FFFFFF" id="Star-7"/></g></g></svg>