<?xml version="1.0" encoding="UTF-8" standalone="no"?>
<svg width="180px" height="120px" viewBox="0 0 180 120" version="1.1" xmlns="http://www.w3.org/2000/svg" xmlns:xlink="http://www.w3.org/1999/xlink">
    <!-- Generator: Sketch 40.2 (33826) - http://www.bohemiancoding.com/sketch -->
    <title>icon-flag-do</title>
    <desc>Created with Sketch.</desc>
    <defs></defs>
    <g id="Page-1" stroke="none" stroke-width="1" fill="none" fill-rule="evenodd">
        <g id="icon-flag-do">
            <rect id="Rectangle-57" fill="#FFFFFF" x="0" y="0" width="180" height="120"></rect>
            <rect id="Rectangle-53" fill="#CA4638" x="110" y="0" width="70" height="40"></rect>
            <rect id="Rectangle-53_1_" fill="#346DA6" x="0" y="0" width="70" height="40"></rect>
            <rect id="Rectangle-53_2_" fill="#346DA6" x="110" y="80" width="70" height="40"></rect>
            <path d="M91.7,60.8 L98.6,60.8 L98.6,66.4 C98.3,68.9 96.5,69.7 94.9,69.7 L91.7,69.7 L91.7,60.8 C91.7,60.8 91.7,63.7 91.7,60.8 L91.7,60.8 L91.7,60.8 L91.7,60.8 L91.7,60.8 L91.7,60.8 Z" id="path43087" fill="#002D62"></path>
            <path d="M88,60.8 L81.1,60.8 L81.1,66.4 C81.4,68.9 83.2,69.7 84.8,69.7 L88,69.7 L88,60.8 C88,60.8 88,63.7 88,60.8 L88,60.8 L88,60.8 L88,60.8 L88,60.8 L88,60.8 Z" id="path43087-9" fill="#CE1126"></path>
            <polygon id="path43119" fill="#CE1126" points="91.7 57.1 91.7 48.2 98.6 48.2 101 48.2 98.6 50.5 98.6 57.1 91.7 57.1 91.7 57.1 91.7 57.1"></polygon>
            <polygon id="path43119-6" fill="#002D62" points="88 57.1 88 48.2 81.1 48.2 78.7 48.2 81.1 50.5 81.1 57.1 88 57.1 88 57.1 88 57.1"></polygon>
            <polygon id="rect9935-6-0-0" fill="#EAC102" points="89.5 50.3 89.5 51.3 88.5 51.3 88.5 52.1 89.5 52.1 89.5 55.7 90.3 55.7 90.3 52.1 91.3 52.1 91.3 51.3 90.3 51.3 90.3 50.3 89.5 50.3 89.5 50.3 89.5 50.3"></polygon>
            <path d="M86.9,55.8 L87.8,56.9 L87.9,60.7 C87.6,61.4 87,61 87,61 L86.9,55.8 L86.9,55.8 L86.9,55.8 L86.9,55.8 L86.9,55.8 Z" id="rect9753-8-0-82-9-4-8-6" stroke="#000000" stroke-width="0.1" fill="#CE1126"></path>
            <path d="M87.9,61.2 L87.9,62.3 L87.9,62.3 L87.9,62.6 C87.1,63.4 86.8,62.2 86.8,62.2 C87.4,62.2 87.7,61.7 87.9,61.2 C87.9,61.2 87.7,61.7 87.9,61.2 L87.9,61.2 L87.9,61.2 L87.9,61.2 L87.9,61.2 L87.9,61.2 Z" id="rect9753-8-0-0-6-6-8" stroke="#000000" stroke-width="0.1" fill="#232973"></path>
            <path d="M83.8,59.3 C84.9,60.9 85.9,61.8 85.9,61.8 C86.2,64.4 87.4,63.5 87.8,63.1 C87.6,64.3 86.8,65.2 85.8,65.2 C84.7,65.2 83.8,63.9 83.8,62.3 L83.8,62.3 L83.8,62.3 L83.8,59.3 L83.8,59.3 L83.8,59.3 L83.8,59.3 L83.8,59.3 Z" id="rect9753-8-0-4-4-7-07-2" stroke="#000000" stroke-width="0.1" fill="#AA241E"></path>
            <path d="M87.9,61.3 L87.9,62.4 L87.9,62.4 L87.9,62.7 C87.1,63.5 86.8,62.3 86.8,62.3 C87.4,62.2 87.7,61.7 87.9,61.3 C87.9,61.3 87.7,61.7 87.9,61.3 L87.9,61.3 L87.9,61.3 L87.9,61.3 L87.9,61.3 L87.9,61.3 Z" id="rect9753-8-0-0-5-82-9" stroke="#000000" stroke-width="0.1" fill="#FF0000"></path>
            <path d="M83.8,59.3 C84.9,60.9 85.9,61.8 85.9,61.8 C86.2,64.4 87.4,63.5 87.8,63.1 C87.6,64.3 86.8,65.2 85.8,65.2 C84.7,65.2 83.8,63.9 83.8,62.3 L83.8,62.3 L83.8,62.3 L83.8,59.3 L83.8,59.3 L83.8,59.3 L83.8,59.3 L83.8,59.3 Z" id="rect9753-8-0-4-4-8-84-1" stroke="#000000" stroke-width="0.1" fill="#000080"></path>
            <path d="M83.2,64.1 C83.2,65.8 84.4,67.2 85.9,67.2 C87.4,67.2 88.6,65.8 88.6,64.1 L88.5,58.2 L83,52.6 L83.2,64.1 L83.2,64.1 L83.2,64.1 L83.2,64.1 L83.2,64.1 Z" id="rect9753-14-8-9-2-9" fill="#FFFFFF"></path>
            <path d="M87.4,57.1 L88.6,58.3 L88.7,62.4 C88.3,63.2 87.4,62.8 87.4,62.8 L87.4,57.1 L87.4,57.1 L87.4,57.1 L87.4,57.1 L87.4,57.1 Z" id="rect9753-8-0-82-7-17-6" stroke="#000000" stroke-width="0.1" fill="#CE1126"></path>
            <path d="M83.1,60.9 C84.6,62.7 86,63.6 86,63.6 C86.3,66.4 88,65.4 88.6,65 C88.3,66.3 87.2,67.2 86,67.2 C84.5,67.2 83.3,65.8 83.3,64.1 L83.3,64.1 L83.3,64.1 L83.1,60.9 L83.1,60.9 L83.1,60.9 L83.1,60.9 L83.1,60.9 Z" id="rect9753-8-0-4-2-36-9" fill="#CE1126"></path>
            <path d="M83.4,52.3 L83.5,63.8 L83.5,63.8 L83.5,63.8 C83.5,65.5 84.7,66.9 86.2,66.9 C87.7,66.9 88.9,65.5 88.9,63.8 L88.9,63.8 L88.9,58 L83.4,52.3 L83.4,52.3 L83.4,52.3 L83.4,52.3 L83.4,52.3 Z" id="rect9753-14-06-9-4"></path>
            <path d="M83.7,50.6 C83.4,50.1 83.4,49.9 83.5,49.7 L82.4,48.8 L82.9,50.2 C83.2,50.1 83.4,50.1 83.7,50.6 C83.7,50.6 83.4,50.1 83.7,50.6 L83.7,50.6 L83.7,50.6 L83.7,50.6 L83.7,50.6 L83.7,50.6 Z" id="path10045_11-4-8-7" fill="#EAC102"></path>
            <polygon id="_38574392-7-2-4" fill="#EAC102" points="88.4 56.8 88.2 57 83.4 50.5 83.6 50.3 88.4 56.8 88.4 56.8 88.4 56.8"></polygon>
            <path d="M83.2,50.4 C83.2,50.3 83.2,50.2 83.3,50.1 C83.4,50 83.5,50 83.6,50 C83.6,50.1 83.6,50.2 83.5,50.3 C83.4,50.5 83.3,50.5 83.2,50.4 C83.2,50.4 83.3,50.5 83.2,50.4 L83.2,50.4 L83.2,50.4 L83.2,50.4 L83.2,50.4 L83.2,50.4 Z" id="_38444776-7-53-1" stroke="#000000" stroke-width="0.1" fill="#EAC102"></path>
            <path d="M83.1,52.6 C82.8,52.2 82.7,52 82.8,51.7 L81.8,51 L82.4,52.3 C82.6,52.2 82.8,52.2 83.1,52.6 C83.1,52.6 82.8,52.2 83.1,52.6 L83.1,52.6 L83.1,52.6 L83.1,52.6 L83.1,52.6 L83.1,52.6 Z" id="path10045_11-12-8" fill="#EAC102"></path>
            <polygon id="_38574392-43-1" fill="#EAC102" points="88.2 57.8 82.8 52.4 83 52.2 88.4 57.6 88.2 57.8 88.2 57.8 88.2 57.8"></polygon>
            <path d="M82.7,52.5 C82.7,52.4 82.7,52.3 82.8,52.2 C82.9,52.1 83,52.1 83,52.1 C83,52.2 83,52.3 82.9,52.4 C82.8,52.5 82.7,52.5 82.7,52.5 L82.7,52.5 L82.7,52.5 L82.7,52.5 L82.7,52.5 L82.7,52.5 L82.7,52.5 Z" id="_38444776-9-7" stroke="#000000" stroke-width="0.1" fill="#EAC102"></path>
            <path d="M96.1,50 L96,62.3 L96,62.3 L96,62.3 C96,63.9 95.1,65.2 94,65.2 C92.9,65.2 92,63.9 92,62.4 L92,62.4 L92.1,57 L96.1,50 L96.1,50 L96.1,50 L96.1,50 L96.1,50 Z" id="rect9753-14-8-6-3-632-5-6" stroke="#000000" stroke-width="0.1" fill="#FFFFFF"></path>
            <polygon id="rect9753-8-0-8-2-7-54-41-5" fill="#002D62" points="96.1 49.5 93.9 53.6 93.9 60.4 96.1 57.8 96.1 49.5 96.1 49.5 96.1 49.5"></polygon>
            <path d="M92.9,55.3 L92,56.9 L92,60.7 C92.3,61.4 92.9,61 92.9,61 L92.9,61 L92.9,55.3 L92.9,55.3 L92.9,55.3 L92.9,55.3 L92.9,55.3 Z" id="rect9753-8-0-82-9-4-8-6-3" stroke="#000000" stroke-width="0.1" fill="#CE1126"></path>
            <path d="M92,61.3 L92,62.4 L92,62.4 L92,62.7 C92.8,63.5 93.1,62.3 93.1,62.3 C92.4,62.2 92.1,61.7 92,61.3 C92,61.3 92.1,61.7 92,61.3 L92,61.3 L92,61.3 L92,61.3 L92,61.3 L92,61.3 Z" id="rect9753-8-0-0-6-6-8-3" stroke="#000000" stroke-width="0.1" fill="#232973"></path>
            <path d="M96.1,59.3 C94.9,61 94,61.8 94,61.8 C93.7,64.4 92.5,63.5 92.1,63.1 C92.3,64.3 93.1,65.2 94.1,65.2 C95.2,65.2 96.1,63.9 96.1,62.3 L96.1,62.3 L96.1,62.3 L96.1,59.3 L96.1,59.3 L96.1,59.3 L96.1,59.3 L96.1,59.3 Z" id="rect9753-8-0-4-4-7-07-2-5" stroke="#000000" stroke-width="0.1" fill="#AA241E"></path>
            <path d="M96.1,49.5 L96,62.3 L96,62.3 L96,62.3 C96,63.9 95.1,65.2 94,65.2 C92.9,65.2 92,63.9 92,62.4 L92,62.4 L92.1,57 L96.1,49.5 L96.1,49.5 L96.1,49.5 L96.1,49.5 L96.1,49.5 Z" id="rect9753-14-9-1-6-4-2" stroke="#000000" stroke-width="0.1"></path>
            <path d="M92,61.3 L92,62.4 L92,62.4 L92,62.7 C92.8,63.5 93.1,62.3 93.1,62.3 C92.4,62.2 92.1,61.8 92,61.3 C92,61.3 92.1,61.8 92,61.3 L92,61.3 L92,61.3 L92,61.3 L92,61.3 L92,61.3 Z" id="rect9753-8-0-0-5-82-9-4" stroke="#000000" stroke-width="0.1" fill="#FF0000"></path>
            <path d="M96.1,59.4 C94.9,61 94,61.9 94,61.9 C93.7,64.5 92.5,63.6 92.1,63.2 C92.3,64.4 93.1,65.3 94.1,65.3 C95.2,65.3 96.1,64 96.1,62.4 L96.1,62.4 L96.1,62.4 L96.1,59.4 L96.1,59.4 L96.1,59.4 L96.1,59.4 L96.1,59.4 Z" id="rect9753-8-0-4-4-8-84-1-5" stroke="#000000" stroke-width="0.1" fill="#000080"></path>
            <path d="M96.8,52.6 L96.7,64.1 L96.7,64.1 L96.7,64.1 C96.7,65.8 95.5,67.2 94,67.2 C92.5,67.2 91.3,65.8 91.3,64.1 L91.3,64.1 L91.4,58.2 L96.8,52.6 L96.8,52.6 L96.8,52.6 L96.8,52.6 L96.8,52.6 Z" id="rect9753-14-8-9-2-9-8" fill="#FFFFFF"></path>
            <polygon id="rect9753-8-0-8-3-7-0-5" fill="#002D62" points="96.8 52.7 93.8 55.8 93.8 62.1 96.8 59.3 96.8 52.7 96.8 52.7 96.8 52.7"></polygon>
            <path d="M92.5,57.1 L91.3,58.3 L91.2,62.4 C91.6,63.2 92.5,62.8 92.5,62.8 L92.5,57.1 L92.5,57.1 L92.5,57.1 L92.5,57.1 L92.5,57.1 Z" id="rect9753-8-0-82-7-17-6-7" stroke="#000000" stroke-width="0.1" fill="#CE1126"></path>
            <path d="M95.6,48.3 C96,48.7 96,49 95.9,49.2 L97,50 L96.4,48.6 C96.1,48.8 95.9,48.8 95.6,48.3 C95.6,48.3 95.9,48.8 95.6,48.3 L95.6,48.3 L95.6,48.3 L95.6,48.3 L95.6,48.3 L95.6,48.3 Z" id="path10045_11-4-8-7-copy" fill="#EAC102"></path>
            <polygon id="_38574392-7-2-4-copy" fill="#EAC102" points="91.1 50.4 91.3 50.2 96.8 56.1 96.6 56.3 91.1 50.4 91.1 50.4 91.1 50.4"></polygon>
            <path d="M96.1,49.8 C96.1,49.7 96.1,49.6 96,49.5 C95.9,49.4 95.8,49.4 95.7,49.4 C95.7,49.5 95.7,49.6 95.8,49.7 C95.9,49.8 96,49.9 96.1,49.8 C96.1,49.8 96,49.9 96.1,49.8 L96.1,49.8 L96.1,49.8 L96.1,49.8 L96.1,49.8 L96.1,49.8 Z" id="_38444776-7-53-1-copy" stroke="#000000" stroke-width="0.1" fill="#EAC102"></path>
            <path d="M96.5,51.5 C96.7,52 96.7,52.2 96.5,52.4 L97.4,53.3 L97.1,51.9 C96.9,52 96.7,52 96.5,51.5 C96.5,51.5 96.7,52 96.5,51.5 L96.5,51.5 L96.5,51.5 L96.5,51.5 L96.5,51.5 L96.5,51.5 Z" id="path10045_11-12-8-copy" fill="#EAC102"></path>
            <polygon id="_38574392-43-1-copy" fill="#EAC102" points="93 51.3 96.5 58.1 96.3 58.2 92.8 51.4 93 51.3 93 51.3 93 51.3"></polygon>
            <path d="M96.8,53 C96.8,52.9 96.8,52.8 96.7,52.7 C96.6,52.6 96.5,52.6 96.5,52.6 C96.5,52.7 96.5,52.8 96.6,52.9 C96.6,53 96.7,53 96.8,53 C96.8,53 96.7,53 96.8,53 L96.8,53 L96.8,53 L96.8,53 L96.8,53 L96.8,53 Z" id="_38444776-9-7-copy" stroke="#000000" stroke-width="0.1" fill="#EAC102"></path>
            <path d="M91.2,63 L91.2,64.2 L91.2,64.2 L91.2,64.5 C92.3,65.3 92.6,64.1 92.6,64.1 C91.8,64 91.4,63.5 91.2,63 C91.2,63 91.4,63.5 91.2,63 L91.2,63 L91.2,63 L91.2,63 L91.2,63 L91.2,63 Z" id="rect9753-8-0-13-8-6-4" stroke="#000000" stroke-width="0.1" fill="#002D62"></path>
            <path d="M96.7,60.9 C95.2,62.7 93.8,63.6 93.8,63.6 C93.5,66.4 91.8,65.4 91.2,65 C91.5,66.3 92.6,67.2 93.8,67.2 C95.3,67.2 96.5,65.8 96.5,64.1 L96.5,64.1 L96.5,64.1 L96.7,60.9 L96.7,60.9 L96.7,60.9 L96.7,60.9 L96.7,60.9 Z" id="rect9753-8-0-4-2-36-9-6" fill="#CE1126"></path>
            <path d="M88.8,62.7 C88.7,62.9 88.6,64.3 88.6,64.4 C88.8,64.9 89.8,64.9 90.4,64.9 L90.5,62 C90.3,62.1 89,62.6 88.8,62.7 C88.8,62.7 89,62.6 88.8,62.7 L88.8,62.7 L88.8,62.7 L88.8,62.7 L88.8,62.7 L88.8,62.7 Z" id="_x38_4-9-9-1" stroke="#000000" stroke-width="0.1" fill="#002D62"></path>
            <path d="M91,66.2 C90.8,63.7 90.6,61.9 90.6,61.9 L89.8,62.5 C89.5,62.4 89.1,62.4 88.8,62.4 L88.6,63.8 L88.6,62.9 C88.4,63.4 88,63.9 87.2,64 C87.2,64 87.5,65.2 88.6,64.4 L88.4,66.7 C88.6,66.7 88.8,66.8 88.9,66.8 L88.9,67 L88.8,67.1 C88.7,67.9 89.5,67.8 89.5,67.8 C90.1,67.8 90.2,67.4 90.2,67.1 L90.3,67.1 C91.3,67.5 91,66.2 91,66.2 L91,66.2 Z M88.6,63 C88.6,63.1 88.6,63.1 88.5,63.1 C88.6,63.1 88.6,63 88.6,63 L88.6,63 Z M88.4,66.8 L88.4,66.8 L88.4,66.8 L88.4,66.8 Z" id="Shape" stroke="#000000" stroke-width="0.1" fill="#002D62"></path>
            <path d="M89.3,62.6 C89.2,65.4 89.2,65.6 89.2,65.6 C89.2,66.4 90.1,65.9 90.1,65.9 C90.3,65.8 90.5,65.9 90.5,65.9 L90.5,65 C92,64.9 91.6,64.1 91.6,64.1 C91,61.5 91,61.6 91,61.6 L91,61.6 L89.3,62.6 L89.3,62.6 L89.3,62.6 L89.3,62.6 L89.3,62.6 Z" id="path6920-0-2" stroke="#000000" stroke-width="0.1" fill="#CE1126"></path>
            <path d="M90,62.4 L90.5,62 L91,66.5 L91,66.5 C91,67.3 90.3,67.1 90.3,67.1 L90,62.4 L90,62.4 L90,62.4 L90,62.4 L90,62.4 Z" id="path33568-8-5" stroke="#000000" stroke-width="0.1" fill="#FFFFFF"></path>
            <path d="M95,59.2 L94.5,58.5 L91.4,54.6 L90,55.6 L89.2,56.2 L89.1,56.3 C89.1,56.3 86.9,57.8 86.6,57.6 C86.3,57.4 86.1,57.3 86.1,57.3 L86.2,57.9 L89.1,62.7 L95,59.2 L95,59.2 L95,59.2 L95,59.2 L95,59.2 Z" id="path10371-5-9-4-7-9" stroke="#000000" stroke-width="0.1" fill="#000000"></path>
            <polygon id="rect10332-4-8-1-8-4" stroke="#000000" stroke-width="0.1" fill="#FFFFFF" points="86.3 58.1 91.7 55.1 94.8 59.2 89.1 62.7 86.3 58.1 86.3 58.1 86.3 58.1"></polygon>
            <polygon id="path10360-1-9-2-8-0" stroke="#000000" stroke-width="0.1" fill="#000000" points="89.1 62.4 94.8 59 91.7 55 86.3 58 89.1 62.4 89.1 62.4 89.1 62.4"></polygon>
            <path d="M92,60.8 L89.3,56.3 C88.4,55.9 87.4,57.1 87.1,57.3 C86.8,57.5 86.2,57.4 86.2,57.4 L86.2,57.4 L88.8,62.1 C89.6,62.4 90.1,61.5 90.5,61.2 C91.2,60.7 92,60.8 92,60.8 L92,60.8 L92,60.8 L92,60.8 L92,60.8 L92,60.8 Z" id="path9520-6-1-9-4-0-9" stroke="#000000" stroke-width="0.1" fill="#FFFFFF"></path>
            <path d="M91.9,60.7 L89.3,56.2 C89.3,55.2 90.6,55 91,54.8 C91.3,54.6 91.5,54 91.5,54 L91.5,54 L94.4,58.5 C94.3,59.4 93.2,59.4 92.8,59.6 C92,60.1 91.9,60.7 91.9,60.7 L91.9,60.7 L91.9,60.7 L91.9,60.7 L91.9,60.7 L91.9,60.7 Z" id="path9520-6-0-5-9-9-0-9" stroke="#000000" stroke-width="0.1" fill="#FFFFFF"></path>
            <path d="M89.1,62.9 C89.1,62.6 89,62.2 89,62.2 C87.3,59.1 86.4,57.5 86.4,57.5 L86.4,58 C88.3,61.2 89.1,62.9 89.1,62.9 L89.1,62.9 L89.1,62.9 L89.1,62.9 L89.1,62.9 L89.1,62.9 Z" id="path10334-6-5-8-2-5" stroke="#000000" stroke-width="0.1" fill="#FFFFFF"></path>
            <g id="Group" transform="translate(72.000000, 39.000000)" fill="#002D62">
                <path d="M13,2.7 C13,2.5 13,2.6 13,2.7 L13,2.7 L13,2.7 Z" id="Shape"></path>
                <path d="M13,2.9 L13,2.7 L13,2.9 L13,2.9 Z" id="Shape"></path>
                <path d="M35.3,8.9 C34.9,8.4 33.9,7.8 33.2,7.5 L30.7,6.6 C30.7,6.5 30.8,6.5 30.8,6.3 C30.9,6 31,5.7 30.8,5.4 C30.5,4.9 28.4,3.8 27.8,3.7 C26.9,3.5 26,3.3 25.1,3.1 C24.2,3 22.5,2.8 22.5,2.8 C22.4,2.7 22.7,2 22.2,1.5 C21.9,1.2 21.4,1.2 20.9,1.1 C19,0.9 16.4,1 14.5,1.1 C13.9,1.1 13.6,1.2 13.2,1.5 C13,2 12.9,2.2 13,2.9 C10.4,2.9 7.8,3.4 5.7,4.8 C4.7,5.4 4.5,5.6 5,6.6 C4.9,6.7 4,7 3.7,7 C3.3,7.1 2.9,7.3 2.5,7.5 C2.1,7.7 1.7,7.8 1.4,8.1 C1,8.4 0.8,8.5 0.5,8.9 L2.6,8.7 C2.5,8.8 2.4,9 2.3,9.2 C1.9,9.7 1.7,10.1 1.4,10.6 C1.5,10.5 1.7,10.4 1.8,10.3 C2.2,10 2.7,9.7 3.2,9.5 C4.7,8.8 7.3,8.7 8.4,7.4 C8.7,7.1 8.5,6.9 8.3,6.3 C9.1,6 9.4,5.8 10.4,5.6 C12.8,5.1 14.4,5.7 15.5,5.4 C15.9,5.3 16.2,5.1 16.2,4.7 L16,3.5 L19.8,3.5 C19.8,4.2 19.2,5 20.3,5.4 C21.4,5.7 23.6,5.1 25.4,5.6 L27.5,6.3 C27.5,6.4 27.3,6.7 27.3,6.8 C27.2,7 27.2,7.2 27.4,7.3 C27.6,7.5 27.9,7.8 28.2,7.9 C28.8,8.2 29.6,8.5 30.4,8.7 C32.6,9.2 32.8,9.4 34.4,10.5 C34.3,10.2 33.5,9 33.2,8.6 L35.3,8.9 L35.3,8.9 Z" id="Shape"></path>
            </g>
            <path d="M90.6,40.6 L90.4,40.6 L90.2,40.6 C90,40.6 90.1,40.6 90.2,40.7 L90.2,40.7 L90.2,40.9 L90.2,41.8 L90.2,41.8 L90.2,41.9 L90.2,41.9 C90.2,41.9 90.2,41.9 90.1,41.9 L90.6,41.9 C90.6,41.9 90.6,41.8 90.5,41.8 L90.5,41.3 L90.6,41.3 L90.6,41.3 L90.6,41.4 L90.6,41.5 C90.6,41.5 90.6,41.6 90.7,41.6 L90.7,41.6 L90.7,41.7 C90.7,41.7 90.7,41.7 90.7,41.8 L90.9,41.9 L90.9,41.9 L90.9,41.9 L90.9,41.9 L91,41.9 C91,41.8 91,41.8 90.9,41.8 L90.9,41.8 L90.9,41.8 L90.9,41.8 L90.9,41.8 L90.9,41.8 L90.9,41.8 L90.9,41.8 L91,41.6 L91,41.5 L91,41.4 L91,41.4 C91.1,41.4 91.1,41.4 91.1,41.3 L91.1,41.3 L91.1,41.3 L91.1,41.3 L91.2,41.2 L91.2,41.1 L91.2,40.9 L91.2,40.9 L91.2,40.9 L91.2,40.9 L91.2,40.9 L91.2,40.9 L91.2,40.9 L91.2,40.9 C91.2,40.9 91.1,40.9 91.1,40.8 C91.1,40.8 91.1,40.8 91,40.8 L91,40.8 L90.9,40.8 L90.9,40.8 L90.9,40.8 C90.8,40.6 90.7,40.6 90.6,40.6 L90.6,40.6 L90.6,40.6 L90.6,40.6 L90.6,40.6 L90.6,40.6 L90.6,40.6 Z M90.7,40.7 L90.8,40.7 L90.9,40.8 L90.9,40.8 C90.9,40.8 90.9,40.8 90.9,40.9 L90.9,40.9 L90.9,41 L90.9,41.1 C90.9,41.2 90.9,41.1 90.8,41.2 C90.8,41.2 90.7,41.2 90.7,41.3 L90.4,41.3 L90.4,40.9 L90.4,40.7 L90.7,40.7 C90.7,40.8 90.7,40.7 90.7,40.7 L90.7,40.7 L90.7,40.7 L90.7,40.7 L90.7,40.7 L90.7,40.7 L90.7,40.7 Z" id="_x32_-7-9-0" fill="#EAC102"></path>
            <path d="M87,40.8 L86.8,40.8 L86.8,40.8 C86.8,40.8 86.8,40.8 86.7,40.8 L86.7,40.8 L86.7,40.8 L86.6,40.8 L86.6,40.8 L86.6,40.8 L86.4,40.8 L86.4,40.8 L86.4,40.8 L86.4,40.8 L86.4,40.8 C86.4,40.9 86.4,40.8 86.4,40.8 L86.4,41.1 C86.4,41.1 86.4,41.1 86.4,41.2 L86.4,41.4 C86.4,41.4 86.4,41.4 86.4,41.5 L86.4,41.8 L86.4,42 L86.4,42 L86.4,42 L86.4,42 L86.4,42 L86.4,42 L86.6,42 L86.7,42 L86.8,42 L86.8,42 C86.8,42 86.7,42 86.7,41.9 L86.7,41.5 L86.8,41.5 L86.9,41.5 L87,41.5 L87.1,41.5 C87.2,41.5 87.2,41.4 87.3,41.4 C87.3,41.4 87.3,41.4 87.4,41.3 L87.4,41.3 L87.4,41.2 L87.4,41 L87.4,41 L87.4,40.9 L87.3,40.8 L87.3,40.8 L87.3,40.8 C87.3,40.8 87.3,40.8 87.2,40.8 L87.2,40.8 C87.1,40.8 87.2,40.8 87.1,40.8 C87.1,40.8 87.1,40.8 87,40.8 L87,40.8 L87,40.8 L87,40.8 L87,40.8 L87,40.8 L87,40.8 Z M87,40.9 L87,40.9 L87.1,40.9 L87.1,41 C87.2,41.1 87.1,41 87.1,41.1 L87.1,41.1 L87.1,41.1 L87.1,41.3 L87.1,41.3 L87.1,41.3 L87.1,41.3 L87.1,41.3 L87.1,41.3 C87.1,41.3 87.1,41.3 87,41.3 C87,41.3 87,41.3 86.9,41.3 L86.9,41.3 L86.8,41.3 L86.8,41.1 L86.8,40.9 L86.8,40.9 L86.8,40.9 L86.8,40.9 L86.8,40.8 C86.8,40.9 86.9,40.9 87,40.9 C87,40.9 86.9,40.9 87,40.9 L87,40.9 L87,40.9 L87,40.9 L87,40.9 L87,40.9 Z" id="_x33_-53-0-7" fill="#EAC102"></path>
            <path d="M88.1,40.7 L88,40.7 L88,40.8 L88,41 L88,41 L88,41.1 L88,41.2 L88,41.4 L88,41.4 L88,41.4 C88,41.4 88,41.4 88,41.5 L88,41.5 L88,41.5 L88,41.6 L88,41.7 C88,41.7 88,41.7 88,41.8 L88,41.9 L88,41.9 L88,41.9 L88,41.9 L88,41.9 L88.4,41.9 C88.4,41.8 88.4,41.9 88.3,41.8 L88.3,41.5 L88.7,41.5 C88.7,41.5 88.7,41.5 88.7,41.6 L88.7,41.6 C88.7,41.6 88.7,41.6 88.7,41.7 L88.7,41.8 C88.7,41.8 88.7,41.8 88.7,41.9 L88.9,41.9 L88.9,41.9 L89.1,41.9 L89,41.8 L89,41.8 L89,41.8 L89,41.8 L89,41.7 L88.9,41.5 L88.9,41.5 L88.9,41.4 L88.9,41.3 L88.9,41.3 L88.9,41.1 L88.9,41.1 L88.9,41 L88.9,40.9 L88.9,40.9 L88.9,40.8 L88.9,40.8 L88.9,40.7 C88.2,40.7 88.2,40.7 88.1,40.7 L88.1,40.7 L88.1,40.7 L88.1,40.7 L88.1,40.7 L88.1,40.7 L88.1,40.7 Z M88.1,41 L88.1,41 C88.1,41.1 88.1,41.1 88.1,41 C88.1,41.1 88.2,41.3 88.2,41.3 L88.3,41.5 C88.3,41.5 88.3,41.5 88.3,41.6 L88,41.6 C88,41.5 88,41.6 88,41.5 L88,41.4 L88,41.3 L88,41.3 L88,41.2 C88,41.2 88,41.1 88.1,41 L88.1,41 C88.1,41.1 88.1,41.1 88.1,41 L88.1,41 L88.1,41 L88.1,41 L88.1,41 L88.1,41 L88.1,41 Z" id="_x34_-4-5-0" fill="#EAC102"></path>
            <path d="M92.8,40.8 C92.8,40.9 92.8,40.9 92.8,40.8 C92.8,40.9 92.8,40.9 92.8,40.8 L92.7,41 L92.7,41 L92.7,41.1 L92.7,41.2 L92.7,41.2 C92.7,41.2 92.7,41.3 92.6,41.4 L92.6,41.5 C92.6,41.5 92.6,41.5 92.6,41.6 L92.6,41.7 C92.6,41.7 92.6,41.7 92.6,41.8 C92.6,41.8 92.6,41.9 92.5,41.9 C92.5,41.9 92.5,41.9 92.4,42 L92.4,42 L92.4,42 L92.4,42 L92.4,42 L92.4,42 L92.5,42 L92.5,42 L92.7,42 L92.7,42 L92.7,42 L92.7,42 C92.7,42 92.7,42 92.7,41.9 L92.7,41.9 L92.7,41.9 L92.7,41.9 L92.8,41.8 L93.2,41.8 C93.2,41.8 93.2,41.8 93.2,41.9 C93.2,42 93.2,41.9 93.2,42 L93.2,42.2 L93.2,42.2 L93.2,42.2 L93.3,42.2 L93.3,42.2 L93.6,42.2 L93.6,42.2 L93.6,42.2 L93.6,42.2 L93.6,42.2 L93.6,42.2 L93.6,42.1 L93.6,42 C93.6,42 93.6,42 93.6,41.9 L93.6,41.7 L93.6,41.6 L93.6,41.5 L93.6,41.4 L93.6,41.3 L93.6,41.1 L93.6,41 C93.6,41 93.6,41 93.6,40.9 L93.5,40.9 C92.9,40.8 93,40.8 92.8,40.8 L92.8,40.8 L92.8,40.8 L92.8,40.8 L92.8,40.8 L92.8,40.8 L92.8,40.8 Z M92.8,41.1 L92.8,41.1 L92.8,41.3 L92.8,41.3 L92.8,41.5 C92.8,41.5 92.8,41.5 92.8,41.6 L92.8,41.6 L92.8,41.7 C92.6,41.7 92.8,41.7 92.5,41.7 C92.5,41.6 92.5,41.7 92.5,41.6 C92.5,41.6 92.5,41.6 92.5,41.5 L92.5,41.5 L92.5,41.5 L92.6,41.3 L92.6,41.3 C92.6,41.3 92.6,41.3 92.6,41.2 C92.8,41.2 92.8,41.2 92.8,41.1 L92.8,41.1 L92.8,41.1 L92.8,41.1 L92.8,41.1 L92.8,41.1 L92.8,41.1 L92.8,41.1 L92.8,41.1 Z" id="_x35_-5-7-7" fill="#EAC102"></path>
            <path d="M89.4,40.7 L88.8,40.7 L88.8,40.8 L88.8,40.8 L88.8,40.8 L88.8,41 L88.8,41 L88.9,40.9 L88.9,40.9 L89,40.8 L89.2,40.8 L89.2,41 L89.2,42 L89.2,42 L89.2,42 L89.2,42 L89.6,42 L89.6,42 C89.6,41.9 89.5,42.1 89.5,41.6 L89.5,40.8 L89.5,40.8 L89.6,40.8 L89.7,40.9 L89.7,40.9 L89.8,41 L89.8,41 L89.8,41 L89.8,40.9 L89.8,40.7 C89.6,40.7 89.6,40.7 89.4,40.7 L89.4,40.7 L89.4,40.7 L89.4,40.7 L89.4,40.7 L89.4,40.7 L89.4,40.7 Z" id="_x36_-1-2-1" fill="#EAC102"></path>
            <path d="M91.7,40.9 L91.7,40.9 L91.7,41.1 L91.7,41.3 L91.7,41.9 L91.7,42 C91.7,42 91.7,42 91.7,42.1 C91.7,42.1 91.7,42.1 91.6,42.2 L91.7,42.2 L91.7,42.2 L92,42.2 C92,42.1 92,42.2 92,42.2 L92,42.2 L92,42.2 L92,42.1 C92,42.1 92,42.1 92,42 L92,41.5 L92,41.1 C92,41.1 92,41.1 92,41 L92,41 L92,41 L92,40.9 L91.8,40.9 L91.8,40.9 L91.6,40.9 L91.6,40.9 L91.7,40.9 C91.7,40.8 91.7,40.8 91.7,40.9 C91.7,40.8 91.7,40.8 91.7,40.9 C91.7,40.9 91.7,40.8 91.7,40.9 L91.7,40.9 L91.7,40.9 L91.7,40.9 L91.7,40.9 L91.7,40.9 Z" id="_x37_-86-5-1" fill="#EAC102"></path>
            <path d="M101.6,44.3 C101.6,44.5 101.7,44.3 101.5,44.6 L101.5,44.7 C101.5,44.7 101.5,44.7 101.5,44.8 C101.5,44.9 101.5,44.9 101.4,44.9 C101.3,45 101.3,45.1 101.2,45.2 L101.1,45.4 C101.1,45.4 101.1,45.4 101,45.4 L101,45.4 L101,45.4 L101.1,45.5 L101.1,45.5 L101.4,45.8 C101.4,45.8 101.4,45.8 101.5,45.9 C101.6,46 101.7,46 101.8,46 C101.9,46 102,45.9 102,45.9 C102,45.9 102.1,45.9 102.1,45.7 C102.2,45.5 102.1,45.6 102.2,45.4 L102.2,45.3 C102.2,45.1 102.2,45 102.1,44.9 C102,44.8 102,44.7 101.9,44.6 L101.8,44.5 L101.8,44.5 L101.6,44.3 C101.7,44.4 101.7,44.4 101.6,44.3 L101.6,44.3 L101.6,44.3 L101.6,44.3 L101.6,44.3 L101.6,44.3 Z M101.8,44.6 C101.8,44.6 101.9,44.6 101.9,44.7 C102.1,44.9 101.9,45.3 101.8,45.4 L101.8,45.5 L101.8,45.5 C101.8,45.5 101.8,45.5 101.8,45.6 L101.8,45.6 C101.7,45.7 101.6,45.7 101.5,45.7 C101.4,45.6 101.4,45.6 101.4,45.5 C101.4,45.4 101.5,45.2 101.6,45.1 L101.6,45 C101.6,45 101.6,45 101.6,44.9 C101.6,44.9 101.6,44.9 101.6,44.8 C101.6,44.7 101.6,44.7 101.7,44.7 C101.7,44.8 101.7,44.7 101.8,44.6 C101.8,44.7 101.8,44.6 101.8,44.6 L101.8,44.6 L101.8,44.6 L101.8,44.6 L101.8,44.6 L101.8,44.6 L101.8,44.6 L101.8,44.6 Z" id="_x32_-2-6-9" fill="#EAC102"></path>
            <path d="M96.2,42.5 C96.2,42.6 96.2,42.5 96.2,42.6 L96.2,42.8 L96.2,43.1 L96.2,43.2 L96.2,43.5 C96.2,43.5 96.2,43.5 96.2,43.6 L96.2,43.6 L96.5,43.6 C96.7,43.6 96.7,43.7 96.9,43.6 C97.1,43.5 97.1,43.3 97,43.2 L97,43.2 L97,43.2 L96.9,43.1 L96.9,43.1 L96.8,43.1 C97,43.1 97.1,42.8 97,42.7 L96.9,42.6 L96.8,42.5 L96.2,42.5 L96.2,42.5 L96.2,42.5 L96.2,42.5 L96.2,42.5 L96.2,42.5 L96.2,42.5 Z M96.5,42.6 L96.7,42.6 C96.8,42.7 96.8,42.8 96.7,42.9 L96.7,42.9 L96.7,42.9 L96.5,42.9 L96.5,42.7 C96.5,42.7 96.5,42.6 96.5,42.6 L96.5,42.6 L96.5,42.6 L96.5,42.6 L96.5,42.6 L96.5,42.6 L96.5,42.6 Z M96.5,43.1 L96.7,43.1 C96.8,43.2 96.8,43.2 96.8,43.3 C96.8,43.3 96.8,43.3 96.8,43.4 L96.8,43.5 C96.7,43.6 96.6,43.6 96.6,43.5 C96.4,43.4 96.4,43.2 96.5,43.1 C96.5,43.1 96.4,43.2 96.5,43.1 L96.5,43.1 L96.5,43.1 L96.5,43.1 L96.5,43.1 L96.5,43.1 Z" id="_x33_-8-1-0" fill="#EAC102"></path>
            <path d="M98.4,43 C98.4,43.1 98.5,43 98.4,43.1 L98.4,43.2 L98.4,43.3 C98.4,43.4 98.3,43.6 98.3,43.7 L98.3,43.8 L98.3,43.8 L98.2,43.8 C98.2,43.8 98.3,43.8 98.4,43.9 L98.6,43.9 L98.6,43.9 L98.6,43.7 L98.6,43.6 L98.6,43.6 L98.6,43.6 L98.7,43.6 C98.7,43.6 98.7,43.6 98.7,43.7 C98.7,43.7 98.7,43.9 98.8,43.9 L98.8,43.9 L98.8,43.9 L98.9,44 C98.9,44 99,44.1 99.1,44.1 C99.1,44.1 99.1,44 99,44 C99,44 99,44 99,43.9 C99,43.9 99,43.9 99,43.8 L99,43.5 C99,43.5 99.2,43.5 99.2,43.4 L99.2,43.4 C99.4,43.3 99.4,43.1 99.1,43 L99,43 L99,43 L99,43 C98.9,43 98.7,42.9 98.6,42.9 C98.5,43 98.5,43 98.4,43 L98.4,43 L98.4,43 L98.4,43 L98.4,43 L98.4,43 L98.4,43 Z M98.7,43.2 L98.7,43.2 C98.8,43.2 98.9,43.2 98.9,43.3 C99,43.3 99,43.4 98.9,43.5 L98.9,43.6 C98.9,43.6 98.8,43.6 98.8,43.7 L98.5,43.7 C98.5,43.7 98.5,43.5 98.6,43.5 L98.7,43.2 L98.7,43.2 L98.7,43.2 L98.7,43.2 L98.7,43.2 L98.7,43.2 L98.7,43.2 Z" id="_x34_-38-4-2" fill="#EAC102"></path>
            <path d="M100.9,43.8 C100.9,43.8 100.8,43.8 100.8,44 C100.8,44.1 100.7,44.1 100.7,44.2 L100.4,44.7 C100.4,44.8 100.3,44.8 100.3,44.9 C100.2,45 100.2,44.9 100.2,45 L100.3,45 C100.3,45 100.3,45 100.4,45.1 C100.4,45.1 100.4,45.1 100.5,45.2 C100.5,45.2 100.5,45.2 100.5,45.1 C100.5,45.1 100.5,45.1 100.5,45 C100.5,44.9 100.5,44.9 100.6,44.8 L100.7,44.8 L100.9,44.9 C100.9,44.9 100.9,44.9 100.9,45 C100.9,45.1 100.9,45.1 100.8,45.2 L100.9,45.3 C101,45.3 101,45.4 101.1,45.4 L101.1,45.1 C101.1,45.1 101.1,45.1 101.1,45 L101.1,44.6 L101.1,44.1 C101.1,44 101.1,44.1 101.1,43.9 C100.9,43.9 100.9,43.8 100.9,43.8 L100.9,43.8 L100.9,43.8 L100.9,43.8 L100.9,43.8 L100.9,43.8 L100.9,43.8 Z M100.8,44.1 L100.8,44.1 L100.8,44.4 L100.8,44.7 C100.7,44.7 100.8,44.7 100.7,44.7 C100.6,44.7 100.6,44.6 100.5,44.6 C100.5,44.6 100.5,44.5 100.6,44.5 C100.6,44.5 100.6,44.4 100.7,44.4 C100.7,44.4 100.7,44.3 100.8,44.3 C100.7,44.2 100.7,44.2 100.8,44.1 C100.8,44.1 100.7,44.2 100.8,44.1 L100.8,44.1 L100.8,44.1 L100.8,44.1 L100.8,44.1 L100.8,44.1 Z" id="_x35_-8-5-0" fill="#EAC102"></path>
            <path d="M97.1,43.8 L97.1,43.8 L97.5,43.9 L97.6,43.9 L98,43.9 C98,43.8 98.1,43.8 98.1,43.7 L98,43.7 C97.8,43.8 97.7,43.7 97.5,43.7 C97.5,43.6 97.5,43.4 97.6,43.3 L97.6,43.2 C97.9,43.2 97.9,43.3 98,43.4 C98.1,43.4 98,43.3 98.1,43.3 L98.1,43.1 C98,43.1 98,43.2 97.9,43.2 L97.7,43.2 C97.7,43.1 97.8,43 97.8,42.9 L98.1,42.9 L98.1,42.9 C98.2,43 98.1,43 98.2,43 L98.2,42.8 C98.2,42.8 97.5,42.7 97.4,42.7 L97.3,42.7 L97.3,42.7 C97.3,42.7 97.3,42.7 97.3,42.8 L97.2,43.2 C97.2,43.4 97.2,43.6 97.1,43.8 C97.1,43.8 97.1,43.7 97.1,43.8 C97.1,43.8 97.1,43.7 97.1,43.8 L97.1,43.8 L97.1,43.8 L97.1,43.8 L97.1,43.8 L97.1,43.8 Z" id="_x36_-7-4-2" fill="#EAC102"></path>
            <path d="M99.4,43.7 L99.4,43.7 C99.5,43.7 99.5,43.7 99.6,43.6 L99.8,43.6 C99.9,43.6 99.8,43.7 99.8,43.7 L99.8,43.7 L99.8,43.7 L99.6,44.3 C99.6,44.4 99.6,44.3 99.6,44.4 C99.6,44.5 99.6,44.4 99.5,44.5 L99.6,44.5 C99.7,44.5 99.8,44.6 99.9,44.6 C99.9,44.5 99.8,44.6 99.9,44.4 C100,44.1 100.1,44 100.2,43.7 L100.4,43.7 C100.5,43.7 100.5,43.8 100.5,43.9 C100.6,43.9 100.5,43.8 100.5,43.8 L100.5,43.7 C100.4,43.7 100.2,43.6 100.1,43.6 C100.1,43.6 100.1,43.6 100,43.6 C100,43.6 100,43.6 99.9,43.6 L99.4,43.5 C99.4,43.5 99.5,43.6 99.4,43.7 L99.4,43.7 L99.4,43.7 L99.4,43.7 L99.4,43.7 L99.4,43.7 L99.4,43.7 L99.4,43.7 Z" id="_x37_-0-3-9" fill="#EAC102"></path>
            <path d="M94.5,42.5 C94.6,42.5 94.5,42.6 94.6,42.7 L94.6,43 C94.6,43.1 94.7,43.5 94.6,43.6 L94.6,43.6 L94.6,43.6 L94.7,43.6 L95.5,43.5 L95.5,43.2 L95.5,43.2 L95.5,43.2 L95.5,43.2 L95.5,43.2 L95.5,43.2 C95.4,43.3 95.4,43.3 95.3,43.3 L95.1,43.3 L95.1,43.3 C95.1,43.2 95,42.4 95,42.3 C95,42.3 95,42.3 95,42.2 L94.5,42.5 L94.5,42.5 L94.5,42.5 L94.5,42.5 L94.5,42.5 L94.5,42.5 Z" id="_x39_-1-7-0" fill="#EAC102"></path>
            <path d="M95.7,43.7 L96.1,43.7 C96.1,43.6 96,43.7 96,43.6 L96,42.6 C96,42.5 96.1,42.5 96.1,42.5 L95.7,42.5 C95.7,42.6 95.8,42.5 95.8,42.6 L95.8,42.8 L95.8,43.6 C95.7,43.6 95.7,43.6 95.7,43.7 C95.7,43.7 95.7,43.6 95.7,43.7 L95.7,43.7 L95.7,43.7 L95.7,43.7 L95.7,43.7 L95.7,43.7 Z" id="_x31_0-5-0-0" fill="#EAC102"></path>
            <path d="M79,43.5 L78.6,43.7 L78.6,43.7 C78.6,43.8 78.6,43.7 78.7,43.8 L78.7,43.8 C78.8,44 79,44.6 79.1,44.9 C79.2,45.2 79.2,45.1 79.2,45.3 C79.3,45.3 79.6,45.2 79.7,45.1 C79.7,45.1 79.8,45.1 79.8,45 L79.9,44.9 L79.9,44.9 L79.9,44.9 L79.9,44.9 C79.9,44.8 79.9,44.9 79.9,44.8 L79.9,44.8 L79.9,44.8 L79.9,44.7 L79.9,44.7 L79.9,44.6 L79.9,44.6 C79.9,44.6 79.9,44.6 79.9,44.5 C79.9,44.4 79.9,44.5 79.9,44.4 C79.9,44.3 79.9,44.4 79.9,44.3 C79.9,44.2 79.8,44.1 79.8,44.1 C79.7,44 79.8,44 79.7,43.9 L79.7,43.9 L79.7,43.9 L79.6,43.8 L79.5,43.7 L79.5,43.7 L79.5,43.7 L79.5,43.7 C79.4,43.6 79.4,43.6 79.3,43.6 L79.3,43.6 L79.3,43.6 C79.3,43.6 79.3,43.6 79.2,43.6 C79.1,43.5 79.1,43.5 79,43.5 L79,43.5 L79,43.5 L79,43.5 L79,43.5 L79,43.5 L79,43.5 Z M79.1,43.6 L79.2,43.6 L79.2,43.6 L79.2,43.6 L79.2,43.6 L79.2,43.6 L79.3,43.7 L79.3,43.7 C79.3,43.7 79.3,43.7 79.3,43.8 L79.3,43.8 C79.3,43.8 79.3,43.9 79.4,44 C79.4,44.1 79.5,44.3 79.5,44.3 C79.5,44.3 79.5,44.3 79.5,44.4 L79.5,44.6 L79.5,44.7 L79.5,44.7 L79.5,44.8 L79.4,44.9 L79.4,44.9 L79.4,44.9 C79.4,44.9 79.3,44.9 79.3,45 L79.3,45 L79.3,45 L79.3,45 C79.3,45 78.9,43.9 78.9,43.8 C78.9,43.8 78.9,43.8 78.9,43.7 C79,43.7 79,43.6 79.1,43.6 C79.1,43.6 79,43.6 79.1,43.6 L79.1,43.6 L79.1,43.6 L79.1,43.6 L79.1,43.6 L79.1,43.6 Z" id="_x32_-9-9-7" fill="#E5B731"></path>
            <path d="M81.4,42.6 C81.4,42.6 81.3,42.6 81.4,42.6 L81.3,42.7 L81.3,42.7 C81.3,42.7 81.3,42.7 81.2,42.8 L81.2,42.9 C81.2,42.9 81.2,42.9 81.2,43 L81.1,43.2 L81.1,43.3 C81.1,43.3 81.1,43.3 81.1,43.4 L81.1,43.6 L81.1,43.8 L81.1,44 C81.1,44.1 81.1,44 81.1,44.1 L81.3,44.4 L81.4,44.4 L81.4,44.4 L81.4,44.4 L81.4,44.4 L81.4,44.4 L81.4,44.4 L81.4,44.4 L81.4,44.4 L81.4,44.4 L81.5,44.4 L81.6,44.4 L81.6,44.4 L81.6,44.4 L81.7,44.4 L81.8,44.4 C81.9,44.4 81.9,44.3 81.9,44.3 L81.9,44.3 C81.9,44.3 81.9,44.2 82,44.2 L82,44.1 L82,44.1 L82,44.1 L82,44 L82,43.8 C82,43.7 82,43.8 82,43.7 L82,43.5 C82,43.4 82,43.4 81.9,43.4 L82,43 L82,43 L82,43 L82,43 C82,43 82,42.9 81.9,42.9 L81.8,42.8 C81.8,42.8 81.8,42.8 81.7,42.7 L81.7,42.7 L81.7,42.7 C81.6,42.6 81.5,42.6 81.4,42.6 L81.4,42.6 L81.4,42.6 L81.4,42.6 L81.4,42.6 L81.4,42.6 L81.4,42.6 Z M81.4,42.7 L81.4,42.7 L81.5,42.7 L81.5,42.7 L81.5,42.7 L81.5,42.7 C81.6,42.8 81.5,42.8 81.6,42.8 C81.7,42.9 81.6,42.8 81.6,42.9 C81.6,42.9 81.6,42.9 81.6,43 C81.6,43.1 81.6,43.2 81.7,43.2 C81.7,43.3 81.8,43.4 81.8,43.4 L81.8,43.6 C81.8,43.7 81.8,43.6 81.8,43.7 L81.8,43.8 L81.8,43.9 L81.8,44 L81.8,44 L81.8,44 L81.8,44 C81.8,44 81.8,44 81.7,44 L81.7,44 L81.7,44 L81.7,44 L81.6,44 L81.6,44 L81.6,44 C81.5,43.9 81.6,44 81.5,43.9 C81.5,43.9 81.4,43.6 81.4,43.4 C81.4,43.3 81.4,43.2 81.3,43.2 L81.3,43 L81.3,43 C81.3,43 81.3,43 81.3,42.9 L81.3,42.8 C81.3,42.8 81.3,42.8 81.4,42.7 L81.4,42.7 L81.4,42.7 L81.4,42.7 L81.4,42.7 L81.4,42.7 L81.4,42.7 L81.4,42.7 Z" id="_x33_-5-0-9" fill="#E5B731"></path>
            <path d="M80.4,44.5 L80.7,44.5 L80.9,44.5 C80.9,44.4 80.9,44.5 80.8,44.5 C80.7,44.5 80.7,44.3 80.7,44.3 C80.7,44.2 80.7,44.2 80.6,44.1 C80.6,44.1 80.6,44.1 80.6,44 L80.5,43.7 C80.5,43.6 80.5,43.5 80.4,43.4 L80.4,43.3 L80.4,43.2 L80.4,43.2 L80.4,43.1 C80.3,43.1 80.2,43.2 80.2,43.2 C80.1,43.2 80.1,43.2 80,43.3 L80,43.3 L80,43.3 L80,43.3 L80,43.3 C80,43.3 80,43.4 80.1,43.4 C80.1,43.4 80.1,43.4 80.1,43.5 L80.1,43.5 C80.1,43.5 80.2,43.7 80.2,43.8 C80.2,43.9 80.2,43.9 80.3,44 L80.3,44 L80.3,44 C80.3,44.1 80.4,44.2 80.4,44.3 C80.4,44.3 80.4,44.3 80.4,44.4 C80.4,44.4 80.4,44.4 80.4,44.5 C80.4,44.5 80.4,44.4 80.4,44.5 L80.4,44.5 C80.3,44.5 80.3,44.5 80.4,44.5 C80.4,44.5 80.3,44.5 80.4,44.5 L80.4,44.5 L80.4,44.5 L80.4,44.5 L80.4,44.5 L80.4,44.5 Z" id="_x31_3-10-0-9" fill="#E5B731"></path>
            <path d="M83.4,42.9 L83.4,42.9 C83.4,42.8 83.3,42.7 83.3,42.7 C83.3,42.6 83.2,42.6 83.2,42.6 C83.1,42.6 83.1,42.5 83,42.5 C82.9,42.5 82.9,42.5 82.8,42.6 C82.8,42.6 82.7,42.7 82.7,42.8 L82.7,42.9 C82.7,43 82.8,43 83,43.1 C83.1,43.2 83.2,43.2 83.3,43.3 L83.4,43.4 L83.4,43.6 C83.4,43.7 83.4,43.8 83.3,43.9 C83.3,43.9 83.2,44 83,44 L82.9,44 L82.8,44 L82.7,44 L82.7,44 C82.7,44 82.7,44 82.7,44.1 L82.7,44.1 L82.7,43.6 L82.7,43.6 C82.7,43.7 82.7,43.8 82.8,43.8 C82.9,43.8 82.9,43.9 82.9,43.9 C83,43.9 83,44 83.1,44 C83.2,44 83.3,44 83.3,43.9 C83.3,43.8 83.4,43.8 83.4,43.7 L83.4,43.6 C83.4,43.6 83.4,43.5 83.3,43.5 C83.3,43.5 83.2,43.4 83.1,43.4 C83,43.3 82.9,43.3 82.8,43.2 L82.7,43.1 L82.7,42.9 C82.7,42.8 82.7,42.7 82.8,42.6 C82.9,42.5 83,42.5 83.1,42.5 C83.2,42.5 83.3,42.5 83.3,42.6 L83.4,42.6 L83.4,42.6 C83.4,42.6 83.4,42.6 83.4,42.5 L83.4,42.5 L83.4,42.9 L83.4,42.9 L83.4,42.9 L83.4,42.9 L83.4,42.9 Z" id="S" fill="#E5B731"></path>
            <g id="Group" transform="translate(96.000000, 49.000000)" fill="#008F4C">
                <path d="M12.8,11.2 C13,11.1 13.1,10.9 13.2,10.8 L13.2,10.7 C13.1,10.7 12.6,11.1 12.5,11.2 C11.9,11.7 11.3,12.3 10.7,12.9 C10.6,13 10.5,13.1 10.4,13.2 C10.1,13.5 9.9,13.9 9.6,14.2 C9.3,14.7 9,15.2 8.7,15.7 C8.7,15.6 8.8,15.5 8.8,15.4 C9.5,14.2 10.3,13.1 11,12.3 C11.4,11.9 11.7,11.6 11.7,11.5 C11.7,11.4 11.4,11.6 11.1,11.9 C11.7,11.1 12,10.5 12.1,9.6 C12,9.8 11.8,10 11.6,10.4 L11.5,10.5 L11.5,10.5 C11.6,10.2 11.8,9.9 11.8,9.8 C11.8,9.8 11.5,10.1 11.2,10.6 C10.9,11 10.3,11.8 9.7,12.4 C9.8,12.1 10,11.9 10,11.7 C10.3,11.2 10.5,10.8 10.8,10.4 C11,10.1 11.9,8.8 12.1,8.6 L12.2,8.5 C12.2,8.3 12.3,8.3 12.5,8.1 C12.7,7.9 12.7,7.9 12.9,7.7 C12.8,7.6 12.5,7.7 12.3,7.8 C12.4,7.7 12.4,7.6 12.4,7.6 C12.4,7.6 12,7.8 11.7,8.1 C11.2,8.5 10.4,9.4 9.8,10.3 C10,9.7 10.4,8.6 10.6,8.2 C10.8,7.9 11,7.5 11.2,7.2 L11.8,6.2 C11.7,6.2 11.5,6.4 11.4,6.5 C11.3,6.6 11.3,6.6 11.2,6.7 C11,6.9 10.8,7.2 10.6,7.5 C10.9,6.9 11.1,6.5 11.1,6.5 C10.9,6.5 10.2,7.7 9.6,9.1 C9.8,8.6 10,8.1 10.2,7.8 C10.5,7.2 10.9,6.6 11.2,6 C11,5.9 10.5,6.7 10.4,6.8 C10.4,6.9 10.3,6.9 10.3,7 C10.3,6.9 10.4,6.8 10.4,6.8 C10.1,6.8 9.5,7.9 9,9.1 C9.2,8.3 9.6,7.5 9.7,7.1 C9.9,6.8 10.1,6.5 10.3,6.2 C10.4,6.1 10.4,6 10.5,5.9 C10.6,5.7 10.8,5.5 10.9,5.3 L11.3,4.7 C11.1,4.6 10.6,5.2 10.3,5.6 C10.5,5.3 10.6,5.1 10.6,5.1 C10.6,5.1 10.3,5.3 10.1,5.6 C10,5.8 9.8,6 9.6,6.2 C9.7,5.9 9.9,5.5 10.1,5.3 C10.4,4.9 10.6,4.5 10.9,4.1 C11,4 11.1,3.9 11.1,3.7 C10.9,3.7 10.1,4.6 9.7,5.2 C10,4.8 10.2,4.4 10.2,4.4 C10.2,4.4 10,4.6 9.7,4.8 C9.4,5.1 9,5.7 8.7,6.3 C8.8,5.8 9,5.1 9.1,4.8 C9.3,4.2 9.6,3.6 9.9,2.9 C9.7,2.9 9.3,3.5 9.2,3.7 L8.7,4.7 C8.8,4.2 9.4,2.6 9.6,2 C9.5,2 9.4,2.3 9.3,2.4 C9.1,2.7 9,3 8.8,3.3 C8.8,3.2 8.9,3.1 8.9,3.1 C9,2.9 9,2.7 9,2.6 C9,2.6 8.9,2.6 8.8,2.9 C8.9,2.7 9,2.6 9,2.4 C8.6,2.6 8,4.1 7.8,4.6 C7.7,4.8 7.7,5 7.6,5.3 L7.5,5.5 C7.5,4.3 7.7,3.1 7.9,1.9 C7.8,1.9 7.8,2 7.7,2.2 C7.7,2.3 7.6,2.4 7.6,2.5 C7.6,2.7 7.5,2.8 7.4,3 L7.4,2.9 C7.3,2.9 7.2,3.2 7,4.2 L7,4.4 C6.6,3.7 6.5,2.4 5.6,1.1 C5.3,0.6 5.2,0.6 4.8,0.3 C4.8,0.3 4.8,0.3 4.8,0.4 L4.8,0.4 L4.8,0.4 C4.8,0.4 4.9,0.6 5,0.8 C5.4,1.6 5.3,1.3 5.7,2.8 C5.6,2.7 5.5,2.5 5.4,2.4 C5.1,2 4.9,1.6 4.7,1.1 C4.6,1 4.6,0.9 4.5,0.9 L4.5,1.2 L4.5,1.2 C4.5,1.2 4.5,1.5 4.6,1.8 C4.8,2.4 4.9,2.7 5.1,3.1 C5.3,3.5 5.5,3.9 5.7,4.3 C5.6,4.3 5.5,4.2 5.4,4.1 C5.2,3.9 5.2,3.9 5.1,3.6 C4.9,3.2 4.7,2.8 4.6,2.3 C4.5,2 4.4,1.7 4.3,1.4 C4.3,1.5 4.3,1.4 4.3,1.5 L4.3,1.9 L4.3,1.9 L4.3,1.9 C4.3,1.9 4.3,2.2 4.4,2.6 C4.4,2.8 4.4,2.9 4.5,3 C4.5,3.2 4.5,3.3 4.6,3.5 C4.3,3.4 4,3.1 3.7,2.9 C3.6,2.9 3.6,2.8 3.5,2.8 L3.4,2.8 C3.3,3 3.9,3.6 4,3.7 C4.1,3.8 4.7,4.3 4.8,4.4 C5,5 5.2,5.5 5.6,6 L5.9,6.5 L5.2,5.7 C4.7,5.2 4.5,5 3.9,4.5 C3.9,4.7 4.1,4.8 4.2,4.9 L4.4,5.2 C4.4,5.2 4.5,5.3 4.6,5.4 L5.1,6 C5.4,6.4 5.7,6.7 5.9,7.2 L6.2,7.7 C6,7.4 5.8,7.2 5.6,6.9 L5.4,6.6 C5.1,6.2 4.8,5.9 4.4,5.6 C4.1,5.3 3.9,5.1 3.5,5 C3.5,5.1 3.6,5.2 3.7,5.3 C4.1,5.7 4.5,6.1 4.9,6.5 C5.4,7.1 5.9,7.8 6.3,8.5 C6.4,8.6 6.4,8.7 6.5,8.9 L6.8,9.6 C6.5,9.5 5.3,7.9 5,7.6 C4.8,7.3 4.7,7.2 4.4,7 C4.4,7.2 5.2,8.2 5.4,8.5 C5.5,8.6 5.5,8.7 5.6,8.7 L6,9.2 C6.2,9.5 6.7,10.1 6.8,10.5 L7.1,11.1 C7.1,11.1 7,10.8 6.8,10.6 C6.8,10.6 6.8,10.6 6.8,10.5 C6.7,10.3 6.6,10.2 6.6,10.2 C6.5,10 6.4,9.9 6.3,9.8 C6,9.5 5.6,8.9 5.3,8.6 L4.5,8.1 C4.5,8.2 4.6,8.3 4.7,8.4 L5,8.7 C5.4,9 5.9,9.7 6.2,10.1 C6.4,10.4 6.5,10.6 6.7,10.9 C6.6,10.8 6.5,10.7 6.4,10.6 C6.3,10.5 6.2,10.4 6.1,10.3 C5.9,10.1 5.7,10 5.5,9.8 L4.2,9.1 C4.2,9.2 4.7,9.5 4.8,9.6 C5.1,9.8 5.5,10.1 5.7,10.4 C5.8,10.5 5.9,10.6 6,10.7 C6.2,10.9 6.3,11.1 6.5,11.4 C6.7,11.7 6.8,11.8 6.9,12.1 C7.1,12.4 7.1,12.6 7.3,12.9 L7.8,14.8 C7.7,14.2 7.4,13.5 7.2,12.9 C7,12.4 6.7,11.3 6.2,11.5 L6.2,11.5 L6.1,11.4 C6.1,11.4 6,11.4 5.8,12 C5.6,12 5.1,12.2 4.5,14.6 C4.5,14.6 4.7,14 4.9,13.5 C4.8,13.9 4.7,14.3 4.6,14.6 L4.6,14.9 C4.5,15 4.3,15.3 4.3,16.8 C4.3,16.8 4.3,16.3 4.4,15.9 L4.4,16.4 C4.4,16.5 4.5,17 4.5,17.1 L4.6,17.2 L4.7,15.5 C4.9,15.6 5.4,16.7 5.3,17.2 C5.1,18.9 4.9,19.4 4.1,20.8 C4,21 3.8,21.3 3.7,21.5 C3.6,21.6 3.6,21.7 3.5,21.8 L3.2,22 C3.6,21.2 3.8,20.9 4.1,20 C4.3,19.3 4.5,18.6 4.6,17.9 L4.6,17.6 C4.5,17.6 4.5,17.8 4.5,17.9 C4.3,18.7 4.1,19.2 4,19.6 L4,19.6 L4,19.6 L4,19.6 C4,19.3 4.1,19 4.1,19 C4.1,19 3.9,19.4 3.8,19.9 C3.6,20.4 3.2,21.3 2.7,22.1 L2.9,21.1 C2.8,21.1 2.8,21.2 2.8,21.3 C2.8,21.4 2.7,21.5 2.7,21.6 C2.6,22 2.4,22.5 2.2,22.9 C2.3,22.5 2.4,22.2 2.5,21.9 L2.5,21.6 C2.5,21.6 2.4,21.7 2.4,21.9 C2.4,21.7 2.5,21.5 2.5,21.2 L2.5,20.9 C2.4,20.9 2.4,21.2 2.3,21.3 C2.2,21.6 2.1,21.9 2,22.3 C2.1,22 2.2,21.7 2.2,21.4 L2.2,21.1 C2.2,21.1 2.1,21.3 2.1,21.6 C2.1,21.8 2,22 1.9,22.3 L1.9,21.6 C1.9,21.6 1.9,21.7 1.9,21.5 C1.8,21.5 1.8,21.8 1.8,21.9 L1.8,22.1 L1.8,22 L1.8,21.7 C1.8,21.7 1.7,21.9 1.7,22.2 C1.6,22.5 1.4,23 1.2,23.5 C1,23.9 0.9,24.3 0.9,24.3 L1,24.3 C0.9,24.4 0.9,24.5 0.8,24.6 C0.6,24.6 0.8,24.6 0.8,24.6 L0.7,24.6 L0.8,24.6 C1.1,24.7 2.9,25.1 2.9,25.1 C3.9,25.1 4.6,25 5.6,25.1 C5.8,25.1 6.4,25.2 6.5,25.2 C6.3,25.1 6.2,25 6,25 C6,25 5.8,24.9 5.6,24.8 C5.4,24.7 5.1,24.6 4.8,24.6 L7.5,24.5 L7.2,24.3 C7.1,24.3 6.9,24.2 6.8,24.2 L6.9,24.2 C6.9,24.2 6.6,24.1 6.4,24 C6.2,24 6,23.9 5.7,23.9 C6.3,23.8 6.9,23.8 7.6,23.8 C7.8,23.7 8.7,24 8.3,23.6 C8.2,23.5 7.9,23.4 7.6,23.4 L7.6,23.4 L7.6,23.4 L7.6,23.4 L7.6,23.4 C7.5,23.4 7.3,23.3 7.2,23.3 L8.3,23.2 C8.6,23.1 10.3,23.6 9.7,23.1 C9.2,22.8 8.2,22.6 7.7,22.5 C8,22.3 8.3,22.1 8.6,22 C9.2,21.7 9.9,21.5 10.6,21.3 C11.3,21.2 11.9,20.8 10.9,21 C10.8,21 10.7,21 10.6,21.1 C10.7,21.1 10.8,21 10.8,21 C10.8,21 10.4,21.1 10.1,21.1 C9.9,21.2 9.7,21.2 9.5,21.3 C9.4,21.3 9.3,21.3 9.2,21.4 L9.7,21.1 C10.2,20.8 10.7,20.7 11.2,20.5 C11.3,20.5 11.3,20.5 11.3,20.4 L11.2,20.4 L10.9,20.4 C11.2,20.2 12,20 12.3,19.9 C12.7,19.8 13.1,19.7 13.4,19.6 C13.5,19.6 13.7,19.6 13.7,19.5 L13.6,19.5 C13.6,19.5 13.1,19.5 12.7,19.6 C12.5,19.6 11.9,19.7 11.2,19.8 C11.1,19.8 10.9,19.9 10.7,19.9 C11.3,19.6 11.8,19.4 12.4,19.2 C12.5,19.2 13,19.1 13,18.9 C12.9,18.8 12.8,18.9 12.6,18.9 C12.4,18.9 12.2,19 12,19.1 C12.1,19.1 12.2,19 12.2,19 C12.3,18.9 12,19 11.4,19.1 C12.1,18.8 12,18.9 13.4,18.6 C13.6,18.6 13.8,18.6 13.8,18.4 L12.9,18.3 L12.9,18.3 L12.7,18.3 C12.3,18.3 12,18.4 11.7,18.4 L12.5,17.6 C12.7,17.4 12.6,17.3 13,17.3 L13.7,17.3 C13.5,17 13.4,17.1 13.1,17 C13.3,16.9 13.4,16.9 13.4,16.9 L13.1,16.9 L13.4,16.6 C13.5,16.5 13.6,16.4 13.6,16.2 L13.6,16.1 L13.5,16.1 L12.9,16.6 C13.1,16.3 13.2,16.1 13.2,16.1 C13.2,16.1 12.8,16.4 12.3,17 C12.1,17 12,17.1 11.8,17.1 C11.6,17.1 11.4,17.2 11.2,17.2 C11.6,16.8 11.9,16.6 12.3,16.3 C12.5,16.2 12.7,16 12.9,15.9 C13.1,15.8 13.5,15.6 13.5,15.5 L12.2,15.9 C12.1,15.9 12.1,16 12,16 L12.3,15.7 C12.3,15.7 11.9,15.8 11.5,16 L11.5,16 C12,15.4 12.7,14.8 13.2,14.3 C13.3,14.2 13.5,14.1 13.5,14 L13.4,14 C13.2,14 12.8,14.3 12.5,14.5 C12.6,14.4 12.7,14.3 12.7,14.3 C12.7,14.2 12.4,14.4 11.6,14.9 C11.6,14.9 11.6,14.9 11.7,14.8 C11.8,14.7 12,14.5 12.1,14.4 C12.4,14.1 12.7,13.9 12.9,13.6 L13.3,13.2 C13.4,13.1 13.7,12.9 13.7,12.7 C13.1,13.1 12.6,13.5 12.1,13.9 C11.8,14.1 11.6,14.3 11.3,14.5 C11.1,14.6 10.7,15.1 10.5,15.1 C10.8,14.5 11.2,13.9 11.6,13.4 C11.6,12.4 12.2,11.7 12.8,11.2 L12.8,11.2 Z M6.2,4.8 L6.2,4.8 C6.2,4.9 6.2,4.9 6.2,4.8 C6.2,4.9 6.2,4.8 6.2,4.8 L6.2,4.8 Z M6.2,17.6 C6.2,17.7 6.1,17.9 6,18.1 L5.7,17 C5.6,16.6 5.7,15.8 5.6,15.7 C5.5,15.9 5.5,15.9 5.5,16.3 C5.5,16.3 5.4,16.2 5.4,16.1 L5.4,15.9 C5.4,15.2 5.3,15.2 5.3,15.8 C5.1,15.2 5.1,15.4 5.2,15 C5.2,14.9 5.3,14.7 5.4,14.6 C5.8,15.7 5.9,16.1 6.2,17.4 C6.3,17.5 6.3,17.6 6.2,17.6 L6.2,17.6 Z M6.3,15.5 L5.7,14.4 C5.3,14.4 5.3,15 5.2,15.3 C5.1,15.1 5,14.9 4.8,14.9 L4.8,14.9 C4.8,14.9 4.8,14.9 4.7,14.8 C4.7,14.8 4.7,14.8 4.6,14.8 C4.7,14.7 4.7,14.5 4.8,14.3 C5,13.8 5.1,13.5 5.4,13.1 C5.3,13.3 5.3,13.5 5.2,13.7 C5.3,13.5 5.3,13.2 5.4,12.9 C5.4,12.8 5.5,12.8 5.5,12.7 L5.1,14.7 C5.2,14.7 5.3,14.4 5.3,14.3 C5.5,13.8 5.6,13.3 5.8,12.8 C6,13 6.2,13.4 6.3,14 C6.4,14.5 6.5,15.3 6.5,16.2 C6.4,16 6.3,15.7 6.3,15.5 L6.3,15.5 Z M9.6,19.1 L9.6,19.1 C9.7,19.1 9.7,19.1 9.8,19 C9.7,19 9.6,19.1 9.6,19.1 L9.6,19.1 Z" id="Shape"></path>
                <path d="M12,11.5 C12,11.4 12,11.5 12,11.5 L12,11.5 L12,11.5 Z" id="Shape"></path>
                <path d="M5.5,16 L5.5,15.9 C5.5,15.9 5.5,15.9 5.5,16 L5.5,16 Z" id="Shape"></path>
                <path d="M5.5,15.8 L5.5,15.7 L5.5,15.8 L5.5,15.8 Z" id="Shape"></path>
                <path d="M4.9,2.1 C4.8,1.9 4.9,2 4.9,2.1 L4.9,2.1 L4.9,2.1 Z" id="Shape"></path>
                <path d="M10.3,5.8 C10.5,5.5 10.3,5.8 10.3,5.8 L10.3,5.8 L10.3,5.8 Z" id="Shape"></path>
                <path d="M12,8.2 C12.2,8.1 12.1,8.1 12,8.2 L12,8.2 L12,8.2 Z" id="Shape"></path>
                <path d="M5.9,23.6 L5.9,23.6 L5.9,23.6 L5.9,23.6 Z" id="Shape"></path>
                <path d="M11.1,15.5 C11.1,15.5 11.2,15.4 11.1,15.5 L11.1,15.5 L11.1,15.5 Z" id="Shape"></path>
                <path d="M11,15.5 L11,15.5 L11,15.5 L11,15.5 Z" id="Shape"></path>
                <path d="M5.1,13.7 C5,14 5,14.2 5,14.2 C5.1,14.1 5.1,13.9 5.1,13.7 L5.1,13.7 Z" id="Shape"></path>
                <path d="M1.5,21.8 C1.5,21.8 1.5,21.7 1.5,21.8 L1.5,21.8 L1.5,21.8 Z" id="Shape"></path>
            </g>
            <path d="M80.9,73.9 C80.1,74.2 79.4,74.4 78.6,74.8 C78.4,74.9 78.1,75.1 77.9,75.2 C77.5,74.6 76.9,73.7 76.5,73.1 C76.3,72.8 76,72.5 75.6,72.3 C75,72 74.8,72.1 74.4,72.4 L74.1,71.9 C73.6,70.9 73,70.5 72.4,69.7 L71.9,69.1 L71.7,68.9 L72,70.1 L72.2,71.3 C71.9,71.1 71.6,70.9 71.2,70.8 C70.9,70.7 70.3,70.6 69.9,70.6 L70.3,71 C71,71.6 71.4,72.4 71.7,73.3 C72,74.3 72.7,75.3 73.4,76 C73.5,76.1 74,76.5 74.2,76.6 C75,76.9 75,76.6 75.3,76.4 C75.8,77.2 76.1,77.6 76.7,78.4 L77.1,78.8 C77.9,79.6 79.1,79.9 80.2,79.6 C80.7,79.5 81,79.3 81.4,79.1 C82.8,78.3 82.2,77.6 82,76.9 C82.5,76.8 84.3,76.2 85,76.1 C87.3,75.7 91.7,75.6 94.4,76 C94.6,76 97.4,76.8 97.7,76.9 C97.7,76.9 97.5,77.3 97.5,77.5 L97.5,78.1 C97.5,78.6 98,78.8 98.3,79 C98.7,79.2 99,79.4 99.5,79.5 C100,79.6 100.5,79.6 101,79.6 C102,79.4 102.6,78.8 103,78.3 C103.1,78.1 103.2,78 103.4,77.8 C103.5,77.7 103.6,77.5 103.7,77.3 C103.9,77 104.2,76.5 104.3,76.3 C104.3,76.3 104.5,76.5 104.7,76.5 C104.8,76.5 105.3,76.5 105.4,76.4 C105.8,76.3 106,76 106.2,75.8 C107,75.1 107.6,74.1 107.9,73 C108.3,71.8 108.8,71.2 109.7,70.4 C109.7,70.4 109.3,70.4 109.1,70.5 C108.9,70.5 108.5,70.7 108.5,70.7 C108.3,70.8 108.2,70.8 108,70.9 C107.9,71 107.7,71.1 107.5,71.2 L107.7,70 C107.8,69.7 108,69.2 108,68.9 L107.6,69.3 C107.4,69.6 107.1,69.9 106.9,70.2 C106.8,70.3 106.7,70.5 106.5,70.6 C106.3,70.9 106,71.1 105.8,71.5 C105.7,71.7 105.6,71.8 105.5,72 C105.4,72.1 105.3,72.4 105.2,72.5 C103.6,71.6 102.8,73.8 101.7,75.2 C100.7,74.6 100,74.4 98.9,74 C98.7,73.9 98,73.8 97.9,73.7 C97.8,73.7 95.5,73.2 95.5,73.2 C95.1,73.2 94.5,73.1 94,73 C91,72.6 87.6,72.7 84.6,73.1 L83.2,73.3 C83.4,73.3 80.9,73.9 80.9,73.9 L80.9,73.9 L80.9,73.9 L80.9,73.9 L80.9,73.9 L80.9,73.9 L80.9,73.9 Z" id="_x32_-5-7-2" fill="#CE1126"></path>
            <path d="M81.8,75.6 C81.9,75.6 81.9,75.7 81.8,75.6 L81.9,75.6 C82,75.7 81.9,75.6 81.8,75.6 L81.8,75.6 L81.8,75.6 L81.8,75.6 L81.8,75.6 L81.8,75.6 L81.8,75.6 L81.8,75.6 L81.8,75.6 Z" id="_x33_3-35-1-5-4" fill="#EAC102"></path>
            <path d="M85.1,73.8 L85.1,73.8 L84.8,73.9 L84.6,73.9 C84.6,73.9 84.6,73.9 84.5,73.9 C84.5,74 84.5,73.9 84.6,74 L84.6,74.2 C84.6,74.2 84.6,74.2 84.6,74.3 L84.6,74.6 C84.6,74.6 84.6,74.6 84.6,74.7 L84.6,74.9 L84.6,75.4 L84.6,75.5 L84.6,75.5 L84.6,75.5 L84.7,75.5 L84.7,75.5 L84.9,75.5 L85,75.5 L85.1,75.5 L85.2,75.5 C85.2,75.5 85.3,75.5 85.4,75.4 L85.4,75.4 L85.4,75.4 L85.4,75.4 L85.5,75.3 L85.5,75.2 L85.5,74.8 C85.5,74.8 85.5,74.7 85.4,74.7 L85.4,74.7 L85.4,74.7 L85.4,74.7 L85.4,74.7 L85.4,74.7 L85.2,74.6 C85.2,74.6 85.2,74.6 85.1,74.6 C85.2,74.6 85.3,74.5 85.3,74.4 L85.3,74.4 L85.3,74.1 L85.3,74.1 L85.3,74.1 L85.2,74 L85.1,74 C85.4,73.8 85.2,73.8 85.1,73.8 L85.1,73.8 L85.1,73.8 L85.1,73.8 L85.1,73.8 L85.1,73.8 L85.1,73.8 Z M85.1,73.9 L85.2,73.9 L85.2,73.9 L85.2,73.9 L85.3,74 L85.3,74.2 L85.3,74.2 C85.3,74.2 85.3,74.2 85.3,74.3 L85.3,74.3 L85.3,74.3 L85.2,74.3 L85.2,74.3 L85,74.3 L85,74 L85,73.8 L85,73.7 L85.1,73.9 C85,73.9 85.1,73.9 85.1,73.9 L85.1,73.9 L85.1,73.9 L85.1,73.9 L85.1,73.9 L85.1,73.9 L85.1,73.9 Z M85.1,74.6 L85.3,74.6 L85.4,74.7 C85.4,74.7 85.4,74.8 85.5,74.8 L85.5,75.1 L85.4,75.2 C85.2,75.3 85.2,75.2 85.2,75.1 L85.2,74.9 L85.2,74.8 L85.2,74.6 L85.1,74.6 L85.1,74.6 L85.1,74.6 L85.1,74.6 L85.1,74.6 L85.1,74.6 L85.1,74.6 Z" id="_x33_-9-2-3" fill="#EAC102"></path>
            <path d="M80.6,75.1 L80.5,75.1 L80.5,75.1 L80.4,75.1 L80.4,75.1 L80.2,75.2 L80,75.3 C80,75.3 80,75.3 80.1,75.4 L80.1,75.5 C80.1,75.5 80.1,75.5 80.1,75.6 L80.1,75.8 L80.1,75.9 L80.1,75.9 L80.1,75.9 L80.1,75.9 C80.1,75.9 80.1,75.9 80.1,76 L80.1,76.1 C80.1,76.2 80.1,76.1 80.1,76.2 L80.1,76.3 L80.1,76.4 L80.1,76.4 L80.1,76.4 L80.1,76.4 C80.1,76.4 80.1,76.4 80.1,76.5 L80.1,76.5 L80.1,76.6 L80.1,76.7 L80.1,76.8 L80.2,76.8 L80.3,76.8 C80.4,76.8 80.4,76.8 80.5,76.7 C80.5,76.6 80.5,76.7 80.5,76.7 L80.5,76.7 C80.5,76.7 80.5,76.5 80.4,76.5 L80.4,76.4 L80.4,76.4 L80.4,76.3 L80.4,76.2 L80.5,76.2 C80.5,76.2 80.5,76.3 80.6,76.3 C80.6,76.3 80.6,76.4 80.7,76.4 C80.7,76.4 80.7,76.4 80.8,76.5 L80.9,76.6 L80.9,76.6 L80.9,76.6 L80.9,76.6 L80.9,76.6 L80.9,76.6 C80.9,76.6 80.9,76.6 81,76.7 L81,76.7 C81.1,76.8 81.2,76.8 81.4,76.7 C81.4,76.7 81.3,76.7 81.3,76.6 L81.2,76.5 L81.2,76.5 L81.1,76.4 L81,76.2 L81,76.2 L81,76.2 L80.8,75.9 L80.8,75.9 L80.8,75.9 L80.8,75.9 L80.8,75.9 L80.8,75.9 C80.8,75.9 80.8,75.9 80.8,75.8 C80.8,75.7 80.9,75.7 80.9,75.6 C80.9,75.5 80.9,75.4 80.8,75.4 L80.8,75.4 C80.8,75.4 80.8,75.4 80.7,75.3 L80.7,75.3 L80.7,75.3 L80.7,75.3 L80.6,75.3 C80.7,75.1 80.6,75.1 80.6,75.1 L80.6,75.1 L80.6,75.1 L80.6,75.1 L80.6,75.1 L80.6,75.1 L80.6,75.1 Z M80.9,75.8 C80.8,75.9 80.9,75.8 80.9,75.8 L80.9,75.8 L80.9,75.8 L80.9,75.8 L80.9,75.8 L80.9,75.8 L80.9,75.8 Z M80.5,75.2 L80.5,75.2 C80.6,75.2 80.6,75.2 80.6,75.3 L80.6,75.3 L80.6,75.3 L80.6,75.4 L80.6,75.8 L80.5,75.9 L80.4,75.9 L80.4,75.9 L80.4,75.8 C80.4,75.8 80.4,75.8 80.4,75.7 L80.3,75.5 L80.3,75.5 L80.3,75.3 C80.3,75.3 80.3,75.2 80.4,75.2 L80.5,75.2 L80.5,75.2 L80.5,75.2 L80.5,75.2 L80.5,75.2 L80.5,75.2 L80.5,75.2 L80.5,75.2 Z" id="_x34_-19-87-5" fill="#EAC102"></path>
            <path d="M82.8,74.3 L82.8,74.3 L82.5,74.3 C82.4,74.3 82.4,74.3 82.3,74.4 L82.3,74.4 L82.3,74.4 L82.3,74.4 L82.3,74.4 L82.2,74.4 L82.2,74.4 C82.2,74.4 82.2,74.4 82.2,74.5 L82.3,74.5 C82.3,74.5 82.3,74.7 82.4,74.7 C82.4,74.8 82.4,74.7 82.4,74.8 L82.4,74.9 L82.4,75 L82.4,75.1 L82.4,75.3 C82.4,75.3 82.4,75.3 82.4,75.4 L82.4,75.5 C82.4,75.6 82.5,75.8 82.4,75.9 L82.4,76 C82.4,76 82.6,76 82.6,75.9 L82.7,75.9 L82.7,75.9 L82.7,75.9 C82.8,75.9 82.8,75.9 82.8,75.8 C82.8,75.7 82.7,75.8 82.7,75.7 L82.7,75.5 L82.7,75.2 L82.9,75.1 C83,75.1 83.1,75 83.1,75 L83.2,74.9 L83.2,74.9 C83.3,74.8 83.3,74.7 83.3,74.6 L83.3,74.5 C83.3,74.4 83.3,74.5 83.3,74.4 C83.3,74.4 83.3,74.4 83.3,74.3 L83.3,74.3 C83.3,74.2 83.2,74.2 83.2,74.2 L83.1,74.2 L83.1,74.2 L83.1,74.2 C83,74.3 82.9,74.3 82.8,74.3 L82.8,74.3 L82.8,74.3 L82.8,74.3 L82.8,74.3 L82.8,74.3 L82.8,74.3 Z M82.7,74.5 L82.7,74.5 C82.8,74.5 82.8,74.6 82.9,74.6 C82.9,74.7 83,74.8 83,74.9 L83,75.1 L83,75.1 C83,75.2 83,75.1 82.9,75.2 L82.7,75.3 L82.6,75.3 L82.6,75.2 L82.6,75.1 L82.6,74.8 C82.6,74.8 82.6,74.8 82.6,74.7 L82.6,74.6 C82.6,74.6 82.6,74.6 82.6,74.5 L82.6,74.5 C82.6,74.5 82.7,74.5 82.7,74.5 L82.7,74.5 L82.7,74.5 L82.7,74.5 L82.7,74.5 L82.7,74.5 L82.7,74.5 Z" id="_x35_-3-2-0" fill="#EAC102"></path>
            <path d="M89.2,73.3 C89.2,73.3 89.1,73.3 89.2,73.3 L89,73.3 C89,73.3 89,73.3 89,73.4 L89,73.6 C89,73.6 89,73.6 89,73.7 C89,73.7 89,73.7 89,73.8 L89,73.9 L89,74.1 L89,74.1 L89,74.1 C89,74.1 89,74.1 89,74.2 C89,74.2 89,74.2 89,74.3 L89,74.5 L89,74.6 L89,74.6 L88.9,74.8 L88.9,74.8 L88.9,74.8 L88.9,74.8 C88.9,74.8 88.9,74.8 88.9,74.9 L89.2,74.9 C89.2,74.8 89.2,74.9 89.2,74.8 L89.2,74.8 L89.2,74.8 L89.2,74.8 L89.2,74.8 L89.2,74.8 L89.2,74.8 L89.2,74.7 C89.2,74.7 89.2,74.7 89.2,74.6 L89.6,74.6 L89.6,74.7 L89.6,74.7 C89.7,74.8 89.6,74.9 89.6,75 L89.9,75 L90,75 C90,75 90,75 90,74.9 L90,74.9 C90,74.9 90,74.9 90,74.8 L90,74.7 L90,74.7 L90,74.6 L89.9,74.2 L89.9,74.2 C89.9,74.1 89.9,74.2 89.9,74.1 C89.9,74.1 89.9,74.1 89.9,74 L89.8,73.8 C89.3,73.5 89.2,73.5 89.2,73.3 L89.2,73.3 L89.2,73.3 L89.2,73.3 L89.2,73.3 L89.2,73.3 L89.2,73.3 L89.2,73.3 Z M89,73.7 L89.1,74 C89.1,74 89.1,74.1 89.2,74.2 L89.2,74.4 L89,74.4 L88.9,74.4 L88.9,74.2 L88.9,74 L88.9,74 L88.9,73.9 C89,73.7 89,73.8 89,73.7 C89,73.7 89,73.8 89,73.7 L89,73.7 L89,73.7 L89,73.7 L89,73.7 L89,73.7 Z" id="_x36_-8-9-7" fill="#EAC102"></path>
            <path d="M81.1,74.8 C81.1,74.9 81.1,74.8 81.2,75 L81.2,75.3 L81.2,75.4 L81.2,75.5 L81.2,75.8 C81.2,75.9 81.2,75.8 81.2,75.8 C81.2,75.9 81.2,76 81.3,76.1 L81.3,76.1 L81.3,76.3 L81.3,76.3 C81.3,76.3 81.3,76.3 81.3,76.4 L81.9,76.2 C82,76.2 82.1,76.1 82.2,76.1 L82.2,75.7 C82.1,75.7 82.2,75.7 82.1,75.8 L82.1,75.8 L82.1,75.8 L82.1,75.8 L82.1,76 C82.1,76 82,76 82,76.1 C81.9,76.2 81.9,76.1 81.8,76.2 L81.8,76.2 C81.8,76.2 81.7,76.2 81.7,76.1 L81.7,76 L81.7,75.9 C81.7,75.9 81.7,75.9 81.7,75.8 L81.6,75.5 C81.7,75.5 81.8,75.4 81.9,75.5 L81.9,75.5 L81.9,75.5 L81.9,75.5 L82,75.5 L82,75.4 L82,75.3 C82,75.2 82,75.2 81.9,75.1 L81.9,75.1 L81.9,75.1 L81.9,75.2 L81.9,75.2 L81.8,75.3 L81.7,75.3 L81.7,75.3 L81.7,74.9 L81.8,74.8 L81.8,74.8 L82,74.8 C82.1,74.8 82.1,74.9 82.2,74.9 L82.2,74.9 C82.2,74.8 82.2,74.9 82.2,74.8 L82,74.7 L82,74.6 L81.8,74.6 L81.7,74.6 C81.6,74.6 81.5,74.7 81.4,74.7 L81.3,74.7 C81.3,74.7 81.3,74.7 81.2,74.7 L81.2,74.7 L81.1,74.8 L81.1,74.8 L81.1,74.8 L81.1,74.8 L81.1,74.8 Z" id="_x37_-9-5-5" fill="#EAC102"></path>
            <path d="M84.1,74 C84.1,74 84.1,74.1 84.1,74 L84.2,74.2 L84.2,74.5 L84.2,74.6 L84.2,74.9 C84.2,74.9 84.2,74.9 84.2,75 L84.2,75 L84.2,75.2 L84.2,75.3 C84.2,75.3 84.2,75.4 84.1,75.4 L84,75.4 L83.9,75.4 C83.8,75.4 83.8,75.4 83.8,75.3 L83.8,75.3 L83.8,75.3 C83.8,75.3 83.8,75.3 83.8,75.2 L83.8,75.2 L83.8,75 L83.8,74.8 L83.8,74.6 L83.8,74.5 L83.8,74.4 L83.8,74.2 L83.8,74 C83.8,74 83.8,74 83.8,73.9 C83.7,73.9 83.6,73.9 83.5,74 L83.4,74 L83.4,74 L83.4,74 L83.5,74.1 L83.5,74.2 L83.5,74.5 L83.5,74.8 L83.5,74.8 C83.5,74.8 83.5,74.8 83.5,74.9 L83.5,75 L83.5,75 L83.5,75.1 L83.5,75.1 L83.5,75.2 L83.5,75.2 L83.5,75.2 L83.5,75.2 L83.6,75.3 L84,75.3 L84,75.3 L84.1,75.2 L84.1,75.2 L84.1,75.2 L84.2,75.1 L84.2,75 L84.2,75 L84.2,74.9 L84.2,74.6 L84.2,74.3 L84.2,74.1 L84.2,74 C84.2,73.9 84.2,74 84.2,74 L84.2,73.8 C84.2,73.8 84.2,73.8 84.2,73.7 L84,73.7 C84.2,74 84.2,74 84.1,74 L84.1,74 L84.1,74 L84.1,74 L84.1,74 L84.1,74 L84.1,74 L84.1,74 Z" id="_x38_-0-5-9" fill="#EAC102"></path>
            <path d="M88.6,74.5 L88.6,74.5 L88.4,74.7 C88.4,74.7 88.4,74.7 88.3,74.8 L88.2,74.8 C88.2,74.8 88.2,74.8 88.1,74.8 L88.1,74.8 L88,74.8 L88,74.7 L88,74.7 L88,74.7 L88,74.7 L88,74.7 L88,74.6 L88,74.6 L88,74.4 L88,74.3 L88,73.9 L88,73.8 L88,73.8 C88,73.8 88,73.7 88.1,73.7 L88.2,73.6 L88.3,73.6 L88.3,73.6 C88.3,73.6 88.3,73.6 88.4,73.7 L88.4,73.7 C88.5,73.8 88.5,73.9 88.5,74 C88.5,74 88.5,74 88.5,73.9 L88.5,73.7 L88.5,73.7 L88.5,73.7 L88.5,73.7 L88.5,73.7 L88.4,73.6 L88.1,73.6 C88,73.6 88,73.6 88,73.7 L87.9,73.8 L87.8,74 L87.8,74.1 L87.8,74.3 C87.8,74.4 87.8,74.3 87.8,74.5 L87.8,74.8 C87.8,74.9 87.8,74.9 87.9,75 L87.9,75 L88.1,75.2 L88.1,75.2 L88.1,75.2 L88.3,75.2 L88.5,75.2 L88.6,75.2 L88.6,75.2 L88.7,75.1 L88.8,74.9 L88.8,74.9 L88.8,74.9 C88.6,74.6 88.6,74.6 88.6,74.5 L88.6,74.5 L88.6,74.5 L88.6,74.5 L88.6,74.5 L88.6,74.5 L88.6,74.5 L88.6,74.5 L88.6,74.5 Z" id="_x39_-4-8-1" fill="#EAC102"></path>
            <path d="M85.8,73.6 C85.8,73.7 85.8,73.6 85.8,73.6 L85.9,73.7 L85.9,73.9 L85.9,74.2 L85.9,74.2 L85.9,74.4 L85.9,74.5 L85.9,74.7 C85.9,74.8 86,74.9 85.9,75 C85.9,75 85.9,75 85.9,75.1 L85.9,75.1 L85.9,75.1 L86.1,75.1 L86.4,75.1 L86.5,75.1 L86.7,75.1 L86.7,75.1 L86.7,74.8 C86.6,74.8 86.7,74.8 86.6,74.9 C86.6,74.9 86.6,75 86.5,75 L86.5,75 L86.4,75 L86.3,75 L86.1,75 C86,75 86,74.7 86,74.7 L86,74.1 L86,73.7 C86,73.6 86,73.6 86.1,73.6 L86,73.6 L85.9,73.6 L85.8,73.6 C85.9,73.6 85.9,73.6 85.8,73.6 L85.8,73.6 L85.8,73.6 L85.8,73.6 L85.8,73.6 L85.8,73.6 L85.8,73.6 Z" id="_x31_0-4-5-0" fill="#EAC102"></path>
            <path d="M86.9,73.5 C86.9,73.6 86.9,73.5 86.9,73.5 C86.9,73.6 86.9,73.6 86.9,73.5 C87,73.6 87,73.7 87,73.7 C87,73.7 87,73.7 87,73.8 L87.1,74.7 C87.1,74.8 87.1,74.7 87.1,74.9 C87.1,75 87.1,74.9 87,75.1 L87.3,75.1 L87.4,75.1 C87.4,75 87.4,75.1 87.4,75 C87.3,74.9 87.4,74.6 87.3,74.5 L87.3,74.3 L87.3,74.1 L87.3,73.9 L87.3,73.6 L87.3,73.6 C87.3,73.5 87.3,73.6 87.4,73.5 C87.3,73.5 86.9,73.5 86.9,73.5 L86.9,73.5 L86.9,73.5 L86.9,73.5 L86.9,73.5 L86.9,73.5 L86.9,73.5 Z" id="_x31_1-5-4-4" fill="#EAC102"></path>
            <path d="M90.6,73.2 L90.2,73.2 L90.2,73.2 C90.2,73.3 90.2,73.2 90.3,73.3 L90.3,73.3 L90.3,74.4 C90.3,74.7 90.3,74.6 90.2,74.8 L90.8,74.8 L90.9,74.8 C91,74.8 91,74.8 91,74.7 L91,74.7 L91,74.7 L91,74.7 C91,74.7 91,74.7 91.1,74.6 L91.1,74.6 L91.1,74.6 L91.2,74.5 L91.2,74.5 L91.2,74.4 L91.2,74.4 C91.2,74.4 91.2,74.4 91.2,74.3 C91.2,74.2 91.2,74.3 91.2,74.2 C91.2,74.1 91.2,74.2 91.2,74.1 L91.2,73.9 L91.2,73.7 L91.2,73.7 L91.2,73.7 C91.2,73.6 91.2,73.6 91.1,73.5 L91,73.4 L91,73.4 L91,73.4 L91,73.4 L90.8,73.2 L90.8,73.2 L90.8,73.2 C90.8,73.2 90.8,73.2 90.7,73.2 C90.7,73.2 90.8,73.2 90.6,73.2 L90.6,73.2 L90.6,73.2 L90.6,73.2 L90.6,73.2 L90.6,73.2 L90.6,73.2 Z M90.7,73.3 L90.8,73.3 L90.8,73.3 L90.8,73.3 L90.8,73.3 L90.8,73.3 L90.9,73.4 L90.9,73.4 C90.9,73.4 90.9,73.4 90.9,73.5 C90.9,73.5 90.9,73.5 90.9,73.6 L90.9,73.8 L90.9,74.2 C90.9,74.2 90.9,74.2 90.9,74.3 L90.9,74.5 L90.9,74.6 L90.9,74.6 L90.9,74.7 L90.8,74.8 L90.8,74.8 L90.8,74.8 L90.7,74.8 C90.7,74.8 90.7,74.8 90.7,74.7 L90.7,74.7 L90.7,74.7 L90.7,73.4 C90.7,73.4 90.7,73.4 90.7,73.3 C90.6,73.4 90.6,73.3 90.7,73.3 C90.7,73.3 90.6,73.3 90.7,73.3 L90.7,73.3 L90.7,73.3 L90.7,73.3 L90.7,73.3 L90.7,73.3 Z" id="_x32_-9-9-7_1_" fill="#EAC102"></path>
            <path d="M92,73.3 C92,73.3 91.9,73.3 92,73.3 L91.9,73.3 L91.9,73.3 C91.9,73.3 91.8,73.3 91.8,73.4 L91.8,73.4 C91.8,73.4 91.8,73.4 91.7,73.5 L91.6,73.7 L91.6,73.8 C91.6,73.8 91.6,73.8 91.6,73.9 L91.6,74 L91.6,74.2 L91.6,74.4 C91.6,74.5 91.6,74.4 91.6,74.5 L91.7,74.8 L91.7,74.9 L91.7,74.9 L91.7,74.9 L91.7,74.9 L91.7,74.9 L91.7,74.9 L91.7,74.9 L91.7,74.9 L91.7,74.9 L91.8,74.9 L91.9,74.9 L91.9,74.9 L91.9,74.9 L92,74.9 L92.1,74.9 C92.2,74.9 92.2,74.9 92.3,74.8 L92.4,74.8 L92.5,74.7 L92.5,74.6 L92.5,74.6 L92.5,74.6 L92.6,74.5 C92.6,74.4 92.7,74.4 92.7,74.3 C92.7,74.2 92.7,74.3 92.7,74.2 L92.7,74 L92.7,73.8 L92.7,73.7 L92.7,73.7 L92.7,73.7 L92.7,73.6 L92.7,73.5 L92.6,73.4 C92.6,73.4 92.6,73.3 92.5,73.3 L92.5,73.3 L92.5,73.3 C92.2,73.3 92.1,73.3 92,73.3 L92,73.3 L92,73.3 L92,73.3 L92,73.3 L92,73.3 L92,73.3 Z M92,73.4 L92,73.4 L92.1,73.5 L92.1,73.5 L92.1,73.5 C92.1,73.5 92.1,73.5 92.1,73.6 L92.1,73.7 C92.1,73.8 92.1,73.7 92.1,73.8 C92.1,73.8 92.1,73.8 92.1,73.9 L92.1,74.1 L92.1,74.3 L92.1,74.5 C92.1,74.6 92.1,74.5 92.1,74.6 L92.1,74.7 L92.1,74.8 C92.1,74.8 92.1,74.9 92,74.9 L92,74.9 L92,74.9 L92,74.9 C92,74.9 92,74.9 91.9,74.9 L91.9,74.9 L91.9,74.9 L91.9,74.9 C91.9,74.9 91.8,74.9 91.8,74.8 L91.8,74.8 L91.8,74.8 C91.7,74.7 91.8,74.8 91.8,74.7 L91.8,74.2 L91.8,74 L91.8,73.8 L91.8,73.8 C91.8,73.8 91.8,73.8 91.8,73.7 C91.8,73.6 91.8,73.6 91.9,73.6 C91.9,73.4 91.9,73.5 92,73.4 C91.9,73.4 92,73.4 92,73.4 L92,73.4 L92,73.4 L92,73.4 L92,73.4 L92,73.4 L92,73.4 Z" id="_x33_-5-0-9_1_" fill="#EAC102"></path>
            <path d="M92.6,75.1 L92.8,75.1 L92.8,75.1 L92.8,75.1 L92.8,75 L92.8,74.9 L92.8,74.7 L92.8,74.6 C92.8,74.6 92.8,74.6 92.8,74.5 L92.8,74.3 L92.8,74.2 C92.8,74.1 92.8,74.2 92.8,74.1 L92.8,74 C92.8,73.9 92.8,74 92.8,73.8 L92.8,73.6 C92.8,73.6 92.8,73.6 92.8,73.7 L92.8,73.7 L92.8,73.7 L92.8,73.8 L92.8,73.8 L92.8,73.8 L92.8,73.9 L92.8,73.9 L92.8,74 L92.8,74.1 L92.8,74.1 L92.8,74.3 C92.8,74.3 92.8,74.3 92.8,74.4 C92.8,74.4 92.8,74.4 92.8,74.5 L92.8,74.6 L92.8,74.8 L92.9,74.8 C92.9,74.7 92.9,74.8 92.9,74.7 L92.9,74.7 C92.9,74.7 92.9,74.7 92.9,74.6 L92.9,74.5 L92.9,74.4 L92.9,74.3 C92.9,74.2 92.9,74.3 92.9,74.2 L92.9,74 L92.9,73.9 L92.9,73.7 C92.9,73.6 92.9,73.6 93,73.5 L93,74.6 C93,74.7 93,74.7 92.9,74.7 L92.9,74.7 L92.9,74.7 L92.9,74.7 L93.1,74.7 L93.3,74.7 L93.3,74.6 L93.3,74.6 C93.2,74.5 93.3,74.4 93.3,74.3 L93.3,74.1 L93.3,73.9 L93.3,73.1 L93.3,73.1 C93.3,73.1 93.3,73.1 93.3,73 L92.9,73 L92.9,73.1 C92.9,73.2 92.8,73.3 92.8,73.4 L92.8,73.4 L92.8,73.5 L92.8,73.6 C92.8,73.6 92.8,73.6 92.8,73.7 C92.8,73.7 92.8,73.7 92.8,73.8 L92.8,74 L92.8,74 C92.8,74.1 92.8,74 92.8,74.1 C92.8,74.1 92.8,74.1 92.8,74 L92.8,73.9 C92.8,73.8 92.8,73.9 92.8,73.9 L92.8,73.8 C92.8,73.7 92.8,73.8 92.8,73.8 L92.8,73.6 L92.8,73.5 L92.8,73.4 L92.8,73.1 L92.7,73.1 C92.7,73.1 92.7,73.1 92.6,73.1 L92.4,73.1 C92.4,73.1 92.4,73.1 92.4,73.2 L92.4,73.2 L92.4,73.4 C92.4,73.4 92.4,73.4 92.4,73.5 C92.4,73.6 92.4,73.5 92.4,73.7 L92.3,74.2 L92.3,74.3 L92.3,74.4 L92.3,74.6 L92.3,74.6 C92.7,74.9 92.7,75 92.6,75.1 C92.6,75 92.6,75 92.6,75.1 C92.6,75.1 92.6,75 92.6,75.1 L92.6,75.1 L92.6,75.1 L92.6,75.1 L92.6,75.1 L92.6,75.1 Z" id="_x34_-13-2-9" fill="#EAC102"></path>
            <path d="M100.1,75.6 L100.1,75.6 L100.1,75.6 L100.1,75.6 C100.1,75.7 100,75.7 100,75.7 L99.9,75.9 L99.9,75.9 L99.9,76 L99.8,76.3 L99.8,76.3 L99.5,76.8 C99.5,76.8 99.4,76.8 99.4,76.9 L99.4,76.9 L99.5,76.9 L99.5,76.9 L99.6,76.9 L99.7,76.9 C99.7,76.9 99.7,76.9 99.7,76.8 L99.7,76.8 L99.7,76.8 L99.7,76.8 L99.7,76.8 L99.7,76.7 L99.7,76.7 L99.7,76.7 L99.7,76.7 L99.7,76.7 L99.7,76.6 L99.7,76.6 L99.9,76.7 L99.9,76.7 L99.9,76.7 L99.9,76.9 L99.9,77 L99.9,77 L99.9,77 L99.9,77 L100,77 L100.1,77 L100.2,77 L100.3,77 C100.3,77 100.3,77 100.3,76.9 L100.3,76.9 L100.3,76.6 L100.3,76.3 C100.3,76.3 100.3,76.3 100.3,76.2 L100.3,75.4 C100.2,75.6 100.2,75.6 100.1,75.6 L100.1,75.6 L100.1,75.6 L100.1,75.6 L100.1,75.6 L100.1,75.6 L100.1,75.6 Z M100.1,75.9 L100.1,76.5 C100,76.5 100.1,76.5 100,76.5 L100,76.5 L100,76.5 L99.9,76.4 L100,76.2 C100.1,76.1 100,76.2 100.1,76.1 L100.1,76.1 C100,76 100,76 100.1,75.9 L100.1,75.9 C100,75.9 100,75.9 100.1,75.9 C100,75.9 100,75.9 100.1,75.9 L100.1,75.9 L100.1,75.9 L100.1,75.9 L100.1,75.9 L100.1,75.9 Z" id="_x35_-9-6-8" fill="#EAC102"></path>
            <path d="M98.6,76.5 L98.6,76.5 L98.6,76.4 L98.6,76.4 L98.6,76.2 L98.6,76.1 C98.6,76.1 98.6,76.1 98.6,76 L98.6,76 L98.6,76 C98.6,76 98.6,76 98.6,75.9 L98.6,75.9 L98.6,75.9 L98.6,75.7 C98.6,75.7 98.6,75.7 98.6,75.6 C98.6,75.5 98.6,75.6 98.6,75.5 L98.6,75.4 L98.6,75.4 L98.7,75.6 L98.7,75.6 L98.7,75.6 L98.7,75.6 L98.8,75.8 L98.8,75.8 L98.8,75.8 C98.8,75.9 98.8,75.8 98.8,75.8 L98.8,75.8 L98.8,75.8 L98.8,75.8 L98.8,75.8 L98.8,75.8 L98.8,76 L98.9,76.2 L98.9,76.2 L98.9,76.2 L98.9,76.2 L98.9,76.2 L98.9,76.3 L99,76.3 L99,76.3 L99,76.3 L99,76.3 L99,76.1 L99,75.9 L99,75.9 L99,75.6 L99,75.4 C99,75.3 99,75.4 99,75.3 L99,75.1 L99,75.1 C99,75.1 99,75.1 99,75 C99,75 99.1,75 99,74.9 L99,74.9 L98.8,74.8 C98.8,74.8 98.8,74.8 98.7,74.8 L98.7,74.8 L98.7,74.8 L98.7,74.8 L98.7,74.8 L98.7,74.8 L98.7,75 L98.7,75.1 L98.7,75.1 L98.7,75.3 L98.7,75.3 L98.7,75.5 L98.7,75.5 L98.7,75.3 L98.6,75.1 L98.6,75.1 L98.6,75 L98.6,75 C98.6,75 98.6,75 98.6,74.9 C98.6,74.8 98.6,74.9 98.6,74.8 L98.6,74.8 C98.6,74.7 98.6,74.6 98.5,74.5 L98.5,74.5 L98.5,74.4 C98.5,74.4 98.5,74.4 98.5,74.3 C98.5,74.3 98.5,74.3 98.4,74.3 C98.3,74.3 98.3,74.3 98.1,74.2 C98.1,74.3 98.1,74.2 98.1,74.4 L98.1,74.6 L98.1,74.7 L98,75 L98,75.1 C98,75.1 98,75.1 98,75.2 L98,75.2 C98,75.3 98,75.4 97.9,75.5 L97.8,75.6 C97.8,75.7 97.7,75.6 97.7,75.7 L97.7,75.7 L97.8,75.7 L97.9,75.7 C98.5,76.5 98.6,76.5 98.6,76.5 L98.6,76.5 L98.6,76.5 L98.6,76.5 L98.6,76.5 L98.6,76.5 L98.6,76.5 Z" id="_x36_-38-8-0" fill="#EAC102"></path>
            <path d="M94.6,75.4 L94.6,75.4 L94.7,75.4 L94.8,75.4 L94.9,75.4 L94.9,75.4 L94.9,75.4 L94.9,75.3 L94.9,74.9 L94.9,74.7 C94.9,74.7 94.9,74.7 94.9,74.6 L94.9,74.4 L94.9,74.3 L94.9,74.3 L95,74.6 L95,74.6 L95.2,75.1 L95.2,75.1 L95.2,75.1 L95.2,75.1 L95.2,75.1 L95.3,75.4 L95.3,75.4 L95.3,75.4 C95.3,75.5 95.3,75.5 95.4,75.5 L95.4,75.3 C95.4,75.2 95.4,75.3 95.4,75.3 L95.4,75.1 L95.4,75.1 L95.4,74.9 L95.4,74.8 L95.4,74.6 L95.4,74.6 L95.4,74.3 L95.4,74.3 C95.4,74.2 95.4,74.2 95.5,74.1 L95.5,74.1 C95.5,74.1 95.5,74.1 95.6,74 L95.5,74 L95.5,74 L95.4,74 L95.4,74 L95.4,74 L95.4,74 C95.5,74.1 95.4,74.4 95.4,74.5 L95.4,74.7 L95.4,74.9 C95.4,74.9 95.4,74.9 95.4,74.8 L95.4,74.7 L95.4,74.6 L95.3,74.4 C95.3,74.4 95.3,74.4 95.3,74.3 L95.3,74.3 L95.3,74.3 L95.3,74.3 L95.3,74.3 L95.3,74.3 L95.3,74.2 L95,73.9 C95,73.9 95,73.9 94.9,73.9 L94.8,73.9 C94.7,73.9 94.8,73.9 94.7,73.9 C94.7,73.9 94.7,73.9 94.7,74 L94.7,74 L94.7,74 L94.7,74 L94.7,74.3 L94.7,74.6 L94.7,74.7 L94.7,74.9 L94.7,74.9 L94.7,75.1 C94.7,75.2 94.7,75.2 94.6,75.3 L94.6,75.4 C94.6,75.3 94.6,75.3 94.6,75.4 C94.6,75.4 94.6,75.3 94.6,75.4 L94.6,75.4 L94.6,75.4 L94.6,75.4 L94.6,75.4 L94.6,75.4 Z" id="_x37_-8-1-1" fill="#EAC102"></path>
            <path d="M97.9,74.7 L97.9,74.7 L97.9,74.7 L97.8,74.9 L97.8,74.9 L97.7,75.2 L97.7,75.2 L97.7,75.2 L97.7,75.3 C97.7,75.3 97.7,75.3 97.7,75.4 L97.7,75.4 L97.7,75.5 C97.7,75.6 97.6,75.7 97.6,75.7 L97.5,75.9 C97.5,75.9 97.4,75.9 97.4,76 L97.4,76 L97.4,76 L97.6,76 L97.7,76 C97.7,75.9 97.7,76 97.7,75.9 L97.7,75.9 L97.7,75.8 C97.7,75.8 97.7,75.7 97.8,75.7 L97.9,75.7 L98,75.7 L98,75.7 L98,75.7 L98.1,75.7 L98.1,76 C98.1,76 98.1,76 98.1,76.1 L98.1,76.1 L98.2,76.1 L98.3,76.1 L98.3,76.1 L98.3,76.1 L98.3,76.1 L98.4,76.1 L98.4,76 L98.4,75.5 L98.4,75.5 L98.4,75 L98.4,74.8 C98.4,74.5 98.4,74.6 98.3,74.6 L97.9,74.7 L97.9,74.7 L97.9,74.7 L97.9,74.7 L97.9,74.7 Z M97.9,75 L97.9,75.7 L97.8,75.7 L97.7,75.7 C97.7,75.7 97.7,75.7 97.6,75.7 C97.6,75.6 97.7,75.6 97.7,75.5 C97.7,75.5 97.7,75.5 97.7,75.4 L97.7,75.4 L97.7,75.4 L97.7,75.4 C97.7,75.3 97.7,75.4 97.7,75.3 L97.7,75.2 L97.7,75.2 L97.7,75.2 L97.9,75 L97.9,75 L97.9,75 L97.9,75 L97.9,75 L97.9,75 L97.9,75 Z" id="_x38_-9-7-4" fill="#EAC102"></path>
            <path d="M96.4,75.2 L96.4,75.3 L96.4,75.4 L96.4,75.5 L96.4,75.5 C96.4,75.5 96.4,75.5 96.4,75.6 L96.4,75.6 L96.5,75.7 L96.5,75.7 L96.5,75.7 L96.7,75.8 L96.7,75.8 L97,75.8 L97.1,75.8 L97.1,75.8 L97.2,75.7 L97.3,75.6 L97.3,75.6 L97.2,75.7 L97,75.7 C97,75.7 97,75.7 96.9,75.6 L96.9,75.6 C96.9,75.6 96.9,75.6 96.9,75.5 L96.9,75.4 C96.9,75.3 96.9,75.4 96.9,75.3 L96.9,74.9 C96.9,74.9 96.9,74.9 96.9,74.8 L96.9,74.6 L96.9,74.5 C96.9,74.5 96.9,74.4 97,74.4 L97,74.4 L97.1,74.4 L97.2,74.4 L97.2,74.4 L97.2,74.4 L97.2,74.4 L97.3,74.5 L97.3,74.6 L97.3,74.8 C97.4,74.8 97.4,74.8 97.4,74.7 L97.4,74.6 L97.4,74.6 L97.4,74.4 L97.4,74.4 L97.3,74.3 C97.3,74.3 97.3,74.3 97.2,74.3 L97.2,74.3 L97.2,74.3 L97.2,74.3 L96.9,74.3 L96.8,74.4 L96.8,74.4 L96.7,74.5 C96.7,74.5 96.7,74.5 96.7,74.6 L96.7,74.6 L96.7,74.7 L96.7,74.8 C96.7,74.8 96.7,74.8 96.7,74.9 L96.7,75.1 C96.4,75.1 96.4,75.1 96.4,75.2 C96.4,75.2 96.4,75.1 96.4,75.2 L96.4,75.2 L96.4,75.2 L96.4,75.2 L96.4,75.2 L96.4,75.2 Z" id="_x39_-7-5-5" fill="#EAC102"></path>
            <path d="M95.9,74.2 L95.9,74.2 L95.9,74.3 L95.9,74.4 C95.9,74.5 95.9,74.4 95.9,74.6 L95.9,74.8 L95.9,74.8 L95.9,75.1 L95.9,75.3 L95.9,75.3 L95.9,75.5 C95.9,75.6 95.9,75.5 95.9,75.6 C95.9,75.6 95.9,75.6 95.8,75.6 L95.8,75.6 L95.9,75.6 L96,75.6 L96.1,75.6 L96.1,75.6 L96.2,75.6 C96.2,75.6 96.2,75.6 96.2,75.5 L96.2,75.5 C96.2,75.5 96.2,75.5 96.2,75.4 L96.2,75.2 C96.2,75 96.2,75.2 96.2,74.9 C96.2,74.8 96.2,74.9 96.2,74.8 L96.2,74.7 L96.2,74.7 L96.2,74.5 C96.2,74.5 96.2,74.5 96.2,74.4 C96.2,74.3 96.2,74.4 96.2,74.3 L96.2,74.2 L96.3,74.2 C96.3,74.2 96.3,74.2 96.2,74.2 L96.2,74.2 C96.2,74.2 96.2,74.2 96.1,74.2 C96.1,74.2 96.1,74.2 96,74.2 C96,74.1 96,74.1 95.9,74.2 C95.9,74.1 95.9,74.1 95.9,74.2 C95.9,74.2 95.9,74.1 95.9,74.2 C95.9,74.2 95.9,74.1 95.9,74.2 L95.9,74.2 L95.9,74.2 L95.9,74.2 Z" id="_x31_2-6-1-1" fill="#EAC102"></path>
            <path d="M94.1,75.2 L94.4,75.2 L94.6,75.2 C94.6,75.1 94.6,75.2 94.6,75.1 C94.5,75 94.6,74.9 94.6,74.8 L94.6,74.6 C94.6,74.6 94.6,74.6 94.6,74.5 L94.6,74.2 L94.6,73.9 L94.6,73.8 L94.6,73.7 L94.7,73.7 L94.7,73.6 L94.5,73.6 L94.3,73.6 L94.3,73.6 L94.3,73.6 L94.3,73.6 L94.3,73.6 L94.3,73.7 C94.3,73.7 94.3,73.7 94.3,73.8 L94.3,73.8 L94.3,74.1 L94.3,74.3 L94.3,74.3 L94.3,74.3 L94.3,74.6 C94.3,74.6 94.3,74.6 94.3,74.7 C94.1,75 94.1,75.1 94.1,75.2 C94.1,75.1 94.1,75.1 94.1,75.2 C94.1,75.1 94.1,75.1 94.1,75.2 C94.1,75.2 94.1,75.1 94.1,75.2 C94.1,75.2 94.1,75.1 94.1,75.2 L94.1,75.2 L94.1,75.2 L94.1,75.2 L94.1,75.2 L94.1,75.2 Z" id="_x31_3-10-0-9_1_" fill="#EAC102"></path>
            <g id="Group" transform="translate(0.000000, 50.000000)" fill="#00873F">
                <rect id="Rectangle-path" x="0" y="30" width="70" height="40"></rect>
                <ellipse id="Oval" cx="74" cy="3.1" rx="0.5" ry="0.4"></ellipse>
                <path d="M83.2,24.4 C84,24.8 84.3,24.6 84.3,24.6 L83.2,24.4 L83.2,24.4 Z" id="Shape"></path>
                <path d="M74.5,17 L74.5,17 L74.5,17 L74.5,17 Z" id="Shape"></path>
                <path d="M83.4,22.8 C83.5,22.7 83.5,22.5 83.5,22.4 L83.5,22 L83.5,21.3 L83.5,21.1 L83.5,21.1 C83.5,20.9 83.4,20.8 83.4,20.8 C83.2,20.9 82.8,21.7 82.8,21.7 C82.2,20.5 81.5,20.3 81.5,20.3 C81.4,20.4 81.5,20.7 81.5,20.7 C81.7,21.4 81.5,21.9 81.5,21.9 C81.4,22.4 81.5,22.5 81.5,22.5 C80.9,22.1 80.7,22 80.6,22 C80.6,21.8 80.6,21.6 80.5,21.4 C80.5,21.3 80.6,21.3 80.6,21.2 C80.6,21 80.4,20.8 80.1,20.8 L80.1,20.8 C80.1,20.6 79.9,20.4 79.6,20.4 C79.5,20.4 79.4,20.4 79.4,20.5 C79.1,20.4 78.8,20.2 78.4,20.2 L78.3,20.2 L78.2,19.8 C78.4,19.8 78.8,19.8 79.1,19.2 C79.3,18.9 79.4,18.6 79.5,18.4 L79.3,18.4 C79.3,18.3 79.3,18.3 79.4,18.2 C79.4,18.2 79.2,18.2 78.6,18.4 C78.6,18.1 78.6,17.9 78.5,17.8 L78.5,17.7 L78.6,17.1 C78.7,17 78.7,16.8 78.8,16.7 C78.8,16.7 78.4,16.6 77.7,17.4 L77.6,17 C78,16.8 78.1,16.3 78.3,15.9 L78.4,15.8 C79.3,15.7 79.2,15.5 79.2,15.5 C78.6,14.9 78.8,14.9 78.5,14.6 C78.1,14 77.5,14 77.5,14 L77.2,14 L77.1,13.7 C77.3,13.7 77.5,13.7 77.7,13.6 C77.8,13.6 77.9,13.6 78,13.5 L79.1,12.4 C78.7,12.5 78.7,12.5 78.6,12.5 C78.7,12.4 78.7,12.2 78.7,12 C78.7,12 78.5,12.3 77.9,12.2 C78.2,11.8 78.4,11.2 78.6,10.8 C78.5,10.8 78.3,10.9 78.2,10.9 L78.2,10.6 C78.2,10.6 78,10.7 77.3,10.9 L77,10.1 L76.9,10.2 C76.9,10.1 76.8,10 76.8,9.8 C76.8,9.8 75.6,10.7 75.7,11.7 C75.7,11.7 75.8,12 75.8,12.3 C75.7,12.2 75.6,12.1 75.4,12.1 C75.3,12.1 75.2,12.1 75.1,12.2 L75.2,11.3 C75.9,10.8 76.2,10.3 76.4,9.7 L76.6,9.6 C77,10.1 77.6,10 77.9,9.8 C78,9.8 78,9.7 78,9.7 C78.5,9.6 78.7,9.5 79.1,9.2 L78.7,9.1 L78.7,9.1 L78.5,9.1 L78.2,9 L78.1,9.1 C78.1,9.1 78.1,9.1 78,9.1 L78,9.1 C78.5,8.9 78.7,8.6 79,8.2 L78.6,8.2 L78.6,8.1 C78.5,8 78.3,8.1 78.1,8.2 C77.9,8.1 77.7,8 77.5,8 C77.4,7.9 77.2,7.9 77.1,7.9 L77.6,7.2 C77.8,7.2 77.9,7.1 78,7 C78.3,7 78.5,7 78.8,6.7 C79.1,6.4 79.4,6 79.6,5.6 C79.5,5.6 79.2,5.7 79.1,5.8 C79.1,5.8 79,5.9 79,6 C78.9,6.2 79,6 79,6.2 L79,6.2 L79,6.2 C78.8,6.3 78.7,6.4 78.6,6.5 L78.7,6.4 C79,5.8 79.2,5.7 79.2,5.7 C79.2,5.6 79.1,5.5 79.1,5.5 C79.2,5.2 79.3,4.8 79.3,4.6 L78.7,5 C78.8,4.3 78.7,4.3 78.7,4.3 C78.6,4.3 78.5,4.4 78.5,4.4 C78.4,4.8 78,5 77.7,5 L77.7,4.4 C77.6,4.5 77.6,4.5 77.5,4.6 C77.4,4.2 77.3,4.2 77.3,4.2 C77.2,4.4 76.9,4.6 76.9,4.6 C76.2,5.5 76.2,5.8 76.2,5.8 C76.2,6.8 76,7.7 76,7.7 C76.5,6.9 77.3,7.3 77.3,7.3 L77.4,7.3 C77.3,7.4 77.1,7.7 76.9,8 C76.6,8 76.4,8.2 76.4,8.2 C75.6,8.8 75.7,8.9 75.7,8.9 C75.8,9 75.8,9.1 75.9,9.2 C75.6,9.3 75.3,9.4 75.1,9.6 L75.2,8.6 C75.6,8.3 75.8,7.9 75.9,7.6 L75.9,7.4 C76,7.1 76.1,6.8 76,6.6 L76,6.1 C75.9,6.1 75.6,6.7 75.4,6.7 C75.4,6.7 75.4,6.7 75.3,6.7 L75.3,6.5 C75.8,6.3 76.1,5.9 76.2,5.5 L76.2,5.5 L76.2,5.6 L76.2,5.5 C76.4,5.1 76.5,4.7 76.6,4.3 C76.5,4.3 76.5,4.3 76.4,4.4 L76.4,3.9 C76.3,3.9 76,4.5 75.8,4.5 C75.7,4.5 75.6,4.5 75.5,4.6 L75.6,3.7 C75.7,3.7 75.8,3.6 75.9,3.6 C75.9,3.6 76.4,3.7 76.8,3.4 L76.9,3.3 C77.5,3 77.9,2.2 78.3,1.6 C78.1,1.6 78,1.6 77.9,1.7 C77.9,1.6 78,1.5 78,1.4 C78,1.4 77.8,1.5 77.3,1.6 C77.3,1.4 77.4,1.2 77.4,1 C77.3,1 77.3,1.1 77.2,1.1 L77.2,0.8 C77.2,0.8 76.4,1 75.6,2 C75.6,2 75.5,1.4 75.2,0.6 C75.2,0.6 74.1,2.3 74.5,3.5 C74.8,4.5 74.8,3.9 74.9,4.5 C74.9,4.5 74.9,4.5 74.9,4.4 L75,4.7 C75,4.8 74.9,5 74.9,5.2 C74.8,5.4 74.7,5.6 74.7,5.6 C74.5,6.4 74.5,6.6 74.5,6.6 C74.2,7.6 74,8.8 73.9,10.1 C73.8,10.4 73.7,10.8 73.6,11.2 L73.6,11.2 L73.6,11.4 C73.5,11.3 73.4,11.3 73.4,11.2 C73.3,11 73.3,10.9 73.2,10.8 C73.3,10.8 73.3,10.8 73.4,10.9 C73.4,10.9 73.4,10.4 73.5,9.8 C73.5,9.8 73.6,9.7 73.5,8.7 C73.6,8.8 73.8,8.9 74.1,8.9 C74.1,8.9 74.2,9 74.2,8 C74.2,8 74.2,7.2 73.6,6.8 C73.5,6.7 73.4,6.5 73.4,6.3 C73.6,6.6 73.9,6.8 74.3,6.8 C74.3,6.8 74.3,6.8 74.3,6.9 C74.3,6.9 74.3,6.9 74.3,6.8 L74.3,6.8 L74.3,6.8 L74.4,7 C74.3,6.9 74.3,6.9 74.3,6.8 C74.3,6.8 74.4,6.6 74.4,5.8 C74.4,5.8 74.4,4.9 73.6,4.5 C73.4,4.4 73.4,3.8 73.2,3.7 C73.2,3.7 73.1,3.7 73,4.2 L72.9,4 C72.8,4.1 72.7,4.6 72.7,4.8 C72.7,5.2 72.8,5.8 73,6.1 L73,6.2 C73,6.2 72.9,6.3 72.8,6.7 L73,6.4 C72.9,6.6 72.8,7 72.9,7.3 C72.8,7.2 72.8,7.1 72.8,7 C72.8,7 72.7,6.8 72.5,7.4 C72.5,7.4 72.5,7.4 72.4,7.3 C72.4,7.2 72.3,7.1 72.2,6.9 C72.2,6.9 71.7,6.6 71.5,6 C71.5,6 71.4,5.5 71.3,5.7 C71.3,5.7 71.2,6.1 71.1,6.6 L70.7,6 C70.4,6.6 70.5,7.9 71.1,8.4 C71.2,8.5 71.3,8.5 71.4,8.6 C71.5,8.6 71.5,8.7 71.6,8.7 L71.6,8.7 C71.5,8.7 71.2,8.6 71,8.4 C71,8.4 70.9,8.2 70.8,8.3 C70.8,8.3 70.7,8.4 70.8,8.7 L70.3,8.5 C70.4,9.1 70.7,9.5 71,9.8 C71.1,9.9 71.3,10.1 71.6,10.1 C71.8,10.3 72.1,10.5 72.5,10.4 C72.5,10.4 72.7,10.3 73.1,10.4 L73.3,10.7 L73.2,10.6 C73.2,10.6 72.9,10.4 71.5,10.8 L71.3,10.8 C71.5,11.2 71.9,11.6 72.4,11.8 C72.7,12 73,12.1 73.3,12.1 C73.5,12.1 73.7,12 73.9,11.9 C73.9,12 74,12 74,12.1 C74,12.5 74,12.9 74.1,13.4 C73.7,13 73.3,12.7 73.3,12.7 C73.1,12.5 73.1,12.9 73.1,12.9 C72.6,11.8 71.2,11.7 71.2,11.7 C71.1,11.7 71,11.6 71,11.6 C70.8,11.6 70.9,11.8 71,12 L70.5,11.9 C70.6,12.2 71,12.9 71.1,13.1 C71.4,13.6 71.5,13.6 71.7,13.5 C71.8,13.6 71.9,13.6 71.9,13.6 L71.9,13.6 C71.8,13.6 71.7,13.6 71.6,13.7 C71.2,13.7 70.7,13.3 70.8,13.8 L70.9,13.9 C70.8,13.9 70.7,13.9 70.4,13.8 C70.5,13.9 70.7,14.1 70.9,14.2 C71.1,14.4 71.5,14.6 71.9,14.6 C72,14.7 72.1,14.7 72.1,14.7 C72.7,14.9 73.1,14.8 73.3,14.7 C73.4,14.8 73.4,14.9 73.5,14.9 C73.4,15 73.3,15.1 73.3,15.2 L73.3,15.2 C73.1,15.1 72.9,15.1 72.3,15.1 C72.3,15.1 71.6,15.1 71.6,15.2 C71.6,15.2 71.6,15.3 71.7,15.4 L71.3,15.4 L71.3,15.4 L71.4,15.4 C71.4,15.4 71.4,15.4 71.3,15.4 C71.3,15.5 72.1,16.4 72.2,16.4 L72.5,16.4 C72.6,16.5 73.1,16.8 73.4,16.7 C73.4,16.7 73.8,16.5 74.4,16.7 C74.6,16.8 74.5,16.6 74.4,16.4 C74.4,16.4 74.3,16.3 73.9,16 C73.8,15.9 73.8,15.8 73.6,15.6 C73.8,15.6 74,15.5 74,15.3 C74.1,15.4 74.2,15.5 74.3,15.6 C74.4,15.8 74.4,16 74.5,16.3 L74.5,16 C74.5,16.2 74.8,17.1 75.2,18.4 C74.7,17.9 74.1,17.7 73.6,17.6 C73.7,17.5 73.7,17.4 73.7,17.3 C73.7,17.1 73.5,16.9 73.2,16.9 C72.9,16.9 72.7,17.1 72.7,17.3 C72.7,17.5 72.9,17.7 73.2,17.7 L73.3,17.7 L73.4,17.7 C73.1,17.7 72.9,17.9 72.9,18.1 C72.9,18.2 73,18.3 73.1,18.4 L73.1,18.4 C73.1,18.5 73.2,18.5 73.2,18.5 C74,18.6 73.7,18.6 74.1,19.1 C74.7,20 75.7,19.8 75.7,19.8 C75.8,19.8 75.8,19.9 75.9,19.9 C75.9,20 75.9,20.1 76,20.2 C75.8,20.1 75.6,20.1 75.5,20.1 C75.1,20.2 75,20.3 74.7,20.1 C74.4,20 74.3,19.8 74.3,20.2 C74.3,20.2 75,22.1 76.2,21.9 C76.5,21.9 76.5,21.8 76.7,21.7 C76.7,21.7 76.8,21.7 76.9,21.6 C76.9,21.6 76.9,21.6 76.9,21.5 L76.9,21.5 C77.2,21.9 77.5,22.3 77.8,22.7 C77.7,22.8 77.6,22.9 77.2,23.1 C77.2,23.1 77.1,23.3 77.6,23.4 C77.6,23.4 79.2,24.1 79.6,23.4 C79.6,23.4 79.6,23 80.1,22.9 C80.1,22.9 80.2,22.9 80.2,22.6 L80.2,22.6 L80.2,22.6 L80.2,22.5 L80.3,22.5 L80.2,22.5 L80.2,22.3 L80.2,22 C80.3,22.1 80.3,22.2 80.3,22.3 L80.3,22 C80.4,22.7 81,23.7 81,23.7 C82.5,23.2 82.6,23.3 82.6,23.3 C83.2,23.2 83.1,23.2 83.1,23.2 C83.3,23.1 83.4,22.9 83.4,22.8 L83.4,22.8 Z M71.1,7.6 L71,7 C71.1,7 71.1,7 71.1,7.1 L71.1,7.3 C71.1,7.5 71.1,7.6 71.2,7.8 C71.1,7.7 71.1,7.7 71.1,7.6 L71.1,7.6 Z M71.7,8.8 L71.7,8.8 L71.7,8.8 L71.7,8.8 L71.7,8.8 Z M71.1,9.3 L71.1,9.3 L71,9.3 C71,9.2 71,9.3 71.1,9.3 L71.1,9.3 Z M74.9,14 L75.1,14 C75.3,14 75.4,13.9 75.5,13.8 L75.7,14 L75.7,14.6 L75.5,14.8 L75.3,14.3 C75.2,13.9 75,14.3 75,14.3 C74.8,15.3 74.8,15.6 74.9,15.6 C74.8,15.7 74.8,15.8 74.7,15.9 L74.7,15.7 L74.9,14 L74.9,14 Z M76.7,13.7 L76.8,13.7 C76.7,13.8 76.6,13.8 76.4,13.9 L76.4,13.9 L76.2,14.1 L75.9,14.4 L75.9,14.4 C76,13.9 75.8,13.4 75.7,13.2 C76,13.2 76.3,13.4 76.7,13.7 L76.7,13.7 Z M78.7,20.9 C78.7,20.9 78.6,20.8 78.3,20.8 L78.2,20.3 C78.4,20.3 78.6,20.4 78.7,20.9 L78.7,20.9 Z M75.3,13 C75.5,13 75.6,12.9 75.7,12.8 C75.7,12.9 75.6,13 75.6,13.1 L75.7,13.1 L75.7,13.9 C75.6,13.8 75.5,13.8 75.5,13.8 C75.5,13.7 75.6,13.7 75.6,13.6 C75.6,13.4 75.4,13.2 75.1,13.2 L75,13.2 L75,12.8 C75,12.9 75.2,13 75.3,13 L75.3,13 Z M75.4,4 L75.4,4 C75.4,3.9 75.4,3.9 75.4,4 L75.4,3.9 C75.4,3.9 75.4,3.9 75.4,4 L75.4,4 Z M71.5,11 L71.5,11 C71.5,11 71.4,11 71.4,10.9 C71.4,10.9 71.4,10.9 71.5,11 L71.5,11 Z M71.7,15.7 L71.7,15.7 C71.7,15.7 71.7,15.7 71.5,15.7 L71.7,15.7 L71.7,15.7 Z M74.1,18.1 L74.7,18.4 L74.2,18.4 L74.2,18.4 C74.2,18.2 74.2,18.2 74.1,18.1 L74.1,18.1 Z" id="Shape"></path>
                <path d="M73.3,12.1 L73.3,12.1 L73.3,12.1 L73.3,12.1 Z" id="Shape"></path>
                <path d="M76,7.5 C75.9,8 76,7.5 76,7.5 L76,7.5 L76,7.5 Z" id="Shape"></path>
                <path d="M76.4,5.5 C76.4,5.6 76.4,5.6 76.4,5.5 L76.4,5.5 L76.4,5.5 Z" id="Shape"></path>
                <path d="M77.7,9.9 C77.6,10 77.6,10 77.7,9.9 L77.7,9.9 L77.7,9.9 Z" id="Shape"></path>
                <path d="M74.7,3.6 C74.8,4 74.7,3.8 74.7,3.6 L74.7,3.6 L74.7,3.6 Z" id="Shape"></path>
                <path d="M74.6,3.4 L74.6,3.6 C74.7,3.5 74.6,3.5 74.6,3.4 L74.6,3.4 Z" id="Shape"></path>
                <path d="M70.5,13.9 L70.5,13.9 L70.5,13.9 L70.5,13.9 Z" id="Shape"></path>
                <path d="M70.6,13.9 L70.6,13.9 L70.6,13.9 L70.6,13.9 Z" id="Shape"></path>
            </g>
            <path d="M90.5,73.7 L90.3,73.7 L90.3,73.7" id="path9403-9-3-8-8-5"></path>
            <path d="M90.5,73.6 C90.3,73.6 90.3,73.7 90.3,73.7 L90.3,73.7" id="path9403-9-3-8-8-6-4"></path>
        </g>
    </g>
</svg>