<?xml version="1.0" ?><svg height="120px" version="1.1" viewBox="0 0 180 120" width="180px" xmlns="http://www.w3.org/2000/svg" xmlns:sketch="http://www.bohemiancoding.com/sketch/ns" xmlns:xlink="http://www.w3.org/1999/xlink"><title/><defs/><g fill="none" fill-rule="evenodd" id="Page-1" stroke="none" stroke-width="1"><g id="egypt"><rect d="M0,0 L0,120 L180,120 L180,0 L0,0 Z M0,0" fill="#FFFFFF" height="120" id="Rectangle-326" width="180" x="0" y="0"/><rect d="M0,0 L0,40 L180,40 L180,0 L0,0 Z M0,0" fill="#CA4638" height="40" id="Rectangle-1" width="180" x="0" y="0"/><rect d="M0,80 L0,120 L180,120 L180,80 L0,80 Z M0,80" fill="#1C1C1C" height="40" id="Rectangle-1-copy" width="180" x="0" y="80"/><g id="Egypt" transform="translate(78.000000, 42.000000)"><path d="M22.0378492,35.0054038 C22.9373496,34.824973 22.9373496,34.3125899 22.9373496,33.6491687 C23.83685,33.3177206 23.3732712,32.1426936 24,32.1426936 C23.3732712,32.3238891 23.2371894,30.9673935 22.4741318,31.1486016 C22.4741318,29.9727973 21.4112535,29.8222842 20.511924,30.153228 C18.7131703,30.8166283 15.5247252,30.9673935 12.4997341,30.9673935 C9.47493289,30.8166325 6.31355601,30.8166325 4.48773404,30.153228 C3.58846164,29.8222842 2.52609615,29.9727951 2.52609615,31.1486016 C1.76281063,30.967404 1.62659581,32.3239017 1,32.1426936 C1.6266148,32.1426936 1.16327164,33.3177206 2.06265042,33.6491687 C2.06265042,34.3125689 2.06265042,34.824973 2.98919997,35.0054038 C5.08722364,35.6685519 8.71208426,36 12.4997341,36 C16.2879917,36 19.9124725,35.6685519 22.0378492,35.0054038 C22.0378492,35.0054038 19.9124725,35.6685519 22.0378492,35.0054038 L22.0378492,35.0054038 L22.0378492,35.0054038 Z M22.0378492,35.0054038" fill="#DFAC16" id="_x32_1445608"/><path d="M22.2743067,35.0440495 C23.1361102,34.9020596 23.1282539,34.5133462 23.1282539,33.9912673 C23.9900574,33.7304345 23.3995366,32.7648379 24,32.7648379 C23.3995366,32.9074296 23.4179792,31.8359508 22.6869003,31.9785524 C22.6275705,30.7558957 21.5558451,30.9726637 20.6942053,31.2330997 C18.970835,31.755162 15.9160133,31.8738065 13.0177955,31.8738065 C10.1197598,31.7551653 7.00077947,31.6911726 5.25147525,31.1691069 C4.38989015,30.9086709 3.31360243,30.7983381 3.37373673,31.9915471 C2.64243949,31.8489538 2.60033601,32.9413097 2,32.7987081 C2.60035421,32.7987081 2.05611514,33.6984717 2.91780215,33.9593045 C2.91780215,34.4813669 2.97553892,35.0452111 3.86325802,35.187201 C5.87335632,35.709065 9.39245433,36 13.0213688,36 C16.6508656,36 20.2380016,35.5659134 22.2743067,35.0440495 C22.2743067,35.0440495 20.2380016,35.5659134 22.2743067,35.0440495 L22.2743067,35.0440495 L22.2743067,35.0440495 Z M22.2743067,35.0440495" fill="#FFFFFF" id="Path-copy"/><path d="M4.3607413,32.9879577 C4.09071993,32.9337093 3.94891902,32.7091746 4.01687687,32.4434539 C4.09964885,32.1198126 4.34633167,31.9346674 4.57940876,32.0212748 C4.72761058,32.0763416 4.99892124,32.3638828 4.99998806,32.4670069 C5.00150486,32.5853831 4.85812142,32.8669457 4.79640268,32.867594 C4.7697575,32.8678757 4.728551,32.8923056 4.70477763,32.9218053 C4.65421246,32.9845992 4.49575704,33.015066 4.36076153,32.9879472 C4.36076153,32.9879472 4.49575704,33.015066 4.36076153,32.9879472 L4.3607413,32.9879577 L4.3607413,32.9879577 L4.3607413,32.9879577 L4.3607413,32.9879577 Z M14.2617037,32.9687535 C14.1607075,32.9278978 13.9998172,32.6809318 14.0000002,32.5669855 C14.0010168,32.3520656 14.2918618,32.002 14.4721239,32.0000017 C14.5611595,31.9994466 14.8049401,32.1377231 14.8961106,32.2412612 C15.0613318,32.4288255 15.025318,32.7368475 14.8177139,32.911772 C14.7155639,32.997841 14.4109386,33.0290379 14.2617241,32.9687258 C14.2617241,32.9687258 14.4109386,33.0290379 14.2617241,32.9687258 L14.2617037,32.9687535 L14.2617037,32.9687535 L14.2617037,32.9687535 L14.2617037,32.9687535 Z M14.315377,32.9601193 C14.1006592,32.8865182 14.0221164,32.7799833 14.0046653,32.5386831 C13.9865243,32.287251 14.0105931,32.2481066 14.2727074,32.1032405 L14.4595136,32 L14.6365595,32.0800294 C14.8817848,32.1908636 14.9908863,32.310343 14.9995377,32.4775448 C15.0088382,32.6576394 14.8770477,32.8419245 14.6724275,32.9348777 C14.4927448,33.0165024 14.4820595,33.0172587 14.315377,32.9601555 C14.315377,32.9601555 14.4820595,33.0172587 14.315377,32.9601555 L14.315377,32.9601193 L14.315377,32.9601193 L14.315377,32.9601193 L14.315377,32.9601193 Z M5.25495032,32.1742543 C5.32749562,32.1089984 5.32891504,32.0423954 5.25844947,32.0111454 C5.21395099,31.9914101 5.18789924,31.9960866 5.10010723,32.0397337 C5.01175648,32.083616 4.99593976,32.1003513 5.00078213,32.1448131 C5.00625661,32.1952572 5.04414621,32.2124072 5.17612911,32.2242219 C5.18778354,32.2251043 5.2232576,32.2027807 5.25497007,32.1742601 C5.25497007,32.1742601 5.2232576,32.2027807 5.25497007,32.1742601 L5.25495032,32.1742543 L5.25495032,32.1742543 L5.25495032,32.1742543 L5.25495032,32.1742543 Z M6.42554345,32.9781819 C6.37811745,32.9658441 6.26117984,32.9441624 6.16568905,32.9300127 C5.94552387,32.8973852 5.60405002,32.8380118 5.51172809,32.8163043 C5.47271956,32.8071155 5.40183399,32.7929545 5.35420275,32.7847993 C5.26673358,32.7698291 5.22179576,32.7596731 5.07843078,32.7225191 C5.03507215,32.7112793 4.92872599,32.688653 4.8420967,32.6722327 C4.75546948,32.6558107 4.65422534,32.6326789 4.61711435,32.6208239 C4.57999918,32.6089706 4.53608761,32.5993781 4.51953753,32.5995057 C4.50299163,32.5996009 4.46592672,32.5900423 4.43718922,32.5781777 C4.40844961,32.5663243 4.33949511,32.5534116 4.28395744,32.5494955 C4.16790995,32.5413402 4.08143772,32.5098319 4.03225032,32.4578773 C3.99048764,32.4137583 3.98946975,32.3793109 4.02812432,32.3184453 C4.04446078,32.2927393 4.05792369,32.2624971 4.05805774,32.2512413 C4.05820644,32.2399854 4.07229977,32.2217096 4.08943211,32.2106281 C4.10654351,32.1995499 4.12049024,32.1853792 4.12040227,32.1791505 C4.120241,32.1654723 4.19324192,32.0837665 4.23637646,32.0494063 C4.29296972,32.0043279 4.41010002,31.9608516 4.47633388,31.9603381 C4.51525444,31.9598536 4.54949398,31.9520213 4.56630169,31.9392927 C4.58498389,31.9251462 4.6276011,31.9166567 4.70303784,31.9120703 L4.81263452,31.9053847 L4.85540672,31.8469156 C4.87893331,31.8147597 4.89847213,31.7727497 4.89882819,31.753563 C4.89924707,31.7343732 4.91028465,31.7029376 4.92348157,31.6837057 C4.93667641,31.6644706 4.95695246,31.6172236 4.96851784,31.5787114 C5.01229117,31.4329376 5.04397342,31.351931 5.06275197,31.3377522 C5.09011134,31.3170993 5.08740536,31.3081672 5.04019928,31.2633393 C5.01465577,31.2390786 4.9849255,31.2238469 4.96344935,31.2240132 C4.91104912,31.2244977 4.82515495,31.2484176 4.79814115,31.2702074 C4.74429367,31.3136337 4.67308138,31.3425356 4.6188988,31.3429554 C4.54427679,31.3434399 4.4483776,31.3024037 4.41264055,31.2544928 C4.3845544,31.2168382 4.38466332,31.2146952 4.41735298,31.1635352 C4.43865949,31.130194 4.46647127,31.1065358 4.49386416,31.0984628 C4.558944,31.0792843 4.72519258,31.0889188 4.76358326,31.1141112 C4.79077927,31.1319478 4.81097993,31.133763 4.8979967,31.1261746 C4.95432187,31.121233 5.00386532,31.1130131 5.00809605,31.107818 C5.01232677,31.1026018 5.04700614,31.0946727 5.08516015,31.0901348 C5.12331415,31.085597 5.15821552,31.074551 5.16272061,31.0655786 C5.16724456,31.0565836 5.19571817,31.0456282 5.22603905,31.0411743 C5.25635994,31.0367333 5.28925067,31.0257036 5.29912585,31.0167118 C5.3090115,31.007733 5.33724216,31.0001898 5.36187879,31.0000008 C5.39644506,30.9999039 5.41276476,31.008156 5.43335708,31.0368916 C5.45689414,31.0697354 5.4578073,31.0831036 5.44108548,31.1501962 C5.43065528,31.1920334 5.40923148,31.2457772 5.39345842,31.2696293 C5.37768745,31.2934782 5.3650665,31.3333242 5.36541836,31.3581775 C5.36583724,31.3866804 5.35459022,31.4133586 5.33502417,31.43042 C5.31795466,31.4452932 5.30415873,31.4693795 5.30436608,31.4839297 C5.30457552,31.49848 5.29393588,31.5185564 5.2807222,31.5285413 C5.26750643,31.5385376 5.24938552,31.5795883 5.24044026,31.6197961 C5.23149711,31.659999 5.21552298,31.7034252 5.20495036,31.7162992 C5.19437355,31.72917 5.18142586,31.76416 5.17616887,31.7940535 C5.17091188,31.8239501 5.15643946,31.8547899 5.14401956,31.8625882 C5.13159966,31.8704043 5.12166165,31.8933262 5.12194859,31.9135738 C5.12215803,31.9338166 5.10954963,31.9696108 5.09379752,31.9931109 C5.07802656,32.0166093 5.06059891,32.0636351 5.05506755,32.0976078 C5.04953829,32.1315804 5.03600835,32.1699101 5.02502104,32.1827841 C5.01402535,32.1956548 5.00028387,32.2323937 4.99447605,32.264414 C4.98867451,32.2964326 4.97372037,32.3346557 4.9612544,32.3493529 C4.94081288,32.3734472 4.94173443,32.3792641 4.97051173,32.4085244 C5.01708739,32.4558813 5.15352822,32.4899153 5.29248654,32.4888382 C5.40061923,32.4883537 5.40651711,32.4865127 5.44526593,32.4497609 C5.46866477,32.4275802 5.48993358,32.3883705 5.49596969,32.3562856 C5.50168745,32.3258884 5.51628554,32.2865785 5.52840384,32.2689341 C5.54053052,32.2512881 5.55006431,32.2071464 5.54960354,32.1708467 C5.54876577,32.1093481 5.54491204,32.1025477 5.49258093,32.0712849 C5.44061842,32.0402497 5.43778677,32.0354067 5.45489816,32.0068149 C5.47244938,31.9775012 5.54385227,31.9522684 5.61123806,31.9515724 C5.62518688,31.9514787 5.6533212,31.941447 5.67375642,31.9293707 C5.69419794,31.9173075 5.72619645,31.9037504 5.74488075,31.8992593 C5.76356296,31.8947699 5.80557489,31.8725909 5.83823314,31.8499807 C5.90686511,31.8024607 5.94923099,31.801348 5.9839334,31.8461372 C6.00557711,31.8740847 6.00535091,31.8828277 5.98169237,31.9333595 C5.96721994,31.9642493 5.95575091,32.0126527 5.95619492,32.0409215 C5.95661381,32.069192 5.94729365,32.1006615 5.93543924,32.1108483 C5.92358484,32.1210383 5.90689443,32.1529714 5.89834921,32.1818151 C5.88980398,32.2106605 5.87228627,32.2552672 5.85942236,32.2809457 C5.84656263,32.3066291 5.83602353,32.3487715 5.83600887,32.374597 C5.83606332,32.4004241 5.82214382,32.4421886 5.80521883,32.4674053 C5.76072921,32.5337066 5.76634225,32.5741776 5.82270722,32.5935693 C5.8357345,32.5980264 5.86416203,32.6091369 5.88588742,32.6182207 C5.90761491,32.6272965 5.95366487,32.6346992 5.98822276,32.6346653 C6.02278065,32.6348267 6.0816673,32.6446131 6.11908407,32.6568281 C6.15650084,32.6690529 6.23182448,32.68209 6.28647202,32.6858059 C6.38379332,32.692427 6.38673808,32.6917811 6.43017002,32.6549419 C6.45736184,32.6318683 6.48199429,32.5917622 6.49385916,32.5512444 C6.5044988,32.5149043 6.51717841,32.4734417 6.52203746,32.4591047 C6.53707538,32.4147434 6.51206803,32.3564762 6.46305028,32.3216105 C6.37684823,32.2602992 6.41266068,32.1778295 6.52586396,32.1769478 C6.5746597,32.1764633 6.70728869,32.1356952 6.74221729,32.1102702 C6.83682004,32.0414077 6.89583864,32.0233531 6.9535231,32.045629 C6.99918768,32.0632685 7.01391984,32.1114459 6.98547134,32.1501291 C6.97363788,32.1662135 6.95441741,32.2108349 6.94274313,32.2492969 C6.93107722,32.2877573 6.90751711,32.3563615 6.89040363,32.4017499 C6.87329224,32.4471399 6.84842521,32.5258194 6.83514661,32.5765951 C6.821868,32.6273659 6.79784084,32.6999573 6.78175362,32.7379123 C6.76566849,32.7758624 6.75264121,32.8168534 6.75281296,32.8289991 C6.75296166,32.8411431 6.73834053,32.8772749 6.7202678,32.909287 C6.66759948,33.0025943 6.58954682,33.0208281 6.42554135,32.9781415 C6.42554135,32.9781415 6.58954682,33.0208281 6.42554135,32.9781415 L6.42554345,32.9781819 L6.42554345,32.9781819 L6.42554345,32.9781819 L6.42554345,32.9781819 Z M4.16298923,33.8425194 C3.90592954,33.581897 3.94726455,33.3917697 4.32744295,33.0861461 C4.49010852,32.9553906 4.58877868,32.9701804 4.77479399,33.1532035 C5.06109139,33.434876 5.07255117,33.6131927 4.81983489,33.854576 C4.69491765,33.9738786 4.64026733,33.9983439 4.49487176,33.999909 C4.34276412,34.0015858 4.29967723,33.98124 4.1629685,33.8425362 C4.1629685,33.8425362 4.29967723,33.98124 4.1629685,33.8425362 L4.16298923,33.8425194 L4.16298923,33.8425194 L4.16298923,33.8425194 L4.16298923,33.8425194 Z M5.3794544,33.2903279 C5.10045594,33.2682438 4.93961523,33.1780382 5.0212468,33.0894193 C5.09519681,33.009139 5.13796606,33.0012382 5.50472981,33.0000523 C5.91601203,32.9987592 5.9958426,33.0208229 5.99979557,33.1370917 C6.00209716,33.202544 5.98627375,33.2177285 5.88488305,33.2480033 C5.76571835,33.2835835 5.53665284,33.3027637 5.3794544,33.2903205 C5.3794544,33.2903205 5.53665284,33.3027637 5.3794544,33.2903205 L5.3794544,33.2903279 L5.3794544,33.2903279 L5.3794544,33.2903279 L5.3794544,33.2903279 Z M21.1249616,33.8821824 C21.0219374,33.7816231 21.0011927,33.7361654 21.0000128,33.6081964 C20.9986513,33.389642 21.1059778,33.2293986 21.3385935,33.1058683 C21.6480293,32.9415054 21.7741853,32.9641039 21.8907246,33.2047298 C22.0457442,33.5247536 22.0382742,33.6553944 21.8526481,33.8710801 C21.7501821,33.9901184 21.7309987,33.9970586 21.4964224,33.9998262 C21.2660759,34.0014229 21.2397264,33.9942378 21.1249616,33.882193 C21.1249616,33.882193 21.2397264,33.9942378 21.1249616,33.882193 L21.1249616,33.8821824 L21.1249616,33.8821824 L21.1249616,33.8821824 L21.1249616,33.8821824 Z M5.28812127,33.282982 C5.1001058,33.2661984 5.00265439,33.2190003 5.00019498,33.1435364 C4.99812825,33.0858343 5.01058029,33.0766336 5.1312359,33.0450386 C5.20936857,33.0245837 5.33283494,33.007062 5.43016752,33.0026198 C5.56806998,32.9963108 5.61845682,33.0003382 5.72940915,33.0264297 C6.013853,33.0933186 6.0742738,33.1594747 5.90957621,33.2236845 C5.73414712,33.2920842 5.56783747,33.3079534 5.28811093,33.2829768 C5.28811093,33.2829768 5.56783747,33.3079534 5.28811093,33.2829768 L5.28812127,33.282982 L5.28812127,33.282982 L5.28812127,33.282982 L5.28812127,33.282982 Z M10.0813527,33.9562507 L10,33.9118658 L10.0110548,33.8011738 C10.017148,33.7402971 10.036472,33.6665704 10.0540146,33.637339 C10.0715398,33.6081075 10.0855947,33.5412231 10.0852146,33.4886962 C10.0846343,33.4361748 10.0982714,33.3675936 10.1150277,33.3362904 C10.1317984,33.3049889 10.1595456,33.188245 10.1766762,33.0768636 C10.1938241,32.9654804 10.2169811,32.8592224 10.2281723,32.8407287 C10.2393431,32.8222405 10.2479606,32.7732395 10.2472352,32.7318346 C10.2463648,32.6904351 10.2635707,32.6175026 10.285129,32.5697719 C10.310082,32.5145206 10.3241544,32.4375051 10.32387,32.3577928 C10.3235799,32.2889322 10.333358,32.2117237 10.3455153,32.1862148 C10.3576727,32.160706 10.3673637,32.125829 10.3670736,32.1087048 C10.3664933,32.0761037 10.441393,32.0002096 10.4743223,32.0000001 C10.4848258,31.9999339 10.5289984,32.0317372 10.5724631,32.0706732 C10.6159249,32.1096093 10.7032025,32.1717287 10.766412,32.2087162 C11.0452679,32.3718928 11.0328698,32.3575997 10.9423251,32.4114852 C10.9090969,32.4312566 10.8720388,32.4474983 10.8599743,32.4475774 C10.847904,32.4476546 10.8120122,32.464582 10.7802058,32.4852082 C10.7322786,32.5162798 10.722428,32.535042 10.722663,32.5947752 C10.7228516,32.6344135 10.7079233,32.6907678 10.6895915,32.7200012 C10.6593577,32.7681786 10.6283434,32.9469995 10.6172045,33.1373965 C10.6148833,33.1774466 10.6038285,33.2192156 10.5926577,33.2302052 C10.5814869,33.2411984 10.5681689,33.3368437 10.5630767,33.4427542 C10.5579701,33.5486647 10.5447682,33.6440526 10.5337569,33.654715 C10.5227312,33.6653773 10.5130111,33.697938 10.5121697,33.7270628 C10.508978,33.8348026 10.4716587,33.9322769 10.4206559,33.9660104 C10.3806353,33.9924716 10.3489855,33.9994444 10.2665071,33.9999702 C10.1788552,34.0005216 10.1500664,33.9937014 10.0813643,33.9562415 C10.0813643,33.9562415 10.1500664,33.9937014 10.0813643,33.9562415 L10.0813527,33.9562507 L10.0813527,33.9562507 L10.0813527,33.9562507 L10.0813527,33.9562507 Z M15.2016197,33.2605234 L15.3103448,33.2264719 L15.3029506,33.1165243 L15.2955842,33.0065767 L15.208797,33.0010774 C15.1361867,32.996431 15.1131785,33.0054298 15.0679794,33.0555057 C14.987797,33.144456 14.9787405,33.2085978 15.0397814,33.2552388 C15.0674402,33.2763832 15.0907124,33.2938662 15.0914935,33.2941162 C15.0923274,33.2942897 15.1418546,33.2792357 15.201653,33.2605175 C15.201653,33.2605175 15.1418546,33.2792357 15.201653,33.2605175 L15.2016197,33.2605234 L15.2016197,33.2605234 L15.2016197,33.2605234 L15.2016197,33.2605234 Z M15.0151245,33.9570533 C14.997649,33.9174475 14.9968821,33.9083493 15.0049108,33.8356603 C15.0096787,33.7924397 15.0140687,33.7186055 15.0146466,33.6715819 C15.0150912,33.6245547 15.020048,33.5730815 15.0253715,33.5571939 C15.0306951,33.5413026 15.0349184,33.5084076 15.0347517,33.4840885 C15.0344183,33.4498217 15.0418868,33.4281749 15.0674544,33.3879535 C15.0856023,33.3593985 15.1004071,33.329627 15.100356,33.3217965 C15.1002882,33.3046813 15.1653436,33.2219425 15.1791004,33.2217142 C15.1844351,33.2216265 15.1955067,33.2096039 15.2037077,33.1950059 C15.2119098,33.1804115 15.228704,33.1682885 15.2410327,33.1680857 C15.2533613,33.1679779 15.2733175,33.1540575 15.2853816,33.1373443 C15.305988,33.1088057 15.3072694,33.1000655 15.3065548,32.9927883 C15.3062214,32.9238403 15.3004866,32.8547077 15.2923723,32.8182893 C15.2849815,32.7851185 15.2797502,32.7450523 15.2807316,32.7292524 C15.2816207,32.7134525 15.2791868,32.6384383 15.2751302,32.5625565 C15.2685507,32.4396437 15.2653833,32.4206765 15.2459606,32.3887789 C15.233972,32.3690846 15.219495,32.3530509 15.213788,32.3531458 C15.2033298,32.3532536 15.1640421,32.2779673 15.1695469,32.2683046 C15.2269591,32.1674899 15.3292205,32.0089661 15.3406678,32.0030297 C15.3641504,31.9908464 15.3994615,32.0169849 15.4084716,32.0532079 C15.4129172,32.0710353 15.4191187,32.1494506 15.4222895,32.2274713 C15.4254681,32.3054957 15.4319031,32.4047815 15.4366043,32.4481045 C15.4413166,32.4914238 15.4495542,32.6274057 15.4549289,32.7502764 C15.460308,32.8731562 15.4684245,32.9943446 15.4729757,33.019588 C15.4775101,33.0448314 15.484283,33.1571627 15.4879839,33.2692091 C15.4916848,33.3812627 15.498531,33.4957969 15.5031799,33.5237254 C15.5191784,33.6197361 15.586222,33.6772918 15.6339241,33.6359617 C15.6418372,33.629112 15.6774995,33.6157962 15.7131729,33.6063893 C15.7961572,33.5845031 15.7976243,33.5803111 15.7902635,33.3859388 C15.7851511,33.251093 15.7824727,33.2323358 15.7624331,33.1917911 C15.7502378,33.1670993 15.7309263,33.1433702 15.7195245,33.1390521 C15.6966488,33.1303941 15.6823407,33.0985695 15.6820562,33.0557215 C15.6819873,33.0254039 15.7249404,32.9545872 15.7519638,32.9408111 C15.7611995,32.9361533 15.7860024,32.9090961 15.8070811,32.8807931 C15.8542485,32.8174435 15.885293,32.8126963 15.9145715,32.8643539 C15.9333396,32.8974662 15.9353968,32.9146544 15.9416595,33.0907773 C15.946494,33.2268981 15.9523289,33.2925784 15.9620702,33.3205982 C15.9719949,33.3491569 15.9759626,33.396038 15.9766428,33.4930041 C15.9769762,33.5837725 15.9818218,33.6417575 15.9909108,33.6750817 C16.0026649,33.7181963 16.002846,33.7288837 15.9924556,33.7654337 C15.9859762,33.7882385 15.9782521,33.8199426 15.9753224,33.8358978 C15.9685429,33.8728113 15.955942,33.8788773 15.8792726,33.8821415 C15.8448984,33.8837854 15.8018164,33.8916397 15.783534,33.8999507 C15.7652505,33.9082981 15.7165438,33.916463 15.6752956,33.9181617 C15.4992845,33.9253585 15.2588683,33.9587265 15.245765,33.9778179 C15.2359959,33.9920471 15.207801,33.9971925 15.13337,33.9983561 L15.0340126,34 L15.0151189,33.9571867 L15.0151245,33.9570533 L15.0151245,33.9570533 L15.0151245,33.9570533 L15.0151245,33.9570533 Z M7.9303026,32.9360964 C8.0171251,32.8578887 8.0240907,32.7510006 7.9441111,32.7247495 C7.8427523,32.6914403 7.7606378,32.5078549 7.7536196,32.2987593 C7.7409946,31.9229913 7.6066621,31.9015127 7.356851,32.2353455 C7.284889,32.3314885 7.1751619,32.461067 7.1130105,32.523269 L7,32.6363595 L7.0821759,32.7448614 C7.219634,32.9263333 7.3733642,32.9983444 7.6267567,32.9999524 C7.7874613,33.001101 7.879895,32.9815175 7.9303376,32.9360964 C7.9303376,32.9360964 7.879895,32.9815175 7.9303376,32.9360964 L7.9303026,32.9360964 L7.9303026,32.9360964 L7.9303026,32.9360964 L7.9303026,32.9360964 Z M8.29528362,33.9933025 C8.27666556,33.9874244 8.2613901,33.9789218 8.2613361,33.974379 C8.26123146,33.9638813 8.1450015,33.8971855 8.1271161,33.8973527 C8.11975716,33.8974249 8.11050132,33.8838315 8.10654708,33.8671596 C8.10258966,33.8504844 8.087826,33.804187 8.07372636,33.7642758 C8.04903636,33.6943907 8.04940758,33.6407649 8.07470754,33.6263566 C8.09303286,33.6159203 8.08630194,33.5816845 8.06211564,33.5623804 C8.04736506,33.5506088 8.00884038,33.5421922 7.95452502,33.5388756 C7.83923214,33.5318311 7.8260106,33.5285467 7.78543356,33.496742 C7.75643616,33.4740107 7.7482122,33.4562045 7.7393586,33.3969645 C7.7330463,33.3546974 7.71963342,33.3161352 7.70696136,33.3037819 C7.68447744,33.2818657 7.6462863,33.2760351 7.6350501,33.2928085 C7.63146876,33.2981647 7.61183514,33.3056697 7.59139212,33.3095588 C7.56644538,33.3142858 7.55036046,33.3260697 7.5424782,33.3453508 C7.53601872,33.3611542 7.5164898,33.3912829 7.49907702,33.4123044 C7.46881716,33.4488331 7.46394552,33.4505551 7.38876852,33.4512657 C7.34551122,33.4517261 7.29171918,33.4452955 7.26922872,33.4370692 C7.22097222,33.4194334 7.16770188,33.411755 7.03438122,33.4032233 C6.84322938,33.3909913 6.7547589,33.4044511 6.74000838,33.4478831 C6.71954892,33.5081483 6.56506246,33.6321764 6.49762211,33.6424746 C6.47063125,33.6466184 6.42476723,33.6572696 6.3957028,33.6662034 C6.36663836,33.6751357 6.3375265,33.6795404 6.33100814,33.6759798 C6.32449959,33.6724192 6.25993739,33.6626889 6.18755512,33.6543259 C6.05086085,33.6385257 6.0005079,33.616967 6.00000095,33.5740537 C5.99967389,33.5479767 6.08363909,33.5083693 6.11587931,33.5193765 C6.15065426,33.5312402 6.20799654,33.530657 6.20785264,33.5183022 C6.20778723,33.5126543 6.23759573,33.5021597 6.27409594,33.4949709 C6.31059452,33.4877882 6.34699007,33.4746569 6.35497857,33.4657983 C6.3629589,33.4569581 6.38550171,33.4495437 6.40506006,33.449358 C6.43406236,33.4492045 6.44723972,33.4393974 6.47653473,33.3967926 C6.49628933,33.3680667 6.51237101,33.3376248 6.51227126,33.3291346 C6.51217314,33.3206474 6.52298256,33.300958 6.53629238,33.2853818 C6.5506995,33.2685241 6.5602988,33.2403245 6.56001261,33.2157392 C6.55968555,33.1930142 6.56781306,33.1525872 6.57790949,33.1258947 C6.59522256,33.0801821 6.59465674,33.0728997 6.56813031,33.0002843 C6.55264389,32.9578852 6.53305446,32.9194933 6.5245868,32.9149689 C6.51611588,32.910426 6.50257548,32.8892893 6.49448721,32.8679609 C6.47313492,32.8116554 6.49612253,32.761297 6.58297569,32.6741675 C6.5921498,32.664959 6.60333042,32.6411963 6.60782268,32.6213504 C6.61630992,32.5838733 6.64380774,32.5630881 6.68542974,32.5626952 C6.71603304,32.5622348 6.7738692,32.6219812 6.77424204,32.6541727 C6.77440554,32.6675558 6.78348156,32.6897544 6.79441524,32.7035166 C6.80645118,32.7186646 6.81888612,32.7685733 6.82590978,32.8299926 C6.83791296,32.9349529 6.85765122,33.042863 6.87238704,33.0841326 C6.88496262,33.1193291 6.95181912,33.1678979 6.98785656,33.1680053 C7.00519416,33.1681588 7.0525725,33.1749885 7.09314462,33.1834158 C7.13371512,33.1918262 7.19877936,33.1985024 7.23773256,33.1982262 C7.30833726,33.1977658 7.30877712,33.1977658 7.38104496,33.1295674 C7.42091388,33.092081 7.45329312,33.0557243 7.45299714,33.0487749 C7.4511165,33.0045801 7.29322038,32.9249187 7.16611398,32.9040368 C7.12162686,32.8967314 7.09041366,32.8457345 7.10012742,32.796228 C7.10836938,32.7542448 7.1676675,32.6812841 7.22540556,32.642108 C7.24747086,32.6271288 7.3207509,32.600421 7.38825174,32.5827498 L7.51097556,32.5506151 L7.54490664,32.4884438 C7.60950318,32.3700851 7.74544524,32.2764328 7.85416092,32.2754199 C7.90844028,32.2749595 7.91992998,32.2808222 7.96333938,32.3315137 C7.97535894,32.345572 7.99799334,32.3718577 8.01362202,32.3899417 C8.06178204,32.4456733 8.0889675,32.511571 8.08167726,32.5549125 C8.07485796,32.5954622 8.09330436,32.6599249 8.1116673,32.6597531 C8.12853066,32.659661 8.30738166,32.8229435 8.31590166,32.8462871 C8.3202189,32.8580587 8.32860804,32.867657 8.3345835,32.8676033 C8.34975918,32.8675097 8.37183264,32.9413436 8.37253422,32.9946241 C8.3735154,33.073667 8.35477794,33.0854232 8.22385962,33.0876057 C8.16124506,33.08868 8.0852586,33.0964459 8.05499712,33.1048855 L7.99998516,33.1202683 L7.99707426,33.1815603 C7.99313316,33.2645383 8.01534894,33.287644 8.11155282,33.3006588 C8.15159346,33.3060611 8.19006096,33.3155459 8.19703884,33.3216987 C8.20402164,33.3278837 8.22412128,33.3327489 8.24171724,33.3325955 C8.25931326,33.3325049 8.28450528,33.3393176 8.29769898,33.3478202 C8.31928182,33.3617865 8.32185258,33.3775453 8.32333416,33.5050404 L8.32496946,33.6467396 L8.36496924,33.657974 C8.38696914,33.6641591 8.41165746,33.6751127 8.4198291,33.6823245 C8.44885758,33.7079349 8.48726292,33.6970735 8.50269864,33.6588796 C8.5107117,33.6390521 8.52191034,33.6128416 8.52757998,33.600631 C8.53325448,33.5884298 8.54295192,33.5137425 8.5491252,33.4346781 C8.5553067,33.3556091 8.56792644,33.2709505 8.57717088,33.2465632 C8.58642672,33.2221652 8.59942584,33.1427555 8.60607996,33.0700972 C8.6127357,32.9974405 8.62432512,32.9311713 8.6318427,32.922836 C8.63947962,32.9143642 8.64793416,32.8450762 8.65099878,32.7657079 C8.65539774,32.6522435 8.66074524,32.6194075 8.67770346,32.6021952 C8.69552838,32.5841019 8.69864202,32.5587294 8.6972013,32.4434095 L8.69550054,32.3062025 L8.64623838,32.2679917 C8.61341268,32.2425286 8.59689114,32.2205632 8.59672266,32.2021584 C8.5963956,32.1622425 8.60787552,32.1507166 8.66929626,32.1295492 C8.69945472,32.1191436 8.74611846,32.1031422 8.7729948,32.0939766 C8.7998712,32.0847989 8.82737226,32.0712991 8.83410978,32.0639615 C8.85529854,32.040888 8.92348296,32.0001679 8.9412114,32.0000006 C8.9505654,31.9999131 8.96744184,32.0088561 8.97873366,32.0198557 C9.0051162,32.0455736 9.00752502,32.1505554 8.98274022,32.1944954 C8.97211068,32.2133238 8.96510496,32.2562002 8.9655645,32.2995079 C8.96605506,32.3397629 8.95796028,32.3945399 8.94771504,32.4212307 C8.9370201,32.4490773 8.92359252,32.5498784 8.91618948,32.6577364 C8.9090922,32.761122 8.89676028,32.8566405 8.88878484,32.8699776 C8.88082086,32.8833299 8.87455764,32.9281417 8.8749174,32.9695647 C8.87524446,33.0109846 8.86749306,33.0872158 8.85766482,33.1389708 C8.84782026,33.1907228 8.8347492,33.2776527 8.82859548,33.3321503 C8.82244674,33.3866464 8.80970436,33.4483573 8.80028496,33.4692822 C8.7908655,33.490207 8.78000538,33.5427324 8.77615098,33.586011 C8.77229166,33.6292849 8.75914368,33.6821158 8.74692138,33.703412 C8.73470556,33.7247113 8.72480376,33.750908 8.72492802,33.7616314 C8.72525508,33.789458 8.66186052,33.8918844 8.64409284,33.892242 C8.63588352,33.8923326 8.6237871,33.9018956 8.61717558,33.9132973 C8.61056886,33.9247159 8.58838914,33.937241 8.56789698,33.9411301 C8.54740488,33.9450284 8.51562258,33.9579203 8.49727104,33.9697824 C8.457945,33.9952087 8.34371346,34.0084659 8.2952934,33.9932273 C8.2952934,33.9932273 8.34371346,34.0084659 8.2952934,33.9932273 L8.29528362,33.9933025 L8.29528362,33.9933025 L8.29528362,33.9933025 L8.29528362,33.9933025 Z M20.2158966,33.2593567 C20.3049603,33.2141343 20.3301097,33.1586935 20.2952542,33.0844231 C20.2652576,33.0204909 20.2214169,32.9952269 20.1500321,33.0007335 C20.0672038,33.0071229 19.9993452,33.0712041 20.0000048,33.1424152 C20.00058,33.1886716 20.0102823,33.2049724 20.0620766,33.2451081 C20.0959311,33.2713475 20.12843,33.293392 20.1342936,33.2940964 C20.1401418,33.2947737 20.1768783,33.2791728 20.2158966,33.2593567 C20.2158966,33.2593567 20.1768783,33.2791728 20.2158966,33.2593567 L20.2158966,33.2593567 L20.2158966,33.2593567 L20.2158966,33.2593567 L20.2158966,33.2593567 Z M19.7890677,33.9037992 C19.9773773,33.8171565 19.9997467,33.7921113 19.9999994,33.6676695 C20.0003696,33.4769712 19.8259329,33.2516111 19.5683292,33.1100082 C19.2951838,32.9598774 19.1970334,32.962523 19.0754442,33.1234117 C18.9803433,33.249147 18.9794854,33.2595479 19.0485915,33.4472436 C19.087901,33.5539213 19.1203886,33.669601 19.1207706,33.7043447 C19.1211349,33.7881136 19.3880518,33.9988879 19.4943932,33.9999941 C19.5405775,34.0005794 19.6731252,33.9572083 19.7889913,33.903928 C19.7889913,33.903928 19.6731252,33.9572083 19.7889913,33.903928 L19.7890677,33.9037992 L19.7890677,33.9037992 L19.7890677,33.9037992 L19.7890677,33.9037992 Z M19.3060272,33.2519281 C19.312415,33.2292829 19.3116677,33.1778294 19.3040988,33.1375917 C19.2933961,33.0796954 19.2791091,33.0569436 19.2357225,33.028525 C19.1704268,32.9857628 19.1366171,32.9897693 19.0592689,33.0494436 C19.0093956,33.0879272 19.002111,33.1031091 19.0002622,33.1723942 C18.9973214,33.2813065 19.0169429,33.2952364 19.1712849,33.2940523 C19.2940446,33.2935006 19.2941868,33.2935006 19.3059066,33.2519281 C19.3059066,33.2519281 19.2941868,33.2935006 19.3059066,33.2519281 L19.3060272,33.2519281 L19.3060272,33.2519281 L19.3060272,33.2519281 L19.3060272,33.2519281 Z M18.2467268,33.2664601 C18.3057085,33.2330751 18.3197835,33.1966135 18.3047925,33.1160193 C18.2821336,32.994232 18.1445425,32.9583086 18.0778061,33.0567477 C18.057477,33.0867237 18.0409282,33.1188014 18.0410196,33.128031 C18.0411087,33.1372708 18.0298957,33.1550244 18.016072,33.1675209 C17.9962683,33.185442 17.9951262,33.1984665 18.0106585,33.2292167 C18.0215311,33.2506662 18.0389182,33.2741489 18.0493568,33.2814163 C18.0815612,33.3038304 18.1959796,33.2951745 18.2467108,33.2664652 C18.2467108,33.2664652 18.1959796,33.2951745 18.2467108,33.2664652 L18.2467268,33.2664601 L18.2467268,33.2664601 L18.2467268,33.2664601 L18.2467268,33.2664601 Z M19.2742025,33.2041244 C19.3187921,33.156445 19.3225056,33.0892832 19.2832158,33.041545 C19.2370377,32.9854567 19.1524924,32.9861773 19.0658559,33.0436038 C19.0141659,33.077745 18.9996788,33.0990567 19.0000054,33.1405009 C19.0001369,33.1758038 19.0124544,33.1998803 19.03636,33.2122744 C19.0900902,33.2401567 19.2455569,33.2349803 19.2742067,33.2042744 C19.2742067,33.2042744 19.2455569,33.2349803 19.2742067,33.2042744 L19.2742025,33.2041244 L19.2742025,33.2041244 L19.2742025,33.2041244 L19.2742025,33.2041244 Z M17.0784415,32.9953094 C17.0621519,32.9856377 17.0670899,32.9434955 17.0856876,32.934323 C17.0953365,32.9295349 17.1191862,32.9226453 17.1386315,32.9190226 C17.1580806,32.9153928 17.1834817,32.9073689 17.1950831,32.9011826 C17.2066806,32.8949855 17.2480478,32.886964 17.2870027,32.8833389 C17.4270134,32.8703061 17.5490734,32.8002127 17.5494329,32.7326281 C17.5500005,32.7139964 17.5452707,32.6945551 17.5398786,32.6894196 C17.5238729,32.6740823 17.2787349,32.6833897 17.1460346,32.7043713 C17.114568,32.7093743 17.0990541,32.7053265 17.060523,32.6825468 L17.0134516,32.6546458 L17.0067164,32.5281619 L17,32.4016779 L17.0612703,32.3589889 C17.0949656,32.3355094 17.1376458,32.3009529 17.156113,32.2821946 C17.1745783,32.2634376 17.1938325,32.2469575 17.1988934,32.24557 C17.2039638,32.244173 17.2327042,32.2292464 17.2627764,32.2123771 C17.3221208,32.1790899 17.4200057,32.145214 17.4860436,32.13511 C17.5089171,32.1316235 17.5343542,32.1230479 17.5425803,32.1160807 C17.5507724,32.1091315 17.5759994,32.1024401 17.598574,32.1012497 C17.6333554,32.0994228 17.6457134,32.1049512 17.6795639,32.1375184 C17.7015407,32.1586576 17.7205016,32.1875508 17.721703,32.2017311 C17.722649,32.2159067 17.7334898,32.2429217 17.7452349,32.2617599 C17.7570028,32.2805994 17.7710276,32.3182449 17.7764613,32.3454187 C17.7819289,32.3725949 17.7935076,32.4001078 17.8022597,32.4065591 C17.8238107,32.4224493 17.9954641,32.4299395 18.025262,32.4162905 C18.0419111,32.4086606 18.0493199,32.3855955 18.0537791,32.3274497 C18.0572414,32.2824657 18.0690092,32.2374315 18.0813371,32.2220476 C18.0931806,32.207275 18.1070031,32.1825502 18.1120469,32.167103 C18.1258581,32.1248175 18.2377906,32.0271742 18.3047405,31.999007 C18.3372628,31.9853234 18.3718209,31.9694977 18.3815209,31.9638344 C18.3912643,31.9581627 18.4134434,31.9507382 18.4309003,31.9473161 C18.4731775,31.9390295 18.4832104,31.9279214 18.4828131,31.8898545 C18.4824348,31.8569971 18.4393081,31.8193337 18.3497742,31.7737562 C18.3281191,31.7627353 18.3102876,31.7469168 18.3101438,31.7386075 C18.3095763,31.7142838 18.3512764,31.6680031 18.4166957,31.6199433 C18.4501848,31.5953355 18.4778033,31.5719479 18.4780682,31.567973 C18.4782574,31.5640088 18.500603,31.5520243 18.5275612,31.5413664 C18.5660942,31.5261365 18.5841659,31.5236851 18.6120701,31.5299156 C18.6500753,31.5383932 18.6606474,31.5502643 18.6957314,31.6238454 C18.7421236,31.7211471 18.7529114,31.7496248 18.7642554,31.8046578 C18.7707069,31.8357445 18.7802612,31.8653493 18.7855889,31.8704526 C18.7909052,31.8755511 18.8536209,31.8876383 18.9249318,31.8973064 C18.9962463,31.9069781 19.0682477,31.9199668 19.0849383,31.9261841 C19.1016252,31.932417 19.1311678,31.9402653 19.1505828,31.9436636 C19.199109,31.9521531 19.265041,31.9821389 19.2652756,31.9958201 C19.2653834,32.0020291 19.2708001,32.007056 19.2772705,32.0070201 C19.2926141,32.0069509 19.3641159,32.0725547 19.4298777,32.1471041 C19.5039432,32.2310625 19.4994952,32.2291366 19.6176446,32.2283867 C19.7127106,32.2280285 19.7236838,32.2258315 19.7502976,32.2048917 C19.7662466,32.1923329 19.7791307,32.1714958 19.7789056,32.1585859 C19.778338,32.1316629 19.814875,32.1001046 19.9038206,32.0503862 C19.9381043,32.0312268 19.9798101,32.0077234 19.9965026,31.9981604 C20.0515976,31.9665985 20.1141848,31.9415334 20.1382672,31.9413806 C20.1513026,31.9413101 20.2215161,31.9566009 20.2942799,31.9753854 C20.4018004,32.0031467 20.4340163,32.0159085 20.4663248,32.0435337 C20.5365686,32.1035924 20.6864136,32.128353 20.7606909,32.0921774 C20.7803689,32.0826012 20.8034392,32.0747135 20.8119624,32.0746585 C20.8204761,32.0746024 20.8273627,32.0686406 20.8272303,32.0613952 C20.8271149,32.0432519 20.7690949,31.944048 20.7514356,31.9313531 C20.7435273,31.9256456 20.7303651,31.8909876 20.7222071,31.8542938 C20.7140529,31.8175999 20.6942216,31.7701944 20.6781648,31.748949 C20.6585568,31.7230051 20.6460397,31.6836032 20.6400498,31.6289606 C20.6351686,31.5842118 20.6184837,31.5188982 20.6030266,31.483814 C20.5875694,31.4487321 20.5747403,31.4091893 20.5745076,31.3959403 C20.5731832,31.3324858 20.4881104,31.2489548 20.4013066,31.2263279 C20.3817081,31.2212174 20.3496152,31.2115649 20.3299883,31.2048699 C20.2786355,31.1873511 20.211101,31.189837 20.1810949,31.2103505 C20.1671324,31.2198909 20.1423386,31.2278073 20.1259885,31.2279327 C20.0958216,31.2280043 20.0048328,31.2743328 20.005092,31.2892761 C20.0051696,31.2937537 19.9842543,31.2975627 19.9586148,31.2977299 C19.9206134,31.2980881 19.9034459,31.2914254 19.8657699,31.2623686 C19.8403518,31.2427554 19.8194157,31.2225786 19.8192511,31.2175291 C19.8191319,31.2124783 19.7933051,31.1949702 19.7619633,31.1786179 C19.7155031,31.1543874 19.7048439,31.1431862 19.7042953,31.1180351 C19.7037277,31.0934236 19.7107846,31.085155 19.7389252,31.0771645 C19.7583384,31.07166 19.7741587,31.063371 19.7740793,31.0587573 C19.7739998,31.0541483 19.7978344,31.0477125 19.8270402,31.0444707 C19.8562498,31.0412468 19.9310871,31.0302629 19.993345,31.0201005 C20.1500918,30.9945171 20.4321224,30.9930508 20.5007808,31.0174497 C20.5261819,31.0264766 20.5633149,31.0360802 20.5833031,31.0387823 C20.6297974,31.0450629 20.7528073,31.1167455 20.7780211,31.1522334 C20.7886726,31.1672101 20.8033294,31.1816472 20.8106209,31.1843123 C20.8179238,31.1869988 20.8285754,31.2055505 20.8343004,31.225584 C20.840033,31.2456223 20.8534525,31.2735626 20.8641154,31.2876797 C20.8800644,31.3087914 20.9013828,31.3971976 20.9231154,31.5323251 C20.9270128,31.5565115 20.9556964,31.6393009 20.9781083,31.6910241 C20.9863193,31.7098874 21.0023269,31.7536869 21.0137636,31.7883569 C21.0251909,31.823028 21.0446741,31.8580287 21.0570398,31.866135 C21.0693941,31.8742425 21.0796351,31.8877183 21.0797808,31.8960861 C21.0803484,31.9296181 21.2271739,31.9860434 21.312432,31.9855025 C21.3868248,31.9851443 21.4980989,31.9533734 21.5677675,31.9128551 C21.6073922,31.8898139 21.6550519,31.8685302 21.673678,31.8655571 C21.7119878,31.8594197 21.7742343,31.8779905 21.7964361,31.9021315 C21.8234454,31.9315011 21.8681708,31.9574726 21.9275926,31.9782917 C21.9916346,32.0007288 22.0148978,32.030465 21.9905354,32.0587516 C21.982419,32.0681606 21.9648543,32.0759708 21.9514726,32.0761009 C21.9380966,32.0761738 21.8931594,32.0861905 21.8516201,32.0982264 C21.8100827,32.1102646 21.7642335,32.1201882 21.7497394,32.1202814 C21.7352283,32.120353 21.6547056,32.1344283 21.5707719,32.1515089 C21.4868362,32.1685943 21.3385369,32.1929717 21.2411969,32.2056846 C21.0690403,32.228167 20.8381391,32.2685695 20.8097223,32.2811857 C20.8020032,32.2846125 20.7701487,32.2902484 20.7389904,32.2936753 C20.6424601,32.3043021 20.6341999,32.3075798 20.6250808,32.3388276 C20.6138049,32.3773794 20.4838498,32.4631384 20.3877377,32.4954131 C20.321134,32.5177809 20.3073967,32.519098 20.1415403,32.519012 C20.0449286,32.5186538 19.9543446,32.5167791 19.9402573,32.5141642 C19.9261624,32.5115612 19.9103004,32.4980615 19.9050181,32.484188 C19.8997208,32.470256 19.8762021,32.4508578 19.8524848,32.4408506 C19.8072657,32.4217747 19.7555894,32.4223263 19.6398692,32.4431312 L19.5883253,32.4523969 L19.5797927,32.5372676 C19.5750818,32.5839447 19.5627274,32.6313454 19.5523294,32.642604 C19.5419427,32.6538637 19.5273351,32.67085 19.5198903,32.6803509 C19.5124171,32.6898554 19.4738103,32.7152489 19.4340343,32.7367785 C19.3942564,32.7583093 19.3363916,32.7905924 19.3054433,32.8085196 C19.2415262,32.8455502 19.1864728,32.8511609 19.1480816,32.8245639 C19.1339489,32.8147728 19.1059293,32.8076372 19.082195,32.8077865 C19.0345599,32.8081447 18.9242431,32.7795345 18.8548223,32.7489326 C18.8122141,32.7301517 18.7229829,32.6382493 18.7225401,32.6126934 C18.7224569,32.607774 18.7094669,32.596082 18.6937128,32.5867256 C18.6709831,32.5732402 18.6466641,32.5699088 18.5763731,32.5706515 C18.5276084,32.5711291 18.4590429,32.5756068 18.424008,32.5805023 C18.3889713,32.5853859 18.3036431,32.5936844 18.2343794,32.5989023 C18.1651176,32.6040964 18.0880099,32.6137143 18.0630307,32.6202242 C18.0380515,32.6267317 17.9904977,32.6350147 17.9573662,32.6386231 C17.8702653,32.6481156 17.8437612,32.6682757 17.8447279,32.7243176 C17.8452955,32.7540013 17.8382764,32.7742557 17.8253375,32.780916 C17.8142319,32.7866473 17.8013894,32.8021853 17.7968053,32.8155047 C17.7848671,32.8501866 17.6687497,32.9213223 17.5860438,32.9446394 C17.5472118,32.9555887 17.4919598,32.9722789 17.4632629,32.9817356 C17.4202422,32.9959136 17.3827403,32.99911 17.2495499,32.9999566 C17.1607066,33.0003148 17.0837181,32.9984282 17.0784604,32.9953237 C17.0784604,32.9953237 17.0837181,32.9984282 17.0784604,32.9953237 L17.0784415,32.9953094 L17.0784415,32.9953094 L17.0784415,32.9953094 L17.0784415,32.9953094 Z M16.0376836,33.9882649 L16,33.9740241 L16.0330644,33.9485526 C16.0512467,33.934544 16.0937298,33.9180486 16.1274648,33.9118957 C16.2424174,33.890932 16.3199173,33.864668 16.4138516,33.8148479 C16.4654654,33.7874721 16.5075594,33.7582914 16.5073989,33.7499995 C16.5072626,33.7417064 16.527252,33.7217857 16.5518805,33.705729 C16.5948034,33.6777438 16.5965182,33.6726745 16.5933127,33.5831863 C16.5899929,33.4918258 16.5814404,33.4726521 16.5203661,33.4198305 C16.4912503,33.39466 16.3929343,33.3548457 16.2925714,33.3275755 C16.2260468,33.309499 16.2021966,33.2727156 16.2366396,33.2413136 C16.2510183,33.2281847 16.29663,33.1794335 16.337961,33.1329823 C16.3792899,33.0865286 16.4220061,33.0385207 16.4328759,33.026296 C16.4626336,32.9928398 16.5364971,32.9910165 16.5863256,33.0224996 C16.633428,33.0522676 16.7095933,33.127472 16.7099297,33.1445349 C16.7100616,33.1512308 16.7244403,33.16377 16.741875,33.1723764 C16.7795675,33.1909738 16.8607566,33.2688873 16.8611105,33.286793 C16.8612446,33.2937101 16.8809197,33.316862 16.9048249,33.3382349 C16.9345255,33.3647814 16.9487986,33.3904164 16.9498891,33.4191683 C16.9509884,33.4423116 16.9627068,33.476086 16.976338,33.4942166 C17.0161015,33.5469473 17.0033146,33.7235856 16.9561551,33.7730494 C16.9363459,33.7938375 16.9147163,33.8109717 16.9080964,33.8111228 C16.9014786,33.8111953 16.8741305,33.8276807 16.8473123,33.8475805 C16.7961601,33.8855335 16.6215622,33.9540604 16.5753481,33.9543209 C16.5605077,33.9543934 16.5374666,33.9634986 16.5241388,33.9745143 C16.5014209,33.993296 16.4865871,33.9948011 16.2876158,33.9985213 C16.1117186,34.0018263 16.0688793,34.0000816 16.0376594,33.9882501 C16.0376594,33.9882501 16.0688793,34.0000816 16.0376594,33.9882501 L16.0376836,33.9882649 L16.0376836,33.9882649 L16.0376836,33.9882649 L16.0376836,33.9882649 Z M15.0668133,33.842156 C15.0124049,33.7105721 15.00063,33.6547657 15.0000291,33.5256544 C14.9993565,33.3951829 15.0100284,33.3434098 15.0632979,33.216866 C15.1615617,32.9834387 15.2095827,32.9778027 15.3792156,33.1796969 C15.5413199,33.3726495 15.5961274,33.3901216 15.610633,33.2535185 C15.6246454,33.1215971 15.7179904,33.000895 15.8066608,33.0000304 C15.8627238,32.9989759 15.8944501,33.0251789 15.939348,33.1074149 C15.9957025,33.2106607 15.998422,33.2267462 15.9998569,33.4655828 C16.0007537,33.7096811 15.9994085,33.7189391 15.9347452,33.8535704 C15.8725907,33.9822599 15.8625915,33.9901998 15.7855615,33.9720687 C15.6875465,33.9489237 15.6287258,33.8433897 15.6127652,33.6618305 C15.6011965,33.5300198 15.5815074,33.49855 15.566753,33.5881776 C15.5620672,33.6169639 15.5379121,33.6524195 15.513183,33.6670499 C15.4675542,33.6941491 15.390143,33.8086722 15.335136,33.9306923 C15.3143528,33.9767715 15.2779072,33.9984667 15.2188601,33.9998743 C15.1391285,34.001456 15.1280306,33.9902262 15.0667954,33.842156 C15.0667954,33.842156 15.1280306,33.9902262 15.0667954,33.842156 L15.0668133,33.842156 L15.0668133,33.842156 L15.0668133,33.842156 L15.0668133,33.842156 Z M13.2701404,33.2641376 C13.3075981,33.2485816 13.3156278,33.2362339 13.3074172,33.2068368 C13.3016736,33.1862283 13.2884453,33.1311651 13.2780616,33.0844599 C13.2618032,33.0113567 13.2533732,32.9996114 13.2174962,33.0000096 C13.1787541,33.0001564 13.1068439,33.0451368 13.0413897,33.1094788 C13.0089814,33.141335 12.9889919,33.2188958 13.0064872,33.2449154 C13.0450619,33.3022783 13.1584435,33.3105392 13.2701495,33.2641301 C13.2701495,33.2641301 13.1584435,33.3105392 13.2701495,33.2641301 L13.2701404,33.2641376 L13.2701404,33.2641376 L13.2701404,33.2641376 L13.2701404,33.2641376 Z M11.9774507,33.9644904 C12.0001466,33.9297576 12.0006702,33.9201215 11.9997553,33.554746 L11.9988009,33.1805775 L11.9712047,33.1318134 C11.9447743,33.0851087 11.9352956,33.0823887 11.7469448,33.0674535 C11.638777,33.058829 11.5325289,33.0406126 11.5108364,33.0268494 C11.4823976,33.0088265 11.4569652,33.0072509 11.4196831,33.021238 C11.386025,33.0338706 11.3459069,33.0335666 11.3047649,33.0204087 C11.1518269,32.9717746 11.0500455,33.010568 11.0131642,33.1313712 C10.9957735,33.1883699 10.9957285,33.1947913 11.0123462,33.2482463 C11.022013,33.2793496 11.0414967,33.3088275 11.0556411,33.3137507 C11.0697842,33.3186434 11.1027496,33.3355329 11.1288978,33.3512449 C11.1578847,33.3686597 11.2198057,33.3795563 11.2875486,33.3791914 C11.3486584,33.379103 11.4516123,33.3853281 11.5163352,33.3935932 C11.5810581,33.4018583 11.6710321,33.4104551 11.7162985,33.4127218 C11.7752677,33.4157624 11.8068274,33.4271511 11.8276868,33.4531572 L11.8567923,33.4894407 L11.8508068,33.6818903 C11.8450939,33.8662877 11.8458575,33.8760621 11.868717,33.9155909 C11.8962246,33.9631221 11.9291628,34.000069 11.9439576,33.9999999 C11.949575,33.9998893 11.9646438,33.9839673 11.9774275,33.9643853 C11.9774275,33.9643853 11.9646438,33.9839673 11.9774275,33.9643853 L11.9774507,33.9644904 L11.9774507,33.9644904 L11.9774507,33.9644904 L11.9774507,33.9644904 Z M12.5940083,33.9934649 C12.5939445,33.9898169 12.562501,33.9778838 12.5241323,33.9669574 C12.4499561,33.94583 12.3863373,33.9138044 12.3475456,33.8780544 C12.3204761,33.8531138 12.2887035,33.7898811 12.2879516,33.7594453 C12.2878492,33.7443921 12.2798616,33.737857 12.2590475,33.7350127 C12.173443,33.7233076 11.9560253,33.7084916 11.7958871,33.7034481 C11.6954403,33.7002913 11.5072994,33.6911712 11.3778092,33.6831987 C11.0966065,33.6658835 10.9892547,33.6683337 10.9517252,33.6929199 C10.9375257,33.702223 10.9198117,33.7208041 10.9123494,33.734211 C10.9048973,33.7476168 10.8774047,33.7763571 10.8512817,33.7980751 C10.8251555,33.8197941 10.8038429,33.841094 10.8039184,33.8454111 C10.8039939,33.8497177 10.7983796,33.8532926 10.7914813,33.8533344 C10.7845494,33.8533783 10.7686951,33.859418 10.7562311,33.8667277 C10.7242571,33.8855084 10.659554,33.9132734 10.6260829,33.9225733 C10.6104736,33.9269322 10.5836424,33.9354294 10.5664402,33.9415067 C10.5212638,33.9574714 10.2063517,33.9593132 10.1556634,33.9439527 C10.1357271,33.9378795 10.1020898,33.9330262 10.0809132,33.9331329 C10.05974,33.9331945 10.0314636,33.9286381 10.0180815,33.9229204 C9.99788345,33.9142863 9.99581731,33.90888 10.005913,33.8911153 C10.0204649,33.8655068 10.0625412,33.8590312 10.2251819,33.8573525 C10.3155649,33.8564117 10.3420051,33.8530877 10.3947528,33.8360965 C10.4579034,33.815729 10.5657336,33.7665523 10.5741257,33.7542868 C10.5766266,33.7506492 10.5891979,33.7421312 10.602063,33.7354047 C10.6149197,33.7286835 10.6288574,33.7111989 10.6330282,33.6965544 C10.6372075,33.6819109 10.651521,33.6566181 10.6648544,33.640345 C10.6928572,33.6061765 10.6894466,33.5854442 10.6418718,33.5005792 C10.5928736,33.4131783 10.5754953,33.3938237 10.5196777,33.3644929 C10.4493636,33.3275429 10.451042,33.3100416 10.5296811,33.2602252 C10.5641122,33.2384163 10.6123769,33.2020548 10.6369356,33.1794221 C10.6769004,33.1425924 10.6857105,33.1384865 10.7208634,33.1403105 C10.7544083,33.1420352 10.7653785,33.1483592 10.7960449,33.1835176 C10.8433076,33.2377034 10.9082155,33.3314784 10.9084673,33.3459348 C10.908573,33.3522379 10.9168761,33.3680218 10.9268795,33.3810022 C10.9368829,33.3939847 10.951747,33.4169926 10.9598891,33.4321326 C10.9799529,33.4694557 10.9911899,33.4733243 11.0953981,33.4787891 C11.2048043,33.4845487 11.2061,33.483587 11.2157375,33.3921272 C11.2194133,33.3571978 11.2281243,33.3251388 11.2350997,33.3208844 C11.2420652,33.3166405 11.2476543,33.3064615 11.2475033,33.2982884 C11.2471676,33.2800909 11.1844601,33.1725504 11.1684497,33.1627456 C11.1471589,33.1497118 11.1558111,33.1113936 11.1875333,33.0782422 C11.204816,33.0601754 11.2235925,33.0453668 11.2292589,33.0453323 C11.2349319,33.0452967 11.2610263,33.0363637 11.2872651,33.0254728 C11.3528763,32.9982472 11.4511495,32.9916159 11.4932577,33.0115757 C11.5205405,33.0245091 11.5247751,33.0335916 11.5309786,33.0924466 C11.5372895,33.1523146 11.5411834,33.1604125 11.5711935,33.175888 C11.5894699,33.1853166 11.618139,33.1930517 11.6349047,33.1930768 C11.6516722,33.1931813 11.6756635,33.1985646 11.6882315,33.2052283 C11.7072649,33.2153153 11.7515802,33.2175251 11.9537913,33.2184899 C12.233366,33.2198174 12.3896605,33.2244689 12.4095163,33.2320118 C12.4171699,33.2349281 12.4658877,33.2371441 12.517808,33.2369351 C12.5697283,33.2366215 12.6830117,33.2391197 12.7695377,33.2422242 C12.9210387,33.2476807 12.9282827,33.2487155 12.9651073,33.2702736 L13.0033401,33.2926585 L13.0061095,33.3928568 C13.0094159,33.5084868 13.0202417,33.5233091 13.1013515,33.5227969 C13.1725954,33.5224833 13.1927146,33.5087921 13.1983172,33.4574641 C13.2009691,33.4330242 13.2104354,33.4094801 13.2193176,33.4051421 C13.22823,33.4008042 13.2438545,33.3848949 13.2541029,33.3697883 C13.2753299,33.3385028 13.3629703,33.283416 13.4036972,33.2757645 C13.4187023,33.2729422 13.4421951,33.2645872 13.4559146,33.2571886 C13.4696273,33.2497984 13.497813,33.2417507 13.5185415,33.2393204 C13.6091326,33.2286971 13.7088073,33.207852 13.7323556,33.194606 C13.7486866,33.1854179 13.7790023,33.1796354 13.8165351,33.1785514 C13.8647092,33.1771612 13.8797629,33.1800566 13.9007734,33.1948412 C13.9308994,33.2160146 13.9363711,33.2322375 13.9482325,33.3354955 C13.9531335,33.3781716 13.9634054,33.4221365 13.9710758,33.4331915 C13.9787461,33.4442475 13.988382,33.4973001 13.9925143,33.5510793 L14,33.6488735 L13.9606914,33.6810183 L13.9213827,33.7131599 L13.5142145,33.715355 C13.2902796,33.7165571 13.0874591,33.7198811 13.0634913,33.7227139 C13.0162085,33.7283375 13.0049446,33.7437764 13.0059584,33.8016301 C13.0064619,33.8196269 12.9979187,33.8343247 12.9826367,33.8427832 C12.969545,33.8500271 12.9555739,33.8640371 12.9516061,33.8739318 C12.9440364,33.8927784 12.8606877,33.9321315 12.8070117,33.9421955 C12.7897626,33.9454255 12.7672214,33.9522512 12.7569277,33.957346 C12.7274327,33.9719529 12.6329175,33.9998726 12.6125247,33.999999 C12.6023703,34.0000618 12.5939798,33.9971349 12.5939143,33.993466 C12.5939143,33.993466 12.5939798,33.9971349 12.5939143,33.993466 L12.5940083,33.9934649 L12.5940083,33.9934649 L12.5940083,33.9934649 L12.5940083,33.9934649 Z M12.5940083,33.9934649" fill="#DFAC16" id="path4247-1"/><path d="M12.3659333,21.012733 L11,27.1155348 C11,27.1155348 11.0038477,27.7064531 11.5658317,27.7587945 C12.1278157,27.8111359 12.2645739,27.2565699 12.2645739,27.2565699 L12.9976156,22.2823397 L12.7885206,27.2794115 C12.7885206,27.2794115 12.8750939,27.9824482 13.5144716,27.999701 C14.1538493,28.0169537 14.2189304,27.2819387 14.2189304,27.2819387 L13.9233721,22.3048898 L14.6317886,27.2804807 C14.6317886,27.2804807 14.7888846,27.8841319 15.4169391,27.8327625 C16.0449936,27.7813931 15.999261,27.1374066 15.999261,27.1290454 C15.999261,27.1117441 14.5856162,21 14.5856162,21 L12.3659333,21.012733 L12.3659333,21.012733 L12.3659333,21.012733 L12.3659333,21.012733 Z M12.3659333,21.012733" fill="#DFAC16" id="Path-78"/><path d="M13.1510068,18.0813481 L26,30 L25.0852353,8.35375294 C24.9508357,5.07316645 22.0977431,5.82582673 20.0252219,7.00921861 C17.925685,8.35375294 15.5304757,8.35375294 13,7.46606374 C10.4700871,8.35375294 8.0746902,8.35375294 5.9751533,7.00921861 C3.90281977,5.82590171 1.0500311,5.07311022 0.915327547,8.35375294 L0,30 L13.1510443,18.0813481 L13.1510068,18.0813481 L13.1510068,18.0813481 L13.1510068,18.0813481 L13.1510068,18.0813481 Z M13.1510068,18.0813481" fill="#DFAC16" id="_x32_1312736"/><path d="M1,8.27643304 L2.19821436,7.62269388 L1.41212039,27.4754759 L1.88140565,27.0954576 L2.63983434,7.9190004 L3.89973205,9.22026244 L3.16630458,25.9164479 L3.87965916,25.2782493 L4.61964433,9.61747888 L5.57870765,10.520074 L4.99282839,24.2670775 L5.54674893,23.7948521 L6.21931276,10.7243804 L7.28534854,11.4338583 L6.79496572,22.4707972 L12.8209336,10.3591322 L18.7370375,22.8869519 L18.2147768,11.5592188 L19.2357284,10.8748129 L19.6057276,23.8693219 L20.2922366,24.5721691 L19.8667019,10.4475515 L20.7761726,9.7034699 L21.3670843,25.416539 L22.0849473,26.2277557 L21.4436232,9.22212726 L22.6789296,7.9637572 L23.3122614,27.3530987 L24,28 L23.3144116,7.66558579 L23.9716425,8.03548714 C23.9716425,8.03548714 23.7963905,5.29332677 21.4502151,6.17454365 C20.1345381,6.66870822 19.9470828,7.0907552 17.7374542,7.83683606 C15.6281663,8.54903691 12.3818703,7.52569783 12.3818703,7.52569783 C12.3818703,7.52569783 10.33642,8.71208641 8.26746624,8.29756816 C6.19851258,7.88304984 4.64085438,6.40607605 3.51456976,6.28744984 C3.08548967,6.24225687 1.19980486,5.75202612 1,8.27643304 C1,8.27643304 1.19980486,5.75202612 1,8.27643304 L1,8.27643304 L1,8.27643304 Z M1,8.27643304" fill="#FFFFFF" id="Path-80"/><path d="M8.52717254,29.786967 C7.65312757,29.699395 6,29.1414994 6,29.1414994 L9.20381172,17 L17.7743726,17.0399105 L21,29.1106643 C21,29.1106643 19.2902296,29.6157446 18.4081904,29.7985899 C17.561243,29.9741609 15.8520653,30 15.8520653,30 L14.3201112,21.6404461 L12.7448296,21.6997812 L10.8624079,29.9507487 C10.8624079,29.9507487 9.41882791,29.8763034 8.52717254,29.786967 C8.52717254,29.786967 9.41882791,29.8763034 8.52717254,29.786967 L8.52717254,29.786967 L8.52717254,29.786967 Z M8.52717254,29.786967" fill="#DFAC16" id="Path-79"/><g fill="#FFFFFF" id="Group" transform="translate(6.000000, 18.000000)"><path d="M3.54527681,0 L3,3.02751827 L3.22248641,4 L4,2.90454035 C4,2.90454035 3.86211119,0.603554058 3.54527681,0 C3.54527681,0 3.86211119,0.603554058 3.54527681,0 L3.54527681,0 L3.54527681,0 Z M3.54527681,0" id="Path"/><path d="M2.77687175,4.2225151 L2.5812846,3.43099359 L2,6.21622932 L2.9428378,4.97851363 L3.28963449,6.6291623 L4.0523544,5.62178373 L4.40621018,8 L5,6.49167711 L4.68684665,4.30153633 L4.05824949,5.18553833 L3.82064999,3 L2.77687175,4.2225151 L2.77687175,4.2225151 L2.77687175,4.2225151 L2.77687175,4.2225151 Z M2.77687175,4.2225151" id="Path-copy"/><path d="M4,2.48303275 L4.54152341,2 L5,3.12883494 C5,3.12883494 4.08582386,4.01232526 4.08582386,3.99986952 C4.08582386,3.98741378 4,2.48303275 4,2.48303275 L4,2.48303275 L4,2.48303275 L4,2.48303275 Z M4,2.48303275" id="Path"/><path d="M5,4.66515143 L5.58103326,4 L6,4.68447768 C6,4.68447768 5.36075725,6.01227772 5.36075725,5.99991419 C5.36075725,5.98755067 5,4.66515143 5,4.66515143 L5,4.66515143 L5,4.66515143 L5,4.66515143 Z M5,4.66515143" id="Path"/><path d="M5,1 L5.18258557,2 L6,1.87051974 L5,1 L5,1 L5,1 L5,1 Z M5,1" id="Path"/><path d="M1,7.27414848 L2.347326,6 L2.72892275,7.57936903 L3.71062541,6.57934739 L4,8.47848774 L3.01423044,10 L2.42220292,8.29183757 L1.5185621,9.67286662 L1,7.27414848 L1,7.27414848 L1,7.27414848 L1,7.27414848 Z M1,7.27414848" id="Path"/><path d="M0.69885964,8 L1,9.8131318 L0.44833169,11 L0,10.6630043 L0.69885964,8 L0.69885964,8 L0.69885964,8 L0.69885964,8 Z M0.69885964,8" id="Path"/><path d="M2,10.764041 L2.76470956,9.58485675 L3.45775782,10.9523171 L4.72201631,9 L5,10.376581 L4.60365703,12 L3.60777531,11.9691558 L3.14092744,11.1147291 L2.42393543,11.890651 L2,10.764041 L2,10.764041 L2,10.764041 L2,10.764041 Z M2,10.764041" id="Path"/><path d="M5,8.52733248 L6,7 L5.20312025,10 L5,8.52733248 L5,8.52733248 L5,8.52733248 L5,8.52733248 Z M5,8.52733248" id="Path"/><path d="M11.4121234,0 L12,3.22494262 L11.8212344,4 L11,2.98710241 C11,2.98710241 11.0705363,0.642911793 11.4121234,0 C11.4121234,0 11.0705363,0.642911793 11.4121234,0 L11.4121234,0 L11.4121234,0 Z M11.4121234,0" id="Path"/><path d="M12.8871058,5.37709905 L13.1120406,4.46774939 L14,7.48930907 L12.6518967,6.28427321 L12.2350026,7.91909543 L11.3181153,6.92137563 L10.5965257,9 L10,7.65002847 L10.4137607,5.4992173 L11.3180247,6.20106375 L11.6898715,4 L12.8871058,5.37709905 L12.8871058,5.37709905 L12.8871058,5.37709905 L12.8871058,5.37709905 Z M12.8871058,5.37709905" id="Path-copy"/><path d="M11,3.40955268 L10.279945,3 L9.33644496,3.53810171 L9,3.94149004 C9,3.94149004 10.5755134,5.01318869 10.5755134,4.99987701 C10.5755134,4.98656534 11,3.40955268 11,3.40955268 L11,3.40955268 L11,3.40955268 L11,3.40955268 Z M11,3.40955268" id="Path"/><path d="M10,4.60095177 L9.20053501,4 L9,4.73614902 C9,4.73614902 9.57435358,5.63570937 9.71455463,5.99728585 C9.74331307,6.07145354 10,4.60095177 10,4.60095177 L10,4.60095177 L10,4.60095177 L10,4.60095177 Z M10,4.60095177" id="Path"/><path d="M11,1 L10.8174144,2 L10,1.87051974 L11,1 L11,1 L11,1 L11,1 Z M11,1" id="Path"/><path d="M13,8.26919647 L11.7836714,7 L11.3713735,8.73230405 L10.5461618,7.79652058 L10,9.62155054 L10.547009,11 L11.0548558,9.60093367 L12.2598973,10.8344678 L13,8.26919647 L13,8.26919647 L13,8.26919647 L13,8.26919647 Z M13,8.26919647" id="Path"/><path d="M13.4718603,8 L13,9.89740678 L13.4659888,11 L14,10.8556107 L13.4718603,8 L13.4718603,8 L13.4718603,8 L13.4718603,8 Z M13.4718603,8" id="Path"/><path d="M13,10.0765973 L12.0405982,9.38751942 L11.3833919,10.4149489 L10.4318562,9 L10,10.0563478 L10.3077278,11 L11.2241687,10.9105979 L11.6477266,10.4524038 L12.622342,10.8931939 L13,10.0765973 L13,10.0765973 L13,10.0765973 L13,10.0765973 Z M13,10.0765973" id="Path"/><path d="M9.8817139,9.04350955 L9,8 L9.4788818,10 L9.8817139,9.04350955 L9.8817139,9.04350955 L9.8817139,9.04350955 L9.8817139,9.04350955 Z M9.8817139,9.04350955" id="Path"/><path d="M13.2128606,11 L13,12 L14,11.7439733 L13.2128606,11 L13.2128606,11 L13.2128606,11 L13.2128606,11 Z M13.2128606,11" id="Path"/><path d="M11.3701401,11 L11,12 L12,11.8483776 L11.3701401,11 L11.3701401,11 L11.3701401,11 L11.3701401,11 Z M11.3701401,11" id="Path"/><path d="M1.68879557,11 L1,11.8436819 L2,12 L1.68879557,11 L1.68879557,11 L1.68879557,11 L1.68879557,11 Z M1.68879557,11" id="Path"/><path d="M3.53337829,11 L3,11.908412 L4,12 L3.53337829,11 L3.53337829,11 L3.53337829,11 L3.53337829,11 Z M3.53337829,11" id="Path"/></g><g id="Group-copy" transform="translate(8.500000, 30.500000) scale(-1, 1) translate(-8.500000, -30.500000) translate(3.000000, 28.000000)"><path d="M1.66674873,2.28507729 C0.993846373,2.28507729 0.525856505,3.70010452 1.81294791,3.92402588 C2.95371781,4.10969238 4.73791007,3.92402588 5.70243199,3.7001175 C6.52177614,3.51381752 8.37204867,3.25166234 9.51271663,2.84130859 L10.8382603,3.13947088 C10.8382603,3.13947088 11.2222362,1.95507812 10.8069349,1.53480114 C10.3916336,1.11452415 9.87512404,1.37872129 9.80111531,1.28923792 C9.62317358,1.07409007 9.36209164,0.950426631 9.12480283,1.01892857 C8.13035239,1.42834768 6.84346693,1.83838988 5.55682608,2.06150642 C4.24045855,2.28507729 2.77846677,2.47106053 1.66674873,2.28507729 C1.66674873,2.28507729 2.77846677,2.47106053 1.66674873,2.28507729 L1.66674873,2.28507729 L1.66674873,2.28507729 Z M1.66674873,2.28507729" fill="#DFAC16" id="Path"/><path d="M1.51878795,2.46221324 C0.925296456,2.46221324 0.642591872,3.76231804 1.77779045,3.95300983 C2.78393529,4.11112373 4.27649606,3.83509934 5.12719237,3.64441861 C5.8498437,3.48576525 7.47053936,2.89454949 8.47659433,2.54509158 C9.48295488,2.00642321 8.84793967,0.619554042 8.15882302,1.09920367 C7.28173011,1.44786565 6.13548323,2.01819213 5.00068204,2.20819853 C3.83966228,2.39859185 2.4993094,2.62059687 1.51878795,2.46221324 C1.51878795,2.46221324 2.4993094,2.62059687 1.51878795,2.46221324 L1.51878795,2.46221324 L1.51878795,2.46221324 Z M1.51878795,2.46221324" fill="#FFFFFF" id="Path-copy"/><path d="M6,2.58771597 L6.06684863,3 L7,2.40848681 L6.92483323,2 L6,2.58771597 L6,2.58771597 L6,2.58771597 L6,2.58771597 Z M6,2.58771597" fill="#DFAC16" id="Path" transform="translate(6.500000, 2.500000) rotate(5.000000) translate(-6.500000, -2.500000) "/><path d="M8,1.58771597 L8.06684865,2 L9,1.40848681 L8.92483323,1 L8,1.58771597 L8,1.58771597 L8,1.58771597 L8,1.58771597 Z M8,1.58771597" fill="#DFAC16" id="Path" transform="translate(8.500000, 1.500000) rotate(5.000000) translate(-8.500000, -1.500000) "/><path d="M3,3.58771598 L3.06684863,4 L4,3.40848681 L3.9248332,3 L3,3.58771598 L3,3.58771598 L3,3.58771598 L3,3.58771598 Z M3,3.58771598" fill="#DFAC16" id="Path" transform="translate(3.500000, 3.500000) rotate(22.000000) translate(-3.500000, -3.500000) "/><path d="M4,3.58771598 L4.06684863,4 L5,3.40848681 L4.9248332,3 L4,3.58771598 L4,3.58771598 L4,3.58771598 L4,3.58771598 Z M4,3.58771598" fill="#DFAC16" id="Path" transform="translate(4.500000, 3.500000) rotate(16.000000) translate(-4.500000, -3.500000) "/><path d="M10.223148,2.01050747 C10.223148,2.01050747 10.2746305,2.62860746 10,2.77662035 C10.3995042,2.75323467 10.895681,3 10.895681,3 C10.895681,3 11.1410237,2.44105886 10.8792066,2.18809978 C10.6173895,1.9351407 10.223148,2.01050747 10.223148,2.01050747 L10.223148,2.01050747 L10.223148,2.01050747 L10.223148,2.01050747 Z M10.223148,2.01050747" fill="#FFFFFF" id="Path"/><path d="M5,3.21257521 C5,2.73655243 5.30156862,2 5.85537944,2 C6.40874468,2 6.96277654,2.47620389 6.96277654,2.95240778 C7.21458722,3.9053589 6.10634455,4.04849778 6.10634455,5 C6.10630946,4.04831667 5,4.16534522 5,3.21257521 C5,3.21257521 5,4.16534522 5,3.21257521 L5,3.21257521 L5,3.21257521 Z M5,3.21257521" fill="#DFAC16" id="_x32_1316520"/><path d="M5.00082283,3.41262913 C4.98726456,3.25448829 5.14171594,3 5.43051485,3 C5.7190814,3 5.97905139,3.18841053 5.97905139,3.34714516 C6.11292188,3.70578556 5.56138707,3.68283259 5.56138707,4 C5.56136877,3.68277222 5.0389359,3.85717197 5.00082283,3.41262913 C5.00082283,3.41262913 5.0389359,3.85717197 5.00082283,3.41262913 L5.00082283,3.41262913 L5.00082283,3.41262913 Z M5.00082283,3.41262913" fill="#FFFFFF" id="_x32_1316520-copy"/><path d="M0,3.21257521 C0,2.73655243 0.301568619,2 0.855379444,2 C1.40874469,2 1.96277655,2.47620389 1.96277655,2.95240778 C2.2145872,3.9053589 1.10634454,4.04849778 1.10634454,5 C1.10630946,4.04831667 0,4.16534522 0,3.21257521 C0,3.21257521 0,4.16534522 0,3.21257521 L0,3.21257521 L0,3.21257521 Z M0,3.21257521" fill="#DFAC16" id="_x32_1316520"/><path d="M1.00082283,3.41262913 C0.987264559,3.25448829 1.14171594,3 1.43051485,3 C1.7190814,3 1.97905139,3.18841053 1.97905139,3.34714516 C2.11292188,3.70578556 1.56138706,3.68283259 1.56138706,4 C1.56136877,3.68277222 1.0389359,3.85717197 1.00082283,3.41262913 C1.00082283,3.41262913 1.0389359,3.85717197 1.00082283,3.41262913 L1.00082283,3.41262913 L1.00082283,3.41262913 Z M1.00082283,3.41262913" fill="#FFFFFF" id="_x32_1316520-copy"/></g><g id="Group-copy-2" transform="translate(13.000000, 28.000000)"><path d="M1.66674873,2.28507729 C0.993846373,2.28507729 0.525856505,3.70010452 1.81294791,3.92402588 C2.95371781,4.10969238 4.73791007,3.92402588 5.70243199,3.7001175 C6.52177614,3.51381752 8.37204867,3.25166234 9.51271663,2.84130859 L10.8382603,3.13947088 C10.8382603,3.13947088 11.2222362,1.95507812 10.8069349,1.53480114 C10.3916336,1.11452415 9.87512404,1.37872129 9.80111531,1.28923792 C9.62317358,1.07409007 9.36209164,0.950426631 9.12480283,1.01892857 C8.13035239,1.42834768 6.84346693,1.83838988 5.55682608,2.06150642 C4.24045855,2.28507729 2.77846677,2.47106053 1.66674873,2.28507729 C1.66674873,2.28507729 2.77846677,2.47106053 1.66674873,2.28507729 L1.66674873,2.28507729 L1.66674873,2.28507729 Z M1.66674873,2.28507729" fill="#DFAC16" id="Path"/><path d="M1.51878795,2.46221324 C0.925296456,2.46221324 0.642591872,3.76231804 1.77779045,3.95300983 C2.78393529,4.11112373 4.27649606,3.83509934 5.12719237,3.64441861 C5.8498437,3.48576525 7.47053936,2.89454949 8.47659433,2.54509158 C9.48295488,2.00642321 8.84793967,0.619554042 8.15882302,1.09920367 C7.28173011,1.44786565 6.13548323,2.01819213 5.00068204,2.20819853 C3.83966228,2.39859185 2.4993094,2.62059687 1.51878795,2.46221324 C1.51878795,2.46221324 2.4993094,2.62059687 1.51878795,2.46221324 L1.51878795,2.46221324 L1.51878795,2.46221324 Z M1.51878795,2.46221324" fill="#FFFFFF" id="Path-copy"/><path d="M6,2.58771597 L6.06684863,3 L7,2.40848681 L6.92483323,2 L6,2.58771597 L6,2.58771597 L6,2.58771597 L6,2.58771597 Z M6,2.58771597" fill="#DFAC16" id="Path" transform="translate(6.500000, 2.500000) rotate(5.000000) translate(-6.500000, -2.500000) "/><path d="M8,1.58771597 L8.06684865,2 L9,1.40848681 L8.92483323,1 L8,1.58771597 L8,1.58771597 L8,1.58771597 L8,1.58771597 Z M8,1.58771597" fill="#DFAC16" id="Path" transform="translate(8.500000, 1.500000) rotate(5.000000) translate(-8.500000, -1.500000) "/><path d="M3,3.58771598 L3.06684863,4 L4,3.40848681 L3.9248332,3 L3,3.58771598 L3,3.58771598 L3,3.58771598 L3,3.58771598 Z M3,3.58771598" fill="#DFAC16" id="Path" transform="translate(3.500000, 3.500000) rotate(22.000000) translate(-3.500000, -3.500000) "/><path d="M4,3.58771598 L4.06684863,4 L5,3.40848681 L4.9248332,3 L4,3.58771598 L4,3.58771598 L4,3.58771598 L4,3.58771598 Z M4,3.58771598" fill="#DFAC16" id="Path" transform="translate(4.500000, 3.500000) rotate(16.000000) translate(-4.500000, -3.500000) "/><path d="M10.223148,2.01050747 C10.223148,2.01050747 10.2746305,2.62860746 10,2.77662035 C10.3995042,2.75323467 10.895681,3 10.895681,3 C10.895681,3 11.1410237,2.44105886 10.8792066,2.18809978 C10.6173895,1.9351407 10.223148,2.01050747 10.223148,2.01050747 L10.223148,2.01050747 L10.223148,2.01050747 L10.223148,2.01050747 Z M10.223148,2.01050747" fill="#FFFFFF" id="Path"/><path d="M5,3.21257521 C5,2.73655243 5.30156862,2 5.85537944,2 C6.40874468,2 6.96277654,2.47620389 6.96277654,2.95240778 C7.21458722,3.9053589 6.10634455,4.04849778 6.10634455,5 C6.10630946,4.04831667 5,4.16534522 5,3.21257521 C5,3.21257521 5,4.16534522 5,3.21257521 L5,3.21257521 L5,3.21257521 Z M5,3.21257521" fill="#DFAC16" id="_x32_1316520"/><path d="M5.00082283,3.41262913 C4.98726456,3.25448829 5.14171594,3 5.43051485,3 C5.7190814,3 5.97905139,3.18841053 5.97905139,3.34714516 C6.11292188,3.70578556 5.56138707,3.68283259 5.56138707,4 C5.56136877,3.68277222 5.0389359,3.85717197 5.00082283,3.41262913 C5.00082283,3.41262913 5.0389359,3.85717197 5.00082283,3.41262913 L5.00082283,3.41262913 L5.00082283,3.41262913 Z M5.00082283,3.41262913" fill="#FFFFFF" id="_x32_1316520-copy"/><path d="M0,3.21257521 C0,2.73655243 0.301568619,2 0.855379444,2 C1.40874469,2 1.96277655,2.47620389 1.96277655,2.95240778 C2.2145872,3.9053589 1.10634454,4.04849778 1.10634454,5 C1.10630946,4.04831667 0,4.16534522 0,3.21257521 C0,3.21257521 0,4.16534522 0,3.21257521 L0,3.21257521 L0,3.21257521 Z M0,3.21257521" fill="#DFAC16" id="_x32_1316520"/><path d="M1.00082283,3.41262913 C0.987264559,3.25448829 1.14171594,3 1.43051485,3 C1.7190814,3 1.97905139,3.18841053 1.97905139,3.34714516 C2.11292188,3.70578556 1.56138706,3.68283259 1.56138706,4 C1.56136877,3.68277222 1.0389359,3.85717197 1.00082283,3.41262913 C1.00082283,3.41262913 1.0389359,3.85717197 1.00082283,3.41262913 L1.00082283,3.41262913 L1.00082283,3.41262913 Z M1.00082283,3.41262913" fill="#FFFFFF" id="_x32_1316520-copy"/></g><g id="Group" transform="translate(6.000000, 9.000000)"><path d="M13.986953,1.59174174 C13.7996073,1.62349269 13.6216366,1.63936909 13.4342909,1.63936909 C11.9449442,1.63936909 8.3927291,0.917243652 7.56399708,0 C6.67627501,0.830211051 3.04621126,1.63936909 1.56623944,1.63936909 C1.37889598,1.63936909 1.19156992,1.62349638 1.01359917,1.59174174 C1.01359917,1.59174174 0.395378138,8.37147292 7.49554513,13 C14.5957773,8.37165732 13.986953,1.59174174 13.986953,1.59174174 L13.986953,1.59174174 L13.986953,1.59174174 L13.986953,1.59174174 Z M13.986953,1.59174174" fill="#DFAC16" id="_66795168-9"/><path d="M12.8130577,2.4985005 C11.445472,2.4985005 8.26898406,1.89892705 7.044537,1 C5.76201914,1.83039737 2.53308008,2.4985005 1.18764289,2.4985005 C1.12453627,2.4985005 1.06218996,2.4919093 1.00039461,2.48221081 C0.997265181,2.74412637 1.01319886,3.01560859 1.03223553,3.26253388 C1.10341918,4.1854529 1.29286027,5.11164869 1.58045986,6.00296761 C2.48581457,8.80799513 4.33877139,11.1917507 6.9957068,13 C9.65484606,11.1902441 11.5100287,8.80422873 12.4173449,5.99712969 C12.7054073,5.10601793 12.8954434,4.17989746 12.9673102,3.25707259 C12.9861089,3.01517546 13.0019456,2.75015262 12.9998057,2.49352885 C12.9379552,2.49684329 12.8757345,2.4985005 12.8130577,2.4985005 L12.8130577,2.4985005 L12.8130577,2.4985005 L12.8130577,2.4985005 Z M12.8130577,2.4985005" fill="#FFFFFF" id="path3816"/><path d="M12.8286361,2.24875042 C11.575016,2.24875042 8.66323539,1.74910587 7.5408256,1 C6.36518421,1.69199781 3.4053234,2.24875042 2.17200598,2.24875042 C2.11415824,2.24875042 2.05700747,2.24325775 2.00036173,2.23517568 C1.99749308,2.45343864 2.01209896,2.67967383 2.02954923,2.8854449 C2.09480092,3.65454409 2.26845524,4.42637391 2.53208821,5.16913968 C3.36199669,7.50666263 5.06054044,9.49312556 7.49606457,11 C9.9336089,9.49187006 11.634193,7.50352394 12.4658994,5.16427474 C12.7299566,4.42168161 12.9041564,3.64991455 12.9700343,2.88089383 C12.9872664,2.67931288 13.0017834,2.45846051 12.9998219,2.24460738 C12.9431256,2.24736941 12.88609,2.24875042 12.8286361,2.24875042 L12.8286361,2.24875042 L12.8286361,2.24875042 L12.8286361,2.24875042 Z M12.8286361,2.24875042" fill="#DFAC16" id="path3816-copy"/><path d="M9.96045634,2.65230678 C9.00588556,2.47442932 8.1409728,2.2530263 7.59983206,2 C7.00034252,2.24721514 6.039707,2.47525155 5,2.66038285 L5.11475324,9.00904192 C5.60574806,9.58645196 6.63871886,10.6083212 7.54233058,11 C8.38350124,10.6353854 9.60122381,9.54195731 10,8.94006348 L9.96045634,2.65230678 L9.96045634,2.65230678 L9.96045634,2.65230678 L9.96045634,2.65230678 Z M9.96045634,2.65230678" fill="#FFFFFF" id="path3816-copy-2"/></g><path d="M15.482209,8.79672664 C15.6166004,8.80397955 15.3003909,8.13577204 15.3003909,8.13577204 C15.6561088,8.4698766 17,8.54978066 17,8.54978066 C16.1937239,8.22270266 15.3874479,5.75324309 15.4821977,3.78497146 C15.5692773,1.80948671 15.1740351,1.03237592 14.8577511,0.74177811 C14.4546131,0.3713799 13.1581195,0.0445299066 12.3044685,0.000960962172 C11.8221467,-0.0208255828 11.9013305,0.335065537 11.9013305,0.335065537 C11.0079748,0.124433941 10.1148447,0.0445299066 9.71148107,0.291475865 C9.33203053,0.52391266 9.25298207,1.68599299 9.52966293,1.48261598 C10.2015972,0.98872407 10.7865873,1.43903875 11.1897253,1.9765079 C11.5454658,2.44861534 11.5217333,3.78503364 11.0079071,5.34657197 C10.4703597,6.98803509 9,8.62958109 9,8.62958109 C9.79842533,8.62958109 10.9209629,7.97590183 10.9209629,7.97590183 L10.6521891,9 C11.4980119,8.62958109 12.1699688,8.05580582 12.1699688,8.05580582 L12.97629,8.83293737 C13.2450411,8.50610809 13.7825886,8.05580582 13.7825886,8.05580582 C13.7825886,8.05580582 14.4545455,8.70946438 15.4821977,8.79664371 C15.4821977,8.79664371 14.4545455,8.70946438 15.4821977,8.79664371 L15.482209,8.79672664 L15.482209,8.79672664 L15.482209,8.79672664 L15.482209,8.79672664 Z M15.482209,8.79672664" fill="#DFAC16" id="path140"/><path d="M12.1068493,1.85917851 C12.1662111,1.97434102 12.3763311,2.09941262 12.4963752,2.08629909 C12.6164192,2.07318555 12.8785526,2.0102307 12.9053056,1.76792603 C12.9053056,1.76792603 13.8794935,1.26872419 14.385791,1.67746234 C14.6093922,1.85797738 14.8385048,2.14225385 14.9294049,2.81104393 C15.0223409,3.49481198 14.8108531,4.41905356 14.8399421,4.84977214 C14.897827,5.70686831 15.0771783,6.53723662 15.206844,7.05208334 C15.4368883,7.96549067 15.9434425,8.75056968 15.9957178,8.75056968 C16.0576271,8.75056968 15.4366278,8.87909054 14.8855442,7.79874674 C14.4482922,6.94155814 14.1750968,4.77013754 14.1750968,4.77013754 L13.7806337,4.72872636 C13.7806337,4.72872636 13.9397926,6.19933755 14.1130368,6.81831447 C14.2116813,7.17075714 14.4034709,7.80574587 14.6265105,8.31444101 C14.8231338,8.76288714 14.9300939,9.00580761 14.9300939,8.99989454 C14.9300939,8.99463994 13.8201891,8.70188201 13.6654121,8.07410834 C13.5106351,7.44633467 13.5299823,4.57363166 13.5299823,4.57363166 L13.1215111,4.5764417 C13.1215111,4.5764417 13.2415003,7.08542407 13.1072161,8.24660561 C13.0711078,8.55884021 12.6186582,8.89326081 12.6186582,8.89326081 C12.6186582,8.89326081 12.0733719,8.64591341 12.1099494,8.25168341 C12.3928652,6.9624648 12.7987529,4.56924405 12.7987529,4.56924405 L12.3642751,4.52768498 C12.3642751,4.52768498 12.0684995,6.76137411 11.7606104,7.84703707 C11.5653796,8.30925588 10.5983478,8.89414814 10.5983478,8.89414814 C10.5983478,8.89414814 10.9928598,8.07672594 11.116357,7.73226894 C11.5046057,6.64937013 11.9599375,4.67508904 11.9599375,4.67508904 L11.5802133,4.7076823 C11.5802133,4.7076823 11.0497818,6.94294837 10.6912753,7.52522787 C9.79113222,8.98722334 9.14462399,8.74243168 9.14462399,8.74243168 C9.14462399,8.74243168 9.89608854,7.88923127 10.4935175,6.74909866 C10.9700461,5.83969199 11.1608271,4.70685279 11.2002903,4.51688849 C11.3126368,3.9760839 11.2705024,2.85787799 11.2705024,2.85787799 C11.2705024,2.85787799 11.1986052,2.64223406 11.3023075,2.60921376 C11.4389994,2.56568912 11.8114756,2.65358287 11.8114756,2.65358287 C11.8114756,2.65358287 11.4720357,2.18273371 11.001767,1.84330423 C10.5753428,1.53552092 10.0194133,1.41721556 9.83824132,1.42973479 C9.45726953,1.45606045 9,1.54489729 9,1.54489729 C9,1.54489729 9.03514787,1.11646041 9.46685697,1.03194102 C10.0354442,0.920623843 10.4675108,1.12570773 10.7424466,1.25738542 C11.0173824,1.38906309 11.42172,1.74672746 12.1068493,1.85917851 C12.1068493,1.85917851 11.42172,1.74672746 12.1068493,1.85917851 L12.1068493,1.85917851 L12.1068493,1.85917851 Z M12.1068493,1.85917851" fill="#FFFFFF" id="Path"/><circle cx="12.5" cy="1.5" d="M12.5,2 C12.7761424,2 13,1.77614239 13,1.5 C13,1.22385761 12.7761424,1 12.5,1 C12.2238576,1 12,1.22385761 12,1.5 C12,1.77614239 12.2238576,2 12.5,2 Z M12.5,2" fill="#FFFFFF" id="Oval" r="0.5"/></g></g></g></svg>