<?xml version="1.0" encoding="UTF-8" standalone="no"?>
<svg width="180px" height="120px" viewBox="0 0 180 120" version="1.1" xmlns="http://www.w3.org/2000/svg" xmlns:xlink="http://www.w3.org/1999/xlink">
    <!-- Generator: Sketch 40.2 (33826) - http://www.bohemiancoding.com/sketch -->
    <title>icon-flag-af</title>
    <desc>Created with Sketch.</desc>
    <defs></defs>
    <g id="Page-1" stroke="none" stroke-width="1" fill="none" fill-rule="evenodd">
        <g id="icon-flag-af">
            <rect id="4" fill="#CA4638" x="0" y="0" width="180" height="120"></rect>
            <rect id="3" fill="#479951" x="120" y="0" width="60" height="120"></rect>
            <rect id="2" fill="#000000" x="0" y="0" width="60" height="120"></rect>
            <path d="M99.5066304,90.2746416 C103.176532,89.1248744 107.681709,86.8949039 108.9,84.1 C106.9,85.2 104,86.6 102.3,85 C103.1,85.3 102.7,85.4 102.3,85 C103.3,85 104.3,84.9 105.2,84.9 C106,85 101.6,83.5 101.8,84.6 C100.3,83.9 100.3,83.3 101.7,82.7 C99.6,83.1 100,81.6 98.6,81.8 C98.8,81.6 98.9,81.5 99.2,81.4 C99.2,81.6 98.7,82.4 99.8,82.1 C100,81.1 100,80.1 99.8,79 C98.7248415,80.1501695 97.3433428,81.0502653 95.7586743,81.7299881 C96.120869,81.1809972 96.5104345,80.6194207 96.9,80.1 C97.1,79.1 96.6,81.1 96.9,80.1 C97.3,79.2 97.6,78.3 98,77.4 C97.1708159,78.809613 96.479141,80.3567354 95.6969344,81.7563157 C95.2225551,81.9574189 94.7302082,82.1389382 94.2226341,82.3016624 C94.6845695,81.5677749 95.0922847,80.8338875 95.5,80.1 C95.8,79.1 95.2,81.1 95.5,80.1 C96,79.2 96.4,78.3 96.9,77.4 C95.5038505,78.7961495 94.540864,80.4521967 94.0110405,82.3681417 C93.7124337,82.4600674 93.4087712,82.5456307 93.1005975,82.6249884 C93.3883864,82.3475514 93.6135138,81.8351345 93.8,81.4 C93.2119412,81.9880588 92.5278232,82.2879399 92.5008255,82.7703807 C88.2465021,83.7391351 83.2270869,83.5854174 78.8,82.7 C80.3,83.3 80.2,83.9 78.6,84.7 C79,83.6 74.3,85.1 75.2,85 C81.7,88.3 73.1,85.1 71.4,84.1 C72,85.5 82.1,89.4 80.5,91.1 C84,87.9 92.3,91.3 95.8,91.1 C96.6126592,91.0261219 97.7164103,90.8006334 98.9439898,90.4444424 C99.1609208,90.4294162 99.3793788,90.4147081 99.6,90.4 C99.5690865,90.3567212 99.5379581,90.3149474 99.5066304,90.2746416 L99.5066304,90.2746416 Z M111.953329,69.9860326 C111.387392,71.4567428 110.743696,72.9206515 110.1,74.3 C110.3,73.5 110.5,72.7 110.7,71.9 C110.7,71.1 110.6,72.9 110.7,71.9 C111.1,71.2 111.6,70.4 112.1,69.6 C112.066573,69.6891391 112.032835,69.7782781 111.998805,69.8673999 C111.995945,69.9192427 111.986243,69.9642432 111.953329,69.9860326 L111.953329,69.9860326 Z M108.625761,51.335392 C108.256445,49.9207939 107.843596,49.1455053 107.4,49.7 C107.7,49.3 109.8,49.5 110.1,50.9 C110.6,50.5 110.8,50.1 110.9,49.5 C112.2,50.5 112.3,51.9 111.4,53.9 C112.7,51.5 114.9,52.7 115.6,53.7 C115.7,53.7 115.5,53.6 115.6,53.7 C116.1,54.3 116.3,54.9 116.4,55.7 C116.049166,55.5061181 115.761409,55.3642317 115.525789,55.267573 C115.929172,56.2583633 116.480299,56.1477544 116.3,57.5 C115.188965,57.2222412 115.192318,56.4301491 115.357656,55.2030909 C113.345206,54.4910635 115.864888,57.7733337 113.3,59.1 C111.52616,57.6996 113.151595,57.5194525 113.131153,60.1056526 C113.153322,60.1173167 113.144077,60.146087 113.130061,60.1830829 C113.126788,60.344836 113.117154,60.5170232 113.1,60.7 C112.764453,60.7 112.327574,60.3059293 111.902702,60.0089248 C112.20595,61.0017958 113.198808,61.3032792 112.8,62.4 C111.702344,62.4997869 111.899154,61.1059593 111.899997,60.0070355 C111.105279,59.4521996 110.353421,59.2407004 110.38642,62.587861 C110.731091,62.6931754 111.121017,62.8169096 111.540406,62.9451612 C111.518455,62.6149369 111.54296,62.2278036 111.6,61.8 C111.786075,62.4202496 112.356859,62.8481443 112.66809,63.2745771 C112.83218,63.3196477 112.998321,63.3637767 113.165789,63.4063254 C113.258743,63.0132497 113.447978,62.685466 113.719286,62.4158709 C113.567005,62.491611 113.395271,62.5216968 113.2,62.5 C113.197571,62.463566 113.195673,62.4283119 113.194295,62.3941818 C113.10122,62.2973518 113.101907,62.2005218 113.196354,62.1036918 C113.262143,61.0814364 113.990635,61.3590123 114.8,60.1 C114.619524,61.0023823 114.402856,61.7238104 114.06291,62.1336525 C114.251369,62.0049418 114.464602,61.8941591 114.7,61.8 C114.5,62 114.5,62 114.7,61.8 C114.7,62.6213253 114.465772,63.2084231 113.965255,63.5933562 C116.318419,64.0917795 118.706462,64.0935004 119.2,61.9 C119.1,62.4 119.3,61.5 119.2,61.9 C118.9,63.6 116.9,66.9 115.7,67.9 C115.9,66.9 115.6,66.5 115.1,66.8 C115.3,67.7 115.3,68.5 114.8,69.3 C114.1,68.6 114.1,67.7 115,66.8 C114.790585,66.8523537 112.635126,67.8640251 110.772169,68.8161883 C110.616169,69.1293036 110.402997,69.4256201 110.197758,69.6017393 C110.759813,69.253051 111.313078,68.8869219 111.7,68.5 C111,69.7 108.4,72.8 108,71.6 C107.810454,71.0313607 108.858422,70.4228016 109.958462,69.7491004 C109.859852,69.7820057 109.770585,69.7705845 109.7,69.7 C109.623519,69.6043982 109.587252,69.519764 109.585608,69.4377092 C108.476572,70.0366058 107.741223,70.5 108.1,70.5 C107.6,69.6 108,68.9 109.2,68.3 C103.8,70.2 109.5,69.8 107.6,71.9 C107.2,72.2 109.3,62.6 109.3,62.3 C109.54178,62.3402966 109.880988,62.4347204 110.289271,62.5583094 C110.132738,61.3478404 109.850927,58.6147423 109.473524,55.9619154 C108.509344,56.2379049 107.495799,52.195799 107.4,52.1 C107,51.8 107.8,52.4 107.4,52.1 C106.751076,51.7106455 108.333995,53.0899219 109.224838,54.3249836 C109.074,53.4006785 108.911411,52.5309271 108.738486,51.7921206 C108.579788,51.4595333 108.515711,51.2614208 108.625761,51.335392 L108.625761,51.335392 Z M118.314349,60.0185784 C117.646017,61.6095767 117.310698,63.2756448 116.3,63 C115.9,61.7 117.5,61.4 118.5,59.6 C118.457565,59.6901747 118.416537,59.7811934 118.376721,59.8726682 C118.412167,59.8071189 118.456084,59.7439163 118.5,59.7 C118.5,59.8 118.4,59.9 118.3,60.1 C118.3,60.0772501 118.305176,60.0493246 118.314349,60.0185784 L118.314349,60.0185784 Z M118.82507,57.676488 C118.321854,59.4797643 117.551453,61.1951453 116.6,61.1 C116.2,60 117.5,59.9 118.9,57.4 C118.875727,57.4922389 118.850746,57.5844779 118.82507,57.676488 C118.850047,57.6499533 118.875023,57.6249766 118.9,57.6 C118.875023,57.6249766 118.850047,57.6499533 118.82507,57.676488 L118.82507,57.676488 Z M116.6,57.3432665 L116.6,57.3 L116.6,57.3432665 C116.595005,57.4268554 116.594845,57.5123647 116.6,57.6 C118,57.7 118.8,54.6 118.8,53.4 C118.42062,54.9175197 116.691904,55.8053495 116.6,57.3432665 L116.6,57.3432665 Z M113.219577,60.4873872 C113.209325,59.4953489 114.153983,59.0840696 114.5,57.7 C114.5,58.9 114.7,60.8 113.3,61 C113.253933,60.8387658 113.229088,60.6921215 113.221798,60.556401 C113.209094,60.5115333 113.2,60.4603139 113.2,60.4 C113.2,60.4283681 113.208047,60.4567362 113.219577,60.4873872 L113.219577,60.4873872 Z M112.790136,77.0994301 C108.417894,76.4687289 104.167546,73.2633439 100.4,77.3 C101.7,75.9 101.5,79.3 101.9,79.2 C102.06927,79.1682619 102.199367,79.1219738 102.3,79.0651615 L102.3,79.1 L102.3,79.0651615 C102.309114,79.0600165 102.317985,79.0547852 102.326623,79.0494705 C102.315065,79.0943088 102.306191,79.1442796 102.3,79.2 C102.2,80.3 104,79.5 104.7,78.4 C103.671115,78.7429616 102.971574,78.5683835 102.601376,78.7153388 C102.803696,78.1672787 102.385885,77.4403365 104.4,77.8 C105.735942,78.0357545 106.948373,79.4448685 108.377007,79.9405235 C107.405276,80.2885703 106.324427,81.3203556 106.9,81.8 C107.578063,82.1874646 108.349957,80.7921496 108.488561,79.9771949 C108.843661,80.0873911 109.212443,80.1387557 109.6,80.1 C111.9,79.8 113.3,77.4 114.3,77.2 C113.860967,77.2089599 113.422737,77.1809914 112.98567,77.1258769 C113.363885,77.0383156 113.98733,76.3323906 114.9,75.8 C113.9,76.1 112.6,76.5 112.7,77 C112.726824,77.0447065 112.756846,77.077421 112.790137,77.0994301 L112.790136,77.0994301 Z M113.835349,72.6832067 C113.813546,72.6932272 113.8,72.7 113.8,72.7 C113.1,73.1 112.8,70.9 113.2,69.3 C113.2,70.9720023 114.650999,72.2570716 113.842531,72.6795068 C114.014177,72.6 114.1,72.6 114.1,72.6 C114.026025,72.6 113.897326,72.6547235 113.835349,72.6832067 C113.837763,72.6819809 113.840157,72.6807476 113.842531,72.6795068 L113.835349,72.6832067 Z M114.567531,71.8182072 C114.585494,71.8383319 114.6,71.8619128 114.6,71.9 C114.6,71.9 114.5,71.8 114.5,71.7 C114.5,71.7619128 114.538332,71.7854936 114.567531,71.8182072 C114.352079,71.0779014 116.445255,70.7547453 117.7,69.5 C117.2,70.6 115,72.8 114.6,71.9 C114.586075,71.8721509 114.575302,71.8449078 114.567531,71.8182072 L114.567531,71.8182072 Z M114.193323,70.7059617 C114.183542,70.6353206 114.159431,70.6 114.1,70.6 C114.1,70.6999977 114.199995,70.899991 114.2,70.9 C114.3,71.9 117,69.7 117.7,68.7 C116.575517,69.8244828 114.309507,69.8074378 114.193323,70.7059617 L114.193323,70.7059617 Z M115.025,69 L115.1,69 L115.025,69 C115.019488,69.1205428 115.1,69.2102714 115.1,69.3 C115.1,69.2 115.1,69.1 115,69 C115,69.0102714 115.001055,69.0205428 115.002948,69.0308142 L115.025,69 Z M115.174411,69.3319626 C115.15248,68.3870294 117.353433,68.2519105 118.3,67.4 C117.6,68.3 115.8,70.2 115.2,69.5 C115.18397,69.441224 115.175649,69.3853031 115.174411,69.3319626 C115.120246,69.4202461 115.2,69.5 115.2,69.5 L115.2,69.3 C115.189305,69.310695 115.180898,69.3213899 115.174411,69.3319626 L115.174411,69.3319626 Z M107.479585,73.0153002 C107.598837,72.3287731 109.701871,71.3981287 110.8,70.3 C110.3,71.5 107.9,74.2 107.5,73.2 C107.474532,73.1405751 107.468523,73.0789881 107.479585,73.0153002 C107.450338,72.9503384 107.4,72.9 107.4,72.9 C107.4,72.9 107.450338,72.9503384 107.479585,73.0153002 L107.479585,73.0153002 Z M103.469089,83.2043163 C103.427957,83.1777917 103.4,83.1528743 103.4,83.1 C103.424038,83.1240383 103.442298,83.1480765 103.457558,83.1707257 C103.240411,82.4542681 104.712151,81.3674583 105.7,80.2 C105,81.6 104.4,84.1 103.6,83.4 C103.538537,83.3385367 103.495577,83.2732185 103.469089,83.2043163 L103.469089,83.2043163 Z M108.6,81.35 L108.6,81.3 C108.6,81.3 108.6,81.3 108.6,81.3125 C108.5,82.5 111.3,81.3 112,80.3 C110.6,80.7 108.7,80.5 108.6,81.4 L108.6,81.35 Z M101.072084,80.6 L101.1,80.6 L101.072084,80.6 C101.398999,80.2341846 100.643514,79.1259454 101,77.7 C100.1,78.5 100,80.9 100.9,80.7 C100.976149,80.6782432 101.03218,80.6446524 101.072084,80.6 L101.072084,80.6 Z M101.3,80.3 L101.3,80.4 L101.3,80.3 C101.308667,80.4377949 101.303569,80.4678784 101.3,80.5 C101.2,81.6 103.5,80.6 104.2,79.8 C102.753536,80.2821547 101.493051,79.6484384 101.315248,80.4096222 L101.3,80.3 Z M107.63012,46.7301198 C107.163227,46.088421 107.96524,44.9609611 107.6,43.5 C108.5,44.6 109,46.8 107.8,46.9 C107.7,46.9 107.7,46.8 107.6,46.7 C107.6,46.7 107.611307,46.7113073 107.63012,46.7301198 L107.63012,46.7301198 Z M107.074883,46.958349 C105.649294,47.0205247 105.374647,45.5492945 105.1,45 C105.8,45.6 107.5,45.8 107.5,46.9 C107.390127,46.9244163 107.285842,46.941008 107.186806,46.950503 C107.058206,47 106.979103,47 106.9,47 C106.944411,47 107.008545,46.9802769 107.074883,46.958349 L107.074883,46.958349 Z M106.6,45.0995952 L106.6,44.9 L106.6,45.0995952 C106.507379,43.9756127 104.81938,43.7355042 103.4,42.6 C104.5,44.2 105.1,45.5 106.6,45.3 C106.605375,45.2301295 106.605261,45.1634366 106.6,45.0995952 L106.6,45.0995952 Z M112.244442,48.3008805 C112.266667,48.3900333 112.28524,48.4892977 112.3,48.6 C111.6,49 110.4,48.4 110,47.1 C111.057715,47.6288573 111.882354,47.2254144 112.2,48.1495012 L112.2,48.1 C112.2,48.1669602 112.244837,48.2339203 112.244442,48.3008805 L112.244442,48.3008805 Z M112.630533,48.6305328 L112.6,48.6 C112.6,48.6 112.6,48.7 112.7,48.7 C113.7,48.8 113.3,45.4 113.3,42.3 C112.813641,45.2181545 111.854192,47.7578368 112.630533,48.6305328 L112.630533,48.6305328 Z M111.3,46.4376706 C111.344555,46.5410826 111.378584,46.6607949 111.4,46.8 C110.5,47.1 109.3,46.5 109.2,45.4 C109.825043,45.8464596 110.92847,45.575345 111.3,46.4376706 L111.3,46.4 L111.3,46.4376706 L111.3,46.4376706 Z M109.9,43.6595238 L109.9,43.4 C109.8,43.5 109.8,43.7 109.9,43.7 L109.9,43.6595238 C109.889844,44.3160156 110.43125,44.40625 110.5,45.3 C109,45.4 108.5,44.3 108.4,43.7 C108.68125,43.91875 108.982031,44.0300781 109.265723,44.1194336 L109.9,43.6595238 Z M82.7998559,77.6935201 C83.8207137,79.2078477 84.7426394,80.8157355 85.4,82.6 C83.8,81.5 83.3,79.1 82.6,77.4 C82.6374352,77.4544512 82.6747546,77.5090183 82.7119503,77.5637051 C82.7046524,77.5431391 82.7,77.5215695 82.7,77.5 C82.7,77.597792 82.7956327,77.5999512 82.7998559,77.6935201 L82.7998559,77.6935201 Z M68.5790584,69.9151476 C69.6601982,71.2538811 70.2102067,72.6918599 70.4,74.4 C69.8,74.2 70,73.7 70.4,74.4 C69.7,72.8 69,71.3 68.4,69.7 C68.4338163,69.7394523 68.4671561,69.7789841 68.5000239,69.8185997 C68.5,69.8124158 68.5,69.8062079 68.5,69.8 C68.5406159,69.8406159 68.5647353,69.8812319 68.5790584,69.9151476 L68.5790584,69.9151476 Z M64.5730546,62.7339539 C64.5178338,62.7263153 64.4601742,62.7150435 64.4,62.7 C63.9,61.8 65.3,61.5 65.6,60.2 C65.7859981,61.6879846 65.6260433,62.8300164 64.6375365,62.7413301 C64.6537743,62.7537743 64.673331,62.773331 64.7,62.8 L64.5,62.8 C64.5327239,62.7672761 64.5547392,62.7452608 64.5730546,62.7339539 L64.5730546,62.7339539 Z M62.0817406,59.8030318 C62.054922,59.7349923 62.0276958,59.6672613 62,59.6 C63,61.4 64.6,61.7 64.2,63 C63.143522,63.2881304 62.7327482,61.4546615 62.0817406,59.8030318 C62.0559535,59.7637805 62.0279768,59.7279768 62,59.7 C62.0279768,59.7279768 62.0559535,59.7637805 62.0817406,59.8030318 L62.0817406,59.8030318 Z M61.8976938,57.8976937 C63.1893275,59.9192553 64.3644792,60.0781458 63.9,61.1 C62.934602,61.1965398 62.1556026,59.429093 61.6529764,57.5971485 C61.6353176,57.5675169 61.6176588,57.5353176 61.6,57.5 C61.6126887,57.5126887 61.6253774,57.5269874 61.638066,57.5424875 C61.6251908,57.4950125 61.6125016,57.4475063 61.6,57.4 C61.6994476,57.577585 61.7988952,57.74306 61.8976618,57.8976436 C61.8984412,57.8984351 61.8992206,57.8992206 61.9,57.9 C61.8992313,57.8992313 61.8984625,57.8984625 61.8976938,57.8976937 L61.8976938,57.8976937 Z M65.1382619,55.172942 C66.7306113,54.5207891 65.0941826,56.4786579 65.9961961,58.0548031 C65.9765416,59.2420379 65.9315433,60.8187919 67.2,61 C67.4493562,59.8363379 66.7314913,59.4326352 66.252318,58.4107061 C66.439456,58.6221751 66.6859005,58.8214732 67.0078233,59.0002113 C67.0052847,59.0000717 67.0026782,59 67,59 C67.1,59.1 67.2,59.1 67.2,59.1 C67.1496405,59.1 67.1246418,59.0746392 67.0994608,59.0494608 C67.1322367,59.0665128 67.1657448,59.0833617 67.2,59.1 C69.1,57.6 67.1,57.5 67.4,60.7 C68.3666377,60.6033362 70.1742251,57.4231905 70.1131166,62.6303951 C69.7075736,62.8481746 69.3027984,63.1134183 68.8890163,63.3732703 C68.9979957,62.9629479 68.9858426,62.3867412 68.9,61.7 C68.6,62.8 67.3,63.2 67.7,64 C67.7207556,64.0051889 67.7412121,64.0099889 67.7613725,64.0144036 C66.1252575,64.7954952 64.2419796,64.8460604 61.6,61.4 C61.9,61.8 61.9,61.8 61.6,61.4 C61.9,63.3 63,66.4 64.7,67.7 C64.6,66.7 64.8,66.4 65.3,66.6 C65,67.5 65.1,68.4 65.6,69.1 C66.4,68.4 66.3,67.5 65.4,66.6 C67.4,67.3 69.4,67.6 71.2,68.2 C71.2,69.6 71.1,68.2 71.2,68.2 C70.9,69.4 71.3,70.1 72.4,70.4 C72.9,69.5 72.5,68.8 71.2,68.2 C76.5831422,70.0596309 71.2371584,69.7159592 72.7890051,71.6694844 C72.7612518,71.6518723 72.7306259,71.6306259 72.7,71.6 L72.9,71.8 C73.6,72.3 71.2,61.7 71.2,62.2 C71.0348964,62.2366897 70.8712884,62.2883364 70.7085589,62.3516019 C72.6529386,59.1434407 68.9384076,58.092739 69.4,54.4 C69.5,53.2 73.4,50.1 73.1,49.7 C72.7,49.2 70.8,49.4 70.4,50.9 C70,50.6 69.7,50.1 69.6,49.5 C68.3,50.5 68.2,52 69.1,53.9 C67.7,51.4 64.9,52.9 64.8,53.8 C64.3,54.4 64.8,53.8 64.8,53.8 C64.6,54.4 64.4,55.1 64.1,55.7 C64.4614097,55.4961279 64.7524013,55.3446399 64.9857077,55.238931 C64.5814042,56.2606055 64.0179816,56.1348617 64.2,57.5 C65.3201085,57.2199729 65.3075531,56.4171778 65.1382619,55.172942 L65.1382619,55.172942 Z M63.9,57.0561522 L63.9,56.9 C63.9911732,56.9 63.9160954,56.9831255 63.9021311,57.0735884 C63.9181774,57.2105465 63.9184637,57.3522903 63.9,57.5 C62.5,57.7 61.7,54.6 61.7,53.3 C62.0615032,54.8363885 63.7298518,55.7193543 63.9,57.0561522 L63.9,57.0561522 Z M63.6993864,54.0255854 C63.6329243,53.9887521 63.5664621,53.9664621 63.5,53.9 C63.5645032,53.9645032 63.670613,54.0290064 63.7378166,54.066672 C63.7859415,54.1153235 63.8398434,54.1598956 63.9,54.2 C64.6,53.4 64,52 63.8,50.7 C63.5255707,51.8891936 63.0837827,53.3294254 63.6993864,54.0255854 L63.6993864,54.0255854 Z M67.3060103,62.3938642 C67.304612,62.4280563 67.3026133,62.4634135 67.3,62.5 C66.4,62.6 66,61.6 65.7,60.1 C66.5018911,61.3473861 67.2243958,61.1658183 67.3016547,62.101664 C67.3979744,62.1990641 67.3994262,62.2964641 67.3060103,62.3938642 L67.3060103,62.3938642 Z M66.5079475,72.5653478 C66.0661909,72.0545788 67.3,70.8417973 67.3,69.3 C67.7,70.9 67.4,73.1 66.7,72.7 C66.6334337,72.670415 66.5799965,72.6359066 66.5381105,72.596677 C66.4460368,72.5896641 66.4,72.5678504 66.4,72.5 C66.4297612,72.5297612 66.4683798,72.5506652 66.5079475,72.5653478 L66.5079475,72.5653478 Z M69.2068178,76.3556568 C69.2320723,75.9341044 68.1615654,75.4378646 67.134658,75.0497977 C67.4052177,75.0942003 67.6092404,75.0268991 67.7,74.8 C67.9,73.8 65.5,73.9 63.9,72.6 C64.3976828,73.2843138 65.5919883,74.3556403 66.5198691,74.8268555 C65.8631731,74.5972321 65.3355227,74.4355227 65.3,74.4 C66.2,76.1 67.5,76.8 69.2,76.4 C69.3,76.3 68.8,77.9 69.2,76.4 C69.4,75.8 69.1,73.8 69,72.8 C70.5701702,75.1552552 69.3474655,75.5843899 69.2068178,76.3556568 L69.2068178,76.3556568 Z M65.9246121,71.8067916 C65.9200729,71.8371326 65.911936,71.8681705 65.9,71.9 C65.5,72.8 63.3,70.7 62.8,69.5 C64.0482771,70.7482771 66.0341617,71.0745449 65.9246121,71.8067916 C65.9,71.8607265 65.9,71.9 65.9,71.9 C66,71.9 66,71.8 66,71.7 C65.9626686,71.7373314 65.9392735,71.7746628 65.9246121,71.8067916 L65.9246121,71.8067916 Z M65.3256998,69.3258692 C65.3991047,69.4008953 65.3905381,69.4094619 65.3,69.5 C64.8,70.2 62.9,68.3 62.2,67.4 C63.1445289,68.250076 65.3380464,68.3864441 65.3256998,69.3258692 L65.3256998,69.3258692 Z M70.5631821,69.7623516 C71.6552753,70.4307849 72.6883029,71.0350913 72.5,71.6 C72.1,72.8 69.5,69.7 68.8,68.5 C69.1685593,68.8685593 69.6880476,69.2182526 70.2222962,69.5519769 C69.8280201,69.1804317 69.4355498,68.4156012 69.5,67.9 C70.5,69 71.3,69.2 70.8,69.7 C70.7346169,69.7653831 70.6532028,69.782673 70.5631821,69.7623514 L70.5631821,69.7623516 Z M73.025681,73.0706763 C73.0262932,73.1148515 73.0180143,73.1579666 73,73.2 C72.6,74.2 70.2,71.5 69.7,70.3 C70.7981287,71.3981287 72.9011628,72.3287731 73.0204146,73.0153002 C73.0496616,72.9503384 73.1,72.9 73.1,72.9 C73.1,72.9668506 73.0553099,73.0337013 73.025681,73.0706763 L73.025681,73.0706763 Z M73.5,73.4 C73.5,73.4 73.3,73.3 73.2,73.2 C73.2,73.3 73.3,73.3 73.5,73.4 C72.8,73 74.2,72.2 74.1,70.8 C74.7,72.1 74.4,73.7 73.5,73.4 L73.5,73.4 Z M77.0424423,83.1707257 C77.0577019,83.1480765 77.0759617,83.1240383 77.1,83.1 C77.1,83.1528743 77.072043,83.1777917 77.0309112,83.2043163 C77.0044234,83.2732185 76.9614633,83.3385367 76.9,83.4 C76.1,84.1 75.5,81.6 74.8,80.2 C75.7878493,81.3674583 77.2595893,82.4542681 77.0424423,83.1707257 L77.0424423,83.1707257 Z M75.204794,82.695206 C75.2247252,82.6752748 75.3,82.6 75.3,82.6 L75.2,82.7 L75.2002869,82.6997131 C75.2001912,82.6998087 75.2000956,82.6999044 75.2,82.7 C74.3,83.3 74.4,81.5 73.6,80.2 C74.697045,81.297045 75.79409,82.0956997 75.2047987,82.6951602 L75.204794,82.695206 Z M72.1120931,79.9370445 C74.8233101,79.5229475 75.8558022,79.2307399 76.4655831,79.0867717 C77.2655297,79.7202045 78.2755907,80.0314979 78.2,79.2 C78.1964114,79.1677023 78.1919212,79.1374651 78.1865296,79.1091544 C78.3369634,79.1352061 78.5065481,79.165455 78.7,79.2 C79.1,79.3 78.9,75.9 80.2,77.3 C76.4,73.2 67.7,79.6 66.1,77.4 C67.1,79.6 68.7,80.5 71,80.1 C73.7,79.7 68.4,80.4 71,80.1 C71.3593967,80.0493807 71.694964,80.0002989 72.0085565,79.9527933 C72.1389718,80.6768725 72.9170762,82.1902422 73.6,81.8 C73.5999998,81.8000002 73.6,81.8 73.6,81.8 C73.5,81.9 73.4,81.9 73.4,81.9 C73.4998732,81.9 73.5997465,81.8002534 73.5999995,81.8000005 L72.1120931,79.9370445 Z M71.9,81.4 L71.9,81.3 L71.9,81.4 C72,82.5 69.1,81.3 68.5,80.3 C70,80.8 71.8,80.5 71.9,81.4 L71.9,81.4 Z M79.4279159,80.6 C79.1010006,80.2341846 79.8564864,79.1259454 79.5,77.7 C80.4,78.5 80.5,80.9 79.6,80.7 C79.5238511,80.6782432 79.46782,80.6446524 79.4279159,80.6 L79.4,80.6 L79.4279159,80.6 L79.4279159,80.6 Z M74.3844625,46.7141855 C74.1340479,46.8774438 73.8205323,46.9757745 73.4248178,46.9582501 C73.4912627,46.9802176 73.5555225,47 73.6,47 C73.5208261,47 73.4416521,47 73.3128479,46.9503697 C73.2135536,46.9408531 73.1093607,46.9243024 73,46.9 C72.9,45.8 74.6,45.6 75.4,45 C75.2680978,45.3957066 75.0492046,46.2698635 74.3990915,46.7045267 C74.0973848,48.2026135 72.7992957,49.4989939 72.1,48.5 C72.2991359,47.6038886 73.1922359,47.7982923 74.3844625,46.7141855 L74.3844625,46.7141855 Z M72.7304938,46.872309 C72.7206327,46.881608 72.7104705,46.8908383 72.7,46.9 C71.5,46.8 72,44.6 72.9,43.5 C72.5185875,45.0256499 73.4100855,46.096689 72.8001857,46.7998143 C72.8574897,46.7425103 72.9,46.7 72.9,46.7 C72.9,46.7898 72.8193595,46.7989596 72.7304938,46.872309 L72.7304938,46.872309 Z M73.4742087,45.0303573 C73.4504407,45.0536445 73.4257163,45.0768553 73.4,45.1 C72.6,44 73.4,42.6 74,41.5 C73.9025716,43.1562822 74.3746805,44.1481044 73.4742087,45.0303573 C73.4512269,45.0505275 73.4264906,45.0735094 73.4,45.1 C73.4,45.1 73.6,44.9 73.7,44.8 C73.7,44.8867547 73.6247362,44.8982456 73.4742087,45.0303573 L73.4742087,45.0303573 Z M72.3999971,39.3913806 C72.399928,39.3263308 72.3981859,39.3673339 72.354316,39.4334798 C72.3293322,39.4565738 72.3046394,39.479517 72.2802429,39.5023188 C72.2547054,39.5074124 72.212308,39.523695 72.2022081,39.5757453 C71.2947487,40.4357125 70.8283175,41.103831 71.1,42.1 C72,42.3 72.6,41.2 72.5,39.3 C72.4661895,39.3307369 72.4328513,39.3611903 72.3999971,39.3913806 L72.3999971,39.3913806 Z M94.7324397,54.9 C97.3266401,54.4994524 99.5441817,53.7595001 100.7,52.7 C97.2464881,52.9302341 94.8531313,51.7469282 91.847503,51.1841144 C92.2975611,51.0959461 92.7811838,50.9692979 93.3,50.8 C96.7,48.9 91.9,42.6 90.2,42.8 C87.0752843,42.7237874 84.9960728,49.2110185 88.3890645,50.9293442 C85.2246413,51.2033242 83.5004312,53.0800431 79.7,52.7 C80.7793341,53.7793341 82.8476972,54.5068021 85.2980261,54.9 L81.5,54.9 C83.319914,55.1373801 85.7659313,55.1869292 88.0949297,55.1972717 C88.470343,55.2188639 88.8489945,55.2338657 89.2291543,55.2423272 C83.951668,56.017804 83.4413216,67.0471072 86.9,68.2 L86.9,69.7 C84,68.1 81.3,68.1 79.9,71.7 C80.685665,71.8993478 81.3819504,72.0010656 82.0056257,72.0311139 C79.8344395,72.4435089 77.9721877,73.2013084 76.7,74.5 L103.6,74.5 C102.8,73.8 102,73.1 101.2,72.4 C97.0809275,72.4 90.2712686,71.2755758 84.6137116,71.6987955 C87.1108961,70.8947709 88.08851,69.1313747 90.9,71.6 C90.7,71 90.4,70.4 90.2,69.8 C91.7,70.7 93.7,70.8 95.2,71.6 C94.7,71 94.2,70.4 93.6,69.8 C96.1,70.2 95.3,70.2 94.9,69 C93.5,64.5 91.1,59.9 85.3,60.6 C86.6,52.7 95.7,55.2 95.2,62.2 C95.866946,59.81805 94.8090915,55.6205206 91.1615127,55.229417 C91.3536269,55.2225947 91.5453798,55.2141252 91.7365484,55.2040149 C94.2263977,55.2179192 97.1116259,55.2458042 99.1,54.9 L94.7324397,54.9 L94.7324397,54.9 Z M99.1,68.8 C98.4,68.9 96.4,68.4 96.4,69.3 L96.4,68.8 C96.4,71.9 95.6,72.9 100.5,71.7 C100.1,70.7 99.6,69.7 99.1,68.8 L99.1,68.8 Z M86.9,50.6 L86.8,50.5 C86.8,50.6 86.8,50.6 86.9,50.6 L86.9,50.6 Z M87,50.7 C86.9,50.7 86.9,50.6 86.9,50.6 C86.9,50.7 87,50.7 87,50.7 L87,50.7 Z M86.8,50.5 C86.7,50.5 86.7,50.5 86.8,50.5 C86.7,50.5 86.7,50.5 86.8,50.5 L86.8,50.5 Z M87.1,50.8 C87.1,50.8 87.1,50.7 87.1,50.8 C87,50.7 87.1,50.7 87.1,50.8 L87.1,50.8 Z M91.6,69.8 C92.5,67.7 92,68.8 91.6,69.8 L91.6,69.8 Z M95.5,65.9 C95.4,64.9 95.6,64.1 95.2,63.5 C95,64.3 95.4,65.6 95.5,65.9 L95.5,65.9 Z M78.5,59.1 C79.5,61.8 81.9,64.8 82.8,66 C82.1,65 85.8,63.6 81.5,63.7 C81.1,62.9 76.8,53.6 76.1,53.6 C74.4,53.6 72.2,63.5 74.8,66.2 C73.6,65.2 77.6,60 78.5,59.1 L78.5,59.1 Z M83.9,46.2 C82.6,46.4 82,45.7 81.6,46.8 C82.9,47.1 83.5,46.3 83.9,46.2 L83.9,46.2 Z M81.6,51.9 C86.9,50.7 81,42.8 81.6,51.9 L81.6,51.9 Z M81.4,45.6 L83.9,45.6 C83.9,44.7 83.5,44 82.6,43.7 C81.9,44 81.5,44.7 81.4,45.6 L81.4,45.6 Z M81.4,45.5 L81.4,45.4 L81.4,45.5 L81.4,45.5 Z M81.4,45.6 C81.4,45.6 81.4,45.5 81.4,45.6 C81.4,45.5 81.4,45.5 81.4,45.6 L81.4,45.6 Z M81.4,45.4 C81.4,45.2 81.4,45 81.4,45.4 L81.4,45.4 Z M81.4,55.7 C81.7,62.7 86.5,57.4 81.4,55.7 L81.4,55.7 Z M84.1,61.6 C82.7,62 81.9,60.8 81.6,62.4 C83.4,62.9 83.5,61.8 84.1,61.6 L84.1,61.6 Z M81.4,68.2 L84.2,68.2 L84.2,66.6 C81.1,65.7 82.2,67.7 81.4,68.2 L81.4,68.2 Z M81.7,60.9 C83.2,60.4 83.5,61.6 84.4,60.1 C82.3,59.7 81.7,60.9 81.7,60.9 L81.7,60.9 Z M86.2,56 C85.1,56.7 84,55.6 84.6,58.1 C85.2,57.4 85.7,56.7 86.2,56 L86.2,56 Z M84.8,57.8 C84.9,57.6 84.9,57.7 84.8,57.8 L84.8,57.8 Z M72,39.7 C72,39.8 72,39.8 72,39.7 L72,39.7 Z M70.4,43.5 C71.1,42.7 70.7,40 70.5,38.2 C70.2,39.6 69.6,43.1 70.4,43.5 L70.4,43.5 Z M70.4,43.5 C70.4,43.4 70.4,43.5 70.4,43.5 L70.4,43.5 Z M70.7,43.2 C70.7,43.1 70.7,43.1 70.7,43.2 L70.7,43.2 Z M70.6,43.3 L70.6,43.4 L70.6,43.3 L70.6,43.3 Z M70.6,43.4 L70.6,43.7 C70.7,43.6 70.7,43.5 70.6,43.4 L70.6,43.4 Z M73.6,40.7 C72.4,42.4 70.6,42.4 70.7,43.6 C72.1,44.2 73.2,42.6 73.6,40.7 L73.6,40.7 Z M70.6,43.3 C70.6,42.9 70.7,43.7 70.6,43.3 C70.6,43.2 70.6,43.2 70.6,43.3 L70.6,43.3 Z M69.7,45.4 C69.8,45.3 69.9,45.3 69.9,45.3 C69.8,45.3 69.7,45.3 69.7,45.4 L69.7,45.4 Z M69.6,45.4 C70.4,44.9 69.6,41.5 69.4,40 C69.2,41.4 68.5,45.1 69.6,45.4 L69.6,45.4 Z M70,45.3 C71.4,45.5 71.9,44.4 72.1,43.7 C71.2,44.4 70.1,44 70,45.3 L70,45.3 Z M70,45.3 C70,45.3 71.4,45.5 70,45.3 L70,45.3 Z M68.7,47 C69.5,46.6 68.5,42.5 68.2,41.1 C68.2,42.7 67.6,46.7 68.7,47 L68.7,47 Z M68.7,47 C69.5,46.6 68.7,47 68.7,47 L68.7,47 Z M69.2,46.4 C69.2,46.2 69.3,46.1 69.2,46.4 L69.2,46.4 Z M71.3,45.4 C70.5,46 69.3,45.5 69.1,46.8 C70,47.1 71.2,46.5 71.3,45.4 L71.3,45.4 Z M68.1,48.5 C68.3,48.3 68.2,48.4 68.1,48.5 L68.1,48.5 Z M67.8,48.7 L67.9,48.6 C67.9,48.7 67.8,48.7 67.8,48.7 L67.8,48.7 Z M67.8,48.7 C68.6,47.9 67.6,45.2 67.2,42.3 C67.3,45.5 66.8,48.8 67.8,48.7 L67.8,48.7 Z M68,48.6 L68.1,48.5 L68,48.6 L68,48.6 Z M68.3,48.1 L68.3,48 C68.3,48 68.3,48 68.3,48.1 L68.3,48.1 Z M68.3,48 C68.3,47.9 68.3,47.9 68.3,48 C68.3,47.9 68.3,47.9 68.3,48 L68.3,48 Z M68.2,48.3 L68.2,48 C68.3,48.2 68.2,48.3 68.2,48.3 L68.2,48.3 Z M68.2,48.6 C68.2,48.6 68.2,48.5 68.2,48.6 L68.2,48.6 Z M68.2,48.5 L68.2,48.3 L68.2,48.5 L68.2,48.5 Z M70.5,47.1 C69.2,47.7 68.4,47.1 68.2,48.6 C68.9,48.9 70.2,48.3 70.5,47.1 L70.5,47.1 Z M74.6,43.5 C75.5,43.7 76.2,42.7 76.3,41.1 C75.1,41.8 74.3,42.5 74.6,43.5 L74.6,43.5 Z M75.9,41.3 C75.8,41.4 75.7,41.4 75.9,41.3 L75.9,41.3 Z M77,42.6 C75.5,43.7 73.8,44 73.8,45.3 C75.4,45.5 76,44.2 77,42.6 L77,42.6 Z M73.9,45.1 C73.9,45.2 73.9,45.2 73.9,45.1 C73.9,45.2 73.9,45.2 73.9,45.1 L73.9,45.1 Z M73.9,45.2 C73.9,45.2 73.9,45.3 73.9,45.2 L73.9,45.2 Z M73.9,44.8 C73.8,44.6 73.8,44.7 73.9,44.8 C73.8,44.8 73.8,44.8 73.9,44.8 L73.9,44.8 Z M73.9,44.8 C73.9,44.9 73.9,44.9 73.9,44.8 C73.9,44.9 73.9,44.9 73.9,44.8 L73.9,44.8 Z M73.6,47 L73.7,47 C73.7,47 73.7,47 73.6,47 L73.6,47 Z M73,46.7 C73,46.6 73.1,46.6 73,46.7 L73,46.7 Z M71.8,45.2 C71.3,46.3 70.4,48 71.8,48.7 C72.7,47.6 71.6,46.6 71.8,45.2 L71.8,45.2 Z M66.4,77.3 C66.6,77.3 66.9,77.4 66.4,77.3 L66.4,77.3 Z M69.4,54.1 C69.3,54.3 69.3,54.3 69.4,54.1 L69.4,54.1 Z M69.4,54 C69.4,53.9 69.4,54 69.4,54 L69.4,54 Z M69.7,64.1 C69.6,64.1 69.6,64.1 69.7,64.1 L69.7,64.1 Z M80.6,82.1 L80.5,82.1 C80.5,82 80.5,82.1 80.6,82.1 L80.6,82.1 Z M80.7,82.1 C80.7,82.1 80.6,82.1 80.7,82.1 L80.7,82.1 Z M81.3,81.4 C83,81.5 80.7,80.6 81.9,80.4 C81.1,81.5 80.7,81 80.6,79 C80.2,77.4 80.8,84.6 81.3,81.4 C81.3,81.4 81.3,81.9 81.3,81.4 L81.3,81.4 Z M80.5,82 C80.4,82 80.4,82 80.5,82 C80.4,82 80.4,82 80.5,82 L80.5,82 Z M80.3,81.9 C80.3,81.8 80.3,81.9 80.3,81.9 L80.3,81.9 Z M80.3,82.1 C80.2,81.2 78.6,81.8 77.1,81.1 C77.8,81.9 80.4,83.2 80.3,82.1 L80.3,82.1 Z M80.3,82.1 L80.3,81.9 L80.3,82.1 L80.3,82.1 Z M80.3,81.8 C80.3,81.6 80.3,81.7 80.3,81.8 L80.3,81.8 Z M79.2,80.4 L79.2,80.2 L79.2,80.4 L79.2,80.4 Z M79.2,80.5 C79.1,79.6 77.8,80.3 76.3,79.8 C77,80.6 79.3,81.6 79.2,80.5 L79.2,80.5 Z M79.2,80.2 C79.2,80.1 79.2,80.1 79.2,80.2 L79.2,80.2 Z M79.6,80.7 C79.6,80.7 79.6,80.6 79.6,80.7 L79.6,80.7 Z M79.6,80.6 C79.6,80.6 79.5,80.6 79.6,80.6 C79.5,80.6 79.6,80.6 79.6,80.6 L79.6,80.6 Z M79.4,80.6 C79.3,80.6 79.3,80.6 79.4,80.6 L79.4,80.6 Z M78.6,79.2 C78.4,79.2 78.3,79.1 78.6,79.2 L78.6,79.2 Z M78.2,79.1 C78.2,79.2 78.2,79.2 78.2,79.1 C78.2,79.2 78.2,79.2 78.2,79.1 L78.2,79.1 Z M78.2,78.9 C78.2,78.8 78.2,78.8 78.2,78.9 L78.2,78.9 Z M77.7,78.4 C77.1,78.8 77.7,78.4 77.7,78.4 L77.7,78.4 Z M71.9,81.2 C71.8,80.8 71.8,81 71.9,81.2 L71.9,81.2 Z M73.4,82 C73.4,82 73.3,82 73.4,82 C73.3,82 73.4,82 73.4,82 L73.4,82 Z M73.8,82.3 C73.8,82.3 73.7,82.3 73.8,82.3 C73.7,82.3 73.8,82.3 73.8,82.3 L73.8,82.3 Z M73.8,82.6 L73.8,82.3 L73.8,82.6 L73.8,82.6 Z M73.7,82.3 C73.7,82.2 73.7,82.2 73.7,82.3 L73.7,82.3 Z M73.8,82.6 C73.7,81.8 72.6,82.6 70,82.1 C70.7,83 73.8,83.6 73.8,82.6 L73.8,82.6 Z M75.2,83.2 C75,82.6 73.2,83.3 71.5,83.4 C72.6,83.9 75.6,84.2 75.2,83.2 L75.2,83.2 Z M75.2,83.1 C75.2,83 75.1,83 75.1,82.9 C75.1,83 75.2,83.1 75.2,83.1 L75.2,83.1 Z M76.6,83.9 C76.3,83.1 74.6,84.2 72.8,84.2 C74.2,84.7 76.9,84.7 76.6,83.9 L76.6,83.9 Z M76.5,83.6 C76.5,83.5 76.5,83.6 76.5,83.6 L76.5,83.6 Z M76.5,83.7 C76.5,83.6 76.5,83.6 76.5,83.7 C76.5,83.6 76.5,83.6 76.5,83.7 L76.5,83.7 Z M75.4,82.6 C75.5,82.5 75.6,82.3 75.4,82.6 L75.4,82.6 Z M76.9,83.3 C76.9,83.3 76.9,83.4 76.9,83.3 L76.9,83.3 Z M79.1,83.9 C79.1,83.8 79.2,83.8 79.2,83.8 C79.2,83.8 79.2,83.8 79.1,83.9 L79.1,83.9 Z M79.2,83.8 C79.3,83.7 79.3,83.7 79.2,83.8 L79.2,83.8 Z M79,84 C78.3,82.4 77.2,81 75.8,80 C76.3,81.2 78.2,85.1 79,84 C79.5,83.4 78.9,84.2 79,84 L79,84 Z M79.1,84 C79.1,84 79.1,83.9 79.1,84 C79.1,83.9 79.1,83.9 79.1,84 L79.1,84 Z M72.7,71.6 C72.6,71.5 72.6,71.4 72.7,71.6 L72.7,71.6 Z M72.8,71.6 C72.8,71.6 72.7,71.6 72.8,71.6 C72.7,71.6 72.8,71.6 72.8,71.6 L72.8,71.6 Z M74.1,74.6 C74.1,74.7 74.2,74.7 74.1,74.6 C74.1,74.7 74.1,74.7 74.1,74.6 L74.1,74.6 Z M74.1,74.6 C73.8,74.4 73.9,74.5 74.1,74.6 C74,74.6 74,74.6 74.1,74.6 L74.1,74.6 Z M74.7,72.3 C74.8,73.8 73.5,74.3 74.2,74.7 C75,75.1 75.3,73.5 74.7,72.3 L74.7,72.3 Z M73.8,74.8 C73.8,74.8 73.9,74.7 73.8,74.8 C73.9,74.7 73.9,74.8 73.8,74.8 L73.8,74.8 Z M73.8,74.8 C74,74 72.4,74.1 71.3,72.8 C71.6,73.9 73.5,75.8 73.8,74.8 L73.8,74.8 Z M73.9,74.5 C73.9,74.4 74,74.4 73.9,74.5 L73.9,74.5 Z M73,73.2 C73,73.1 73,73.2 73,73.2 L73,73.2 Z M73.1,72.9 C73.1,72.9 73.1,72.8 73.1,72.9 L73.1,72.9 Z M72.5,71.5 C72.7,71 72.6,71.4 72.5,71.5 L72.5,71.5 Z M72.1,70.5 C72.1,70.5 72,70.5 72.1,70.5 C72,70.5 72.1,70.5 72.1,70.5 L72.1,70.5 Z M72.4,70.5 L72.1,70.5 L72.4,70.5 L72.4,70.5 Z M70.8,69.7 L70.7,69.8 C70.7,69.8 70.7,69.8 70.8,69.7 L70.8,69.7 Z M70.9,69.7 C70.8,69.7 70.9,69.7 70.9,69.7 L70.9,69.7 Z M75.5,73 C75.4,74.1 74.8,74.4 75.3,74.8 C75.8,75.1 76.2,74 75.5,73 L75.5,73 Z M75.1,74.7 C75.1,74.6 75.1,74.6 75.1,74.7 L75.1,74.7 Z M64.5,67.9 C64.6,67.4 64.5,67.7 64.5,67.9 L64.5,67.9 Z M64.4,67.9 C64.6,67.2 62.1,66 61.2,64.8 C61.7,65.9 63.4,68.6 64.4,67.9 L64.4,67.9 Z M65.4,69.3 L65.4,69.1 L65.4,69.3 L65.4,69.3 Z M65.4,69.2 C65.5,69 65.5,68.9 65.4,69.2 L65.4,69.2 Z M66.3,70.9 C66.3,70.9 66.3,70.7 66.4,70.6 C66.4,70.6 66.4,70.8 66.3,70.9 L66.3,70.9 Z M62.8,68.7 C63.4,69.7 66.1,71.8 66.3,70.9 C66.5,69.8 64,69.9 62.8,68.7 L62.8,68.7 Z M66,71.7 C66.1,71.6 66.1,71.5 66,71.7 L66,71.7 Z M64.7,67.7 C64.6,67.6 64.2,67.3 64.7,67.7 L64.7,67.7 Z M64.8,67.8 C64.8,67.8 64.8,67.7 64.8,67.8 L64.8,67.8 Z M65.7,69.3 C65.7,69.3 65.1,69.1 65.7,69.3 L65.7,69.3 Z M66.4,70.5 C67.5,71.1 66.1,66.6 66.4,67.4 C66.6,68.5 66.2,70.4 66.4,70.5 L66.4,70.5 Z M66.2,73.1 C66.4,72.3 64.3,71.9 63,70.8 C63.4,71.8 65.9,74.2 66.2,73.1 L66.2,73.1 Z M66.3,73 C66.3,72.9 66.4,72.8 66.4,72.8 C66.3,72.9 66.3,73 66.3,73 L66.3,73 Z M67.7,74.8 C67.7,74.8 67.7,74.7 67.7,74.8 C67.7,74.7 67.7,74.7 67.7,74.8 L67.7,74.8 Z M66.4,72.5 C66.3,72.5 66.3,72.5 66.4,72.5 L66.4,72.5 Z M67.6,74.2 C67.5,74.2 67.5,74.1 67.6,74.2 L67.6,74.2 Z M67.9,74.4 C67.4,74 68.1,74.5 67.9,74.4 L67.9,74.4 Z M67.8,70.8 C67.7,72.3 67,73.8 68,74.5 C68.8,74.7 68.5,72.3 67.8,70.8 L67.8,70.8 Z M67.8,77 C67.9,76.5 66.7,76.1 65.6,75.8 C66.7,76.6 67.5,77.6 67.8,77 L67.8,77 Z M67.8,76.9 C67.8,76.8 67.8,76.7 67.8,76.9 L67.8,76.9 Z M67.1,59.1 C66.8,59 66.5,58.8 67.1,59.1 L67.1,59.1 Z M67.2,60.8 C67.3,60.5 67.4,59.9 67.2,60.8 L67.2,60.8 Z M67.2,60.9 C67.2,61 67.2,61 67.2,60.9 C67.2,61 67.2,61 67.2,60.9 L67.2,60.9 Z M67.4,60.3 L67.4,60.1 C67.3,60.1 67.3,60.2 67.4,60.3 L67.4,60.3 Z M67.3,62.5 C67.3,62.4 67.3,62.4 67.3,62.5 C67.3,62.4 67.3,62.4 67.3,62.5 L67.3,62.5 Z M67.4,62.1 L67.4,61.9 L67.4,62.1 L67.4,62.1 Z M67.4,61.9 C67.4,61.8 67.4,61.8 67.4,61.9 L67.4,61.9 Z M68.6,60 C68.2,61 67.3,61.3 67.7,62.4 C68.8,62.5 68.7,61.1 68.6,60 L68.6,60 Z M67.7,62.4 C67.7,62.4 67.7,62.3 67.7,62.4 C67.7,62.3 67.7,62.3 67.7,62.4 L67.7,62.4 Z M67.6,62.3 C67.6,62.2 67.5,62.1 67.5,62.1 C67.6,62.1 67.6,62.2 67.6,62.3 L67.6,62.3 Z M67.5,62 C67.5,61.9 67.5,61.9 67.5,62 L67.5,62 Z M65.8,61.8 C65.9,61.4 66,64.6 67.4,64 C67.8,62.8 66.6,62.6 65.8,61.8 L65.8,61.8 Z M66.1,62 C66.2,62.1 66.2,62.2 66.1,62 L66.1,62 Z M68.1,64.1 C68.3,64.2 68.2,64.2 68.1,64.1 L68.1,64.1 Z M63.6,54 C63.6,54 63.5,54 63.6,54 C63.5,54 63.6,54 63.6,54 L63.6,54 Z M63.9,55.7 C64.1,54.3 62.6,53.5 62.2,51.9 C62.3,53.1 62.6,55.9 63.9,55.7 L63.9,55.7 Z M63.9,55.2 C63.9,55.2 64,55.1 63.9,55.2 C64,55.1 63.9,55.2 63.9,55.2 L63.9,55.2 Z M64.1,55.3 C64.1,55.2 64.1,55.2 64.1,55.3 C64.1,55.2 64.1,55.2 64.1,55.3 L64.1,55.3 Z M64.1,55.4 L64.1,55.3 C64.1,55.3 64.1,55.3 64.1,55.4 L64.1,55.4 Z M64.1,55.7 L64.1,55.4 L64.1,55.7 L64.1,55.7 Z M64.1,57.5 L64,56.9 C64.1,56.9 64.1,57.1 64.1,57.5 L64.1,57.5 Z M63.9,59.2 C64,59 64.1,58.6 63.9,59.2 L63.9,59.2 Z M63.9,59.3 C64.2,58.3 62.4,56.6 61.4,55.3 C62.5,57.1 62.4,59.6 63.9,59.3 L63.9,59.3 Z M65.4,56.8 C65.1,57.5 63.8,58.2 64.2,59.3 C65.3,59.3 65.4,57.5 65.4,56.8 L65.4,56.8 Z M64.2,59.2 C63.9,58.4 64.1,59 64.2,59.2 L64.2,59.2 Z M64.5,60.9 L64.6,60.9 L64.5,60.9 L64.5,60.9 Z M64.2,60.8 C65.4,61 65.6,60 65.4,58.5 C65.1,59.6 63.8,60 64.2,60.8 L64.2,60.8 Z M64.7,62.8 L64.8,62.8 C64.8,62.8 64.8,62.8 64.7,62.8 L64.7,62.8 Z M66.7,51 L66.7,50.8 L66.7,51 L66.7,51 Z M66.7,50.8 L66.7,50.7 L66.7,50.8 L66.7,50.8 Z M66.7,50.7 C66.7,50.5 66.7,50.6 66.7,50.7 L66.7,50.7 Z M68,48.9 C67.1,49.1 66.7,50 66.7,51 C67.5,51.2 68.3,50.3 68,48.9 L68,48.9 Z M64.2,50.2 C64.2,50.1 64.2,50.1 64.2,50.2 L64.2,50.2 Z M64.2,50.3 C64.1,50 64.9,48.3 64.6,47.5 C64.4,47.1 64.2,50.3 64.2,50.3 C64.3,50.7 64.1,49.9 64.2,50.3 L64.2,50.3 Z M71.5,55.7 C71.7,55.1 73.8,52.3 73.2,51.6 C72.4,50.6 70.8,56.8 71.5,55.7 L71.5,55.7 Z M70.6,54.8 C70.6,54.9 70.5,54.9 70.5,54.9 C70.5,54.9 70.6,54.9 70.6,54.8 L70.6,54.8 Z M70.6,54.8 C70.6,54.7 70.7,54.7 70.6,54.8 L70.6,54.8 Z M72.1,51.7 C71.5,52.2 70.7,54.6 70.5,54.9 C70.7,53.7 71.3,52.7 72.1,51.7 C72.5,51.4 71.7,52.1 72.1,51.7 L72.1,51.7 Z M65.5,52.1 C65.4,54.9 65.9,45.2 65.4,45.7 C64.3,46.7 65.5,52 65.5,52.1 L65.5,52.1 Z M66.5,48.6 C66.3,49.6 66.6,43.9 66.5,44.4 L66.5,48.6 C66.3,49.5 66.6,47.9 66.5,48.6 L66.5,48.6 Z M66.9,48.7 C66.9,48.6 66.9,48.6 66.9,48.7 C66.9,48.6 66.9,48.6 66.9,48.7 L66.9,48.7 Z M66.9,48.6 C66.9,48.5 66.9,48.5 66.9,48.6 L66.9,48.6 Z M66.9,48.8 L66.9,48.6 L66.9,48.8 L66.9,48.8 Z M61.9,61.4 C62,61.5 61.5,59.4 61.4,59.2 C61.5,59.3 61.5,60.8 61.9,61.4 C62.2,61.7 61.7,61 61.9,61.4 L61.9,61.4 Z M61.9,61.3 C61.8,61.1 61.8,61.2 61.9,61.3 L61.9,61.3 Z M61.9,61.4 C61.9,61.4 61.9,61.3 61.9,61.4 C61.9,61.3 61.9,61.3 61.9,61.4 L61.9,61.4 Z M68.4,69.7 C68.5,69.8 68.5,69.8 68.4,69.7 L68.4,69.7 Z M68.6,70 C68.6,70.1 68.6,70.1 68.6,70 L68.6,70 Z M70,71.7 C70,72.4 70,71.9 70,71.7 L70,71.7 Z M71.7,75.8 C71.6,74.3 71.1,72.9 70,71.7 C70,72.1 70.7,75.5 71.7,75.8 C71.5,74.9 71.1,75.6 71.7,75.8 L71.7,75.8 Z M88,82.8 C88,82.3 87.3,82 86.7,81.4 C87,82.1 87.4,83 88,82.8 L88,82.8 Z M86.9,81.6 C87,81.7 87.1,81.8 86.9,81.6 L86.9,81.6 Z M90.1,82.9 C89.5,82.2 88.7,81.7 87.7,81.7 C88.1,82.1 88.1,82.1 87.7,81.7 C88.3,82.3 88.9,83 90.1,82.9 C90,82.1 89.1,83 90.1,82.9 L90.1,82.9 Z M86.6,82.7 C86.1,80.6 85.1,78.8 83.6,77.3 C84.4,79.2 85.4,81 86.6,82.7 C86,81.7 85.6,82.1 86.6,82.7 L86.6,82.7 Z M83.6,77.4 C83.6,77.5 83.7,77.5 83.7,77.6 L83.6,77.4 L83.6,77.4 Z M83.7,77.5 C83.8,77.7 84,78 83.7,77.5 L83.7,77.5 Z M87.1,80.7 C88.7,79.6 88,79.2 86.5,79.8 C86.5,80 86.6,81 87.1,80.7 C87.3,80.5 86.9,80.8 87.1,80.7 L87.1,80.7 Z M88.6,79.5 C88.6,80.2 89.9,81.3 89.9,80.5 C89.8,79.9 88.6,78.6 88.6,79.5 C88.5,79.7 88.6,79.3 88.6,79.5 L88.6,79.5 Z M105.7,66.3 C108.4,63.6 106.1,53.7 104.4,53.7 C103.6,53.7 99.4,63 99,63.8 C95.2,63.8 98.1,65.5 97.7,66.1 C98.6,64.8 100.6,61.7 102,59.2 C102.9,60 106.9,65.1 105.7,66.3 C106.1,65.8 105.4,66.6 105.7,66.3 L105.7,66.3 Z M98.9,46.2 C97.6,46.4 97,45.7 96.6,46.8 C97.9,47.1 98.6,46.3 98.9,46.2 L98.9,46.2 Z M96.6,51.9 C102,50.7 96,42.8 96.6,51.9 L96.6,51.9 Z M99.1,45.6 C99.1,45.5 99.1,45.5 99.1,45.6 C99.1,45.5 99.1,45.6 99.1,45.6 L99.1,45.6 Z M99.1,45.4 L99.1,45.3 L99.1,45.4 L99.1,45.4 Z M99.1,45.5 L99.1,45.4 L99.1,45.5 L99.1,45.5 Z M97.8,43.7 C97,44 96.5,44.7 96.5,45.6 L99,45.6 C99,44.7 98.6,44 97.8,43.7 C97.3,43.7 98.3,43.7 97.8,43.7 L97.8,43.7 Z M99.1,45.3 C99.1,45.3 99.1,45.2 99.1,45.3 C99.1,45.2 99.1,45.3 99.1,45.3 L99.1,45.3 Z M99.1,59.5 C98.8,52.5 94,57.8 99.1,59.5 L99.1,59.5 Z M96.4,62.4 C97.8,62 98.6,63.2 98.9,61.6 C97.1,61.2 97,62.3 96.4,62.4 L96.4,62.4 Z M96.4,68.2 L99.2,68.2 L99.2,66.6 C96.1,65.7 97.3,67.7 96.4,68.2 L96.4,68.2 Z M96.1,60.2 C97.3,60.5 97.8,61.9 99.2,60.2 L96.1,60.2 L96.1,60.2 Z M95.8,58.1 L95.8,56 L94.3,56 C94.8,56.7 95.3,57.4 95.8,58.1 L95.8,58.1 Z M95.7,57.8 C95.6,57.7 95.6,57.6 95.7,57.8 L95.7,57.8 Z M108.3,39.6 L108.4,39.7 C108.4,39.7 108.4,39.7 108.3,39.6 L108.3,39.6 Z M108.5,39.7 C108.5,39.8 108.5,39.8 108.5,39.7 L108.5,39.7 Z M108.1,39.3 L108.2,39.4 C108.1,39.4 108.1,39.3 108.1,39.3 L108.1,39.3 Z M109.4,42.1 C109.7,41.1 109.1,40.4 108,39.3 C107.9,41.2 108.5,42.2 109.4,42.1 L109.4,42.1 Z M108.2,39.5 L108.3,39.6 C108.3,39.5 108.2,39.5 108.2,39.5 L108.2,39.5 Z M110,38.2 C109.8,40.1 109.4,42.7 110.1,43.5 C110.9,43.1 110.3,39.6 110,38.2 L110,38.2 Z M110,43.4 C110.1,43.5 110.1,43.5 110,43.4 C110.1,43.5 110.1,43.4 110,43.4 L110,43.4 Z M109.8,43.2 C109.8,43.1 109.8,43.1 109.8,43.2 L109.8,43.2 Z M109.9,43.3 L109.9,43.4 L109.9,43.3 L109.9,43.3 Z M106.9,40.7 C107.3,42.6 108.4,44.2 109.8,43.6 C110,42.4 108.1,42.4 106.9,40.7 L106.9,40.7 Z M109.9,43.3 C109.8,43.7 109.9,42.9 109.9,43.3 C109.9,43.2 109.9,43.2 109.9,43.3 L109.9,43.3 Z M111.1,40 C110.9,41.5 110.1,44.9 110.9,45.4 C112,45.1 111.3,41.4 111.1,40 L111.1,40 Z M110.8,45.4 C110.7,45.4 110.7,45.3 110.6,45.3 C110.7,45.3 110.7,45.3 110.8,45.4 L110.8,45.4 Z M110.6,45.2 C110.5,45.2 110.5,45.2 110.6,45.2 L110.6,45.2 Z M110.5,45.3 C109.1,45.5 110.5,45.3 110.5,45.3 L110.5,45.3 Z M111.8,47 C112.9,46.7 112.2,42.8 112.3,41.1 C112,42.5 111,46.6 111.8,47 L111.8,47 Z M111.8,47 C111.8,47 111,46.6 111.8,47 L111.8,47 Z M111.3,46.7 C111.3,46.8 111.3,46.8 111.3,46.7 C111.3,46.8 111.3,46.8 111.3,46.7 L111.3,46.7 Z M111.3,46.4 C111.2,46.1 111.3,46.2 111.3,46.4 L111.3,46.4 Z M112.5,48.6 L112.4,48.5 L112.5,48.6 L112.5,48.6 Z M112.4,48.5 C112.3,48.4 112.2,48.3 112.4,48.5 L112.4,48.5 Z M112.3,48.5 C112.3,48.5 112.3,48.6 112.3,48.5 C112.3,48.6 112.3,48.6 112.3,48.5 L112.3,48.5 Z M112.3,48.3 L112.3,48.5 L112.3,48.3 L112.3,48.3 Z M112.2,48 L112.2,48.1 L112.2,48 L112.2,48 Z M104.6,41.3 C104.8,41.4 104.7,41.4 104.6,41.3 L104.6,41.3 Z M105.9,43.5 C106.2,42.5 105.4,41.8 104.2,41.1 C104.3,42.7 105,43.7 105.9,43.5 L105.9,43.5 Z M106.6,45.3 C106.6,45.3 106.6,45.2 106.6,45.3 C106.6,45.2 106.6,45.2 106.6,45.3 L106.6,45.3 Z M106.6,45 C106.6,44.9 106.6,44.9 106.6,45 C106.6,44.9 106.6,44.9 106.6,45 L106.6,45 Z M107.1,45.1 C106.4,44.5 106.6,44.7 107.1,45.1 C107.1,45.1 106.8,44.9 107.1,45.1 L107.1,45.1 Z M106.5,41.5 C106.6,43.2 106.1,44.2 107.1,45.1 C107.9,44 107.1,42.6 106.5,41.5 L106.5,41.5 Z M106.8,47 L106.9,47 L106.8,47 L106.8,47 Z M107.5,46.7 C107.4,46.6 107.5,46.6 107.5,46.7 L107.5,46.7 Z M108.7,48.7 C108.1,48.1 108.4,48.3 108.7,48.7 C108.7,48.7 108.5,48.5 108.7,48.7 L108.7,48.7 Z M108.7,45.2 C108.9,46.6 107.8,47.6 108.7,48.7 C110,48 109.2,46.3 108.7,45.2 L108.7,45.2 Z M108.4,48.5 C108.1,47.6 107.2,47.8 106.1,46.7 C106.4,48.2 107.7,49.5 108.4,48.5 L108.4,48.5 Z M114.1,77.3 C113.6,77.4 113.9,77.3 114.1,77.3 L114.1,77.3 Z M99.2,81.5 C99.1,81.5 99.1,81.5 99.2,81.5 C99.1,81.5 99.1,81.5 99.2,81.5 L99.2,81.5 Z M111.1,54.1 C111.2,54.3 111.2,54.3 111.1,54.1 L111.1,54.1 Z M111.1,54 C111.1,54 111.1,53.9 111.1,54 L111.1,54 Z M115,54.8 C114.9,54.8 114.9,54.8 115,54.8 L115,54.8 Z M99.9,82.1 L100,82.1 C100,82 100,82.1 99.9,82.1 L99.9,82.1 Z M100.2,81.8 C100.2,81.7 100.2,81.6 100.2,81.8 L100.2,81.8 Z M100.2,81.9 C100.2,81.9 100.2,81.8 100.2,81.9 L100.2,81.9 Z M103.3,81.1 C101.8,81.8 100.2,81.2 100.1,82.1 C100.1,83.2 102.7,81.9 103.3,81.1 L103.3,81.1 Z M101.3,80.2 C101.3,80.1 101.3,80.1 101.3,80.2 L101.3,80.2 Z M100.9,80.7 C100.9,80.6 100.9,80.7 100.9,80.7 L100.9,80.7 Z M101.9,79.2 C102.2,79.1 102.1,79.2 101.9,79.2 L101.9,79.2 Z M102.3,78.9 C102.3,78.8 102.3,78.8 102.3,78.9 L102.3,78.9 Z M102.8,78.4 C102.8,78.4 103.4,78.8 102.8,78.4 L102.8,78.4 Z M108.6,81.2 C108.7,81 108.7,80.8 108.6,81.2 L108.6,81.2 Z M107.1,82 C107,81.9 106.9,81.9 106.9,81.9 C107,81.9 107.1,81.9 107.1,82 L107.1,82 Z M106.7,82.6 C106.6,83.6 109.7,83 110.5,82.1 C107.9,82.6 106.8,81.7 106.7,82.6 L106.7,82.6 Z M106.7,82.6 C106.7,82.6 106.8,81.7 106.7,82.6 L106.7,82.6 Z M105.3,83.1 C105.3,83 105.3,83 105.4,82.9 C105.4,83 105.3,83.1 105.3,83.1 L105.3,83.1 Z M105.3,83.2 C105,84.1 107.9,83.9 109,83.4 C107.3,83.4 105.5,82.6 105.3,83.2 L105.3,83.2 Z M107.6,84.3 C105.8,84.3 104.2,83.1 103.8,84 C103.6,84.7 106.3,84.7 107.6,84.3 L107.6,84.3 Z M104,83.7 C104,83.6 104,83.6 104,83.7 C104,83.6 104,83.6 104,83.7 L104,83.7 Z M104,83.6 C104,83.6 104,83.5 104,83.6 L104,83.6 Z M105.1,82.6 C104.9,82.3 105,82.5 105.1,82.6 L105.1,82.6 Z M105.3,82.7 C106.2,83.3 106.2,81.5 106.9,80.2 C105.7,81.3 104.7,82.1 105.3,82.7 L105.3,82.7 Z M105.3,82.7 L105.2,82.6 C105.2,82.6 105.2,82.6 105.3,82.7 L105.3,82.7 Z M103.6,83.4 C103.6,83.4 103.6,83.3 103.6,83.4 C103.6,83.3 103.6,83.3 103.6,83.4 L103.6,83.4 Z M101.5,84 C101.4,84 101.5,84 101.5,84 L101.5,84 Z M101.4,83.9 C101.4,83.8 101.3,83.8 101.3,83.8 C101.3,83.8 101.3,83.8 101.4,83.9 L101.4,83.9 Z M101.4,84 C101.4,83.9 101.4,83.9 101.4,84 C101.4,83.9 101.4,84 101.4,84 L101.4,84 Z M101.3,83.8 C101.2,83.7 101.2,83.7 101.3,83.8 L101.3,83.8 Z M104.7,80 C103.3,81.1 102.2,82.4 101.5,84 C102.1,83.9 102.2,84 101.9,84.3 C103,83.1 104.1,81.6 104.7,80 C103.7,81.3 104.2,81.3 104.7,80 L104.7,80 Z M107.8,71.6 C107.9,71.4 107.9,71.5 107.8,71.6 L107.8,71.6 Z M107,73.4 C107,73.4 107.2,73.3 107.3,73.2 C107.3,73.3 107.2,73.3 107,73.4 L107,73.4 Z M106.4,70.8 C105.8,72.1 106.1,73.7 107,73.4 C107.8,73 106.3,72.2 106.4,70.8 L106.4,70.8 Z M106.3,74.7 C106.9,74.3 105.7,73.8 105.8,72.3 C105.2,73.5 105.5,75.1 106.3,74.7 L106.3,74.7 Z M106.6,74.7 C106.5,74.3 106.6,74.5 106.6,74.7 C106.6,74.6 106.6,74.6 106.6,74.7 L106.6,74.7 Z M109.2,72.8 C108,74 106.4,73.9 106.7,74.8 C107,75.8 108.9,73.9 109.2,72.8 L109.2,72.8 Z M106.6,74.7 C106.6,74.7 106.7,74.8 106.6,74.7 C106.6,74.8 106.6,74.7 106.6,74.7 L106.6,74.7 Z M106.6,74.5 C106.5,74.4 106.6,74.4 106.6,74.5 L106.6,74.5 Z M107.4,72.9 C107.4,72.8 107.4,72.9 107.4,72.9 L107.4,72.9 Z M107.5,73.2 C107.5,73.2 107.5,73.1 107.5,73.2 L107.5,73.2 Z M108,71.5 C107.9,71.4 107.8,71 108,71.5 L108,71.5 Z M108.1,70.5 L108.4,70.5 L108.1,70.5 L108.1,70.5 Z M109.8,69.8 L109.7,69.7 L109.8,69.8 L109.8,69.8 Z M109.7,69.7 C109.6,69.7 109.6,69.7 109.7,69.7 C109.6,69.7 109.7,69.7 109.7,69.7 L109.7,69.7 Z M105,73 C104.4,74 104.7,75.1 105.2,74.8 C105.7,74.4 105.1,74.1 105,73 L105,73 Z M105.4,74.7 L105.3,74.8 C105.3,74.7 105.3,74.7 105.4,74.7 L105.4,74.7 Z M105.4,74.7 C105.4,74.6 105.4,74.6 105.4,74.7 L105.4,74.7 Z M116.1,67.9 C117.2,68.6 118.9,65.9 119.3,64.8 C118.3,66.1 115.9,67.2 116.1,67.9 L116.1,67.9 Z M116,67.9 C116,67.7 115.9,67.4 116,67.9 L116,67.9 Z M114.5,71.7 C114.4,71.6 114.4,71.5 114.5,71.7 L114.5,71.7 Z M115.8,67.7 C116.3,67.3 115.9,67.6 115.8,67.7 L115.8,67.7 Z M115.7,67.8 C115.7,67.7 115.7,67.8 115.7,67.8 L115.7,67.8 Z M114.8,69.3 C115.4,69.1 114.8,69.3 114.8,69.3 L114.8,69.3 Z M114.3,70.4 C114.1,70.5 114.1,67.3 114.1,67.4 C113.6,68.3 113.3,70.9 114.3,70.4 L114.3,70.4 Z M114.1,70.5 C114,70.5 114,70.5 114.1,70.5 C114,70.5 114,70.5 114.1,70.5 L114.1,70.5 Z M114.2,73 C114.2,72.9 114.2,72.8 114.1,72.8 C114.2,72.9 114.2,72.9 114.2,73 L114.2,73 Z M114.3,73.1 C114.6,74.1 117.1,71.7 117.5,70.8 C116.2,72 114,72.4 114.3,73.1 L114.3,73.1 Z M112.8,74.8 C112.8,74.7 112.8,74.7 112.8,74.8 C112.8,74.7 112.8,74.8 112.8,74.8 L112.8,74.8 Z M112.8,74.8 C113.2,75.8 115.8,73.7 116.6,72.6 C115,73.9 112.6,73.7 112.8,74.8 L112.8,74.8 Z M111.4,76 C112.5,75.7 113,77.5 115.3,74.4 C114,75 112.7,75.6 111.4,76 C111.4,76 111.8,75.5 111.4,76 L111.4,76 Z M112.9,74.2 C112.5,74.5 112.6,74.4 112.9,74.2 C112.8,74.3 112.8,74.2 112.9,74.2 L112.9,74.2 Z M112.7,70.8 C111.9,72.4 111.7,74.8 112.5,74.5 C113.5,73.8 112.8,72.3 112.7,70.8 L112.7,70.8 Z M112.9,74.2 C113,74.1 113,74.2 112.9,74.2 L112.9,74.2 Z M111.3,76 C111.4,76 111.5,72.8 111.5,72.8 C109.9,75.1 111.2,75.5 111.3,76.4 C111.1,76.2 111.1,76 111.3,76 L111.3,76 Z M112.7,76.9 C112.7,76.7 112.7,76.8 112.7,76.9 L112.7,76.9 Z M113.3,59.1 C113.3,59.1 113.4,59.1 113.5,59 C113.4,59.1 113.4,59.1 113.3,59.1 L113.3,59.1 Z M113.4,59.1 C114,58.8 113.7,59 113.4,59.1 L113.4,59.1 Z M113.3,60.9 C113.3,60.8 113.3,60.8 113.3,60.9 C113.3,60.8 113.3,60.8 113.3,60.9 L113.3,60.9 Z M113.2,60.5 C113.2,60.4 113.2,60.4 113.2,60.5 C113.2,60.4 113.2,60.4 113.2,60.5 L113.2,60.5 Z M113.2,60.4 C113.2,60.3 113.2,60.3 113.2,60.4 L113.2,60.4 Z M113.1,61.9 C113.1,61.8 113.1,61.8 113.1,61.9 L113.1,61.9 Z M113.2,62.5 C113.2,62.4 113.2,62.4 113.2,62.5 C113.2,62.4 113.2,62.4 113.2,62.5 L113.2,62.5 Z M113.1,62.1 L113.1,61.9 L113.1,62.1 L113.1,62.1 Z M113,62 C113,61.9 113,61.9 113,62 L113,62 Z M112.9,62.3 C112.8,62.3 112.8,62.4 112.9,62.3 C112.8,62.3 112.8,62.3 112.9,62.3 L112.9,62.3 Z M112.9,62.3 C112.9,62.2 113,62.1 113,62.1 C112.9,62.1 112.9,62.2 112.9,62.3 L112.9,62.3 Z M114.4,62 C114.3,62.2 114.3,62.1 114.4,62 L114.4,62 Z M112.4,64.1 C112.3,64.2 112.2,64.2 112.4,64.1 L112.4,64.1 Z M116.7,54.1 C116.9,54 117.3,53.7 116.7,54.1 L116.7,54.1 Z M116.6,54.2 C117.5,53.6 117,52 116.7,50.7 C116.5,52 115.9,53.3 116.6,54.2 L116.6,54.2 Z M118.3,51.9 C117.9,53.5 116.4,54.3 116.6,55.7 C117.9,55.9 118.2,53.1 118.3,51.9 L118.3,51.9 Z M116.6,55.2 C116.6,55.2 116.5,55.1 116.6,55.2 C116.5,55.1 116.6,55.2 116.6,55.2 L116.6,55.2 Z M116.4,55.7 L116.4,55.4 L116.4,55.7 L116.4,55.7 Z M116.4,55.4 L116.4,55.3 C116.4,55.3 116.4,55.3 116.4,55.4 L116.4,55.4 Z M116.4,55.3 C116.4,55.2 116.4,55.2 116.4,55.3 C116.4,55.2 116.4,55.2 116.4,55.3 L116.4,55.3 Z M116.6,57.3 L116.6,57.1 L116.6,57.3 L116.6,57.3 Z M116.6,57 L116.6,56.8 C116.5,56.9 116.6,56.9 116.6,57 L116.6,57 Z M116.6,57.1 C116.6,57.1 116.6,57 116.6,57.1 C116.6,57 116.6,57.1 116.6,57.1 L116.6,57.1 Z M116.4,57.5 C116.5,57.1 116.5,56.9 116.5,56.9 C116.4,56.9 116.4,57.5 116.4,57.5 L116.4,57.5 Z M116.6,59.2 C116.4,58.6 116.5,59 116.6,59.2 L116.6,59.2 Z M116.6,59.3 C118.1,59.6 118,57.1 119.1,55.3 C118.2,56.6 116.3,58.3 116.6,59.3 L116.6,59.3 Z M116.3,59.2 C116.7,58.1 115.4,57.4 115.1,56.7 C115.1,57.5 115.2,59.3 116.3,59.2 L116.3,59.2 Z M116.3,59.2 C116.4,59 116.6,58.4 116.3,59.2 L116.3,59.2 Z M116,60.9 L115.9,60.9 L116,60.9 L116,60.9 Z M115.9,60.9 C115.7,60.9 115.6,60.9 115.9,60.9 L115.9,60.9 Z M116.3,60.8 C116.7,60 115.4,59.5 115.1,58.5 C114.9,60 115,61 116.3,60.8 L116.3,60.8 Z M116.1,62.7 C116.6,61.8 115.2,61.5 114.9,60.2 C114.7,61.8 114.9,63 116.1,62.7 L116.1,62.7 Z M115.6,62.8 C115.5,62.8 115.6,62.8 115.6,62.8 L115.6,62.8 Z M115.8,62.8 L115.7,62.8 L115.8,62.8 L115.8,62.8 Z M113.8,50.8 L113.8,51 L113.8,50.8 L113.8,50.8 Z M113.8,50.7 C113.8,50.6 113.8,50.5 113.8,50.7 L113.8,50.7 Z M112.5,48.9 C112.2,50.3 113,51.2 113.8,51 C113.8,50 113.4,49.1 112.5,48.9 L112.5,48.9 Z M113.8,50.7 L113.8,50.8 L113.8,50.7 L113.8,50.7 Z M116.3,50.3 L116.3,50.1 L116.3,50.3 L116.3,50.3 Z M115.9,50.2 C115.7,50.9 116.1,46.9 115.9,47.5 L115.9,50.2 C115.8,50.7 116,49.7 115.9,50.2 L115.9,50.2 Z M109.9,54.8 C109.8,54.7 109.9,54.7 109.9,54.8 L109.9,54.8 Z M115,52.5 C115,52.2 116.3,46.8 115.1,45.7 C115,45.6 115.1,53.7 115,52.5 L115,52.5 Z M113.6,48.6 C113.6,48.5 113.6,48.5 113.6,48.6 L113.6,48.6 Z M113.6,48.8 C113.5,48 114.4,45.7 114,44.4 C114.1,44.5 113.6,48.4 113.6,48.8 C113.7,49.4 113.5,48.2 113.6,48.8 L113.6,48.8 Z M113.6,48.7 C113.6,48.6 113.6,48.6 113.6,48.7 C113.6,48.6 113.6,48.6 113.6,48.7 L113.6,48.7 Z M118.6,61.4 C118.6,61.3 118.6,61.3 118.6,61.4 C118.6,61.3 118.6,61.4 118.6,61.4 L118.6,61.4 Z M119.1,59.2 C119,59.4 118.5,61.5 118.6,61.4 C119,60.8 119,59.3 119.1,59.2 C118.8,59.5 119.3,58.9 119.1,59.2 L119.1,59.2 Z M118.6,61.3 C118.7,61.2 118.7,61.1 118.6,61.3 L118.6,61.3 Z M112,69.8 C112.1,69.7 112.1,69.7 112,69.8 C112.1,69.7 112.1,69.7 112,69.8 L112,69.8 Z M111.9,70 C111.9,70.1 111.9,70.1 111.9,70 L111.9,70 Z M109.7,74.2 C109.9,73.4 110.2,72.5 110.4,71.7 C109.4,74 109.3,77.4 109.7,74.2 C109.8,73.2 109.6,75.5 109.7,74.2 L109.7,74.2 Z M110.5,71.7 C110.6,72.6 110.5,71.7 110.5,71.7 L110.5,71.7 Z M93.6,81.6 C93.4,81.8 93.5,81.7 93.6,81.6 L93.6,81.6 Z M92.5,82 C93.6,80.9 90.5,82.3 90.4,82.9 C91.2,82.8 91.9,82.5 92.5,82 C92.6,81.9 92.4,82 92.5,82 L92.5,82 Z M97.8,77.5 C97.8,77.6 97.7,77.6 97.7,77.7 C97.7,77.7 97.8,77.6 97.8,77.5 L97.8,77.5 Z M96.7,77.7 C96.6,77.8 96.6,77.8 96.7,77.7 L96.7,77.7 Z M93.9,80.5 C94,80.3 94,80 94,79.8 C90.6,79.3 93.8,80.6 93.9,80.5 C94,80.3 93.8,80.7 93.9,80.5 L93.9,80.5 Z M90.6,79.8 C90.7,80.7 90.6,80.7 91.8,80.5 C93.2,80.1 90.4,78.2 90.6,79.8 L90.6,79.8 Z M98.7,89.4 C98.6,89.4 98.6,89.4 98.7,89.4 L98.7,89.4 Z M82.7,82.2 C82.6,82.2 82.6,82.1 82.5,82.1 C82.6,82.2 82.6,82.2 82.7,82.2 L82.7,82.2 Z M82.9,82.3 C82.9,82.3 82.9,82.3 82.8,82.3 C82.8,82.3 82.9,82.3 82.9,82.3 L82.9,82.3 Z M99.3,89.3 C99.3,89.3 99.3,89.4 99.3,89.3 C99.3,89.4 99.3,89.4 99.3,89.3 L99.3,89.3 Z M80.6,31.5 C80.6,31.7 80.6,31.6 80.6,31.5 L80.6,31.5 Z M80.4,37.3 C77,37.3 86.5,32.8 86.6,29.8 C86.7,30.9 82.5,30.4 82.3,30.4 C80.2,30.9 83.1,32.3 83.2,32 C82.4,35.6 81.2,31.8 80.7,31.1 C80.6,32.5 83.4,37.2 80.4,37.3 C79.7,37.3 81.5,37.3 80.4,37.3 L80.4,37.3 Z M82.4,31.3 C81.3,30.4 83.5,32.4 82.4,31.3 C82.3,31.3 82.5,31.4 82.4,31.3 L82.4,31.3 Z M80.8,34.3 C80.8,34.3 80.9,34.2 81,34.2 C80.9,34.2 80.8,34.3 80.8,34.3 L80.8,34.3 Z M81,34.2 C81,34.2 81.1,34.2 81.1,34.1 C81.1,34.1 81.1,34.1 81,34.2 L81,34.2 Z M80.6,31.1 L80.6,31.5 L80.6,31.1 L80.6,31.1 Z M83.6,34.2 C83.6,34.2 83.4,34.4 83.6,34.2 L83.6,34.2 Z M83.6,34.2 C83.4,34.4 83.7,34.9 83.9,34.8 C84.1,34.7 83.8,34.1 83.6,34.2 L83.6,34.2 Z M84.2,33 C84.2,33 84.2,33.1 84.2,33 C84.2,33.1 84.2,33 84.2,33 L84.2,33 Z M85.3,32.1 C85.6,31.7 83.2,35.4 85.3,32.1 C85.4,32 85.1,32.5 85.3,32.1 L85.3,32.1 Z M88.3,29.9 C90.1,29.9 87.9,30 88.3,29.9 C88.5,29.9 88.1,29.9 88.3,29.9 L88.3,29.9 Z M88.1,29.7 C88.1,29.8 88.1,29.8 88.1,29.7 L88.1,29.7 Z M89.7,29.9 C92.2,27.9 89.9,29.7 89.7,29.9 C90,29.6 89.6,30 89.7,29.9 L89.7,29.9 Z M88.4,31 C89.7,31.4 88.1,30.9 88.4,31 C88.5,31 88.3,30.9 88.4,31 L88.4,31 Z M86.5,32.1 C86,31.7 85.6,34.2 85.3,34.5 C85.6,33.6 85.5,33.2 84.9,33.2 C84.9,34.2 84.6,35.9 84.1,36.6 C85.5,35.1 88.7,33.5 89.7,35.3 C88.7,33.5 90.5,32.6 91.7,32.4 C90.8,32.6 89.9,32.5 89.1,32.2 C88.6,31.6 92.2,31 91.2,29.8 C90.1,28.6 90.3,30.6 90.8,30.4 C90.9,29.6 86.6,34.3 89.7,32.9 C87.7,33.7 87.3,31.5 87,30.9 C87.3,31.7 87.3,36.9 85.5,34.9 C86.5,34.1 86.8,33.2 86.5,32.1 C86.1,31.8 87.1,32.6 86.5,32.1 L86.5,32.1 Z M86.1,32.7 C86.2,32.8 86.1,32.7 86.1,32.7 L86.1,32.7 Z M90.8,30.4 C90.8,30.5 90.8,30.4 90.8,30.4 L90.8,30.4 Z M92.5,30.4 C92.5,30.4 92.4,30.5 92.5,30.4 L92.5,30.4 Z M92.7,30.7 C94.2,29.3 92.4,30.9 92.7,30.7 C92.9,30.5 92.6,30.8 92.7,30.7 L92.7,30.7 Z M94.5,29.7 C94.3,29.7 94.4,29.7 94.5,29.7 L94.5,29.7 Z M94.6,30.3 C94.9,30.2 94.8,29.7 94.6,29.7 C94.2,29.7 94.4,30.3 94.6,30.3 L94.6,30.3 Z M94.5,31.8 C97,31.7 92.7,31.9 94.5,31.8 C94.9,31.8 94.1,31.8 94.5,31.8 L94.5,31.8 Z M92.7,33.2 C92.5,33.5 90.3,37.4 90.9,33.8 C90.9,34 89.8,35.9 91.2,36.1 C91.7,35.6 92.1,35 92.5,34.5 C92.4,34.5 98.7,38.4 95.8,33.2 C96.3,34.3 96.1,35.2 95.2,35.8 C94.2,35.2 94.1,34.2 94.8,32.8 C94.8,32.5 93.8,36.7 93.2,35.7 C94,33.7 93.8,32.9 92.7,33.2 C92.4,33.9 92.9,32.8 92.7,33.2 L92.7,33.2 Z M90.9,33.7 C90.9,33.6 90.9,33.6 90.9,33.7 L90.9,33.7 Z M96.5,31.2 C97.9,32.1 97,39.7 98.1,33.8 C98.1,34.6 99.2,35.7 99.3,35.9 C98.3,32.3 98.3,33.9 98.8,31 C99,30.1 97.5,32.3 97.9,32.4 C97.8,32.4 94.5,29.9 96.5,31.2 L96.5,31.2 Z M97.3,36.7 C100.3,36.7 100.2,34.1 100.7,31.8 C100.3,33.5 100,37 97.3,36.7 L97.3,36.7 Z M97.5,36.7 C97.7,36.8 98,36.8 97.5,36.7 L97.5,36.7 Z M99.3,33.2 C101.4,33.1 98,33.2 99.3,33.2 C99.6,33.2 99.2,33.2 99.3,33.2 L99.3,33.2 Z M99.5,31.6 C99.5,31.6 99.6,31.5 99.5,31.6 C99.6,31.5 99.6,31.5 99.5,31.6 L99.5,31.6 Z M99.6,31.9 C101.9,31.8 99.4,31.9 99.6,31.9 C99.9,31.9 99.5,31.9 99.6,31.9 L99.6,31.9 Z M102.3,32.3 C102.3,32.4 102.3,32.4 102.3,32.3 L102.3,32.3 Z M100.9,36.6 C101.6,35.2 102.3,33.8 102.9,32.4 C103.1,32 100.8,36.8 100.9,36.6 C101.2,36.2 100.7,37.1 100.9,36.6 L100.9,36.6 Z M102.8,34.9 C102.8,35.4 102.7,35.6 102.8,34.9 L102.8,34.9 Z M102.8,34.9 L102.8,35 C102.8,35.1 102.8,35 102.8,34.9 L102.8,34.9 Z M102.1,36.4 C101.6,36.6 105.3,35.8 102.1,36.4 C102,36.5 102.4,36.4 102.1,36.4 L102.1,36.4 Z M73.8,39.4 C75.6,39.6 71.7,39.1 73.8,39.4 C74,39.4 73.6,39.4 73.8,39.4 L73.8,39.4 Z M75.3,41 L75.3,38.9 C75.5,38.7 76.7,40.7 77.7,38.9 C78.4,37.6 77.4,35 77.1,35.7 C77.2,36.5 77.6,37.1 78.3,37.6 C77.5,38.5 76.9,38.2 76.5,36.5 C76.2,36.3 78,39.3 76.6,39.3 C76.3,38.2 75.7,37.8 74.9,38.1 C75,37.6 74.4,42.7 75.3,41 C75.6,40.6 75.2,41.3 75.3,41 L75.3,41 Z M73.8,37.1 C72.4,37.9 74.6,36.4 73.8,37.1 C73.7,37.1 73.9,37 73.8,37.1 L73.8,37.1 Z M73.3,37.6 C73.4,37.3 73.3,37.6 73.3,37.6 L73.3,37.6 Z M75.6,36.2 C75.4,35.6 76.7,35.7 75.5,35.1 C75.3,34.9 75.7,36.8 75.6,36.2 C75.5,35.9 75.7,36.7 75.6,36.2 L75.6,36.2 Z M76.5,33.7 C78,32.9 76.2,33.8 76.5,33.7 C76.6,33.6 76.4,33.7 76.5,33.7 L76.5,33.7 Z M79.9,36.3 C80.1,36.6 78.4,31.7 77.7,32.2 C77.3,33.8 78.1,35.2 79.9,36.3 C80.2,36.7 79.1,35.2 79.9,36.3 L79.9,36.3 Z M79.1,32.5 C79.3,31.9 79.8,30.1 79.1,32.5 C79.1,32.6 79.2,32.2 79.1,32.5 L79.1,32.5 Z M104,33.9 C105.4,35.1 105,37.4 102.9,38.8 C103.3,38.6 100.1,37.2 99.6,37 C100,37.2 101.9,39.3 102.4,39.5 C103.8,38.9 104.7,37.8 105,36.2 C105.5,37.3 105.3,38.3 104.4,39.1 C105.5,40 105.4,35.7 105.4,39.6 C105.3,38.4 108.4,31.5 105.5,37 C105.4,36.6 105.4,34.3 105.5,34.1 C105,35 103.3,33.2 104,33.9 L104,33.9 Z M99.9,37.4 C99.9,37.4 99.9,37.5 99.9,37.4 C99.9,37.5 99.9,37.5 99.9,37.4 L99.9,37.4 Z M104.2,34 C104.2,34.1 104.3,34.1 104.2,34 C104.2,34.1 104.2,34.1 104.2,34 L104.2,34 Z M87.1,30.9 C87.1,31 87.1,31 87.1,30.9 C87.1,31 87.1,30.9 87.1,30.9 L87.1,30.9 Z M87.2,31.2 C87.2,31.3 87.2,31.2 87.2,31.2 L87.2,31.2 Z M87.1,31 C87.1,31 87.1,31.1 87.2,31.2 C87.2,31.1 87.1,31.1 87.1,31 L87.1,31 Z M104.4,39.1 C104.4,39.1 104.4,39.2 104.4,39.1 L104.4,39.1 Z M104.4,39.2 C104.4,39.3 104.3,39.5 104.4,39.2 L104.4,39.2 Z M105.3,40 C104.4,39.6 103.7,39.7 103.2,40.3 C105.2,41.8 109,37.6 108.1,35.8 C107.7,36.2 107.5,36.3 107.5,36.1 C106.8,37.4 106.1,38.7 105.3,40 C104.9,40.4 106.3,38.9 105.3,40 L105.3,40 Z M107.4,36.6 C107.3,36.8 107.3,36.7 107.4,36.6 L107.4,36.6 Z M89.3,40.1 C88.3,39.8 88.6,41.3 88.5,41.9 C88.5,42.1 89.3,40.1 89.3,40.1 C89.1,40.1 89.4,40.2 89.3,40.1 L89.3,40.1 Z M89.1,39.7 C89.1,39.7 89.4,39.5 89.1,39.7 L89.1,39.7 Z M89,39.3 C87.5,40.5 87.4,41.5 85.8,41.7 C88,41.5 86.6,41.3 89,39.3 C88.5,39.7 89.2,39.1 89,39.3 L89,39.3 Z M91.6,41.2 C88.6,39.6 94.5,44.4 93.1,40.9 C93.3,41.4 91.4,41.1 91.6,41.2 C91.1,41 91.8,41.3 91.6,41.2 L91.6,41.2 Z M93.7,40.4 C93.5,40.5 93.7,40.4 93.7,40.4 L93.7,40.4 Z M94.3,39.9 C93.4,40.7 94.1,41.3 93.9,41.9 C93.9,42.1 94.4,39.9 94.3,39.9 C93.9,40.3 94.5,39.8 94.3,39.9 L94.3,39.9 Z M92.4,40.3 C92.3,38.4 92.4,40.4 92.4,40.3 C92.3,40 92.4,40.3 92.4,40.3 L92.4,40.3 Z M86.1,39.3 C90,37.3 93.1,40.2 96.9,37.8 C95.9,38.2 95,38.6 94,39 C94.4,38.6 94.8,38.2 95.2,37.8 L93.4,38.7 C93.9,38.1 94.3,37.5 94.8,37 C94.1,37.5 93.3,38 92.6,38.5 C92.8,38.1 93,37.6 93.3,37.2 C92.9,37.6 92.5,38 92.1,38.3 C92.3,37.7 92.4,37 92.6,36.4 C92.1,37 91.7,37.6 91.2,38.2 L91.2,36.9 C91,37.3 90.8,37.7 90.6,38.2 C90.4,37.6 90.3,36.9 90.1,36.3 C89.9,36.9 89.8,37.6 89.6,38.2 C89.4,37.8 89.2,37.4 89,36.9 L89,38.2 C88.5,37.6 88.1,37 87.6,36.4 C87.8,37 87.9,37.7 88.1,38.3 C87.7,37.9 87.3,37.5 86.9,37.2 C87.1,37.6 87.3,38.1 87.6,38.5 C86.9,38 86.1,37.5 85.4,37 C85.9,37.6 86.3,38.2 86.8,38.8 L85,37.9 C85.4,38.3 85.8,38.7 86.3,39 C85.3,38.6 84.4,38.2 83.4,37.8 C84.2,38.3 85.2,38.8 86.1,39.3 L86.1,39.3 Z M87.4,77.8 C87.6,79.2 87.6,76.5 87.1,75.7 C86.8,76.7 87.2,76.8 87.4,77.8 C87.4,77.9 87.4,77.6 87.4,77.8 L87.4,77.8 Z M89.7,75.7 C89.2,76.9 89.2,75.9 89.2,78.4 C89.3,77.6 89.7,76.6 89.7,75.7 L89.7,75.7 Z M91.3,76.8 C91.3,75.1 90.6,76.7 91.2,78.2 C91.7,79.2 91.3,76.7 91.3,76.8 L91.3,76.8 Z M90.8,76.6 C90,76.6 91.5,76.6 90.8,76.6 C90.6,76.6 90.9,76.6 90.8,76.6 L90.8,76.6 Z M92.7,76.4 C92.8,77.1 93.1,77.8 93.5,78.3 C93.3,78.1 92.8,76 92.6,75.7 C92.6,76.1 92.1,78.1 91.9,78.4 C92.5,78 92.6,76.8 92.7,76.4 C92.9,77 92.6,76.9 92.7,76.4 L92.7,76.4 Z" id="1" fill="#FFFFFF"></path>
        </g>
    </g>
</svg>