<?xml version="1.0" ?><svg height="120px" version="1.1" viewBox="0 0 180 120" width="180px" xmlns="http://www.w3.org/2000/svg" xmlns:sketch="http://www.bohemiancoding.com/sketch/ns" xmlns:xlink="http://www.w3.org/1999/xlink"><title/><defs/><g fill="none" fill-rule="evenodd" id="Asia-Pacific" stroke="none" stroke-width="1"><g id="Pakistan" transform="translate(-400.000000, -601.000000)"><g transform="translate(400.000000, 601.000000)"><rect d="M0,0 L0,120 L180,120 L180,0 L0,0 Z M0,0" fill="#57BB63" height="120" id="Oval-15-copy-3" width="180" x="0" y="0"/><rect d="M0,0 L0,120 L45,120 L45,0 L0,0 Z M0,0" fill="#FFFFFF" height="120" id="Oval-15-copy-2" width="45" x="0" y="0"/><path d="M137.254314,86.0718573 C131.127913,92.7867911 122.305981,97 112.5,97 C93.99846,97 79,82.00154 79,63.5 C79,50.6935839 86.185982,39.5655448 96.745686,33.9281427 C91.3130344,39.8826827 88,47.8044408 88,56.5 C88,75.00154 102.99846,90 121.5,90 C127.195124,90 132.558322,88.5788587 137.254314,86.0718573 L137.254314,86.0718573 Z M127.999999,51.4127713 L121.201626,54.9999998 L122.5,47.4021285 L117,42.0212863 L124.600814,40.9127708 L127.999999,34 L131.399187,40.9127725 L139,42.0212918 L133.499998,47.4021299 L134.798372,55 L127.999999,51.4127713 Z M127.999999,51.4127713" fill="#FFFFFF" id="Oval-148"/></g></g></g></svg>