<?xml version="1.0" ?><svg height="120px" version="1.1" viewBox="0 0 180 120" width="180px" xmlns="http://www.w3.org/2000/svg" xmlns:sketch="http://www.bohemiancoding.com/sketch/ns" xmlns:xlink="http://www.w3.org/1999/xlink"><title/><defs/><g fill="none" fill-rule="evenodd" id="Asia-Pacific" stroke="none" stroke-width="1"><g id="MY" transform="translate(-1000.000000, -601.000000)"><g transform="translate(1000.000000, 601.000000)"><rect d="M0,0 L0,120 L180,120 L180,0 L0,0 Z M0,0" fill="#FFFFFF" height="120" id="Rectangle-40-copy-4" width="180" x="0" y="0"/><rect d="M0,102 L0,111 L180,111 L180,102 L0,102 Z M0,102" fill="#CA4638" height="9" id="Rectangle-40-copy-4" width="180" x="0" y="102"/><rect d="M0,85 L0,94 L180,94 L180,85 L0,85 Z M0,85" fill="#CA4638" height="9" id="Rectangle-40-copy-3" width="180" x="0" y="85"/><rect d="M0,68 L0,77 L180,77 L180,68 L0,68 Z M0,68" fill="#CA4638" height="9" id="Rectangle-40-copy-2" width="180" x="0" y="68"/><rect d="M0,51 L0,60 L180,60 L180,51 L0,51 Z M0,51" fill="#CA4638" height="9" id="Rectangle-40-copy-2" width="180" x="0" y="51"/><rect d="M0,34 L0,43 L180,43 L180,34 L0,34 Z M0,34" fill="#CA4638" height="9" id="Rectangle-40-copy-2" width="180" x="0" y="34"/><rect d="M0,17 L0,26 L180,26 L180,17 L0,17 Z M0,17" fill="#CA4638" height="9" id="Rectangle-40-copy" width="180" x="0" y="17"/><rect d="M0,0 L0,9 L180,9 L180,0 L0,0 Z M0,0" fill="#CA4638" height="9" id="Rectangle-40-copy" width="180" x="0" y="0"/><rect d="M0,0 L0,60 L90,60 L90,0 L0,0 Z M0,0" fill="#346DA6" height="60" id="Oval-38-copy-3" width="90" x="0" y="0"/><path d="M52.6957655,22.0053609 L54.7548389,14.3867893 L56.8139123,22.0053609 L56.8139123,22.0053609 L62.0043573,16.0604724 L60.5477835,23.6414583 L67.6068114,20.5168657 L62.9818861,26.9115887 L70.8683849,27.2040825 L63.9082675,30.9241877 L70.8683849,34.6442929 L62.9818861,34.9367867 L62.9818861,34.9367867 L67.6068114,41.3315098 L60.5477835,38.2069172 L62.0043573,45.787903 L56.8139123,39.8430146 L56.8139123,39.8430146 L54.7548389,47.4615862 L52.6957655,39.8430146 L47.5053206,45.787903 L48.9618944,38.2069172 L48.9618944,38.2069172 L41.9028665,41.3315098 L46.5277918,34.9367867 L38.6412929,34.6442929 L45.6014103,30.9241877 L45.6014103,30.9241877 L38.6412929,27.2040825 L46.5277918,26.9115887 L41.9028665,20.5168657 L48.9618944,23.6414583 L47.5053206,16.0604724 L52.6957655,22.0053609 L52.6957655,22.0053609 Z M56.3315647,49.6496713 C52.3676128,52.6799782 47.4131838,54.4801444 42.0383033,54.4801444 C29.028707,54.4801444 18.4823466,43.933784 18.4823466,30.9241877 C18.4823466,17.9145914 29.028707,7.36823105 42.0383033,7.36823105 C47.4131838,7.36823105 52.3676128,9.16839723 56.3315647,12.1987041 C53.4996612,10.7713511 50.2996791,9.96750903 46.9119495,9.96750903 C35.3378949,9.96750903 25.9552708,19.3501331 25.9552708,30.9241877 C25.9552708,42.4982424 35.3378949,51.8808664 46.9119495,51.8808664 C50.2996791,51.8808664 53.4996612,51.0770244 56.3315647,49.6496713 L56.3315647,49.6496713 Z M56.3315647,49.6496713" fill="#E5B731" id="Oval-61"/></g></g></g></svg>