<?xml version="1.0" ?><svg height="120px" version="1.1" viewBox="0 0 180 120" width="180px" xmlns="http://www.w3.org/2000/svg" xmlns:sketch="http://www.bohemiancoding.com/sketch/ns" xmlns:xlink="http://www.w3.org/1999/xlink"><title/><defs/><g fill="none" fill-rule="evenodd" id="Africa,-Middle-East-and-India" stroke="none" stroke-width="1"><g id="Africa,-Middle-Eest-and-India" transform="translate(-800.000000, -1.000000)"><g id="Central-African" transform="translate(800.000000, 0.000000)"><rect d="M0.00549314351,0.991735537 L0.00549314351,120 L180.005493,120 L180.005493,0.991735537 L0.00549314351,0.991735537 Z M0.00549314351,0.991735537" fill="#E5B731" height="119.008264" id="Rectangle-3-copy-2" width="180" x="0.00549314351" y="0.991735537"/><rect d="M0.00549331208,61 L0.00549331208,91 L180.005493,91 L180.005493,61 L0.00549331208,61 Z M0.00549331208,61" fill="#57BB63" height="30" id="Rectangle-3-copy-3" width="180" x="0.00549331208" y="61"/><rect d="M0,31 L0,61 L180,61 L180,31 L0,31 Z M0,31" fill="#FFFFFF" height="30" id="Rectangle-3-copy-4" width="180" x="0" y="31"/><rect d="M0.00274665604,0.991735537 L0.00274665604,30.9917355 L180.002747,30.9917355 L180.002747,0.991735537 L0.00274665604,0.991735537 Z M0.00274665604,0.991735537" fill="#346DA6" height="30" id="Rectangle-3" width="180" x="0.00274665604" y="0.991735537"/><rect d="M75,0.991735537 L75,120.991736 L105,120.991736 L105,0.991735537 L75,0.991735537 Z M75,0.991735537" fill="#CA4638" height="120" id="Rectangle-3-copy" width="30" x="75" y="0.991735537"/><polygon d="M22.8729279,21.5702479 L15.8584749,25.4010375 L17.1981159,17.2872957 L11.5233034,11.5411119 L19.3657024,10.3573318 L22.8729283,2.97520661 L26.3801564,10.3573337 L34.2225548,11.5411178 L28.54774,17.2872972 L29.8873812,25.4010377 L22.8729279,21.5702479 Z M22.8729279,21.5702479" fill="#E5B731" id="Star-1" points="22.8729279 21.5702479 15.8584749 25.4010375 17.1981159 17.2872957 11.5233034 11.5411119 19.3657024 10.3573318 22.8729283 2.97520661 26.3801564 10.3573337 34.2225548 11.5411178 28.54774 17.2872972 29.8873812 25.4010377 "/></g></g></g></svg>