<?xml version="1.0" ?><svg height="120px" version="1.1" viewBox="0 0 180 120" width="180px" xmlns="http://www.w3.org/2000/svg" xmlns:sketch="http://www.bohemiancoding.com/sketch/ns" xmlns:xlink="http://www.w3.org/1999/xlink"><title/><defs/><g fill="none" fill-rule="evenodd" id="Asia-Pacific" stroke="none" stroke-width="1"><g id="KH" transform="translate(-1000.000000, -201.000000)"><g transform="translate(1000.000000, 201.000000)"><rect d="M0,0 L0,120 L180,120 L180,0 L0,0 Z M0,0" fill="#346DA6" height="120" id="1024-copy" width="180" x="0" y="0"/><rect d="M0,20 L0,100 L180,100 L180,20 L0,20 Z M0,20" fill="#CA4638" height="80" id="1024-copy-2" transform="translate(90.000000, 60.000000) scale(1, -1) translate(-90.000000, -60.000000) " width="180" x="0" y="20"/><g id="temple" stroke="#000000" transform="translate(41.000000, 27.000000)"><path d="M48.4822952,1.5804094 C48.4822952,1.5804094 48.4278314,0.016993113 49.331382,0 C50.2349325,0.016988361 50.1804688,1.5804094 50.1804688,1.5804094 L50.1804688,1.5804094 L48.4822952,1.5804094 L48.4822952,1.5804094 Z M48.4822952,1.5804094" fill="#FFFFFF" id="path4053" stroke-width="0.96000004"/><path d="M86.2413269,42.7847948 L86.2413269,34.9843358 C86.493953,33.994936 87.3275535,33.1196006 87.9543195,32.944238 L87.9543195,25.6287052 C87.0067386,25.6287052 86.5426919,26.873023 86.5426919,26.873023 L84.9313788,34.024289 L84.9313788,42.7247938 L84.9313788,42.7247938 L86.2413269,42.7847948 L86.2413269,42.7847948 Z M86.2413269,42.7847948" fill="#FFFFFF" id="path5298" stroke-width="0.96000004"/><path d="M71.8777985,27.3372855 L69.5541557,27.3372855 L69.5541557,32.3000729 L71.8777985,32.3000729 L71.8777985,32.3000729 L71.8777985,27.3372855 L71.8777985,27.3372855 Z M71.8777985,27.3372855" fill="#FFFFFF" id="path4002" stroke-width="1.03371773"/><path d="M28.5482274,27.3372855 L71.4797941,27.3372855 L71.4797941,43.9836839 L28.5482274,43.9836839 L28.5482274,43.9836839 L28.5482274,27.3372855 L28.5482274,27.3372855 Z M28.5482274,27.3372855" fill="#FFFFFF" id="rect4016" stroke-width="0.96000004"/><path d="M13.1754166,42.849121 L13.1754166,35.0786637 C12.9227904,34.0892639 12.0891899,33.2139285 11.4624239,33.0385658 L11.4624239,26.198232 L12.8740515,26.9673509 L14.4853646,34.1186169 L14.4853646,42.849121 L14.4853646,42.849121 L13.1754166,42.849121 L13.1754166,42.849121 Z M13.1754166,42.849121" fill="#FFFFFF" id="path3912" stroke-width="0.96000004"/><path d="M13.1754166,42.7847948 L13.1754166,34.9843358 C12.9227904,33.994936 12.0891899,33.1196006 11.4624239,32.944238 L11.4624239,25.6287052 C12.4100048,25.6287052 12.8740515,26.873023 12.8740515,26.873023 L14.4853646,34.024289 L14.4853646,42.7247938 L14.4853646,42.7247938 L13.1754166,42.7847948 L13.1754166,42.7847948 Z M13.1754166,42.7847948" fill="#FFFFFF" id="path3963" stroke-width="0.96000004"/><path d="M11.4624239,44.7365584 C12.1265263,44.3956626 12.8840582,43.6023275 13.1317847,42.7145087 L85.9701957,42.7145087 C86.2179222,43.6023275 86.9754541,44.3956626 87.6395565,44.7365584 C87.6395565,44.7365584 86.9754541,44.3956626 87.6395565,44.7365584 L11.4624239,44.7365584 L11.4624239,44.7365584 Z M11.4624239,44.7365584" fill="#FFFFFF" id="path3923" stroke-width="0.96000004"/><rect d="M68.9846289,36.4497141 L68.9846289,42.7206197 L70.3376,42.7206197 L70.3376,36.4497141 L68.9846289,36.4497141 Z M68.9846289,36.4497141" fill="#FFFFFF" height="6.27090561" id="rect3953" stroke-width="0.96000004" width="1.35297102" x="68.9846289" y="36.4497141"/><rect d="M28.5482274,33.0325534 L28.5482274,34.967671 L71.4797941,34.967671 L71.4797941,33.0325534 L28.5482274,33.0325534 Z M28.5482274,33.0325534" fill="#FFFFFF" height="1.93511759" id="rect4008" stroke-width="0.96000004" width="42.9315667" x="28.5482274" y="33.0325534"/><rect d="M28.5482274,30.7544462 L28.5482274,32.4609737 L71.4797941,32.4609737 L71.4797941,30.7544462 L28.5482274,30.7544462 Z M28.5482274,30.7544462" fill="#FFFFFF" height="1.70652745" id="rect4010" stroke-width="0.96000004" width="42.9315667" x="28.5482274" y="30.7544462"/><rect d="M28.5482274,27.9068123 L28.5482274,29.5620117 L71.4797941,29.5620117 L71.4797941,27.9068123 L28.5482274,27.9068123 Z M28.5482274,27.9068123" fill="#FFFFFF" height="1.65519939" id="rect4014" stroke-width="0.945452592" width="42.9315667" x="28.5482274" y="27.9068123"/><path d="M71.8777985,27.3372855 L69.5541557,27.3372855 L69.5541557,32.3000729 L71.8777985,32.3000729 L71.8777985,32.3000729 L71.8777985,27.3372855 L71.8777985,27.3372855 Z M71.8777985,27.3372855" fill="#FFFFFF" id="path3968" stroke-width="1.03371773"/><path d="M87.2238462,44.9040049 C86.5712312,44.6070056 85.6210001,43.7944154 85.6210001,42.9767834 L85.6210001,33.2647204 L86.0681363,32.4630266 L69.6490944,32.4630266 L70.2897929,33.2647204 L70.2897929,42.9767834 C70.2897929,43.7944154 69.6372439,44.6070056 68.9846289,44.9040049 C68.9846289,44.9040049 69.6372439,44.6070056 68.9846289,44.9040049 L87.2238462,44.9040049 L87.2238462,44.9040049 Z M87.2238462,44.9040049" fill="#FFFFFF" id="path3933" stroke-width="0.96000004"/><rect d="M39.9387631,36.4497141 L39.9387631,42.7206197 L41.2917341,42.7206197 L41.2917341,36.4497141 L39.9387631,36.4497141 Z M39.9387631,36.4497141" fill="#FFFFFF" height="6.27090561" id="rect3951" stroke-width="0.96000004" width="1.35297102" x="39.9387631" y="36.4497141"/><rect d="M58.1636201,36.4497141 L58.1636201,42.7206197 L59.5165911,42.7206197 L59.5165911,36.4497141 L58.1636201,36.4497141 Z M58.1636201,36.4497141" fill="#FFFFFF" height="6.27090561" id="rect3955" stroke-width="0.96000004" width="1.35297102" x="58.1636201" y="36.4497141"/><path d="M60.1667488,44.9040049 C59.4022166,44.6070056 58.2890327,43.7944154 58.2890327,42.9767834 L58.2890327,33.7399193 L59.2844141,32.4630266 L39.3745063,32.4630598 L40.3286962,33.7399193 L40.3286962,42.9767834 C40.3286962,43.7944154 39.5642418,44.6070056 38.7997095,44.9040049 C38.7997095,44.9040049 39.5642418,44.6070056 38.7997095,44.9040049 L60.1667488,44.9040049 L60.1667488,44.9040049 Z M60.1667488,44.9040049" fill="#FFFFFF" id="path3937" stroke-width="0.96000004"/><rect d="M43.3559237,36.4497141 L43.3559237,42.7206197 L44.7088948,42.7206197 L44.7088948,36.4497141 L43.3559237,36.4497141 Z M43.3559237,36.4497141" fill="#FFFFFF" height="6.27090561" id="rect3939" stroke-width="0.96000004" width="1.35297102" x="43.3559237" y="36.4497141"/><rect d="M54.7464594,36.4497141 L54.7464594,42.7206197 L56.0994304,42.7206197 L56.0994304,36.4497141 L54.7464594,36.4497141 Z M54.7464594,36.4497141" fill="#FFFFFF" height="6.27090561" id="rect3941" stroke-width="0.96000004" width="1.35297102" x="54.7464594" y="36.4497141"/><path d="M39.3692363,21.6420177 L39.3692363,27.2107549 L39.3692363,29.8763238 L39.3692363,32.1557936 L59.7497456,32.1557936 L59.7497456,29.8911738 L59.7792964,21.6420177 C58.9456747,21.9720339 58.7993188,22.7334902 58.7993188,22.7334902 L58.7993188,27.2107549 L40.4081599,27.2107549 L40.4081599,22.7334902 C40.4081599,22.7334902 40.202858,21.9720339 39.3692363,21.6420177 C39.3692363,21.6420177 40.202858,21.9720339 39.3692363,21.6420177 L39.3692363,21.6420177 L39.3692363,21.6420177 Z M39.3692363,21.6420177" fill="#FFFFFF" id="rect4125" stroke-width="0.96000004"/><path d="M56.6261852,44.8653575 C55.9601494,44.5683582 54.5091129,43.7557681 54.5091129,42.9381361 L54.5091129,32.6008657 C54.6515312,32.0237652 55.428112,31.683183 55.9279743,31.323973 L42.4137334,31.323973 C43.0569241,31.6671474 43.7738775,31.9520505 44.0301371,32.6008657 L44.0301371,42.9381361 C44.0301371,43.7557681 42.882906,44.5683582 42.2168702,44.8653575 C42.2168702,44.8653575 42.882906,44.5683582 42.2168702,44.8653575 L56.6261852,44.8653575 L56.6261852,44.8653575 Z M56.6261852,44.8653575" fill="#FFFFFF" id="path3935" stroke-width="0.96000004"/><path d="M58.8658306,30.9527961 L58.8657316,23.5066287 L57.013242,23.5065979 L57.013242,22.7810713 L42.3609444,22.7810713 L42.3609444,23.5065979 L40.5082898,23.5065289 L40.5083559,30.9527961 L40.5083559,30.9527961 L58.8658306,30.9527961 L58.8658306,30.9527961 Z M58.8658306,30.9527961" fill="#FFFFFF" id="path3868" stroke-width="0.96000004"/><rect d="M28.5482274,36.4497141 L28.5482274,42.7206197 L29.9011984,42.7206197 L29.9011984,36.4497141 L28.5482274,36.4497141 Z M28.5482274,36.4497141" fill="#FFFFFF" height="6.27090561" id="rect3943" stroke-width="0.96000004" width="1.35297102" x="28.5482274" y="36.4497141"/><path d="M12.0319507,44.9040049 C12.6845657,44.6070056 13.6347968,43.7944154 13.6347968,42.9767834 L13.6347968,33.2647204 L13.1876606,32.4630266 L29.6067025,32.4630266 L28.966004,33.2647204 L28.966004,42.9767834 C28.966004,43.7944154 29.618553,44.6070056 30.271168,44.9040049 C30.271168,44.9040049 29.618553,44.6070056 30.271168,44.9040049 L12.0319507,44.9040049 L12.0319507,44.9040049 Z M12.0319507,44.9040049" fill="#FFFFFF" id="path3324" stroke-width="0.96000004"/><rect d="M13.7405311,25.6287052 L13.7405311,31.2929063 L15.2562859,31.2929063 L15.2562859,25.6287052 L13.7405311,25.6287052 Z M13.7405311,25.6287052" fill="#FFFFFF" height="5.66420111" id="rect4007" stroke-width="0.96000004" width="1.5157548" x="13.7405311" y="25.6287052"/><rect d="M13.7405311,24.4896516 L13.7405311,25.6828574 L15.2562859,25.6828574 L15.2562859,24.4896516 L13.7405311,24.4896516 Z M13.7405311,24.4896516" fill="#FFFFFF" height="1.19320574" id="rect4009" stroke-width="0.96000004" width="1.5157548" x="13.7405311" y="24.4896516"/><path d="M27.0863742,44.9040049 C26.4337592,44.6070056 25.4835281,43.7944154 25.4835281,42.9767834 L25.4835281,33.739974 L26.848817,32.4630266 L15.6866686,32.4630598 L17.0519976,33.739974 L17.0519976,42.9767834 C17.0519976,43.7944154 16.1017264,44.6070056 15.4491114,44.9040049 C15.4491114,44.9040049 16.1017264,44.6070056 15.4491114,44.9040049 L27.0863742,44.9040049 L27.0863742,44.9040049 Z M27.0863742,44.9040049" fill="#FFFFFF" id="path3905" stroke-width="0.96000004"/><path d="M25.6678209,44.5867772 C25.0152059,44.2897779 24.0649748,43.4771878 24.0649748,42.6595558 L24.0649748,34.3095007 L24.9586956,33.0325534 L17.8669185,33.0325534 L18.7605779,34.3095007 L18.7605779,42.6595558 C18.7605779,43.4771878 17.8103068,44.2897779 17.1576918,44.5867772 C17.1576918,44.5867772 17.8103068,44.2897779 17.1576918,44.5867772 L25.6678209,44.5867772 L25.6678209,44.5867772 Z M25.6678209,44.5867772" fill="#FFFFFF" id="path3901" stroke-width="0.96000004"/><path d="M83.4695256,44.9040049 C82.816913,44.6070056 81.8666819,43.7944154 81.8666819,42.9767834 L81.8666819,33.739974 L83.2319684,32.4630266 L72.06982,32.4630266 L73.435149,33.739974 L73.435149,42.9767834 C73.435149,43.7944154 72.4848778,44.6070056 71.8322629,44.9040049 C71.8322629,44.9040049 72.4848778,44.6070056 71.8322629,44.9040049 L83.4695256,44.9040049 L83.4695256,44.9040049 Z M83.4695256,44.9040049" fill="#FFFFFF" id="path3913" stroke-width="0.96000004"/><path d="M82.0509723,44.5867772 C81.3983574,44.2897779 80.4481286,43.4771878 80.4481286,42.6595558 L80.4481286,34.3095007 L81.341847,33.0325534 L74.2499686,33.0325534 L75.1437294,34.3095007 L75.1437294,42.6595558 C75.1437294,43.4771878 74.1934582,44.2897779 73.5408432,44.5867772 C73.5408432,44.5867772 74.1934582,44.2897779 73.5408432,44.5867772 L82.0509723,44.5867772 L82.0509723,44.5867772 Z M82.0509723,44.5867772" fill="#FFFFFF" id="path3903" stroke-width="0.96000004"/><path d="M19.4357989,33.03257 L22.824252,33.0325534 L22.824245,44.5867939 L19.4358343,44.5867939 L19.4358343,44.5867939 L19.4357989,33.03257 L19.4357989,33.03257 Z M19.4357989,33.03257" fill="#FFFFFF" id="path3887" stroke-width="0.96000004"/><path d="M53.8723578,44.5867772 C53.2197428,44.2897779 52.2694457,43.4772401 52.2694457,42.6596081 L52.2694457,33.8342139 L52.8053452,33.0325534 L46.1315167,33.0325534 L46.6673903,33.8343018 L46.6673903,42.6595558 C46.6673903,43.4771878 45.7171191,44.2897779 45.0645041,44.5867772 C45.0645041,44.5867772 45.7171191,44.2897779 45.0645041,44.5867772 L53.8723578,44.5867772 L53.8723578,44.5867772 Z M53.8723578,44.5867772" fill="#FFFFFF" id="path3897" stroke-width="0.96000004"/><path d="M47.912138,33.03257 L51.2944089,33.0325534 L51.2944089,44.580564 L47.912138,44.580564 L47.912138,44.580564 L47.912138,33.03257 L47.912138,33.03257 Z M47.912138,33.03257" fill="#FFFFFF" id="path3891" stroke-width="0.980978016"/><path d="M76.3884771,33.0325534 L79.7769302,33.0325534 L79.7769232,44.5867939 L76.3885125,44.5867939 L76.3885125,44.5867939 L76.3884771,33.0325534 L76.3884771,33.0325534 Z M76.3884771,33.0325534" fill="#FFFFFF" id="path3893" stroke-width="0.96000004"/><rect d="M46.2035577,28.4763391 L46.2035577,30.996462 L52.9916276,30.996462 L52.9916276,28.4763391 L46.2035577,28.4763391 Z M46.2035577,28.4763391" fill="#FFFFFF" height="2.52012285" id="rect4019" stroke-width="0.96000004" width="6.78806992" x="46.2035577" y="28.4763391"/><path d="M53.0177405,30.4885389 C53.0258515,29.7277668 55.2199592,29.6936262 56.3495701,29.0458659 L42.786397,29.0458659 C43.9160079,29.6936262 46.0592805,29.7469031 46.0592805,30.4885389 L46.5182508,31.9642335 L52.1328193,32.1914783 L52.1328193,32.1914783 L53.0177405,30.4885389 L53.0177405,30.4885389 Z M53.0177405,30.4885389" fill="#FFFFFF" id="path3876" stroke-width="0.96000004"/><path d="M55.6703257,22.5130903 C55.6703257,20.6508238 55.7477807,19.9334374 56.3155582,19.9334374 L56.3155606,25.8564544 C54.9230434,26.3655967 53.9292818,28.1560773 53.9292818,28.1560773 L45.1726758,28.1559752 C45.1726758,28.1559752 44.1789142,26.3655967 42.786397,25.8564544 L42.786397,19.9334374 C43.4865861,19.9334374 43.4911768,20.6829995 43.4911768,22.5130879 C43.4911768,22.5130879 43.4911768,20.6829995 43.4911768,22.5130879 L55.6703257,22.5130903 L55.6703257,22.5130903 Z M55.6703257,22.5130903" fill="#FFFFFF" id="path4078" stroke-width="0.96000004"/><path d="M45.0645041,23.3505981 C46.192606,24.7153812 46.0879273,27.0305598 46.0750063,28.3953429 L52.6178167,28.3953429 C52.6048957,27.0305598 52.500217,24.7153812 53.6283189,23.3505981 C53.6283189,23.3505981 52.500217,24.7153812 53.6283189,23.3505981 L45.0645041,23.3505981 L45.0645041,23.3505981 Z M45.0645041,23.3505981" fill="#FFFFFF" id="path4023" stroke-width="0.96000004"/><rect d="M14.8795846,36.4497141 L14.8795846,42.7206197 L16.2325557,42.7206197 L16.2325557,36.4497141 L14.8795846,36.4497141 Z M14.8795846,36.4497141" fill="#FFFFFF" height="6.27090561" id="rect3927" stroke-width="0.96000004" width="1.35297102" x="14.8795846" y="36.4497141"/><path d="M11.4624239,44.7365584 C12.1265263,44.3956626 12.8840888,43.6024059 13.1318154,42.7145871 L85.9701957,42.7145087 C86.2179222,43.6023275 86.9754541,44.3956626 87.6395565,44.7365584 C87.6395565,44.7365584 86.9754541,44.3956626 87.6395565,44.7365584 L11.4624239,44.7365584 L11.4624239,44.7365584 Z M11.4624239,44.7365584" id="path3929" stroke-width="0.96000004"/><rect d="M26.8396471,36.4497141 L26.8396471,42.7206197 L28.1926181,42.7206197 L28.1926181,36.4497141 L26.8396471,36.4497141 Z M26.8396471,36.4497141" fill="#FFFFFF" height="6.27090561" id="rect3931" stroke-width="0.96000004" width="1.35297102" x="26.8396471" y="36.4497141"/><path d="M13.1710043,24.0790106 L13.1710349,32.4724822 L14.1183494,32.4724822 L14.1183494,24.0577953 C13.7769435,23.8841149 13.4563573,23.8573018 13.1710043,24.0790129 C13.1710043,24.0790129 13.4563573,23.8573018 13.1710043,24.0790129 L13.1710043,24.0790106 L13.1710043,24.0790106 Z M13.1710043,24.0790106" fill="#FFFFFF" id="path3971" stroke-width="0.96000004"/><path d="M13.1710043,29.0458659 C14.3451666,29.6508606 15.5080702,30.3507573 15.8024891,32.0084935 L13.1710043,32.0084935 L13.1710043,32.0084935 L13.1710043,29.0458659 L13.1710043,29.0458659 Z M13.1710043,29.0458659" fill="#FFFFFF" id="path3973" stroke-width="0.96000004"/><path d="M27.4091738,27.3372855 L29.7328166,27.3372855 L29.7328166,32.3000729 L27.4091738,32.3000729 L27.4091738,32.3000729 L27.4091738,27.3372855 L27.4091738,27.3372855 Z M27.4091738,27.3372855" fill="#FFFFFF" id="rect3864" stroke-width="1.03371773"/><path d="M29.1177542,26.8714342 L29.1177754,32.3482655 L29.8856204,32.3482655 L29.8856204,26.8575892 C29.6457361,26.7442614 29.3182556,26.7267646 29.1177542,26.8714413 C29.1177542,26.8714413 29.3182556,26.7267646 29.1177542,26.8714413 L29.1177542,26.8714342 L29.1177542,26.8714342 Z M29.1177542,26.8714342" fill="#FFFFFF" id="path3977" stroke-width="0.96000004"/><path d="M43.9551682,22.6062798 L43.9551682,20.5018305 C43.9253957,19.4495596 42.9142757,19.3734636 42.8845056,18.606293 C42.8845056,18.606293 42.7539544,17.4556891 43.0548714,16.9304731 C43.4640016,18.4691244 44.2078038,18.1864666 44.2078038,17.5538367 C44.2078038,17.0016318 43.7864057,16.4882008 42.922125,15.1473581 C42.6459511,14.7189022 42.8168639,13.3759378 43.2039035,12.8959132 C43.3540814,14.0633558 43.5257417,14.6217596 44.0231825,14.6217596 C44.3265989,14.6217596 44.5744079,14.4224921 44.5744079,13.837824 C44.5744079,13.0940545 44.0745551,12.7184383 43.8288586,12.0415911 C43.542131,11.2517155 43.7395436,10.4465622 44.2158982,9.99653936 C44.4201037,11.1481483 44.3593611,11.6073377 44.8668674,11.6073377 C45.8904557,11.2810068 44.8671032,9.78765617 44.6483946,9.41102778 C44.3967658,8.97183944 44.9867259,8.0957461 44.9867259,8.0957461 C45.3119523,9.11830525 45.4165886,9.20161237 45.7675886,9.1068387 C46.2103958,8.9872739 46.1532818,8.3252244 45.6129284,7.79024072 C45.2717064,7.45240518 45.3078921,6.94946654 45.6742252,6.54559499 C46.0420059,7.27003097 46.5128408,7.22601567 46.5581514,6.7958181 L46.2624876,5.12574104 L52.7718874,5.12574104 L52.4486439,6.74096589 C52.3561199,7.20330592 52.9753054,7.30364654 53.3601498,6.54559499 C53.7264828,6.94946654 53.7626686,7.45240518 53.4214466,7.79024072 C52.8810931,8.3252244 52.8239792,8.9872739 53.2667864,9.1068387 C53.6177864,9.20161237 53.7224226,9.11831475 54.0476491,8.0957461 C54.0476491,8.0957461 54.5769325,8.69290006 54.3859804,9.41102778 C54.1672718,9.78765617 53.1439193,11.2810068 54.1675075,11.6073377 C54.6750139,11.6073377 54.6142712,11.1481483 54.8184767,9.99653936 C55.2948313,10.4465622 55.4922439,11.2517155 55.2055163,12.0415911 C54.9598199,12.7184383 54.459967,13.0940545 54.459967,13.837824 C54.459967,14.4224921 54.7077761,14.6217596 55.0111925,14.6217596 C55.5086333,14.6217596 55.6802935,14.0633558 55.8304715,12.8959132 C56.2175111,13.3759378 56.3884239,14.7189022 56.11225,15.1473581 C55.2479693,16.4882008 54.8265712,17.0016318 54.8265712,17.5538367 C54.8265712,18.1864666 55.5703733,18.4691244 55.9795035,16.9304731 C56.2804206,17.4556891 56.1498693,18.606293 56.1498693,18.606293 C56.1200992,19.3734636 55.1089793,19.4495596 55.0792068,20.5018305 L55.0792068,22.6062798 L55.0792068,22.6062798 L43.9551682,22.6062798 L43.9551682,22.6062798 Z M43.9551682,22.6062798" fill="#FFFFFF" id="path4132" stroke-width="0.96000004"/><path d="M46.2035577,6 L52.6653408,6" id="path5748" stroke-width="0.8"/><path d="M48.8086528,7.87159329 L47.912138,7.40630465 L47.912138,6.07675038 C48.2786384,6.18780911 48.6900392,6.23315735 48.7302593,6.82168882 C48.8578633,5.98158704 49.0879791,6.02268937 49.4494408,5.69526782 C49.8109025,6.02268937 50.0410184,5.98158704 50.1686224,6.82168882 C50.2088424,6.23315735 50.6202432,6.18780911 50.9867436,6.07675038 L50.9867436,7.40630465 L50.0902289,7.87159329 L50.0902289,7.87159329 L48.8086528,7.87159329 L48.8086528,7.87159329 Z M48.8086528,7.87159329" fill="#FFFFFF" id="path4031" stroke-width="0.96000004"/><path d="M45.6340309,9 L53.5265826,9" id="path4060" stroke-width="0.8"/><path d="M48.8313991,10.0303192 L47.3426112,8.99902349 L47.3426112,7.77372072 C47.8645665,7.89550232 48.4504711,7.94522951 48.5077501,8.59058765 C48.6894807,7.66936704 49.0172017,7.19335792 49.5319844,6.83432139 C50.0467671,7.19335792 50.3744881,7.66936704 50.5562187,8.59058765 C50.6134977,7.94522951 51.1994023,7.89550232 51.7213575,7.77372072 L51.7213575,8.99902349 L50.2325696,10.0303192 L50.2325696,10.0303192 L48.8313991,10.0303192 L48.8313991,10.0303192 Z M48.8313991,10.0303192" fill="#FFFFFF" id="path4029" stroke-width="0.96000004"/><path d="M45.0645041,11 L54.4595569,11" id="path4058" stroke-width="0.8"/><path d="M49.0545145,13.8076575 L47.3426112,12.2925832 L47.3426112,10.4924964 C47.9427902,10.6714064 48.6164984,10.7444612 48.6823623,11.6925543 C48.8913284,10.3391901 49.2681632,9.63988742 49.8600921,9.11242851 C50.452021,9.63988742 50.8288558,10.3391901 51.0378218,11.6925543 C51.1036857,10.7444612 51.777394,10.6714064 52.3775729,10.4924964 L52.3775729,12.2925832 L50.6656696,13.8076575 L50.6656696,13.8076575 L49.0545145,13.8076575 L49.0545145,13.8076575 Z M49.0545145,13.8076575" fill="#FFFFFF" id="path4025" stroke-width="0.96000004"/><path d="M52.1917444,15.3772231 L50.6435885,17.5349778 L48.8907672,17.5349778 L47.3426112,15.3772231 L47.3426112,15.3772231 L52.1917444,15.3772231 L52.1917444,15.3772231 Z M52.1917444,15.3772231" fill="#FFFFFF" id="path4037" stroke-width="0.96000004"/><path d="M46.2035577,19.3639106 C46.9779009,19.7904182 47.2638693,20.6400478 47.3465894,22.2351479 L51.7037025,22.2351479 C51.7864226,20.6400478 52.0723863,19.7904182 52.8467295,19.3639106 C52.8467295,19.3639106 52.0723863,19.7904182 52.8467295,19.3639106 L46.2035577,19.3639106 L46.2035577,19.3639106 Z M46.2035577,19.3639106" fill="#FFFFFF" id="path4033" stroke-width="0.96000004"/><path d="M43.9254505,14 L55.0680501,14" id="path4062" stroke-width="0.8"/><path d="M43.9254505,18 L55.4037335,18" id="path4064" stroke-width="0.8"/><path d="M52.9808388,15.5242316 L52.9808388,13.356626 C52.2452797,13.5606764 51.7687435,13.999544 51.5564978,14.5950585 C51.5564978,13.8755171 50.6169053,12.2162745 49.592098,11.3905356 C48.5643694,12.3148617 47.6086917,13.8160008 47.6278987,14.5950585 C47.4531072,14.0279181 46.9391168,13.5606764 46.2035577,13.356626 L46.2035577,15.5242886 L46.2035577,15.5242886 L52.9808388,15.5242316 L52.9808388,15.5242316 Z M52.9808388,15.5242316" fill="#FFFFFF" id="path4017" stroke-width="0.96000004"/><path d="M53.0633093,18.9415396 L53.0632315,16.7737867 C52.2569159,16.9778371 51.7345433,17.4167047 51.501881,18.0122192 C51.501881,17.2926777 50.4720162,15.6334352 49.34863,14.8076963 C48.2220418,15.7320224 47.1743282,17.2331615 47.1953813,18.0122192 C47.0037785,17.4450788 46.4403464,16.9778371 45.6340309,16.7737867 L45.6340309,18.9414493 L45.6340309,18.9414493 L53.0633093,18.9415396 L53.0633093,18.9415396 Z M53.0633093,18.9415396" fill="#FFFFFF" id="path4015" stroke-width="0.96000004"/><path d="M54.3073747,23.3742502 L54.3073747,20.8741171 C53.3042148,21.1349965 52.6805093,21.8826769 52.3648557,22.3185745 C52.3648557,20.9646805 50.8478492,18.9008512 49.6859382,18.224857 C48.493854,18.9184075 47.0070231,21.0513235 47.0070231,22.3185745 C46.6830251,21.8853808 46.067664,21.1349965 45.0645041,20.8741171 L45.0645041,23.3742502 L45.0645041,23.3742502 L54.3073747,23.3742502 L54.3073747,23.3742502 Z M54.3073747,23.3742502" fill="#FFFFFF" id="path4013" stroke-width="0.96000004"/><path d="M53.7903566,29.1097552 L53.7903566,26.5392451 C52.9051241,26.8887278 52.6405319,27.7482391 52.3619836,28.3321825 C52.4713167,25.7248967 50.9052388,22.9224136 49.7121925,22.2115445 C48.5191486,22.9224136 46.9232983,25.7849001 47.0624038,28.3321825 C46.776492,27.7518624 46.5192634,26.8887278 45.6340309,26.5392451 L45.6340309,29.1098004 L45.6340309,29.1098004 L53.7903566,29.1097552 L53.7903566,29.1097552 Z M53.7903566,29.1097552" fill="#FFFFFF" id="path4011" stroke-width="0.96000004"/><rect d="M71.2627361,36.4497141 L71.2627361,42.7206197 L72.6157071,42.7206197 L72.6157071,36.4497141 L71.2627361,36.4497141 Z M71.2627361,36.4497141" fill="#FFFFFF" height="6.27090561" id="rect4066" stroke-width="0.96000004" width="1.35297102" x="71.2627361" y="36.4497141"/><rect d="M82.6532717,36.4497141 L82.6532717,42.7206197 L84.0062427,42.7206197 L84.0062427,36.4497141 L82.6532717,36.4497141 Z M82.6532717,36.4497141" fill="#FFFFFF" height="6.27090561" id="rect4068" stroke-width="0.96000004" width="1.35297102" x="82.6532717" y="36.4497141"/><path d="M40.5082898,29 L58.8657316,29" id="path3870" stroke-width="0.96000004"/><rect d="M46.2035577,29.0458659 L46.2035577,31.5659887 L53.007696,31.5659887 L53.007696,29.0458659 L46.2035577,29.0458659 Z M46.2035577,29.0458659" height="2.52012285" id="rect3355" stroke-width="0.96000004" width="6.80413837" x="46.2035577" y="29.0458659"/><path d="M53.1190224,32.8099447 L53.1190224,30.2393894 C52.191686,30.4615877 52.1344046,30.8062067 51.8395118,31.3819434 C51.9488449,29.8247095 50.8543351,28.0481546 49.6612889,27.3372855 C48.468245,28.0481546 47.3737352,29.8247095 47.4830683,31.3819434 C47.1881755,30.8062067 47.1519473,30.4615877 46.2035577,30.2393894 L46.2035577,32.8099447 L46.2035577,32.8099447 L53.1190224,32.8099447 L53.1190224,32.8099447 Z M53.1190224,32.8099447" fill="#FFFFFF" id="path3917" stroke-width="0.96000004"/><path d="M30.0406587,29.0458659 C28.8664964,29.6508606 27.7035927,30.3507573 27.4091738,32.0084935 L30.0406587,32.0084935 L30.0406587,32.0084935 L30.0406587,29.0458659 L30.0406587,29.0458659 Z M30.0406587,29.0458659" fill="#FFFFFF" id="path3908" stroke-width="0.96000004"/><path d="M13.7405311,25.6287052 L15.370332,25.6287052 L15.370332,32.0566709 L13.7405311,32.0566709 L13.7405311,32.0566709 L13.7405311,25.6287052 L13.7405311,25.6287052 Z M13.7405311,25.6287052" fill="#FFFFFF" id="rect3914" stroke-width="0.96000004"/><path d="M13.7405311,24.4896516 L15.3607049,24.4896516 L15.3607049,25.6828571 L13.7405311,25.6828571 L13.7405311,25.6828571 L13.7405311,24.4896516 L13.7405311,24.4896516 Z M13.7405311,24.4896516" fill="#FFFFFF" id="rect3916" stroke-width="0.96000004"/><path d="M27.4091738,27.3372855 L29.7328166,27.3372855 L29.7328166,32.3000729 L27.4091738,32.3000729 L27.4091738,32.3000729 L27.4091738,27.3372855 L27.4091738,27.3372855 Z M27.4091738,27.3372855" fill="#FFFFFF" id="path3938" stroke-width="1.03371773"/><path d="M15.4491114,32.3231664 L15.4491114,21.3210191 C15.9139362,21.3210191 15.985631,22.9335971 17.0520542,22.9335971 C17.6072361,22.9335971 17.5482052,22.2656409 17.2364939,21.7215833 C16.9604638,21.2398029 16.6188481,20.5744008 17.0829419,19.3348373 C17.4009604,20.2833106 18.2569274,20.5842517 18.0987705,19.9894571 C17.8269892,18.9673423 17.0445421,18.7996232 17.6316115,17.213509 C17.8355128,18.5367099 18.677802,18.4783982 18.4732263,17.7090298 C18.2427874,16.8423977 17.7665743,16.4872316 18.354127,15.2655475 C18.683126,16.6528361 19.1282156,16.571463 19.1282156,15.7107685 C19.1282156,14.4383617 19.0797384,13.0660941 20.7136891,12.5569518 C20.7136891,12.5569518 20.8080098,11.3905356 21.3973969,11.3905356 C21.9867841,11.3905356 22.0811048,12.5569518 22.0811048,12.5569518 C23.7150555,13.0660941 23.6665783,14.4383617 23.6665783,15.7107685 C23.6665783,16.571463 24.1116679,16.6528361 24.4406669,15.2655475 C25.0282196,16.4872316 24.5520065,16.8423977 24.3215676,17.7090298 C24.1169919,18.4783982 24.9592811,18.5367099 25.1631824,17.213509 C25.7502518,18.7996232 24.9678046,18.9673423 24.6960234,19.9894571 C24.5378665,20.5842517 25.3938335,20.2833106 25.711852,19.3348373 C26.1759458,20.5744008 25.83433,21.2398029 25.5583,21.7215833 C25.2465887,22.2656409 25.1875578,22.9335971 25.7427397,22.9335971 C26.8091628,22.9335971 26.8808577,21.3210191 27.3456825,21.3210191 L27.3456825,32.3231664 L27.3456825,32.3231664 L15.4491114,32.3231664 L15.4491114,32.3231664 Z M15.4491114,32.3231664" fill="#FFFFFF" id="path3931" stroke-width="0.96000004"/><path d="M22.3980768,16.319479 L23.0824849,15.7398432 L23.0824849,14.9974899 C22.832101,15.0219911 22.6955019,15.1087791 22.510567,15.3530551 C22.3532754,14.8609961 22.0074297,14.4767574 21.5439065,14.2381696 C21.0803832,14.4767574 20.7345351,14.8435254 20.5772436,15.3355844 C20.3923087,15.0913084 20.2557119,15.0219911 20.0053257,14.9974899 L20.0053257,15.7398432 L20.6897338,16.319479 L20.6897338,16.319479 L22.3980768,16.319479 L22.3980768,16.319479 Z M22.3980768,16.319479" fill="#FFFFFF" id="path3920" stroke-width="0.96000004"/><path d="M22.7643838,18.3757553 L23.0824849,17.6818365 L23.0824849,16.7168264 C22.832101,16.7416745 22.6955019,16.8296909 22.510567,17.0774263 C22.3532754,16.5783985 22.0074297,16.1887164 21.5439065,15.9467499 C21.0803832,16.1887164 20.7345351,16.5606808 20.5772436,17.0597085 C20.3923087,16.8119731 20.2557119,16.7416745 20.0053257,16.7168264 L20.0053257,17.6818365 L20.3234267,18.3757553 L20.3234267,18.3757553 L22.7643838,18.3757553 L22.7643838,18.3757553 Z M22.7643838,18.3757553" fill="#FFFFFF" id="path3922" stroke-width="0.96000004"/><path d="M22.4205545,20.9663761 L23.4372013,19.7169973 L23.4372013,18.4840629 C23.0652708,18.526137 22.8623621,18.6751736 22.5876524,19.0946507 C22.3540045,18.249671 21.840271,18.065042 21.1517367,17.6553302 C20.4632024,18.065042 19.9494689,18.2196693 19.715821,19.064649 C19.4411114,18.6451719 19.2382027,18.526137 18.8662721,18.4840629 L18.8662721,19.7169973 L19.8829189,20.9663761 L19.8829189,20.9663761 L22.4205545,20.9663761 L22.4205545,20.9663761 Z M22.4205545,20.9663761" fill="#FFFFFF" id="path3924" stroke-width="0.96000004"/><path d="M23.2541079,23.5037651 C23.2541079,23.5037651 24.4388876,22.4622312 24.5091795,21.8905052 L24.5091795,20.5724103 C24.0500207,20.6267398 23.6157535,20.7466539 23.2766206,21.2883046 C22.9881764,20.1972218 22.5377369,19.8929519 21.6877258,19.3639106 C20.8377147,19.8929519 20.3872752,20.1972218 20.0988311,21.2883046 C19.7596981,20.7466539 19.325431,20.6267398 18.8662721,20.5724103 L18.8662721,21.8905052 C19.0158535,22.4622312 20.1213437,23.5037651 20.1213437,23.5037651 L20.1213437,23.5037651 L23.2541079,23.5037651 L23.2541079,23.5037651 Z M23.2541079,23.5037651" fill="#FFFFFF" id="path3926" stroke-width="0.96000004"/><path d="M23.5303601,28.0049611 C23.5303601,28.0049611 25.1530356,26.1948881 25.1902565,25.489662 L25.1902565,23.4345622 C24.5829969,23.5192664 24.0086552,23.9401191 23.5601326,24.7846284 C23.1786528,23.0834733 22.5829207,21.897346 21.4587375,21.0724909 C20.3345544,21.897346 19.7388223,23.0834733 19.3573425,24.7846284 C18.9088199,23.9401191 18.3344781,23.5192664 17.7272186,23.4345622 L17.7272186,25.489662 C17.8437289,26.1948881 19.387115,28.0049611 19.387115,28.0049611 L19.387115,28.0049611 L23.5303601,28.0049611 L23.5303601,28.0049611 Z M23.5303601,28.0049611" fill="#FFFFFF" id="path3928" stroke-width="0.96000004"/><path d="M23.5303601,30.7347798 C23.5303601,30.7347798 24.9172515,29.3123147 25.1902565,28.6946796 L25.1902565,26.6395798 C24.5829969,26.724284 24.0086552,27.1451368 23.5601326,27.989646 C23.1786528,26.288491 22.5829207,25.3145066 21.4587375,24.4896516 C20.3345544,25.3145066 19.7388223,26.288491 19.3573425,27.989646 C18.9088199,27.1451368 18.3344781,26.724284 17.7272186,26.6395798 L17.7272186,28.6946796 C18.079513,29.3123147 19.387115,30.7347798 19.387115,30.7347798 L19.387115,30.7347798 L23.5303601,30.7347798 L23.5303601,30.7347798 Z M23.5303601,30.7347798" fill="#FFFFFF" id="path3930" stroke-width="0.96000004"/><path d="M24.2706816,32.3321022 C23.8657813,30.5575954 23.5177051,29.2413063 21.5684261,27.9068123 C19.6191496,29.2413063 19.2711723,30.5575954 18.8662721,32.3321022 C18.8662721,32.3321022 19.2711723,30.5575954 18.8662721,32.3321022 L24.2706816,32.3321022 L24.2706816,32.3321022 Z M24.2706816,32.3321022" fill="#FFFFFF" id="path3932" stroke-width="0.96000004"/><path d="M25.0934318,33.0929283 L25.0934318,30.5223731 C24.2081993,30.8718557 23.4082239,31.3892071 23.1133311,31.9649439 C22.7836979,30.5378123 22.1487243,29.9091217 21.3577371,29.0458659 C20.5667498,29.9091217 20.0370349,30.5378123 19.7074017,31.9649439 C19.4125089,31.3892071 18.612451,30.8718557 17.7272186,30.5223731 L17.7273011,33.0929283 L17.7273011,33.0929283 L25.0934318,33.0929283 L25.0934318,33.0929283 Z M25.0934318,33.0929283" fill="#FFFFFF" id="path3911" stroke-width="0.96000004"/><path d="M13.1710043,24.0790106 L13.1710349,32.4724822 L14.1183494,32.4724822 L14.1182763,24.0577953 C13.7768704,23.8841149 13.4563573,23.8573018 13.1710043,24.0790129 C13.1710043,24.0790129 13.4563573,23.8573018 13.1710043,24.0790129 L13.1710043,24.0790106 L13.1710043,24.0790106 Z M13.1710043,24.0790106" fill="#FFFFFF" id="path3934" stroke-width="0.96000004"/><path d="M13.1710043,29.0458659 C14.3451666,29.6508606 15.5080702,30.3507573 15.8024891,32.0084935 L13.1710043,32.0084935 L13.1710043,32.0084935 L13.1710043,29.0458659 L13.1710043,29.0458659 Z M13.1710043,29.0458659" fill="#FFFFFF" id="path3936" stroke-width="0.96000004"/><path d="M29.1177542,26.8714342 L29.1177754,32.3482655 L29.8856204,32.3482655 L29.8856204,26.8575892 C29.6457361,26.7442614 29.3182556,26.7267646 29.1177542,26.8714413 C29.1177542,26.8714413 29.3182556,26.7267646 29.1177542,26.8714413 L29.1177542,26.8714342 L29.1177542,26.8714342 Z M29.1177542,26.8714342" fill="#FFFFFF" id="path3940" stroke-width="0.96000004"/><path d="M30.0406587,29.0458659 C28.8664964,29.6508606 27.7035927,30.3507573 27.4091738,32.0084935 L30.0406587,32.0084935 L30.0406587,32.0084935 L30.0406587,29.0458659 L30.0406587,29.0458659 Z M30.0406587,29.0458659" fill="#FFFFFF" id="path3942" stroke-width="0.96000004"/><path d="M86.4482507,24.0790106 L86.4482201,32.4724822 L85.5009056,32.4724822 L85.5009056,24.0577953 C85.8423116,23.8841149 86.1628977,23.8573018 86.4482507,24.0790129 C86.4482507,24.0790129 86.1628977,23.8573018 86.4482507,24.0790129 L86.4482507,24.0790106 L86.4482507,24.0790106 Z M86.4482507,24.0790106" fill="#FFFFFF" id="path3964" stroke-width="0.96000004"/><path d="M71.8322629,32.3231664 L71.8322629,21.3210191 C72.2970876,21.3210191 72.3687825,22.9335971 73.4352056,22.9335971 C73.9903875,22.9335971 73.9313566,22.2656409 73.6196454,21.7215833 C73.3436153,21.2398029 73.0019995,20.5744008 73.4660933,19.3348373 C73.7841118,20.2833106 74.6400788,20.5842517 74.4819219,19.9894571 C74.2101407,18.9673423 73.4276935,18.7996232 74.0147629,17.213509 C74.2186643,18.5367099 75.0609534,18.4783982 74.8563777,17.7090298 C74.6259388,16.8423977 74.1497257,16.4872316 74.7372784,15.2655475 C75.0662774,16.6528361 75.511367,16.571463 75.511367,15.7107685 C75.511367,14.4383617 75.4628898,13.0660941 77.0968405,12.5569518 C77.0968405,12.5569518 77.1911612,11.3905356 77.7805484,11.3905356 C78.3699355,11.3905356 78.4642562,12.5569518 78.4642562,12.5569518 C80.0982069,13.0660941 80.0497297,14.4383617 80.0497297,15.7107685 C80.0497297,16.571463 80.4948193,16.6528361 80.8238183,15.2655475 C81.411371,16.4872316 80.9351579,16.8423977 80.7047191,17.7090298 C80.5001433,18.4783982 81.3424325,18.5367099 81.5463338,17.213509 C82.1334032,18.7996232 81.3509561,18.9673423 81.0791748,19.9894571 C80.9210179,20.5842517 81.7769849,20.2833106 82.0950034,19.3348373 C82.5590972,20.5744008 82.2174815,21.2398029 81.9414514,21.7215833 C81.6297401,22.2656409 81.5707092,22.9335971 82.1258911,22.9335971 C83.1923143,22.9335971 83.2640091,21.3210191 83.7288339,21.3210191 L83.7288339,32.3231664 L83.7288339,32.3231664 L71.8322629,32.3231664 L71.8322629,32.3231664 Z M71.8322629,32.3231664" fill="#FFFFFF" id="path3939" stroke-width="0.96000004"/><path d="M78.7812282,16.319479 L79.4656363,15.7398432 L79.4656363,14.9974899 C79.2152525,15.0219911 79.0786533,15.1087791 78.8937184,15.3530551 C78.7364268,14.8609961 78.3905811,14.4767574 77.9270579,14.2381696 C77.4635347,14.4767574 77.1176866,14.8435254 76.960395,15.3355844 C76.7754601,15.0913084 76.6388633,15.0219911 76.3884771,14.9974899 L76.3884771,15.7398432 L77.0728852,16.319479 L77.0728852,16.319479 L78.7812282,16.319479 L78.7812282,16.319479 Z M78.7812282,16.319479" fill="#FFFFFF" id="path3331" stroke-width="0.96000004"/><path d="M79.1475353,18.3757553 L79.4656363,17.6818365 L79.4656363,16.7168264 C79.2152525,16.7416745 79.0786533,16.8296909 78.8937184,17.0774263 C78.7364268,16.5783985 78.3905811,16.1887164 77.9270579,15.9467499 C77.4635347,16.1887164 77.1176866,16.5606808 76.960395,17.0597085 C76.7754601,16.8119731 76.6388633,16.7416745 76.3884771,16.7168264 L76.3884771,17.6818365 L76.7065781,18.3757553 L76.7065781,18.3757553 L79.1475353,18.3757553 L79.1475353,18.3757553 Z M79.1475353,18.3757553" fill="#FFFFFF" id="path3333" stroke-width="0.96000004"/><path d="M79.3732328,20.9663761 L80.3898795,19.7169973 L80.3898795,18.4840629 C80.017949,18.526137 79.8150403,18.6751736 79.5403306,19.0946507 C79.3066827,18.249671 78.7929493,18.065042 78.1044149,17.6553302 C77.4158806,18.065042 76.9021471,18.2196693 76.6684993,19.064649 C76.3937896,18.6451719 76.1908809,18.526137 75.8189503,18.4840629 L75.8189503,19.7169973 L76.8355971,20.9663761 L76.8355971,20.9663761 L79.3732328,20.9663761 L79.3732328,20.9663761 Z M79.3732328,20.9663761" fill="#FFFFFF" id="path3335" stroke-width="0.96000004"/><path d="M79.6372593,23.5037651 C79.6372593,23.5037651 80.822039,22.4622312 80.8923309,21.8905052 L80.8923309,20.5724103 C80.4331721,20.6267398 79.998905,20.7466539 79.659772,21.2883046 C79.3713279,20.1972218 78.9208883,19.8929519 78.0708772,19.3639106 C77.2208662,19.8929519 76.7704266,20.1972218 76.4819825,21.2883046 C76.1428495,20.7466539 75.7085824,20.6267398 75.2494235,20.5724103 L75.2494235,21.8905052 C75.399005,22.4622312 76.5044952,23.5037651 76.5044952,23.5037651 L76.5044952,23.5037651 L79.6372593,23.5037651 L79.6372593,23.5037651 Z M79.6372593,23.5037651" fill="#FFFFFF" id="path3337" stroke-width="0.96000004"/><path d="M79.9135115,28.0049611 C79.9135115,28.0049611 81.5361871,26.1948881 81.5734079,25.489662 L81.5734079,23.4345622 C80.9661484,23.5192664 80.3918066,23.9401191 79.943284,24.7846284 C79.5618042,23.0834733 78.9660721,21.897346 77.841889,21.0724909 C76.7177058,21.897346 76.1219737,23.0834733 75.7404939,24.7846284 C75.2919713,23.9401191 74.7176295,23.5192664 74.11037,23.4345622 L74.11037,25.489662 C74.2268803,26.1948881 75.7702664,28.0049611 75.7702664,28.0049611 L75.7702664,28.0049611 L79.9135115,28.0049611 L79.9135115,28.0049611 Z M79.9135115,28.0049611" fill="#FFFFFF" id="path3339" stroke-width="0.96000004"/><path d="M79.9135115,30.7347798 C79.9135115,30.7347798 81.300403,29.3123147 81.5734079,28.6946796 L81.5734079,26.6395798 C80.9661484,26.724284 80.3918066,27.1451368 79.943284,27.989646 C79.5618042,26.288491 78.9660721,25.3145066 77.841889,24.4896516 C76.7177058,25.3145066 76.1219737,26.288491 75.7404939,27.989646 C75.2919713,27.1451368 74.7176295,26.724284 74.11037,26.6395798 L74.11037,28.6946796 C74.4626644,29.3123147 75.7702664,30.7347798 75.7702664,30.7347798 L75.7702664,30.7347798 L79.9135115,30.7347798 L79.9135115,30.7347798 Z M79.9135115,30.7347798" fill="#FFFFFF" id="path3341" stroke-width="0.96000004"/><path d="M80.653833,32.3321022 C80.2489328,30.5575954 79.9008565,29.2413063 77.9515776,27.9068123 C76.002301,29.2413063 75.6543238,30.5575954 75.2494235,32.3321022 C75.2494235,32.3321022 75.6543238,30.5575954 75.2494235,32.3321022 L80.653833,32.3321022 L80.653833,32.3321022 Z M80.653833,32.3321022" fill="#FFFFFF" id="path3343" stroke-width="0.96000004"/><path d="M86.2974982,29.0458659 C85.1233359,29.6508606 84.0867442,30.3507573 83.7923253,32.0084935 L86.2974982,32.0084935 L86.2974982,32.0084935 L86.2974982,29.0458659 L86.2974982,29.0458659 Z M86.2974982,29.0458659" fill="#FFFFFF" id="path3966" stroke-width="0.96000004"/><path d="M70.322022,26.8714342 L70.3220008,32.3482655 L69.5541557,32.3482655 L69.5541557,26.8575892 C69.7940401,26.7442614 70.1215206,26.7267646 70.322022,26.8714413 C70.322022,26.8714413 70.1215206,26.7267646 70.322022,26.8714413 L70.322022,26.8714342 L70.322022,26.8714342 Z M70.322022,26.8714342" fill="#FFFFFF" id="path3970" stroke-width="0.96000004"/><path d="M69.5541557,29.0458659 C70.728318,29.6508606 71.8912217,30.3507573 72.1856405,32.0084935 L69.5541557,32.0084935 L69.5541557,32.0084935 L69.5541557,29.0458659 L69.5541557,29.0458659 Z M69.5541557,29.0458659" fill="#FFFFFF" id="path3972" stroke-width="0.96000004"/><path d="M70.322022,26.8714342 L70.3220008,32.3482655 L69.5541557,32.3482655 L69.5541557,26.8575892 C69.7940401,26.7442614 70.1215206,26.7267646 70.322022,26.8714413 C70.322022,26.8714413 70.1215206,26.7267646 70.322022,26.8714413 L70.322022,26.8714342 L70.322022,26.8714342 Z M70.322022,26.8714342" fill="#FFFFFF" id="path4004" stroke-width="0.96000004"/><path d="M69.5541557,29.0458659 C70.728318,29.6508606 71.8912217,30.3507573 72.1856405,32.0084935 L69.5541557,32.0084935 L69.5541557,32.0084935 L69.5541557,29.0458659 L69.5541557,29.0458659 Z M69.5541557,29.0458659" fill="#FFFFFF" id="path4006" stroke-width="0.96000004"/><path d="M56.4550397,21.7400239 C56.4550397,19.6041236 58.2851958,19.3639106 58.2851958,19.3639106 L58.2851958,21.2647062 C57.5886071,21.2347045 57.2527421,21.8646163 57.2527421,22.802217 C57.2527421,23.7398178 57.8136277,23.7547485 57.8136277,23.7547485 L57.8136277,29.1493134 L56.4550397,29.1493134 L56.4550397,29.1493134 L56.4550397,21.7400239 L56.4550397,21.7400239 Z M56.4550397,21.7400239" fill="#FFFFFF" id="rect3321" stroke-width="0.96000004"/><path d="M42.9079727,21.7400239 C42.9079727,19.6041236 41.0778166,19.3639106 41.0778166,19.3639106 L41.0778166,21.2647062 C41.7744053,21.2347045 42.1102703,21.8646163 42.1102703,22.802217 C42.1102703,23.7398178 41.5493848,23.7547485 41.5493848,23.7547485 L41.5493848,29.1493134 L42.9079727,29.1493134 L42.9079727,29.1493134 L42.9079727,21.7400239 L42.9079727,21.7400239 Z M42.9079727,21.7400239" fill="#FFFFFF" id="path4325" stroke-width="0.96000004"/><path d="M81.4765832,33.0929283 L81.4765832,30.5223731 C80.5913507,30.8718557 79.7913754,31.3892071 79.4964826,31.9649439 C79.1668493,30.5378123 78.5318757,29.9091217 77.7408885,29.0458659 C76.9499012,29.9091217 76.4201864,30.5378123 76.0905531,31.9649439 C75.7956603,31.3892071 74.9956025,30.8718557 74.11037,30.5223731 L74.1104525,33.0929283 L74.1104525,33.0929283 L81.4765832,33.0929283 L81.4765832,33.0929283 Z M81.4765832,33.0929283" fill="#FFFFFF" id="path5240" stroke-width="0.96000004"/><path d="M3.489049,54.1050443 L96.0397619,54.1050443 L96.0398279,58.8687708 L3.48911738,58.8687779 L3.48911738,58.8687779 L3.489049,54.1050443 L3.489049,54.1050443 Z M3.489049,54.1050443" fill="#FFFFFF" id="path4136" stroke-width="0.96000004"/><path d="M0.641415089,58.6612586 L98.0707695,58.6612586 L98.0708403,63.4179616 L0.641485824,63.4179688 L0.641485824,63.4179688 L0.641415089,58.6612586 L0.641415089,58.6612586 Z M0.641415089,58.6612586" fill="#FFFFFF" id="rect2997" stroke-width="0.96000004"/><path d="M8.04526326,46.7011961 L90.8757724,46.7011961 L90.8758313,49.7840063 L8.0453222,49.7840087 L8.0453222,49.7840087 L8.04526326,46.7011961 L8.04526326,46.7011961 Z M8.04526326,46.7011961" fill="#FFFFFF" id="path4138" stroke-width="0.96000004"/><path d="M5.76715613,50.1183568 L93.441076,50.1183568 L93.4411396,54.1562574 L5.76721979,54.1562598 L5.76721979,54.1562598 L5.76715613,50.1183568 L5.76715613,50.1183568 Z M5.76715613,50.1183568" fill="#FFFFFF" id="path4140" stroke-width="0.96000004"/><path d="M9.7538436,44.423089 L89.6901974,44.423089 L89.6902563,46.7701748 L9.75390019,46.7701748 L9.75390019,46.7701748 L9.7538436,44.423089 L9.7538436,44.423089 Z M9.7538436,44.423089" fill="#FFFFFF" id="path4134" stroke-width="0.96000004"/><path d="M18.2967453,44.423089 L24.3348434,44.423089 L24.3348434,63.4064063 L18.2967453,63.4064063 L18.2967453,63.4064063 L18.2967453,44.423089 L18.2967453,44.423089 Z M18.2967453,44.423089" fill="#FFFFFF" id="path3823" stroke-width="1.04455566"/><path d="M19.4357989,44.423089 L22.7998059,44.423089 L22.7997989,63.4068862 L19.4358343,63.4068862 L19.4358343,63.4068862 L19.4357989,44.423089 L19.4357989,44.423089 Z M19.4357989,44.423089" fill="#FFFFFF" id="path3825" stroke-width="1.04293986"/><path d="M19.4357989,46 L22.9230739,46" id="path4448" stroke-width="0.96000004"/><path d="M19.4357989,49 L22.9230739,49" id="path4455" stroke-width="0.96000004"/><path d="M19.4357989,51 L22.9230739,51" id="path4457" stroke-width="0.96000004"/><path d="M19.4357989,54 L22.9230739,54" id="path4459" stroke-width="0.96000004"/><path d="M19.4357989,56 L22.9230739,56" id="path4461" stroke-width="0.96000004"/><path d="M19.4357989,58 L22.9230739,58" id="path4463" stroke-width="0.96000004"/><path d="M19.4357989,60 L22.9230739,60" id="path4465" stroke-width="0.96000004"/><path d="M46.7730844,44.4231246 L52.8112791,44.423089 L52.8112791,63.4064063 L46.7731811,63.4063707 L46.7731811,63.4063707 L46.7730844,44.4231246 L46.7730844,44.4231246 Z M46.7730844,44.4231246" fill="#FFFFFF" id="path4480" stroke-width="1.04455566"/><path d="M47.912138,44.423089 L51.276145,44.423089 L51.276138,63.4068862 L47.9121734,63.4068862 L47.9121734,63.4068862 L47.912138,44.423089 L47.912138,44.423089 Z M47.912138,44.423089" fill="#FFFFFF" id="path3825-1" stroke-width="1.04293986"/><path d="M47.912138,46 L51.1591961,46" id="path4484" stroke-width="0.96000004"/><path d="M47.912138,49 L51.1591961,49" id="path4486" stroke-width="0.96000004"/><path d="M47.912138,51 L51.1591961,51" id="path4488" stroke-width="0.96000004"/><path d="M47.912138,54 L51.1591961,54" id="path4490" stroke-width="0.96000004"/><path d="M47.912138,56 L51.1591961,56" id="path4492" stroke-width="0.96000004"/><path d="M47.912138,58 L51.1591961,58" id="path4494" stroke-width="0.96000004"/><path d="M47.912138,60 L51.1591961,60" id="path4496" stroke-width="0.96000004"/><path d="M18.2967453,44.423089 L24.3348434,44.423089 L24.3348434,63.4064063 L18.2967453,63.4064063 L18.2967453,63.4064063 L18.2967453,44.423089 L18.2967453,44.423089 Z M18.2967453,44.423089" fill="#FFFFFF" id="path4500" stroke-width="1.04455566"/><path d="M19.4357989,44.423089 L22.7998059,44.423089 L22.7997989,63.4068862 L19.4358343,63.4068862 L19.4358343,63.4068862 L19.4357989,44.423089 L19.4357989,44.423089 Z M19.4357989,44.423089" fill="#FFFFFF" id="path4502" stroke-width="1.04293986"/><path d="M19.4357989,46 L22.9230739,46" id="path4504" stroke-width="0.96000004"/><path d="M19.4357989,49 L22.9230739,49" id="path4506" stroke-width="0.96000004"/><path d="M19.4357989,51 L22.9230739,51" id="path4508" stroke-width="0.96000004"/><path d="M19.4357989,54 L22.9230739,54" id="path4510" stroke-width="0.96000004"/><path d="M19.4357989,56 L22.9230739,56" id="path4512" stroke-width="0.96000004"/><path d="M19.4357989,58 L22.9230739,58" id="path4514" stroke-width="0.96000004"/><path d="M19.4357989,60 L22.9230739,60" id="path4516" stroke-width="0.96000004"/><rect d="M31.3958613,36.4497141 L31.3958613,42.7206197 L32.7488323,42.7206197 L32.7488323,36.4497141 L31.3958613,36.4497141 Z M31.3958613,36.4497141" fill="#FFFFFF" height="6.27090561" id="rect4518" stroke-width="0.96000004" width="1.35297102" x="31.3958613" y="36.4497141"/><rect d="M34.2434952,36.4497141 L34.2434952,42.7206197 L35.5964663,42.7206197 L35.5964663,36.4497141 L34.2434952,36.4497141 Z M34.2434952,36.4497141" fill="#FFFFFF" height="6.27090561" id="rect4520" stroke-width="0.96000004" width="1.35297102" x="34.2434952" y="36.4497141"/><rect d="M37.0911291,36.4497141 L37.0911291,42.7206197 L38.4441002,42.7206197 L38.4441002,36.4497141 L37.0911291,36.4497141 Z M37.0911291,36.4497141" fill="#FFFFFF" height="6.27090561" id="rect4522" stroke-width="0.96000004" width="1.35297102" x="37.0911291" y="36.4497141"/><rect d="M60.4417272,36.4497141 L60.4417272,42.7206197 L61.7946982,42.7206197 L61.7946982,36.4497141 L60.4417272,36.4497141 Z M60.4417272,36.4497141" fill="#FFFFFF" height="6.27090561" id="rect4524" stroke-width="0.96000004" width="1.35297102" x="60.4417272" y="36.4497141"/><rect d="M63.2893611,36.4497141 L63.2893611,42.7206197 L64.6423321,42.7206197 L64.6423321,36.4497141 L63.2893611,36.4497141 Z M63.2893611,36.4497141" fill="#FFFFFF" height="6.27090561" id="rect4526" stroke-width="0.96000004" width="1.35297102" x="63.2893611" y="36.4497141"/><rect d="M66.136995,36.4497141 L66.136995,42.7206197 L67.4899661,42.7206197 L67.4899661,36.4497141 L66.136995,36.4497141 Z M66.136995,36.4497141" fill="#FFFFFF" height="6.27090561" id="rect4528" stroke-width="0.96000004" width="1.35297102" x="66.136995" y="36.4497141"/><path d="M46.9229323,5.17468475 L46.7730844,3.98668747 L52.7481032,3.98668747 L52.5982553,5.17468475 L52.5982553,5.17468475 L46.9229323,5.17468475 L46.9229323,5.17468475 Z M46.9229323,5.17468475" fill="#FFFFFF" id="path3144" stroke-width="0.96000004"/><path d="M46.9017943,3.82410114 L46.7730844,2.84763391 L51.9053071,2.84763391 L51.7765973,3.82410114 L51.7765973,3.82410114 L46.9017943,3.82410114 L46.9017943,3.82410114 Z M46.9017943,3.82410114" fill="#FFFFFF" id="path3916" stroke-width="0.96000004"/><path d="M47.9978408,2.68504758 L47.912138,1.70858035 L51.3294983,1.70858035 L51.2437955,2.68504758 L51.2437955,2.68504758 L47.9978408,2.68504758 L47.9978408,2.68504758 Z M47.9978408,2.68504758" fill="#FFFFFF" id="path3918" stroke-width="0.96000004"/></g></g></g></g></svg>