<?xml version="1.0" ?><svg height="120px" version="1.1" viewBox="0 0 180 120" width="180px" xmlns="http://www.w3.org/2000/svg" xmlns:sketch="http://www.bohemiancoding.com/sketch/ns" xmlns:xlink="http://www.w3.org/1999/xlink"><title/><defs/><g fill="none" fill-rule="evenodd" id="Ameria" stroke="none" stroke-width="1"><g id="Group" transform="translate(-1000.000000, -200.000000)"><g id="Panama" transform="translate(1000.000000, 200.000000)"><rect d="M0,0 L0,120 L180,120 L180,0 L0,0 Z M0,0" fill="#FFFFFF" height="120" id="Rectangle-3-copy-2" width="180" x="0" y="0"/><rect d="M0,60 L0,120 L90,120 L90,60 L0,60 Z M0,60" fill="#346DA6" height="60" id="white-copy" width="90" x="0" y="60"/><rect d="M90,0 L90,60 L180,60 L180,0 L90,0 Z M90,0" fill="#CA4638" height="60" id="white-copy-2" width="90" x="90" y="0"/><polygon d="M44.9999981,41.8635546 L33.4788419,48.0198818 L35.6791864,34.9805727 L26.358374,25.746083 L39.2394216,23.8436716 L44.9999987,11.9801179 L50.7605793,23.8436746 L63.641626,25.7460924 L54.3208098,34.9805752 L56.5211547,48.0198821 L44.9999981,41.8635546 Z M44.9999981,41.8635546" fill="#346DA6" id="Star-1" points="44.9999981 41.8635546 33.4788419 48.0198818 35.6791864 34.9805727 26.358374 25.746083 39.2394216 23.8436716 44.9999987 11.9801179 50.7605793 23.8436746 63.641626 25.7460924 54.3208098 34.9805752 56.5211547 48.0198821 "/><polygon d="M134.999998,101.863555 L123.478842,108.019882 L125.679186,94.9805727 L116.358374,85.746083 L129.239422,83.8436716 L134.999999,71.9801179 L140.760579,83.8436746 L153.641626,85.7460924 L144.32081,94.9805752 L146.521155,108.019882 L134.999998,101.863555 Z M134.999998,101.863555" fill="#CA4638" id="Star-1-copy" points="134.999998 101.863555 123.478842 108.019882 125.679186 94.9805727 116.358374 85.746083 129.239422 83.8436716 134.999999 71.9801179 140.760579 83.8436746 153.641626 85.7460924 144.32081 94.9805752 146.521155 108.019882 "/></g></g></g></svg>