<?xml version="1.0" encoding="UTF-8" standalone="no"?>
<svg width="180px" height="120px" viewBox="0 0 180 120" version="1.1" xmlns="http://www.w3.org/2000/svg" xmlns:xlink="http://www.w3.org/1999/xlink">
    <!-- Generator: Sketch 40.2 (33826) - http://www.bohemiancoding.com/sketch -->
    <title>icon-flag-fj</title>
    <desc>Created with Sketch.</desc>
    <defs></defs>
    <g id="Page-1" stroke="none" stroke-width="1" fill="none" fill-rule="evenodd">
        <rect id="rect962-copy" fill="#346DA6" x="0" y="0" width="180" height="120"></rect>
        <polygon id="White_Diagonal" fill="#FFFFFF" points="21.4 21 0 6.7 0 0 10.1 0 36 17.3 36 17.3 36 0 54 0 54 17.3 79.9 0 90 0 90 6.7 68.6 21 90 21 90 39 68.6 39 90 53.3 90 60 79.9 60 54 42.7 54 61 36 61 36 42.7 10.1 60 0 60 0 53.3 21.4 39 0 39 0 21"></polygon>
        <path d="M59,39 L65,39 L90,56 L90,60 L59,39 L59,39 Z M6,60 L36,39 L30,39 L0,60 L6,60 L6,60 Z M84,0 L54,21 L60,21 L90,0 L84,0 L84,0 Z M31,21 L25,21 L0,4 L0,0 L31,21 L31,21 Z M51,0 L51,24 L90,24 L90,36 L51,36 L51,60 L39,60 L39,36 L0,36 L0,24 L39,24 L39,0 L51,0 L51,0 Z" id="Red_Diagonals-copy" fill="#CA4638"></path>
        <path d="M110,38 L110,84 C110,99 137,108 137,108 C137,108 164,99.1 164,84 L164,38 L164,38 L110,38 L110,38 L110,38 Z" id="path1563-1" fill="#FFFFFF"></path>
        <polygon id="polygon1567" fill="#D21034" points="133.3 55 133.3 74.6 110 74.6 110 82.2 133.3 82.2 133.3 106.6 137 108 140.7 106.6 140.7 82.2 164 82.2 164 74.6 140.7 74.6 140.7 55 140.7 55 133.3 55"></polygon>
        <polygon id="rect6043" fill="#D21034" points="110 38 164 38 164 56 110 56 110 56 110 38"></polygon>
        <path d="M162,52.8 L161.6,51.5 C161.6,51.5 160.4,51 160.3,50.3 C160.1,48.5 159.5,47.9 158.6,47.6 C157.7,47.3 157.1,47.8 157.1,47.8 C156.8,48.2 155.5,48.2 154.7,48.2 C153.9,48.2 153.9,47.9 153.9,47.9 C153.3,47.9 153.1,47.5 153.1,47.5 C152.7,46.7 152.4,46.4 152.2,46.3 C153.2,46.3 153.9,45.8 155,44.6 C156.2,43.3 157.1,43.8 157.1,43.8 C156.5,45 157.3,44.9 157.3,44.9 C158.9,44 157.5,41.9 157,42 C156.5,42.1 156.4,41.8 156.4,41.8 C156.4,42.2 155.9,42.3 155.9,42.3 C156.3,39.8 154.9,39.2 154.9,39.2 C154.7,39.4 154.6,39.9 154.6,39.9 C154.2,41.4 152.9,41.2 151.4,40.4 C149.9,39.7 146,41.2 144.8,41.7 C143.6,42.2 141.4,43 139.4,41.8 C137.4,40.6 136.9,40.9 136.1,41.1 C135.3,41.3 133.9,41.7 133.4,41.4 C132.9,41.1 132.3,41.1 132.3,41.1 C132.4,41 132.2,40.7 132.2,40.7 C131.6,39.8 132.3,39.3 132.3,39.3 C132.3,39.3 131.2,39.6 131.6,41.6 L131.8,41.9 C131.8,41.9 132,42.5 132.3,42.7 L132.3,42.8 C132.3,42.8 132.6,42.7 132.7,43.1 C132.8,43.5 133.2,43.1 133.4,42.8 C133.4,42.8 133.1,44.6 135.3,45.1 C135.3,45.1 135.1,44.8 135.1,44.6 C135.2,44.4 134.8,44.3 134.9,44 C134.9,43.7 134.4,43.6 134.8,43.4 C135.3,43.2 135.5,42.7 136.4,43.3 C137.3,43.9 138.1,43.8 138.1,43.8 C138.1,43.8 137.5,42.5 137.8,42.5 C138.1,42.5 139.6,44.4 140.3,44.3 C141,44.2 142.4,43.4 143.1,43.7 C143.1,43.7 143.2,43.3 145.8,42.8 C148.5,42.3 151.8,40.9 153,42.2 C153,42.2 153.1,43.2 153.7,43.4 C153.7,43.4 153.6,45.4 150.3,44.3 L149.1,44 C149.1,44 148.9,43.4 142.6,45.1 C142.6,45.1 142.2,45.2 142,45.4 C141.8,45.6 141.4,45.3 140.2,45.8 C139,46.3 134.3,47.9 131.4,47.3 L131.4,47.3 C130.8,47.1 130.2,47.2 130.2,47.1 C130.2,47 130.5,47.1 130.5,47.1 C130.3,46.8 130.2,46.8 130.2,46.8 C127.8,46.5 128.2,45.4 128.2,45.4 L128.3,45.7 C128.7,45.2 128.1,43.9 128.1,43.9 L128.1,43.9 L128.1,43.8 L128.3,43.7 C129.5,42.7 130.8,42.5 130.8,42.5 C130,41.5 128.3,42 128.3,42 C128.3,40.8 127.8,39.3 127.8,39.3 C126.2,39.5 125.2,40.9 125.2,40.9 C125.1,39.6 123.6,38.9 123.6,38.9 C124.2,39.6 123.8,41.4 123.8,41.4 L123.9,41.4 L123.7,41.4 L123.7,41.8 L123.6,41.8 C123.6,41.8 123,42 122.4,43.6 C122.4,43.6 122.3,44 122.1,44.3 L122.1,44.2 C122.1,44.2 121.4,45.2 119.6,44.2 C119.6,44.2 117.3,42.8 116.4,42.8 C115.6,42.9 115,43.3 115.1,43.5 C115.1,43.5 113.2,43.3 112.6,44.5 C112.6,44.5 111.2,45 112.4,46.2 C112.4,46.2 112.6,46.7 112.9,47 C112.9,47 112.9,45.9 113.1,46.2 C113.1,46.2 113.2,46.3 113.3,46.4 C113.3,46.6 113.4,47 113.7,47.2 L113.9,47.1 C113.9,46.8 114,46.5 114,46.3 L114.1,46.3 L114.1,46.3 L114.4,46.8 L114.8,46.6 C115,46.6 115.2,46.8 115.2,46.8 L115.6,46.4 L115.6,46.4 C116,46.5 116.2,45.6 116.2,45.6 C116.6,45.7 117,45.6 117.3,45.4 C117.5,46.1 119,46.9 119,46.9 L119.1,46.9 C119,47 118.9,47.1 118.9,47.1 C119.6,47.6 120.9,47.5 120.9,47.5 C120.4,47.7 120.4,48.8 120.4,48.8 C120.1,48.9 120,49.3 120,49.3 C121.1,49.7 121.8,49.4 121.8,49.4 C121.9,49.8 121.8,49.8 121.8,49.8 C121.4,50.7 121.2,51.7 121.2,51.7 L121.2,51.7 C121.2,51.7 121.2,51.7 121.2,51.8 C121.2,51.8 119.3,52.5 118.5,53.4 C118.5,53.4 118.4,53.1 118.2,53.1 C118,53.1 117.2,52.5 116.9,52.4 C116.6,52.3 116.1,52.5 115.9,52.3 C115.8,52.2 115.8,51.1 115.6,50.9 L115.6,50.9 L115.4,50.2 C115.2,50.5 114.6,50.5 114.6,50.5 C114.6,50.5 114.5,50.6 114.3,50.7 L114,50.7 C113.9,50.7 113.9,50.9 113.8,51.1 C113.8,51.1 113.7,51.1 113.7,51.2 L113.7,51 C113.6,51.1 113.3,50.9 113.2,50.9 C113.1,50.9 113.1,51.1 113,51.2 C112.7,51.3 112.4,51.3 112.4,51.3 C112.3,51.4 112.4,52.2 112.4,52.2 C111.7,52.6 112,53.3 112,53.3 C112.4,55.4 115.8,54.5 116.1,54.7 C116.4,55 117,55 117.3,55 C117.6,55 118,55.8 118.4,55.9 C118.8,56 118.4,55.3 120.4,54.8 C122.4,54.3 123.1,53.4 123.1,53.4 C123.7,53.3 123.9,52.5 124,52.1 L124,52.6 C124.1,53.3 123.6,53.6 123.6,53.6 L125.4,53.1 C126.1,52.9 126,52.3 126,52.3 C126.7,54.3 127.9,54.4 127.9,54.4 C128.1,53.6 128.1,53.4 128.1,53.4 L128.6,53.4 C128.6,53 128.3,52.7 128,52.5 L128.9,53 L129.2,52.9 C129.2,53.2 129.7,53.5 129.7,53.5 L129.8,53.1 C130.2,53.6 130.9,53.4 130.9,53.4 C130.9,53.3 130.9,53.2 130.8,53.1 C132.4,54.1 134.9,52.8 134.9,52.8 C135.6,53 135.7,52.5 135.7,52.5 C136.5,52.6 136.6,52.1 136.6,52.1 C138.4,51.9 139.7,50.6 139.7,50.6 C140.6,50.5 140.6,49.9 140.6,49.9 C140.6,49.9 141.5,50.1 142.3,49 C144.3,46.1 147.2,47.6 147.2,47.6 L145.5,47.7 C141,47.7 142.9,50.8 142.9,50.8 L143.2,50.8 C143.6,50.9 145.1,52.1 144.5,53 L144.5,53 C143.6,54.3 141.9,53.1 141.4,52 C140.9,50.9 139.9,51.1 139.9,51.1 C139.9,51.1 137.4,51.5 138.4,53.6 L138.4,53.6 C138.4,54.1 138.7,54.7 139.6,55.3 C140.1,56 141.8,56.1 143,55.8 C143.6,55.7 146.6,54.3 146.6,54.3 C146.8,53.6 147.6,53.8 148.2,52.8 C148.9,51.8 147.3,51.5 146.9,50.9 C146.5,50.4 147,50.5 147,50.5 C148.5,51.3 148.6,48.7 148.6,48.7 C148.8,50.2 150,50.6 150,50.6 C150.8,49.8 150.2,48.1 150.2,48.1 C152.1,51.6 153.2,51 153.2,51 C152.2,50.3 152.7,49.5 152.7,49.5 C153.6,53.2 157.4,50 157.4,50 C157.2,50.5 157.4,50.9 157.7,51.2 C158,51.5 158.4,51.7 158.2,52.3 C158,52.9 156.3,52.8 156.3,52.8 C156.3,52.8 154.6,52.7 154.7,54.2 C154.8,54.5 155.9,54.7 156.3,54.6 C156.3,54.6 156.1,54.6 156.8,54.7 L157.5,54.7 C158.2,54.7 159,54.5 159,54.5 C160,54.3 159.8,53.9 159.8,53.9 C161.8,53.9 162,52.8 162,52.8 L162,52.8 L162,52.8 L162,52.8 L162,52.8 Z" id="path1603" fill="#FFD100"></path>
        <path d="M123,63.4 C123,63.4 125,64.8 124.5,66 C124.5,66 125.8,63.9 124.4,63.3 C123,62.7 123,63.2 123,63.4 C123,63.4 123,63.2 123,63.4 L123,63.4 L123,63.4 L123,63.4 Z" id="path1745" fill="#00A651"></path>
        <path d="M121.5,64.2 C121.5,64.2 121,64.8 121.5,65.3 C121.5,65.3 120.9,66.1 121.4,66.7 C121.4,66.7 121,67.4 121.1,68.1 C121.1,68.1 120.8,69.3 121.5,69.8 C121.5,69.8 122.3,70.1 122.6,69.8 C122.6,69.8 123.3,68.9 122.8,68 C122.8,68 123.3,67.3 122.8,66.3 C122.8,66.3 122.9,65.8 122.5,65.1 C122.5,65.1 122.8,64.7 122.5,64.4 C122.5,64.5 121.6,63.6 121.5,64.2 C121.5,64.2 121.6,63.6 121.5,64.2 L121.5,64.2 L121.5,64.2 L121.5,64.2 Z" id="path1751" fill="#964B36"></path>
        <path d="M121.5,63 C121.5,63 119.2,58.8 117.6,58.7 C116,58.5 115.9,57 115.9,57 C115.9,57 116.1,57.7 117.4,57.7 C118.7,57.7 121.1,59.4 121.4,60.7 C121.7,62 121.9,61.8 121.9,61.8 L121.5,63 L121.5,63 L121.5,63 L121.5,63 L121.5,63 Z" id="path1761" fill="#00A651"></path>
        <path d="M121.3,62.5 C121.3,62.5 122,57.3 125.2,57.3 C128.4,57.2 127.3,57.6 128.1,57 C128.1,57 126,58.2 124.7,58.4 C123.4,58.6 122.3,61.3 122.3,61.8 C122.3,62.3 121.6,63.3 121.2,63 C120.8,62.6 121.3,62.5 121.3,62.5 L121.3,62.5 L121.3,62.5 L121.3,62.5 L121.3,62.5 Z" id="path1765" fill="#00A651"></path>
        <path d="M122.8,64 C122.8,64 123.6,62.2 125,62.8 C125,62.8 123.9,61.1 122,62.6 C122,62.6 122.9,63.6 122.8,64 C122.8,64 122.9,63.6 122.8,64 L122.8,64 L122.8,64 L122.8,64 Z" id="path1769" fill="#00A651"></path>
        <path d="M119.7,62.2 C119.7,62.2 120.7,66.6 119.2,68 C119.2,68 119.2,65.7 118.3,64.3 C117.3,63 119.2,61.5 119.7,62.2 C119.7,62.2 119.2,61.5 119.7,62.2 L119.7,62.2 L119.7,62.2 L119.7,62.2 Z" id="path1773" fill="#00A651"></path>
        <path d="M120.1,62.8 C120.1,62.8 121.7,64.4 121.8,64.9 C121.9,65.4 122.3,63.3 121.5,62.7 C120.8,62.1 120,62 120,62 L120.1,62.8 L120.1,62.8 L120.1,62.8 L120.1,62.8 L120.1,62.8 Z" id="path1777" fill="#00A651"></path>
        <path d="M116,69 C116,69 116.1,69.9 116.5,70 C116.5,70 116.5,70.6 116.8,70.8 C116.8,70.8 116.6,71.3 116.9,71.7 C116.9,71.7 116.8,72.7 117.1,73 C117.1,73 117.7,72.9 117.9,72.7 C117.9,72.7 118,72 117.7,71.3 C117.7,71.3 117.8,70.6 117.4,70.3 C117.4,70.3 117.5,69.4 117.1,69.1 C117.1,69.1 117,68.4 116.7,68 C116.8,68 116.2,69.1 116,69 C116,69 116.2,69.1 116,69 L116,69 L116,69 L116,69 Z" id="path1781" fill="#964B36"></path>
        <path d="M117,67.4 C117,67.4 114.4,66.2 113,67.9 C113,67.9 115.2,68.3 115.5,68.8 C115.7,69.4 117.1,68 117,67.4 C117,67.4 117.1,68 117,67.4 L117,67.4 L117,67.4 L117,67.4 Z" id="path1791" fill="#00A651"></path>
        <path d="M116,69.2 C116,69.2 115.8,69.1 115.6,68.9 C115.4,68.8 113.5,68.3 113.2,70 C113.2,70 112.5,68.3 113.5,68.1 C114.5,67.8 115.3,68.4 116,69.2" id="path1795" fill="#00A651"></path>
        <path d="M114,61.5 C114,61.5 113.3,59.6 112.5,60.1 C111.7,60.6 111.9,62 111.9,62 C111.9,62 110.3,60.6 111.2,59.4 C112.2,58.3 114,59.5 114,61.5 C114,61.5 114,59.5 114,61.5 L114,61.5 L114,61.5 L114,61.5 Z" id="path1803" fill="#00A651"></path>
        <path d="M116,66.4 C116,66.4 116,66.7 116.3,66.8 C116.6,66.9 117,67.1 117,66.9 C117,66.7 116.6,65.9 116.5,66 C116.3,66.1 116.1,66.1 116,66.4 C116,66.4 116.1,66.1 116,66.4 L116,66.4 L116,66.4 L116,66.4 Z" id="path1807" fill="#964B36"></path>
        <path d="M116,64.1 C116,64.1 115.9,62.1 117.5,61.3 C117.5,61.3 117.8,61.3 118,60.9 C118,60.9 116.7,63.4 117.1,64.7 L117,65" id="path1811" fill="#00A651"></path>
        <path d="M116,61.8 C116,61.8 118.2,56.6 121,58.4 C121,58.4 118.1,59 117.1,61.3 L116.1,63 L116,61.8 L116,61.8 L116,61.8 L116,61.8 L116,61.8 Z" id="path1815" fill="#00A651"></path>
        <path d="M113.9,63.8 C113.9,63.8 113.3,60.3 112.9,59.9 C112.5,59.4 111.8,58.9 111.1,59.7 C111.1,59.7 112.5,58.3 113.9,59.5 C115.4,60.7 115,62.6 115,62.6 L114.8,65 L113.9,63.8" id="path1819" fill="#00A651"></path>
        <path d="M116.6,66.9 C116.6,66.9 113.6,61.6 111.7,65.4 C111.7,65.4 111.3,66.4 111.7,66.8 C111.7,66.8 110.6,66 111.1,64.2 C111.6,62.3 114.9,63.2 115.9,64.7 C116.8,66.2 117.1,67 117,67.1 C116.8,67.1 116.6,66.9 116.6,66.9 L116.6,66.9 L116.6,66.9 L116.6,66.9 L116.6,66.9 Z" id="path1823" fill="#00A651"></path>
        <path d="M125,68.6 C125,68.6 126.8,64.6 127.9,66.4 C127.9,66.4 128.2,67.3 127.7,67.6 C127.7,67.6 127,66.7 126.3,67.8 C125.7,68.9 125.9,68.8 125.9,68.8 C125.9,68.8 125.3,69.2 125,68.6 C125,68.6 125.3,69.2 125,68.6 L125,68.6 L125,68.6 L125,68.6 Z" id="path1827" fill="#00A651"></path>
        <path d="M128,68.3 C128,68.3 128.9,68.9 128.6,70 C128.6,70 129.8,67.2 128.2,67 C128.1,67 128.4,67.9 128,68.3 C128,68.3 128.4,67.9 128,68.3 L128,68.3 L128,68.3 L128,68.3 Z" id="path1831" fill="#00A651"></path>
        <path d="M128,64.7 C128,64.7 129.9,65.2 129.9,66 C129.9,66 130.2,64.5 129.2,64 C129.2,64 127.9,64.2 128,64.7 C128,64.7 127.9,64.2 128,64.7 L128,64.7 L128,64.7 L128,64.7 Z" id="path1835" fill="#00A651"></path>
        <path d="M128.4,60.9 C129.5,58.8 130.9,61.6 130.9,61.6 C130.9,61.6 131.4,59.4 130,59 C128.6,58.6 127.7,63.6 127.7,63.6 L126,64 C126,64 126.5,59.6 129,59.2 L129.3,59.2" id="path1839" fill="#00A651"></path>
        <path d="M126.7,62 C126.7,62 125.3,58.8 124.4,58.5 C123.4,58.2 124.9,57.7 125.5,58.3 C126.1,58.9 127.2,59.7 127.1,61.3 L126.7,62 L126.7,62 L126.7,62 L126.7,62 L126.7,62 Z" id="path1843" fill="#00A651"></path>
        <path d="M125,67 C125,67 125.4,65 126.7,64.4 C127.9,63.8 129,64 129,64 C129,64 127.5,64.3 127.3,65 C127.1,65.7 126.7,65.7 126.7,65.7 L125,67 L125,67 L125,67 L125,67 L125,67 Z" id="path1847" fill="#00A651"></path>
        <path d="M125,68 C125,68 124.4,69.1 124.5,69.3 C124.5,69.3 123.8,70.2 124.1,70.7 C124.1,70.7 124.8,71.2 125.1,71 C125.1,71 125.9,70 125.7,69.4 C125.7,69.4 126.2,68.7 126,68.3 C126,68.3 125.2,68.3 125,68 C125,68 125.2,68.3 125,68 L125,68 L125,68 L125,68 Z" id="path1851" fill="#964B36"></path>
        <path d="M153,73.1 C152.9,73 152.9,73 153,73.1 C152.9,73 152.8,72.8 152.8,72.8 L152.7,72.8 C152.6,72.6 152.6,72.5 152.5,72.3 C152.5,72.3 152.5,72.3 152.5,72.2 L152.5,72.1 C152.5,72.1 152.4,72.1 152.4,72 L152.4,71.8 L152.4,71.6 L152.4,71.4 C152.4,71.4 152.4,71.3 152.3,71.3 C152.3,71.2 152.2,71.1 152.2,70.9 L152.2,70.6 C152.2,70.5 152.1,70.4 152.1,70.3 C152.1,70.2 152.1,70.1 152.2,70 L152.2,69.6 L152.2,69.3 L152.2,69.2 L152.2,69.1 L152.2,68.9 L152.2,68.7 L152.2,68.6 L152.2,68.4 L152.2,68.3 L152.2,68 L152.2,67.9 L152.2,67.7 L152.2,67.5 L152.2,67.3 L152.2,68.1 L152.2,66.7 L151.2,66.2 C151.2,66.2 151.1,68.3 151.1,68.5 C151.1,68.8 151.2,70.8 151.2,71 C151.2,71.2 151,72.4 151,72.4 C151,72.4 150.5,72.8 150.3,73.2 C150.1,73.6 150.1,73.8 150.1,73.8 L150.6,73.7 L150.2,74 L150.4,74 L150.5,74.1 C150.5,74.1 150.5,74 150.6,74 C150.7,74 150.7,74.1 150.8,74.1 L150.9,74 C150.9,74 150.9,73.9 151,73.9 L151.1,73.9 L151.3,73.9 C151.4,73.9 151.5,73.7 151.6,73.7 C151.7,73.6 151.7,73.6 151.8,73.6 C151.9,73.6 152,73.7 152.1,73.7 C152.2,73.7 152.2,73.7 152.3,73.6 C152.3,73.5 152.4,73.5 152.4,73.4 L152.6,73.4 L152.7,73.4 L152.9,73.4 C152.9,73.4 153,73.5 153,73.4 L153,73.3 C153,73.2 153,73.1 153,73.1 L153,73.1 L153,73.1 L153,73.1 L153,73.1 Z" id="path1583" fill="#964B36"></path>
        <path d="M152.3,60.6 C152.3,60.6 157,54.1 162,60.9 C162,60.9 162,61.6 161.6,62.3 L161.5,61.8 L161.2,61.9 L161.1,61.6 L160.6,61.6 L160.8,60.9 L160.2,61.4 L160.3,60.9 L159.6,61.6 L159.7,60.2 L159,61.4 L159.1,60.6 L158.8,61 L158.6,60.5 L158.4,61 L158.1,60.7 L158.1,61 L157.5,60.5 L157.3,61.2 L157,60.5 L156.9,61 L156.6,60.4 L156.6,61 L155.6,60.6 L155.8,61.2 L155.3,60.9 L155.4,61.2 L154.8,61.1 L154.8,61.5 L154.1,61.4 L154.2,61.7 L153.3,61.6 L153.6,62 L153.5,62.2 C153.5,62.2 158.6,60.5 158.9,66.9 L158,67.4 L158.3,66.9 L158,66.7 L157.2,66.1 L157.4,65.3 L157.1,65.4 L157.1,64.9 L157,65 L156.7,64.5 L156.6,64.7 L156.4,64.1 L156.2,64.5 L156.1,63.6 L155.8,64.2 L155.8,63.9 L155.7,64.1 L155.3,63.6 L155.2,63.9 L155,63.6 L154.9,63.9 L154.4,63.5 L154.4,63.8 L154.1,63.5 L154,63.7 L153.3,63.3 L153.3,63.6 L152.9,63.3 L152.8,63.6 C152.8,63.6 157.4,66.2 156,70.5 L155.7,71 L155.6,69.6 L155,70 L155.3,68.4 L155,68.7 L155,68.1 L154.6,68.7 L154.5,68 L154.3,68.2 L154,67 L153.8,67.5 L153.5,66.3 L153.2,66.8 L153,65.7 L152.8,66.3 L152.3,65.4 L152.2,65.8 L152,65 L151.8,65.3 C151.8,65.3 151,65.3 150.7,65 C150.4,64.8 149.7,66.3 149.7,66.3 L149.8,65.4 L149.5,66 L149.5,65.4 L149,67.2 L148.9,65.9 L148.6,67 L148.5,66.7 L148.4,67.2 L148.2,67 L148.1,67.5 L147.8,67.3 L147.8,68 L147.5,67.7 L147.3,68.7 L147.2,68.3 L147.2,68.8 L147,68.5 L146.8,69.5 L146.5,69.1 L146.5,69.8 L146.6,70.4 L146.3,70.2 L146.4,71.1 C146.4,71.1 145.1,68.7 146.7,66.3 C148.3,63.9 150.4,63.3 150.4,63.3 L150.2,63.1 L150.2,62.9 L148.9,63.5 L148.9,63.1 L148.6,63.4 L148.5,63 L148.3,63.4 L148.3,63.2 L148,63.7 L147.8,63 L147.6,63.8 L147.4,63.2 L147,64.4 L147,63.5 L146.7,64.4 L146.6,63.4 L146.3,64.6 L146.3,63.5 L145.9,64.6 L145.6,63.6 L145.4,64.6 L145.1,63.8 L144.8,64.9 L144.4,63.9 L144.2,65.4 L143.9,64.8 L143.9,65.9 L143.6,65.2 L143.9,66.6 L143.5,66.1 L143.6,67 L143.1,66 L143.1,67.1 L142.8,66.7 L142.7,67.1 C142.7,67.1 142.6,62.7 145.6,61.9 C148.6,61.1 150.5,62.2 150.5,62.2 L149.4,61.3 L149.5,61 L149.1,61 L149.3,60.7 L148.4,60.7 L148.7,60.4 L148,60.5 L148,60.3 L147.6,60.6 L147.8,60.2 L147.2,60.6 L147.2,60 L146.9,60.5 L146.7,60 L145.4,61.4 L145.8,60 L145.5,60.3 L145.5,60 L145.1,60.6 L145,60.2 L144.8,60.7 L144.7,60.1 L144.4,60.7 L144.1,60.2 L144,60.9 L143.8,60.5 L143.5,61 L143.2,60.7 L143.2,61 L142.5,60.7 L142.7,61.2 L142.2,60.8 L142.1,61.5 L141.8,61.2 L141.6,62 L141.4,61.2 L141.2,61.8 C141.2,61.8 143.8,55 150.5,59.4 C150.5,59.4 151.2,60.1 151.4,60.6 C151.6,61.1 151.4,60.7 151.4,60.7 L151.3,56 L151.6,58 L151.8,57.3 L151.8,58.4 L152.5,56.9 C152.5,56.9 151.7,59.4 152,60.2 C152,60.2 152.3,57.4 153.3,57 L152.4,59 L152.7,59 L152.5,59.4 L152.8,59.4 L152.5,60.1 L152.3,60.4 L152.5,60.7 L152.3,60.6 L152.3,60.6 L152.3,60.6 L152.3,60.6 L152.3,60.6 Z" id="path1885" fill="#00A651"></path>
        <path d="M153.2,84.9 C153.2,84.9 155.2,82.5 157,83.1 C158.8,83.7 160,84 160,84 C160,84 160,85.6 159.1,85.6 C158.1,85.6 157.2,84 156.4,84.5 C155.5,85 154.8,85.6 154.8,85.9 C154.6,86.1 152.4,86.2 153.2,84.9 C153.2,84.9 152.4,86.2 153.2,84.9 L153.2,84.9 L153.2,84.9 L153.2,84.9 Z" id="path1575" fill="#964B36"></path>
        <path d="M148,87.1 C148,87.1 148,83.9 150.8,84 C151.3,84 151.1,84.6 151.1,84.6 C151.1,84.6 151.7,84.2 152,84.8 C152,84.8 152.9,84.4 153,85.2 C153,85.2 154,85.1 153.8,85.8 C153.8,85.8 154.5,85.7 154.4,86.2 C154.4,86.2 155.2,85.9 155.1,86.6 C155.1,86.6 155.9,86.1 155.8,87 C155.8,87 156.7,86.4 157,87.4 C157.3,88.3 156.1,90.3 155,90.9" id="path1909" fill="#FFF200"></path>
        <path d="M146.1,91 C146.1,91 145.6,88 147.7,87 C147.7,87 148.1,86.9 148.3,87.4 C148.3,87.4 149.4,87 149.4,87.8 C149.4,87.8 149.9,87.4 150.1,87.9 C150.1,87.9 151.3,87.7 151.1,88.4 C151.1,88.4 152.1,88.2 152,88.9 C152,88.9 153,88.6 152.8,89.2 C152.8,89.2 153.8,89 153.6,89.7 C153.6,89.7 154.9,89.6 154.5,90.4 C154.5,90.4 155.5,90.2 155.2,90.8 C155.2,90.8 156.5,91 155.9,91.7 C155.3,92.4 153.9,93.4 152.4,93.9" id="path1935" fill="#00A651"></path>
        <path d="M144.2,94.6 C144.2,94.6 143.4,91.8 144.9,91 C144.9,91 145.2,90.9 145.2,91.2 C145.2,91.2 145.5,90.7 145.8,91.1 C145.8,91.1 146.5,90.7 146.7,91.3 C146.7,91.3 147.2,90.8 147.4,91.5 C147.4,91.5 147.9,91.3 147.9,91.8 C147.9,91.8 148.5,91.5 148.5,92.1 C148.5,92.1 149.1,91.8 149,92.6 C149,92.6 149.9,92.8 149.7,93.2 C149.7,93.2 150.5,93.4 150.2,93.8 C150.2,93.8 151.1,93.7 150.6,94.4 C150.6,94.4 151.3,94.2 150.9,95 C150.5,95.8 149.3,96.7 148.4,96.9" id="path1953" fill="#00A651"></path>
    </g>
</svg>