<?xml version="1.0" ?><svg height="120px" version="1.1" viewBox="0 0 180 120" width="180px" xmlns="http://www.w3.org/2000/svg" xmlns:sketch="http://www.bohemiancoding.com/sketch/ns" xmlns:xlink="http://www.w3.org/1999/xlink"><title/><defs/><g fill="none" fill-rule="evenodd" id="Page-1" stroke="none" stroke-width="1"><g id="rwanda"><rect d="M0,0 L0,118.681319 L180,118.681319 L180,0 L0,0 Z M0,0" fill="#E5B731" height="118.681319" id="Rectangle-326" width="180" x="0" y="0"/><rect d="M0,0 L0,59.3406593 L180,59.3406593 L180,0 L0,0 Z M0,0" fill="#306FC5" height="59.3406593" id="Rectangle-1" width="180" x="0" y="0"/><rect d="M0,90.3296703 L0,120 L180,120 L180,90.3296703 L0,90.3296703 Z M0,90.3296703" fill="#57BB63" height="29.6703297" id="Rectangle-1-copy" width="180" x="0" y="90.3296703"/><path d="M121.5774,37.0872995 L111,50.0631714 L122.431821,40.6751795 L116.376568,54.142448 L125.436374,41.4925758 L122.940503,56.8082296 L128.861452,41.0895779 L130.546247,58 L132.045799,42.9488676 L137.266385,56.8082296 L134.770514,41.4925758 L143.830321,54.142448 L137.256641,39.5221671 L150.092494,50.0631714 L139.590432,37.1797217 L154.156699,43.7777778 L141.553562,34.6843756 L156.812632,37.1895027 L141.152052,31.2465978 L158,29.5555556 L143.004473,28.0504423 L156.812632,22.8104973 L141.553562,25.3156244 L154.156699,16.2222222 L139.590432,22.8202783 L150.092494,9.93682862 L137.256641,20.4778329 L143.830321,5.857552 L134.770514,18.5074242 L137.266385,3.1917704 L132.045799,17.0511324 L130.546247,2 L128.861452,18.9104221 L122.940503,3.1917704 L125.436374,18.5074242 L116.376568,5.857552 L122.431821,19.3248205 L111,9.93682862 L121.5774,22.9127006 C123.607937,20.4545617 126.673525,18.8888889 130.103444,18.8888889 C136.217271,18.8888889 141.173506,23.8635025 141.173506,30 C141.173506,36.1364975 136.217271,41.1111111 130.103444,41.1111111 C126.673525,41.1111111 123.607937,39.5454383 121.5774,37.0872994 L121.5774,37.0872995 L121.5774,37.0872995 L121.5774,37.0872995 L121.5774,37.0872995 Z M121,36.9460641 L105.809454,44 L118.301603,34.7599301 L103.176911,37.3054624 L118.699576,31.2667042 L102,29.5483871 L116.863469,28.0189978 L103.176911,22.6945376 L118.301603,25.2400699 L105.809454,16 L120.999999,23.0539358 C119.54525,24.9694678 118.678311,27.3805598 118.678311,30 C118.678311,32.6194401 119.54525,35.0305321 120.999999,36.9460642 L121,36.9460641 L121,36.9460641 L121,36.9460641 L121,36.9460641 Z M130,40 C135.522848,40 140,35.5228477 140,30 C140,24.4771523 135.522848,20 130,20 C124.477152,20 120,24.4771523 120,30 C120,35.5228477 124.477152,40 130,40 C130,40 124.477152,40 130,40 L130,40 L130,40 Z M130,40" fill="#E5B731" id="Triangle-1"/></g></g></svg>