<?xml version="1.0" encoding="UTF-8" standalone="no"?>
<svg width="180px" height="120px" viewBox="0 0 180 120" version="1.1" xmlns="http://www.w3.org/2000/svg" xmlns:xlink="http://www.w3.org/1999/xlink">
    <!-- Generator: Sketch 40.2 (33826) - http://www.bohemiancoding.com/sketch -->
    <title>icon-flag-cr</title>
    <desc>Created with Sketch.</desc>
    <defs></defs>
    <g id="Page-1" stroke="none" stroke-width="1" fill="none" fill-rule="evenodd">
        <rect id="Rectangle-57" fill="#FFFFFF" x="0" y="0" width="180" height="120"></rect>
        <rect id="Rectangle-42_1_" fill="#CA4638" x="0" y="40" width="180" height="40"></rect>
        <rect id="Rectangle-42_2_" fill="#346DA6" x="0" y="0" width="180" height="20"></rect>
        <rect id="Rectangle-42_2_" fill="#346DA6" x="0" y="100" width="180" height="20"></rect>
        <ellipse id="Oval" fill="#FFFFFF" cx="55.5" cy="60" rx="17.2" ry="19.3"></ellipse>
        <polygon id="Shape" fill="#CEA849" points="44.8 56.7 45.3 56.2 44.2 56 43.9 56.4 44.8 56.7 44.8 56.7 44.8 56.7"></polygon>
        <polygon id="Shape" fill="#CEA849" points="66.2 56.7 65.7 56.2 66.8 56 67.1 56.4 66.2 56.7 66.2 56.7 66.2 56.7"></polygon>
        <path d="M54.9,48 L53.5,48 C52.6,48.1 52.3,48.4 52.8,49.1 C51.4,49.3 50,49.7 48.7,50.4 C48.3,50.3 47.9,50.5 47.8,50.9 C47.7,51.2 47.9,51.5 48.4,51.4 C48.1,52.2 44.7,52.1 44.7,53.4 C45,53.2 45.2,53 45.5,53.2 L45.3,53.8 C44.8,54 44.5,54 44.3,54.6 C44.1,55.2 43.8,56 43.6,56.4 C43.5,56.6 43.4,56.8 43.4,56.9 C43.4,57.1 43.6,57.5 44,57.5 C44.4,57.5 44.6,57.2 44.6,57 C44.6,56.8 44.5,56.6 44.1,56.6 C44.8,56.4 45.4,56.7 45.8,56.9 C46.4,57.3 46.5,58.2 46.2,58.8 C45.9,59.5 45.1,59.9 43.9,59.4 C42.9,59 41.9,59.5 41.6,60.4 C40.1,64.6 42.7,68 45.6,69.9 C48.7,72 49.2,72.5 50,73.5 C50.8,74.5 51.6,75.7 52.8,75.7 C53,75.7 53.2,75.6 53.3,75.6 C54.1,75.6 54.1,75.9 55.1,75.9 L55.1,75.9 L55.2,75.9 L55.3,75.9 L55.3,75.9 C56.3,75.9 56.4,75.6 57.1,75.6 C57.3,75.7 57.4,75.7 57.6,75.7 C58.8,75.7 59.6,74.6 60.4,73.5 C61.2,72.5 61.8,71.9 64.8,69.9 C67.7,67.9 70.3,64.5 68.8,60.4 C68.5,59.5 67.5,59 66.5,59.4 C65.3,59.9 64.5,59.5 64.2,58.8 C63.9,58.1 64,57.3 64.6,56.9 C65,56.6 65.6,56.4 66.3,56.6 C65.9,56.6 65.8,56.8 65.8,57 C65.8,57.3 66,57.5 66.4,57.5 C66.8,57.5 67,57.2 67,56.9 C67,56.8 67,56.6 66.8,56.4 C66.6,56 66.3,55.1 66.1,54.6 C65.9,54 65.5,54 65.1,53.8 L64.9,53.2 C65.2,53 65.5,53.2 65.7,53.4 C65.6,52.1 62.2,52.2 62,51.4 C62.4,51.5 62.7,51.2 62.6,50.9 C62.5,50.5 62.1,50.3 61.7,50.4 C60.4,49.7 59,49.4 57.6,49.1 C58.1,48.4 57.8,48.1 56.9,48 L55.5,48 L55.3,48 L54.9,48 L54.9,48 L54.9,48 L54.9,48 L54.9,48 L54.9,48 Z" id="Shape" fill="#DCA842"></path>
        <path d="M54.2,48 C55.6,48 55.3,49.4 54,49.5 C52.4,49.7 50.5,49.6 49.5,50" id="Shape"></path>
        <path d="M46,52.7 C47.1,52.4 48.2,52.6 48.9,52.3 C49.6,52 49.8,50.8 49,50.7" id="Shape"></path>
        <path d="M53,49.3 C53.2,49.2 53.5,49.2 53.6,49.1 C53.7,49 53.8,48.7 53.5,48.7" id="Shape"></path>
        <path d="M49,51.3 C49.2,50.8 49.2,50.5 48.8,50.7" id="Shape"></path>
        <path d="M57.5,48 C56.1,48 56.4,49.4 57.7,49.5 C59.3,49.7 61.2,49.6 62.2,50" id="Shape"></path>
        <path d="M65,52.7 C63.9,52.4 62.8,52.6 62.1,52.3 C61.4,52 61.2,50.8 62,50.7" id="Shape"></path>
        <path d="M58,49.3 C57.8,49.2 57.5,49.2 57.4,49.1 C57.3,49 57.2,48.7 57.5,48.7" id="Shape"></path>
        <path d="M62.3,51.3 C62.1,50.8 62.1,50.5 62.5,50.7" id="Shape"></path>
        <path d="M47.428571,60.633333 C47.828571,59.233333 48.028571,57.433333 47.428571,55.133333 C49.828571,53.433333 51.528571,51.933333 55.528571,51.933333 C59.428571,51.933333 61.328571,53.133333 63.628571,55.133333 C63.128571,57.433333 63.328571,59.233333 63.628571,60.633333 L47.428571,60.633333" id="Shape" fill="#89C5E3"></path>
        <path d="M48.828571,56.633333 L48.628571,58.633333 L48.628571,58.633333 L47.928571,56.633333 L48.228571,58.733333 L48.228571,58.733333 L47.528571,57.733333 L47.928571,58.933333 L47.428571,58.533333 L47.728571,59.233333 L47.728571,59.233333 L47.328571,59.133333 L47.528571,59.533333 C47.528571,59.633333 47.428571,59.833333 47.428571,60.033333 L47.428571,60.033333 L50.028571,60.033333 L50.028571,60.033333 C50.028571,59.833333 50.028571,59.733333 49.928571,59.533333 L50.428571,59.033333 L49.928571,59.233333 L49.928571,59.233333 C50.028571,59.133333 51.028571,57.833333 50.928571,57.833333 L49.728571,58.933333 L49.728571,58.933333 L50.628571,56.833333 L49.328571,58.733333 L49.328571,58.733333 L49.728571,56.733333 L49.028571,58.633333 L48.828571,56.633333 L48.828571,56.633333 L48.828571,56.633333 L48.828571,56.633333 L48.828571,56.633333 L48.828571,56.633333 Z" id="Shape" fill="#FCDD09"></path>
        <path d="M47.128571,60.033333 C46.928571,60.833333 46.628571,61.433333 46.428571,62.033333 C45.828571,63.533333 45.728571,66.933333 47.928571,69.333333 C51.228571,72.933333 53.828571,71.433333 55.028571,73.433333 L55.328571,73.433333 C56.628571,71.533333 59.128571,72.933333 62.428571,69.333333 C64.628571,66.933333 64.528571,63.533333 63.928571,62.033333 C63.728571,61.433333 63.428571,60.833333 63.228571,60.033333 L47.128571,60.033333" id="Shape" fill="#0F47AF"></path>
        <path d="M52.128571,57.333333 C52.128571,57.133333 51.728571,57.133333 51.728571,56.833333 C51.428571,56.733333 51.528571,56.233333 52.028571,56.233333 C52.128571,56.133333 52.628571,55.833333 52.628571,56.233333 C52.928571,55.933333 53.128571,56.233333 52.928571,56.333333 C53.028571,56.433333 53.128571,56.833333 52.728571,56.733333 C52.828571,57.033333 52.528571,57.033333 52.328571,56.933333 C52.328571,57.033333 52.328571,57.133333 52.228571,57.133333 C52.228571,57.133333 52.228571,57.233333 52.128571,57.333333 Z M58.528571,57.333333 C58.528571,57.033333 58.128571,57.133333 58.128571,56.833333 C57.928571,56.833333 57.928571,56.233333 58.428571,56.233333 C58.428571,56.033333 59.028571,55.833333 59.028571,56.233333 C59.228571,55.933333 59.528571,56.233333 59.328571,56.333333 C59.428571,56.433333 59.628571,56.733333 59.228571,56.733333 C59.428571,56.933333 59.028571,57.033333 58.828571,56.933333 C58.828571,57.033333 58.728571,57.033333 58.628571,57.033333 C58.528571,57.133333 58.628571,57.233333 58.528571,57.333333 Z M55.144898,53.366666 L54.944898,53.866666 L54.444898,53.866666 L54.844898,54.166666 L54.744898,54.666666 L55.144898,54.366666 L55.544898,54.666666 L55.344898,54.166666 L55.744898,53.866666 L55.244898,53.866666 L55.144898,53.366666 Z M52.944898,53.966666 L52.844898,54.466666 L52.344898,54.566666 L52.844898,54.766666 L52.744898,55.366666 L53.144898,54.966666 L53.644898,55.166666 L53.344898,54.666666 L53.744898,54.266666 L53.244898,54.366666 L52.944898,53.966666 Z M50.744898,54.666666 L50.744898,55.466666 L50.244898,55.666666 L50.744898,55.866666 L50.744898,56.666666 L51.044898,56.066666 L51.544898,56.266666 L51.244898,55.666666 L51.544898,55.066666 L51.044898,55.266666 L50.744898,54.666666 Z M48.544898,55.366666 L48.644898,55.866666 L48.144898,56.066666 L48.644898,56.166666 L48.744898,56.666666 L48.944898,56.166666 L49.444898,56.266666 L49.044898,55.866666 L49.244898,55.366666 L48.844898,55.666666 L48.544898,55.366666 Z M58.044898,53.966666 L58.144898,54.466666 L58.644898,54.566666 L58.144898,54.766666 L58.244898,55.266666 L57.844898,54.866666 L57.344898,55.066666 L57.644898,54.566666 L57.244898,54.166666 L57.744898,54.266666 L58.044898,53.966666 Z M60.244898,54.666666 L60.244898,55.466666 L60.744898,55.666666 L60.244898,55.866666 L60.244898,56.666666 L59.944898,56.066666 L59.444898,56.266666 L59.744898,55.666666 L59.444898,55.066666 L59.944898,55.266666 L60.244898,54.666666 Z M62.544898,55.366666 L62.444898,55.866666 L62.944898,56.066666 L62.444898,56.166666 L62.244898,56.666666 L62.044898,56.166666 L61.544898,56.266666 L61.944898,55.866666 L61.744898,55.366666 L62.244898,55.566666 L62.544898,55.366666 Z" id="Combined-Shape" fill="#FFFFFF"></path>
        <path d="M64.0278518,64.7 L65.028571,64.7 C65.028571,63.6 64.928571,62.7 64.628571,62.1 C64.328571,61.9 64.028571,61.7 63.728571,61.4 C63.428571,61.1 63.428571,60.7 63.328571,60.6 C63.228571,60.5 63.028571,60.5 63.028571,60.3 C63.028571,60.1 62.928571,59.8 62.828571,59.6 C62.728571,59.4 62.428571,58.4 62.328571,58 C62.128571,57.6 61.928571,57.7 61.828571,58.1 C61.728571,58.4 61.628571,58.6 61.428571,59 C61.228571,59.4 61.128571,59.6 61.128571,60 C61.028571,60.4 60.628571,60.9 60.528571,61.5 C60.528571,61.6 60.528571,61.5 60.528571,61.5 C60.528571,61.6 60.528571,61.6 60.528571,61.5 C59.928571,60.9 59.728571,60.3 59.528571,59.9 C59.228571,59.1 58.828571,57.9 58.728571,57.3 C58.628571,56.7 58.328571,56.9 58.028571,57.3 C57.828571,57.8 57.628571,58.3 57.628571,58.6 C57.628571,58.9 57.528571,59.1 57.428571,59.2 C57.328571,59.4 57.128571,60 57.028571,60.4 C56.828571,60.5 56.528571,60.9 56.428571,61.2 C56.228571,61.5 55.728571,61.9 55.228571,62.3 C54.428571,61.7 53.928571,60.4 53.728571,59.7 C53.428571,58.9 53.228571,58.7 52.828571,57.6 C52.528571,56.8 52.428571,56.8 52.228571,56.7 C52.028571,56.6 51.728571,57.1 51.528571,58 C51.328571,58.9 50.628571,60.4 50.228571,60.8 C49.928571,61.1 49.428571,61.7 49.028571,62.3 C48.328571,62.3 47.728571,63.4 46.028571,63.9 L46.028571,64.3000003 C46.028571,64.9000002 46.028571,65.4000001 45.928571,66.1 L63.928571,66.1 C64.0092682,65.6158165 64.024845,65.1316331 64.0278518,64.7 L64.0278518,64.7 Z" id="Combined-Shape" fill="#509164"></path>
        <path d="M64.328571,62.6 C64.328571,62.4 64.128571,62.3 64.128571,62.2 C64.128571,62 63.828571,62 63.728571,62.1 L63.728571,62.3 L63.728571,62.4 C63.828571,62.4 63.928571,62.4 63.928571,62.5 C63.928571,62.6 63.928571,62.5 64.028571,62.4 C64.028571,62.3 64.228571,62.5 64.328571,62.6 C64.228571,62.6 64.228571,62.7 64.328571,62.6" id="Shape_139_" fill="#509164"></path>
        <path d="M63.028571,62 C63.028571,62.1 63.228571,62.2 63.228571,62.2 C63.328571,62.2 63.428571,62.3 63.428571,62.3 C63.428571,62.4 63.528571,62.5 63.528571,62.5 C63.628571,62.5 63.528571,62.6 63.428571,62.6 C63.328571,62.6 63.228571,62.5 63.128571,62.5 C63.128571,62.6 63.128571,62.7 63.028571,62.6 C62.928571,62.5 62.928571,62.4 62.828571,62.3 C62.928571,62.3 62.928571,62.3 62.928571,62.2 C62.928571,62.1 62.928571,61.9 63.028571,62" id="Shape_140_" fill="#509164"></path>
        <path d="M54.465306,68.666666 L54.565306,64.266666 C54.565306,64.066666 54.565306,64.066666 54.565306,64.266666 L54.565306,68.766666" id="Shape_149_" fill="#865800"></path>
        <path d="M54.465306,68.666666 L54.565306,64.266666 C54.565306,64.066666 54.565306,64.066666 54.565306,64.266666 L54.565306,68.766666" id="Shape_150_" fill="#704D25"></path>
        <path d="M55.865306,68.566666 L55.965306,64.166666 C55.965306,63.966666 55.965306,63.866666 55.965306,64.166666 L55.965306,68.666666" id="Shape_153_" fill="#865800"></path>
        <path d="M55.865306,68.566666 L55.965306,64.166666 C55.965306,63.966666 55.965306,63.866666 55.965306,64.166666 L55.965306,68.666666" id="Shape_154_" fill="#704D25"></path>
        <path d="M57.265306,68.666666 L57.365306,64.266666 C57.365306,64.066666 57.365306,64.066666 57.365306,64.266666 L57.365306,68.766666" id="Shape_157_" fill="#865800"></path>
        <path d="M57.265306,68.666666 L57.365306,64.266666 C57.365306,64.066666 57.365306,64.066666 57.365306,64.266666 L57.365306,68.766666" id="Shape_158_" fill="#704D25"></path>
        <path d="M57.965306,69.266666 C57.865306,69.266666 57.665306,69.166666 57.565306,69.066666 C57.465306,69.166666 56.965306,69.266666 56.765306,69.066666 C56.665306,69.166666 56.265306,69.266666 56.065306,69.166666 C55.865306,69.266666 55.465306,69.266666 55.165306,69.166666 C55.065306,69.266666 54.765306,69.366666 54.665306,69.366666 C54.465306,69.066666 53.865306,68.566666 53.465306,68.366666 C53.065306,68.166666 52.265306,67.766666 51.765306,67.566666 C51.465306,67.466666 51.265306,67.266666 51.765306,67.466666 C52.265306,67.666666 53.065306,68.066666 53.665306,68.266666 C54.465306,68.666666 57.665306,68.566666 58.165306,68.566666 C58.465306,68.566666 58.765306,68.366666 59.065306,68.166666 C59.265306,68.066666 59.265306,68.166666 59.065306,68.266666 C58.865306,68.366666 58.665306,68.466666 58.465306,68.666666 C58.365306,68.966666 58.065306,69.066666 57.965306,69.266666" id="Shape_161_" fill="#704D25"></path>
        <path d="M57.965306,69.266666 C57.865306,69.266666 57.665306,69.166666 57.565306,69.066666 C57.465306,69.166666 56.965306,69.266666 56.765306,69.066666 C56.665306,69.166666 56.265306,69.266666 56.065306,69.166666 C55.865306,69.266666 55.465306,69.266666 55.165306,69.166666 C55.065306,69.266666 54.765306,69.366666 54.665306,69.366666 C54.465306,69.066666 53.865306,68.566666 53.465306,68.366666 C53.065306,68.166666 52.265306,67.766666 51.765306,67.566666 C51.465306,67.466666 51.265306,67.266666 51.765306,67.466666 C52.265306,67.666666 53.065306,68.066666 53.665306,68.266666 C54.465306,68.666666 57.665306,68.566666 58.165306,68.566666 C58.465306,68.566666 58.765306,68.366666 59.065306,68.166666 C59.265306,68.066666 59.265306,68.166666 59.065306,68.266666 C58.865306,68.366666 58.665306,68.466666 58.465306,68.666666 C58.365306,68.966666 58.065306,69.066666 57.965306,69.266666 L57.965306,69.266666 L57.965306,69.266666 L57.965306,69.266666 L57.965306,69.266666 L57.965306,69.266666 L57.965306,69.266666 Z" id="Shape_162_" fill="#704D25"></path>
        <path d="M54.465306,64.666666 C53.465306,65.366666 52.665306,66.666666 52.365306,67.666666 C52.665306,67.666666 53.065306,67.766666 53.165306,68.066666 C53.465306,66.666666 53.865306,65.366666 54.465306,64.666666" id="Shape_181_" fill="#FFFFFF"></path>
        <path d="M60.065306,67.966666 C59.665306,68.266666 58.965306,67.466666 58.665306,67.766666 L58.665306,67.466666 C58.965306,67.066666 59.665306,67.966666 60.065306,67.666666 L60.065306,67.966666" id="Shape_187_" fill="#FFFFFF"></path>
        <path d="M60.065306,67.666666 C59.665306,67.866666 58.965306,67.366666 58.665306,67.566666 L58.665306,67.366666 C58.965306,67.166666 59.665306,67.566666 60.065306,67.466666 L60.065306,67.666666" id="Shape_189_" fill="#FF0016"></path>
        <path d="M60.065306,68.266666 C59.665306,68.466666 58.965306,67.966666 58.665306,68.166666 L58.665306,67.966666 C58.965306,67.766666 59.665306,68.166666 60.065306,68.066666 L60.065306,68.266666" id="Shape_193_" fill="#00009E"></path>
        <path d="M57.265306,68.666666 L57.365306,64.266666 C57.365306,64.066666 57.365306,64.066666 57.365306,64.266666 L57.365306,68.766666" id="Shape_203_" fill="#865800"></path>
        <path d="M57.265306,68.666666 L57.365306,64.266666 C57.365306,64.066666 57.365306,64.066666 57.365306,64.266666 L57.365306,68.766666" id="Shape_204_" fill="#704D25"></path>
        <path d="M57.965306,69.266666 C57.865306,69.266666 57.665306,69.166666 57.565306,69.066666 C57.465306,69.166666 56.965306,69.266666 56.765306,69.066666 C56.665306,69.166666 56.265306,69.266666 56.065306,69.166666 C55.865306,69.266666 55.465306,69.266666 55.165306,69.166666 C55.065306,69.266666 54.765306,69.366666 54.665306,69.366666 C54.465306,69.066666 53.865306,68.566666 53.465306,68.366666 C53.065306,68.166666 52.265306,67.766666 51.765306,67.566666 C51.465306,67.466666 51.265306,67.266666 51.765306,67.466666 C52.265306,67.666666 53.065306,68.066666 53.665306,68.266666 C54.465306,68.666666 57.665306,68.566666 58.165306,68.566666 C58.465306,68.566666 58.765306,68.366666 59.065306,68.166666 C59.265306,68.066666 59.265306,68.166666 59.065306,68.266666 C58.865306,68.366666 58.665306,68.466666 58.465306,68.666666 C58.365306,68.966666 58.065306,69.066666 57.965306,69.266666" id="Shape_207_" fill="#704D25"></path>
        <path d="M57.7751714,65.3230052 C57.8617481,65.2764182 57.9336143,65.1518911 57.965306,64.866666 C57.765306,65.066666 57.365306,64.466666 57.265306,64.766666 L57.265306,65.366666 C57.2963179,65.2736302 57.3657995,65.2767684 57.4498902,65.2985345 C57.2754995,65.6713401 57.2682259,66.1243528 57.3501514,66.5017365 C57.3449426,66.7810658 57.4051243,67.0463026 57.465306,67.166666 C57.665306,66.666666 58.465306,66.966666 58.765306,67.266666 C58.6265867,67.058587 58.4878674,66.8024005 58.4826172,66.464739 C58.550934,66.4965613 58.6127275,66.5316137 58.665306,66.566666 C58.6233062,66.4406665 58.5636664,66.2793872 58.5234304,66.112463 C58.5347689,66.0652126 58.5486504,66.0166328 58.565306,65.966666 L58.494244,65.966666 C58.4660012,65.783661 58.4736442,65.6041588 58.565306,65.466666 L57.7751714,65.3230052 L57.7751714,65.3230052 Z M54.465306,64.066666 C54.565306,63.766666 54.965306,64.366666 55.165306,64.166666 C55.065306,65.066666 54.565306,64.366666 54.465306,64.666666 L54.465306,64.066666 L54.465306,64.066666 Z M55.865306,64.066666 C55.965306,63.766666 56.365306,64.366666 56.565306,64.166666 C56.465306,65.066666 55.965306,64.366666 55.865306,64.666666 L55.865306,64.066666 L55.865306,64.066666 Z M55.6543456,68.0780225 C55.938648,68.0725597 56.2863664,68.1587653 56.5900759,68.2905999 C56.581782,68.3165594 56.573544,68.341952 56.565306,68.366666 C56.5860525,68.3459195 56.6081764,68.3267225 56.631549,68.3090107 C56.7971582,68.384181 56.947801,68.472662 57.065306,68.566666 C56.9408775,68.4837137 56.8680572,68.3491532 56.8611151,68.1915248 C57.457569,67.9953199 58.4135512,68.330993 58.665306,68.666666 C58.365306,68.266666 58.065306,67.766666 58.665306,67.466666 C58.365306,67.466666 57.165306,67.366666 56.965306,67.366666 C56.9521961,67.3863308 56.9395159,67.4064253 56.9272372,67.4268932 L55.565306,67.266666 C55.424183,67.407789 55.3273172,67.5489119 55.2642989,67.7004444 C54.8204143,67.6251754 54.2884428,67.4959207 53.965306,67.366666 C53.765306,67.866666 53.765306,68.666666 53.765306,68.966666 C54.165306,68.266666 55.265306,68.666666 55.665306,69.366666 C55.5897421,69.0644104 55.5141782,68.4766596 55.6543456,68.0780225 L55.6543456,68.0780225 L55.6543456,68.0780225 Z M55.2846556,66.0588423 C55.3087146,66.0271971 55.3355329,65.9964391 55.365306,65.966666 L57.165306,66.166666 C56.865306,66.566666 57.065306,66.866666 57.265306,67.266666 C57.0508617,67.0522217 56.2743623,66.8888734 55.7028136,66.9227174 C55.7106593,67.0494082 55.7326509,67.1687007 55.765306,67.266666 C55.6256311,67.1502702 55.4696986,67.0609704 55.3063394,66.9937204 C55.251347,67.0136613 55.2037161,67.0378584 55.165306,67.066666 C55.1540723,67.0217312 55.1441006,66.9767964 55.1356743,66.9320033 C54.6414351,66.7764491 54.1089162,66.797944 53.765306,66.866666 C53.865306,66.766666 54.065306,66.266666 54.265306,65.966666 C54.5143786,65.966666 54.9185441,66.0054392 55.2846556,66.0588423 L55.2846556,66.0588423 L55.2846556,66.0588423 Z M56.565306,64.866666 L55.365306,64.666666 C55.165306,64.866666 55.065306,65.266666 55.065306,65.766666 C55.265306,65.466666 56.165306,65.566666 56.365306,65.966666 C56.365306,65.566666 56.265306,65.066666 56.565306,64.866666 L56.565306,64.866666 Z" id="Combined-Shape" fill="#FFFFFF"></path>
        <path d="M54.0985322,65.2081889 C53.6947558,65.9413735 53.399548,66.9735368 53.165306,68.066666 C53.115306,67.916666 52.990306,67.816666 52.840306,67.754166 C52.690306,67.691666 52.515306,67.666666 52.365306,67.666666 C52.665191,66.6670495 53.4646925,65.367663 54.4641557,64.6674716 C54.4645391,64.667203 54.4649225,64.6669344 54.465306,64.666666 C54.4648404,64.6672092 54.464375,64.6677527 54.4639097,64.6682965 C54.6931625,64.6730961 54.9906637,64.6920237 55.065306,64.766666 C54.984493,64.847479 55.0342948,65.0589068 55.1091577,65.2426188 C55.1563882,64.9900405 55.241771,64.790201 55.365306,64.666666 L56.565306,64.866666 C56.265306,65.066666 56.365306,65.566666 56.365306,65.966666 C56.165306,65.566666 55.265306,65.466666 55.065306,65.766666 C55.065306,65.6120081 55.0748736,65.4669179 55.0940089,65.3343547 C54.8084196,65.2170068 54.4091644,65.1845843 54.0985322,65.2081889 C54.211883,65.0023643 54.3337899,64.8201014 54.465306,64.666666 C54.4649225,64.6669344 54.4645391,64.667203 54.4641557,64.6674716 L54.0985322,65.2081889 Z M55.6543456,68.0780225 C55.938648,68.0725597 56.2863664,68.1587653 56.5900759,68.2905999 C56.581782,68.3165594 56.573544,68.341952 56.565306,68.366666 C56.5860525,68.3459195 56.6081764,68.3267225 56.631549,68.3090107 C56.7971582,68.384181 56.947801,68.472662 57.065306,68.566666 C56.9408775,68.4837137 56.8680572,68.3491532 56.8611151,68.1915248 C57.457569,67.9953199 58.4135512,68.330993 58.665306,68.666666 C58.365306,68.266666 58.065306,67.766666 58.665306,67.466666 C58.365306,67.466666 57.165306,67.366666 56.965306,67.366666 C56.9521961,67.3863308 56.9395159,67.4064253 56.9272372,67.4268932 L55.565306,67.266666 C55.424183,67.407789 55.3273172,67.5489119 55.2642989,67.7004444 C54.8204143,67.6251754 54.2884428,67.4959207 53.965306,67.366666 C53.765306,67.866666 53.765306,68.666666 53.765306,68.966666 C54.165306,68.266666 55.265306,68.666666 55.665306,69.366666 C55.5897421,69.0644104 55.5141782,68.4766596 55.6543456,68.0780225 L55.6543456,68.0780225 Z M55.2846556,66.0588423 C55.3087146,66.0271971 55.3355329,65.9964391 55.365306,65.966666 L57.165306,66.166666 C56.865306,66.566666 57.065306,66.866666 57.265306,67.266666 C57.0508617,67.0522217 56.2743623,66.8888734 55.7028136,66.9227174 C55.7106593,67.0494082 55.7326509,67.1687007 55.765306,67.266666 C55.6256311,67.1502702 55.4696986,67.0609704 55.3063394,66.9937204 C55.251347,67.0136613 55.2037161,67.0378584 55.165306,67.066666 C55.1540723,67.0217312 55.1441006,66.9767964 55.1356743,66.9320033 C54.6414351,66.7764491 54.1089162,66.797944 53.765306,66.866666 C53.865306,66.766666 54.065306,66.266666 54.265306,65.966666 C54.5143786,65.966666 54.9185441,66.0054392 55.2846556,66.0588423 L55.2846556,66.0588423 Z M57.3501514,66.5017365 C57.2658767,66.1135315 57.27599,65.6452981 57.465306,65.266666 L58.565306,65.466666 C58.4736442,65.6041588 58.4660012,65.783661 58.494244,65.966666 L58.565306,65.966666 C58.5486504,66.0166328 58.5347689,66.0652126 58.5234304,66.112463 C58.5636664,66.2793872 58.6233062,66.4406665 58.665306,66.566666 C58.6127275,66.5316137 58.550934,66.4965613 58.4826172,66.464739 C58.4878674,66.8024005 58.6265867,67.058587 58.765306,67.266666 C58.465306,66.966666 57.665306,66.666666 57.465306,67.166666 C57.4051243,67.0463026 57.3449426,66.7810658 57.3501514,66.5017365 L57.3501514,66.5017365 Z M54.465306,63.966666 C53.465306,64.866666 52.165306,66.466666 51.665306,67.266666 L54.465306,63.966666 L54.465306,63.966666 Z" id="Combined-Shape" fill="#FFFFFF"></path>
        <path d="M55.3002952,47.2495547 C54.7013705,47.8446343 53.8208629,47.933333 52.408163,47.933333 L50.108163,47.933333 C50.108163,48.133333 50.208163,48.333333 50.208163,48.533333 C50.208163,48.833333 49.908163,48.933333 49.608163,48.833333 C49.208163,48.833333 48.508163,48.533333 48.108163,48.933333 C47.508163,49.533333 46.208163,49.633333 45.908163,50.033333 C46.008163,49.533333 46.408163,49.133333 46.908163,48.733333 C46.508163,48.633333 45.908163,48.633333 45.708163,48.833333 C46.208163,48.333333 47.108163,48.333333 47.608163,48.033333 C48.108163,47.733333 48.608163,47.533333 48.908163,47.433333 C48.908163,47.233333 49.008163,47.133333 49.108163,47.033333 C49.508163,46.833333 50.008163,46.733333 50.508163,46.733333 C50.408163,46.633333 50.408163,46.533333 50.408163,46.433333 L50.408163,45.733333 C50.408163,45.433333 50.408163,45.433333 50.708163,45.233333 C51.908163,44.533333 53.208163,44.033333 55.708163,44.033333 C58.208163,44.033333 59.608163,44.533333 60.708163,45.233333 C61.008163,45.433333 61.008163,45.433333 61.008163,45.733333 L61.008163,46.433333 C61.008163,46.533333 61.008163,46.633333 60.908163,46.733333 C61.408163,46.733333 62.008163,46.833333 62.308163,47.033333 C62.508163,47.133333 62.508163,47.233333 62.508163,47.433333 C62.908163,47.533333 63.308163,47.733333 63.808163,48.033333 C64.308163,48.233333 65.208163,48.233333 65.708163,48.833333 C65.508163,48.733333 65.008163,48.633333 64.508163,48.733333 C65.008163,49.133333 65.408163,49.533333 65.508163,50.033333 C65.208163,49.633333 64.008163,49.533333 63.308163,48.933333 C62.908163,48.533333 62.108163,48.733333 61.808163,48.833333 C61.408163,48.833333 61.208163,48.733333 61.208163,48.533333 C61.208163,48.333333 61.308163,48.133333 61.308163,47.933333 L59.008163,47.933333 C57.508163,47.933333 56.608163,47.833333 56.008163,47.133333 C56.308163,47.033333 56.208163,46.433333 56.208163,46.233333 C57.008163,46.133333 57.008163,45.833333 57.608163,45.833333 C58.208163,45.833333 58.308163,46.133333 58.308163,46.233333 L58.308163,46.333333 C58.708163,46.333333 59.308163,46.233333 59.508163,45.933333 C58.608163,45.533333 57.408163,45.233333 55.608163,45.233333 C53.808163,45.233333 52.608163,45.533333 51.708163,45.933333 C51.808163,46.233333 52.508163,46.333333 52.908163,46.333333 L52.908163,46.233333 C52.908163,46.133333 53.008163,45.833333 53.608163,45.833333 C54.100005,45.833333 54.4950835,46.0268598 55.1741371,46.2235442 C55.234153,46.0596452 55.3395799,45.933333 55.508163,45.933333 C55.908163,45.933333 55.908163,46.333333 55.908163,46.633333 C55.908163,47.033333 55.808163,47.333333 55.508163,47.333333 C55.208163,47.333333 55.508163,47.333333 55.508163,47.333333 C55.4237987,47.333333 55.3552508,47.3017004 55.3002952,47.2495547 L55.3002952,47.2495547 Z" id="Combined-Shape" fill="#89C5E3"></path>
        <path d="M47.4,53 C47.8,53.1 48.1,53.6 49.5,52.9 C48.2,52.3 47.7,53 47.4,53 Z M48.1,52.3 C48.5,52.4 48.7,53 50.2,52.4 C49,51.6 48.4,52.3 48.1,52.3 Z M50.9,51.7 C49.7,50.9 49.1,51.6 48.8,51.6 C49.2,51.7 49.4,52.3 50.9,51.7 Z M54.4,51.3 C54.4,51.1 54.2,50.8 54.1,50.6 L54.2,50.6 L54.1,50.6 L54.4,50.6 C54.2,50.4 54.1,50.3 53.9,50.2 C54,50.1 54,50 53.9,49.9 C53.9,49.8 53.8,49.9 53.7,50 L53.7,50.1 C53,49.8 52.5,50 52.3,50 C52.6,50.2 52.7,50.6 53.9,50.6 L53.6,50.6 L53.9,50.6 C54,50.8 54.2,51 54.2,51.2 C53.8,51 53.4,50.7 53,50.6 L54.2,51.2 L54.2,51.3 L54.4,51.3 L54.4,51.3 Z M52,50.7 L51.7,50.7 L51.4,50.7 C50.8,50.6 50.4,50.9 50.2,50.8 C50.5,50.9 50.7,51.4 51.8,51.2 L51.9,51.2 C52.2,51.2 52.5,51.2 53,51.1 C52.7,50.9 52.5,50.7 52.3,50.6 L53,50.7 C52.7,50.8 52.4,50.7 52,50.7 Z M55.6,51.1 C55.9,50.8 56.2,50.4 56.5,50.1 C56.2,50.2 56.2,49.9 55.9,50.5 C55.8,50.7 55.7,50.8 55.5,51 C55.3,50.8 55.2,50.6 55.1,50.5 C54.8,49.9 54.7,50.2 54.5,50.1 C54.8,50.5 55.1,50.8 55.4,51.1 C55.1,51.4 54.8,51.7 54.5,51.9 L54.7,52 C54.9,51.8 55.2,51.5 55.6,51.2 C55.9,51.5 56.2,51.8 56.5,52 L56.7,51.9 C56.3,51.7 55.9,51.4 55.6,51.1 Z M61.5,53 C62.9,53.7 63.3,53.2 63.6,53.1 C63.3,53 62.8,52.3 61.5,53 Z M60.8,52.4 C62.3,53 62.6,52.4 62.9,52.3 C62.6,52.3 62,51.6 60.8,52.4 Z M62.2,51.6 C61.9,51.6 61.3,50.9 60.1,51.7 C61.6,52.3 61.8,51.7 62.2,51.6 Z M59.1,51.3 C60.3,51.5 60.5,51 60.8,50.8 C60.6,50.8 60.2,50.5 59.6,50.7 L59.3,50.7 L59,50.7 C58.6,50.7 58.3,50.9 58,50.9 L58.7,50.8 C58.5,50.9 58.2,51 58,51.3 L59.1,51.3 Z M58,50.7 C57.6,50.8 57.1,51.1 56.8,51.3 C56.9,51.1 57,50.9 57.1,50.7 L57.4,50.7 L57.1,50.7 C58.3,50.7 58.4,50.2 58.7,50.1 C58.5,50.2 57.9,49.9 57.3,50.2 L57.3,50.1 C57.2,50 57.1,50 57,50 L57,50.3 C56.8,50.4 56.7,50.5 56.5,50.7 L56.8,50.7 L56.7,50.7 L56.8,50.7 C56.7,50.9 56.5,51.1 56.5,51.4 L56.6,51.4 L56.6,51.3 L58,50.7 Z" id="Combined-Shape" fill="#078930"></path>
        <path d="M55.1,51.433333 L55.9,51.433333 L55.9,50.933333 C55.9,50.733333 56.4,50.633333 57.2,50.733333 C60.3,51.333333 60.7,52.833333 63,53.633333 C63,53.633333 63.1,53.633333 63.2,53.733333 C63.3,53.633333 63.3,53.433333 63.4,53.233333 C63.4,53.133333 63.8,53.133333 64.1,53.233333 C64.4,53.433333 64.6,53.633333 64.5,53.733333 C64.4,53.933333 64.4,54.033333 64.3,54.133333 C64.8,54.333333 65.8,54.633333 65.5,56.033333 C65.2,55.733333 64.6,55.533333 64.3,55.533333 C63.9,55.533333 63.4,55.333333 63.5,54.833333 C63.4,54.833333 63.3,54.733333 63.2,54.733333 C63.2,54.733333 63.2,54.833333 63.1,54.833333 C63,55.133333 62.6,55.133333 62.1,55.033333 C59.7,54.133333 58.9,52.233333 56,52.233333 L56,52.333333 C56,52.533333 55.7,52.833333 54.9,52.833333 C54.1,52.833333 53.8,52.633333 53.8,52.333333 L53.8,52.233333 C50.9,52.233333 50.2,54.133333 47.7,55.033333 C47.3,55.233333 46.8,55.133333 46.7,54.833333 C46.7,54.833333 46.7,54.733333 46.6,54.733333 C46.5,54.733333 46.4,54.833333 46.3,54.833333 C46.4,55.333333 46,55.533333 45.5,55.533333 C45.1,55.533333 44.5,55.833333 44.3,56.033333 C44,54.633333 45,54.333333 45.5,54.133333 C45.4,54.033333 45.4,53.933333 45.3,53.733333 C45.2,53.633333 45.4,53.433333 45.7,53.233333 C46,53.033333 46.3,53.033333 46.4,53.233333 C46.5,53.433333 46.5,53.533333 46.6,53.733333 C46.7,53.733333 46.8,53.733333 46.8,53.633333 C49.1,52.833333 49.6,51.333333 52.6,50.733333 C53.4,50.533333 53.9,50.733333 53.9,50.933333 L53.9,51.333333 C54.6,51.433333 54.8,51.433333 55.1,51.433333 C55.1,51.433333 54.8,51.433333 55.1,51.433333 L55.1,51.433333 L55.1,51.433333 L55.1,51.433333 L55.1,51.433333 L55.1,51.433333 Z" id="Shape" fill="#FFFFFF"></path>
    </g>
</svg>