<?xml version="1.0" ?><svg height="120px" version="1.1" viewBox="0 0 180 120" width="180px" xmlns="http://www.w3.org/2000/svg" xmlns:sketch="http://www.bohemiancoding.com/sketch/ns" xmlns:xlink="http://www.w3.org/1999/xlink"><title/><defs/><g fill="none" fill-rule="evenodd" id="Page-1" stroke="none" stroke-width="1"><g id="georgia"><rect d="M0,0 L0,120 L180,120 L180,0 L0,0 Z M0,0" fill="#FFFFFF" height="120" id="Rectangle-326" width="180" x="0" y="0"/><rect d="M80,0 L80,120 L100,120 L100,0 L80,0 Z M80,0" fill="#CA4638" height="120" id="Rectangle-5" width="20" x="80" y="0"/><rect d="M0,50 L0,70 L180,70 L180,50 L0,50 Z M0,50" fill="#CA4638" height="20" id="Rectangle-5-copy" width="180" x="0" y="50"/><path d="M39.2625454,19.3980316 C39.0501489,15.0772105 38.5384401,10.7674631 37.7274189,6.5 L37.7274189,6.5 C41.8030152,7.00850906 37.7274189,6.5 37.7274189,6.5 C41.8030152,7.00850906 45.9260124,7.00850906 50.0016086,6.5 C49.1905875,10.7674631 48.6788787,15.0772105 48.4664822,19.3980316 C52.7873033,19.1856351 57.0970506,18.6739263 61.3645138,17.8629051 C60.8560047,21.9385014 60.8560047,26.0614986 61.3645138,30.1370949 C57.0970506,29.3260737 52.7873033,28.8143649 48.4664822,28.6019684 C48.6788787,32.9227895 49.1905875,37.2325369 50.0016086,41.5 C45.9260124,40.9914909 41.8030152,40.9914909 37.7274189,41.5 C38.5384401,37.2325369 39.0501489,32.9227895 39.2625454,28.6019684 C34.9417243,28.8143649 30.6319769,29.3260737 26.3645138,30.1370949 L26.3645138,30.1370949 C26.8730229,26.0614986 26.3645138,30.1370949 26.3645138,30.1370949 C26.8730229,26.0614986 26.8730229,21.9385014 26.3645138,17.8629051 C30.6319769,18.6739263 34.9417243,19.1856351 39.2625454,19.3980316 C39.2625454,19.3980316 34.9417243,19.1856351 39.2625454,19.3980316 L39.2625454,19.3980316 L39.2625454,19.3980316 Z M39.2625454,19.3980316" fill="#CA4638" id="varm"/><path d="M134.533518,19.3980316 C134.321121,15.0772105 133.809412,10.7674631 132.998391,6.5 L132.998391,6.5 C137.073988,7.00850906 132.998391,6.5 132.998391,6.5 C137.073988,7.00850906 141.196985,7.00850906 145.272581,6.5 C144.46156,10.7674631 143.949851,15.0772105 143.737455,19.3980316 C148.058276,19.1856351 152.368023,18.6739263 156.635486,17.8629051 C156.126977,21.9385014 156.126977,26.0614986 156.635486,30.1370949 C152.368023,29.3260737 148.058276,28.8143649 143.737455,28.6019684 C143.949851,32.9227895 144.46156,37.2325369 145.272581,41.5 C141.196985,40.9914909 137.073988,40.9914909 132.998391,41.5 C133.809412,37.2325369 134.321121,32.9227895 134.533518,28.6019684 C130.212697,28.8143649 125.902949,29.3260737 121.635486,30.1370949 L121.635486,30.1370949 C122.143995,26.0614986 121.635486,30.1370949 121.635486,30.1370949 C122.143995,26.0614986 122.143995,21.9385014 121.635486,17.8629051 C125.902949,18.6739263 130.212697,19.1856351 134.533518,19.3980316 C134.533518,19.3980316 130.212697,19.1856351 134.533518,19.3980316 L134.533518,19.3980316 L134.533518,19.3980316 Z M134.533518,19.3980316" fill="#CA4638" id="varm"/><path d="M39.2625454,91.3980315 C39.0501489,87.0772107 38.5384401,82.7674629 37.7274189,78.5 L37.7274189,78.5 C41.8030152,79.0085093 37.7274189,78.5 37.7274189,78.5 C41.8030152,79.0085093 45.9260124,79.0085093 50.0016086,78.5 C49.1905875,82.7674629 48.6788787,87.0772107 48.4664822,91.3980315 C52.7873033,91.1856352 57.0970506,90.6739263 61.3645138,89.8629055 C60.8560047,93.9385016 60.8560047,98.0614984 61.3645138,102.137095 C57.0970506,101.326074 52.7873033,100.814365 48.4664822,100.601968 C48.6788787,104.922789 49.1905875,109.232537 50.0016086,113.5 C45.9260124,112.991491 41.8030152,112.991491 37.7274189,113.5 C38.5384401,109.232537 39.0501489,104.922789 39.2625454,100.601968 C34.9417243,100.814365 30.6319769,101.326074 26.3645138,102.137095 L26.3645138,102.137095 C26.8730229,98.0614984 26.3645138,102.137095 26.3645138,102.137095 C26.8730229,98.0614984 26.8730229,93.9385016 26.3645138,89.8629055 C30.6319769,90.6739263 34.9417243,91.1856352 39.2625454,91.3980315 C39.2625454,91.3980315 34.9417243,91.1856352 39.2625454,91.3980315 L39.2625454,91.3980315 L39.2625454,91.3980315 Z M39.2625454,91.3980315" fill="#CA4638" id="varm"/><path d="M134.533518,91.3980315 C134.321121,87.0772107 133.809412,82.7674629 132.998391,78.5 L132.998391,78.5 C137.073988,79.0085093 132.998391,78.5 132.998391,78.5 C137.073988,79.0085093 141.196985,79.0085093 145.272581,78.5 C144.46156,82.7674629 143.949851,87.0772107 143.737455,91.3980315 C148.058276,91.1856352 152.368023,90.6739263 156.635486,89.8629055 C156.126977,93.9385016 156.126977,98.0614984 156.635486,102.137095 C152.368023,101.326074 148.058276,100.814365 143.737455,100.601968 C143.949851,104.922789 144.46156,109.232537 145.272581,113.5 C141.196985,112.991491 137.073988,112.991491 132.998391,113.5 C133.809412,109.232537 134.321121,104.922789 134.533518,100.601968 C130.212697,100.814365 125.902949,101.326074 121.635486,102.137095 L121.635486,102.137095 C122.143995,98.0614984 121.635486,102.137095 121.635486,102.137095 C122.143995,98.0614984 122.143995,93.9385016 121.635486,89.8629055 C125.902949,90.6739263 130.212697,91.1856352 134.533518,91.3980315 C134.533518,91.3980315 130.212697,91.1856352 134.533518,91.3980315 L134.533518,91.3980315 L134.533518,91.3980315 Z M134.533518,91.3980315" fill="#CA4638" id="varm"/></g></g></svg>