<?xml version="1.0" ?><svg height="120px" version="1.1" viewBox="0 0 180 120" width="180px" xmlns="http://www.w3.org/2000/svg" xmlns:sketch="http://www.bohemiancoding.com/sketch/ns" xmlns:xlink="http://www.w3.org/1999/xlink"><title/><defs/><g fill="none" fill-rule="evenodd" id="Africa,-Middle-East-and-India" stroke="none" stroke-width="1"><g id="Africa,-Middle-Eest-and-India" transform="translate(-800.000000, -201.000000)"><g id="Burkina" transform="translate(800.000000, 201.000000)"><rect d="M0.00276191524,-1.42108547e-14 L0.00276191524,120 L179.997238,120 L179.997238,-1.42108547e-14 L0.00276191524,-1.42108547e-14 Z M0.00276191524,-1.42108547e-14" fill="#CA4638" height="120" id="Rectangle-3" width="179.994476" x="0.00276191524" y="-1.42112908e-14"/><rect d="M0.00552366097,60 L0.00552366097,120 L180,120 L180,60 L0.00552366097,60 Z M0.00552366097,60" fill="#479951" height="60" id="Rectangle-3-copy-2" width="179.994476" x="0.00552366097" y="60"/><path d="M67.167531,54.8734983 L84.6136485,54.8734983 L90.0027663,38.2814123 L95.3918752,54.8734983 L112.837993,54.8734983 L98.7258206,65.1265034 L104.114938,81.7185877 L90.0027663,71.4655737 L75.8905942,81.7185877 L81.2797031,65.1265034 L67.167531,54.8734983 L67.167531,54.8734983 L67.167531,54.8734983 L67.167531,54.8734983 Z M67.167531,54.8734983" fill="#F9D616" id="Shape"/></g></g></g></svg>