<?xml version="1.0" ?><svg height="120px" version="1.1" viewBox="0 0 180 120" width="180px" xmlns="http://www.w3.org/2000/svg" xmlns:sketch="http://www.bohemiancoding.com/sketch/ns" xmlns:xlink="http://www.w3.org/1999/xlink"><title/><defs/><g fill="none" fill-rule="evenodd" id="Asia-Pacific" stroke="none" stroke-width="1"><g id="Tajikistan" transform="translate(-1000.000000, -801.000000)"><g transform="translate(1000.000000, 801.000000)"><rect d="M0,0 L0,120 L180,120 L180,0 L0,0 Z M0,0" fill="#FFFFFF" height="120" id="TH-copy-3" transform="translate(90.000000, 60.000000) scale(1, -1) translate(-90.000000, -60.000000) " width="180" x="0" y="0"/><rect d="M0,80 L0,120 L180,120 L180,80 L0,80 Z M0,80" fill="#479951" height="40" id="TH-copy-2" width="180" x="0" y="80"/><rect d="M0,0 L0,40 L180,40 L180,0 L0,0 Z M0,0" fill="#CA4638" height="40" id="TH" width="180" x="0" y="0"/><g fill="#E5B731" id="Group" transform="translate(68.000000, 42.000000)"><rect d="M21.1839062,33 C18.4559375,33 13,33.6219194 13,33.6219194 L13,35 C13,35 18.4315332,34.3560434 21.1839062,34.3560434 C24.0981999,34.3560434 30,35 30,35 L30,33.6219194 C30,33.6219194 24.1226042,33 21.1839062,33 Z M21.1839062,33" height="2" id="Rectangle-112" width="17" x="13" y="33"/><path d="M18.2036511,17.3252471 C18.583904,16.6630715 19.3514772,16.336242 20.0847796,16.5242705 C20.818082,16.712299 21.3395457,17.3696547 21.3627557,18.1352836 L21.3627557,25 L22.6372443,25 L22.6372443,18.1352836 C22.6604543,17.3696547 23.181918,16.712299 23.9152204,16.5242705 C24.6485228,16.336242 25.416096,16.6630715 25.7963489,17.3252471 C26.3437475,15.6540539 25.7621833,13.816189 24.3575583,12.7783667 C22.9529333,11.7405444 21.0470667,11.7405444 19.6424417,12.7783667 C18.2378167,13.816189 17.6562525,15.6540539 18.2036511,17.3252471" id="Shape"/><path d="M22.383397,20 C22.2110467,21.981018 20.9593324,23.68707 19.1588329,24.3949917 C17.3583334,25.1029135 15.3244047,24.6887132 13.9191921,23.3279626 C13.3228652,24.8732996 12.0706103,26.0491861 10.5240543,26.5160491 C8.97749826,26.982912 7.30885645,26.6887643 6,25.71855 C6.48384309,30.7039245 13.722717,29.6860738 14.2620292,24.8386846 C16.5362084,28.9603162 21.5367777,27.7798722 23,22.7309932 C23,22.7309932 21.5367777,27.7798722 23,22.7309932 L22.383397,20 L22.383397,20 Z M22.383397,20" id="w"/><path d="M38.383397,20 C38.2110467,21.981018 36.9593324,23.68707 35.1588329,24.3949917 C33.3583334,25.1029135 31.3244047,24.6887132 29.9191921,23.3279626 C29.3228652,24.8732996 28.0706103,26.0491861 26.5240543,26.5160491 C24.9774983,26.982912 23.3088565,26.6887643 22,25.71855 C22.4838431,30.7039245 29.722717,29.6860738 30.2620292,24.8386846 C32.5362084,28.9603162 37.5367777,27.7798722 39,22.7309932 C39,22.7309932 37.5367777,27.7798722 39,22.7309932 L38.383397,20 L38.383397,20 Z M38.383397,20" id="w-copy" transform="translate(30.500000, 24.500000) scale(-1, 1) translate(-30.500000, -24.500000) "/><path d="M32.9999668,29.3880835 C31.7360484,32.3736645 29.2097544,32.8865105 27,30.4764608 C27,30.4764608 27.8882652,29.7896828 28.8392775,29.6003564 C28.6609575,28.769927 29.0266064,27.6212245 29.5419724,27 C30.0824241,27.4041771 30.8366672,28.2142379 31.0284923,29.1555873 C32.3605997,28.9668962 33,29.3882288 33,29.3882288 L33,29.3882288 L32.9999668,29.3880835 L32.9999668,29.3880835 Z M32.9999668,29.3880835" id="r" transform="translate(30.000000, 29.500000) scale(-1, 1) translate(-30.000000, -29.500000) "/><path d="M25.9999668,29.3880835 C24.7360484,32.3736645 22.2097544,32.8865105 20,30.4764608 C20,30.4764608 20.8882652,29.7896828 21.8392775,29.6003564 C21.6609575,28.769927 22.0266064,27.6212245 22.5419724,27 C23.0824241,27.4041771 23.8366672,28.2142379 24.0284923,29.1555873 C25.3605997,28.9668962 26,29.3882288 26,29.3882288 L26,29.3882288 L25.9999668,29.3880835 L25.9999668,29.3880835 Z M25.9999668,29.3880835" id="r-copy" transform="translate(23.000000, 29.500000) scale(-1, 1) rotate(8.000000) translate(-23.000000, -29.500000) "/><path d="M18.9999668,29.3880835 C17.7360484,32.3736645 15.2097544,32.8865105 13,30.4764608 C13,30.4764608 13.8882652,29.7896828 14.8392775,29.6003564 C14.6609575,28.769927 15.0266064,27.6212245 15.5419724,27 C16.0824241,27.4041771 16.8366672,28.2142379 17.0284923,29.1555873 C18.3605997,28.9668962 19,29.3882288 19,29.3882288 L19,29.3882288 L18.9999668,29.3880835 L18.9999668,29.3880835 Z M18.9999668,29.3880835" id="r-copy"/><polygon d="M2.99999969,23.9750775 L1.1458981,25 L1.49999991,22.8291796 L5.60331584e-17,21.2917961 L2.07294915,20.9750774 L2.99999979,19 L3.927051,20.9750778 L6,21.2917977 L4.49999948,22.82918 L4.85410135,25 L2.99999969,23.9750775 Z M2.99999969,23.9750775" id="Star-1" points="2.99999969 23.9750775 1.1458981 25 1.49999991 22.8291796 5.60331584e-17 21.2917961 2.07294915 20.9750774 2.99999979 19 3.927051 20.9750778 6 21.2917977 4.49999948 22.82918 4.85410135 25 "/><polygon d="M5.99999969,13.9750775 L4.1458981,15 L4.49999991,12.8291796 L3,11.2917961 L5.07294915,10.9750774 L5.99999979,9 L6.927051,10.9750778 L9,11.2917977 L7.49999948,12.82918 L7.85410135,15 L5.99999969,13.9750775 Z M5.99999969,13.9750775" id="Star-1" points="5.99999969 13.9750775 4.1458981 15 4.49999991 12.8291796 3 11.2917961 5.07294915 10.9750774 5.99999979 9 6.927051 10.9750778 9 11.2917977 7.49999948 12.82918 7.85410135 15 "/><polygon d="M12.9999997,7.97507751 L11.1458981,8.99999995 L11.4999999,6.82917957 L10,5.29179608 L12.0729492,4.97507736 L12.9999998,3 L13.927051,4.97507785 L16,5.29179766 L14.4999995,6.82917998 L14.8541013,9 L12.9999997,7.97507751 Z M12.9999997,7.97507751" id="Star-1" points="12.9999997 7.97507751 11.1458981 8.99999995 11.4999999 6.82917957 10 5.29179608 12.0729492 4.97507736 12.9999998 3 13.927051 4.97507785 16 5.29179766 14.4999995 6.82917998 14.8541013 9 "/><polygon d="M21.9999997,4.97507751 L20.1458981,5.99999995 L20.4999999,3.82917957 L19,2.29179608 L21.0729492,1.97507736 L21.9999998,-9.38624742e-17 L22.927051,1.97507785 L25,2.29179766 L23.4999995,3.82917998 L23.8541013,6 L21.9999997,4.97507751 Z M21.9999997,4.97507751" id="Star-1" points="21.9999997 4.97507751 20.1458981 5.99999995 20.4999999 3.82917957 19 2.29179608 21.0729492 1.97507736 21.9999998 -9.38624742e-17 22.927051 1.97507785 25 2.29179766 23.4999995 3.82917998 23.8541013 6 "/><polygon d="M30.9999997,7.97507751 L29.1458981,8.99999995 L29.4999999,6.82917957 L28,5.29179608 L30.0729492,4.97507736 L30.9999998,3 L31.927051,4.97507785 L34,5.29179766 L32.4999995,6.82917998 L32.8541013,9 L30.9999997,7.97507751 Z M30.9999997,7.97507751" id="Star-1" points="30.9999997 7.97507751 29.1458981 8.99999995 29.4999999 6.82917957 28 5.29179608 30.0729492 4.97507736 30.9999998 3 31.927051 4.97507785 34 5.29179766 32.4999995 6.82917998 32.8541013 9 "/><polygon d="M37.9999997,13.9750775 L36.1458981,15 L36.4999999,12.8291796 L35,11.2917961 L37.0729492,10.9750774 L37.9999998,9 L38.927051,10.9750778 L41,11.2917977 L39.4999995,12.82918 L39.8541013,15 L37.9999997,13.9750775 Z M37.9999997,13.9750775" id="Star-1" points="37.9999997 13.9750775 36.1458981 15 36.4999999 12.8291796 35 11.2917961 37.0729492 10.9750774 37.9999998 9 38.927051 10.9750778 41 11.2917977 39.4999995 12.82918 39.8541013 15 "/><polygon d="M40.9999997,23.9750775 L39.1458981,25 L39.4999999,22.8291796 L38,21.2917961 L40.0729492,20.9750774 L40.9999998,19 L41.927051,20.9750778 L44,21.2917977 L42.4999995,22.82918 L42.8541013,25 L40.9999997,23.9750775 Z M40.9999997,23.9750775" id="Star-1" points="40.9999997 23.9750775 39.1458981 25 39.4999999 22.8291796 38 21.2917961 40.0729492 20.9750774 40.9999998 19 41.927051 20.9750778 44 21.2917977 42.4999995 22.82918 42.8541013 25 "/></g></g></g></g></svg>