<?xml version="1.0" encoding="UTF-8" standalone="no"?>
<svg width="180px" height="120px" viewBox="0 0 180 120" version="1.1" xmlns="http://www.w3.org/2000/svg" xmlns:xlink="http://www.w3.org/1999/xlink">
    <!-- Generator: Sketch 40.2 (33826) - http://www.bohemiancoding.com/sketch -->
    <title>icon-flag-pn</title>
    <desc>Created with Sketch.</desc>
    <defs></defs>
    <g id="Page-1" stroke="none" stroke-width="1" fill="none" fill-rule="evenodd">
        <rect id="Rectangle-path" fill="#00247D" x="0" y="0" width="180" height="120"></rect>
        <g id="Group" transform="translate(108.000000, 30.000000)">
            <path d="M15.108,32.9096923 C13.188,34.3480769 11.358,36.4499231 10.908,38.3500769 C9.642,43.6949231 7.962,44.8838462 5.37,43.7373846 C5.37,46.6088462 8.214,46.8264615 9.462,45.1492308 C9.462,47.8402308 10.566,50.1756154 13.056,52.166 C14.106,53.0046154 14.304,52.4313846 13.806,51.5025385 C13.308,50.5736923 13.308,47.5748462 12.312,45.8551538 C13.908,46.8689231 16.254,46.2956923 16.056,43.5144615 C14.01,44.576 11.976,44.5335385 11.766,42.0123846 C11.508,39.056 12.81,34.7620769 15.108,32.9096923 L15.108,32.9096923 Z" id="Shape" stroke="#000000" stroke-width="0.015" fill="#F7E017"></path>
            <path d="M12.678,11.6523846 C12.816,10.5908462 12.558,9.50276923 11.682,8.81807692 C9.99,7.50176923 8.334,7.937 7.098,8.99853846 C5.25,8.11746154 4.272,11.2436923 2.178,10.7182308 C2.526,11.732 3.078,12.1725385 4.122,11.8222308 C3.024,12.7033077 4.122,13.7648462 2.826,14.8210769 C5.172,15.4845385 6.42,14.3380769 6.318,12.3476923 C7.218,13.0536154 8.61,13.0111538 9.36,12.215 C8.112,11.8593846 8.106,10.904 8.61,10.007 C9.36,8.68538462 12.876,8.73846154 12.678,11.6523846 L12.678,11.6523846 Z" id="Shape" stroke="#000000" stroke-width="0.015" fill="#F7E017"></path>
            <path d="M18.09,27.0075385 C15.444,28.2442308 10.608,27.7134615 10.158,24.6668462 C9.708,21.6202308 13.05,20.2508462 13.95,19.8580769 C15.348,19.2370769 16.446,20.3410769 15.996,21.6255385 C17.544,21.1425385 17.892,19.5502308 17.142,18.6266923 C19.188,18.7593846 21.084,17.39 21.882,15.4473846 C21.162,16.0524615 19.206,15.6437692 17.598,15.5535385 C18.096,15.0705385 18.09,14.1257692 17.94,13.6374615 C16.248,15.1766923 13.8,14.4707692 10.56,18.9292308 C11.058,17.3846923 12.006,14.2956154 12.558,12.2627692 C12.612,12.0610769 12.654,11.8593846 12.684,11.6523846 C12.876,8.73846154 9.366,8.68538462 8.616,10.0123077 C9.438,10.8296923 9.006,11.7850769 8.712,13.2340769 C8.364,14.9537692 7.614,18.9292308 6.966,20.2508462 C6.768,18.1755385 5.22,18.0428462 4.92,17.0290769 C4.47,17.2944615 4.224,18.0003846 4.32,18.4833846 C3.768,17.9526154 1.872,18.6160769 1.176,17.8199231 C0.426,19.1415385 1.626,20.4684615 2.874,21.0416923 C2.148,21.0841538 1.974,21.8590769 1.176,21.8590769 C2.25,22.9630769 3.348,23.4036154 4.62,23.4938462 C5.892,23.5840769 6.84,24.0033846 7.614,25.3674615 C8.862,27.5807692 13.614,29.0138462 18.09,27.0075385 L18.09,27.0075385 Z" id="Shape" stroke="#000000" stroke-width="0.015" fill="#337321"></path>
            <path d="M24.678,24.3112308 C23.184,27.9735385 19.092,30.5796154 17.244,30.9776923 C14.1,31.6517692 7.692,34.4064615 5.976,35.8236154 C5.706,35.7705385 5.454,35.6856154 5.268,35.5688462 C4.422,35.0380769 3.72,33.3183846 5.22,31.8587692 C9.912,27.9735385 14.952,29.6507692 18.096,27.0022308 C15.45,28.2389231 10.614,27.7081538 10.164,24.6615385 C13.008,25.325 18.15,25.3674615 22.236,21.4822308 C22.782,22.0183077 24.378,23.6955385 24.678,24.3112308 L24.678,24.3112308 Z" id="Shape" stroke="#000000" stroke-width="0.015" fill="#F7E017"></path>
            <path d="M15.108,32.9096923 C12.738,34.6877692 11.508,39.056 11.76,42.0123846 C11.832,42.8350769 12.09,43.3923846 12.486,43.7320769 C12.66,42.0548462 13.98,37.7184615 17.346,35.7864615 C20.19,34.1516923 24.63,30.4893846 26.28,26.2963077 C25.98,25.5479231 25.482,25.0171538 24.534,24.4863846 C22.896,28.4459231 18.522,30.3460769 15.108,32.9096923 L15.108,32.9096923 Z" id="Shape" stroke="#000000" stroke-width="0.015" fill="#337321"></path>
            <path d="M23.154,22.6127692 C22.308,23.738 20.382,25.2825385 18.54,25.9035385 C18.936,25.5054615 19.062,25.0012308 19.086,24.5819231 C16.74,25.3780769 12.048,25.2878462 10.152,24.6721538 C12.996,25.3356154 18.138,25.3780769 22.224,21.4928462 C22.632,21.8856154 22.98,22.2359231 23.154,22.6127692 L23.154,22.6127692 Z" id="Shape" stroke="#000000" stroke-width="0.015" fill="#316D3A"></path>
            <path d="M5.22,31.8587692 C1.404,35.0168462 3.924,37.7715385 5.418,38.3925385 C5.022,40.6005385 7.362,40.3351538 7.314,42.1875385 C8.262,41.7045385 8.514,40.4200769 8.364,39.4063077 C9.564,40.5527692 12.606,39.2736154 13.254,41.3913846 C13.656,39.0506923 11.61,36.7153077 9.066,36.9329231 C10.116,36.0943077 9.516,34.7249231 8.52,34.3746154 C8.322,36.0943077 6.126,36.0943077 5.274,35.5688462 C4.422,35.0380769 3.72,33.3183846 5.22,31.8587692 L5.22,31.8587692 Z" id="Shape" stroke="#000000" stroke-width="0.015" fill="#337321"></path>
            <path d="M13.476,51.9430769 C13.062,52.1553846 13.092,52.6277692 13.35,52.9356154 C13.872,53.5513077 12.978,54.9525385 14.67,55.2550769 C15.168,55.3453077 15.552,55.0746154 15.744,54.5703846 C16.266,53.1797692 14.598,53.0258462 14.448,52.3623846 C14.298,51.6989231 13.824,51.7679231 13.476,51.9430769 L13.476,51.9430769 Z" id="Shape" stroke="#000000" stroke-width="0.015" fill="#F7E017"></path>
            <path d="M14.898,54.5491538 C14.34,54.7773846 13.848,55.1011538 14.076,56.6881538 C14.166,57.3463077 14.124,58.9386154 13.476,58.9598462 C13.872,59.135 14.724,59.3260769 15.072,58.9173846 C15.408,59.4163077 16.17,59.273 16.47,58.652 C16.866,58.9386154 17.418,58.4556154 17.418,58.0363077 C17.766,58.2326923 18.468,57.9460769 18.288,57.0013077 C18.714,57.134 19.26,56.8686154 19.458,56.6244615 C18.834,56.513 17.262,55.7646154 16.89,55.1701538 C16.518,54.5703846 15.546,54.2837692 14.898,54.5491538 L14.898,54.5491538 Z" id="Shape" stroke="#000000" stroke-width="0.015" fill="#F7E017"></path>
            <g transform="translate(6.000000, 8.615385)" id="Shape" stroke="#000000" stroke-width="0.015">
                <path d="M0.252,1.29076923 C0.504,0.961692308 0.786,0.653846154 1.098,0.383153846"></path>
                <path d="M9.744,7.13453846 C10.182,6.91161538 10.854,6.88507692 11.598,6.92753846"></path>
                <path d="M9.072,50.302 C8.898,50.0790769 8.832,49.1555385 8.958,48.5929231"></path>
                <path d="M10.47,50.0366154 C10.194,49.8508462 9.672,49.2086154 9.582,48.646"></path>
                <path d="M11.418,49.4209231 C11.07,49.2776154 10.218,48.3063077 10.032,47.68"></path>
                <path d="M12.288,48.3806154 C11.874,48.301 10.614,47.5738462 10.092,46.8042308"></path>
            </g>
            <path d="M41.292,31.9065385 C47.43,36.4552308 47.826,40.0697692 46.878,42.1928462 C46.38,40.2077692 43.836,37.1186923 41.19,36.3225385 L41.292,31.9065385 L41.292,31.9065385 Z" id="Shape" stroke="#000000" stroke-width="0.015" fill="#F7E017"></path>
            <path d="M30.318,29.3429231 L41.694,29.3429231 L41.694,41.2586923 C41.694,51.4123077 35.31,57.4153077 28.818,60.5893077 C22.332,57.41 15.942,51.407 15.942,41.2586923 L15.942,29.3429231 L23.928,29.3429231 C23.94,29.9586154 24.006,30.8874615 24.828,31.8163077 C26.712,31.6517692 28.842,30.4044615 30.318,29.3429231 L30.318,29.3429231 Z" id="Shape" stroke="#000000" stroke-width="0.015" fill="#337321"></path>
            <path d="M41.694,29.3429231 L41.694,41.2586923 C41.694,44.3212308 41.112,47.0122308 40.122,49.3529231 L28.824,31.0148462 L17.526,49.3529231 C16.536,47.0069231 15.954,44.3212308 15.954,41.2586923 L15.954,29.3429231 L41.694,29.3429231 L41.694,29.3429231 Z" id="Shape" stroke="#000000" stroke-width="0.015" fill="#006EC7"></path>
            <path d="M40.464,48.4771538 C40.266,49.0185385 39.9,49.8943077 39.624,50.4356923 L28.824,32.6761538 L18.024,50.4356923 C17.742,49.8943077 17.382,49.0185385 17.184,48.4771538 L28.83,29.3800769 L40.464,48.4771538 L40.464,48.4771538 Z" id="Shape" fill="#F7E017"></path>
            <path d="M33.954,55.0109231 C34.254,55.1436154 34.806,55.3877692 35.052,55.478 C35.652,54.4164615 35.748,52.9196923 35.55,51.5927692 C34.902,53.0523846 32.706,53.0046154 32.106,53.8856923 C32.472,54.0502308 32.814,54.2625385 33.108,54.4483077 C32.358,55.1117692 30.606,56.2210769 29.61,56.4864615 L29.61,47.0175385 C29.61,46.3540769 29.358,45.8020769 29.358,45.2500769 L29.358,43.2915385 C29.358,42.851 29.256,42.2087692 28.812,42.2087692 C28.362,42.2087692 28.266,42.851 28.266,43.2915385 L28.266,45.2500769 C28.266,45.8020769 28.014,46.4443077 28.014,47.0175385 L28.014,56.4864615 C27.468,55.0746154 25.314,55.5576154 24.318,54.1457692 C24.708,54.0608462 25.122,54.0343077 25.518,54.1033077 C24.768,51.8528462 22.722,51.6776923 22.326,51.0142308 C22.326,51.9430769 21.876,54.1033077 22.578,55.0321538 C22.734,54.8676154 22.968,54.6924615 23.256,54.5438462 C24.102,56.1786154 27.918,56.1839231 28.818,58.8749231 C29.538,57.8823846 32.136,56.7359231 33.954,55.0109231 L33.954,55.0109231 Z" id="Shape" stroke="#000000" stroke-width="0.015" fill="#F7E017"></path>
            <path d="M28.818,47.1343077 C29.664,47.1343077 32.358,46.8901538 33.336,46.8901538 C33.588,46.8901538 33.798,46.5557692 33.798,46.1417692 C33.798,45.7277692 33.594,45.3933846 33.336,45.3933846 C32.364,45.3933846 29.67,45.1492308 28.818,45.1492308 C27.972,45.1492308 25.278,45.3933846 24.3,45.3933846 C24.048,45.3933846 23.838,45.7277692 23.838,46.1417692 C23.838,46.5557692 24.042,46.8901538 24.3,46.8901538 C25.278,46.8901538 27.972,47.1343077 28.818,47.1343077 L28.818,47.1343077 Z" id="Shape" stroke="#000000" stroke-width="0.015" fill="#F7E017"></path>
            <path d="M28.272,43.2543846 C28.092,43.127 27.858,43.0473846 27.594,43.0473846 C27.03,43.0473846 26.568,43.4189231 26.568,43.8753846 C26.568,44.3318462 27.024,44.7033846 27.594,44.7033846 C28.158,44.7033846 28.614,44.3318462 28.614,43.8753846 C28.614,43.5197692 29.196,43.5197692 29.196,43.8753846 C29.196,44.5919231 28.476,45.1704615 27.594,45.1704615 C26.706,45.1704615 25.992,44.5919231 25.992,43.8753846 C25.992,43.1588462 26.712,42.5803077 27.594,42.5803077 C27.858,42.5803077 28.11,42.6333846 28.332,42.7236154 C28.314,42.8403846 28.272,43.0633077 28.272,43.2543846 L28.272,43.2543846 Z" id="Shape" stroke="#000000" stroke-width="0.015" fill="#F7E017"></path>
            <path d="M24.306,46.8901538 C24.558,46.8901538 24.762,46.5557692 24.762,46.1417692 C24.762,45.7277692 24.558,45.3933846 24.306,45.3933846" id="Shape" stroke="#000000" stroke-width="0.015" fill="#F7E017"></path>
            <path d="M24.678,46.8901538 C24.93,46.8901538 25.134,46.5557692 25.134,46.1417692 C25.134,45.7277692 24.93,45.3933846 24.678,45.3933846" id="Shape" stroke="#000000" stroke-width="0.015" fill="#F7E017"></path>
            <path d="M27.144,47.0440769 C27.45,47.0440769 27.696,46.6406923 27.696,46.1417692 C27.696,45.6428462 27.45,45.2394615 27.144,45.2394615" id="Shape" stroke="#000000" stroke-width="0.015" fill="#F7E017"></path>
            <path d="M27.714,47.0812308 C28.032,47.0812308 28.29,46.6566154 28.29,46.1364615 C28.29,45.6163077 28.032,45.1916923 27.714,45.1916923" id="Shape" stroke="#000000" stroke-width="0.015" fill="#F7E017"></path>
            <path d="M29.634,47.0918462 C29.958,47.0918462 30.216,46.6619231 30.216,46.1364615 C30.216,45.611 29.952,45.1810769 29.634,45.1810769" id="Shape" stroke="#000000" stroke-width="0.015" fill="#F7E017"></path>
            <path d="M30.234,47.0653077 C30.552,47.0653077 30.81,46.6513077 30.81,46.1417692 C30.81,45.6322308 30.552,45.2182308 30.234,45.2182308" id="Shape" stroke="#000000" stroke-width="0.015" fill="#F7E017"></path>
            <path d="M32.916,46.9007692 C33.174,46.9007692 33.384,46.5610769 33.384,46.1364615 C33.384,45.7118462 33.174,45.3721538 32.916,45.3721538" id="Shape" stroke="#000000" stroke-width="0.015" fill="#F7E017"></path>
            <path d="M23.256,54.5438462 C23.562,54.3793077 23.934,54.2306923 24.324,54.1510769" id="Shape" stroke="#000000" stroke-width="0.015" fill="#F7E017"></path>
            <path d="M33.408,54.6340769 C33.318,54.5756923 33.216,54.5173077 33.114,54.4483077" id="Shape" stroke="#000000" stroke-width="0.015" fill="#F7E017"></path>
            <path d="M33.954,55.0109231 C34.65,54.3474615 35.232,53.5990769 35.556,52.7392308" id="Shape" stroke="#000000" stroke-width="0.015" fill="#F7E017"></path>
            <path d="M26.532,37.7715385 C26.532,37.5539231 26.73,37.4636923 26.964,37.3097692 C27.246,37.124 27.36,37.0337692 27.612,37.0337692 L30.888,37.0337692 C31.128,37.0337692 31.188,37.0868462 31.188,37.2885385 L31.188,41.2215385 C31.188,41.4179231 31.134,41.4763077 30.888,41.4763077 L26.532,41.4763077 L26.532,37.7290769" id="Shape" stroke="#000000" stroke-width="0.015" fill="#FFFFFF"></path>
            <path d="M30.078,41.8213077 C30.51,41.8213077 30.432,41.8106923 30.732,41.5453077 C31.05,41.2693077 31.02,41.2905385 31.02,41.0357692 L31.02,37.4318462 C31.02,37.2460769 30.966,37.193 30.744,37.193 L27.714,37.193 C27.474,37.193 27.372,37.2779231 27.114,37.4530769 C26.898,37.5963846 26.718,37.6866154 26.718,37.8883077 L26.718,41.8213077 L30.078,41.8213077 L30.078,41.8213077 Z" id="Shape" stroke="#000000" stroke-width="0.015" fill="#E5E5E5"></path>
            <path d="M30.402,41.7363846 C30.402,41.9327692 30.348,41.9911538 30.102,41.9911538 L26.826,41.9911538 C26.58,41.9911538 26.532,41.9380769 26.532,41.7363846 L26.532,37.7980769 C26.532,37.6016923 26.586,37.5433077 26.826,37.5433077 L30.102,37.5433077 C30.348,37.5433077 30.402,37.5963846 30.402,37.7980769 L30.402,41.7363846 L30.402,41.7363846 Z" id="Shape" stroke="#000000" stroke-width="0.015" fill="#FFFFFF"></path>
            <path d="M36.75,27.0340769 C37.386,27.6656923 37.596,28.5096154 37.248,29.3376154 L36.3,29.3376154 C36.696,28.2760769 36.45,27.2676154 34.752,27.1349231 C32.214,26.9385385 29.262,31.2855385 24.822,31.811 C23.526,30.4416154 23.592,27.8355385 25.242,26.5988462 C24.39,24.428 22.596,22.0395385 21.348,21.0098462 C20.532,20.8930769 19.59,20.8346923 18.984,20.8665385 C19.632,19.6298462 21.48,18.3294615 22.98,17.7986923 C23.22,17.4855385 23.484,17.183 23.724,16.9123077 C23.874,15.2138462 33.006,16.01 34.95,17.0662308 C34.956,18.9716923 35.802,25.3143846 36.75,27.0340769 L36.75,27.0340769 Z" id="Shape" stroke="#000000" stroke-width="0.015" fill="#96877D"></path>
            <g transform="translate(22.000000, 18.230769)" id="Shape" fill="#000000">
                <path d="M3.686,9.96569231 C3.47,7.02523077 2.126,4.59961538 0.236,2.94892308 C1.136,3.17184615 2.978,3.17184615 4.226,2.37569231 C5.87,1.40438462 10.166,-0.294076923 11.738,0.433076923 C11.864,0.677230769 11.936,1.22923077 11.84,1.57953846 C11.468,0.698461538 7.322,2.06253846 6.152,2.48184615 C5.03,2.94361538 4.532,3.56461538 4.928,4.95523077 C4.28,4.47223077 4.502,4.00515385 3.83,3.65484615 C4.1,4.22807692 4.322,5.26307692 4.4,6.10169231 C4.148,5.50723077 3.704,4.22807692 2.726,3.47438462 C3.572,4.92869231 4.31,8.42646154 3.962,10.2841538 C4.634,10.2841538 6.122,9.70030769 6.716,9.281 C6.194,9.94446154 4.682,10.4062308 3.71,10.5813846 C3.272,11.0431538 2.972,12.2373846 2.996,12.9008462 C2.93,12.0834615 3.218,10.0930769 3.686,9.96569231 L3.686,9.96569231 Z"></path>
                <path d="M14.75,8.80330769 C13.922,7.99123077 12.38,7.55069231 10.412,8.02307692 C10.712,7.89038462 11.36,7.66746154 11.936,7.58253846 C11.864,7.12076923 11.39,5.13038462 11.312,4.64738462 L11.864,4.451 C12.14,5.64523077 12.488,7.00930769 12.71,7.56130769 C12.884,7.60376923 13.286,7.67276923 13.634,7.82669231 C13.484,7.36492308 12.638,4.03169231 12.662,3.67607692 L13.412,3.32046154 C13.706,5.13038462 14.18,7.75769231 14.75,8.80330769 L14.75,8.80330769 Z"></path>
            </g>
            <path d="M36.306,29.3429231 C36.702,28.2813846 36.456,27.2729231 34.758,27.1402308 C33.444,27.0393846 32.016,28.1699231 30.33,29.3429231 L36.306,29.3429231 L36.306,29.3429231 Z" id="Shape" stroke="#000000" stroke-width="0.015" fill="#96877D"></path>
            <path d="M25.278,19.8315385 C24.528,19.9217692 22.86,19.7890769 22.008,19.5449231 C22.056,19.3432308 22.146,19.1415385 22.254,18.9186154 C21.732,19.2264615 20.736,19.8315385 20.358,20.2508462 C21.558,20.4737692 24.03,20.5852308 25.278,19.8315385 L25.278,19.8315385 Z" id="Shape" stroke="#000000" stroke-width="0.015" fill="#96877D"></path>
            <path d="M25.248,26.6041538 C25.524,27.3100769 25.704,27.9894615 25.728,28.5945385" id="Shape" stroke="#000000" stroke-width="0.015"></path>
            <path d="M22.986,17.804 C22.536,18.3878462 22.14,19.0141538 22.008,19.5449231 C22.854,19.7890769 24.528,19.9217692 25.278,19.8315385" id="Shape" stroke="#000000" stroke-width="0.015"></path>
            <path d="M21.354,21.0151538 C21.678,21.0629231 21.978,21.116 22.236,21.1796923 C23.136,21.4026154 24.978,21.4026154 26.226,20.6064615 C27.474,19.8103077 30.864,17.3422308 34.71,17.0768462" id="Shape" stroke="#000000" stroke-width="0.015"></path>
            <path d="M20.364,20.2508462 C21.564,20.4737692 24.036,20.5799231 25.278,19.8315385 C28.17,18.0906154 30.966,17.0715385 33.762,16.9388462" id="Shape" stroke="#000000" stroke-width="0.015"></path>
            <path d="M41.292,31.9065385 C45.48,34.4648462 48.576,36.9382308 49.476,40.9083846 C50.376,44.8785385 52.074,45.9400769 54.168,44.8785385 C53.67,47.1714615 51.072,47.4368462 48.882,45.6746923 C49.08,48.3232308 47.886,51.5025385 44.79,52.649 C44.592,51.062 45.78,49.8040769 45.438,48.4983846 C45.288,47.9251538 45.24,46.5982308 46.086,45.9825385 C44.442,46.4655385 41.844,45.542 41.598,43.3764615 C43.494,44.1726154 45.936,44.3053077 46.884,42.1822308 C47.826,40.0697692 47.43,36.4499231 41.292,31.9065385 L41.292,31.9065385 Z" id="Shape" stroke="#000000" stroke-width="0.015" fill="#337321"></path>
            <path d="M46.584,11.249 C47.88,8.25015385 51.276,8.558 52.422,9.83715385 C55.764,8.15992308 56.214,11.9549231 59.058,11.2065385 C59.01,11.9124615 58.062,12.5759231 57.012,12.5281538 C58.11,13.4092308 56.562,14.7361538 58.908,15.527 C56.91,16.4080769 54.12,15.4845385 53.37,13.0536154 C52.722,14.2000769 50.376,14.2000769 49.428,13.2765385 C51.474,12.7935385 51.324,11.1163077 50.178,10.4528462 C49.02,9.78407692 46.98,10.0547692 46.584,11.249 L46.584,11.249 Z" id="Shape" stroke="#000000" stroke-width="0.015" fill="#337321"></path>
            <path d="M36.462,17.8570769 C37.392,20.5109231 39.318,22.9843077 41.394,24.6668462 C43.788,26.6094615 47.406,26.1211538 49.428,24.2687692 C49.476,27.9629231 45.15,28.2495385 42.744,27.0924615 C41.682,26.5829231 40.824,26.8483077 41.844,27.6656923 C43.392,28.9023846 46.776,29.8206154 50.772,30.5796154 C57.756,31.9012308 55.266,36.8055385 53.22,36.7577692 C53.808,36.7471538 54.288,36.2057692 53.442,35.5316923 C47.382,30.707 35.058,32.6071538 35.256,21.8378462 C33.96,24.6615385 28.62,23.5575385 31.116,20.2030769 C31.914,20.7763077 33.312,20.8187692 33.714,19.9376923 C34.026,19.253 33.822,18.0587692 32.424,17.0290769 C32.652,17.0131538 33.15,17.0290769 33.096,16.5195385 C33.156,16.8167692 33.462,17.2573077 34.248,17.1086923 C34.47,17.4218462 34.71,17.6288462 35.028,17.5173846 C35.088,17.4961538 35.28,17.4112308 35.202,17.0980769 C35.262,17.6925385 36.048,17.8995385 36.462,17.8570769 L36.462,17.8570769 Z" id="Shape" stroke="#000000" stroke-width="0.015" fill="#337321"></path>
            <path d="M42.738,27.0924615 C45.63,28.7696923 48.906,28.7696923 51.918,25.6806154 C52.866,24.7093077 54.36,23.8706923 55.41,23.7804615 C56.46,23.6902308 56.406,22.8091538 57.204,22.634 C56.706,22.5013077 56.508,21.9705385 55.758,22.0395385 C57.63,21.4663077 57.078,20.1393846 58.002,19.5024615 C57.252,19.7466154 56.082,18.7540769 55.008,20.012 C55.284,19.4387692 54.906,18.7540769 54.636,18.4886923 C54.738,19.1521538 53.166,19.2848462 52.866,20.9620769 C52.698,21.9015385 52.116,21.8431538 52.02,20.3888462 C51.948,19.322 51.372,16.3709231 50.676,14.8741538 C49.98,13.3720769 49.818,11.3126923 50.766,11.0048462 C50.622,10.7925385 50.424,10.6014615 50.178,10.4634615 C49.02,9.79469231 46.986,10.0653846 46.584,11.2596154 C45.288,14.2584615 48.93,15.9834615 48.63,19.2476923 C48.084,16.8220769 43.638,16.2010769 43.692,13.8179231 C42.246,14.3911538 42.444,15.4526923 42.996,16.2913077 C42.096,15.0546154 40.05,17.0874615 38.304,15.4102308 C38.106,17.6182308 40.302,18.4568462 42.096,18.5417692 C41.196,19.9536154 42.396,21.1478462 43.59,21.5406154 C43.638,19.0672308 49.368,20.081 49.428,24.3218462 C49.476,27.9310769 45.084,28.2389231 42.738,27.0924615 L42.738,27.0924615 Z" id="Shape" stroke="#000000" stroke-width="0.015" fill="#F7E017"></path>
            <path d="M50.772,30.5796154 C57.756,31.9012308 55.266,36.8055385 53.22,36.7577692 C51.918,36.7312308 50.676,35.7652308 50.598,34.9266154 C49.104,35.6325385 49.5,37.0231538 50.646,37.5751538 C47.502,37.2460769 46.182,39.0772308 46.104,41.0835385 C46.68,40.1546923 48.426,40.091 49.074,40.2873846 C49.722,40.4837692 51.396,40.5952308 52.068,39.9317692 C51.516,40.3510769 52.416,41.3223846 51.642,42.0707692 C54.264,41.9805385 55.41,39.8203077 54.96,38.8702308 C58.356,36.1420769 57.708,31.6836154 50.772,30.5796154 L50.772,30.5796154 Z" id="Shape" stroke="#000000" stroke-width="0.015" fill="#F7E017"></path>
            <path d="M45.456,51.5503077 C45.912,51.7997692 45.852,52.3305385 45.546,52.6649231 C44.928,53.3336923 45.858,54.9313077 43.956,55.202 C43.392,55.2816154 42.978,54.9631538 42.792,54.3952308 C42.276,52.8241538 44.148,52.718 44.346,51.9802308 C44.55,51.2477692 45.072,51.338 45.456,51.5503077 L45.456,51.5503077 Z" id="Shape" stroke="#000000" stroke-width="0.015" fill="#F7E017"></path>
            <path d="M43.74,54.4005385 C44.352,54.6765385 44.88,55.0586923 44.556,56.8208462 C44.418,57.5533077 44.388,59.3313846 45.114,59.3791538 C44.658,59.5596154 43.704,59.7347692 43.332,59.2676923 C42.93,59.8090769 42.09,59.618 41.784,58.9173846 C41.322,59.2199231 40.734,58.6573077 40.758,58.1902308 C40.356,58.3972308 39.594,58.0522308 39.834,57.0013077 C39.354,57.134 38.754,56.8155385 38.544,56.5395385 C39.246,56.4386923 41.034,55.6637692 41.484,55.0109231 C41.928,54.3633846 43.026,54.0820769 43.74,54.4005385 L43.74,54.4005385 Z" id="Shape" stroke="#000000" stroke-width="0.015" fill="#F7E017"></path>
            <path d="M43.326,59.273 C43.53,59.0341538 43.65,57.9991538 43.536,57.3675385" id="Shape" stroke="#000000" stroke-width="0.015"></path>
            <path d="M41.784,58.9226923 C42.102,58.7263077 42.714,58.031 42.84,57.4046923" id="Shape" stroke="#000000" stroke-width="0.015"></path>
            <path d="M40.752,58.1955385 C41.148,58.0469231 42.144,56.996 42.384,56.3006923" id="Shape" stroke="#000000" stroke-width="0.015"></path>
            <path d="M39.828,57.0066154 C40.29,56.9376154 41.736,56.1733077 42.354,55.3293846" id="Shape" stroke="#000000" stroke-width="0.015"></path>
            <path d="M35.256,21.8431538 C35.172,26.3653077 37.296,28.6582308 40.242,30.1443846 C39.15,29.5658462 39.624,27.5807692 38.148,26.9385385 C38.496,26.9173077 39.048,27.3578462 39.918,27.1826923 C39.492,26.3440769 38.796,25.0649231 37.176,24.8897692 C37.602,24.8473077 38.526,24.98 39.12,24.7783077 C38.274,23.6265385 36.03,24.1785385 35.256,21.8431538 L35.256,21.8431538 Z" id="Shape" stroke="#000000" stroke-width="0.015" fill="#F7E017"></path>
            <path d="M34.728,17.5386154 C34.548,17.4855385 34.398,17.3263077 34.248,17.1193077 C33.462,17.2679231 33.156,16.8273846 33.096,16.5301538 C33.144,17.0396923 32.652,17.0184615 32.418,17.0343846 C33.822,18.0640769 34.026,19.2583077 33.714,19.943 C33.312,20.8240769 31.92,20.7816154 31.116,20.2083846 C31.014,22.082 33.762,22.703 34.758,20.3410769 C34.758,20.7391538 35.334,20.6966923 35.484,21.2221538 C36.192,20.2083846 35.652,18.7487692 34.728,17.5386154 L34.728,17.5386154 Z" id="Shape" stroke="#000000" stroke-width="0.015" fill="#F7E017"></path>
            <path d="M30.342,8.57923077 C29.094,7.56546154 28.518,5.867 28.572,4.89569231 C28.62,3.92438462 29.07,2.86284615 30.666,3.30869231 C30.168,3.30869231 30.516,4.18976923 29.994,4.28 C30.42,4.41269231 30.99,4.10484615 31.068,3.90315385 C31.17,4.211 31.818,4.12607692 31.866,4.47638462 C32.118,4.30123077 31.842,3.44138462 31.47,3.26092308 C31.746,3.12823077 31.896,2.44353846 31.77,2.11446154 C31.518,2.15692308 31.146,2.47007692 31.074,2.91061538 C31.2,2.555 31.05,1.67392308 30.348,1.54123077 C30.15,1.78538462 30.096,2.37984615 30.372,2.70892308 C29.724,2.57623077 28.776,2.95307692 28.548,3.43607692 C28.596,2.85223077 28.692,2.01892308 29.1,1.49346154 C29.238,1.31830769 28.902,1.01046154 28.638,1.42976923 C28.152,0.591153846 26.856,0.150615385 26.28,0.569923077 C25.704,0.989230769 24.936,0.373538462 24.462,1.03169231 C23.988,1.69515385 22.38,1.76415385 22.464,2.46476923 C22.512,2.88407692 22.398,3.53161538 22.164,3.76515385 C21.588,4.33838462 22.44,4.75769231 22.59,5.26723077 C22.488,3.59 25.506,0.325769231 28.53,1.60492308 C28.254,2.02423077 28.014,2.86284615 27.93,3.87661538 C27.804,5.37869231 28.056,7.49646154 29.7,8.73315385 L30.342,8.57923077 L30.342,8.57923077 Z" id="Shape" stroke="#000000" stroke-width="0.015" fill="#337321"></path>
            <path d="M31.236,3.32461538 C31.218,2.92653846 31.998,2.41169231 33.042,2.42230769 C34.302,2.43292308 35.274,3.44669231 36.282,3.35115385 C37.29,3.25030769 36.792,3.74923077 36.582,3.88192308 C36.372,4.01461538 36.246,4.211 36.318,4.45515385 C36.39,4.69930769 36.264,4.85853846 35.856,4.63030769 C34.956,4.13138462 34.062,4.82669231 32.874,4.44453846 C31.86,4.10484615 31.266,3.91907692 31.236,3.32461538 L31.236,3.32461538 Z" id="Shape" stroke="#000000" stroke-width="0.015" fill="#CF142B"></path>
            <path d="M26.1,13.7436154 C25.602,12.353 23.706,10.8296923 22.782,10.4793846 L22.734,9.731 C23.232,9.55584615 24.432,8.71723077 24.978,8.25015385 C28.722,9.83715385 33.81,7.58669231 36.156,5.25130769 L37.056,5.73430769 L36.606,6.26507692 L36.132,6.04215385 C35.556,6.65784615 33.414,8.44123077 32.766,8.81807692 C33.636,9.01446154 34.83,9.14715385 35.16,9.13123077 C37.254,7.80430769 38.898,6.61538462 39.696,6.52515385 L40.368,7.32130769 L39.768,7.69815385 L39.294,7.454 C37.05,9.08876923 34.506,12.6608462 33.504,15.044 C32.112,14.7786154 27.12,14.9537692 26.1,13.7436154 L26.1,13.7436154 Z" id="Shape" stroke="#000000" stroke-width="0.015" fill="#96877D"></path>
            <path d="M32.766,8.81807692 C32.442,8.74376923 32.166,8.66415385 31.992,8.57923077 C31.59,8.90830769 30.594,9.19492308 29.322,9.24269231" id="Shape" stroke="#000000" stroke-width="0.015"></path>
            <path d="M26.298,13.2553077 C25.962,11.6099231 26.496,9.78938462 27.444,9.23738462 C29.514,10.4528462 33.06,10.4528462 35.154,9.12592308" id="Shape" stroke="#000000" stroke-width="0.015"></path>
            <path d="M26.298,12.3954615 C27.894,12.353 31.362,12.5918462 32.208,12.7033077 C33.054,12.8147692 34.476,13.1226154 34.278,13.4994615" id="Shape" stroke="#000000" stroke-width="0.015"></path>
            <polygon id="Shape" stroke="#000000" stroke-width="0.015" points="27.036 12.1619231 27.498 11.7585385 27.036 11.3551538 26.58 11.7532308"></polygon>
            <path d="M28.122,3.94561538 C27.546,3.23969231 25.968,3.01676923 25.626,3.96684615 C25.476,4.38615385 25.254,4.82669231 24.876,5.02838462 C24.504,5.22476923 24.588,5.82984615 24.75,6.08992308 C25.146,6.73215385 24.798,7.34784615 25.572,7.76715385 C25.572,7.25761538 26.418,6.73215385 27.144,6.59946154 C27.87,6.46676923 28.962,5.89353846 29.112,5.25130769 C29.268,4.60376923 29.52,4.073 28.122,3.94561538 L28.122,3.94561538 Z" id="Shape" stroke="#000000" stroke-width="0.015" fill="#337321"></path>
            <path d="M24.528,10.2989231 L24.726,10.2989231 L24.732,11.5037692 C24.774,11.5143846 24.816,11.5356154 24.852,11.5568462 L26.028,10.9570769 L26.13,11.111 L24.948,11.7160769 C24.954,11.7532308 24.96,11.7956923 24.954,11.8328462 L26.13,12.4326154 L26.028,12.5865385 L24.84,11.9920769 C24.81,12.0186154 24.768,12.0451538 24.726,12.0557692 L24.726,13.2553077 L24.528,13.2553077 L24.528,12.0504615 C24.486,12.0398462 24.444,12.0186154 24.408,11.9973846 L23.232,12.5971538 L23.13,12.4432308 L24.312,11.8381538 C24.306,11.801 24.3,11.7585385 24.306,11.7213846 L23.13,11.1216154 L23.232,10.9676923 L24.414,11.5674615 C24.444,11.5409231 24.486,11.5143846 24.528,11.5037692 L24.528,10.2989231 L24.528,10.2989231 L24.528,10.2989231 Z" id="Shape" stroke="#000000" stroke-width="0.015" fill="#96877D"></path>
            <path d="M26.304,13.25 C25.878,13.6321538 25.284,13.8656923 24.624,13.8656923 C23.316,13.8656923 22.26,12.9315385 22.26,11.7744615 C22.26,10.6173846 23.316,9.68323077 24.624,9.68323077 C25.392,9.68323077 26.07,10.007 26.502,10.5059231 C26.382,10.7713077 26.238,11.3604615 26.226,11.6258462 C26.142,10.904 25.458,10.3413846 24.618,10.3413846 C23.724,10.3413846 23.004,10.9836154 23.004,11.7691538 C23.004,12.56 23.73,13.1969231 24.618,13.1969231 C25.362,13.1969231 26.01,12.7351538 26.196,12.1247692 C26.202,12.4007692 26.214,13.0323846 26.304,13.25 L26.304,13.25 Z" id="Shape" stroke="#000000" stroke-width="0.015" fill="#96877D"></path>
            <path d="M23.628,15.2403846 C23.478,15.0864615 23.202,14.6671538 23.232,14.3593077 C23.454,14.3380769 23.88,14.4707692 24.078,14.6459231 C24.054,14.423 23.952,13.94 24.006,13.7170769 C24.282,13.8073077 24.852,14.0939231 25.056,14.423 C25.008,14.2000769 24.906,13.6268462 25.008,13.2765385 C25.308,13.4304615 25.806,13.8497692 25.908,14.1363846 C25.932,13.6958462 26.106,12.9686923 26.256,12.7882308 C26.478,12.9846154 26.832,13.1650769 27.054,13.4304615 C27.102,13.0748462 27.306,12.6555385 27.6,12.5493846 C27.822,12.7723077 28.176,13.2765385 28.248,13.8497692 C28.47,13.7860769 28.77,13.4516923 28.896,13.2765385 C29.022,13.4516923 29.148,13.7595385 29.07,14.1363846 C29.346,13.9134615 29.67,13.6056154 29.742,13.3402308 C29.94,13.4729231 30.318,13.802 30.414,14.1576154 C30.366,13.871 30.39,13.3614615 30.288,13.0748462 C30.66,13.25 30.96,13.5578462 31.038,13.8922308 C31.14,13.5843846 31.362,13.0323846 31.56,12.8996923 C31.758,13.2553077 31.962,13.6746154 31.932,14.0249231 C32.058,13.802 32.256,13.4092308 32.454,13.319 C32.628,13.5631538 32.604,14.0939231 32.556,14.3805385 C32.73,14.1576154 33.054,13.8975385 33.252,13.8073077 C33.276,13.94 33.3,14.2053846 33.252,14.4017692 C33.474,14.2903077 33.852,13.6958462 33.978,13.388 C34.326,13.5419231 34.674,14.0726923 34.704,14.3380769 C34.956,14.2478462 35.454,13.8550769 35.604,13.6321538 C35.604,13.7860769 35.682,14.2053846 35.58,14.5344615 C35.73,14.4017692 35.88,14.1363846 35.952,14.0249231 C36.054,14.2478462 35.976,14.7733077 35.874,15.0599231 C36.096,14.8847692 36.426,14.7733077 36.624,14.7733077 C36.648,15.1501538 36.348,15.8083077 36.072,16.2966154 C33.684,15.7074615 28.668,15.4845385 23.628,15.2403846 L23.628,15.2403846 Z" id="Shape" stroke="#000000" stroke-width="0.015" fill="#337321"></path>
            <path d="M31.98,3.55284615 C31.968,3.38830769 32.376,3.02207692 33.114,3.02738462 C33.996,3.03269231 34.812,3.60592308 35.514,3.56346154 C36.222,3.521 35.874,3.728 35.724,3.78107692 C35.574,3.83415385 35.49,3.91907692 35.538,4.01461538 C35.592,4.11546154 35.502,4.17915385 35.214,4.08892308 C34.584,3.88723077 33.954,4.16853846 33.126,4.01461538 C32.412,3.87130769 31.998,3.797 31.98,3.55284615 L31.98,3.55284615 Z" id="Shape" fill="#F7E017"></path>
            <path d="M24.402,16.5673077 C23.652,17.3634615 22.908,17.2307692 22.758,16.7212308 C22.608,16.2116923 23.16,15.9728462 22.956,15.527 C22.758,15.0864615 23.28,14.8847692 23.532,15.0864615 C23.784,15.2828462 24.582,14.6459231 24.93,15.3093846 C25.278,15.9728462 25.554,16.4346154 25.356,16.7 C25.152,16.9653846 24.552,16.8326923 24.402,16.5673077 L24.402,16.5673077 Z" id="Shape" stroke="#000000" stroke-width="0.015" fill="#F7E017"></path>
            <path d="M27.618,15.3730769 C27.48,15.0811538 28.254,14.5238462 28.656,14.9219231 C29.058,15.32 29.682,14.492 30.03,15.1183077 C30.378,15.7499231 30.492,16.079 30.666,16.4293077 C30.84,16.7849231 29.718,16.9706923 29.37,16.6628462 C29.418,16.8698462 28.398,17.0343846 28.122,16.4399231 C27.972,16.1267692 27.81,15.7605385 27.618,15.3730769 L27.618,15.3730769 Z" id="Shape" stroke="#000000" stroke-width="0.015" fill="#F7E017"></path>
            <path d="M32.808,15.7393077 C32.622,15.4314615 33.534,14.9909231 34.008,15.5535385 C34.134,15.32 35.034,15.2775385 35.094,15.9516154 C35.154,16.6256923 35.184,17.0237692 35.208,17.2891538 C35.232,17.5545385 34.662,17.7986923 34.248,17.1246154 C33.51,17.2573077 33.174,16.8910769 33.09,16.5089231 C33,16.1161538 32.91,15.9250769 32.808,15.7393077 L32.808,15.7393077 Z" id="Shape" stroke="#000000" stroke-width="0.015" fill="#F7E017"></path>
            <path d="M24.888,15.2987692 C24.774,15.0758462 25.524,14.6353077 26.034,14.9696923 C26.544,15.2987692 27.252,14.6830769 27.558,15.2775385 C28.17,16.4823846 28.206,16.5673077 28.02,16.8008462 C27.834,17.0343846 27.036,16.9441538 26.832,16.6256923 C26.796,16.8486154 26.106,16.8114615 25.746,16.6363077 C25.338,16.4346154 25.05,15.6968462 24.888,15.2987692 L24.888,15.2987692 Z" id="Shape" stroke="#000000" stroke-width="0.015" fill="#337321"></path>
            <path d="M30.138,15.3518462 C29.964,15.0121538 31.134,14.7096154 31.65,15.3093846 C31.914,15.0970769 32.484,15.0864615 32.808,15.7393077 C33.132,16.3921538 33.18,16.7530769 32.946,16.9176154 C32.778,17.0343846 32.172,17.1246154 31.974,16.8273846 C31.698,16.9813077 30.852,16.8486154 30.666,16.4293077 C30.48,16.0153077 30.318,15.6490769 30.138,15.3518462 L30.138,15.3518462 Z" id="Shape" stroke="#000000" stroke-width="0.015" fill="#337321"></path>
            <path d="M35.106,16.0046923 C35.082,15.6968462 35.718,15.5535385 35.952,16.0046923 C36.192,16.4558462 36.948,16.0471538 37.014,16.8008462 C37.026,16.9441538 36.924,17.4961538 36.69,17.7615385 C36.456,18.0269231 35.292,17.7615385 35.22,17.1989231 C35.142,16.631 35.118,16.3125385 35.106,16.0046923 L35.106,16.0046923 Z" id="Shape" stroke="#000000" stroke-width="0.015" fill="#337321"></path>
            <g transform="translate(23.000000, 14.923077)" id="Shape" stroke="#000000" stroke-width="0.015">
                <path d="M1.402,1.64423077 C1.126,1.31515385 0.754,0.784384615 0.28,1.35761538"></path>
                <path d="M3.838,1.69730769 C3.676,1.51153846 3.466,1.19838462 3.388,0.959538462"></path>
                <path d="M6.37,1.74507692 C6.196,1.63361538 5.932,1.416 5.794,1.18246154"></path>
                <path d="M6.142,0.582692308 C6.58,0.625153846 6.88,0.991384615 7.012,1.15592308 C7.15,1.32046154 7.438,1.61769231 7.66,1.65484615"></path>
                <path d="M8.974,1.90961538 C8.824,1.69730769 8.674,1.51153846 8.638,1.35761538"></path>
                <path d="M8.65,0.386307692 C8.8,0.572076923 8.914,0.726 8.998,0.906461538"></path>
                <path d="M11.242,2.19623077 C11.044,1.86715385 10.732,1.54338462 10.468,1.43723077"></path>
                <path d="M11.146,0.980769231 C11.17,1.63361538 12.154,1.67607692 12.196,2.13784615"></path>
                <path d="M12.952,1.08161538 C13.054,1.24615385 13.09,1.41069231 13.102,1.68669231"></path>
            </g>
        </g>
        <g id="icon-flag-gb">
            <g id="Europe">
                <g id="UK">
                    <rect id="rect962-copy" fill="#346DA6" x="0" y="0" width="77" height="51"></rect>
                    <polygon id="White_Diagonal" fill="#FFFFFF" points="17.8993355 17.557377 0 5.70197336 0 0 8.60886176 0 30.8 14.6980266 30.8 14.6980266 30.8 0 46.2 0 46.2 14.6980266 68.3911382 0 77 0 77 5.70197336 59.1006647 17.557377 77 17.557377 77 32.6065574 57.8383699 32.6065574 77 45.2980266 77 51 68.3911403 51 46.2 36.3019725 46.2 51 30.8 51 30.8 36.3019725 8.6088597 51 0 51 0 45.2980266 19.1616301 32.6065574 0 32.6065574 0 17.557377"></polygon>
                    <path d="M50.4777778,33.15 L55.6111111,33.15 L77,47.6 L77,51 L50.4777778,33.15 L50.4777778,33.15 Z M5.13333333,51 L30.8,33.15 L25.6666667,33.15 L0,51 L5.13333333,51 L5.13333333,51 Z M71.8666667,1.71128576e-07 L46.2,17.8500001 L51.3333333,17.8500001 L77,1.71128576e-07 L71.8666667,1.71128576e-07 L71.8666667,1.71128576e-07 Z M26.5222222,17.8500001 L21.3888889,17.8500001 L0,3.40000016 L0,1.71128576e-07 L26.5222222,17.8500001 L26.5222222,17.8500001 Z M43.6333333,1.31316367e-15 L43.6333333,20.3999999 L77,20.4000001 L77,30.6000001 L43.6333333,30.5999999 L43.6333333,51 L33.3666667,51 L33.3666667,30.6000001 L0,30.6000001 L0,20.4000001 L33.3666667,20.3999999 L33.3666667,1.71128576e-07 L43.6333333,1.31316367e-15 L43.6333333,1.31316367e-15 Z" id="Red_Diagonals-copy" fill="#CA4638"></path>
                </g>
            </g>
        </g>
    </g>
</svg>