<?xml version="1.0" encoding="UTF-8" standalone="no"?>
<svg width="180px" height="121px" viewBox="0 0 180 121" version="1.1" xmlns="http://www.w3.org/2000/svg" xmlns:xlink="http://www.w3.org/1999/xlink">
    <!-- Generator: Sketch 40.3 (33839) - http://www.bohemiancoding.com/sketch -->
    <title>icon-flag-io</title>
    <desc>Created with Sketch.</desc>
    <defs></defs>
    <g id="Page-1" stroke="none" stroke-width="1" fill="none" fill-rule="evenodd">
        <rect id="Rectangle-path" fill="#FFFFFF" x="0" y="0" width="180" height="121"></rect>
        <path d="M180,105.176584 C177.9831,106.812764 176.2503,110.636449 170.892,110.636449 C160.1787,110.636449 157.4997,102.586202 149.4639,102.586202 C144.1071,102.586202 141.4284,110.636449 136.0716,110.636449 C125.3571,110.636449 122.6787,102.586202 114.6429,102.586202 C109.2858,102.586202 106.6071,110.636449 101.25,110.636449 C90.5358,110.636449 87.8571,102.586202 79.8216,102.586202 C74.4642,102.586202 71.7858,110.636449 66.4287,110.636449 C55.7145,110.636449 53.0358,102.586202 45,102.586202 C39.6426,102.586202 36.9642,110.636449 31.6071,110.636449 C20.8929,110.636449 18.2142,102.586202 10.1787,102.586202 C4.8213,102.586202 3.2142,108.322742 0,108.322742 L0,118.686292 C3.2142,118.686292 4.8213,112.950157 10.1787,112.950157 C18.2142,112.950157 20.8929,121 31.6071,121 C36.9642,121 39.6426,112.950157 45,112.950157 C53.0355,112.950157 55.7145,121 66.4287,121 C71.7858,121 74.4642,112.950157 79.8216,112.950157 C87.8571,112.950157 90.5358,121 101.25,121 C106.6071,121 109.2858,112.950157 114.6429,112.950157 C122.6787,112.950157 125.3571,121 136.0716,121 C141.4284,121 144.1071,112.950157 149.4639,112.950157 C157.4997,112.950157 160.1787,121 170.892,121 C176.2503,121 177.9831,118.718652 180,117.082876 L180,105.176584 L180,105.176584 Z" id="wave" fill="#002B7F"></path>
        <path d="M180,85.0515811 C177.9831,86.6877609 176.2503,90.5114463 170.892,90.5114463 C160.1787,90.5114463 157.4997,82.4611991 149.4639,82.4611991 C144.1071,82.4611991 141.4284,90.5114463 136.0716,90.5114463 C125.3571,90.5114463 122.6787,82.4611991 114.6429,82.4611991 C109.2858,82.4611991 106.6071,90.5114463 101.25,90.5114463 C90.5358,90.5114463 87.8571,82.4611991 79.8216,82.4611991 C74.4642,82.4611991 71.7858,90.5114463 66.4287,90.5114463 C55.7145,90.5114463 53.0358,82.4611991 45,82.4611991 C39.6426,82.4611991 36.9642,90.5114463 31.6071,90.5114463 C20.8929,90.5114463 18.2142,82.4611991 10.1787,82.4611991 C4.8213,82.4611991 3.2142,88.1977384 0,88.1977384 L0,98.561289 C3.2142,98.561289 4.8213,92.8251542 10.1787,92.8251542 C18.2142,92.8251542 20.8929,100.874997 31.6071,100.874997 C36.9642,100.874997 39.6426,92.8251542 45,92.8251542 C53.0355,92.8251542 55.7145,100.874997 66.4287,100.874997 C71.7858,100.874997 74.4642,92.8251542 79.8216,92.8251542 C87.8571,92.8251542 90.5358,100.874997 101.25,100.874997 C106.6071,100.874997 109.2858,92.8251542 114.6429,92.8251542 C122.6787,92.8251542 125.3571,100.874997 136.0716,100.874997 C141.4284,100.874997 144.1071,92.8251542 149.4639,92.8251542 C157.4997,92.8251542 160.1787,100.874997 170.892,100.874997 C176.2503,100.874997 177.9831,98.5936485 180,96.9578733 L180,85.0515811 L180,85.0515811 Z" id="wave" fill="#002B7F"></path>
        <path d="M180,64.9265578 C177.9831,66.5627375 176.2503,70.3864229 170.892,70.3864229 C160.1787,70.3864229 157.4997,62.3361757 149.4639,62.3361757 C144.1071,62.3361757 141.4284,70.3864229 136.0716,70.3864229 C125.3571,70.3864229 122.6787,62.3361757 114.6429,62.3361757 C109.2858,62.3361757 106.6071,70.3864229 101.25,70.3864229 C90.5358,70.3864229 87.8571,62.3361757 79.8216,62.3361757 C74.4642,62.3361757 71.7858,70.3864229 66.4287,70.3864229 C55.7145,70.3864229 53.0358,62.3361757 45,62.3361757 C39.6426,62.3361757 36.9642,70.3864229 31.6071,70.3864229 C20.8929,70.3864229 18.2142,62.3361757 10.1787,62.3361757 C4.8213,62.3361757 3.2142,68.0727151 0,68.0727151 L0,78.4362656 C3.2142,78.4362656 4.8213,72.7001308 10.1787,72.7001308 C18.2142,72.7001308 20.8929,80.7499735 31.6071,80.7499735 C36.9642,80.7499735 39.6426,72.7001308 45,72.7001308 C53.0355,72.7001308 55.7145,80.7499735 66.4287,80.7499735 C71.7858,80.7499735 74.4642,72.7001308 79.8216,72.7001308 C87.8571,72.7001308 90.5358,80.7499735 101.25,80.7499735 C106.6071,80.7499735 109.2858,72.7001308 114.6429,72.7001308 C122.6787,72.7001308 125.3571,80.7499735 136.0716,80.7499735 C141.4284,80.7499735 144.1071,72.7001308 149.4639,72.7001308 C157.4997,72.7001308 160.1787,80.7499735 170.892,80.7499735 C176.2503,80.7499735 177.9831,78.4686252 180,76.8328499 L180,64.9265578 L180,64.9265578 Z" id="wave" fill="#002B7F"></path>
        <path d="M180,24.6765231 C177.9831,26.3127029 176.2503,30.1363883 170.892,30.1363883 C160.1787,30.1363883 157.4997,22.0861411 149.4639,22.0861411 C144.1071,22.0861411 141.4284,30.1363883 136.0716,30.1363883 C125.3571,30.1363883 122.6787,22.0861411 114.6429,22.0861411 C109.2858,22.0861411 106.6071,30.1363883 101.25,30.1363883 C90.5358,30.1363883 87.8571,22.0861411 79.8216,22.0861411 C74.4642,22.0861411 71.7858,30.1363883 66.4287,30.1363883 C55.7145,30.1363883 53.0358,22.0861411 45,22.0861411 C39.6426,22.0861411 36.9642,30.1363883 31.6071,30.1363883 C20.8929,30.1363883 18.2142,22.0861411 10.1787,22.0861411 C4.8213,22.0861411 3.2142,27.8226804 0,27.8226804 L0,38.186231 C3.2142,38.186231 4.8213,32.4500962 10.1787,32.4500962 C18.2142,32.4500962 20.8929,40.4999389 31.6071,40.4999389 C36.9642,40.4999389 39.6426,32.4500962 45,32.4500962 C53.0355,32.4500962 55.7145,40.4999389 66.4287,40.4999389 C71.7858,40.4999389 74.4642,32.4500962 79.8216,32.4500962 C87.8571,32.4500962 90.5358,40.4999389 101.25,40.4999389 C106.6071,40.4999389 109.2858,32.4500962 114.6429,32.4500962 C122.6787,32.4500962 125.3571,40.4999389 136.0716,40.4999389 C141.4284,40.4999389 144.1071,32.4500962 149.4639,32.4500962 C157.4997,32.4500962 160.1787,40.4999389 170.892,40.4999389 C176.2503,40.4999389 177.9831,38.2185906 180,36.5828153 L180,24.6765231 L180,24.6765231 Z" id="wave" fill="#002B7F"></path>
        <path d="M180,46.590382 C177.9831,48.2265618 176.2503,52.0502472 170.892,52.0502472 C160.1787,52.0502472 157.4997,44 149.4639,44 C144.1071,44 141.4284,52.0502472 136.0716,52.0502472 C125.3571,52.0502472 122.6787,44 114.6429,44 C109.2858,44 106.6071,52.0502472 101.25,52.0502472 C90.5358,52.0502472 87.8571,44 79.8216,44 C74.4642,44 71.7858,52.0502472 66.4287,52.0502472 C55.7145,52.0502472 53.0358,44 45,44 C39.6426,44 36.9642,52.0502472 31.6071,52.0502472 C20.8929,52.0502472 18.2142,44 10.1787,44 C4.8213,44 3.2142,49.7365393 0,49.7365393 L0,60.1000899 C3.2142,60.1000899 4.8213,54.3639551 10.1787,54.3639551 C18.2142,54.3639551 20.8929,62.4137978 31.6071,62.4137978 C36.9642,62.4137978 39.6426,54.3639551 45,54.3639551 C53.0355,54.3639551 55.7145,62.4137978 66.4287,62.4137978 C71.7858,62.4137978 74.4642,54.3639551 79.8216,54.3639551 C87.8571,54.3639551 90.5358,62.4137978 101.25,62.4137978 C106.6071,62.4137978 109.2858,54.3639551 114.6429,54.3639551 C122.6787,54.3639551 125.3571,62.4137978 136.0716,62.4137978 C141.4284,62.4137978 144.1071,54.3639551 149.4639,54.3639551 C157.4997,54.3639551 160.1787,62.4137978 170.892,62.4137978 C176.2503,62.4137978 177.9831,60.1324494 180,58.4966742 L180,46.590382 L180,46.590382 Z" id="wave-copy" fill="#002B7F"></path>
        <path d="M180,4.55152 C177.9831,6.18769978 176.2503,10.0113852 170.892,10.0113852 C160.1787,10.0113852 157.4997,1.96113798 149.4639,1.96113798 C144.1071,1.96113798 141.4284,10.0113852 136.0716,10.0113852 C125.3571,10.0113852 122.6787,1.96113798 114.6429,1.96113798 C109.2858,1.96113798 106.6071,10.0113852 101.25,10.0113852 C90.5358,10.0113852 87.8571,1.96113798 79.8216,1.96113798 C74.4642,1.96113798 71.7858,10.0113852 66.4287,10.0113852 C55.7145,10.0113852 53.0358,1.96113798 45,1.96113798 C39.6426,1.96113798 36.9642,10.0113852 31.6071,10.0113852 C20.8929,10.0113852 18.2142,1.96113798 10.1787,1.96113798 C4.8213,1.96113798 3.2142,7.6976773 0,7.6976773 L0,18.0612279 C3.2142,18.0612279 4.8213,12.325093 10.1787,12.325093 C18.2142,12.325093 20.8929,20.3749357 31.6071,20.3749357 C36.9642,20.3749357 39.6426,12.325093 45,12.325093 C53.0355,12.325093 55.7145,20.3749357 66.4287,20.3749357 C71.7858,20.3749357 74.4642,12.325093 79.8216,12.325093 C87.8571,12.325093 90.5358,20.3749357 101.25,20.3749357 C106.6071,20.3749357 109.2858,12.325093 114.6429,12.325093 C122.6787,12.325093 125.3571,20.3749357 136.0716,20.3749357 C141.4284,20.3749357 144.1071,12.325093 149.4639,12.325093 C157.4997,12.325093 160.1787,20.3749357 170.892,20.3749357 C176.2503,20.3749357 177.9831,18.0935874 180,16.4578121 L180,4.55152 L180,4.55152 Z" id="wave" fill="#002B7F"></path>
        <rect id="Rectangle-path" fill="#00247D" x="0" y="0" width="90" height="60"></rect>
        <polygon id="White_Diagonal" fill="#FFFFFF" points="20.9213012 20.6557377 0 6.70820395 0 0 10.062306 0 36 17.291796 36 17.291796 36 0 54 0 54 17.291796 79.937694 0 90 0 90 6.70820395 69.078699 20.6557377 90 20.6557377 90 38.3606557 67.6032895 38.3606557 90 53.291796 90 60 79.9376965 60 54 42.7082029 54 60 36 60 36 42.7082029 10.0623035 60 0 60 0 53.291796 22.3967105 38.3606557 0 38.3606557 0 20.6557377"></polygon>
        <path d="M59,39 L65,39 L90,56 L90,60 L59,39 L59,39 Z M6,60 L36,39 L30,39 L0,60 L6,60 L6,60 Z M84,2.01327735e-07 L54,21.0000001 L60,21.0000001 L90,2.01327735e-07 L84,2.01327735e-07 L84,2.01327735e-07 Z M31,21.0000001 L25,21.0000001 L0,4.00000019 L0,2.01327735e-07 L31,21.0000001 L31,21.0000001 Z M51,0 L51,23.9999999 L90,24.0000001 L90,36.0000001 L51,35.9999999 L51,60 L39,60 L39,36.0000001 L0,36.0000001 L0,24.0000001 L39,23.9999999 L39,2.01327734e-07 L51,0 L51,0 Z" id="Red_Diagonals-copy" fill="#CA4638"></path>
        <path d="M133.923637,23.85852 L133.28075,84.9299223 C133.28075,88.1442111 136.187185,88.1442111 136.495112,84.9299223 L135.852225,23.85852 L133.923637,23.85852 L133.923637,23.85852 Z" id="Shape" stroke="#FFFFFF" stroke-width="1.52845179" fill="#A24300"></path>
        <polygon id="Shape" stroke="#FFFFFF" stroke-width="1.12125322" fill="#006D00" transform="translate(136.055611, 38.050888) rotate(161.562974) translate(-136.055611, -38.050888) " points="136.055611 28.7057818 136.828419 31.3757852 138.373993 29.3732638 137.601184 32.7107869 139.146758 31.3757852 137.601184 34.7132706 139.146758 33.3782689 137.601184 36.715792 139.146758 35.3807903 137.601184 39.3857954 139.146758 38.0507937 137.601184 42.0557988 139.146758 40.7207971 137.601184 44.7258022 136.828419 46.7283612 136.055611 47.395994 135.282802 46.7283612 134.510037 44.7258022 132.964464 40.7207971 134.510037 42.0557988 132.964464 38.0507937 134.510037 39.3857954 132.964464 35.3807903 134.510037 36.715792 132.964464 33.3782689 134.510037 34.7132706 132.964464 31.3757852 134.510037 32.7107869 133.737229 29.3732638 135.282802 31.3757852"></polygon>
        <path id="Shape" stroke="#000000" stroke-width="0.5" transform="translate(136.072566, 38.054633) rotate(161.562974) translate(-136.072566, -38.054633) "></path>
        <polyline id="Shape" stroke="#000000" stroke-width="0.5" transform="translate(134.577904, 33.618302) rotate(161.562974) translate(-134.577904, -33.618302) " points="131.486757 31.6157999 134.577904 35.620805 137.669051 31.6157999"></polyline>
        <polyline id="Shape" stroke="#000000" stroke-width="0.5" transform="translate(135.422325, 36.151259) rotate(161.562974) translate(-135.422325, -36.151259) " points="132.331178 34.1487569 135.422325 38.153762 138.513472 34.1487569"></polyline>
        <polyline id="Shape" stroke="#000000" stroke-width="0.5" transform="translate(136.266746, 38.684216) rotate(161.562974) translate(-136.266746, -38.684216) " points="133.175599 36.6817139 136.266746 40.686719 139.357893 36.6817139"></polyline>
        <polyline id="Shape" stroke="#000000" stroke-width="0.5" transform="translate(137.005617, 40.900563) rotate(161.562974) translate(-137.005617, -40.900563) " points="133.91447 39.2318013 137.005617 42.5693244 140.096764 39.2318013"></polyline>
        <polyline id="Shape" stroke="#000000" stroke-width="0.5" transform="translate(137.638933, 42.800281) rotate(161.562974) translate(-137.638933, -42.800281) " points="134.547786 41.1315379 137.638933 44.4690233 140.73008 41.1315379"></polyline>
        <polyline id="Shape" stroke="#000000" stroke-width="0.5" transform="translate(138.166699, 44.383388) rotate(161.562974) translate(-138.166699, -44.383388) " points="135.848317 42.3808851 138.166699 46.3858902 140.485081 42.3808851"></polyline>
        <polygon id="Shape" stroke="#FFFFFF" stroke-width="1.24896628" fill="#006D00" transform="translate(126.507875, 23.952121) rotate(-49.998720) translate(-126.507875, -23.952121) " points="126.507875 13.5051589 127.365568 16.4899752 129.080907 14.2513419 128.223214 17.9823834 129.938553 16.4899752 128.223214 20.2209746 129.938553 18.7285664 128.223214 22.4596079 129.938553 20.9671997 128.223214 25.4444242 129.938553 23.952016 128.223214 28.4292405 129.938553 26.9368323 128.223214 31.4140568 127.365568 33.6527322 126.507875 34.3990837 125.650181 33.6527322 124.792536 31.4140568 123.077197 26.9368323 124.792536 28.4292405 123.077197 23.952016 124.792536 25.4444242 123.077197 20.9671997 124.792536 22.4596079 123.077197 18.7285664 124.792536 20.2209746 123.077197 16.4899752 124.792536 17.9823834 123.934842 14.2513419 125.650181 16.4899752"></polygon>
        <path id="Shape" stroke="#000000" stroke-width="0.5" transform="translate(126.542118, 23.942053) rotate(-49.998720) translate(-126.542118, -23.942053) "></path>
        <polyline id="Shape" stroke="#000000" stroke-width="0.5" transform="translate(130.509098, 27.309698) rotate(-49.998720) translate(-130.509098, -27.309698) " points="127.07842 25.071086 130.509098 29.5483104 133.939775 25.071086"></polyline>
        <polyline id="Shape" stroke="#000000" stroke-width="0.5" transform="translate(128.222638, 25.391044) rotate(-49.998720) translate(-128.222638, -25.391044) " points="124.791961 23.1524319 128.222638 27.6296564 131.653316 23.1524319"></polyline>
        <polyline id="Shape" stroke="#000000" stroke-width="0.5" transform="translate(125.936179, 23.472390) rotate(-49.998720) translate(-125.936179, -23.472390) " points="122.505502 21.2337779 125.936179 25.7110024 129.366857 21.2337779"></polyline>
        <polyline id="Shape" stroke="#000000" stroke-width="0.5" transform="translate(123.935520, 21.793561) rotate(-49.998720) translate(-123.935520, -21.793561) " points="120.504842 19.9280403 123.93552 23.6590818 127.366197 19.9280403"></polyline>
        <polyline id="Shape" stroke="#000000" stroke-width="0.5" transform="translate(122.220675, 20.354571) rotate(-49.998720) translate(-122.220675, -20.354571) " points="118.789998 18.4890709 122.220675 22.2200702 125.651353 18.4890709"></polyline>
        <polyline id="Shape" stroke="#000000" stroke-width="0.5" transform="translate(120.791630, 19.155405) rotate(-49.998720) translate(-120.791630, -19.155405) " points="118.218598 16.9167928 120.79163 21.3940172 123.364663 16.9167928"></polyline>
        <polygon id="Shape" stroke="#FFFFFF" stroke-width="1.24896612" fill="#006D00" transform="translate(144.390361, 26.522387) rotate(65.661400) translate(-144.390361, -26.522387) " points="144.390361 16.0754252 145.248055 19.0602415 146.963393 16.8216082 146.1057 20.5526496 147.821038 19.0602415 146.1057 22.7912407 147.821038 21.2988326 146.1057 25.029874 147.821038 23.5374659 146.1057 28.0146903 147.821038 26.5222821 146.1057 30.9995065 147.821038 29.5070984 146.1057 33.9843228 145.248055 36.2229982 144.390361 36.9693497 143.532668 36.2229982 142.675023 33.9843228 140.959684 29.5070984 142.675023 30.9995065 140.959684 26.5222821 142.675023 28.0146903 140.959684 23.5374659 142.675023 25.029874 140.959684 21.2988326 142.675023 22.7912407 140.959684 19.0602415 142.675023 20.5526496 141.817329 16.8216082 143.532668 19.0602415"></polygon>
        <path id="Shape" stroke="#000000" stroke-width="0.5" transform="translate(144.421573, 26.534363) rotate(65.661400) translate(-144.421573, -26.534363) "></path>
        <polyline id="Shape" stroke="#000000" stroke-width="0.5" transform="translate(139.631257, 28.675067) rotate(65.661400) translate(-139.631257, -28.675067) " points="136.20058 26.4364544 139.631257 30.9136788 143.061934 26.4364544"></polyline>
        <polyline id="Shape" stroke="#000000" stroke-width="0.5" transform="translate(142.350800, 27.444939) rotate(65.661400) translate(-142.350800, -27.444939) " points="138.920123 25.2063272 142.3508 29.6835516 145.781477 25.2063272"></polyline>
        <polyline id="Shape" stroke="#000000" stroke-width="0.5" transform="translate(145.070343, 26.214812) rotate(65.661400) translate(-145.070343, -26.214812) " points="141.639666 23.9762 145.070343 28.4534244 148.50102 23.9762"></polyline>
        <polyline id="Shape" stroke="#000000" stroke-width="0.5" transform="translate(147.449953, 25.138447) rotate(65.661400) translate(-147.449953, -25.138447) " points="144.019276 23.2729259 147.449953 27.0039673 150.88063 23.2729259"></polyline>
        <polyline id="Shape" stroke="#000000" stroke-width="0.5" transform="translate(149.489610, 24.215851) rotate(65.661400) translate(-149.489610, -24.215851) " points="146.058933 22.3503516 149.48961 26.0813508 152.920287 22.3503516"></polyline>
        <polyline id="Shape" stroke="#000000" stroke-width="0.5" transform="translate(151.189334, 23.447017) rotate(65.661400) translate(-151.189334, -23.447017) " points="148.616302 21.2084052 151.189334 25.6856296 153.762366 21.2084052"></polyline>
        <polygon id="Shape" stroke="#FFFFFF" stroke-width="1.24896586" fill="#006D00" transform="translate(144.536821, 36.556635) rotate(124.710281) translate(-144.536821, -36.556635) " points="144.536821 26.109673 145.394514 29.0944892 147.109852 26.855856 146.252158 30.5868973 147.967496 29.0944892 146.252158 32.8254884 147.967496 31.3330803 146.252158 35.0641216 147.967496 33.5717135 146.252158 38.0489378 147.967496 36.5565297 146.252158 41.0337541 147.967496 39.541346 146.252158 44.0185703 145.394514 46.2572456 144.536821 47.0035971 143.679128 46.2572456 142.821483 44.0185703 141.106145 39.541346 142.821483 41.0337541 141.106145 36.5565297 142.821483 38.0489378 141.106145 33.5717135 142.821483 35.0641216 141.106145 31.3330803 142.821483 32.8254884 141.106145 29.0944892 142.821483 30.5868973 141.96379 26.855856 143.679128 29.0944892"></polygon>
        <path id="Shape" stroke="#000000" stroke-width="0.5" transform="translate(144.555131, 36.567440) rotate(124.710281) translate(-144.555131, -36.567440) "></path>
        <polyline id="Shape" stroke="#000000" stroke-width="0.5" transform="translate(140.243030, 33.582334) rotate(124.710281) translate(-140.243030, -33.582334) " points="136.812355 31.3437215 140.24303 35.8209458 143.673706 31.3437215"></polyline>
        <polyline id="Shape" stroke="#000000" stroke-width="0.5" transform="translate(142.696674, 35.281969) rotate(124.710281) translate(-142.696674, -35.281969) " points="139.265999 33.0433565 142.696674 37.5205809 146.12735 33.0433565"></polyline>
        <polyline id="Shape" stroke="#000000" stroke-width="0.5" transform="translate(145.150318, 36.981604) rotate(124.710281) translate(-145.150318, -36.981604) " points="141.719643 34.7429916 145.150318 39.2202159 148.580994 34.7429916"></polyline>
        <polyline id="Shape" stroke="#000000" stroke-width="0.5" transform="translate(147.297265, 38.468790) rotate(124.710281) translate(-147.297265, -38.468790) " points="143.86659 36.6032698 147.297265 40.3343111 150.727941 36.6032698"></polyline>
        <polyline id="Shape" stroke="#000000" stroke-width="0.5" transform="translate(149.137498, 39.743517) rotate(124.710281) translate(-149.137498, -39.743517) " points="145.706823 37.8780171 149.137498 41.6090163 152.568174 37.8780171"></polyline>
        <polyline id="Shape" stroke="#000000" stroke-width="0.5" transform="translate(150.671034, 40.805795) rotate(124.710281) translate(-150.671034, -40.805795) " points="148.098003 38.5671824 150.671034 43.0444068 153.244065 38.5671824"></polyline>
        <polygon id="Shape" stroke="#FFFFFF" stroke-width="1.12125354" fill="#006D00" transform="translate(126.854575, 36.744858) rotate(231.202973) translate(-126.854575, -36.744858) " points="126.854575 27.3997567 127.627385 30.0697588 129.17296 28.0672384 128.400151 31.4047599 129.945726 30.0697588 128.400151 33.4072427 129.945726 32.0722416 128.400151 35.4097631 129.945726 34.074762 128.400151 38.0797652 129.945726 36.7447642 128.400151 40.7497674 129.945726 39.4147663 128.400151 43.4197695 127.627385 45.4223276 126.854575 46.08996 126.081766 45.4223276 125.309 43.4197695 123.763425 39.4147663 125.309 40.7497674 123.763425 36.7447642 125.309 38.0797652 123.763425 34.074762 125.309 35.4097631 123.763425 32.0722416 125.309 33.4072427 123.763425 30.0697588 125.309 31.4047599 124.536191 28.0672384 126.081766 30.0697588"></polygon>
        <path id="Shape" stroke="#000000" stroke-width="0.5" transform="translate(126.875345, 36.735628) rotate(231.202973) translate(-126.875345, -36.735628) "></path>
        <polyline id="Shape" stroke="#000000" stroke-width="0.5" transform="translate(130.496113, 33.817298) rotate(231.202973) translate(-130.496113, -33.817298) " points="127.404963 31.8147961 130.496113 35.8197993 133.587264 31.8147961"></polyline>
        <polyline id="Shape" stroke="#000000" stroke-width="0.5" transform="translate(128.415193, 35.490223) rotate(231.202973) translate(-128.415193, -35.490223) " points="125.324042 33.4877216 128.415193 37.4927248 131.506343 33.4877216"></polyline>
        <polyline id="Shape" stroke="#000000" stroke-width="0.5" transform="translate(126.334272, 37.163149) rotate(231.202973) translate(-126.334272, -37.163149) " points="123.243121 35.1606472 126.334272 39.1656504 129.425422 35.1606472"></polyline>
        <polyline id="Shape" stroke="#000000" stroke-width="0.5" transform="translate(124.513459, 38.626965) rotate(231.202973) translate(-124.513459, -38.626965) " points="121.422308 36.9582038 124.513459 40.2957253 127.604609 36.9582038"></polyline>
        <polyline id="Shape" stroke="#000000" stroke-width="0.5" transform="translate(122.952768, 39.881659) rotate(231.202973) translate(-122.952768, -39.881659) " points="119.861618 38.2129168 122.952768 41.5504006 126.043918 38.2129168"></polyline>
        <polyline id="Shape" stroke="#000000" stroke-width="0.5" transform="translate(121.652185, 40.927243) rotate(231.202973) translate(-121.652185, -40.927243) " points="119.333801 38.9247415 121.652185 42.9297447 123.97057 38.9247415"></polyline>
        <polygon id="Shape" stroke="#FFFFFF" stroke-width="1.27566835" fill="#006D00" transform="translate(142.175047, 20.314386) rotate(195.357287) translate(-142.175047, -20.314386) " points="140.861801 9.63812861 142.277267 12.688457 144.363822 10.4006892 143.860554 14.2136212 145.239302 12.688457 144.363822 16.5013459 145.611564 14.9761818 144.363822 18.7891137 146.114832 17.2639496 144.363822 21.8394421 146.114832 20.3142779 144.363822 24.8897705 146.114832 23.3646063 144.363822 27.9400989 143.488341 30.2279097 142.612811 30.9906425 141.737282 30.2279097 140.861801 27.9400989 139.110791 23.3646063 140.861801 24.8897705 139.110791 20.3142779 140.861801 21.8394421 139.110791 17.2639496 140.861801 18.7891137 138.607523 14.9761818 140.861801 16.5013459 138.235261 12.688457 140.358533 14.2136212 139.110742 10.4006892 140.861752 12.688457"></polygon>
        <polyline id="Shape" stroke="#000000" stroke-width="0.5" transform="translate(142.642386, 19.651918) rotate(195.357287) translate(-142.642386, -19.651918) " points="141.929415 9.73824289 143.355357 15.0763391 143.355357 29.5655926"></polyline>
        <polyline id="Shape" stroke="#000000" stroke-width="0.5" transform="translate(143.247360, 14.677842) rotate(195.357287) translate(-143.247360, -14.677842) " points="140.269585 12.7713974 143.226382 16.5842863 146.225135 12.7713974"></polyline>
        <polyline id="Shape" stroke="#000000" stroke-width="0.5" transform="translate(142.479953, 17.630357) rotate(195.357287) translate(-142.479953, -17.630357) " points="139.460247 15.7239128 142.500906 19.5368018 145.499658 15.7239128"></polyline>
        <polyline id="Shape" stroke="#000000" stroke-width="0.5" transform="translate(141.672136, 20.571774) rotate(195.357287) translate(-141.672136, -20.571774) " points="138.694361 18.66533 141.693113 22.4782189 144.649911 18.66533"></polyline>
        <polyline id="Shape" stroke="#000000" stroke-width="0.5" transform="translate(141.185191, 23.205918) rotate(195.357287) translate(-141.185191, -23.205918) " points="138.30966 21.6807542 141.43423 24.7310826 144.060721 21.6807542"></polyline>
        <polyline id="Shape" stroke="#000000" stroke-width="0.5" transform="translate(140.945785, 25.512627) rotate(195.357287) translate(-140.945785, -25.512627) " points="138.072849 23.9874838 141.57487 27.0377692 143.818721 23.9874838"></polyline>
        <polyline id="Shape" stroke="#000000" stroke-width="0.5" transform="translate(140.621740, 27.246780) rotate(195.357287) translate(-140.621740, -27.246780) " points="138.435584 25.5617521 141.062124 29.3016391 142.807896 25.1919215"></polyline>
        <polygon id="Shape" stroke="#FFFFFF" stroke-width="1.27566763" fill="#006D00" transform="translate(133.996522, 18.500668) rotate(16.092367) translate(-133.996522, -18.500668) " points="132.683277 7.82442145 134.098742 10.8747469 136.185297 8.58698128 135.682029 12.3999096 137.060777 10.8747469 136.185297 14.6876321 137.433039 13.1624694 136.185297 16.9753977 137.936306 15.450235 136.185297 20.0257231 137.936306 18.5005604 136.185297 23.0760485 137.936306 21.5508858 136.185297 26.126374 135.309816 28.4141826 134.434287 29.1769146 133.558757 28.4141826 132.683277 26.126374 130.932267 21.5508858 132.683277 23.0760485 130.932267 18.5005604 132.683277 20.0257231 130.932267 15.450235 132.683277 16.9753977 130.428999 13.1624694 132.683277 14.6876321 130.056737 10.8747469 132.180009 12.3999096 130.932217 8.58698128 132.683227 10.8747469"></polygon>
        <polyline id="Shape" stroke="#000000" stroke-width="0.5" transform="translate(133.520722, 19.157085) rotate(16.092367) translate(-133.520722, -19.157085) " points="132.807751 9.24341981 134.233693 14.5815108 134.233693 29.0707502"></polyline>
        <polyline id="Shape" stroke="#000000" stroke-width="0.5" transform="translate(132.851986, 24.122986) rotate(16.092367) translate(-132.851986, -24.122986) " points="129.874211 22.2165429 132.831008 26.0294282 135.82976 22.2165429"></polyline>
        <polyline id="Shape" stroke="#000000" stroke-width="0.5" transform="translate(133.657207, 21.180561) rotate(16.092367) translate(-133.657207, -21.180561) " points="130.637502 19.2741185 133.67816 23.0870038 136.676912 19.2741185"></polyline>
        <polyline id="Shape" stroke="#000000" stroke-width="0.5" transform="translate(134.502693, 18.249753) rotate(16.092367) translate(-134.502693, -18.249753) " points="131.524919 16.3433099 134.523671 20.1561952 137.480467 16.3433099"></polyline>
        <polyline id="Shape" stroke="#000000" stroke-width="0.5" transform="translate(135.023391, 15.622075) rotate(16.092367) translate(-135.023391, -15.622075) " points="132.147862 14.0969123 135.272431 17.1472377 137.898921 14.0969123"></polyline>
        <polyline id="Shape" stroke="#000000" stroke-width="0.5" transform="translate(135.292370, 13.318630) rotate(16.092367) translate(-135.292370, -13.318630) " points="132.419435 11.7934891 135.921455 14.8437715 138.165305 11.7934891"></polyline>
        <polyline id="Shape" stroke="#000000" stroke-width="0.5" transform="translate(135.638635, 11.588778) rotate(16.092367) translate(-135.638635, -11.588778) " points="133.45248 9.90375157 136.079019 13.6436349 137.824791 9.53392125"></polyline>
        <polygon id="Shape" stroke="#FFFFFF" stroke-width="1.18216854" fill="#006D00" transform="translate(123.953390, 30.664690) rotate(-82.791633) translate(-123.953390, -30.664690) " points="119.668481 21.0115842 123.953414 24.3402244 124.810372 22.3430703 124.810372 25.671673 126.524335 24.3402244 125.667378 27.6688646 127.381293 26.3373785 126.524335 29.6660563 128.238299 28.3346077 127.381341 32.3289535 129.095305 30.9975049 127.381341 34.9918506 129.095305 33.660402 128.238299 37.6547102 127.381341 39.6519394 126.524335 40.3177952 125.667329 39.6519394 124.810372 37.6547102 122.239402 34.5623886 123.953414 34.9918506 122.239451 30.9975049 123.953414 32.3289535 121.382445 28.3346077 123.096408 29.6660563 120.525439 26.3373785 123.096408 27.6688646 119.668481 24.3402244 122.239402 25.671673 118.811475 23.0087758 122.239402 24.3402244"></polygon>
        <polyline id="Shape" stroke="#000000" stroke-width="0.5" transform="translate(124.452195, 30.991116) rotate(-82.791633) translate(-124.452195, -30.991116) " points="121.619993 21.8738325 124.713476 25.4622767 125.570434 27.4594684 125.998961 29.1581146 126.42744 32.1195572 126.878025 34.7824543 127.284397 40.108399"></polyline>
        <polyline id="Shape" stroke="#000000" stroke-width="0.5" transform="translate(129.476728, 29.437818) rotate(-82.791633) translate(-129.476728, -29.437818) " points="126.709513 28.4392412 129.789114 31.1021384 132.243942 27.7734981"></polyline>
        <polyline id="Shape" stroke="#000000" stroke-width="0.5" transform="translate(126.806608, 29.327195) rotate(-82.791633) translate(-126.806608, -29.327195) " points="123.872147 27.6628746 127.286191 30.9915148 129.741068 27.6628746"></polyline>
        <polyline id="Shape" stroke="#000000" stroke-width="0.5" transform="translate(124.092777, 29.562169) rotate(-82.791633) translate(-124.092777, -29.562169) " points="121.267492 28.2115372 124.695468 31.2264887 126.918062 27.8978485"></polyline>
        <polyline id="Shape" stroke="#000000" stroke-width="0.5" transform="translate(119.577409, 30.777226) rotate(-82.791633) translate(-119.577409, -30.777226) " points="116.810195 29.4457775 121.095128 32.1086747 122.344624 29.4457775"></polyline>
        <polyline id="Shape" stroke="#000000" stroke-width="0.5" transform="translate(117.791313, 31.635224) rotate(-82.791633) translate(-117.791313, -31.635224) " points="115.546588 30.6366471 119.527406 32.6338012 120.036037 30.6366471"></polyline>
        <polyline id="Shape" stroke="#000000" stroke-width="0.5" transform="translate(121.668217, 30.162548) rotate(-82.791633) translate(-121.668217, -30.162548) " points="118.885838 28.8310994 122.808562 31.4939966 124.450596 28.8310994"></polyline>
        <polygon id="Shape" stroke="#000000" stroke-width="0.5" fill="#9D9D9D" points="127.590299 66.7374082 135.079025 65.39373 142.879807 66.7374082 139.260235 68.2422823 132.582808 68.3498221"></polygon>
        <path d="M135.135949,54.6360202 C133.827003,55.0910316 132.377,53.995721 130.016672,55.7831626 C130.016672,55.7831626 125.901733,54.022777 125.589145,58.0913556 C125.576605,58.2560474 126.240465,59.2483021 126.33288,59.1773942 C126.849984,58.7803707 126.087401,59.5628657 126.087401,59.6759535 C126.087401,59.7899534 126.163249,59.8532613 126.188861,59.9034972 C126.214017,59.9541892 126.277248,60.0300371 126.289864,60.2450408 C126.302404,60.4599685 125.823453,61.0463837 126.025841,61.2613114 C126.227773,61.4763152 126.240313,62.0960943 126.240313,62.2729461 C126.240313,62.4497219 126.366928,62.9429612 126.455316,63.0444211 C126.543704,63.145349 126.6954,63.3980486 126.6954,63.6129763 C126.6954,63.8279801 126.783788,64.4221473 126.745636,64.5733871 C126.70794,64.7250829 126.97318,64.9149306 127.213795,64.9907785 C127.453879,65.0666264 130.552851,65.1204344 134.902097,65.0445865 C139.251799,64.9687386 140.703017,65.6569177 142.500111,65.0033185 C142.777891,64.9023906 142.828583,64.6748469 142.803503,64.5482311 C142.777891,64.4221473 142.803503,64.0178278 142.879351,63.9163679 C142.955199,63.8154401 143.460978,63.0062691 143.359518,62.8545733 C143.454974,62.7683895 144.164281,63.2642128 143.712538,62.8214374 C143.596714,62.7079695 143.777365,61.5130231 143.839685,61.2613114 C143.902537,61.0091438 143.998981,60.5355884 144.114881,60.4476565 C144.231313,60.3597246 143.917433,60.0305691 143.939701,59.9711371 C143.962349,59.9112492 144.046937,59.7257335 144.164813,59.6412216 C144.164813,59.6412216 144.384073,58.6131709 144.248869,58.1078476 C144.114577,57.6020683 143.62035,55.3275432 140.535362,55.7831626 C140.535362,55.7831626 136.405527,54.1947647 135.135949,54.6360202 L135.135949,54.6360202 Z" id="Shape" stroke="#000000" stroke-width="0.5" fill="#CC0000"></path>
        <path d="M130.224751,57.236196 C130.015052,57.2899747 129.600717,59.0033404 129.705588,59.577685 C129.778178,59.9752849 129.890789,60.2496168 129.954567,60.4179623 C129.81437,60.1348687 129.485883,59.5871114 129.038444,59.5871114 C128.475842,59.5871114 128.403088,61.3967349 128.416963,61.5131749 C128.417004,61.5135979 128.416881,61.514746 128.416963,61.5151085 C128.417004,61.5153502 128.418157,61.51674 128.41824,61.5169817 C128.418322,61.5169213 128.419434,61.5170421 128.419516,61.5169817 C128.444756,61.4737775 128.672407,60.7257699 129.228874,60.7257699 C129.595159,60.7257699 129.880619,61.1508635 129.985448,61.3318983 C129.985407,61.3890005 129.986354,61.444169 129.986724,61.5000021 C129.904211,61.6708855 129.851591,62.0759178 129.596847,62.5857279 C129.288989,63.2018266 128.346309,63.2649712 128.187912,63.271195 L130.227345,63.271195 C130.229281,63.271195 130.231833,63.2713763 130.233768,63.271195 C130.234674,63.2713159 130.235415,63.2711346 130.236321,63.271195 C130.238256,63.2713763 130.240809,63.271195 130.242786,63.271195 L132.282178,63.271195 C132.123781,63.2649712 131.163067,63.2018266 130.85525,62.5857279 C130.600465,62.0759178 130.565878,61.6708855 130.483366,61.5000021 C130.483736,61.444169 130.484683,61.3890005 130.484683,61.3318983 C130.589471,61.1508635 130.874931,60.7257699 131.241257,60.7257699 C131.797683,60.7257699 132.025334,61.4737775 132.050574,61.5169817 C132.050656,61.5170421 132.051768,61.5169213 132.05185,61.5169817 C132.051933,61.51674 132.053085,61.5153502 132.053127,61.5151085 C132.053209,61.514746 132.053085,61.5135979 132.053127,61.5131749 C132.067002,61.3967349 131.994248,59.5871114 131.431687,59.5871114 C130.984207,59.5871114 130.65572,60.1348687 130.515564,60.4179623 C130.579301,60.2496168 130.6922,59.8998135 130.750997,59.577685 C130.857514,58.9942162 130.444662,57.236619 130.235045,57.236196 C130.231751,57.236196 130.228086,57.2353501 130.224751,57.236196 L130.224751,57.236196 Z M129.959714,60.4293223 C129.974207,60.4589308 129.986971,60.4844304 129.997018,60.5067274 C129.997224,60.5072108 130.019293,60.6866142 130.01954,60.6870372 C130.019416,60.6909044 130.127704,61.3025315 130.127581,61.3063988 C130.116711,61.282712 129.973713,60.4655776 129.959714,60.4293223 L129.959714,60.4293223 Z M130.510417,60.4293223 C130.496377,60.4655776 130.344362,61.282712 130.333492,61.3063988 C130.333369,61.3025315 130.473196,60.5124678 130.473072,60.5086006 C130.473072,60.5079963 130.455079,60.6877019 130.455079,60.6870372 C130.465126,60.6647402 130.495883,60.4589308 130.510417,60.4293223 L130.510417,60.4293223 Z" id="Shape" stroke="#000000" stroke-width="0.5" fill="#F7D917" transform="translate(130.235045, 60.253548) rotate(-5.127867) translate(-130.235045, -60.253548) "></path>
        <path id="Shape" stroke="#000000" stroke-width="0.5" fill="#F7D917" transform="translate(130.338010, 61.400946) rotate(-5.127867) translate(-130.338010, -61.400946) "></path>
        <path d="M139.836346,57.3518326 C139.626647,57.4056113 139.212312,59.1189781 139.317182,59.6933231 C139.389772,60.0909233 139.502383,60.3652554 139.566162,60.533601 C139.425964,60.2505072 139.097478,59.7027495 138.65004,59.7027495 C138.087438,59.7027495 138.014683,61.5123742 138.028559,61.6288143 C138.0286,61.6292373 138.028476,61.6303853 138.028559,61.6307479 C138.0286,61.6309896 138.029753,61.6323794 138.029835,61.6326211 C138.029917,61.6325607 138.031029,61.6326815 138.031111,61.6326211 C138.056351,61.5894168 138.284002,60.8414088 138.840469,60.8414088 C139.206754,60.8414088 139.492213,61.2665026 139.597042,61.4475376 C139.597001,61.5046398 139.597948,61.5598083 139.598319,61.6156415 C139.515806,61.786525 139.463186,62.1915575 139.208442,62.701368 C138.900584,63.317467 137.957904,63.3806118 137.799508,63.3868356 L139.83894,63.3868356 C139.840875,63.3868356 139.843428,63.3870169 139.845363,63.3868356 C139.846269,63.3869564 139.84701,63.3867752 139.847916,63.3868356 C139.849851,63.3870169 139.852404,63.3868356 139.85438,63.3868356 L141.893771,63.3868356 C141.735375,63.3806118 140.774661,63.317467 140.466844,62.701368 C140.212059,62.1915575 140.177473,61.786525 140.09496,61.6156415 C140.095331,61.5598083 140.096278,61.5046398 140.096278,61.4475376 C140.201066,61.2665026 140.486525,60.8414088 140.85285,60.8414088 C141.409276,60.8414088 141.636928,61.5894168 141.662167,61.6326211 C141.66225,61.6326815 141.663361,61.6325607 141.663444,61.6326211 C141.663526,61.6323794 141.664679,61.6309896 141.66472,61.6307479 C141.664802,61.6303853 141.664679,61.6292373 141.66472,61.6288143 C141.678596,61.5123742 141.605841,59.7027495 141.04328,59.7027495 C140.595801,59.7027495 140.267315,60.2505072 140.127158,60.533601 C140.190896,60.3652554 140.303795,60.0154518 140.362591,59.6933231 C140.469108,59.1098539 140.056256,57.3522555 139.846639,57.3518326 C139.843345,57.3518326 139.839681,57.3509866 139.836346,57.3518326 L139.836346,57.3518326 Z M139.571309,60.544961 C139.585802,60.5745695 139.598566,60.6000691 139.608612,60.6223661 C139.608818,60.6228495 139.630887,60.802253 139.631135,60.802676 C139.631011,60.8065432 139.739299,61.4181708 139.739175,61.422038 C139.728305,61.3983512 139.585308,60.5812163 139.571309,60.544961 L139.571309,60.544961 Z M140.122011,60.544961 C140.107971,60.5812163 139.955956,61.3983512 139.945087,61.422038 C139.944963,61.4181708 140.08479,60.6281065 140.084667,60.6242393 C140.084667,60.6236351 140.066673,60.8033407 140.066673,60.802676 C140.07672,60.780379 140.107477,60.5745695 140.122011,60.544961 L140.122011,60.544961 Z" id="Shape" stroke="#000000" stroke-width="0.5" fill="#F7D917" transform="translate(139.846639, 60.369186) rotate(6.872137) translate(-139.846639, -60.369186) "></path>
        <path id="Shape" stroke="#000000" stroke-width="0.5" fill="#F7D917" transform="translate(139.708797, 61.512920) rotate(6.872137) translate(-139.708797, -61.512920) "></path>
        <path d="M126.131391,60.2424957 L126.931001,59.2676151 C126.931001,59.2676151 127.005516,59.3639974 126.931001,59.2676151 C125.291677,57.1484422 125.208745,55.9326059 125.393258,55.3169309 C125.577771,54.7012559 125.946879,54.0342541 126.931001,53.2132716 C127.915124,52.3923716 128.594256,52.8486197 129.51682,52.8486197 C130.439466,52.8486197 130.685538,53.0538447 131.485065,53.1564985 C132.284675,53.2590697 134.437434,53.3617235 134.437434,53.3617235 L134.437434,52.7972928 C134.437434,52.7972928 134.522346,52.8131365 134.437434,52.7972928 C133.486979,52.6201243 132.284675,52.7972928 131.485065,52.5920678 C130.685538,52.3868429 130.008881,52.3355985 129.147794,52.3355985 C128.286708,52.3355985 127.669052,52.0844929 127.115514,52.4436985 C126.561894,52.8028216 125.885319,53.4184966 125.393258,53.9316003 C124.901197,54.4447041 124.655207,55.470829 124.716684,56.1378309 C124.778243,56.8048327 125.024233,57.3692633 125.393258,57.8822845 C125.762366,58.3953883 125.700807,58.8058383 125.823843,59.1649614 C125.946879,59.524167 126.131391,60.2937401 126.131391,60.2424957 L126.131391,60.2424957 Z" id="Shape" stroke="#000000" stroke-width="0.5" fill="#F7D917"></path>
        <path d="M143.868623,60.2424957 L143.069013,59.2676151 C143.069013,59.2676151 142.994416,59.3639974 143.069013,59.2676151 C144.708255,57.1484422 144.791187,55.9326059 144.606674,55.3169309 C144.422162,54.7012559 144.053136,54.0342541 143.069013,53.2132716 C142.084891,52.3923716 141.405759,52.8486197 140.483113,52.8486197 C139.560467,52.8486197 139.314477,53.0538447 138.514867,53.1564985 C137.715257,53.2590697 135.562499,53.3617235 135.562499,53.3617235 L135.562499,52.7972928 C135.562499,52.7972928 135.477587,52.8131365 135.562499,52.7972928 C136.513036,52.6201243 137.715257,52.7972928 138.514867,52.5920678 C139.314477,52.3868429 139.991051,52.3355985 140.852138,52.3355985 C141.713307,52.3355985 142.33088,52.0844929 142.884501,52.4436985 C143.438039,52.8028216 144.114613,53.4184966 144.606674,53.9316003 C145.098736,54.4447041 145.344808,55.470829 145.283248,56.1378309 C145.221772,56.8048327 144.9757,57.3692633 144.606674,57.8822845 C144.237649,58.3953883 144.299126,58.8058383 144.176172,59.1649614 C144.053136,59.524167 143.868623,60.2937401 143.868623,60.2424957 L143.868623,60.2424957 Z" id="Shape" stroke="#000000" stroke-width="0.5" fill="#F7D917"></path>
        <rect id="Rectangle-path" stroke="#000000" stroke-width="0.5" fill="#F7D917" x="133.660846" y="52.3322977" width="2.8521075" height="5.85010875"></rect>
        <path d="M134.001733,47.1748543 C134.001733,47.1748543 134.308704,47.4247221 134.544296,47.7460515 C134.77997,48.0672983 134.944183,48.4600067 134.944183,48.4600067 C134.944183,48.4600067 134.551475,48.2957937 134.230228,48.0601191 C133.908899,47.8245271 133.659031,47.5175561 133.659031,47.5175561 L133.659031,49.6879733 C133.659031,49.6879733 133.908899,49.3810023 134.230228,49.1454103 C134.551475,48.9097357 134.944183,48.7455227 134.944183,48.7455227 C134.944183,48.7455227 134.817599,49.0695752 134.735905,49.4595605 C134.662381,49.8102666 134.060651,50.620109 134.060651,50.620109 L135.818556,50.7380288 C135.818556,50.7380288 135.526273,49.8102666 135.408518,49.4595605 C135.281769,49.081788 135.229699,48.7455227 135.229699,48.7455227 C135.229699,48.7455227 135.622408,48.9097357 135.943737,49.1454103 C136.264984,49.3810023 136.514852,49.6879733 136.514852,49.6879733 L136.514852,47.5175561 C136.514852,47.5175561 136.264984,47.8245271 135.943737,48.0601191 C135.622408,48.2957937 135.229699,48.4600067 135.229699,48.4600067 C135.229699,48.4600067 135.393912,48.0672983 135.629587,47.7460515 C135.865179,47.4247221 136.17215,47.1748543 136.17215,47.1748543 L134.001733,47.1748543 L134.001733,47.1748543 Z" id="Shape" stroke="#000000" stroke-width="0.5" fill="#F7D917"></path>
        <path d="M136.501559,51.0429369 C136.501559,51.8242126 135.868209,52.4575617 135.086934,52.4575617 C134.305658,52.4575617 133.672309,51.8242126 133.672309,51.0429369 C133.672309,50.2616611 134.305658,49.628312 135.086934,49.628312 C135.868209,49.628312 136.501559,50.2616611 136.501559,51.0429369 L136.501559,51.0429369 Z" id="Shape" stroke="#000000" stroke-width="0.5" fill="#F7D917"></path>
        <path d="M133.703839,51.2458513 L136.517905,51.2458513 C136.517905,51.2458513 136.558669,50.7015554 136.355012,50.4978982 L135.480805,50.4978982 L135.466034,49.6819494 L135.140496,49.6819494 L134.637377,49.6819494 L134.622606,50.4978982 C134.622606,50.4978982 134.034493,50.5273576 133.763583,50.5273576 C133.640712,50.8608172 133.659609,50.8888737 133.659609,50.8888737 L133.703839,51.2458513 L133.703839,51.2458513 Z" id="Shape" stroke="#000000" stroke-width="0.5" fill="#F7D917"></path>
        <path d="M133.274987,57.9865062 C133.274987,57.9865062 133.787596,58.4037227 134.180964,58.9401793 C134.574333,59.476636 134.848544,60.1322502 134.848544,60.1322502 C134.848544,60.1322502 134.192847,59.8580392 133.656473,59.4646707 C133.120016,59.0713022 132.7028,58.5586936 132.7028,58.5586936 L132.7028,62.1826022 C132.7028,62.1826022 133.120016,61.6700761 133.656473,61.276625 C134.192847,60.8832565 134.848544,60.6090455 134.848544,60.6090455 C134.848544,60.6090455 134.574333,61.2647423 134.180964,61.8011989 C133.787596,62.337573 133.274987,62.7548721 133.274987,62.7548721 L136.898896,62.7548721 C136.898896,62.7548721 136.386287,62.337573 135.992918,61.8011989 C135.59955,61.2647423 135.325339,60.6090455 135.325339,60.6090455 C135.325339,60.6090455 135.981036,60.8832565 136.51741,61.276625 C137.053866,61.6700761 137.471083,62.1826022 137.471083,62.1826022 L137.471083,58.5586936 C137.471083,58.5586936 137.053866,59.0713022 136.51741,59.4646707 C135.981036,59.8580392 135.325339,60.1322502 135.325339,60.1322502 C135.325339,60.1322502 135.59955,59.476636 135.992918,58.9401793 C136.386287,58.4037227 136.898896,57.9865062 136.898896,57.9865062 L133.274987,57.9865062 L133.274987,57.9865062 Z" id="Shape" stroke="#000000" stroke-width="0.5" fill="#F7D917"></path>
        <path d="M126.373337,64.1390474 L128.157813,63.8244021 C128.157813,63.8244021 127.580592,63.5024951 127.100001,63.0425337 C126.619409,62.5825722 126.235531,61.9844738 126.235531,61.9844738 C126.235531,61.9844738 126.928856,62.1405999 127.525469,62.434863 C128.122082,62.7291261 128.621983,63.1615262 128.621983,63.1615262 L127.992692,59.5926578 C127.992692,59.5926578 127.670785,60.1698789 127.210824,60.6504701 C126.750862,61.1310613 126.152764,61.5148576 126.152764,61.5148576 C126.152764,61.5148576 126.30889,60.8216147 126.603153,60.2250017 C126.897416,59.6283886 127.329816,59.1284879 127.329816,59.1284879 L125.545341,59.4431332 L126.373337,64.1390474 L126.373337,64.1390474 Z" id="Shape" stroke="#000000" stroke-width="0.5" fill="#F7D917"></path>
        <path d="M142.844066,59.1284879 C142.844066,59.1284879 143.276466,59.6283886 143.57073,60.2250017 C143.864993,60.8216147 144.021119,61.5148576 144.021119,61.5148576 C144.021119,61.5148576 143.42302,61.1310613 142.963059,60.6504701 C142.503097,60.1698789 142.18119,59.5926578 142.18119,59.5926578 L141.5519,63.1615262 C141.5519,63.1615262 142.051801,62.7291261 142.648414,62.434863 C143.245027,62.1405999 143.938352,61.9844738 143.938352,61.9844738 C143.938352,61.9844738 143.554473,62.5825722 143.073882,63.0425337 C142.593373,63.5024951 142.01607,63.8244021 142.01607,63.8244021 L143.800545,64.1390474 L144.628542,59.4431332 L142.844066,59.1284879 L142.844066,59.1284879 Z" id="Shape" stroke="#000000" stroke-width="0.5" fill="#F7D917"></path>
        <path d="M126.391822,63.953627 L126.4042,66.5534736 C126.4042,66.5534736 130.748665,65.0740713 135.09313,65.0740713 C139.437596,65.0740713 143.782061,66.5534736 143.782061,66.5534736 L143.782061,63.953627 C143.782061,63.953627 139.434542,62.4741421 135.086941,62.4741421 C130.73934,62.4741421 126.391822,63.953627 126.391822,63.953627 L126.391822,63.953627 Z" id="Shape" stroke="#000000" stroke-width="0.5" fill="#F7D917"></path>
        <path d="M125.988953,58.8583176 C125.991112,59.0960454 125.865524,59.3166448 125.659998,59.4361364 C125.454472,59.555628 125.200628,59.555628 124.995102,59.4361364 C124.789576,59.3166448 124.663988,59.0960454 124.666147,58.8583176 C124.663988,58.6205898 124.789576,58.3999904 124.995102,58.2804988 C125.200628,58.1610072 125.454472,58.1610072 125.659998,58.2804988 C125.865524,58.3999904 125.991112,58.6205898 125.988953,58.8583176 L125.988953,58.8583176 Z" id="c3" stroke="#000000" stroke-width="0.5" fill="#FFFFFF"></path>
        <path d="M125.140575,57.3497613 C125.142734,57.5874891 125.017146,57.8080885 124.81162,57.9275801 C124.606094,58.0470717 124.35225,58.0470717 124.146724,57.9275801 C123.941198,57.8080885 123.81561,57.5874891 123.817769,57.3497613 C123.81561,57.1120334 123.941198,56.8914341 124.146724,56.7719425 C124.35225,56.6524508 124.606094,56.6524508 124.81162,56.7719425 C125.017146,56.8914341 125.142734,57.1120334 125.140575,57.3497613 L125.140575,57.3497613 Z" id="c3" stroke="#000000" stroke-width="0.5" fill="#FFFFFF"></path>
        <path d="M124.963748,55.5815008 C124.965908,55.8192287 124.840319,56.039828 124.634793,56.1593196 C124.429267,56.2788113 124.175424,56.2788113 123.969898,56.1593196 C123.764372,56.039828 123.638784,55.8192287 123.640943,55.5815008 C123.638784,55.343773 123.764372,55.1231736 123.969898,55.003682 C124.175424,54.8841904 124.429267,54.8841904 124.634793,55.003682 C124.840319,55.1231736 124.965908,55.343773 124.963748,55.5815008 L124.963748,55.5815008 Z" id="c3" stroke="#000000" stroke-width="0.5" fill="#FFFFFF"></path>
        <path d="M125.494229,53.9311189 C125.496388,54.1688468 125.3708,54.3894461 125.165274,54.5089377 C124.959748,54.6284293 124.705904,54.6284293 124.500378,54.5089377 C124.294852,54.3894461 124.169264,54.1688468 124.171423,53.9311189 C124.169264,53.6933911 124.294852,53.4727917 124.500378,53.3533001 C124.705904,53.2338085 124.959748,53.2338085 125.165274,53.3533001 C125.3708,53.4727917 125.496388,53.6933911 125.494229,53.9311189 L125.494229,53.9311189 Z" id="c3" stroke="#000000" stroke-width="0.5" fill="#FFFFFF"></path>
        <path d="M126.61413,52.5754457 C126.616289,52.8131735 126.490701,53.0337729 126.285175,53.1532645 C126.079649,53.2727561 125.825806,53.2727561 125.62028,53.1532645 C125.414754,53.0337729 125.289165,52.8131735 125.291325,52.5754457 C125.289165,52.3377179 125.414754,52.1171185 125.62028,51.9976269 C125.825806,51.8781353 126.079649,51.8781353 126.285175,51.9976269 C126.490701,52.1171185 126.616289,52.3377179 126.61413,52.5754457 L126.61413,52.5754457 Z" id="c3" stroke="#000000" stroke-width="0.5" fill="#FFFFFF"></path>
        <path d="M128.146628,51.6323762 C128.148787,51.8701041 128.023199,52.0907034 127.817673,52.210195 C127.612147,52.3296867 127.358303,52.3296867 127.152777,52.210195 C126.947251,52.0907034 126.821663,51.8701041 126.823822,51.6323762 C126.821663,51.3946484 126.947251,51.174049 127.152777,51.0545574 C127.358303,50.9350658 127.612147,50.9350658 127.817673,51.0545574 C128.023199,51.174049 128.148787,51.3946484 128.146628,51.6323762 L128.146628,51.6323762 Z" id="c3" stroke="#000000" stroke-width="0.5" fill="#FFFFFF"></path>
        <path d="M129.855952,51.7502548 C129.858111,51.9879826 129.732523,52.208582 129.526997,52.3280736 C129.321471,52.4475652 129.067628,52.4475652 128.862102,52.3280736 C128.656576,52.208582 128.530987,51.9879826 128.533147,51.7502548 C128.530987,51.5125269 128.656576,51.2919276 128.862102,51.1724359 C129.067628,51.0529443 129.321471,51.0529443 129.526997,51.1724359 C129.732523,51.2919276 129.858111,51.5125269 129.855952,51.7502548 L129.855952,51.7502548 Z" id="c3" stroke="#000000" stroke-width="0.5" fill="#FFFFFF"></path>
        <path d="M131.565276,52.0331797 C131.567435,52.2709076 131.441847,52.4915069 131.236321,52.6109985 C131.030795,52.7304901 130.776951,52.7304901 130.571425,52.6109985 C130.365899,52.4915069 130.240311,52.2709076 130.24247,52.0331797 C130.240311,51.7954519 130.365899,51.5748525 130.571425,51.4553609 C130.776951,51.3358693 131.030795,51.3358693 131.236321,51.4553609 C131.441847,51.5748525 131.567435,51.7954519 131.565276,52.0331797 L131.565276,52.0331797 Z" id="c3" stroke="#000000" stroke-width="0.5" fill="#FFFFFF"></path>
        <path d="M133.274599,52.2100099 C133.276758,52.4477377 133.15117,52.6683371 132.945644,52.7878287 C132.740118,52.9073203 132.486274,52.9073203 132.280748,52.7878287 C132.075222,52.6683371 131.949634,52.4477377 131.951793,52.2100099 C131.949634,51.9722821 132.075222,51.7516827 132.280748,51.6321911 C132.486274,51.5126995 132.740118,51.5126995 132.945644,51.6321911 C133.15117,51.7516827 133.276758,51.9722821 133.274599,52.2100099 L133.274599,52.2100099 Z" id="c3" stroke="#000000" stroke-width="0.5" fill="#FFFFFF"></path>
        <path d="M145.333825,58.8583176 C145.335984,59.0960454 145.210395,59.3166448 145.004869,59.4361364 C144.799343,59.555628 144.5455,59.555628 144.339974,59.4361364 C144.134448,59.3166448 144.00886,59.0960454 144.011019,58.8583176 C144.00886,58.6205898 144.134448,58.3999904 144.339974,58.2804988 C144.5455,58.1610072 144.799343,58.1610072 145.004869,58.2804988 C145.210395,58.3999904 145.335984,58.6205898 145.333825,58.8583176 L145.333825,58.8583176 Z" id="c3" stroke="#000000" stroke-width="0.5" fill="#FFFFFF" transform="translate(144.672422, 58.858318) scale(-1, 1) translate(-144.672422, -58.858318) "></path>
        <path d="M146.182203,57.3497613 C146.184363,57.5874891 146.058774,57.8080885 145.853248,57.9275801 C145.647722,58.0470717 145.393879,58.0470717 145.188353,57.9275801 C144.982827,57.8080885 144.857239,57.5874891 144.859398,57.3497613 C144.857239,57.1120334 144.982827,56.8914341 145.188353,56.7719425 C145.393879,56.6524508 145.647722,56.6524508 145.853248,56.7719425 C146.058774,56.8914341 146.184363,57.1120334 146.182203,57.3497613 L146.182203,57.3497613 Z" id="c3" stroke="#000000" stroke-width="0.5" fill="#FFFFFF" transform="translate(145.520801, 57.349761) scale(-1, 1) translate(-145.520801, -57.349761) "></path>
        <path d="M146.359034,55.5815008 C146.361193,55.8192287 146.235604,56.039828 146.030078,56.1593196 C145.824552,56.2788113 145.570709,56.2788113 145.365183,56.1593196 C145.159657,56.039828 145.034069,55.8192287 145.036228,55.5815008 C145.034069,55.343773 145.159657,55.1231736 145.365183,55.003682 C145.570709,54.8841904 145.824552,54.8841904 146.030078,55.003682 C146.235604,55.1231736 146.361193,55.343773 146.359034,55.5815008 L146.359034,55.5815008 Z" id="c3" stroke="#000000" stroke-width="0.5" fill="#FFFFFF" transform="translate(145.697631, 55.581501) scale(-1, 1) translate(-145.697631, -55.581501) "></path>
        <path d="M145.828551,53.9311189 C145.830711,54.1688468 145.705122,54.3894461 145.499596,54.5089377 C145.29407,54.6284293 145.040227,54.6284293 144.834701,54.5089377 C144.629175,54.3894461 144.503586,54.1688468 144.505746,53.9311189 C144.503586,53.6933911 144.629175,53.4727917 144.834701,53.3533001 C145.040227,53.2338085 145.29407,53.2338085 145.499596,53.3533001 C145.705122,53.4727917 145.830711,53.6933911 145.828551,53.9311189 L145.828551,53.9311189 Z" id="c3" stroke="#000000" stroke-width="0.5" fill="#FFFFFF" transform="translate(145.167148, 53.931119) scale(-1, 1) translate(-145.167148, -53.931119) "></path>
        <path d="M144.708652,52.5754457 C144.710811,52.8131735 144.585223,53.0337729 144.379697,53.1532645 C144.174171,53.2727561 143.920327,53.2727561 143.714801,53.1532645 C143.509275,53.0337729 143.383687,52.8131735 143.385846,52.5754457 C143.383687,52.3377179 143.509275,52.1171185 143.714801,51.9976269 C143.920327,51.8781353 144.174171,51.8781353 144.379697,51.9976269 C144.585223,52.1171185 144.710811,52.3377179 144.708652,52.5754457 L144.708652,52.5754457 Z" id="c3" stroke="#000000" stroke-width="0.5" fill="#FFFFFF" transform="translate(144.047249, 52.575446) scale(-1, 1) translate(-144.047249, -52.575446) "></path>
        <path d="M143.176148,51.6323762 C143.178307,51.8701041 143.052719,52.0907034 142.847193,52.210195 C142.641667,52.3296867 142.387824,52.3296867 142.182298,52.210195 C141.976772,52.0907034 141.851183,51.8701041 141.853343,51.6323762 C141.851183,51.3946484 141.976772,51.174049 142.182298,51.0545574 C142.387824,50.9350658 142.641667,50.9350658 142.847193,51.0545574 C143.052719,51.174049 143.178307,51.3946484 143.176148,51.6323762 L143.176148,51.6323762 Z" id="c3" stroke="#000000" stroke-width="0.5" fill="#FFFFFF" transform="translate(142.514745, 51.632376) scale(-1, 1) translate(-142.514745, -51.632376) "></path>
        <path d="M141.466823,51.7502548 C141.468982,51.9879826 141.343394,52.208582 141.137868,52.3280736 C140.932342,52.4475652 140.678498,52.4475652 140.472972,52.3280736 C140.267446,52.208582 140.141858,51.9879826 140.144017,51.7502548 C140.141858,51.5125269 140.267446,51.2919276 140.472972,51.1724359 C140.678498,51.0529443 140.932342,51.0529443 141.137868,51.1724359 C141.343394,51.2919276 141.468982,51.5125269 141.466823,51.7502548 L141.466823,51.7502548 Z" id="c3" stroke="#000000" stroke-width="0.5" fill="#FFFFFF" transform="translate(140.805420, 51.750255) scale(-1, 1) translate(-140.805420, -51.750255) "></path>
        <path d="M139.757506,52.0331797 C139.759665,52.2709076 139.634077,52.4915069 139.428551,52.6109985 C139.223025,52.7304901 138.969181,52.7304901 138.763655,52.6109985 C138.558129,52.4915069 138.432541,52.2709076 138.4347,52.0331797 C138.432541,51.7954519 138.558129,51.5748525 138.763655,51.4553609 C138.969181,51.3358693 139.223025,51.3358693 139.428551,51.4553609 C139.634077,51.5748525 139.759665,51.7954519 139.757506,52.0331797 L139.757506,52.0331797 Z" id="c3" stroke="#000000" stroke-width="0.5" fill="#FFFFFF" transform="translate(139.096103, 52.033180) scale(-1, 1) translate(-139.096103, -52.033180) "></path>
        <path d="M138.048181,52.2100099 C138.05034,52.4477377 137.924752,52.6683371 137.719226,52.7878287 C137.5137,52.9073203 137.259856,52.9073203 137.05433,52.7878287 C136.848804,52.6683371 136.723216,52.4477377 136.725375,52.2100099 C136.723216,51.9722821 136.848804,51.7516827 137.05433,51.6321911 C137.259856,51.5126995 137.5137,51.5126995 137.719226,51.6321911 C137.924752,51.7516827 138.05034,51.9722821 138.048181,52.2100099 L138.048181,52.2100099 Z" id="c3" stroke="#000000" stroke-width="0.5" fill="#FFFFFF" transform="translate(137.386778, 52.210010) scale(-1, 1) translate(-137.386778, -52.210010) "></path>
        <path d="M135.74835,57.3729739 C135.750509,57.6107017 135.624921,57.8313011 135.419395,57.9507927 C135.213869,58.0702843 134.960025,58.0702843 134.754499,57.9507927 C134.548973,57.8313011 134.423385,57.6107017 134.425544,57.3729739 C134.423385,57.1352461 134.548973,56.9146467 134.754499,56.7951551 C134.960025,56.6756635 135.213869,56.6756635 135.419395,56.7951551 C135.624921,56.9146467 135.750509,57.1352461 135.74835,57.3729739 L135.74835,57.3729739 Z" id="c3" stroke="#000000" stroke-width="0.5" fill="#FFFFFF"></path>
        <path d="M135.74835,56.1944939 C135.750509,56.4322218 135.624921,56.6528211 135.419395,56.7723127 C135.213869,56.8918044 134.960025,56.8918044 134.754499,56.7723127 C134.548973,56.6528211 134.423385,56.4322218 134.425544,56.1944939 C134.423385,55.9567661 134.548973,55.7361667 134.754499,55.6166751 C134.960025,55.4971835 135.213869,55.4971835 135.419395,55.6166751 C135.624921,55.7361667 135.750509,55.9567661 135.74835,56.1944939 L135.74835,56.1944939 Z" id="c3" stroke="#000000" stroke-width="0.5" fill="#FFFFFF"></path>
        <path d="M135.74835,55.2514244 C135.750509,55.4891523 135.624921,55.7097517 135.419395,55.8292433 C135.213869,55.9487349 134.960025,55.9487349 134.754499,55.8292433 C134.548973,55.7097517 134.423385,55.4891523 134.425544,55.2514244 C134.423385,55.0136966 134.548973,54.7930972 134.754499,54.6736056 C134.960025,54.554114 135.213869,54.554114 135.419395,54.6736056 C135.624921,54.7930972 135.750509,55.0136966 135.74835,55.2514244 L135.74835,55.2514244 Z" id="c3" stroke="#000000" stroke-width="0.5" fill="#FFFFFF"></path>
        <path d="M135.74835,54.3908658 C135.750509,54.6285936 135.624921,54.849193 135.419395,54.9686846 C135.213869,55.0881762 134.960025,55.0881762 134.754499,54.9686846 C134.548973,54.849193 134.423385,54.6285936 134.425544,54.3908658 C134.423385,54.153138 134.548973,53.9325386 134.754499,53.813047 C134.960025,53.6935554 135.213869,53.6935554 135.419395,53.813047 C135.624921,53.9325386 135.750509,54.153138 135.74835,54.3908658 L135.74835,54.3908658 Z" id="c3" stroke="#000000" stroke-width="0.5" fill="#FFFFFF"></path>
        <path d="M135.74835,51.6323762 C135.750509,51.8701041 135.624921,52.0907034 135.419395,52.210195 C135.213869,52.3296867 134.960025,52.3296867 134.754499,52.210195 C134.548973,52.0907034 134.423385,51.8701041 134.425544,51.6323762 C134.423385,51.3946484 134.548973,51.174049 134.754499,51.0545574 C134.960025,50.9350658 135.213869,50.9350658 135.419395,51.0545574 C135.624921,51.174049 135.750509,51.3946484 135.74835,51.6323762 L135.74835,51.6323762 Z" id="c3" stroke="#000000" stroke-width="0.5" fill="#FFFFFF"></path>
        <path d="M135.74835,51.7502548 C135.750509,51.9879826 135.624921,52.208582 135.419395,52.3280736 C135.213869,52.4475652 134.960025,52.4475652 134.754499,52.3280736 C134.548973,52.208582 134.423385,51.9879826 134.425544,51.7502548 C134.423385,51.5125269 134.548973,51.2919276 134.754499,51.1724359 C134.960025,51.0529443 135.213869,51.0529443 135.419395,51.1724359 C135.624921,51.2919276 135.750509,51.5125269 135.74835,51.7502548 L135.74835,51.7502548 Z" id="c3" stroke="#000000" stroke-width="0.5" fill="#FFFFFF"></path>
        <path d="M135.74835,52.3632561 C135.750509,52.6009839 135.624921,52.8215833 135.419395,52.9410749 C135.213869,53.0605665 134.960025,53.0605665 134.754499,52.9410749 C134.548973,52.8215833 134.423385,52.6009839 134.425544,52.3632561 C134.423385,52.1255283 134.548973,51.9049289 134.754499,51.7854373 C134.960025,51.6659457 135.213869,51.6659457 135.419395,51.7854373 C135.624921,51.9049289 135.750509,52.1255283 135.74835,52.3632561 L135.74835,52.3632561 Z" id="c3" stroke="#000000" stroke-width="0.5" fill="#FFFFFF"></path>
        <path d="M135.74835,53.200239 C135.750509,53.4379669 135.624921,53.6585662 135.419395,53.7780579 C135.213869,53.8975495 134.960025,53.8975495 134.754499,53.7780579 C134.548973,53.6585662 134.423385,53.4379669 134.425544,53.200239 C134.423385,52.9625112 134.548973,52.7419118 134.754499,52.6224202 C134.960025,52.5029286 135.213869,52.5029286 135.419395,52.6224202 C135.624921,52.7419118 135.750509,52.9625112 135.74835,53.200239 L135.74835,53.200239 Z" id="c3" stroke="#000000" stroke-width="0.5" fill="#FFFFFF"></path>
        <path d="M135.935144,60.2202981 C135.935144,60.6923084 135.552504,61.0749483 135.080494,61.0749483 C134.608483,61.0749483 134.225843,60.6923084 134.225843,60.2202981 C134.225843,59.7482878 134.608483,59.3656478 135.080494,59.3656478 C135.552504,59.3656478 135.935144,59.7482878 135.935144,60.2202981 L135.935144,60.2202981 Z" id="circle1" stroke="#000000" stroke-width="0.5" fill="#FFFFFF"></path>
        <path d="M127.001861,61.7704779 C127.001861,62.2424882 126.619221,62.6251281 126.14721,62.6251281 C125.6752,62.6251281 125.29256,62.2424882 125.29256,61.7704779 C125.29256,61.2984676 125.6752,60.9158276 126.14721,60.9158276 C126.619221,60.9158276 127.001861,61.2984676 127.001861,61.7704779 L127.001861,61.7704779 Z" id="circle1" stroke="#000000" stroke-width="0.5" fill="#FFFFFF"></path>
        <path d="M144.825985,61.7704779 C144.825985,62.2424882 144.443345,62.6251281 143.971335,62.6251281 C143.499325,62.6251281 143.116685,62.2424882 143.116685,61.7704779 C143.116685,61.2984676 143.499325,60.9158276 143.971335,60.9158276 C144.443345,60.9158276 144.825985,61.2984676 144.825985,61.7704779 L144.825985,61.7704779 Z" id="circle1" stroke="#000000" stroke-width="0.5" fill="#FFFFFF"></path>
        <rect id="Rectangle-path" stroke="#000000" stroke-width="0.5" fill="#002B7F" x="133.844103" y="63.1214652" width="2.64190852" height="1.15162648"></rect>
        <path d="M140.42785,64.0944261 C140.42785,64.4384667 139.894512,64.7173668 139.236607,64.7173668 C138.578702,64.7173668 138.045365,64.4384667 138.045365,64.0944261 C138.045365,63.8718708 138.272415,63.6662212 138.640986,63.5549436 C139.009558,63.4436659 139.463657,63.4436659 139.832229,63.5549436 C140.2008,63.6662212 140.42785,63.8718708 140.42785,64.0944261 L140.42785,64.0944261 Z" id="Shape" stroke="#000000" stroke-width="0.5" fill="#3E8225" transform="translate(139.236607, 64.094426) rotate(185.795279) translate(-139.236607, -64.094426) "></path>
        <polygon id="Shape" stroke="#000000" stroke-width="0.5" fill="#CC0000" points="126.407208 64.5798273 125.745325 65.2417104 126.513 65.6849419 128.298466 65.2065985 127.980254 64.1954958"></polygon>
        <polygon id="Shape" stroke="#000000" stroke-width="0.5" fill="#CC0000" points="143.922829 64.5798273 144.584788 65.2417104 143.817037 65.6849419 142.031572 65.2065985 142.349783 64.1954958"></polygon>
        <path d="M132.28468,64.0944261 C132.28468,64.4384667 131.751343,64.7173668 131.093438,64.7173668 C130.435533,64.7173668 129.902195,64.4384667 129.902195,64.0944261 C129.902195,63.8718708 130.129245,63.6662212 130.497817,63.5549436 C130.866388,63.4436659 131.320487,63.4436659 131.689059,63.5549436 C132.057631,63.6662212 132.28468,63.8718708 132.28468,64.0944261 L132.28468,64.0944261 Z" id="Shape" stroke="#000000" stroke-width="0.5" fill="#3E8225" transform="translate(131.093438, 64.094426) rotate(-5.795279) translate(-131.093438, -64.094426) "></path>
        <path d="M133.272699,63.2075021 C133.272699,63.3870651 133.127134,63.5326296 132.947571,63.5326296 C132.768008,63.5326296 132.622443,63.3870651 132.622443,63.2075021 C132.622443,63.0913452 132.684412,62.9840118 132.785007,62.9259333 C132.885602,62.8678549 133.00954,62.8678549 133.110135,62.9259333 C133.21073,62.9840118 133.272699,63.0913452 133.272699,63.2075021 L133.272699,63.2075021 Z" id="c2" stroke="#000000" stroke-width="0.5" fill="#FFFFFF"></path>
        <path d="M133.374303,64.2438637 C133.374303,64.4234267 133.228738,64.5689912 133.049175,64.5689912 C132.869612,64.5689912 132.724048,64.4234267 132.724048,64.2438637 C132.724048,64.1277068 132.786017,64.0203734 132.886611,63.9622949 C132.987206,63.9042165 133.111144,63.9042165 133.211739,63.9622949 C133.312334,64.0203734 133.374303,64.1277068 133.374303,64.2438637 L133.374303,64.2438637 Z" id="c2" stroke="#000000" stroke-width="0.5" fill="#FFFFFF"></path>
        <path d="M129.208533,63.9390515 C129.208533,64.1186145 129.062968,64.2641791 128.883405,64.2641791 C128.703842,64.2641791 128.558278,64.1186145 128.558278,63.9390515 C128.558278,63.8228946 128.620247,63.7155612 128.720841,63.6574827 C128.821436,63.5994043 128.945374,63.5994043 129.045969,63.6574827 C129.146564,63.7155612 129.208533,63.8228946 129.208533,63.9390515 L129.208533,63.9390515 Z" id="c2" stroke="#000000" stroke-width="0.5" fill="#FFFFFF"></path>
        <path d="M129.61495,64.9144518 C129.61495,65.0940148 129.469385,65.2395794 129.289822,65.2395794 C129.110259,65.2395794 128.964695,65.0940148 128.964695,64.9144518 C128.964695,64.7982949 129.026664,64.6909615 129.127258,64.6328831 C129.227853,64.5748046 129.351791,64.5748046 129.452386,64.6328831 C129.552981,64.6909615 129.61495,64.7982949 129.61495,64.9144518 L129.61495,64.9144518 Z" id="c2" stroke="#000000" stroke-width="0.5" fill="#FFFFFF"></path>
        <path d="M137.692494,63.2075014 C137.692494,63.3870644 137.54693,63.532629 137.367367,63.532629 C137.187804,63.532629 137.042239,63.3870644 137.042239,63.2075014 C137.042239,63.0913446 137.104208,62.9840112 137.204803,62.9259327 C137.305398,62.8678543 137.429336,62.8678543 137.52993,62.9259327 C137.630525,62.9840112 137.692494,63.0913446 137.692494,63.2075014 L137.692494,63.2075014 Z" id="c2" stroke="#000000" stroke-width="0.5" fill="#FFFFFF" transform="translate(137.367367, 63.207501) scale(-1, 1) translate(-137.367367, -63.207501) "></path>
        <path d="M137.59089,64.2438629 C137.59089,64.4234259 137.445325,64.5689905 137.265762,64.5689905 C137.086199,64.5689905 136.940635,64.4234259 136.940635,64.2438629 C136.940635,64.127706 137.002604,64.0203726 137.103199,63.9622942 C137.203793,63.9042157 137.327731,63.9042157 137.428326,63.9622942 C137.528921,64.0203726 137.59089,64.127706 137.59089,64.2438629 L137.59089,64.2438629 Z" id="c2" stroke="#000000" stroke-width="0.5" fill="#FFFFFF" transform="translate(137.265762, 64.243863) scale(-1, 1) translate(-137.265762, -64.243863) "></path>
        <path d="M141.756657,63.9390509 C141.756657,64.1186139 141.611093,64.2641784 141.43153,64.2641784 C141.251967,64.2641784 141.106402,64.1186139 141.106402,63.9390509 C141.106402,63.822894 141.168371,63.7155606 141.268966,63.6574821 C141.369561,63.5994037 141.493499,63.5994037 141.594094,63.6574821 C141.694688,63.7155606 141.756657,63.822894 141.756657,63.9390509 L141.756657,63.9390509 Z" id="c2" stroke="#000000" stroke-width="0.5" fill="#FFFFFF" transform="translate(141.431530, 63.939051) scale(-1, 1) translate(-141.431530, -63.939051) "></path>
        <path d="M141.35024,64.9144511 C141.35024,65.0940141 141.204676,65.2395786 141.025113,65.2395786 C140.84555,65.2395786 140.699985,65.0940141 140.699985,64.9144511 C140.699985,64.7982942 140.761954,64.6909608 140.862549,64.6328823 C140.963144,64.5748039 141.087082,64.5748039 141.187676,64.6328823 C141.288271,64.6909608 141.35024,64.7982942 141.35024,64.9144511 L141.35024,64.9144511 Z" id="c2" stroke="#000000" stroke-width="0.5" fill="#FFFFFF" transform="translate(141.025113, 64.914451) scale(-1, 1) translate(-141.025113, -64.914451) "></path>
        <path d="M141.728864,68.4799902 C141.977156,68.4368982 143.475114,68.0807627 143.790513,67.890231 C143.586986,67.5233034 143.22173,67.2362518 143.50597,67.3568637 C143.659034,67.4218436 143.780101,66.9161402 143.335806,66.5296047 C142.04586,66.9526962 138.952132,67.7257672 135.064813,67.7257672 C131.086674,67.7257672 127.95411,66.9120362 126.664164,66.4890208 C126.219869,66.8755563 126.358264,67.3146837 126.331436,67.4787675 C126.331208,67.4800595 126.331664,67.6858672 126.41268,67.849571 C126.849984,68.3246464 128.266622,68.5588021 128.51499,68.60197 C129.68174,68.8045857 130.848566,69.1109413 135.062229,69.1109413 C138.960188,69.1109413 140.562038,68.6826819 141.728864,68.4799902 L141.728864,68.4799902 Z" id="Shape" stroke="#000000" stroke-width="0.5" fill="#FFFFFF"></path>
        <path d="M128.385366,65.8038267 C128.137066,65.8469842 126.557816,66.4062986 126.24251,66.5968352 C126.242758,66.5979905 126.242262,66.6005486 126.24251,66.6018689 C126.269329,66.7659168 125.968382,67.5302912 126.412664,67.9168106 C127.702603,67.4937352 131.324614,66.232926 135.212006,66.232926 C139.190169,66.232926 142.485239,67.4937352 143.775177,67.9168106 C144.21946,67.5302912 143.918513,66.7659168 143.945414,66.6018689 C143.945662,66.6005486 143.945084,66.5979905 143.945414,66.5968352 C143.630026,66.4062986 142.050776,65.8469842 141.802476,65.8038267 C140.635656,65.6012423 139.428236,64.8477605 135.214564,64.8477605 C131.316609,64.8477605 129.552186,65.6012423 128.385366,65.8038267 L128.385366,65.8038267 Z" id="Shape" stroke="#000000" stroke-width="0.5" fill="#FFFFFF"></path>
        <path id="a1" stroke="#000000" stroke-width="0.5" fill="#000000" transform="translate(127.147829, 66.762187) rotate(-5.907343) translate(-127.147829, -66.762187) "></path>
        <path id="a1" stroke="#000000" stroke-width="0.5" fill="#000000" transform="translate(127.021205, 67.030286) rotate(-5.907343) translate(-127.021205, -67.030286) "></path>
        <path id="a1" stroke="#000000" stroke-width="0.5" fill="#000000" transform="translate(127.252426, 67.176382) rotate(-5.907343) translate(-127.252426, -67.176382) "></path>
        <polygon id="Shape" stroke="#000000" stroke-width="0.5" fill="#000000" transform="translate(127.630750, 66.799002) rotate(-5.907343) translate(-127.630750, -66.799002) " points="127.140577 67.0231646 128.119775 66.6012563 127.639134 66.9200196 127.947617 66.9089588 127.661415 67.0646091 128.120923 67.1012563"></polygon>
        <path id="a1" stroke="#000000" stroke-width="0.5" fill="#000000" transform="translate(130.580202, 65.779940) rotate(-5.907343) translate(-130.580202, -65.779940) "></path>
        <path id="a1" stroke="#000000" stroke-width="0.5" fill="#000000" transform="translate(130.453578, 66.048039) rotate(-5.907343) translate(-130.453578, -66.048039) "></path>
        <path id="a1" stroke="#000000" stroke-width="0.5" fill="#000000" transform="translate(130.684799, 66.194135) rotate(-5.907343) translate(-130.684799, -66.194135) "></path>
        <polygon id="Shape" stroke="#000000" stroke-width="0.5" fill="#000000" transform="translate(131.063123, 65.816755) rotate(-5.907343) translate(-131.063123, -65.816755) " points="130.57295 66.0409175 131.552147 65.6190092 131.071507 65.9377725 131.37999 65.9267117 131.093787 66.0823621 131.553296 66.1190092"></polygon>
        <path id="a1" stroke="#000000" stroke-width="0.5" fill="#000000" transform="translate(134.840505, 65.294828) rotate(7.943661) translate(-134.840505, -65.294828) "></path>
        <path id="a1" stroke="#000000" stroke-width="0.5" fill="#000000" transform="translate(134.653381, 65.524818) rotate(7.943661) translate(-134.653381, -65.524818) "></path>
        <path id="a1" stroke="#000000" stroke-width="0.5" fill="#000000" transform="translate(134.842903, 65.722019) rotate(7.943661) translate(-134.842903, -65.722019) "></path>
        <polygon id="Shape" stroke="#000000" stroke-width="0.5" fill="#000000" transform="translate(135.300570, 65.446183) rotate(7.943661) translate(-135.300570, -65.446183) " points="134.810397 65.6703455 135.789595 65.2484372 135.308954 65.5672005 135.617437 65.5561398 135.331234 65.7117901 135.790743 65.7484372"></polygon>
        <path id="a1" stroke="#000000" stroke-width="0.5" fill="#000000" transform="translate(138.830078, 65.708846) rotate(5.907343) translate(-138.830078, -65.708846) "></path>
        <path id="a1" stroke="#000000" stroke-width="0.5" fill="#000000" transform="translate(138.651245, 65.945340) rotate(5.907343) translate(-138.651245, -65.945340) "></path>
        <path id="a1" stroke="#000000" stroke-width="0.5" fill="#000000" transform="translate(138.847655, 66.135682) rotate(5.907343) translate(-138.847655, -66.135682) "></path>
        <polygon id="Shape" stroke="#000000" stroke-width="0.5" fill="#000000" transform="translate(139.295231, 65.843757) rotate(5.907343) translate(-139.295231, -65.843757) " points="138.805058 66.0679199 139.784256 65.6460116 139.303615 65.9647749 139.612098 65.9537142 139.325896 66.1093645 139.785404 66.1460116"></polygon>
        <path id="a1" stroke="#000000" stroke-width="0.5" fill="#000000" transform="translate(142.294111, 66.613470) rotate(5.907343) translate(-142.294111, -66.613470) "></path>
        <path id="a1" stroke="#000000" stroke-width="0.5" fill="#000000" transform="translate(142.115277, 66.849963) rotate(5.907343) translate(-142.115277, -66.849963) "></path>
        <path id="a1" stroke="#000000" stroke-width="0.5" fill="#000000" transform="translate(142.311688, 67.040305) rotate(5.907343) translate(-142.311688, -67.040305) "></path>
        <polygon id="Shape" stroke="#000000" stroke-width="0.5" fill="#000000" transform="translate(142.759264, 66.748381) rotate(5.907343) translate(-142.759264, -66.748381) " points="142.269091 66.9725438 143.248288 66.5506354 142.767648 66.8693988 143.076131 66.858338 142.789928 67.0139883 143.249437 67.0506354"></polygon>
    </g>
</svg>