<?xml version="1.0" ?><svg height="120px" version="1.1" viewBox="0 0 180 120" width="180px" xmlns="http://www.w3.org/2000/svg" xmlns:sketch="http://www.bohemiancoding.com/sketch/ns" xmlns:xlink="http://www.w3.org/1999/xlink"><title/><defs/><g fill="none" fill-rule="evenodd" id="Africa,-Middle-East-and-India" stroke="none" stroke-width="1"><g id="Africa,-Middle-Eest-and-India" transform="translate(-600.000000, -1001.000000)"><g id="Jordan" transform="translate(600.000000, 1001.000000)"><rect d="M-2.84217094e-14,0 L-2.84217094e-14,120 L180,120 L180,0 L-2.84217094e-14,0 Z M-2.84217094e-14,0" fill="#FFFFFF" height="120" id="Rectangle-3-copy-2" width="180" x="-2.84225816e-14" y="0"/><rect d="M0,120 L0,80 L180,80 L180,120 L0,120 Z M0,120" fill="#479951" height="40" id="Rectangle-3-copy-4" width="180" x="0" y="80"/><rect d="M0,0 L0,40 L180,40 L180,0 L0,0 Z M0,0" fill="#262626" height="40" id="Rectangle-3-copy-3" width="180" x="0" y="0"/><polygon d="M0,0 L90,60 L0,120 L0,0 Z M0,0" fill="#CA4638" id="Triangle-18-copy" points="0 0 90 60 0 120 "/><path d="M27.5,43 L30.9614368,54.0390701 L41.5339103,49.9321793 L35.2777777,59.5907837 L45,65.5086446 L33.7372934,66.5136572 L35.2882328,78 L27.5,69.5946257 L19.7117672,78 L21.2627066,66.5136572 L10,65.5086446 L19.7222223,59.5907837 L13.4660897,49.9321793 L24.0385632,54.0390701 L27.5,43 L27.5,43 Z M27.5,43" fill="#FFFFFF" id="Star7"/></g></g></g></svg>