<?xml version="1.0" ?><svg height="120px" version="1.1" viewBox="0 0 180 120" width="180px" xmlns="http://www.w3.org/2000/svg" xmlns:sketch="http://www.bohemiancoding.com/sketch/ns" xmlns:xlink="http://www.w3.org/1999/xlink"><title/><defs/><g fill="none" fill-rule="evenodd" id="Ameria" stroke="none" stroke-width="1"><g id="Group" transform="translate(-200.000000, -200.000000)"><g id="Jamaica" transform="translate(200.000000, 200.000000)"><rect d="M0,0 L0,120 L180,120 L180,0 L0,0 Z M0,0" fill="#E5B731" height="120" id="Rectangle-89" width="180" x="0" y="0"/><polygon d="M0,15.2207031 L74,60.1676491 L0,105.114595 L0,15.2207031 Z M0,15.2207031" fill="#262626" id="Triangle-39" points="0 15.2207031 74 60.1676491 0 105.114595 "/><polygon d="M13,0 L168,0 L90.5,47 L13,0 Z M13,0" fill="#479951" id="Triangle-39" points="13 0 168 0 90.5 47 "/><polygon d="M12,73 L167,73 L89.5,120 L12,73 Z M12,73" fill="#479951" id="Triangle-39" points="12 73 167 73 89.5 120 " transform="translate(89.500000, 96.500000) scale(1, -1) translate(-89.500000, -96.500000) "/><polygon d="M180.000012,16.8854048 L106.000012,61.8323509 L180.000012,106.779297 L180.000012,16.8854048 Z M180.000012,16.8854048" fill="#262626" id="Triangle-39" points="180.000012 16.8854048 106.000012 61.8323509 180.000012 106.779297 "/></g></g></g></svg>