<?xml version="1.0" ?><svg height="120px" version="1.1" viewBox="0 0 180 120" width="180px" xmlns="http://www.w3.org/2000/svg" xmlns:sketch="http://www.bohemiancoding.com/sketch/ns" xmlns:xlink="http://www.w3.org/1999/xlink"><title/><defs/><g fill="none" fill-rule="evenodd" id="Asia-Pacific" stroke="none" stroke-width="1"><g id="Nepal" transform="translate(-400.000000, -401.000000)"><g transform="translate(400.000000, 401.000000)"><rect d="M0,0 L0,120 L180,120 L180,0 L0,0 Z M0,0" fill="#FFFFFF" height="120" id="Rectangle-131" width="180" x="0" y="0"/><polygon d="M0,0 L5.22654352,0 L91.7871094,62.6666667 L47.9289518,62.6666667 L79.5695774,120 L0,120 L0,0 Z M0,0" fill="#346DA6" id="1024-copy-2" points="0 0 5.22654352 0 91.7871094 62.6666667 47.9289518 62.6666667 79.5695774 120 0 120 "/><polygon d="M0,0 L82.7604645,60 L42.5370091,60 L75.8998642,120 L0,120 L0,0 Z M0,0" fill="#CA4638" id="1024-copy-3" points="0 0 82.7604645 60 42.5370091 60 75.8998642 120 0 120 "/><path d="M39.5400478,35.6302015 C39.5747898,36.0559083 39.5924986,36.4863799 39.5924986,36.9209473 C39.5924986,45.6509627 32.445813,52.7280377 23.6299286,52.7280377 C14.8140442,52.7280377 7.6673586,45.6509627 7.6673586,36.9209473 C7.6673586,35.9460228 7.75648711,34.9917126 7.92711546,34.065571 C8.590304,42.1918773 15.4601922,48.5819157 23.8372347,48.5819157 C31.6686051,48.5819157 38.1827752,42.9972451 39.5400478,35.6302015 Z M39.5400478,35.6302015" fill="#FFFFFF" id="Oval-148-copy"/><path d="M20.6587387,74.6859863 L23.6032105,65.2636763 L26.5476824,74.6859863 L33.8088249,67.9982624 L31.6476573,77.6304582 L41.2798531,75.4692907 L34.5921292,82.7304331 L34.5921292,82.7304331 L44.0144392,85.674905 L34.5921292,88.6193768 L41.2798531,95.8805193 L31.6476573,93.7193517 L31.6476573,93.7193517 L33.8088249,103.351547 L26.5476824,96.6638236 L23.6032105,106.086134 L20.6587387,96.6638236 L20.6587387,96.6638236 L13.3975962,103.351547 L15.5587638,93.7193517 L5.92656802,95.8805193 L12.6142919,88.6193768 L12.6142919,88.6193768 L3.19198191,85.674905 L12.6142919,82.7304331 L5.92656802,75.4692907 L15.5587638,77.6304582 L13.3975962,67.9982624 L20.6587387,74.6859863 L20.6587387,74.6859863 Z M20.6587387,74.6859863" fill="#FFFFFF" id="Triangle"/><path d="M27.9395796,38.5472954 L28.2214869,38.4581148 L28.2214869,38.4581148 L28.140136,38.7152717 C28.0744238,38.6580183 28.0075588,38.6020135 27.9395796,38.5472954 Z M19.246604,38.7152717 L19.1652531,38.4581148 L19.4471605,38.5472954 C19.3791813,38.6020135 19.3123163,38.6580183 19.246604,38.7152717 Z M22.0082282,37.2679213 L23.69337,31.8754673 L25.3785119,37.2679213 C25.4052369,37.2747183 25.4318971,37.2816732 25.4584916,37.2887849 L25.2563515,36.3728581 L29.2487522,33.3640275 L28.6792237,38.000378 L33.3155742,37.4308495 L30.5041728,41.1612826 L34.8041344,42.9862317 L30.5041728,44.8111808 L33.3155742,48.5416139 L29.1422738,48.0289663 L29.1422738,48.0289663 L28.719499,51.0236114 L25.87507,49.8764507 C25.5767312,49.9772671 25.268875,50.0579825 24.953177,50.1169504 L23.69337,52.522062 L22.4335631,50.1169504 C22.1167179,50.0577682 21.8077714,49.9766802 21.5084179,49.8753508 L18.6612617,51.0236114 L18.2385888,48.0296883 L14.0711658,48.5416139 L16.8825673,44.8111808 L16.8825673,44.8111808 L12.5826057,42.9862317 L16.8825673,41.1612826 L14.0711658,37.4308495 L18.7075164,38.000378 L18.1379879,33.3640275 L22.1303886,36.3728581 L21.9282485,37.2887849 C21.954843,37.2816732 21.9815032,37.2747183 22.0082282,37.2679213 Z M22.0082282,37.2679213" fill="#FFFFFF" id="Triangle-copy"/></g></g></g></svg>