<?xml version="1.0" ?><svg height="120px" version="1.1" viewBox="0 0 180 120" width="180px" xmlns="http://www.w3.org/2000/svg" xmlns:sketch="http://www.bohemiancoding.com/sketch/ns" xmlns:xlink="http://www.w3.org/1999/xlink"><title/><defs/><g fill="none" fill-rule="evenodd" id="Page-1" stroke="none" stroke-width="1"><g id="rectangle_nauru"><rect fill="#346DA6" height="120" id="rect962-copy" width="180" x="0" y="0"/><rect fill="#E5B731" height="10" id="rect962-copy" width="180" x="0" y="55"/><polygon fill="#FFFFFF" id="Star-1" points="36.4999996 95.6675919 32.6536328 104.59573 32.771204 94.8750117 25.6259737 101.466815 29.6871519 92.6343167 20.4785305 95.7500007 27.7811021 89.332942 18.101345 88.4337772 27.3826291 85.541726 18.9054543 80.783186 28.5606325 81.9162042 22.7518206 74.1210839 31.1114264 79.0832611 28.9753802 69.5994054 34.5939527 77.5327415 36.5000002 68 38.4060518 77.5327425 44.0246364 69.5994128 41.8885773 79.0832638 50.2481797 74.1210843 44.4393687 81.9162063 54.0945485 80.7831948 45.6173711 85.5417284 54.898655 88.4337776 45.2188971 89.3329443 52.5214649 95.7500088 43.3128465 92.6343184 47.3740259 101.466815 40.2287928 94.8750131 40.346356 104.595733 "/></g></g></svg>