<?xml version="1.0" ?><svg height="120px" version="1.1" viewBox="0 0 180 120" width="180px" xmlns="http://www.w3.org/2000/svg" xmlns:sketch="http://www.bohemiancoding.com/sketch/ns" xmlns:xlink="http://www.w3.org/1999/xlink"><title/><defs/><g fill="none" fill-rule="evenodd" id="Page-1" stroke="none" stroke-width="1"><g id="rectangle_marshall_islands"><rect fill="#346DA6" height="120" id="rect962-copy" width="180" x="0" y="0"/><path d="M180,48.5950413 L180,0 L0,116.033058 L0,120 L180,48.5950413 Z" fill="#FFFFFF" id="Shape"/><path d="M180,25.1246261 L180,0 L0,115.84668 L0,120 L180,25.1246261 Z" fill="#D97B16" id="Shape"/><path d="M35,81 L33.72,59.712 L29.256,71.44 L31.248,59.056 L23.896,69.224 L29.032,57.776 L19.304,65.696 L27.224,55.968 L15.776,61.096 L25.944,53.752 L13.552,55.744 L25.28,51.28 L4,50 L25.28,48.72 L13.552,44.256 L25.944,46.248 L15.776,38.896 L27.224,44.032 L19.304,34.304 L29.032,42.224 L23.896,30.776 L31.248,40.944 L29.256,28.56 L33.72,40.28 L35,19 L36.28,40.28 L40.744,28.56 L38.752,40.944 L46.096,30.776 L40.96,42.224 L50.696,34.304 L42.776,44.032 L54.224,38.896 L44.056,46.248 L56.44,44.256 L44.712,48.72 L66,50 L44.712,51.28 L56.44,55.744 L44.056,53.752 L54.224,61.096 L42.776,55.968 L50.696,65.696 L40.96,57.776 L46.096,69.224 L38.752,59.056 L40.744,71.44 L36.28,59.712 L35,81 L35,81 Z" fill="#FFFFFF" id="Shape"/></g></g></svg>