<?xml version="1.0" ?><svg height="120px" version="1.1" viewBox="0 0 180 120" width="180px" xmlns="http://www.w3.org/2000/svg" xmlns:sketch="http://www.bohemiancoding.com/sketch/ns" xmlns:xlink="http://www.w3.org/1999/xlink"><title/><defs/><g fill="none" fill-rule="evenodd" id="Asia-Pacific" stroke="none" stroke-width="1"><g id="Macau" transform="translate(0.000000, -801.000000)"><g transform="translate(0.000000, 801.000000)"><rect d="M0,0 L0,120 L180,120 L180,0 L0,0 Z M0,0" fill="#479951" height="120" id="Rectangle-126" width="180" x="0" y="0"/><g id="macau" transform="translate(59.295652, 25.000000)"><path d="M30.8504348,0 L29.3487803,4.6442576 L24.4807849,4.6442576 L28.4184239,7.51481887 L26.9147826,12.1570858 L30.8504348,9.29050587 L34.786087,12.1570858 L33.2824457,7.51481887 L37.2200847,4.6442576 L32.3520892,4.6442576 L30.8504348,0 L30.8504348,0 L30.8504348,0 L30.8504348,0 Z M11.6442935,8.14785527 L12.6301934,11.3787297 L9.87086957,13.3156618 L13.2371979,13.3753823 L14.221111,16.6062567 L15.3180978,13.4112145 L18.6844325,13.4689442 L15.9965217,11.4364594 L17.0915217,8.24141725 L14.3321979,10.1803401 L11.6442935,8.14785527 L11.6442935,8.14785527 L11.6442935,8.14785527 L11.6442935,8.14785527 Z M50.0565761,8.14785527 L47.3686717,10.1803401 L44.6093478,8.24141725 L45.7043478,11.4364594 L43.016437,13.4689442 L46.3827717,13.4112145 L47.4797586,16.6062567 L48.4636717,13.3753823 L51.83,13.3156618 L49.0706762,11.3787297 L50.0565761,8.14785527 L50.0565761,8.14785527 L50.0565761,8.14785527 L50.0565761,8.14785527 Z M5.26671513,18.8218841 L3.84440217,21.8835507 L0.503858696,21.4714798 L2.96562817,23.7746972 L1.54331522,26.8383544 L4.48711957,25.2000244 L6.94888904,27.5032417 L6.30815217,24.186768 L9.249976,22.548438 L5.90943252,22.1383578 L5.26671513,18.8218841 L5.26671513,18.8218841 L5.26671513,18.8218841 L5.26671513,18.8218841 Z M56.4341544,18.8218841 L55.791437,22.1383578 L52.4508936,22.548438 L55.3927174,24.186768 L54.7519805,27.5032417 L57.21375,25.2000244 L60.1575543,26.8383544 L58.7352414,23.7746972 L61.1970109,21.4714798 L57.8564674,21.8835507 L56.4341544,18.8218841 L56.4341544,18.8218841 L56.4341544,18.8218841 L56.4341544,18.8218841 Z M56.4341544,18.8218841" fill="#FBD116" id="path3370"/><path d="M30.8504348,16.0787264 C26.4784584,19.8701854 23.7091304,25.474193 23.7091304,31.7234844 C23.7091304,35.9740383 24.9897409,39.9253524 27.1845652,43.2117047 C24.489145,39.7175304 22.883913,35.3344622 22.883913,30.5768524 C22.883913,27.4166455 23.5925082,24.4215581 24.8576934,21.7422124 C23.9839088,20.8155516 23.320161,19.6873116 22.9454108,18.4337014 C21.2497922,21.4369299 20.2813043,24.9060993 20.2813043,28.6020974 C20.2813043,33.1994787 21.779531,37.4468176 24.3121739,40.8806147 C19.9015012,36.2405627 13.681933,33.347879 6.79217391,33.3478797 C6.421956,33.3478797 6.05340757,33.3572349 5.68725861,33.3737585 C6.3805047,34.0221783 6.96242896,34.7884635 7.40117165,35.6411436 C14.2545005,35.6516302 20.4415108,38.5256466 24.8418238,43.1320775 C20.6393852,39.6096751 15.2306248,37.4884945 9.33130435,37.4884951 C6.03446565,37.4884951 2.8912818,38.1507464 0.0257880435,39.3497814 C2.96990026,47.1567111 10.4906269,52.7132195 19.2973913,52.7132195 C19.8676419,52.7132195 20.4329476,52.6874649 20.9914674,52.641555 C19.8030909,52.8558478 18.579084,52.9680266 17.3295652,52.9680266 C11.773167,52.9680266 6.72953991,50.7562755 3.02315217,47.1632023 C2.2516266,47.4611037 1.42420588,47.6471192 0.56138587,47.6986922 C4.33644757,51.9836813 9.85328609,54.6879746 15.9965217,54.6879746 C21.831672,54.6879746 27.1016817,52.2486998 30.8504348,48.3317349 C34.5991879,52.2486998 39.8692039,54.6879746 45.7043478,54.6879746 C51.8475898,54.6879746 57.364422,51.9836813 61.1394805,47.6986922 C60.2766713,47.6471192 59.4492512,47.4611037 58.6777174,47.1632023 C54.971336,50.7562755 49.9277089,52.9680266 44.3713043,52.9680266 C43.1217919,52.9680266 41.8977787,52.8558478 40.7094022,52.641555 C41.2679157,52.6874649 41.833234,52.7132195 42.4034783,52.7132195 C51.210249,52.7132195 58.7309693,47.1567111 61.6750847,39.3497814 C58.8095808,38.1507464 55.6664103,37.4884951 52.3695652,37.4884951 C46.4702511,37.4884945 41.0614843,39.6096751 36.8590457,43.1320775 C41.2593588,38.5256466 47.446369,35.6516302 54.2996979,35.6411436 C54.7384406,34.7884635 55.3203649,34.0221783 56.013611,33.3737585 C55.647462,33.3572349 55.2789199,33.3478797 54.9086957,33.3478797 C48.018943,33.347879 41.7993747,36.2405627 37.3886957,40.8806147 C39.921345,37.4468176 41.4195652,33.1994787 41.4195652,28.6020974 C41.4195652,24.9060993 40.4510774,21.4369299 38.7554588,18.4337014 C38.3807085,19.6873116 37.7169608,20.8155516 36.8431762,21.7422124 C38.1083614,24.4215581 38.8169565,27.4166455 38.8169565,30.5768524 C38.8169565,35.3344622 37.211731,39.7175304 34.5163043,43.2117047 C36.711135,39.9253524 37.9917391,35.9740383 37.9917391,31.7234844 C37.9917391,25.474193 35.2224111,19.8701854 30.8504348,16.0787264 C30.8504348,16.0787264 35.2224111,19.8701854 30.8504348,16.0787264 L30.8504348,16.0787264 L30.8504348,16.0787264 Z M30.8504348,50.5612971 C27.1523817,54.1043899 22.1439152,56.280519 16.6313043,56.280519 L0.601059783,56.280519 C1.07363322,56.9774419 1.56883602,57.6574966 2.08684783,58.3189758 L17.5834783,58.3189758 C22.6365256,58.3189758 27.2654492,56.4894799 30.8504348,53.4557402 C34.4354203,56.4894799 39.0643503,58.3189758 44.1173913,58.3189758 L59.6140217,58.3189758 C60.1320424,57.6574966 60.6272363,56.9774419 61.0998066,56.280519 L45.0695652,56.280519 C39.5569607,56.280519 34.5484942,54.1043899 30.8504348,50.5612971 C30.8504348,50.5612971 34.5484942,54.1043899 30.8504348,50.5612971 L30.8504348,50.5612971 L30.8504348,50.5612971 Z M3.86423913,60.4211344 C4.17941504,60.7668503 4.50224643,61.1068012 4.83030209,61.4403628 L56.8705675,61.4403628 C57.1986168,61.1068012 57.5214545,60.7668503 57.8366304,60.4211344 L3.86423913,60.4211344 L3.86423913,60.4211344 L3.86423913,60.4211344 L3.86423913,60.4211344 Z M7.07584557,63.5425214 C7.71902635,64.0956885 8.38080626,64.6271015 9.06152174,65.1350658 L30.8504348,65.1350658 L52.6393478,65.1350658 C53.3200697,64.6271015 53.9818432,64.0956885 54.625024,63.5425214 L30.8504348,63.5425214 L7.07584557,63.5425214 L7.07584557,63.5425214 L7.07584557,63.5425214 L7.07584557,63.5425214 Z M11.3764977,66.7276102 C12.5556699,67.474195 13.7794737,68.1561353 15.0443478,68.7660671 L30.8504348,68.7660671 L46.6565217,68.7660671 C47.9214023,68.1561353 49.1451997,67.474195 50.3243718,66.7276102 L30.8504348,66.7276102 L11.3764977,66.7276102 L11.3764977,66.7276102 L11.3764977,66.7276102 L11.3764977,66.7276102 Z M17.3652717,69.7852955 C21.5387897,71.4497464 26.0883147,72.3652174 30.8504348,72.3652174 C35.6125549,72.3652174 40.1620736,71.4497464 44.3355978,69.7852955 L30.8504348,69.7852955 L17.3652717,69.7852955 L17.3652717,69.7852955 L17.3652717,69.7852955 L17.3652717,69.7852955 Z M17.3652717,69.7852955" fill="#FFFFFF" id="path3169"/></g></g></g></g></svg>