<?xml version="1.0" ?><svg height="120px" version="1.1" viewBox="0 0 180 120" width="180px" xmlns="http://www.w3.org/2000/svg" xmlns:sketch="http://www.bohemiancoding.com/sketch/ns" xmlns:xlink="http://www.w3.org/1999/xlink"><title/><defs/><g fill="none" fill-rule="evenodd" id="Africa,-Middle-East-and-India" stroke="none" stroke-width="1"><g id="Africa,-Middle-Eest-and-India" transform="translate(-200.000000, -1401.000000)"><g id="oman" transform="translate(200.000000, 1401.000000)"><rect d="M0,0 L0,120 L180,120 L180,0 L0,0 Z M0,0" fill="#CA4638" height="120" id="Rectangle-3-copy-4" width="180" x="0" y="0"/><rect d="M40,80 L40,120 L180,120 L180,80 L40,80 Z M40,80" fill="#479951" height="40" id="Rectangle-3-copy-3" width="140" x="40" y="80"/><rect d="M40,0 L40,40 L180,40 L180,0 L40,0 Z M40,0" fill="#FFFFFF" height="40" id="Rectangle-3-copy-3" width="140" x="40" y="0"/><g id="Flag_of_Oman" stroke="#DB161B" transform="translate(5.000000, 6.000000)"><g fill="#FFFFFF" id="a" transform="translate(0.000000, 13.000000)"><rect d="M2.00591905,0 C0.898080551,0 0,0.887729645 0,2 L0,2 C0,3.1045695 0.886554837,4 2.00591905,4 L4.99408095,4 C6.10191945,4 7,3.11227036 7,2 L7,2 C7,0.8954305 6.11344516,0 4.99408095,0 L2.00591905,0 Z M2.00591905,0" height="4" id="Rectangle" rx="3.2154" stroke-width="0.28333" width="7" x="0" y="0"/><rect d="M1.99791312,0 C0.894496173,0 0,0.887729645 0,2 L0,2 C0,3.1045695 0.898260623,4 1.99791312,4 L4.00208688,4 C5.10550383,4 6,3.11227036 6,2 L6,2 C6,0.8954305 5.10173938,0 4.00208688,0 L1.99791312,0 Z M1.99791312,0" height="4" id="Rectangle" rx="3.0505" stroke-width="0.26422" width="6" x="0" y="0"/><path d="M2.94039943,1 L3.23179745,1.01357466 L3.24500708,1.20361991 L3.48340934,1.37782805 L3.66897311,1.16063348 L3.89400849,1.33484163 L3.68218273,1.52488688 L3.73517849,1.78733032 L4,1.77375566 L4,2.12443439 L3.78817424,2.10859729 L3.68218273,2.3280543 L3.920585,2.57692308 L3.73517849,2.78054299 L3.5364051,2.56108597 L3.24500708,2.64932127 L3.2582167,2.97058824 L2.94039943,3 L2.9006133,2.69230769 L2.63579179,2.53167421 L2.49001415,2.75113122 L2.26482151,2.59049774 L2.39738953,2.34162896 L2.23840226,2.18099548 L2.01320962,2.18099548 L2,1.72850679 L2.22519264,1.75791855 L2.38402265,1.49547511 L2.19861613,1.2918552 L2.4370184,1.05656109 L2.60921529,1.24660633 L2.9006133,1.19004525 L2.94039943,1 L2.94039943,1 L2.94039943,1 L2.94039943,1 Z M2.94039943,1" id="Shape" stroke-width="0.16681166"/><circle cx="3.5" cy="2.5" d="M3.5,3 C3.77614239,3 4,2.77614239 4,2.5 C4,2.22385761 3.77614239,2 3.5,2 C3.22385761,2 3,2.22385761 3,2.5 C3,2.77614239 3.22385761,3 3.5,3 Z M3.5,3" id="Oval" r="0.5" stroke-width="0.5"/><path d="M2,0 L1,0.481818182" id="Shape" stroke-width="0.26422498"/><path d="M2,0 L1,0.481818182" id="Shape" stroke-width="0.26422498"/><path d="M2,0 L1,0.481818182" id="Shape" stroke-width="0.26422498"/><path d="M3,0 L2,0.481818182" id="Shape" stroke-width="0.26422498"/><path d="M3,0 L2,0.481818182" id="Shape" stroke-width="0.26422498"/><path d="M3,0 L2,0.481818182" id="Shape" stroke-width="0.26422498"/><path d="M4,0 L3,0.481818182" id="Shape" stroke-width="0.26422498"/><path d="M4,0 L3,0.481818182" id="Shape" stroke-width="0.26422498"/><path d="M4,0 L3,0.481818182" id="Shape" stroke-width="0.26422498"/><path d="M5,0 L4,0.481818182" id="Shape" stroke-width="0.26422498"/><path d="M5,0 L4,0.481818182" id="Shape" stroke-width="0.26422498"/><path d="M5,0 L4,0.481818182" id="Shape" stroke-width="0.26422498"/><path d="M4,0 L3,0.481818182" id="Shape" stroke-width="0.26422498"/><path d="M6,0 L5,0.481818182" id="Shape" stroke-width="0.26422498"/><path d="M6,0 L5,0.481818182" id="Shape" stroke-width="0.26422498"/><path d="M7,0 L6,0.481818182" id="Shape" stroke-width="0.26422498"/><path d="M7,0 L6,0.481818182" id="Shape" stroke-width="0.26422498"/><path d="M6,0 L7,0.481818182" id="Shape" stroke-width="0.26422498"/><path d="M6,0 L7,0.481818182" id="Shape" stroke-width="0.26422498"/><path d="M5,0 L6,0.481818182" id="Shape" stroke-width="0.26422498"/><path d="M5,0 L6,0.481818182" id="Shape" stroke-width="0.26422498"/><path d="M4,0 L5,0.481818182" id="Shape" stroke-width="0.26422498"/><path d="M4,0 L5,0.481818182" id="Shape" stroke-width="0.26422498"/><path d="M4,0 L5,0.481818182" id="Shape" stroke-width="0.26422498"/><path d="M3,0 L4,0.481818182" id="Shape" stroke-width="0.26422498"/><path d="M3,0 L4,0.481818182" id="Shape" stroke-width="0.26422498"/><path d="M3,0 L4,0.481818182" id="Shape" stroke-width="0.26422498"/><path d="M2,0 L3,0.481818182" id="Shape" stroke-width="0.26422498"/><path d="M2,0 L3,0.481818182" id="Shape" stroke-width="0.26422498"/><path d="M3,0 L4,0.481818182" id="Shape" stroke-width="0.26422498"/><path d="M2,0 L3,0.481818182" id="Shape" stroke-width="0.26422498"/><path d="M1,0 L2,0.481818182" id="Shape" stroke-width="0.26422498"/><path d="M1,0 L2,0.481818182" id="Shape" stroke-width="0.26422498"/><path d="M1,0 L2,0.481818182" id="Shape" stroke-width="0.26422498"/><path d="M2,3 L1,3.48363636" id="Shape" stroke-width="0.26422498"/><path d="M2,3 L1,3.48363636" id="Shape" stroke-width="0.26422498"/><path d="M2,3 L1,3.48363636" id="Shape" stroke-width="0.26422498"/><path d="M3,3 L2,3.48363636" id="Shape" stroke-width="0.26422498"/><path d="M3,3 L2,3.48363636" id="Shape" stroke-width="0.26422498"/><path d="M3,3 L2,3.48363636" id="Shape" stroke-width="0.26422498"/><path d="M4,3 L3,3.48363636" id="Shape" stroke-width="0.26422498"/><path d="M4,3 L3,3.48363636" id="Shape" stroke-width="0.26422498"/><path d="M4,3 L3,3.48363636" id="Shape" stroke-width="0.26422498"/><path d="M5,3 L4,3.48363636" id="Shape" stroke-width="0.26422498"/><path d="M5,3 L4,3.48363636" id="Shape" stroke-width="0.26422498"/><path d="M5,3 L4,3.48363636" id="Shape" stroke-width="0.26422498"/><path d="M4,3 L3,3.48363636" id="Shape" stroke-width="0.26422498"/><path d="M6,3 L5,3.48363636" id="Shape" stroke-width="0.26422498"/><path d="M6,3 L5,3.48363636" id="Shape" stroke-width="0.26422498"/><path d="M7,3 L6,3.48363636" id="Shape" stroke-width="0.26422498"/><path d="M7,3 L6,3.48363636" id="Shape" stroke-width="0.26422498"/><path d="M6,3 L7,3.48363636" id="Shape" stroke-width="0.26422498"/><path d="M6,3 L7,3.48363636" id="Shape" stroke-width="0.26422498"/><path d="M5,3 L6,3.48363636" id="Shape" stroke-width="0.26422498"/><path d="M5,3 L6,3.48363636" id="Shape" stroke-width="0.26422498"/><path d="M4,3 L5,3.48363636" id="Shape" stroke-width="0.26422498"/><path d="M4,3 L5,3.48363636" id="Shape" stroke-width="0.26422498"/><path d="M4,3 L5,3.48363636" id="Shape" stroke-width="0.26422498"/><path d="M3,3 L4,3.48363636" id="Shape" stroke-width="0.26422498"/><path d="M3,3 L4,3.48363636" id="Shape" stroke-width="0.26422498"/><path d="M3,3 L4,3.48363636" id="Shape" stroke-width="0.26422498"/><path d="M2,3 L3,3.48363636" id="Shape" stroke-width="0.26422498"/><path d="M2,3 L3,3.48363636" id="Shape" stroke-width="0.26422498"/><path d="M3,3 L4,3.48363636" id="Shape" stroke-width="0.26422498"/><path d="M2,3 L3,3.48363636" id="Shape" stroke-width="0.26422498"/><path d="M1,3 L2,3.48363636" id="Shape" stroke-width="0.26422498"/><path d="M1,3 L2,3.48363636" id="Shape" stroke-width="0.26422498"/><path d="M1,3 L2,3.48363636" id="Shape" stroke-width="0.26422498"/></g><g fill="#FFFFFF" id="Group" transform="translate(27.500000, 15.000000) scale(-1, 1) translate(-27.500000, -15.000000) translate(24.000000, 13.000000)"><g id="a"><rect d="M2.00591905,0 C0.898080551,0 0,0.887729645 0,2 L0,2 C0,3.1045695 0.886554837,4 2.00591905,4 L4.99408095,4 C6.10191945,4 7,3.11227036 7,2 L7,2 C7,0.8954305 6.11344516,0 4.99408095,0 L2.00591905,0 Z M2.00591905,0" height="4" id="Rectangle" rx="3.2154" stroke-width="0.28333" width="7" x="0" y="0"/><rect d="M1.99791312,0 C0.894496173,0 0,0.887729645 0,2 L0,2 C0,3.1045695 0.898260623,4 1.99791312,4 L4.00208688,4 C5.10550383,4 6,3.11227036 6,2 L6,2 C6,0.8954305 5.10173938,0 4.00208688,0 L1.99791312,0 Z M1.99791312,0" height="4" id="Rectangle" rx="3.0505" stroke-width="0.26422" width="6" x="0" y="0"/><path d="M2.94039943,1 L3.23179745,1.01357466 L3.24500708,1.20361991 L3.48340934,1.37782805 L3.66897311,1.16063348 L3.89400849,1.33484163 L3.68218273,1.52488688 L3.73517849,1.78733032 L4,1.77375566 L4,2.12443439 L3.78817424,2.10859729 L3.68218273,2.3280543 L3.920585,2.57692308 L3.73517849,2.78054299 L3.5364051,2.56108597 L3.24500708,2.64932127 L3.2582167,2.97058824 L2.94039943,3 L2.9006133,2.69230769 L2.63579179,2.53167421 L2.49001415,2.75113122 L2.26482151,2.59049774 L2.39738953,2.34162896 L2.23840226,2.18099548 L2.01320962,2.18099548 L2,1.72850679 L2.22519264,1.75791855 L2.38402265,1.49547511 L2.19861613,1.2918552 L2.4370184,1.05656109 L2.60921529,1.24660633 L2.9006133,1.19004525 L2.94039943,1 L2.94039943,1 L2.94039943,1 L2.94039943,1 Z M2.94039943,1" id="Shape" stroke-width="0.16681166"/><circle cx="3.5" cy="2.5" d="M3.5,3 C3.77614239,3 4,2.77614239 4,2.5 C4,2.22385761 3.77614239,2 3.5,2 C3.22385761,2 3,2.22385761 3,2.5 C3,2.77614239 3.22385761,3 3.5,3 Z M3.5,3" id="Oval" r="0.5" stroke-width="0.5"/><path d="M2,0 L1,0.481818182" id="Shape" stroke-width="0.26422498"/><path d="M2,0 L1,0.481818182" id="Shape" stroke-width="0.26422498"/><path d="M2,0 L1,0.481818182" id="Shape" stroke-width="0.26422498"/><path d="M3,0 L2,0.481818182" id="Shape" stroke-width="0.26422498"/><path d="M3,0 L2,0.481818182" id="Shape" stroke-width="0.26422498"/><path d="M3,0 L2,0.481818182" id="Shape" stroke-width="0.26422498"/><path d="M4,0 L3,0.481818182" id="Shape" stroke-width="0.26422498"/><path d="M4,0 L3,0.481818182" id="Shape" stroke-width="0.26422498"/><path d="M4,0 L3,0.481818182" id="Shape" stroke-width="0.26422498"/><path d="M5,0 L4,0.481818182" id="Shape" stroke-width="0.26422498"/><path d="M5,0 L4,0.481818182" id="Shape" stroke-width="0.26422498"/><path d="M5,0 L4,0.481818182" id="Shape" stroke-width="0.26422498"/><path d="M4,0 L3,0.481818182" id="Shape" stroke-width="0.26422498"/><path d="M6,0 L5,0.481818182" id="Shape" stroke-width="0.26422498"/><path d="M6,0 L5,0.481818182" id="Shape" stroke-width="0.26422498"/><path d="M7,0 L6,0.481818182" id="Shape" stroke-width="0.26422498"/><path d="M7,0 L6,0.481818182" id="Shape" stroke-width="0.26422498"/><path d="M6,0 L7,0.481818182" id="Shape" stroke-width="0.26422498"/><path d="M6,0 L7,0.481818182" id="Shape" stroke-width="0.26422498"/><path d="M5,0 L6,0.481818182" id="Shape" stroke-width="0.26422498"/><path d="M5,0 L6,0.481818182" id="Shape" stroke-width="0.26422498"/><path d="M4,0 L5,0.481818182" id="Shape" stroke-width="0.26422498"/><path d="M4,0 L5,0.481818182" id="Shape" stroke-width="0.26422498"/><path d="M4,0 L5,0.481818182" id="Shape" stroke-width="0.26422498"/><path d="M3,0 L4,0.481818182" id="Shape" stroke-width="0.26422498"/><path d="M3,0 L4,0.481818182" id="Shape" stroke-width="0.26422498"/><path d="M3,0 L4,0.481818182" id="Shape" stroke-width="0.26422498"/><path d="M2,0 L3,0.481818182" id="Shape" stroke-width="0.26422498"/><path d="M2,0 L3,0.481818182" id="Shape" stroke-width="0.26422498"/><path d="M3,0 L4,0.481818182" id="Shape" stroke-width="0.26422498"/><path d="M2,0 L3,0.481818182" id="Shape" stroke-width="0.26422498"/><path d="M1,0 L2,0.481818182" id="Shape" stroke-width="0.26422498"/><path d="M1,0 L2,0.481818182" id="Shape" stroke-width="0.26422498"/><path d="M1,0 L2,0.481818182" id="Shape" stroke-width="0.26422498"/><path d="M2,3 L1,3.48363636" id="Shape" stroke-width="0.26422498"/><path d="M2,3 L1,3.48363636" id="Shape" stroke-width="0.26422498"/><path d="M2,3 L1,3.48363636" id="Shape" stroke-width="0.26422498"/><path d="M3,3 L2,3.48363636" id="Shape" stroke-width="0.26422498"/><path d="M3,3 L2,3.48363636" id="Shape" stroke-width="0.26422498"/><path d="M3,3 L2,3.48363636" id="Shape" stroke-width="0.26422498"/><path d="M4,3 L3,3.48363636" id="Shape" stroke-width="0.26422498"/><path d="M4,3 L3,3.48363636" id="Shape" stroke-width="0.26422498"/><path d="M4,3 L3,3.48363636" id="Shape" stroke-width="0.26422498"/><path d="M5,3 L4,3.48363636" id="Shape" stroke-width="0.26422498"/><path d="M5,3 L4,3.48363636" id="Shape" stroke-width="0.26422498"/><path d="M5,3 L4,3.48363636" id="Shape" stroke-width="0.26422498"/><path d="M4,3 L3,3.48363636" id="Shape" stroke-width="0.26422498"/><path d="M6,3 L5,3.48363636" id="Shape" stroke-width="0.26422498"/><path d="M6,3 L5,3.48363636" id="Shape" stroke-width="0.26422498"/><path d="M7,3 L6,3.48363636" id="Shape" stroke-width="0.26422498"/><path d="M7,3 L6,3.48363636" id="Shape" stroke-width="0.26422498"/><path d="M6,3 L7,3.48363636" id="Shape" stroke-width="0.26422498"/><path d="M6,3 L7,3.48363636" id="Shape" stroke-width="0.26422498"/><path d="M5,3 L6,3.48363636" id="Shape" stroke-width="0.26422498"/><path d="M5,3 L6,3.48363636" id="Shape" stroke-width="0.26422498"/><path d="M4,3 L5,3.48363636" id="Shape" stroke-width="0.26422498"/><path d="M4,3 L5,3.48363636" id="Shape" stroke-width="0.26422498"/><path d="M4,3 L5,3.48363636" id="Shape" stroke-width="0.26422498"/><path d="M3,3 L4,3.48363636" id="Shape" stroke-width="0.26422498"/><path d="M3,3 L4,3.48363636" id="Shape" stroke-width="0.26422498"/><path d="M3,3 L4,3.48363636" id="Shape" stroke-width="0.26422498"/><path d="M2,3 L3,3.48363636" id="Shape" stroke-width="0.26422498"/><path d="M2,3 L3,3.48363636" id="Shape" stroke-width="0.26422498"/><path d="M3,3 L4,3.48363636" id="Shape" stroke-width="0.26422498"/><path d="M2,3 L3,3.48363636" id="Shape" stroke-width="0.26422498"/><path d="M1,3 L2,3.48363636" id="Shape" stroke-width="0.26422498"/><path d="M1,3 L2,3.48363636" id="Shape" stroke-width="0.26422498"/><path d="M1,3 L2,3.48363636" id="Shape" stroke-width="0.26422498"/></g></g><g id="b" transform="translate(0.000000, 1.000000)"><path d="M11.2453249,19.8633869 C2.42238397,28.2041686 -1.34121995,29.2589539 0.425055287,29.9308256 C2.19133052,30.6026973 7.87304481,26.2984639 13.785079,20.5795773 C19.6971133,14.8624634 23.3169506,9.77361154 21.5510421,9.10156258 C19.7851336,8.42933635 20.6286621,10.991667 11.2453249,19.8633869 C11.2453249,19.8633869 20.6286621,10.991667 11.2453249,19.8633869 L11.2453249,19.8633869 L11.2453249,19.8633869 Z M11.2453249,19.8633869" fill="#FFFFFF" id="Shape" stroke-width="0.42368097"/><path d="M4.0281865,27 L7,27.7496036 C4.20294719,30.2985949 1.0556676,31.348379 0.181511445,30.8989561 C-0.692821058,30.4495331 1.75506307,29.399749 4.0281865,27 C4.0281865,27 1.75506307,29.399749 4.0281865,27 L4.0281865,27 L4.0281865,27 Z M4.0281865,27" fill="#FFFFFF" id="Shape" stroke-width="0.33028123"/><path d="M4.25951899,27 L7,27.6833359 C3.94916411,30.4726589 0.931693339,31.2660234 0.15087046,30.9262858 C-0.634295808,30.5846179 1.78062845,29.6252452 4.25951899,27 C4.25951899,27 1.78062845,29.6252452 4.25951899,27 L4.25951899,27 L4.25951899,27 Z M4.25951899,27" fill="#FFFFFF" id="Shape" stroke-width="0.33028045"/><path d="M14,20 C13.9936306,20.0376432 13.9761146,20.202946 13.9601911,20.2684124 C13.9601911,20.3600655 13.9506369,20.4288052 13.9410828,20.5008183 C13.9156051,20.5630115 13.9203822,20.6202946 13.8423567,20.6432079 C13.7898089,20.7184943 13.7563694,20.7381342 13.6863057,20.7692308 C13.638535,20.806874 13.5652866,20.8445172 13.4888535,20.8756137 C13.410828,20.9067103 13.339172,20.9099836 13.2547771,20.893617 C13.1847134,20.8494272 13.1353503,20.8052373 13.0780255,20.7692308 C13.0636943,20.7119476 13.0525478,20.6284779 13.0382166,20.5728314 C13.0589172,20.6301146 13.0748408,20.7217676 13.0780255,20.8036007 C13.0700637,20.893617 13.0382166,20.9328969 13,21" id="Shape" stroke-width="0.33028081"/><path d="M12.9951996,21.1806653 C12.9883784,21.1735338 12.9815572,21.1640251 12.974736,21.1545164 C13.0241896,21.2163229 13.003726,21.1877968 12.889471,21.1045957 C12.809322,21.0522979 12.7223518,21.0237718 12.6166232,21 L12.3233118,21 C12.2090568,21 12.1323184,21.0213946 12.050464,21.0522979 C11.9907786,21.1259903 11.902103,21.1664023 11.8407123,21.2329632 C11.7759109,21.2876382 11.7486262,21.3518219 11.7145202,21.4397774 C11.65654,21.5110927 11.6190235,21.6204427 11.5661592,21.6751178 C11.5439903,21.7939765 11.4945366,21.7892222 11.462136,21.881932 C11.5610433,21.8914407 11.6411923,21.9080809 11.6923513,21.9841505 C11.7810268,22.0412027 11.6190235,21.9294755 11.5883281,21.881932 C11.5184108,21.8557831 11.5013578,21.8296341 11.3990399,21.8296341 C11.3035432,21.7915993 11.245563,21.8605374 11.1466557,21.881932 C11.0903808,21.922344 11.0733278,21.9342299 11,21.9342299" id="Shape" stroke-width="0.33028081"/><path d="M11,22.1068174 C10.9667111,22.1081028 10.8135819,22.1325269 10.7536618,22.1068174 C10.6870839,22.0913916 10.6471372,22.0605402 10.6058589,22.0078356 C10.5858855,21.9705568 10.6058589,22.0759659 10.6058589,22.1209576 C10.5992011,22.2032281 10.5699068,22.2045136 10.5246338,22.2610746 C10.4766977,22.2867841 10.4260985,22.3240629 10.3768309,22.3446306 C10.3355526,22.375482 10.2849534,22.3960496 10.229028,22.4153318 C10.1797603,22.434614 10.1211718,22.4551816 10.081225,22.4847476 C10.0266312,22.51817 10.0319574,22.5593052 10,22.6107243 C10.0053262,22.68014 10.0186418,22.7187043 10.0652463,22.7521267 C10.0838881,22.7984039 10.1278296,22.8459666 10.1637816,22.8781035 C10.2037284,22.9423773 10.2490013,22.9719433 10.1464714,22.98994 C10.0905459,23.0105076 10.0599201,22.9937964 10,22.98994" id="Shape" stroke-width="0.33028081"/><path d="M10,24.081203 C9.95873453,24.0721805 9.81017882,24.0240602 9.74552957,24 L9.50894085,24 C9.41678129,24.006015 9.39889959,24.0330827 9.3218707,24.0646617 C9.27235213,24.1142857 9.23796424,24.1488722 9.16918845,24.1804511 C9.13342503,24.2255639 9.06189821,24.3022556 9.0343879,24.3609023 C9.01375516,24.4165414 9,24.4917293 9,24.5744361 C9.00137552,24.6691729 9.02751032,24.6857143 9.0343879,24.7714286 C9.05364512,24.8406015 9.08390646,24.9052632 9.13617607,24.9669173 C9.14305365,24.9879699 9.14855571,24.993985 9.16918845,25" id="Shape" stroke-width="0.33028081"/><path d="M9,25.3275563 C8.99062793,25.3275563 8.96813496,25.3760832 8.9343955,25.4176776 C8.86129335,25.4870017 8.85192127,25.492201 8.73758201,25.492201 C8.63636364,25.4887348 8.64573571,25.4558059 8.57450797,25.4315425 C8.54076851,25.3847487 8.49765698,25.3466205 8.4601687,25.2824957 C8.4339269,25.2443674 8.40955951,25.1837088 8.37769447,25.1490468 C8.34770384,25.1039861 8.31021556,25.0710572 8.27835052,25.0294627 C8.24835989,25.017331 8.2371134,25.0051993 8.1977507,25 C8.29147142,25.0138648 8.29896907,25.0433276 8.36082474,25.0883882 C8.38894096,25.1317158 8.41893158,25.1750433 8.44329897,25.2235702 C8.45267104,25.287695 8.47516401,25.3379549 8.47516401,25.4176776 C8.47516401,25.4991334 8.47516401,25.5580589 8.44329897,25.6256499 C8.40393627,25.6637782 8.37582006,25.7019064 8.3289597,25.7313692 C8.289597,25.7642981 8.24273664,25.8093588 8.21274602,25.8492201 C8.16213683,25.8786828 8.12464855,25.9029463 8.06654171,25.9393414 C8.01593252,25.965338 7.96344892,25.9930676 7.88659794,26 C7.7891284,25.9930676 7.76101218,25.9688042 7.68978444,25.9393414 C7.62792877,25.897747 7.579194,25.8717504 7.52483599,25.8353553 C7.48172446,25.8076256 7.43861293,25.7538995 7.41049672,25.7157712 C7.32239925,25.694974 7.26616682,25.7036395 7.21368322,25.745234 C7.16869728,25.7729636 7.12933458,25.8093588 7.09934396,25.8492201 C7.07122774,25.8613518 7.02811621,25.897747 7,25.9098787" id="Shape" stroke-width="0.33028191"/><path d="M6.82469315,26 C6.84209698,26.0075377 6.90425354,26.0515075 6.93284555,26.0678392 C6.95024939,26.1243719 6.97759827,26.1557789 6.98630019,26.2160804 C7.00121776,26.2751256 6.99997463,26.339196 6.99997463,26.4057789 C6.98505706,26.4748744 6.95646504,26.5251256 6.93284555,26.580402 C6.88933597,26.6105528 6.86820274,26.6306533 6.81101871,26.6620603 C6.75756407,26.669598 6.70410944,26.6758794 6.63573723,26.6758794 C6.59347077,26.6896985 6.51391038,26.6959799 6.47288706,26.6758794 C6.41321677,26.6670854 6.36809111,26.6432161 6.32445721,26.6218593 C6.27448334,26.5929648 6.243778,26.5665829 6.18920455,26.540201 C6.16272586,26.5012563 6.12157822,26.4660804 6.08117646,26.4183417 C6.04748761,26.3731156 6.0227493,26.3479899 6,26.2977387 C6.02001441,26.3555276 6.05034681,26.4057789 6.06762633,26.459799 C6.09833167,26.5163317 6.11623275,26.5376884 6.12170253,26.6080402 C6.14047381,26.6645729 6.13525266,26.7324121 6.13525266,26.7964824 C6.12928563,26.8404523 6.1261778,26.9233668 6.1081524,26.9585427 L6.1081524,27" id="Shape" stroke-width="0.33028162"/><path d="M3.82410293,28.007316 L3.82410293,28.0305543 C3.82410293,27.9695537 3.82225271,28.000054 3.85353819,28.1206027 C3.90904468,28.1743412 4.03923263,28.1888652 4.14772258,28.1656269 C4.24292462,28.1060787 4.239897,28.0596021 4.41247172,28.0305543 C4.57915939,28.0392686 4.64273955,28.0770309 4.73609138,28.1206027 C4.84676795,28.1627221 4.8979012,28.184508 4.97140525,28.2789136 C5.00790498,28.3558904 5.02825735,28.4081766 4.91253473,28.4372245 C4.82052852,28.4880583 4.71119756,28.5156537 4.58891508,28.5287253 C4.45300828,28.5287253 4.35511501,28.5156537 4.29473068,28.5737495 C4.20137886,28.6478216 4.2065931,28.6928458 4.2065931,28.8221088 C4.17513943,28.8627758 4.16891597,28.9818721 4.14772258,29.0268963 C4.06597666,29.0559442 4.01803924,29.0719205 3.88297345,29.0719205 C3.85118337,29.0022056 3.81602926,28.8758474 3.79466767,28.8003229 C3.77162406,28.7189888 3.7645596,28.6057021 3.70636189,28.5505112 C3.6515282,28.4895107 3.58138818,28.4343197 3.50048327,28.3922003 C3.46448815,28.3529857 3.39586195,28.321033 3.32403991,28.3021519 C3.43942613,28.3471761 3.45590988,28.3965575 3.47104801,28.505487 C3.36962252,28.5447016 3.34254208,28.5722971 3.17686361,28.5737495 C3.01404458,28.5635827 2.97468543,28.5316301 2.91211448,28.4604628 C2.90084498,28.5737495 2.85358036,28.6115117 2.8239769,28.7102745 C2.76342436,28.778537 2.73768954,28.8482519 2.6768006,28.9353955 C2.70270363,29.0457774 2.75854652,29.0501346 2.76510638,29.1852072 C2.80328812,29.2738032 2.79908308,29.358042 2.88267922,29.4117806 C2.92001995,29.446638 2.94794139,29.4539 3.02985552,29.4568048 C2.85946741,29.4568048 2.76022854,29.4422809 2.64736534,29.3885423 C2.56006877,29.3478753 2.49413379,29.2955891 2.41205146,29.2534697 C2.30793474,29.1953739 2.17926061,29.1416354 2.05899655,29.1169447 C1.92308975,29.1169447 1.82519648,29.1053255 1.76481215,29.1619689 C1.68155242,29.2084455 1.62554132,29.2868747 1.58836879,29.3885423 C1.56112015,29.5061862 1.55069166,29.5846154 1.61780405,29.6601399 C1.66759169,29.7487359 1.67886119,29.782141 1.61780405,29.8867133 C1.54934605,29.9607854 1.44758415,29.9694997 1.2941844,30 C1.18216221,29.9956428 1.07451326,29.9767617 1,29.9549758" id="Shape" stroke-width="0.33028123"/><path d="M21.7369373,13 C25.8811651,6.16413353 28.63169,0.347211401 27.8746648,0.0148582425 C27.1195807,-0.317309451 23.1442278,4.96028066 19,11.7952198 L21.7369373,13 L21.7369373,13 L21.7369373,13 L21.7369373,13 Z M21.7369373,13" fill="#FFFFFF" id="Shape" stroke-width="0.33520904"/><path d="M22.0803372,13 C25.8776904,6.63729924 28.4947103,1.26594652 27.9211422,1.00952022 C27.347574,0.753093911 23.7991974,5.70822361 20,12.0700296" fill="#FFFFFF" id="Shape" stroke-width="0.29448283"/><path d="M21.6286165,9 C21.1004734,9.67232735 20.5428722,10.4407246 20,11.1594695 L22.3734876,12 C22.9142557,11.2806081 23.5055234,10.5233705 24,9.83988355 L21.6286165,9 L21.6286165,9 L21.6286165,9 L21.6286165,9 Z M21.6286165,9" fill="#FFFFFF" id="Shape" stroke-width="0.33422136"/><path d="M21.3390052,10 C20.8481675,10.7955981 20.5045812,11.4044019 20,12.2549282 L21.6590314,13 C22.1655759,12.1498565 22.5386126,11.5542584 23,10.7454545 L21.3390052,10 L21.3390052,10 L21.3390052,10 L21.3390052,10 Z M21.3390052,10" fill="#FFFFFF" id="Shape" stroke-width="0.33422136"/><rect d="M21,10 L21,12 L22,12 L22,10 L21,10 Z M21,10" fill="#FFFFFF" height="2" id="Rectangle" stroke-width="0.5" transform="translate(21.500000, 11.000000) rotate(204.725686) translate(-21.500000, -11.000000) " width="1" x="21" y="10"/><path d="M22,10 L20,11" fill="#FFFFFF" id="Shape" stroke-width="0.33422136"/><path d="M21.1168212,12 L21,10" fill="#FFFFFF" id="Shape" stroke-width="0.33422136"/><path d="M27,2.47080117 L26,2" fill="#FFFFFF" id="Shape" stroke-width="0.33422136"/><circle cx="27.5" cy="1.5" d="M27.5,2 C27.7761424,2 28,1.77614239 28,1.5 C28,1.22385761 27.7761424,1 27.5,1 C27.2238576,1 27,1.22385761 27,1.5 C27,1.77614239 27.2238576,2 27.5,2 Z M27.5,2" fill="#DB161B" id="Oval" r="0.5" stroke-width="0.5" transform="translate(27.500000, 1.500000) rotate(165.848929) translate(-27.500000, -1.500000) "/></g><g id="Group" transform="translate(17.500000, 16.500000) scale(-1, 1) translate(-17.500000, -16.500000) translate(3.000000, 1.000000)"><g id="b"><path d="M11.2453249,19.8633869 C2.42238397,28.2041686 -1.34121995,29.2589539 0.425055287,29.9308256 C2.19133052,30.6026973 7.87304481,26.2984639 13.785079,20.5795773 C19.6971133,14.8624634 23.3169506,9.77361154 21.5510421,9.10156258 C19.7851336,8.42933635 20.6286621,10.991667 11.2453249,19.8633869 C11.2453249,19.8633869 20.6286621,10.991667 11.2453249,19.8633869 L11.2453249,19.8633869 L11.2453249,19.8633869 Z M11.2453249,19.8633869" fill="#FFFFFF" id="Shape" stroke-width="0.42368097"/><path d="M4.0281865,27 L7,27.7496036 C4.20294719,30.2985949 1.0556676,31.348379 0.181511445,30.8989561 C-0.692821058,30.4495331 1.75506307,29.399749 4.0281865,27 C4.0281865,27 1.75506307,29.399749 4.0281865,27 L4.0281865,27 L4.0281865,27 Z M4.0281865,27" fill="#FFFFFF" id="Shape" stroke-width="0.33028123"/><path d="M4.25951899,27 L7,27.6833359 C3.94916411,30.4726589 0.931693339,31.2660234 0.15087046,30.9262858 C-0.634295808,30.5846179 1.78062845,29.6252452 4.25951899,27 C4.25951899,27 1.78062845,29.6252452 4.25951899,27 L4.25951899,27 L4.25951899,27 Z M4.25951899,27" fill="#FFFFFF" id="Shape" stroke-width="0.33028045"/><path d="M14,20 C13.9936306,20.0376432 13.9761146,20.202946 13.9601911,20.2684124 C13.9601911,20.3600655 13.9506369,20.4288052 13.9410828,20.5008183 C13.9156051,20.5630115 13.9203822,20.6202946 13.8423567,20.6432079 C13.7898089,20.7184943 13.7563694,20.7381342 13.6863057,20.7692308 C13.638535,20.806874 13.5652866,20.8445172 13.4888535,20.8756137 C13.410828,20.9067103 13.339172,20.9099836 13.2547771,20.893617 C13.1847134,20.8494272 13.1353503,20.8052373 13.0780255,20.7692308 C13.0636943,20.7119476 13.0525478,20.6284779 13.0382166,20.5728314 C13.0589172,20.6301146 13.0748408,20.7217676 13.0780255,20.8036007 C13.0700637,20.893617 13.0382166,20.9328969 13,21" id="Shape" stroke-width="0.33028081"/><path d="M12.9951996,21.1806653 C12.9883784,21.1735338 12.9815572,21.1640251 12.974736,21.1545164 C13.0241896,21.2163229 13.003726,21.1877968 12.889471,21.1045957 C12.809322,21.0522979 12.7223518,21.0237718 12.6166232,21 L12.3233118,21 C12.2090568,21 12.1323184,21.0213946 12.050464,21.0522979 C11.9907786,21.1259903 11.902103,21.1664023 11.8407123,21.2329632 C11.7759109,21.2876382 11.7486262,21.3518219 11.7145202,21.4397774 C11.65654,21.5110927 11.6190235,21.6204427 11.5661592,21.6751178 C11.5439903,21.7939765 11.4945366,21.7892222 11.462136,21.881932 C11.5610433,21.8914407 11.6411923,21.9080809 11.6923513,21.9841505 C11.7810268,22.0412027 11.6190235,21.9294755 11.5883281,21.881932 C11.5184108,21.8557831 11.5013578,21.8296341 11.3990399,21.8296341 C11.3035432,21.7915993 11.245563,21.8605374 11.1466557,21.881932 C11.0903808,21.922344 11.0733278,21.9342299 11,21.9342299" id="Shape" stroke-width="0.33028081"/><path d="M11,22.1068174 C10.9667111,22.1081028 10.8135819,22.1325269 10.7536618,22.1068174 C10.6870839,22.0913916 10.6471372,22.0605402 10.6058589,22.0078356 C10.5858855,21.9705568 10.6058589,22.0759659 10.6058589,22.1209576 C10.5992011,22.2032281 10.5699068,22.2045136 10.5246338,22.2610746 C10.4766977,22.2867841 10.4260985,22.3240629 10.3768309,22.3446306 C10.3355526,22.375482 10.2849534,22.3960496 10.229028,22.4153318 C10.1797603,22.434614 10.1211718,22.4551816 10.081225,22.4847476 C10.0266312,22.51817 10.0319574,22.5593052 10,22.6107243 C10.0053262,22.68014 10.0186418,22.7187043 10.0652463,22.7521267 C10.0838881,22.7984039 10.1278296,22.8459666 10.1637816,22.8781035 C10.2037284,22.9423773 10.2490013,22.9719433 10.1464714,22.98994 C10.0905459,23.0105076 10.0599201,22.9937964 10,22.98994" id="Shape" stroke-width="0.33028081"/><path d="M10,24.081203 C9.95873453,24.0721805 9.81017882,24.0240602 9.74552957,24 L9.50894085,24 C9.41678129,24.006015 9.39889959,24.0330827 9.3218707,24.0646617 C9.27235213,24.1142857 9.23796424,24.1488722 9.16918845,24.1804511 C9.13342503,24.2255639 9.06189821,24.3022556 9.0343879,24.3609023 C9.01375516,24.4165414 9,24.4917293 9,24.5744361 C9.00137552,24.6691729 9.02751032,24.6857143 9.0343879,24.7714286 C9.05364512,24.8406015 9.08390646,24.9052632 9.13617607,24.9669173 C9.14305365,24.9879699 9.14855571,24.993985 9.16918845,25" id="Shape" stroke-width="0.33028081"/><path d="M9,25.3275563 C8.99062793,25.3275563 8.96813496,25.3760832 8.9343955,25.4176776 C8.86129335,25.4870017 8.85192127,25.492201 8.73758201,25.492201 C8.63636364,25.4887348 8.64573571,25.4558059 8.57450797,25.4315425 C8.54076851,25.3847487 8.49765698,25.3466205 8.4601687,25.2824957 C8.4339269,25.2443674 8.40955951,25.1837088 8.37769447,25.1490468 C8.34770384,25.1039861 8.31021556,25.0710572 8.27835052,25.0294627 C8.24835989,25.017331 8.2371134,25.0051993 8.1977507,25 C8.29147142,25.0138648 8.29896907,25.0433276 8.36082474,25.0883882 C8.38894096,25.1317158 8.41893158,25.1750433 8.44329897,25.2235702 C8.45267104,25.287695 8.47516401,25.3379549 8.47516401,25.4176776 C8.47516401,25.4991334 8.47516401,25.5580589 8.44329897,25.6256499 C8.40393627,25.6637782 8.37582006,25.7019064 8.3289597,25.7313692 C8.289597,25.7642981 8.24273664,25.8093588 8.21274602,25.8492201 C8.16213683,25.8786828 8.12464855,25.9029463 8.06654171,25.9393414 C8.01593252,25.965338 7.96344892,25.9930676 7.88659794,26 C7.7891284,25.9930676 7.76101218,25.9688042 7.68978444,25.9393414 C7.62792877,25.897747 7.579194,25.8717504 7.52483599,25.8353553 C7.48172446,25.8076256 7.43861293,25.7538995 7.41049672,25.7157712 C7.32239925,25.694974 7.26616682,25.7036395 7.21368322,25.745234 C7.16869728,25.7729636 7.12933458,25.8093588 7.09934396,25.8492201 C7.07122774,25.8613518 7.02811621,25.897747 7,25.9098787" id="Shape" stroke-width="0.33028191"/><path d="M6.82469315,26 C6.84209698,26.0075377 6.90425354,26.0515075 6.93284555,26.0678392 C6.95024939,26.1243719 6.97759827,26.1557789 6.98630019,26.2160804 C7.00121776,26.2751256 6.99997463,26.339196 6.99997463,26.4057789 C6.98505706,26.4748744 6.95646504,26.5251256 6.93284555,26.580402 C6.88933597,26.6105528 6.86820274,26.6306533 6.81101871,26.6620603 C6.75756407,26.669598 6.70410944,26.6758794 6.63573723,26.6758794 C6.59347077,26.6896985 6.51391038,26.6959799 6.47288706,26.6758794 C6.41321677,26.6670854 6.36809111,26.6432161 6.32445721,26.6218593 C6.27448334,26.5929648 6.243778,26.5665829 6.18920455,26.540201 C6.16272586,26.5012563 6.12157822,26.4660804 6.08117646,26.4183417 C6.04748761,26.3731156 6.0227493,26.3479899 6,26.2977387 C6.02001441,26.3555276 6.05034681,26.4057789 6.06762633,26.459799 C6.09833167,26.5163317 6.11623275,26.5376884 6.12170253,26.6080402 C6.14047381,26.6645729 6.13525266,26.7324121 6.13525266,26.7964824 C6.12928563,26.8404523 6.1261778,26.9233668 6.1081524,26.9585427 L6.1081524,27" id="Shape" stroke-width="0.33028162"/><path d="M3.82410293,28.007316 L3.82410293,28.0305543 C3.82410293,27.9695537 3.82225271,28.000054 3.85353819,28.1206027 C3.90904468,28.1743412 4.03923263,28.1888652 4.14772258,28.1656269 C4.24292462,28.1060787 4.239897,28.0596021 4.41247172,28.0305543 C4.57915939,28.0392686 4.64273955,28.0770309 4.73609138,28.1206027 C4.84676795,28.1627221 4.8979012,28.184508 4.97140525,28.2789136 C5.00790498,28.3558904 5.02825735,28.4081766 4.91253473,28.4372245 C4.82052852,28.4880583 4.71119756,28.5156537 4.58891508,28.5287253 C4.45300828,28.5287253 4.35511501,28.5156537 4.29473068,28.5737495 C4.20137886,28.6478216 4.2065931,28.6928458 4.2065931,28.8221088 C4.17513943,28.8627758 4.16891597,28.9818721 4.14772258,29.0268963 C4.06597666,29.0559442 4.01803924,29.0719205 3.88297345,29.0719205 C3.85118337,29.0022056 3.81602926,28.8758474 3.79466767,28.8003229 C3.77162406,28.7189888 3.7645596,28.6057021 3.70636189,28.5505112 C3.6515282,28.4895107 3.58138818,28.4343197 3.50048327,28.3922003 C3.46448815,28.3529857 3.39586195,28.321033 3.32403991,28.3021519 C3.43942613,28.3471761 3.45590988,28.3965575 3.47104801,28.505487 C3.36962252,28.5447016 3.34254208,28.5722971 3.17686361,28.5737495 C3.01404458,28.5635827 2.97468543,28.5316301 2.91211448,28.4604628 C2.90084498,28.5737495 2.85358036,28.6115117 2.8239769,28.7102745 C2.76342436,28.778537 2.73768954,28.8482519 2.6768006,28.9353955 C2.70270363,29.0457774 2.75854652,29.0501346 2.76510638,29.1852072 C2.80328812,29.2738032 2.79908308,29.358042 2.88267922,29.4117806 C2.92001995,29.446638 2.94794139,29.4539 3.02985552,29.4568048 C2.85946741,29.4568048 2.76022854,29.4422809 2.64736534,29.3885423 C2.56006877,29.3478753 2.49413379,29.2955891 2.41205146,29.2534697 C2.30793474,29.1953739 2.17926061,29.1416354 2.05899655,29.1169447 C1.92308975,29.1169447 1.82519648,29.1053255 1.76481215,29.1619689 C1.68155242,29.2084455 1.62554132,29.2868747 1.58836879,29.3885423 C1.56112015,29.5061862 1.55069166,29.5846154 1.61780405,29.6601399 C1.66759169,29.7487359 1.67886119,29.782141 1.61780405,29.8867133 C1.54934605,29.9607854 1.44758415,29.9694997 1.2941844,30 C1.18216221,29.9956428 1.07451326,29.9767617 1,29.9549758" id="Shape" stroke-width="0.33028123"/><path d="M21.7369373,13 C25.8811651,6.16413353 28.63169,0.347211401 27.8746648,0.0148582425 C27.1195807,-0.317309451 23.1442278,4.96028066 19,11.7952198 L21.7369373,13 L21.7369373,13 L21.7369373,13 L21.7369373,13 Z M21.7369373,13" fill="#FFFFFF" id="Shape" stroke-width="0.33520904"/><path d="M22.0803372,13 C25.8776904,6.63729924 28.4947103,1.26594652 27.9211422,1.00952022 C27.347574,0.753093911 23.7991974,5.70822361 20,12.0700296" fill="#FFFFFF" id="Shape" stroke-width="0.29448283"/><path d="M21.6286165,9 C21.1004734,9.67232735 20.5428722,10.4407246 20,11.1594695 L22.3734876,12 C22.9142557,11.2806081 23.5055234,10.5233705 24,9.83988355 L21.6286165,9 L21.6286165,9 L21.6286165,9 L21.6286165,9 Z M21.6286165,9" fill="#FFFFFF" id="Shape" stroke-width="0.33422136"/><path d="M21.3390052,10 C20.8481675,10.7955981 20.5045812,11.4044019 20,12.2549282 L21.6590314,13 C22.1655759,12.1498565 22.5386126,11.5542584 23,10.7454545 L21.3390052,10 L21.3390052,10 L21.3390052,10 L21.3390052,10 Z M21.3390052,10" fill="#FFFFFF" id="Shape" stroke-width="0.33422136"/><rect d="M21,10 L21,12 L22,12 L22,10 L21,10 Z M21,10" fill="#FFFFFF" height="2" id="Rectangle" stroke-width="0.5" transform="translate(21.500000, 11.000000) rotate(204.725686) translate(-21.500000, -11.000000) " width="1" x="21" y="10"/><path d="M22,10 L20,11" fill="#FFFFFF" id="Shape" stroke-width="0.33422136"/><path d="M21.1168212,12 L21,10" fill="#FFFFFF" id="Shape" stroke-width="0.33422136"/><path d="M27,2.47080117 L26,2" fill="#FFFFFF" id="Shape" stroke-width="0.33422136"/><circle cx="27.5" cy="1.5" d="M27.5,2 C27.7761424,2 28,1.77614239 28,1.5 C28,1.22385761 27.7761424,1 27.5,1 C27.2238576,1 27,1.22385761 27,1.5 C27,1.77614239 27.2238576,2 27.5,2 Z M27.5,2" fill="#DB161B" id="Oval" r="0.5" stroke-width="0.5" transform="translate(27.500000, 1.500000) rotate(165.848929) translate(-27.500000, -1.500000) "/></g></g><path d="M12.63099,10 C12.63099,15.6877068 12.6634748,17.8310285 12.2520011,18.1251379 C11.8621839,18.4394672 1,18.1251379 1,19.7500919 C1,21.375046 9.94738742,23 12.63099,23 C16.2097284,23 18,21.375046 18,18.1251379 L18,10 L12.63099,10 L12.63099,10 L12.63099,10 L12.63099,10 Z M12.63099,10" fill="#FFFFFF" id="Shape" stroke-width="0.30510197"/><path d="M13,12 L13,12.7999276 C14.6672269,13.0666908 16.3327731,13.0666908 18,12.7999276 L18,12 C16.3327731,12.2667632 14.6672269,12.2667632 13,12 C13,12 14.6672269,12.2667632 13,12 L13,12 L13,12 Z M13,12" fill="#FFFFFF" id="Shape" stroke-width="0.26422367"/><path d="M13,10 L13,10.8000362 C14.6672269,11.0666546 16.3327731,11.0666546 18,10.8000362 L18,10 C16.3327731,10.2666184 14.6672269,10.2666184 13,10 C13,10 14.6672269,10.2666184 13,10 L13,10 L13,10 Z M13,10" fill="#FFFFFF" id="Shape" stroke-width="0.26422367"/><path d="M13,11 L13,11.7999276 C14.6672269,12.0666908 16.3327731,12.0666908 18,11.7999276 L18,11 C16.3327731,11.2665822 14.6672269,11.2665822 13,11 C13,11 14.6672269,11.2665822 13,11 L13,11 L13,11 Z M13,11" fill="#FFFFFF" id="Shape" stroke-width="0.26422367"/><path d="M13,12 L13,12.8004344 C14.6672269,13.0665219 16.3327731,13.0665219 18,12.8004344 L18,12 C16.3327731,12.2668115 14.6672269,12.2668115 13,12 C13,12 14.6672269,12.2668115 13,12 L13,12 L13,12 Z M13,12" fill="#FFFFFF" id="Shape" stroke-width="0.26422367"/><ellipse cx="13.2486568" cy="11.1753764" fill="#FFFFFF" id="Oval" rx="0.248656839" ry="0.17537636" stroke-width="0.5"/><ellipse cx="14.2486568" cy="11.1753764" fill="#FFFFFF" id="Oval" rx="0.248656839" ry="0.17537636" stroke-width="0.5"/><ellipse cx="15.2486568" cy="11.1753751" fill="#FFFFFF" id="Oval" rx="0.248656839" ry="0.175375138" stroke-width="0.5"/><ellipse cx="16.2486568" cy="11.1753751" fill="#FFFFFF" id="Oval" rx="0.248656839" ry="0.175375138" stroke-width="0.5"/><ellipse cx="17.2486568" cy="11.1753764" fill="#FFFFFF" id="Oval" rx="0.248656839" ry="0.17537636" stroke-width="0.5"/><ellipse cx="18.2486568" cy="11.1753764" fill="#FFFFFF" id="Oval" rx="0.248656839" ry="0.17537636" stroke-width="0.5"/><g fill="#FFFFFF" id="Group" stroke-width="0.26422498" transform="translate(13.000000, 14.000000)"><path d="M1,0 L6,4" id="Shape"/><path d="M1,0 L6,4" id="Shape"/><path d="M2,0 L6,3" id="Shape"/><path d="M2,0 L5,3" id="Shape"/><path d="M3,0 L6,2" id="Shape"/><path d="M3,0 L5,2" id="Shape"/><path d="M4,0 L6,1" id="Shape"/><path d="M4,0 L5,1" id="Shape"/><path d="M5,0 L6,1" id="Shape"/><path d="M5,0 L5.35117647,0.325102041" id="Shape"/><path d="M1,0 L6,4" id="Shape"/><path d="M6,0 L0,5" id="Shape"/><path d="M5,0 L0,4" id="Shape"/><path d="M5,0 L1,3" id="Shape"/><path d="M4,0 L1,3" id="Shape"/><path d="M4,0 L1,2" id="Shape"/><path d="M3,0 L1,2" id="Shape"/><path d="M3,0 L1,1" id="Shape"/><path d="M2,0 L1,1" id="Shape"/><path d="M2,0 L1,1" id="Shape"/><path d="M1.34941176,0 L1,0.325102041" id="Shape"/><path d="M6,0 L0,5" id="Shape"/><path d="M6,1 L0,6" id="Shape"/><path d="M6,1 L0,6" id="Shape"/><path d="M6,2 L0,7" id="Shape"/><path d="M6,2 L0,7" id="Shape"/><path d="M6,3 L0,8" id="Shape"/><path d="M6,3 L0,8" id="Shape"/><path d="M6,4 L0,9" id="Shape"/><path d="M5,4 L0,9" id="Shape"/><path d="M6,5 L1,9" id="Shape"/><path d="M6,6 L2,9" id="Shape"/><path d="M5,6 L2,9" id="Shape"/><path d="M6,7 L4,8" id="Shape"/><path d="M1,1 L6,5" id="Shape"/><path d="M1,1 L6,5" id="Shape"/><path d="M1,2 L6,6" id="Shape"/><path d="M1,2 L6,6" id="Shape"/><path d="M1,3 L6,7" id="Shape"/><path d="M0,3 L5,7" id="Shape"/><path d="M0,4 L4,8" id="Shape"/><path d="M0,4 L4,8" id="Shape"/><path d="M0,4 L4,7" id="Shape"/><path d="M0,5 L4,8" id="Shape"/><path d="M0,5 L3,8" id="Shape"/></g><path d="M13,13 L13,13.8003622 C14.6672269,14.0665459 16.3327731,14.0665459 18,13.8003622 L18,13 C16.3327731,13.2661838 14.6672269,13.2661838 13,13 C13,13 14.6672269,13.2661838 13,13 L13,13 L13,13 Z M13,13" fill="#FFFFFF" id="Shape" stroke-width="0.26422367"/><path d="M13,20 L16,23" fill="#FFFFFF" id="Shape" stroke-width="0.26422498"/><path d="M13,20 L16,22" fill="#FFFFFF" id="Shape" stroke-width="0.26422498"/><path d="M13,21 L16,23" fill="#FFFFFF" id="Shape" stroke-width="0.26422498"/><path d="M13,21 L15,22" fill="#FFFFFF" id="Shape" stroke-width="0.26422498"/><path d="M13,22 L14,23" fill="#FFFFFF" id="Shape" stroke-width="0.26422498"/><path d="M13,22 L14,23" fill="#FFFFFF" id="Shape" stroke-width="0.26422498"/><ellipse cx="13.2486568" cy="13.1753764" fill="#FFFFFF" id="Oval" rx="0.248656839" ry="0.17537636" stroke-width="0.5"/><ellipse cx="14.2486568" cy="14.1753764" fill="#FFFFFF" id="Oval" rx="0.248656839" ry="0.17537636" stroke-width="0.5"/><ellipse cx="15.2486568" cy="14.1753751" fill="#FFFFFF" id="Oval" rx="0.248656839" ry="0.175375138" stroke-width="0.5"/><ellipse cx="16.2486568" cy="14.1753751" fill="#FFFFFF" id="Oval" rx="0.248656839" ry="0.175375138" stroke-width="0.5"/><ellipse cx="17.2486568" cy="14.1753764" fill="#FFFFFF" id="Oval" rx="0.248656839" ry="0.17537636" stroke-width="0.5"/><ellipse cx="18.2486568" cy="13.1753764" fill="#FFFFFF" id="Oval" rx="0.248656839" ry="0.17537636" stroke-width="0.5"/><g fill="#FFFFFF" id="Group" stroke-width="0.26422498" transform="translate(4.000000, 18.000000)"><path d="M1,4 L7,0" id="Shape"/><path d="M1,4 L7,0" id="Shape"/><path d="M1,3 L6,0" id="Shape"/><path d="M0,3 L5,0" id="Shape"/><path d="M0,2 L4,0" id="Shape"/><path d="M0,2 L3,0" id="Shape"/><path d="M0,1 L2,0" id="Shape"/><path d="M0,1 L2,0" id="Shape"/><path d="M2,4 L8,0" id="Shape"/><path d="M2,4 L8,1" id="Shape"/><path d="M3,4 L8,1" id="Shape"/><path d="M3,5 L7,2" id="Shape"/><path d="M4,4 L8,2" id="Shape"/><path d="M4,5 L7,3" id="Shape"/><path d="M5,5 L8,3" id="Shape"/><path d="M6,5 L8,4" id="Shape"/><path d="M6,5 L7,4" id="Shape"/><path d="M7,5 L8,4" id="Shape"/></g><path d="M13,18 L12.1996773,18 C11.9334409,19.6666667 11.9334409,21.3333333 12.1996773,23 L13,23 C12.7321501,21.3333333 12.7321501,19.6666667 13,18 C13,18 12.7321501,19.6666667 13,18 L13,18 L13,18 Z M13,18" fill="#FFFFFF" id="Shape" stroke-width="0.26422367"/><path d="M2,21 L4,19" fill="#FFFFFF" id="Shape" stroke-width="0.26422498"/><path d="M2,19 L4,21" fill="#FFFFFF" id="Shape" stroke-width="0.26422498"/><path d="M5,18 L4.14285714,18.1422414 C3.95238095,19.0474138 3.95238095,19.8087284 4.14285714,20.7139009 L5,21 C4.80952381,20.0948276 4.80952381,18.9051724 5,18 C5,18 4.80952381,18.9051724 5,18 L5,18 L5,18 Z M5,18" fill="#FFFFFF" id="Shape" stroke-width="0.18807621"/><path d="M18,10 L18,9.08686745 C17.2510939,9.09444786 16.7495793,8.55111657 16.7495793,8 L14.2504207,8.00758041 C14.2504207,8.55111657 13.750589,9.09444786 13,9.09444786 L13,10 L18,10 L18,10 L18,10 L18,10 Z M18,10" fill="#FFFFFF" id="Shape" stroke-width="0.32342911"/><rect d="M15,7 L15,8 L17,8 L17,7 L15,7 Z M15,7" fill="#FFFFFF" height="1" id="Rectangle" stroke-width="0.27335" width="2" x="15" y="7"/><rect d="M15,7 L15,8 L17,8 L17,7 L15,7 Z M15,7" fill="#FFFFFF" height="1" id="Rectangle" stroke-width="0.27335" width="2" x="15" y="7"/><rect d="M15,6 L15,7 L17,7 L17,6 L15,6 Z M15,6" fill="#FFFFFF" height="1" id="Rectangle" stroke-width="0.27335" width="2" x="15" y="6"/><rect d="M15,4 L15,5 L17,5 L17,4 L15,4 Z M15,4" fill="#FFFFFF" height="1" id="Rectangle" stroke-width="0.27335" width="2" x="15" y="4"/><rect d="M15,3 L15,4 L17,4 L17,3 L15,3 Z M15,3" fill="#FFFFFF" height="1" id="Rectangle" stroke-width="0.28488" width="2" x="15" y="3"/><ellipse cx="16.5" cy="1.5" d="M16.5,3 C17.8807119,3 19,2.32842717 19,1.5 C19,0.671572834 17.8807119,0 16.5,0 C15.1192881,0 14,0.671572834 14,1.5 C14,2.32842717 15.1192881,3 16.5,3 Z M16.5,3" fill="#FFFFFF" id="Oval" rx="2.5" ry="1.5" stroke-width="0.5"/><path d="M16.5005423,1.42096803 C16.5005423,1.83514913 17,2.52634399 17,2.52634399 C16.6372017,2.79782104 16.0515184,3 15.5,3 C14.9484816,3 14.2603037,2.8873013 14,2.52634399 C14,2.52634399 14.4994577,1.83514913 14.4994577,1.42096803 C14.4994577,1.00696553 14,0.47365601 14,0.47365601 C14.3611714,0.202178961 14.9484816,0 15.5,0 C16.0515184,0 16.6372017,0.202178961 17,0.47365601 C17,0.47365601 16.5005423,1.00696553 16.5005423,1.42096803 C16.5005423,1.42096803 16.5005423,1.00696553 16.5005423,1.42096803 L16.5005423,1.42096803 L16.5005423,1.42096803 Z M16.5005423,1.42096803" fill="#FFFFFF" id="Shape" stroke-width="0.26859274"/><path d="M17.3577406,1.4201104 C17.3577406,1.83404152 18,2.68260925 18,2.68260925 C17.5355649,2.95392244 17.209205,2.99818933 16.5,2.99818933 C15.790795,2.99818933 15.334728,3.0433487 15,2.68260925 C15,2.68260925 15.6422594,1.83404152 15.6422594,1.4201104 C15.6422594,1.00635777 15,0.315580088 15,0.315580088 C15.4644351,0.0442668902 15.790795,0 16.5,0 C17.209205,0 17.5355649,0.0442668902 18,0.315580088 C18,0.315580088 17.3577406,1.00635777 17.3577406,1.4201104 C17.3577406,1.4201104 17.3577406,1.00635777 17.3577406,1.4201104 L17.3577406,1.4201104 L17.3577406,1.4201104 Z M17.3577406,1.4201104" fill="#FFFFFF" id="Shape" stroke-width="0.26859274"/><circle cx="13.5" cy="2.5" d="M13.5,3 C13.7761424,3 14,2.77614239 14,2.5 C14,2.22385761 13.7761424,2 13.5,2 C13.2238576,2 13,2.22385761 13,2.5 C13,2.77614239 13.2238576,3 13.5,3 Z M13.5,3" fill="#FFFFFF" id="Oval" r="0.5" stroke-width="0.5"/><circle cx="18.5" cy="2.5" d="M18.5,3 C18.7761424,3 19,2.77614239 19,2.5 C19,2.22385761 18.7761424,2 18.5,2 C18.2238576,2 18,2.22385761 18,2.5 C18,2.77614239 18.2238576,3 18.5,3 Z M18.5,3" fill="#FFFFFF" id="Oval" r="0.5" stroke-width="0.5"/><circle cx="16.5" cy="2.5" d="M16.5,3 C16.7761424,3 17,2.77614239 17,2.5 C17,2.22385761 16.7761424,2 16.5,2 C16.2238576,2 16,2.22385761 16,2.5 C16,2.77614239 16.2238576,3 16.5,3 Z M16.5,3" fill="#FFFFFF" id="Oval" r="0.5" stroke-width="0.5"/><circle cx="16.5" cy="0.5" d="M16.5,1 C16.7761424,1 17,0.776142389 17,0.5 C17,0.223857611 16.7761424,0 16.5,0 C16.2238576,0 16,0.223857611 16,0.5 C16,0.776142389 16.2238576,1 16.5,1 Z M16.5,1" fill="#FFFFFF" id="Oval" r="0.5" stroke-width="0.5"/><circle cx="14.5" cy="9.5" d="M14.5,10 C14.7761424,10 15,9.77614239 15,9.5 C15,9.22385761 14.7761424,9 14.5,9 C14.2238576,9 14,9.22385761 14,9.5 C14,9.77614239 14.2238576,10 14.5,10 Z M14.5,10" fill="#FFFFFF" id="Oval" r="0.5" stroke-width="0.5"/><circle cx="17.5" cy="9.5" d="M17.5,10 C17.7761424,10 18,9.77614239 18,9.5 C18,9.22385761 17.7761424,9 17.5,9 C17.2238576,9 17,9.22385761 17,9.5 C17,9.77614239 17.2238576,10 17.5,10 Z M17.5,10" fill="#FFFFFF" id="Oval" r="0.5" stroke-width="0.5"/><path d="M15,8 L18,8 L16.5010101,9 L15,8 L15,8 L15,8 L15,8 Z M15,8" fill="#FFFFFF" id="Shape" stroke-width="0.27334673"/><ellipse cx="16" cy="9.5" d="M16,10 C16.5522848,10 17,9.77614239 17,9.5 C17,9.22385761 16.5522848,9 16,9 C15.4477152,9 15,9.22385761 15,9.5 C15,9.77614239 15.4477152,10 16,10 Z M16,10" fill="#FFFFFF" id="Oval" rx="1" ry="0.5" stroke-width="0.5"/><rect d="M13.4904785,14 C13.2195947,14 13,14.2319336 13,14.5 L13,14.5 C13,14.7761424 13.2150574,15 13.4904785,15 L16.5095215,15 C16.7804053,15 17,14.7680664 17,14.5 L17,14.5 C17,14.2238576 16.7849426,14 16.5095215,14 L13.4904785,14 Z M13.4904785,14" fill="#FFFFFF" height="1" id="Rectangle" rx="1.2377" stroke-width="0.33028" width="4" x="13" y="14"/><path d="M19,14 C18.4455645,14 18,14.3107089 18,14.6968326 L18,15.3031674 C18,15.6892911 18.4455645,16 19,16 C19.5544355,16 20,15.6892911 20,15.3031674 L20,14.6968326 C20,14.3107089 19.5544355,14 19,14 L19,14 L19,14 L19,14 Z M18.5008403,14 C18.2235294,14 18,14.1697531 18,14.3806584 L18,14.6203704 C18,14.8312757 18.2235294,15 18.5008403,15 C18.7781513,15 19,14.8312757 19,14.6203704 L19,14.3806584 C19,14.1697531 18.7781513,14 18.5008403,14 L18.5008403,14 L18.5008403,14 L18.5008403,14 Z M18.5008403,14" fill="#FFFFFF" id="Shape" stroke-width="0.33028123"/><path d="M13.5,14 C13.2222222,14 13,14.2854656 13,14.6422977 L13,15.3559617 C13,15.7127937 13.2222222,16 13.5,16 C13.7777778,16 14,15.7127937 14,15.3559617 L14,14.6422977 C14,14.2854656 13.7777778,14 13.5,14 L13.5,14 L13.5,14 L13.5,14 Z M14,14 C13.4455645,14 13,14.4111776 13,14.9221557 L13,16.0778443 C13,16.5888224 13.4455645,17 14,17 C14.5544355,17 15,16.5888224 15,16.0778443 L15,14.9221557 C15,14.4111776 14.5544355,14 14,14 L14,14 L14,14 L14,14 Z M14,14" fill="#FFFFFF" id="Shape" stroke-width="0.33028123"/><path d="M11.5008403,14 C11.2235294,14 11,14.1973684 11,14.4425837 L11,14.5574163 C11,14.8026316 11.2235294,15 11.5008403,15 C11.7781513,15 12,14.8026316 12,14.5574163 L12,14.4425837 C12,14.1973684 11.7781513,14 11.5008403,14 L11.5008403,14 L11.5008403,14 L11.5008403,14 Z M12,14 C11.4455645,14 11,14.3465097 11,14.7771236 L11,15.2228764 C11,15.6534903 11.4455645,16 12,16 C12.5524194,16 13,15.6534903 13,15.2228764 L13,14.7771236 C13,14.3465097 12.5524194,14 12,14 L12,14 L12,14 L12,14 Z M12,14" fill="#FFFFFF" id="Shape" stroke-width="0.33028123"/><path d="M10,13 C9.44485981,13 9,13.2866044 9,13.6433022 L9,14.3566978 C9,14.7133956 9.44485981,15 10,15 C10.5551402,15 11,14.7133956 11,14.3566978 L11,13.6433022 C11,13.2866044 10.5551402,13 10,13 L10,13 L10,13 L10,13 Z M9.5,13 C8.66928251,13 8,13.4125 8,13.9232143 L8,15.0785714 C8,15.5892857 8.66928251,16 9.5,16 C10.3307175,16 11,15.5892857 11,15.0785714 L11,13.9232143 C11,13.4125 10.3307175,13 9.5,13 L9.5,13 L9.5,13 L9.5,13 Z M9.5,13" fill="#FFFFFF" id="Shape" stroke-width="0.33028102"/><path d="M22.0009337,14 C21.4463119,14 21,14.2879377 21,14.644358 L21,15.3571984 C21,15.7136187 21.4463119,16 22.0009337,16 C22.5536881,16 23,15.7136187 23,15.3571984 L23,14.644358 C23,14.2879377 22.5536881,14 22.0009337,14 L22.0009337,14 L22.0009337,14 L22.0009337,14 Z M21.5008403,14 C20.6689076,14 20,14.4109589 20,14.9219774 L20,16.0780226 C20,16.5890411 20.6689076,17 21.5008403,17 C22.3310924,17 23,16.5890411 23,16.0780226 L23,14.9219774 C23,14.4109589 22.3310924,14 21.5008403,14 L21.5008403,14 L21.5008403,14 L21.5008403,14 Z M21.5008403,14" fill="#FFFFFF" id="Shape" stroke-width="0.33028102"/><rect d="M19.5046844,14 C19.2259549,14 19,14.2319336 19,14.5 L19,14.5 C19,14.7761424 19.214035,15 19.5046844,15 L20.4953156,15 C20.7740451,15 21,14.7680664 21,14.5 L21,14.5 C21,14.2238576 20.785965,14 20.4953156,14 L19.5046844,14 Z M19.5046844,14" fill="#FFFFFF" height="1" id="Rectangle" rx="0.64577" stroke-width="0.33028" width="2" x="19" y="14"/><rect d="M17.3837662,14 C17.171818,14 17,14.1741867 17,14.3837662 L17,14.6162338 C17,14.828182 17.1741867,15 17.3837662,15 L17.6162338,15 C17.828182,15 18,14.8258133 18,14.6162338 L18,14.3837662 C18,14.171818 17.8258133,14 17.6162338,14 L17.3837662,14 Z M17.3837662,14" fill="#FFFFFF" height="1" id="Rectangle" rx="0.3767" stroke-width="0.33028" width="1" x="17" y="14"/><rect d="M11.3837662,14 C11.171818,14 11,14.1741867 11,14.3837662 L11,14.6162338 C11,14.828182 11.1741867,15 11.3837662,15 L11.6162338,15 C11.828182,15 12,14.8258133 12,14.6162338 L12,14.3837662 C12,14.171818 11.8258133,14 11.6162338,14 L11.3837662,14 Z M11.3837662,14" fill="#FFFFFF" height="1" id="Rectangle" rx="0.3767" stroke-width="0.33028" width="1" x="11" y="14"/><rect d="M7.75702667,14 C7.33893239,14 7,14.3302593 7,14.7447262 L7,15.2552738 C7,15.6665747 7.34413815,16 7.75702667,16 L9.24297333,16 C9.66106761,16 10,15.6697407 10,15.2552738 L10,14.7447262 C10,14.3334253 9.65586185,14 9.24297333,14 L7.75702667,14 Z M7.75702667,14" fill="#FFFFFF" height="2" id="Rectangle" rx="0.7534" stroke-width="0.33028" width="3" x="7" y="14"/><rect d="M23.6995029,14 C23.3131781,14 23,14.3125 23,14.6995029 L23,15.3004971 C23,15.6868219 23.3125,16 23.6995029,16 L24.3004971,16 C24.6868219,16 25,15.6875 25,15.3004971 L25,14.6995029 C25,14.3131781 24.6875,14 24.3004971,14 L23.6995029,14 Z M23.6995029,14" fill="#FFFFFF" height="2" id="Rectangle" rx="0.69959" stroke-width="0.33028" width="2" x="23" y="14"/></g></g></g></g></svg>