<?xml version="1.0" encoding="UTF-8" standalone="no"?>
<svg width="180px" height="120px" viewBox="0 0 180 120" version="1.1" xmlns="http://www.w3.org/2000/svg" xmlns:xlink="http://www.w3.org/1999/xlink">
    <!-- Generator: Sketch 40.2 (33826) - http://www.bohemiancoding.com/sketch -->
    <title>icon-flag-bm</title>
    <desc>Created with Sketch.</desc>
    <defs></defs>
    <g id="Page-1" stroke="none" stroke-width="1" fill="none" fill-rule="evenodd">
        <rect id="Rectangle-57" fill="#CA4638" x="0" y="0" width="180" height="120"></rect>
        <rect id="rect962-copy" fill="#346DA6" x="0" y="0" width="89.5" height="60"></rect>
        <polygon id="White_Diagonal" fill="#FFFFFF" points="45 23.3 10.1 0 0 0 0 6.7 34.9 30 0 53.3 0 60 10.1 60 45 36.7 79.9 60 90 60 90 53.3 55.1 30 90 6.7 90 0 79.9 0 45 23.3 45 23.3 45 23.3"></polygon>
        <path d="M57.7,32.7 L90,54.8 L90,60 L50,32.7 L57.7,32.7 L57.7,32.7 Z M47.7,33 L39.7,33 L0,60 L8,60 L47.7,33 L47.7,33 Z M43.8,26 L51,26 L89.5,0 L82.3,0 L43.8,26 L43.8,26 Z M29.4,25 L0,5.2 L0,0 L37.2,25 L29.4,25 L29.4,25 Z" id="Path" fill="#CA4638"></path>
        <polygon id="Rectangle-3" fill="#FFFFFF" points="36 22 36 0 53 0 53 22 90 22 90 39 53 39 53 60 36 60 36 39 0 39 0 22"></polygon>
        <polygon id="Rectangle-3_1_" fill="#CA4638" points="38 24 38 0 51 0 51 24 90 24 90 37 51 37 51 60 38 60 38 37 0 37 0 24"></polygon>
        <path d="M115,49 L115,97.4 C115.6,104.3 129.5,108.7 139.2,116 C152,107.1 164.3,105.4 164.8,95.4 L165,49 L115,49 L115,49 L115,49 L115,49 L115,49 L115,49 Z" id="use2386" fill="#FFFFFF"></path>
        <polygon id="path3198" fill="#2F8F22" points="115 96.8 115.5 99.6 117.2 101.8 129.7 110.2 138.8 116.1 156.6 106 162.7 101.1 163.9 94.7 163.2 93.2 163.4 94.8 162.9 96.1 162.4 95.7 162.1 93.4 162 95.1 161.1 96.1 160.9 94.8 161.1 93.9 160.8 92.9 160.7 94.9 160.2 95.8 159.8 95.2 160 94.3 159.9 93.5 159.6 93.1 159.5 94 159.3 94.3 159.4 94.8 159.1 95.2 158.9 94.5 159 93.8 158.9 93.2 158.7 92.5 158.8 93.6 158.2 94.9 157.7 95.2 157.4 94.8 157.5 93.5 157.1 92.8 157.2 94.4 156.6 95.8 156.3 95.4 156.1 95 156.1 94.3 156.7 92.6 156.1 93.2 155.6 94.6 155.4 95 155.1 94.3 155.5 92.7 155.3 92.4 154.8 94.4 154.3 94.7 154 94.6 153.8 94.7 126 96.2 125.3 95.1 125.1 96.2 124.6 96.6 124.1 94.5 123.8 96.7 123.3 95.6 123.5 93.1 123.3 92.9 123 94.2 123 96.1 122.8 97.4 122.5 97.2 122 96.1 121.9 94.2 122.1 92.9 121.6 94.5 121.6 96.4 121.5 97.4 120.9 96.1 120.6 95 120 93.7 120.3 95.3 120.3 96.1 119.3 95.2 118.8 92.7 118.7 94.6 118.9 95.5 118.6 95.9 118 94.8 117.7 93.4 117.3 92 117.3 94.2 117.6 95.4 117.4 95.7 116.9 95.5 116.7 94.2 116.6 92.3 116.1 93.6 116 95 115.8 96.1 115.5 96.8 115 96.8 115 96.8 115 96.8"></polygon>
        <path d="M139.8,52 L138.6,52 L138.4,52.4 L138.4,53 L138.3,53.2 L138.3,53.5 L137.6,53.5 L137.1,53.2 L137,53.4 L136.5,54.7 L136.2,54.9 L135.9,54.9 L135.5,55.3 L135.1,55.3 L135.1,55.7 L135.5,56.2 L135.8,56.4 L135.9,56.9 L136.2,57.4 L135.8,57.8 L135.5,58.1 L135.3,58.4 L135.2,58.4 L135.1,58.1 L135,57.8 L134.6,58 L134.3,58.2 L134.3,58.6 L134.8,59.3 L135.3,59.3 L134.8,60.2 L134.7,59.7 L134.5,59.5 L134.4,59.5 L134.1,59.7 L133.9,60.1 L133.8,60.3 L133.7,60.5 L133.6,60.8 L133.6,61.1 L133.9,61.4 L134.2,61.6 L134.7,61.8 L134.9,61.8 L135.9,61.8 L135.6,62.4 L135.3,63.1 L135,63.7 L134.8,63.8 L134.7,63.7 L134.7,63.4 L135.1,62.5 L135.1,62.2 L134.9,62.3 L134.6,62.3 L134.5,62.2 L133.9,62.7 L133.5,63.3 L133.4,63.7 L133.5,64.3 L133.8,64.9 L134.1,65.1 L134.3,65.2 L134.3,65.5 L134.5,65.7 L134.9,65.9 L134.8,66.1 L134.5,66.4 L134.3,66.7 L134.2,67.1 L134.4,67.6 L134.2,67.9 L133.8,68 L133.2,68.1 L132.8,68.3 L132.7,68.7 L132.5,69.1 L131.8,69.4 L131.2,69.5 L130.6,69.6 L130.2,69.6 L130,69.3 L130,69 L129.7,68.4 L129.4,68 L128.8,67.8 L128.4,67.8 L128,67.9 L127.7,68.3 L127.4,68.3 L127,67.8 L126.7,67.6 L126.5,67.6 L126.1,67.7 L125.4,68.4 L125,68.4 L124.6,68.1 L124.2,68.4 L124,68.5 L123.6,68.9 L123.6,69.4 L123.8,70 L124,70.2 L124.2,70.3 L124.3,70.8 L124.4,71 L124.9,71.5 L124.5,72.1 L124.4,72.5 L124.4,73.1 L124.5,73.4 L125.3,74.4 L125.3,74.6 L124.6,75.1 L123.9,75.7 L123.7,76.2 L123.7,76.6 L123.1,77.2 L123,77.8 L123.1,78.8 L123.4,79.2 L123.9,79.5 L124.3,79.6 L124.8,79.6 L125.2,79.3 L125.5,79.1 L125.6,78.4 L126.1,78.7 L126.7,79.4 L127.1,80.1 L127.1,80.3 L126.4,80.3 L126.1,80.2 L125.4,80.2 L125,80.4 L124.7,80.4 L124.5,80.3 L124.1,80.5 L123.3,80.9 L122.6,81.3 L122.3,81.3 L121.9,81.6 L121.6,81.7 L121.1,82.3 L121,82.7 L121,83.4 L121.2,83.9 L121.2,84.7 L121.3,84.9 L121.2,85.4 L120.9,85.8 L120.9,86.1 L120.8,86.5 L120.6,86.8 L120.6,87.6 L120.5,88.4 L120.5,89.5 L120.5,90.5 L120.2,91.1 L119.9,91.4 L119.8,91.8 L119.7,92.1 L120.1,92.1 L120.3,91.9 L120.2,92.2 L121,91.4 L121.1,91.7 L121.4,91.4 L121.4,90.8 L121.4,90.5 L121.6,91 L121.7,91.1 L122,90.9 L122.1,90.6 L122.2,91.1 L122.3,91.3 L122.7,90.9 L122.7,89.9 L122.5,89.3 L122.9,90.1 L123,90.4 L123.3,90.9 L123.4,91.5 L123.9,91.4 L124.1,89.9 L124.5,91.2 L125,93.1 L125.3,94.2 L125.7,94.9 L125.9,95.6 L126.2,96.2 L126.7,96.9 L127.3,97.3 L128,97.5 L129,97.5 L129,97.9 L128.6,98.2 L128.5,98.5 L128.1,99.2 L127.8,99.5 L126.8,99.5 L126.2,99.2 L125.9,99.1 L125.2,99.2 L124.7,99.6 L124.5,99.6 L124,99.8 L123.7,100.1 L123.6,100.5 L123.3,101 L123.2,101.3 L123.3,101.7 L123.1,102 L123.1,103.2 L123.4,103.9 L123.9,104.4 L124.2,104.6 L124.4,104.5 L124.4,103.7 L124.6,103.3 L124.9,103.5 L125.4,103.3 L125.8,103.6 L125.7,104.2 L125.8,104.9 L126.1,105.6 L126.6,106.3 L127,106.6 L127,106.4 L127,104.8 L127.3,104.5 L127.7,104.5 L128.2,104.1 L128.5,104 L128.7,103.8 L128.7,103.5 L128.9,103.6 L129,104.1 L129,104.7 L129,104.9 L129.4,105.1 L130.3,104.2 L130.5,103.7 L130.6,102.9 L130.8,102.7 L130.8,102.5 L130.6,102.2 L130.8,102.1 L131.1,102.2 L131.6,101.9 L131.9,101.6 L132.1,101.5 L133.2,100.4 L134,100.7 L135.2,101.2 L136,101.4 L136.2,101.5 L136.6,101.5 L137,101.7 L137.4,102.2 L137.5,102.4 L137.4,102.5 L137,102.3 L136.8,102.4 L136.3,102.8 L136.3,103.6 L136.8,104.2 L137.9,104.3 L138.4,104.1 L138.8,104.3 L139.3,104.1 L139.8,103.9 L140.5,104.2 L140.9,104.3 L141.2,104.2 L141.5,104 L142,104.1 L142.5,104.1 L142.8,103.9 L143.1,103.5 L143.2,103.2 L143.1,102.8 L142.8,102.5 L142.5,102.4 L142.2,102.4 L142.2,102.2 L142.6,101.9 L144.2,101.1 L144.5,101.1 L144.9,100.8 L145.3,100.8 L146,100.3 L146.3,100.4 L146.6,100.6 L147.1,101.1 L147.5,101.6 L147.8,101.8 L148.1,102.3 L148.5,102.7 L148.8,102.9 L149.1,102.9 L148.9,103.2 L148.8,103.5 L148.9,104 L148.7,104.6 L148.7,105.3 L148.9,105.9 L149.2,105.7 L150.2,104.7 L150.6,104.7 L151,104.4 L151.2,103.8 L151.3,103.4 L151.5,103.6 L151.7,104.2 L152.2,104.7 L152.5,104.8 L152.5,105.5 L152.5,106.3 L152.7,106.4 L153.2,106 L153.7,105.4 L154,104.7 L154.1,104 L154,103.4 L154,103 L154.1,102.6 L154.6,103.1 L155,103.3 L155.2,104.5 L155.6,104.3 L156,103.8 L156.4,103.2 L156.5,102.5 L156.4,101.5 L156.3,100.5 L155.7,99.7 L155.5,99.6 L155.2,99.3 L155.2,99.1 L154.4,98.5 L153.8,98.4 L153.3,98.6 L153,99.1 L152.8,99.1 L152.2,98.6 L152.2,98.2 L151.9,97.9 L152.2,97.5 L152.6,97.5 L153.2,97.2 L153.7,96.8 L154.2,96.2 L154.6,95.6 L154.7,94.9 L155,94.1 L155.4,92.7 L155.7,91.5 L156.1,91.3 L156.6,91.1 L157,90.7 L157.2,90.7 L157.4,90.4 L157.6,90.4 L157.7,89.9 L157.8,89.7 L158.1,89.6 C158.1,89.6 158.2,90.3 158.1,90.4 C158,90.5 157.6,91.4 157.6,91.4 L157.5,92 L157.5,92.2 L157.9,92.3 L158.4,92.1 L158.6,92.1 L159.1,91.5 L159.6,90.6 L159.8,89.7 L160,90 L160,90.5 L159.8,91.2 L159.7,91.8 L159.6,92 L159.7,92.3 L160.1,92 L160.5,91.9 L161.6,90.7 L162,89.1 L162,87.6 L161.9,87.4 L162.1,87.1 L162.1,86.6 L161.9,86.1 L161.6,85.8 L161.1,86.2 L160.8,86.2 L160.5,85.6 L160.5,84.7 L160.4,84.5 L160.4,84.2 L160.7,83.7 L160.7,82.9 L160.4,82.1 L160,81.5 L159.7,81.4 L159.3,81.4 L158.9,81.1 L158.7,81 L158.4,81 L158.1,80.6 L157.6,80.6 L157.3,80.4 L157,80.5 C157,80.5 156.5,80.4 156.4,80.3 L156,80.3 L155.6,79.9 L155.5,80 L155,80 L154.2,79.7 L154.3,79.5 L154.9,79 L155.3,78.8 L155.9,79.3 L156.4,79.6 L157,79.8 L157.7,79.6 L158.2,79.1 L158.1,78.6 L158,77.5 L157.5,76.8 L157.2,75.5 L156.6,74.7 L156.4,74.4 L156.3,74 L156.4,73.5 L157.2,73 L157.5,72.5 L157.4,71.8 L157.2,71.2 L156.6,70.3 L157,70 L157.3,69.4 L157.4,69.1 L157.3,68.7 L157.1,68.4 L157.2,68.3 L157,68 L156.3,67.8 L155.8,67.6 L155.6,67.7 L154.9,67.6 L154.6,67.8 L154,68 L153.3,68.3 L152.8,68.4 L151.9,69 L151.3,69.3 L150.1,69.3 L149.6,69.2 L148.7,68.3 L148.5,68.2 L148.4,67.8 L148.1,67.7 L147.7,67.9 L147.8,67.4 L147.7,66.8 L147.3,66.1 L146.9,65.9 L146.3,65.7 L146.1,66.2 L146.2,66.9 L145.9,67.1 L145.8,66.6 L145.8,65.8 L145.6,65.3 L145.2,64.5 L145.7,65.2 L146.1,65.3 L146.6,65.5 L147.1,65.6 L147.7,65.4 L148,65.1 L148.4,64.6 L148.4,64 L148,63.5 L148,63.2 L148.2,62.9 L147.9,62.6 L147.3,62.6 L147,63 L146.9,63.5 L146.9,63.7 L146.7,63.6 L146.5,63.2 L146.3,62.3 L146.1,62 L145.9,61.5 L145.5,60.9 L146.1,61.7 L146.4,62 L147,62.3 L147.4,62.4 L147.9,62.3 L148.4,62.2 L148.6,61.8 L148.8,61.3 L148.8,61 L148.7,60.7 L148.5,59.6 C148.5,59.6 148.2,59.7 148.1,59.8 C148,59.9 147.8,60.3 147.8,60.3 L147.7,60.6 L147.4,60.5 L147.1,60.1 L146.8,59.8 L146.6,59.6 L146.8,59.6 C146.8,59.6 146.9,59.7 147.2,59.4 C147.5,59.2 147.7,59.1 147.7,59.1 C147.7,59.1 147.8,59 147.9,58.9 C148,58.8 148.2,58 148.2,58 L148.2,57.6 L147.8,57.8 L147.3,58.1 L146.8,58.1 L146.2,57.5 L146.3,57.3 L146.7,57 L147,56.4 L147.3,55.3 C147.3,55.3 147.2,55.2 147.1,55.2 C146.9,55.2 146.8,54.9 146.8,54.9 L146.5,54.7 L146.1,54.3 L146.1,52.8 L145.6,52.7 L144.5,52.8 L144.2,52.2 L144.1,51.9 L144,51.5 L143.5,51.7 L142.8,51.9 L142.6,51.9 L142.3,51.6 L142,51.5 L141.6,51.2 L141,51 L139.8,52 L139.8,52 L139.8,52 L139.8,52 L139.8,52 Z" id="path3200" stroke="#000000" stroke-width="0.1" fill="#000000"></path>
        <polygon id="path3181" stroke="#000000" stroke-width="0.1" fill="#DFDA4D" points="126.1 71.7 126.7 72.3 127.1 72.6 127.4 72.7 127.8 73 128.7 73 129.5 72.9 129.9 72.7 130.7 72.7 131.3 72.4 131.8 72.1 132.3 72.1 132.5 71.8 132.8 71.8 133.5 71.2 134.4 70.7 135.4 70.3 136.5 70.1 136.9 70.1 137.1 70.2 137.3 70.6 137.4 70.8 137.3 71.2 136.9 71.5 136.8 71.2 137 71 136.9 70.9 136.5 70.8 136.2 70.8 136 71.1 136 71.7 136.3 72 136.7 72.3 137 72.3 137.4 72 137.9 71.5 138 71 137.9 70.2 137.7 69.7 137.2 69.3 136.6 69 135.5 69 134.9 69.2 134.7 69.3 134 69.8 133.7 69.8 133 70.3 132.7 70.4 132.4 70.5 131.9 70.7 131 71.2 130.4 71.6 130.1 71.6 129.4 72.1 128.4 72.2 128.2 72.1 127.7 72 127.4 71.9 127.1 71.7 126.7 71.1 126.6 71 126.2 71 126.1 71.2 126.1 71.7 126.1 71.7 126.1 71.7"></polygon>
        <polygon id="path3191" stroke="#000000" stroke-width="0.1" fill="#D9D24D" points="138.1 70 138.2 71.2 138 72 138.4 72 138.9 72 139.3 71.9 139.7 71.9 140.1 71.9 140.4 71.9 140.8 71.7 140.8 71.3 140.7 71 140.9 70.2 140.8 70 138.1 70 138.1 70 138.1 70"></polygon>
        <polygon id="path3201" stroke="#000000" stroke-width="0.1" fill="#D9D34A" points="143.7 70.8 143.6 70.9 143.4 70.8 143.3 70.5 143.5 70.3 144 70.3 144.4 70.6 144.4 71.1 143.8 71.3 143.2 71.4 142.5 71.2 142.1 70.7 142 70.4 142.1 69.8 142.2 69.4 142.8 69 143.4 68.8 144.1 68.7 145 68.9 146.7 69.4 147.9 69.8 149.2 70.4 150 71 151 71.4 151.6 71.6 152.3 71.5 152.6 71.5 153.2 71.3 153.6 71.3 154.5 70.4 154.9 70.2 154.9 70.6 154.3 71.2 153.8 71.7 153.6 71.7 153.3 71.9 152.7 71.9 151.4 72 150.8 71.8 149.8 71.6 148.7 71.2 147.8 70.8 147.4 70.7 146.7 70.4 146.3 70.4 146.1 70.3 145.4 70.1 144.8 69.9 144.2 69.8 143.7 69.7 143.5 69.8 143.3 70.1 143.2 70.4 143.4 70.8 143.7 70.8 143.9 70.7 144 70.6 143.7 70.8 143.7 70.8 143.7 70.8"></polygon>
        <path d="M132.6,74 L132,74.1 L131.6,74.2 L131.3,74.4 L131.1,74.3 L131,74.4 L130.5,74.1 L129.9,74.5 L129.6,74.8 L129.4,74.8 L129.3,74.6 L129,74.8 L128.8,74.6 L128.6,74.5 L127.5,75.4 L127.1,75.3 L126.9,75.5 L126.8,75.6 L126.8,75.8 L126.6,75.3 L126.5,75.4 L126.2,75.3 L126,75.6 L126,76.3 L126.1,77.2 L126.4,78.2 L126.7,78.6 L126.9,78.6 L127,78.3 L127.1,78.8 L127.3,79 L127.4,80 L128.1,81.7 L128.2,82.5 L128.2,84 L127.9,84.3 L127.6,84.8 L127.6,85 L127.3,85.7 L127.3,86.8 L127.4,86.9 L127.4,87.9 L127.7,87.9 L127.9,88.1 L128.4,88.1 L128.4,87.8 L128.5,88.2 L128.9,88.7 L129.2,89 L129.4,89 L129.5,88.8 L129.5,87.7 L129.6,88.9 L129.8,88.9 L130.1,88.6 L130.5,88.5 L130.6,88.5 C130.6,88.5 130.7,88.6 130.8,88.7 C130.9,88.8 131,88.9 131,88.9 L131.1,89.2 L131,89 L131.1,88.8 L131,86.4 L130.9,84.4 L130.8,81.9 L130.7,78.7 L130.7,77.7 L130.6,77.6 L130.6,77.3 L131,77.2 L131.2,77.1 L131.1,76.8 L131,75.8 L131,75.4 L131.1,75.3 L131.4,75.3 L131.6,75.5 L131.9,77 L132.1,77.1 L132.7,77.1 L134.1,79.5 L134.6,80.3 L135.3,81.7 L136.2,83.1 L136.5,83.5 L136.7,83.5 L136.8,82 L137.2,81.6 L136.9,79 L136.6,78.9 L136.2,78.5 L136,78.5 L135.8,78.9 L135.5,78.6 L135.5,78.2 L135.3,78 L135.1,78 L134.9,77.7 L134.8,77.7 L134.7,77.8 L134.7,76.6 L134.5,76.1 L134.5,75.8 L134.1,75.1 L133.7,75 C133.7,75 133.5,74.5 133.5,74.4 C133.5,74.3 133.4,74.1 133.4,74.1 L132.6,74 L132.6,74 L132.6,74 L132.6,74 L132.6,74 Z" id="path2221" stroke="#000000" stroke-width="0.1" fill="#E4CB5E"></path>
        <path d="M130.4,95.5 L130.1,95.8 L129.7,95.5 L129.9,95 L130.6,94.9 L131,95.5 L130.8,96.1 L130.3,96.7 L129.6,96.9 L129,97 L128.2,97 L127.2,96.7 L126.4,95.6 L125.8,94.3 L125.3,93.2 L124.8,90.9 L124.5,89.9 L124.4,89 L123.8,87.8 L124,87.6 L126,85.7 L126.1,85.7 L126.5,85.3 L127.2,83.8 L127.3,83.7 L127.5,82.8 L127.5,81.2 L127.3,80.4 L126.8,79.6 C126.8,79.6 126.6,79.3 126.8,79.3 C127,79.3 126.4,78.6 126.4,78.6 L125.7,77.8 L125.7,77.6 L125.2,77.1 L124.9,76.9 L124.6,76.9 L124.5,76.7 L124,76.5 L123.8,76.8 L123.6,77.3 L123.6,77.5 L123.9,77.7 L124,77.6 L123.9,77.4 L123.9,77.1 L124.2,76.9 L124.5,77.2 L124.5,77.8 L124.3,78.1 L123.7,78.1 L123.2,77.8 L123,77.4 L122.8,76.8 L123,76.4 L123.2,76.2 L123.6,76.3 L124.2,76.1 L124.4,76 L124.9,76.1 L125.2,76.5 L125.6,76.8 L126.6,78 L126.9,78.3 L127.4,79.1 L128,80.6 L128.2,81.7 L128.1,82.8 L127.6,84.3 L127,85.3 L126.2,86.4 L124.8,87.7 L124.6,87.7 L124.3,88.1 L124.8,89.4 L125.6,93.3 L126.3,94.9 L127.3,96 L128.1,96.5 L129.1,96.6 L130,96.3 L130.4,95.9 L130.4,95.5 L130.4,95.5 L130.4,95.5 L130.4,95.5 L130.4,95.5 Z" id="path3202" stroke="#000000" stroke-width="0.1" fill="#DDD457"></path>
        <path d="M145.3,90.9 L145.8,91.1 L145.8,90.9 L146.1,91.1 C146.1,91.1 146.4,91.2 146.6,91.1 C146.8,91.1 147.1,90.7 147.1,90.7 L147.2,89.9 L147.9,88.6 L148.4,88.3 L148.6,88.3 L149.1,87.7 L150.1,87.2 L150.6,87 L151.3,87.1 L151.8,87.4 L151.9,87.9 L152,89.2 L152.3,89.5 L152.6,89.4 L152.9,89.1 L153.5,88.9 L154,89 L154,89.6 L153.8,90.7 L153.5,91.8 L153,93.6 L152.5,94.9 L151.3,95.8 L150.4,96.4 L148.9,96.4 L148.4,96 L149,95.9 L149.2,95.6 L149.3,95 L148.8,94.6 L148.3,94.6 L147.6,95 L147.3,95.3 L147.2,95.7 L146.9,95.7 L146.3,95.7 L145.9,96 L145.6,96.4 L145.5,97 L145.6,97.4 L145.9,97.6 L146.5,97.6 L146.6,97.5 L146.7,97.5 L146.2,98.1 L145.5,98.8 L144.7,99.4 L144.1,99.6 L143.2,100 L142.5,100.3 L141.7,100.3 L140.9,101 L140.4,101.4 L140,101.9 L139.8,102.8 L139.8,103.5 L140.2,104.1 L140.1,104.3 L139.8,104.3 L139.7,104.2 L139.1,104.2 L138.9,103.9 L138.6,104 L138.1,104.1 L137.9,104.3 L137.6,104.1 L137.8,103.6 L137.8,103.1 L137.7,102.4 L137.3,101.5 L136.9,101.1 L136.2,100.7 L135,100.3 L133.6,99.8 L132.6,99.3 L132.2,98.7 L132.1,98 L132.3,98.2 L132.1,97.4 L132.4,97.8 L132.6,97.8 L133.2,98.5 L133.7,98.6 L133.8,98.7 L133.9,98.7 L133.9,98.6 L134.3,98.8 L134.8,98.9 L135.5,98.9 L134.9,98.8 L134.2,98.5 L133.4,98.1 L133,97.5 L132.9,97.2 L132.7,97.2 L132.7,97 L132.9,96.8 L133.1,96.8 L133.2,97 L133.4,96.9 L134,97 L134.6,97.1 L135.1,97.2 L134.7,97 L134.1,96.7 L133.5,96.1 L133.3,96.1 L132.7,95.1 L132.4,94.1 L132.1,93.1 L132.1,91.9 L132.5,90.9 L133,90 L133.3,89.7 L133.6,89.8 L134.3,89.3 L134.8,89.2 L135.4,89.2 L135.9,89.3 L136.6,89.5 L136.9,89.9 L137.2,89.9 L137.3,90.1 L137.1,90.2 L137.3,90.5 L137.2,90.7 L137.4,91 L137.4,91.4 L137,91.8 L137.3,92.2 L137.3,92.3 L137.6,92.6 L137.9,93 L138.4,93.1 L139.5,93.1 L140.3,93 L140.8,93 L140.6,92.8 L140.9,92.7 L141.3,92.6 L142.1,92 C142.1,92 142.7,90.9 142.8,90.8 C142.9,90.7 143.1,90.2 143.1,90.2 L144.1,89.2 L144.5,89.1 L145.3,88.7 L146.2,88.7 L146.4,89 L146.8,89.1 L147.1,89.5 L147.3,90.7 L146.8,91.1 L146,91.1 L145.7,90.9 L145.6,91.1 L145.3,90.9 L145.3,90.9 L145.3,90.9 L145.3,90.9 L145.3,90.9 Z" id="path3216" stroke="#000000" stroke-width="0.1" fill="#CCCCCC"></path>
        <path d="M135.3,54.9 L135.5,55.1 L135.7,55.2 L135.9,55.2 L136.1,55.3 L136.3,55.4 L136.4,55.6 L136.6,55.8 L136.7,56.1 L136.8,56.2 L137,56.4 L137.1,56.6 L137.2,56.8 L137.3,57 L137.5,57.1 L137.7,57.1 L137.8,57 L137.9,56.8 L138.1,56.8 L138.2,56.9 L138.3,57.1 C138.3,57.1 138.4,57.2 138.4,57.3 L138.5,57.5 L138.8,57.7 L139.1,57.8 L139.4,57.8 L139.5,57.7 L139.7,57.5 L139.9,57.4 L140,57.3 L139.9,57.1 L139.9,56.9 L140,56.8 L140.2,56.8 L140.2,57 L140,57 L140,57.1 L140.1,57.1 L140.1,57.4 L140.1,57.5 L140.2,57.5 L140.2,57.3 L140.4,57.3 L140.4,57.6 L140.8,57.9 L141.2,57.5 L141.2,57.2 L141.3,57.2 L141.4,57.3 L141.5,57.3 L141.7,57.2 L141.7,56.9 L141.4,56.7 L141.6,56.7 L141.9,56.9 L141.9,57.3 L142,57.4 L142.3,57.6 L142.5,57.6 L142.7,57.4 L143,57.3 L143.3,57 L143.5,56.5 L143.7,56.3 L143.8,56.1 L144,56.1 L144.2,56.2 L144.4,56.1 L144.6,55.7 L144.9,55.3 L145.3,55 L145.7,54.8 L146,54.7 L146.2,54.8 L146.4,54.7 L146.4,54.5 L146.1,54.3 L145.9,54.3 L145.7,54.1 L145.6,53.6 L145.6,53.2 L145.7,52.7 L145.6,52.6 L145.5,52.7 L144.7,52.7 L144.4,52.6 C144.3,52.6 144.2,52.7 144.2,52.7 C144.2,52.7 144,52.3 143.9,52.3 C143.8,52.3 143.7,51.9 143.7,51.9 L143.6,51.6 L143.2,51.7 L142.9,51.7 L142.5,51.9 L142.3,51.8 L141.9,51.5 L141.7,51.5 L141.5,51.4 L141.2,51.1 L141,51.1 L140.6,51.2 C140.6,51.2 140.3,51.5 140.3,51.6 C140.2,51.6 140.1,51.8 140.1,51.8 L139.9,51.8 L139.6,51.8 L139.5,51.9 L139.3,52 L139.1,51.9 L138,51.9 L137.9,52.1 L137.8,52.5 L137.7,52.9 L137.5,53.1 L137.2,53.2 L137,53 L136.8,52.9 L136.5,52.9 L136.2,52.9 L136.2,53.1 L136.1,53.3 L135.9,53.6 L135.9,53.8 L135.9,53.9 L135.7,54 L135.5,54 L135.3,54 L135.1,54.1 L135,54.2 L135,54.3 L135.1,54.4 L135.3,54.9 L135.3,54.9 Z" id="Shape" stroke="#000000" stroke-width="0.1" fill="#D40000"></path>
        <polygon id="Shape" stroke="#000000" stroke-width="0.1" fill="#D40000" points="131.7 68.8 131.2 68.8 130.2 69 129.3 69 129.2 68.8 129.1 68.2 128.6 67.5 128.1 67.3 127.6 67.2 127.4 67.3 126.9 67.7 126.5 67.6 126 67.1 125.6 67 125.2 67.1 124.8 67.5 124.4 67.9 124.3 67.6 124 67.4 123.7 67.5 123.4 67.6 123.1 67.8 123 68.1 123.1 68.3 123.2 68.5 123.4 68.8 123.5 68.8 123.7 68.5 123.8 68.5 124 68.4 124.2 68.4 124.5 68.5 124.8 68.5 125.3 68 126 68.1 126 68.2 126.3 68.6 126.3 68.9 126.5 68.8 126.8 68.5 127 68.6 127.7 68.4 127.9 68.4 128 68.6 128 68.8 128 68.9 127.9 69.1 127.9 69.5 128.1 69.5 128.2 69.6 127.8 69.7 127.8 70 128.1 70.2 128.2 70.4 128.1 70.7 128 70.9 128.4 71 129.4 70.7 129.7 70.4 130.4 70.4 132 69.7 132 69.3 131.7 68.9"></polygon>
        <polygon id="Shape" stroke="#000000" stroke-width="0.1" fill="#D40000" points="133.8 68 133.4 68 133.3 68.1 132.7 68.1 132.4 68.2 132.2 68.3 132 69.3 132.3 69.6 132.2 69.9 132.4 70 132.6 69.9 132.9 69.7 133.1 69.6 133.4 69.4 133.5 69.3 133.8 69.1 134.1 69 134.6 68.9 135 68.8 134.7 68.6"></polygon>
        <polygon id="Shape" stroke="#000000" stroke-width="0.1" fill="#D40000" points="136 64 135.8 64 135 64.8 134.3 64.8 134 65 134 65.2 134.3 65.4 134.7 65.3 135 65.3 135.5 66 135.9 65.6 136 64.7 135.8 64.6 136 64.3"></polygon>
        <path d="M146.4,68.9 L146.8,68.4 L147,67.7 L147,67.2 L146.9,67.2 L147,67.1 L147.2,67.1 L147.2,66.5 L147.1,66.2 L146.7,65.6 L146.2,65.3 L145.9,65.3 L146,66.3 L145.8,66.6 L145.5,66.8 L145.3,66.8 L145.1,66.6 L145.1,64.9 L144.6,64 L144.4,62.9 L144.2,62.3 L143.9,61.9 L143.9,61.6 L144.7,62.9 L144.8,63.4 L145.4,64.3 L145.6,64.3 L146,64.6 L146.7,64.7 L147.1,64.6 L147.7,63.7 L147.6,63.4 L147.2,62.9 L147.2,62.7 L147.3,62.4 L147.4,62.3 L147.3,62.1 L147,62.1 L146.6,62.6 L146.6,63 L146.5,63.3 L146,63 L145.8,62.4 L145.8,62 L145.7,61.7 L145.5,61.5 L145.4,61.1 L144.9,60.1 L144.9,59.7 L145.7,60.7 L145.7,61 L146.6,61.6 L147.4,61.5 L147.9,60.9 L147.9,60.2 L147.7,59.9 L147.6,59.2 L147.1,59.7 L147.1,60.2 L147,60.3 L146.7,60 L146.6,60 L145.1,58.3 L145.1,58.2 L145.8,58.6 L146.7,58.3 L147.1,57.9 L147.1,57.3 L146.4,57.8 L146,57.8 L145.8,57.7 L145.5,57.7 L145,57.3 L144.6,57.2 C144,56.9 143.4,57.1 143,57.6 C142.7,58.3 142.6,59.4 142.2,59.6 L141.7,59.6 C142,58.5 141.1,57.8 140.3,58 C139.7,57.8 138.6,58.3 138.8,59.4 L138.3,59 L138.3,58.3 L137.7,57.7 L137.5,57.6 L137,57.2 L136.2,57.2 L134.8,58.5 L134.2,59.3 L134.2,59.5 L133.8,59.9 L133.8,58.9 L133.1,59.4 L133.1,59.8 L133.1,60.1 L133.2,60.4 L133.8,60.8 L134.9,60.8 L135.3,60.7 L135.6,60.5 L135.6,60.8 L135.3,61.3 L134.9,62.4 L134.3,63.3 L133.9,63.2 L133.7,62.8 L133.9,62.4 L134.1,61.9 L134,61.8 L133.9,61.9 L133.6,62 L133.1,62.6 L133,63.1 L133.1,63.7 L133.5,64.3 L134.3,64.3 L135.2,63.6 L136,62.7 L136.1,63.9 L136.2,64.6 L136.3,65.2 L135.6,66 L136,66.3 L136.6,66.3 L136.6,66.4 L136.4,66.6 L136.4,66.8 L136.2,66.9 L135.9,66.9 L135.6,66.8 L135.3,66.6 L135.3,66.4 L135.1,66.1 L134.9,65.9 L134.6,65.9 L134.2,66.1 L134,66.4 L134,66.9 L134.2,67.3 L135,67.8 L135.4,67.9 L135.7,67.8 L136.4,67.5 L136.4,67.5 L136.5,67.5 L137.1,67.7 L137.4,67.8 L138,67.8 L137.8,67.6 L137.6,67.4 L137.4,67.1 L137.4,66.9 L137.3,66.9 L137.1,66.9 L136.9,66.7 L136.8,66.4 L137,66.4 L137.4,65.8 L137.6,65.7 L137.7,63.9 L137.8,63 L137.9,63 L137.8,63.7 L137.8,64.3 L137.8,65.3 L137.9,65.9 L138,66.3 L138.2,66.6 L138.2,66.9 L138.5,67 L138.5,66.6 L138.5,65.9 L138.7,65.4 L138.6,65.8 L138.5,66.2 L138.6,66.7 L138.7,67.2 L138.9,67.7 L139.3,68.2 L140,68.4 L140.6,68.5 L141,68.4 L141.4,68.6 L141.9,68.5 L141.2,67.7 L141,67.2 L141,66.1 L141.1,66 L141.4,65 L141.5,63.3 L141.5,64.8 L141.4,65.4 L141.3,66 L141.4,66.3 L141.9,66.3 L142.5,66.9 L142.7,67.3 L142.9,67.8 L143.5,67.8 L143.7,67.7 L144,67.6 L144.2,67.8 L144.3,67.9 L144.4,67.8 L144.6,67.9 L144.6,67.7 L144.9,67.7 L144.7,67.5 L144.1,67.2 L143.2,65.8 L143.2,64.3 L143.2,63.8 L143.3,63.4 L143.3,62.8 L143.4,62.8 L143.4,63.4 L143.3,63.8 L143.3,65.7 L144.1,66.9 L144.4,66.9 L144.6,67.1 L144.8,67.1 L145,67.3 L145.2,67.3 L145.1,67.3 L145,67.5 L145.9,68.5 L146.2,68.6 L146.4,68.9 L146.4,68.9 Z M141.8,60.8 L141.4,60.9 L140.5,62 L140.3,62 L140.2,61.9 L140.3,61.8 L140.3,61.7 L140.5,61.6 L140.5,61.2 L140.6,61.4 L140.8,61.3 L141,61.3 L141,60.9 L140.9,60.7 L140.7,60.5 L140.4,60.4 L140.1,60.3 L140,60.3 L139.7,60.5 L139.4,60.6 L139.2,60.6 L139,60.9 L139,60.9 L138.8,60.8 L138.8,60.5 L139.2,60 C139.6,60.2 140.2,60.4 140.6,60 C141.1,60.3 141.7,60.3 141.9,60 L142,60.1 L142.1,60.5 L141.8,60.8 L141.8,60.8 Z" id="Shape" fill="#D40000"></path>
        <polygon id="Shape" fill="#D40000" points="147.8 67.3 147.6 67.7 147.2 68.1 147.2 68.4 147 68.4 147 68.6 147.4 68.9 148.3 69 149 68.1 149 67.9 148.6 67.5 148.3 67.4 148 67"></polygon>
        <polygon id="Shape" stroke="#000000" stroke-width="0.1" fill="#D40000" points="149 69.4 149.2 69.7 149.5 70.1 149.8 70.3 150.1 70.5 150.2 70.6 150.5 70.6 150.8 70.8 151.3 71 151.7 71 151.8 70.7 151.9 70.3 152 70 152 69.9 151.6 69.7 151.8 69.5 151.9 69.6 152.2 69.7 152.5 69.9 152.8 69.8 153.1 70 153.4 70.1 153.8 70.1 153.8 69.9 153.6 69.6 153.3 69.6 152.8 69.1 152.7 68.7 153 68.3 153.5 68.4 153.9 68.7 154 68.7 154.2 67.9 154.5 67.9 154.7 68 154.9 68.3 154.9 68.5 155 68.7 155.2 68.8 155.5 68.8 155.5 68.7 155.3 68.2 155.3 67.6 155.6 67.4 155.9 67.5 156 67.4 155.8 67.2 155.3 67.1 154.8 67.1 154.2 67 153.2 67.6 152.8 67.6 152.7 67.8 152.1 67.9 151.6 68.4 150.9 68.6 149.6 68.6 149.3 68.7 149 69.1"></polygon>
        <path d="M160.9,86.9 L161,86.7 L161,86.1 L160.9,85.8 L160.5,86.4 L160.3,86.4 L159.8,86.1 L159.7,86.1 L159.4,85.7 L159.2,85.1 L159.2,84.4 L159.1,84.4 C159.1,84.4 159.2,83.8 159.2,83.6 C159.3,83.4 159.3,83.1 159.3,83.1 L159.2,82.5 L158.9,81.9 L158.5,81.5 L157.9,81.3 L157.2,81.1 L156.8,80.7 L156,80.6 L155.6,80.7 L154.8,80.3 L154.3,80.1 L153.7,80.1 L153.1,80 L152.8,80 L152.4,80.3 L152.2,80.8 L152.1,81.3 L151.9,81.9 L151.8,82.4 L151.9,83.4 L151.9,84 L152.2,84.5 L152.4,84.6 L152.6,85 L152.9,84.2 L153,84.3 L153.1,84.9 L153.6,85.3 C153.6,85.3 153.2,85.1 153.1,85.1 C153,85.1 153,85.2 153,85.2 L153.1,85.5 L153.4,85.8 L153.9,86 L154.8,86 L154.6,86.2 L154,86.2 L153.8,86.3 L154,86.6 L154.3,87 L154.8,87.2 L155.3,87.1 L155.5,87.1 L155.4,87.3 L155.7,87.5 L155.9,87.7 L156.1,87.9 L156.3,87.9 L156.3,88.2 L156,89 L155.9,89.4 L155.7,89.7 L155.6,90.2 L155.3,90.7 L155.3,90.9 L155.5,90.9 L155.7,90.6 L156,90.5 L156.4,90 C156.4,90 156.6,90.1 156.7,90 C156.8,89.9 157,89.2 157,89.2 L157.2,89.1 L157.3,88.3 L157.5,89 L157.7,89.9 L157.6,90.7 L157.2,91.5 L157.1,91.6 L157.2,91.9 L157.5,91.9 L157.9,91.5 L158.5,90.6 L158.8,89.7 L158.9,88 L159.2,88.8 L159.5,89.6 L159.6,90.2 L159.4,91 L159.1,91.9 L159.4,91.7 L160.1,90.9 L160.7,90 L160.9,89.4 L161,88.2 L160.9,87.3 L160.9,86.9 L160.9,86.9 Z" id="Shape" stroke="#000000" stroke-width="0.1" fill="#D40000"></path>
        <polygon id="Shape" stroke="#000000" stroke-width="0.1" fill="#D40000" points="123.3 91.3 123.5 91.1 123.6 91 123.4 90.8 123.6 90.7 123.5 90.1 123.4 88.7 123.2 88.7 122.6 87.2 123.2 88.1 123.4 88.1 123.4 87.9 123.2 87.3 123.1 86.6 123.6 87.5 123.8 87.4 123.5 86.4 123.4 85.3 123.6 85.8 123.6 86.3 123.9 86.9 124.3 87.1 124.6 86.7 124.4 86.5 124.3 86.1 124 85.7 124 85.1 124.4 86 124.8 86.3 125.1 86.4 125.5 86.1 126.1 85.2 126 85.1 125.4 85.2 124.9 84.8 124.4 84.3 124.4 83.9 124.5 83.9 124.7 84.4 125.1 84.8 125.5 84.9 126 84.9 126.6 84.3 126.9 83.1 127 82.5 126.9 81.6 126.5 80.7 126.3 80.3 126.1 80.2 124.7 80.1 124.5 80 124.2 80.3 123.5 80.3 122.8 80.8 122.3 81.2 122.1 81.2 121.1 82.2 121.3 83.1 121.4 83.3 121.4 84.1 121.5 85.3 121.2 85.5 120.9 86.5 120.7 87.3 120.5 89 120.7 90.3 120.5 90.9 120.1 91.6 120 92 120.3 91.7 120.3 91.6 120.4 91.9 120.9 91 121 91.3 121.2 91.4 121.2 90.3 121 88.5 121.5 90.3 121.6 91 121.7 91 121.7 89.5 122 90.3 122.1 91 122.2 91.1 122.3 91 122.3 89.9 121.8 88.1 121.5 86.5 122.2 88.6 122.6 89 123 90.2 123.3 90.9"></polygon>
        <polygon id="Shape" stroke="#000000" stroke-width="0.1" fill="#D40000" points="154.6 100.6 154 100 153.3 99.5 152.8 99.3 152.3 99.7 152.2 99.8 151.9 100 151.7 99.9 151 99.2 150.8 99.1 150.5 98.3 150 98.1 149.3 98.2 148.4 98 146.8 99.7 146.6 99.7 146 100.2 146 100.7 146.6 101.1 146.8 101.5 146.9 101.5 147.5 102.2 148 102.9 148.2 103.1 148.4 103.4 148.1 103.8 148.2 104.1 148.6 104 149.1 104 149.4 104.2 149.5 104.8 149.5 105 149.9 104.8 150.1 104.4 150.2 103.4 150.1 103.1 150.2 102.4 150.3 103.4 150.5 103.7 150.7 103.6 150.8 104.2 151.2 104.6 151.4 105 151.5 104.8 151.4 104.3 151.7 103.7 151.9 103 152.2 102.9 152.4 103 152.7 103.3 152.6 103.4 152.9 103.4 152.9 102.6 152.5 102.1 151.8 101.7 151.5 101.3 151.3 100.8 151.7 101.1 152.2 101.5 152.6 101.8 152.9 101.8 153.4 102.8 153.7 103.3 153.8 102.7 154.1 101.9 154.3 101.5 154.6 101.5 155 101.6 154.9 101.2"></polygon>
        <polygon id="Shape" stroke="#000000" stroke-width="0.1" fill="#D40000" points="130.9 98.9 130.5 98.5 130.5 98.3 130.3 98 130.1 97.4 129.9 97 129.1 97.1 128.5 97.4 128 98.2 127.6 99 127.2 99.2 126.8 99.2 126.2 99.2 125.9 99 125.2 98.9 124.8 99 124.3 99.5 124 100 123.3 100.4 123 101 123.4 100.9 123.8 100.9 124 101.2 124.1 101.7 124.4 102.4 124.4 103 124.6 102.8 125.1 102.1 125.7 101.6 126.3 101.2 127.1 100.9 127.2 101.1 127.1 101.2 126.7 101.3 126.1 101.7 125.6 102.2 125.3 102.7 125.1 103.2 125.6 102.8 126.1 102.8 126.5 103 126.7 103.5 126.9 104 127.5 103.5 127.6 103.3 127.7 103.2 127.7 102.6 127.6 102.5 127.7 102.4 127.8 102.5 128 102.8 128.1 103.1 128.2 102.8 128.6 102.4 129.2 102.3 129.7 102.5 129.5 102.1 129.5 101.4 130 101.7 130.3 101.6 131.5 100.6 132 100.2 131.3 99.6"></polygon>
        <polygon id="Shape" fill="#784421" points="144.8 82 144.9 81 144.2 81.1 142.6 81.5 141.2 81.9 139.8 82.4 138.4 82.8 137.6 83.2 137.2 83.6 136.7 84.5 136.7 85.4 136.7 86.1 136.5 86.6 136 89 136.5 89.4 136.9 89.9 137.2 90.5 137.3 91.4 137.4 92.1 137.7 92.7 138.6 93 139.8 93 141.1 92.4 141.8 91.4 142.5 90.1 143.2 89.2 143.8 88.7 144.7 88.4 144.8 87.2 145 85 145 82.4"></polygon>
        <polygon id="Shape" fill="#784421" points="148.2 85 147.7 84.4 147.1 83.8 146.4 82.6 145.6 81 145.2 81 145.1 84.2 145.2 85.3 145 87.1 145.9 87.3 146.6 87.6 146.8 88 147.2 87.7 147.4 87.2 148 86.9 149 86.1"></polygon>
        <path d="M124.6,70.8 L124.3,70.8 L123.9,71.1 L123.7,71.5 L123.7,72.2 L123.9,72.6 L124.3,73.1 L124.5,73.4 L124.4,74 L123.8,74.4 L123.2,74.9 L123,75.3 L122.9,75.7 L122.9,76.1 L123,76.2 L123.5,76.2 L123.8,76.1 L124.2,76.1 L124.6,76.2 L125.2,76.6 L126.1,77.4 L126.5,77.9 L126.2,77.2 L126,76.4 L125.9,75.6 L126,75.1 L126.2,74.8 L126.4,74.9 L126.6,74.8 L126.9,74.9 L127.1,74.8 L127.5,74.9 L127.9,74.7 L128.6,74.2 L129.1,74.2 L129.2,74.3 L129.5,74.2 L129.7,74.4 L130.3,74 L130.7,73.8 L131.1,74 L131.7,74.1 L131.9,73.9 L132.4,73.9 L133,73.8 L133.3,74 L133.6,74.8 L133.8,75 L134.1,75.1 L134.3,75.2 L134.6,76 L134.8,76.6 L134.9,77.4 L134.9,77.6 L135.1,77.6 L135.4,77.9 L136,78 L136.2,78.2 L136.3,78.6 L136.5,78.6 L136.7,78.4 L137,78.5 L137.3,78.8 L137.6,78.8 L137.1,75.7 L136.7,75.5 L136.7,74.8 L137.7,74.4 L137.7,74.1 L137.5,73.6 L137.3,73.2 L136.9,73.2 L137.2,72.2 L138,73 L137.6,73 L137.9,74.2 L139.2,74 L139.4,74.3 L139.3,74.6 L139.4,74.8 L139.5,75.2 L139.9,75.7 L140.9,78 L141.9,80.1 L142.3,79.6 L142.8,79.5 L143.3,79.1 L143.6,79 L143.8,78.7 L144.4,78.7 L145.3,79.5 L145.4,79.3 L146.2,79.3 L146.5,79.8 L146.5,80 L146.8,79.9 L147.7,80.1 L148.3,80.6 L148.7,80.8 L149,81 L149.2,80.7 L149.4,80.7 L149.7,80.8 L150.6,80.7 L151.1,79.8 C151.1,79.8 151.5,78.9 151.7,78.7 C151.9,78.5 152.7,77.6 152.7,77.6 L153.7,76.9 L154.5,76.5 L155.2,76.4 L155.9,76.4 L155.9,75.8 L155.6,75.2 L154.9,74.3 L154.8,73.6 L154.8,73.2 L155.4,72.8 L156.1,72.2 L156.1,71.6 L155.9,70.9 L155.5,70.3 L155.4,70.2 L155.2,70.2 L154.9,70.4 L154.3,71.3 L153.6,72 L152.8,72.5 L151.8,72.6 L150.2,72.4 L149,72 L147.6,71.5 L146.2,70.8 L145.4,70.6 L144.2,70 L143.8,70 L143.8,70.2 L144.2,70.6 L144.1,71.2 L143.8,71.5 L143.2,71.5 C143.2,71.5 143.3,71.5 142.9,71.6 C142.6,71.7 142.3,71.6 142.3,71.6 L141.7,71.3 L141.2,71.2 L140.1,71.2 L138.9,71.3 L137.6,71.4 L136.9,72 L136.3,72.1 L135.7,71.9 L135.1,71.1 L135.1,70.7 L135.6,70.1 L135.4,70.1 L133.9,70.6 L133,71.1 L132.5,71.4 L132.1,71.4 L131.6,71.8 L131,71.8 L130.7,72.2 L130.6,72.2 L129.7,72.4 L128.9,72.6 C128.9,72.6 127.8,72.8 127.7,72.8 C127.6,72.8 126.6,72.7 126.6,72.7 L125.8,72.3 L125.4,71.9 L125.1,71.7 L124.7,71.2 L124.7,70.8 L124.6,70.8 L124.6,70.8 L124.6,70.8 L124.6,70.8 L124.6,70.8 Z" id="path2257" stroke="#000000" stroke-width="0.1" fill="#64B4D1"></path>
    </g>
</svg>