<?xml version="1.0" ?><svg height="120px" version="1.1" viewBox="0 0 180 120" width="180px" xmlns="http://www.w3.org/2000/svg" xmlns:sketch="http://www.bohemiancoding.com/sketch/ns" xmlns:xlink="http://www.w3.org/1999/xlink"><title/><defs/><g fill="none" fill-rule="evenodd" id="Page-1" stroke="none" stroke-width="1"><g id="rectangle_saint_kitts_and_nevis" transform="translate(90.000000, 60.000000) scale(-1, 1) translate(-90.000000, -60.000000) "><rect fill="#E5B731" height="120" id="Rectangle-1" width="180" x="0" y="0"/><path d="M180,0 L180,92 L42,0 L180,0 L180,0 L180,0 L180,0 Z" fill="#57BB63" id="Path-158"/><path d="M0,120 L138,120 L0,28 L0,120 L0,120 L0,120 L0,120 Z" fill="#CA4638" id="Path-158"/><path d="M180,101.333333 L28,0 L0,0 L0,19.3333333 L151,120 L180,120 L180,101.333333 L180,101.333333 L180,101.333333 L180,101.333333 Z" fill="#262626" id="Path-160"/><path d="M47.5259067,34.5259086 L44.7662425,43.4037973 L39.3982261,35.8132065 L30.102068,35.9320279 L35.6623413,28.4811179 L32.6766647,19.6766658 L41.48112,22.6623421 L48.932033,17.1020728 L48.8132061,26.3982293 L56.4037963,31.7662448 L47.5259067,34.5259086 Z M135.525907,92.5259083 L132.766243,101.403798 L127.398226,93.813207 L118.102069,93.9320279 L123.662342,86.4811177 L120.676665,77.6766659 L129.48112,80.6623424 L136.932033,75.1020732 L136.813206,84.3982293 L144.403796,89.7662442 L135.525907,92.5259083 Z" fill="#FFFFFF" id="Star-30"/></g></g></svg>