<?xml version="1.0" ?><svg height="120px" version="1.1" viewBox="0 0 180 120" width="180px" xmlns="http://www.w3.org/2000/svg" xmlns:sketch="http://www.bohemiancoding.com/sketch/ns" xmlns:xlink="http://www.w3.org/1999/xlink"><title/><defs/><g fill="none" fill-rule="evenodd" id="Africa,-Middle-East-and-India" stroke="none" stroke-width="1"><g id="Africa,-Middle-Eest-and-India" transform="translate(-200.000000, -1.000000)"><g id="Bahrain" transform="translate(200.000000, 1.000000)"><rect d="M0.00274665604,-1.42108547e-14 L0.00274665604,120 L180.002747,120 L180.002747,-1.42108547e-14 L0.00274665604,-1.42108547e-14 Z M0.00274665604,-1.42108547e-14" fill="#FFFFFF" height="120" id="Rectangle-3" width="180" x="0.00274665604" y="-1.42112908e-14"/><path d="M75.5552328,11.7014649 L75.5552328,12.3316843 L56,24 L75.5552328,35.6683157 L75.5552328,36.3316843 L56,48 L75.5552328,59.6683157 L75.5552328,59.6683157 L75.5552328,60.3316843 L56,72 L75.5552328,83.6683157 L75.5552328,84.3316843 L75.5552328,84.3316843 L56,96 L75.5552328,107.668316 L75.5552328,108.298535 L56,119.966851 L75.5552328,119.966851 L75.5552328,119.966851 L75.5552328,120 L180,120 L180,0 L75.5552328,0 L75.5552328,0.0331491713 L56,0.0331491713 L75.5552328,11.7014649 Z M75.5552328,11.7014649" fill="#CA4638" id="Rectangle-3-copy-3"/></g></g></g></svg>