<?xml version="1.0" ?><svg height="120px" version="1.1" viewBox="0 0 180 120" width="180px" xmlns="http://www.w3.org/2000/svg" xmlns:sketch="http://www.bohemiancoding.com/sketch/ns" xmlns:xlink="http://www.w3.org/1999/xlink"><title/><defs/><g fill="none" fill-rule="evenodd" id="Europe" stroke="none" stroke-width="1"><g id="Albania"><rect d="M0,0 L0,120 L180,120 L180,0 L0,0 Z M0,0" fill="#CA4638" height="120" id="Oval-1-copy-4" width="180" x="0" y="0"/><path d="M79.1527185,26.000672 C78.0472804,25.9818997 76.2126094,26.35571 76.2537226,27.2103821 C73.1746725,26.6787529 72.8540586,27.9600189 73.0349866,29.1001314 C73.327942,28.6476652 73.6846412,28.4020125 73.9586883,28.3556897 C74.3692679,28.2870405 74.7989195,28.4206281 75.2376568,28.692112 C75.6764146,28.9636164 76.1597828,29.4017343 76.3745268,29.6727646 C75.2878128,29.9344974 74.4482979,29.7655338 73.5963228,29.6154539 C73.17633,29.5414447 72.5885979,29.3034196 72.2392042,29.0571278 C71.8898105,28.8107947 71.7797987,28.5789542 71.2302311,28.0120521 C70.5822954,27.3436605 69.8926961,27.5318582 70.1075833,28.5703782 C70.6045188,29.5349302 71.4346614,29.9650288 72.4807799,30.1380124 C72.9841819,30.2212985 73.7340462,30.4020334 74.5839729,30.402858 C75.4339038,30.4037734 76.3882189,30.2791658 76.907433,30.3885427 C76.595508,30.5858318 76.2425331,30.9259649 75.5431932,31.0614079 C74.8320253,31.1991186 73.750816,30.6353706 73.0918383,30.4816005 C73.175534,31.040174 73.8749149,31.5623408 75.2518728,31.8344843 C77.5145706,32.3308407 79.3947709,32.7080607 80.6377503,33.3877908 C81.8807234,34.0675209 82.6644139,34.9185234 83.224109,35.5853318 C84.3379166,36.9123021 84.3965036,37.930955 84.4675528,38.1550936 C84.696703,40.2752012 83.9628821,41.4677943 82.5988469,41.8343645 C81.916819,42.0176351 80.7053187,41.6725338 80.2611769,41.1471923 C79.8170167,40.6219744 79.3848686,39.719186 79.5079975,38.3054209 C79.6277089,37.7508055 80.2572479,36.3061627 79.7211657,36.0076665 C77.2515472,34.6325635 74.252581,33.2419102 72.0828652,32.4143412 C71.4898453,32.1881555 71.0013121,33.000127 70.8110016,33.3162637 C67.1250472,32.8640593 63.801796,30.3512433 62.3058633,27.675671 C61.2870063,25.8533752 59.6077514,27.6794313 59.890033,29.4007654 C60.3457551,31.3220357 61.798827,32.711118 63.5421981,33.695634 C65.3315057,34.6881817 67.5680266,35.6648556 69.8304605,35.6140181 C71.0493277,35.8463121 71.0372951,37.4349121 69.5746668,37.7328186 C66.7141095,37.7510529 64.4320819,37.6792187 62.2774415,35.5853854 C60.6431449,34.0821124 59.7230877,35.8732997 60.1955653,36.8881532 C60.99622,40.0167174 65.4265607,40.8928109 69.9086187,39.8802457 C71.6442506,39.5906822 70.6049506,41.4642897 70.1146657,41.4836681 C68.2418875,42.8364076 64.889044,44.1600156 61.9363723,41.4693508 C60.5852291,40.4270788 59.67171,41.3031909 60.1742403,42.8079275 C61.4843951,46.7311195 66.4960259,45.9071478 69.9370323,43.9746957 C70.8227129,43.4773086 71.626519,44.6344907 70.5480928,45.5136951 C66.268918,48.5259061 64.1294104,48.5601606 62.1992812,47.4034342 C59.7828923,46.4433763 59.5703298,49.1434561 61.005578,50.0304614 C62.6008098,51.0163297 66.6603519,50.2771655 69.6386152,48.3912507 C70.9153941,47.4349654 70.9731625,48.9302396 70.1644043,49.5222306 C66.6300843,52.5992687 65.2370278,53.4096013 61.5526839,52.908019 C59.7257234,52.764536 59.753165,55.03367 61.1903163,55.9215844 C63.1524995,57.1338714 66.9843648,55.1216049 69.9583553,52.6360094 C71.2100868,51.962196 71.4156631,53.0672624 70.7967856,54.3754315 C68.9796067,56.6850912 67.2740562,58.046817 65.6311752,58.6774577 C63.9882839,59.3081026 62.4080641,59.2076232 61.2897873,58.8205284 C59.9255065,58.3483333 59.7544317,59.77669 60.5082045,61.0753347 C60.962576,61.8581417 62.8455184,62.1091544 64.8780121,61.3831429 C66.9105079,60.6572344 69.0925468,58.9545118 70.5907366,56.9594282 C71.8942408,55.8097914 71.732129,57.3542538 71.1378487,58.4411581 C68.1378081,63.2190469 65.3939705,64.9914226 61.7800619,64.6901929 C60.1776474,64.4160703 59.8137246,65.6714021 60.8350577,66.8304685 C62.6284375,68.3287731 64.8707578,68.2817907 66.8319977,66.8018131 C68.5755284,65.1083221 71.911023,61.4616565 73.6602671,59.5076944 C74.8929267,58.5177236 75.2867058,59.493676 74.9250339,61.5048086 C74.5961037,62.6565276 73.7726526,63.8694825 71.5286625,64.7545932 C69.9956602,65.6360241 71.1468956,66.8508138 72.2960436,66.8733938 C72.9284475,66.8858187 74.2126137,66.1410533 75.1950375,65.0266069 C76.4874709,63.5605035 76.5643318,62.5762143 77.2769137,60.2950944 C77.9501423,59.1831425 79.1526182,59.7021551 79.152741,60.8677482 C78.5760183,63.1526613 78.0804947,63.5623547 76.9145461,64.4969135 C75.7993266,65.5517196 77.6910744,65.9032529 78.3285123,65.4704126 C80.1726007,64.2181936 80.8458231,62.5984026 81.4619851,61.1254363 C81.9067387,60.0622191 83.1969212,60.5776446 82.598855,62.3136857 C81.1695822,66.4625872 78.8210298,68.0962379 74.7118841,68.9349413 C74.2954315,69.009569 74.0414181,69.257139 74.1860951,69.7438061 C74.7376067,70.3206036 75.2901211,70.8439867 75.8416533,71.4188051 C73.3007378,72.1641127 71.2364438,72.5828191 68.6935987,73.3301264 C67.4460417,72.5061506 66.4382043,71.8070895 65.1906473,70.9822643 C64.8616761,70.207518 64.7082797,69.0249398 62.8671872,69.8584399 C61.6196302,69.2779729 61.0441558,69.4908266 60.3518839,70.0731903 C61.3512801,70.1107103 61.7861089,70.3803387 62.1779644,70.8391132 C62.6895722,72.196553 63.8693337,72.3276874 65.0769582,71.9414584 C65.8625928,72.6082008 66.2809894,73.1196269 67.0664602,73.7882453 C65.600087,73.7377376 64.5784982,73.7115561 63.1158698,73.6666146 C61.7196455,72.1563324 60.6052281,72.2390619 59.6058114,73.4232501 C58.8440987,73.5411701 58.5212052,73.5576624 58,74.489807 C58.8197062,74.1508903 59.3354068,74.0492978 59.6910828,74.4182717 C61.1755253,75.2852512 62.1452862,75.0917347 62.8813991,74.4182717 C64.3135573,74.5065055 65.6040876,74.5811331 67.0380466,74.6759639 C66.5113163,75.1270076 65.7884433,75.3662696 65.2616924,75.8212715 C63.1106844,75.201326 61.9880202,76.0358157 61.6095274,77.8040786 C61.3212581,78.5177622 61.1862809,79.2525353 61.3111082,80.015937 C61.5193038,79.3176737 61.8540457,78.7173128 62.4692807,78.340938 C64.3864851,78.8315426 65.1073895,78.0430458 65.211958,76.8878428 C66.1361099,76.1282076 67.5296862,75.9606871 68.4520108,75.1913626 C69.530437,75.5391645 70.0517445,75.7545952 71.1378446,76.1004387 C71.5239907,77.2825654 72.397782,77.7506374 73.8165714,77.446169 C75.5054851,77.4995628 75.207332,78.1977024 75.3442327,78.7561109 C75.7930791,77.9541523 75.7805759,77.1742522 74.7402731,76.4655142 C74.3617803,75.4296124 73.5232067,74.9584893 72.42392,75.5564382 C71.3891629,75.2604839 71.1171212,74.8351063 70.0862501,74.5399766 C72.6937762,73.7027039 74.5434245,73.5143 77.1489964,72.678862 C77.8012089,73.2986632 78.3181168,73.7436254 78.9750769,74.2965915 C79.3213193,74.5047862 79.6527665,74.5572317 79.8561532,74.2965915 C81.4888741,71.9159221 82.2180765,69.8178297 83.7356902,68.2479835 C84.3154824,67.5984756 85.0479937,66.7221368 85.8601981,66.5085615 C86.2662961,66.4017739 86.7643162,66.4669184 87.0823189,66.8163696 C87.4003217,67.1657796 87.6501196,67.8097626 87.54418,68.770542 C87.3921363,70.1496692 87.0613848,70.5851071 86.6773259,71.4118866 C86.293267,72.2386867 85.8239163,72.7472473 85.3415098,73.380366 C84.3766765,74.6465828 83.1036219,75.3835824 82.3501458,75.8785492 C80.8431935,76.8684994 80.20586,76.4352261 79.0390376,76.3724523 C77.5309394,76.5429415 77.1296707,77.282889 78.3640287,78.3051435 C79.5179243,78.9099779 80.5551064,78.9846468 81.3980264,78.8276813 C82.1217793,78.6928568 82.9687839,77.7517651 83.5722728,77.2457401 C84.251579,76.4551406 85.3778284,77.3927277 84.6096493,78.312297 C83.2137319,79.9832348 81.8189176,81.0849265 80.0977329,81.0610127 C78.2890669,81.3062325 78.6273898,82.3300125 79.8277376,82.8290695 C81.9880381,83.7272606 83.9385469,82.0448813 84.9293996,80.9393201 C85.6938749,80.0967492 86.2368533,80.0638883 86.1017942,81.3688002 C85.3428645,83.7312332 84.3057541,84.6438263 82.6130526,84.7617462 C81.2400544,84.6333124 81.2252183,85.7010238 82.2293621,86.4224381 C84.5168023,88.0174289 86.1733448,85.3012505 86.9473335,83.6594072 C87.4988657,82.1783782 88.3448061,82.8826818 88.4323694,84.1032149 C88.4437799,85.7339733 87.7123409,87.0654337 85.7536405,88.734514 C87.2522846,91.1399734 88.9994538,93.5866676 90.5000338,96 C92.0005912,93.5865419 93.7477583,91.1398476 95.2464024,88.7343882 C93.2877042,87.0653079 92.5562631,85.7338455 92.5676756,84.1030892 C92.6552594,82.882556 93.5011589,82.1782525 94.052691,83.6592814 C94.8266818,85.3011309 96.4832222,88.0173031 98.7706625,86.4223124 C99.7748062,85.7009187 99.7599702,84.6331867 98.3869719,84.7616204 C96.6942725,84.6437005 95.65716,83.7310992 94.8982324,81.3686744 C94.7631734,80.0637626 95.3061517,80.0966235 96.070627,80.9391944 C97.0614899,82.0447556 99.0119885,83.7271287 101.172289,82.8289437 C102.372637,82.3298868 102.71096,81.3061068 100.902294,81.0608869 C99.1811091,81.0848007 97.7862947,79.9831152 96.3903773,78.3121713 C95.6221982,77.392602 96.7484476,76.4550148 97.4277538,77.2456144 C98.0312427,77.7516393 98.8782473,78.692731 99.6019981,78.8275556 C100.44493,78.9844386 101.482102,78.9098109 102.635996,78.3050177 C103.870354,77.2827633 103.469085,76.5428157 101.960987,76.3723266 C100.794158,76.4352035 100.156823,76.8683737 98.6498808,75.8784235 C97.8963944,75.3834484 96.6233399,74.6464488 95.6585147,73.3802403 C95.1761083,72.7471216 94.7067575,72.238561 94.3226987,71.4117608 C93.9386398,70.5849813 93.6078883,70.1495434 93.4558445,68.7704162 C93.3498436,67.8096368 93.5997029,67.1656538 93.9177056,66.8162439 C94.2357083,66.4667927 94.7337284,66.4016481 95.1398265,66.5084357 C95.9520226,66.722011 96.6845339,67.5983499 97.2643343,68.2478578 C98.7819481,69.8176978 99.5111464,71.9157964 101.143873,74.2964658 C101.347281,74.5571059 101.678707,74.5046604 102.02495,74.2964658 C102.68191,73.7434996 103.198818,73.2985374 103.85103,72.6787363 C106.456604,73.5141742 108.30625,73.7025781 110.913779,74.5398509 C109.88291,74.8349805 109.610868,75.2603581 108.576109,75.5563124 C107.47683,74.9583635 106.638257,75.4295279 106.259753,76.4653885 C105.219451,77.174145 105.206948,77.9540245 105.655794,78.7559852 C105.792695,78.1975766 105.494542,77.499437 107.183455,77.4460432 C108.602251,77.7505116 109.476038,77.2823571 109.862184,76.1003129 C110.948284,75.7544694 111.469592,75.5390388 112.548018,75.1912368 C113.470349,75.9605613 114.863919,76.1280818 115.788071,76.8877171 C115.892639,78.0429201 116.613548,78.8314168 118.530746,78.3408122 C119.145981,78.7171871 119.480723,79.3175479 119.688918,80.0158112 C119.813746,79.2524034 119.67876,78.5176303 119.390499,77.8039529 C119.011986,76.0356899 117.889318,75.2012003 115.73831,75.8211457 C115.211559,75.3661438 114.488706,75.1268818 113.961955,74.6758381 C115.395914,74.5810074 116.686445,74.5063797 118.118603,74.4181459 C118.854716,75.0916089 119.824481,75.2851254 121.308917,74.4181459 C121.664593,74.0492132 122.180294,74.1508058 123,74.4896813 C122.478813,73.557549 122.15592,73.5410567 121.394207,73.4231368 C120.39479,72.2389485 119.280373,72.1562397 117.884149,73.6665012 C116.42152,73.7114427 115.399931,73.7376243 113.933558,73.7881319 C114.719029,73.1195135 115.137426,72.6080874 115.92306,71.941345 C117.130693,72.327574 118.310448,72.1964396 118.822056,70.8389998 C119.213912,70.3802253 119.64874,70.1105969 120.648137,70.0730769 C119.955857,69.4907132 119.380382,69.2778595 118.132831,69.8583266 C116.291751,69.0248264 116.138336,70.2074067 115.809371,70.982153 C114.561814,71.806974 113.553977,72.5060413 112.30642,73.3300151 C109.763577,72.5827078 107.699281,72.1640096 105.158408,71.4188051 C105.70994,70.8439867 106.262455,70.3206036 106.813966,69.7438061 C106.958643,69.257139 106.704691,69.009569 106.288157,68.9349413 C102.179019,68.0963389 99.8304649,66.4626882 98.401192,62.3137867 C97.8031259,60.5777456 99.0932879,60.0623221 99.5380415,61.1255373 C100.154197,62.5985057 100.827426,64.2182946 102.671514,65.4705136 C103.308952,65.9033539 105.200704,65.5517382 104.08548,64.4970145 C102.919532,63.5624578 102.424008,63.1527685 101.847288,60.8678493 C101.84741,59.7022561 103.049886,59.1832435 103.723115,60.2951955 C104.435695,62.5763153 104.512556,63.5606045 105.804991,65.0267079 C106.787423,66.1411543 108.071583,66.8859259 108.703987,66.8734948 C109.853135,66.8508179 111.00437,65.6361189 109.471368,64.7546943 C107.227382,63.8695939 106.403933,62.6566389 106.075003,61.5049199 C105.713331,59.4937873 106.107131,58.5178349 107.339749,59.5078057 C109.088989,61.461772 112.424488,65.1084334 114.168019,66.8019244 C116.129261,68.2818814 118.371581,68.3288638 120.164961,66.8305798 C121.186294,65.6715217 120.822351,64.4161816 119.219936,64.6903042 C115.606029,64.991536 112.86219,63.21915 109.862151,58.4412694 C109.267871,57.3543652 109.105759,55.8099027 110.409263,56.9595395 C111.907457,58.9546334 114.089492,60.6573457 116.121988,61.3832542 C118.154484,62.1092658 120.037426,61.858253 120.491798,61.0754461 C121.24557,59.7768013 121.074475,58.3484446 119.710194,58.8206397 C118.591926,59.2076315 117.0117,59.3081108 115.368808,58.677569 C113.725956,58.0468232 112.020406,56.6850974 110.203227,54.3754377 C109.584349,53.0672686 109.789925,51.9622022 111.041657,52.6360156 C114.015645,55.1216111 117.847513,57.1338776 119.809694,55.9215906 C121.246845,55.0336865 121.274287,52.7645422 119.447326,52.9080251 C115.762984,53.4096178 114.369926,52.5992687 110.835606,49.5222368 C110.026848,48.9302457 110.084637,47.4349695 111.361415,48.3912568 C114.339679,50.2771717 118.399219,51.0163318 119.994451,50.0304676 C121.429699,49.1434705 121.217145,46.4433825 118.800754,47.4034403 C116.870616,48.5601689 114.731117,48.5259061 110.451932,45.513691 C109.373506,44.6344866 110.177312,43.4773045 111.062992,43.9746916 C114.504001,45.9071354 119.515629,46.7311112 120.825784,42.8079234 C121.328306,41.3031867 120.414795,40.4270829 119.063652,41.4693466 C116.110983,44.1600114 112.758139,42.8363932 110.885361,41.483664 C110.395076,41.4642856 109.355776,39.590678 111.091408,39.8802416 C115.573466,40.8928068 120.003809,40.0167153 120.804461,36.8881491 C121.276923,35.8733162 120.356884,34.0821145 118.722577,35.5853813 C116.567939,37.6792125 114.285911,37.7510488 111.425354,37.7328145 C109.962725,37.4349018 109.950693,35.8463018 111.16956,35.6140139 C113.431992,35.6649339 115.668513,34.6881776 117.45782,33.6956298 C119.201187,32.7111221 120.654263,31.3220315 121.109985,29.4007613 C121.392259,27.6794189 119.713004,25.8533608 118.694157,27.6756463 C117.198214,30.3512186 113.874971,32.8640408 110.189017,33.316239 C109.998706,33.0001022 109.510161,32.1881246 108.917149,32.4143164 C106.747435,33.2418793 103.748467,34.6325429 101.278867,36.0076913 C100.742785,36.3061813 101.372385,37.7508241 101.492035,38.3054456 C101.615225,39.7192067 101.183036,40.6219992 100.738876,41.147217 C100.29472,41.6725833 99.0832199,42.0176908 98.401192,41.8344201 C97.0371363,41.46785 96.3033277,40.2752568 96.5324779,38.1551493 C96.6034862,37.9310189 96.6620118,36.9123515 97.7759217,35.5853874 C98.3356188,34.9185832 99.1193093,34.0675806 100.36228,33.3878465 C101.605254,32.7081164 103.48546,32.3308963 105.748158,31.83454 C107.125126,31.5623965 107.824499,31.0402297 107.908194,30.4816562 C107.249209,30.6354469 106.167999,31.1991742 105.456838,31.0614635 C104.757498,30.9260205 104.404523,30.5858875 104.092598,30.3885984 C104.611818,30.2791308 105.566133,30.403829 106.416056,30.4029137 C107.265987,30.4020891 108.015851,30.2212923 108.519249,30.138068 C109.565363,29.965105 110.395506,29.5349859 110.892445,28.5704339 C111.107333,27.5319139 110.417733,27.3437161 109.769798,28.0121077 C109.22023,28.5790099 109.110218,28.8108503 108.760824,29.0571834 C108.411431,29.3034753 107.823699,29.5415004 107.403706,29.6155096 C106.551729,29.7655895 105.712214,29.9345118 104.625502,29.6728203 C104.840225,29.40179 105.323614,28.9636721 105.762372,28.6921676 C106.201109,28.4206632 106.630761,28.2870962 107.04134,28.3557454 C107.315387,28.40213 107.672087,28.6477209 107.965042,29.1001871 C108.145939,27.9600745 107.825276,26.6788147 104.746304,27.2104377 C104.787436,26.355745 102.95274,25.9819471 101.84731,26.0007277 C101.22127,26.0113446 99.936961,26.3811638 99.0122627,26.816746 C97.5496548,27.2632131 96.0960018,27.5898843 94.3937663,27.711515 C95.3767917,28.543304 95.5699057,28.5908637 96.5609058,29.3006097 C95.0603176,29.850463 93.8980627,30.9903075 93.3776965,31.7343678 C94.6884038,31.797657 95.1212068,31.6865402 95.5661527,31.8774385 C93.7403792,32.4101604 92.9138975,32.7222771 91.9495143,33.6955907 C92.2909273,33.7582614 92.7984834,33.8499998 93.0153146,33.9318016 C93.2394922,34.0165308 93.1466902,34.1325953 92.9940325,34.2968586 C92.5754927,34.5607354 90.9736716,36.4619036 90.500044,36.9024129 C90.0264164,36.4619036 88.4246076,34.5607436 88.0060555,34.2968586 C87.8533978,34.1325541 87.7605549,34.016469 87.9847734,33.9318016 C88.2016046,33.8499586 88.7091607,33.7582202 89.0505737,33.6955907 C88.0861291,32.7223389 87.2596495,32.4102016 85.4338739,31.8774798 C85.8788117,31.6865814 86.3116146,31.7976983 87.6223301,31.7344091 C87.1019659,30.9902683 85.9397131,29.8504362 84.4391208,29.3005623 C85.430127,28.5908163 85.623241,28.5432504 86.6062623,27.7114614 C84.9040269,27.5898307 83.4503718,27.2631636 81.9877639,26.8166965 C81.0630595,26.3811143 79.7787541,26.011289 79.1527185,26.000672 C79.1527185,26.000672 79.7787541,26.011289 79.1527185,26.000672 L79.1527185,26.000672 L79.1527185,26.000672 Z M79.502088,28 C80.425206,28 80.996889,28.316428 80.996889,28.699993 C80.996889,29.090215 80.425206,29.407294 79.502088,29.407294 C78.582813,29.407294 78,29.061277 78,28.670845 C78.0001659,28.28728 78.582813,28 79.502088,28 C79.502088,28 78.582813,28 79.502088,28 L79.502088,28 L79.502088,28 Z M101.49478,28 C102.414055,28 102.9967,28.28728 102.996868,28.670845 C102.996868,29.061277 102.414055,29.407294 101.49478,29.407294 C100.571662,29.407294 100,29.090215 100,28.699993 C100,28.316428 100.571662,28 101.49478,28 C101.49478,28 100.571662,28 101.49478,28 L101.49478,28 L101.49478,28 Z M101.49478,28" fill="#262626" id="path9"/></g></g></svg>