<?xml version="1.0" ?><svg height="120px" version="1.1" viewBox="0 0 180 120" width="180px" xmlns="http://www.w3.org/2000/svg" xmlns:sketch="http://www.bohemiancoding.com/sketch/ns" xmlns:xlink="http://www.w3.org/1999/xlink"><title/><defs/><g fill="none" fill-rule="evenodd" id="Ameria" stroke="none" stroke-width="1"><g id="Group" transform="translate(-1000.000000, 0.000000)"><g id="Suriname" transform="translate(1000.000000, 0.000000)"><rect d="M0,0 L0,120 L180,120 L180,0 L0,0 Z M0,0" fill="#479951" height="120" id="Oval-15-copy" width="180" x="0" y="0"/><rect d="M-1.42108547e-14,30 L-1.42108547e-14,90 L180,90 L180,30 L-1.42108547e-14,30 Z M-1.42108547e-14,30" fill="#FFFFFF" height="60" id="Oval-15-copy" width="180" x="-1.59877022e-14" y="30"/><rect d="M-1.42108547e-14,40 L-1.42108547e-14,80 L180,80 L180,40 L-1.42108547e-14,40 Z M-1.42108547e-14,40" fill="#CA4638" height="40" id="Oval-15-copy" width="180" x="-1.59877022e-14" y="40"/><polygon d="M90.9999996,71 L79.2442959,77.1803406 L81.489435,64.0901703 L71.9788695,54.8196606 L85.1221494,52.9098287 L91.0000002,41 L96.8778547,52.9098316 L110.021134,54.8196701 L100.510564,64.0901728 L102.755704,77.1803408 L90.9999996,71 Z M90.9999996,71" fill="#E5B731" id="Star-29" points="90.9999996 71 79.2442959 77.1803406 81.489435 64.0901703 71.9788695 54.8196606 85.1221494 52.9098287 91.0000002 41 96.8778547 52.9098316 110.021134 54.8196701 100.510564 64.0901728 102.755704 77.1803408 "/></g></g></g></svg>