<?xml version="1.0" ?><svg height="120px" version="1.1" viewBox="0 0 180 120" width="180px" xmlns="http://www.w3.org/2000/svg" xmlns:sketch="http://www.bohemiancoding.com/sketch/ns" xmlns:xlink="http://www.w3.org/1999/xlink"><title/><defs/><g fill="none" fill-rule="evenodd" id="Asia-Pacific" stroke="none" stroke-width="1"><g id="New-zealand" transform="translate(-800.000000, -1.000000)"><g transform="translate(800.000000, 0.000000)"><rect d="M0,1 L0,121 L180,121 L180,1 L0,1 Z M0,1" fill="#346DA6" height="120" id="rect962-copy" width="180" x="0" y="1"/><g id="UK"><path d="M21.4376947,22 L0,7.70820397 L0,1 L10.062306,1 L36,18.291796 L36,18.291796 L36,1 L54,1 L54,18.291796 L79.937694,1 L90,1 L90,7.70820397 L68.5623053,22 L90,22 L90,40 L68.562306,40 L90,54.291796 L90,61 L79.9376964,61 L54,43.7082029 L54,62 L36,62 L36,43.7082029 L10.0623036,61 L0,61 L0,54.291796 L21.437694,40 L0,40 L0,22 L21.4376947,22 Z M21.4376947,22" fill="#FFFFFF" id="White_Diagonal"/><path d="M59,40 L65,40 L90,57 L90,61 L59,40 Z M6,61 L36,40 L30,40 L0,61 L6,61 Z M84,1 L54,22 L60,22 L90,1 L84,1 Z M31,22 L25,22 L0,5 L0,1 L31,22 Z M51,0.999999799 L51,24.9999998 L90,25 L90,37 L51,36.9999998 L51,60.9999998 L39,61 L39,37 L0,37 L0,25 L39,24.9999998 L39,1 L51,0.999999799 Z M51,0.999999799" fill="#CA4638" id="Red_Diagonals-copy"/></g><path d="M162,43 L164.244909,51.1289595 L172,51.1289595 L165.877278,56.0970955 L168.122454,64 L162,59.0321459 L155.877546,63.773945 L158.122454,56.0970955 L152,51.1289595 L159.550911,51.1289595 L162,43 Z M138,87 L140.244909,95.1289595 L148,95.1289595 L141.877278,100.097095 L144.122454,108 L138,103.032146 L131.877546,107.773945 L134.122454,100.097095 L128,95.1289595 L135.550911,95.1289595 L138,87 Z M138,15 L140.244909,23.1289595 L148,23.1289595 L141.877278,28.0970955 L144.122454,36 L138,31.0321459 L131.877546,35.773945 L134.122454,28.0970955 L128,23.1289595 L135.550911,23.1289595 L138,15 Z M115,45 L117.244909,53.1289595 L125,53.1289595 L118.877278,58.0970955 L121.122454,66 L115,61.0321459 L108.877546,65.773945 L111.122454,58.0970955 L105,53.1289595 L112.550911,53.1289595 L115,45 Z M115,45" fill="#CA4638" id="polygon5131-copy" stroke="#FFFFFF"/></g></g></g></svg>