<?xml version="1.0" encoding="UTF-8" standalone="no"?>
<svg width="180px" height="120px" viewBox="0 0 180 120" version="1.1" xmlns="http://www.w3.org/2000/svg" xmlns:xlink="http://www.w3.org/1999/xlink">
    <!-- Generator: Sketch 40.2 (33826) - http://www.bohemiancoding.com/sketch -->
    <title>icon-flag-mx</title>
    <desc>Created with Sketch.</desc>
    <defs>
        <radialGradient cx="50.3606676%" cy="49.7296521%" fx="50.3606676%" fy="49.7296521%" r="23.1118275%" id="radialGradient-1">
            <stop stop-color="#FFFFFF" offset="0%"></stop>
            <stop stop-color="#F15770" offset="100%"></stop>
        </radialGradient>
        <radialGradient cx="50.9656782%" cy="49.9918511%" fx="50.9656782%" fy="49.9918511%" r="19.5499541%" id="radialGradient-2">
            <stop stop-color="#FFFFFF" offset="0%"></stop>
            <stop stop-color="#F15770" offset="100%"></stop>
        </radialGradient>
        <radialGradient cx="50.6139386%" cy="49.5728865%" fx="50.6139386%" fy="49.5728865%" r="17.8472291%" id="radialGradient-3">
            <stop stop-color="#FFFFFF" offset="0%"></stop>
            <stop stop-color="#F15770" offset="100%"></stop>
        </radialGradient>
    </defs>
    <g id="Page-1" stroke="none" stroke-width="1" fill="none" fill-rule="evenodd">
        <rect id="Rectangle-1" fill="#1EA44A" x="0" y="0" width="60" height="120"></rect>
        <rect id="Rectangle-1-copy" fill="#BF3126" x="120" y="0" width="60" height="120"></rect>
        <rect id="Rectangle-1-copy-Copy" fill="#FFFFFF" x="60" y="0" width="60" height="120"></rect>
        <path d="M88.9,82.2 C88.8,82.2 87.3,82.8 86.3,83.3 C85.3,83.7 85.1,84.1 85,84.1 L85.3,84.1 L85.2,84.2 C85.2,84.3 85.3,84.5 85.7,84.5 C86,84.5 86.3,84.3 86.3,84.3 C86.3,84.2 86.8,84 87.4,83.5 C87.9,83.2 88.9,82.9 88.9,82.9 L88.8,82.8 C88.8,82.8 89,82.3 88.9,82.2 L88.9,82.2 Z M118.2,58.5 C118.2,58.4 118.2,58.3 118.1,58.2 L118.1,58.1 C118.1,58.1 117.9,58.3 117.7,58.6 C117.7,58.7 117.6,58.9 117.6,59.1 C117.6,59.1 117.5,58.6 117.3,57.9 C117.1,57.2 116.8,56.7 116.8,56.7 C116.8,56.7 116.2,57.3 116,57.9 C115.8,58.4 115.6,59.3 115.6,60.1 C115.5,59.7 115.3,59.1 115,58.6 C114.5,57.9 114.1,57.9 114.1,57.9 C114.2,58 114.5,58.6 114.5,59.2 C114.4,59.9 114.2,60.8 114.4,61.6 C114.7,62.3 115.1,62.4 115.2,62.8 C115.3,63.1 115.3,63.6 115.3,63.9 L115.3,64.1 L115.3,64.5 L114.4,63.9 L114.4,63.7 C114.4,63.4 114.2,63.1 113.9,63.1 C113.6,63.1 113.4,63.4 113.4,63.7 C113.4,64 113.6,64.3 113.9,64.3 C114,64.3 114.1,64.3 114.2,64.2 L115.2,65.2 C115.1,65.5 115,65.7 115,65.8 C114.9,65.8 114.9,65.9 114.8,65.9 C114.5,66.1 113.8,66.9 113.8,66.9 L113.8,66.4 C113.8,66.2 113.9,65.9 113.9,65.9 C113.9,65.9 113.2,66.1 112.3,66.8 C111.4,67.6 111,68.5 111,69.2 C111,69.9 111.4,70.7 111.5,71.4 L111.5,72.8 C111.5,72.9 111.4,73 111.3,73.2 L110.2,71.9 C110.3,71.8 110.4,71.7 110.4,71.5 C110.4,71.2 110.1,70.9 109.8,70.9 C109.5,70.9 109.2,71.2 109.2,71.5 C109.2,71.8 109.5,72.1 109.8,72.1 L109.9,72.1 L110.9,73.7 C110.7,73.9 110.5,74 110.4,74.1 C110.3,74.1 110,74 109.3,74.4 C108.9,74.6 108.5,74.9 108.2,75.1 C108,75.2 107.9,75.3 107.9,75.3 C107.9,75.3 108.1,75 108.1,74.3 C108.1,73.6 107.8,73.2 107.8,73.2 C107.8,73.2 107.8,73.4 107.7,73.8 L107.7,73.9 C107.7,74 107.6,74.1 107.5,74.2 C107.1,74.7 105.1,76.1 104.9,76.8 C104.7,77.6 104.8,77.6 104.7,78 C104.5,78.7 104.2,79 104.1,79.1 C104,79.1 104,79.2 103.9,79.3 C103.8,79.4 103.7,79.4 103.6,79.5 L103.2,78.4 C103.3,78.3 103.4,78.2 103.4,78 C103.4,77.7 103.1,77.4 102.8,77.4 C102.5,77.4 102.2,77.6 102.2,78 C102.2,78.3 102.5,78.6 102.8,78.6 L102.9,80.1 L102.6,80.4 C102.5,80.6 102.4,80.8 102.4,80.9 L102.3,80.9 C102,80.8 101.7,80.7 101.3,80.7 C101,80.7 100.6,80.8 100.3,80.8 C100.3,80.8 100.6,80.6 100.8,80.4 C101,80.2 101.1,80 101.1,80 C101.1,80 100.2,79.6 99.5,79.6 C98.8,79.6 98.1,79.7 97.4,80.1 C96.7,80.5 96.4,81.2 95.7,81.7 C95.1,82.1 94.4,82.3 94.2,82.3 L94,82.3 C93.4,82.2 93.1,82 92.4,81.9 C91.5,81.8 91,81.9 91,81.9 L91,82.2 L91,82.4 L91,82.5 L91.1,82.5 L91.1,82.8 L91.4,82.9 C91.2,82.9 91.1,82.8 91.1,82.8 C91.1,82.8 91,83 91.2,83 C91.4,83.1 92.1,83.3 92.6,83.5 C93.1,83.7 93.5,84.2 93.6,84.3 C93.6,84.4 93.8,84.6 94.1,84.6 C94.4,84.6 94.6,84.4 94.5,84.3 C94.5,84.3 94.3,83.9 93.6,83.4 C93.5,83.3 93.3,83.2 93.1,83.1 C92.5,82.8 92,82.6 91.6,82.5 C92.1,82.5 92.9,82.6 93.3,82.7 C93.9,82.9 94.5,83.3 95,83.7 C95.6,84.2 96.6,85.1 97.4,85.1 C98.6,85.1 101,83.8 101.5,83.6 C102,83.4 102.8,83.4 102.8,83.4 C102.8,83.4 102.8,83.4 102.7,83.4 C102.6,83.3 102.3,83.2 102,83.1 L101.6,82.9 C101.4,82.8 100.8,82.9 100.8,82.9 C100.8,82.9 101.5,82.4 101.8,82.2 C102.1,82 102.5,81.5 102.5,81.5 C102.5,81.5 102.7,81.2 103.1,80.9 L104.5,81.7 L104.5,81.8 C104.5,81.9 104.5,82 104.6,82.1 C104.7,82.2 104.9,82.3 105,82.3 C105.1,82.3 105.2,82.3 105.4,82.2 C105.6,82.1 105.6,81.9 105.6,81.7 C105.6,81.6 105.6,81.5 105.5,81.4 C105.4,81.3 105.2,81.2 105.1,81.2 C105,81.2 104.9,81.2 104.7,81.3 L103.7,80.3 C103.9,80.1 104.2,80 104.6,79.9 C105.3,79.9 108.1,79.9 109.3,79.2 C110.7,78.3 110.5,76.9 110.6,76.7 C110.7,76.5 110.9,76.2 110.9,76.2 L110.4,76.2 C110.1,76.2 109.9,76.4 109.9,76.4 C109.9,76.4 110,75.9 110.2,75.5 C110.3,75.3 110.3,75.1 110.3,74.9 L110.4,74.8 L110.5,74.8 C110.7,74.8 110.8,74.7 111,74.4 L112.3,74.6 C112.3,74.9 112.6,75.2 112.9,75.2 C113.2,75.2 113.5,74.9 113.5,74.6 C113.5,74.3 113.3,74 112.9,74 C112.7,74 112.5,74.1 112.4,74.3 L111.4,73.9 C111.5,73.7 111.6,73.5 112,73.2 C112.1,73.1 112.3,72.9 112.5,72.8 C112.9,72.7 113.4,72.7 114.2,72.3 C115.3,71.7 115.8,70 116.1,69.1 C116.4,68.3 117.2,67.5 117.2,67.5 C117.2,67.5 116.5,67.3 115.3,68.5 C115.3,68.5 115.4,67.6 115.3,67 C115.3,66.6 115.2,66.4 115.2,66.2 L115.2,66 C115.2,66 115.3,65.8 115.3,65.6 L117,65.1 C117.1,65.2 117.2,65.3 117.4,65.3 C117.7,65.3 117.9,65.1 117.9,64.8 C117.9,64.5 117.7,64.3 117.4,64.3 C117.1,64.3 116.9,64.5 116.9,64.8 L115.5,64.9 C115.5,64.8 115.6,64.7 115.6,64.6 C115.8,64.1 116.2,63.7 116.7,63.3 C117.4,62.8 118.8,62.1 118.9,60.7 C119,59.3 118.3,58.9 118.2,58.5 L118.2,58.5 Z M75.3,80.4 C75.1,80.1 75,80 74.8,80 C74.7,80 74.6,80 74.6,80.1 C74.5,80.2 74.5,80.3 74.5,80.4 L74.5,80.6 L74.4,80.6 C74.2,80.6 74.1,80.6 74,80.7 C73.9,80.8 73.8,80.9 73.8,81 C73.8,81.1 73.9,81.2 74,81.3 C74.1,81.4 74.3,81.4 74.4,81.4 C74.5,81.4 74.6,81.4 74.7,81.3 C74.7,81.4 74.8,81.4 74.8,81.5 C74.9,81.6 75,81.6 75.1,81.6 L75.2,81.6 C75.3,81.6 75.4,81.5 75.5,81.4 C75.6,81.3 75.6,81.2 75.6,81 L75.6,80.8 L75.5,80.8 C75.4,80.7 75.4,80.5 75.3,80.4 L75.3,80.4 Z M85.5,82.7 C85.6,82.7 85.9,82.5 86.2,82.3 C86.6,82 87.2,81.9 87.5,81.8 C87.9,81.7 88.1,82 88.3,82.1 C88.5,82.2 88.8,82.2 88.8,82.2 L88.8,82 L88.9,81.5 C88.9,81.5 88.2,81.2 87.7,81.2 C86.4,81.6 85.7,81.9 85.5,82 C85.4,82 85.3,82.1 85.1,82 C84.6,81.8 84.4,81.1 84.2,81.1 C83.9,81.1 84.1,81.8 84,81.9 C83.6,81.9 83.2,80.3 82.2,80.3 C81.5,80.3 81.3,80.4 81.3,80.6 C81.3,80.8 82.2,81.7 81.9,81.9 C81.6,82 80.6,80.4 79.9,80.4 C79.2,80.4 79.1,80.7 79.2,80.8 C79.3,81 80,81.1 79.8,81.6 C79.6,82.1 78.9,80.8 78.3,80.9 C77.9,80.9 77.8,81 77.7,81 L77.6,80.9 L77.2,79 C77.3,79 77.4,78.9 77.4,78.8 C77.5,78.7 77.6,78.5 77.6,78.4 C77.6,78.3 77.6,78.3 77.5,78.2 C77.4,78.1 77.4,78.1 77.3,78.1 C77.2,78.1 77.2,78.1 77.1,78.2 L77.1,78.1 C77.1,78 77,77.8 77,77.7 C76.9,77.6 76.8,77.5 76.7,77.5 C76.6,77.5 76.5,77.6 76.4,77.7 C76.3,77.8 76.3,77.9 76.3,78 C76.3,78.1 76.3,78.2 76.4,78.3 C76.3,78.3 76.2,78.3 76.2,78.4 C76.1,78.4 76.1,78.5 76.1,78.6 C76.1,78.8 76.2,78.9 76.3,79 C76.4,79.1 76.6,79.1 76.8,79.1 L76.9,79.1 L77,80.2 C76.6,79.8 76.5,79.7 76.3,79.6 C76.3,79.6 75.7,79.2 75.5,78.7 C75.3,78.2 75.5,77.1 75.2,77.1 C74.9,77.1 74.8,77.9 74.5,77.7 C74.2,77.5 74.6,76.1 74.3,75.5 C74,74.9 73.4,74.5 73.2,74.7 C73,74.9 73.1,76.2 72.7,75.9 C72.3,75.6 72.7,74.5 72.6,74 C72.5,73.5 72.2,73.1 71.9,73.2 C71.7,73.3 72,74.3 71.6,74.3 C71.2,74.3 71.3,73.6 71.1,73.6 C70.9,73.5 70.9,73.7 70.8,73.6 C70.7,73.5 70.8,73 70.6,73 C70.5,73 70.5,73.1 70.5,73.3 C70.5,73.5 70.4,73.9 70.5,74.2 C70.4,74.1 70.2,74 69.9,73.8 L69.9,72.3 C70,72.3 70.2,72.3 70.3,72.2 C70.4,72.1 70.6,72 70.6,71.8 L70.6,71.7 C70.6,71.6 70.5,71.6 70.5,71.5 C70.5,71.5 70.5,71.4 70.4,71.4 C70.3,71.3 70.3,71.3 70.2,71.3 C70.2,71.2 70.3,71.1 70.3,71 C70.3,70.8 70.3,70.7 70.2,70.6 C70.1,70.5 70,70.4 69.9,70.4 C69.8,70.4 69.7,70.5 69.6,70.6 C69.5,70.7 69.5,70.8 69.5,71 L69.5,71.2 L69.4,71.2 C69.3,71.2 69.2,71.2 69.1,71.3 C69,71.3 69,71.4 68.9,71.5 L68.9,71.6 C68.9,71.8 69,71.9 69.1,72 C69.2,72.1 69.3,72.1 69.4,72.1 L69.4,73.2 C69,72.9 68.8,72.6 68.6,72.5 C68.6,72.4 68.2,72 68.4,71.3 C68.5,70.5 69,69.2 68.9,69.1 C68.7,68.9 68.2,69.9 68,69.7 C67.9,69.5 68.3,68.1 68.1,67.6 C67.9,67.1 67.8,66.7 67.4,66.8 C66.9,66.8 66.7,68.4 66.5,68.1 C66.3,67.8 66.6,67.1 66.5,66.8 C66.3,66.4 66.3,66.3 66,66.4 C65.8,66.5 65.7,67.2 65.5,67.2 C65.4,67.2 65.2,66.8 65,66.6 L65,65.5 L65.7,63.9 C65.8,63.9 65.9,64 66,64 C66.2,64 66.3,64 66.4,63.9 C66.5,63.9 66.6,63.7 66.6,63.6 C66.6,63.5 66.6,63.4 66.5,63.3 C66.4,63.2 66.3,63.2 66.2,63.1 C66.3,63 66.4,62.9 66.4,62.8 C66.5,62.7 66.5,62.5 66.5,62.4 C66.5,62.3 66.5,62.2 66.4,62.1 L66.3,62.1 C66.1,62.1 66,62.2 65.9,62.4 C65.8,62.5 65.8,62.7 65.8,62.8 L65.7,62.7 C65.7,62.7 65.6,62.6 65.5,62.6 C65.4,62.6 65.3,62.6 65.3,62.8 C65.3,62.9 65.2,63 65.2,63 C65.2,63.2 65.3,63.4 65.5,63.6 L64.8,64.6 C64.6,64.1 64.4,63.7 64.5,63.2 C64.6,62.6 64.8,62.5 64.8,62.3 C64.8,62 64.4,62.5 64.5,62.1 C64.6,61.7 65.9,60.9 65.6,60.5 C65.3,60.1 64.1,61.2 64.4,60.4 C64.7,59.7 65.8,59.7 65.9,58.7 C65.9,58.1 64.8,59.1 64.7,58.8 C64.6,58.5 65.4,57.8 65.4,57.4 C65.4,57 65.5,56.9 65.3,56.7 C65.3,56.6 65.2,56.6 65,56.7 C64.5,56.9 64.6,57.3 64.2,57.3 C64.1,57.3 63.9,56.7 63.8,56.9 C63.6,57 63.3,57.4 63.2,57.8 C63.1,58.2 63.3,58.8 63.1,58.9 C62.9,59.1 62.7,58.2 62.3,58.4 C61.9,58.5 61.8,59.1 61.8,59.3 C61.9,59.5 62.8,60.6 62.5,60.7 C62.2,60.8 61.5,59.8 61.1,60.5 C60.7,61.2 62.3,61.9 62.5,62.1 C62.7,62.3 62.5,62.3 62.8,62.7 C63.1,63.1 63.5,63.1 63.7,63.4 C63.9,63.6 64.2,64.3 64.4,64.9 L63.3,64.3 C63.4,64.2 63.4,64 63.4,63.9 L63.4,63.6 C63.4,63.5 63.2,63.4 63.1,63.4 C63,63.4 63,63.4 62.9,63.5 C62.8,63.6 62.8,63.6 62.7,63.7 L62.5,63.5 C62.4,63.4 62.2,63.4 62.1,63.4 C62,63.4 61.8,63.4 61.8,63.6 L61.8,63.7 C61.8,63.9 61.9,64.1 62.2,64.2 C62.3,64.2 62.3,64.3 62.4,64.3 C62.4,64.3 62.3,64.4 62.3,64.5 C62.3,64.6 62.3,64.7 62.4,64.7 C62.5,64.8 62.6,64.8 62.7,64.8 C62.8,64.8 63,64.7 63.2,64.6 L64.6,65.8 L64.6,66.6 L64.6,67 C64.4,67 64.1,66.7 64,66.9 C63.9,67.1 64.6,67.6 64.4,67.8 C64.3,67.9 63.3,67.6 63.2,67.9 C63.1,68.2 63.3,68.7 63.9,68.8 C64.5,68.9 65.8,69.3 65.6,69.5 C65.4,69.8 63.9,68.7 64,69.5 C64.1,70.3 64.6,70.6 64.9,70.7 C65.3,70.8 66.7,70.7 66.7,71 C66.6,71.3 65.5,70.9 65.4,71.4 C65.3,71.9 66.2,72 66.4,72 C66.6,72 67.2,72 67.4,72.2 C67.6,72.4 68.5,73.3 69,73.7 L69.1,73.8 L68,73.8 C68,73.6 67.9,73.5 67.8,73.3 C67.7,73.2 67.5,73.1 67.4,73.1 L67.2,73.1 C67.1,73.1 67.1,73.2 67.1,73.3 L67.1,73.4 L67.1,73.6 L66.8,73.6 C66.6,73.6 66.5,73.6 66.4,73.7 C66.3,73.7 66.3,73.8 66.3,73.8 L66.2,73.9 C66.2,74 66.2,74 66.3,74 C66.4,74.1 66.6,74.2 66.9,74.2 L67,74.2 L67,74.3 C67,74.3 67,74.3 67,74.4 C67,74.5 67,74.5 67.1,74.6 C67.1,74.7 67.2,74.7 67.4,74.8 L67.5,74.8 C67.8,74.8 68,74.6 68.1,74.3 L69.7,74.4 C70.1,74.7 70.6,75 70.6,75 C70.3,75 69.7,74.9 69.6,75.1 C69.5,75.4 71.8,76.2 71.1,76.5 C70.4,76.8 69.7,75.8 69.5,76.4 C69.3,77 69.9,77.5 70.3,77.7 C70.7,77.9 72.7,77.7 72.3,78.2 C71.9,78.7 70.4,77.9 70.4,78.4 C70.4,79 71.4,79.8 71.9,79.8 C72.4,79.8 73,78.9 73.2,79.4 C73.4,79.8 72.8,80 73.3,80.2 C73.8,80.3 74.2,79.7 74.7,79.8 C75.2,79.9 76,80.2 76.5,80.6 L77.1,80.6 C77.3,80.8 77.6,81 77.7,81.2 C77.6,81.2 77.2,81.3 76.9,81.5 C76.7,81.6 76.4,81.9 76.3,82.1 C76.2,82.2 76.1,82.3 76.1,82.3 L76.1,82.4 L76.8,82.4 C76.9,82.3 77,82.1 77.1,82.2 C77.1,82.3 77.2,82.6 77.4,82.6 C77.6,82.6 78.4,82 78.9,82.2 C79.5,82.5 78.1,82.9 78.3,83.3 C78.4,83.7 79.4,83.5 79.7,83.4 C80,83.3 80.7,82.3 81,82.7 C81.4,83.2 80.1,83.6 80.3,84.1 C80.5,84.6 81.3,84.5 81.7,84.3 C82.1,84.1 82.9,82.8 83.1,83.1 C83.4,83.6 82.4,84.1 82.6,84.4 C82.9,84.8 83.4,84.4 83.8,84.1 C84.2,83.8 84.3,83.2 84.9,82.9 C85.4,82.6 85.4,82.7 85.5,82.7 L85.5,82.7 Z" id="Combined-Shape" fill="#717732"></path>
        <path d="M87.4,85.9 C87.1,85.7 87,85.8 87,85.8 L86.9,85.7 L87.2,85 L89.2,83.1 L89.5,81.2 L89.6,81.2 L90.8,81.2 L90.8,83.8 L91,84 L93.2,85.3 L93.2,85.9 C93.2,85.9 93.1,85.9 92.9,86 C92.7,86.1 92.6,86.2 92.6,86.2 L91.8,86.3 L90.3,85.2 L89.7,84.6 L88.6,86 L87.9,86.3 C87.9,86.3 87.7,86.1 87.4,85.9 C87.4,85.9 87.7,86.1 87.4,85.9 L87.4,85.9 L87.4,85.9 L87.4,85.9 L87.4,85.9 Z" id="path317" fill="#FFFFFF"></path>
        <path d="M89.5,81.6 C89.5,81.9 89.5,83.5 89.4,83.7 C89.3,83.9 88.2,84.4 87.6,84.9 C87,85.4 87,85.8 87,85.8 C87,85.8 86.8,85.8 86.4,86 C86,86.1 85.8,86.4 85.8,86.4 C85.8,86.4 86,85.4 87,84.5 C88,83.6 88.5,83.5 88.6,83.4 C88.7,83.3 88.6,81.5 88.6,81.4 C88.6,81.3 88.7,81.3 88.8,81.2 L89.4,81.2 C89.4,81.2 89.5,81.3 89.5,81.6 C89.5,81.6 89.5,81.3 89.5,81.6 L89.5,81.6 Z M92.3,86.5 C92.4,86.4 92.6,86.2 92.6,86.2 C92.6,86.2 92.6,86.2 92.1,85.9 C91.6,85.7 91.3,85.7 90.9,85.5 C90.5,85.2 90.1,84.7 90.1,84.7 L89.6,85.2 C89.6,85.2 89.9,85.6 90.2,85.9 C90.5,86.2 91.2,86.3 91.5,86.4 C91.8,86.6 92.1,86.8 92.1,86.8 C92.1,86.8 92.2,86.6 92.3,86.5 C92.3,86.5 92.2,86.6 92.3,86.5 L92.3,86.5 Z" id="Combined-Shape" fill="#016848"></path>
        <path d="M91.1481241,83.5062848 C91.1685331,83.4382275 91.1861773,83.3691137 91.2,83.3 C91.3,82.8 91.3,81.4 91.3,81.4 C91.3,81.4 91.3,81.3 91.2,81.2 C91.1,81.1 91.2,81.2 91.2,81.2 C91.1,81.1 90.4,81 90.4,81 C90.4,81 90.5,82.2 90.4,83 C90.3,83.8 89.7,84.3 89,84.8 C88.3,85.3 87.8,86 87.8,86.1 C87.7,86.2 87.9,86.2 88,86.4 L88.3,86.7 C88.3,86.7 88.8,86.1 89.2,85.7 C89.7,85.3 90.6,84.5 90.7,84.4 C90.7186975,84.3813025 90.7443869,84.3486212 90.7744536,84.3045707 C90.8872515,84.4638379 91.0586864,84.6552119 91.3,84.8 C91.8,85.2 92.2,85.1 92.6,85.4 C93,85.7 93.3,86 93.3,86 C93.3,86 93.3,85.9 93.8,85.9 C94.3,85.9 94.5,86.1 94.5,86.1 L93.5,85.1 C93.2,84.8 92.2,84.5 91.8,84.2 C91.5502557,84.0126918 91.3005115,83.7084358 91.1481241,83.5062848 L91.1481241,83.5062848 L91.1481241,83.5062848 Z" id="Combined-Shape" fill="#CD202A"></path>
        <path d="M102.7,74.3 C102.4,73.9 102,73.9 101.6,73.9 C101.4,73.9 100.9,74.2 100.7,74.4 C100.5,74.4 100.1,74.5 99.7,74.7 C99,74.9 97.8,75.2 96.6,75.2 C95.8,75.2 95.4,75.1 95.2,75.1 C95.1,75.1 85,74.5 84.7,74.5 L84.2,74.5 C83.1,74.4 82.4,73.1 82.1,72.6 C82.3,72.4 82.5,72.2 82.5,71.9 C82.5,71.4 82.1,70.9 81.6,70.9 C81.1,70.9 80.7,71.3 80.7,71.9 C80.7,72.4 81.1,72.8 81.5,72.8 C81.5,73.1 81.5,73.5 81.3,73.6 C80.7,73.8 77.3,72 76.5,71.5 C76.5,71.4 76.4,71.3 76.4,71.2 C76,70.6 74.2,70.1 73.9,70.7 C73.7,71.3 74.6,72.4 75.3,72.5 C75.7,72.6 76,72.5 76.2,72.4 C76.8,72.7 78.7,73.8 78.6,74.3 C78.5,74.6 78.2,74.7 78,74.8 C77.8,74.6 77.6,74.5 77.3,74.5 C76.8,74.5 76.4,74.9 76.4,75.5 C76.4,76 76.8,76.5 77.3,76.5 C77.8,76.5 78.2,76.1 78.2,75.6 C78.9,75.6 82.5,75.9 82.6,77.1 C82.6,77.5 82,77.8 81.7,77.9 C81.4,77.7 81,77.7 80.6,77.8 C80,78 79.4,78.6 79.6,79 C79.8,79.4 80.9,79.5 81.4,79.3 C81.8,79.1 82.1,78.9 82.2,78.6 C82.8,78.6 84.5,78.7 85,79 C85.7,79.4 86,79.9 86.8,80.4 C87.6,80.9 93.1,80.8 93.9,80.5 C94.9,80.2 95.5,79.1 97,78.7 C98.1,78.4 98.7,78.3 98.9,78.2 C99.1,78.5 99.4,78.7 99.8,78.7 C100.3,78.7 100.8,78.3 100.8,77.7 C100.8,77.2 100.4,76.7 99.8,76.7 C99.3,76.7 99,77 98.9,77.5 C98.5,77.3 98,77 98,76.7 C98.1,76.3 99.9,75.8 100.7,75.6 C100.7,75.7 100.7,75.7 100.8,75.8 C101.3,76.4 102.1,75.8 102.3,75.6 C102.3,75.1 102.9,74.7 102.7,74.3 L102.7,74.3 L102.7,74.3 Z" id="Shape" fill="#F8C83C"></path>
        <path d="M94.9,77.6 C94.9,77.6 95.3,77.1 95.3,76.4 C95.3,75.7 95.1,75.6 95.1,75.6 C95.1,75.6 95.5,75.2 95.5,74.7 C95.5,74.2 94.9,73.7 94.6,73.7 C94.3,73.7 93.9,73.9 93.8,74.2 L92.8,73.7 L90.3,73.6 L89.3,73.6 L88.1,73.6 L88.2,73.8 L88.1,73.7 C88,73.6 87.7,73.6 87.3,73.6 L86.6,73.6 L86,73.6 C85.9,73.4 85.6,73.2 85.3,73.2 C84.8,73.2 84.4,73.8 84.4,74.3 C84.4,74.8 84.8,75 84.8,75.1 C84.8,75.1 84.4,75.5 84.4,76.2 C84.4,76.9 85,77.5 85,77.5 C85,77.5 84.4,78 84.4,78.5 C84.4,79 84.9,79.3 85.3,79.3 C85.6,79.3 86,79.1 86.2,78.9 C86.3,79 86.4,79 86.4,79.1 C86.6,79.3 86.9,79.3 87.7,79.4 C88.4,79.6 89.4,79.5 89.8,79.5 L90,79.6 L90.7,79.6 L91.4,79.6 C91.4,79.6 91.4,79.5 91.3,79.5 L91.4,79.5 L92.3,79.4 C92.3,79.4 92.3,79.5 92.4,79.5 C92.6,79.7 93.7,79.2 94,79.1 C94.2,79.3 94.5,79.4 94.7,79.4 C95,79.4 95.5,79.2 95.5,78.5 C95.5,77.8 94.9,77.6 94.9,77.6 L94.9,77.6 L94.9,77.6 Z" id="Shape" fill="#F9AA51"></path>
        <path d="M75.7000001,67.7948378 C75.6357495,67.7981054 75.5688221,67.8 75.5,67.8 L75,67.8 L74.8,67.7 L74.2,67.7 C74.2,67.8 74.2,67.9 74.1,68 C74,68.1 73.6,68.2 73.6,68.2 L74,67.8 L74,67.6 C73.9,67.5 73.9,67.5 73.8,67.5 L73.7,67.5 L73.6,67.5 L72.6,67 L72.4,66.8 C72.3,66.9 72.2,66.9 72.1,66.9 C71.8,66.9 71.6,66.5 71.6,66.5 C71.6,66.5 72,66.7 72.1,66.6 L71.8,66.3 L71.6,66 C71.4,65.9 71.3,65.7 71.2,65.5 L71.1,65.4 L71,65.2 C70.9,65.1 70.9,65 70.9,65 L70.9,64.9 L70.9,64.8 L70.9,64.7 L70.8,64.7 C70.6,64.7 70.4,64.3 70.4,64.3 C70.4,64.3 70.7,64.4 70.8,64.4 L70.8,64 C70.8,63.3 71.1,62.7 71.4,62.4 C71.6,62.1 71.9,62 72.3,61.9 L72.4,61.9 L72.6,61.9 L72.7,61.9 L72.5,61.9 C72.5,61.9 72.5,62 72.4,62 C72.8,62 73.2,62 73.6,62.2 L73.6,62.1 C73.2,62 72.9,61.9 72.6,61.9 L72.7,61.9 C73,61.9 73.3,62 73.6,62.1 L73.6,61.8 L73.6,61.3 C73.6,61.3 74,61.7 73.9,62 L73.9,62.2 C74.2,62.4 74.6,62.7 75,63 C74.6,62.6 74.2,62.4 73.9,62.2 L73.8,62.3 C74.1,62.5 74.5,62.7 74.9,63.1 C75,63.2 75.1,63.3 75.2,63.4 C75.1,63.4 75.1,63.3 75.1,63.3 L75,63.2 L75.1,63.3 C75,63.2 75,63.1 75,63.1 L75.6,63.6 L75.7,63.7 C75.7,63.6 75.6,63.6 75.6,63.6 L75.7,63.7 L76,64.2 C75.9,64 75.8,63.9 75.7,63.7 L75.6,63.6 L75.7,63.7 C75.7,63.6 75.6,63.5 75.5,63.4 C75.6,63.5 75.6,63.6 75.7,63.7 C75.8,63.9 75.9,64 76,64.2 L76.1,64.2 C76.2,64.1 76.4,64 76.4,64 C76.4,64 76.3,64.5 76.1,64.5 C76.3391309,65.1376825 76.4511872,65.7118277 76.4868146,66.1211439 C76.8288546,65.8093698 77.1930345,65.5689885 77.7,65.4 C77.7,65.3 77.6,65 77.6,65 C77.6,65 77.9,65.2 78,65.4 C78.1,65.3 78.3,65.3 78.5,65.3 L78.7,65.3 C79.1,65.3 79.5,65.4 79.9,65.5 C80.8,65.8 81.5,66.3 82.1,66.8 C82.6,67.3 82.9,67.6 83.1,67.9 C83.2,67.6 83.4,67.4 83.6,67.2 C83.5,67.1 83.5,67.1 83.3,66.9 C83.2,66.7 83.1,66.5 83.1,66.5 C83.1,66.5 83.6,66.6 83.6,66.8 L83.8,67 C83.9,66.8 84.1,66.7 84.2,66.6 C84.4,66.5 84.6,66.4 84.8,66.4 L84.7,66.4 L84.8,66.4 L85,66.4 C84.9,66.4 84.9,66.3 84.9,66.3 C84.9,66.2 84.6,65.8 84.6,65.8 C84.6,65.8 85,66 85.2,66.2 C85.3,66.3 85.3,66.3 85.3,66.4 L85.4,66.4 L85.2,66.2 C85.1,66.1 85,65.6 85,65.6 L85.5,66.1 C85.6,66.1 85.6,66.3 85.6,66.4 C85.9,66.5 86.2,66.5 86.6,66.6 C87,66.7 87.3,66.9 87.7,67 L87.7,66.9 L87.7,66.7 C87.7,66.6 87.6,66.3 87.6,66.3 C87.6,66.3 87.8,66.4 87.9,66.7 L87.9,67 C88,67 88,67.1 88.1,67.1 L88.1,66.9 L88.1,66.4 C88.1,66.4 88.4,66.8 88.4,66.9 C88.4,67.1 88.4,67.2 88.3,67.2 C88.6,67.3 88.8,67.4 89,67.6 C89.3,67.7 89.5,67.8 89.7,67.9 C89.9,68 90.2,68 90.4,68 L91,68 L93,67.9 L92.3,69 L94.2,68.5 L94.5,68.4 L95.4,67.9 C95.4,67.9 96.6,68 96.6,67.9 C96.6,67.9 97.8,68.5 97.9,68.5 L98.5,69.2 C98.5,69.2 98.6,69.5 98.7,70 L98.7,70.3 L98.8,70.6 L98.7,70.8 C98.9,70.9 99.1,70.9 99.5,70.9 L99.6,70.9 C99.8,70.9 100,70.9 100.1,70.8 C100.2,70.7 100.3,70.6 100.4,70.5 C100.5,70.3 100.7,70 101.1,69.6 C101,69.5 101.1,69.2 101.2,69 C101.3,68.8 101.6,68.7 101.6,68.7 C101.6,68.7 101.5,69 101.5,69.2 L101.5,69.3 C101.8,69 102.1,68.7 102.4,68.5 C102.5,68.4 102.7,68.3 102.8,68.2 C102.8,68.1 102.9,68 102.9,67.9 C103,67.7 103.5,67.5 103.5,67.5 C103.5,67.5 103.2,67.9 103.2,68 L103.4,68 C103.5,68 103.7,68 103.8,68.1 C103.9,68.1 104,68.2 104.2,68.3 C104.6,68.5 104.9,68.8 105.1,69 C105.2,69.1 105.3,69.3 105.4,69.4 C105.5,69.6 105.6,69.8 105.6,70.1 C105.7,70.4 105.7,70.7 105.7,71 L105.7,71.3 L105.9,71.3 C106,71.3 106.2,71.2 106.2,71.2 C106.2,71.2 106,71.5 105.8,71.5 C105.8,71.5 105.6,71.4 105.5,71.4 L105.3,71.6 C105.2,71.6 105.1,71.7 105,71.8 C104.9,71.9 104.8,71.9 104.7,72 C104.6,72.1 104.5,72.1 104.4,72.2 C104.5,72.2 104.5,72.1 104.6,72.1 L104.2,72.3 C104,72.5 103.8,72.6 103.5,72.7 C103.7,72.6 103.9,72.6 104,72.5 C104.2,72.4 104.3,72.4 104.4,72.3 C104.2,72.4 104,72.6 103.7,72.7 C103.7,72.8 103.6,72.8 103.6,72.8 C103.7,73 104.2,73 104.2,73 C104.2,73 104,73.2 103.7,73.1 C103.5,73.1 103.4,73 103.3,72.9 C103.4,73 103.4,73.1 103.5,73.1 C103.6,73.1 104,73.3 104,73.3 C104,73.3 103.5,73.3 103.3,73.2 C103.3,73.1 103.2,73 103.1,72.9 C102.5,73.1 101.9,73.3 101.4,73.3 L101.3,73.3 C101.8,73.3 102.4,73.1 103,72.9 C102.5,73.1 101.9,73.3 101.3,73.3 L101.2,73.3 L101.3,73.3 L101.2,73.3 C100.4,73.3 99.7,73.1 99,72.9 L99,73 C99,73.2 99.3,73.7 99.3,73.7 C99.3,73.7 99.1,73.6 98.9,73.3 C98.8,73.1 98.7,72.9 98.7,72.8 C98.6,72.8 98.5,72.7 98.4,72.7 C97.9,72.6 97.6,72.4 97.3,72.3 L97,72.4 L96.9,72.4 L96.6,72.5 L95.9,72.6 L94.9,72.9 C94.9,72.9 94.6,73 94.4,73.1 C94.2,73.2 93.9,73.4 93.7,73.5 L93.6,73.5 C93.6,73.6 93.5,73.6 93.5,73.7 L93.3,73.9 L93,75 L93,75 C93,75.2 92.9,75.4 92.9,75.4 C92.9,75.5 92.8,75.5 92.6,75.5 L91.3,75.6 L90.8,75.6 L90.7,75.6 C90.6,75.6 90.5,75.6 90.4,75.5 C90.3,75.4 90.2,75.3 90.2,75.2 C90.2,75.2 90.2,74.7 90.4,74 L90.4,74.8 L90.4,75.2 C90.4,75.2 90.4,75.4 90.5,75.4 L90.5,75 L90.5,74.1 C90.4,73.9 90.3,73.6 90.3,73.4 C90.3,73.2 90.4,72.9 90.5,72.5 L90.5,72.4 C90.5,71.7 90.5,71.4 90.6,71 C90.6,71.2 90.5,71.3 90.5,71.4 L90.5,71.5 L90.5,71.3 C90.5,71.3 90.6,71.2 90.6,71.1 L90.4,71.2 L90.2,71.3 C89.9,71.5 89.7,71.7 89.3,71.8 C89.3,71.9 89.2,71.9 89.2,72 C89.1,72.2 88.9,72.5 88.9,72.5 L88.9,72 L88.7,72.2 L88.6,72.3 C88.5,72.4 88.3,72.6 88.3,72.6 C88.3,72.6 88.4,72.3 88.5,72.1 L88.5,72 C88.2,72.1 87.9,72.1 87.6,72.1 L86.9,72.1 L86.8,72.2 C86.6,72.4 86.3,72.5 86.3,72.5 C86.3,72.5 86.5,72.2 86.6,72 C85.9,72 85.2,71.8 84.8,71.7 C84.7,71.7 84.6,71.6 84.5,71.6 C84.4,71.7 84.3,71.8 84.2,71.8 C84,71.9 83.7,71.7 83.7,71.7 C83.7,71.7 83.9,71.7 84,71.6 C84.1,71.5 84.1,71.5 84.1,71.4 C83.8,71.3 83.5,71.1 83.3,70.9 C82.9,70.5 82.7,70 82.6,69.5 L82.6,69.6 C82.5,69.6 81.7,70 81.7,70 L80.5,70.2 L79.5,70.1 C79.5,70.2 79.4,70.3 79.3,70.4 C79.1,70.6 78.8,70.7 78.8,70.7 C78.8,70.7 78.9,70.4 79,70.2 L79.1,70.1 L79,70.1 L79,70.3 C78.9,70.3 78.5,70.6 78.5,70.6 C78.5,70.6 78.6,70.2 78.7,70.1 L78.6,70.1 L77.8,69.9 L77.4,69.7 C77.2,69.6 77,69.5 76.8,69.4 L76.4,69.2 L76.3,69 C75.9,68.6 75.7,68.3 75.7,68 L75.7,67.8 C75.7,67.7982793 75.7,67.7965586 75.7000001,67.7948378 L75.7000001,67.7948378 L75.7000001,67.7948378 Z" id="Combined-Shape" fill="#04534E"></path>
        <path d="M79.4,65.8 C79.5,65 80.1,64.3 80.7,64.4 C81.3,64.5 81.6,65.3 81.5,66.1 C81.4,66.9 80.8,67.6 80.2,67.5 C79.6,67.4 79.3,66.6 79.4,65.8 C79.4,65.8 79.3,66.6 79.4,65.8 L79.4,65.8 L79.4,65.8 L79.4,65.8 L79.4,65.8 L79.4,65.8 L79.4,65.8 Z" id="path7828" fill="url(#radialGradient-1)"></path>
        <path d="M72,60.9 C72.4,61.7 72.4,62.6 71.8,62.9 C71.3,63.2 70.5,62.8 70,62 C69.6,61.2 69.6,60.3 70.2,60 C70.8,59.7 71.6,60.1 72,60.9 C72,60.9 71.6,60.1 72,60.9 L72,60.9 L72,60.9 L72,60.9 L72,60.9 L72,60.9 L72,60.9 Z" id="path2929" fill="url(#radialGradient-2)"></path>
        <path d="M105.1,68.3 C105.8,67.7 106.6,67.6 106.9,67.9 C107.2,68.3 106.8,69 106.1,69.5 C105.4,70.1 104.6,70.2 104.3,69.9 C104,69.5 104.4,68.8 105.1,68.3 C105.1,68.3 104.4,68.8 105.1,68.3 L105.1,68.3 L105.1,68.3 L105.1,68.3 L105.1,68.3 L105.1,68.3 L105.1,68.3 Z" id="path7832" fill="url(#radialGradient-3)"></path>
        <path d="M99.4,68.5 L98.8,69.2 C98.8,69.2 98.7,69.1 98.7,69.2 C98.7,69.2 98.6,69.2 98.5,69.3 C98.4,69.3 98.3,69.4 98.2,69.4 L97.9,69.4 L97.8,69.4 C97.7,69.3 97.5,69.2 97.5,69.1 L97.6,69.2 C97.6,69.2 98.1,69.4 98.4,69.2 C98.6,69.1 98.6,69.2 98.6,69.2 L99.2,68.4 L99.3,68.4 L99.3,68.4 L99.4,68.3 C99.4,68.3 99.4,68.1 99.2,68.1 L99.2,67.9 L99.3,68 C99.4,68.1 99.4,68.2 99.4,68.3 L99.4,68.4 C99.3,68.4 99.4,68.4 99.4,68.5 L99.4,68.5 L99.5,68.4 L99.4,68.3 C99.4,68.2 99.4,68.2 99.3,68.2 L99.3,68.1 L99.3,68 C99.3,67.9 99.2,67.8 99.2,67.7 L99,67.5 C99,67.4 98.9,67.4 98.8,67.4 C98.3,67.3 98,67.4 98,67.4 L98,67.4 C98,67.3 97.9,67.2 97.8,67.2 C97.7,67.1 97.5,67 97.4,67 L97.1,66.7 C97,66.6 97,66.6 96.9,66.6 L97,66.7 C97,66.8 97.1,66.8 97.1,66.9 L97,66.8 C96.9,66.7 96.8,66.6 96.7,66.6 L96.7,66.6 C96.7,66.6 96.7,66.6 96.7,66.5 L96.7,66.5 C96.7,66.5 96.7,66.5 96.6,66.5 C96.6,66.4 96.5,66.3 96.4,66.2 C96.3,66.1 96.1,65.9 95.9,65.8 C95.8,65.8 95.7,65.7 95.7,65.6 L95.7,65.1 L95.8,64.4 L95.7,64.5 L95.7,64.6 L95.6,64.6 L94.3,65.9 L94.3,66.2 C94.2,66.3 94.1,66.3 94,66.4 C93.9,66.5 93.8,66.5 93.8,66.5 C93.7,66.6 93.5,66.6 93.4,66.7 C93.3,66.7 93.2,66.7 93.3,66.8 L93.3,66.9 C93.3,66.9 93.3,66.8 93.2,66.8 C93.2,66.8 93.2,66.8 93.2,66.7 C93.2,66.7 93.2,66.7 93.1,66.7 C93.1,66.7 93,66.7 93,66.8 L93,66.8 L93,66.8 C93,66.8 92.9,66.8 92.8,66.9 C92.8,66.9 92.9,66.9 92.9,66.8 L92.7,66.8 C92.5,66.8 92.4,66.8 92.3,66.9 L92.3,66.9 L92.3,66.9 L92.3,66.9 L92.3,66.9 C92.3,66.9 92.2,66.7 91.9,66.7 L91.8,66.7 C91.6,66.7 91.4,66.8 91.3,66.9 C91.1,67 91,67.1 91,67.3 L91,67.5 L91,68 C91,68.2 91.1,68.3 91.2,68.4 C91.3,68.5 91.5,68.6 91.7,68.6 L91.9,68.6 C91.9,68.6 91.9,68.6 91.9,68.7 L91.9,68.7 C91.9,68.7 91.9,68.7 91.9,68.8 C91.9,68.8 91.9,68.8 91.9,68.9 C91.9,69.1 92.1,69.5 92.2,69.6 C92.3,69.7 92.8,70.1 93.3,69.8 C93.5,69.7 93.6,69.5 93.6,69.4 C93.6,69.3 93.7,69.2 93.7,69.1 C93.7,69.1 93.7,69.1 93.7,69 C93.7,69 93.8,68.9 93.9,68.9 C94.2,68.7 94.6,68.4 94.8,68.3 L96.5,68.3 L96.9,68.4 C96.9,68.4 96.9,68.5 97,68.6 L97.1,68.7 C97.1,68.7 97.1,68.7 97.1,68.6 L97.1,68.6 C97.1,68.6 97.1,68.6 97.1,68.7 L97.1,68.7 C97.1,68.7 97.2,69.1 97.6,69.5 C97.6,69.5 97.9,69.6 98.1,69.6 C98.2,69.6 98.3,69.6 98.4,69.5 L98.5,69.5 C98.5,69.6 98.5,69.6 98.6,69.6 L98.8,69.4 L98.8,69.4 L98.8,69.4 L99.4,68.5 L99.4,68.5 L99.4,68.5 L99.4,68.5 Z" id="Shape" fill="#F8C83C"></path>
        <path d="M91.3,67.6 C91.3,67.5 91.1,67.3 91.1,67.2 C91,67.1 89.8,67.3 89.9,68 C89.9,68.8 90.5,68.9 90.5,68.9 C90.5,68.9 90.1,68.5 90.4,68.3 C90.4,68.3 90.1,68.5 90.4,68.3 C90.8,68.1 90.9,68.3 91.2,68.3 C91.4,68.3 91.3,67.8 91.3,67.6 L91.3,67.6 Z M92,68.8 C91.9,68.8 91.2,69.3 91.3,70 C91.5,70.8 92.2,71 92.2,71 C92.2,71 91.8,70.3 92,70 C92.2,69.7 92.4,69.9 92.5,69.9 C92.6,69.9 92.6,69.7 92.5,69.3 C92.3,68.9 92.1,68.8 92,68.8 L92,68.8 Z M99.3,68.3 C99.2,68.3 99.1,68.4 98.8,68.7 C98.6,69 98.4,69.2 98.5,69.3 C98.6,69.4 99,69.2 99.1,69.6 C99.4,70.3 98.6,70.3 98.6,70.3 C98.6,70.3 100,70.8 100.1,69.5 C100.1,68.8 99.5,68.3 99.3,68.3 L99.3,68.3 Z" id="Combined-Shape" fill="#202220"></path>
        <path d="M74.6215563,38.8273654 C74.6215563,38.8273654 72.539246,39.6677672 72.539246,40.4883587 C72.539246,41.3089502 72.240343,42.0885637 73.5349859,43.0025886 C74.8296287,43.9166135 78.8547403,43.8909439 78.8547403,45.8569037 C78.8547403,47.8228635 74.6748487,48.743381 74.1585908,50.9188457 C73.6423329,53.0943103 74.288409,55.1454458 75.8439335,55.6119636 C77.3994581,56.0784815 79.9056713,55.1010819 80.6137438,56.7595641 C81.3218162,58.4180462 77.5450305,60.7181942 76.162218,60.0385443 C74.7794055,59.3588944 75.1996352,57.8851221 74.6215563,56.7595641 C74.0434774,55.634006 71.8902505,55.7299882 72.2147482,54.3848431 C72.539246,53.039698 73.36765,50.9972873 72.5579402,50.2096199 C71.7482304,49.4219525 68.9867907,48.6774406 68.6243465,48.9612564 C68.2619023,49.2450721 67.4220585,49.6691623 68.6243465,50.179765 C69.8266344,50.6903676 71.3749045,50.586294 71.3749045,51.44539 C71.3749045,52.3044859 70.2549268,54.4643632 70.8149157,55.6119636 C71.3749045,56.7595641 72.0278063,56.3753565 73.0492907,57.8851221 C74.070775,59.3948877 73.7786178,60.8633587 75.2224603,61.6501515 C76.6663029,62.4369442 81.1435987,60.0765283 82.0989558,58.4180462 C83.054313,56.7595641 82.0989558,54.845743 80.4686545,54.2567739 C78.8383532,53.6678048 76.458535,54.3848431 75.8439335,52.4191247 C75.229332,50.4534063 79.615622,49.2229375 80.4686545,47.4528858 C81.321687,45.6828341 80.8241232,43.4445529 78.2476724,43.0025886 C75.6712215,42.5606243 74.6215563,42.1914461 74.6215563,41.3089502 C74.6215563,40.4264543 77.5646366,40.3887493 77.226746,39.3926556 C76.8888554,38.3965618 74.6215563,38.8273654 74.6215563,38.8273654 L74.6215563,38.8273654 Z" id="Path-2" fill="#78732E"></path>
        <path d="M111.6,50.2 C111.6,50 111.2,49.9 110.7,49.5 L110,48.4 C109.5,47.3 108.8,45.5 107.3,43.3 C105.3,40.3 102.6,38.8 102.6,38.8 C102.6,38.8 102.7,38.9 102.9,39 C102.8,38.9 102.7,38.8 102.6,38.8 L102.6,38.8 L102.6,38.8 C102.6,38.7 102.7,38.6 102.8,38.5 C102.9,38.4 103.4,37.9 103.2,37.8 C103,37.7 102.5,37.9 102.1,37.9 C101.7,37.9 101.5,38 100.4,37.1 C100.4,37.1 97,34.8 91.8,34.4 C90.2,34.3 89.4,34.9 89.3,35.2 L89.3,35.2 C89.3,35.3 89.2,35.3 89.2,35.4 L88.8,35.4 C88.4,35.4 87.9,35.5 87.5,35.7 C87.2,35.9 87,36.2 86.8,36.6 L86.8,36.4 L86.8,36.6 C86.8,36.8 86.7,36.9 86.7,37.1 L86.7,37.2 C86.7,37.5 86.7,37.8 86.9,38 C87,38.2 87.2,38.3 87.5,38.4 C87.8,38.5 88.2,38.5 88.6,38.7 C89,38.8 89.5,39 90,39.4 C90.4,39.8 90.7,40.2 90.8,40.5 C90.9,40.8 90.9,41.1 90.9,41.3 C90.9,41.5 90.8,41.8 90.8,41.9 C90.8,42 90.8,42 90.7,42.1 C90.5,41.8 90.4,41.5 90.2,41.1 C89.9,40.5 89.2,40 89.1,40 C89.2,39.7 89.1,39.4 89.1,39.4 C89.1,39.4 89,39.6 88.5,39.6 C88.1,39.6 87.8,39.4 87.1,39.1 C86.6,38.9 86.2,38.9 85.9,38.9 L85.9,38.8 C85.9,38.8 85.8,38.9 85.7,38.9 L85.4,38.9 C85.3,38 84.8,37.5 84.8,37.5 L84.8,37.6 C84.8,37.7 84.7,37.9 84.6,38.2 C84.4,38.5 84,39 84,39 C84,38.4 83.8,37.9 83.8,37.9 L83.8,37.9 C83.7,37.3 83.4,37.4 83.4,37.4 L83.4,37.4 L83.4,37.4 L83.4,37.4 L83.4,37.4 L83.4,37.4 L83.4,37.4 C83.5,38.2 83.2,39.4 83,39.7 C82.8,39.9 82.5,40 82.4,40 C82.6,39.8 82.6,39.7 82.6,39.1 C82.6,38.3 82.1,38.2 82.1,38.2 C82.1,38.2 82.2,38.6 82.1,39.3 C82,40 81.5,40.5 81.5,40.5 L81.5,40.5 C81.5,40.3 81.6,40.1 81.6,39.8 C81.6,38.9 81.2,39 81.2,39 L81.2,39 L81.2,39 L81.2,39 C81.2,39 81.2,39 81.2,39.1 C81.2,39.2 81.2,39.4 81,39.8 C80.7,40.6 80.6,40.8 80.1,41.3 C79.3,42.2 78.9,42.2 79,42.6 C79,42.7 79.1,42.8 79.1,42.8 C79.1,42.8 79,42.8 79,42.9 C78.8,43 78.6,43.3 78.6,43.3 L78.6,43.5 L78.6,43.6 L78.6,43.6 L78.6,43.6 C78.6,43.6 78.6,43.6 78.5,43.6 C78.5,43.6 78.2,43.8 77.9,44 C77.6,44.3 77.3,44.7 77.2,45.2 L77.2,45.3 C77.2,45.7 77.5,46.2 77.9,46.6 C78.3,47 78.8,47.2 79.2,47.2 C79.4,47.2 79.6,47.1 79.7,47 L79.7,46.9 L79.6,46.9 C79.5,46.8 79.3,46.7 79.1,46.4 C78.9,46.2 78.8,45.9 78.8,45.7 L78.8,45.5 C78.9,45.2 79.1,45 79.3,44.8 C79.5,44.6 79.8,44.5 80.2,44.5 L80.6,44.5 C80.6,44.5 80.7,44.5 80.8,44.7 L80.8,44.7 L80.9,44.8 L80.9,44.8 C81,45 81.1,45 81.2,45.1 L81.1,45.1 L81,45.1 L81.3,45.6 C81.3,45.6 82,45.4 82.6,45.1 C82.9,45 83.2,44.8 83.5,44.6 C83.6,44.5 83.7,44.4 83.8,44.4 C83.9,44.3 83.9,44.2 83.9,44.1 L83.9,44 L83.8,44 L83.9,44 L83.8,43.9 C83.8,43.9 83.8,43.9 83.8,43.8 C83.9,43.8 84.1,43.8 84.2,43.9 C84.4,44.1 84.4,44.5 84.4,44.5 L84.7,44.5 C84.6,45.4 83.9,46 84,46.1 C84,46.1 84.1,46.2 84.3,46.2 C84.2,46.4 83.8,46.9 83.6,47.3 C83.3,47.8 82.8,48.5 82.9,48.5 L83.2,48.5 L83.3,48.5 L83.3,48.8 C83.1,49.1 82.2,50.5 82.2,51.3 C82.2,52.2 82.4,52 82.6,52.8 C82.9,53.6 83,54.8 83,54.9 C83,55 83.1,54.9 83.1,54.9 C83.1,54.9 83.3,54.8 83.6,54.6 C83.7,54.8 83.9,55 84.1,55.3 C84.1,55.7 84,56.4 84.3,56.9 C84.6,57.5 85.3,58.3 85.7,58.7 L85.7,58.9 L85.3,58.6 C85.3,58.6 85,58.4 84.8,58.3 C84.6,58.2 84.4,58.3 84.4,58.3 L84.3,58.4 L84.3,58.4 C84.3,58.3 84.2,58.3 84.2,58.3 C84.2,58.3 84.4,59 84.6,59.2 C84.7,59.4 85.2,59.6 85.5,59.8 C85.3,59.8 84.8,59.9 84.6,60 L84.4,60.2 C84.3,60.2 84.2,60.1 84.2,60 C84.1,59.9 84.1,59.9 84,59.8 L84.1,59.7 C84.2,59.6 84.2,59.5 84.2,59.4 L84.2,59.4 L84.2,59.4 L84.2,59.3 C84.2,59.1 84.1,59 84.1,59 C84,58.9 84,58.9 83.9,58.9 L83.9,58.8 C83.8,58.6 83.7,58.4 83.5,58.2 C83.4,58 83.2,57.8 83,57.7 L82.9,57.7 C82.9,57.7 82.9,57.7 82.8,57.7 C82.8,57.7 82.8,57.7 82.8,57.8 L82.8,57.9 C82.8,58 82.9,58 82.9,58.1 C82.9,58.2 83,58.2 83,58.3 L83,58.3 C82.9,58.5 82.9,58.7 82.9,58.8 C82.9,58.8 82.9,58.8 82.9,58.9 C82.9,58.9 83,59 83,59.1 C83,59.2 83.1,59.3 83.1,59.4 L83.1,59.4 L83.1,59.4 L83,59.5 L83,59.5 L82.9,59.5 C82.8,59.6 82.8,59.7 82.7,59.7 C82.6,59.7 82.5,59.8 82.4,59.8 C82.3,59.7 82,59.6 81.7,59.6 C81.6,59.6 81.5,59.6 81.4,59.5 C81.4,59.4 81.5,59.4 81.5,59.3 L81.5,59.3 C81.5,59 81.3,58.7 81.1,58.6 L80.9,58.6 L80.7,58.6 L80.7,58.6 C80.7,58.5 80.6,58.4 80.6,58.2 C80.6,57.7 80.9,57.7 80.9,57.7 C80.9,57.7 80.5,57.5 80.2,57.7 C80.2,57.7 80.2,57.7 80.1,57.8 C80,57.8 79.8,57.7 79.6,57.7 L79.5,57.7 C79.2,57.7 79,57.9 78.8,58.1 C78.7,58.3 78.6,58.5 78.5,58.7 L78.5,58.7 L78.3,58.7 C78.2,58.8 78,58.8 77.9,59 C77.8,59.1 77.7,59.3 77.7,59.5 C77.7,59.5 77.7,59.5 77.6,59.5 C77.6,59.5 77.6,59.5 77.5,59.5 L77.4,59.5 C77.3,59.6 77.3,59.8 77.3,60 L77.3,60.3 C77.3,60.4 77.3,60.4 77.4,60.5 C77.4,60.5 77.4,60.5 77.4,60.6 C77.4,60.8 77.5,60.9 77.6,61 L77.7,61.1 L77.7,61.1 C77.7,61.2 77.8,61.4 77.9,61.5 C77.9,61.6 78,61.6 78.1,61.7 C78.2,61.7 78.2,61.8 78.3,61.8 L78.4,61.8 C78.4,61.8 78.4,61.8 78.4,61.9 C78.5,62 78.6,62.1 78.7,62.2 L78.7,62.2 L78.7,62.2 L78.8,62.2 L78.7,62.2 L78.8,62.2 L78.9,62.2 L78.9,62.2 C79.2,62.2 79.5,62 79.7,61.8 C79.9,61.8 80.2,61.7 80.3,61.6 L80.3,61.6 C80.5,61.6 80.6,61.5 80.7,61.4 L80.8,61.5 C80.9,61.6 81,61.7 81.1,61.7 C81.2,61.8 81.3,61.8 81.4,61.8 L81.4,61.8 L81.4,61.8 C81.5,61.8 81.7,61.7 81.8,61.6 L82.5,60.9 C82.5,60.9 82.5,61 82.6,61 C82.7,61.1 82.8,61.2 83,61.2 L83,61.2 L83,61.2 C82.6,61.3 82.4,61.6 82.4,61.6 C82.4,61.6 82.8,61.9 83.6,62.1 C84.5,62.3 85,62.5 85,62.5 L85,62.4 L85,62.5 L85,62.5 C84.8,62.8 84.8,63 84.9,63.1 L84.9,63.1 C84.9,63.1 85.3,63.4 86.5,63.1 C87.7,62.7 87.6,62.7 87.8,62.6 L88,62.6 C88,62.6 88.4,63.5 88.7,63.5 C89.2,63.5 89.2,62 89.1,61.4 L90.7,63.2 C90.7,63.2 91,63.6 91.2,63.5 C91.2,63.5 91.5,64.2 91.9,64.8 C92.2,65.4 92.5,65.9 92.8,65.8 C92.9,65.8 92.9,65.7 93,65.6 L93,65.6 C93.1,65.4 93.2,65.2 93.2,65.2 L93.2,65.2 L93.2,65 L93.2,65 L93.3,65.1 C93.7,65.5 94.5,66.4 94.6,66.3 C94.7,66.3 94.6,65.9 94.6,65.9 C94.6,65.9 94.6,65.2 94.5,64.6 L94.5,64.6 L94.5,64.6 L94.5,64.6 L94.5,64.6 C94.8,65 95.3,65.7 95.5,65.6 C95.5,65.6 95.5,65.6 95.5,65.5 C95.6,65.3 95.6,64.8 95.6,64.5 C95.8,64.7 96.1,65 96.3,64.9 C96.5,64.8 96.4,64.2 96.3,64 L96.3,63.5 L96.3,63.3 L98.2,65.6 C98.2,65.6 98.4,65.8 98.9,65.9 C99.3,66 99.5,65.7 99.6,65.5 C99.6,65.5 100,66 100.6,66.1 C101.1,66.2 101.6,65.8 101.7,65.6 C101.8,65.7 102,65.8 102,65.8 C102.9,66.1 104.1,65.2 104.2,65.1 C104.3,65.1 104.3,65.2 104.4,65.2 C105.7,65.5 106.8,64.3 106.7,64.2 C106.6,64.1 106.1,63.7 106.1,63.7 C106.1,63.7 104.2,62.2 101.7,60.4 C99.8,59 97.5,57.3 96.6,56.6 C96.6,55.9 96.6,55.1 96.3,54.5 C96,53.7 95.8,53.3 95.6,53.1 C95.9,52.9 96,52.5 96,52.1 C96.1,52.1 96.1,52.2 96.2,52.2 C96.4,52.4 96.9,53.2 97.3,53.4 C97.7,53.6 97.9,53.5 98.3,53.8 C98.7,54.1 100.1,56.2 100.1,56.2 L100.1,56.2 C100.3,56.5 100.5,56.7 100.5,56.7 L100.5,56.7 C100.6,56.8 100.7,56.9 100.8,56.9 C101,56.9 101.1,56.8 101,56.7 C100.9,56.6 100.5,56.1 100.2,55.4 C100,54.8 99.7,53.6 99.3,53.2 L99.2,53.1 C99.3,53.1 99.4,53.1 99.7,53 C100,53 101.2,54.1 101.3,54.4 C101.4,54.7 101.3,54.9 101.8,55.9 C102.3,57 102.5,57.2 102.5,57.2 C102.6,57.5 102.8,57.8 103,57.8 C103.2,57.8 102.9,57.4 102.8,57.2 C102.7,57 102.6,56.2 102.3,55.4 C102,54.5 101.8,53.5 101.6,53.3 L101.4,53.1 C101.5,53.1 101.5,53.2 101.6,53.2 C101.7,53.3 101.8,53.4 101.9,53.4 C101.9,53.4 101.9,53.5 102,53.5 C102.3,53.7 102.8,54.6 102.9,55.1 C103.1,55.6 103.3,56.5 103.6,57.4 C103.9,58.2 104.3,59.2 104.4,58.9 C104.5,58.7 104.4,57.2 103.9,56 C103.5,55 103.4,53.5 103.4,53.1 L103.4,53.1 C103.5,53.2 103.8,53.3 104,53.8 C104.3,54.5 104,54.9 104.5,56.8 C104.9,58.7 105.3,58.8 105.5,59.5 C105.7,60.2 105.4,61.8 105.8,62.1 C105.9,62.2 105.9,59.2 105.8,58.4 C105.7,57.6 105.7,57.5 105.5,55.4 C105.3,53.4 105.2,53 105.2,52.9 L105.2,52.9 C105.3,53 105.5,53.2 105.8,54 C106.2,55.3 106.2,57.6 106.4,58.2 C106.6,58.8 106.6,58.6 106.9,59.3 C107.1,60 106.7,63.1 107.2,63.1 C107.7,63.1 107.6,59 107.5,57.7 C107.4,56.5 107.3,53 107.3,52.7 L107.4,52.7 C107.6,52.9 108,53.5 108.1,53.8 C108.1,53.8 108.1,53.8 108.1,53.9 L108.1,54 C108.2,54.9 108.2,58 108.3,59.1 C108.4,60.3 108.7,60.4 108.7,61.4 C108.7,62.4 108.4,63.4 108.4,63.6 C108.4,63.9 108.4,64.4 108.8,64.4 C109.1,64.4 108.9,63.7 109,63.4 C109.1,63.1 109.2,63 109.3,62.8 C109.5,62.3 109.5,58.7 109.8,56.9 C110.1,55.1 110.5,55.3 110.5,53.3 C110.5,51.6 110,50.2 109.8,49.8 C110,49.8 110.2,49.8 110.4,49.7 C111.4,50.6 111.5,50.4 111.6,50.2 L111.6,50.2 L111.6,50.2 Z M81.1,39.6 C81.1,39.5 81.2,39.4 81.2,39.3 C81.2,39.4 81.2,39.5 81.1,39.6 L81.1,39.6 L81.1,39.6 Z M81.6,43.4 L81.4,43.4 C81.4,43.3 81.5,43.3 81.6,43.4 C81.9,43.4 82.2,43.1 82.8,43.1 L82.8,43.1 C82.2,43.1 82,43.4 81.6,43.4 L81.6,43.4 L81.6,43.4 Z M84.7,38.1 C84.7,38.1 84.7,38 84.7,38.1 C84.7,38 84.7,38 84.7,38.1 L84.7,38.1 L84.7,38.1 Z M84.8,46.2 C85,46.2 85.1,46.1 85.3,45.9 C85.2,46.1 85,46.2 84.8,46.2 L84.8,46.2 L84.8,46.2 Z M86.9,46.1 L86.9,46.1 C86.8,46.1 86.8,46.1 86.9,46.1 C86.8,46.2 86.9,46.1 86.9,46.1 L86.9,46.1 L86.9,46.1 L86.9,46.1 Z M88,42.5 C88,42.5 88,42.4 88,42.5 C88,42.4 88,42.4 88,42.5 L88,42.5 L88,42.5 L88,42.5 Z M89.2,44.6 C89.2,44.7 89.2,44.7 89.2,44.6 C89.2,44.7 89.2,44.6 89.2,44.6 L89.2,44.6 L89.2,44.6 L89.2,44.6 Z M95.3,54 L95.3,54 L95.3,54 C95.3,54.1 95.3,54.1 95.3,54 L95.3,54 L95.3,54 Z" id="Shape" fill="#8F4620"></path>
    </g>
</svg>