<?xml version="1.0" encoding="UTF-8" standalone="no"?>
<svg width="180px" height="120px" viewBox="0 0 180 120" version="1.1" xmlns="http://www.w3.org/2000/svg" xmlns:xlink="http://www.w3.org/1999/xlink">
    <!-- Generator: Sketch 40.2 (33826) - http://www.bohemiancoding.com/sketch -->
    <title>icon-flag-nu</title>
    <desc>Created with Sketch.</desc>
    <defs></defs>
    <g id="Page-1" stroke="none" stroke-width="1" fill="none" fill-rule="evenodd">
        <rect id="Rectangle-path" fill="#FCD116" x="0" y="0" width="180" height="120"></rect>
        <rect id="rect962-copy" fill="#346DA6" x="0" y="0" width="90" height="60"></rect>
        <polygon id="White_Diagonal" fill="#FFFFFF" points="20.9213012 20.6557377 0 6.70820395 0 0 10.062306 0 36 17.291796 36 17.291796 36 0 54 0 54 17.291796 79.937694 0 90 0 90 6.70820395 69.078699 20.6557377 90 20.6557377 90 38.3606557 67.6032895 38.3606557 90 53.291796 90 60 79.9376965 60 54 42.7082029 54 60 36 60 36 42.7082029 10.0623035 60 0 60 0 53.291796 22.3967105 38.3606557 0 38.3606557 0 20.6557377"></polygon>
        <path d="M59,39 L65,39 L90,56 L90,60 L59,39 L59,39 Z M6,60 L36,39 L30,39 L0,60 L6,60 L6,60 Z M84,2.01327736e-07 L54,21.0000001 L60,21.0000001 L90,2.01327736e-07 L84,2.01327736e-07 L84,2.01327736e-07 Z M31,21.0000001 L25,21.0000001 L0,4.00000019 L0,2.01327736e-07 L31,21.0000001 L31,21.0000001 Z M51,1.54489844e-15 L51,23.9999999 L90,24.0000001 L90,36.0000001 L51,35.9999999 L51,60 L39,60 L39,36.0000001 L0,36.0000001 L0,24.0000001 L39,23.9999999 L39,2.01327736e-07 L51,1.54489844e-15 L51,1.54489844e-15 Z" id="Red_Diagonals-copy" fill="#CA4638"></path>
        <ellipse id="Oval" fill="#346DA6" cx="45" cy="28.5" rx="7.65585728" ry="7.65585728"></ellipse>
        <polygon id="Path" fill="#FCD116" points="38 26.1821961 43.4261261 26.1821961 45.25 20.8441427 46.8766276 26.1838237 52.4497592 26.1838237 47.9383138 29.3812521 49.6386719 34.7354188 45.2148438 31.4211284 40.7174479 34.7049826 42.3554688 29.3972026"></polygon>
        <polygon id="Path-Copy" fill="#FCD116" points="38 26.1821961 43.4261261 26.1821961 45.25 20.8441427 46.8766276 26.1838237 52.4497592 26.1838237 47.9383138 29.3812521 49.6386719 34.7354188 45.2148438 31.4211284 40.7174479 34.7049826 42.3554688 29.3972026"></polygon>
        <polygon id="Path-Copy-2" fill="#FCD116" points="40 7.32479454 43.3796504 7.32479454 44.5156462 4 45.5287875 7.32580829 49 7.32580829 46.1900564 9.31731937 47.2491206 12.65215 44.4937492 10.5878517 41.6925563 12.6331929 42.7127939 9.32725412"></polygon>
        <polygon id="Path-Copy-3" fill="#FCD116" points="20 28.3247945 23.3796504 28.3247945 24.5156462 25 25.5287875 28.3258083 29 28.3258083 26.1900564 30.3173194 27.2491206 33.65215 24.4937492 31.5878517 21.6925563 33.6331929 22.7127939 30.3272541"></polygon>
        <polygon id="Path-Copy-4" fill="#FCD116" points="60.7939019 28.3247945 64.1735523 28.3247945 65.3095481 25 66.3226894 28.3258083 69.7939019 28.3258083 66.9839583 30.3173194 68.0430225 33.65215 65.2876511 31.5878517 62.4864582 33.6331929 63.5066958 30.3272541"></polygon>
        <polygon id="Path-Copy-5" fill="#FCD116" points="41 44.252206 44.3796504 44.252206 45.5156462 40.9274115 46.5287875 44.2532197 50 44.2532197 47.1900564 46.2447308 48.2491206 49.5795615 45.4937492 47.5152632 42.6925563 49.5606044 43.7127939 46.2546656"></polygon>
    </g>
</svg>