<?xml version="1.0" ?><svg height="120px" version="1.1" viewBox="0 0 180 120" width="180px" xmlns="http://www.w3.org/2000/svg" xmlns:sketch="http://www.bohemiancoding.com/sketch/ns" xmlns:xlink="http://www.w3.org/1999/xlink"><title/><defs/><g fill="none" fill-rule="evenodd" id="Page-1" stroke="none" stroke-width="1"><g id="rectangle_sint_maarten"><rect fill="#FFFFFF" height="120" id="Rectangle-128" width="180" x="0" y="0"/><path d="M0,0 L90,60 L180,60 L180,0 L0,0 L0,0 L0,0 L0,0 Z" fill="#346DA6" id="Rectangle-40"/><path d="M0,120 L90,60 L180,60 L180,120 L0,120 L0,120 L0,120 L0,120 Z" fill="#CA4638" id="Rectangle-40"/><g id="Group" transform="translate(9.000000, 34.000000)"><path d="M30.9300174,8.99477048 L31,7.21092388 C31,7.21092388 29.8971712,6.50784428 30.1529696,5.40674027 C30.1529696,5.40674027 29.153908,5.09877978 29.228717,3.77687391 C29.228717,3.77687391 28.1500201,3.68680999 28.0390133,2.57989541 C28.0390133,2.57989541 26.9603164,2.79488669 26.4849175,1.71702499 C26.4849175,1.71702499 25.4327658,1.96397443 25.1359432,1.07786171 C25.1359432,1.07786171 24.1151629,1.5020337 23.5070385,0.459035445 C23.5070385,0.459035445 22.4283416,0.984892504 21.9746615,0 C21.5282209,0.981987217 20.4495241,0.459035445 20.4495241,0.459035445 C19.8510524,1.49912841 18.8206194,1.06914585 18.8206194,1.06914585 C18.5334495,1.95816386 17.483711,1.70540383 17.483711,1.70540383 C17.0107253,2.78326554 15.9344416,2.56827426 15.9344416,2.56827426 C15.8282612,3.67228356 14.7519775,3.76234747 14.7519775,3.76234747 C14.8388524,5.08715863 13.8397909,5.38930854 13.8397909,5.38930854 C14.1028288,6.49041255 13,7.19349216 13,7.19349216 C13.5333155,8.12027891 13.0892881,8.97443347 13.0892881,8.97443347 L13.0651562,9.90122022 L30.9107119,10 L30.9300174,8.99477048 Z" fill="#F9D90F" id="Shape" stroke="#000000" stroke-width="0.1"/><path d="M31.0339324,9.35190968 C28.2021103,9.01753543 24.943809,8.22195532 22.426363,9.8967091 C20.7399423,8.72351669 18.393088,8.79558011 16.3922912,9.0233005 C15.3053784,9.25390344 14.0283777,9.25390344 12.8951615,9.47297622 L12.7172587,9.50180159 C10.6579733,9.66610617 8.78877574,8.94547202 7,8 C7.56782663,11.813596 8.19901589,15.7223156 8.50851796,19.7175114 C9.18357366,25.6324766 6.14216749,30.5990872 7.38992387,36.441989 C8.13565326,39.2466971 10.7408321,40.8753303 13.1266788,41.1981744 C15.4369777,41.3595964 17.8276984,41.8063896 19.9649686,42.3569541 C20.3719516,42.4549604 20.8520454,42.6797982 21.1323032,42.8239251 C21.722063,43.1150613 22.1534163,43.5416767 22.5335921,44 C23.8227779,42.4117223 25.7139086,41.9678117 27.5806691,41.7343262 C30.9437625,41.2702378 35.0891406,41.523901 37.148426,37.9178477 L37.148426,37.7160701 C38.2670201,35.7213548 38.1207987,32.6802786 37.6333939,30.4232525 C37.6017125,29.6334374 37.4238098,28.9387461 37.3263288,28.1892866 C35.2719174,21.7698775 37.0314489,14.5520058 37.9160887,8.08071103 C36.8364869,8.78116743 35.632597,9.1097766 34.4311441,9.45856354 C33.4709566,9.61133798 32.40354,9.5421571 31.4336044,9.48162383 L31.0314954,9.35190968" fill="#DC171D" id="Shape"/><path d="M35.4537063,27.8604425 C35.4413609,28.2855202 35.6364181,28.6203416 35.7080213,29.0163043 C36.105543,31.8491848 36.4907192,35.6050078 34.0167026,37.3635481 C31.2784946,39.4161491 27.6909237,38.5368789 24.5230961,39.6228649 C23.891012,39.8295807 23.0194273,40.5166925 22.5749932,41 C22.2885801,40.7787267 22.002167,40.4380823 21.6342743,40.2401009 C19.0269275,38.6038432 15.6393519,39.1512034 12.6986795,38.2690217 C11.2197015,37.71875 9.67899657,36.3619953 9.30616572,34.5772516 C8.34322514,29.898486 10.6468753,25.9126553 10.3752767,21.2688276 C10.1999721,17.7255435 9.69381104,14.3220109 9,11 C11.298712,12.263587 13.9628476,12.4732143 16.5479727,11.8676242 C18.4615085,11.5531832 20.6910863,11.5444488 22.4861064,12.4994177 C23.4737377,11.9986413 24.6317355,11.7744565 25.6983774,11.634705 C27.7230217,11.8676242 29.9007489,12.3014363 31.9871201,12.2810559 C33.3796804,12.1966227 34.6463176,11.7220497 35.8586351,11.0902562 C35.1401333,16.5813276 33.7599185,22.3344332 35.4537063,27.8604425" fill="#62AFE1" id="Shape"/><path d="M30.4806324,23.7475495 L31,23.7475495 L24.5683794,18.566118 L24.5565217,15.8733124 L25.1778656,15.8733124 L21.9644269,13 L18.7652174,15.8703532 L19.3841897,15.8703532 L19.3960474,18.5601997 L13,23.735713 L13.5098814,23.7416312 L13.5335968,28.9852044 L30.5019763,29 L30.4806324,23.7475495 Z" fill="#FFFFFF" id="Shape" stroke="#262626" stroke-width="0.1"/><g id="Shape" transform="translate(12.000000, 16.000000)"><path d="M22,19.024911 L22,21 L0.00755321584,20.9644128 L0,19 L22,19.024911" fill="#FFFFFF" stroke="#262626" stroke-width="0.1"/><path d="M1.39411012,19.9151515 L1.37464789,14.2212121 L2.23585147,14.2181818 L2.1871959,19.9787879 L2.24071703,14.2666667 L1,14.2212121 L1,13 L19.9927017,13.0272727 L20,14.2363636 L18.8298335,14.2363636 L18.8517286,20 L18.8103713,14.2363636 L19.681306,14.2363636 L19.7007682,19.9363636" fill="#FFFFFF" stroke="#262626" stroke-width="0.1"/><path d="M6,18 L5.9829222,14 L3,14 L3.0170778,17.9969466 L6,18 L6,18 Z" stroke="#000000" stroke-width="0.1"/><path d="M19,18 L18.9828571,14.0030534 L16,14 L16.0114286,18 L19,18 L19,18 Z" stroke="#000000" stroke-width="0.1"/><path d="M18.997151,12 L18.980057,8 L16,8 L16.011396,12 L19,12 L18.997151,12" stroke="#000000" stroke-width="0.1"/><path d="M6,12 L5.98005698,8.00305577 L3,8 L3.01424501,11.9969442 L6,11.9969442 L6,12" stroke="#000000" stroke-width="0.1"/><path d="M11,12 L10.9857414,8.00611154 L8,8 L8.01425856,12 L11,12 L11,12 Z" stroke="#000000" stroke-width="0.1"/><path d="M15,12 L14.980057,8.00609756 L12,8 L12.014245,11.9908537 L15,12 L15,12 Z" stroke="#000000" stroke-width="0.1"/><path d="M14.9710907,11.0079391 L15,19 L7.02890933,18.9867681 L7,11 L14.9684625,11.0079391 L14.9710907,11.0079391 Z" fill="#FFFFFF"/><path d="M14.9710907,11.0079391 L15,19 L7.02890933,18.9867681 L7,11 L14.9684625,11.0079391 L14.9710907,11.0079391 L14.9710907,11.0079391 Z" stroke="#000000" stroke-width="0.1"/><path d="M7,13 L15,13.0011351 L7,13 Z" stroke="#000000" stroke-width="0.1"/><path d="M8.0276619,19 L8,13" stroke="#000000" stroke-width="1.17289019"/><path d="M14.0251472,19 L14,13" stroke="#000000" stroke-width="1.17289019"/><path d="M18,6 L13.5069523,3.0048 L8.45885006,3 L4,5.988 L18,6 L18,6 Z" stroke="#000000" stroke-width="0.1"/><path d="M8,0 L8.00741656,2.99606299 L12,3 L11.9925834,0.00393700787 L8,0 L8,0 Z" stroke="#000000" stroke-width="0.1"/></g><g fill="#F9D90F" id="Shape" stroke="#000000" stroke-width="0.1" transform="translate(0.000000, 25.000000)"><path d="M22.5357258,21.1788831 C25.3346545,21.1882212 28.776647,20.4660771 30.3880021,19.4139878 L33.9285485,19.0186761 L34,24.4783347 C31.0014997,26.5669498 24.0731655,27.0151771 22.5505088,26.9996137 C21.0253883,27.0151771 14.0132833,26.5607244 11,24.4627712 L11.0394215,19 L14.5873594,19.401537 C16.2011784,20.4505136 19.7466524,21.1788831 22.5431173,21.1788831 L22.5357258,21.1788831"/><path d="M5,1.22424242 L4.0567134,7.43636364 L1.09597876,8 C1.09597876,8 0.597172759,4.73333333 1.87381981,1.47760141e-14 L5,1.22424242 Z"/><path d="M0.114944727,4 L3.10124977,4.24878997 C3.167286,7.17207217 3.47300928,18.3308679 15,18.9387071 L14.6404694,22.9985071 C0.611439341,23.1653095 -0.454923475,9.30940422 0.114944727,4"/><path d="M39,1.2146914 L39.9785197,7.41537296 L42.9165251,8 C42.9165251,8 43.3886608,4.73759939 42.0872296,0 L39,1.2146914 Z"/><path d="M44.8683581,4 L41.8617168,4.23783054 C41.8174291,7.1625799 41.5959907,18.3406152 30,18.9351915 L30.3936683,22.9981299 C44.5066754,23.1849968 45.4760835,9.31721132 44.8683581,4"/></g><g fill="#012A87" id="Shape" transform="translate(1.000000, 32.000000)"><path d="M19.8660572,16.9176621 C19.7877695,16.988511 19.680124,17.0053798 19.5577995,16.9986323 L19,16.9581472 L19.0464833,16 L19.5993898,16.0404851 C19.7094819,16.0506064 19.795109,16.0809702 19.8489317,16.124829 C19.9614702,16.2057992 20.0104,16.3542446 19.9981676,16.5600438 C19.9908281,16.7354792 19.9467913,16.8501869 19.8660572,16.9176621 M19.3392986,18 L19.4083594,17.1587879 L20.2040596,17.2024242 C20.4622868,17.2193939 20.6544559,17.1660606 20.7835695,17.0593939 C20.9186884,16.9551515 20.9877492,16.8193939 20.9967571,16.6666667 C21.014773,16.4872727 20.9577228,16.3418182 20.8256065,16.2327273 C20.6994956,16.1309091 20.5223397,16.0751515 20.2971415,16.0581818 L19.1561374,16 L19,17.9781818 L19.3392986,17.9951515"/><path d="M20.0068493,16 L20.6392694,16.0105634 C20.7305936,16.0246479 20.803653,16.0422535 20.8561644,16.0809859 C20.9543379,16.1514085 21,16.2922535 21,16.4964789 C21,16.6901408 20.9634703,16.8204225 20.8926941,16.8978873 C20.8242009,16.9683099 20.7260274,17 20.6073059,17 L20,16.9894366 L20.0045662,16 M20.3228571,17.9829891 L20.3285714,17.1348724 L21.0742857,17.144593 C21.2057143,17.144593 21.3028571,17.1543135 21.3714286,17.181045 C21.48,17.2247874 21.5342857,17.3147023 21.54,17.4386391 L21.56,17.7715674 C21.5628571,17.8517618 21.5657143,17.9003645 21.5714286,17.9343864 C21.5828571,17.9562576 21.5857143,17.9829891 21.6,18 L22,18 L21.9942857,17.9562576 C21.9485714,17.9368165 21.9114286,17.8955043 21.8971429,17.8347509 C21.8828571,17.7982989 21.8742857,17.7399757 21.8714286,17.6670717 L21.8657143,17.4021871 C21.86,17.2831106 21.8342857,17.200486 21.7828571,17.1543135 C21.7342857,17.1008505 21.6714286,17.054678 21.5714286,17.0255164 C21.6828571,16.9769137 21.7657143,16.9185905 21.8257143,16.8481166 C21.8857143,16.7703524 21.9142857,16.6707169 21.9142857,16.5492102 C21.9142857,16.3207776 21.8057143,16.1652491 21.5828571,16.0826245 C21.4628571,16.036452 21.3085714,16.0121507 21.1285714,16.0097205 L20.0085714,16 L20,17.9878493 L20.3228571,17.9878493"/><path d="M22.1432029,16.8774774 C22.0579243,16.78591 22.0118739,16.671826 22.0016405,16.5367266 C21.9914071,16.3656006 22.0289296,16.2365055 22.1176193,16.1479403 C22.2063091,16.0533707 22.3222879,16.0083376 22.4723782,16.000832 C22.6241741,15.9933265 22.7486808,16.0368586 22.8407817,16.1209205 C22.9362937,16.2019801 22.9891664,16.3175652 22.9993998,16.4586691 C23.0045165,16.5967708 22.9772274,16.7183603 22.9055934,16.8249388 C22.835665,16.9330183 22.7179805,16.9945636 22.5440122,16.999067 C22.3632216,17.0065725 22.2284815,16.9690449 22.1432029,16.8774774 M22.1693133,16.3904192 C22.0405966,16.5780032 21.9895956,16.7933774 22.0017387,17.0573846 C22.0211676,17.3399185 22.1134551,17.5738195 22.285887,17.7498243 C22.4777479,17.925829 22.7327528,18.0161472 23.0460446,17.9976204 C23.3811939,17.9837253 23.6337702,17.863301 23.8062021,17.6409792 C23.9446334,17.4395001 24.0126347,17.2032832 23.998063,16.9161176 C23.978634,16.6567422 23.8984896,16.4483155 23.7527725,16.2908376 C23.5681975,16.0800951 23.2986209,15.987461 22.9318995,16.0013561 C22.5846071,16.0221988 22.3320308,16.1449389 22.1668847,16.3904192"/><path d="M31.7890061,12.0178977 C31.9756811,11.9878036 32.1384233,11.9947484 32.2891993,12.045677 C32.5069867,12.1104952 32.6529761,12.2679109 32.7463135,12.5063494 L32.4758742,12.5433884 C32.4184358,12.4137519 32.3346714,12.3257843 32.2221877,12.2748557 C32.1144907,12.228557 31.9756811,12.2169823 31.8201186,12.2401317 C31.635837,12.2679109 31.4874543,12.3558785 31.3845438,12.4994046 C31.2840265,12.6498755 31.252914,12.8535899 31.2983861,13.1128629 C31.3342851,13.328152 31.4180495,13.5087171 31.5520726,13.6290938 C31.6741292,13.7541004 31.8560177,13.7980842 32.0953445,13.7656751 C32.2724464,13.7378958 32.4160425,13.6684477 32.5165598,13.5503859 C32.6194703,13.436954 32.6505828,13.2656487 32.617077,13.0457297 L31.9876474,13.1406421 L31.9565349,12.9299829 L32.8300779,12.8003464 L33,13.802714 L32.8276847,13.8281784 L32.7199876,13.5966847 C32.6457963,13.7008568 32.5739982,13.7818796 32.50938,13.8281784 C32.4016829,13.9115161 32.2556935,13.9624447 32.0738051,13.987909 C31.8368715,14.022633 31.6214773,13.9832791 31.4276226,13.8605875 C31.2122284,13.7078016 31.0734189,13.4786229 31.0231602,13.1614765 C30.9657218,12.851275 31.0159804,12.5850573 31.1643631,12.374398 C31.3055659,12.1706836 31.511387,12.0526218 31.7890061,12.0155828"/><path d="M34,12.2982676 L34.5540335,12.0428477 C34.6280456,12.0052069 34.6957138,11.9944524 34.7506942,12.0025183 C34.8521966,12.0132728 34.9283233,12.0885544 34.9706159,12.244495 C35.0107939,12.3735492 35.0107939,12.4891603 34.964272,12.5698192 C34.9177501,12.6531667 34.843738,12.7123166 34.7337772,12.7634006 L34.2135778,13 L34,12.2982676 M35.2735849,13.9095374 L34.8710692,13.2030676 L35.6352201,13.0135269 C35.7798742,12.9833727 35.8805031,12.9661417 35.9528302,12.9704495 C36.091195,12.9833727 36.1918239,13.0393734 36.2610063,13.1470669 L36.4371069,13.4163009 C36.4748428,13.4830709 36.5062893,13.5218406 36.5314465,13.5412254 C36.5408805,13.564918 36.5660377,13.5799951 36.5849057,13.5950722 L37,13.4895325 L36.9779874,13.4529167 C36.9150943,13.4529167 36.8584906,13.4292241 36.8144654,13.3818389 C36.7798742,13.3495308 36.7515723,13.3021457 36.7075472,13.2482989 L36.5691824,13.0264501 C36.509434,12.9316798 36.4465409,12.8713714 36.3742138,12.8369095 C36.2987421,12.8089091 36.2075472,12.7916782 36.1006289,12.7852166 C36.1823899,12.7184465 36.245283,12.6516765 36.2672956,12.5741372 C36.2924528,12.4944439 36.2798742,12.4039813 36.2264151,12.3049032 C36.1194969,12.1175164 35.927673,12.0141306 35.6540881,12.0012074 C35.5125786,11.9947458 35.3459119,12.0141306 35.1572327,12.0615158 L34,12.3436729 L34.9339623,14 L35.2735849,13.9138451"/><path d="M36.4180162,14 L35,11.9722498 L36.5576923,11 L36.7277328,11.246779 L35.4524291,12.0436075 L35.8896761,12.6620416 L37.0678138,11.9217047 L37.2287449,12.1565907 L36.0506073,12.8999009 L36.5303644,13.5837463 L37.8299595,12.7690783 L38,13.0099108 L36.4180162,14"/><path d="M38,9.35906954 L38.3857968,9.13474388 C38.5685426,9.03402623 38.7570899,8.98977151 38.9659423,9.00197971 C39.1747947,9.01113586 39.3865479,9.0691248 39.6128046,9.1728945 C39.6737199,9.19883692 39.7288338,9.23088344 39.7868483,9.26750804 C39.8854731,9.33465314 39.9434876,9.39416811 39.9811971,9.45368308 C40.0131051,9.5284583 40.0044029,9.5956034 39.9550905,9.66122247 C39.9260832,9.69326899 39.8709694,9.73141962 39.7926498,9.77720036 L39.4039522,10 L38,9.35754351 M40.7132115,10.4565716 C41.0136253,10.2255596 41.0800326,9.97914674 40.9029465,9.69973216 C40.8017545,9.54792424 40.6468042,9.40051655 40.4286089,9.27070978 C40.1598175,9.10350105 39.8752149,9.01769658 39.5779633,9.00229577 C39.2459269,8.98469485 38.9644866,9.06829922 38.7209933,9.25310886 L38,9.79213698 L39.989056,11 L40.7100492,10.4587718"/><path d="M40.8471338,8.99615385 L39,7.36153846 L39.1503185,7 L41,8.62692308 L40.8471338,9"/><path d="M42.3090551,7 L40,6.27462341 L40.6791339,5 L40.9596457,5.0834299 L40.4045276,6.13557358 L41.101378,6.34878331 L41.621063,5.38238702 L41.886811,5.46813441 L41.3730315,6.43453071 L42.1496063,6.6825029 L42.7194882,5.61877173 L43,5.70220162 L42.3061024,7"/><path d="M42.5532575,4 L40,3.55227552 L40.0837642,3.2398524 L42.4446743,2.60762608 L40.3722854,2.24600246 L40.4467425,2 L43,2.43542435 L42.9193382,2.7404674 L40.5584281,3.38499385 L42.6277146,3.73923739 L42.5563599,4"/><path d="M42.8951778,1.99561605 L42.9288314,1.68283485 C43.0903685,1.68587156 43.2249828,1.66157788 43.3259436,1.61299051 C43.527865,1.51581577 43.6456525,1.32753971 43.6759407,1.05423575 C43.6860368,0.923657191 43.6826715,0.811298898 43.6490179,0.705014025 C43.5884414,0.495480991 43.4605579,0.383122697 43.2519057,0.364902434 C43.1004646,0.34971888 42.9894078,0.383122697 42.9086392,0.459040463 C42.8379667,0.544068361 42.7605635,0.671610208 42.7033524,0.847739425 L42.5754688,1.17570417 C42.4947003,1.38827392 42.4206624,1.53707274 42.3365285,1.61906393 C42.2052795,1.77697288 42.0201849,1.82859696 41.7846098,1.81341341 C41.5355734,1.79215643 41.3302866,1.70105511 41.1855762,1.5249259 C41.0341351,1.36701694 40.9735587,1.13926365 41.0105776,0.859886268 C41.0341351,0.601765863 41.1283651,0.386159408 41.296633,0.213066902 C41.4514394,0.0521212376 41.6937452,-0.0237965284 42.0033581,0.00657057804 L41.9730699,0.322388485 C41.8216288,0.322388485 41.7038413,0.343645459 41.6129766,0.401342961 C41.4548048,0.480297438 41.3673055,0.647316523 41.3403827,0.893290085 C41.3168251,1.0967497 41.3471134,1.23340168 41.4346127,1.33664984 C41.5187466,1.42471445 41.6298034,1.47937524 41.7543216,1.48848537 C41.8923013,1.50063221 41.9966274,1.46115497 42.0706652,1.36701694 C42.1245109,1.30324602 42.1884527,1.16355733 42.2725867,0.935804034 L42.4004703,0.589619021 C42.4610467,0.431710068 42.5350846,0.310241642 42.6192185,0.222177033 C42.7740249,0.0794516334 42.9759464,0.0187174206 43.2249828,0.0339009738 C43.5345957,0.0642680802 43.753344,0.179663084 43.8644008,0.389196119 C43.9754576,0.601765863 44.0192072,0.835592583 43.9922843,1.10282312 C43.9586308,1.40345747 43.847574,1.6403209 43.6490179,1.80126657 C43.4470964,1.96221223 43.19806,2.01687302 42.8951778,1.99561605"/><path d="M0.817355822,2.09564922 L0.881287004,2.39308465 C0.726506249,2.42224499 0.602008685,2.47473359 0.514523911,2.5447184 C0.353013558,2.67593992 0.295811975,2.87131417 0.353013558,3.13958927 C0.376567151,3.25331458 0.423674337,3.36412386 0.48424072,3.45452091 C0.605373484,3.63531499 0.766883837,3.70821583 0.968771778,3.6790555 C1.11682293,3.65572723 1.21776691,3.60615466 1.26487409,3.51575761 C1.30861648,3.42244454 1.34226447,3.28539095 1.35235887,3.1075129 L1.36918286,2.77216903 C1.38264206,2.56513064 1.40956045,2.40183275 1.46339723,2.31143571 C1.54751721,2.14813782 1.70229796,2.04607664 1.93783389,2.01400027 C2.19019382,1.9731758 2.41227056,2.02274837 2.6040641,2.14813782 C2.79585764,2.26186313 2.92372001,2.46306946 2.97082719,2.72842852 C3.02802878,2.97337535 3.00111038,3.19207788 2.89007202,3.38745213 C2.78576325,3.57991035 2.58051051,3.6965517 2.2675842,3.74612427 L2.20701782,3.4457728 C2.35170417,3.39911627 2.45937774,3.35537576 2.53003852,3.29122302 C2.65453609,3.17458167 2.69154887,3.00253569 2.64444169,2.76633696 C2.6074289,2.57387874 2.53003852,2.44848929 2.41563535,2.38725258 C2.30459699,2.31435174 2.19019382,2.2851914 2.06906106,2.30268761 C1.9311043,2.32309984 1.84025472,2.38725258 1.79651234,2.49514583 C1.76959394,2.56513064 1.74940515,2.71093232 1.73258115,2.93838295 L1.71239236,3.28539095 C1.70229796,3.44868884 1.67537957,3.58282639 1.61144839,3.67613946 C1.51050442,3.84526942 1.34226447,3.95024663 1.09326934,3.98523903 C0.780343033,4.03189557 0.538077504,3.96774283 0.366472754,3.79569685 C0.191503205,3.62365086 0.0804648378,3.4195285 0.0266280536,3.16583357 C-0.0339383287,2.8654821 0.0098040585,2.62928338 0.147760818,2.44265722 C0.289082377,2.250199 0.514523911,2.13647369 0.817355822,2.09856525"/><path d="M0,4.5902439 L2.43447581,4 L3,5.38292683 L2.70362903,5.45853659 L2.24092742,4.32195122 L1.5,4.50243902 L1.92943548,5.55121951 L1.64516129,5.62439024 L1.22177419,4.57317073 L0.396169355,4.77073171 L0.867943548,5.93170732 L0.577620968,6 L2.57858251e-14,4.5902439"/><path d="M1,8.09470752 L2.96460177,7 L3.17433628,7.38440111 L1.82300885,8.88579387 L3.79823009,8.52924791 L4,8.91086351 L2.04070796,10 L1.9,9.74651811 L3.05752212,9.10584958 C3.1,9.08077994 3.16371681,9.04456825 3.25929204,8.99164345 C3.34955752,8.94707521 3.45309735,8.88857939 3.55663717,8.83286908 L1.5920354,9.18384401 L1.44867257,8.91643454 L2.78938053,7.42061281 L2.72566372,7.454039 C2.68318584,7.48189415 2.61150442,7.51810585 2.51327434,7.57660167 C2.41504425,7.64066852 2.34336283,7.67966574 2.29557522,7.69916435 L1.14070796,8.34818942 L1,8.09192201"/><path d="M4.61261521,9.99399215 C4.52740182,9.97510394 4.44449149,9.92316136 4.36158116,9.83580338 L4,9.45567811 L4.48594665,9 L4.84752781,9.38012527 C4.91892281,9.45095606 4.96268104,9.51942583 4.98801475,9.57845149 C5.02025766,9.69178076 4.98801475,9.79566593 4.88437684,9.89246802 C4.79225426,9.979826 4.70013167,10.0152414 4.61261521,9.99399215 M3.25157233,10.8963228 L4.06603774,10.1962784 L4.64150943,10.7456803 C4.82704403,10.9229067 5.01572327,11.0056124 5.21383648,10.9997048 C5.41823899,10.9908435 5.59119497,10.9199529 5.74528302,10.7840794 C5.91823899,10.6393444 6,10.4709793 6,10.2878454 C5.99685535,10.1135727 5.91194969,9.94816138 5.75157233,9.79161137 L4.9245283,9 L3,10.6600209 L3.24842767,10.8963228"/><path d="M5,13.0541872 L6.37603306,11 L8,11.9428571 L7.83264463,12.1881773 L6.49690083,11.4226601 L6.08161157,12.0463054 L7.31198347,12.755665 L7.15082645,12.9921182 L5.92355372,12.2857143 L5.45557851,12.9832512 L6.80681818,13.7576355 L6.64566116,14 L5,13.0541872"/><path d="M9.18623748,12 L9.75129893,12.2363132 C9.83171966,12.2668949 9.88886071,12.3085973 9.92907107,12.3530798 C10.0010265,12.4420448 10.0200735,12.5727121 9.97774678,12.7284008 C9.94176908,12.8618483 9.88886071,12.9508133 9.80632364,12.9897354 C9.73436825,13.0064164 9.64124951,13.0064164 9.53331642,12.9619339 L9,12.7367413 L9.18623748,12 M8.25935767,13.6396761 L8.5234742,12.9676113 L9.11595181,13.1315789 C9.22064665,13.1538462 9.29678835,13.1862348 9.3348592,13.2206478 C9.40862148,13.2753036 9.43003633,13.3582996 9.39196548,13.4595142 L9.30392664,13.7267206 C9.28489121,13.7935223 9.2753735,13.8360324 9.26585579,13.8562753 C9.26585579,13.8765182 9.26585579,13.8987854 9.27061464,13.9129555 L9.58231973,14 L9.59897573,13.9615385 C9.56566373,13.9392713 9.54900774,13.8987854 9.54900774,13.8481781 C9.55614602,13.8178138 9.56566373,13.7692308 9.58707859,13.7105263 L9.66322029,13.4979757 C9.69177343,13.402834 9.70367057,13.3340081 9.67749686,13.2834008 C9.65370258,13.2287449 9.61563173,13.1821862 9.54900774,13.1356275 C9.64894372,13.1214575 9.73222371,13.0951417 9.80598598,13.0506073 C9.8749894,13 9.93209567,12.9291498 9.96540767,12.8299595 C10.0367905,12.6518219 9.99871966,12.5020243 9.8416774,12.388664 C9.76315627,12.3299595 9.65132315,12.2793522 9.50617803,12.2327935 L8.61865132,12 L8,13.5708502 L8.25935767,13.6396761"/></g><path d="M12.0065123,6.22949475 C12.2366336,5.50359833 14.3724475,3.52615637 21.3839578,4.39285166 C21.3839578,4.39285166 22.5681239,5.33776855 23.2632822,5.21574286 C23.6612004,5.14690785 23.0307637,5.24703149 22.5129907,4.683836 C21.9832321,4.12376937 21.8705685,2.97234747 23.0787057,3.00050724 C24.2796515,3.04118247 28.7742094,3.37284204 28.8605049,3.90162003 C28.9396091,4.43352689 26.4825842,4.65567622 25.56929,4.62751645 C24.6512017,4.59309895 24.759071,5.20009854 25.6723652,5.15316558 C28.5249112,5.0217533 31.641138,3.70763047 34.9323529,6.74575728 C35.3230798,7.11496322 33.9399545,7.17441163 32.8684519,6.5799275 C32.8684519,6.5799275 29.9655668,6.77704592 28.7118848,6.50796363 C28.7118848,6.50796363 27.7458546,7.53110211 26.4897755,7.43097847 C26.6527781,7.96288533 26.0271356,9.94658502 22.0767189,8.45411695 C21.4247084,8.71694152 19.0467877,9.23633292 19.3056742,8.31331808 C18.6800318,8.31331808 17.5821611,8.57614264 17.4191585,8.11307079 C17.26095,7.6531278 19.3512191,6.96164889 19.717975,6.4672884 C19.717975,6.4672884 15.2977272,6.52360795 14.4611401,6.12624224 C14.4611401,6.12624224 11.853098,6.88968502 12.0065123,6.22636588" fill="#BC715F" id="Shape"/><path d="M13.1733113,13.1642897 C13.2691413,12.9950732 13.3084561,12.6885677 13.514859,12.6949533 C13.9645225,12.8513988 14.2692126,13.9177823 14.8220776,13.2249523 C15.0161946,13.1706753 15.0923671,13.5154939 15.2545408,13.5569999 C15.3577423,14.1476614 15.7238618,13.4356748 15.9966085,13.4771807 C16.5814168,13.1387476 17.3062842,13.0589285 17.9992084,13.2249523 C18.0188658,13.8060355 17.6699465,14.4477813 17.2301117,14.7798289 C17.2374833,15.364105 17.6478319,15.7376585 17.6404604,16.32832 C17.5692023,16.5486208 17.6281745,16.8934395 17.372628,16.9636803 C17.0482806,16.8902467 16.7263903,16.845548 16.4585579,16.6092834 C16.4241574,16.5677774 16.3971285,16.4815728 16.3283275,16.5103077 C16.2963842,16.7050663 16.5322733,16.899825 16.625646,17.1009692 C16.4610151,17.4617517 16.1907256,17.1328969 15.9646652,17.1360896 C15.8958642,17.3436194 15.962208,17.6054261 15.7975771,17.7395222 C15.5100873,17.729944 15.4511151,17.32127 15.2741983,17.1201258 C15.0948243,17.375547 15.4019715,17.525607 15.4462007,17.729944 C15.3356277,18.4930148 15.3503708,19.2433147 14.7606481,19.7445788 L14.3650425,20 C14.2569267,19.6136754 14.3257277,19.0293994 14.2520123,18.627111 C14.0185805,19.1219896 13.8367493,19.5530129 13.4952016,19.9712651 C13.0946816,19.8020486 12.8612497,19.1858449 12.7727914,18.6781952 C12.6057033,18.0843409 12.7015332,17.375547 13.0602811,16.9445237 C12.9374223,16.6348255 12.5172449,16.7050663 12.4582726,16.2644647 C11.8292351,15.7312729 11.4803159,17.1967522 11.0724244,16.4336813 C10.942194,15.7216947 11.0994533,14.8372987 11.4950589,14.3072997 C11.4066005,14.016758 11.1141964,14.0933844 10.9397368,13.9241679 C10.5441312,13.486759 9.97160875,13.0270008 10.0010949,12.2351951 C11.0847103,11.705196 12.3821001,12.0947134 13.1708541,13.1642897" fill="#008830" id="Shape"/><path d="M14.2334879,13.1693018 C14.1990731,14.0242761 14.6589803,13.4020919 15,13.922695 C14.7340672,13.7787885 14.5400928,14.5448793 14.2772886,14.1046945 L14.1146004,14.3163218 C14.208459,14.6126 14.3961762,14.6506929 14.2022017,14.9723664 C13.9174973,15.1205055 13.8580535,14.6337627 13.7266514,14.4432982 C13.704751,14.3586473 13.7704521,14.1978105 13.664079,14.1427874 C13.5045193,14.3290194 13.3324452,14.3967402 13.1103131,14.3628798 C13.0508693,14.1978105 12.9319817,13.9819507 13.0508693,13.8549743 C13.2698728,13.457115 13.6108924,13.9988808 13.7767093,13.7195328 C13.8017383,13.4740451 13.6421786,13.1693018 13.8486676,13 C13.9925841,13.0338604 14.1771728,12.9280467 14.2334879,13.1693018" fill="#F9D90F" id="Shape"/><path d="M14.3302213,13.3381438 C14.3463903,13.508995 14.2655454,13.7499389 14.4304691,13.8682205 C14.6438998,13.7105117 14.8734995,13.8331741 14.9963838,14.117926 C14.9963838,14.2756348 15.0319556,14.4771515 14.8799671,14.5516251 L14.5468858,14.4683899 C14.5695224,14.3763932 14.4628071,14.3238236 14.4207677,14.2362076 C14.2752468,14.1748764 14.1879342,14.336966 14.077985,14.4377243 C14.15883,14.6085755 14.3528579,14.7005723 14.3075847,14.9196122 C14.110323,15.186841 14.0133091,14.6918107 13.7966446,14.8144731 C13.6478899,14.7399995 13.8483854,14.3238236 13.6155519,14.1967804 C13.340679,14.1967804 13.5250055,14.8100923 13.1725215,14.5691483 C13.0464034,14.3763932 12.923519,14.117926 13.0593386,13.9032669 C13.2048595,13.7718429 13.4570958,13.8025085 13.5799801,13.9777404 C13.7966446,13.6535613 13.8192812,12.4094144 14.3302213,13.3381438" fill="#F9D90F" id="Shape"/><path d="M13.9337825,14.4511751 C14.0694865,14.7037607 13.9029406,15.0471193 14.0787391,15.3312781 C14.3532314,14.6721875 14.615387,15.4694109 14.9423105,15.4102111 C15.0440886,15.5641305 14.9762365,15.7811962 14.9947416,15.9587955 C14.5937978,16.0969283 14.1064967,16.2587409 13.7487314,15.8443426 L13.6500376,15.9943154 C13.8628462,16.246901 14.0633182,16.5310598 13.8936881,16.9533514 C13.5914381,17.0362311 13.1226422,17.048071 12.9715172,16.6494593 C12.8944126,16.3179407 13.1565682,16.0811417 12.8789917,15.8167161 C12.6785197,16.1363948 12.6877723,16.562633 12.2683233,16.2745275 C12.0092519,16.0929816 11.9321473,15.7141032 12.061683,15.3983712 C12.3330912,14.8497867 12.8049713,15.4141578 13.0979687,15.1457855 C13.1380631,14.6800808 13.0054432,14.2696291 13.338535,14.0091502 C13.6284483,13.9460038 13.7610682,14.2222693 13.9337825,14.4511751" fill="#F9D90F" id="Shape"/><path d="M14,14.488541 C13.835206,15.6795134 13.2659176,14.4236861 13,14.3765189 C13.3558052,13.3801113 13.5805243,14.7007935 14,14.488541" fill="#FFFFFF" id="Shape"/><path d="M15.3445021,15.9790158 C15.0855147,16.1268879 15.1270504,15.4538146 15,15.1937635 L15.0977311,15 C15.1930189,15.2396549 15.263874,15.6628753 15.3445021,15.9790158" fill="#FFFFFF" id="Shape"/><path d="M15.0108448,15.580346 C15.1073654,15.8627535 14.7888476,16.0886794 15.0623225,16.2984678 C15.1459736,16.2056768 15.2521462,16.0806107 15.2971891,16.0281636 C15.5320558,16.1169202 15.8023134,16.1653329 15.963181,16.4558091 C16.1369179,17.0569335 15.6543152,17.040796 15.3808403,17.206206 L15.1073654,17.1941029 C15.1717124,17.0246584 14.9915407,16.9560737 14.9464978,16.8390764 C14.8210211,16.7987324 14.7148485,16.8471451 14.6440667,16.9802801 C14.7051964,17.3635473 15.0751919,17.658058 14.6955444,17.9969469 C14.3705918,17.9727405 13.868685,18.1300818 13.9008585,17.5693013 C13.7785991,17.2505844 14.2290284,16.7624229 13.7464256,16.742251 C13.5887754,17.1698965 13.4150384,17.5814045 13,17.1779653 L13.0514776,16.5687721 C13.4472119,16.5849097 13.9137279,16.6696319 14.0938996,16.1169202 C14.2065069,15.713481 13.8944238,15.3423169 14.1743334,15.0235999 C14.5765024,14.9066026 14.8049343,15.2454915 15.0108448,15.580346" fill="#F9D90F" id="Shape"/><path d="M14.971114,16.3964148 C15.1054951,16.7810105 14.7370308,16.8066502 14.5636359,16.9963842 C14.3295527,17.0220239 14.1648275,16.9092091 14.0217766,16.7246031 C13.9177396,16.2579603 14.2081762,16.2118088 14.4335896,16.0272028 C14.6936821,15.8990042 14.8020539,16.2579603 14.971114,16.3964148" fill="#000000" id="Shape"/><path d="M14.1734727,16.2115826 C14.1417101,16.2637537 14.0952878,16.2463633 14.0464223,16.2608553 L14,16 C14.0977311,16.0086952 14.2247815,16.0463743 14.1734727,16.2115826" fill="#FFFFFF" id="Shape"/><path d="M29.420935,15.8416136 C28.2158429,16.0775735 28,17 28,17 L32,17 C32,17 31.8080871,16.0650383 30.5878648,15.836915 C30.4183184,15.8052179 30.4206211,13.0000001 30,13 C29.5793789,12.9999999 29.5976734,15.8070078 29.420935,15.8416136 Z" fill="#FFFFFF" id="Path-59" stroke="#000000" stroke-width="0.1"/></g></g></g></svg>