<?xml version="1.0" encoding="UTF-8" standalone="no"?>
<svg width="180px" height="120px" viewBox="0 0 180 120" version="1.1" xmlns="http://www.w3.org/2000/svg" xmlns:xlink="http://www.w3.org/1999/xlink">
    <!-- Generator: Sketch 40.2 (33826) - http://www.bohemiancoding.com/sketch -->
    <title>icon-flag-eh</title>
    <desc>Created with Sketch.</desc>
    <defs></defs>
    <g id="Page-1" stroke="none" stroke-width="1" fill="none" fill-rule="evenodd">
        <rect id="Rectangle-path" fill="#000000" x="0" y="0" width="180" height="60"></rect>
        <rect id="Rectangle-path" fill="#007A3D" x="0" y="60" width="180" height="60"></rect>
        <rect id="Rectangle-path" fill="#FFFFFF" x="0" y="40" width="180" height="40"></rect>
        <polygon id="Shape" fill="#C4111B" points="0 0 60 60 0 120"></polygon>
        <path d="M92.25,72.7894063 C91.5211858,72.9276575 90.7690411,73 90,73 C83.372583,73 78,67.627417 78,61 C78,54.372583 83.372583,49 90,49 C90.7690411,49 91.5211858,49.0723425 92.25,49.2105937 C86.6980635,50.2637586 82.5,55.1416241 82.5,61 C82.5,66.8583759 86.6980635,71.7362414 92.25,72.7894063 Z" id="Combined-Shape" fill="#C4111B"></path>
        <polygon id="Shape" fill="#C4111B" points="86.778882 68.26612 91.895781 64.608301 96.972669 68.321428 95.075088 62.324644 100.175331 58.643647 93.885663 58.595254 91.96089 52.607146 89.971245 58.574017 83.681427 58.554187 88.741434 62.290306 86.778882 68.266144"></polygon>
    </g>
</svg>