<?xml version="1.0" encoding="UTF-8" standalone="no"?>
<svg width="180px" height="120px" viewBox="0 0 180 120" version="1.1" xmlns="http://www.w3.org/2000/svg" xmlns:xlink="http://www.w3.org/1999/xlink">
    <!-- Generator: Sketch 40.2 (33826) - http://www.bohemiancoding.com/sketch -->
    <title>icon-flag-ck</title>
    <desc>Created with Sketch.</desc>
    <defs></defs>
    <g id="Page-1" stroke="none" stroke-width="1" fill="none" fill-rule="evenodd">
        <rect id="Rectangle-path" fill="#00247D" x="0" y="0.0377503583" width="180" height="119.96225"></rect>
        <polygon id="Combined-Shape-path" fill="#FFFFFF" points="121.21993 31.0664476 120.609441 26.2815897 115.794755 25.2812052 120.279021 23.2206648 119.75035 18.4200776 123.023077 21.996924 127.526224 20.043343 125.131469 24.227341 128.388462 27.8954175 123.727972 26.9264917"></polygon>
        <polygon id="Combined-Shape" fill="#FFFFFF" points="70.6979647 14.8233074 90 5.17494495 89.8867133 0.0377503583 79.8262238 0.0377503583 52.4486014 13.7756619 52.4486014 0.0377503583 37.4475524 0.0377503583 37.4475524 13.5484056 10.5954545 0.0377503583 0 0.0377503583 0 5.17494495 19.3431064 14.8233074 0 14.8233074 0 29.9234507 20.2684506 29.9234507 0 40.0940264 0 45.0959488 10.2807692 45.023594 37.4475524 31.4439395 37.4475524 45.023594 52.4486014 45.023594 52.4486014 31.336364 80.0339161 45.0959488 90 45.023594 90 39.9902129 69.9925553 29.9234507 90 29.9234507 90 14.8233074"></polygon>
        <path d="M49.6164336,18.072984 L49.6164336,0.0377503583 L40.4905594,0.0377503583 L40.4905594,18.072984 L0,18.072984 L0,26.9852144 L40.4905594,26.9852144 L40.4905594,45.023594 L49.6164336,45.023594 L49.6164336,26.9852144 L90,26.9852144 L90,18.072984 L49.6164336,18.072984 L49.6164336,18.072984 L49.6164336,18.072984 Z M0,3.49819987 L23.3905594,14.9271208 L29.6842657,14.9271208 L0,0.0377503583 L0,3.49819987 L0,3.49819987 L0,3.49819987 Z M60.2087413,30.1310776 L90,45.023594 L89.8867133,41.3366423 L66.9241259,30.1310776 L60.2087413,30.1310776 L60.2087413,30.1310776 L60.2087413,30.1310776 Z M83.2877622,0 L53.6003497,14.9648712 L60.6304196,14.9648712 L90,0 L83.2877622,0 L83.2877622,0 L83.2877622,0 Z M29.6842657,30.1310776 L0,45.0959488 L7.02692308,45.0959488 L36.3996503,30.1310776 L29.6842657,30.1310776 L29.6842657,30.1310776 L29.6842657,30.1310776 Z" id="Combined-Shape" fill="#CF142B"></path>
        <polygon id="Combined-Shape-path" fill="#FFFFFF" points="103.166434 62.2482436 102.552797 57.4633856 97.7381119 56.4630012 102.225524 54.4024608 101.693706 49.6050194 104.96958 53.1818658 109.472727 51.2251389 107.077972 55.409137 110.331818 59.0772135 105.671329 58.1114335"></polygon>
        <polygon id="Combined-Shape-path" fill="#FFFFFF" points="109.862937 48.371841 105.91049 45.6066273 101.92972 48.4945297 103.421329 43.7914642 99.5129371 40.9538956 104.362238 40.9381663 105.948252 36.2917264 107.43042 40.8783949 112.336364 40.9381663 108.487762 43.7348387"></polygon>
        <polygon id="Combined-Shape-path" fill="#FFFFFF" points="113.658042 38.5661855 111.181469 34.4262295 106.36993 35.4329057 109.658392 31.7490999 107.251049 27.5651019 111.681818 29.5344122 115.03007 25.9418365 114.507692 30.7329861 118.957343 32.7935265 114.3 33.77189"></polygon>
        <polygon id="Combined-Shape-path" fill="#FFFFFF" points="110.486014 69.5151875 115.143357 68.5399699 110.693706 66.4794296 111.212937 61.685134 107.867832 65.2777098 103.437063 63.3083995 105.841259 67.4955434 102.555944 71.1793492 107.367483 70.1695271 109.844056 74.309483"></polygon>
        <polygon id="Combined-Shape-path" fill="#FFFFFF" points="120.996503 82.6239994 117.040909 79.8556398 113.063287 82.7466881 114.554895 78.0404768 110.646503 75.2029082 115.495804 75.1871789 117.078671 70.5438848 118.563986 75.1274075 123.46993 75.1871789 119.618182 77.9838512"></polygon>
        <polygon id="Combined-Shape-path" fill="#FFFFFF" points="127.356294 89.0667273 126.745804 84.2818693 121.931119 83.2814848 126.415385 81.2209445 125.886713 76.4235031 129.159441 80.0003495 133.662587 78.0436226 131.267832 82.2276207 134.524825 85.8956972 129.864336 84.9299172"></polygon>
        <polygon id="Combined-Shape-path" fill="#FFFFFF" points="142.807343 89.0572897 140.330769 84.9173337 135.519231 85.9240099 138.804545 82.2402041 136.40035 78.0562061 140.831119 80.0255164 144.176224 76.4329407 143.656993 81.2240903 148.106643 83.2846307 143.449301 84.2629942"></polygon>
        <polygon id="Combined-Shape-path" fill="#FFFFFF" points="156.870629 82.6239994 152.915035 79.8556398 148.937413 82.7466881 150.429021 78.0404768 146.520629 75.2029082 151.36993 75.1871789 152.952797 70.5438848 154.438112 75.1274075 159.344056 75.1871789 155.492308 77.9838512"></polygon>
        <polygon id="Combined-Shape-path" fill="#FFFFFF" points="160.162238 74.4164424 159.551748 69.6315845 154.737063 68.6312 159.221329 66.5706596 158.692657 61.7700724 161.965385 65.3469188 166.468531 63.3933378 164.073776 67.5773358 167.330769 71.2454123 162.67028 70.2764864"></polygon>
        <polygon id="Combined-Shape-path" fill="#FFFFFF" points="166.959441 62.238806 164.482867 58.09885 159.671329 59.1055262 162.956643 55.4217204 160.552448 51.2377224 164.983217 53.2070328 168.328322 49.614457 167.809091 54.4056066 172.258741 56.466147 167.601399 57.4445105"></polygon>
        <polygon id="Combined-Shape-path" fill="#FFFFFF" points="168.041958 48.3340907 164.086364 45.5657311 160.108741 48.4536335 161.60035 43.750568 157.691958 40.9161453 162.541259 40.8972701 164.124126 36.253976 165.609441 40.8374987 170.515385 40.8972701 166.663636 43.6939425"></polygon>
        <polygon id="Combined-Shape-path" fill="#FFFFFF" points="163.667832 35.2095494 158.922378 34.3192702 156.48986 38.5913524 155.907692 33.6900975 151.177972 32.7180258 155.58986 30.7046734 155.114685 25.8191478 158.359091 29.3834108 162.852797 27.4172463 160.498951 31.5509106"></polygon>
        <polygon id="Combined-Shape-path" fill="#FFFFFF" points="154.095105 25.2119962 149.390559 26.3004649 148.877622 31.1891363 146.375874 26.9327834 141.652448 27.9394596 144.887413 24.3248628 142.492657 20.0401971 146.895105 22.0032158 150.221329 18.4012024 149.724126 23.1325807"></polygon>
        <polygon id="Combined-Shape-path" fill="#FFFFFF" points="135.040909 15.2018596 136.535664 19.7633612 141.451049 19.7633612 137.47972 22.7141809 138.974476 27.3134328 135.040909 24.482156 131.028671 27.3134328 132.523427 22.7141809 128.58986 19.7633612 133.505245 19.7633612"></polygon>
    </g>
</svg>