<?xml version="1.0" ?><svg height="120px" version="1.1" viewBox="0 0 180 120" width="180px" xmlns="http://www.w3.org/2000/svg" xmlns:sketch="http://www.bohemiancoding.com/sketch/ns" xmlns:xlink="http://www.w3.org/1999/xlink"><title/><defs/><g fill="none" fill-rule="evenodd" id="Page-1" stroke="none" stroke-width="1"><g id="haiti"><rect d="M0,0 L0,120 L180,120 L180,0 L0,0 Z M0,0" fill="#CA4638" height="120" id="Rectangle-3-copy" width="180" x="0" y="0"/><rect d="M0,0 L0,60 L180,60 L180,0 L0,0 Z M0,0" fill="#306FC5" height="60" id="Rectangle-3" width="180" x="0" y="0"/><g id="Group" transform="translate(37.000000, 16.000000)"><rect d="M1,0 L1,88 L107,88 L107,0 L1,0 Z M1,0" fill="#FFFFFF" height="88" id="Background" width="106" x="1" y="0"/><path d="M75.3327603,64 L53.7006385,64.6449879 L32.1661346,64.8965332 C32.1661346,64.8965332 21.1025102,69.1002032 16.5798134,70.0435367 C12.0704345,70.9840942 12.6568183,72.5060737 9.16736248,73.3071755 C6.37239425,73.9488384 6.0500418,74.1511664 4.41011788,74.2617576 C3.41774338,74.3286815 2.19545565,75.1130446 1,75.9774254 L1,88 L107,88 L107,76.5643644 C105.851006,75.9211639 104.756059,75.4786898 103.635437,75.0873421 C102.078272,74.543542 101.028885,73.9488384 98.2339145,73.3071755 C94.7444591,72.5060737 95.3308432,70.9840962 90.8214637,70.0435367 C86.2987664,69.1002011 75.3327624,63.9999979 75.3327603,64 C75.3327603,64 75.3327624,63.9999979 75.3327603,64 L75.3327603,64 L75.3327603,64 L75.3327603,64 L75.3327603,64 Z M75.3327603,64" fill="#016A16" id="Island" stroke="#016A16" stroke-width="0.1"/><path d="M53.2265061,15.5331826 L52.6932494,26 L56.0194383,26 L55.5328415,15.6237484 L59,15.1339167 L58.6159741,11 L50,11.3345782 L50.0481851,15.0886338 L53.2265061,15.5331826 L53.2265061,15.5331826 L53.2265061,15.5331826 L53.2265061,15.5331826 Z M53.2265061,15.5331826" fill="#016A16" id="Palm-center" stroke="#016A16" stroke-width="0.1"/><g id="Reflected-elements" transform="translate(0.000000, 5.000000)"><g id="g3357"><g id="Pikes" stroke="#000000" stroke-width="0.1" transform="translate(37.000000, 23.000000)"><path d="M6.65868116,15.2773726 L4,9.2554759 L5.14969991,9 L10,19 L6.65868116,15.2773726 L6.65868116,15.2773726 L6.65868116,15.2773726 L6.65868116,15.2773726 Z M6.65868116,15.2773726" fill="#F1B517" id="path2976"/><path d="M0,2 L3.3064525,11 L5,11 L0,2 L0,2 L0,2 L0,2 Z M0,2" fill="#FFFFFF" id="path2970"/><path d="M10,8.0372101 L11.4137917,8 L14,20.1674414 L13.4482771,24 L10,8.0372101 L10,8.0372101 L10,8.0372101 L10,8.0372101 Z M10,8.0372101" fill="#F1B517" id="path2980"/><path d="M10.5463925,20.2027981 L6,7.11188645 L7.6958771,7 L13,23 L10.5463925,20.2027981 L10.5463925,20.2027981 L10.5463925,20.2027981 L10.5463925,20.2027981 Z M10.5463925,20.2027981" fill="#F1B517" id="path2978"/><path d="M4,0 L5.65957528,9 L7,9 L4,0 L4,0 L4,0 L4,0 Z M4,0" fill="#FFFFFF" id="path2972"/><path d="M8,0 L8.96551744,10 L10,9.9206354 L8,0 L8,0 L8,0 L8,0 Z M8,0" fill="#FFFFFF" id="path2974"/></g><g id="Flags" transform="translate(10.000000, 19.000000)"><path d="M35,21.414798 L22.2870509,7 C18.3164535,10.2655233 19.054141,16.2616717 19.054141,16.2616717 L33.4584604,28 L35,21.414798 L35,21.414798 L35,21.414798 L35,21.414798 Z M35,21.414798" fill="#0A328C" id="path3038" stroke="#000000" stroke-width="0.1"/><path d="M42,29.9022213 L32.9266666,20 C29.0906642,20.1434218 32.1344949,26.3133827 32.3276735,27.0878614 L42,36 L42,29.9022213 L42,29.9022213 L42,29.9022213 L42,29.9022213 Z M42,29.9022213" fill="#D20014" id="path3019" stroke="#000000" stroke-width="0.1"/><g fill="#F1B517" id="g2996" stroke="#000000" stroke-width="0.1" transform="translate(16.000000, 0.000000)"><path d="M24.6365565,28.2464355 L5.73756357,6 L5,6.57279126 L25,31 L24.6365565,28.2464355 L24.6365565,28.2464355 L24.6365565,28.2464355 L24.6365565,28.2464355 Z M24.6365565,28.2464355" id="path2990"/><path d="M4,4.22413807 L3.61164948,3.70689748 L3.65048547,2.67241422 L0,0 L1.63106654,4.22413807 L2.87378632,4.48275941 L3.26213496,5 L4,4.22413807 L4,4.22413807 L4,4.22413807 L4,4.22413807 Z M4,4.22413807" id="path2992"/><path d="M2,5.68181786 C2.67368372,4.77272665 3.47368453,3.86363764 4.90526269,3 L6,4.77272665 L3.64210597,7 L2,5.68181786 L2,5.68181786 L2,5.68181786 L2,5.68181786 Z M2,5.68181786" id="path2994"/></g><path d="M29,25.4334803 L13.3226821,12 C10.6386374,14.9466194 12.8701996,24.0447597 12.8701996,24.0447597 L28.1931101,33 L29,25.4334803 L29,25.4334803 L29,25.4334803 L29,25.4334803 Z M29,25.4334803" fill="#0A328C" id="path3042" stroke="#000000" stroke-width="0.1"/><path d="M41.9566224,35.8745144 L29.1968796,25 C24.8392845,25.6505982 28.2648989,32.4735242 28.524717,33.2251965 L42,41 L41.9566224,35.8745144 L41.9566224,35.8745144 L41.9566224,35.8745144 L41.9566224,35.8745144 Z M41.9566224,35.8745144" fill="#D20014" id="path3034" stroke="#000000" stroke-width="0.1"/><g fill="#F1B517" id="g3003" stroke="#000000" stroke-width="0.5" transform="translate(25.507596, 22.586824) rotate(-10.000007) translate(-25.507596, -22.586824) translate(11.007596, 5.086824)"><path d="M4.78710769,6.44326694 L0.927237479,1.16666667 L0.805555556,1.27678264 L4.83333333,7 L4.78710769,6.44326694 L4.78710769,6.44326694 L4.78710769,6.44326694 L4.78710769,6.44326694 Z M4.78710769,6.44326694" id="path3005"/><path d="M0.805555556,1.01580462 L0.742987972,0.915230066 L0.749244881,0.714080543 L0.161111111,0.194444444 L0.423894054,1.01580462 L0.624110018,1.06609211 L0.686677299,1.16666667 L0.805555556,1.01580462 L0.805555556,1.01580462 L0.805555556,1.01580462 L0.805555556,1.01580462 Z M0.805555556,1.01580462" id="path3007"/><path d="M0.483333333,1.29924236 C0.591871266,1.12247463 0.720760285,0.945707319 0.951403433,0.777777778 L1.12777778,1.12247463 L0.747894851,1.55555556 L0.483333333,1.29924236 L0.483333333,1.29924236 L0.483333333,1.29924236 L0.483333333,1.29924236 Z M0.483333333,1.29924236" id="path3009"/></g><path d="M28,33.5075306 C27.7906697,33.4524677 7.6638176,21 7.6638176,21 C6.19851392,23.6981717 7.52370935,27.6125228 8.16606158,28.221315 C8.20328329,30.0178623 7.50434908,30.9840208 8.94206524,34.7360752 C9.3660901,37.175608 10.4009958,39.4231415 11.9074541,40.7580948 C13.7427471,48.4439518 20.93746,48.9601725 23.708752,42.7033444 L28,33.5075306 L28,33.5075306 L28,33.5075306 L28,33.5075306 Z M28,33.5075306" fill="#0A328C" id="path3044" stroke="#000000" stroke-width="0.1"/><path d="M42,41.4772276 L27.9715228,33 C23.4592848,33.6528359 28.0671565,42.284669 28.3361951,43.0389267 L41.8817332,48 L42,41.4772276 L42,41.4772276 L42,41.4772276 L42,41.4772276 Z M42,41.4772276" fill="#D20014" id="path3036" stroke="#000000" stroke-width="0.1"/><g fill="#F1B517" id="g3011" stroke="#000000" stroke-width="0.1" transform="translate(21.000000, 30.000000) rotate(-19.000000) translate(-21.000000, -30.000000) translate(6.000000, 12.000000)"><path d="M29.7130822,33.1368014 L5.75526711,6 L5,6.56631073 L30,36 L29.7130822,33.1368014 L29.7130822,33.1368014 L29.7130822,33.1368014 L29.7130822,33.1368014 Z M29.7130822,33.1368014" id="path3013"/><path d="M4,4.22413807 L3.61164948,3.70689748 L3.65048547,2.67241422 L0,0 L1.63106654,4.22413807 L2.87378632,4.48275941 L3.26213496,5 L4,4.22413807 L4,4.22413807 L4,4.22413807 L4,4.22413807 Z M4,4.22413807" id="path3015"/><path d="M2,5.68181786 C2.67368372,4.77272665 3.47368453,3.86363764 4.90526269,3 L6,4.77272665 L3.64210597,7 L2,5.68181786 L2,5.68181786 L2,5.68181786 L2,5.68181786 Z M2,5.68181786" id="path3017"/></g><g id="g3050" stroke-width="0.1" transform="translate(16.000000, 4.000000)"><path d="M0,5.8222298 L0.66083887,7 C1.0699294,6.84503062 5.19230689,3.03277059 5.19230689,3.03277059 L8.15035092,2.9397902 L9,1.97897631 C6.82867109,-0.407559615 4.78321636,2.31990854 4.78321636,2.31990854 L0,5.8222298 L0,5.8222298 L0,5.8222298 L0,5.8222298 Z M0,5.8222298" fill="#0A328C" id="path3048" stroke="#0A328C"/><path d="M2.64178996,8 C2.79104324,6.93193794 4.64179096,4.26177861 4.91044724,4.16753722 C6.29999896,4.62251182 7.59254923,5.49482203 9,2.03141101 C7.7761196,3.72774549 5.29850655,2 5.29850655,2 L4.22387941,2.97382068 L4.25373165,3.44502551 L1,6.74345517 L2.64178996,8 L2.64178996,8 L2.64178996,8 L2.64178996,8 Z M2.64178996,8" fill="#D20014" id="path3046" stroke="#D20014"/></g><g id="g3054" stroke-width="0.1" transform="translate(13.500000, 15.500000) rotate(-9.000008) translate(-13.500000, -15.500000) translate(9.000000, 12.000000)"><path d="M0.0158300657,4.71040038 L0,6 C0.393002866,5.83739117 4.45053945,2.21597348 4.45053945,2.21597348 L7.29225712,2.11840948 L8,1.22345504 C6.4532797,-1.61690848 3.91770032,1.37828994 3.91770032,1.37828994 L0.0158300657,4.71040038 L0.0158300657,4.71040038 L0.0158300657,4.71040038 L0.0158300657,4.71040038 Z M0.0158300657,4.71040038" fill="#0A328C" id="path3056" stroke="#0A328C"/><path d="M2.0644101,7 C2.10971453,5.90108886 4.23942937,2.96354079 4.53876247,2.87346826 C6.26490138,3.63773771 7.71187759,4.6244296 9,1.18299067 C7.63636946,2.80428617 4.86901277,1 4.86901277,1 L3.67167816,1.93074279 L3.71177376,2.53407258 L0,5.79581713 L2.0644101,7 L2.0644101,7 L2.0644101,7 L2.0644101,7 Z M2.0644101,7" fill="#D20014" id="path3058" stroke="#D20014"/></g><g id="g3060" stroke-width="0.1" transform="translate(8.146186, 25.978152) rotate(-16.999999) translate(-8.146186, -25.978152) translate(3.146186, 21.978152)"><path d="M0,5.34107185 L0.244753677,7 C0.661431638,6.82540687 5.12168532,2.43490014 5.12168532,2.43490014 L8.13459242,2.33014565 L9,1.24766405 C7.45004382,-1.76841546 4.70500736,1.63176848 4.70500736,1.63176848 L0,5.34107185 L0,5.34107185 L0,5.34107185 L0,5.34107185 Z M0,5.34107185" fill="#0A328C" id="path3062" stroke="#0A328C"/><path d="M3.07228156,8 C3.20341387,6.73178109 5.12161221,3.13934168 5.41930387,3.03775796 C7.0160512,4.14796423 8.44043721,4.76710342 10,1.03385824 C8.42685824,2.54658292 5.89846296,1 5.89846296,1 L4.70769414,2.04969099 L4.7407727,2.55760737 L1,6.56635811 L3.07228156,8 L3.07228156,8 L3.07228156,8 L3.07228156,8 Z M3.07228156,8" fill="#D20014" id="path3064" stroke="#D20014"/></g></g><path d="M49.8001515,65.3266058 L41.8096914,62.7674775 L38.3281344,56.6255652 L26,56 L26.4281481,60.606257 L36.9298938,62.682437 L37.9286122,64.5307816 L50,68 L49.8001515,65.3266058 L49.8001515,65.3266058 L49.8001515,65.3266058 L49.8001515,65.3266058 Z M49.8001515,65.3266058" fill="#F1B517" id="Cannon-base" stroke="#000000" stroke-width="0.1"/><g id="Cannon-Loader" stroke="#000000" stroke-width="0.1" transform="translate(25.000000, 46.000000)"><path d="M15,21.4310465 L2.60817339,2 L2,2.48767625 L14.2939113,22 L15,21.4310465 L15,21.4310465 L15,21.4310465 L15,21.4310465 Z M15,21.4310465" fill="#503200" id="path4136"/><path d="M4,3.03065795 L2.64195212,0.473022225 C2.38773277,0.000340537054 2.00165363,-0.156589654 1.43435292,0.179853529 C0.881985711,0.507440034 0.93567753,1.15482285 1.16066424,1.62179895 L2.41624408,4 L4,3.03065795 L4,3.03065795 L4,3.03065795 L4,3.03065795 Z M4,3.03065795" fill="#FFFFFF" id="path4138"/></g><g id="Cannn-main" stroke="#000000" stroke-width="0.1" transform="translate(16.000000, 52.000000)"><g fill="#F1B517" id="g4037"><path d="M26,3.89808797 L0.61708874,1 L0,5.14649499 L25.2594935,8 L26,3.89808797 L26,3.89808797 L26,3.89808797 L26,3.89808797 Z M26,3.89808797" id="path4012"/><path d="M0.7272702,0 L0,5 L1.18181755,5 L2,0.426357417 L0.7272702,0 L0.7272702,0 L0.7272702,0 L0.7272702,0 Z M0.7272702,0" id="path4006"/><path d="M4.24137901,1 L4,5.9152535 L4.5517242,6 L5,1.63559331 L4.24137901,1 L4.24137901,1 L4.24137901,1 L4.24137901,1 Z M4.24137901,1" id="path4008"/><path d="M21.7142842,3 L21,8 L22.4285707,7.95412687 L23,3 L21.7142842,3 L21.7142842,3 L21.7142842,3 L21.7142842,3 Z M21.7142842,3" id="path4010"/><path d="M25.8401254,3 L25,8.76670717 L26.3354232,9 L26.7178683,5.9671932 C26.8251937,6.57656807 27.2907606,7.03888447 27.846395,7.03888214 C28.4813994,7.03888214 29.000006,6.43584817 29,5.69744836 C29,4.95905322 28.4813934,4.36330265 27.846395,4.36330498 C27.4048692,4.36330498 27.0043034,4.6753668 26.830721,5.25672787 L27.0815047,3.09477521 L25.8401254,3 L25.8401254,3 L25.8401254,3 L25.8401254,3 Z M25.8401254,3" id="path4020"/></g><g id="g3987" transform="translate(5.000000, 2.000000)"><g fill="#F1B517" id="g3965"><g id="g3953" transform="translate(1.000000, 1.000000)"><g id="g3943"><path d="M11.5714283,2 L8,6.45859884 L8.41666774,7 L13,3.52866358 L11.5714283,2 L11.5714283,2 L11.5714283,2 L11.5714283,2 Z M11.5714283,2" id="path3891"/><path d="M2.42857174,13 L6,8.54140116 L5.58333226,8 L1,11.4713364 L2.42857174,13 L2.42857174,13 L2.42857174,13 L2.42857174,13 Z M2.42857174,13" id="use3897"/><path d="M12,11.6111111 L7.46584003,8 L7,8.33950667 L10.5714283,13 L12,11.6111111 L12,11.6111111 L12,11.6111111 L12,11.6111111 Z M12,11.6111111" id="path3909"/><path d="M1,2.57575905 L5.45783119,6 L6,5.57575642 L2.50602567,1 L1,2.57575905 L1,2.57575905 L1,2.57575905 L1,2.57575905 Z M1,2.57575905" id="path3911"/><path d="M6,0 L6.34969617,6 L6.84226999,5.9713229 L8,0.13054387 L6,0 L6,0 L6,0 L6,0 Z M6,0" id="path3927"/><path d="M8,14 L7.55020593,8.0684411 L6.8530196,8 L6,14 L8,14 L8,14 L8,14 L8,14 Z M8,14" id="path3929"/><path d="M14,6 L8.08988844,6.63736237 L8,7.20879062 L13.9775273,8 L14,6 L14,6 L14,6 L14,6 Z M14,6" id="path3931"/><path d="M0.0771342626,8 L5.87768565,7.10022882 L6,6.65780984 L0,6 L0.0771342626,8 L0.0771342626,8 L0.0771342626,8 L0.0771342626,8 Z M0.0771342626,8" id="path3933"/></g><path d="M8,7 C8,7.5522837 7.5522837,8 7,8 C6.4477163,8 6,7.5522837 6,7 C6,6.4477163 6.4477163,6 7,6 C7.5522837,6 8,6.4477163 8,7 C8,7 8,6.4477163 8,7 L8,7 L8,7 L8,7 L8,7 Z M8,7" id="use3882"/></g><path d="M16,7.9999989 C16,12.4160125 12.4159926,16 8.0000011,16 C3.58400737,16 0,12.4160125 0,7.9999989 C0,3.58400737 3.58400737,0 8.0000011,0 C12.4159926,0 16,3.58400737 16,7.9999989 C16,7.9999989 16,3.58400737 16,7.9999989 L16,7.9999989 L16,7.9999989 L16,7.9999989 L16,7.9999989 Z M15,8.5 C15,12.0880084 12.0879927,15 8.5,15 C4.91200503,15 2,12.0880084 2,8.5 C2,4.91200503 4.91200503,2 8.5,2 C12.0879927,2 15,4.91200503 15,8.5 C15,8.5 15,4.91200503 15,8.5 L15,8.5 L15,8.5 L15,8.5 L15,8.5 Z M15,8.5" id="use3874"/></g><path d="M3,4 L2,3" id="path3979"/><path d="M12,2 L13,1" id="path3981"/><path d="M14,12 L13,11" id="path3983"/><path d="M3,13 L4,12" id="path3985"/></g></g><g id="Axe" stroke="#000000" stroke-width="0.1" transform="translate(45.000000, 51.000000)"><path d="M3.81878947,2 L5,9.3780524 L4.03650909,10 L3,2.10551587 L3.81878947,2 L3.81878947,2 L3.81878947,2 L3.81878947,2 Z M3.81878947,2" fill="#F1B517" id="path4368"/><path d="M4.01036324,1.39387589 C3.34469947,1.15227042 2.47933427,1.56114076 1.0592508,0 C-1.27571296,1.85850118 0.92611573,2.13727791 1.28113718,3.97719346 C1.94141997,4.21277601 2.34817315,2.54953238 4.14349599,2.37888143 C4.36538469,2.3602958 7,2.15967553 7,2.15967553 L6.33863777,1.37707138 C6.33863777,1.37707138 4.50629072,1.41879225 4.01036324,1.39387589 C4.01036324,1.39387589 4.50629072,1.41879225 4.01036324,1.39387589 L4.01036324,1.39387589 L4.01036324,1.39387589 L4.01036324,1.39387589 L4.01036324,1.39387589 Z M4.01036324,1.39387589" fill="#FFFFFF" id="path4370"/><path d="M4,2.81030586 L3.82352959,0.39169008 C3.63235281,-0.46193728 3,0.27313154 3,0.77108083 L3.16176403,3 L4,2.81030586 L4,2.81030586 L4,2.81030586 L4,2.81030586 Z M4,2.81030586" fill="#FFFFFF" id="path4372"/></g><g fill="#F1B517" id="Cannon-balls" stroke="#000000" stroke-width="0.1" transform="translate(17.000000, 67.000000)"><path d="M18.9999991,4 C19.0004779,4.35710595 18.8099854,4.68729092 18.5003857,4.86598182 C18.1907882,5.04467273 17.8092118,5.04467273 17.4996143,4.86598182 C17.1900146,4.68729092 16.9995221,4.35710595 17.0000009,4 C16.9995221,3.64289405 17.1900146,3.31270908 17.4996143,3.13401818 C17.8092118,2.95532727 18.1907882,2.95532727 18.5003857,3.13401818 C18.8099854,3.31270908 19.0004779,3.64289405 18.9999991,4 C18.9999991,4 19.0004779,3.64289405 18.9999991,4 L18.9999991,4 L18.9999991,4 L18.9999991,4 L18.9999991,4 Z M18.9999991,4" id="path2448"/><path d="M7.9999991,1 C8.00047789,1.35710595 7.80998542,1.68729092 7.50038569,1.86598182 C7.19078825,2.04467273 6.80921175,2.04467273 6.49961431,1.86598182 C6.19001458,1.68729092 5.99952211,1.35710595 6.0000009,1 C5.99952211,0.64289405 6.19001458,0.31270908 6.49961431,0.13401818 C6.80921175,-0.044672726 7.19078825,-0.044672726 7.50038569,0.13401818 C7.80998542,0.31270908 8.00047789,0.64289405 7.9999991,1 C7.9999991,1 8.00047789,0.64289405 7.9999991,1 L7.9999991,1 L7.9999991,1 L7.9999991,1 L7.9999991,1 Z M7.9999991,1" id="path3220"/><path d="M4.9999991,1 C5.00047789,1.35710595 4.80998542,1.68729092 4.50038569,1.86598182 C4.19078825,2.04467273 3.80921175,2.04467273 3.49961431,1.86598182 C3.19001458,1.68729092 2.99952211,1.35710595 3.0000009,1 C2.99952211,0.64289405 3.19001458,0.31270908 3.49961431,0.13401818 C3.80921175,-0.044672726 4.19078825,-0.044672726 4.50038569,0.13401818 C4.80998542,0.31270908 5.00047789,0.64289405 4.9999991,1 C4.9999991,1 5.00047789,0.64289405 4.9999991,1 L4.9999991,1 L4.9999991,1 L4.9999991,1 L4.9999991,1 Z M4.9999991,1" id="path3222"/><path d="M8.9999991,2 C9.00047789,2.35710595 8.80998542,2.68729092 8.50038569,2.86598182 C8.19078825,3.04467273 7.80921175,3.04467273 7.49961431,2.86598182 C7.19001458,2.68729092 6.99952211,2.35710595 7.0000009,2 C6.99952211,1.64289405 7.19001458,1.31270908 7.49961431,1.13401818 C7.80921175,0.95532727 8.19078825,0.95532727 8.50038569,1.13401818 C8.80998542,1.31270908 9.00047789,1.64289405 8.9999991,2 C8.9999991,2 9.00047789,1.64289405 8.9999991,2 L8.9999991,2 L8.9999991,2 L8.9999991,2 L8.9999991,2 Z M8.9999991,2" id="path3224"/><path d="M5.9999991,2 C6.00047789,2.35710595 5.80998542,2.68729092 5.50038569,2.86598182 C5.19078825,3.04467273 4.80921175,3.04467273 4.49961431,2.86598182 C4.19001458,2.68729092 3.99952211,2.35710595 4.0000009,2 C3.99952211,1.64289405 4.19001458,1.31270908 4.49961431,1.13401818 C4.80921175,0.95532727 5.19078825,0.95532727 5.50038569,1.13401818 C5.80998542,1.31270908 6.00047789,1.64289405 5.9999991,2 C5.9999991,2 6.00047789,1.64289405 5.9999991,2 L5.9999991,2 L5.9999991,2 L5.9999991,2 L5.9999991,2 Z M5.9999991,2" id="path3226"/><path d="M3.9999991,2 C4.00047789,2.35710595 3.80998542,2.68729092 3.50038569,2.86598182 C3.19078825,3.04467273 2.80921175,3.04467273 2.49961431,2.86598182 C2.19001458,2.68729092 1.99952211,2.35710595 2.0000009,2 C1.99952211,1.64289405 2.19001458,1.31270908 2.49961431,1.13401818 C2.80921175,0.95532727 3.19078825,0.95532727 3.50038569,1.13401818 C3.80998542,1.31270908 4.00047789,1.64289405 3.9999991,2 C3.9999991,2 4.00047789,1.64289405 3.9999991,2 L3.9999991,2 L3.9999991,2 L3.9999991,2 L3.9999991,2 Z M3.9999991,2" id="path3228"/><path d="M14.9999991,4 C15.0004779,4.35710595 14.8099854,4.68729092 14.5003857,4.86598182 C14.1907882,5.04467273 13.8092118,5.04467273 13.4996143,4.86598182 C13.1900146,4.68729092 12.9995221,4.35710595 13.0000009,4 C12.9995221,3.64289405 13.1900146,3.31270908 13.4996143,3.13401818 C13.8092118,2.95532727 14.1907882,2.95532727 14.5003857,3.13401818 C14.8099854,3.31270908 15.0004779,3.64289405 14.9999991,4 C14.9999991,4 15.0004779,3.64289405 14.9999991,4 L14.9999991,4 L14.9999991,4 L14.9999991,4 L14.9999991,4 Z M14.9999991,4" id="path3230"/><path d="M2.9999991,4 C3.00047789,4.35710595 2.80998542,4.68729092 2.50038569,4.86598182 C2.19078825,5.04467273 1.80921175,5.04467273 1.49961431,4.86598182 C1.19001457,4.68729092 0.999522114,4.35710595 1.0000009,4 C0.999522114,3.64289405 1.19001457,3.31270908 1.49961431,3.13401818 C1.80921175,2.95532727 2.19078825,2.95532727 2.50038569,3.13401818 C2.80998542,3.31270908 3.00047789,3.64289405 2.9999991,4 C2.9999991,4 3.00047789,3.64289405 2.9999991,4 L2.9999991,4 L2.9999991,4 L2.9999991,4 L2.9999991,4 Z M2.9999991,4" id="path3232"/><path d="M7.9999991,4 C8.00047789,4.35710595 7.80998542,4.68729092 7.50038569,4.86598182 C7.19078825,5.04467273 6.80921175,5.04467273 6.49961431,4.86598182 C6.19001458,4.68729092 5.99952211,4.35710595 6.0000009,4 C5.99952211,3.64289405 6.19001458,3.31270908 6.49961431,3.13401818 C6.80921175,2.95532727 7.19078825,2.95532727 7.50038569,3.13401818 C7.80998542,3.31270908 8.00047789,3.64289405 7.9999991,4 C7.9999991,4 8.00047789,3.64289405 7.9999991,4 L7.9999991,4 L7.9999991,4 L7.9999991,4 L7.9999991,4 Z M7.9999991,4" id="path3234"/><path d="M4.9999991,4 C5.00047789,4.35710595 4.80998542,4.68729092 4.50038569,4.86598182 C4.19078825,5.04467273 3.80921175,5.04467273 3.49961431,4.86598182 C3.19001458,4.68729092 2.99952211,4.35710595 3.0000009,4 C2.99952211,3.64289405 3.19001458,3.31270908 3.49961431,3.13401818 C3.80921175,2.95532727 4.19078825,2.95532727 4.50038569,3.13401818 C4.80998542,3.31270908 5.00047789,3.64289405 4.9999991,4 C4.9999991,4 5.00047789,3.64289405 4.9999991,4 L4.9999991,4 L4.9999991,4 L4.9999991,4 L4.9999991,4 Z M4.9999991,4" id="path3236"/><path d="M9.9999991,4 C10.0004779,4.35710595 9.80998542,4.68729092 9.50038569,4.86598182 C9.19078825,5.04467273 8.80921175,5.04467273 8.49961431,4.86598182 C8.19001458,4.68729092 7.99952211,4.35710595 8.0000009,4 C7.99952211,3.64289405 8.19001458,3.31270908 8.49961431,3.13401818 C8.80921175,2.95532727 9.19078825,2.95532727 9.50038569,3.13401818 C9.80998542,3.31270908 10.0004779,3.64289405 9.9999991,4 C9.9999991,4 10.0004779,3.64289405 9.9999991,4 L9.9999991,4 L9.9999991,4 L9.9999991,4 L9.9999991,4 Z M9.9999991,4" id="path3238"/><path d="M16.9999991,2 C17.0004779,2.35710595 16.8099854,2.68729092 16.5003857,2.86598182 C16.1907882,3.04467273 15.8092118,3.04467273 15.4996143,2.86598182 C15.1900146,2.68729092 14.9995221,2.35710595 15.0000009,2 C14.9995221,1.64289405 15.1900146,1.31270908 15.4996143,1.13401818 C15.8092118,0.95532727 16.1907882,0.95532727 16.5003857,1.13401818 C16.8099854,1.31270908 17.0004779,1.64289405 16.9999991,2 C16.9999991,2 17.0004779,1.64289405 16.9999991,2 L16.9999991,2 L16.9999991,2 L16.9999991,2 L16.9999991,2 Z M16.9999991,2" id="path3240"/></g><g id="Gunpowder" stroke="#000000" stroke-width="0.1" transform="translate(34.000000, 64.000000)"><path d="M1.5981934,1.04111502 C0.88372958,0.699735763 0.890628205,2.59640119 0.890628205,2.59640119 L2.01635864,2.61027397 C2.50875769,2.87456851 2.90484942,3.72862612 2.59088369,4.14782814 C2.33129081,4.49443081 0.146630754,3.56245997 0,4.09848896 C0.3861957,6.67535119 3.27439032,7.66687711 4.31947677,6.53960896 C5.34162346,5.43708657 5.60045863,2.49458023 2.27917018,1.72372354 L1.5981934,1.04111502 L1.5981934,1.04111502 L1.5981934,1.04111502 L1.5981934,1.04111502 Z M1.5981934,1.04111502" fill="#FFFFFF" id="path3256"/><path d="M2.35721612,2 L2,3" id="path3258"/></g><g id="Small-flag" stroke-width="0.1" transform="translate(0.000000, 55.000000)"><path d="M14,11 L13,6" id="path3418" stroke="#000000"/><path d="M16,11 L14,7" id="path3420" stroke="#000000"/><path d="M19,9 L15,7" id="path3422" stroke="#000000"/><path d="M20,9 L13,6" id="path3424" stroke="#000000"/><path d="M9,2.76175323 C9,2.76175323 6.41790816,2.72393751 5.95741718,2.89156693 C5.7716082,2.95920503 6.60688052,3.76888681 6.43346733,4.07843257 C5.78836456,5.22995034 1.39902721,5.07215801 1.05203041,4.8202224 C0.458368339,4.38919603 5.14017296,4.01940812 5.17089934,3.72608192 C5.2061695,3.38938206 4.47853963,2.50598127 4.59136067,1.96432869 C4.73774129,1.26155511 6.64044649,1 6.64044649,1 L9,2.76175323 L9,2.76175323 L9,2.76175323 L9,2.76175323 Z M9,2.76175323" fill="#D20014" id="path3430" stroke="#D20014"/><path d="M12,5.35343996 L6.51589388,0.1436672 C6.51589388,0.1436672 6.27429403,-0.150254516 6.07217507,0.10271365 C5.87426101,0.3504182 6.14612854,0.63510754 6.14612854,0.63510754 L11.8035469,6 L12,5.35343996 L12,5.35343996 L12,5.35343996 L12,5.35343996 Z M12,5.35343996" fill="#503200" id="path3426" stroke="#000000"/><path d="M18,9.7826079 C17.8923084,9.673913 13.0461542,5.28260958 13.0461542,5.28260958 L12.7230771,4 C12.7230771,4 11.9746158,4.53043511 11.6999989,4.80434607 C11.4253842,5.07825926 11,5.82608647 11,5.82608647 L12.356922,5.89130432 L16.643078,10 L18,9.7826079 L18,9.7826079 L18,9.7826079 L18,9.7826079 Z M18,9.7826079" fill="#F1B517" id="path3428" stroke="#000000"/></g><path d="M43.6605312,59.0036045 L43.6801755,60.9521071 C43.1218779,61.1704241 43.2070453,61.6484739 43.2250542,62.3431174 L43.2446985,68.022642 C43.0465928,68.3997353 42.4342665,68.4172966 42.1461123,68.7127158 C41.85796,69.008135 41.8939798,69.5814121 43.2086788,69.9585053 L44.2253433,70 C45.7741678,69.6129837 46.0938386,69.0270737 45.3171747,68.6966941 C44.9040316,68.5209501 44.3604159,68.3113113 44.1533057,68.0334535 L44.18769,66.6803334 L45.1928853,66.7218302 C45.4630287,66.7218302 45.9770849,65.9460743 45.9950938,65.3109716 L46,62.3701727 C45.9639802,60.7030278 44.8687617,60.5154987 44.5625986,60.5353449 L44.5838783,59 L43.6605312,59.0036045 L43.6605312,59.0036045 L43.6605312,59.0036045 L43.6605312,59.0036045 Z M45.9777786,61.8592415 C46,61.4110327 45.2633346,61.0113794 44.9666667,61.0001733 C44.6700012,60.9889693 44.0222214,61.5230849 44,61.9712937 L44,63.0918177 C44.0444452,63.5026771 44.4211952,64.8943679 45.1777772,64.996709 C45.5361767,65.0451881 46,64.5485002 46,64.1376408 L45.9777786,61.8592415 L45.9777786,61.8592415 L45.9777786,61.8592415 L45.9777786,61.8592415 Z M45.9777786,61.8592415" fill="#F1B517" id="Trumpet" stroke="#000000" stroke-width="0.1"/><g id="Palm-leaves" stroke="#000000" stroke-width="0.1" transform="translate(31.000000, 0.000000)"><path d="M22,5.29098669 C13.3924044,-3.31565812 6.61392495,0.88396972 5,2.07645666 C6.06685491,2.28458644 7.02443105,1.62076156 7.52000023,1.54434507 C7.2094243,1.93595179 6.5601256,2.90601281 6.5601256,2.90601281 C6.5601256,2.90601281 9.2216455,1.65074832 9.518987,1.76537315 C9.1353558,2.0710395 8.71202553,2.80231824 8.71202553,2.80231824 C8.91025321,2.87873492 10.4070226,1.63152017 10.7025315,1.6098313 C10.2466079,2.12564334 10.1050882,3.30168671 10.1050882,3.30168671 L11.4018984,2.69862367 C11.7388854,2.93742562 11.3082247,3.39659228 11.6012331,3.37256585 C13.7566601,3.19582325 16.787346,5.34090667 17.2036241,6" fill="#016A16" id="path3811"/><path d="M21,7.37698449 C20.0844687,5.009525 3.36262998,0.98563956 0,7.68849225 C1.31607654,8.06230173 2.57493264,6.442461 2.57493264,6.442461 L2.46048964,7.93769849 L4.69209751,6.00635 L3.89100918,8 L5.66484928,6.38015949 L5.60762883,8 L7.78201625,5.32103276 L7.49591403,6.87857199 L9.4414176,5.9440485 L9.2125337,7.25238125" fill="#016A16" id="path3813"/><path d="M20,7.7616987 C15.7006381,4.5499001 9.0509561,6.71168768 9.0509561,6.71168768 C4.80891879,9.3675981 2.54781661,8.88846211 2,13.8147041 C2.40127411,13.629408 3.54776977,12.0852741 3.54776977,12.0852741 L4.40764257,14 L4.69426754,11.2823243 L5.38216452,13.3823465 L6.41401314,9.9234863 L6.64331143,12.27057 L8.24840788,9.9234863 L8.99362943,10.6029053 L9.6815285,8.81170995 L10.3121009,9.9852518 C10.3121009,9.9852518 11.4012741,9.2440673 12.0318465,9.6764248 L13.2356689,8.13229096 L13.5222917,9.2440675 L14.5541403,7.88522953 L14.9554145,8.87347525 L15.987261,7.82346423 L15.9299364,8.56464852 L19.4840746,8.62641382" fill="#016A16" id="path3815"/><path d="M18.5637839,8.00078999 C15.6220472,7.93885116 7.18257641,11.5290275 5,15.2866522 C5.86911916,14.7393012 6.40506546,14.4900044 6.40506546,14.4900044 L6.8356799,16 L7.36184666,14.4900044 L7.47440866,15.6532933 C7.79705082,14.7448565 8.16155299,14.6423382 8.76887795,15.5920676 L8.99400197,14.1838758 L9.3316901,15.5308419 L9.8945022,14.0614244 C9.8945022,14.0614244 10.2485481,15.6540064 10.4573163,15.5920676 C10.4573163,15.5920676 11.3905302,12.8383359 11.8080666,12.7144582 L11.9206286,14.4287787 L12.4834407,12.7144582 L12.9899718,14.0001985 L13.1025359,12.1634267 L13.665348,13.5716186 C13.665348,13.5716186 13.9604891,12.1869255 14.3970052,11.9185238 L15.2412223,12.7756839 L19,9.7303558" fill="#016A16" id="path2477"/><path d="M18.7624465,9 C15.0662711,10.6896408 11.760489,16.736032 12.0136525,19.299625 C13.6560604,16.8686139 13.3023279,17.2033536 14.0364996,20 C14.0364996,20 14.3142344,17.5530807 14.592713,17.2617624 L15.0747771,19.0730334 L15.2537893,16.7041189 L15.7468675,16.7312885 L15.6202848,15.2455691 L16.3544565,15.915599 C16.182984,15.0660921 16.0000291,14.7794614 16.7595177,14.0511678 C16.7595177,14.0511678 15.7974994,14.1968263 16.5569881,12.128473 L17.2658428,12.9441618 C17.2658428,12.9441618 17.1392601,12.041078 17.3924236,11.6914971 L20,10.6136228" fill="#016A16" id="path2479"/><g id="g2485" transform="translate(16.000000, 9.000000)"><path d="M3.34969188,0 L1.91410908,2.99029137 L2.65030611,3.22330112 L0.99386379,4.58252444 L2.39263735,4.42718467 C2.39263735,4.42718467 0.25766876,5.28155264 0,7.57281496 L2.17177784,6.52427245 C2.17177784,6.52427245 0.33128726,8.58252523 0.0736185,9.8252438 L1.32515305,8.62135959 C1.32515305,8.62135959 0.11042976,10.058252 0.29447801,12.23301 L1.2147233,11.1067967 C0.99386379,13.7475733 1.06748429,13.9805816 2.17177784,16 C2.17177784,16 1.87729983,12.8932047 2.20858909,12.5048548 L4.63803569,15.2621366 L3.27607339,11.3398071 C3.27607339,11.3398071 4.78527469,13.8252441 5.70551998,13.5922338 L3.79141091,10.4077676 L5.66871073,12.0776705 L3.53374215,8.58252523 L5.52147173,9.2427199 C5.52147173,9.2427199 4.08588892,7.26213585 4.19631867,6.01941774 L5.55828098,7.65048579 C5.55828098,7.65048579 5.04294346,5.78640798 5.19018246,5.2427187 L5.88957024,5.39805846 L4.52760593,3.68932063 L5.44785122,3.49514566 L5.33742347,2.3689321 L6,2.13592235 L5.96318874,0.89320381" fill="#016A16" id="path2481"/><path d="M5,1 C2.21739041,4.60000028 3.65217518,10.1599997 2,13" id="path2483"/></g></g><g fill="#F1B517" id="Chain" stroke="#000000" stroke-width="0.1" transform="translate(38.000000, 70.000000)"><path d="M0.81249803,0.945108277 C0.81249803,0.624818935 0,0.762577499 0,0.387772908 C0,-0.0286960009 1.23913017,0.277442613 1.4103208,0.643847535 C2.10764736,0.0406253211 2.40827569,0.48155257 2.83545622,0.663791075 C3.44379486,-0.201859523 4.19596713,-0.169520707 4.92997347,0.464364746 C5.35436877,0.0161796886 6.42016778,0.164342078 6.78696751,0.663791075 C7.48960115,-0.00321561344 8.11357406,0.161123446 8.60077568,0.643847535 C8.79675037,0.293169073 9.0843665,0.369893432 9.2917495,0.623905809 C9.6661187,-0.0119130013 10.6047935,0.1789648 10.9998898,0.598663234 C11.351181,0.229021526 11.7110246,0.517703642 12.177279,0.790768219 C12.4921244,0.508717612 13,0.561887679 13,0.842315355 C13,1.13467539 12.3363557,1.03175358 12.3363557,1.32189887 C12.3363557,1.58075463 12.8204773,1.44987628 12.8204773,1.77729817 C12.8204773,2.03504656 12.1019145,2.1316727 11.9908688,1.72075153 C11.7475117,2.16573611 10.8683489,1.99487991 10.7816647,1.58115401 C10.4891719,1.91918849 9.8333801,2.02205584 9.4644929,1.5213252 C9.161555,1.75727112 8.79903438,1.79104407 8.63259063,1.55282895 C8.08595956,2.11544157 7.16455044,1.99982313 6.84715371,1.37960552 L6.53692744,1.39222772 C5.999969,2.09021533 5.16076654,1.76775119 4.92997347,1.38172586 C4.02856418,2.00429981 3.49005097,1.8082319 2.98660575,1.4016694 C2.40822262,2.07631876 1.52691536,2.02923196 1.32394908,1.4016694 C0.93472792,1.67318185 0.12267018,1.73708614 0.12267018,1.41949079 C0.12267018,1.1151984 0.81249803,1.22582641 0.81249803,0.945108277 C0.81249803,0.945108277 0.81249803,1.22582641 0.81249803,0.945108277 L0.81249803,0.945108277 L0.81249803,0.945108277 L0.81249803,0.945108277 L0.81249803,0.945108277 Z M3,1.49999827 C3,1.7760003 2.77600022,2 2.5,2 C2.22399978,2 2,1.7760003 2,1.49999827 C2,1.2239997 2.22399978,1 2.5,1 C2.77600022,1 3,1.2239997 3,1.49999827 C3,1.49999827 3,1.2239997 3,1.49999827 L3,1.49999827 L3,1.49999827 L3,1.49999827 L3,1.49999827 Z M4,1.49999713 C4,1.77600014 3.77600023,2 3.5,2 C3.22399977,2 3,1.77600014 3,1.49999713 C3,1.22399986 3.22399977,1 3.5,1 C3.77600023,1 4,1.22399986 4,1.49999713 C4,1.49999713 4,1.22399986 4,1.49999713 L4,1.49999713 L4,1.49999713 L4,1.49999713 L4,1.49999713 Z M8,1.49999716 C8,1.77599875 7.77599983,2 7.49999902,2 C7.22400017,2 7,1.77599875 7,1.49999716 C7,1.22399841 7.22400017,1 7.49999902,1 C7.77599983,1 8,1.22399841 8,1.49999716 C8,1.49999716 8,1.22399841 8,1.49999716 L8,1.49999716 L8,1.49999716 L8,1.49999716 L8,1.49999716 Z M6,1.49999663 C6,1.77600031 5.77599897,2 5.499999,2 C5.22399902,2 5,1.77600031 5,1.49999663 C5,1.22399969 5.22399902,1 5.499999,1 C5.77599897,1 6,1.22399969 6,1.49999663 C6,1.49999663 6,1.22399969 6,1.49999663 L6,1.49999663 L6,1.49999663 L6,1.49999663 L6,1.49999663 Z M11,1.49999749 C11,1.77600038 10.7760011,2 10.5000011,2 C10.2239989,2 10,1.77600038 10,1.49999749 C10,1.22399962 10.2239989,1 10.5000011,1 C10.7760011,1 11,1.22399962 11,1.49999749 C11,1.49999749 11,1.22399962 11,1.49999749 L11,1.49999749 L11,1.49999749 L11,1.49999749 L11,1.49999749 Z M10,1.23354783 C10,1.36246741 9.7759987,1.46709566 9.5,1.46709566 C9.2239979,1.46709566 9,1.36246741 9,1.23354783 C9,1.10463007 9.2239979,1 9.5,1 C9.7759987,1 10,1.10463007 10,1.23354783 C10,1.23354783 10,1.10463007 10,1.23354783 L10,1.23354783 L10,1.23354783 L10,1.23354783 L10,1.23354783 Z M12,1.5 C12,1.77599976 11.775999,2 11.4999985,2 C11.2239979,2 11,1.77599976 11,1.5 C11,1.22400024 11.2239979,1 11.4999985,1 C11.775999,1 12,1.22400024 12,1.5 C12,1.5 12,1.22400024 12,1.5 L12,1.5 L12,1.5 L12,1.5 L12,1.5 Z M12,1.5" id="path2500"/></g></g><g id="use3466" transform="translate(80.500000, 37.500000) scale(-1, 1) translate(-80.500000, -37.500000) translate(54.000000, 1.000000)"><g id="g3357"><g id="Pikes" stroke="#000000" stroke-width="0.1" transform="translate(37.000000, 23.000000)"><path d="M6.65868116,15.2773726 L4,9.2554759 L5.14969991,9 L10,19 L6.65868116,15.2773726 L6.65868116,15.2773726 L6.65868116,15.2773726 L6.65868116,15.2773726 Z M6.65868116,15.2773726" fill="#F1B517" id="path2976"/><path d="M0,2 L3.3064525,11 L5,11 L0,2 L0,2 L0,2 L0,2 Z M0,2" fill="#FFFFFF" id="path2970"/><path d="M10,8.0372101 L11.4137917,8 L14,20.1674414 L13.4482771,24 L10,8.0372101 L10,8.0372101 L10,8.0372101 L10,8.0372101 Z M10,8.0372101" fill="#F1B517" id="path2980"/><path d="M10.5463925,20.2027981 L6,7.11188645 L7.6958771,7 L13,23 L10.5463925,20.2027981 L10.5463925,20.2027981 L10.5463925,20.2027981 L10.5463925,20.2027981 Z M10.5463925,20.2027981" fill="#F1B517" id="path2978"/><path d="M4,0 L5.65957528,9 L7,9 L4,0 L4,0 L4,0 L4,0 Z M4,0" fill="#FFFFFF" id="path2972"/><path d="M8,0 L8.96551744,10 L10,9.9206354 L8,0 L8,0 L8,0 L8,0 Z M8,0" fill="#FFFFFF" id="path2974"/></g><g id="Flags" transform="translate(10.000000, 18.000000)"><path d="M35,21.414798 L22.2870509,7 C18.3164535,10.2655233 19.054141,16.2616717 19.054141,16.2616717 L33.4584604,28 L35,21.414798 L35,21.414798 L35,21.414798 L35,21.414798 Z M35,21.414798" fill="#0A328C" id="path3038" stroke="#000000" stroke-width="0.1"/><path d="M42,29.9022213 L32.9266666,20 C29.0906642,20.1434218 32.1344949,26.3133827 32.3276735,27.0878614 L42,36 L42,29.9022213 L42,29.9022213 L42,29.9022213 L42,29.9022213 Z M42,29.9022213" fill="#D20014" id="path3019" stroke="#000000" stroke-width="0.1"/><g fill="#F1B517" id="g2996" stroke="#000000" stroke-width="0.1" transform="translate(16.000000, 0.000000)"><path d="M24.6365565,28.2464355 L5.73756357,6 L5,6.57279126 L25,31 L24.6365565,28.2464355 L24.6365565,28.2464355 L24.6365565,28.2464355 L24.6365565,28.2464355 Z M24.6365565,28.2464355" id="path2990"/><path d="M4,4.22413807 L3.61164948,3.70689748 L3.65048547,2.67241422 L0,0 L1.63106654,4.22413807 L2.87378632,4.48275941 L3.26213496,5 L4,4.22413807 L4,4.22413807 L4,4.22413807 L4,4.22413807 Z M4,4.22413807" id="path2992"/><path d="M2,5.68181786 C2.67368372,4.77272665 3.47368453,3.86363764 4.90526269,3 L6,4.77272665 L3.64210597,7 L2,5.68181786 L2,5.68181786 L2,5.68181786 L2,5.68181786 Z M2,5.68181786" id="path2994"/></g><path d="M29,26.4334803 L13.3226821,13 C10.6386374,15.9466194 12.8701996,25.0447597 12.8701996,25.0447597 L28.1931101,34 L29,26.4334803 L29,26.4334803 L29,26.4334803 L29,26.4334803 Z M29,26.4334803" fill="#0A328C" id="path3042" stroke="#000000" stroke-width="0.1"/><path d="M42.9537305,36.8745144 L29.3433382,26 C24.6952368,26.6505982 28.3492254,33.4735242 28.6263648,34.2251965 L43,42 L42.9537305,36.8745144 L42.9537305,36.8745144 L42.9537305,36.8745144 L42.9537305,36.8745144 Z M42.9537305,36.8745144" fill="#D20014" id="path3034" stroke="#000000" stroke-width="0.1"/><g fill="#F1B517" id="g3003" stroke="#000000" stroke-width="0.5" transform="translate(25.000000, 22.000000) rotate(-10.000007) translate(-25.000000, -22.000000) translate(10.000000, 4.000000)"><path d="M5.11884703,6.62736028 L1.12587785,1.2 L1,1.31326215 L5.16666667,7.2 L5.11884703,6.62736028 L5.11884703,6.62736028 L5.11884703,6.62736028 L5.11884703,6.62736028 Z M5.11884703,6.62736028" id="path3005"/><path d="M0.833333333,0.844827614 L0.768608247,0.741379496 L0.775080912,0.534482844 L0.166666667,0 L0.43851109,0.844827614 L0.645631053,0.896551882 L0.710355827,1 L0.833333333,0.844827614 L0.833333333,0.844827614 L0.833333333,0.844827614 L0.833333333,0.844827614 Z M0.833333333,0.844827614" id="path3007"/><path d="M0.5,1.13636357 C0.61228062,0.95454533 0.745614088,0.772727528 0.984210448,0.6 L1.16666667,0.95454533 L0.773684328,1.4 L0.5,1.13636357 L0.5,1.13636357 L0.5,1.13636357 L0.5,1.13636357 Z M0.5,1.13636357" id="path3009"/></g><path d="M28,34.5075306 C27.7906697,34.4524677 7.6638176,22 7.6638176,22 C6.19851392,24.6981717 7.52370935,28.6125228 8.16606158,29.221315 C8.20328329,31.0178623 7.50434908,31.9840208 8.94206524,35.7360752 C9.3660901,38.175608 10.4009958,40.4231415 11.9074541,41.7580948 C13.7427471,49.4439518 20.93746,49.9601725 23.708752,43.7033444 L28,34.5075306 L28,34.5075306 L28,34.5075306 L28,34.5075306 Z M28,34.5075306" fill="#0A328C" id="path3044" stroke="#000000" stroke-width="0.1"/><path d="M42,42.4772276 L27.9715228,34 C23.4592848,34.6528359 28.0671565,43.284669 28.3361951,44.0389267 L41.8817332,49 L42,42.4772276 L42,42.4772276 L42,42.4772276 L42,42.4772276 Z M42,42.4772276" fill="#D20014" id="path3036" stroke="#000000" stroke-width="0.1"/><g fill="#F1B517" id="g3011" stroke="#000000" stroke-width="0.1" transform="translate(21.000000, 30.000000) rotate(-19.000000) translate(-21.000000, -30.000000) translate(6.000000, 12.000000)"><path d="M29.7130822,33.1368014 L5.75526711,6 L5,6.56631073 L30,36 L29.7130822,33.1368014 L29.7130822,33.1368014 L29.7130822,33.1368014 L29.7130822,33.1368014 Z M29.7130822,33.1368014" id="path3013"/><path d="M4,4.22413807 L3.61164948,3.70689748 L3.65048547,2.67241422 L0,0 L1.63106654,4.22413807 L2.87378632,4.48275941 L3.26213496,5 L4,4.22413807 L4,4.22413807 L4,4.22413807 L4,4.22413807 Z M4,4.22413807" id="path3015"/><path d="M2,5.68181786 C2.67368372,4.77272665 3.47368453,3.86363764 4.90526269,3 L6,4.77272665 L3.64210597,7 L2,5.68181786 L2,5.68181786 L2,5.68181786 L2,5.68181786 Z M2,5.68181786" id="path3017"/></g><g id="g3050" stroke-width="0.1" transform="translate(16.000000, 5.000000)"><path d="M0,5.8222298 L0.66083887,7 C1.0699294,6.84503062 5.19230689,3.03277059 5.19230689,3.03277059 L8.15035092,2.9397902 L9,1.97897631 C6.82867109,-0.407559615 4.78321636,2.31990854 4.78321636,2.31990854 L0,5.8222298 L0,5.8222298 L0,5.8222298 L0,5.8222298 Z M0,5.8222298" fill="#0A328C" id="path3048" stroke="#0A328C"/><path d="M2.64178996,8 C2.79104324,6.93193794 4.64179096,4.26177861 4.91044724,4.16753722 C6.29999896,4.62251182 7.59254923,5.49482203 9,2.03141101 C7.7761196,3.72774549 5.29850655,2 5.29850655,2 L4.22387941,2.97382068 L4.25373165,3.44502551 L1,6.74345517 L2.64178996,8 L2.64178996,8 L2.64178996,8 L2.64178996,8 Z M2.64178996,8" fill="#D20014" id="path3046" stroke="#D20014"/></g><g id="g3054" stroke-width="0.1" transform="translate(13.506156, 15.078217) rotate(-9.000008) translate(-13.506156, -15.078217) translate(9.006156, 11.078217)"><path d="M0.0158300657,4.71040038 L0,6 C0.393002866,5.83739117 4.45053945,2.21597348 4.45053945,2.21597348 L7.29225712,2.11840948 L8,1.22345504 C6.4532797,-1.61690848 3.91770032,1.37828994 3.91770032,1.37828994 L0.0158300657,4.71040038 L0.0158300657,4.71040038 L0.0158300657,4.71040038 L0.0158300657,4.71040038 Z M0.0158300657,4.71040038" fill="#0A328C" id="path3056" stroke="#0A328C"/><path d="M2.0644101,8 C2.10971453,6.717937 4.23942937,3.29079759 4.53876247,3.18571298 C6.26490138,4.07736066 7.71187759,5.2285012 9,1.21348911 C7.63636946,3.10500053 4.86901277,1 4.86901277,1 L3.67167816,2.08586659 L3.71177376,2.78975134 L0,6.59511998 L2.0644101,8 L2.0644101,8 L2.0644101,8 L2.0644101,8 Z M2.0644101,8" fill="#D20014" id="path3058" stroke="#D20014"/></g><g id="g3060" stroke-width="0.1" transform="translate(8.668033, 26.124338) rotate(-16.999999) translate(-8.668033, -26.124338) translate(4.168033, 22.124338)"><path d="M0,5.34107185 L0.244753677,7 C0.661431638,6.82540687 5.12168532,2.43490014 5.12168532,2.43490014 L8.13459242,2.33014565 L9,1.24766405 C7.45004382,-1.76841546 4.70500736,1.63176848 4.70500736,1.63176848 L0,5.34107185 L0,5.34107185 L0,5.34107185 L0,5.34107185 Z M0,5.34107185" fill="#0A328C" id="path3062" stroke="#0A328C"/><path d="M2.07228156,8 C2.20341387,6.73178109 4.12161221,3.13934168 4.41930387,3.03775796 C6.0160512,4.14796423 7.44043721,4.76710342 9,1.03385824 C7.42685824,2.54658292 4.89846296,1 4.89846296,1 L3.70769414,2.04969099 L3.7407727,2.55760737 L0,6.56635811 L2.07228156,8 L2.07228156,8 L2.07228156,8 L2.07228156,8 Z M2.07228156,8" fill="#D20014" id="path3064" stroke="#D20014"/></g></g><path d="M48.8001515,65.3266058 L40.8096914,62.7674775 L37.3281344,56.6255652 L25,56 L25.4281481,60.606257 L35.9298938,62.682437 L36.9286122,64.5307816 L49,68 L48.8001515,65.3266058 L48.8001515,65.3266058 L48.8001515,65.3266058 L48.8001515,65.3266058 Z M48.8001515,65.3266058" fill="#F1B517" id="Cannon-base" stroke="#000000" stroke-width="0.1"/><g id="Cannon-Loader" stroke="#000000" stroke-width="0.1" transform="translate(25.000000, 45.000000)"><path d="M15,21.4310465 L2.60817339,2 L2,2.48767625 L14.2939113,22 L15,21.4310465 L15,21.4310465 L15,21.4310465 L15,21.4310465 Z M15,21.4310465" fill="#503200" id="path4136"/><path d="M4,3.03065795 L2.64195212,0.473022225 C2.38773277,0.000340537054 2.00165363,-0.156589654 1.43435292,0.179853529 C0.881985711,0.507440034 0.93567753,1.15482285 1.16066424,1.62179895 L2.41624408,4 L4,3.03065795 L4,3.03065795 L4,3.03065795 L4,3.03065795 Z M4,3.03065795" fill="#FFFFFF" id="path4138"/></g><g id="Cannn-main" stroke="#000000" stroke-width="0.1" transform="translate(16.000000, 51.000000)"><g fill="#F1B517" id="g4037"><path d="M26,3.89808797 L0.61708874,1 L0,5.14649499 L25.2594935,8 L26,3.89808797 L26,3.89808797 L26,3.89808797 L26,3.89808797 Z M26,3.89808797" id="path4012"/><path d="M0.7272702,0 L0,5 L1.18181755,5 L2,0.426357417 L0.7272702,0 L0.7272702,0 L0.7272702,0 L0.7272702,0 Z M0.7272702,0" id="path4006"/><path d="M4.24137901,1 L4,5.9152535 L4.5517242,6 L5,1.63559331 L4.24137901,1 L4.24137901,1 L4.24137901,1 L4.24137901,1 Z M4.24137901,1" id="path4008"/><path d="M21.7142842,3 L21,8 L22.4285707,7.95412687 L23,3 L21.7142842,3 L21.7142842,3 L21.7142842,3 L21.7142842,3 Z M21.7142842,3" id="path4010"/><path d="M25.8401254,3 L25,8.76670717 L26.3354232,9 L26.7178683,5.9671932 C26.8251937,6.57656807 27.2907606,7.03888447 27.846395,7.03888214 C28.4813994,7.03888214 29.000006,6.43584817 29,5.69744836 C29,4.95905322 28.4813934,4.36330265 27.846395,4.36330498 C27.4048692,4.36330498 27.0043034,4.6753668 26.830721,5.25672787 L27.0815047,3.09477521 L25.8401254,3 L25.8401254,3 L25.8401254,3 L25.8401254,3 Z M25.8401254,3" id="path4020"/></g><g id="g3987" transform="translate(4.000000, 2.000000)"><g fill="#F1B517" id="g3965"><g id="g3953" transform="translate(1.000000, 1.000000)"><g id="g3943"><path d="M11.5714283,2 L8,6.45859884 L8.41666774,7 L13,3.52866358 L11.5714283,2 L11.5714283,2 L11.5714283,2 L11.5714283,2 Z M11.5714283,2" id="path3891"/><path d="M2.42857174,13 L6,8.54140116 L5.58333226,8 L1,11.4713364 L2.42857174,13 L2.42857174,13 L2.42857174,13 L2.42857174,13 Z M2.42857174,13" id="use3897"/><path d="M12,11.6111111 L7.46584003,8 L7,8.33950667 L10.5714283,13 L12,11.6111111 L12,11.6111111 L12,11.6111111 L12,11.6111111 Z M12,11.6111111" id="path3909"/><path d="M1,2.57575905 L5.45783119,6 L6,5.57575642 L2.50602567,1 L1,2.57575905 L1,2.57575905 L1,2.57575905 L1,2.57575905 Z M1,2.57575905" id="path3911"/><path d="M6,0 L6.34969617,6 L6.84226999,5.9713229 L8,0.13054387 L6,0 L6,0 L6,0 L6,0 Z M6,0" id="path3927"/><path d="M8,14 L7.55020593,8.0684411 L6.8530196,8 L6,14 L8,14 L8,14 L8,14 L8,14 Z M8,14" id="path3929"/><path d="M14,6 L8.08988844,6.63736237 L8,7.20879062 L13.9775273,8 L14,6 L14,6 L14,6 L14,6 Z M14,6" id="path3931"/><path d="M0.0771342626,8 L5.87768565,7.10022882 L6,6.65780984 L0,6 L0.0771342626,8 L0.0771342626,8 L0.0771342626,8 L0.0771342626,8 Z M0.0771342626,8" id="path3933"/></g><path d="M8,7 C8,7.5522837 7.5522837,8 7,8 C6.4477163,8 6,7.5522837 6,7 C6,6.4477163 6.4477163,6 7,6 C7.5522837,6 8,6.4477163 8,7 C8,7 8,6.4477163 8,7 L8,7 L8,7 L8,7 L8,7 Z M8,7" id="use3882"/></g><path d="M16,7.9999989 C16,12.4160125 12.4159926,16 8.0000011,16 C3.58400737,16 0,12.4160125 0,7.9999989 C0,3.58400737 3.58400737,0 8.0000011,0 C12.4159926,0 16,3.58400737 16,7.9999989 C16,7.9999989 16,3.58400737 16,7.9999989 L16,7.9999989 L16,7.9999989 L16,7.9999989 L16,7.9999989 Z M15,8.5 C15,12.0880084 12.0879927,15 8.5,15 C4.91200503,15 2,12.0880084 2,8.5 C2,4.91200503 4.91200503,2 8.5,2 C12.0879927,2 15,4.91200503 15,8.5 C15,8.5 15,4.91200503 15,8.5 L15,8.5 L15,8.5 L15,8.5 L15,8.5 Z M15,8.5" id="use3874"/></g><path d="M3,4 L2,3" id="path3979"/><path d="M12,2 L13,1" id="path3981"/><path d="M14,12 L13,11" id="path3983"/><path d="M3,13 L4,12" id="path3985"/></g></g><g id="Axe" stroke="#000000" stroke-width="0.1" transform="translate(45.000000, 50.000000)"><path d="M3.81878947,2 L5,9.3780524 L4.03650909,10 L3,2.10551587 L3.81878947,2 L3.81878947,2 L3.81878947,2 L3.81878947,2 Z M3.81878947,2" fill="#F1B517" id="path4368"/><path d="M4.01036324,1.39387589 C3.34469947,1.15227042 2.47933427,1.56114076 1.0592508,0 C-1.27571296,1.85850118 0.92611573,2.13727791 1.28113718,3.97719346 C1.94141997,4.21277601 2.34817315,2.54953238 4.14349599,2.37888143 C4.36538469,2.3602958 7,2.15967553 7,2.15967553 L6.33863777,1.37707138 C6.33863777,1.37707138 4.50629072,1.41879225 4.01036324,1.39387589 C4.01036324,1.39387589 4.50629072,1.41879225 4.01036324,1.39387589 L4.01036324,1.39387589 L4.01036324,1.39387589 L4.01036324,1.39387589 L4.01036324,1.39387589 Z M4.01036324,1.39387589" fill="#FFFFFF" id="path4370"/><path d="M4,2.81030586 L3.82352959,0.39169008 C3.63235281,-0.46193728 3,0.27313154 3,0.77108083 L3.16176403,3 L4,2.81030586 L4,2.81030586 L4,2.81030586 L4,2.81030586 Z M4,2.81030586" fill="#FFFFFF" id="path4372"/></g><g id="Gunpowder" stroke="#000000" stroke-width="0.1" transform="translate(34.000000, 64.000000)"><path d="M1.5981934,1.04111502 C0.88372958,0.699735763 0.890628205,2.59640119 0.890628205,2.59640119 L2.01635864,2.61027397 C2.50875769,2.87456851 2.90484942,3.72862612 2.59088369,4.14782814 C2.33129081,4.49443081 0.146630754,3.56245997 0,4.09848896 C0.3861957,6.67535119 3.27439032,7.66687711 4.31947677,6.53960896 C5.34162346,5.43708657 5.60045863,2.49458023 2.27917018,1.72372354 L1.5981934,1.04111502 L1.5981934,1.04111502 L1.5981934,1.04111502 L1.5981934,1.04111502 Z M1.5981934,1.04111502" fill="#FFFFFF" id="path3256"/><path d="M2.35721612,2 L2,3" id="path3258"/></g><g id="Small-flag" stroke-width="0.1" transform="translate(0.000000, 55.000000)"><path d="M14,11 L13,6" id="path3418" stroke="#000000"/><path d="M16,11 L14,7" id="path3420" stroke="#000000"/><path d="M19,9 L15,7" id="path3422" stroke="#000000"/><path d="M20,9 L13,6" id="path3424" stroke="#000000"/><path d="M9,2.76175323 C9,2.76175323 6.41790816,2.72393751 5.95741718,2.89156693 C5.7716082,2.95920503 6.60688052,3.76888681 6.43346733,4.07843257 C5.78836456,5.22995034 1.39902721,5.07215801 1.05203041,4.8202224 C0.458368339,4.38919603 5.14017296,4.01940812 5.17089934,3.72608192 C5.2061695,3.38938206 4.47853963,2.50598127 4.59136067,1.96432869 C4.73774129,1.26155511 6.64044649,1 6.64044649,1 L9,2.76175323 L9,2.76175323 L9,2.76175323 L9,2.76175323 Z M9,2.76175323" fill="#D20014" id="path3430" stroke="#D20014"/><path d="M12,5.35343996 L6.51589388,0.1436672 C6.51589388,0.1436672 6.27429403,-0.150254516 6.07217507,0.10271365 C5.87426101,0.3504182 6.14612854,0.63510754 6.14612854,0.63510754 L11.8035469,6 L12,5.35343996 L12,5.35343996 L12,5.35343996 L12,5.35343996 Z M12,5.35343996" fill="#503200" id="path3426" stroke="#000000"/><path d="M18,9.7826079 C17.8923084,9.673913 13.0461542,5.28260958 13.0461542,5.28260958 L12.7230771,4 C12.7230771,4 11.9746158,4.53043511 11.6999989,4.80434607 C11.4253842,5.07825926 11,5.82608647 11,5.82608647 L12.356922,5.89130432 L16.643078,10 L18,9.7826079 L18,9.7826079 L18,9.7826079 L18,9.7826079 Z M18,9.7826079" fill="#F1B517" id="path3428" stroke="#000000"/></g><path d="M42.6605312,59.0036045 L42.6801755,60.9521071 C42.1218779,61.1704241 42.2070453,61.6484739 42.2250542,62.3431174 L42.2446985,68.022642 C42.0465928,68.3997353 41.4342665,68.4172966 41.1461123,68.7127158 C40.85796,69.008135 40.8939798,69.5814121 42.2086788,69.9585053 L43.2253433,70 C44.7741678,69.6129837 45.0938386,69.0270737 44.3171747,68.6966941 C43.9040316,68.5209501 43.3604159,68.3113113 43.1533057,68.0334535 L43.18769,66.6803334 L44.1928853,66.7218302 C44.4630287,66.7218302 44.9770849,65.9460743 44.9950938,65.3109716 L45,62.3701727 C44.9639802,60.7030278 43.8687617,60.5154987 43.5625986,60.5353449 L43.5838783,59 L42.6605312,59.0036045 L42.6605312,59.0036045 L42.6605312,59.0036045 L42.6605312,59.0036045 Z M44.9777786,61.8592415 C45,61.4110327 44.2633346,61.0113794 43.9666667,61.0001733 C43.6700012,60.9889693 43.0222214,61.5230849 43,61.9712937 L43,63.0918177 C43.0444452,63.5026771 43.4211952,64.8943679 44.1777772,64.996709 C44.5361767,65.0451881 45,64.5485002 45,64.1376408 L44.9777786,61.8592415 L44.9777786,61.8592415 L44.9777786,61.8592415 L44.9777786,61.8592415 Z M44.9777786,61.8592415" fill="#F1B517" id="Trumpet" stroke="#000000" stroke-width="0.1"/><g id="Palm-leaves" stroke="#000000" stroke-width="0.1" transform="translate(31.000000, 0.000000)"><path d="M22,5.29098669 C13.3924044,-3.31565812 6.61392495,0.88396972 5,2.07645666 C6.06685491,2.28458644 7.02443105,1.62076156 7.52000023,1.54434507 C7.2094243,1.93595179 6.5601256,2.90601281 6.5601256,2.90601281 C6.5601256,2.90601281 9.2216455,1.65074832 9.518987,1.76537315 C9.1353558,2.0710395 8.71202553,2.80231824 8.71202553,2.80231824 C8.91025321,2.87873492 10.4070226,1.63152017 10.7025315,1.6098313 C10.2466079,2.12564334 10.1050882,3.30168671 10.1050882,3.30168671 L11.4018984,2.69862367 C11.7388854,2.93742562 11.3082247,3.39659228 11.6012331,3.37256585 C13.7566601,3.19582325 16.787346,5.34090667 17.2036241,6" fill="#016A16" id="path3811"/><path d="M21,7.37698449 C20.0844687,5.009525 3.36262998,0.98563956 0,7.68849225 C1.31607654,8.06230173 2.57493264,6.442461 2.57493264,6.442461 L2.46048964,7.93769849 L4.69209751,6.00635 L3.89100918,8 L5.66484928,6.38015949 L5.60762883,8 L7.78201625,5.32103276 L7.49591403,6.87857199 L9.4414176,5.9440485 L9.2125337,7.25238125" fill="#016A16" id="path3813"/><path d="M20,7.7616987 C15.7006381,4.5499001 9.0509561,6.71168768 9.0509561,6.71168768 C4.80891879,9.3675981 2.54781661,8.88846211 2,13.8147041 C2.40127411,13.629408 3.54776977,12.0852741 3.54776977,12.0852741 L4.40764257,14 L4.69426754,11.2823243 L5.38216452,13.3823465 L6.41401314,9.9234863 L6.64331143,12.27057 L8.24840788,9.9234863 L8.99362943,10.6029053 L9.6815285,8.81170995 L10.3121009,9.9852518 C10.3121009,9.9852518 11.4012741,9.2440673 12.0318465,9.6764248 L13.2356689,8.13229096 L13.5222917,9.2440675 L14.5541403,7.88522953 L14.9554145,8.87347525 L15.987261,7.82346423 L15.9299364,8.56464852 L19.4840746,8.62641382" fill="#016A16" id="path3815"/><path d="M18.5637839,8.00078999 C15.6220472,7.93885116 7.18257641,11.5290275 5,15.2866522 C5.86911916,14.7393012 6.40506546,14.4900044 6.40506546,14.4900044 L6.8356799,16 L7.36184666,14.4900044 L7.47440866,15.6532933 C7.79705082,14.7448565 8.16155299,14.6423382 8.76887795,15.5920676 L8.99400197,14.1838758 L9.3316901,15.5308419 L9.8945022,14.0614244 C9.8945022,14.0614244 10.2485481,15.6540064 10.4573163,15.5920676 C10.4573163,15.5920676 11.3905302,12.8383359 11.8080666,12.7144582 L11.9206286,14.4287787 L12.4834407,12.7144582 L12.9899718,14.0001985 L13.1025359,12.1634267 L13.665348,13.5716186 C13.665348,13.5716186 13.9604891,12.1869255 14.3970052,11.9185238 L15.2412223,12.7756839 L19,9.7303558" fill="#016A16" id="path2477"/><path d="M18.7624465,9 C15.0662711,10.6896408 11.760489,16.736032 12.0136525,19.299625 C13.6560604,16.8686139 13.3023279,17.2033536 14.0364996,20 C14.0364996,20 14.3142344,17.5530807 14.592713,17.2617624 L15.0747771,19.0730334 L15.2537893,16.7041189 L15.7468675,16.7312885 L15.6202848,15.2455691 L16.3544565,15.915599 C16.182984,15.0660921 16.0000291,14.7794614 16.7595177,14.0511678 C16.7595177,14.0511678 15.7974994,14.1968263 16.5569881,12.128473 L17.2658428,12.9441618 C17.2658428,12.9441618 17.1392601,12.041078 17.3924236,11.6914971 L20,10.6136228" fill="#016A16" id="path2479"/><g id="g2485" transform="translate(16.000000, 9.000000)"><path d="M3.34969188,0 L1.91410908,2.99029137 L2.65030611,3.22330112 L0.99386379,4.58252444 L2.39263735,4.42718467 C2.39263735,4.42718467 0.25766876,5.28155264 0,7.57281496 L2.17177784,6.52427245 C2.17177784,6.52427245 0.33128726,8.58252523 0.0736185,9.8252438 L1.32515305,8.62135959 C1.32515305,8.62135959 0.11042976,10.058252 0.29447801,12.23301 L1.2147233,11.1067967 C0.99386379,13.7475733 1.06748429,13.9805816 2.17177784,16 C2.17177784,16 1.87729983,12.8932047 2.20858909,12.5048548 L4.63803569,15.2621366 L3.27607339,11.3398071 C3.27607339,11.3398071 4.78527469,13.8252441 5.70551998,13.5922338 L3.79141091,10.4077676 L5.66871073,12.0776705 L3.53374215,8.58252523 L5.52147173,9.2427199 C5.52147173,9.2427199 4.08588892,7.26213585 4.19631867,6.01941774 L5.55828098,7.65048579 C5.55828098,7.65048579 5.04294346,5.78640798 5.19018246,5.2427187 L5.88957024,5.39805846 L4.52760593,3.68932063 L5.44785122,3.49514566 L5.33742347,2.3689321 L6,2.13592235 L5.96318874,0.89320381" fill="#016A16" id="path2481"/><path d="M5,1 C2.21739041,4.60000028 3.65217518,10.1599997 2,13" id="path2483"/></g></g><g fill="#F1B517" id="Chain" stroke="#000000" stroke-width="0.1" transform="translate(37.000000, 70.000000)"><path d="M0.81249803,0.945108277 C0.81249803,0.624818935 0,0.762577499 0,0.387772908 C0,-0.0286960009 1.23913017,0.277442613 1.4103208,0.643847535 C2.10764736,0.0406253211 2.40827569,0.48155257 2.83545622,0.663791075 C3.44379486,-0.201859523 4.19596713,-0.169520707 4.92997347,0.464364746 C5.35436877,0.0161796886 6.42016778,0.164342078 6.78696751,0.663791075 C7.48960115,-0.00321561344 8.11357406,0.161123446 8.60077568,0.643847535 C8.79675037,0.293169073 9.0843665,0.369893432 9.2917495,0.623905809 C9.6661187,-0.0119130013 10.6047935,0.1789648 10.9998898,0.598663234 C11.351181,0.229021526 11.7110246,0.517703642 12.177279,0.790768219 C12.4921244,0.508717612 13,0.561887679 13,0.842315355 C13,1.13467539 12.3363557,1.03175358 12.3363557,1.32189887 C12.3363557,1.58075463 12.8204773,1.44987628 12.8204773,1.77729817 C12.8204773,2.03504656 12.1019145,2.1316727 11.9908688,1.72075153 C11.7475117,2.16573611 10.8683489,1.99487991 10.7816647,1.58115401 C10.4891719,1.91918849 9.8333801,2.02205584 9.4644929,1.5213252 C9.161555,1.75727112 8.79903438,1.79104407 8.63259063,1.55282895 C8.08595956,2.11544157 7.16455044,1.99982313 6.84715371,1.37960552 L6.53692744,1.39222772 C5.999969,2.09021533 5.16076654,1.76775119 4.92997347,1.38172586 C4.02856418,2.00429981 3.49005097,1.8082319 2.98660575,1.4016694 C2.40822262,2.07631876 1.52691536,2.02923196 1.32394908,1.4016694 C0.93472792,1.67318185 0.12267018,1.73708614 0.12267018,1.41949079 C0.12267018,1.1151984 0.81249803,1.22582641 0.81249803,0.945108277 C0.81249803,0.945108277 0.81249803,1.22582641 0.81249803,0.945108277 L0.81249803,0.945108277 L0.81249803,0.945108277 L0.81249803,0.945108277 L0.81249803,0.945108277 Z M3,1.49999827 C3,1.7760003 2.77600022,2 2.5,2 C2.22399978,2 2,1.7760003 2,1.49999827 C2,1.2239997 2.22399978,1 2.5,1 C2.77600022,1 3,1.2239997 3,1.49999827 C3,1.49999827 3,1.2239997 3,1.49999827 L3,1.49999827 L3,1.49999827 L3,1.49999827 L3,1.49999827 Z M4,1.49999713 C4,1.77600014 3.77600023,2 3.5,2 C3.22399977,2 3,1.77600014 3,1.49999713 C3,1.22399986 3.22399977,1 3.5,1 C3.77600023,1 4,1.22399986 4,1.49999713 C4,1.49999713 4,1.22399986 4,1.49999713 L4,1.49999713 L4,1.49999713 L4,1.49999713 L4,1.49999713 Z M8,1.49999716 C8,1.77599875 7.77599983,2 7.49999902,2 C7.22400017,2 7,1.77599875 7,1.49999716 C7,1.22399841 7.22400017,1 7.49999902,1 C7.77599983,1 8,1.22399841 8,1.49999716 C8,1.49999716 8,1.22399841 8,1.49999716 L8,1.49999716 L8,1.49999716 L8,1.49999716 L8,1.49999716 Z M6,1.49999663 C6,1.77600031 5.77599897,2 5.499999,2 C5.22399902,2 5,1.77600031 5,1.49999663 C5,1.22399969 5.22399902,1 5.499999,1 C5.77599897,1 6,1.22399969 6,1.49999663 C6,1.49999663 6,1.22399969 6,1.49999663 L6,1.49999663 L6,1.49999663 L6,1.49999663 L6,1.49999663 Z M11,1.49999749 C11,1.77600038 10.7760011,2 10.5000011,2 C10.2239989,2 10,1.77600038 10,1.49999749 C10,1.22399962 10.2239989,1 10.5000011,1 C10.7760011,1 11,1.22399962 11,1.49999749 C11,1.49999749 11,1.22399962 11,1.49999749 L11,1.49999749 L11,1.49999749 L11,1.49999749 L11,1.49999749 Z M10,1.23354783 C10,1.36246741 9.7759987,1.46709566 9.5,1.46709566 C9.2239979,1.46709566 9,1.36246741 9,1.23354783 C9,1.10463007 9.2239979,1 9.5,1 C9.7759987,1 10,1.10463007 10,1.23354783 C10,1.23354783 10,1.10463007 10,1.23354783 L10,1.23354783 L10,1.23354783 L10,1.23354783 L10,1.23354783 Z M12,1.5 C12,1.77599976 11.775999,2 11.4999985,2 C11.2239979,2 11,1.77599976 11,1.5 C11,1.22400024 11.2239979,1 11.4999985,1 C11.775999,1 12,1.22400024 12,1.5 C12,1.5 12,1.22400024 12,1.5 L12,1.5 L12,1.5 L12,1.5 L12,1.5 Z M12,1.5" id="path2500"/></g></g></g></g><g id="Palm-trunk" stroke="#000000" stroke-width="0.1" transform="translate(51.000000, 26.000000)"><path d="M5.48006244,37 C5.48006244,37 7.00366843,25.4917855 6.99999336,20.5382509 C6.99709763,16.6400159 5.95672556,8 5.95672556,8 L1.57681591,8 C1.57681591,8 0.91027404,16.5969523 1.01021123,20.4850593 C1.13756847,25.4399909 2.53014215,37 2.53014215,37 L5.48006244,37 L5.48006244,37 L5.48006244,37 L5.48006244,37 Z M5.48006244,37" fill="#F1B517" id="path3304"/><path d="M1,8 L6,8 L5.41299349,5 L1.78875955,5 L1,8 L1,8 L1,8 L1,8 Z M1,8" fill="#F1B517" id="path3306"/><path d="M1,6 L5,6 L4.24601633,3 L1.78226623,3 L1,6 L1,6 L1,6 L1,6 Z M1,6" fill="#F1B517" id="path3310"/><path d="M2,3 L6,3 L5.32376005,0 L2.77872095,0 L2,3 L2,3 L2,3 L2,3 Z M2,3" fill="#F1B517" id="path3312"/><path d="M4.79285714,0 L2.25714286,0 L2,1 L5,1 L4.79285714,0 L4.79285714,0 L4.79285714,0 L4.79285714,0 Z M4.79285714,0" fill="#F1B517" id="path3314"/><path d="M5,34 L2,34" id="path3316"/><path d="M5,32 L2,32" id="path3318"/><path d="M5,29 L1,29" id="path3320"/><path d="M6,27 L1,27" id="path3322"/><path d="M6,24 L1,24" id="path3324"/><path d="M6,22 L1,22" id="path3327"/><path d="M7,20 L1,20" id="path3329"/><path d="M7,17 L1,17" id="path3331"/><path d="M6,15 L1,15" id="path3333"/><path d="M6,12 L1,12" id="path3335"/><path d="M5,10 L1,10" id="path3337"/></g><g id="Drum" stroke-width="0.1" transform="translate(47.000000, 63.000000)"><path d="M6,0 C3.23978135,0 1.00000204,1.00387291 1,2.23546945 C1,2.44667517 1.06209962,2.64983082 1.18518519,2.84351714 C1.78211596,3.5124955 3.72027791,4 6.01915709,4 C8.16956935,4.00000191 10.0022253,3.57170551 10.7190294,2.96870343 C10.8996945,2.73820042 11,2.49336942 11,2.23546945 C11,1.00386909 8.76021865,0 6,0 L6,0 L6,0 L6,0 L6,0 Z M6,0" fill="#0A328C" id="path2539" stroke="#0A328C"/><path d="M11,2 L11,10.2480311 C11,11.2151192 8.75999919,12 5.99999898,12 C3.23999878,12 1,11.2151192 1,10.2480311 L1,2 C1,2.96708594 3.23999878,3.75196886 5.99999898,3.75196886 C8.75999919,3.75196886 11,2.96708594 11,2 C11,2 11,2.96708594 11,2 L11,2 L11,2 L11,2 L11,2 Z M11,2" fill="#F1B517" id="path2499" stroke="#000000"/><path d="M1,2 L1,3.19793103 L3.42693774,10.7765517 L5.36467598,4.94827586 L7.49301144,11 L9.05033596,5.28793909 L11,9.1279086 L11,7.00275862 L9.18932656,3.27862069 C8.98621601,3.33463768 8.76963659,3.38266417 8.54129606,3.42758621 L7.41677255,7.64827586 L5.83481576,3.65724138 C5.56989682,3.65434152 5.30633799,3.64850406 5.05336722,3.63241379 L3.46505718,7.64827586 L1.6480305,2.81310345 C1.23737332,2.57212292 1,2.29646124 1,2 C1,2 1,2.29646124 1,2 L1,2 L1,2 L1,2 L1,2 Z M1,2" fill="#D20014" id="path3288" stroke="#D20014"/><g id="g3851" transform="translate(1.000000, 9.000000)"><path d="M10,0 L10,1.40340985 C10,2.28472873 7.75999919,3 4.99999898,3 C2.23999878,3 0,2.28472873 0,1.40340985 L0,0 C0,0.88131697 2.23999878,1.59659015 4.99999898,1.59659015 C7.75999919,1.59659015 10,0.88131697 10,0 C10,0 10,0.88131697 10,0 L10,0 L10,0 L10,0 L10,0 Z M10,0" fill="#0A328C" id="use3284" stroke="#0A328C"/><path d="M6.99029126,1 C6.67970951,1.0770675 6.34817864,1.1348125 6,1.1640625 L6.00970874,3 C6.35798524,2.9702475 6.68953476,2.9135425 7,2.8359375 L6.99029126,1 L6.99029126,1 L6.99029126,1 L6.99029126,1 Z M6.99029126,1" fill="#F1B517" id="use2504" stroke="#000000"/><path d="M2.00980392,1 L2,2.68345324 C2.29768784,2.81299108 2.63251608,2.92058014 3,3 L3,1.30935252 C2.63684235,1.23086734 2.30492078,1.12749122 2.00980392,1 C2.00980392,1 2.30492078,1.12749122 2.00980392,1 L2.00980392,1 L2.00980392,1 L2.00980392,1 L2.00980392,1 Z M2.00980392,1" fill="#F1B517" id="use2509" stroke="#000000"/><path d="M0,0 L0,1.32022472 C0,1.56652584 0.35062505,1.7947991 0.95604396,2 L1,0.696629213 C0.36465582,0.487537978 0,0.252738876 0,0 C0,0 0,0.252738876 0,0 L0,0 L0,0 L0,0 L0,0 Z M0,0" fill="#F1B517" id="use2514" stroke="#000000"/><path d="M11,0 L10.9727891,0.00549450549 C10.8790269,0.267672967 10.5293758,0.510821978 10,0.714285714 L10.0068027,2 C10.6277116,1.76005802 11,1.47035956 11,1.15384615 L11,0 C11,0 11,0.219461978 11,0 L11,0 L11,0 L11,0 L11,0 Z M11,0" fill="#F1B517" id="use2519" stroke="#000000"/></g><path d="M11,2 L11,10.2385448 C11,11.2108693 8.75999919,12 5.99999898,12 C3.23999878,12 1,11.2108693 1,10.2385448 L1,2" id="use3847" stroke="#000000"/><path d="M9,2 C9,3.10456874 6.98528071,4 4.500001,4 C2.01471929,4 0,3.10456874 0,2 C0,0.89543126 2.01471929,0 4.500001,0 C6.98528071,0 9,0.89543126 9,2 C9,2 9,0.89543126 9,2 L9,2 L9,2 L9,2 L9,2 Z M9,2" fill="#FFFFFF" id="use3273" stroke="#FFFFFF"/><path d="M5,2 L5.11688312,2.96956522 C5.34561385,2.98690087 5.5833129,2.99917078 5.82683983,3 L6,2 L5,2 L5,2 L5,2 L5,2 Z M5,2" fill="#F1B517" id="use2541" stroke="#000000"/><path d="M9.98742138,2 L9,2.34645669 L9.06289308,4 C9.39866164,3.92619591 9.71458616,3.83555276 10,3.73228346 L9.98742138,2 L9.98742138,2 L9.98742138,2 L9.98742138,2 Z M9.98742138,2" fill="#F1B517" id="use2546" stroke="#000000"/><path d="M4,0 C3.64083097,0.06323091 3.30490065,0.13683741 3,0.21816953 L3.17741935,1 L3.98387097,0.84681714 L4,0 L4,0 L4,0 L4,0 Z M4,0" fill="#F1B517" id="use2551" stroke="#000000"/><path d="M6.34636872,0 C6.22938101,0 6.11467978,0.00574953 6,0.0093922 L6.18994413,1 L6.77094972,0.9906078 L7,0.02348049 C6.7863705,0.01052677 6.56890994,0 6.34636872,0 L6.34636872,0 L6.34636872,0 L6.34636872,0 L6.34636872,0 Z M6.34636872,0" fill="#F1B517" id="use2556" stroke="#000000"/><path d="M9.15909091,0 L9,0.80877333 L9.90151515,1 L10,0.20614035 C9.74397818,0.13036491 9.46235636,0.06130526 9.15909091,0 C9.15909091,0 9.46235636,0.06130526 9.15909091,0 L9.15909091,0 L9.15909091,0 L9.15909091,0 L9.15909091,0 Z M9.15909091,0" fill="#F1B517" id="use2561" stroke="#000000"/><path d="M1.80297073,3 L2,1.56448705 L1,1 L1.02973914,2.63364728 L1.80297073,3 L1.80297073,3 L1.80297073,3 L1.80297073,3 Z M1.80297073,3" fill="#F1B517" id="path3858" stroke="#000000"/><path d="M11.9523784,2 L12,1 L11,1.20312517 L11.9523784,2 L11.9523784,2 L11.9523784,2 L11.9523784,2 Z M11.9523784,2" fill="#F1B517" id="path3866" stroke="#000000"/></g><g id="Mortar" stroke-width="0.1" transform="translate(36.000000, 29.000000)"><g id="g3619"><g fill="#016A16" id="use3617" stroke="#FFFFFF" transform="translate(2.500000, 1.000000) scale(1, -1) translate(-2.500000, -1.000000) "><path d="M4.88888889,0 C4.57219333,0.62842057 3.62129111,1.08571429 2.5,1.08571429 C1.37870667,1.085712 0.434751111,0.62842057 0.118055556,0 C0.0449711111,0.14501943 0,0.29733029 0,0.45714286 C0,1.30947657 1.11994667,1.99999771 2.5,2 C3.88005111,2 5,1.30947657 5,0.45714286 C5,0.29733029 4.96197333,0.14501943 4.88888889,0 C4.88888889,0 4.96197333,0.14501943 4.88888889,0 L4.88888889,0 L4.88888889,0 L4.88888889,0 L4.88888889,0 Z M4.88888889,0" id="use3602"/></g><path d="M4,26.351718 C4,26.7095695 3.10399937,27 2,27 C0.895998435,27 0,26.7095695 0,26.351718 L0,26 L4,26 L4,26.351718 L4,26.351718 L4,26.351718 L4,26.351718 Z M4,26.351718" fill="#016A16" id="path3595" stroke="#FFFFFF"/><path d="M4.99999935,27 C5.00076214,27.552135 4.32896593,28 3.5,28 C2.67103407,28 1.99923786,27.552135 2.00000065,27 C1.99923786,26.447865 2.67103407,26 3.5,26 C4.32896593,26 5.00076214,26.447865 4.99999935,27 C4.99999935,27 5.00076214,26.447865 4.99999935,27 L4.99999935,27 L4.99999935,27 L4.99999935,27 L4.99999935,27 Z M4.99999935,27" fill="#FFFFFF" id="path3600" stroke="#000000"/><path d="M2.44897827,28 L2,24 L4,24 L3.67346741,28 L2.44897827,28 L2.44897827,28 L2.44897827,28 L2.44897827,28 Z M2.44897827,28" fill="#016A16" id="path3598" stroke="#F1B517"/><path d="M4.88888889,26 C4.57219333,26.6284206 3.62129111,27.0857143 2.5,27.0857143 C1.37870667,27.085712 0.434751111,26.6284206 0.118055556,26 C0.0449711111,26.1450194 0,26.2973303 0,26.4571429 C0,27.3094766 1.11994667,27.9999977 2.5,28 C3.88005111,28 5,27.3094766 5,26.4571429 C5,26.2973303 4.96197333,26.1450194 4.88888889,26 C4.88888889,26 4.96197333,26.1450194 4.88888889,26 L4.88888889,26 L4.88888889,26 L4.88888889,26 L4.88888889,26 Z M4.88888889,26" fill="#016A16" id="use3602" stroke="#FFFFFF"/></g><g fill="#F1B517" id="g3626" stroke="#000000" transform="translate(0.000000, 31.000000)"><path d="M0.0745257453,3.59817352 L4.33604336,4 L5,0.47488584 L0,0" id="path3628"/><path d="M1.71428415,0 L1,4 L2.42857073,3.9633015 L3,0 L1.71428415,0 L1.71428415,0 L1.71428415,0 L1.71428415,0 Z M1.71428415,0" id="path3634"/></g></g><g id="Helmet" stroke-width="0.1" transform="translate(66.000000, 55.000000)"><path d="M4.20514061,1.01078791 C5.29129742,0.855243754 6.90139407,2.40237619 6.99811144,4.31610492 C7.07485772,5.83464515 4.78701024,5.75489204 4.78701024,5.75489204 C4.67063778,6.37706867 3.40898278,6.95277992 2.38194926,6.9992453 C1.38557488,7.04432421 2.65348907,5.05494089 2.65348907,5.05494089 C2.03282943,3.34395272 2.84744643,1.32187623 2.84744643,1.32187623 L4.20514061,1.01078791 L4.20514061,1.01078791 L4.20514061,1.01078791 L4.20514061,1.01078791 Z M4.20514061,1.01078791" fill="#F1B517" id="path3655" stroke="#000000"/><path d="M2,5.06658165 L2.94186019,5 C2.94186019,5 3.01395551,5.96092368 3.18604697,5.99875815 C3.3711489,6.03945064 3.56976843,5.06658165 3.56976843,5.06658165 L5,5" id="path3657" stroke="#000000"/><path d="M4.60129525,1.80751836 C5.4850041,1.21078723 4.71043659,0.0101240178 4.09979865,0 L2.67246439,0.0347588374 C1.99978873,0.0477296908 0.862564969,0.730105482 1.01366831,1.32087939 C1.14542838,1.83602374 1.51561212,2.07094321 2.09381466,1.98131908 C2.35638721,1.94061826 2.90781809,1.29727265 3.173961,1.28611837 C3.53102843,1.27115451 4.31525066,2.0006719 4.60129525,1.80751836 C4.60129525,1.80751836 4.31525066,2.0006719 4.60129525,1.80751836 L4.60129525,1.80751836 L4.60129525,1.80751836 L4.60129525,1.80751836 L4.60129525,1.80751836 Z M4.60129525,1.80751836" fill="#D20014" id="path3659" stroke="#F1B517"/></g><g id="Hat-on-pole" stroke-width="0.1" transform="translate(52.000000, 1.000000)"><path d="M2.43826066,6.68493097 C1.5397242,6.29227909 -0.493108249,5.09375124 0.109959309,4.37830566 L1.04127791,2.90599153 C2.36065158,0.146160513 1.01728784,1.21541591 0.876927851,0.353980397 C0.74214362,-0.473230447 5.92205897,0.17275282 5.99919227,2.04714153 C6.02043937,2.56345848 5.61497735,2.26044546 5.67049216,5.21261684 L4.68438941,6.97939384 C3.94683861,7.04321762 3.07347195,6.96251208 2.43826066,6.68493097 C2.43826066,6.68493097 3.07347195,6.96251208 2.43826066,6.68493097 L2.43826066,6.68493097 L2.43826066,6.68493097 L2.43826066,6.68493097 L2.43826066,6.68493097 Z M2.43826066,6.68493097" fill="#0A328C" id="path3710" stroke="#0A328C"/><path d="M3.59321876,13 L2,12.0586736 L2.44067842,4 L4,4.32142848 L3.59321876,13 L3.59321876,13 L3.59321876,13 L3.59321876,13 Z M3.59321876,13" fill="#F1B517" id="path3708" stroke="#000000"/><path d="M4.10677669,7 C4.80319955,6.57630269 5.25906905,5.31274634 4.83839192,4.5621302 C3.69550886,3.05678456 2.95580192,3.67793444 1.03872435,3 C0.656401819,3.42330676 -0.148634898,4.23785648 0.0239074782,4.8461537 C2.5459709,6.08044239 1.56670612,5.02917904 2.40118588,5.18294344 C2.85103,5.26583352 3.14172312,5.82028682 4.10677669,7 C4.10677669,7 3.14172312,5.82028682 4.10677669,7 L4.10677669,7 L4.10677669,7 L4.10677669,7 L4.10677669,7 Z M4.10677669,7" fill="#D20014" id="path3712" stroke="#D20014"/></g><path d="M13.4926758,73.0030998 C12.8189422,73.0920386 12.6941211,73.9016253 12.9467773,74.6448806 C10.0120828,75.5054936 7.39032283,76.6271317 4.80273438,77.3854407 C4.6985863,76.8458429 6.08496094,75.2837037 6.08496094,75.2837058 C6.45170333,75.4682496 6.72607402,76.3441577 6.72607422,76.3441556 C6.81775977,74.5448518 8.51611308,73.3480634 8.51611328,73.3480654 C7.50757166,73.2096581 4.4394963,74.4504099 4.07275391,74.9579049 C4.07275391,74.9579049 5.26047616,74.8194996 5.44384766,74.9579049 C5.44384766,74.9579049 3.10498739,77.5922729 3,78.3756198 C3.36381272,79.2316087 7.39892537,79.8704687 7.39892578,79.8704707 C7.33524487,80.0920664 6.21191386,80.9309206 6.21191406,80.9309206 C7.81682561,81.2986447 10.2372696,80.1127296 10.9599609,79.3913518 C10.9599609,79.3913518 9.07213953,79.228986 7.60205078,77.9859364 C7.60205078,77.9859364 7.90519534,78.7599247 7.72265625,79.1294335 C7.72265625,79.1294335 5.42922144,78.4396617 5.18994141,78.0434307 C5.19602845,78.0091242 10.6150358,76.5451965 13.2387695,75.7628247 C13.3359449,76.2518091 13.8569053,77.1756566 14.4829102,76.9574278 C14.8912586,76.8150751 14.7618916,75.9708854 14.6098633,75.3731413 C14.7575246,75.5054016 14.9490343,75.5839516 15.1621094,75.5839536 C15.6234201,75.5839536 16.0000004,75.2113519 16,74.7470926 C16,74.2828312 15.6234199,73.9038433 15.1621094,73.9038433 C14.7931948,73.9038433 14.4857147,74.1448143 14.375,74.478786 C14.270533,73.9628442 13.9979758,72.9363962 13.4926758,73.0030998 C13.4926758,73.0030998 13.9979758,72.9363962 13.4926758,73.0030998 L13.4926758,73.0030998 L13.4926758,73.0030998 L13.4926758,73.0030998 L13.4926758,73.0030998 Z M16,74.4999987 C16,74.7759987 15.7760001,75 15.5000001,75 C15.2239999,75 15,74.7759987 15,74.4999987 C15,74.2239987 15.2239999,74 15.5000001,74 C15.7760001,74 16,74.2239987 16,74.4999987 C16,74.4999987 16,74.2239987 16,74.4999987 L16,74.4999987 L16,74.4999987 L16,74.4999987 L16,74.4999987 Z M16,74.4999987" fill="#F1B517" id="Anchor-left" stroke="#000000" stroke-width="0.1"/><g fill="#F1B517" id="Anchor-right" stroke="#000000" stroke-width="0.1" transform="translate(91.000000, 70.000000)"><path d="M10.4374809,6.89713128 C10.6401491,6.44305092 10.2582274,4.15747084 10.2582274,4.15747084 C9.84517942,4.20874956 9.28101134,5.00117876 9.28101134,5.00117876 C9.81370104,3.12908357 8.32271366,0 8.32271366,0 C9.33140188,0.235960292 12.6932284,3.87489576 12.8677941,4.53046248 C12.8677941,4.53046248 11.3955747,3.94315702 11.1731519,4.01592222 C11.4132716,5.88099819 12.5667176,6.74772353 13,7.71732182 C13,7.71732182 11.0883664,8.18673379 11.2804622,9.97409623 L10.0318376,10 C9.59962209,9.40421326 10.1999214,8.41986551 10.1999214,8.41986551 L1.6276307,4.40477431 C1.07535533,4.1457366 -0.167349735,3.51522485 0.0188264703,2.7728345 C0.206541271,2.02430706 2.25194404,3.08367976 2.75619547,3.26500616 L10.4374809,6.89713128 L10.4374809,6.89713128 L10.4374809,6.89713128 L10.4374809,6.89713128 Z M10.4374809,6.89713128" id="path3723"/><path d="M2.02745165,4.64171052 L2.9163858,2.70756557 C3.23386163,2.19985361 2.57774309,1.64378605 2.11211187,2.29656065 L1.11735245,4.0614662 C0.672886281,5.02853868 1.60415054,5.29448511 2.02745165,4.64171052 C2.02745165,4.64171052 1.60415054,5.29448511 2.02745165,4.64171052 L2.02745165,4.64171052 L2.02745165,4.64171052 L2.02745165,4.64171052 L2.02745165,4.64171052 Z M2.02745165,4.64171052" id="path3735"/></g><g id="Banner" stroke="#000000" stroke-width="0.1" transform="translate(12.000000, 77.000000)"><g fill="#FFFFFF" id="g3765"><g id="g3753"><path d="M21,3.59615355 L20.9210536,1 L18.1578951,1.17307741 L18,4 L21,3.59615355 L21,3.59615355 L21,3.59615355 L21,3.59615355 Z M21,3.59615355" id="path3743"/><path d="M3.31764541,6.11143953 L0.0465952,4.09566538 C13.5358935,5.45384436 16.2906444,0.284668532 19.550231,0.00817742156 C21.5539528,-0.163761917 21.8668431,2.44628559 17.9841554,1.20466339 L18.9882578,3.93440275 C18.9882578,3.93440275 9.4122218,9.8528051 0,7.40808599 L3.31764541,6.11143953 L3.31764541,6.11143953 L3.31764541,6.11143953 L3.31764541,6.11143953 Z M3.31764541,6.11143953" id="path3741"/></g><g id="use3757" transform="translate(71.500000, 4.000000) scale(-1, 1) translate(-71.500000, -4.000000) translate(60.000000, 0.000000)"><path d="M22,3.67138939 L21.9345138,1 L19.1309744,1.09115395 L19,4 L22,3.67138939 L22,3.67138939 L22,3.67138939 L22,3.67138939 Z M22,3.67138939" id="path3761"/><path d="M3.48948719,5.94349399 L0.401706403,3.9751904 C15.9021102,4.51468715 12.3730352,1.00121774 20.1283841,0.0152890576 C22.1324169,-0.238425351 23.6388562,2.77022057 18.5573546,1.29153261 L19.5646332,4.20323601 L17.1268239,4.20606273 C11.8468147,8.26782129 4.72099743,8.63041659 0,7.32657472 L3.48948719,5.94349399 L3.48948719,5.94349399 L3.48948719,5.94349399 L3.48948719,5.94349399 Z M3.48948719,5.94349399" id="path3763"/></g><path d="M18,1 L18.0000021,4.66666716 C18.0000021,4.66666716 26.6190884,8 41.999999,8 C57.4470936,8 66,4.66666716 66,4.66666716 L66,1 C66,1 59.476538,4.13333349 41.999999,4.13333349 C24.5897353,4.13333349 18,1 18,1 L18,1 L18,1 L18,1 L18,1 Z M18,1" id="path3745"/></g><g id="g3806" transform="translate(18.000000, 2.000000)"><path d="M2,2.54667462 L2.86533414,0 L3.26728728,0.096008625 L2.50406943,2.34215507 L4,2.69947182 L3.89788371,3 L2,2.54667462 L2,2.54667462 L2,2.54667462 L2,2.54667462 Z M5,1.94987474 L5.07974069,1.43859301 L5.29291107,1 L6,1.09257503 L5.78682962,1.53116805 L5.38286284,2 L5,1.94987474 L5,1.94987474 L5,1.94987474 L5,1.94987474 Z M8.57048147,1.35973901 L9,1.43251266 L8.61824645,2.99326614 C8.55183871,3.26475453 8.46220546,3.47409617 8.3493467,3.62129312 C8.23648299,3.768488 8.07149922,3.87582585 7.85439291,3.94331076 C7.63728412,4.01079362 7.37227427,4.01802856 7.05936334,3.96501146 C6.75530612,3.91349367 6.51726568,3.82774531 6.34524447,3.70776435 C6.17322079,3.58778338 6.06608799,3.43817891 6.02384606,3.25894681 C5.98160167,3.07971471 5.995486,2.8469836 6.06549658,2.56075347 L6.44725014,1 L6.87676619,1.07277159 L6.49546547,2.63168389 C6.43807475,2.86632002 6.4219807,3.04366358 6.44718828,3.16371663 C6.4723909,3.28376968 6.54147108,3.38470873 6.6544214,3.46653378 C6.76737171,3.54836089 6.91609812,3.60490381 7.10060063,3.6361646 C7.41646361,3.68968215 7.65612732,3.66823888 7.81959176,3.5718348 C7.98305125,3.47543277 8.10624593,3.25770494 8.18918075,2.91864925 L8.57048147,1.35973901 L8.57048147,1.35973901 L8.57048147,1.35973901 L8.57048147,1.35973901 Z M9,4.65751922 L9.51577056,2 L9.9437896,2.05900734 L11.1949984,4.37382449 L11.5999434,2.28732787 L12,2.34248078 L11.4842318,5 L11.0562128,4.94099266 L9.80535729,2.62436296 L9.40005904,4.71267213 L9,4.65751922 L9,4.65751922 L9,4.65751922 L9,4.65751922 Z M12,4.94596246 L12.5115895,2 L13,2.05403754 L12.4884105,5 L12,4.94596246 L12,4.94596246 L12,4.94596246 L12,4.94596246 Z M13.0119363,3.38149861 C13.07082,2.90365677 13.255285,2.54422391 13.5653311,2.30319786 C13.8753749,2.0621783 14.2492399,1.9648531 14.6869286,2.01122225 C14.9735407,2.0415924 15.2240938,2.13246043 15.4385877,2.2838285 C15.6530747,2.43520306 15.8066818,2.63085354 15.8994139,2.87077994 C15.9921366,3.11071067 16.0207532,3.3746821 15.9852661,3.66269639 C15.9492864,3.95463954 15.8535661,4.20908647 15.6981053,4.42603502 C15.5426399,4.64298574 15.3411259,4.79835843 15.0935657,4.89215524 C14.8460009,4.98595205 14.5873844,5.01856479 14.3177139,4.98999347 C14.0254499,4.95903019 13.7723172,4.86589793 13.5583112,4.71059885 C13.3443051,4.55529976 13.1919563,4.35812536 13.1012669,4.11907564 C13.0105776,3.88002593 12.9808007,3.63416836 13.0119363,3.38149861 L13.0119363,3.38149861 L13.0119363,3.38149861 L13.0119363,3.38149861 L13.0119363,3.38149861 Z M13.0116102,3.94064424 C12.9718988,4.23725303 13.0340584,4.48001405 13.1980934,4.66892914 C13.362124,4.85784238 13.5851244,4.96604873 13.8670924,4.99354448 C14.1543037,5.02155287 14.4022352,4.95842202 14.6108889,4.80414821 C14.8195361,4.64987625 14.9450653,4.41436255 14.9874765,4.09760711 C15.0142963,3.89725658 14.9980392,3.7185018 14.938703,3.56133906 C14.8793624,3.40417817 14.7788055,3.27701517 14.6370365,3.17984821 C14.495261,3.0826831 14.3292917,3.02482857 14.1391309,3.00628092 C13.8689659,2.97993815 13.6259049,3.03645833 13.4099477,3.17584331 C13.1939884,3.31523014 13.06121,3.57016317 13.0116102,3.94064424 L13.0116102,3.94064424 L13.0116102,3.94064424 L13.0116102,3.94064424 L13.0116102,3.94064424 Z M16,5.81846183 L16.1880246,3 L16.5002181,3.03127674 L17.5605778,5.36516145 L17.7082017,3.1523043 L18,3.18153817 L17.8119771,6 L17.4997837,5.96872115 L16.4395498,3.6329161 L16.2917983,5.8476957 L16,5.81846183 L16,5.81846183 L16,5.81846183 L16,5.81846183 Z M20,5.98274776 L20.1216889,3 L22,3.0879496 L21.9856407,3.43993761 L20.4757753,3.36924024 L20.4380896,4.29295643 L21.7447404,4.35413886 L21.730379,4.70612687 L20.4237282,4.64494444 L20.3684457,6 L20,5.98274776 L20,5.98274776 L20,5.98274776 L20,5.98274776 Z M22,5.94622694 L23.2930989,3 L23.750098,3.00819072 L25,6 L24.5167642,5.99133909 L24.161651,5.08564507 L22.8212714,5.06161852 L22.4504363,5.95430011 L22,5.94622694 L22,5.94622694 L22,5.94622694 L22,5.94622694 Z M22,3.98654381 L23,4 L22.7079668,3.42800566 C22.618872,3.25424269 22.553067,3.11157465 22.5105495,3 C22.4693301,3.13096914 22.4127092,3.26079689 22.340691,3.38948325 L22,3.98654381 L22,3.98654381 L22,3.98654381 L22,3.98654381 Z M25,5.99923819 L25.005409,3 L25.3773545,3.00076405 L25.3719455,6 L25,5.99923819 L25,5.99923819 L25,5.99923819 L25,5.99923819 Z M25.8654696,6 L25.8338014,3.37138607 L25.0042365,3.38538753 L25,3.03368545 L26.9957635,3 L27,3.35170209 L26.1670018,3.36576144 L26.1986681,5.99437759 L25.8654696,6 L25.8654696,6 L25.8654696,6 L25.8654696,6 Z M29.1394058,6 L29,3.01847179 L29.3940566,3 L29.5170115,5.62968568 L30.9835491,5.56094048 L31,5.91278524 L29.1394058,6 L29.1394058,6 L29.1394058,6 L29.1394058,6 Z M31,6 L32.0026793,3.02936782 L32.4596775,3 L34,5.80721104 L33.5167635,5.83826587 L33.0736923,4.98655374 L31.7333127,5.07269081 L31.4504368,5.97105448 L31,6 L31,6 L31,6 L31,6 Z M32,4 L33,3.95130349 L32.6339546,3.40791031 C32.5223779,3.24286042 32.4381021,3.10688981 32.381123,3 C32.3570386,3.13111123 32.3174324,3.26205634 32.2623068,3.39283233 L32,4 L32,4 L32,4 L32,4 Z M35.3209093,5 L35,2.20783382 L36.96213,2 L37,2.32949832 L35.4227587,2.49656324 L35.522138,3.36125945 L36.8870982,3.21667858 L36.9249682,3.5461769 L35.560008,3.69075777 L35.7057958,4.95923111 L35.3209093,5 L35.3209093,5 L35.3209093,5 L35.3209093,5 Z M37.0261782,3.73396369 C36.9529351,3.25793979 37.0333854,2.86702728 37.267527,2.5612305 C37.5016686,2.25543805 37.8366712,2.07368874 38.2725372,2.01598474 C38.5579574,1.97820434 38.8249899,2.00739504 39.0736368,2.10355899 C39.3222791,2.19972727 39.5241155,2.35299142 39.6791483,2.56335142 C39.8341741,2.77371358 39.9337636,3.02235607 39.977912,3.30927456 C40.0226577,3.60010808 39.9994193,3.86866768 39.9081966,4.11495552 C39.8169693,4.36124336 39.6644423,4.55875885 39.4506134,4.70749765 C39.2367774,4.85623862 38.9955873,4.94838366 38.7270407,4.98393493 C38.4359928,5.02246414 38.1658479,4.99168925 37.9166013,4.89161027 C37.6673547,4.79153128 37.4663209,4.63649683 37.3135023,4.42650907 C37.1606814,4.21652131 37.0649067,3.98567285 37.0261782,3.73396369 L37.0261782,3.73396369 L37.0261782,3.73396369 L37.0261782,3.73396369 L37.0261782,3.73396369 Z M37.0248787,3.15629462 C37.0742261,3.45179117 37.206058,3.67322391 37.4203808,3.82059471 C37.6347037,3.96796736 37.8821225,4.02454495 38.1626439,3.99032935 C38.4483788,3.95547721 38.6692209,3.84093237 38.8251656,3.64668929 C38.9811083,3.45244991 39.0327312,3.19754726 38.9800365,2.88197766 C38.9467024,2.68237954 38.8781374,2.51296317 38.7743438,2.3737267 C38.6705481,2.23449393 38.5358041,2.1331683 38.3701185,2.0697461 C38.2044285,2.0063313 38.0269906,1.98616018 37.8378047,2.00923272 C37.5690292,2.04201797 37.3509368,2.14911868 37.1835342,2.33053299 C37.0161295,2.511951 36.9632443,2.78720426 37.0248787,3.15629462 L37.0248787,3.15629462 L37.0248787,3.15629462 L37.0248787,3.15629462 L37.0248787,3.15629462 Z M40.5123478,4 L40,1.26212944 L41.2515275,1.04178834 C41.5031151,0.997496033 41.6989762,0.988413895 41.8391088,1.01453985 C41.9792392,1.04066997 42.1001048,1.1090947 42.2017077,1.21981196 C42.3033041,1.33053338 42.3682011,1.46121929 42.3963943,1.61186761 C42.4327402,1.80609731 42.3985547,1.98123559 42.2938421,2.13727832 C42.1891252,2.2933252 42.0047235,2.41324309 41.7406392,2.49703407 C41.8480972,2.52570028 41.9316932,2.55792327 41.9914274,2.5937051 C42.1187053,2.67161109 42.244753,2.77481153 42.3695706,2.90330642 L43,3.56202852 L42.530196,3.64474062 L42.0500685,3.14089298 C41.9102059,2.99575547 41.79682,2.88582606 41.7099128,2.81110058 C41.6230034,2.73637719 41.5483679,2.68649923 41.4860084,2.6614667 C41.4236468,2.63643834 41.3623031,2.62215928 41.3019775,2.61863161 C41.257987,2.61737603 41.1878564,2.6252213 41.0915857,2.6421695 L40.6583655,2.71844158 L40.8858811,3.93423609 L40.5123478,4 L40.5123478,4 L40.5123478,4 L40.5123478,4 Z M40.2133479,3 L41.223938,2.86944966 C41.4388181,2.84169276 41.6028146,2.80417737 41.7159248,2.75689964 C41.8290324,2.70962768 41.9082211,2.64713722 41.9534911,2.56942827 C41.9987584,2.49172509 42.010981,2.41205215 41.9901614,2.33040948 C41.9596604,2.21082712 41.8735956,2.12039354 41.7319671,2.05910874 C41.5903358,1.99782778 41.3878455,1.98419699 41.1244962,2.01821445 L40,2.16347836 L40.2133479,3 L40.2133479,3 L40.2133479,3 L40.2133479,3 Z M45.5559563,2.73790731 L46,2.74815103 C45.9896064,3.0720994 45.8903846,3.33737411 45.7023322,3.543973 C45.5142749,3.75057405 45.2549285,3.88691304 44.924293,3.95298998 C44.5821041,4.02137856 44.2881245,4.01514944 44.0423518,3.93430696 C43.7965766,3.85346664 43.588002,3.70694221 43.4166255,3.49473798 C43.2452467,3.28253591 43.1254297,3.04184741 43.0571748,2.77267034 C42.982742,2.47914231 42.9809843,2.21048324 43.0519014,1.96668666 C43.1228186,1.72289656 43.2604833,1.52098138 43.4648956,1.36093895 C43.6693079,1.200903 43.9115651,1.09289287 44.1916695,1.03691072 C44.50931,0.973432482 44.7946198,0.991830595 45.0475987,1.09210506 C45.3005753,1.19238384 45.5026463,1.36411178 45.6538166,1.60728674 L45.2620983,1.77647858 C45.1364561,1.58611078 44.991748,1.45813555 44.8279717,1.39255288 C44.6641904,1.32697453 44.4761818,1.31539261 44.2639384,1.35780713 C44.0199308,1.40657594 43.8291554,1.4992464 43.6916073,1.6358185 C43.5540617,1.77239707 43.4742632,1.93480293 43.4522142,2.12303825 C43.4301652,2.31127572 43.4427056,2.49832391 43.4898354,2.68418068 C43.5506142,2.92387632 43.6430212,3.12526485 43.7670515,3.28834629 C43.8910818,3.45142989 44.047331,3.56060124 44.2357991,3.61586033 C44.4242648,3.67112157 44.6152348,3.67941842 44.8087089,3.64075087 C45.0440515,3.59371741 45.2280219,3.49365447 45.3606247,3.34055774 C45.4932227,3.18746532 45.5583316,2.98658185 45.5559563,2.73790731 L45.5559563,2.73790731 L45.5559563,2.73790731 L45.5559563,2.73790731 L45.5559563,2.73790731 Z M45.8167838,3 L45,0.503883403 L47.1153659,0 L47.2117532,0.294561042 L45.4835387,0.706224351 L45.7337006,1.47072588 L47.3521533,1.08520706 L47.4479847,1.37806631 L45.8295297,1.76358513 L46.1075478,2.61321887 L47.9036127,2.18539337 L48,2.47995441 L45.8167838,3 L45.8167838,3 L45.8167838,3 L45.8167838,3 Z M45.8167838,3" fill="#000000" id="text3774"/><path d="M0,3 C0,3 8.79865101,7 24.4999979,7 C40.2689077,7 49,3 49,3" id="path3150"/></g></g></g></g></g></svg>